M48
; DRILL file {KiCad 8.0.3-8.0.3-0~ubuntu22.04.1} date 2024-09-02T19:15:43+0530
; FORMAT={-:-/ absolute / inch / decimal}
; #@! TF.CreationDate,2024-09-02T19:15:43+05:30
; #@! TF.GenerationSoftware,Kicad,Pcbnew,8.0.3-8.0.3-0~ubuntu22.04.1
; #@! TF.FileFunction,MixedPlating,1,2
FMAT,2
INCH
; #@! TA.AperFunction,Plated,PTH,ComponentDrill
T1C0.0315
; #@! TA.AperFunction,Plated,PTH,ComponentDrill
T2C0.0354
; #@! TA.AperFunction,Plated,PTH,ComponentDrill
T3C0.0394
; #@! TA.AperFunction,Plated,PTH,ComponentDrill
T4C0.0400
; #@! TA.AperFunction,Plated,PTH,ComponentDrill
T5C0.0433
; #@! TA.AperFunction,Plated,PTH,ComponentDrill
T6C0.0591
; #@! TA.AperFunction,NonPlated,NPTH,ComponentDrill
T7C0.0800
%
G90
G05
T1
X4.05Y-2.71
X4.05Y-3.01
X4.35Y-2.71
X4.35Y-3.01
T2
X2.1187Y-2.53
X2.1187Y-2.6087
X2.1187Y-2.6875
T3
X1.9698Y-2.19
X1.9698Y-2.29
X2.37Y-2.4
X2.37Y-2.8
X2.45Y-1.8494
X2.45Y-1.9494
X2.45Y-2.0494
X2.47Y-2.4
X2.47Y-2.8
X2.55Y-1.8494
X2.55Y-1.9494
X2.55Y-2.0494
X2.57Y-2.4
X2.57Y-2.8
X2.65Y-1.8494
X2.65Y-1.9494
X2.65Y-2.0494
X2.67Y-2.4
X2.67Y-2.8
X2.75Y-1.8494
X2.75Y-1.9494
X2.75Y-2.0494
X2.77Y-2.4
X2.77Y-2.8
X2.87Y-2.4
X2.87Y-2.8
X2.97Y-2.4
X2.97Y-2.8
X3.07Y-2.4
X3.07Y-2.8
X3.17Y-2.4
X3.17Y-2.8
X3.27Y-2.4
X3.27Y-2.8
X3.37Y-2.4
X3.37Y-2.8
X3.47Y-2.4
X3.47Y-2.8
X3.55Y-1.8494
X3.55Y-1.9494
X3.55Y-2.0494
X3.57Y-2.4
X3.57Y-2.8
X3.65Y-1.8494
X3.65Y-1.9494
X3.65Y-2.0494
X3.67Y-2.4
X3.67Y-2.8
X3.75Y-1.8494
X3.75Y-1.9494
X3.75Y-2.0494
X3.77Y-2.4
X3.77Y-2.8
X3.85Y-1.8494
X3.85Y-1.9494
X3.85Y-2.0494
X4.05Y-2.81
X4.05Y-2.91
X4.15Y-2.16
X4.15Y-2.26
X4.15Y-2.36
X4.15Y-2.46
X4.15Y-2.81
X4.15Y-2.91
X4.25Y-2.16
X4.25Y-2.26
X4.25Y-2.36
X4.25Y-2.46
X4.25Y-2.81
X4.25Y-2.91
X4.35Y-2.16
X4.35Y-2.26
X4.35Y-2.36
X4.35Y-2.46
X4.35Y-2.81
X4.35Y-2.91
T4
X1.95Y-3.45
X1.95Y-3.55
X1.95Y-3.65
X1.95Y-3.75
X1.95Y-3.85
X2.37Y-2.3
X2.37Y-2.9
X2.47Y-2.3
X2.47Y-2.9
X2.57Y-2.3
X2.57Y-2.9
X2.575Y-3.45
X2.575Y-3.55
X2.575Y-3.65
X2.575Y-3.75
X2.575Y-3.85
X2.67Y-2.3
X2.67Y-2.9
X2.77Y-2.3
X2.77Y-2.9
X2.87Y-2.3
X2.87Y-2.9
X2.97Y-2.3
X2.97Y-2.9
X3.07Y-2.3
X3.07Y-2.9
X3.1Y-3.45
X3.1Y-3.55
X3.1Y-3.65
X3.1Y-3.75
X3.1Y-3.85
X3.17Y-2.3
X3.17Y-2.9
X3.2Y-3.45
X3.2Y-3.55
X3.2Y-3.65
X3.2Y-3.75
X3.2Y-3.85
X3.27Y-2.3
X3.27Y-2.9
X3.37Y-2.3
X3.37Y-2.9
X3.47Y-2.3
X3.47Y-2.9
X3.57Y-2.3
X3.57Y-2.9
X3.67Y-2.3
X3.67Y-2.9
X3.725Y-3.45
X3.725Y-3.55
X3.725Y-3.65
X3.725Y-3.75
X3.725Y-3.85
X3.77Y-2.3
X3.77Y-2.9
X4.35Y-3.45
X4.35Y-3.55
X4.35Y-3.65
X4.35Y-3.75
X4.35Y-3.85
T5
X1.97Y-3.11
X2.37Y-3.11
T6
X2.1187Y-2.4473
X2.1187Y-2.7702
T7
X2.025Y-3.3
X2.025Y-4.0
X2.27Y-2.3
X2.27Y-2.9
X2.65Y-3.3
X2.65Y-4.0
X3.025Y-3.3
X3.025Y-4.0
X3.275Y-3.3
X3.275Y-4.0
X3.65Y-3.3
X3.65Y-4.0
X3.87Y-2.3
X3.87Y-2.9
X4.275Y-3.3
X4.275Y-4.0
M30
