M48
INCH
T1C0.0197
T2C0.1575
%
G90
G05
T1
X-0.6496Y-1.252
X-0.6496Y-1.3858
X-0.6102Y-1.252
X-0.6102Y-1.3858
X-0.5709Y-1.252
X-0.5709Y-1.3858
X-0.5315Y-1.252
X-0.5315Y-1.3858
X-0.4921Y-1.252
X-0.4921Y-1.3858
X0.4921Y-1.252
X0.4921Y-1.3858
X0.5315Y-1.252
X0.5315Y-1.3858
X0.5709Y-1.252
X0.5709Y-1.3858
X0.6102Y-1.252
X0.6102Y-1.3858
X0.6496Y-1.252
X0.6496Y-1.3858
T2
X1.2441Y0.0984
X1.2441Y-0.1181
M30
