%TF.GenerationSoftware,KiCad,Pcbnew,9.0.3-9.0.3-0~ubuntu24.04.1*%
%TF.CreationDate,2025-08-01T14:03:20+05:30*%
%TF.ProjectId,TheThing,54686554-6869-46e6-972e-6b696361645f,v8*%
%TF.SameCoordinates,Original*%
%TF.FileFunction,Soldermask,Bot*%
%TF.FilePolarity,Negative*%
%FSLAX46Y46*%
G04 Gerber Fmt 4.6, Leading zero omitted, Abs format (unit mm)*
G04 Created by KiCad (PCBNEW 9.0.3-9.0.3-0~ubuntu24.04.1) date 2025-08-01 14:03:20*
%MOMM*%
%LPD*%
G01*
G04 APERTURE LIST*
G04 Aperture macros list*
%AMRoundRect*
0 Rectangle with rounded corners*
0 $1 Rounding radius*
0 $2 $3 $4 $5 $6 $7 $8 $9 X,Y pos of 4 corners*
0 Add a 4 corners polygon primitive as box body*
4,1,4,$2,$3,$4,$5,$6,$7,$8,$9,$2,$3,0*
0 Add four circle primitives for the rounded corners*
1,1,$1+$1,$2,$3*
1,1,$1+$1,$4,$5*
1,1,$1+$1,$6,$7*
1,1,$1+$1,$8,$9*
0 Add four rect primitives between the rounded corners*
20,1,$1+$1,$2,$3,$4,$5,0*
20,1,$1+$1,$4,$5,$6,$7,0*
20,1,$1+$1,$6,$7,$8,$9,0*
20,1,$1+$1,$8,$9,$2,$3,0*%
%AMOutline5P*
0 Free polygon, 5 corners , with rotation*
0 The origin of the aperture is its center*
0 number of corners: always 5*
0 $1 to $10 corner X, Y*
0 $11 Rotation angle, in degrees counterclockwise*
0 create outline with 5 corners*
4,1,5,$1,$2,$3,$4,$5,$6,$7,$8,$9,$10,$1,$2,$11*%
%AMOutline6P*
0 Free polygon, 6 corners , with rotation*
0 The origin of the aperture is its center*
0 number of corners: always 6*
0 $1 to $12 corner X, Y*
0 $13 Rotation angle, in degrees counterclockwise*
0 create outline with 6 corners*
4,1,6,$1,$2,$3,$4,$5,$6,$7,$8,$9,$10,$11,$12,$1,$2,$13*%
%AMOutline7P*
0 Free polygon, 7 corners , with rotation*
0 The origin of the aperture is its center*
0 number of corners: always 7*
0 $1 to $14 corner X, Y*
0 $15 Rotation angle, in degrees counterclockwise*
0 create outline with 7 corners*
4,1,7,$1,$2,$3,$4,$5,$6,$7,$8,$9,$10,$11,$12,$13,$14,$1,$2,$15*%
%AMOutline8P*
0 Free polygon, 8 corners , with rotation*
0 The origin of the aperture is its center*
0 number of corners: always 8*
0 $1 to $16 corner X, Y*
0 $17 Rotation angle, in degrees counterclockwise*
0 create outline with 8 corners*
4,1,8,$1,$2,$3,$4,$5,$6,$7,$8,$9,$10,$11,$12,$13,$14,$15,$16,$1,$2,$17*%
G04 Aperture macros list end*
%ADD10C,0.500000*%
%ADD11O,3.302000X2.032000*%
%ADD12O,2.540000X1.270000*%
%ADD13RoundRect,0.317500X-0.952500X0.317500X-0.952500X-0.317500X0.952500X-0.317500X0.952500X0.317500X0*%
%ADD14RoundRect,0.425000X0.425000X-0.425000X0.425000X0.425000X-0.425000X0.425000X-0.425000X-0.425000X0*%
%ADD15O,1.700000X1.700000*%
%ADD16Outline8P,-0.850000X0.340000X-0.340000X0.850000X0.340000X0.850000X0.850000X0.340000X0.850000X-0.340000X0.340000X-0.850000X-0.340000X-0.850000X-0.850000X-0.340000X0.000000*%
%ADD17C,1.600000*%
%ADD18O,1.600000X1.600000*%
%ADD19RoundRect,0.444500X0.444500X-0.444500X0.444500X0.444500X-0.444500X0.444500X-0.444500X-0.444500X0*%
%ADD20O,1.778000X1.778000*%
%ADD21RoundRect,0.250000X0.600000X-0.600000X0.600000X0.600000X-0.600000X0.600000X-0.600000X-0.600000X0*%
%ADD22RoundRect,0.425000X-0.425000X-0.425000X0.425000X-0.425000X0.425000X0.425000X-0.425000X0.425000X0*%
%ADD23RoundRect,0.250000X-0.385000X0.893000X-0.385000X-0.893000X0.385000X-0.893000X0.385000X0.893000X0*%
%ADD24O,1.270000X2.286000*%
%ADD25C,3.500000*%
%ADD26O,2.400000X1.400000*%
%ADD27RoundRect,0.250000X-0.950000X0.950000X-0.950000X-0.950000X0.950000X-0.950000X0.950000X0.950000X0*%
%ADD28C,2.000000*%
%ADD29C,2.400000*%
%ADD30C,4.000000*%
%ADD31C,4.400000*%
%ADD32C,4.800000*%
%ADD33O,1.600000X2.000000*%
%ADD34RoundRect,0.388793X0.513207X0.513207X-0.513207X0.513207X-0.513207X-0.513207X0.513207X-0.513207X0*%
%ADD35C,1.804000*%
%ADD36RoundRect,0.250000X-0.300000X-0.650000X0.300000X-0.650000X0.300000X0.650000X-0.300000X0.650000X0*%
%ADD37RoundRect,0.275000X-0.275000X-0.625000X0.275000X-0.625000X0.275000X0.625000X-0.275000X0.625000X0*%
%ADD38RoundRect,0.250000X0.950000X-0.950000X0.950000X0.950000X-0.950000X0.950000X-0.950000X-0.950000X0*%
%ADD39RoundRect,0.250000X-1.150000X-0.750000X1.150000X-0.750000X1.150000X0.750000X-1.150000X0.750000X0*%
%ADD40O,2.800000X2.000000*%
%ADD41R,1.700000X1.700000*%
%ADD42C,1.700000*%
%ADD43RoundRect,0.250000X-0.600000X0.600000X-0.600000X-0.600000X0.600000X-0.600000X0.600000X0.600000X0*%
%ADD44RoundRect,0.425000X-0.425000X0.425000X-0.425000X-0.425000X0.425000X-0.425000X0.425000X0.425000X0*%
G04 APERTURE END LIST*
D10*
%TO.C,REF\u002A\u002A*%
X-12500000Y-35200000D03*
%TD*%
D11*
%TO.C,SW1*%
X27700000Y-15300000D03*
X27700000Y-7100000D03*
D12*
X27700000Y-9200000D03*
X27700000Y-11200000D03*
D13*
X27700000Y-13200000D03*
%TD*%
D14*
%TO.C,J1*%
X-32800000Y-720000D03*
D15*
X-30260000Y-720000D03*
X-27720000Y-720000D03*
X-25180000Y-720000D03*
%TD*%
D16*
%TO.C,J39*%
X2032000Y-6350000D03*
%TD*%
D17*
%TO.C,R8*%
X8000000Y8150000D03*
D18*
X15620000Y8150000D03*
%TD*%
D19*
%TO.C,D1*%
X27400000Y-3780000D03*
D20*
X27400000Y6380000D03*
%TD*%
D10*
%TO.C,REF\u002A\u002A*%
X-13500000Y-31800000D03*
%TD*%
D16*
%TO.C,J48*%
X-13208000Y-6350000D03*
%TD*%
D21*
%TO.C,J17*%
X11425000Y-30000000D03*
D15*
X8885000Y-30000000D03*
X6345000Y-30000000D03*
X3805000Y-30000000D03*
X1265000Y-30000000D03*
X-1275000Y-30000000D03*
X-3815000Y-30000000D03*
X-6355000Y-30000000D03*
X-8895000Y-30000000D03*
X-11435000Y-30000000D03*
%TD*%
D22*
%TO.C,J9*%
X-18540000Y-24920000D03*
D15*
X-18540000Y-27460000D03*
X-18540000Y-30000000D03*
%TD*%
D17*
%TO.C,R14*%
X-7980000Y10690000D03*
D18*
X-15600000Y10690000D03*
%TD*%
D17*
%TO.C,R1*%
X-32800000Y-5800000D03*
D18*
X-25180000Y-5800000D03*
%TD*%
D10*
%TO.C,REF\u002A\u002A*%
X15500000Y-35200000D03*
%TD*%
D17*
%TO.C,R4*%
X-24600000Y-38000000D03*
D18*
X-16980000Y-38000000D03*
%TD*%
D23*
%TO.C,J18*%
X19812000Y-3810000D03*
D24*
X17272000Y-3810000D03*
X14732000Y-3810000D03*
X12192000Y-3810000D03*
X9652000Y-3810000D03*
X7112000Y-3810000D03*
X4572000Y-3810000D03*
X2032000Y-3810000D03*
X-508000Y-3810000D03*
X-3048000Y-3810000D03*
X-5588000Y-3810000D03*
X-8128000Y-3810000D03*
X-10668000Y-3810000D03*
X-13208000Y-3810000D03*
X-15748000Y-3810000D03*
%TD*%
D17*
%TO.C,R11*%
X8000000Y15770000D03*
D18*
X15620000Y15770000D03*
%TD*%
D22*
%TO.C,J10*%
X-16000000Y-24920000D03*
D15*
X-16000000Y-27460000D03*
X-16000000Y-30000000D03*
%TD*%
D16*
%TO.C,J37*%
X-3048000Y-6350000D03*
%TD*%
D10*
%TO.C,REF\u002A\u002A*%
X15500000Y-31800000D03*
%TD*%
D16*
%TO.C,J25*%
X7112000Y-16510000D03*
%TD*%
D22*
%TO.C,J7*%
X-23620000Y-24920000D03*
D15*
X-23620000Y-27460000D03*
X-23620000Y-30000000D03*
%TD*%
D25*
%TO.C,LCD1*%
X20750000Y2000000D03*
X20750000Y27000000D03*
X-20750000Y2000000D03*
X-20750000Y27000000D03*
D26*
X21750000Y5610000D03*
X21750000Y8150000D03*
X21750000Y10690000D03*
X21750000Y13230000D03*
X21750000Y15770000D03*
X21750000Y18310000D03*
X21750000Y20850000D03*
X21750000Y23390000D03*
%TD*%
D10*
%TO.C,REF\u002A\u002A*%
X-15500000Y-31800000D03*
%TD*%
D27*
%TO.C,SW2*%
X29500000Y-45750000D03*
D28*
X29250000Y-48750000D03*
X29250000Y-55250000D03*
D29*
X29500000Y-58250000D03*
X24500000Y-45750000D03*
D28*
X24750000Y-48750000D03*
X24750000Y-55250000D03*
D29*
X24500000Y-58250000D03*
%TD*%
D16*
%TO.C,J49*%
X-8128000Y-16510000D03*
%TD*%
D10*
%TO.C,REF\u002A\u002A*%
X12500000Y-31800000D03*
%TD*%
D16*
%TO.C,J38*%
X-508000Y-6350000D03*
%TD*%
%TO.C,J33*%
X-10668000Y-16510000D03*
%TD*%
D10*
%TO.C,REF\u002A\u002A*%
X16500000Y-31800000D03*
%TD*%
D22*
%TO.C,J3*%
X16000000Y-24920000D03*
D15*
X16000000Y-27460000D03*
X16000000Y-30000000D03*
%TD*%
D16*
%TO.C,J46*%
X-8128000Y-6350000D03*
%TD*%
D10*
%TO.C,REF\u002A\u002A*%
X-13500000Y-35200000D03*
%TD*%
D16*
%TO.C,J20*%
X-5588000Y-16510000D03*
%TD*%
D17*
%TO.C,R3*%
X17000000Y-38000000D03*
D18*
X24620000Y-38000000D03*
%TD*%
D10*
%TO.C,REF\u002A\u002A*%
X-14500000Y-31800000D03*
%TD*%
D16*
%TO.C,J34*%
X-13208000Y-16510000D03*
%TD*%
D10*
%TO.C,REF\u002A\u002A*%
X-15500000Y-35200000D03*
%TD*%
%TO.C,REF\u002A\u002A*%
X16500000Y-35200000D03*
%TD*%
D16*
%TO.C,J40*%
X4572000Y-6350000D03*
%TD*%
D10*
%TO.C,REF\u002A\u002A*%
X14500000Y-35200000D03*
%TD*%
D17*
%TO.C,R5*%
X-17018000Y-51308000D03*
X-17018000Y-48768000D03*
%TD*%
D16*
%TO.C,J41*%
X7112000Y-6350000D03*
%TD*%
D30*
%TO.C,H2*%
X31600000Y-3000000D03*
%TD*%
D16*
%TO.C,J22*%
X-508000Y-16510000D03*
%TD*%
D22*
%TO.C,J11*%
X-25190000Y-10600000D03*
D15*
X-25190000Y-13140000D03*
X-25190000Y-15680000D03*
%TD*%
D31*
%TO.C,OLED1*%
X-15200000Y29282000D03*
D32*
X-15200000Y782000D03*
D31*
X15200000Y29282000D03*
D32*
X15200000Y782000D03*
D33*
X-3810000Y29632000D03*
X-1270000Y29632000D03*
X1270000Y29632000D03*
X3810000Y29632000D03*
%TD*%
D10*
%TO.C,REF\u002A\u002A*%
X-12500000Y-31800000D03*
%TD*%
D16*
%TO.C,J44*%
X14732000Y-6350000D03*
%TD*%
D10*
%TO.C,REF\u002A\u002A*%
X13500000Y-31800000D03*
%TD*%
D23*
%TO.C,J19*%
X19812000Y-19050000D03*
D24*
X17272000Y-19050000D03*
X14732000Y-19050000D03*
X12192000Y-19050000D03*
X9652000Y-19050000D03*
X7112000Y-19050000D03*
X4572000Y-19050000D03*
X2032000Y-19050000D03*
X-508000Y-19050000D03*
X-3048000Y-19050000D03*
X-5588000Y-19050000D03*
X-8128000Y-19050000D03*
X-10668000Y-19050000D03*
X-13208000Y-19050000D03*
X-15748000Y-19050000D03*
%TD*%
D16*
%TO.C,J36*%
X-5588000Y-6350000D03*
%TD*%
D34*
%TO.C,RV1*%
X16470000Y-52324000D03*
D35*
X13970000Y-57324000D03*
X13970000Y-54864000D03*
X13970000Y-52324000D03*
X11470000Y-52324000D03*
%TD*%
D17*
%TO.C,R16*%
X-7980000Y15770000D03*
D18*
X-15600000Y15770000D03*
%TD*%
D17*
%TO.C,C1*%
X-11430000Y-52050000D03*
X-11430000Y-49550000D03*
%TD*%
%TO.C,R17*%
X-7980000Y18310000D03*
D18*
X-15600000Y18310000D03*
%TD*%
D36*
%TO.C,Q1*%
X12680000Y-48170000D03*
D37*
X13950000Y-46100000D03*
X15220000Y-48170000D03*
%TD*%
D19*
%TO.C,D2*%
X-8382000Y-55880000D03*
D20*
X-8382000Y-45720000D03*
%TD*%
D17*
%TO.C,R6*%
X-17000000Y-41500000D03*
D18*
X-24620000Y-41500000D03*
%TD*%
D16*
%TO.C,J24*%
X4572000Y-16510000D03*
%TD*%
D10*
%TO.C,REF\u002A\u002A*%
X-16500000Y-31800000D03*
%TD*%
D16*
%TO.C,J30*%
X19812000Y-16510000D03*
%TD*%
D22*
%TO.C,J14*%
X-32810000Y-10600000D03*
D15*
X-32810000Y-13140000D03*
X-32810000Y-15680000D03*
%TD*%
D16*
%TO.C,J42*%
X9652000Y-6350000D03*
%TD*%
D17*
%TO.C,R10*%
X8000000Y13230000D03*
D18*
X15620000Y13230000D03*
%TD*%
D16*
%TO.C,J28*%
X14732000Y-16510000D03*
%TD*%
D10*
%TO.C,REF\u002A\u002A*%
X-14500000Y-35200000D03*
%TD*%
D16*
%TO.C,J45*%
X-15748000Y-6350000D03*
%TD*%
D10*
%TO.C,REF\u002A\u002A*%
X13500000Y-35200000D03*
%TD*%
%TO.C,REF\u002A\u002A*%
X-16500000Y-35200000D03*
%TD*%
D16*
%TO.C,J26*%
X9652000Y-16510000D03*
%TD*%
%TO.C,J32*%
X-10668000Y-6350000D03*
%TD*%
%TO.C,J31*%
X19812000Y-6350000D03*
%TD*%
D22*
%TO.C,J13*%
X-30270000Y-10600000D03*
D15*
X-30270000Y-13140000D03*
X-30270000Y-15680000D03*
%TD*%
D16*
%TO.C,J29*%
X17272000Y-16510000D03*
%TD*%
D17*
%TO.C,R12*%
X8000000Y18310000D03*
D18*
X15620000Y18310000D03*
%TD*%
D17*
%TO.C,R15*%
X-7980000Y13230000D03*
D18*
X-15600000Y13230000D03*
%TD*%
D38*
%TO.C,SW3*%
X-29500000Y-58250000D03*
D28*
X-29250000Y-55250000D03*
X-29250000Y-48750000D03*
D29*
X-29500000Y-45750000D03*
X-24500000Y-58250000D03*
D28*
X-24750000Y-55250000D03*
X-24750000Y-48750000D03*
D29*
X-24500000Y-45750000D03*
%TD*%
D17*
%TO.C,R13*%
X-7980000Y8150000D03*
D18*
X-15600000Y8150000D03*
%TD*%
D39*
%TO.C,BZ1*%
X-3410000Y-45466000D03*
D40*
X3390000Y-45466000D03*
%TD*%
D22*
%TO.C,J4*%
X18540000Y-24920000D03*
D15*
X18540000Y-27460000D03*
X18540000Y-30000000D03*
%TD*%
D16*
%TO.C,J43*%
X12192000Y-6350000D03*
%TD*%
%TO.C,J35*%
X-15748000Y-16510000D03*
%TD*%
%TO.C,J27*%
X12192000Y-16510000D03*
%TD*%
D17*
%TO.C,R2*%
X-32800000Y1820000D03*
D18*
X-25180000Y1820000D03*
%TD*%
D30*
%TO.C,H1*%
X31600000Y2500000D03*
%TD*%
D10*
%TO.C,REF\u002A\u002A*%
X12500000Y-35200000D03*
%TD*%
D22*
%TO.C,J8*%
X-21080000Y-24920000D03*
D15*
X-21080000Y-27460000D03*
X-21080000Y-30000000D03*
%TD*%
D10*
%TO.C,REF\u002A\u002A*%
X14500000Y-31800000D03*
%TD*%
D16*
%TO.C,J21*%
X-3048000Y-16510000D03*
%TD*%
D17*
%TO.C,R9*%
X8000000Y10690000D03*
D18*
X15620000Y10690000D03*
%TD*%
D22*
%TO.C,J5*%
X21080000Y-24920000D03*
D15*
X21080000Y-27460000D03*
X21080000Y-30000000D03*
%TD*%
D17*
%TO.C,R7*%
X17000000Y-41500000D03*
D18*
X24620000Y-41500000D03*
%TD*%
D22*
%TO.C,J12*%
X-27730000Y-10600000D03*
D15*
X-27730000Y-13140000D03*
X-27730000Y-15680000D03*
%TD*%
D16*
%TO.C,J47*%
X17272000Y-6350000D03*
%TD*%
D14*
%TO.C,J2*%
X-32800000Y-3260000D03*
D15*
X-30260000Y-3260000D03*
X-27720000Y-3260000D03*
X-25180000Y-3260000D03*
%TD*%
D16*
%TO.C,J23*%
X2032000Y-16510000D03*
%TD*%
D22*
%TO.C,J6*%
X23620000Y-24920000D03*
D15*
X23620000Y-27460000D03*
X23620000Y-30000000D03*
%TD*%
D41*
%TO.C,J50*%
X2540000Y13300000D03*
D42*
X0Y13300000D03*
X-2540000Y13300000D03*
%TD*%
D43*
%TO.C,J15*%
X3810000Y-53594000D03*
D15*
X1270000Y-53594000D03*
X-1270000Y-53594000D03*
X-3810000Y-53594000D03*
%TD*%
D43*
%TO.C,J16*%
X11420000Y-37338000D03*
D15*
X8880000Y-37338000D03*
X6340000Y-37338000D03*
X3800000Y-37338000D03*
X1260000Y-37338000D03*
X-1280000Y-37338000D03*
X-3820000Y-37338000D03*
X-6360000Y-37338000D03*
X-8900000Y-37338000D03*
X-11440000Y-37338000D03*
%TD*%
D44*
%TO.C,BT1*%
X30300000Y17400000D03*
D42*
X32840000Y17400000D03*
%TD*%
M02*
