%TF.GenerationSoftware,KiCad,Pcbnew,9.0.3-9.0.3-0~ubuntu24.04.1*%
%TF.CreationDate,2025-08-01T14:03:20+05:30*%
%TF.ProjectId,TheThing,54686554-6869-46e6-972e-6b696361645f,v8*%
%TF.SameCoordinates,Original*%
%TF.FileFunction,Profile,NP*%
%FSLAX46Y46*%
G04 Gerber Fmt 4.6, Leading zero omitted, Abs format (unit mm)*
G04 Created by KiCad (PCBNEW 9.0.3-9.0.3-0~ubuntu24.04.1) date 2025-08-01 14:03:20*
%MOMM*%
%LPD*%
G01*
G04 APERTURE LIST*
%TA.AperFunction,Profile*%
%ADD10C,0.100000*%
%TD*%
G04 APERTURE END LIST*
D10*
X-37600000Y-10500000D02*
G75*
G02*
X-37100000Y-10000000I500000J0D01*
G01*
X-30276000Y28800000D02*
G75*
G02*
X-33324000Y28800000I-1524000J0D01*
G01*
X-33324000Y28800000D02*
G75*
G02*
X-30276000Y28800000I1524000J0D01*
G01*
X35000000Y-31000000D02*
G75*
G02*
X34000000Y-32000000I-1000000J0D01*
G01*
X-34000000Y-32000000D02*
G75*
G02*
X-35000000Y-31000000I0J1000000D01*
G01*
X35000000Y-54500000D02*
X37100000Y-54500000D01*
X-35000000Y-22000000D02*
X-27000000Y-22000000D01*
X-12000000Y-64100000D02*
X-12000000Y-62000000D01*
X40000000Y21400000D02*
X40000000Y20500000D01*
X-27000000Y-19000000D02*
G75*
G02*
X-27000000Y-20000000I0J-500000D01*
G01*
X-17000000Y-32000000D02*
G75*
G02*
X-17000000Y-35000000I0J-1500000D01*
G01*
X-37100000Y-54500000D02*
G75*
G02*
X-37600000Y-54000000I0J500000D01*
G01*
X-39500000Y20000000D02*
X-37600000Y20000000D01*
X-17000000Y-32000000D02*
X-34000000Y-32000000D01*
X17000000Y-35000000D02*
G75*
G02*
X17000000Y-32000000I0J1500000D01*
G01*
X35000000Y-22000000D02*
X38000000Y-22000000D01*
X37100000Y19000000D02*
G75*
G02*
X37600000Y18500000I0J-500000D01*
G01*
X-35000000Y-10000000D02*
X-37100000Y-10000000D01*
X27000000Y22000000D02*
G75*
G02*
X27000000Y23000000I0J500000D01*
G01*
X-23500000Y-64600000D02*
X-12500000Y-64600000D01*
X-34000000Y32000000D02*
X34000000Y32000000D01*
X-37100000Y10000000D02*
X-35000000Y10000000D01*
X35000000Y22000000D02*
X38000000Y22000000D01*
X35000000Y-20000000D02*
X27000000Y-20000000D01*
X-35000000Y-42500000D02*
X-37100000Y-42500000D01*
X38000000Y22000000D02*
X38000000Y23000000D01*
X37600000Y10500000D02*
G75*
G02*
X37100000Y10000000I-500000J0D01*
G01*
X-35000000Y31000000D02*
X-35000000Y24000000D01*
X-37600000Y20000000D02*
X-35000000Y20000000D01*
X34000000Y-35000000D02*
G75*
G02*
X35000000Y-36000000I0J-1000000D01*
G01*
X27000000Y19000000D02*
X37100000Y19000000D01*
X-40000000Y21400000D02*
X-40000000Y20500000D01*
X-27000000Y20000000D02*
G75*
G02*
X-27000000Y19000000I0J-500000D01*
G01*
X33324000Y28800000D02*
G75*
G02*
X30276000Y28800000I-1524000J0D01*
G01*
X30276000Y28800000D02*
G75*
G02*
X33324000Y28800000I1524000J0D01*
G01*
X39800000Y21800000D02*
X38000000Y23000000D01*
X-39800000Y-21800000D02*
G75*
G02*
X-40000000Y-21400000I300000J400000D01*
G01*
X-23500000Y-64600000D02*
G75*
G02*
X-24000000Y-64100000I0J500000D01*
G01*
X-40000000Y-21400000D02*
X-40000000Y-20500000D01*
X37100000Y-42500000D02*
G75*
G02*
X37600000Y-43000000I0J-500000D01*
G01*
X-40000000Y21400000D02*
G75*
G02*
X-39800000Y21800000I500000J0D01*
G01*
X37600000Y20000000D02*
X35000000Y20000000D01*
X37600000Y10500000D02*
X37600000Y18500000D01*
X37100000Y-10000000D02*
X35000000Y-10000000D01*
X12000000Y-32000000D02*
G75*
G02*
X12000000Y-35000000I0J-1500000D01*
G01*
X39800000Y-21800000D02*
X38000000Y-23000000D01*
X40000000Y-21400000D02*
G75*
G02*
X39800000Y-21800000I-500000J0D01*
G01*
X-27000000Y23000000D02*
X-34000000Y23000000D01*
X34000000Y-35000000D02*
X17000000Y-35000000D01*
X35000000Y-61000000D02*
G75*
G02*
X34000000Y-62000000I-1000000J0D01*
G01*
X-37600000Y-20000000D02*
X-35000000Y-20000000D01*
X-27000000Y19000000D02*
X-37100000Y19000000D01*
X40000000Y-21400000D02*
X40000000Y-20500000D01*
X-27000000Y-22000000D02*
G75*
G02*
X-27000000Y-23000000I0J-500000D01*
G01*
X-34000000Y23000000D02*
G75*
G02*
X-35000000Y24000000I0J1000000D01*
G01*
X35000000Y-36000000D02*
X35000000Y-42500000D01*
X-37100000Y10000000D02*
G75*
G02*
X-37600000Y10500000I0J500000D01*
G01*
X34000000Y-23000000D02*
G75*
G02*
X35000000Y-24000000I0J-1000000D01*
G01*
X39500000Y20000000D02*
X37600000Y20000000D01*
X-27000000Y-19000000D02*
X-37100000Y-19000000D01*
X-35000000Y-22000000D02*
X-38000000Y-22000000D01*
X35000000Y-54500000D02*
X35000000Y-61000000D01*
X27000000Y23000000D02*
X34000000Y23000000D01*
X35000000Y24000000D02*
X35000000Y31000000D01*
X12000000Y-62000000D02*
X12000000Y-64100000D01*
X35000000Y24000000D02*
G75*
G02*
X34000000Y23000000I-1000000J0D01*
G01*
X-35000000Y-20000000D02*
X-27000000Y-20000000D01*
X-39800000Y21800000D02*
X-38000000Y23000000D01*
X37100000Y-10000000D02*
G75*
G02*
X37600000Y-10500000I0J-500000D01*
G01*
X-39500000Y-20000000D02*
X-37600000Y-20000000D01*
X37600000Y-18500000D02*
G75*
G02*
X37100000Y-19000000I-500000J0D01*
G01*
X-35000000Y20000000D02*
X-27000000Y20000000D01*
X40000000Y20500000D02*
G75*
G02*
X39500000Y20000000I-500000J0D01*
G01*
X-37600000Y-43000000D02*
G75*
G02*
X-37100000Y-42500000I500000J0D01*
G01*
X-37600000Y18500000D02*
G75*
G02*
X-37100000Y19000000I500000J0D01*
G01*
X35000000Y-31000000D02*
X35000000Y-24000000D01*
X27000000Y-20000000D02*
G75*
G02*
X27000000Y-19000000I0J500000D01*
G01*
X35000000Y20000000D02*
X27000000Y20000000D01*
X-12000000Y-64100000D02*
G75*
G02*
X-12500000Y-64600000I-500000J0D01*
G01*
X-35000000Y22000000D02*
X-38000000Y22000000D01*
X-37100000Y-54500000D02*
X-35000000Y-54500000D01*
X37600000Y-54000000D02*
X37600000Y-43000000D01*
X33324000Y-28800000D02*
G75*
G02*
X30276000Y-28800000I-1524000J0D01*
G01*
X30276000Y-28800000D02*
G75*
G02*
X33324000Y-28800000I1524000J0D01*
G01*
X-27000000Y-23000000D02*
X-34000000Y-23000000D01*
X12000000Y-32000000D02*
X-12000000Y-32000000D01*
X17000000Y-32000000D02*
X34000000Y-32000000D01*
X-35000000Y-61000000D02*
X-35000000Y-54500000D01*
X-39500000Y20000000D02*
G75*
G02*
X-40000000Y20500000I0J500000D01*
G01*
X37600000Y-18500000D02*
X37600000Y-10500000D01*
X35000000Y22000000D02*
X27000000Y22000000D01*
X-35000000Y-36000000D02*
G75*
G02*
X-34000000Y-35000000I1000000J0D01*
G01*
X39800000Y21800000D02*
G75*
G02*
X40000000Y21400000I-300000J-400000D01*
G01*
X27000000Y-19000000D02*
X37100000Y-19000000D01*
X-34000000Y-62000000D02*
G75*
G02*
X-35000000Y-61000000I0J1000000D01*
G01*
X-24000000Y-62000000D02*
X-24000000Y-64100000D01*
X35000000Y-10000000D02*
X35000000Y10000000D01*
X12500000Y-64600000D02*
G75*
G02*
X12000000Y-64100000I0J500000D01*
G01*
X39500000Y-20000000D02*
G75*
G02*
X40000000Y-20500000I0J-500000D01*
G01*
X24000000Y-64100000D02*
X24000000Y-62000000D01*
X24000000Y-64100000D02*
G75*
G02*
X23500000Y-64600000I-500000J0D01*
G01*
X27000000Y19000000D02*
G75*
G02*
X27000000Y20000000I0J500000D01*
G01*
X12000000Y-62000000D02*
X-12000000Y-62000000D01*
X37600000Y-54000000D02*
G75*
G02*
X37100000Y-54500000I-500000J0D01*
G01*
X27000000Y-23000000D02*
X34000000Y-23000000D01*
X34000000Y-62000000D02*
X24000000Y-62000000D01*
X-38000000Y22000000D02*
X-38000000Y23000000D01*
X-38000000Y-22000000D02*
X-38000000Y-23000000D01*
X38000000Y-22000000D02*
X38000000Y-23000000D01*
X-35000000Y-42500000D02*
X-35000000Y-36000000D01*
X12500000Y-64600000D02*
X23500000Y-64600000D01*
X12000000Y-35000000D02*
X-12000000Y-35000000D01*
X-35000000Y31000000D02*
G75*
G02*
X-34000000Y32000000I1000000J0D01*
G01*
X37100000Y-42500000D02*
X35000000Y-42500000D01*
X-37600000Y-43000000D02*
X-37600000Y-54000000D01*
X-39800000Y-21800000D02*
X-38000000Y-23000000D01*
X-35000000Y10000000D02*
X-35000000Y-10000000D01*
X-17000000Y-35000000D02*
X-34000000Y-35000000D01*
X-35000000Y-24000000D02*
G75*
G02*
X-34000000Y-23000000I1000000J0D01*
G01*
X35000000Y10000000D02*
X37100000Y10000000D01*
X39500000Y-20000000D02*
X37600000Y-20000000D01*
X-37100000Y-19000000D02*
G75*
G02*
X-37600000Y-18500000I0J500000D01*
G01*
X-35000000Y-24000000D02*
X-35000000Y-31000000D01*
X-24000000Y-62000000D02*
X-34000000Y-62000000D01*
X27000000Y-23000000D02*
G75*
G02*
X27000000Y-22000000I0J500000D01*
G01*
X-30276000Y-28800000D02*
G75*
G02*
X-33324000Y-28800000I-1524000J0D01*
G01*
X-33324000Y-28800000D02*
G75*
G02*
X-30276000Y-28800000I1524000J0D01*
G01*
X-12000000Y-35000000D02*
G75*
G02*
X-12000000Y-32000000I0J1500000D01*
G01*
X-37600000Y-10500000D02*
X-37600000Y-18500000D01*
X-40000000Y-20500000D02*
G75*
G02*
X-39500000Y-20000000I500000J0D01*
G01*
X-37600000Y18500000D02*
X-37600000Y10500000D01*
X-27000000Y23000000D02*
G75*
G02*
X-27000000Y22000000I0J-500000D01*
G01*
X35000000Y-22000000D02*
X27000000Y-22000000D01*
X-35000000Y22000000D02*
X-27000000Y22000000D01*
X37600000Y-20000000D02*
X35000000Y-20000000D01*
X34000000Y32000000D02*
G75*
G02*
X35000000Y31000000I0J-1000000D01*
G01*
M02*
