M48
INCH
T1C0.0157
T2C0.0295
T3C0.0315
T4C0.0354
T5C0.0394
T6C0.0400
T7C0.0433
T8C0.0560
T9C0.0591
T10C0.0787
T11C0.1378
%
G90
G05
T1
X-0.7795Y0.9134
X-0.7165Y0.2008
X-0.6201Y-0.4843
X-0.4173Y0.9134
X-0.2205Y-0.4488
X-0.2195Y-1.0315
X-0.1506Y-0.9429
X-0.1496Y-1.7126
X-0.122Y-0.4488
X-0.1004Y-1.0768
X-0.0502Y-0.8799
X-0.05Y-1.7126
X0.1496Y-1.7126
X0.1498Y-1.0787
X0.2496Y-1.7126
X0.2498Y-1.0315
X0.3297Y-0.5108
X0.4311Y-0.4508
X0.4496Y-1.6024
X0.48Y-0.9882
X0.5807Y-0.3681
X0.5807Y-0.4173
X0.5807Y-0.4665
X0.5807Y-0.5118
X0.8012Y-0.4469
T2
X0.4992Y-1.8807
X0.5492Y-1.8307
X0.5992Y-1.8807
T3
X-1.2913Y0.0717
X-1.2913Y-0.2283
X-0.9913Y0.0717
X-0.9913Y-0.2283
X-0.9693Y-1.6339
X-0.9685Y-1.4961
X-0.67Y-1.92
X-0.67Y-2.02
X-0.6693Y-1.6339
X-0.6685Y-1.4961
X-0.6142Y0.7209
X-0.6142Y0.6209
X-0.6142Y0.5209
X-0.6142Y0.4209
X-0.6142Y0.3209
X-0.45Y-1.9508
X-0.45Y-2.0492
X-0.3142Y0.7209
X-0.3142Y0.6209
X-0.3142Y0.5209
X-0.3142Y0.4209
X-0.3142Y0.3209
X0.315Y0.7209
X0.315Y0.6209
X0.315Y0.5209
X0.315Y0.4209
X0.315Y0.3209
X0.615Y0.7209
X0.615Y0.6209
X0.615Y0.5209
X0.615Y0.4209
X0.615Y0.3209
X0.6693Y-1.4961
X0.6693Y-1.6339
X0.9693Y-1.4961
X0.9693Y-1.6339
T4
X1.0906Y-0.3622
X1.0906Y-0.4409
X1.0906Y-0.5197
T5
X-1.2917Y-0.4173
X-1.2917Y-0.5173
X-1.2917Y-0.6173
X-1.2913Y-0.0283
X-1.2913Y-0.1283
X-1.1917Y-0.4173
X-1.1917Y-0.5173
X-1.1917Y-0.6173
X-1.1913Y-0.0283
X-1.1913Y-0.1283
X-1.0917Y-0.4173
X-1.0917Y-0.5173
X-1.0917Y-0.6173
X-1.0913Y-0.0283
X-1.0913Y-0.1283
X-0.9917Y-0.4173
X-0.9917Y-0.5173
X-0.9917Y-0.6173
X-0.9913Y-0.0283
X-0.9913Y-0.1283
X-0.9299Y-0.9811
X-0.9299Y-1.0811
X-0.9299Y-1.1811
X-0.8299Y-0.9811
X-0.8299Y-1.0811
X-0.8299Y-1.1811
X-0.7299Y-0.9811
X-0.7299Y-1.0811
X-0.7299Y-1.1811
X-0.6299Y-0.9811
X-0.6299Y-1.0811
X-0.6299Y-1.1811
X-0.62Y-0.25
X-0.62Y-0.65
X-0.52Y-0.25
X-0.52Y-0.65
X-0.4504Y-1.47
X-0.4502Y-1.1811
X-0.42Y-0.25
X-0.42Y-0.65
X-0.3504Y-1.47
X-0.3502Y-1.1811
X-0.33Y-1.8
X-0.33Y-2.2
X-0.32Y-0.25
X-0.32Y-0.65
X-0.2504Y-1.47
X-0.2502Y-1.1811
X-0.22Y-0.25
X-0.22Y-0.65
X-0.1504Y-1.47
X-0.1502Y-1.1811
X-0.15Y1.1666
X-0.15Y-2.11
X-0.12Y-0.25
X-0.12Y-0.65
X-0.1Y0.5236
X-0.0504Y-1.47
X-0.0502Y-1.1811
X-0.05Y1.1666
X-0.05Y-2.11
X-0.02Y-0.25
X-0.02Y-0.65
X0.0Y0.5236
X0.0496Y-1.47
X0.0498Y-1.1811
X0.05Y1.1666
X0.05Y-2.11
X0.08Y-0.25
X0.08Y-0.65
X0.1Y0.5236
X0.1496Y-1.47
X0.1498Y-1.1811
X0.15Y1.1666
X0.15Y-2.11
X0.18Y-0.25
X0.18Y-0.65
X0.2496Y-1.47
X0.2498Y-1.1811
X0.28Y-0.25
X0.28Y-0.65
X0.3496Y-1.47
X0.3498Y-1.1811
X0.38Y-0.25
X0.38Y-0.65
X0.4496Y-1.47
X0.4498Y-1.1811
X0.4516Y-2.06
X0.48Y-0.25
X0.48Y-0.65
X0.55Y-2.06
X0.55Y-2.16
X0.55Y-2.2569
X0.58Y-0.25
X0.58Y-0.65
X0.6299Y-0.9811
X0.6299Y-1.0811
X0.6299Y-1.1811
X0.6484Y-2.06
X0.68Y-0.25
X0.68Y-0.65
X0.7299Y-0.9811
X0.7299Y-1.0811
X0.7299Y-1.1811
X0.78Y-0.25
X0.78Y-0.65
X0.8299Y-0.9811
X0.8299Y-1.0811
X0.8299Y-1.1811
X0.8563Y0.9209
X0.8563Y0.8209
X0.8563Y0.7209
X0.8563Y0.6209
X0.8563Y0.5209
X0.8563Y0.4209
X0.8563Y0.3209
X0.8563Y0.2209
X0.9299Y-0.9811
X0.9299Y-1.0811
X0.9299Y-1.1811
X1.0787Y0.2512
X1.0787Y-0.1488
X1.1929Y0.685
X1.2929Y0.685
T6
X-0.62Y-0.15
X-0.62Y-0.75
X-0.52Y-0.15
X-0.52Y-0.75
X-0.42Y-0.15
X-0.42Y-0.75
X-0.32Y-0.15
X-0.32Y-0.75
X-0.22Y-0.15
X-0.22Y-0.75
X-0.12Y-0.15
X-0.12Y-0.75
X-0.02Y-0.15
X-0.02Y-0.75
X0.08Y-0.15
X0.08Y-0.75
X0.18Y-0.15
X0.18Y-0.75
X0.28Y-0.15
X0.28Y-0.75
X0.38Y-0.15
X0.38Y-0.75
X0.48Y-0.15
X0.48Y-0.75
X0.58Y-0.15
X0.58Y-0.75
X0.68Y-0.15
X0.68Y-0.75
X0.78Y-0.15
X0.78Y-0.75
T7
X-1.1516Y-1.9193
X-1.1516Y-2.1752
X-0.9744Y-1.9193
X-0.9744Y-2.1752
X0.9744Y-1.9193
X0.9744Y-2.1752
X1.1516Y-1.9193
X1.1516Y-2.1752
T8
X-1.1614Y-1.8012
X-1.1614Y-2.2933
X-0.9646Y-1.8012
X-0.9646Y-2.2933
X0.9646Y-1.8012
X0.9646Y-2.2933
X1.1614Y-1.8012
X1.1614Y-2.2933
T9
X1.0906Y-0.2795
X1.0906Y-0.6024
T10
X-0.8169Y1.063
X-0.8169Y0.0787
X0.8169Y1.063
X0.8169Y0.0787
T11
X-0.5984Y1.1528
X-0.5984Y0.0308
X0.5984Y1.1528
X0.5984Y0.0308
T5
G00X-0.15Y-1.79
M15
G01X-0.1185Y-1.79
M16
G05
G00X0.1177Y-1.79
M15
G01X0.1492Y-1.79
M16
G05
M30
