  0
SECTION
  2
HEADER
  9
$ANGBASE
  50
0.0
  9
$ANGDIR
  70
1
  9
$MEASUREMENT
  70
0
  0
ENDSEC
  0
SECTION
  2
TABLES
  0
TABLE
  2
LTYPE
  70
4
  0
LTYPE
  5
40F
  2
CONTINUOUS
  70
0
  3
Solid line
  72
65
  73
0
  40
0.0
  0
LTYPE
  5
410
  2
DASHDOT
 70
0
  3
Dash Dot ____ _ ____ _
 72
65
 73
4
 40
2.0
 49
1.25
 49
-0.25
 49
0.25
 49
-0.25
  0
LTYPE
  5
411
  2
DASHED
 70
0
  3
Dashed __ __ __ __ __
 72
65
 73
2
 40
0.75
 49
0.5
 49
-0.25
  0
LTYPE
  5
43B
  2
DOTTED
 70
0
  3
Dotted .  .  .  .
 72
65
 73
2
 40
0.2
 49
0.0
 49
-0.2
  0
ENDTAB
  0
TABLE
  2
STYLE
  70
4
  0
STYLE
  2
KICAD
  70
0
  40
0
  41
1
  42
1
  50
0
  71
0
  3
isocp.shx
  0
STYLE
  2
KICADB
  70
0
  40
0
  41
1
  42
1
  50
0
  71
0
  3
isocp.shx
  0
STYLE
  2
KICADI
  70
0
  40
0
  41
1
  42
1
  50
15
  71
0
  3
isocp.shx
  0
STYLE
  2
KICADBI
  70
0
  40
0
  41
1
  42
1
  50
15
  71
0
  3
isocp.shx
  0
ENDTAB
  0
TABLE
  2
LAYER
  70
1
  0
LAYER
  2
BLACK
  70
0
  62
7
  6
CONTINUOUS
  0
ENDTAB
  0
ENDSEC
  0
SECTION
  2
ENTITIES
0
LINE
8
BLACK
6
CONTINUOUS
10
3.17287
20
-4.10419
11
3.17442
21
-4.10549
0
LINE
8
BLACK
6
CONTINUOUS
10
3.17442
20
-4.10549
11
3.17477
21
-4.10748
0
LINE
8
BLACK
6
CONTINUOUS
10
3.17477
20
-4.10748
11
3.17376
21
-4.10922
0
LINE
8
BLACK
6
CONTINUOUS
10
3.17376
20
-4.10922
11
3.17186
21
-4.10992
0
LINE
8
BLACK
6
CONTINUOUS
10
3.17186
20
-4.10992
11
3.14187
21
-4.10992
0
LINE
8
BLACK
6
CONTINUOUS
10
3.14187
20
-4.10992
11
3.14086
21
-4.10974
0
LINE
8
BLACK
6
CONTINUOUS
10
3.14086
20
-4.10974
11
3.13931
21
-4.10844
0
LINE
8
BLACK
6
CONTINUOUS
10
3.13931
20
-4.10844
11
3.13896
21
-4.10645
0
LINE
8
BLACK
6
CONTINUOUS
10
3.13896
20
-4.10645
11
3.13997
21
-4.1047
0
LINE
8
BLACK
6
CONTINUOUS
10
3.13997
20
-4.1047
11
3.14187
21
-4.10401
0
LINE
8
BLACK
6
CONTINUOUS
10
3.14187
20
-4.10401
11
3.17186
21
-4.10401
0
LINE
8
BLACK
6
CONTINUOUS
10
3.17186
20
-4.10401
11
3.17287
21
-4.10419
0
LINE
8
BLACK
6
CONTINUOUS
10
2.99477
20
-4.10419
11
2.99632
21
-4.10549
0
LINE
8
BLACK
6
CONTINUOUS
10
2.99632
20
-4.10549
11
2.99667
21
-4.10748
0
LINE
8
BLACK
6
CONTINUOUS
10
2.99667
20
-4.10748
11
2.99566
21
-4.10922
0
LINE
8
BLACK
6
CONTINUOUS
10
2.99566
20
-4.10922
11
2.99376
21
-4.10992
0
LINE
8
BLACK
6
CONTINUOUS
10
2.99376
20
-4.10992
11
2.96376
21
-4.10992
0
LINE
8
BLACK
6
CONTINUOUS
10
2.96376
20
-4.10992
11
2.96275
21
-4.10974
0
LINE
8
BLACK
6
CONTINUOUS
10
2.96275
20
-4.10974
11
2.96121
21
-4.10844
0
LINE
8
BLACK
6
CONTINUOUS
10
2.96121
20
-4.10844
11
2.96086
21
-4.10645
0
LINE
8
BLACK
6
CONTINUOUS
10
2.96086
20
-4.10645
11
2.96187
21
-4.1047
0
LINE
8
BLACK
6
CONTINUOUS
10
2.96187
20
-4.1047
11
2.96376
21
-4.10401
0
LINE
8
BLACK
6
CONTINUOUS
10
2.96376
20
-4.10401
11
2.99376
21
-4.10401
0
LINE
8
BLACK
6
CONTINUOUS
10
2.99376
20
-4.10401
11
2.99477
21
-4.10419
0
LINE
8
BLACK
6
CONTINUOUS
10
3.30911
20
-4.06195
11
3.3098
21
-4.06384
0
LINE
8
BLACK
6
CONTINUOUS
10
3.3098
20
-4.06384
11
3.3098
21
-4.07417
0
LINE
8
BLACK
6
CONTINUOUS
10
3.3098
20
-4.07417
11
3.31026
21
-4.07403
0
LINE
8
BLACK
6
CONTINUOUS
10
3.31026
20
-4.07403
11
3.31043
21
-4.07407
0
LINE
8
BLACK
6
CONTINUOUS
10
3.31043
20
-4.07407
11
3.3106
21
-4.07401
0
LINE
8
BLACK
6
CONTINUOUS
10
3.3106
20
-4.07401
11
3.3181
21
-4.07401
0
LINE
8
BLACK
6
CONTINUOUS
10
3.3181
20
-4.07401
11
3.31911
21
-4.07419
0
LINE
8
BLACK
6
CONTINUOUS
10
3.31911
20
-4.07419
11
3.31924
21
-4.07431
0
LINE
8
BLACK
6
CONTINUOUS
10
3.31924
20
-4.07431
11
3.31942
21
-4.07433
0
LINE
8
BLACK
6
CONTINUOUS
10
3.31942
20
-4.07433
11
3.32317
21
-4.0762
0
LINE
8
BLACK
6
CONTINUOUS
10
3.32317
20
-4.0762
11
3.32387
21
-4.07673
0
LINE
8
BLACK
6
CONTINUOUS
10
3.32387
20
-4.07673
11
3.32393
21
-4.07675
0
LINE
8
BLACK
6
CONTINUOUS
10
3.32393
20
-4.07675
11
3.32581
21
-4.07863
0
LINE
8
BLACK
6
CONTINUOUS
10
3.32581
20
-4.07863
11
3.32631
21
-4.07935
0
LINE
8
BLACK
6
CONTINUOUS
10
3.32631
20
-4.07935
11
3.32636
21
-4.0794
0
LINE
8
BLACK
6
CONTINUOUS
10
3.32636
20
-4.0794
11
3.32824
21
-4.08315
0
LINE
8
BLACK
6
CONTINUOUS
10
3.32824
20
-4.08315
11
3.32853
21
-4.08413
0
LINE
8
BLACK
6
CONTINUOUS
10
3.32853
20
-4.08413
11
3.32849
21
-4.0843
0
LINE
8
BLACK
6
CONTINUOUS
10
3.32849
20
-4.0843
11
3.32855
21
-4.08447
0
LINE
8
BLACK
6
CONTINUOUS
10
3.32855
20
-4.08447
11
3.32855
21
-4.09571
0
LINE
8
BLACK
6
CONTINUOUS
10
3.32855
20
-4.09571
11
3.32837
21
-4.09672
0
LINE
8
BLACK
6
CONTINUOUS
10
3.32837
20
-4.09672
11
3.32826
21
-4.09686
0
LINE
8
BLACK
6
CONTINUOUS
10
3.32826
20
-4.09686
11
3.32824
21
-4.09703
0
LINE
8
BLACK
6
CONTINUOUS
10
3.32824
20
-4.09703
11
3.32636
21
-4.10078
0
LINE
8
BLACK
6
CONTINUOUS
10
3.32636
20
-4.10078
11
3.32583
21
-4.10149
0
LINE
8
BLACK
6
CONTINUOUS
10
3.32583
20
-4.10149
11
3.32581
21
-4.10155
0
LINE
8
BLACK
6
CONTINUOUS
10
3.32581
20
-4.10155
11
3.32393
21
-4.10343
0
LINE
8
BLACK
6
CONTINUOUS
10
3.32393
20
-4.10343
11
3.32321
21
-4.10393
0
LINE
8
BLACK
6
CONTINUOUS
10
3.32321
20
-4.10393
11
3.32317
21
-4.10398
0
LINE
8
BLACK
6
CONTINUOUS
10
3.32317
20
-4.10398
11
3.31942
21
-4.10585
0
LINE
8
BLACK
6
CONTINUOUS
10
3.31942
20
-4.10585
11
3.31843
21
-4.10615
0
LINE
8
BLACK
6
CONTINUOUS
10
3.31843
20
-4.10615
11
3.31826
21
-4.10611
0
LINE
8
BLACK
6
CONTINUOUS
10
3.31826
20
-4.10611
11
3.3181
21
-4.10617
0
LINE
8
BLACK
6
CONTINUOUS
10
3.3181
20
-4.10617
11
3.3106
21
-4.10617
0
LINE
8
BLACK
6
CONTINUOUS
10
3.3106
20
-4.10617
11
3.30959
21
-4.10599
0
LINE
8
BLACK
6
CONTINUOUS
10
3.30959
20
-4.10599
11
3.30945
21
-4.10587
0
LINE
8
BLACK
6
CONTINUOUS
10
3.30945
20
-4.10587
11
3.30928
21
-4.10585
0
LINE
8
BLACK
6
CONTINUOUS
10
3.30928
20
-4.10585
11
3.30856
21
-4.10549
0
LINE
8
BLACK
6
CONTINUOUS
10
3.30856
20
-4.10549
11
3.30832
21
-4.10577
0
LINE
8
BLACK
6
CONTINUOUS
10
3.30832
20
-4.10577
11
3.30633
21
-4.10612
0
LINE
8
BLACK
6
CONTINUOUS
10
3.30633
20
-4.10612
11
3.30458
21
-4.10511
0
LINE
8
BLACK
6
CONTINUOUS
10
3.30458
20
-4.10511
11
3.30389
21
-4.10321
0
LINE
8
BLACK
6
CONTINUOUS
10
3.30389
20
-4.10321
11
3.30389
21
-4.06384
0
LINE
8
BLACK
6
CONTINUOUS
10
3.30389
20
-4.06384
11
3.30407
21
-4.06283
0
LINE
8
BLACK
6
CONTINUOUS
10
3.30407
20
-4.06283
11
3.30537
21
-4.06129
0
LINE
8
BLACK
6
CONTINUOUS
10
3.30537
20
-4.06129
11
3.30736
21
-4.06094
0
LINE
8
BLACK
6
CONTINUOUS
10
3.30736
20
-4.06094
11
3.30911
21
-4.06195
0
LINE
8
BLACK
6
CONTINUOUS
10
3.3098
20
-4.08067
11
3.3098
21
-4.09951
0
LINE
8
BLACK
6
CONTINUOUS
10
3.3098
20
-4.09951
11
3.31129
21
-4.10026
0
LINE
8
BLACK
6
CONTINUOUS
10
3.31129
20
-4.10026
11
3.3174
21
-4.10026
0
LINE
8
BLACK
6
CONTINUOUS
10
3.3174
20
-4.10026
11
3.3201
21
-4.09891
0
LINE
8
BLACK
6
CONTINUOUS
10
3.3201
20
-4.09891
11
3.32129
21
-4.09771
0
LINE
8
BLACK
6
CONTINUOUS
10
3.32129
20
-4.09771
11
3.32264
21
-4.09502
0
LINE
8
BLACK
6
CONTINUOUS
10
3.32264
20
-4.09502
11
3.32264
21
-4.08516
0
LINE
8
BLACK
6
CONTINUOUS
10
3.32264
20
-4.08516
11
3.32129
21
-4.08247
0
LINE
8
BLACK
6
CONTINUOUS
10
3.32129
20
-4.08247
11
3.3201
21
-4.08127
0
LINE
8
BLACK
6
CONTINUOUS
10
3.3201
20
-4.08127
11
3.3174
21
-4.07992
0
LINE
8
BLACK
6
CONTINUOUS
10
3.3174
20
-4.07992
11
3.31129
21
-4.07992
0
LINE
8
BLACK
6
CONTINUOUS
10
3.31129
20
-4.07992
11
3.3098
21
-4.08067
0
LINE
8
BLACK
6
CONTINUOUS
10
3.29036
20
-4.07507
11
3.29105
21
-4.07697
0
LINE
8
BLACK
6
CONTINUOUS
10
3.29105
20
-4.07697
11
3.29105
21
-4.09759
0
LINE
8
BLACK
6
CONTINUOUS
10
3.29105
20
-4.09759
11
3.29087
21
-4.0986
0
LINE
8
BLACK
6
CONTINUOUS
10
3.29087
20
-4.0986
11
3.29076
21
-4.09873
0
LINE
8
BLACK
6
CONTINUOUS
10
3.29076
20
-4.09873
11
3.29074
21
-4.09891
0
LINE
8
BLACK
6
CONTINUOUS
10
3.29074
20
-4.09891
11
3.28887
21
-4.10266
0
LINE
8
BLACK
6
CONTINUOUS
10
3.28887
20
-4.10266
11
3.28825
21
-4.10348
0
LINE
8
BLACK
6
CONTINUOUS
10
3.28825
20
-4.10348
11
3.28785
21
-4.10366
0
LINE
8
BLACK
6
CONTINUOUS
10
3.28785
20
-4.10366
11
3.28754
21
-4.10398
0
LINE
8
BLACK
6
CONTINUOUS
10
3.28754
20
-4.10398
11
3.2838
21
-4.10585
0
LINE
8
BLACK
6
CONTINUOUS
10
3.2838
20
-4.10585
11
3.28281
21
-4.10615
0
LINE
8
BLACK
6
CONTINUOUS
10
3.28281
20
-4.10615
11
3.28264
21
-4.10611
0
LINE
8
BLACK
6
CONTINUOUS
10
3.28264
20
-4.10611
11
3.28247
21
-4.10617
0
LINE
8
BLACK
6
CONTINUOUS
10
3.28247
20
-4.10617
11
3.27685
21
-4.10617
0
LINE
8
BLACK
6
CONTINUOUS
10
3.27685
20
-4.10617
11
3.27584
21
-4.10599
0
LINE
8
BLACK
6
CONTINUOUS
10
3.27584
20
-4.10599
11
3.27571
21
-4.10587
0
LINE
8
BLACK
6
CONTINUOUS
10
3.27571
20
-4.10587
11
3.27553
21
-4.10585
0
LINE
8
BLACK
6
CONTINUOUS
10
3.27553
20
-4.10585
11
3.27349
21
-4.10483
0
LINE
8
BLACK
6
CONTINUOUS
10
3.27349
20
-4.10483
11
3.2727
21
-4.10577
0
LINE
8
BLACK
6
CONTINUOUS
10
3.2727
20
-4.10577
11
3.27071
21
-4.10612
0
LINE
8
BLACK
6
CONTINUOUS
10
3.27071
20
-4.10612
11
3.26896
21
-4.10511
0
LINE
8
BLACK
6
CONTINUOUS
10
3.26896
20
-4.10511
11
3.26827
21
-4.10321
0
LINE
8
BLACK
6
CONTINUOUS
10
3.26827
20
-4.10321
11
3.26827
21
-4.07697
0
LINE
8
BLACK
6
CONTINUOUS
10
3.26827
20
-4.07697
11
3.26845
21
-4.07596
0
LINE
8
BLACK
6
CONTINUOUS
10
3.26845
20
-4.07596
11
3.26975
21
-4.07441
0
LINE
8
BLACK
6
CONTINUOUS
10
3.26975
20
-4.07441
11
3.27174
21
-4.07406
0
LINE
8
BLACK
6
CONTINUOUS
10
3.27174
20
-4.07406
11
3.27349
21
-4.07507
0
LINE
8
BLACK
6
CONTINUOUS
10
3.27349
20
-4.07507
11
3.27418
21
-4.07697
0
LINE
8
BLACK
6
CONTINUOUS
10
3.27418
20
-4.07697
11
3.27418
21
-4.09824
0
LINE
8
BLACK
6
CONTINUOUS
10
3.27418
20
-4.09824
11
3.27485
21
-4.09891
0
LINE
8
BLACK
6
CONTINUOUS
10
3.27485
20
-4.09891
11
3.27755
21
-4.10026
0
LINE
8
BLACK
6
CONTINUOUS
10
3.27755
20
-4.10026
11
3.28178
21
-4.10026
0
LINE
8
BLACK
6
CONTINUOUS
10
3.28178
20
-4.10026
11
3.28402
21
-4.09914
0
LINE
8
BLACK
6
CONTINUOUS
10
3.28402
20
-4.09914
11
3.28515
21
-4.09689
0
LINE
8
BLACK
6
CONTINUOUS
10
3.28515
20
-4.09689
11
3.28515
21
-4.07697
0
LINE
8
BLACK
6
CONTINUOUS
10
3.28515
20
-4.07697
11
3.28532
21
-4.07596
0
LINE
8
BLACK
6
CONTINUOUS
10
3.28532
20
-4.07596
11
3.28662
21
-4.07441
0
LINE
8
BLACK
6
CONTINUOUS
10
3.28662
20
-4.07441
11
3.28861
21
-4.07406
0
LINE
8
BLACK
6
CONTINUOUS
10
3.28861
20
-4.07406
11
3.29036
21
-4.07507
0
LINE
8
BLACK
6
CONTINUOUS
10
3.1935
20
-4.07419
11
3.19363
21
-4.07431
0
LINE
8
BLACK
6
CONTINUOUS
10
3.19363
20
-4.07431
11
3.19381
21
-4.07433
0
LINE
8
BLACK
6
CONTINUOUS
10
3.19381
20
-4.07433
11
3.19756
21
-4.0762
0
LINE
8
BLACK
6
CONTINUOUS
10
3.19756
20
-4.0762
11
3.19827
21
-4.07673
0
LINE
8
BLACK
6
CONTINUOUS
10
3.19827
20
-4.07673
11
3.19832
21
-4.07675
0
LINE
8
BLACK
6
CONTINUOUS
10
3.19832
20
-4.07675
11
3.2002
21
-4.07863
0
LINE
8
BLACK
6
CONTINUOUS
10
3.2002
20
-4.07863
11
3.2007
21
-4.07935
0
LINE
8
BLACK
6
CONTINUOUS
10
3.2007
20
-4.07935
11
3.20075
21
-4.0794
0
LINE
8
BLACK
6
CONTINUOUS
10
3.20075
20
-4.0794
11
3.20263
21
-4.08315
0
LINE
8
BLACK
6
CONTINUOUS
10
3.20263
20
-4.08315
11
3.20292
21
-4.08413
0
LINE
8
BLACK
6
CONTINUOUS
10
3.20292
20
-4.08413
11
3.20288
21
-4.0843
0
LINE
8
BLACK
6
CONTINUOUS
10
3.20288
20
-4.0843
11
3.20294
21
-4.08447
0
LINE
8
BLACK
6
CONTINUOUS
10
3.20294
20
-4.08447
11
3.20294
21
-4.09571
0
LINE
8
BLACK
6
CONTINUOUS
10
3.20294
20
-4.09571
11
3.20276
21
-4.09672
0
LINE
8
BLACK
6
CONTINUOUS
10
3.20276
20
-4.09672
11
3.20265
21
-4.09686
0
LINE
8
BLACK
6
CONTINUOUS
10
3.20265
20
-4.09686
11
3.20263
21
-4.09703
0
LINE
8
BLACK
6
CONTINUOUS
10
3.20263
20
-4.09703
11
3.20075
21
-4.10078
0
LINE
8
BLACK
6
CONTINUOUS
10
3.20075
20
-4.10078
11
3.20023
21
-4.10149
0
LINE
8
BLACK
6
CONTINUOUS
10
3.20023
20
-4.10149
11
3.2002
21
-4.10155
0
LINE
8
BLACK
6
CONTINUOUS
10
3.2002
20
-4.10155
11
3.19832
21
-4.10343
0
LINE
8
BLACK
6
CONTINUOUS
10
3.19832
20
-4.10343
11
3.1976
21
-4.10393
0
LINE
8
BLACK
6
CONTINUOUS
10
3.1976
20
-4.10393
11
3.19756
21
-4.10398
0
LINE
8
BLACK
6
CONTINUOUS
10
3.19756
20
-4.10398
11
3.19381
21
-4.10585
0
LINE
8
BLACK
6
CONTINUOUS
10
3.19381
20
-4.10585
11
3.19282
21
-4.10615
0
LINE
8
BLACK
6
CONTINUOUS
10
3.19282
20
-4.10615
11
3.19265
21
-4.10611
0
LINE
8
BLACK
6
CONTINUOUS
10
3.19265
20
-4.10611
11
3.19249
21
-4.10617
0
LINE
8
BLACK
6
CONTINUOUS
10
3.19249
20
-4.10617
11
3.18686
21
-4.10617
0
LINE
8
BLACK
6
CONTINUOUS
10
3.18686
20
-4.10617
11
3.18585
21
-4.10599
0
LINE
8
BLACK
6
CONTINUOUS
10
3.18585
20
-4.10599
11
3.18572
21
-4.10587
0
LINE
8
BLACK
6
CONTINUOUS
10
3.18572
20
-4.10587
11
3.18554
21
-4.10585
0
LINE
8
BLACK
6
CONTINUOUS
10
3.18554
20
-4.10585
11
3.18179
21
-4.10398
0
LINE
8
BLACK
6
CONTINUOUS
10
3.18179
20
-4.10398
11
3.18108
21
-4.10345
0
LINE
8
BLACK
6
CONTINUOUS
10
3.18108
20
-4.10345
11
3.18102
21
-4.10343
0
LINE
8
BLACK
6
CONTINUOUS
10
3.18102
20
-4.10343
11
3.17915
21
-4.10155
0
LINE
8
BLACK
6
CONTINUOUS
10
3.17915
20
-4.10155
11
3.17864
21
-4.10083
0
LINE
8
BLACK
6
CONTINUOUS
10
3.17864
20
-4.10083
11
3.1786
21
-4.10078
0
LINE
8
BLACK
6
CONTINUOUS
10
3.1786
20
-4.10078
11
3.17672
21
-4.09703
0
LINE
8
BLACK
6
CONTINUOUS
10
3.17672
20
-4.09703
11
3.17643
21
-4.09605
0
LINE
8
BLACK
6
CONTINUOUS
10
3.17643
20
-4.09605
11
3.17647
21
-4.09588
0
LINE
8
BLACK
6
CONTINUOUS
10
3.17647
20
-4.09588
11
3.17641
21
-4.09571
0
LINE
8
BLACK
6
CONTINUOUS
10
3.17641
20
-4.09571
11
3.17641
21
-4.08447
0
LINE
8
BLACK
6
CONTINUOUS
10
3.17641
20
-4.08447
11
3.17659
21
-4.08346
0
LINE
8
BLACK
6
CONTINUOUS
10
3.17659
20
-4.08346
11
3.1767
21
-4.08332
0
LINE
8
BLACK
6
CONTINUOUS
10
3.1767
20
-4.08332
11
3.17672
21
-4.08315
0
LINE
8
BLACK
6
CONTINUOUS
10
3.17672
20
-4.08315
11
3.1786
21
-4.0794
0
LINE
8
BLACK
6
CONTINUOUS
10
3.1786
20
-4.0794
11
3.17912
21
-4.07869
0
LINE
8
BLACK
6
CONTINUOUS
10
3.17912
20
-4.07869
11
3.17915
21
-4.07863
0
LINE
8
BLACK
6
CONTINUOUS
10
3.17915
20
-4.07863
11
3.18102
21
-4.07675
0
LINE
8
BLACK
6
CONTINUOUS
10
3.18102
20
-4.07675
11
3.18175
21
-4.07625
0
LINE
8
BLACK
6
CONTINUOUS
10
3.18175
20
-4.07625
11
3.18179
21
-4.0762
0
LINE
8
BLACK
6
CONTINUOUS
10
3.18179
20
-4.0762
11
3.18554
21
-4.07433
0
LINE
8
BLACK
6
CONTINUOUS
10
3.18554
20
-4.07433
11
3.18652
21
-4.07403
0
LINE
8
BLACK
6
CONTINUOUS
10
3.18652
20
-4.07403
11
3.1867
21
-4.07407
0
LINE
8
BLACK
6
CONTINUOUS
10
3.1867
20
-4.07407
11
3.18686
21
-4.07401
0
LINE
8
BLACK
6
CONTINUOUS
10
3.18686
20
-4.07401
11
3.19249
21
-4.07401
0
LINE
8
BLACK
6
CONTINUOUS
10
3.19249
20
-4.07401
11
3.1935
21
-4.07419
0
LINE
8
BLACK
6
CONTINUOUS
10
3.18486
20
-4.08127
11
3.18366
21
-4.08247
0
LINE
8
BLACK
6
CONTINUOUS
10
3.18366
20
-4.08247
11
3.18232
21
-4.08516
0
LINE
8
BLACK
6
CONTINUOUS
10
3.18232
20
-4.08516
11
3.18232
21
-4.09502
0
LINE
8
BLACK
6
CONTINUOUS
10
3.18232
20
-4.09502
11
3.18366
21
-4.09771
0
LINE
8
BLACK
6
CONTINUOUS
10
3.18366
20
-4.09771
11
3.18486
21
-4.09891
0
LINE
8
BLACK
6
CONTINUOUS
10
3.18486
20
-4.09891
11
3.18756
21
-4.10026
0
LINE
8
BLACK
6
CONTINUOUS
10
3.18756
20
-4.10026
11
3.19179
21
-4.10026
0
LINE
8
BLACK
6
CONTINUOUS
10
3.19179
20
-4.10026
11
3.19449
21
-4.09891
0
LINE
8
BLACK
6
CONTINUOUS
10
3.19449
20
-4.09891
11
3.19568
21
-4.09771
0
LINE
8
BLACK
6
CONTINUOUS
10
3.19568
20
-4.09771
11
3.19703
21
-4.09502
0
LINE
8
BLACK
6
CONTINUOUS
10
3.19703
20
-4.09502
11
3.19703
21
-4.08516
0
LINE
8
BLACK
6
CONTINUOUS
10
3.19703
20
-4.08516
11
3.19568
21
-4.08247
0
LINE
8
BLACK
6
CONTINUOUS
10
3.19568
20
-4.08247
11
3.19449
21
-4.08127
0
LINE
8
BLACK
6
CONTINUOUS
10
3.19449
20
-4.08127
11
3.19179
21
-4.07992
0
LINE
8
BLACK
6
CONTINUOUS
10
3.19179
20
-4.07992
11
3.18756
21
-4.07992
0
LINE
8
BLACK
6
CONTINUOUS
10
3.18756
20
-4.07992
11
3.18486
21
-4.08127
0
LINE
8
BLACK
6
CONTINUOUS
10
3.08851
20
-4.07419
11
3.08864
21
-4.07431
0
LINE
8
BLACK
6
CONTINUOUS
10
3.08864
20
-4.07431
11
3.08882
21
-4.07433
0
LINE
8
BLACK
6
CONTINUOUS
10
3.08882
20
-4.07433
11
3.09257
21
-4.0762
0
LINE
8
BLACK
6
CONTINUOUS
10
3.09257
20
-4.0762
11
3.09339
21
-4.07681
0
LINE
8
BLACK
6
CONTINUOUS
10
3.09339
20
-4.07681
11
3.0942
21
-4.07866
0
LINE
8
BLACK
6
CONTINUOUS
10
3.0942
20
-4.07866
11
3.09362
21
-4.0806
0
LINE
8
BLACK
6
CONTINUOUS
10
3.09362
20
-4.0806
11
3.09193
21
-4.08171
0
LINE
8
BLACK
6
CONTINUOUS
10
3.09193
20
-4.08171
11
3.08993
21
-4.08148
0
LINE
8
BLACK
6
CONTINUOUS
10
3.08993
20
-4.08148
11
3.0868
21
-4.07992
0
LINE
8
BLACK
6
CONTINUOUS
10
3.0868
20
-4.07992
11
3.0807
21
-4.07992
0
LINE
8
BLACK
6
CONTINUOUS
10
3.0807
20
-4.07992
11
3.07845
21
-4.08104
0
LINE
8
BLACK
6
CONTINUOUS
10
3.07845
20
-4.08104
11
3.07733
21
-4.08329
0
LINE
8
BLACK
6
CONTINUOUS
10
3.07733
20
-4.08329
11
3.07733
21
-4.08452
0
LINE
8
BLACK
6
CONTINUOUS
10
3.07733
20
-4.08452
11
3.07882
21
-4.08526
0
LINE
8
BLACK
6
CONTINUOUS
10
3.07882
20
-4.08526
11
3.0875
21
-4.08526
0
LINE
8
BLACK
6
CONTINUOUS
10
3.0875
20
-4.08526
11
3.08851
21
-4.08544
0
LINE
8
BLACK
6
CONTINUOUS
10
3.08851
20
-4.08544
11
3.08864
21
-4.08555
0
LINE
8
BLACK
6
CONTINUOUS
10
3.08864
20
-4.08555
11
3.08882
21
-4.08557
0
LINE
8
BLACK
6
CONTINUOUS
10
3.08882
20
-4.08557
11
3.09257
21
-4.08745
0
LINE
8
BLACK
6
CONTINUOUS
10
3.09257
20
-4.08745
11
3.09339
21
-4.08806
0
LINE
8
BLACK
6
CONTINUOUS
10
3.09339
20
-4.08806
11
3.09357
21
-4.08847
0
LINE
8
BLACK
6
CONTINUOUS
10
3.09357
20
-4.08847
11
3.09389
21
-4.08877
0
LINE
8
BLACK
6
CONTINUOUS
10
3.09389
20
-4.08877
11
3.09576
21
-4.09252
0
LINE
8
BLACK
6
CONTINUOUS
10
3.09576
20
-4.09252
11
3.09606
21
-4.0935
0
LINE
8
BLACK
6
CONTINUOUS
10
3.09606
20
-4.0935
11
3.09602
21
-4.09367
0
LINE
8
BLACK
6
CONTINUOUS
10
3.09602
20
-4.09367
11
3.09608
21
-4.09384
0
LINE
8
BLACK
6
CONTINUOUS
10
3.09608
20
-4.09384
11
3.09608
21
-4.09759
0
LINE
8
BLACK
6
CONTINUOUS
10
3.09608
20
-4.09759
11
3.0959
21
-4.0986
0
LINE
8
BLACK
6
CONTINUOUS
10
3.0959
20
-4.0986
11
3.09578
21
-4.09873
0
LINE
8
BLACK
6
CONTINUOUS
10
3.09578
20
-4.09873
11
3.09576
21
-4.09891
0
LINE
8
BLACK
6
CONTINUOUS
10
3.09576
20
-4.09891
11
3.09389
21
-4.10266
0
LINE
8
BLACK
6
CONTINUOUS
10
3.09389
20
-4.10266
11
3.09328
21
-4.10348
0
LINE
8
BLACK
6
CONTINUOUS
10
3.09328
20
-4.10348
11
3.09287
21
-4.10366
0
LINE
8
BLACK
6
CONTINUOUS
10
3.09287
20
-4.10366
11
3.09257
21
-4.10398
0
LINE
8
BLACK
6
CONTINUOUS
10
3.09257
20
-4.10398
11
3.08882
21
-4.10585
0
LINE
8
BLACK
6
CONTINUOUS
10
3.08882
20
-4.10585
11
3.08784
21
-4.10615
0
LINE
8
BLACK
6
CONTINUOUS
10
3.08784
20
-4.10615
11
3.08766
21
-4.10611
0
LINE
8
BLACK
6
CONTINUOUS
10
3.08766
20
-4.10611
11
3.0875
21
-4.10617
0
LINE
8
BLACK
6
CONTINUOUS
10
3.0875
20
-4.10617
11
3.07813
21
-4.10617
0
LINE
8
BLACK
6
CONTINUOUS
10
3.07813
20
-4.10617
11
3.07712
21
-4.10599
0
LINE
8
BLACK
6
CONTINUOUS
10
3.07712
20
-4.10599
11
3.07698
21
-4.10587
0
LINE
8
BLACK
6
CONTINUOUS
10
3.07698
20
-4.10587
11
3.0768
21
-4.10585
0
LINE
8
BLACK
6
CONTINUOUS
10
3.0768
20
-4.10585
11
3.07608
21
-4.10549
0
LINE
8
BLACK
6
CONTINUOUS
10
3.07608
20
-4.10549
11
3.07585
21
-4.10577
0
LINE
8
BLACK
6
CONTINUOUS
10
3.07585
20
-4.10577
11
3.07386
21
-4.10612
0
LINE
8
BLACK
6
CONTINUOUS
10
3.07386
20
-4.10612
11
3.07211
21
-4.10511
0
LINE
8
BLACK
6
CONTINUOUS
10
3.07211
20
-4.10511
11
3.07142
21
-4.10321
0
LINE
8
BLACK
6
CONTINUOUS
10
3.07142
20
-4.10321
11
3.07142
21
-4.08259
0
LINE
8
BLACK
6
CONTINUOUS
10
3.07142
20
-4.08259
11
3.0716
21
-4.08158
0
LINE
8
BLACK
6
CONTINUOUS
10
3.0716
20
-4.08158
11
3.07171
21
-4.08145
0
LINE
8
BLACK
6
CONTINUOUS
10
3.07171
20
-4.08145
11
3.07173
21
-4.08127
0
LINE
8
BLACK
6
CONTINUOUS
10
3.07173
20
-4.08127
11
3.07361
21
-4.07752
0
LINE
8
BLACK
6
CONTINUOUS
10
3.07361
20
-4.07752
11
3.07422
21
-4.0767
0
LINE
8
BLACK
6
CONTINUOUS
10
3.07422
20
-4.0767
11
3.07463
21
-4.07652
0
LINE
8
BLACK
6
CONTINUOUS
10
3.07463
20
-4.07652
11
3.07493
21
-4.0762
0
LINE
8
BLACK
6
CONTINUOUS
10
3.07493
20
-4.0762
11
3.07868
21
-4.07433
0
LINE
8
BLACK
6
CONTINUOUS
10
3.07868
20
-4.07433
11
3.07966
21
-4.07403
0
LINE
8
BLACK
6
CONTINUOUS
10
3.07966
20
-4.07403
11
3.07983
21
-4.07407
0
LINE
8
BLACK
6
CONTINUOUS
10
3.07983
20
-4.07407
11
3.08
21
-4.07401
0
LINE
8
BLACK
6
CONTINUOUS
10
3.08
20
-4.07401
11
3.0875
21
-4.07401
0
LINE
8
BLACK
6
CONTINUOUS
10
3.0875
20
-4.07401
11
3.08851
21
-4.07419
0
LINE
8
BLACK
6
CONTINUOUS
10
3.07733
20
-4.09951
11
3.07882
21
-4.10026
0
LINE
8
BLACK
6
CONTINUOUS
10
3.07882
20
-4.10026
11
3.0868
21
-4.10026
0
LINE
8
BLACK
6
CONTINUOUS
10
3.0868
20
-4.10026
11
3.08905
21
-4.09914
0
LINE
8
BLACK
6
CONTINUOUS
10
3.08905
20
-4.09914
11
3.09017
21
-4.09689
0
LINE
8
BLACK
6
CONTINUOUS
10
3.09017
20
-4.09689
11
3.09017
21
-4.09454
0
LINE
8
BLACK
6
CONTINUOUS
10
3.09017
20
-4.09454
11
3.08905
21
-4.09229
0
LINE
8
BLACK
6
CONTINUOUS
10
3.08905
20
-4.09229
11
3.0868
21
-4.09117
0
LINE
8
BLACK
6
CONTINUOUS
10
3.0868
20
-4.09117
11
3.07813
21
-4.09117
0
LINE
8
BLACK
6
CONTINUOUS
10
3.07813
20
-4.09117
11
3.07733
21
-4.09103
0
LINE
8
BLACK
6
CONTINUOUS
10
3.07733
20
-4.09103
11
3.07733
21
-4.09951
0
LINE
8
BLACK
6
CONTINUOUS
10
3.01539
20
-4.07419
11
3.01553
21
-4.07431
0
LINE
8
BLACK
6
CONTINUOUS
10
3.01553
20
-4.07431
11
3.0157
21
-4.07433
0
LINE
8
BLACK
6
CONTINUOUS
10
3.0157
20
-4.07433
11
3.01945
21
-4.0762
0
LINE
8
BLACK
6
CONTINUOUS
10
3.01945
20
-4.0762
11
3.02016
21
-4.07673
0
LINE
8
BLACK
6
CONTINUOUS
10
3.02016
20
-4.07673
11
3.02022
21
-4.07675
0
LINE
8
BLACK
6
CONTINUOUS
10
3.02022
20
-4.07675
11
3.0221
21
-4.07863
0
LINE
8
BLACK
6
CONTINUOUS
10
3.0221
20
-4.07863
11
3.0226
21
-4.07935
0
LINE
8
BLACK
6
CONTINUOUS
10
3.0226
20
-4.07935
11
3.02265
21
-4.0794
0
LINE
8
BLACK
6
CONTINUOUS
10
3.02265
20
-4.0794
11
3.02452
21
-4.08315
0
LINE
8
BLACK
6
CONTINUOUS
10
3.02452
20
-4.08315
11
3.02482
21
-4.08413
0
LINE
8
BLACK
6
CONTINUOUS
10
3.02482
20
-4.08413
11
3.02477
21
-4.0843
0
LINE
8
BLACK
6
CONTINUOUS
10
3.02477
20
-4.0843
11
3.02483
21
-4.08447
0
LINE
8
BLACK
6
CONTINUOUS
10
3.02483
20
-4.08447
11
3.02483
21
-4.09571
0
LINE
8
BLACK
6
CONTINUOUS
10
3.02483
20
-4.09571
11
3.02466
21
-4.09672
0
LINE
8
BLACK
6
CONTINUOUS
10
3.02466
20
-4.09672
11
3.02454
21
-4.09686
0
LINE
8
BLACK
6
CONTINUOUS
10
3.02454
20
-4.09686
11
3.02452
21
-4.09703
0
LINE
8
BLACK
6
CONTINUOUS
10
3.02452
20
-4.09703
11
3.02265
21
-4.10078
0
LINE
8
BLACK
6
CONTINUOUS
10
3.02265
20
-4.10078
11
3.02212
21
-4.10149
0
LINE
8
BLACK
6
CONTINUOUS
10
3.02212
20
-4.10149
11
3.0221
21
-4.10155
0
LINE
8
BLACK
6
CONTINUOUS
10
3.0221
20
-4.10155
11
3.02022
21
-4.10343
0
LINE
8
BLACK
6
CONTINUOUS
10
3.02022
20
-4.10343
11
3.0195
21
-4.10393
0
LINE
8
BLACK
6
CONTINUOUS
10
3.0195
20
-4.10393
11
3.01945
21
-4.10398
0
LINE
8
BLACK
6
CONTINUOUS
10
3.01945
20
-4.10398
11
3.0157
21
-4.10585
0
LINE
8
BLACK
6
CONTINUOUS
10
3.0157
20
-4.10585
11
3.01472
21
-4.10615
0
LINE
8
BLACK
6
CONTINUOUS
10
3.01472
20
-4.10615
11
3.01455
21
-4.10611
0
LINE
8
BLACK
6
CONTINUOUS
10
3.01455
20
-4.10611
11
3.01438
21
-4.10617
0
LINE
8
BLACK
6
CONTINUOUS
10
3.01438
20
-4.10617
11
3.00876
21
-4.10617
0
LINE
8
BLACK
6
CONTINUOUS
10
3.00876
20
-4.10617
11
3.00775
21
-4.10599
0
LINE
8
BLACK
6
CONTINUOUS
10
3.00775
20
-4.10599
11
3.00761
21
-4.10587
0
LINE
8
BLACK
6
CONTINUOUS
10
3.00761
20
-4.10587
11
3.00744
21
-4.10585
0
LINE
8
BLACK
6
CONTINUOUS
10
3.00744
20
-4.10585
11
3.00369
21
-4.10398
0
LINE
8
BLACK
6
CONTINUOUS
10
3.00369
20
-4.10398
11
3.00298
21
-4.10345
0
LINE
8
BLACK
6
CONTINUOUS
10
3.00298
20
-4.10345
11
3.00292
21
-4.10343
0
LINE
8
BLACK
6
CONTINUOUS
10
3.00292
20
-4.10343
11
3.00105
21
-4.10155
0
LINE
8
BLACK
6
CONTINUOUS
10
3.00105
20
-4.10155
11
3.00054
21
-4.10083
0
LINE
8
BLACK
6
CONTINUOUS
10
3.00054
20
-4.10083
11
3.00049
21
-4.10078
0
LINE
8
BLACK
6
CONTINUOUS
10
3.00049
20
-4.10078
11
2.99862
21
-4.09703
0
LINE
8
BLACK
6
CONTINUOUS
10
2.99862
20
-4.09703
11
2.99833
21
-4.09605
0
LINE
8
BLACK
6
CONTINUOUS
10
2.99833
20
-4.09605
11
2.99837
21
-4.09588
0
LINE
8
BLACK
6
CONTINUOUS
10
2.99837
20
-4.09588
11
2.99831
21
-4.09571
0
LINE
8
BLACK
6
CONTINUOUS
10
2.99831
20
-4.09571
11
2.99831
21
-4.08447
0
LINE
8
BLACK
6
CONTINUOUS
10
2.99831
20
-4.08447
11
2.99849
21
-4.08346
0
LINE
8
BLACK
6
CONTINUOUS
10
2.99849
20
-4.08346
11
2.9986
21
-4.08332
0
LINE
8
BLACK
6
CONTINUOUS
10
2.9986
20
-4.08332
11
2.99862
21
-4.08315
0
LINE
8
BLACK
6
CONTINUOUS
10
2.99862
20
-4.08315
11
3.00049
21
-4.0794
0
LINE
8
BLACK
6
CONTINUOUS
10
3.00049
20
-4.0794
11
3.00102
21
-4.07869
0
LINE
8
BLACK
6
CONTINUOUS
10
3.00102
20
-4.07869
11
3.00105
21
-4.07863
0
LINE
8
BLACK
6
CONTINUOUS
10
3.00105
20
-4.07863
11
3.00292
21
-4.07675
0
LINE
8
BLACK
6
CONTINUOUS
10
3.00292
20
-4.07675
11
3.00364
21
-4.07625
0
LINE
8
BLACK
6
CONTINUOUS
10
3.00364
20
-4.07625
11
3.00369
21
-4.0762
0
LINE
8
BLACK
6
CONTINUOUS
10
3.00369
20
-4.0762
11
3.00744
21
-4.07433
0
LINE
8
BLACK
6
CONTINUOUS
10
3.00744
20
-4.07433
11
3.00842
21
-4.07403
0
LINE
8
BLACK
6
CONTINUOUS
10
3.00842
20
-4.07403
11
3.00859
21
-4.07407
0
LINE
8
BLACK
6
CONTINUOUS
10
3.00859
20
-4.07407
11
3.00876
21
-4.07401
0
LINE
8
BLACK
6
CONTINUOUS
10
3.00876
20
-4.07401
11
3.01438
21
-4.07401
0
LINE
8
BLACK
6
CONTINUOUS
10
3.01438
20
-4.07401
11
3.01539
21
-4.07419
0
LINE
8
BLACK
6
CONTINUOUS
10
3.00676
20
-4.08127
11
3.00556
21
-4.08247
0
LINE
8
BLACK
6
CONTINUOUS
10
3.00556
20
-4.08247
11
3.00421
21
-4.08516
0
LINE
8
BLACK
6
CONTINUOUS
10
3.00421
20
-4.08516
11
3.00421
21
-4.09502
0
LINE
8
BLACK
6
CONTINUOUS
10
3.00421
20
-4.09502
11
3.00556
21
-4.09771
0
LINE
8
BLACK
6
CONTINUOUS
10
3.00556
20
-4.09771
11
3.00676
21
-4.09891
0
LINE
8
BLACK
6
CONTINUOUS
10
3.00676
20
-4.09891
11
3.00946
21
-4.10026
0
LINE
8
BLACK
6
CONTINUOUS
10
3.00946
20
-4.10026
11
3.01369
21
-4.10026
0
LINE
8
BLACK
6
CONTINUOUS
10
3.01369
20
-4.10026
11
3.01638
21
-4.09891
0
LINE
8
BLACK
6
CONTINUOUS
10
3.01638
20
-4.09891
11
3.01758
21
-4.09771
0
LINE
8
BLACK
6
CONTINUOUS
10
3.01758
20
-4.09771
11
3.01893
21
-4.09502
0
LINE
8
BLACK
6
CONTINUOUS
10
3.01893
20
-4.09502
11
3.01893
21
-4.08516
0
LINE
8
BLACK
6
CONTINUOUS
10
3.01893
20
-4.08516
11
3.01758
21
-4.08247
0
LINE
8
BLACK
6
CONTINUOUS
10
3.01758
20
-4.08247
11
3.01638
21
-4.08127
0
LINE
8
BLACK
6
CONTINUOUS
10
3.01638
20
-4.08127
11
3.01369
21
-4.07992
0
LINE
8
BLACK
6
CONTINUOUS
10
3.01369
20
-4.07992
11
3.00946
21
-4.07992
0
LINE
8
BLACK
6
CONTINUOUS
10
3.00946
20
-4.07992
11
3.00676
21
-4.08127
0
LINE
8
BLACK
6
CONTINUOUS
10
2.94978
20
-4.06107
11
2.94991
21
-4.06118
0
LINE
8
BLACK
6
CONTINUOUS
10
2.94991
20
-4.06118
11
2.95009
21
-4.0612
0
LINE
8
BLACK
6
CONTINUOUS
10
2.95009
20
-4.0612
11
2.95384
21
-4.06308
0
LINE
8
BLACK
6
CONTINUOUS
10
2.95384
20
-4.06308
11
2.95455
21
-4.0636
0
LINE
8
BLACK
6
CONTINUOUS
10
2.95455
20
-4.0636
11
2.9546
21
-4.06363
0
LINE
8
BLACK
6
CONTINUOUS
10
2.9546
20
-4.06363
11
2.95648
21
-4.0655
0
LINE
8
BLACK
6
CONTINUOUS
10
2.95648
20
-4.0655
11
2.95698
21
-4.06623
0
LINE
8
BLACK
6
CONTINUOUS
10
2.95698
20
-4.06623
11
2.95703
21
-4.06627
0
LINE
8
BLACK
6
CONTINUOUS
10
2.95703
20
-4.06627
11
2.95891
21
-4.07002
0
LINE
8
BLACK
6
CONTINUOUS
10
2.95891
20
-4.07002
11
2.9592
21
-4.071
0
LINE
8
BLACK
6
CONTINUOUS
10
2.9592
20
-4.071
11
2.95916
21
-4.07118
0
LINE
8
BLACK
6
CONTINUOUS
10
2.95916
20
-4.07118
11
2.95922
21
-4.07134
0
LINE
8
BLACK
6
CONTINUOUS
10
2.95922
20
-4.07134
11
2.95922
21
-4.07509
0
LINE
8
BLACK
6
CONTINUOUS
10
2.95922
20
-4.07509
11
2.95904
21
-4.0761
0
LINE
8
BLACK
6
CONTINUOUS
10
2.95904
20
-4.0761
11
2.95893
21
-4.07624
0
LINE
8
BLACK
6
CONTINUOUS
10
2.95893
20
-4.07624
11
2.95891
21
-4.07641
0
LINE
8
BLACK
6
CONTINUOUS
10
2.95891
20
-4.07641
11
2.95703
21
-4.08016
0
LINE
8
BLACK
6
CONTINUOUS
10
2.95703
20
-4.08016
11
2.95651
21
-4.08087
0
LINE
8
BLACK
6
CONTINUOUS
10
2.95651
20
-4.08087
11
2.95648
21
-4.08093
0
LINE
8
BLACK
6
CONTINUOUS
10
2.95648
20
-4.08093
11
2.9546
21
-4.0828
0
LINE
8
BLACK
6
CONTINUOUS
10
2.9546
20
-4.0828
11
2.95388
21
-4.08331
0
LINE
8
BLACK
6
CONTINUOUS
10
2.95388
20
-4.08331
11
2.95384
21
-4.08336
0
LINE
8
BLACK
6
CONTINUOUS
10
2.95384
20
-4.08336
11
2.95009
21
-4.08523
0
LINE
8
BLACK
6
CONTINUOUS
10
2.95009
20
-4.08523
11
2.9496
21
-4.08538
0
LINE
8
BLACK
6
CONTINUOUS
10
2.9496
20
-4.08538
11
2.94948
21
-4.08546
0
LINE
8
BLACK
6
CONTINUOUS
10
2.94948
20
-4.08546
11
2.9423
21
-4.08725
0
LINE
8
BLACK
6
CONTINUOUS
10
2.9423
20
-4.08725
11
2.93927
21
-4.08877
0
LINE
8
BLACK
6
CONTINUOUS
10
2.93927
20
-4.08877
11
2.93807
21
-4.08996
0
LINE
8
BLACK
6
CONTINUOUS
10
2.93807
20
-4.08996
11
2.93672
21
-4.09266
0
LINE
8
BLACK
6
CONTINUOUS
10
2.93672
20
-4.09266
11
2.93672
21
-4.09502
0
LINE
8
BLACK
6
CONTINUOUS
10
2.93672
20
-4.09502
11
2.93807
21
-4.09771
0
LINE
8
BLACK
6
CONTINUOUS
10
2.93807
20
-4.09771
11
2.93927
21
-4.09891
0
LINE
8
BLACK
6
CONTINUOUS
10
2.93927
20
-4.09891
11
2.94196
21
-4.10026
0
LINE
8
BLACK
6
CONTINUOUS
10
2.94196
20
-4.10026
11
2.95016
21
-4.10026
0
LINE
8
BLACK
6
CONTINUOUS
10
2.95016
20
-4.10026
11
2.95533
21
-4.09854
0
LINE
8
BLACK
6
CONTINUOUS
10
2.95533
20
-4.09854
11
2.95635
21
-4.09839
0
LINE
8
BLACK
6
CONTINUOUS
10
2.95635
20
-4.09839
11
2.95822
21
-4.09913
0
LINE
8
BLACK
6
CONTINUOUS
10
2.95822
20
-4.09913
11
2.95919
21
-4.10091
0
LINE
8
BLACK
6
CONTINUOUS
10
2.95919
20
-4.10091
11
2.95878
21
-4.10288
0
LINE
8
BLACK
6
CONTINUOUS
10
2.95878
20
-4.10288
11
2.9572
21
-4.10414
0
LINE
8
BLACK
6
CONTINUOUS
10
2.9572
20
-4.10414
11
2.95157
21
-4.10601
0
LINE
8
BLACK
6
CONTINUOUS
10
2.95157
20
-4.10601
11
2.9507
21
-4.10614
0
LINE
8
BLACK
6
CONTINUOUS
10
2.9507
20
-4.10614
11
2.95064
21
-4.10617
0
LINE
8
BLACK
6
CONTINUOUS
10
2.95064
20
-4.10617
11
2.94127
21
-4.10617
0
LINE
8
BLACK
6
CONTINUOUS
10
2.94127
20
-4.10617
11
2.94026
21
-4.10599
0
LINE
8
BLACK
6
CONTINUOUS
10
2.94026
20
-4.10599
11
2.94012
21
-4.10587
0
LINE
8
BLACK
6
CONTINUOUS
10
2.94012
20
-4.10587
11
2.93995
21
-4.10585
0
LINE
8
BLACK
6
CONTINUOUS
10
2.93995
20
-4.10585
11
2.9362
21
-4.10398
0
LINE
8
BLACK
6
CONTINUOUS
10
2.9362
20
-4.10398
11
2.93549
21
-4.10345
0
LINE
8
BLACK
6
CONTINUOUS
10
2.93549
20
-4.10345
11
2.93543
21
-4.10343
0
LINE
8
BLACK
6
CONTINUOUS
10
2.93543
20
-4.10343
11
2.93356
21
-4.10155
0
LINE
8
BLACK
6
CONTINUOUS
10
2.93356
20
-4.10155
11
2.93305
21
-4.10083
0
LINE
8
BLACK
6
CONTINUOUS
10
2.93305
20
-4.10083
11
2.933
21
-4.10078
0
LINE
8
BLACK
6
CONTINUOUS
10
2.933
20
-4.10078
11
2.93113
21
-4.09703
0
LINE
8
BLACK
6
CONTINUOUS
10
2.93113
20
-4.09703
11
2.93083
21
-4.09605
0
LINE
8
BLACK
6
CONTINUOUS
10
2.93083
20
-4.09605
11
2.93088
21
-4.09588
0
LINE
8
BLACK
6
CONTINUOUS
10
2.93088
20
-4.09588
11
2.93082
21
-4.09571
0
LINE
8
BLACK
6
CONTINUOUS
10
2.93082
20
-4.09571
11
2.93082
21
-4.09196
0
LINE
8
BLACK
6
CONTINUOUS
10
2.93082
20
-4.09196
11
2.93099
21
-4.09095
0
LINE
8
BLACK
6
CONTINUOUS
10
2.93099
20
-4.09095
11
2.93111
21
-4.09082
0
LINE
8
BLACK
6
CONTINUOUS
10
2.93111
20
-4.09082
11
2.93113
21
-4.09064
0
LINE
8
BLACK
6
CONTINUOUS
10
2.93113
20
-4.09064
11
2.933
21
-4.08689
0
LINE
8
BLACK
6
CONTINUOUS
10
2.933
20
-4.08689
11
2.93353
21
-4.08619
0
LINE
8
BLACK
6
CONTINUOUS
10
2.93353
20
-4.08619
11
2.93356
21
-4.08613
0
LINE
8
BLACK
6
CONTINUOUS
10
2.93356
20
-4.08613
11
2.93543
21
-4.08425
0
LINE
8
BLACK
6
CONTINUOUS
10
2.93543
20
-4.08425
11
2.93615
21
-4.08375
0
LINE
8
BLACK
6
CONTINUOUS
10
2.93615
20
-4.08375
11
2.9362
21
-4.0837
0
LINE
8
BLACK
6
CONTINUOUS
10
2.9362
20
-4.0837
11
2.93995
21
-4.08182
0
LINE
8
BLACK
6
CONTINUOUS
10
2.93995
20
-4.08182
11
2.94044
21
-4.08168
0
LINE
8
BLACK
6
CONTINUOUS
10
2.94044
20
-4.08168
11
2.94055
21
-4.0816
0
LINE
8
BLACK
6
CONTINUOUS
10
2.94055
20
-4.0816
11
2.94774
21
-4.0798
0
LINE
8
BLACK
6
CONTINUOUS
10
2.94774
20
-4.0798
11
2.95077
21
-4.07829
0
LINE
8
BLACK
6
CONTINUOUS
10
2.95077
20
-4.07829
11
2.95196
21
-4.07709
0
LINE
8
BLACK
6
CONTINUOUS
10
2.95196
20
-4.07709
11
2.95331
21
-4.07439
0
LINE
8
BLACK
6
CONTINUOUS
10
2.95331
20
-4.07439
11
2.95331
21
-4.07204
0
LINE
8
BLACK
6
CONTINUOUS
10
2.95331
20
-4.07204
11
2.95196
21
-4.06934
0
LINE
8
BLACK
6
CONTINUOUS
10
2.95196
20
-4.06934
11
2.95077
21
-4.06814
0
LINE
8
BLACK
6
CONTINUOUS
10
2.95077
20
-4.06814
11
2.94807
21
-4.0668
0
LINE
8
BLACK
6
CONTINUOUS
10
2.94807
20
-4.0668
11
2.93987
21
-4.0668
0
LINE
8
BLACK
6
CONTINUOUS
10
2.93987
20
-4.0668
11
2.9347
21
-4.06852
0
LINE
8
BLACK
6
CONTINUOUS
10
2.9347
20
-4.06852
11
2.93369
21
-4.06867
0
LINE
8
BLACK
6
CONTINUOUS
10
2.93369
20
-4.06867
11
2.93181
21
-4.06793
0
LINE
8
BLACK
6
CONTINUOUS
10
2.93181
20
-4.06793
11
2.93085
21
-4.06615
0
LINE
8
BLACK
6
CONTINUOUS
10
2.93085
20
-4.06615
11
2.93125
21
-4.06417
0
LINE
8
BLACK
6
CONTINUOUS
10
2.93125
20
-4.06417
11
2.93283
21
-4.06292
0
LINE
8
BLACK
6
CONTINUOUS
10
2.93283
20
-4.06292
11
2.93846
21
-4.06104
0
LINE
8
BLACK
6
CONTINUOUS
10
2.93846
20
-4.06104
11
2.93933
21
-4.06091
0
LINE
8
BLACK
6
CONTINUOUS
10
2.93933
20
-4.06091
11
2.93939
21
-4.06089
0
LINE
8
BLACK
6
CONTINUOUS
10
2.93939
20
-4.06089
11
2.94877
21
-4.06089
0
LINE
8
BLACK
6
CONTINUOUS
10
2.94877
20
-4.06089
11
2.94978
21
-4.06107
0
LINE
8
BLACK
6
CONTINUOUS
10
2.91228
20
-4.07419
11
2.91242
21
-4.07431
0
LINE
8
BLACK
6
CONTINUOUS
10
2.91242
20
-4.07431
11
2.91259
21
-4.07433
0
LINE
8
BLACK
6
CONTINUOUS
10
2.91259
20
-4.07433
11
2.91634
21
-4.0762
0
LINE
8
BLACK
6
CONTINUOUS
10
2.91634
20
-4.0762
11
2.91705
21
-4.07673
0
LINE
8
BLACK
6
CONTINUOUS
10
2.91705
20
-4.07673
11
2.91711
21
-4.07675
0
LINE
8
BLACK
6
CONTINUOUS
10
2.91711
20
-4.07675
11
2.91898
21
-4.07863
0
LINE
8
BLACK
6
CONTINUOUS
10
2.91898
20
-4.07863
11
2.91949
21
-4.07935
0
LINE
8
BLACK
6
CONTINUOUS
10
2.91949
20
-4.07935
11
2.91954
21
-4.0794
0
LINE
8
BLACK
6
CONTINUOUS
10
2.91954
20
-4.0794
11
2.92141
21
-4.08315
0
LINE
8
BLACK
6
CONTINUOUS
10
2.92141
20
-4.08315
11
2.9217
21
-4.08413
0
LINE
8
BLACK
6
CONTINUOUS
10
2.9217
20
-4.08413
11
2.92166
21
-4.0843
0
LINE
8
BLACK
6
CONTINUOUS
10
2.92166
20
-4.0843
11
2.92172
21
-4.08447
0
LINE
8
BLACK
6
CONTINUOUS
10
2.92172
20
-4.08447
11
2.92172
21
-4.09571
0
LINE
8
BLACK
6
CONTINUOUS
10
2.92172
20
-4.09571
11
2.92154
21
-4.09672
0
LINE
8
BLACK
6
CONTINUOUS
10
2.92154
20
-4.09672
11
2.92143
21
-4.09686
0
LINE
8
BLACK
6
CONTINUOUS
10
2.92143
20
-4.09686
11
2.92141
21
-4.09703
0
LINE
8
BLACK
6
CONTINUOUS
10
2.92141
20
-4.09703
11
2.91954
21
-4.10078
0
LINE
8
BLACK
6
CONTINUOUS
10
2.91954
20
-4.10078
11
2.91901
21
-4.10149
0
LINE
8
BLACK
6
CONTINUOUS
10
2.91901
20
-4.10149
11
2.91898
21
-4.10155
0
LINE
8
BLACK
6
CONTINUOUS
10
2.91898
20
-4.10155
11
2.91711
21
-4.10343
0
LINE
8
BLACK
6
CONTINUOUS
10
2.91711
20
-4.10343
11
2.91639
21
-4.10393
0
LINE
8
BLACK
6
CONTINUOUS
10
2.91639
20
-4.10393
11
2.91634
21
-4.10398
0
LINE
8
BLACK
6
CONTINUOUS
10
2.91634
20
-4.10398
11
2.91259
21
-4.10585
0
LINE
8
BLACK
6
CONTINUOUS
10
2.91259
20
-4.10585
11
2.91161
21
-4.10615
0
LINE
8
BLACK
6
CONTINUOUS
10
2.91161
20
-4.10615
11
2.91144
21
-4.10611
0
LINE
8
BLACK
6
CONTINUOUS
10
2.91144
20
-4.10611
11
2.91127
21
-4.10617
0
LINE
8
BLACK
6
CONTINUOUS
10
2.91127
20
-4.10617
11
2.90565
21
-4.10617
0
LINE
8
BLACK
6
CONTINUOUS
10
2.90565
20
-4.10617
11
2.90464
21
-4.10599
0
LINE
8
BLACK
6
CONTINUOUS
10
2.90464
20
-4.10599
11
2.9045
21
-4.10587
0
LINE
8
BLACK
6
CONTINUOUS
10
2.9045
20
-4.10587
11
2.90433
21
-4.10585
0
LINE
8
BLACK
6
CONTINUOUS
10
2.90433
20
-4.10585
11
2.90058
21
-4.10398
0
LINE
8
BLACK
6
CONTINUOUS
10
2.90058
20
-4.10398
11
2.89987
21
-4.10345
0
LINE
8
BLACK
6
CONTINUOUS
10
2.89987
20
-4.10345
11
2.89981
21
-4.10343
0
LINE
8
BLACK
6
CONTINUOUS
10
2.89981
20
-4.10343
11
2.89793
21
-4.10155
0
LINE
8
BLACK
6
CONTINUOUS
10
2.89793
20
-4.10155
11
2.89743
21
-4.10083
0
LINE
8
BLACK
6
CONTINUOUS
10
2.89743
20
-4.10083
11
2.89738
21
-4.10078
0
LINE
8
BLACK
6
CONTINUOUS
10
2.89738
20
-4.10078
11
2.89551
21
-4.09703
0
LINE
8
BLACK
6
CONTINUOUS
10
2.89551
20
-4.09703
11
2.89521
21
-4.09605
0
LINE
8
BLACK
6
CONTINUOUS
10
2.89521
20
-4.09605
11
2.89526
21
-4.09588
0
LINE
8
BLACK
6
CONTINUOUS
10
2.89526
20
-4.09588
11
2.89519
21
-4.09571
0
LINE
8
BLACK
6
CONTINUOUS
10
2.89519
20
-4.09571
11
2.89519
21
-4.08447
0
LINE
8
BLACK
6
CONTINUOUS
10
2.89519
20
-4.08447
11
2.89537
21
-4.08346
0
LINE
8
BLACK
6
CONTINUOUS
10
2.89537
20
-4.08346
11
2.89549
21
-4.08332
0
LINE
8
BLACK
6
CONTINUOUS
10
2.89549
20
-4.08332
11
2.89551
21
-4.08315
0
LINE
8
BLACK
6
CONTINUOUS
10
2.89551
20
-4.08315
11
2.89738
21
-4.0794
0
LINE
8
BLACK
6
CONTINUOUS
10
2.89738
20
-4.0794
11
2.89791
21
-4.07869
0
LINE
8
BLACK
6
CONTINUOUS
10
2.89791
20
-4.07869
11
2.89793
21
-4.07863
0
LINE
8
BLACK
6
CONTINUOUS
10
2.89793
20
-4.07863
11
2.89981
21
-4.07675
0
LINE
8
BLACK
6
CONTINUOUS
10
2.89981
20
-4.07675
11
2.90053
21
-4.07625
0
LINE
8
BLACK
6
CONTINUOUS
10
2.90053
20
-4.07625
11
2.90058
21
-4.0762
0
LINE
8
BLACK
6
CONTINUOUS
10
2.90058
20
-4.0762
11
2.90433
21
-4.07433
0
LINE
8
BLACK
6
CONTINUOUS
10
2.90433
20
-4.07433
11
2.90531
21
-4.07403
0
LINE
8
BLACK
6
CONTINUOUS
10
2.90531
20
-4.07403
11
2.90548
21
-4.07407
0
LINE
8
BLACK
6
CONTINUOUS
10
2.90548
20
-4.07407
11
2.90565
21
-4.07401
0
LINE
8
BLACK
6
CONTINUOUS
10
2.90565
20
-4.07401
11
2.91127
21
-4.07401
0
LINE
8
BLACK
6
CONTINUOUS
10
2.91127
20
-4.07401
11
2.91228
21
-4.07419
0
LINE
8
BLACK
6
CONTINUOUS
10
2.90365
20
-4.08127
11
2.90245
21
-4.08247
0
LINE
8
BLACK
6
CONTINUOUS
10
2.90245
20
-4.08247
11
2.9011
21
-4.08516
0
LINE
8
BLACK
6
CONTINUOUS
10
2.9011
20
-4.08516
11
2.9011
21
-4.09502
0
LINE
8
BLACK
6
CONTINUOUS
10
2.9011
20
-4.09502
11
2.90245
21
-4.09771
0
LINE
8
BLACK
6
CONTINUOUS
10
2.90245
20
-4.09771
11
2.90365
21
-4.09891
0
LINE
8
BLACK
6
CONTINUOUS
10
2.90365
20
-4.09891
11
2.90634
21
-4.10026
0
LINE
8
BLACK
6
CONTINUOUS
10
2.90634
20
-4.10026
11
2.91057
21
-4.10026
0
LINE
8
BLACK
6
CONTINUOUS
10
2.91057
20
-4.10026
11
2.91327
21
-4.09891
0
LINE
8
BLACK
6
CONTINUOUS
10
2.91327
20
-4.09891
11
2.91447
21
-4.09771
0
LINE
8
BLACK
6
CONTINUOUS
10
2.91447
20
-4.09771
11
2.91582
21
-4.09502
0
LINE
8
BLACK
6
CONTINUOUS
10
2.91582
20
-4.09502
11
2.91582
21
-4.08516
0
LINE
8
BLACK
6
CONTINUOUS
10
2.91582
20
-4.08516
11
2.91447
21
-4.08247
0
LINE
8
BLACK
6
CONTINUOUS
10
2.91447
20
-4.08247
11
2.91327
21
-4.08127
0
LINE
8
BLACK
6
CONTINUOUS
10
2.91327
20
-4.08127
11
2.91057
21
-4.07992
0
LINE
8
BLACK
6
CONTINUOUS
10
2.91057
20
-4.07992
11
2.90634
21
-4.07992
0
LINE
8
BLACK
6
CONTINUOUS
10
2.90634
20
-4.07992
11
2.90365
21
-4.08127
0
LINE
8
BLACK
6
CONTINUOUS
10
2.87666
20
-4.07419
11
2.8768
21
-4.07431
0
LINE
8
BLACK
6
CONTINUOUS
10
2.8768
20
-4.07431
11
2.87697
21
-4.07433
0
LINE
8
BLACK
6
CONTINUOUS
10
2.87697
20
-4.07433
11
2.88072
21
-4.0762
0
LINE
8
BLACK
6
CONTINUOUS
10
2.88072
20
-4.0762
11
2.88143
21
-4.07673
0
LINE
8
BLACK
6
CONTINUOUS
10
2.88143
20
-4.07673
11
2.88149
21
-4.07675
0
LINE
8
BLACK
6
CONTINUOUS
10
2.88149
20
-4.07675
11
2.88336
21
-4.07863
0
LINE
8
BLACK
6
CONTINUOUS
10
2.88336
20
-4.07863
11
2.88387
21
-4.07935
0
LINE
8
BLACK
6
CONTINUOUS
10
2.88387
20
-4.07935
11
2.88392
21
-4.0794
0
LINE
8
BLACK
6
CONTINUOUS
10
2.88392
20
-4.0794
11
2.88579
21
-4.08315
0
LINE
8
BLACK
6
CONTINUOUS
10
2.88579
20
-4.08315
11
2.88608
21
-4.08413
0
LINE
8
BLACK
6
CONTINUOUS
10
2.88608
20
-4.08413
11
2.88604
21
-4.0843
0
LINE
8
BLACK
6
CONTINUOUS
10
2.88604
20
-4.0843
11
2.8861
21
-4.08447
0
LINE
8
BLACK
6
CONTINUOUS
10
2.8861
20
-4.08447
11
2.8861
21
-4.09571
0
LINE
8
BLACK
6
CONTINUOUS
10
2.8861
20
-4.09571
11
2.88592
21
-4.09672
0
LINE
8
BLACK
6
CONTINUOUS
10
2.88592
20
-4.09672
11
2.88581
21
-4.09686
0
LINE
8
BLACK
6
CONTINUOUS
10
2.88581
20
-4.09686
11
2.88579
21
-4.09703
0
LINE
8
BLACK
6
CONTINUOUS
10
2.88579
20
-4.09703
11
2.88392
21
-4.10078
0
LINE
8
BLACK
6
CONTINUOUS
10
2.88392
20
-4.10078
11
2.88339
21
-4.10149
0
LINE
8
BLACK
6
CONTINUOUS
10
2.88339
20
-4.10149
11
2.88336
21
-4.10155
0
LINE
8
BLACK
6
CONTINUOUS
10
2.88336
20
-4.10155
11
2.88149
21
-4.10343
0
LINE
8
BLACK
6
CONTINUOUS
10
2.88149
20
-4.10343
11
2.88076
21
-4.10393
0
LINE
8
BLACK
6
CONTINUOUS
10
2.88076
20
-4.10393
11
2.88072
21
-4.10398
0
LINE
8
BLACK
6
CONTINUOUS
10
2.88072
20
-4.10398
11
2.87697
21
-4.10585
0
LINE
8
BLACK
6
CONTINUOUS
10
2.87697
20
-4.10585
11
2.87599
21
-4.10615
0
LINE
8
BLACK
6
CONTINUOUS
10
2.87599
20
-4.10615
11
2.87582
21
-4.10611
0
LINE
8
BLACK
6
CONTINUOUS
10
2.87582
20
-4.10611
11
2.87565
21
-4.10617
0
LINE
8
BLACK
6
CONTINUOUS
10
2.87565
20
-4.10617
11
2.86815
21
-4.10617
0
LINE
8
BLACK
6
CONTINUOUS
10
2.86815
20
-4.10617
11
2.86714
21
-4.10599
0
LINE
8
BLACK
6
CONTINUOUS
10
2.86714
20
-4.10599
11
2.86701
21
-4.10587
0
LINE
8
BLACK
6
CONTINUOUS
10
2.86701
20
-4.10587
11
2.86683
21
-4.10585
0
LINE
8
BLACK
6
CONTINUOUS
10
2.86683
20
-4.10585
11
2.86308
21
-4.10398
0
LINE
8
BLACK
6
CONTINUOUS
10
2.86308
20
-4.10398
11
2.86226
21
-4.10337
0
LINE
8
BLACK
6
CONTINUOUS
10
2.86226
20
-4.10337
11
2.86145
21
-4.10152
0
LINE
8
BLACK
6
CONTINUOUS
10
2.86145
20
-4.10152
11
2.86203
21
-4.09958
0
LINE
8
BLACK
6
CONTINUOUS
10
2.86203
20
-4.09958
11
2.86372
21
-4.09847
0
LINE
8
BLACK
6
CONTINUOUS
10
2.86372
20
-4.09847
11
2.86572
21
-4.0987
0
LINE
8
BLACK
6
CONTINUOUS
10
2.86572
20
-4.0987
11
2.86885
21
-4.10026
0
LINE
8
BLACK
6
CONTINUOUS
10
2.86885
20
-4.10026
11
2.87495
21
-4.10026
0
LINE
8
BLACK
6
CONTINUOUS
10
2.87495
20
-4.10026
11
2.87765
21
-4.09891
0
LINE
8
BLACK
6
CONTINUOUS
10
2.87765
20
-4.09891
11
2.87885
21
-4.09771
0
LINE
8
BLACK
6
CONTINUOUS
10
2.87885
20
-4.09771
11
2.8802
21
-4.09502
0
LINE
8
BLACK
6
CONTINUOUS
10
2.8802
20
-4.09502
11
2.8802
21
-4.08516
0
LINE
8
BLACK
6
CONTINUOUS
10
2.8802
20
-4.08516
11
2.87885
21
-4.08247
0
LINE
8
BLACK
6
CONTINUOUS
10
2.87885
20
-4.08247
11
2.87765
21
-4.08127
0
LINE
8
BLACK
6
CONTINUOUS
10
2.87765
20
-4.08127
11
2.87495
21
-4.07992
0
LINE
8
BLACK
6
CONTINUOUS
10
2.87495
20
-4.07992
11
2.86885
21
-4.07992
0
LINE
8
BLACK
6
CONTINUOUS
10
2.86885
20
-4.07992
11
2.86572
21
-4.08148
0
LINE
8
BLACK
6
CONTINUOUS
10
2.86572
20
-4.08148
11
2.86474
21
-4.08177
0
LINE
8
BLACK
6
CONTINUOUS
10
2.86474
20
-4.08177
11
2.86278
21
-4.08131
0
LINE
8
BLACK
6
CONTINUOUS
10
2.86278
20
-4.08131
11
2.86157
21
-4.07968
0
LINE
8
BLACK
6
CONTINUOUS
10
2.86157
20
-4.07968
11
2.86169
21
-4.07767
0
LINE
8
BLACK
6
CONTINUOUS
10
2.86169
20
-4.07767
11
2.86308
21
-4.0762
0
LINE
8
BLACK
6
CONTINUOUS
10
2.86308
20
-4.0762
11
2.86683
21
-4.07433
0
LINE
8
BLACK
6
CONTINUOUS
10
2.86683
20
-4.07433
11
2.86781
21
-4.07403
0
LINE
8
BLACK
6
CONTINUOUS
10
2.86781
20
-4.07403
11
2.86799
21
-4.07407
0
LINE
8
BLACK
6
CONTINUOUS
10
2.86799
20
-4.07407
11
2.86815
21
-4.07401
0
LINE
8
BLACK
6
CONTINUOUS
10
2.86815
20
-4.07401
11
2.87565
21
-4.07401
0
LINE
8
BLACK
6
CONTINUOUS
10
2.87565
20
-4.07401
11
2.87666
21
-4.07419
0
LINE
8
BLACK
6
CONTINUOUS
10
2.81292
20
-4.07419
11
2.81305
21
-4.07431
0
LINE
8
BLACK
6
CONTINUOUS
10
2.81305
20
-4.07431
11
2.81323
21
-4.07433
0
LINE
8
BLACK
6
CONTINUOUS
10
2.81323
20
-4.07433
11
2.81698
21
-4.0762
0
LINE
8
BLACK
6
CONTINUOUS
10
2.81698
20
-4.0762
11
2.8178
21
-4.07681
0
LINE
8
BLACK
6
CONTINUOUS
10
2.8178
20
-4.07681
11
2.81798
21
-4.07722
0
LINE
8
BLACK
6
CONTINUOUS
10
2.81798
20
-4.07722
11
2.8183
21
-4.07752
0
LINE
8
BLACK
6
CONTINUOUS
10
2.8183
20
-4.07752
11
2.82017
21
-4.08127
0
LINE
8
BLACK
6
CONTINUOUS
10
2.82017
20
-4.08127
11
2.82047
21
-4.08225
0
LINE
8
BLACK
6
CONTINUOUS
10
2.82047
20
-4.08225
11
2.82043
21
-4.08242
0
LINE
8
BLACK
6
CONTINUOUS
10
2.82043
20
-4.08242
11
2.82049
21
-4.08259
0
LINE
8
BLACK
6
CONTINUOUS
10
2.82049
20
-4.08259
11
2.82049
21
-4.09759
0
LINE
8
BLACK
6
CONTINUOUS
10
2.82049
20
-4.09759
11
2.82031
21
-4.0986
0
LINE
8
BLACK
6
CONTINUOUS
10
2.82031
20
-4.0986
11
2.82019
21
-4.09873
0
LINE
8
BLACK
6
CONTINUOUS
10
2.82019
20
-4.09873
11
2.82017
21
-4.09891
0
LINE
8
BLACK
6
CONTINUOUS
10
2.82017
20
-4.09891
11
2.8183
21
-4.10266
0
LINE
8
BLACK
6
CONTINUOUS
10
2.8183
20
-4.10266
11
2.81769
21
-4.10348
0
LINE
8
BLACK
6
CONTINUOUS
10
2.81769
20
-4.10348
11
2.81728
21
-4.10366
0
LINE
8
BLACK
6
CONTINUOUS
10
2.81728
20
-4.10366
11
2.81698
21
-4.10398
0
LINE
8
BLACK
6
CONTINUOUS
10
2.81698
20
-4.10398
11
2.81323
21
-4.10585
0
LINE
8
BLACK
6
CONTINUOUS
10
2.81323
20
-4.10585
11
2.81225
21
-4.10615
0
LINE
8
BLACK
6
CONTINUOUS
10
2.81225
20
-4.10615
11
2.81207
21
-4.10611
0
LINE
8
BLACK
6
CONTINUOUS
10
2.81207
20
-4.10611
11
2.81191
21
-4.10617
0
LINE
8
BLACK
6
CONTINUOUS
10
2.81191
20
-4.10617
11
2.80441
21
-4.10617
0
LINE
8
BLACK
6
CONTINUOUS
10
2.80441
20
-4.10617
11
2.8034
21
-4.10599
0
LINE
8
BLACK
6
CONTINUOUS
10
2.8034
20
-4.10599
11
2.80326
21
-4.10587
0
LINE
8
BLACK
6
CONTINUOUS
10
2.80326
20
-4.10587
11
2.80309
21
-4.10585
0
LINE
8
BLACK
6
CONTINUOUS
10
2.80309
20
-4.10585
11
2.79934
21
-4.10398
0
LINE
8
BLACK
6
CONTINUOUS
10
2.79934
20
-4.10398
11
2.79852
21
-4.10337
0
LINE
8
BLACK
6
CONTINUOUS
10
2.79852
20
-4.10337
11
2.79771
21
-4.10152
0
LINE
8
BLACK
6
CONTINUOUS
10
2.79771
20
-4.10152
11
2.79829
21
-4.09958
0
LINE
8
BLACK
6
CONTINUOUS
10
2.79829
20
-4.09958
11
2.79997
21
-4.09847
0
LINE
8
BLACK
6
CONTINUOUS
10
2.79997
20
-4.09847
11
2.80198
21
-4.0987
0
LINE
8
BLACK
6
CONTINUOUS
10
2.80198
20
-4.0987
11
2.80511
21
-4.10026
0
LINE
8
BLACK
6
CONTINUOUS
10
2.80511
20
-4.10026
11
2.81121
21
-4.10026
0
LINE
8
BLACK
6
CONTINUOUS
10
2.81121
20
-4.10026
11
2.81346
21
-4.09914
0
LINE
8
BLACK
6
CONTINUOUS
10
2.81346
20
-4.09914
11
2.81458
21
-4.09689
0
LINE
8
BLACK
6
CONTINUOUS
10
2.81458
20
-4.09689
11
2.81458
21
-4.09251
0
LINE
8
BLACK
6
CONTINUOUS
10
2.81458
20
-4.09251
11
2.79821
21
-4.08924
0
LINE
8
BLACK
6
CONTINUOUS
10
2.79821
20
-4.08924
11
2.79725
21
-4.08886
0
LINE
8
BLACK
6
CONTINUOUS
10
2.79725
20
-4.08886
11
2.79695
21
-4.08848
0
LINE
8
BLACK
6
CONTINUOUS
10
2.79695
20
-4.08848
11
2.79652
21
-4.08824
0
LINE
8
BLACK
6
CONTINUOUS
10
2.79652
20
-4.08824
11
2.79633
21
-4.08772
0
LINE
8
BLACK
6
CONTINUOUS
10
2.79633
20
-4.08772
11
2.79599
21
-4.08729
0
LINE
8
BLACK
6
CONTINUOUS
10
2.79599
20
-4.08729
11
2.796
21
-4.0868
0
LINE
8
BLACK
6
CONTINUOUS
10
2.796
20
-4.0868
11
2.79583
21
-4.08634
0
LINE
8
BLACK
6
CONTINUOUS
10
2.79583
20
-4.08634
11
2.79583
21
-4.08259
0
LINE
8
BLACK
6
CONTINUOUS
10
2.79583
20
-4.08259
11
2.79601
21
-4.08158
0
LINE
8
BLACK
6
CONTINUOUS
10
2.79601
20
-4.08158
11
2.79612
21
-4.08145
0
LINE
8
BLACK
6
CONTINUOUS
10
2.79612
20
-4.08145
11
2.79614
21
-4.08127
0
LINE
8
BLACK
6
CONTINUOUS
10
2.79614
20
-4.08127
11
2.79802
21
-4.07752
0
LINE
8
BLACK
6
CONTINUOUS
10
2.79802
20
-4.07752
11
2.79863
21
-4.0767
0
LINE
8
BLACK
6
CONTINUOUS
10
2.79863
20
-4.0767
11
2.79904
21
-4.07652
0
LINE
8
BLACK
6
CONTINUOUS
10
2.79904
20
-4.07652
11
2.79934
21
-4.0762
0
LINE
8
BLACK
6
CONTINUOUS
10
2.79934
20
-4.0762
11
2.80309
21
-4.07433
0
LINE
8
BLACK
6
CONTINUOUS
10
2.80309
20
-4.07433
11
2.80407
21
-4.07403
0
LINE
8
BLACK
6
CONTINUOUS
10
2.80407
20
-4.07403
11
2.80424
21
-4.07407
0
LINE
8
BLACK
6
CONTINUOUS
10
2.80424
20
-4.07407
11
2.80441
21
-4.07401
0
LINE
8
BLACK
6
CONTINUOUS
10
2.80441
20
-4.07401
11
2.81191
21
-4.07401
0
LINE
8
BLACK
6
CONTINUOUS
10
2.81191
20
-4.07401
11
2.81292
21
-4.07419
0
LINE
8
BLACK
6
CONTINUOUS
10
2.80286
20
-4.08104
11
2.80174
21
-4.08329
0
LINE
8
BLACK
6
CONTINUOUS
10
2.80174
20
-4.08329
11
2.80174
21
-4.08392
0
LINE
8
BLACK
6
CONTINUOUS
10
2.80174
20
-4.08392
11
2.81458
21
-4.08649
0
LINE
8
BLACK
6
CONTINUOUS
10
2.81458
20
-4.08649
11
2.81458
21
-4.08329
0
LINE
8
BLACK
6
CONTINUOUS
10
2.81458
20
-4.08329
11
2.81346
21
-4.08104
0
LINE
8
BLACK
6
CONTINUOUS
10
2.81346
20
-4.08104
11
2.81121
21
-4.07992
0
LINE
8
BLACK
6
CONTINUOUS
10
2.81121
20
-4.07992
11
2.80511
21
-4.07992
0
LINE
8
BLACK
6
CONTINUOUS
10
2.80511
20
-4.07992
11
2.80286
21
-4.08104
0
LINE
8
BLACK
6
CONTINUOUS
10
2.78417
20
-4.06195
11
2.78486
21
-4.06384
0
LINE
8
BLACK
6
CONTINUOUS
10
2.78486
20
-4.06384
11
2.78486
21
-4.07401
0
LINE
8
BLACK
6
CONTINUOUS
10
2.78486
20
-4.07401
11
2.78754
21
-4.07401
0
LINE
8
BLACK
6
CONTINUOUS
10
2.78754
20
-4.07401
11
2.78855
21
-4.07419
0
LINE
8
BLACK
6
CONTINUOUS
10
2.78855
20
-4.07419
11
2.79009
21
-4.07549
0
LINE
8
BLACK
6
CONTINUOUS
10
2.79009
20
-4.07549
11
2.79044
21
-4.07748
0
LINE
8
BLACK
6
CONTINUOUS
10
2.79044
20
-4.07748
11
2.78943
21
-4.07923
0
LINE
8
BLACK
6
CONTINUOUS
10
2.78943
20
-4.07923
11
2.78754
21
-4.07992
0
LINE
8
BLACK
6
CONTINUOUS
10
2.78754
20
-4.07992
11
2.78486
21
-4.07992
0
LINE
8
BLACK
6
CONTINUOUS
10
2.78486
20
-4.07992
11
2.78486
21
-4.09759
0
LINE
8
BLACK
6
CONTINUOUS
10
2.78486
20
-4.09759
11
2.78469
21
-4.0986
0
LINE
8
BLACK
6
CONTINUOUS
10
2.78469
20
-4.0986
11
2.78457
21
-4.09873
0
LINE
8
BLACK
6
CONTINUOUS
10
2.78457
20
-4.09873
11
2.78455
21
-4.09891
0
LINE
8
BLACK
6
CONTINUOUS
10
2.78455
20
-4.09891
11
2.78268
21
-4.10266
0
LINE
8
BLACK
6
CONTINUOUS
10
2.78268
20
-4.10266
11
2.78207
21
-4.10348
0
LINE
8
BLACK
6
CONTINUOUS
10
2.78207
20
-4.10348
11
2.78166
21
-4.10366
0
LINE
8
BLACK
6
CONTINUOUS
10
2.78166
20
-4.10366
11
2.78136
21
-4.10398
0
LINE
8
BLACK
6
CONTINUOUS
10
2.78136
20
-4.10398
11
2.77761
21
-4.10585
0
LINE
8
BLACK
6
CONTINUOUS
10
2.77761
20
-4.10585
11
2.77663
21
-4.10615
0
LINE
8
BLACK
6
CONTINUOUS
10
2.77663
20
-4.10615
11
2.77645
21
-4.10611
0
LINE
8
BLACK
6
CONTINUOUS
10
2.77645
20
-4.10611
11
2.77629
21
-4.10617
0
LINE
8
BLACK
6
CONTINUOUS
10
2.77629
20
-4.10617
11
2.77254
21
-4.10617
0
LINE
8
BLACK
6
CONTINUOUS
10
2.77254
20
-4.10617
11
2.77153
21
-4.10599
0
LINE
8
BLACK
6
CONTINUOUS
10
2.77153
20
-4.10599
11
2.76998
21
-4.10469
0
LINE
8
BLACK
6
CONTINUOUS
10
2.76998
20
-4.10469
11
2.76963
21
-4.1027
0
LINE
8
BLACK
6
CONTINUOUS
10
2.76963
20
-4.1027
11
2.77064
21
-4.10095
0
LINE
8
BLACK
6
CONTINUOUS
10
2.77064
20
-4.10095
11
2.77254
21
-4.10026
0
LINE
8
BLACK
6
CONTINUOUS
10
2.77254
20
-4.10026
11
2.77559
21
-4.10026
0
LINE
8
BLACK
6
CONTINUOUS
10
2.77559
20
-4.10026
11
2.77784
21
-4.09914
0
LINE
8
BLACK
6
CONTINUOUS
10
2.77784
20
-4.09914
11
2.77896
21
-4.09689
0
LINE
8
BLACK
6
CONTINUOUS
10
2.77896
20
-4.09689
11
2.77896
21
-4.07992
0
LINE
8
BLACK
6
CONTINUOUS
10
2.77896
20
-4.07992
11
2.77254
21
-4.07992
0
LINE
8
BLACK
6
CONTINUOUS
10
2.77254
20
-4.07992
11
2.77153
21
-4.07974
0
LINE
8
BLACK
6
CONTINUOUS
10
2.77153
20
-4.07974
11
2.76998
21
-4.07844
0
LINE
8
BLACK
6
CONTINUOUS
10
2.76998
20
-4.07844
11
2.76963
21
-4.07645
0
LINE
8
BLACK
6
CONTINUOUS
10
2.76963
20
-4.07645
11
2.77064
21
-4.0747
0
LINE
8
BLACK
6
CONTINUOUS
10
2.77064
20
-4.0747
11
2.77254
21
-4.07401
0
LINE
8
BLACK
6
CONTINUOUS
10
2.77254
20
-4.07401
11
2.77896
21
-4.07401
0
LINE
8
BLACK
6
CONTINUOUS
10
2.77896
20
-4.07401
11
2.77896
21
-4.06384
0
LINE
8
BLACK
6
CONTINUOUS
10
2.77896
20
-4.06384
11
2.77914
21
-4.06283
0
LINE
8
BLACK
6
CONTINUOUS
10
2.77914
20
-4.06283
11
2.78044
21
-4.06129
0
LINE
8
BLACK
6
CONTINUOUS
10
2.78044
20
-4.06129
11
2.78242
21
-4.06094
0
LINE
8
BLACK
6
CONTINUOUS
10
2.78242
20
-4.06094
11
2.78417
21
-4.06195
0
LINE
8
BLACK
6
CONTINUOUS
10
2.63004
20
-4.06102
11
2.63021
21
-4.06101
0
LINE
8
BLACK
6
CONTINUOUS
10
2.63021
20
-4.06101
11
2.6309
21
-4.06152
0
LINE
8
BLACK
6
CONTINUOUS
10
2.6309
20
-4.06152
11
2.63164
21
-4.06195
0
LINE
8
BLACK
6
CONTINUOUS
10
2.63164
20
-4.06195
11
2.6317
21
-4.0621
0
LINE
8
BLACK
6
CONTINUOUS
10
2.6317
20
-4.0621
11
2.63184
21
-4.06221
0
LINE
8
BLACK
6
CONTINUOUS
10
2.63184
20
-4.06221
11
2.63542
21
-4.06759
0
LINE
8
BLACK
6
CONTINUOUS
10
2.63542
20
-4.06759
11
2.63863
21
-4.07079
0
LINE
8
BLACK
6
CONTINUOUS
10
2.63863
20
-4.07079
11
2.64195
21
-4.07245
0
LINE
8
BLACK
6
CONTINUOUS
10
2.64195
20
-4.07245
11
2.64277
21
-4.07306
0
LINE
8
BLACK
6
CONTINUOUS
10
2.64277
20
-4.07306
11
2.64358
21
-4.07491
0
LINE
8
BLACK
6
CONTINUOUS
10
2.64358
20
-4.07491
11
2.643
21
-4.07685
0
LINE
8
BLACK
6
CONTINUOUS
10
2.643
20
-4.07685
11
2.64131
21
-4.07796
0
LINE
8
BLACK
6
CONTINUOUS
10
2.64131
20
-4.07796
11
2.63931
21
-4.07773
0
LINE
8
BLACK
6
CONTINUOUS
10
2.63931
20
-4.07773
11
2.63556
21
-4.07586
0
LINE
8
BLACK
6
CONTINUOUS
10
2.63556
20
-4.07586
11
2.63485
21
-4.07533
0
LINE
8
BLACK
6
CONTINUOUS
10
2.63485
20
-4.07533
11
2.63479
21
-4.07531
0
LINE
8
BLACK
6
CONTINUOUS
10
2.63479
20
-4.07531
11
2.63233
21
-4.07285
0
LINE
8
BLACK
6
CONTINUOUS
10
2.63233
20
-4.07285
11
2.63233
21
-4.10026
0
LINE
8
BLACK
6
CONTINUOUS
10
2.63233
20
-4.10026
11
2.64063
21
-4.10026
0
LINE
8
BLACK
6
CONTINUOUS
10
2.64063
20
-4.10026
11
2.64164
21
-4.10044
0
LINE
8
BLACK
6
CONTINUOUS
10
2.64164
20
-4.10044
11
2.64319
21
-4.10174
0
LINE
8
BLACK
6
CONTINUOUS
10
2.64319
20
-4.10174
11
2.64354
21
-4.10373
0
LINE
8
BLACK
6
CONTINUOUS
10
2.64354
20
-4.10373
11
2.64253
21
-4.10548
0
LINE
8
BLACK
6
CONTINUOUS
10
2.64253
20
-4.10548
11
2.64063
21
-4.10617
0
LINE
8
BLACK
6
CONTINUOUS
10
2.64063
20
-4.10617
11
2.61813
21
-4.10617
0
LINE
8
BLACK
6
CONTINUOUS
10
2.61813
20
-4.10617
11
2.61712
21
-4.10599
0
LINE
8
BLACK
6
CONTINUOUS
10
2.61712
20
-4.10599
11
2.61557
21
-4.10469
0
LINE
8
BLACK
6
CONTINUOUS
10
2.61557
20
-4.10469
11
2.61522
21
-4.1027
0
LINE
8
BLACK
6
CONTINUOUS
10
2.61522
20
-4.1027
11
2.61623
21
-4.10095
0
LINE
8
BLACK
6
CONTINUOUS
10
2.61623
20
-4.10095
11
2.61813
21
-4.10026
0
LINE
8
BLACK
6
CONTINUOUS
10
2.61813
20
-4.10026
11
2.62643
21
-4.10026
0
LINE
8
BLACK
6
CONTINUOUS
10
2.62643
20
-4.10026
11
2.62643
21
-4.06384
0
LINE
8
BLACK
6
CONTINUOUS
10
2.62643
20
-4.06384
11
2.6266
21
-4.06283
0
LINE
8
BLACK
6
CONTINUOUS
10
2.6266
20
-4.06283
11
2.62671
21
-4.0627
0
LINE
8
BLACK
6
CONTINUOUS
10
2.62671
20
-4.0627
11
2.62673
21
-4.06253
0
LINE
8
BLACK
6
CONTINUOUS
10
2.62673
20
-4.06253
11
2.62735
21
-4.06194
0
LINE
8
BLACK
6
CONTINUOUS
10
2.62735
20
-4.06194
11
2.6279
21
-4.06129
0
LINE
8
BLACK
6
CONTINUOUS
10
2.6279
20
-4.06129
11
2.62807
21
-4.06126
0
LINE
8
BLACK
6
CONTINUOUS
10
2.62807
20
-4.06126
11
2.62819
21
-4.06114
0
LINE
8
BLACK
6
CONTINUOUS
10
2.62819
20
-4.06114
11
2.62905
21
-4.06108
0
LINE
8
BLACK
6
CONTINUOUS
10
2.62905
20
-4.06108
11
2.62989
21
-4.06094
0
LINE
8
BLACK
6
CONTINUOUS
10
2.62989
20
-4.06094
11
2.63004
21
-4.06102
0
LINE
8
BLACK
6
CONTINUOUS
10
3.13274
20
-4.06098
11
3.13301
21
-4.06094
0
LINE
8
BLACK
6
CONTINUOUS
10
3.13301
20
-4.06094
11
3.13367
21
-4.06132
0
LINE
8
BLACK
6
CONTINUOUS
10
3.13367
20
-4.06132
11
3.13438
21
-4.06157
0
LINE
8
BLACK
6
CONTINUOUS
10
3.13438
20
-4.06157
11
3.13452
21
-4.06181
0
LINE
8
BLACK
6
CONTINUOUS
10
3.13452
20
-4.06181
11
3.13476
21
-4.06195
0
LINE
8
BLACK
6
CONTINUOUS
10
3.13476
20
-4.06195
11
3.13502
21
-4.06266
0
LINE
8
BLACK
6
CONTINUOUS
10
3.13502
20
-4.06266
11
3.1354
21
-4.06332
0
LINE
8
BLACK
6
CONTINUOUS
10
3.1354
20
-4.06332
11
3.13535
21
-4.06359
0
LINE
8
BLACK
6
CONTINUOUS
10
3.13535
20
-4.06359
11
3.13545
21
-4.06384
0
LINE
8
BLACK
6
CONTINUOUS
10
3.13545
20
-4.06384
11
3.13545
21
-4.10321
0
LINE
8
BLACK
6
CONTINUOUS
10
3.13545
20
-4.10321
11
3.13527
21
-4.10422
0
LINE
8
BLACK
6
CONTINUOUS
10
3.13527
20
-4.10422
11
3.13397
21
-4.10577
0
LINE
8
BLACK
6
CONTINUOUS
10
3.13397
20
-4.10577
11
3.13198
21
-4.10612
0
LINE
8
BLACK
6
CONTINUOUS
10
3.13198
20
-4.10612
11
3.13023
21
-4.10511
0
LINE
8
BLACK
6
CONTINUOUS
10
3.13023
20
-4.10511
11
3.12954
21
-4.10321
0
LINE
8
BLACK
6
CONTINUOUS
10
3.12954
20
-4.10321
11
3.12954
21
-4.07496
0
LINE
8
BLACK
6
CONTINUOUS
10
3.12954
20
-4.07496
11
3.11256
21
-4.10468
0
LINE
8
BLACK
6
CONTINUOUS
10
3.11256
20
-4.10468
11
3.1119
21
-4.10547
0
LINE
8
BLACK
6
CONTINUOUS
10
3.1119
20
-4.10547
11
3.11165
21
-4.10556
0
LINE
8
BLACK
6
CONTINUOUS
10
3.11165
20
-4.10556
11
3.11147
21
-4.10577
0
LINE
8
BLACK
6
CONTINUOUS
10
3.11147
20
-4.10577
11
3.11072
21
-4.1059
0
LINE
8
BLACK
6
CONTINUOUS
10
3.11072
20
-4.1059
11
3.11001
21
-4.10617
0
LINE
8
BLACK
6
CONTINUOUS
10
3.11001
20
-4.10617
11
3.10975
21
-4.10607
0
LINE
8
BLACK
6
CONTINUOUS
10
3.10975
20
-4.10607
11
3.10948
21
-4.10612
0
LINE
8
BLACK
6
CONTINUOUS
10
3.10948
20
-4.10612
11
3.10882
21
-4.10574
0
LINE
8
BLACK
6
CONTINUOUS
10
3.10882
20
-4.10574
11
3.10811
21
-4.10548
0
LINE
8
BLACK
6
CONTINUOUS
10
3.10811
20
-4.10548
11
3.10797
21
-4.10525
0
LINE
8
BLACK
6
CONTINUOUS
10
3.10797
20
-4.10525
11
3.10773
21
-4.10511
0
LINE
8
BLACK
6
CONTINUOUS
10
3.10773
20
-4.10511
11
3.10747
21
-4.1044
0
LINE
8
BLACK
6
CONTINUOUS
10
3.10747
20
-4.1044
11
3.10709
21
-4.10374
0
LINE
8
BLACK
6
CONTINUOUS
10
3.10709
20
-4.10374
11
3.10714
21
-4.10347
0
LINE
8
BLACK
6
CONTINUOUS
10
3.10714
20
-4.10347
11
3.10704
21
-4.10321
0
LINE
8
BLACK
6
CONTINUOUS
10
3.10704
20
-4.10321
11
3.10704
21
-4.06384
0
LINE
8
BLACK
6
CONTINUOUS
10
3.10704
20
-4.06384
11
3.10722
21
-4.06283
0
LINE
8
BLACK
6
CONTINUOUS
10
3.10722
20
-4.06283
11
3.10852
21
-4.06129
0
LINE
8
BLACK
6
CONTINUOUS
10
3.10852
20
-4.06129
11
3.11051
21
-4.06094
0
LINE
8
BLACK
6
CONTINUOUS
10
3.11051
20
-4.06094
11
3.11226
21
-4.06195
0
LINE
8
BLACK
6
CONTINUOUS
10
3.11226
20
-4.06195
11
3.11295
21
-4.06384
0
LINE
8
BLACK
6
CONTINUOUS
10
3.11295
20
-4.06384
11
3.11295
21
-4.09209
0
LINE
8
BLACK
6
CONTINUOUS
10
3.11295
20
-4.09209
11
3.12993
21
-4.06238
0
LINE
8
BLACK
6
CONTINUOUS
10
3.12993
20
-4.06238
11
3.13059
21
-4.06159
0
LINE
8
BLACK
6
CONTINUOUS
10
3.13059
20
-4.06159
11
3.13084
21
-4.0615
0
LINE
8
BLACK
6
CONTINUOUS
10
3.13084
20
-4.0615
11
3.13102
21
-4.06129
0
LINE
8
BLACK
6
CONTINUOUS
10
3.13102
20
-4.06129
11
3.13177
21
-4.06115
0
LINE
8
BLACK
6
CONTINUOUS
10
3.13177
20
-4.06115
11
3.13248
21
-4.06089
0
LINE
8
BLACK
6
CONTINUOUS
10
3.13248
20
-4.06089
11
3.13274
21
-4.06098
0
LINE
8
BLACK
6
CONTINUOUS
10
2.71578
20
-4.06171
11
2.71668
21
-4.06352
0
LINE
8
BLACK
6
CONTINUOUS
10
2.71668
20
-4.06352
11
2.7162
21
-4.06548
0
LINE
8
BLACK
6
CONTINUOUS
10
2.7162
20
-4.06548
11
2.70417
21
-4.08353
0
LINE
8
BLACK
6
CONTINUOUS
10
2.70417
20
-4.08353
11
2.7162
21
-4.10158
0
LINE
8
BLACK
6
CONTINUOUS
10
2.7162
20
-4.10158
11
2.71661
21
-4.10251
0
LINE
8
BLACK
6
CONTINUOUS
10
2.71661
20
-4.10251
11
2.71639
21
-4.10452
0
LINE
8
BLACK
6
CONTINUOUS
10
2.71639
20
-4.10452
11
2.71493
21
-4.10592
0
LINE
8
BLACK
6
CONTINUOUS
10
2.71493
20
-4.10592
11
2.71291
21
-4.10605
0
LINE
8
BLACK
6
CONTINUOUS
10
2.71291
20
-4.10605
11
2.71129
21
-4.10485
0
LINE
8
BLACK
6
CONTINUOUS
10
2.71129
20
-4.10485
11
2.70062
21
-4.08885
0
LINE
8
BLACK
6
CONTINUOUS
10
2.70062
20
-4.08885
11
2.68995
21
-4.10485
0
LINE
8
BLACK
6
CONTINUOUS
10
2.68995
20
-4.10485
11
2.68925
21
-4.10559
0
LINE
8
BLACK
6
CONTINUOUS
10
2.68925
20
-4.10559
11
2.68731
21
-4.10616
0
LINE
8
BLACK
6
CONTINUOUS
10
2.68731
20
-4.10616
11
2.68546
21
-4.10535
0
LINE
8
BLACK
6
CONTINUOUS
10
2.68546
20
-4.10535
11
2.68456
21
-4.10354
0
LINE
8
BLACK
6
CONTINUOUS
10
2.68456
20
-4.10354
11
2.68504
21
-4.10158
0
LINE
8
BLACK
6
CONTINUOUS
10
2.68504
20
-4.10158
11
2.69707
21
-4.08353
0
LINE
8
BLACK
6
CONTINUOUS
10
2.69707
20
-4.08353
11
2.68504
21
-4.06548
0
LINE
8
BLACK
6
CONTINUOUS
10
2.68504
20
-4.06548
11
2.68463
21
-4.06454
0
LINE
8
BLACK
6
CONTINUOUS
10
2.68463
20
-4.06454
11
2.68485
21
-4.06253
0
LINE
8
BLACK
6
CONTINUOUS
10
2.68485
20
-4.06253
11
2.68631
21
-4.06114
0
LINE
8
BLACK
6
CONTINUOUS
10
2.68631
20
-4.06114
11
2.68833
21
-4.06101
0
LINE
8
BLACK
6
CONTINUOUS
10
2.68833
20
-4.06101
11
2.68995
21
-4.06221
0
LINE
8
BLACK
6
CONTINUOUS
10
2.68995
20
-4.06221
11
2.70062
21
-4.07821
0
LINE
8
BLACK
6
CONTINUOUS
10
2.70062
20
-4.07821
11
2.71129
21
-4.06221
0
LINE
8
BLACK
6
CONTINUOUS
10
2.71129
20
-4.06221
11
2.712
21
-4.06146
0
LINE
8
BLACK
6
CONTINUOUS
10
2.712
20
-4.06146
11
2.71393
21
-4.0609
0
LINE
8
BLACK
6
CONTINUOUS
10
2.71393
20
-4.0609
11
2.71578
21
-4.06171
0
LINE
8
BLACK
6
CONTINUOUS
10
2.84979
20
-4.06195
11
2.85048
21
-4.06384
0
LINE
8
BLACK
6
CONTINUOUS
10
2.85048
20
-4.06384
11
2.85048
21
-4.10321
0
LINE
8
BLACK
6
CONTINUOUS
10
2.85048
20
-4.10321
11
2.8503
21
-4.10422
0
LINE
8
BLACK
6
CONTINUOUS
10
2.8503
20
-4.10422
11
2.84901
21
-4.10577
0
LINE
8
BLACK
6
CONTINUOUS
10
2.84901
20
-4.10577
11
2.84702
21
-4.10612
0
LINE
8
BLACK
6
CONTINUOUS
10
2.84702
20
-4.10612
11
2.84527
21
-4.10511
0
LINE
8
BLACK
6
CONTINUOUS
10
2.84527
20
-4.10511
11
2.84458
21
-4.10321
0
LINE
8
BLACK
6
CONTINUOUS
10
2.84458
20
-4.10321
11
2.84458
21
-4.09319
0
LINE
8
BLACK
6
CONTINUOUS
10
2.84458
20
-4.09319
11
2.8441
21
-4.09271
0
LINE
8
BLACK
6
CONTINUOUS
10
2.8441
20
-4.09271
11
2.83489
21
-4.10499
0
LINE
8
BLACK
6
CONTINUOUS
10
2.83489
20
-4.10499
11
2.83414
21
-4.10569
0
LINE
8
BLACK
6
CONTINUOUS
10
2.83414
20
-4.10569
11
2.83218
21
-4.10614
0
LINE
8
BLACK
6
CONTINUOUS
10
2.83218
20
-4.10614
11
2.83038
21
-4.10523
0
LINE
8
BLACK
6
CONTINUOUS
10
2.83038
20
-4.10523
11
2.82958
21
-4.10337
0
LINE
8
BLACK
6
CONTINUOUS
10
2.82958
20
-4.10337
11
2.83017
21
-4.10144
0
LINE
8
BLACK
6
CONTINUOUS
10
2.83017
20
-4.10144
11
2.83988
21
-4.08849
0
LINE
8
BLACK
6
CONTINUOUS
10
2.83988
20
-4.08849
11
2.83044
21
-4.07905
0
LINE
8
BLACK
6
CONTINUOUS
10
2.83044
20
-4.07905
11
2.82985
21
-4.07821
0
LINE
8
BLACK
6
CONTINUOUS
10
2.82985
20
-4.07821
11
2.82968
21
-4.0762
0
LINE
8
BLACK
6
CONTINUOUS
10
2.82968
20
-4.0762
11
2.83084
21
-4.07455
0
LINE
8
BLACK
6
CONTINUOUS
10
2.83084
20
-4.07455
11
2.83279
21
-4.07403
0
LINE
8
BLACK
6
CONTINUOUS
10
2.83279
20
-4.07403
11
2.83462
21
-4.07488
0
LINE
8
BLACK
6
CONTINUOUS
10
2.83462
20
-4.07488
11
2.84458
21
-4.08484
0
LINE
8
BLACK
6
CONTINUOUS
10
2.84458
20
-4.08484
11
2.84458
21
-4.06384
0
LINE
8
BLACK
6
CONTINUOUS
10
2.84458
20
-4.06384
11
2.84475
21
-4.06283
0
LINE
8
BLACK
6
CONTINUOUS
10
2.84475
20
-4.06283
11
2.84605
21
-4.06129
0
LINE
8
BLACK
6
CONTINUOUS
10
2.84605
20
-4.06129
11
2.84804
21
-4.06094
0
LINE
8
BLACK
6
CONTINUOUS
10
2.84804
20
-4.06094
11
2.84979
21
-4.06195
0
LINE
8
BLACK
6
CONTINUOUS
10
3.37482
20
-4.06111
11
3.37574
21
-4.06125
0
LINE
8
BLACK
6
CONTINUOUS
10
3.37574
20
-4.06125
11
3.3758
21
-4.06131
0
LINE
8
BLACK
6
CONTINUOUS
10
3.3758
20
-4.06131
11
3.37588
21
-4.06133
0
LINE
8
BLACK
6
CONTINUOUS
10
3.37588
20
-4.06133
11
3.37646
21
-4.06206
0
LINE
8
BLACK
6
CONTINUOUS
10
3.37646
20
-4.06206
11
3.37708
21
-4.06276
0
LINE
8
BLACK
6
CONTINUOUS
10
3.37708
20
-4.06276
11
3.37709
21
-4.06284
0
LINE
8
BLACK
6
CONTINUOUS
10
3.37709
20
-4.06284
11
3.37714
21
-4.06291
0
LINE
8
BLACK
6
CONTINUOUS
10
3.37714
20
-4.06291
11
3.39026
21
-4.10228
0
LINE
8
BLACK
6
CONTINUOUS
10
3.39026
20
-4.10228
11
3.39041
21
-4.10329
0
LINE
8
BLACK
6
CONTINUOUS
10
3.39041
20
-4.10329
11
3.38967
21
-4.10517
0
LINE
8
BLACK
6
CONTINUOUS
10
3.38967
20
-4.10517
11
3.38789
21
-4.10613
0
LINE
8
BLACK
6
CONTINUOUS
10
3.38789
20
-4.10613
11
3.38592
21
-4.10573
0
LINE
8
BLACK
6
CONTINUOUS
10
3.38592
20
-4.10573
11
3.38466
21
-4.10415
0
LINE
8
BLACK
6
CONTINUOUS
10
3.38466
20
-4.10415
11
3.38158
21
-4.09492
0
LINE
8
BLACK
6
CONTINUOUS
10
3.38158
20
-4.09492
11
3.36709
21
-4.09492
0
LINE
8
BLACK
6
CONTINUOUS
10
3.36709
20
-4.09492
11
3.36402
21
-4.10415
0
LINE
8
BLACK
6
CONTINUOUS
10
3.36402
20
-4.10415
11
3.36353
21
-4.10505
0
LINE
8
BLACK
6
CONTINUOUS
10
3.36353
20
-4.10505
11
3.36181
21
-4.10611
0
LINE
8
BLACK
6
CONTINUOUS
10
3.36181
20
-4.10611
11
3.35981
21
-4.10581
0
LINE
8
BLACK
6
CONTINUOUS
10
3.35981
20
-4.10581
11
3.35847
21
-4.1043
0
LINE
8
BLACK
6
CONTINUOUS
10
3.35847
20
-4.1043
11
3.35841
21
-4.10228
0
LINE
8
BLACK
6
CONTINUOUS
10
3.35841
20
-4.10228
11
3.37154
21
-4.06291
0
LINE
8
BLACK
6
CONTINUOUS
10
3.37154
20
-4.06291
11
3.37203
21
-4.06201
0
LINE
8
BLACK
6
CONTINUOUS
10
3.37203
20
-4.06201
11
3.3721
21
-4.06196
0
LINE
8
BLACK
6
CONTINUOUS
10
3.3721
20
-4.06196
11
3.37213
21
-4.06188
0
LINE
8
BLACK
6
CONTINUOUS
10
3.37213
20
-4.06188
11
3.37295
21
-4.06144
0
LINE
8
BLACK
6
CONTINUOUS
10
3.37295
20
-4.06144
11
3.37375
21
-4.06095
0
LINE
8
BLACK
6
CONTINUOUS
10
3.37375
20
-4.06095
11
3.37383
21
-4.06096
0
LINE
8
BLACK
6
CONTINUOUS
10
3.37383
20
-4.06096
11
3.37391
21
-4.06092
0
LINE
8
BLACK
6
CONTINUOUS
10
3.37391
20
-4.06092
11
3.37482
21
-4.06111
0
LINE
8
BLACK
6
CONTINUOUS
10
3.36906
20
-4.08901
11
3.37962
21
-4.08901
0
LINE
8
BLACK
6
CONTINUOUS
10
3.37962
20
-4.08901
11
3.37434
21
-4.07318
0
LINE
8
BLACK
6
CONTINUOUS
10
3.37434
20
-4.07318
11
3.36906
21
-4.08901
0
LINE
8
BLACK
6
CONTINUOUS
10
2.66548
20
-4.06111
11
2.66641
21
-4.06125
0
LINE
8
BLACK
6
CONTINUOUS
10
2.66641
20
-4.06125
11
2.66646
21
-4.06131
0
LINE
8
BLACK
6
CONTINUOUS
10
2.66646
20
-4.06131
11
2.66655
21
-4.06133
0
LINE
8
BLACK
6
CONTINUOUS
10
2.66655
20
-4.06133
11
2.66713
21
-4.06206
0
LINE
8
BLACK
6
CONTINUOUS
10
2.66713
20
-4.06206
11
2.66775
21
-4.06276
0
LINE
8
BLACK
6
CONTINUOUS
10
2.66775
20
-4.06276
11
2.66775
21
-4.06284
0
LINE
8
BLACK
6
CONTINUOUS
10
2.66775
20
-4.06284
11
2.6678
21
-4.06291
0
LINE
8
BLACK
6
CONTINUOUS
10
2.6678
20
-4.06291
11
2.68092
21
-4.10228
0
LINE
8
BLACK
6
CONTINUOUS
10
2.68092
20
-4.10228
11
2.68107
21
-4.10329
0
LINE
8
BLACK
6
CONTINUOUS
10
2.68107
20
-4.10329
11
2.68033
21
-4.10517
0
LINE
8
BLACK
6
CONTINUOUS
10
2.68033
20
-4.10517
11
2.67856
21
-4.10613
0
LINE
8
BLACK
6
CONTINUOUS
10
2.67856
20
-4.10613
11
2.67658
21
-4.10573
0
LINE
8
BLACK
6
CONTINUOUS
10
2.67658
20
-4.10573
11
2.67532
21
-4.10415
0
LINE
8
BLACK
6
CONTINUOUS
10
2.67532
20
-4.10415
11
2.67225
21
-4.09492
0
LINE
8
BLACK
6
CONTINUOUS
10
2.67225
20
-4.09492
11
2.65775
21
-4.09492
0
LINE
8
BLACK
6
CONTINUOUS
10
2.65775
20
-4.09492
11
2.65468
21
-4.10415
0
LINE
8
BLACK
6
CONTINUOUS
10
2.65468
20
-4.10415
11
2.65419
21
-4.10505
0
LINE
8
BLACK
6
CONTINUOUS
10
2.65419
20
-4.10505
11
2.65247
21
-4.10611
0
LINE
8
BLACK
6
CONTINUOUS
10
2.65247
20
-4.10611
11
2.65047
21
-4.10581
0
LINE
8
BLACK
6
CONTINUOUS
10
2.65047
20
-4.10581
11
2.64913
21
-4.1043
0
LINE
8
BLACK
6
CONTINUOUS
10
2.64913
20
-4.1043
11
2.64908
21
-4.10228
0
LINE
8
BLACK
6
CONTINUOUS
10
2.64908
20
-4.10228
11
2.6622
21
-4.06291
0
LINE
8
BLACK
6
CONTINUOUS
10
2.6622
20
-4.06291
11
2.66269
21
-4.06201
0
LINE
8
BLACK
6
CONTINUOUS
10
2.66269
20
-4.06201
11
2.66276
21
-4.06196
0
LINE
8
BLACK
6
CONTINUOUS
10
2.66276
20
-4.06196
11
2.66279
21
-4.06188
0
LINE
8
BLACK
6
CONTINUOUS
10
2.66279
20
-4.06188
11
2.66361
21
-4.06144
0
LINE
8
BLACK
6
CONTINUOUS
10
2.66361
20
-4.06144
11
2.66441
21
-4.06095
0
LINE
8
BLACK
6
CONTINUOUS
10
2.66441
20
-4.06095
11
2.66449
21
-4.06096
0
LINE
8
BLACK
6
CONTINUOUS
10
2.66449
20
-4.06096
11
2.66457
21
-4.06092
0
LINE
8
BLACK
6
CONTINUOUS
10
2.66457
20
-4.06092
11
2.66548
21
-4.06111
0
LINE
8
BLACK
6
CONTINUOUS
10
2.65972
20
-4.08901
11
2.67028
21
-4.08901
0
LINE
8
BLACK
6
CONTINUOUS
10
2.67028
20
-4.08901
11
2.665
21
-4.07318
0
LINE
8
BLACK
6
CONTINUOUS
10
2.665
20
-4.07318
11
2.65972
21
-4.08901
0
LINE
8
BLACK
6
CONTINUOUS
10
3.3416
20
-4.07419
11
3.34174
21
-4.07431
0
LINE
8
BLACK
6
CONTINUOUS
10
3.34174
20
-4.07431
11
3.34191
21
-4.07433
0
LINE
8
BLACK
6
CONTINUOUS
10
3.34191
20
-4.07433
11
3.34531
21
-4.07602
0
LINE
8
BLACK
6
CONTINUOUS
10
3.34531
20
-4.07602
11
3.34532
21
-4.07596
0
LINE
8
BLACK
6
CONTINUOUS
10
3.34532
20
-4.07596
11
3.34662
21
-4.07441
0
LINE
8
BLACK
6
CONTINUOUS
10
3.34662
20
-4.07441
11
3.3486
21
-4.07406
0
LINE
8
BLACK
6
CONTINUOUS
10
3.3486
20
-4.07406
11
3.35035
21
-4.07507
0
LINE
8
BLACK
6
CONTINUOUS
10
3.35035
20
-4.07507
11
3.35104
21
-4.07697
0
LINE
8
BLACK
6
CONTINUOUS
10
3.35104
20
-4.07697
11
3.35104
21
-4.10321
0
LINE
8
BLACK
6
CONTINUOUS
10
3.35104
20
-4.10321
11
3.35087
21
-4.10422
0
LINE
8
BLACK
6
CONTINUOUS
10
3.35087
20
-4.10422
11
3.34957
21
-4.10577
0
LINE
8
BLACK
6
CONTINUOUS
10
3.34957
20
-4.10577
11
3.34758
21
-4.10612
0
LINE
8
BLACK
6
CONTINUOUS
10
3.34758
20
-4.10612
11
3.34583
21
-4.10511
0
LINE
8
BLACK
6
CONTINUOUS
10
3.34583
20
-4.10511
11
3.34514
21
-4.10321
0
LINE
8
BLACK
6
CONTINUOUS
10
3.34514
20
-4.10321
11
3.34514
21
-4.08516
0
LINE
8
BLACK
6
CONTINUOUS
10
3.34514
20
-4.08516
11
3.34379
21
-4.08247
0
LINE
8
BLACK
6
CONTINUOUS
10
3.34379
20
-4.08247
11
3.34259
21
-4.08127
0
LINE
8
BLACK
6
CONTINUOUS
10
3.34259
20
-4.08127
11
3.3399
21
-4.07992
0
LINE
8
BLACK
6
CONTINUOUS
10
3.3399
20
-4.07992
11
3.33684
21
-4.07992
0
LINE
8
BLACK
6
CONTINUOUS
10
3.33684
20
-4.07992
11
3.33583
21
-4.07974
0
LINE
8
BLACK
6
CONTINUOUS
10
3.33583
20
-4.07974
11
3.33429
21
-4.07844
0
LINE
8
BLACK
6
CONTINUOUS
10
3.33429
20
-4.07844
11
3.33393
21
-4.07645
0
LINE
8
BLACK
6
CONTINUOUS
10
3.33393
20
-4.07645
11
3.33494
21
-4.0747
0
LINE
8
BLACK
6
CONTINUOUS
10
3.33494
20
-4.0747
11
3.33684
21
-4.07401
0
LINE
8
BLACK
6
CONTINUOUS
10
3.33684
20
-4.07401
11
3.34059
21
-4.07401
0
LINE
8
BLACK
6
CONTINUOUS
10
3.34059
20
-4.07401
11
3.3416
21
-4.07419
0
LINE
8
BLACK
6
CONTINUOUS
10
3.25474
20
-4.07507
11
3.25543
21
-4.07697
0
LINE
8
BLACK
6
CONTINUOUS
10
3.25543
20
-4.07697
11
3.25543
21
-4.10321
0
LINE
8
BLACK
6
CONTINUOUS
10
3.25543
20
-4.10321
11
3.25525
21
-4.10422
0
LINE
8
BLACK
6
CONTINUOUS
10
3.25525
20
-4.10422
11
3.25395
21
-4.10577
0
LINE
8
BLACK
6
CONTINUOUS
10
3.25395
20
-4.10577
11
3.25197
21
-4.10612
0
LINE
8
BLACK
6
CONTINUOUS
10
3.25197
20
-4.10612
11
3.25022
21
-4.10511
0
LINE
8
BLACK
6
CONTINUOUS
10
3.25022
20
-4.10511
11
3.24953
21
-4.10321
0
LINE
8
BLACK
6
CONTINUOUS
10
3.24953
20
-4.10321
11
3.24953
21
-4.07697
0
LINE
8
BLACK
6
CONTINUOUS
10
3.24953
20
-4.07697
11
3.2497
21
-4.07596
0
LINE
8
BLACK
6
CONTINUOUS
10
3.2497
20
-4.07596
11
3.251
21
-4.07441
0
LINE
8
BLACK
6
CONTINUOUS
10
3.251
20
-4.07441
11
3.25299
21
-4.07406
0
LINE
8
BLACK
6
CONTINUOUS
10
3.25299
20
-4.07406
11
3.25474
21
-4.07507
0
LINE
8
BLACK
6
CONTINUOUS
10
3.22912
20
-4.07419
11
3.22925
21
-4.07431
0
LINE
8
BLACK
6
CONTINUOUS
10
3.22925
20
-4.07431
11
3.22943
21
-4.07433
0
LINE
8
BLACK
6
CONTINUOUS
10
3.22943
20
-4.07433
11
3.23147
21
-4.07535
0
LINE
8
BLACK
6
CONTINUOUS
10
3.23147
20
-4.07535
11
3.23225
21
-4.07441
0
LINE
8
BLACK
6
CONTINUOUS
10
3.23225
20
-4.07441
11
3.23424
21
-4.07406
0
LINE
8
BLACK
6
CONTINUOUS
10
3.23424
20
-4.07406
11
3.23599
21
-4.07507
0
LINE
8
BLACK
6
CONTINUOUS
10
3.23599
20
-4.07507
11
3.23668
21
-4.07697
0
LINE
8
BLACK
6
CONTINUOUS
10
3.23668
20
-4.07697
11
3.23668
21
-4.10321
0
LINE
8
BLACK
6
CONTINUOUS
10
3.23668
20
-4.10321
11
3.23651
21
-4.10422
0
LINE
8
BLACK
6
CONTINUOUS
10
3.23651
20
-4.10422
11
3.23521
21
-4.10577
0
LINE
8
BLACK
6
CONTINUOUS
10
3.23521
20
-4.10577
11
3.23322
21
-4.10612
0
LINE
8
BLACK
6
CONTINUOUS
10
3.23322
20
-4.10612
11
3.23147
21
-4.10511
0
LINE
8
BLACK
6
CONTINUOUS
10
3.23147
20
-4.10511
11
3.23078
21
-4.10321
0
LINE
8
BLACK
6
CONTINUOUS
10
3.23078
20
-4.10321
11
3.23078
21
-4.08194
0
LINE
8
BLACK
6
CONTINUOUS
10
3.23078
20
-4.08194
11
3.23011
21
-4.08127
0
LINE
8
BLACK
6
CONTINUOUS
10
3.23011
20
-4.08127
11
3.22741
21
-4.07992
0
LINE
8
BLACK
6
CONTINUOUS
10
3.22741
20
-4.07992
11
3.22318
21
-4.07992
0
LINE
8
BLACK
6
CONTINUOUS
10
3.22318
20
-4.07992
11
3.22093
21
-4.08104
0
LINE
8
BLACK
6
CONTINUOUS
10
3.22093
20
-4.08104
11
3.21981
21
-4.08329
0
LINE
8
BLACK
6
CONTINUOUS
10
3.21981
20
-4.08329
11
3.21981
21
-4.10321
0
LINE
8
BLACK
6
CONTINUOUS
10
3.21981
20
-4.10321
11
3.21963
21
-4.10422
0
LINE
8
BLACK
6
CONTINUOUS
10
3.21963
20
-4.10422
11
3.21833
21
-4.10577
0
LINE
8
BLACK
6
CONTINUOUS
10
3.21833
20
-4.10577
11
3.21635
21
-4.10612
0
LINE
8
BLACK
6
CONTINUOUS
10
3.21635
20
-4.10612
11
3.2146
21
-4.10511
0
LINE
8
BLACK
6
CONTINUOUS
10
3.2146
20
-4.10511
11
3.21391
21
-4.10321
0
LINE
8
BLACK
6
CONTINUOUS
10
3.21391
20
-4.10321
11
3.21391
21
-4.08259
0
LINE
8
BLACK
6
CONTINUOUS
10
3.21391
20
-4.08259
11
3.21408
21
-4.08158
0
LINE
8
BLACK
6
CONTINUOUS
10
3.21408
20
-4.08158
11
3.2142
21
-4.08145
0
LINE
8
BLACK
6
CONTINUOUS
10
3.2142
20
-4.08145
11
3.21422
21
-4.08127
0
LINE
8
BLACK
6
CONTINUOUS
10
3.21422
20
-4.08127
11
3.21609
21
-4.07752
0
LINE
8
BLACK
6
CONTINUOUS
10
3.21609
20
-4.07752
11
3.2167
21
-4.0767
0
LINE
8
BLACK
6
CONTINUOUS
10
3.2167
20
-4.0767
11
3.21711
21
-4.07652
0
LINE
8
BLACK
6
CONTINUOUS
10
3.21711
20
-4.07652
11
3.21741
21
-4.0762
0
LINE
8
BLACK
6
CONTINUOUS
10
3.21741
20
-4.0762
11
3.22116
21
-4.07433
0
LINE
8
BLACK
6
CONTINUOUS
10
3.22116
20
-4.07433
11
3.22214
21
-4.07403
0
LINE
8
BLACK
6
CONTINUOUS
10
3.22214
20
-4.07403
11
3.22232
21
-4.07407
0
LINE
8
BLACK
6
CONTINUOUS
10
3.22232
20
-4.07407
11
3.22248
21
-4.07401
0
LINE
8
BLACK
6
CONTINUOUS
10
3.22248
20
-4.07401
11
3.22811
21
-4.07401
0
LINE
8
BLACK
6
CONTINUOUS
10
3.22811
20
-4.07401
11
3.22912
21
-4.07419
0
LINE
8
BLACK
6
CONTINUOUS
10
3.05101
20
-4.07419
11
3.05115
21
-4.07431
0
LINE
8
BLACK
6
CONTINUOUS
10
3.05115
20
-4.07431
11
3.05132
21
-4.07433
0
LINE
8
BLACK
6
CONTINUOUS
10
3.05132
20
-4.07433
11
3.05337
21
-4.07535
0
LINE
8
BLACK
6
CONTINUOUS
10
3.05337
20
-4.07535
11
3.05415
21
-4.07441
0
LINE
8
BLACK
6
CONTINUOUS
10
3.05415
20
-4.07441
11
3.05614
21
-4.07406
0
LINE
8
BLACK
6
CONTINUOUS
10
3.05614
20
-4.07406
11
3.05789
21
-4.07507
0
LINE
8
BLACK
6
CONTINUOUS
10
3.05789
20
-4.07507
11
3.05858
21
-4.07697
0
LINE
8
BLACK
6
CONTINUOUS
10
3.05858
20
-4.07697
11
3.05858
21
-4.10321
0
LINE
8
BLACK
6
CONTINUOUS
10
3.05858
20
-4.10321
11
3.0584
21
-4.10422
0
LINE
8
BLACK
6
CONTINUOUS
10
3.0584
20
-4.10422
11
3.0571
21
-4.10577
0
LINE
8
BLACK
6
CONTINUOUS
10
3.0571
20
-4.10577
11
3.05512
21
-4.10612
0
LINE
8
BLACK
6
CONTINUOUS
10
3.05512
20
-4.10612
11
3.05337
21
-4.10511
0
LINE
8
BLACK
6
CONTINUOUS
10
3.05337
20
-4.10511
11
3.05268
21
-4.10321
0
LINE
8
BLACK
6
CONTINUOUS
10
3.05268
20
-4.10321
11
3.05268
21
-4.08194
0
LINE
8
BLACK
6
CONTINUOUS
10
3.05268
20
-4.08194
11
3.052
21
-4.08127
0
LINE
8
BLACK
6
CONTINUOUS
10
3.052
20
-4.08127
11
3.04931
21
-4.07992
0
LINE
8
BLACK
6
CONTINUOUS
10
3.04931
20
-4.07992
11
3.04508
21
-4.07992
0
LINE
8
BLACK
6
CONTINUOUS
10
3.04508
20
-4.07992
11
3.04283
21
-4.08104
0
LINE
8
BLACK
6
CONTINUOUS
10
3.04283
20
-4.08104
11
3.04171
21
-4.08329
0
LINE
8
BLACK
6
CONTINUOUS
10
3.04171
20
-4.08329
11
3.04171
21
-4.10321
0
LINE
8
BLACK
6
CONTINUOUS
10
3.04171
20
-4.10321
11
3.04153
21
-4.10422
0
LINE
8
BLACK
6
CONTINUOUS
10
3.04153
20
-4.10422
11
3.04023
21
-4.10577
0
LINE
8
BLACK
6
CONTINUOUS
10
3.04023
20
-4.10577
11
3.03824
21
-4.10612
0
LINE
8
BLACK
6
CONTINUOUS
10
3.03824
20
-4.10612
11
3.03649
21
-4.10511
0
LINE
8
BLACK
6
CONTINUOUS
10
3.03649
20
-4.10511
11
3.0358
21
-4.10321
0
LINE
8
BLACK
6
CONTINUOUS
10
3.0358
20
-4.10321
11
3.0358
21
-4.08259
0
LINE
8
BLACK
6
CONTINUOUS
10
3.0358
20
-4.08259
11
3.03598
21
-4.08158
0
LINE
8
BLACK
6
CONTINUOUS
10
3.03598
20
-4.08158
11
3.03609
21
-4.08145
0
LINE
8
BLACK
6
CONTINUOUS
10
3.03609
20
-4.08145
11
3.03611
21
-4.08127
0
LINE
8
BLACK
6
CONTINUOUS
10
3.03611
20
-4.08127
11
3.03799
21
-4.07752
0
LINE
8
BLACK
6
CONTINUOUS
10
3.03799
20
-4.07752
11
3.0386
21
-4.0767
0
LINE
8
BLACK
6
CONTINUOUS
10
3.0386
20
-4.0767
11
3.03901
21
-4.07652
0
LINE
8
BLACK
6
CONTINUOUS
10
3.03901
20
-4.07652
11
3.03931
21
-4.0762
0
LINE
8
BLACK
6
CONTINUOUS
10
3.03931
20
-4.0762
11
3.04306
21
-4.07433
0
LINE
8
BLACK
6
CONTINUOUS
10
3.04306
20
-4.07433
11
3.04404
21
-4.07403
0
LINE
8
BLACK
6
CONTINUOUS
10
3.04404
20
-4.07403
11
3.04421
21
-4.07407
0
LINE
8
BLACK
6
CONTINUOUS
10
3.04421
20
-4.07407
11
3.04438
21
-4.07401
0
LINE
8
BLACK
6
CONTINUOUS
10
3.04438
20
-4.07401
11
3.05
21
-4.07401
0
LINE
8
BLACK
6
CONTINUOUS
10
3.05
20
-4.07401
11
3.05101
21
-4.07419
0
LINE
8
BLACK
6
CONTINUOUS
10
3.25286
20
-4.06096
11
3.25299
21
-4.06094
0
LINE
8
BLACK
6
CONTINUOUS
10
3.25299
20
-4.06094
11
3.25311
21
-4.061
0
LINE
8
BLACK
6
CONTINUOUS
10
3.25311
20
-4.061
11
3.25324
21
-4.06099
0
LINE
8
BLACK
6
CONTINUOUS
10
3.25324
20
-4.06099
11
3.25387
21
-4.06143
0
LINE
8
BLACK
6
CONTINUOUS
10
3.25387
20
-4.06143
11
3.25457
21
-4.06176
0
LINE
8
BLACK
6
CONTINUOUS
10
3.25457
20
-4.06176
11
3.25644
21
-4.06363
0
LINE
8
BLACK
6
CONTINUOUS
10
3.25644
20
-4.06363
11
3.25666
21
-4.06395
0
LINE
8
BLACK
6
CONTINUOUS
10
3.25666
20
-4.06395
11
3.25677
21
-4.06402
0
LINE
8
BLACK
6
CONTINUOUS
10
3.25677
20
-4.06402
11
3.25681
21
-4.06415
0
LINE
8
BLACK
6
CONTINUOUS
10
3.25681
20
-4.06415
11
3.25703
21
-4.06447
0
LINE
8
BLACK
6
CONTINUOUS
10
3.25703
20
-4.06447
11
3.2571
21
-4.06523
0
LINE
8
BLACK
6
CONTINUOUS
10
3.2571
20
-4.06523
11
3.25729
21
-4.06598
0
LINE
8
BLACK
6
CONTINUOUS
10
3.25729
20
-4.06598
11
3.25718
21
-4.06622
0
LINE
8
BLACK
6
CONTINUOUS
10
3.25718
20
-4.06622
11
3.25721
21
-4.06648
0
LINE
8
BLACK
6
CONTINUOUS
10
3.25721
20
-4.06648
11
3.25677
21
-4.06711
0
LINE
8
BLACK
6
CONTINUOUS
10
3.25677
20
-4.06711
11
3.25644
21
-4.06781
0
LINE
8
BLACK
6
CONTINUOUS
10
3.25644
20
-4.06781
11
3.25457
21
-4.06968
0
LINE
8
BLACK
6
CONTINUOUS
10
3.25457
20
-4.06968
11
3.25425
21
-4.0699
0
LINE
8
BLACK
6
CONTINUOUS
10
3.25425
20
-4.0699
11
3.25417
21
-4.07001
0
LINE
8
BLACK
6
CONTINUOUS
10
3.25417
20
-4.07001
11
3.25405
21
-4.07005
0
LINE
8
BLACK
6
CONTINUOUS
10
3.25405
20
-4.07005
11
3.25404
21
-4.07005
0
LINE
8
BLACK
6
CONTINUOUS
10
3.25404
20
-4.07005
11
3.25395
21
-4.07015
0
LINE
8
BLACK
6
CONTINUOUS
10
3.25395
20
-4.07015
11
3.25388
21
-4.07016
0
LINE
8
BLACK
6
CONTINUOUS
10
3.25388
20
-4.07016
11
3.25373
21
-4.07027
0
LINE
8
BLACK
6
CONTINUOUS
10
3.25373
20
-4.07027
11
3.25296
21
-4.07034
0
LINE
8
BLACK
6
CONTINUOUS
10
3.25296
20
-4.07034
11
3.25222
21
-4.07053
0
LINE
8
BLACK
6
CONTINUOUS
10
3.25222
20
-4.07053
11
3.2521
21
-4.07048
0
LINE
8
BLACK
6
CONTINUOUS
10
3.2521
20
-4.07048
11
3.25197
21
-4.0705
0
LINE
8
BLACK
6
CONTINUOUS
10
3.25197
20
-4.0705
11
3.25185
21
-4.07043
0
LINE
8
BLACK
6
CONTINUOUS
10
3.25185
20
-4.07043
11
3.25171
21
-4.07044
0
LINE
8
BLACK
6
CONTINUOUS
10
3.25171
20
-4.07044
11
3.25109
21
-4.07
0
LINE
8
BLACK
6
CONTINUOUS
10
3.25109
20
-4.07
11
3.25039
21
-4.06968
0
LINE
8
BLACK
6
CONTINUOUS
10
3.25039
20
-4.06968
11
3.24852
21
-4.06781
0
LINE
8
BLACK
6
CONTINUOUS
10
3.24852
20
-4.06781
11
3.24829
21
-4.06749
0
LINE
8
BLACK
6
CONTINUOUS
10
3.24829
20
-4.06749
11
3.24818
21
-4.06741
0
LINE
8
BLACK
6
CONTINUOUS
10
3.24818
20
-4.06741
11
3.24815
21
-4.06728
0
LINE
8
BLACK
6
CONTINUOUS
10
3.24815
20
-4.06728
11
3.24793
21
-4.06697
0
LINE
8
BLACK
6
CONTINUOUS
10
3.24793
20
-4.06697
11
3.24786
21
-4.0662
0
LINE
8
BLACK
6
CONTINUOUS
10
3.24786
20
-4.0662
11
3.24766
21
-4.06546
0
LINE
8
BLACK
6
CONTINUOUS
10
3.24766
20
-4.06546
11
3.24777
21
-4.06522
0
LINE
8
BLACK
6
CONTINUOUS
10
3.24777
20
-4.06522
11
3.24775
21
-4.06495
0
LINE
8
BLACK
6
CONTINUOUS
10
3.24775
20
-4.06495
11
3.24819
21
-4.06433
0
LINE
8
BLACK
6
CONTINUOUS
10
3.24819
20
-4.06433
11
3.24852
21
-4.06363
0
LINE
8
BLACK
6
CONTINUOUS
10
3.24852
20
-4.06363
11
3.25039
21
-4.06176
0
LINE
8
BLACK
6
CONTINUOUS
10
3.25039
20
-4.06176
11
3.25071
21
-4.06153
0
LINE
8
BLACK
6
CONTINUOUS
10
3.25071
20
-4.06153
11
3.25078
21
-4.06142
0
LINE
8
BLACK
6
CONTINUOUS
10
3.25078
20
-4.06142
11
3.25091
21
-4.06139
0
LINE
8
BLACK
6
CONTINUOUS
10
3.25091
20
-4.06139
11
3.25092
21
-4.06139
0
LINE
8
BLACK
6
CONTINUOUS
10
3.25092
20
-4.06139
11
3.251
21
-4.06129
0
LINE
8
BLACK
6
CONTINUOUS
10
3.251
20
-4.06129
11
3.25108
21
-4.06127
0
LINE
8
BLACK
6
CONTINUOUS
10
3.25108
20
-4.06127
11
3.25123
21
-4.06117
0
LINE
8
BLACK
6
CONTINUOUS
10
3.25123
20
-4.06117
11
3.25199
21
-4.0611
0
LINE
8
BLACK
6
CONTINUOUS
10
3.25199
20
-4.0611
11
3.25274
21
-4.0609
0
LINE
8
BLACK
6
CONTINUOUS
10
3.25274
20
-4.0609
11
3.25286
21
-4.06096
0
LINE
8
BLACK
6
CONTINUOUS
10
3.25685
20
-4
11
3.25759
21
-3.99207
0
LINE
8
BLACK
6
CONTINUOUS
10
3.25759
20
-3.99207
11
3.25976
21
-3.98441
0
LINE
8
BLACK
6
CONTINUOUS
10
3.25976
20
-3.98441
11
3.26331
21
-3.97728
0
LINE
8
BLACK
6
CONTINUOUS
10
3.26331
20
-3.97728
11
3.26811
21
-3.97093
0
LINE
8
BLACK
6
CONTINUOUS
10
3.26811
20
-3.97093
11
3.274
21
-3.96557
0
LINE
8
BLACK
6
CONTINUOUS
10
3.274
20
-3.96557
11
3.28077
21
-3.96137
0
LINE
8
BLACK
6
CONTINUOUS
10
3.28077
20
-3.96137
11
3.28819
21
-3.9585
0
LINE
8
BLACK
6
CONTINUOUS
10
3.28819
20
-3.9585
11
3.29602
21
-3.95703
0
LINE
8
BLACK
6
CONTINUOUS
10
3.29602
20
-3.95703
11
3.30398
21
-3.95703
0
LINE
8
BLACK
6
CONTINUOUS
10
3.30398
20
-3.95703
11
3.31181
21
-3.9585
0
LINE
8
BLACK
6
CONTINUOUS
10
3.31181
20
-3.9585
11
3.31923
21
-3.96137
0
LINE
8
BLACK
6
CONTINUOUS
10
3.31923
20
-3.96137
11
3.326
21
-3.96557
0
LINE
8
BLACK
6
CONTINUOUS
10
3.326
20
-3.96557
11
3.33189
21
-3.97093
0
LINE
8
BLACK
6
CONTINUOUS
10
3.33189
20
-3.97093
11
3.33669
21
-3.97728
0
LINE
8
BLACK
6
CONTINUOUS
10
3.33669
20
-3.97728
11
3.34024
21
-3.98441
0
LINE
8
BLACK
6
CONTINUOUS
10
3.34024
20
-3.98441
11
3.34241
21
-3.99207
0
LINE
8
BLACK
6
CONTINUOUS
10
3.34241
20
-3.99207
11
3.34315
21
-4
0
LINE
8
BLACK
6
CONTINUOUS
10
3.34315
20
-4
11
3.34241
21
-4.00793
0
LINE
8
BLACK
6
CONTINUOUS
10
3.34241
20
-4.00793
11
3.34024
21
-4.01559
0
LINE
8
BLACK
6
CONTINUOUS
10
3.34024
20
-4.01559
11
3.33669
21
-4.02272
0
LINE
8
BLACK
6
CONTINUOUS
10
3.33669
20
-4.02272
11
3.33189
21
-4.02907
0
LINE
8
BLACK
6
CONTINUOUS
10
3.33189
20
-4.02907
11
3.326
21
-4.03443
0
LINE
8
BLACK
6
CONTINUOUS
10
3.326
20
-4.03443
11
3.31923
21
-4.03863
0
LINE
8
BLACK
6
CONTINUOUS
10
3.31923
20
-4.03863
11
3.31181
21
-4.0415
0
LINE
8
BLACK
6
CONTINUOUS
10
3.31181
20
-4.0415
11
3.30398
21
-4.04297
0
LINE
8
BLACK
6
CONTINUOUS
10
3.30398
20
-4.04297
11
3.29602
21
-4.04297
0
LINE
8
BLACK
6
CONTINUOUS
10
3.29602
20
-4.04297
11
3.28819
21
-4.0415
0
LINE
8
BLACK
6
CONTINUOUS
10
3.28819
20
-4.0415
11
3.28077
21
-4.03863
0
LINE
8
BLACK
6
CONTINUOUS
10
3.28077
20
-4.03863
11
3.274
21
-4.03443
0
LINE
8
BLACK
6
CONTINUOUS
10
3.274
20
-4.03443
11
3.26811
21
-4.02907
0
LINE
8
BLACK
6
CONTINUOUS
10
3.26811
20
-4.02907
11
3.26331
21
-4.02272
0
LINE
8
BLACK
6
CONTINUOUS
10
3.26331
20
-4.02272
11
3.25976
21
-4.01559
0
LINE
8
BLACK
6
CONTINUOUS
10
3.25976
20
-4.01559
11
3.25759
21
-4.00793
0
LINE
8
BLACK
6
CONTINUOUS
10
3.25759
20
-4.00793
11
3.25685
21
-4
0
LINE
8
BLACK
6
CONTINUOUS
10
3.26295
20
-4
11
3.26376
21
-4.0077
0
LINE
8
BLACK
6
CONTINUOUS
10
3.26376
20
-4.0077
11
3.26615
21
-4.01507
0
LINE
8
BLACK
6
CONTINUOUS
10
3.26615
20
-4.01507
11
3.27002
21
-4.02178
0
LINE
8
BLACK
6
CONTINUOUS
10
3.27002
20
-4.02178
11
3.27521
21
-4.02754
0
LINE
8
BLACK
6
CONTINUOUS
10
3.27521
20
-4.02754
11
3.28147
21
-4.03209
0
LINE
8
BLACK
6
CONTINUOUS
10
3.28147
20
-4.03209
11
3.28855
21
-4.03524
0
LINE
8
BLACK
6
CONTINUOUS
10
3.28855
20
-4.03524
11
3.29613
21
-4.03685
0
LINE
8
BLACK
6
CONTINUOUS
10
3.29613
20
-4.03685
11
3.30387
21
-4.03685
0
LINE
8
BLACK
6
CONTINUOUS
10
3.30387
20
-4.03685
11
3.31145
21
-4.03524
0
LINE
8
BLACK
6
CONTINUOUS
10
3.31145
20
-4.03524
11
3.31853
21
-4.03209
0
LINE
8
BLACK
6
CONTINUOUS
10
3.31853
20
-4.03209
11
3.32479
21
-4.02754
0
LINE
8
BLACK
6
CONTINUOUS
10
3.32479
20
-4.02754
11
3.32998
21
-4.02178
0
LINE
8
BLACK
6
CONTINUOUS
10
3.32998
20
-4.02178
11
3.33385
21
-4.01507
0
LINE
8
BLACK
6
CONTINUOUS
10
3.33385
20
-4.01507
11
3.33624
21
-4.0077
0
LINE
8
BLACK
6
CONTINUOUS
10
3.33624
20
-4.0077
11
3.33705
21
-4
0
LINE
8
BLACK
6
CONTINUOUS
10
3.33705
20
-4
11
3.33624
21
-3.9923
0
LINE
8
BLACK
6
CONTINUOUS
10
3.33624
20
-3.9923
11
3.33385
21
-3.98493
0
LINE
8
BLACK
6
CONTINUOUS
10
3.33385
20
-3.98493
11
3.32998
21
-3.97822
0
LINE
8
BLACK
6
CONTINUOUS
10
3.32998
20
-3.97822
11
3.32479
21
-3.97246
0
LINE
8
BLACK
6
CONTINUOUS
10
3.32479
20
-3.97246
11
3.31853
21
-3.96791
0
LINE
8
BLACK
6
CONTINUOUS
10
3.31853
20
-3.96791
11
3.31145
21
-3.96476
0
LINE
8
BLACK
6
CONTINUOUS
10
3.31145
20
-3.96476
11
3.30387
21
-3.96315
0
LINE
8
BLACK
6
CONTINUOUS
10
3.30387
20
-3.96315
11
3.29613
21
-3.96315
0
LINE
8
BLACK
6
CONTINUOUS
10
3.29613
20
-3.96315
11
3.28855
21
-3.96476
0
LINE
8
BLACK
6
CONTINUOUS
10
3.28855
20
-3.96476
11
3.28147
21
-3.96791
0
LINE
8
BLACK
6
CONTINUOUS
10
3.28147
20
-3.96791
11
3.27521
21
-3.97246
0
LINE
8
BLACK
6
CONTINUOUS
10
3.27521
20
-3.97246
11
3.27002
21
-3.97822
0
LINE
8
BLACK
6
CONTINUOUS
10
3.27002
20
-3.97822
11
3.26615
21
-3.98493
0
LINE
8
BLACK
6
CONTINUOUS
10
3.26615
20
-3.98493
11
3.26376
21
-3.9923
0
LINE
8
BLACK
6
CONTINUOUS
10
3.26376
20
-3.9923
11
3.26295
21
-4
0
LINE
8
BLACK
6
CONTINUOUS
10
2.65685
20
-4
11
2.65759
21
-3.99207
0
LINE
8
BLACK
6
CONTINUOUS
10
2.65759
20
-3.99207
11
2.65976
21
-3.98441
0
LINE
8
BLACK
6
CONTINUOUS
10
2.65976
20
-3.98441
11
2.66331
21
-3.97728
0
LINE
8
BLACK
6
CONTINUOUS
10
2.66331
20
-3.97728
11
2.66811
21
-3.97093
0
LINE
8
BLACK
6
CONTINUOUS
10
2.66811
20
-3.97093
11
2.674
21
-3.96557
0
LINE
8
BLACK
6
CONTINUOUS
10
2.674
20
-3.96557
11
2.68077
21
-3.96137
0
LINE
8
BLACK
6
CONTINUOUS
10
2.68077
20
-3.96137
11
2.68819
21
-3.9585
0
LINE
8
BLACK
6
CONTINUOUS
10
2.68819
20
-3.9585
11
2.69602
21
-3.95703
0
LINE
8
BLACK
6
CONTINUOUS
10
2.69602
20
-3.95703
11
2.70398
21
-3.95703
0
LINE
8
BLACK
6
CONTINUOUS
10
2.70398
20
-3.95703
11
2.71181
21
-3.9585
0
LINE
8
BLACK
6
CONTINUOUS
10
2.71181
20
-3.9585
11
2.71923
21
-3.96137
0
LINE
8
BLACK
6
CONTINUOUS
10
2.71923
20
-3.96137
11
2.726
21
-3.96557
0
LINE
8
BLACK
6
CONTINUOUS
10
2.726
20
-3.96557
11
2.73189
21
-3.97093
0
LINE
8
BLACK
6
CONTINUOUS
10
2.73189
20
-3.97093
11
2.73669
21
-3.97728
0
LINE
8
BLACK
6
CONTINUOUS
10
2.73669
20
-3.97728
11
2.74024
21
-3.98441
0
LINE
8
BLACK
6
CONTINUOUS
10
2.74024
20
-3.98441
11
2.74241
21
-3.99207
0
LINE
8
BLACK
6
CONTINUOUS
10
2.74241
20
-3.99207
11
2.74315
21
-4
0
LINE
8
BLACK
6
CONTINUOUS
10
2.74315
20
-4
11
2.74241
21
-4.00793
0
LINE
8
BLACK
6
CONTINUOUS
10
2.74241
20
-4.00793
11
2.74024
21
-4.01559
0
LINE
8
BLACK
6
CONTINUOUS
10
2.74024
20
-4.01559
11
2.73669
21
-4.02272
0
LINE
8
BLACK
6
CONTINUOUS
10
2.73669
20
-4.02272
11
2.73189
21
-4.02907
0
LINE
8
BLACK
6
CONTINUOUS
10
2.73189
20
-4.02907
11
2.726
21
-4.03443
0
LINE
8
BLACK
6
CONTINUOUS
10
2.726
20
-4.03443
11
2.71923
21
-4.03863
0
LINE
8
BLACK
6
CONTINUOUS
10
2.71923
20
-4.03863
11
2.71181
21
-4.0415
0
LINE
8
BLACK
6
CONTINUOUS
10
2.71181
20
-4.0415
11
2.70398
21
-4.04297
0
LINE
8
BLACK
6
CONTINUOUS
10
2.70398
20
-4.04297
11
2.69602
21
-4.04297
0
LINE
8
BLACK
6
CONTINUOUS
10
2.69602
20
-4.04297
11
2.68819
21
-4.0415
0
LINE
8
BLACK
6
CONTINUOUS
10
2.68819
20
-4.0415
11
2.68077
21
-4.03863
0
LINE
8
BLACK
6
CONTINUOUS
10
2.68077
20
-4.03863
11
2.674
21
-4.03443
0
LINE
8
BLACK
6
CONTINUOUS
10
2.674
20
-4.03443
11
2.66811
21
-4.02907
0
LINE
8
BLACK
6
CONTINUOUS
10
2.66811
20
-4.02907
11
2.66331
21
-4.02272
0
LINE
8
BLACK
6
CONTINUOUS
10
2.66331
20
-4.02272
11
2.65976
21
-4.01559
0
LINE
8
BLACK
6
CONTINUOUS
10
2.65976
20
-4.01559
11
2.65759
21
-4.00793
0
LINE
8
BLACK
6
CONTINUOUS
10
2.65759
20
-4.00793
11
2.65685
21
-4
0
LINE
8
BLACK
6
CONTINUOUS
10
2.66295
20
-4
11
2.66376
21
-4.0077
0
LINE
8
BLACK
6
CONTINUOUS
10
2.66376
20
-4.0077
11
2.66615
21
-4.01507
0
LINE
8
BLACK
6
CONTINUOUS
10
2.66615
20
-4.01507
11
2.67002
21
-4.02178
0
LINE
8
BLACK
6
CONTINUOUS
10
2.67002
20
-4.02178
11
2.67521
21
-4.02754
0
LINE
8
BLACK
6
CONTINUOUS
10
2.67521
20
-4.02754
11
2.68147
21
-4.03209
0
LINE
8
BLACK
6
CONTINUOUS
10
2.68147
20
-4.03209
11
2.68855
21
-4.03524
0
LINE
8
BLACK
6
CONTINUOUS
10
2.68855
20
-4.03524
11
2.69613
21
-4.03685
0
LINE
8
BLACK
6
CONTINUOUS
10
2.69613
20
-4.03685
11
2.70387
21
-4.03685
0
LINE
8
BLACK
6
CONTINUOUS
10
2.70387
20
-4.03685
11
2.71145
21
-4.03524
0
LINE
8
BLACK
6
CONTINUOUS
10
2.71145
20
-4.03524
11
2.71853
21
-4.03209
0
LINE
8
BLACK
6
CONTINUOUS
10
2.71853
20
-4.03209
11
2.72479
21
-4.02754
0
LINE
8
BLACK
6
CONTINUOUS
10
2.72479
20
-4.02754
11
2.72998
21
-4.02178
0
LINE
8
BLACK
6
CONTINUOUS
10
2.72998
20
-4.02178
11
2.73385
21
-4.01507
0
LINE
8
BLACK
6
CONTINUOUS
10
2.73385
20
-4.01507
11
2.73624
21
-4.0077
0
LINE
8
BLACK
6
CONTINUOUS
10
2.73624
20
-4.0077
11
2.73705
21
-4
0
LINE
8
BLACK
6
CONTINUOUS
10
2.73705
20
-4
11
2.73624
21
-3.9923
0
LINE
8
BLACK
6
CONTINUOUS
10
2.73624
20
-3.9923
11
2.73385
21
-3.98493
0
LINE
8
BLACK
6
CONTINUOUS
10
2.73385
20
-3.98493
11
2.72998
21
-3.97822
0
LINE
8
BLACK
6
CONTINUOUS
10
2.72998
20
-3.97822
11
2.72479
21
-3.97246
0
LINE
8
BLACK
6
CONTINUOUS
10
2.72479
20
-3.97246
11
2.71853
21
-3.96791
0
LINE
8
BLACK
6
CONTINUOUS
10
2.71853
20
-3.96791
11
2.71145
21
-3.96476
0
LINE
8
BLACK
6
CONTINUOUS
10
2.71145
20
-3.96476
11
2.70387
21
-3.96315
0
LINE
8
BLACK
6
CONTINUOUS
10
2.70387
20
-3.96315
11
2.69613
21
-3.96315
0
LINE
8
BLACK
6
CONTINUOUS
10
2.69613
20
-3.96315
11
2.68855
21
-3.96476
0
LINE
8
BLACK
6
CONTINUOUS
10
2.68855
20
-3.96476
11
2.68147
21
-3.96791
0
LINE
8
BLACK
6
CONTINUOUS
10
2.68147
20
-3.96791
11
2.67521
21
-3.97246
0
LINE
8
BLACK
6
CONTINUOUS
10
2.67521
20
-3.97246
11
2.67002
21
-3.97822
0
LINE
8
BLACK
6
CONTINUOUS
10
2.67002
20
-3.97822
11
2.66615
21
-3.98493
0
LINE
8
BLACK
6
CONTINUOUS
10
2.66615
20
-3.98493
11
2.66376
21
-3.9923
0
LINE
8
BLACK
6
CONTINUOUS
10
2.66376
20
-3.9923
11
2.66295
21
-4
0
LINE
8
BLACK
6
CONTINUOUS
10
2.98185
20
-3.3
11
2.98258
21
-3.29256
0
LINE
8
BLACK
6
CONTINUOUS
10
2.98258
20
-3.29256
11
2.98475
21
-3.2854
0
LINE
8
BLACK
6
CONTINUOUS
10
2.98475
20
-3.2854
11
2.98828
21
-3.27881
0
LINE
8
BLACK
6
CONTINUOUS
10
2.98828
20
-3.27881
11
2.99302
21
-3.27302
0
LINE
8
BLACK
6
CONTINUOUS
10
2.99302
20
-3.27302
11
2.99881
21
-3.26828
0
LINE
8
BLACK
6
CONTINUOUS
10
2.99881
20
-3.26828
11
3.0054
21
-3.26475
0
LINE
8
BLACK
6
CONTINUOUS
10
3.0054
20
-3.26475
11
3.01256
21
-3.26258
0
LINE
8
BLACK
6
CONTINUOUS
10
3.01256
20
-3.26258
11
3.02
21
-3.26185
0
LINE
8
BLACK
6
CONTINUOUS
10
3.02
20
-3.26185
11
3.02744
21
-3.26258
0
LINE
8
BLACK
6
CONTINUOUS
10
3.02744
20
-3.26258
11
3.0346
21
-3.26475
0
LINE
8
BLACK
6
CONTINUOUS
10
3.0346
20
-3.26475
11
3.04119
21
-3.26828
0
LINE
8
BLACK
6
CONTINUOUS
10
3.04119
20
-3.26828
11
3.04698
21
-3.27302
0
LINE
8
BLACK
6
CONTINUOUS
10
3.04698
20
-3.27302
11
3.05172
21
-3.27881
0
LINE
8
BLACK
6
CONTINUOUS
10
3.05172
20
-3.27881
11
3.05525
21
-3.2854
0
LINE
8
BLACK
6
CONTINUOUS
10
3.05525
20
-3.2854
11
3.05742
21
-3.29256
0
LINE
8
BLACK
6
CONTINUOUS
10
3.05742
20
-3.29256
11
3.05815
21
-3.3
0
LINE
8
BLACK
6
CONTINUOUS
10
3.05815
20
-3.3
11
3.05742
21
-3.30744
0
LINE
8
BLACK
6
CONTINUOUS
10
3.05742
20
-3.30744
11
3.05525
21
-3.3146
0
LINE
8
BLACK
6
CONTINUOUS
10
3.05525
20
-3.3146
11
3.05172
21
-3.32119
0
LINE
8
BLACK
6
CONTINUOUS
10
3.05172
20
-3.32119
11
3.04698
21
-3.32698
0
LINE
8
BLACK
6
CONTINUOUS
10
3.04698
20
-3.32698
11
3.04119
21
-3.33172
0
LINE
8
BLACK
6
CONTINUOUS
10
3.04119
20
-3.33172
11
3.0346
21
-3.33525
0
LINE
8
BLACK
6
CONTINUOUS
10
3.0346
20
-3.33525
11
3.02744
21
-3.33742
0
LINE
8
BLACK
6
CONTINUOUS
10
3.02744
20
-3.33742
11
3.02
21
-3.33815
0
LINE
8
BLACK
6
CONTINUOUS
10
3.02
20
-3.33815
11
3.01256
21
-3.33742
0
LINE
8
BLACK
6
CONTINUOUS
10
3.01256
20
-3.33742
11
3.0054
21
-3.33525
0
LINE
8
BLACK
6
CONTINUOUS
10
3.0054
20
-3.33525
11
2.99881
21
-3.33172
0
LINE
8
BLACK
6
CONTINUOUS
10
2.99881
20
-3.33172
11
2.99302
21
-3.32698
0
LINE
8
BLACK
6
CONTINUOUS
10
2.99302
20
-3.32698
11
2.98828
21
-3.32119
0
LINE
8
BLACK
6
CONTINUOUS
10
2.98828
20
-3.32119
11
2.98475
21
-3.3146
0
LINE
8
BLACK
6
CONTINUOUS
10
2.98475
20
-3.3146
11
2.98258
21
-3.30744
0
LINE
8
BLACK
6
CONTINUOUS
10
2.98258
20
-3.30744
11
2.98185
21
-3.3
0
LINE
8
BLACK
6
CONTINUOUS
10
2.98795
20
-3.3
11
2.98875
21
-3.30713
0
LINE
8
BLACK
6
CONTINUOUS
10
2.98875
20
-3.30713
11
2.99112
21
-3.31391
0
LINE
8
BLACK
6
CONTINUOUS
10
2.99112
20
-3.31391
11
2.99494
21
-3.31998
0
LINE
8
BLACK
6
CONTINUOUS
10
2.99494
20
-3.31998
11
3.00002
21
-3.32506
0
LINE
8
BLACK
6
CONTINUOUS
10
3.00002
20
-3.32506
11
3.00609
21
-3.32888
0
LINE
8
BLACK
6
CONTINUOUS
10
3.00609
20
-3.32888
11
3.01287
21
-3.33125
0
LINE
8
BLACK
6
CONTINUOUS
10
3.01287
20
-3.33125
11
3.02
21
-3.33205
0
LINE
8
BLACK
6
CONTINUOUS
10
3.02
20
-3.33205
11
3.02713
21
-3.33125
0
LINE
8
BLACK
6
CONTINUOUS
10
3.02713
20
-3.33125
11
3.03391
21
-3.32888
0
LINE
8
BLACK
6
CONTINUOUS
10
3.03391
20
-3.32888
11
3.03998
21
-3.32506
0
LINE
8
BLACK
6
CONTINUOUS
10
3.03998
20
-3.32506
11
3.04506
21
-3.31998
0
LINE
8
BLACK
6
CONTINUOUS
10
3.04506
20
-3.31998
11
3.04888
21
-3.31391
0
LINE
8
BLACK
6
CONTINUOUS
10
3.04888
20
-3.31391
11
3.05125
21
-3.30713
0
LINE
8
BLACK
6
CONTINUOUS
10
3.05125
20
-3.30713
11
3.05205
21
-3.3
0
LINE
8
BLACK
6
CONTINUOUS
10
3.05205
20
-3.3
11
3.05125
21
-3.29287
0
LINE
8
BLACK
6
CONTINUOUS
10
3.05125
20
-3.29287
11
3.04888
21
-3.28609
0
LINE
8
BLACK
6
CONTINUOUS
10
3.04888
20
-3.28609
11
3.04506
21
-3.28002
0
LINE
8
BLACK
6
CONTINUOUS
10
3.04506
20
-3.28002
11
3.03998
21
-3.27494
0
LINE
8
BLACK
6
CONTINUOUS
10
3.03998
20
-3.27494
11
3.03391
21
-3.27112
0
LINE
8
BLACK
6
CONTINUOUS
10
3.03391
20
-3.27112
11
3.02713
21
-3.26875
0
LINE
8
BLACK
6
CONTINUOUS
10
3.02713
20
-3.26875
11
3.02
21
-3.26795
0
LINE
8
BLACK
6
CONTINUOUS
10
3.02
20
-3.26795
11
3.01287
21
-3.26875
0
LINE
8
BLACK
6
CONTINUOUS
10
3.01287
20
-3.26875
11
3.00609
21
-3.27112
0
LINE
8
BLACK
6
CONTINUOUS
10
3.00609
20
-3.27112
11
3.00002
21
-3.27494
0
LINE
8
BLACK
6
CONTINUOUS
10
3.00002
20
-3.27494
11
2.99494
21
-3.28002
0
LINE
8
BLACK
6
CONTINUOUS
10
2.99494
20
-3.28002
11
2.99112
21
-3.28609
0
LINE
8
BLACK
6
CONTINUOUS
10
2.99112
20
-3.28609
11
2.98875
21
-3.29287
0
LINE
8
BLACK
6
CONTINUOUS
10
2.98875
20
-3.29287
11
2.98795
21
-3.3
0
LINE
8
BLACK
6
CONTINUOUS
10
3.08041
20
-3.23692
11
3.08055
21
-3.2369
0
LINE
8
BLACK
6
CONTINUOUS
10
3.08055
20
-3.2369
11
3.08067
21
-3.23697
0
LINE
8
BLACK
6
CONTINUOUS
10
3.08067
20
-3.23697
11
3.08108
21
-3.23704
0
LINE
8
BLACK
6
CONTINUOUS
10
3.08108
20
-3.23704
11
3.0817
21
-3.23757
0
LINE
8
BLACK
6
CONTINUOUS
10
3.0817
20
-3.23757
11
3.08241
21
-3.23798
0
LINE
8
BLACK
6
CONTINUOUS
10
3.08241
20
-3.23798
11
3.08251
21
-3.23824
0
LINE
8
BLACK
6
CONTINUOUS
10
3.08251
20
-3.23824
11
3.08273
21
-3.23843
0
LINE
8
BLACK
6
CONTINUOUS
10
3.08273
20
-3.23843
11
3.08287
21
-3.23923
0
LINE
8
BLACK
6
CONTINUOUS
10
3.08287
20
-3.23923
11
3.08315
21
-3.24
0
LINE
8
BLACK
6
CONTINUOUS
10
3.08315
20
-3.24
11
3.08315
21
-3.36
0
LINE
8
BLACK
6
CONTINUOUS
10
3.08315
20
-3.36
11
3.08308
21
-3.36041
0
LINE
8
BLACK
6
CONTINUOUS
10
3.08308
20
-3.36041
11
3.0831
21
-3.36055
0
LINE
8
BLACK
6
CONTINUOUS
10
3.0831
20
-3.36055
11
3.08303
21
-3.36067
0
LINE
8
BLACK
6
CONTINUOUS
10
3.08303
20
-3.36067
11
3.08296
21
-3.36108
0
LINE
8
BLACK
6
CONTINUOUS
10
3.08296
20
-3.36108
11
3.08243
21
-3.3617
0
LINE
8
BLACK
6
CONTINUOUS
10
3.08243
20
-3.3617
11
3.08202
21
-3.36241
0
LINE
8
BLACK
6
CONTINUOUS
10
3.08202
20
-3.36241
11
3.08176
21
-3.36251
0
LINE
8
BLACK
6
CONTINUOUS
10
3.08176
20
-3.36251
11
3.08157
21
-3.36273
0
LINE
8
BLACK
6
CONTINUOUS
10
3.08157
20
-3.36273
11
3.08077
21
-3.36287
0
LINE
8
BLACK
6
CONTINUOUS
10
3.08077
20
-3.36287
11
3.08
21
-3.36315
0
LINE
8
BLACK
6
CONTINUOUS
10
3.08
20
-3.36315
11
2.96
21
-3.36315
0
LINE
8
BLACK
6
CONTINUOUS
10
2.96
20
-3.36315
11
2.95959
21
-3.36308
0
LINE
8
BLACK
6
CONTINUOUS
10
2.95959
20
-3.36308
11
2.95945
21
-3.3631
0
LINE
8
BLACK
6
CONTINUOUS
10
2.95945
20
-3.3631
11
2.95933
21
-3.36303
0
LINE
8
BLACK
6
CONTINUOUS
10
2.95933
20
-3.36303
11
2.95892
21
-3.36296
0
LINE
8
BLACK
6
CONTINUOUS
10
2.95892
20
-3.36296
11
2.9583
21
-3.36243
0
LINE
8
BLACK
6
CONTINUOUS
10
2.9583
20
-3.36243
11
2.95759
21
-3.36202
0
LINE
8
BLACK
6
CONTINUOUS
10
2.95759
20
-3.36202
11
2.95749
21
-3.36176
0
LINE
8
BLACK
6
CONTINUOUS
10
2.95749
20
-3.36176
11
2.95727
21
-3.36157
0
LINE
8
BLACK
6
CONTINUOUS
10
2.95727
20
-3.36157
11
2.95713
21
-3.36077
0
LINE
8
BLACK
6
CONTINUOUS
10
2.95713
20
-3.36077
11
2.95685
21
-3.36
0
LINE
8
BLACK
6
CONTINUOUS
10
2.95685
20
-3.36
11
2.95685
21
-3.24
0
LINE
8
BLACK
6
CONTINUOUS
10
2.95685
20
-3.24
11
2.95692
21
-3.23959
0
LINE
8
BLACK
6
CONTINUOUS
10
2.95692
20
-3.23959
11
2.9569
21
-3.23945
0
LINE
8
BLACK
6
CONTINUOUS
10
2.9569
20
-3.23945
11
2.95697
21
-3.23933
0
LINE
8
BLACK
6
CONTINUOUS
10
2.95697
20
-3.23933
11
2.95704
21
-3.23892
0
LINE
8
BLACK
6
CONTINUOUS
10
2.95704
20
-3.23892
11
2.95757
21
-3.2383
0
LINE
8
BLACK
6
CONTINUOUS
10
2.95757
20
-3.2383
11
2.95798
21
-3.23759
0
LINE
8
BLACK
6
CONTINUOUS
10
2.95798
20
-3.23759
11
2.95824
21
-3.23749
0
LINE
8
BLACK
6
CONTINUOUS
10
2.95824
20
-3.23749
11
2.95843
21
-3.23727
0
LINE
8
BLACK
6
CONTINUOUS
10
2.95843
20
-3.23727
11
2.95923
21
-3.23713
0
LINE
8
BLACK
6
CONTINUOUS
10
2.95923
20
-3.23713
11
2.96
21
-3.23685
0
LINE
8
BLACK
6
CONTINUOUS
10
2.96
20
-3.23685
11
3.08
21
-3.23685
0
LINE
8
BLACK
6
CONTINUOUS
10
3.08
20
-3.23685
11
3.08041
21
-3.23692
0
LINE
8
BLACK
6
CONTINUOUS
10
2.96315
20
-3.24315
11
2.96315
21
-3.35685
0
LINE
8
BLACK
6
CONTINUOUS
10
2.96315
20
-3.35685
11
3.07685
21
-3.35685
0
LINE
8
BLACK
6
CONTINUOUS
10
3.07685
20
-3.35685
11
3.07685
21
-3.24315
0
LINE
8
BLACK
6
CONTINUOUS
10
3.07685
20
-3.24315
11
2.96315
21
-3.24315
0
LINE
8
BLACK
6
CONTINUOUS
10
2.97685
20
-3.09
11
2.97764
21
-3.08401
0
LINE
8
BLACK
6
CONTINUOUS
10
2.97764
20
-3.08401
11
2.97995
21
-3.07843
0
LINE
8
BLACK
6
CONTINUOUS
10
2.97995
20
-3.07843
11
2.98363
21
-3.07363
0
LINE
8
BLACK
6
CONTINUOUS
10
2.98363
20
-3.07363
11
2.98843
21
-3.06995
0
LINE
8
BLACK
6
CONTINUOUS
10
2.98843
20
-3.06995
11
2.99401
21
-3.06764
0
LINE
8
BLACK
6
CONTINUOUS
10
2.99401
20
-3.06764
11
3
21
-3.06685
0
LINE
8
BLACK
6
CONTINUOUS
10
3
20
-3.06685
11
3.00599
21
-3.06764
0
LINE
8
BLACK
6
CONTINUOUS
10
3.00599
20
-3.06764
11
3.01157
21
-3.06995
0
LINE
8
BLACK
6
CONTINUOUS
10
3.01157
20
-3.06995
11
3.01637
21
-3.07363
0
LINE
8
BLACK
6
CONTINUOUS
10
3.01637
20
-3.07363
11
3.02005
21
-3.07843
0
LINE
8
BLACK
6
CONTINUOUS
10
3.02005
20
-3.07843
11
3.02236
21
-3.08401
0
LINE
8
BLACK
6
CONTINUOUS
10
3.02236
20
-3.08401
11
3.02315
21
-3.09
0
LINE
8
BLACK
6
CONTINUOUS
10
3.02315
20
-3.09
11
3.02236
21
-3.09599
0
LINE
8
BLACK
6
CONTINUOUS
10
3.02236
20
-3.09599
11
3.02005
21
-3.10157
0
LINE
8
BLACK
6
CONTINUOUS
10
3.02005
20
-3.10157
11
3.01637
21
-3.10637
0
LINE
8
BLACK
6
CONTINUOUS
10
3.01637
20
-3.10637
11
3.01157
21
-3.11005
0
LINE
8
BLACK
6
CONTINUOUS
10
3.01157
20
-3.11005
11
3.00599
21
-3.11236
0
LINE
8
BLACK
6
CONTINUOUS
10
3.00599
20
-3.11236
11
3
21
-3.11315
0
LINE
8
BLACK
6
CONTINUOUS
10
3
20
-3.11315
11
2.99401
21
-3.11236
0
LINE
8
BLACK
6
CONTINUOUS
10
2.99401
20
-3.11236
11
2.98843
21
-3.11005
0
LINE
8
BLACK
6
CONTINUOUS
10
2.98843
20
-3.11005
11
2.98363
21
-3.10637
0
LINE
8
BLACK
6
CONTINUOUS
10
2.98363
20
-3.10637
11
2.97995
21
-3.10157
0
LINE
8
BLACK
6
CONTINUOUS
10
2.97995
20
-3.10157
11
2.97764
21
-3.09599
0
LINE
8
BLACK
6
CONTINUOUS
10
2.97764
20
-3.09599
11
2.97685
21
-3.09
0
LINE
8
BLACK
6
CONTINUOUS
10
2.98298
20
-3.09
11
2.98367
21
-3.0948
0
LINE
8
BLACK
6
CONTINUOUS
10
2.98367
20
-3.0948
11
2.98568
21
-3.0992
0
LINE
8
BLACK
6
CONTINUOUS
10
2.98568
20
-3.0992
11
2.98885
21
-3.10287
0
LINE
8
BLACK
6
CONTINUOUS
10
2.98885
20
-3.10287
11
2.99293
21
-3.10549
0
LINE
8
BLACK
6
CONTINUOUS
10
2.99293
20
-3.10549
11
2.99758
21
-3.10685
0
LINE
8
BLACK
6
CONTINUOUS
10
2.99758
20
-3.10685
11
3.00242
21
-3.10685
0
LINE
8
BLACK
6
CONTINUOUS
10
3.00242
20
-3.10685
11
3.00707
21
-3.10549
0
LINE
8
BLACK
6
CONTINUOUS
10
3.00707
20
-3.10549
11
3.01115
21
-3.10287
0
LINE
8
BLACK
6
CONTINUOUS
10
3.01115
20
-3.10287
11
3.01432
21
-3.0992
0
LINE
8
BLACK
6
CONTINUOUS
10
3.01432
20
-3.0992
11
3.01633
21
-3.0948
0
LINE
8
BLACK
6
CONTINUOUS
10
3.01633
20
-3.0948
11
3.01702
21
-3.09
0
LINE
8
BLACK
6
CONTINUOUS
10
3.01702
20
-3.09
11
3.01633
21
-3.0852
0
LINE
8
BLACK
6
CONTINUOUS
10
3.01633
20
-3.0852
11
3.01432
21
-3.0808
0
LINE
8
BLACK
6
CONTINUOUS
10
3.01432
20
-3.0808
11
3.01115
21
-3.07713
0
LINE
8
BLACK
6
CONTINUOUS
10
3.01115
20
-3.07713
11
3.00707
21
-3.07451
0
LINE
8
BLACK
6
CONTINUOUS
10
3.00707
20
-3.07451
11
3.00242
21
-3.07315
0
LINE
8
BLACK
6
CONTINUOUS
10
3.00242
20
-3.07315
11
2.99758
21
-3.07315
0
LINE
8
BLACK
6
CONTINUOUS
10
2.99758
20
-3.07315
11
2.99293
21
-3.07451
0
LINE
8
BLACK
6
CONTINUOUS
10
2.99293
20
-3.07451
11
2.98885
21
-3.07713
0
LINE
8
BLACK
6
CONTINUOUS
10
2.98885
20
-3.07713
11
2.98568
21
-3.0808
0
LINE
8
BLACK
6
CONTINUOUS
10
2.98568
20
-3.0808
11
2.98367
21
-3.0852
0
LINE
8
BLACK
6
CONTINUOUS
10
2.98367
20
-3.0852
11
2.98298
21
-3.09
0
LINE
8
BLACK
6
CONTINUOUS
10
3.00519
20
-2.76919
11
3.00527
21
-2.76917
0
LINE
8
BLACK
6
CONTINUOUS
10
3.00527
20
-2.76917
11
3.0054
21
-2.76923
0
LINE
8
BLACK
6
CONTINUOUS
10
3.0054
20
-2.76923
11
3.00608
21
-2.76934
0
LINE
8
BLACK
6
CONTINUOUS
10
3.00608
20
-2.76934
11
3.0066
21
-2.76979
0
LINE
8
BLACK
6
CONTINUOUS
10
3.0066
20
-2.76979
11
3.00723
21
-2.77008
0
LINE
8
BLACK
6
CONTINUOUS
10
3.00723
20
-2.77008
11
3.19107
21
-2.95393
0
LINE
8
BLACK
6
CONTINUOUS
10
3.19107
20
-2.95393
11
3.19119
21
-2.95409
0
LINE
8
BLACK
6
CONTINUOUS
10
3.19119
20
-2.95409
11
3.19126
21
-2.95413
0
LINE
8
BLACK
6
CONTINUOUS
10
3.19126
20
-2.95413
11
3.19131
21
-2.95426
0
LINE
8
BLACK
6
CONTINUOUS
10
3.19131
20
-2.95426
11
3.1917
21
-2.95482
0
LINE
8
BLACK
6
CONTINUOUS
10
3.1917
20
-2.95482
11
3.19176
21
-2.95551
0
LINE
8
BLACK
6
CONTINUOUS
10
3.19176
20
-2.95551
11
3.192
21
-2.95615
0
LINE
8
BLACK
6
CONTINUOUS
10
3.192
20
-2.95615
11
3.192
21
-2.96615
0
LINE
8
BLACK
6
CONTINUOUS
10
3.192
20
-2.96615
11
3.19196
21
-2.96634
0
LINE
8
BLACK
6
CONTINUOUS
10
3.19196
20
-2.96634
11
3.19199
21
-2.96643
0
LINE
8
BLACK
6
CONTINUOUS
10
3.19199
20
-2.96643
11
3.19193
21
-2.96655
0
LINE
8
BLACK
6
CONTINUOUS
10
3.19193
20
-2.96655
11
3.19181
21
-2.96723
0
LINE
8
BLACK
6
CONTINUOUS
10
3.19181
20
-2.96723
11
3.19137
21
-2.96776
0
LINE
8
BLACK
6
CONTINUOUS
10
3.19137
20
-2.96776
11
3.19107
21
-2.96838
0
LINE
8
BLACK
6
CONTINUOUS
10
3.19107
20
-2.96838
11
3.00723
21
-3.15223
0
LINE
8
BLACK
6
CONTINUOUS
10
3.00723
20
-3.15223
11
3.00707
21
-3.15234
0
LINE
8
BLACK
6
CONTINUOUS
10
3.00707
20
-3.15234
11
3.00702
21
-3.15241
0
LINE
8
BLACK
6
CONTINUOUS
10
3.00702
20
-3.15241
11
3.00689
21
-3.15246
0
LINE
8
BLACK
6
CONTINUOUS
10
3.00689
20
-3.15246
11
3.00633
21
-3.15285
0
LINE
8
BLACK
6
CONTINUOUS
10
3.00633
20
-3.15285
11
3.00565
21
-3.15291
0
LINE
8
BLACK
6
CONTINUOUS
10
3.00565
20
-3.15291
11
3.005
21
-3.15315
0
LINE
8
BLACK
6
CONTINUOUS
10
3.005
20
-3.15315
11
2.995
21
-3.15315
0
LINE
8
BLACK
6
CONTINUOUS
10
2.995
20
-3.15315
11
2.99481
21
-3.15312
0
LINE
8
BLACK
6
CONTINUOUS
10
2.99481
20
-3.15312
11
2.99473
21
-3.15314
0
LINE
8
BLACK
6
CONTINUOUS
10
2.99473
20
-3.15314
11
2.9946
21
-3.15308
0
LINE
8
BLACK
6
CONTINUOUS
10
2.9946
20
-3.15308
11
2.99392
21
-3.15296
0
LINE
8
BLACK
6
CONTINUOUS
10
2.99392
20
-3.15296
11
2.9934
21
-3.15252
0
LINE
8
BLACK
6
CONTINUOUS
10
2.9934
20
-3.15252
11
2.99277
21
-3.15223
0
LINE
8
BLACK
6
CONTINUOUS
10
2.99277
20
-3.15223
11
2.80893
21
-2.96838
0
LINE
8
BLACK
6
CONTINUOUS
10
2.80893
20
-2.96838
11
2.80881
21
-2.96822
0
LINE
8
BLACK
6
CONTINUOUS
10
2.80881
20
-2.96822
11
2.80874
21
-2.96818
0
LINE
8
BLACK
6
CONTINUOUS
10
2.80874
20
-2.96818
11
2.80869
21
-2.96805
0
LINE
8
BLACK
6
CONTINUOUS
10
2.80869
20
-2.96805
11
2.8083
21
-2.96748
0
LINE
8
BLACK
6
CONTINUOUS
10
2.8083
20
-2.96748
11
2.80824
21
-2.9668
0
LINE
8
BLACK
6
CONTINUOUS
10
2.80824
20
-2.9668
11
2.808
21
-2.96615
0
LINE
8
BLACK
6
CONTINUOUS
10
2.808
20
-2.96615
11
2.808
21
-2.95615
0
LINE
8
BLACK
6
CONTINUOUS
10
2.808
20
-2.95615
11
2.80804
21
-2.95596
0
LINE
8
BLACK
6
CONTINUOUS
10
2.80804
20
-2.95596
11
2.80801
21
-2.95588
0
LINE
8
BLACK
6
CONTINUOUS
10
2.80801
20
-2.95588
11
2.80807
21
-2.95575
0
LINE
8
BLACK
6
CONTINUOUS
10
2.80807
20
-2.95575
11
2.80819
21
-2.95507
0
LINE
8
BLACK
6
CONTINUOUS
10
2.80819
20
-2.95507
11
2.80863
21
-2.95455
0
LINE
8
BLACK
6
CONTINUOUS
10
2.80863
20
-2.95455
11
2.80893
21
-2.95393
0
LINE
8
BLACK
6
CONTINUOUS
10
2.80893
20
-2.95393
11
2.99277
21
-2.77008
0
LINE
8
BLACK
6
CONTINUOUS
10
2.99277
20
-2.77008
11
2.99293
21
-2.76997
0
LINE
8
BLACK
6
CONTINUOUS
10
2.99293
20
-2.76997
11
2.99298
21
-2.76989
0
LINE
8
BLACK
6
CONTINUOUS
10
2.99298
20
-2.76989
11
2.99311
21
-2.76984
0
LINE
8
BLACK
6
CONTINUOUS
10
2.99311
20
-2.76984
11
2.99367
21
-2.76945
0
LINE
8
BLACK
6
CONTINUOUS
10
2.99367
20
-2.76945
11
2.99435
21
-2.76939
0
LINE
8
BLACK
6
CONTINUOUS
10
2.99435
20
-2.76939
11
2.995
21
-2.76915
0
LINE
8
BLACK
6
CONTINUOUS
10
2.995
20
-2.76915
11
3.005
21
-2.76915
0
LINE
8
BLACK
6
CONTINUOUS
10
3.005
20
-2.76915
11
3.00519
21
-2.76919
0
LINE
8
BLACK
6
CONTINUOUS
10
2.9963
20
-2.77545
11
2.8143
21
-2.95746
0
LINE
8
BLACK
6
CONTINUOUS
10
2.8143
20
-2.95746
11
2.8143
21
-2.96485
0
LINE
8
BLACK
6
CONTINUOUS
10
2.8143
20
-2.96485
11
2.9963
21
-3.14685
0
LINE
8
BLACK
6
CONTINUOUS
10
2.9963
20
-3.14685
11
3.0037
21
-3.14685
0
LINE
8
BLACK
6
CONTINUOUS
10
3.0037
20
-3.14685
11
3.1857
21
-2.96485
0
LINE
8
BLACK
6
CONTINUOUS
10
3.1857
20
-2.96485
11
3.1857
21
-2.95746
0
LINE
8
BLACK
6
CONTINUOUS
10
3.1857
20
-2.95746
11
3.0037
21
-2.77545
0
LINE
8
BLACK
6
CONTINUOUS
10
3.0037
20
-2.77545
11
2.9963
21
-2.77545
0
LINE
8
BLACK
6
CONTINUOUS
10
3.25685
20
-2.4
11
3.25759
21
-2.39207
0
LINE
8
BLACK
6
CONTINUOUS
10
3.25759
20
-2.39207
11
3.25976
21
-2.38441
0
LINE
8
BLACK
6
CONTINUOUS
10
3.25976
20
-2.38441
11
3.26331
21
-2.37728
0
LINE
8
BLACK
6
CONTINUOUS
10
3.26331
20
-2.37728
11
3.26811
21
-2.37093
0
LINE
8
BLACK
6
CONTINUOUS
10
3.26811
20
-2.37093
11
3.274
21
-2.36557
0
LINE
8
BLACK
6
CONTINUOUS
10
3.274
20
-2.36557
11
3.28077
21
-2.36137
0
LINE
8
BLACK
6
CONTINUOUS
10
3.28077
20
-2.36137
11
3.28819
21
-2.3585
0
LINE
8
BLACK
6
CONTINUOUS
10
3.28819
20
-2.3585
11
3.29602
21
-2.35703
0
LINE
8
BLACK
6
CONTINUOUS
10
3.29602
20
-2.35703
11
3.30398
21
-2.35703
0
LINE
8
BLACK
6
CONTINUOUS
10
3.30398
20
-2.35703
11
3.31181
21
-2.3585
0
LINE
8
BLACK
6
CONTINUOUS
10
3.31181
20
-2.3585
11
3.31923
21
-2.36137
0
LINE
8
BLACK
6
CONTINUOUS
10
3.31923
20
-2.36137
11
3.326
21
-2.36557
0
LINE
8
BLACK
6
CONTINUOUS
10
3.326
20
-2.36557
11
3.33189
21
-2.37093
0
LINE
8
BLACK
6
CONTINUOUS
10
3.33189
20
-2.37093
11
3.33669
21
-2.37728
0
LINE
8
BLACK
6
CONTINUOUS
10
3.33669
20
-2.37728
11
3.34024
21
-2.38441
0
LINE
8
BLACK
6
CONTINUOUS
10
3.34024
20
-2.38441
11
3.34241
21
-2.39207
0
LINE
8
BLACK
6
CONTINUOUS
10
3.34241
20
-2.39207
11
3.34315
21
-2.4
0
LINE
8
BLACK
6
CONTINUOUS
10
3.34315
20
-2.4
11
3.34241
21
-2.40793
0
LINE
8
BLACK
6
CONTINUOUS
10
3.34241
20
-2.40793
11
3.34024
21
-2.41559
0
LINE
8
BLACK
6
CONTINUOUS
10
3.34024
20
-2.41559
11
3.33669
21
-2.42272
0
LINE
8
BLACK
6
CONTINUOUS
10
3.33669
20
-2.42272
11
3.33189
21
-2.42907
0
LINE
8
BLACK
6
CONTINUOUS
10
3.33189
20
-2.42907
11
3.326
21
-2.43443
0
LINE
8
BLACK
6
CONTINUOUS
10
3.326
20
-2.43443
11
3.31923
21
-2.43863
0
LINE
8
BLACK
6
CONTINUOUS
10
3.31923
20
-2.43863
11
3.31181
21
-2.4415
0
LINE
8
BLACK
6
CONTINUOUS
10
3.31181
20
-2.4415
11
3.30398
21
-2.44297
0
LINE
8
BLACK
6
CONTINUOUS
10
3.30398
20
-2.44297
11
3.29602
21
-2.44297
0
LINE
8
BLACK
6
CONTINUOUS
10
3.29602
20
-2.44297
11
3.28819
21
-2.4415
0
LINE
8
BLACK
6
CONTINUOUS
10
3.28819
20
-2.4415
11
3.28077
21
-2.43863
0
LINE
8
BLACK
6
CONTINUOUS
10
3.28077
20
-2.43863
11
3.274
21
-2.43443
0
LINE
8
BLACK
6
CONTINUOUS
10
3.274
20
-2.43443
11
3.26811
21
-2.42907
0
LINE
8
BLACK
6
CONTINUOUS
10
3.26811
20
-2.42907
11
3.26331
21
-2.42272
0
LINE
8
BLACK
6
CONTINUOUS
10
3.26331
20
-2.42272
11
3.25976
21
-2.41559
0
LINE
8
BLACK
6
CONTINUOUS
10
3.25976
20
-2.41559
11
3.25759
21
-2.40793
0
LINE
8
BLACK
6
CONTINUOUS
10
3.25759
20
-2.40793
11
3.25685
21
-2.4
0
LINE
8
BLACK
6
CONTINUOUS
10
3.26295
20
-2.4
11
3.26376
21
-2.4077
0
LINE
8
BLACK
6
CONTINUOUS
10
3.26376
20
-2.4077
11
3.26615
21
-2.41507
0
LINE
8
BLACK
6
CONTINUOUS
10
3.26615
20
-2.41507
11
3.27002
21
-2.42178
0
LINE
8
BLACK
6
CONTINUOUS
10
3.27002
20
-2.42178
11
3.27521
21
-2.42754
0
LINE
8
BLACK
6
CONTINUOUS
10
3.27521
20
-2.42754
11
3.28147
21
-2.43209
0
LINE
8
BLACK
6
CONTINUOUS
10
3.28147
20
-2.43209
11
3.28855
21
-2.43524
0
LINE
8
BLACK
6
CONTINUOUS
10
3.28855
20
-2.43524
11
3.29613
21
-2.43685
0
LINE
8
BLACK
6
CONTINUOUS
10
3.29613
20
-2.43685
11
3.30387
21
-2.43685
0
LINE
8
BLACK
6
CONTINUOUS
10
3.30387
20
-2.43685
11
3.31145
21
-2.43524
0
LINE
8
BLACK
6
CONTINUOUS
10
3.31145
20
-2.43524
11
3.31853
21
-2.43209
0
LINE
8
BLACK
6
CONTINUOUS
10
3.31853
20
-2.43209
11
3.32479
21
-2.42754
0
LINE
8
BLACK
6
CONTINUOUS
10
3.32479
20
-2.42754
11
3.32998
21
-2.42178
0
LINE
8
BLACK
6
CONTINUOUS
10
3.32998
20
-2.42178
11
3.33385
21
-2.41507
0
LINE
8
BLACK
6
CONTINUOUS
10
3.33385
20
-2.41507
11
3.33624
21
-2.4077
0
LINE
8
BLACK
6
CONTINUOUS
10
3.33624
20
-2.4077
11
3.33705
21
-2.4
0
LINE
8
BLACK
6
CONTINUOUS
10
3.33705
20
-2.4
11
3.33624
21
-2.3923
0
LINE
8
BLACK
6
CONTINUOUS
10
3.33624
20
-2.3923
11
3.33385
21
-2.38493
0
LINE
8
BLACK
6
CONTINUOUS
10
3.33385
20
-2.38493
11
3.32998
21
-2.37822
0
LINE
8
BLACK
6
CONTINUOUS
10
3.32998
20
-2.37822
11
3.32479
21
-2.37246
0
LINE
8
BLACK
6
CONTINUOUS
10
3.32479
20
-2.37246
11
3.31853
21
-2.36791
0
LINE
8
BLACK
6
CONTINUOUS
10
3.31853
20
-2.36791
11
3.31145
21
-2.36476
0
LINE
8
BLACK
6
CONTINUOUS
10
3.31145
20
-2.36476
11
3.30387
21
-2.36315
0
LINE
8
BLACK
6
CONTINUOUS
10
3.30387
20
-2.36315
11
3.29613
21
-2.36315
0
LINE
8
BLACK
6
CONTINUOUS
10
3.29613
20
-2.36315
11
3.28855
21
-2.36476
0
LINE
8
BLACK
6
CONTINUOUS
10
3.28855
20
-2.36476
11
3.28147
21
-2.36791
0
LINE
8
BLACK
6
CONTINUOUS
10
3.28147
20
-2.36791
11
3.27521
21
-2.37246
0
LINE
8
BLACK
6
CONTINUOUS
10
3.27521
20
-2.37246
11
3.27002
21
-2.37822
0
LINE
8
BLACK
6
CONTINUOUS
10
3.27002
20
-2.37822
11
3.26615
21
-2.38493
0
LINE
8
BLACK
6
CONTINUOUS
10
3.26615
20
-2.38493
11
3.26376
21
-2.3923
0
LINE
8
BLACK
6
CONTINUOUS
10
3.26376
20
-2.3923
11
3.26295
21
-2.4
0
LINE
8
BLACK
6
CONTINUOUS
10
2.65685
20
-2.4
11
2.65759
21
-2.39207
0
LINE
8
BLACK
6
CONTINUOUS
10
2.65759
20
-2.39207
11
2.65976
21
-2.38441
0
LINE
8
BLACK
6
CONTINUOUS
10
2.65976
20
-2.38441
11
2.66331
21
-2.37728
0
LINE
8
BLACK
6
CONTINUOUS
10
2.66331
20
-2.37728
11
2.66811
21
-2.37093
0
LINE
8
BLACK
6
CONTINUOUS
10
2.66811
20
-2.37093
11
2.674
21
-2.36557
0
LINE
8
BLACK
6
CONTINUOUS
10
2.674
20
-2.36557
11
2.68077
21
-2.36137
0
LINE
8
BLACK
6
CONTINUOUS
10
2.68077
20
-2.36137
11
2.68819
21
-2.3585
0
LINE
8
BLACK
6
CONTINUOUS
10
2.68819
20
-2.3585
11
2.69602
21
-2.35703
0
LINE
8
BLACK
6
CONTINUOUS
10
2.69602
20
-2.35703
11
2.70398
21
-2.35703
0
LINE
8
BLACK
6
CONTINUOUS
10
2.70398
20
-2.35703
11
2.71181
21
-2.3585
0
LINE
8
BLACK
6
CONTINUOUS
10
2.71181
20
-2.3585
11
2.71923
21
-2.36137
0
LINE
8
BLACK
6
CONTINUOUS
10
2.71923
20
-2.36137
11
2.726
21
-2.36557
0
LINE
8
BLACK
6
CONTINUOUS
10
2.726
20
-2.36557
11
2.73189
21
-2.37093
0
LINE
8
BLACK
6
CONTINUOUS
10
2.73189
20
-2.37093
11
2.73669
21
-2.37728
0
LINE
8
BLACK
6
CONTINUOUS
10
2.73669
20
-2.37728
11
2.74024
21
-2.38441
0
LINE
8
BLACK
6
CONTINUOUS
10
2.74024
20
-2.38441
11
2.74241
21
-2.39207
0
LINE
8
BLACK
6
CONTINUOUS
10
2.74241
20
-2.39207
11
2.74315
21
-2.4
0
LINE
8
BLACK
6
CONTINUOUS
10
2.74315
20
-2.4
11
2.74241
21
-2.40793
0
LINE
8
BLACK
6
CONTINUOUS
10
2.74241
20
-2.40793
11
2.74024
21
-2.41559
0
LINE
8
BLACK
6
CONTINUOUS
10
2.74024
20
-2.41559
11
2.73669
21
-2.42272
0
LINE
8
BLACK
6
CONTINUOUS
10
2.73669
20
-2.42272
11
2.73189
21
-2.42907
0
LINE
8
BLACK
6
CONTINUOUS
10
2.73189
20
-2.42907
11
2.726
21
-2.43443
0
LINE
8
BLACK
6
CONTINUOUS
10
2.726
20
-2.43443
11
2.71923
21
-2.43863
0
LINE
8
BLACK
6
CONTINUOUS
10
2.71923
20
-2.43863
11
2.71181
21
-2.4415
0
LINE
8
BLACK
6
CONTINUOUS
10
2.71181
20
-2.4415
11
2.70398
21
-2.44297
0
LINE
8
BLACK
6
CONTINUOUS
10
2.70398
20
-2.44297
11
2.69602
21
-2.44297
0
LINE
8
BLACK
6
CONTINUOUS
10
2.69602
20
-2.44297
11
2.68819
21
-2.4415
0
LINE
8
BLACK
6
CONTINUOUS
10
2.68819
20
-2.4415
11
2.68077
21
-2.43863
0
LINE
8
BLACK
6
CONTINUOUS
10
2.68077
20
-2.43863
11
2.674
21
-2.43443
0
LINE
8
BLACK
6
CONTINUOUS
10
2.674
20
-2.43443
11
2.66811
21
-2.42907
0
LINE
8
BLACK
6
CONTINUOUS
10
2.66811
20
-2.42907
11
2.66331
21
-2.42272
0
LINE
8
BLACK
6
CONTINUOUS
10
2.66331
20
-2.42272
11
2.65976
21
-2.41559
0
LINE
8
BLACK
6
CONTINUOUS
10
2.65976
20
-2.41559
11
2.65759
21
-2.40793
0
LINE
8
BLACK
6
CONTINUOUS
10
2.65759
20
-2.40793
11
2.65685
21
-2.4
0
LINE
8
BLACK
6
CONTINUOUS
10
2.66295
20
-2.4
11
2.66376
21
-2.4077
0
LINE
8
BLACK
6
CONTINUOUS
10
2.66376
20
-2.4077
11
2.66615
21
-2.41507
0
LINE
8
BLACK
6
CONTINUOUS
10
2.66615
20
-2.41507
11
2.67002
21
-2.42178
0
LINE
8
BLACK
6
CONTINUOUS
10
2.67002
20
-2.42178
11
2.67521
21
-2.42754
0
LINE
8
BLACK
6
CONTINUOUS
10
2.67521
20
-2.42754
11
2.68147
21
-2.43209
0
LINE
8
BLACK
6
CONTINUOUS
10
2.68147
20
-2.43209
11
2.68855
21
-2.43524
0
LINE
8
BLACK
6
CONTINUOUS
10
2.68855
20
-2.43524
11
2.69613
21
-2.43685
0
LINE
8
BLACK
6
CONTINUOUS
10
2.69613
20
-2.43685
11
2.70387
21
-2.43685
0
LINE
8
BLACK
6
CONTINUOUS
10
2.70387
20
-2.43685
11
2.71145
21
-2.43524
0
LINE
8
BLACK
6
CONTINUOUS
10
2.71145
20
-2.43524
11
2.71853
21
-2.43209
0
LINE
8
BLACK
6
CONTINUOUS
10
2.71853
20
-2.43209
11
2.72479
21
-2.42754
0
LINE
8
BLACK
6
CONTINUOUS
10
2.72479
20
-2.42754
11
2.72998
21
-2.42178
0
LINE
8
BLACK
6
CONTINUOUS
10
2.72998
20
-2.42178
11
2.73385
21
-2.41507
0
LINE
8
BLACK
6
CONTINUOUS
10
2.73385
20
-2.41507
11
2.73624
21
-2.4077
0
LINE
8
BLACK
6
CONTINUOUS
10
2.73624
20
-2.4077
11
2.73705
21
-2.4
0
LINE
8
BLACK
6
CONTINUOUS
10
2.73705
20
-2.4
11
2.73624
21
-2.3923
0
LINE
8
BLACK
6
CONTINUOUS
10
2.73624
20
-2.3923
11
2.73385
21
-2.38493
0
LINE
8
BLACK
6
CONTINUOUS
10
2.73385
20
-2.38493
11
2.72998
21
-2.37822
0
LINE
8
BLACK
6
CONTINUOUS
10
2.72998
20
-2.37822
11
2.72479
21
-2.37246
0
LINE
8
BLACK
6
CONTINUOUS
10
2.72479
20
-2.37246
11
2.71853
21
-2.36791
0
LINE
8
BLACK
6
CONTINUOUS
10
2.71853
20
-2.36791
11
2.71145
21
-2.36476
0
LINE
8
BLACK
6
CONTINUOUS
10
2.71145
20
-2.36476
11
2.70387
21
-2.36315
0
LINE
8
BLACK
6
CONTINUOUS
10
2.70387
20
-2.36315
11
2.69613
21
-2.36315
0
LINE
8
BLACK
6
CONTINUOUS
10
2.69613
20
-2.36315
11
2.68855
21
-2.36476
0
LINE
8
BLACK
6
CONTINUOUS
10
2.68855
20
-2.36476
11
2.68147
21
-2.36791
0
LINE
8
BLACK
6
CONTINUOUS
10
2.68147
20
-2.36791
11
2.67521
21
-2.37246
0
LINE
8
BLACK
6
CONTINUOUS
10
2.67521
20
-2.37246
11
2.67002
21
-2.37822
0
LINE
8
BLACK
6
CONTINUOUS
10
2.67002
20
-2.37822
11
2.66615
21
-2.38493
0
LINE
8
BLACK
6
CONTINUOUS
10
2.66615
20
-2.38493
11
2.66376
21
-2.3923
0
LINE
8
BLACK
6
CONTINUOUS
10
2.66376
20
-2.3923
11
2.66295
21
-2.4
0
LINE
8
BLACK
6
CONTINUOUS
10
2.87
20
-2.27685
11
3.13
21
-2.27685
0
LINE
8
BLACK
6
CONTINUOUS
10
3.13
20
-2.27685
11
3.15
21
-2.27685
0
LINE
8
BLACK
6
CONTINUOUS
10
3.15
20
-2.27685
11
3.15041
21
-2.27692
0
LINE
8
BLACK
6
CONTINUOUS
10
3.15041
20
-2.27692
11
3.15055
21
-2.2769
0
LINE
8
BLACK
6
CONTINUOUS
10
3.15055
20
-2.2769
11
3.15067
21
-2.27697
0
LINE
8
BLACK
6
CONTINUOUS
10
3.15067
20
-2.27697
11
3.15108
21
-2.27704
0
LINE
8
BLACK
6
CONTINUOUS
10
3.15108
20
-2.27704
11
3.1517
21
-2.27757
0
LINE
8
BLACK
6
CONTINUOUS
10
3.1517
20
-2.27757
11
3.15241
21
-2.27798
0
LINE
8
BLACK
6
CONTINUOUS
10
3.15241
20
-2.27798
11
3.15251
21
-2.27824
0
LINE
8
BLACK
6
CONTINUOUS
10
3.15251
20
-2.27824
11
3.15273
21
-2.27843
0
LINE
8
BLACK
6
CONTINUOUS
10
3.15273
20
-2.27843
11
3.15287
21
-2.27923
0
LINE
8
BLACK
6
CONTINUOUS
10
3.15287
20
-2.27923
11
3.15315
21
-2.28
0
LINE
8
BLACK
6
CONTINUOUS
10
3.15315
20
-2.28
11
3.15315
21
-2.34685
0
LINE
8
BLACK
6
CONTINUOUS
10
3.15315
20
-2.34685
11
3.35
21
-2.34685
0
LINE
8
BLACK
6
CONTINUOUS
10
3.35
20
-2.34685
11
3.35041
21
-2.34692
0
LINE
8
BLACK
6
CONTINUOUS
10
3.35041
20
-2.34692
11
3.35055
21
-2.3469
0
LINE
8
BLACK
6
CONTINUOUS
10
3.35055
20
-2.3469
11
3.35067
21
-2.34697
0
LINE
8
BLACK
6
CONTINUOUS
10
3.35067
20
-2.34697
11
3.35108
21
-2.34704
0
LINE
8
BLACK
6
CONTINUOUS
10
3.35108
20
-2.34704
11
3.3517
21
-2.34757
0
LINE
8
BLACK
6
CONTINUOUS
10
3.3517
20
-2.34757
11
3.35241
21
-2.34798
0
LINE
8
BLACK
6
CONTINUOUS
10
3.35241
20
-2.34798
11
3.35251
21
-2.34824
0
LINE
8
BLACK
6
CONTINUOUS
10
3.35251
20
-2.34824
11
3.35273
21
-2.34843
0
LINE
8
BLACK
6
CONTINUOUS
10
3.35273
20
-2.34843
11
3.35287
21
-2.34923
0
LINE
8
BLACK
6
CONTINUOUS
10
3.35287
20
-2.34923
11
3.35315
21
-2.35
0
LINE
8
BLACK
6
CONTINUOUS
10
3.35315
20
-2.35
11
3.35315
21
-4.05
0
LINE
8
BLACK
6
CONTINUOUS
10
3.35315
20
-4.05
11
3.35308
21
-4.05041
0
LINE
8
BLACK
6
CONTINUOUS
10
3.35308
20
-4.05041
11
3.3531
21
-4.05055
0
LINE
8
BLACK
6
CONTINUOUS
10
3.3531
20
-4.05055
11
3.35303
21
-4.05067
0
LINE
8
BLACK
6
CONTINUOUS
10
3.35303
20
-4.05067
11
3.35296
21
-4.05108
0
LINE
8
BLACK
6
CONTINUOUS
10
3.35296
20
-4.05108
11
3.35243
21
-4.0517
0
LINE
8
BLACK
6
CONTINUOUS
10
3.35243
20
-4.0517
11
3.35202
21
-4.05241
0
LINE
8
BLACK
6
CONTINUOUS
10
3.35202
20
-4.05241
11
3.35176
21
-4.05251
0
LINE
8
BLACK
6
CONTINUOUS
10
3.35176
20
-4.05251
11
3.35157
21
-4.05273
0
LINE
8
BLACK
6
CONTINUOUS
10
3.35157
20
-4.05273
11
3.35077
21
-4.05287
0
LINE
8
BLACK
6
CONTINUOUS
10
3.35077
20
-4.05287
11
3.35
21
-4.05315
0
LINE
8
BLACK
6
CONTINUOUS
10
3.35
20
-4.05315
11
3.07929
21
-4.05315
0
LINE
8
BLACK
6
CONTINUOUS
10
3.07929
20
-4.05315
11
2.97929
21
-4.05315
0
LINE
8
BLACK
6
CONTINUOUS
10
2.97929
20
-4.05315
11
2.87929
21
-4.05315
0
LINE
8
BLACK
6
CONTINUOUS
10
2.87929
20
-4.05315
11
2.65
21
-4.05315
0
LINE
8
BLACK
6
CONTINUOUS
10
2.65
20
-4.05315
11
2.64959
21
-4.05308
0
LINE
8
BLACK
6
CONTINUOUS
10
2.64959
20
-4.05308
11
2.64945
21
-4.0531
0
LINE
8
BLACK
6
CONTINUOUS
10
2.64945
20
-4.0531
11
2.64933
21
-4.05303
0
LINE
8
BLACK
6
CONTINUOUS
10
2.64933
20
-4.05303
11
2.64892
21
-4.05296
0
LINE
8
BLACK
6
CONTINUOUS
10
2.64892
20
-4.05296
11
2.6483
21
-4.05243
0
LINE
8
BLACK
6
CONTINUOUS
10
2.6483
20
-4.05243
11
2.64759
21
-4.05202
0
LINE
8
BLACK
6
CONTINUOUS
10
2.64759
20
-4.05202
11
2.64749
21
-4.05176
0
LINE
8
BLACK
6
CONTINUOUS
10
2.64749
20
-4.05176
11
2.64727
21
-4.05157
0
LINE
8
BLACK
6
CONTINUOUS
10
2.64727
20
-4.05157
11
2.64713
21
-4.05077
0
LINE
8
BLACK
6
CONTINUOUS
10
2.64713
20
-4.05077
11
2.64685
21
-4.05
0
LINE
8
BLACK
6
CONTINUOUS
10
2.64685
20
-4.05
11
2.64685
21
-2.35
0
LINE
8
BLACK
6
CONTINUOUS
10
2.64685
20
-2.35
11
2.64692
21
-2.34959
0
LINE
8
BLACK
6
CONTINUOUS
10
2.64692
20
-2.34959
11
2.6469
21
-2.34945
0
LINE
8
BLACK
6
CONTINUOUS
10
2.6469
20
-2.34945
11
2.64697
21
-2.34933
0
LINE
8
BLACK
6
CONTINUOUS
10
2.64697
20
-2.34933
11
2.64704
21
-2.34892
0
LINE
8
BLACK
6
CONTINUOUS
10
2.64704
20
-2.34892
11
2.64757
21
-2.3483
0
LINE
8
BLACK
6
CONTINUOUS
10
2.64757
20
-2.3483
11
2.64798
21
-2.34759
0
LINE
8
BLACK
6
CONTINUOUS
10
2.64798
20
-2.34759
11
2.64824
21
-2.34749
0
LINE
8
BLACK
6
CONTINUOUS
10
2.64824
20
-2.34749
11
2.64843
21
-2.34727
0
LINE
8
BLACK
6
CONTINUOUS
10
2.64843
20
-2.34727
11
2.64923
21
-2.34713
0
LINE
8
BLACK
6
CONTINUOUS
10
2.64923
20
-2.34713
11
2.65
21
-2.34685
0
LINE
8
BLACK
6
CONTINUOUS
10
2.65
20
-2.34685
11
2.84685
21
-2.34685
0
LINE
8
BLACK
6
CONTINUOUS
10
2.84685
20
-2.34685
11
2.84685
21
-2.28
0
LINE
8
BLACK
6
CONTINUOUS
10
2.84685
20
-2.28
11
2.84692
21
-2.27959
0
LINE
8
BLACK
6
CONTINUOUS
10
2.84692
20
-2.27959
11
2.8469
21
-2.27945
0
LINE
8
BLACK
6
CONTINUOUS
10
2.8469
20
-2.27945
11
2.84697
21
-2.27933
0
LINE
8
BLACK
6
CONTINUOUS
10
2.84697
20
-2.27933
11
2.84704
21
-2.27892
0
LINE
8
BLACK
6
CONTINUOUS
10
2.84704
20
-2.27892
11
2.84757
21
-2.2783
0
LINE
8
BLACK
6
CONTINUOUS
10
2.84757
20
-2.2783
11
2.84798
21
-2.27759
0
LINE
8
BLACK
6
CONTINUOUS
10
2.84798
20
-2.27759
11
2.84824
21
-2.27749
0
LINE
8
BLACK
6
CONTINUOUS
10
2.84824
20
-2.27749
11
2.84843
21
-2.27727
0
LINE
8
BLACK
6
CONTINUOUS
10
2.84843
20
-2.27727
11
2.84923
21
-2.27713
0
LINE
8
BLACK
6
CONTINUOUS
10
2.84923
20
-2.27713
11
2.85
21
-2.27685
0
LINE
8
BLACK
6
CONTINUOUS
10
2.85
20
-2.27685
11
2.87
21
-2.27685
0
LINE
8
BLACK
6
CONTINUOUS
10
3.15315
20
-2.35315
11
3.15315
21
-2.62
0
LINE
8
BLACK
6
CONTINUOUS
10
3.15315
20
-2.62
11
3.15308
21
-2.62041
0
LINE
8
BLACK
6
CONTINUOUS
10
3.15308
20
-2.62041
11
3.1531
21
-2.62055
0
LINE
8
BLACK
6
CONTINUOUS
10
3.1531
20
-2.62055
11
3.15303
21
-2.62067
0
LINE
8
BLACK
6
CONTINUOUS
10
3.15303
20
-2.62067
11
3.15296
21
-2.62108
0
LINE
8
BLACK
6
CONTINUOUS
10
3.15296
20
-2.62108
11
3.15243
21
-2.6217
0
LINE
8
BLACK
6
CONTINUOUS
10
3.15243
20
-2.6217
11
3.15202
21
-2.62241
0
LINE
8
BLACK
6
CONTINUOUS
10
3.15202
20
-2.62241
11
3.15176
21
-2.62251
0
LINE
8
BLACK
6
CONTINUOUS
10
3.15176
20
-2.62251
11
3.15157
21
-2.62273
0
LINE
8
BLACK
6
CONTINUOUS
10
3.15157
20
-2.62273
11
3.15077
21
-2.62287
0
LINE
8
BLACK
6
CONTINUOUS
10
3.15077
20
-2.62287
11
3.15
21
-2.62315
0
LINE
8
BLACK
6
CONTINUOUS
10
3.15
20
-2.62315
11
3.13
21
-2.62315
0
LINE
8
BLACK
6
CONTINUOUS
10
3.13
20
-2.62315
11
3.08315
21
-2.62315
0
LINE
8
BLACK
6
CONTINUOUS
10
3.08315
20
-2.62315
11
3.08315
21
-2.64
0
LINE
8
BLACK
6
CONTINUOUS
10
3.08315
20
-2.64
11
3.08308
21
-2.64041
0
LINE
8
BLACK
6
CONTINUOUS
10
3.08308
20
-2.64041
11
3.0831
21
-2.64055
0
LINE
8
BLACK
6
CONTINUOUS
10
3.0831
20
-2.64055
11
3.08303
21
-2.64067
0
LINE
8
BLACK
6
CONTINUOUS
10
3.08303
20
-2.64067
11
3.08296
21
-2.64108
0
LINE
8
BLACK
6
CONTINUOUS
10
3.08296
20
-2.64108
11
3.08243
21
-2.6417
0
LINE
8
BLACK
6
CONTINUOUS
10
3.08243
20
-2.6417
11
3.08202
21
-2.64241
0
LINE
8
BLACK
6
CONTINUOUS
10
3.08202
20
-2.64241
11
3.08176
21
-2.64251
0
LINE
8
BLACK
6
CONTINUOUS
10
3.08176
20
-2.64251
11
3.08157
21
-2.64273
0
LINE
8
BLACK
6
CONTINUOUS
10
3.08157
20
-2.64273
11
3.08077
21
-2.64287
0
LINE
8
BLACK
6
CONTINUOUS
10
3.08077
20
-2.64287
11
3.08
21
-2.64315
0
LINE
8
BLACK
6
CONTINUOUS
10
3.08
20
-2.64315
11
2.92
21
-2.64315
0
LINE
8
BLACK
6
CONTINUOUS
10
2.92
20
-2.64315
11
2.91959
21
-2.64308
0
LINE
8
BLACK
6
CONTINUOUS
10
2.91959
20
-2.64308
11
2.91945
21
-2.6431
0
LINE
8
BLACK
6
CONTINUOUS
10
2.91945
20
-2.6431
11
2.91933
21
-2.64303
0
LINE
8
BLACK
6
CONTINUOUS
10
2.91933
20
-2.64303
11
2.91892
21
-2.64296
0
LINE
8
BLACK
6
CONTINUOUS
10
2.91892
20
-2.64296
11
2.9183
21
-2.64243
0
LINE
8
BLACK
6
CONTINUOUS
10
2.9183
20
-2.64243
11
2.91759
21
-2.64202
0
LINE
8
BLACK
6
CONTINUOUS
10
2.91759
20
-2.64202
11
2.91749
21
-2.64176
0
LINE
8
BLACK
6
CONTINUOUS
10
2.91749
20
-2.64176
11
2.91727
21
-2.64157
0
LINE
8
BLACK
6
CONTINUOUS
10
2.91727
20
-2.64157
11
2.91713
21
-2.64077
0
LINE
8
BLACK
6
CONTINUOUS
10
2.91713
20
-2.64077
11
2.91685
21
-2.64
0
LINE
8
BLACK
6
CONTINUOUS
10
2.91685
20
-2.64
11
2.91685
21
-2.62315
0
LINE
8
BLACK
6
CONTINUOUS
10
2.91685
20
-2.62315
11
2.87
21
-2.62315
0
LINE
8
BLACK
6
CONTINUOUS
10
2.87
20
-2.62315
11
2.85
21
-2.62315
0
LINE
8
BLACK
6
CONTINUOUS
10
2.85
20
-2.62315
11
2.84959
21
-2.62308
0
LINE
8
BLACK
6
CONTINUOUS
10
2.84959
20
-2.62308
11
2.84945
21
-2.6231
0
LINE
8
BLACK
6
CONTINUOUS
10
2.84945
20
-2.6231
11
2.84933
21
-2.62303
0
LINE
8
BLACK
6
CONTINUOUS
10
2.84933
20
-2.62303
11
2.84892
21
-2.62296
0
LINE
8
BLACK
6
CONTINUOUS
10
2.84892
20
-2.62296
11
2.8483
21
-2.62243
0
LINE
8
BLACK
6
CONTINUOUS
10
2.8483
20
-2.62243
11
2.84759
21
-2.62202
0
LINE
8
BLACK
6
CONTINUOUS
10
2.84759
20
-2.62202
11
2.84749
21
-2.62176
0
LINE
8
BLACK
6
CONTINUOUS
10
2.84749
20
-2.62176
11
2.84727
21
-2.62157
0
LINE
8
BLACK
6
CONTINUOUS
10
2.84727
20
-2.62157
11
2.84713
21
-2.62077
0
LINE
8
BLACK
6
CONTINUOUS
10
2.84713
20
-2.62077
11
2.84685
21
-2.62
0
LINE
8
BLACK
6
CONTINUOUS
10
2.84685
20
-2.62
11
2.84685
21
-2.35315
0
LINE
8
BLACK
6
CONTINUOUS
10
2.84685
20
-2.35315
11
2.65315
21
-2.35315
0
LINE
8
BLACK
6
CONTINUOUS
10
2.65315
20
-2.35315
11
2.65315
21
-4.04685
0
LINE
8
BLACK
6
CONTINUOUS
10
2.65315
20
-4.04685
11
2.87169
21
-4.04685
0
LINE
8
BLACK
6
CONTINUOUS
10
2.87169
20
-4.04685
11
2.84777
21
-4.02294
0
LINE
8
BLACK
6
CONTINUOUS
10
2.84777
20
-4.02294
11
2.84766
21
-4.02278
0
LINE
8
BLACK
6
CONTINUOUS
10
2.84766
20
-4.02278
11
2.84759
21
-4.02274
0
LINE
8
BLACK
6
CONTINUOUS
10
2.84759
20
-4.02274
11
2.84754
21
-4.0226
0
LINE
8
BLACK
6
CONTINUOUS
10
2.84754
20
-4.0226
11
2.84715
21
-4.02204
0
LINE
8
BLACK
6
CONTINUOUS
10
2.84715
20
-4.02204
11
2.84709
21
-4.02136
0
LINE
8
BLACK
6
CONTINUOUS
10
2.84709
20
-4.02136
11
2.84685
21
-4.02071
0
LINE
8
BLACK
6
CONTINUOUS
10
2.84685
20
-4.02071
11
2.84685
21
-3.97929
0
LINE
8
BLACK
6
CONTINUOUS
10
2.84685
20
-3.97929
11
2.84688
21
-3.9791
0
LINE
8
BLACK
6
CONTINUOUS
10
2.84688
20
-3.9791
11
2.84686
21
-3.97901
0
LINE
8
BLACK
6
CONTINUOUS
10
2.84686
20
-3.97901
11
2.84692
21
-3.97889
0
LINE
8
BLACK
6
CONTINUOUS
10
2.84692
20
-3.97889
11
2.84704
21
-3.97821
0
LINE
8
BLACK
6
CONTINUOUS
10
2.84704
20
-3.97821
11
2.84748
21
-3.97769
0
LINE
8
BLACK
6
CONTINUOUS
10
2.84748
20
-3.97769
11
2.84777
21
-3.97706
0
LINE
8
BLACK
6
CONTINUOUS
10
2.84777
20
-3.97706
11
2.87484
21
-3.95
0
LINE
8
BLACK
6
CONTINUOUS
10
2.87484
20
-3.95
11
2.84777
21
-3.92294
0
LINE
8
BLACK
6
CONTINUOUS
10
2.84777
20
-3.92294
11
2.84766
21
-3.92278
0
LINE
8
BLACK
6
CONTINUOUS
10
2.84766
20
-3.92278
11
2.84759
21
-3.92274
0
LINE
8
BLACK
6
CONTINUOUS
10
2.84759
20
-3.92274
11
2.84754
21
-3.9226
0
LINE
8
BLACK
6
CONTINUOUS
10
2.84754
20
-3.9226
11
2.84715
21
-3.92204
0
LINE
8
BLACK
6
CONTINUOUS
10
2.84715
20
-3.92204
11
2.84709
21
-3.92136
0
LINE
8
BLACK
6
CONTINUOUS
10
2.84709
20
-3.92136
11
2.84685
21
-3.92071
0
LINE
8
BLACK
6
CONTINUOUS
10
2.84685
20
-3.92071
11
2.84685
21
-3.87929
0
LINE
8
BLACK
6
CONTINUOUS
10
2.84685
20
-3.87929
11
2.84688
21
-3.8791
0
LINE
8
BLACK
6
CONTINUOUS
10
2.84688
20
-3.8791
11
2.84686
21
-3.87901
0
LINE
8
BLACK
6
CONTINUOUS
10
2.84686
20
-3.87901
11
2.84692
21
-3.87889
0
LINE
8
BLACK
6
CONTINUOUS
10
2.84692
20
-3.87889
11
2.84704
21
-3.87821
0
LINE
8
BLACK
6
CONTINUOUS
10
2.84704
20
-3.87821
11
2.84748
21
-3.87769
0
LINE
8
BLACK
6
CONTINUOUS
10
2.84748
20
-3.87769
11
2.84777
21
-3.87706
0
LINE
8
BLACK
6
CONTINUOUS
10
2.84777
20
-3.87706
11
2.87706
21
-3.84777
0
LINE
8
BLACK
6
CONTINUOUS
10
2.87706
20
-3.84777
11
2.87722
21
-3.84766
0
LINE
8
BLACK
6
CONTINUOUS
10
2.87722
20
-3.84766
11
2.87726
21
-3.84759
0
LINE
8
BLACK
6
CONTINUOUS
10
2.87726
20
-3.84759
11
2.8774
21
-3.84754
0
LINE
8
BLACK
6
CONTINUOUS
10
2.8774
20
-3.84754
11
2.87796
21
-3.84715
0
LINE
8
BLACK
6
CONTINUOUS
10
2.87796
20
-3.84715
11
2.87864
21
-3.84709
0
LINE
8
BLACK
6
CONTINUOUS
10
2.87864
20
-3.84709
11
2.87929
21
-3.84685
0
LINE
8
BLACK
6
CONTINUOUS
10
2.87929
20
-3.84685
11
2.92071
21
-3.84685
0
LINE
8
BLACK
6
CONTINUOUS
10
2.92071
20
-3.84685
11
2.9209
21
-3.84688
0
LINE
8
BLACK
6
CONTINUOUS
10
2.9209
20
-3.84688
11
2.92099
21
-3.84686
0
LINE
8
BLACK
6
CONTINUOUS
10
2.92099
20
-3.84686
11
2.92111
21
-3.84692
0
LINE
8
BLACK
6
CONTINUOUS
10
2.92111
20
-3.84692
11
2.92179
21
-3.84704
0
LINE
8
BLACK
6
CONTINUOUS
10
2.92179
20
-3.84704
11
2.92231
21
-3.84748
0
LINE
8
BLACK
6
CONTINUOUS
10
2.92231
20
-3.84748
11
2.92294
21
-3.84777
0
LINE
8
BLACK
6
CONTINUOUS
10
2.92294
20
-3.84777
11
2.95
21
-3.87484
0
LINE
8
BLACK
6
CONTINUOUS
10
2.95
20
-3.87484
11
2.97706
21
-3.84777
0
LINE
8
BLACK
6
CONTINUOUS
10
2.97706
20
-3.84777
11
2.97722
21
-3.84766
0
LINE
8
BLACK
6
CONTINUOUS
10
2.97722
20
-3.84766
11
2.97726
21
-3.84759
0
LINE
8
BLACK
6
CONTINUOUS
10
2.97726
20
-3.84759
11
2.9774
21
-3.84754
0
LINE
8
BLACK
6
CONTINUOUS
10
2.9774
20
-3.84754
11
2.97796
21
-3.84715
0
LINE
8
BLACK
6
CONTINUOUS
10
2.97796
20
-3.84715
11
2.97864
21
-3.84709
0
LINE
8
BLACK
6
CONTINUOUS
10
2.97864
20
-3.84709
11
2.97929
21
-3.84685
0
LINE
8
BLACK
6
CONTINUOUS
10
2.97929
20
-3.84685
11
3.02071
21
-3.84685
0
LINE
8
BLACK
6
CONTINUOUS
10
3.02071
20
-3.84685
11
3.0209
21
-3.84688
0
LINE
8
BLACK
6
CONTINUOUS
10
3.0209
20
-3.84688
11
3.02099
21
-3.84686
0
LINE
8
BLACK
6
CONTINUOUS
10
3.02099
20
-3.84686
11
3.02111
21
-3.84692
0
LINE
8
BLACK
6
CONTINUOUS
10
3.02111
20
-3.84692
11
3.02179
21
-3.84704
0
LINE
8
BLACK
6
CONTINUOUS
10
3.02179
20
-3.84704
11
3.02231
21
-3.84748
0
LINE
8
BLACK
6
CONTINUOUS
10
3.02231
20
-3.84748
11
3.02294
21
-3.84777
0
LINE
8
BLACK
6
CONTINUOUS
10
3.02294
20
-3.84777
11
3.05
21
-3.87484
0
LINE
8
BLACK
6
CONTINUOUS
10
3.05
20
-3.87484
11
3.07706
21
-3.84777
0
LINE
8
BLACK
6
CONTINUOUS
10
3.07706
20
-3.84777
11
3.07722
21
-3.84766
0
LINE
8
BLACK
6
CONTINUOUS
10
3.07722
20
-3.84766
11
3.07726
21
-3.84759
0
LINE
8
BLACK
6
CONTINUOUS
10
3.07726
20
-3.84759
11
3.0774
21
-3.84754
0
LINE
8
BLACK
6
CONTINUOUS
10
3.0774
20
-3.84754
11
3.07796
21
-3.84715
0
LINE
8
BLACK
6
CONTINUOUS
10
3.07796
20
-3.84715
11
3.07864
21
-3.84709
0
LINE
8
BLACK
6
CONTINUOUS
10
3.07864
20
-3.84709
11
3.07929
21
-3.84685
0
LINE
8
BLACK
6
CONTINUOUS
10
3.07929
20
-3.84685
11
3.12071
21
-3.84685
0
LINE
8
BLACK
6
CONTINUOUS
10
3.12071
20
-3.84685
11
3.1209
21
-3.84688
0
LINE
8
BLACK
6
CONTINUOUS
10
3.1209
20
-3.84688
11
3.12099
21
-3.84686
0
LINE
8
BLACK
6
CONTINUOUS
10
3.12099
20
-3.84686
11
3.12111
21
-3.84692
0
LINE
8
BLACK
6
CONTINUOUS
10
3.12111
20
-3.84692
11
3.12179
21
-3.84704
0
LINE
8
BLACK
6
CONTINUOUS
10
3.12179
20
-3.84704
11
3.12231
21
-3.84748
0
LINE
8
BLACK
6
CONTINUOUS
10
3.12231
20
-3.84748
11
3.12294
21
-3.84777
0
LINE
8
BLACK
6
CONTINUOUS
10
3.12294
20
-3.84777
11
3.15223
21
-3.87706
0
LINE
8
BLACK
6
CONTINUOUS
10
3.15223
20
-3.87706
11
3.15234
21
-3.87722
0
LINE
8
BLACK
6
CONTINUOUS
10
3.15234
20
-3.87722
11
3.15241
21
-3.87726
0
LINE
8
BLACK
6
CONTINUOUS
10
3.15241
20
-3.87726
11
3.15246
21
-3.8774
0
LINE
8
BLACK
6
CONTINUOUS
10
3.15246
20
-3.8774
11
3.15285
21
-3.87796
0
LINE
8
BLACK
6
CONTINUOUS
10
3.15285
20
-3.87796
11
3.15291
21
-3.87864
0
LINE
8
BLACK
6
CONTINUOUS
10
3.15291
20
-3.87864
11
3.15315
21
-3.87929
0
LINE
8
BLACK
6
CONTINUOUS
10
3.15315
20
-3.87929
11
3.15315
21
-3.92071
0
LINE
8
BLACK
6
CONTINUOUS
10
3.15315
20
-3.92071
11
3.15312
21
-3.9209
0
LINE
8
BLACK
6
CONTINUOUS
10
3.15312
20
-3.9209
11
3.15314
21
-3.92099
0
LINE
8
BLACK
6
CONTINUOUS
10
3.15314
20
-3.92099
11
3.15308
21
-3.92111
0
LINE
8
BLACK
6
CONTINUOUS
10
3.15308
20
-3.92111
11
3.15296
21
-3.92179
0
LINE
8
BLACK
6
CONTINUOUS
10
3.15296
20
-3.92179
11
3.15252
21
-3.92231
0
LINE
8
BLACK
6
CONTINUOUS
10
3.15252
20
-3.92231
11
3.15223
21
-3.92294
0
LINE
8
BLACK
6
CONTINUOUS
10
3.15223
20
-3.92294
11
3.12516
21
-3.95
0
LINE
8
BLACK
6
CONTINUOUS
10
3.12516
20
-3.95
11
3.15223
21
-3.97706
0
LINE
8
BLACK
6
CONTINUOUS
10
3.15223
20
-3.97706
11
3.15234
21
-3.97722
0
LINE
8
BLACK
6
CONTINUOUS
10
3.15234
20
-3.97722
11
3.15241
21
-3.97726
0
LINE
8
BLACK
6
CONTINUOUS
10
3.15241
20
-3.97726
11
3.15246
21
-3.9774
0
LINE
8
BLACK
6
CONTINUOUS
10
3.15246
20
-3.9774
11
3.15285
21
-3.97796
0
LINE
8
BLACK
6
CONTINUOUS
10
3.15285
20
-3.97796
11
3.15291
21
-3.97864
0
LINE
8
BLACK
6
CONTINUOUS
10
3.15291
20
-3.97864
11
3.15315
21
-3.97929
0
LINE
8
BLACK
6
CONTINUOUS
10
3.15315
20
-3.97929
11
3.15315
21
-4.02071
0
LINE
8
BLACK
6
CONTINUOUS
10
3.15315
20
-4.02071
11
3.15312
21
-4.0209
0
LINE
8
BLACK
6
CONTINUOUS
10
3.15312
20
-4.0209
11
3.15314
21
-4.02099
0
LINE
8
BLACK
6
CONTINUOUS
10
3.15314
20
-4.02099
11
3.15308
21
-4.02111
0
LINE
8
BLACK
6
CONTINUOUS
10
3.15308
20
-4.02111
11
3.15296
21
-4.02179
0
LINE
8
BLACK
6
CONTINUOUS
10
3.15296
20
-4.02179
11
3.15252
21
-4.02231
0
LINE
8
BLACK
6
CONTINUOUS
10
3.15252
20
-4.02231
11
3.15223
21
-4.02294
0
LINE
8
BLACK
6
CONTINUOUS
10
3.15223
20
-4.02294
11
3.12831
21
-4.04685
0
LINE
8
BLACK
6
CONTINUOUS
10
3.12831
20
-4.04685
11
3.34685
21
-4.04685
0
LINE
8
BLACK
6
CONTINUOUS
10
3.34685
20
-4.04685
11
3.34685
21
-2.35315
0
LINE
8
BLACK
6
CONTINUOUS
10
3.34685
20
-2.35315
11
3.15315
21
-2.35315
0
LINE
8
BLACK
6
CONTINUOUS
10
2.88059
20
-3.95315
11
2.85315
21
-3.98059
0
LINE
8
BLACK
6
CONTINUOUS
10
2.85315
20
-3.98059
11
2.85315
21
-4.01941
0
LINE
8
BLACK
6
CONTINUOUS
10
2.85315
20
-4.01941
11
2.88059
21
-4.04685
0
LINE
8
BLACK
6
CONTINUOUS
10
2.88059
20
-4.04685
11
2.91941
21
-4.04685
0
LINE
8
BLACK
6
CONTINUOUS
10
2.91941
20
-4.04685
11
2.94685
21
-4.01941
0
LINE
8
BLACK
6
CONTINUOUS
10
2.94685
20
-4.01941
11
2.94685
21
-3.98059
0
LINE
8
BLACK
6
CONTINUOUS
10
2.94685
20
-3.98059
11
2.91941
21
-3.95315
0
LINE
8
BLACK
6
CONTINUOUS
10
2.91941
20
-3.95315
11
2.88059
21
-3.95315
0
LINE
8
BLACK
6
CONTINUOUS
10
2.92831
20
-4.04685
11
2.97169
21
-4.04685
0
LINE
8
BLACK
6
CONTINUOUS
10
2.97169
20
-4.04685
11
2.95
21
-4.02516
0
LINE
8
BLACK
6
CONTINUOUS
10
2.95
20
-4.02516
11
2.92831
21
-4.04685
0
LINE
8
BLACK
6
CONTINUOUS
10
2.98059
20
-3.95315
11
2.95315
21
-3.98059
0
LINE
8
BLACK
6
CONTINUOUS
10
2.95315
20
-3.98059
11
2.95315
21
-4.01941
0
LINE
8
BLACK
6
CONTINUOUS
10
2.95315
20
-4.01941
11
2.98059
21
-4.04685
0
LINE
8
BLACK
6
CONTINUOUS
10
2.98059
20
-4.04685
11
3.01941
21
-4.04685
0
LINE
8
BLACK
6
CONTINUOUS
10
3.01941
20
-4.04685
11
3.04685
21
-4.01941
0
LINE
8
BLACK
6
CONTINUOUS
10
3.04685
20
-4.01941
11
3.04685
21
-3.98059
0
LINE
8
BLACK
6
CONTINUOUS
10
3.04685
20
-3.98059
11
3.01941
21
-3.95315
0
LINE
8
BLACK
6
CONTINUOUS
10
3.01941
20
-3.95315
11
2.98059
21
-3.95315
0
LINE
8
BLACK
6
CONTINUOUS
10
3.02831
20
-4.04685
11
3.07169
21
-4.04685
0
LINE
8
BLACK
6
CONTINUOUS
10
3.07169
20
-4.04685
11
3.05
21
-4.02516
0
LINE
8
BLACK
6
CONTINUOUS
10
3.05
20
-4.02516
11
3.02831
21
-4.04685
0
LINE
8
BLACK
6
CONTINUOUS
10
3.08059
20
-3.95315
11
3.05315
21
-3.98059
0
LINE
8
BLACK
6
CONTINUOUS
10
3.05315
20
-3.98059
11
3.05315
21
-4.01941
0
LINE
8
BLACK
6
CONTINUOUS
10
3.05315
20
-4.01941
11
3.08059
21
-4.04685
0
LINE
8
BLACK
6
CONTINUOUS
10
3.08059
20
-4.04685
11
3.11941
21
-4.04685
0
LINE
8
BLACK
6
CONTINUOUS
10
3.11941
20
-4.04685
11
3.14685
21
-4.01941
0
LINE
8
BLACK
6
CONTINUOUS
10
3.14685
20
-4.01941
11
3.14685
21
-3.98059
0
LINE
8
BLACK
6
CONTINUOUS
10
3.14685
20
-3.98059
11
3.11941
21
-3.95315
0
LINE
8
BLACK
6
CONTINUOUS
10
3.11941
20
-3.95315
11
3.08059
21
-3.95315
0
LINE
8
BLACK
6
CONTINUOUS
10
2.92516
20
-3.95
11
2.95
21
-3.97484
0
LINE
8
BLACK
6
CONTINUOUS
10
2.95
20
-3.97484
11
2.97484
21
-3.95
0
LINE
8
BLACK
6
CONTINUOUS
10
2.97484
20
-3.95
11
2.95
21
-3.92516
0
LINE
8
BLACK
6
CONTINUOUS
10
2.95
20
-3.92516
11
2.92516
21
-3.95
0
LINE
8
BLACK
6
CONTINUOUS
10
3.02516
20
-3.95
11
3.05
21
-3.97484
0
LINE
8
BLACK
6
CONTINUOUS
10
3.05
20
-3.97484
11
3.07484
21
-3.95
0
LINE
8
BLACK
6
CONTINUOUS
10
3.07484
20
-3.95
11
3.05
21
-3.92516
0
LINE
8
BLACK
6
CONTINUOUS
10
3.05
20
-3.92516
11
3.02516
21
-3.95
0
LINE
8
BLACK
6
CONTINUOUS
10
3.08059
20
-3.85315
11
3.05315
21
-3.88059
0
LINE
8
BLACK
6
CONTINUOUS
10
3.05315
20
-3.88059
11
3.05315
21
-3.91941
0
LINE
8
BLACK
6
CONTINUOUS
10
3.05315
20
-3.91941
11
3.08059
21
-3.94685
0
LINE
8
BLACK
6
CONTINUOUS
10
3.08059
20
-3.94685
11
3.11941
21
-3.94685
0
LINE
8
BLACK
6
CONTINUOUS
10
3.11941
20
-3.94685
11
3.14685
21
-3.91941
0
LINE
8
BLACK
6
CONTINUOUS
10
3.14685
20
-3.91941
11
3.14685
21
-3.88059
0
LINE
8
BLACK
6
CONTINUOUS
10
3.14685
20
-3.88059
11
3.11941
21
-3.85315
0
LINE
8
BLACK
6
CONTINUOUS
10
3.11941
20
-3.85315
11
3.08059
21
-3.85315
0
LINE
8
BLACK
6
CONTINUOUS
10
2.98059
20
-3.85315
11
2.95315
21
-3.88059
0
LINE
8
BLACK
6
CONTINUOUS
10
2.95315
20
-3.88059
11
2.95315
21
-3.91941
0
LINE
8
BLACK
6
CONTINUOUS
10
2.95315
20
-3.91941
11
2.98059
21
-3.94685
0
LINE
8
BLACK
6
CONTINUOUS
10
2.98059
20
-3.94685
11
3.01941
21
-3.94685
0
LINE
8
BLACK
6
CONTINUOUS
10
3.01941
20
-3.94685
11
3.04685
21
-3.91941
0
LINE
8
BLACK
6
CONTINUOUS
10
3.04685
20
-3.91941
11
3.04685
21
-3.88059
0
LINE
8
BLACK
6
CONTINUOUS
10
3.04685
20
-3.88059
11
3.01941
21
-3.85315
0
LINE
8
BLACK
6
CONTINUOUS
10
3.01941
20
-3.85315
11
2.98059
21
-3.85315
0
LINE
8
BLACK
6
CONTINUOUS
10
2.88059
20
-3.85315
11
2.85315
21
-3.88059
0
LINE
8
BLACK
6
CONTINUOUS
10
2.85315
20
-3.88059
11
2.85315
21
-3.91941
0
LINE
8
BLACK
6
CONTINUOUS
10
2.85315
20
-3.91941
11
2.88059
21
-3.94685
0
LINE
8
BLACK
6
CONTINUOUS
10
2.88059
20
-3.94685
11
2.91941
21
-3.94685
0
LINE
8
BLACK
6
CONTINUOUS
10
2.91941
20
-3.94685
11
2.94685
21
-3.91941
0
LINE
8
BLACK
6
CONTINUOUS
10
2.94685
20
-3.91941
11
2.94685
21
-3.88059
0
LINE
8
BLACK
6
CONTINUOUS
10
2.94685
20
-3.88059
11
2.91941
21
-3.85315
0
LINE
8
BLACK
6
CONTINUOUS
10
2.91941
20
-3.85315
11
2.88059
21
-3.85315
0
LINE
8
BLACK
6
CONTINUOUS
10
2.87315
20
-2.28315
11
2.87315
21
-2.61685
0
LINE
8
BLACK
6
CONTINUOUS
10
2.87315
20
-2.61685
11
2.92
21
-2.61685
0
LINE
8
BLACK
6
CONTINUOUS
10
2.92
20
-2.61685
11
2.92041
21
-2.61692
0
LINE
8
BLACK
6
CONTINUOUS
10
2.92041
20
-2.61692
11
2.92055
21
-2.6169
0
LINE
8
BLACK
6
CONTINUOUS
10
2.92055
20
-2.6169
11
2.92067
21
-2.61697
0
LINE
8
BLACK
6
CONTINUOUS
10
2.92067
20
-2.61697
11
2.92108
21
-2.61704
0
LINE
8
BLACK
6
CONTINUOUS
10
2.92108
20
-2.61704
11
2.9217
21
-2.61757
0
LINE
8
BLACK
6
CONTINUOUS
10
2.9217
20
-2.61757
11
2.92241
21
-2.61798
0
LINE
8
BLACK
6
CONTINUOUS
10
2.92241
20
-2.61798
11
2.92251
21
-2.61824
0
LINE
8
BLACK
6
CONTINUOUS
10
2.92251
20
-2.61824
11
2.92273
21
-2.61843
0
LINE
8
BLACK
6
CONTINUOUS
10
2.92273
20
-2.61843
11
2.92287
21
-2.61923
0
LINE
8
BLACK
6
CONTINUOUS
10
2.92287
20
-2.61923
11
2.92315
21
-2.62
0
LINE
8
BLACK
6
CONTINUOUS
10
2.92315
20
-2.62
11
2.92315
21
-2.63685
0
LINE
8
BLACK
6
CONTINUOUS
10
2.92315
20
-2.63685
11
3.07685
21
-2.63685
0
LINE
8
BLACK
6
CONTINUOUS
10
3.07685
20
-2.63685
11
3.07685
21
-2.62
0
LINE
8
BLACK
6
CONTINUOUS
10
3.07685
20
-2.62
11
3.07692
21
-2.61959
0
LINE
8
BLACK
6
CONTINUOUS
10
3.07692
20
-2.61959
11
3.0769
21
-2.61945
0
LINE
8
BLACK
6
CONTINUOUS
10
3.0769
20
-2.61945
11
3.07697
21
-2.61933
0
LINE
8
BLACK
6
CONTINUOUS
10
3.07697
20
-2.61933
11
3.07704
21
-2.61892
0
LINE
8
BLACK
6
CONTINUOUS
10
3.07704
20
-2.61892
11
3.07757
21
-2.6183
0
LINE
8
BLACK
6
CONTINUOUS
10
3.07757
20
-2.6183
11
3.07798
21
-2.61759
0
LINE
8
BLACK
6
CONTINUOUS
10
3.07798
20
-2.61759
11
3.07824
21
-2.61749
0
LINE
8
BLACK
6
CONTINUOUS
10
3.07824
20
-2.61749
11
3.07843
21
-2.61727
0
LINE
8
BLACK
6
CONTINUOUS
10
3.07843
20
-2.61727
11
3.07923
21
-2.61713
0
LINE
8
BLACK
6
CONTINUOUS
10
3.07923
20
-2.61713
11
3.08
21
-2.61685
0
LINE
8
BLACK
6
CONTINUOUS
10
3.08
20
-2.61685
11
3.12685
21
-2.61685
0
LINE
8
BLACK
6
CONTINUOUS
10
3.12685
20
-2.61685
11
3.12685
21
-2.28315
0
LINE
8
BLACK
6
CONTINUOUS
10
3.12685
20
-2.28315
11
2.87315
21
-2.28315
0
LINE
8
BLACK
6
CONTINUOUS
10
3.13315
20
-2.28315
11
3.13315
21
-2.61685
0
LINE
8
BLACK
6
CONTINUOUS
10
3.13315
20
-2.61685
11
3.14685
21
-2.61685
0
LINE
8
BLACK
6
CONTINUOUS
10
3.14685
20
-2.61685
11
3.14685
21
-2.28315
0
LINE
8
BLACK
6
CONTINUOUS
10
3.14685
20
-2.28315
11
3.13315
21
-2.28315
0
LINE
8
BLACK
6
CONTINUOUS
10
2.85315
20
-2.28315
11
2.85315
21
-2.61685
0
LINE
8
BLACK
6
CONTINUOUS
10
2.85315
20
-2.61685
11
2.86685
21
-2.61685
0
LINE
8
BLACK
6
CONTINUOUS
10
2.86685
20
-2.61685
11
2.86685
21
-2.28315
0
LINE
8
BLACK
6
CONTINUOUS
10
2.86685
20
-2.28315
11
2.85315
21
-2.28315
0
LINE
8
BLACK
6
CONTINUOUS
10
4.95236
20
-3.69764
11
4.95403
21
-3.69833
0
LINE
8
BLACK
6
CONTINUOUS
10
4.95403
20
-3.69833
11
4.95472
21
-3.7
0
LINE
8
BLACK
6
CONTINUOUS
10
4.95472
20
-3.7
11
4.95472
21
-3.80236
0
LINE
8
BLACK
6
CONTINUOUS
10
4.95472
20
-3.80236
11
4.95403
21
-3.80403
0
LINE
8
BLACK
6
CONTINUOUS
10
4.95403
20
-3.80403
11
4.95236
21
-3.80472
0
LINE
8
BLACK
6
CONTINUOUS
10
4.95236
20
-3.80472
11
4.84764
21
-3.80472
0
LINE
8
BLACK
6
CONTINUOUS
10
4.84764
20
-3.80472
11
4.84597
21
-3.80403
0
LINE
8
BLACK
6
CONTINUOUS
10
4.84597
20
-3.80403
11
4.84528
21
-3.80236
0
LINE
8
BLACK
6
CONTINUOUS
10
4.84528
20
-3.80236
11
4.84528
21
-3.7
0
LINE
8
BLACK
6
CONTINUOUS
10
4.84528
20
-3.7
11
4.84597
21
-3.69833
0
LINE
8
BLACK
6
CONTINUOUS
10
4.84597
20
-3.69833
11
4.84764
21
-3.69764
0
LINE
8
BLACK
6
CONTINUOUS
10
4.84764
20
-3.69764
11
4.95236
21
-3.69764
0
LINE
8
BLACK
6
CONTINUOUS
10
4.85
20
-3.70236
11
4.85
21
-3.8
0
LINE
8
BLACK
6
CONTINUOUS
10
4.85
20
-3.8
11
4.95
21
-3.8
0
LINE
8
BLACK
6
CONTINUOUS
10
4.95
20
-3.8
11
4.95
21
-3.70236
0
LINE
8
BLACK
6
CONTINUOUS
10
4.95
20
-3.70236
11
4.85
21
-3.70236
0
LINE
8
BLACK
6
CONTINUOUS
10
4.79185
20
-3.72106
11
4.79296
21
-3.72275
0
LINE
8
BLACK
6
CONTINUOUS
10
4.79296
20
-3.72275
11
4.79273
21
-3.72476
0
LINE
8
BLACK
6
CONTINUOUS
10
4.79273
20
-3.72476
11
4.79086
21
-3.7285
0
LINE
8
BLACK
6
CONTINUOUS
10
4.79086
20
-3.7285
11
4.79033
21
-3.72921
0
LINE
8
BLACK
6
CONTINUOUS
10
4.79033
20
-3.72921
11
4.79031
21
-3.72927
0
LINE
8
BLACK
6
CONTINUOUS
10
4.79031
20
-3.72927
11
4.78785
21
-3.73173
0
LINE
8
BLACK
6
CONTINUOUS
10
4.78785
20
-3.73173
11
4.81526
21
-3.73173
0
LINE
8
BLACK
6
CONTINUOUS
10
4.81526
20
-3.73173
11
4.81526
21
-3.72343
0
LINE
8
BLACK
6
CONTINUOUS
10
4.81526
20
-3.72343
11
4.81544
21
-3.72242
0
LINE
8
BLACK
6
CONTINUOUS
10
4.81544
20
-3.72242
11
4.81674
21
-3.72088
0
LINE
8
BLACK
6
CONTINUOUS
10
4.81674
20
-3.72088
11
4.81873
21
-3.72053
0
LINE
8
BLACK
6
CONTINUOUS
10
4.81873
20
-3.72053
11
4.82048
21
-3.72154
0
LINE
8
BLACK
6
CONTINUOUS
10
4.82048
20
-3.72154
11
4.82117
21
-3.72343
0
LINE
8
BLACK
6
CONTINUOUS
10
4.82117
20
-3.72343
11
4.82117
21
-3.74593
0
LINE
8
BLACK
6
CONTINUOUS
10
4.82117
20
-3.74593
11
4.82099
21
-3.74694
0
LINE
8
BLACK
6
CONTINUOUS
10
4.82099
20
-3.74694
11
4.81969
21
-3.74849
0
LINE
8
BLACK
6
CONTINUOUS
10
4.81969
20
-3.74849
11
4.8177
21
-3.74884
0
LINE
8
BLACK
6
CONTINUOUS
10
4.8177
20
-3.74884
11
4.81595
21
-3.74783
0
LINE
8
BLACK
6
CONTINUOUS
10
4.81595
20
-3.74783
11
4.81526
21
-3.74593
0
LINE
8
BLACK
6
CONTINUOUS
10
4.81526
20
-3.74593
11
4.81526
21
-3.73764
0
LINE
8
BLACK
6
CONTINUOUS
10
4.81526
20
-3.73764
11
4.77884
21
-3.73764
0
LINE
8
BLACK
6
CONTINUOUS
10
4.77884
20
-3.73764
11
4.77783
21
-3.73746
0
LINE
8
BLACK
6
CONTINUOUS
10
4.77783
20
-3.73746
11
4.7777
21
-3.73735
0
LINE
8
BLACK
6
CONTINUOUS
10
4.7777
20
-3.73735
11
4.77753
21
-3.73733
0
LINE
8
BLACK
6
CONTINUOUS
10
4.77753
20
-3.73733
11
4.77694
21
-3.73671
0
LINE
8
BLACK
6
CONTINUOUS
10
4.77694
20
-3.73671
11
4.77629
21
-3.73616
0
LINE
8
BLACK
6
CONTINUOUS
10
4.77629
20
-3.73616
11
4.77626
21
-3.73599
0
LINE
8
BLACK
6
CONTINUOUS
10
4.77626
20
-3.73599
11
4.77614
21
-3.73587
0
LINE
8
BLACK
6
CONTINUOUS
10
4.77614
20
-3.73587
11
4.77608
21
-3.73501
0
LINE
8
BLACK
6
CONTINUOUS
10
4.77608
20
-3.73501
11
4.77594
21
-3.73417
0
LINE
8
BLACK
6
CONTINUOUS
10
4.77594
20
-3.73417
11
4.77602
21
-3.73402
0
LINE
8
BLACK
6
CONTINUOUS
10
4.77602
20
-3.73402
11
4.77601
21
-3.73385
0
LINE
8
BLACK
6
CONTINUOUS
10
4.77601
20
-3.73385
11
4.77652
21
-3.73316
0
LINE
8
BLACK
6
CONTINUOUS
10
4.77652
20
-3.73316
11
4.77695
21
-3.73242
0
LINE
8
BLACK
6
CONTINUOUS
10
4.77695
20
-3.73242
11
4.7771
21
-3.73236
0
LINE
8
BLACK
6
CONTINUOUS
10
4.7771
20
-3.73236
11
4.77721
21
-3.73223
0
LINE
8
BLACK
6
CONTINUOUS
10
4.77721
20
-3.73223
11
4.78259
21
-3.72864
0
LINE
8
BLACK
6
CONTINUOUS
10
4.78259
20
-3.72864
11
4.78579
21
-3.72544
0
LINE
8
BLACK
6
CONTINUOUS
10
4.78579
20
-3.72544
11
4.78745
21
-3.72211
0
LINE
8
BLACK
6
CONTINUOUS
10
4.78745
20
-3.72211
11
4.78806
21
-3.72129
0
LINE
8
BLACK
6
CONTINUOUS
10
4.78806
20
-3.72129
11
4.78991
21
-3.72049
0
LINE
8
BLACK
6
CONTINUOUS
10
4.78991
20
-3.72049
11
4.79185
21
-3.72106
0
LINE
8
BLACK
6
CONTINUOUS
10
4.78111
20
-3.68779
11
4.7818
21
-3.68969
0
LINE
8
BLACK
6
CONTINUOUS
10
4.7818
20
-3.68969
11
4.7818
21
-3.69798
0
LINE
8
BLACK
6
CONTINUOUS
10
4.7818
20
-3.69798
11
4.81821
21
-3.69798
0
LINE
8
BLACK
6
CONTINUOUS
10
4.81821
20
-3.69798
11
4.81922
21
-3.69816
0
LINE
8
BLACK
6
CONTINUOUS
10
4.81922
20
-3.69816
11
4.82077
21
-3.69946
0
LINE
8
BLACK
6
CONTINUOUS
10
4.82077
20
-3.69946
11
4.82112
21
-3.70145
0
LINE
8
BLACK
6
CONTINUOUS
10
4.82112
20
-3.70145
11
4.82011
21
-3.7032
0
LINE
8
BLACK
6
CONTINUOUS
10
4.82011
20
-3.7032
11
4.81821
21
-3.70389
0
LINE
8
BLACK
6
CONTINUOUS
10
4.81821
20
-3.70389
11
4.7818
21
-3.70389
0
LINE
8
BLACK
6
CONTINUOUS
10
4.7818
20
-3.70389
11
4.7818
21
-3.71219
0
LINE
8
BLACK
6
CONTINUOUS
10
4.7818
20
-3.71219
11
4.78162
21
-3.7132
0
LINE
8
BLACK
6
CONTINUOUS
10
4.78162
20
-3.7132
11
4.78032
21
-3.71474
0
LINE
8
BLACK
6
CONTINUOUS
10
4.78032
20
-3.71474
11
4.77833
21
-3.71509
0
LINE
8
BLACK
6
CONTINUOUS
10
4.77833
20
-3.71509
11
4.77658
21
-3.71408
0
LINE
8
BLACK
6
CONTINUOUS
10
4.77658
20
-3.71408
11
4.77589
21
-3.71219
0
LINE
8
BLACK
6
CONTINUOUS
10
4.77589
20
-3.71219
11
4.77589
21
-3.68969
0
LINE
8
BLACK
6
CONTINUOUS
10
4.77589
20
-3.68969
11
4.77607
21
-3.68868
0
LINE
8
BLACK
6
CONTINUOUS
10
4.77607
20
-3.68868
11
4.77737
21
-3.68713
0
LINE
8
BLACK
6
CONTINUOUS
10
4.77737
20
-3.68713
11
4.77936
21
-3.68678
0
LINE
8
BLACK
6
CONTINUOUS
10
4.77936
20
-3.68678
11
4.78111
21
-3.68779
0
LINE
8
BLACK
6
CONTINUOUS
10
4.8186
20
-3.65306
11
4.81873
21
-3.65304
0
LINE
8
BLACK
6
CONTINUOUS
10
4.81873
20
-3.65304
11
4.81884
21
-3.6531
0
LINE
8
BLACK
6
CONTINUOUS
10
4.81884
20
-3.6531
11
4.81922
21
-3.65317
0
LINE
8
BLACK
6
CONTINUOUS
10
4.81922
20
-3.65317
11
4.81981
21
-3.65366
0
LINE
8
BLACK
6
CONTINUOUS
10
4.81981
20
-3.65366
11
4.82048
21
-3.65404
0
LINE
8
BLACK
6
CONTINUOUS
10
4.82048
20
-3.65404
11
4.82057
21
-3.6543
0
LINE
8
BLACK
6
CONTINUOUS
10
4.82057
20
-3.6543
11
4.82077
21
-3.65447
0
LINE
8
BLACK
6
CONTINUOUS
10
4.82077
20
-3.65447
11
4.8209
21
-3.65522
0
LINE
8
BLACK
6
CONTINUOUS
10
4.8209
20
-3.65522
11
4.82117
21
-3.65594
0
LINE
8
BLACK
6
CONTINUOUS
10
4.82117
20
-3.65594
11
4.82117
21
-3.67094
0
LINE
8
BLACK
6
CONTINUOUS
10
4.82117
20
-3.67094
11
4.82099
21
-3.67195
0
LINE
8
BLACK
6
CONTINUOUS
10
4.82099
20
-3.67195
11
4.82087
21
-3.67209
0
LINE
8
BLACK
6
CONTINUOUS
10
4.82087
20
-3.67209
11
4.82085
21
-3.67226
0
LINE
8
BLACK
6
CONTINUOUS
10
4.82085
20
-3.67226
11
4.81898
21
-3.67601
0
LINE
8
BLACK
6
CONTINUOUS
10
4.81898
20
-3.67601
11
4.81845
21
-3.67672
0
LINE
8
BLACK
6
CONTINUOUS
10
4.81845
20
-3.67672
11
4.81843
21
-3.67678
0
LINE
8
BLACK
6
CONTINUOUS
10
4.81843
20
-3.67678
11
4.81655
21
-3.67865
0
LINE
8
BLACK
6
CONTINUOUS
10
4.81655
20
-3.67865
11
4.81583
21
-3.67916
0
LINE
8
BLACK
6
CONTINUOUS
10
4.81583
20
-3.67916
11
4.81578
21
-3.67921
0
LINE
8
BLACK
6
CONTINUOUS
10
4.81578
20
-3.67921
11
4.81203
21
-3.68108
0
LINE
8
BLACK
6
CONTINUOUS
10
4.81203
20
-3.68108
11
4.81105
21
-3.68137
0
LINE
8
BLACK
6
CONTINUOUS
10
4.81105
20
-3.68137
11
4.81088
21
-3.68133
0
LINE
8
BLACK
6
CONTINUOUS
10
4.81088
20
-3.68133
11
4.81071
21
-3.68139
0
LINE
8
BLACK
6
CONTINUOUS
10
4.81071
20
-3.68139
11
4.80509
21
-3.68139
0
LINE
8
BLACK
6
CONTINUOUS
10
4.80509
20
-3.68139
11
4.80408
21
-3.68121
0
LINE
8
BLACK
6
CONTINUOUS
10
4.80408
20
-3.68121
11
4.80394
21
-3.6811
0
LINE
8
BLACK
6
CONTINUOUS
10
4.80394
20
-3.6811
11
4.80377
21
-3.68108
0
LINE
8
BLACK
6
CONTINUOUS
10
4.80377
20
-3.68108
11
4.80002
21
-3.67921
0
LINE
8
BLACK
6
CONTINUOUS
10
4.80002
20
-3.67921
11
4.79931
21
-3.67868
0
LINE
8
BLACK
6
CONTINUOUS
10
4.79931
20
-3.67868
11
4.79925
21
-3.67865
0
LINE
8
BLACK
6
CONTINUOUS
10
4.79925
20
-3.67865
11
4.79738
21
-3.67678
0
LINE
8
BLACK
6
CONTINUOUS
10
4.79738
20
-3.67678
11
4.79679
21
-3.67594
0
LINE
8
BLACK
6
CONTINUOUS
10
4.79679
20
-3.67594
11
4.79679
21
-3.67592
0
LINE
8
BLACK
6
CONTINUOUS
10
4.79679
20
-3.67592
11
4.79593
21
-3.67678
0
LINE
8
BLACK
6
CONTINUOUS
10
4.79593
20
-3.67678
11
4.79521
21
-3.67728
0
LINE
8
BLACK
6
CONTINUOUS
10
4.79521
20
-3.67728
11
4.79516
21
-3.67733
0
LINE
8
BLACK
6
CONTINUOUS
10
4.79516
20
-3.67733
11
4.79141
21
-3.67921
0
LINE
8
BLACK
6
CONTINUOUS
10
4.79141
20
-3.67921
11
4.79043
21
-3.6795
0
LINE
8
BLACK
6
CONTINUOUS
10
4.79043
20
-3.6795
11
4.79026
21
-3.67946
0
LINE
8
BLACK
6
CONTINUOUS
10
4.79026
20
-3.67946
11
4.79009
21
-3.67952
0
LINE
8
BLACK
6
CONTINUOUS
10
4.79009
20
-3.67952
11
4.78634
21
-3.67952
0
LINE
8
BLACK
6
CONTINUOUS
10
4.78634
20
-3.67952
11
4.78533
21
-3.67934
0
LINE
8
BLACK
6
CONTINUOUS
10
4.78533
20
-3.67934
11
4.7852
21
-3.67923
0
LINE
8
BLACK
6
CONTINUOUS
10
4.7852
20
-3.67923
11
4.78502
21
-3.67921
0
LINE
8
BLACK
6
CONTINUOUS
10
4.78502
20
-3.67921
11
4.78127
21
-3.67733
0
LINE
8
BLACK
6
CONTINUOUS
10
4.78127
20
-3.67733
11
4.78056
21
-3.67681
0
LINE
8
BLACK
6
CONTINUOUS
10
4.78056
20
-3.67681
11
4.7805
21
-3.67678
0
LINE
8
BLACK
6
CONTINUOUS
10
4.7805
20
-3.67678
11
4.77863
21
-3.6749
0
LINE
8
BLACK
6
CONTINUOUS
10
4.77863
20
-3.6749
11
4.77812
21
-3.67418
0
LINE
8
BLACK
6
CONTINUOUS
10
4.77812
20
-3.67418
11
4.77808
21
-3.67414
0
LINE
8
BLACK
6
CONTINUOUS
10
4.77808
20
-3.67414
11
4.7762
21
-3.67039
0
LINE
8
BLACK
6
CONTINUOUS
10
4.7762
20
-3.67039
11
4.77591
21
-3.6694
0
LINE
8
BLACK
6
CONTINUOUS
10
4.77591
20
-3.6694
11
4.77595
21
-3.66923
0
LINE
8
BLACK
6
CONTINUOUS
10
4.77595
20
-3.66923
11
4.77589
21
-3.66907
0
LINE
8
BLACK
6
CONTINUOUS
10
4.77589
20
-3.66907
11
4.77589
21
-3.65594
0
LINE
8
BLACK
6
CONTINUOUS
10
4.77589
20
-3.65594
11
4.77596
21
-3.65556
0
LINE
8
BLACK
6
CONTINUOUS
10
4.77596
20
-3.65556
11
4.77594
21
-3.65543
0
LINE
8
BLACK
6
CONTINUOUS
10
4.77594
20
-3.65543
11
4.776
21
-3.65532
0
LINE
8
BLACK
6
CONTINUOUS
10
4.776
20
-3.65532
11
4.77607
21
-3.65493
0
LINE
8
BLACK
6
CONTINUOUS
10
4.77607
20
-3.65493
11
4.77656
21
-3.65435
0
LINE
8
BLACK
6
CONTINUOUS
10
4.77656
20
-3.65435
11
4.77695
21
-3.65368
0
LINE
8
BLACK
6
CONTINUOUS
10
4.77695
20
-3.65368
11
4.7772
21
-3.65359
0
LINE
8
BLACK
6
CONTINUOUS
10
4.7772
20
-3.65359
11
4.77737
21
-3.65339
0
LINE
8
BLACK
6
CONTINUOUS
10
4.77737
20
-3.65339
11
4.77812
21
-3.65325
0
LINE
8
BLACK
6
CONTINUOUS
10
4.77812
20
-3.65325
11
4.77884
21
-3.65299
0
LINE
8
BLACK
6
CONTINUOUS
10
4.77884
20
-3.65299
11
4.81821
21
-3.65299
0
LINE
8
BLACK
6
CONTINUOUS
10
4.81821
20
-3.65299
11
4.8186
21
-3.65306
0
LINE
8
BLACK
6
CONTINUOUS
10
4.80054
20
-3.66859
11
4.80205
21
-3.6731
0
LINE
8
BLACK
6
CONTINUOUS
10
4.80205
20
-3.6731
11
4.80309
21
-3.67414
0
LINE
8
BLACK
6
CONTINUOUS
10
4.80309
20
-3.67414
11
4.80579
21
-3.67549
0
LINE
8
BLACK
6
CONTINUOUS
10
4.80579
20
-3.67549
11
4.81002
21
-3.67549
0
LINE
8
BLACK
6
CONTINUOUS
10
4.81002
20
-3.67549
11
4.81271
21
-3.67414
0
LINE
8
BLACK
6
CONTINUOUS
10
4.81271
20
-3.67414
11
4.81391
21
-3.67294
0
LINE
8
BLACK
6
CONTINUOUS
10
4.81391
20
-3.67294
11
4.81526
21
-3.67024
0
LINE
8
BLACK
6
CONTINUOUS
10
4.81526
20
-3.67024
11
4.81526
21
-3.6589
0
LINE
8
BLACK
6
CONTINUOUS
10
4.81526
20
-3.6589
11
4.80054
21
-3.6589
0
LINE
8
BLACK
6
CONTINUOUS
10
4.80054
20
-3.6589
11
4.80054
21
-3.66859
0
LINE
8
BLACK
6
CONTINUOUS
10
4.7818
20
-3.66837
11
4.78314
21
-3.67107
0
LINE
8
BLACK
6
CONTINUOUS
10
4.78314
20
-3.67107
11
4.78434
21
-3.67226
0
LINE
8
BLACK
6
CONTINUOUS
10
4.78434
20
-3.67226
11
4.78704
21
-3.67361
0
LINE
8
BLACK
6
CONTINUOUS
10
4.78704
20
-3.67361
11
4.78939
21
-3.67361
0
LINE
8
BLACK
6
CONTINUOUS
10
4.78939
20
-3.67361
11
4.79209
21
-3.67226
0
LINE
8
BLACK
6
CONTINUOUS
10
4.79209
20
-3.67226
11
4.79329
21
-3.67107
0
LINE
8
BLACK
6
CONTINUOUS
10
4.79329
20
-3.67107
11
4.79464
21
-3.66837
0
LINE
8
BLACK
6
CONTINUOUS
10
4.79464
20
-3.66837
11
4.79464
21
-3.6589
0
LINE
8
BLACK
6
CONTINUOUS
10
4.79464
20
-3.6589
11
4.7818
21
-3.6589
0
LINE
8
BLACK
6
CONTINUOUS
10
4.7818
20
-3.6589
11
4.7818
21
-3.66837
0
LINE
8
BLACK
6
CONTINUOUS
10
4.95236
20
-3.59528
11
4.95403
21
-3.59597
0
LINE
8
BLACK
6
CONTINUOUS
10
4.95403
20
-3.59597
11
4.95472
21
-3.59764
0
LINE
8
BLACK
6
CONTINUOUS
10
4.95472
20
-3.59764
11
4.95472
21
-3.65
0
LINE
8
BLACK
6
CONTINUOUS
10
4.95472
20
-3.65
11
4.95403
21
-3.65167
0
LINE
8
BLACK
6
CONTINUOUS
10
4.95403
20
-3.65167
11
4.95236
21
-3.65236
0
LINE
8
BLACK
6
CONTINUOUS
10
4.95236
20
-3.65236
11
4.95069
21
-3.65167
0
LINE
8
BLACK
6
CONTINUOUS
10
4.95069
20
-3.65167
11
4.95
21
-3.65
0
LINE
8
BLACK
6
CONTINUOUS
10
4.95
20
-3.65
11
4.95
21
-3.6
0
LINE
8
BLACK
6
CONTINUOUS
10
4.95
20
-3.6
11
4.9
21
-3.6
0
LINE
8
BLACK
6
CONTINUOUS
10
4.9
20
-3.6
11
4.89833
21
-3.59931
0
LINE
8
BLACK
6
CONTINUOUS
10
4.89833
20
-3.59931
11
4.89764
21
-3.59764
0
LINE
8
BLACK
6
CONTINUOUS
10
4.89764
20
-3.59764
11
4.89833
21
-3.59597
0
LINE
8
BLACK
6
CONTINUOUS
10
4.89833
20
-3.59597
11
4.9
21
-3.59528
0
LINE
8
BLACK
6
CONTINUOUS
10
4.9
20
-3.59528
11
4.95236
21
-3.59528
0
LINE
8
BLACK
6
CONTINUOUS
10
4.90167
20
-3.15109
11
4.90236
21
-3.15276
0
LINE
8
BLACK
6
CONTINUOUS
10
4.90236
20
-3.15276
11
4.90236
21
-3.19055
0
LINE
8
BLACK
6
CONTINUOUS
10
4.90236
20
-3.19055
11
4.95787
21
-3.19055
0
LINE
8
BLACK
6
CONTINUOUS
10
4.95787
20
-3.19055
11
4.95954
21
-3.19124
0
LINE
8
BLACK
6
CONTINUOUS
10
4.95954
20
-3.19124
11
4.96024
21
-3.19291
0
LINE
8
BLACK
6
CONTINUOUS
10
4.96024
20
-3.19291
11
4.96024
21
-3.40709
0
LINE
8
BLACK
6
CONTINUOUS
10
4.96024
20
-3.40709
11
4.95954
21
-3.40876
0
LINE
8
BLACK
6
CONTINUOUS
10
4.95954
20
-3.40876
11
4.95787
21
-3.40945
0
LINE
8
BLACK
6
CONTINUOUS
10
4.95787
20
-3.40945
11
4.90236
21
-3.40945
0
LINE
8
BLACK
6
CONTINUOUS
10
4.90236
20
-3.40945
11
4.90236
21
-3.44724
0
LINE
8
BLACK
6
CONTINUOUS
10
4.90236
20
-3.44724
11
4.90167
21
-3.44891
0
LINE
8
BLACK
6
CONTINUOUS
10
4.90167
20
-3.44891
11
4.9
21
-3.44961
0
LINE
8
BLACK
6
CONTINUOUS
10
4.9
20
-3.44961
11
4.89833
21
-3.44891
0
LINE
8
BLACK
6
CONTINUOUS
10
4.89833
20
-3.44891
11
4.89764
21
-3.44724
0
LINE
8
BLACK
6
CONTINUOUS
10
4.89764
20
-3.44724
11
4.89764
21
-3.40945
0
LINE
8
BLACK
6
CONTINUOUS
10
4.89764
20
-3.40945
11
4.84213
21
-3.40945
0
LINE
8
BLACK
6
CONTINUOUS
10
4.84213
20
-3.40945
11
4.84046
21
-3.40876
0
LINE
8
BLACK
6
CONTINUOUS
10
4.84046
20
-3.40876
11
4.83976
21
-3.40709
0
LINE
8
BLACK
6
CONTINUOUS
10
4.83976
20
-3.40709
11
4.83976
21
-3.19291
0
LINE
8
BLACK
6
CONTINUOUS
10
4.83976
20
-3.19291
11
4.84046
21
-3.19124
0
LINE
8
BLACK
6
CONTINUOUS
10
4.84046
20
-3.19124
11
4.84213
21
-3.19055
0
LINE
8
BLACK
6
CONTINUOUS
10
4.84213
20
-3.19055
11
4.89764
21
-3.19055
0
LINE
8
BLACK
6
CONTINUOUS
10
4.89764
20
-3.19055
11
4.89764
21
-3.15276
0
LINE
8
BLACK
6
CONTINUOUS
10
4.89764
20
-3.15276
11
4.89833
21
-3.15109
0
LINE
8
BLACK
6
CONTINUOUS
10
4.89833
20
-3.15109
11
4.9
21
-3.15039
0
LINE
8
BLACK
6
CONTINUOUS
10
4.9
20
-3.15039
11
4.90167
21
-3.15109
0
LINE
8
BLACK
6
CONTINUOUS
10
4.84449
20
-3.23543
11
4.84449
21
-3.40472
0
LINE
8
BLACK
6
CONTINUOUS
10
4.84449
20
-3.40472
11
4.95551
21
-3.40472
0
LINE
8
BLACK
6
CONTINUOUS
10
4.95551
20
-3.40472
11
4.95551
21
-3.23543
0
LINE
8
BLACK
6
CONTINUOUS
10
4.95551
20
-3.23543
11
4.84449
21
-3.23543
0
LINE
8
BLACK
6
CONTINUOUS
10
4.9
20
-3.19528
11
4.84449
21
-3.19528
0
LINE
8
BLACK
6
CONTINUOUS
10
4.84449
20
-3.19528
11
4.84449
21
-3.22126
0
LINE
8
BLACK
6
CONTINUOUS
10
4.84449
20
-3.22126
11
4.95551
21
-3.22126
0
LINE
8
BLACK
6
CONTINUOUS
10
4.95551
20
-3.22126
11
4.95551
21
-3.19528
0
LINE
8
BLACK
6
CONTINUOUS
10
4.95551
20
-3.19528
11
4.9
21
-3.19528
0
LINE
8
BLACK
6
CONTINUOUS
10
4.79185
20
-3.30606
11
4.79296
21
-3.30775
0
LINE
8
BLACK
6
CONTINUOUS
10
4.79296
20
-3.30775
11
4.79273
21
-3.30976
0
LINE
8
BLACK
6
CONTINUOUS
10
4.79273
20
-3.30976
11
4.79086
21
-3.31351
0
LINE
8
BLACK
6
CONTINUOUS
10
4.79086
20
-3.31351
11
4.79033
21
-3.31422
0
LINE
8
BLACK
6
CONTINUOUS
10
4.79033
20
-3.31422
11
4.79031
21
-3.31427
0
LINE
8
BLACK
6
CONTINUOUS
10
4.79031
20
-3.31427
11
4.78785
21
-3.31673
0
LINE
8
BLACK
6
CONTINUOUS
10
4.78785
20
-3.31673
11
4.81526
21
-3.31673
0
LINE
8
BLACK
6
CONTINUOUS
10
4.81526
20
-3.31673
11
4.81526
21
-3.30844
0
LINE
8
BLACK
6
CONTINUOUS
10
4.81526
20
-3.30844
11
4.81544
21
-3.30743
0
LINE
8
BLACK
6
CONTINUOUS
10
4.81544
20
-3.30743
11
4.81674
21
-3.30588
0
LINE
8
BLACK
6
CONTINUOUS
10
4.81674
20
-3.30588
11
4.81873
21
-3.30553
0
LINE
8
BLACK
6
CONTINUOUS
10
4.81873
20
-3.30553
11
4.82048
21
-3.30654
0
LINE
8
BLACK
6
CONTINUOUS
10
4.82048
20
-3.30654
11
4.82117
21
-3.30844
0
LINE
8
BLACK
6
CONTINUOUS
10
4.82117
20
-3.30844
11
4.82117
21
-3.33093
0
LINE
8
BLACK
6
CONTINUOUS
10
4.82117
20
-3.33093
11
4.82099
21
-3.33194
0
LINE
8
BLACK
6
CONTINUOUS
10
4.82099
20
-3.33194
11
4.81969
21
-3.33349
0
LINE
8
BLACK
6
CONTINUOUS
10
4.81969
20
-3.33349
11
4.8177
21
-3.33384
0
LINE
8
BLACK
6
CONTINUOUS
10
4.8177
20
-3.33384
11
4.81595
21
-3.33283
0
LINE
8
BLACK
6
CONTINUOUS
10
4.81595
20
-3.33283
11
4.81526
21
-3.33093
0
LINE
8
BLACK
6
CONTINUOUS
10
4.81526
20
-3.33093
11
4.81526
21
-3.32264
0
LINE
8
BLACK
6
CONTINUOUS
10
4.81526
20
-3.32264
11
4.77884
21
-3.32264
0
LINE
8
BLACK
6
CONTINUOUS
10
4.77884
20
-3.32264
11
4.77783
21
-3.32246
0
LINE
8
BLACK
6
CONTINUOUS
10
4.77783
20
-3.32246
11
4.7777
21
-3.32235
0
LINE
8
BLACK
6
CONTINUOUS
10
4.7777
20
-3.32235
11
4.77753
21
-3.32233
0
LINE
8
BLACK
6
CONTINUOUS
10
4.77753
20
-3.32233
11
4.77694
21
-3.32171
0
LINE
8
BLACK
6
CONTINUOUS
10
4.77694
20
-3.32171
11
4.77629
21
-3.32116
0
LINE
8
BLACK
6
CONTINUOUS
10
4.77629
20
-3.32116
11
4.77626
21
-3.32099
0
LINE
8
BLACK
6
CONTINUOUS
10
4.77626
20
-3.32099
11
4.77614
21
-3.32087
0
LINE
8
BLACK
6
CONTINUOUS
10
4.77614
20
-3.32087
11
4.77608
21
-3.32002
0
LINE
8
BLACK
6
CONTINUOUS
10
4.77608
20
-3.32002
11
4.77594
21
-3.31917
0
LINE
8
BLACK
6
CONTINUOUS
10
4.77594
20
-3.31917
11
4.77602
21
-3.31903
0
LINE
8
BLACK
6
CONTINUOUS
10
4.77602
20
-3.31903
11
4.77601
21
-3.31886
0
LINE
8
BLACK
6
CONTINUOUS
10
4.77601
20
-3.31886
11
4.77652
21
-3.31817
0
LINE
8
BLACK
6
CONTINUOUS
10
4.77652
20
-3.31817
11
4.77695
21
-3.31742
0
LINE
8
BLACK
6
CONTINUOUS
10
4.77695
20
-3.31742
11
4.7771
21
-3.31737
0
LINE
8
BLACK
6
CONTINUOUS
10
4.7771
20
-3.31737
11
4.77721
21
-3.31723
0
LINE
8
BLACK
6
CONTINUOUS
10
4.77721
20
-3.31723
11
4.78259
21
-3.31364
0
LINE
8
BLACK
6
CONTINUOUS
10
4.78259
20
-3.31364
11
4.78579
21
-3.31044
0
LINE
8
BLACK
6
CONTINUOUS
10
4.78579
20
-3.31044
11
4.78745
21
-3.30712
0
LINE
8
BLACK
6
CONTINUOUS
10
4.78745
20
-3.30712
11
4.78806
21
-3.30629
0
LINE
8
BLACK
6
CONTINUOUS
10
4.78806
20
-3.30629
11
4.78991
21
-3.30549
0
LINE
8
BLACK
6
CONTINUOUS
10
4.78991
20
-3.30549
11
4.79185
21
-3.30606
0
LINE
8
BLACK
6
CONTINUOUS
10
4.8186
20
-3.26806
11
4.81873
21
-3.26803
0
LINE
8
BLACK
6
CONTINUOUS
10
4.81873
20
-3.26803
11
4.81884
21
-3.2681
0
LINE
8
BLACK
6
CONTINUOUS
10
4.81884
20
-3.2681
11
4.81922
21
-3.26817
0
LINE
8
BLACK
6
CONTINUOUS
10
4.81922
20
-3.26817
11
4.81981
21
-3.26866
0
LINE
8
BLACK
6
CONTINUOUS
10
4.81981
20
-3.26866
11
4.82048
21
-3.26904
0
LINE
8
BLACK
6
CONTINUOUS
10
4.82048
20
-3.26904
11
4.82057
21
-3.26929
0
LINE
8
BLACK
6
CONTINUOUS
10
4.82057
20
-3.26929
11
4.82077
21
-3.26946
0
LINE
8
BLACK
6
CONTINUOUS
10
4.82077
20
-3.26946
11
4.8209
21
-3.27022
0
LINE
8
BLACK
6
CONTINUOUS
10
4.8209
20
-3.27022
11
4.82117
21
-3.27094
0
LINE
8
BLACK
6
CONTINUOUS
10
4.82117
20
-3.27094
11
4.82117
21
-3.28031
0
LINE
8
BLACK
6
CONTINUOUS
10
4.82117
20
-3.28031
11
4.82101
21
-3.28118
0
LINE
8
BLACK
6
CONTINUOUS
10
4.82101
20
-3.28118
11
4.82101
21
-3.28125
0
LINE
8
BLACK
6
CONTINUOUS
10
4.82101
20
-3.28125
11
4.81914
21
-3.28687
0
LINE
8
BLACK
6
CONTINUOUS
10
4.81914
20
-3.28687
11
4.81865
21
-3.28777
0
LINE
8
BLACK
6
CONTINUOUS
10
4.81865
20
-3.28777
11
4.8185
21
-3.28787
0
LINE
8
BLACK
6
CONTINUOUS
10
4.8185
20
-3.28787
11
4.81843
21
-3.28803
0
LINE
8
BLACK
6
CONTINUOUS
10
4.81843
20
-3.28803
11
4.81468
21
-3.29178
0
LINE
8
BLACK
6
CONTINUOUS
10
4.81468
20
-3.29178
11
4.81395
21
-3.29228
0
LINE
8
BLACK
6
CONTINUOUS
10
4.81395
20
-3.29228
11
4.81391
21
-3.29233
0
LINE
8
BLACK
6
CONTINUOUS
10
4.81391
20
-3.29233
11
4.81016
21
-3.2942
0
LINE
8
BLACK
6
CONTINUOUS
10
4.81016
20
-3.2942
11
4.80967
21
-3.29435
0
LINE
8
BLACK
6
CONTINUOUS
10
4.80967
20
-3.29435
11
4.80956
21
-3.29443
0
LINE
8
BLACK
6
CONTINUOUS
10
4.80956
20
-3.29443
11
4.80206
21
-3.2963
0
LINE
8
BLACK
6
CONTINUOUS
10
4.80206
20
-3.2963
11
4.80147
21
-3.29634
0
LINE
8
BLACK
6
CONTINUOUS
10
4.80147
20
-3.29634
11
4.80134
21
-3.29639
0
LINE
8
BLACK
6
CONTINUOUS
10
4.80134
20
-3.29639
11
4.79572
21
-3.29639
0
LINE
8
BLACK
6
CONTINUOUS
10
4.79572
20
-3.29639
11
4.79514
21
-3.29629
0
LINE
8
BLACK
6
CONTINUOUS
10
4.79514
20
-3.29629
11
4.795
21
-3.2963
0
LINE
8
BLACK
6
CONTINUOUS
10
4.795
20
-3.2963
11
4.7875
21
-3.29443
0
LINE
8
BLACK
6
CONTINUOUS
10
4.7875
20
-3.29443
11
4.78704
21
-3.29422
0
LINE
8
BLACK
6
CONTINUOUS
10
4.78704
20
-3.29422
11
4.7869
21
-3.2942
0
LINE
8
BLACK
6
CONTINUOUS
10
4.7869
20
-3.2942
11
4.78315
21
-3.29233
0
LINE
8
BLACK
6
CONTINUOUS
10
4.78315
20
-3.29233
11
4.78244
21
-3.2918
0
LINE
8
BLACK
6
CONTINUOUS
10
4.78244
20
-3.2918
11
4.78238
21
-3.29178
0
LINE
8
BLACK
6
CONTINUOUS
10
4.78238
20
-3.29178
11
4.77863
21
-3.28803
0
LINE
8
BLACK
6
CONTINUOUS
10
4.77863
20
-3.28803
11
4.77804
21
-3.28719
0
LINE
8
BLACK
6
CONTINUOUS
10
4.77804
20
-3.28719
11
4.77803
21
-3.28701
0
LINE
8
BLACK
6
CONTINUOUS
10
4.77803
20
-3.28701
11
4.77792
21
-3.28687
0
LINE
8
BLACK
6
CONTINUOUS
10
4.77792
20
-3.28687
11
4.77604
21
-3.28125
0
LINE
8
BLACK
6
CONTINUOUS
10
4.77604
20
-3.28125
11
4.77591
21
-3.28038
0
LINE
8
BLACK
6
CONTINUOUS
10
4.77591
20
-3.28038
11
4.77589
21
-3.28031
0
LINE
8
BLACK
6
CONTINUOUS
10
4.77589
20
-3.28031
11
4.77589
21
-3.27094
0
LINE
8
BLACK
6
CONTINUOUS
10
4.77589
20
-3.27094
11
4.77596
21
-3.27056
0
LINE
8
BLACK
6
CONTINUOUS
10
4.77596
20
-3.27056
11
4.77594
21
-3.27043
0
LINE
8
BLACK
6
CONTINUOUS
10
4.77594
20
-3.27043
11
4.776
21
-3.27031
0
LINE
8
BLACK
6
CONTINUOUS
10
4.776
20
-3.27031
11
4.77607
21
-3.26993
0
LINE
8
BLACK
6
CONTINUOUS
10
4.77607
20
-3.26993
11
4.77656
21
-3.26934
0
LINE
8
BLACK
6
CONTINUOUS
10
4.77656
20
-3.26934
11
4.77695
21
-3.26868
0
LINE
8
BLACK
6
CONTINUOUS
10
4.77695
20
-3.26868
11
4.7772
21
-3.26859
0
LINE
8
BLACK
6
CONTINUOUS
10
4.7772
20
-3.26859
11
4.77737
21
-3.26838
0
LINE
8
BLACK
6
CONTINUOUS
10
4.77737
20
-3.26838
11
4.77812
21
-3.26825
0
LINE
8
BLACK
6
CONTINUOUS
10
4.77812
20
-3.26825
11
4.77884
21
-3.26799
0
LINE
8
BLACK
6
CONTINUOUS
10
4.77884
20
-3.26799
11
4.81821
21
-3.26799
0
LINE
8
BLACK
6
CONTINUOUS
10
4.81821
20
-3.26799
11
4.8186
21
-3.26806
0
LINE
8
BLACK
6
CONTINUOUS
10
4.7818
20
-3.27984
11
4.7833
21
-3.28434
0
LINE
8
BLACK
6
CONTINUOUS
10
4.7833
20
-3.28434
11
4.78622
21
-3.28726
0
LINE
8
BLACK
6
CONTINUOUS
10
4.78622
20
-3.28726
11
4.78925
21
-3.28878
0
LINE
8
BLACK
6
CONTINUOUS
10
4.78925
20
-3.28878
11
4.79608
21
-3.29049
0
LINE
8
BLACK
6
CONTINUOUS
10
4.79608
20
-3.29049
11
4.80098
21
-3.29049
0
LINE
8
BLACK
6
CONTINUOUS
10
4.80098
20
-3.29049
11
4.80781
21
-3.28878
0
LINE
8
BLACK
6
CONTINUOUS
10
4.80781
20
-3.28878
11
4.81084
21
-3.28726
0
LINE
8
BLACK
6
CONTINUOUS
10
4.81084
20
-3.28726
11
4.81376
21
-3.28434
0
LINE
8
BLACK
6
CONTINUOUS
10
4.81376
20
-3.28434
11
4.81526
21
-3.27984
0
LINE
8
BLACK
6
CONTINUOUS
10
4.81526
20
-3.27984
11
4.81526
21
-3.27389
0
LINE
8
BLACK
6
CONTINUOUS
10
4.81526
20
-3.27389
11
4.7818
21
-3.27389
0
LINE
8
BLACK
6
CONTINUOUS
10
4.7818
20
-3.27389
11
4.7818
21
-3.27984
0
LINE
8
BLACK
6
CONTINUOUS
10
4.81922
20
-3.08691
11
4.82077
21
-3.08821
0
LINE
8
BLACK
6
CONTINUOUS
10
4.82077
20
-3.08821
11
4.82112
21
-3.0902
0
LINE
8
BLACK
6
CONTINUOUS
10
4.82112
20
-3.0902
11
4.82011
21
-3.09195
0
LINE
8
BLACK
6
CONTINUOUS
10
4.82011
20
-3.09195
11
4.81821
21
-3.09264
0
LINE
8
BLACK
6
CONTINUOUS
10
4.81821
20
-3.09264
11
4.80256
21
-3.09264
0
LINE
8
BLACK
6
CONTINUOUS
10
4.80256
20
-3.09264
11
4.80021
21
-3.09499
0
LINE
8
BLACK
6
CONTINUOUS
10
4.80021
20
-3.09499
11
4.81998
21
-3.10982
0
LINE
8
BLACK
6
CONTINUOUS
10
4.81998
20
-3.10982
11
4.82069
21
-3.11057
0
LINE
8
BLACK
6
CONTINUOUS
10
4.82069
20
-3.11057
11
4.82114
21
-3.11254
0
LINE
8
BLACK
6
CONTINUOUS
10
4.82114
20
-3.11254
11
4.82023
21
-3.11434
0
LINE
8
BLACK
6
CONTINUOUS
10
4.82023
20
-3.11434
11
4.81837
21
-3.11513
0
LINE
8
BLACK
6
CONTINUOUS
10
4.81837
20
-3.11513
11
4.81644
21
-3.11455
0
LINE
8
BLACK
6
CONTINUOUS
10
4.81644
20
-3.11455
11
4.79599
21
-3.09921
0
LINE
8
BLACK
6
CONTINUOUS
10
4.79599
20
-3.09921
11
4.78093
21
-3.11427
0
LINE
8
BLACK
6
CONTINUOUS
10
4.78093
20
-3.11427
11
4.78009
21
-3.11486
0
LINE
8
BLACK
6
CONTINUOUS
10
4.78009
20
-3.11486
11
4.77808
21
-3.11504
0
LINE
8
BLACK
6
CONTINUOUS
10
4.77808
20
-3.11504
11
4.77642
21
-3.11388
0
LINE
8
BLACK
6
CONTINUOUS
10
4.77642
20
-3.11388
11
4.7759
21
-3.11193
0
LINE
8
BLACK
6
CONTINUOUS
10
4.7759
20
-3.11193
11
4.77676
21
-3.1101
0
LINE
8
BLACK
6
CONTINUOUS
10
4.77676
20
-3.1101
11
4.79421
21
-3.09264
0
LINE
8
BLACK
6
CONTINUOUS
10
4.79421
20
-3.09264
11
4.77884
21
-3.09264
0
LINE
8
BLACK
6
CONTINUOUS
10
4.77884
20
-3.09264
11
4.77783
21
-3.09246
0
LINE
8
BLACK
6
CONTINUOUS
10
4.77783
20
-3.09246
11
4.77629
21
-3.09117
0
LINE
8
BLACK
6
CONTINUOUS
10
4.77629
20
-3.09117
11
4.77594
21
-3.08918
0
LINE
8
BLACK
6
CONTINUOUS
10
4.77594
20
-3.08918
11
4.77695
21
-3.08743
0
LINE
8
BLACK
6
CONTINUOUS
10
4.77695
20
-3.08743
11
4.77884
21
-3.08674
0
LINE
8
BLACK
6
CONTINUOUS
10
4.77884
20
-3.08674
11
4.81821
21
-3.08674
0
LINE
8
BLACK
6
CONTINUOUS
10
4.81821
20
-3.08674
11
4.81922
21
-3.08691
0
LINE
8
BLACK
6
CONTINUOUS
10
4.99281
20
-2.62881
11
4.9935
21
-2.63071
0
LINE
8
BLACK
6
CONTINUOUS
10
4.9935
20
-2.63071
11
4.9935
21
-2.71831
0
LINE
8
BLACK
6
CONTINUOUS
10
4.9935
20
-2.71831
11
5.02
21
-2.71831
0
LINE
8
BLACK
6
CONTINUOUS
10
5.02
20
-2.71831
11
5.02038
21
-2.71837
0
LINE
8
BLACK
6
CONTINUOUS
10
5.02038
20
-2.71837
11
5.02051
21
-2.71835
0
LINE
8
BLACK
6
CONTINUOUS
10
5.02051
20
-2.71835
11
5.02063
21
-2.71842
0
LINE
8
BLACK
6
CONTINUOUS
10
5.02063
20
-2.71842
11
5.02101
21
-2.71849
0
LINE
8
BLACK
6
CONTINUOUS
10
5.02101
20
-2.71849
11
5.0216
21
-2.71898
0
LINE
8
BLACK
6
CONTINUOUS
10
5.0216
20
-2.71898
11
5.02226
21
-2.71936
0
LINE
8
BLACK
6
CONTINUOUS
10
5.02226
20
-2.71936
11
5.02235
21
-2.71961
0
LINE
8
BLACK
6
CONTINUOUS
10
5.02235
20
-2.71961
11
5.02256
21
-2.71978
0
LINE
8
BLACK
6
CONTINUOUS
10
5.02256
20
-2.71978
11
5.02269
21
-2.72054
0
LINE
8
BLACK
6
CONTINUOUS
10
5.02269
20
-2.72054
11
5.02295
21
-2.72126
0
LINE
8
BLACK
6
CONTINUOUS
10
5.02295
20
-2.72126
11
5.02295
21
-2.80126
0
LINE
8
BLACK
6
CONTINUOUS
10
5.02295
20
-2.80126
11
5.02289
21
-2.80164
0
LINE
8
BLACK
6
CONTINUOUS
10
5.02289
20
-2.80164
11
5.02291
21
-2.80177
0
LINE
8
BLACK
6
CONTINUOUS
10
5.02291
20
-2.80177
11
5.02284
21
-2.80189
0
LINE
8
BLACK
6
CONTINUOUS
10
5.02284
20
-2.80189
11
5.02277
21
-2.80227
0
LINE
8
BLACK
6
CONTINUOUS
10
5.02277
20
-2.80227
11
5.02228
21
-2.80286
0
LINE
8
BLACK
6
CONTINUOUS
10
5.02228
20
-2.80286
11
5.0219
21
-2.80352
0
LINE
8
BLACK
6
CONTINUOUS
10
5.0219
20
-2.80352
11
5.02165
21
-2.80361
0
LINE
8
BLACK
6
CONTINUOUS
10
5.02165
20
-2.80361
11
5.02148
21
-2.80382
0
LINE
8
BLACK
6
CONTINUOUS
10
5.02148
20
-2.80382
11
5.02072
21
-2.80395
0
LINE
8
BLACK
6
CONTINUOUS
10
5.02072
20
-2.80395
11
5.02
21
-2.80421
0
LINE
8
BLACK
6
CONTINUOUS
10
5.02
20
-2.80421
11
4.9935
21
-2.80421
0
LINE
8
BLACK
6
CONTINUOUS
10
4.9935
20
-2.80421
11
4.9935
21
-2.96929
0
LINE
8
BLACK
6
CONTINUOUS
10
4.9935
20
-2.96929
11
4.99333
21
-2.9703
0
LINE
8
BLACK
6
CONTINUOUS
10
4.99333
20
-2.9703
11
4.99203
21
-2.97185
0
LINE
8
BLACK
6
CONTINUOUS
10
4.99203
20
-2.97185
11
4.99004
21
-2.9722
0
LINE
8
BLACK
6
CONTINUOUS
10
4.99004
20
-2.9722
11
4.98829
21
-2.97119
0
LINE
8
BLACK
6
CONTINUOUS
10
4.98829
20
-2.97119
11
4.9876
21
-2.96929
0
LINE
8
BLACK
6
CONTINUOUS
10
4.9876
20
-2.96929
11
4.9876
21
-2.80126
0
LINE
8
BLACK
6
CONTINUOUS
10
4.9876
20
-2.80126
11
4.98767
21
-2.80088
0
LINE
8
BLACK
6
CONTINUOUS
10
4.98767
20
-2.80088
11
4.98764
21
-2.80075
0
LINE
8
BLACK
6
CONTINUOUS
10
4.98764
20
-2.80075
11
4.98771
21
-2.80063
0
LINE
8
BLACK
6
CONTINUOUS
10
4.98771
20
-2.80063
11
4.98778
21
-2.80025
0
LINE
8
BLACK
6
CONTINUOUS
10
4.98778
20
-2.80025
11
4.98827
21
-2.79966
0
LINE
8
BLACK
6
CONTINUOUS
10
4.98827
20
-2.79966
11
4.98865
21
-2.799
0
LINE
8
BLACK
6
CONTINUOUS
10
4.98865
20
-2.799
11
4.9889
21
-2.79891
0
LINE
8
BLACK
6
CONTINUOUS
10
4.9889
20
-2.79891
11
4.98907
21
-2.7987
0
LINE
8
BLACK
6
CONTINUOUS
10
4.98907
20
-2.7987
11
4.98983
21
-2.79857
0
LINE
8
BLACK
6
CONTINUOUS
10
4.98983
20
-2.79857
11
4.99055
21
-2.79831
0
LINE
8
BLACK
6
CONTINUOUS
10
4.99055
20
-2.79831
11
5.01705
21
-2.79831
0
LINE
8
BLACK
6
CONTINUOUS
10
5.01705
20
-2.79831
11
5.01705
21
-2.72421
0
LINE
8
BLACK
6
CONTINUOUS
10
5.01705
20
-2.72421
11
4.99055
21
-2.72421
0
LINE
8
BLACK
6
CONTINUOUS
10
4.99055
20
-2.72421
11
4.99017
21
-2.72414
0
LINE
8
BLACK
6
CONTINUOUS
10
4.99017
20
-2.72414
11
4.99004
21
-2.72417
0
LINE
8
BLACK
6
CONTINUOUS
10
4.99004
20
-2.72417
11
4.98992
21
-2.7241
0
LINE
8
BLACK
6
CONTINUOUS
10
4.98992
20
-2.7241
11
4.98954
21
-2.72403
0
LINE
8
BLACK
6
CONTINUOUS
10
4.98954
20
-2.72403
11
4.98895
21
-2.72354
0
LINE
8
BLACK
6
CONTINUOUS
10
4.98895
20
-2.72354
11
4.98829
21
-2.72316
0
LINE
8
BLACK
6
CONTINUOUS
10
4.98829
20
-2.72316
11
4.9882
21
-2.72291
0
LINE
8
BLACK
6
CONTINUOUS
10
4.9882
20
-2.72291
11
4.98799
21
-2.72274
0
LINE
8
BLACK
6
CONTINUOUS
10
4.98799
20
-2.72274
11
4.98786
21
-2.72198
0
LINE
8
BLACK
6
CONTINUOUS
10
4.98786
20
-2.72198
11
4.9876
21
-2.72126
0
LINE
8
BLACK
6
CONTINUOUS
10
4.9876
20
-2.72126
11
4.9876
21
-2.63071
0
LINE
8
BLACK
6
CONTINUOUS
10
4.9876
20
-2.63071
11
4.98778
21
-2.6297
0
LINE
8
BLACK
6
CONTINUOUS
10
4.98778
20
-2.6297
11
4.98907
21
-2.62815
0
LINE
8
BLACK
6
CONTINUOUS
10
4.98907
20
-2.62815
11
4.99106
21
-2.6278
0
LINE
8
BLACK
6
CONTINUOUS
10
4.99106
20
-2.6278
11
4.99281
21
-2.62881
0
LINE
8
BLACK
6
CONTINUOUS
10
4.81171
20
-2.62881
11
4.8124
21
-2.63071
0
LINE
8
BLACK
6
CONTINUOUS
10
4.8124
20
-2.63071
11
4.8124
21
-2.96929
0
LINE
8
BLACK
6
CONTINUOUS
10
4.8124
20
-2.96929
11
4.81222
21
-2.9703
0
LINE
8
BLACK
6
CONTINUOUS
10
4.81222
20
-2.9703
11
4.81093
21
-2.97185
0
LINE
8
BLACK
6
CONTINUOUS
10
4.81093
20
-2.97185
11
4.80894
21
-2.9722
0
LINE
8
BLACK
6
CONTINUOUS
10
4.80894
20
-2.9722
11
4.80719
21
-2.97119
0
LINE
8
BLACK
6
CONTINUOUS
10
4.80719
20
-2.97119
11
4.8065
21
-2.96929
0
LINE
8
BLACK
6
CONTINUOUS
10
4.8065
20
-2.96929
11
4.8065
21
-2.63071
0
LINE
8
BLACK
6
CONTINUOUS
10
4.8065
20
-2.63071
11
4.80667
21
-2.6297
0
LINE
8
BLACK
6
CONTINUOUS
10
4.80667
20
-2.6297
11
4.80797
21
-2.62815
0
LINE
8
BLACK
6
CONTINUOUS
10
4.80797
20
-2.62815
11
4.80996
21
-2.6278
0
LINE
8
BLACK
6
CONTINUOUS
10
4.80996
20
-2.6278
11
4.81171
21
-2.62881
0
LINE
8
BLACK
6
CONTINUOUS
10
4.75012
20
-2.804
11
4.75123
21
-2.80569
0
LINE
8
BLACK
6
CONTINUOUS
10
4.75123
20
-2.80569
11
4.751
21
-2.80769
0
LINE
8
BLACK
6
CONTINUOUS
10
4.751
20
-2.80769
11
4.74913
21
-2.81144
0
LINE
8
BLACK
6
CONTINUOUS
10
4.74913
20
-2.81144
11
4.7486
21
-2.81215
0
LINE
8
BLACK
6
CONTINUOUS
10
4.7486
20
-2.81215
11
4.74857
21
-2.81221
0
LINE
8
BLACK
6
CONTINUOUS
10
4.74857
20
-2.81221
11
4.74611
21
-2.81467
0
LINE
8
BLACK
6
CONTINUOUS
10
4.74611
20
-2.81467
11
4.77353
21
-2.81467
0
LINE
8
BLACK
6
CONTINUOUS
10
4.77353
20
-2.81467
11
4.77353
21
-2.80637
0
LINE
8
BLACK
6
CONTINUOUS
10
4.77353
20
-2.80637
11
4.77371
21
-2.80536
0
LINE
8
BLACK
6
CONTINUOUS
10
4.77371
20
-2.80536
11
4.775
21
-2.80382
0
LINE
8
BLACK
6
CONTINUOUS
10
4.775
20
-2.80382
11
4.77699
21
-2.80347
0
LINE
8
BLACK
6
CONTINUOUS
10
4.77699
20
-2.80347
11
4.77874
21
-2.80448
0
LINE
8
BLACK
6
CONTINUOUS
10
4.77874
20
-2.80448
11
4.77943
21
-2.80637
0
LINE
8
BLACK
6
CONTINUOUS
10
4.77943
20
-2.80637
11
4.77943
21
-2.82887
0
LINE
8
BLACK
6
CONTINUOUS
10
4.77943
20
-2.82887
11
4.77926
21
-2.82988
0
LINE
8
BLACK
6
CONTINUOUS
10
4.77926
20
-2.82988
11
4.77796
21
-2.83143
0
LINE
8
BLACK
6
CONTINUOUS
10
4.77796
20
-2.83143
11
4.77597
21
-2.83178
0
LINE
8
BLACK
6
CONTINUOUS
10
4.77597
20
-2.83178
11
4.77422
21
-2.83077
0
LINE
8
BLACK
6
CONTINUOUS
10
4.77422
20
-2.83077
11
4.77353
21
-2.82887
0
LINE
8
BLACK
6
CONTINUOUS
10
4.77353
20
-2.82887
11
4.77353
21
-2.82058
0
LINE
8
BLACK
6
CONTINUOUS
10
4.77353
20
-2.82058
11
4.73711
21
-2.82058
0
LINE
8
BLACK
6
CONTINUOUS
10
4.73711
20
-2.82058
11
4.7361
21
-2.8204
0
LINE
8
BLACK
6
CONTINUOUS
10
4.7361
20
-2.8204
11
4.73597
21
-2.82029
0
LINE
8
BLACK
6
CONTINUOUS
10
4.73597
20
-2.82029
11
4.7358
21
-2.82027
0
LINE
8
BLACK
6
CONTINUOUS
10
4.7358
20
-2.82027
11
4.73521
21
-2.81965
0
LINE
8
BLACK
6
CONTINUOUS
10
4.73521
20
-2.81965
11
4.73455
21
-2.8191
0
LINE
8
BLACK
6
CONTINUOUS
10
4.73455
20
-2.8191
11
4.73452
21
-2.81893
0
LINE
8
BLACK
6
CONTINUOUS
10
4.73452
20
-2.81893
11
4.73441
21
-2.81881
0
LINE
8
BLACK
6
CONTINUOUS
10
4.73441
20
-2.81881
11
4.73435
21
-2.81795
0
LINE
8
BLACK
6
CONTINUOUS
10
4.73435
20
-2.81795
11
4.7342
21
-2.81711
0
LINE
8
BLACK
6
CONTINUOUS
10
4.7342
20
-2.81711
11
4.73429
21
-2.81696
0
LINE
8
BLACK
6
CONTINUOUS
10
4.73429
20
-2.81696
11
4.73428
21
-2.81679
0
LINE
8
BLACK
6
CONTINUOUS
10
4.73428
20
-2.81679
11
4.73478
21
-2.8161
0
LINE
8
BLACK
6
CONTINUOUS
10
4.73478
20
-2.8161
11
4.73521
21
-2.81536
0
LINE
8
BLACK
6
CONTINUOUS
10
4.73521
20
-2.81536
11
4.73537
21
-2.8153
0
LINE
8
BLACK
6
CONTINUOUS
10
4.73537
20
-2.8153
11
4.73547
21
-2.81517
0
LINE
8
BLACK
6
CONTINUOUS
10
4.73547
20
-2.81517
11
4.74085
21
-2.81158
0
LINE
8
BLACK
6
CONTINUOUS
10
4.74085
20
-2.81158
11
4.74406
21
-2.80837
0
LINE
8
BLACK
6
CONTINUOUS
10
4.74406
20
-2.80837
11
4.74572
21
-2.80505
0
LINE
8
BLACK
6
CONTINUOUS
10
4.74572
20
-2.80505
11
4.74633
21
-2.80423
0
LINE
8
BLACK
6
CONTINUOUS
10
4.74633
20
-2.80423
11
4.74818
21
-2.80343
0
LINE
8
BLACK
6
CONTINUOUS
10
4.74818
20
-2.80343
11
4.75012
21
-2.804
0
LINE
8
BLACK
6
CONTINUOUS
10
4.77717
20
-2.76601
11
4.77811
21
-2.76641
0
LINE
8
BLACK
6
CONTINUOUS
10
4.77811
20
-2.76641
11
4.77829
21
-2.76666
0
LINE
8
BLACK
6
CONTINUOUS
10
4.77829
20
-2.76666
11
4.77857
21
-2.76679
0
LINE
8
BLACK
6
CONTINUOUS
10
4.77857
20
-2.76679
11
4.77888
21
-2.76745
0
LINE
8
BLACK
6
CONTINUOUS
10
4.77888
20
-2.76745
11
4.77931
21
-2.76803
0
LINE
8
BLACK
6
CONTINUOUS
10
4.77931
20
-2.76803
11
4.77929
21
-2.76834
0
LINE
8
BLACK
6
CONTINUOUS
10
4.77929
20
-2.76834
11
4.77942
21
-2.76863
0
LINE
8
BLACK
6
CONTINUOUS
10
4.77942
20
-2.76863
11
4.77923
21
-2.76933
0
LINE
8
BLACK
6
CONTINUOUS
10
4.77923
20
-2.76933
11
4.77919
21
-2.77005
0
LINE
8
BLACK
6
CONTINUOUS
10
4.77919
20
-2.77005
11
4.77898
21
-2.77028
0
LINE
8
BLACK
6
CONTINUOUS
10
4.77898
20
-2.77028
11
4.7789
21
-2.77058
0
LINE
8
BLACK
6
CONTINUOUS
10
4.7789
20
-2.77058
11
4.7783
21
-2.77099
0
LINE
8
BLACK
6
CONTINUOUS
10
4.7783
20
-2.77099
11
4.7778
21
-2.77152
0
LINE
8
BLACK
6
CONTINUOUS
10
4.7778
20
-2.77152
11
4.7775
21
-2.77155
0
LINE
8
BLACK
6
CONTINUOUS
10
4.7775
20
-2.77155
11
4.77724
21
-2.77173
0
LINE
8
BLACK
6
CONTINUOUS
10
4.77724
20
-2.77173
11
4.75982
21
-2.77638
0
LINE
8
BLACK
6
CONTINUOUS
10
4.75982
20
-2.77638
11
4.77724
21
-2.78102
0
LINE
8
BLACK
6
CONTINUOUS
10
4.77724
20
-2.78102
11
4.77817
21
-2.78146
0
LINE
8
BLACK
6
CONTINUOUS
10
4.77817
20
-2.78146
11
4.77835
21
-2.78171
0
LINE
8
BLACK
6
CONTINUOUS
10
4.77835
20
-2.78171
11
4.77863
21
-2.78185
0
LINE
8
BLACK
6
CONTINUOUS
10
4.77863
20
-2.78185
11
4.77891
21
-2.78251
0
LINE
8
BLACK
6
CONTINUOUS
10
4.77891
20
-2.78251
11
4.77933
21
-2.78311
0
LINE
8
BLACK
6
CONTINUOUS
10
4.77933
20
-2.78311
11
4.77931
21
-2.78342
0
LINE
8
BLACK
6
CONTINUOUS
10
4.77931
20
-2.78342
11
4.77943
21
-2.7837
0
LINE
8
BLACK
6
CONTINUOUS
10
4.77943
20
-2.7837
11
4.77922
21
-2.7844
0
LINE
8
BLACK
6
CONTINUOUS
10
4.77922
20
-2.7844
11
4.77916
21
-2.78512
0
LINE
8
BLACK
6
CONTINUOUS
10
4.77916
20
-2.78512
11
4.77894
21
-2.78534
0
LINE
8
BLACK
6
CONTINUOUS
10
4.77894
20
-2.78534
11
4.77885
21
-2.78564
0
LINE
8
BLACK
6
CONTINUOUS
10
4.77885
20
-2.78564
11
4.77825
21
-2.78604
0
LINE
8
BLACK
6
CONTINUOUS
10
4.77825
20
-2.78604
11
4.77773
21
-2.78655
0
LINE
8
BLACK
6
CONTINUOUS
10
4.77773
20
-2.78655
11
4.77742
21
-2.78658
0
LINE
8
BLACK
6
CONTINUOUS
10
4.77742
20
-2.78658
11
4.77716
21
-2.78675
0
LINE
8
BLACK
6
CONTINUOUS
10
4.77716
20
-2.78675
11
4.73779
21
-2.79612
0
LINE
8
BLACK
6
CONTINUOUS
10
4.73779
20
-2.79612
11
4.73677
21
-2.79618
0
LINE
8
BLACK
6
CONTINUOUS
10
4.73677
20
-2.79618
11
4.73497
21
-2.79528
0
LINE
8
BLACK
6
CONTINUOUS
10
4.73497
20
-2.79528
11
4.73416
21
-2.79343
0
LINE
8
BLACK
6
CONTINUOUS
10
4.73416
20
-2.79343
11
4.73474
21
-2.79149
0
LINE
8
BLACK
6
CONTINUOUS
10
4.73474
20
-2.79149
11
4.73643
21
-2.79038
0
LINE
8
BLACK
6
CONTINUOUS
10
4.73643
20
-2.79038
11
4.76441
21
-2.78371
0
LINE
8
BLACK
6
CONTINUOUS
10
4.76441
20
-2.78371
11
4.7476
21
-2.77923
0
LINE
8
BLACK
6
CONTINUOUS
10
4.7476
20
-2.77923
11
4.74667
21
-2.7788
0
LINE
8
BLACK
6
CONTINUOUS
10
4.74667
20
-2.7788
11
4.74651
21
-2.77858
0
LINE
8
BLACK
6
CONTINUOUS
10
4.74651
20
-2.77858
11
4.74627
21
-2.77846
0
LINE
8
BLACK
6
CONTINUOUS
10
4.74627
20
-2.77846
11
4.74595
21
-2.77777
0
LINE
8
BLACK
6
CONTINUOUS
10
4.74595
20
-2.77777
11
4.74551
21
-2.77715
0
LINE
8
BLACK
6
CONTINUOUS
10
4.74551
20
-2.77715
11
4.74553
21
-2.77688
0
LINE
8
BLACK
6
CONTINUOUS
10
4.74553
20
-2.77688
11
4.74542
21
-2.77663
0
LINE
8
BLACK
6
CONTINUOUS
10
4.74542
20
-2.77663
11
4.74562
21
-2.77589
0
LINE
8
BLACK
6
CONTINUOUS
10
4.74562
20
-2.77589
11
4.74568
21
-2.77513
0
LINE
8
BLACK
6
CONTINUOUS
10
4.74568
20
-2.77513
11
4.74587
21
-2.77494
0
LINE
8
BLACK
6
CONTINUOUS
10
4.74587
20
-2.77494
11
4.74594
21
-2.77468
0
LINE
8
BLACK
6
CONTINUOUS
10
4.74594
20
-2.77468
11
4.74657
21
-2.77424
0
LINE
8
BLACK
6
CONTINUOUS
10
4.74657
20
-2.77424
11
4.74711
21
-2.7737
0
LINE
8
BLACK
6
CONTINUOUS
10
4.74711
20
-2.7737
11
4.74738
21
-2.77368
0
LINE
8
BLACK
6
CONTINUOUS
10
4.74738
20
-2.77368
11
4.7476
21
-2.77352
0
LINE
8
BLACK
6
CONTINUOUS
10
4.7476
20
-2.77352
11
4.76441
21
-2.76904
0
LINE
8
BLACK
6
CONTINUOUS
10
4.76441
20
-2.76904
11
4.73643
21
-2.76238
0
LINE
8
BLACK
6
CONTINUOUS
10
4.73643
20
-2.76238
11
4.73549
21
-2.76197
0
LINE
8
BLACK
6
CONTINUOUS
10
4.73549
20
-2.76197
11
4.73428
21
-2.76035
0
LINE
8
BLACK
6
CONTINUOUS
10
4.73428
20
-2.76035
11
4.7344
21
-2.75833
0
LINE
8
BLACK
6
CONTINUOUS
10
4.7344
20
-2.75833
11
4.73579
21
-2.75687
0
LINE
8
BLACK
6
CONTINUOUS
10
4.73579
20
-2.75687
11
4.73779
21
-2.75663
0
LINE
8
BLACK
6
CONTINUOUS
10
4.73779
20
-2.75663
11
4.77717
21
-2.76601
0
LINE
8
BLACK
6
CONTINUOUS
10
4.74937
20
-2.72111
11
4.7495
21
-2.72122
0
LINE
8
BLACK
6
CONTINUOUS
10
4.7495
20
-2.72122
11
4.74968
21
-2.72124
0
LINE
8
BLACK
6
CONTINUOUS
10
4.74968
20
-2.72124
11
4.75343
21
-2.72312
0
LINE
8
BLACK
6
CONTINUOUS
10
4.75343
20
-2.72312
11
4.75414
21
-2.72364
0
LINE
8
BLACK
6
CONTINUOUS
10
4.75414
20
-2.72364
11
4.7542
21
-2.72367
0
LINE
8
BLACK
6
CONTINUOUS
10
4.7542
20
-2.72367
11
4.75607
21
-2.72555
0
LINE
8
BLACK
6
CONTINUOUS
10
4.75607
20
-2.72555
11
4.75658
21
-2.72627
0
LINE
8
BLACK
6
CONTINUOUS
10
4.75658
20
-2.72627
11
4.75662
21
-2.72631
0
LINE
8
BLACK
6
CONTINUOUS
10
4.75662
20
-2.72631
11
4.7585
21
-2.73006
0
LINE
8
BLACK
6
CONTINUOUS
10
4.7585
20
-2.73006
11
4.75864
21
-2.73055
0
LINE
8
BLACK
6
CONTINUOUS
10
4.75864
20
-2.73055
11
4.75872
21
-2.73067
0
LINE
8
BLACK
6
CONTINUOUS
10
4.75872
20
-2.73067
11
4.76052
21
-2.73785
0
LINE
8
BLACK
6
CONTINUOUS
10
4.76052
20
-2.73785
11
4.76203
21
-2.74088
0
LINE
8
BLACK
6
CONTINUOUS
10
4.76203
20
-2.74088
11
4.76323
21
-2.74208
0
LINE
8
BLACK
6
CONTINUOUS
10
4.76323
20
-2.74208
11
4.76593
21
-2.74343
0
LINE
8
BLACK
6
CONTINUOUS
10
4.76593
20
-2.74343
11
4.76828
21
-2.74343
0
LINE
8
BLACK
6
CONTINUOUS
10
4.76828
20
-2.74343
11
4.77098
21
-2.74208
0
LINE
8
BLACK
6
CONTINUOUS
10
4.77098
20
-2.74208
11
4.77218
21
-2.74088
0
LINE
8
BLACK
6
CONTINUOUS
10
4.77218
20
-2.74088
11
4.77353
21
-2.73819
0
LINE
8
BLACK
6
CONTINUOUS
10
4.77353
20
-2.73819
11
4.77353
21
-2.72999
0
LINE
8
BLACK
6
CONTINUOUS
10
4.77353
20
-2.72999
11
4.77181
21
-2.72482
0
LINE
8
BLACK
6
CONTINUOUS
10
4.77181
20
-2.72482
11
4.77165
21
-2.7238
0
LINE
8
BLACK
6
CONTINUOUS
10
4.77165
20
-2.7238
11
4.7724
21
-2.72193
0
LINE
8
BLACK
6
CONTINUOUS
10
4.7724
20
-2.72193
11
4.77417
21
-2.72096
0
LINE
8
BLACK
6
CONTINUOUS
10
4.77417
20
-2.72096
11
4.77615
21
-2.72137
0
LINE
8
BLACK
6
CONTINUOUS
10
4.77615
20
-2.72137
11
4.77741
21
-2.72295
0
LINE
8
BLACK
6
CONTINUOUS
10
4.77741
20
-2.72295
11
4.77928
21
-2.72858
0
LINE
8
BLACK
6
CONTINUOUS
10
4.77928
20
-2.72858
11
4.77941
21
-2.72945
0
LINE
8
BLACK
6
CONTINUOUS
10
4.77941
20
-2.72945
11
4.77943
21
-2.72951
0
LINE
8
BLACK
6
CONTINUOUS
10
4.77943
20
-2.72951
11
4.77943
21
-2.73888
0
LINE
8
BLACK
6
CONTINUOUS
10
4.77943
20
-2.73888
11
4.77926
21
-2.73989
0
LINE
8
BLACK
6
CONTINUOUS
10
4.77926
20
-2.73989
11
4.77914
21
-2.74003
0
LINE
8
BLACK
6
CONTINUOUS
10
4.77914
20
-2.74003
11
4.77912
21
-2.7402
0
LINE
8
BLACK
6
CONTINUOUS
10
4.77912
20
-2.7402
11
4.77725
21
-2.74395
0
LINE
8
BLACK
6
CONTINUOUS
10
4.77725
20
-2.74395
11
4.77672
21
-2.74466
0
LINE
8
BLACK
6
CONTINUOUS
10
4.77672
20
-2.74466
11
4.77669
21
-2.74472
0
LINE
8
BLACK
6
CONTINUOUS
10
4.77669
20
-2.74472
11
4.77482
21
-2.74659
0
LINE
8
BLACK
6
CONTINUOUS
10
4.77482
20
-2.74659
11
4.7741
21
-2.7471
0
LINE
8
BLACK
6
CONTINUOUS
10
4.7741
20
-2.7471
11
4.77405
21
-2.74715
0
LINE
8
BLACK
6
CONTINUOUS
10
4.77405
20
-2.74715
11
4.7703
21
-2.74902
0
LINE
8
BLACK
6
CONTINUOUS
10
4.7703
20
-2.74902
11
4.76932
21
-2.74932
0
LINE
8
BLACK
6
CONTINUOUS
10
4.76932
20
-2.74932
11
4.76915
21
-2.74927
0
LINE
8
BLACK
6
CONTINUOUS
10
4.76915
20
-2.74927
11
4.76898
21
-2.74933
0
LINE
8
BLACK
6
CONTINUOUS
10
4.76898
20
-2.74933
11
4.76523
21
-2.74933
0
LINE
8
BLACK
6
CONTINUOUS
10
4.76523
20
-2.74933
11
4.76422
21
-2.74916
0
LINE
8
BLACK
6
CONTINUOUS
10
4.76422
20
-2.74916
11
4.76409
21
-2.74904
0
LINE
8
BLACK
6
CONTINUOUS
10
4.76409
20
-2.74904
11
4.76391
21
-2.74902
0
LINE
8
BLACK
6
CONTINUOUS
10
4.76391
20
-2.74902
11
4.76016
21
-2.74715
0
LINE
8
BLACK
6
CONTINUOUS
10
4.76016
20
-2.74715
11
4.75945
21
-2.74662
0
LINE
8
BLACK
6
CONTINUOUS
10
4.75945
20
-2.74662
11
4.75939
21
-2.74659
0
LINE
8
BLACK
6
CONTINUOUS
10
4.75939
20
-2.74659
11
4.75752
21
-2.74472
0
LINE
8
BLACK
6
CONTINUOUS
10
4.75752
20
-2.74472
11
4.75701
21
-2.744
0
LINE
8
BLACK
6
CONTINUOUS
10
4.75701
20
-2.744
11
4.75697
21
-2.74395
0
LINE
8
BLACK
6
CONTINUOUS
10
4.75697
20
-2.74395
11
4.75509
21
-2.7402
0
LINE
8
BLACK
6
CONTINUOUS
10
4.75509
20
-2.7402
11
4.75495
21
-2.73971
0
LINE
8
BLACK
6
CONTINUOUS
10
4.75495
20
-2.73971
11
4.75487
21
-2.7396
0
LINE
8
BLACK
6
CONTINUOUS
10
4.75487
20
-2.7396
11
4.75307
21
-2.73241
0
LINE
8
BLACK
6
CONTINUOUS
10
4.75307
20
-2.73241
11
4.75156
21
-2.72938
0
LINE
8
BLACK
6
CONTINUOUS
10
4.75156
20
-2.72938
11
4.75036
21
-2.72819
0
LINE
8
BLACK
6
CONTINUOUS
10
4.75036
20
-2.72819
11
4.74766
21
-2.72684
0
LINE
8
BLACK
6
CONTINUOUS
10
4.74766
20
-2.72684
11
4.74531
21
-2.72684
0
LINE
8
BLACK
6
CONTINUOUS
10
4.74531
20
-2.72684
11
4.74261
21
-2.72819
0
LINE
8
BLACK
6
CONTINUOUS
10
4.74261
20
-2.72819
11
4.74141
21
-2.72938
0
LINE
8
BLACK
6
CONTINUOUS
10
4.74141
20
-2.72938
11
4.74006
21
-2.73208
0
LINE
8
BLACK
6
CONTINUOUS
10
4.74006
20
-2.73208
11
4.74006
21
-2.74028
0
LINE
8
BLACK
6
CONTINUOUS
10
4.74006
20
-2.74028
11
4.74179
21
-2.74545
0
LINE
8
BLACK
6
CONTINUOUS
10
4.74179
20
-2.74545
11
4.74194
21
-2.74646
0
LINE
8
BLACK
6
CONTINUOUS
10
4.74194
20
-2.74646
11
4.7412
21
-2.74834
0
LINE
8
BLACK
6
CONTINUOUS
10
4.7412
20
-2.74834
11
4.73942
21
-2.7493
0
LINE
8
BLACK
6
CONTINUOUS
10
4.73942
20
-2.7493
11
4.73744
21
-2.7489
0
LINE
8
BLACK
6
CONTINUOUS
10
4.73744
20
-2.7489
11
4.73618
21
-2.74732
0
LINE
8
BLACK
6
CONTINUOUS
10
4.73618
20
-2.74732
11
4.73431
21
-2.74169
0
LINE
8
BLACK
6
CONTINUOUS
10
4.73431
20
-2.74169
11
4.73418
21
-2.74082
0
LINE
8
BLACK
6
CONTINUOUS
10
4.73418
20
-2.74082
11
4.73416
21
-2.74076
0
LINE
8
BLACK
6
CONTINUOUS
10
4.73416
20
-2.74076
11
4.73416
21
-2.73138
0
LINE
8
BLACK
6
CONTINUOUS
10
4.73416
20
-2.73138
11
4.73434
21
-2.73037
0
LINE
8
BLACK
6
CONTINUOUS
10
4.73434
20
-2.73037
11
4.73445
21
-2.73024
0
LINE
8
BLACK
6
CONTINUOUS
10
4.73445
20
-2.73024
11
4.73447
21
-2.73006
0
LINE
8
BLACK
6
CONTINUOUS
10
4.73447
20
-2.73006
11
4.73634
21
-2.72631
0
LINE
8
BLACK
6
CONTINUOUS
10
4.73634
20
-2.72631
11
4.73687
21
-2.7256
0
LINE
8
BLACK
6
CONTINUOUS
10
4.73687
20
-2.7256
11
4.7369
21
-2.72555
0
LINE
8
BLACK
6
CONTINUOUS
10
4.7369
20
-2.72555
11
4.73877
21
-2.72367
0
LINE
8
BLACK
6
CONTINUOUS
10
4.73877
20
-2.72367
11
4.7395
21
-2.72317
0
LINE
8
BLACK
6
CONTINUOUS
10
4.7395
20
-2.72317
11
4.73954
21
-2.72312
0
LINE
8
BLACK
6
CONTINUOUS
10
4.73954
20
-2.72312
11
4.74329
21
-2.72124
0
LINE
8
BLACK
6
CONTINUOUS
10
4.74329
20
-2.72124
11
4.74427
21
-2.72095
0
LINE
8
BLACK
6
CONTINUOUS
10
4.74427
20
-2.72095
11
4.74444
21
-2.72099
0
LINE
8
BLACK
6
CONTINUOUS
10
4.74444
20
-2.72099
11
4.74461
21
-2.72093
0
LINE
8
BLACK
6
CONTINUOUS
10
4.74461
20
-2.72093
11
4.74836
21
-2.72093
0
LINE
8
BLACK
6
CONTINUOUS
10
4.74836
20
-2.72093
11
4.74937
21
-2.72111
  0
ENDSEC
  0
EOF
