999
FreeCAD v1.0 39109 (Git)
  0
SECTION
  2
HEADER
  9
$ACADVER
  1
AC1014
  9
$ACADMAINTVER
 70
     9
  9
$DWGCODEPAGE
  3
ANSI_1252
  9
$TEXTSTYLE
  7
STANDARD
  9
$DIMSTYLE
  2
STANDARD
  9
$DIMTXSTY
  7
STANDARD
  9
$CMLSTYLE
  2
STANDARD
  9
$LUNITS
 70
2
  9
$INSUNITS
 70
4
  9
$PEXTMAX
 10
50
 20
50
 30
50
  9
$PEXTMIN
 10
0
 20
0
 30
0
  9
$HANDSEED
  5
FFFF
  0
ENDSEC
  0
SECTION
  2
CLASSES
  0
CLASS
  1
ACDBDICTIONARYWDFLT
  2
AcDbDictionaryWithDefault
  3
ObjectDBX Classes
 90
        0
280
     0
281
     0
  0
CLASS
  1
XRECORD
  2
AcDbXrecord
  3
ObjectDBX Classes
 90
        0
280
     0
281
     0
  0
CLASS
  1
LWPOLYLINE
  2
AcDbPolyline
  3
ObjectDBX Classes
 90
        0
280
     0
281
     1
  0
ENDSEC
  0
SECTION
  2
TABLES
  0
TABLE
  2
VPORT
  5
20
330
0
100
AcDbSymbolTable
 70
     1
  0
VPORT
  5
21
330
20
100
AcDbSymbolTableRecord
100
AcDbViewportTableRecord
  2
*ACTIVE
 70
     0
  0
ENDTAB
  0
TABLE
  2
LTYPE
  5
22
330
0
100
AcDbSymbolTable
 70
     1
  0
LTYPE
  5
23
330
21
100
AcDbSymbolTableRecord
100
AcDbLinetypeTableRecord
  2
BYBLOCK
 70
     0
  3

 72
    65
 73
     0
 40
0.0
  0
LTYPE
  5
24
330
21
100
AcDbSymbolTableRecord
100
AcDbLinetypeTableRecord
  2
BYLAYER
 70
     0
  3

 72
    65
 73
     0
 40
0.0
  0
LTYPE
  5
25
330
21
100
AcDbSymbolTableRecord
100
AcDbLinetypeTableRecord
  2
CONTINUOUS
 70
     0
  3
Solid line
 72
    65
 73
     0
 40
0.0
  0
ENDTAB
  0
TABLE
  2
LAYER
  5
E36
330
0
100
AcDbSymbolTable
 70
15
  0
LAYER
  5
E37
330
E36
100
AcDbSymbolTableRecord
100
AcDbLayerTableRecord
  2
0
 70
   0
 62
   7
  6
CONTINUOUS
  0
LAYER
  5
E38
330
E36
100
AcDbSymbolTableRecord
100
AcDbLayerTableRecord
  2
none
 70
    0
 62
    7
  6
CONTINUOUS
  0
LAYER
  5
E39
330
E36
100
AcDbSymbolTableRecord
100
AcDbLayerTableRecord
  2
Shape2DView
 70
    0
 62
    7
  6
CONTINUOUS
  0
LAYER
  5
E3A
330
E36
100
AcDbSymbolTableRecord
100
AcDbLayerTableRecord
  2
Shape2DView001
 70
    0
 62
    7
  6
CONTINUOUS
  0
LAYER
  5
E3B
330
E36
100
AcDbSymbolTableRecord
100
AcDbLayerTableRecord
  2
Shape2DView002
 70
    0
 62
    7
  6
CONTINUOUS
  0
LAYER
  5
E3C
330
E36
100
AcDbSymbolTableRecord
100
AcDbLayerTableRecord
  2
Shape2DView003
 70
    0
 62
    7
  6
CONTINUOUS
  0
LAYER
  5
E3D
330
E36
100
AcDbSymbolTableRecord
100
AcDbLayerTableRecord
  2
Shape2DView004
 70
    0
 62
    7
  6
CONTINUOUS
  0
LAYER
  5
E3E
330
E36
100
AcDbSymbolTableRecord
100
AcDbLayerTableRecord
  2
Shape2DView005
 70
    0
 62
    7
  6
CONTINUOUS
  0
LAYER
  5
E3F
330
E36
100
AcDbSymbolTableRecord
100
AcDbLayerTableRecord
  2
Shape2DView006
 70
    0
 62
    7
  6
CONTINUOUS
  0
LAYER
  5
E40
330
E36
100
AcDbSymbolTableRecord
100
AcDbLayerTableRecord
  2
Shape2DView007
 70
    0
 62
    7
  6
CONTINUOUS
  0
LAYER
  5
E41
330
E36
100
AcDbSymbolTableRecord
100
AcDbLayerTableRecord
  2
Shape2DView008
 70
    0
 62
    7
  6
CONTINUOUS
  0
LAYER
  5
E42
330
E36
100
AcDbSymbolTableRecord
100
AcDbLayerTableRecord
  2
Shape2DView009
 70
    0
 62
    7
  6
CONTINUOUS
  0
LAYER
  5
E43
330
E36
100
AcDbSymbolTableRecord
100
AcDbLayerTableRecord
  2
Shape2DView011
 70
    0
 62
    7
  6
CONTINUOUS
  0
LAYER
  5
E44
330
E36
100
AcDbSymbolTableRecord
100
AcDbLayerTableRecord
  2
Shape2DView012
 70
    0
 62
    7
  6
CONTINUOUS
  0
LAYER
  5
E45
330
E36
100
AcDbSymbolTableRecord
100
AcDbLayerTableRecord
  2
Shape2DView013
 70
    0
 62
    7
  6
CONTINUOUS
  0
ENDTAB
  0
TABLE
  2
STYLE
  5
70
330
0
100
AcDbSymbolTable
 70
     2
  0
STYLE
  5
71
330
70
100
AcDbSymbolTableRecord
100
AcDbTextStyleTableRecord
  2
STANDARD
 70
     0
 40
0.0
 41
1.0
 50
0.0
 71
     0
 42
2.5
  3
arial.ttf
  4

  0
STYLE
  5
72
330
70
100
AcDbSymbolTableRecord
100
AcDbTextStyleTableRecord
  2
ANNOTATIVE
 70
     0
 40
0.0
 41
1.0
 50
0.0
 71
     0
 42
2.5
  3
arial.ttf
  4

  0
ENDTAB
  0
TABLE
  2
VIEW
  5
73
330
0
100
AcDbSymbolTable
 70
     0
  0
ENDTAB
  0
TABLE
  2
UCS
  5
74
330
0
100
AcDbSymbolTable
 70
     0
  0
ENDTAB
  0
TABLE
  2
APPID
  5
75
330
0
100
AcDbSymbolTable
 70
     2
  0
APPID
  5
76
330
75
100
AcDbSymbolTableRecord
100
AcDbRegAppTableRecord
  2
ACAD
 70
     0
  0
APPID
  5
77
330
75
100
AcDbSymbolTableRecord
100
AcDbRegAppTableRecord
  2
ACADANNOTATIVE
 70
     0
  0
ENDTAB
  0
TABLE
  2
DIMSTYLE
  5
78
330
0
100
AcDbSymbolTable
 70
     2
  0
DIMSTYLE
105
79
330
78
100
AcDbSymbolTableRecord
100
AcDbDimStyleTableRecord
  2
STANDARD
 70
     0
  3

  4

  5

  6

  7

 40
0.0
 41
2.5
 42
0.625
 43
3.75
 44
1.25
 45
0.0
 46
0.0
 47
0.0
 48
0.0
140
2.5
141
2.5
142
0.0
143
0.03937007874016
144
1.0
145
0.0
146
1.0
147
0.625
 71
     0
 72
     0
 73
     0
 74
     0
 75
     0
 76
     0
 77
     1
 78
     8
170
     0
171
     3
172
     1
173
     0
174
     0
175
     0
176
     0
177
     0
178
     0
270
     2
271
     2
272
     2
273
     2
274
     3
340
71
275
     0
280
     0
281
     0
282
     0
283
     0
284
     8
285
     0
286
     0
287
     3
288
     0
  0
ENDTAB
  0
TABLE
  2
BLOCK_RECORD
  5
A01
330
0
100
AcDbSymbolTable
  70
5
  0
BLOCK_RECORD
  5
A02
330
A01
100
AcDbSymbolTableRecord
100
AcDbBlockTableRecord
  2
*MODEL_SPACE
  0
BLOCK_RECORD
  5
A03
330
A01
100
AcDbSymbolTableRecord
100
AcDbBlockTableRecord
  2
*PAPER_SPACE
  0
ENDTAB
  0
ENDSEC
  0
SECTION
  2
BLOCKS
  0
BLOCK
  5
A04
330
A02
100
AcDbEntity
  8
0
100
AcDbBlockBegin
  2
*MODEL_SPACE
 70
   0
 10
0
 20
0
 30
0
  3
*MODEL_SPACE
  1
 
  0
ENDBLK
  5
A05
330
A02
100
AcDbEntity
  8
0
100
AcDbBlockEnd
  0
BLOCK
  5
A06
330
A03
100
AcDbEntity
 67
1
  8
0
100
AcDbBlockBegin
  2
*PAPER_SPACE
 70
   0
 10
0
 20
0
 30
0
  3
*PAPER_SPACE
  1
 
  0
ENDBLK
  5
A07
330
A03
100
AcDbEntity
 67
    1
  8
0
100
AcDbBlockEnd
  0
ENDSEC
  0
SECTION
  2
ENTITIES
  0
ARC
  5
A08
330
A02
100
AcDbEntity
  8
Shape2DView
100
AcDbCircle
 10
26.620107443
 20
-13.669775363
 30
0.000000000
 40
0.186666667
100
AcDbArc
 50
20.000000000
 51
-160.000000000
  0
ARC
  5
A09
330
A02
100
AcDbEntity
  8
Shape2DView
100
AcDbCircle
 10
26.620107443
 20
-13.669775363
 30
0.000000000
 40
0.186666667
100
AcDbArc
 50
-160.000000000
 51
-70.000000000
  0
LINE
  5
A0A
330
A02
100
AcDbEntity
  8
Shape2DView
100
AcDbLine
 10
26.795516733
 20
-13.605931603
 30
0.000000000
 11
43.327675077
 21
-7.588718058
 31
0.000000000
  0
LINE
  5
A0B
330
A02
100
AcDbEntity
  8
Shape2DView
100
AcDbLine
 10
43.327675077
 20
-7.588718058
 30
0.000000000
 11
43.327675077
 21
-22.588718058
 31
0.000000000
  0
LINE
  5
A0C
330
A02
100
AcDbEntity
  8
Shape2DView
100
AcDbLine
 10
60.327675077
 20
-22.588718058
 30
0.000000000
 11
60.327675077
 21
-7.875384724
 31
0.000000000
  0
ARC
  5
A0D
330
A02
100
AcDbEntity
  8
Shape2DView
100
AcDbCircle
 10
60.327675077
 20
-7.688718058
 30
0.000000000
 40
0.186666667
100
AcDbArc
 50
0.000000000
 51
90.000000000
  0
ARC
  5
A0E
330
A02
100
AcDbEntity
  8
Shape2DView
100
AcDbCircle
 10
60.327675077
 20
-7.688718058
 30
0.000000000
 40
0.186666667
100
AcDbArc
 50
90.000000000
 51
-90.000000000
  0
LINE
  5
A0F
330
A02
100
AcDbEntity
  8
Shape2DView
100
AcDbLine
 10
43.327675077
 20
-22.588718058
 30
0.000000000
 11
60.327675077
 21
-22.588718058
 31
0.000000000
  0
LINE
  5
A10
330
A02
100
AcDbEntity
  8
Shape2DView
100
AcDbLine
 10
60.514341744
 20
-7.688718058
 30
0.000000000
 11
63.127675077
 21
-7.688718058
 31
0.000000000
  0
LINE
  5
A11
330
A02
100
AcDbEntity
  8
Shape2DView
100
AcDbLine
 10
63.127675077
 20
2.511281942
 30
0.000000000
 11
63.127675077
 21
-7.688718058
 31
0.000000000
  0
LINE
  5
A12
330
A02
100
AcDbEntity
  8
Shape2DView
100
AcDbLine
 10
60.514341744
 20
2.511281942
 30
0.000000000
 11
63.127675077
 21
2.511281942
 31
0.000000000
  0
ARC
  5
A13
330
A02
100
AcDbEntity
  8
Shape2DView
100
AcDbCircle
 10
60.327675077
 20
2.511281942
 30
0.000000000
 40
0.186666667
100
AcDbArc
 50
90.000000000
 51
-90.000000000
  0
ARC
  5
A14
330
A02
100
AcDbEntity
  8
Shape2DView
100
AcDbCircle
 10
60.327675077
 20
2.511281942
 30
0.000000000
 40
0.186666667
100
AcDbArc
 50
-90.000000000
 51
0.000000000
  0
LINE
  5
A15
330
A02
100
AcDbEntity
  8
Shape2DView
100
AcDbLine
 10
60.327675077
 20
2.697948609
 30
0.000000000
 11
60.327675077
 21
17.411281942
 31
0.000000000
  0
LINE
  5
A16
330
A02
100
AcDbEntity
  8
Shape2DView
100
AcDbLine
 10
60.327675077
 20
17.411281942
 30
0.000000000
 11
41.864341744
 21
17.411281942
 31
0.000000000
  0
ARC
  5
A17
330
A02
100
AcDbEntity
  8
Shape2DView
100
AcDbCircle
 10
41.677675077
 20
17.411281942
 30
0.000000000
 40
0.186666667
100
AcDbArc
 50
90.000000000
 51
180.000000000
  0
ARC
  5
A18
330
A02
100
AcDbEntity
  8
Shape2DView
100
AcDbCircle
 10
41.677675077
 20
17.411281942
 30
0.000000000
 40
0.186666667
100
AcDbArc
 50
180.000000000
 51
0.000000000
  0
LINE
  5
A19
330
A02
100
AcDbEntity
  8
Shape2DView
100
AcDbLine
 10
41.677675077
 20
17.597948609
 30
0.000000000
 11
41.677675077
 21
20.211281942
 31
0.000000000
  0
LINE
  5
A1A
330
A02
100
AcDbEntity
  8
Shape2DView
100
AcDbLine
 10
31.477675077
 20
20.211281942
 30
0.000000000
 11
41.677675077
 21
20.211281942
 31
0.000000000
  0
LINE
  5
A1B
330
A02
100
AcDbEntity
  8
Shape2DView
100
AcDbLine
 10
31.477675077
 20
17.597948609
 30
0.000000000
 11
31.477675077
 21
20.211281942
 31
0.000000000
  0
ARC
  5
A1C
330
A02
100
AcDbEntity
  8
Shape2DView
100
AcDbCircle
 10
31.477675077
 20
17.411281942
 30
0.000000000
 40
0.186666667
100
AcDbArc
 50
180.000000000
 51
0.000000000
  0
ARC
  5
A1D
330
A02
100
AcDbEntity
  8
Shape2DView
100
AcDbCircle
 10
31.477675077
 20
17.411281942
 30
0.000000000
 40
0.186666667
100
AcDbArc
 50
0.000000000
 51
90.000000000
  0
LINE
  5
A1E
330
A02
100
AcDbEntity
  8
Shape2DView
100
AcDbLine
 10
31.291008411
 20
17.411281942
 30
0.000000000
 11
-5.635658256
 21
17.411281942
 31
0.000000000
  0
ARC
  5
A1F
330
A02
100
AcDbEntity
  8
Shape2DView
100
AcDbCircle
 10
-5.822324923
 20
17.411281942
 30
0.000000000
 40
0.186666667
100
AcDbArc
 50
90.000000000
 51
180.000000000
  0
ARC
  5
A20
330
A02
100
AcDbEntity
  8
Shape2DView
100
AcDbCircle
 10
-5.822324923
 20
17.411281942
 30
0.000000000
 40
0.186666667
100
AcDbArc
 50
180.000000000
 51
0.000000000
  0
LINE
  5
A21
330
A02
100
AcDbEntity
  8
Shape2DView
100
AcDbLine
 10
-5.822324923
 20
17.597948609
 30
0.000000000
 11
-5.822324923
 21
20.211281942
 31
0.000000000
  0
LINE
  5
A22
330
A02
100
AcDbEntity
  8
Shape2DView
100
AcDbLine
 10
-16.022324923
 20
20.211281942
 30
0.000000000
 11
-5.822324923
 21
20.211281942
 31
0.000000000
  0
LINE
  5
A23
330
A02
100
AcDbEntity
  8
Shape2DView
100
AcDbLine
 10
-16.022324923
 20
17.597948609
 30
0.000000000
 11
-16.022324923
 21
20.211281942
 31
0.000000000
  0
ARC
  5
A24
330
A02
100
AcDbEntity
  8
Shape2DView
100
AcDbCircle
 10
-16.022324923
 20
17.411281942
 30
0.000000000
 40
0.186666667
100
AcDbArc
 50
180.000000000
 51
0.000000000
  0
ARC
  5
A25
330
A02
100
AcDbEntity
  8
Shape2DView
100
AcDbCircle
 10
-16.022324923
 20
17.411281942
 30
0.000000000
 40
0.186666667
100
AcDbArc
 50
0.000000000
 51
90.000000000
  0
LINE
  5
A26
330
A02
100
AcDbEntity
  8
Shape2DView
100
AcDbLine
 10
-16.208991589
 20
17.411281942
 30
0.000000000
 11
-34.672324923
 21
17.411281942
 31
0.000000000
  0
LINE
  5
A27
330
A02
100
AcDbEntity
  8
Shape2DView
100
AcDbLine
 10
-34.672324923
 20
17.411281942
 30
0.000000000
 11
-34.672324923
 21
3.947948609
 31
0.000000000
  0
ARC
  5
A28
330
A02
100
AcDbEntity
  8
Shape2DView
100
AcDbCircle
 10
-34.672324923
 20
3.761281942
 30
0.000000000
 40
0.186666667
100
AcDbArc
 50
180.000000000
 51
-90.000000000
  0
ARC
  5
A29
330
A02
100
AcDbEntity
  8
Shape2DView
100
AcDbCircle
 10
-34.672324923
 20
3.761281942
 30
0.000000000
 40
0.186666667
100
AcDbArc
 50
-90.000000000
 51
90.000000000
  0
LINE
  5
A2A
330
A02
100
AcDbEntity
  8
Shape2DView
100
AcDbLine
 10
-34.858991589
 20
3.761281942
 30
0.000000000
 11
-37.472324923
 21
3.761281942
 31
0.000000000
  0
LINE
  5
A2B
330
A02
100
AcDbEntity
  8
Shape2DView
100
AcDbLine
 10
-37.472324923
 20
-6.438718058
 30
0.000000000
 11
-37.472324923
 21
3.761281942
 31
0.000000000
  0
LINE
  5
A2C
330
A02
100
AcDbEntity
  8
Shape2DView
100
AcDbLine
 10
-34.858991589
 20
-6.438718058
 30
0.000000000
 11
-37.472324923
 21
-6.438718058
 31
0.000000000
  0
ARC
  5
A2D
330
A02
100
AcDbEntity
  8
Shape2DView
100
AcDbCircle
 10
-34.672324923
 20
-6.438718058
 30
0.000000000
 40
0.186666667
100
AcDbArc
 50
-90.000000000
 51
90.000000000
  0
ARC
  5
A2E
330
A02
100
AcDbEntity
  8
Shape2DView
100
AcDbCircle
 10
-34.672324923
 20
-6.438718058
 30
0.000000000
 40
0.186666667
100
AcDbArc
 50
90.000000000
 51
180.000000000
  0
LINE
  5
A2F
330
A02
100
AcDbEntity
  8
Shape2DView
100
AcDbLine
 10
-34.672324923
 20
-6.625384724
 30
0.000000000
 11
-34.672324923
 21
-33.552051391
 31
0.000000000
  0
ARC
  5
A30
330
A02
100
AcDbEntity
  8
Shape2DView
100
AcDbCircle
 10
-34.672324923
 20
-33.738718058
 30
0.000000000
 40
0.186666667
100
AcDbArc
 50
180.000000000
 51
-90.000000000
  0
ARC
  5
A31
330
A02
100
AcDbEntity
  8
Shape2DView
100
AcDbCircle
 10
-34.672324923
 20
-33.738718058
 30
0.000000000
 40
0.186666667
100
AcDbArc
 50
-90.000000000
 51
90.000000000
  0
LINE
  5
A32
330
A02
100
AcDbEntity
  8
Shape2DView
100
AcDbLine
 10
-34.858991589
 20
-33.738718058
 30
0.000000000
 11
-37.472324923
 21
-33.738718058
 31
0.000000000
  0
LINE
  5
A33
330
A02
100
AcDbEntity
  8
Shape2DView
100
AcDbLine
 10
-37.472324923
 20
-43.938718058
 30
0.000000000
 11
-37.472324923
 21
-33.738718058
 31
0.000000000
  0
LINE
  5
A34
330
A02
100
AcDbEntity
  8
Shape2DView
100
AcDbLine
 10
-34.858991589
 20
-43.938718058
 30
0.000000000
 11
-37.472324923
 21
-43.938718058
 31
0.000000000
  0
ARC
  5
A35
330
A02
100
AcDbEntity
  8
Shape2DView
100
AcDbCircle
 10
-34.672324923
 20
-43.938718058
 30
0.000000000
 40
0.186666667
100
AcDbArc
 50
-90.000000000
 51
90.000000000
  0
ARC
  5
A36
330
A02
100
AcDbEntity
  8
Shape2DView
100
AcDbCircle
 10
-34.672324923
 20
-43.938718058
 30
0.000000000
 40
0.186666667
100
AcDbArc
 50
90.000000000
 51
180.000000000
  0
LINE
  5
A37
330
A02
100
AcDbEntity
  8
Shape2DView
100
AcDbLine
 10
-34.672324923
 20
-44.125384724
 30
0.000000000
 11
-34.672324923
 21
-57.588718058
 31
0.000000000
  0
LINE
  5
A38
330
A02
100
AcDbEntity
  8
Shape2DView
100
AcDbLine
 10
-34.672324923
 20
-57.588718058
 30
0.000000000
 11
-22.458991589
 21
-57.588718058
 31
0.000000000
  0
ARC
  5
A39
330
A02
100
AcDbEntity
  8
Shape2DView
100
AcDbCircle
 10
-22.272324923
 20
-57.588718058
 30
0.000000000
 40
0.186666667
100
AcDbArc
 50
-90.000000000
 51
0.000000000
  0
ARC
  5
A3A
330
A02
100
AcDbEntity
  8
Shape2DView
100
AcDbCircle
 10
-22.272324923
 20
-57.588718058
 30
0.000000000
 40
0.186666667
100
AcDbArc
 50
0.000000000
 51
180.000000000
  0
LINE
  5
A3B
330
A02
100
AcDbEntity
  8
Shape2DView
100
AcDbLine
 10
-22.272324923
 20
-57.775384724
 30
0.000000000
 11
-22.272324923
 21
-60.388718058
 31
0.000000000
  0
LINE
  5
A3C
330
A02
100
AcDbEntity
  8
Shape2DView
100
AcDbLine
 10
-12.072324923
 20
-60.388718058
 30
0.000000000
 11
-22.272324923
 21
-60.388718058
 31
0.000000000
  0
LINE
  5
A3D
330
A02
100
AcDbEntity
  8
Shape2DView
100
AcDbLine
 10
-12.072324923
 20
-57.775384724
 30
0.000000000
 11
-12.072324923
 21
-60.388718058
 31
0.000000000
  0
ARC
  5
A3E
330
A02
100
AcDbEntity
  8
Shape2DView
100
AcDbCircle
 10
-12.072324923
 20
-57.588718058
 30
0.000000000
 40
0.186666667
100
AcDbArc
 50
0.000000000
 51
180.000000000
  0
ARC
  5
A3F
330
A02
100
AcDbEntity
  8
Shape2DView
100
AcDbCircle
 10
-12.072324923
 20
-57.588718058
 30
0.000000000
 40
0.186666667
100
AcDbArc
 50
180.000000000
 51
-90.000000000
  0
LINE
  5
A40
330
A02
100
AcDbEntity
  8
Shape2DView
100
AcDbLine
 10
-11.885658256
 20
-57.588718058
 30
0.000000000
 11
0.327675077
 21
-57.588718058
 31
0.000000000
  0
LINE
  5
A41
330
A02
100
AcDbEntity
  8
Shape2DView
100
AcDbLine
 10
0.327675077
 20
-57.588718058
 30
0.000000000
 11
0.327675077
 21
-45.700744761
 31
0.000000000
  0
ARC
  5
A42
330
A02
100
AcDbEntity
  8
Shape2DView
100
AcDbCircle
 10
0.327675077
 20
-45.514078094
 30
0.000000000
 40
0.186666667
100
AcDbArc
 50
0.000000000
 51
90.000000000
  0
ARC
  5
A43
330
A02
100
AcDbEntity
  8
Shape2DView
100
AcDbCircle
 10
0.327675077
 20
-45.514078094
 30
0.000000000
 40
0.186666667
100
AcDbArc
 50
90.000000000
 51
-90.000000000
  0
LINE
  5
A44
330
A02
100
AcDbEntity
  8
Shape2DView
100
AcDbLine
 10
0.514341744
 20
-45.514078094
 30
0.000000000
 11
3.127675077
 21
-45.514078094
 31
0.000000000
  0
LINE
  5
A45
330
A02
100
AcDbEntity
  8
Shape2DView
100
AcDbLine
 10
3.127675077
 20
-35.314078094
 30
0.000000000
 11
3.127675077
 21
-45.514078094
 31
0.000000000
  0
LINE
  5
A46
330
A02
100
AcDbEntity
  8
Shape2DView
100
AcDbLine
 10
0.514341744
 20
-35.314078094
 30
0.000000000
 11
3.127675077
 21
-35.314078094
 31
0.000000000
  0
ARC
  5
A47
330
A02
100
AcDbEntity
  8
Shape2DView
100
AcDbCircle
 10
0.327675077
 20
-35.314078094
 30
0.000000000
 40
0.186666667
100
AcDbArc
 50
90.000000000
 51
-90.000000000
  0
ARC
  5
A48
330
A02
100
AcDbEntity
  8
Shape2DView
100
AcDbCircle
 10
0.327675077
 20
-35.314078094
 30
0.000000000
 40
0.186666667
100
AcDbArc
 50
-90.000000000
 51
0.000000000
  0
LINE
  5
A49
330
A02
100
AcDbEntity
  8
Shape2DView
100
AcDbLine
 10
0.327675077
 20
-35.127411428
 30
0.000000000
 11
0.327675077
 21
-23.239438131
 31
0.000000000
  0
LINE
  5
A4A
330
A02
100
AcDbEntity
  8
Shape2DView
100
AcDbLine
 10
0.327675077
 20
-23.239438131
 30
0.000000000
 11
16.859833422
 21
-17.222224586
 31
0.000000000
  0
ARC
  5
A4B
330
A02
100
AcDbEntity
  8
Shape2DView
100
AcDbCircle
 10
17.035242711
 20
-17.158380825
 30
0.000000000
 40
0.186666667
100
AcDbArc
 50
-70.000000000
 51
20.000000000
  0
ARC
  5
A4C
330
A02
100
AcDbEntity
  8
Shape2DView
100
AcDbCircle
 10
17.035242711
 20
-17.158380825
 30
0.000000000
 40
0.186666667
100
AcDbArc
 50
20.000000000
 51
-160.000000000
  0
LINE
  5
A4D
330
A02
100
AcDbEntity
  8
Shape2DView
100
AcDbLine
 10
17.099086471
 20
-17.333790115
 30
0.000000000
 11
17.992899113
 21
-19.789520164
 31
0.000000000
  0
LINE
  5
A4E
330
A02
100
AcDbEntity
  8
Shape2DView
100
AcDbLine
 10
27.577763845
 20
-16.300914702
 30
0.000000000
 11
17.992899113
 21
-19.789520164
 31
0.000000000
  0
LINE
  5
A4F
330
A02
100
AcDbEntity
  8
Shape2DView
100
AcDbLine
 10
26.683951203
 20
-13.845184653
 30
0.000000000
 11
27.577763845
 21
-16.300914702
 31
0.000000000
  0
ARC
  5
A50
330
A02
100
AcDbEntity
  8
Shape2DView
100
AcDbCircle
 10
21.625409029
 20
11.311505446
 30
0.000000000
 40
0.250000000
100
AcDbArc
 50
-160.000000000
 51
-100.000000000
  0
ARC
  5
A51
330
A02
100
AcDbEntity
  8
Shape2DView
100
AcDbCircle
 10
21.538584940
 20
10.819101569
 30
0.000000000
 40
0.250000000
100
AcDbArc
 50
-130.000000000
 51
80.000000000
  0
ARC
  5
A52
330
A02
100
AcDbEntity
  8
Shape2DView
100
AcDbCircle
 10
21.217191135
 20
10.436079348
 30
0.000000000
 40
0.250000000
100
AcDbArc
 50
50.000000000
 51
110.000000000
  0
LINE
  5
A53
330
A02
100
AcDbEntity
  8
Shape2DView
100
AcDbLine
 10
4.382628698
 20
4.574844157
 30
0.000000000
 11
21.131686100
 21
10.671002503
 31
0.000000000
  0
ARC
  5
A54
330
A02
100
AcDbEntity
  8
Shape2DView
100
AcDbCircle
 10
4.468133734
 20
4.339921002
 30
0.000000000
 40
0.250000000
100
AcDbArc
 50
110.000000000
 51
170.000000000
  0
ARC
  5
A55
330
A02
100
AcDbEntity
  8
Shape2DView
100
AcDbCircle
 10
3.975729858
 20
4.426745091
 30
0.000000000
 40
0.250000000
100
AcDbArc
 50
140.000000000
 51
-10.000000000
  0
ARC
  5
A56
330
A02
100
AcDbEntity
  8
Shape2DView
100
AcDbCircle
 10
3.592707636
 20
4.748138896
 30
0.000000000
 40
0.250000000
100
AcDbArc
 50
-40.000000000
 51
20.000000000
  0
LINE
  5
A57
330
A02
100
AcDbEntity
  8
Shape2DView
100
AcDbLine
 10
3.166172523
 20
6.650985588
 30
0.000000000
 11
3.827630791
 21
4.833643931
 31
0.000000000
  0
ARC
  5
A58
330
A02
100
AcDbEntity
  8
Shape2DView
100
AcDbCircle
 10
2.931249368
 20
6.565480552
 30
0.000000000
 40
0.250000000
100
AcDbArc
 50
20.000000000
 51
80.000000000
  0
ARC
  5
A59
330
A02
100
AcDbEntity
  8
Shape2DView
100
AcDbCircle
 10
3.018073457
 20
7.057884429
 30
0.000000000
 40
0.250000000
100
AcDbArc
 50
50.000000000
 51
-100.000000000
  0
ARC
  5
A5A
330
A02
100
AcDbEntity
  8
Shape2DView
100
AcDbCircle
 10
3.339467261
 20
7.440906650
 30
0.000000000
 40
0.250000000
100
AcDbArc
 50
-130.000000000
 51
-70.000000000
  0
LINE
  5
A5B
330
A02
100
AcDbEntity
  8
Shape2DView
100
AcDbLine
 10
20.174029698
 20
13.302141841
 30
0.000000000
 11
3.424972297
 21
7.205983495
 31
0.000000000
  0
ARC
  5
A5C
330
A02
100
AcDbEntity
  8
Shape2DView
100
AcDbCircle
 10
20.088524662
 20
13.537064996
 30
0.000000000
 40
0.250000000
100
AcDbArc
 50
-70.000000000
 51
-10.000000000
  0
ARC
  5
A5D
330
A02
100
AcDbEntity
  8
Shape2DView
100
AcDbCircle
 10
20.580928539
 20
13.450240908
 30
0.000000000
 40
0.250000000
100
AcDbArc
 50
-40.000000000
 51
170.000000000
  0
ARC
  5
A5E
330
A02
100
AcDbEntity
  8
Shape2DView
100
AcDbCircle
 10
20.963950761
 20
13.128847103
 30
0.000000000
 40
0.250000000
100
AcDbArc
 50
140.000000000
 51
-160.000000000
  0
LINE
  5
A5F
330
A02
100
AcDbEntity
  8
Shape2DView
100
AcDbLine
 10
21.390485874
 20
11.226000410
 30
0.000000000
 11
20.729027605
 21
13.043342067
 31
0.000000000
  0
ARC
  5
A60
330
A02
100
AcDbEntity
  8
Shape2DView
100
AcDbCircle
 10
-5.334372261
 20
1.498947534
 30
0.000000000
 40
0.250000000
100
AcDbArc
 50
-160.000000000
 51
-100.000000000
  0
ARC
  5
A61
330
A02
100
AcDbEntity
  8
Shape2DView
100
AcDbCircle
 10
-5.421196350
 20
1.006543657
 30
0.000000000
 40
0.250000000
100
AcDbArc
 50
-130.000000000
 51
80.000000000
  0
ARC
  5
A62
330
A02
100
AcDbEntity
  8
Shape2DView
100
AcDbCircle
 10
-5.742590155
 20
0.623521436
 30
0.000000000
 40
0.250000000
100
AcDbArc
 50
50.000000000
 51
110.000000000
  0
LINE
  5
A63
330
A02
100
AcDbEntity
  8
Shape2DView
100
AcDbLine
 10
-22.577152592
 20
-5.237713755
 30
0.000000000
 11
-5.828095191
 21
0.858444591
 31
0.000000000
  0
ARC
  5
A64
330
A02
100
AcDbEntity
  8
Shape2DView
100
AcDbCircle
 10
-22.491647556
 20
-5.472636910
 30
0.000000000
 40
0.250000000
100
AcDbArc
 50
110.000000000
 51
170.000000000
  0
ARC
  5
A65
330
A02
100
AcDbEntity
  8
Shape2DView
100
AcDbCircle
 10
-22.984051433
 20
-5.385812821
 30
0.000000000
 40
0.250000000
100
AcDbArc
 50
140.000000000
 51
-10.000000000
  0
ARC
  5
A66
330
A02
100
AcDbEntity
  8
Shape2DView
100
AcDbCircle
 10
-23.367073654
 20
-5.064419017
 30
0.000000000
 40
0.250000000
100
AcDbArc
 50
-40.000000000
 51
20.000000000
  0
LINE
  5
A67
330
A02
100
AcDbEntity
  8
Shape2DView
100
AcDbLine
 10
-23.793608767
 20
-3.161572324
 30
0.000000000
 11
-23.132150499
 21
-4.978913981
 31
0.000000000
  0
ARC
  5
A68
330
A02
100
AcDbEntity
  8
Shape2DView
100
AcDbCircle
 10
-24.028531923
 20
-3.247077360
 30
0.000000000
 40
0.250000000
100
AcDbArc
 50
20.000000000
 51
80.000000004
  0
ARC
  5
A69
330
A02
100
AcDbEntity
  8
Shape2DView
100
AcDbCircle
 10
-23.941707834
 20
-2.754673483
 30
0.000000000
 40
0.250000000
100
AcDbArc
 50
50.000000000
 51
-99.999999995
  0
ARC
  5
A6A
330
A02
100
AcDbEntity
  8
Shape2DView
100
AcDbCircle
 10
-23.620314029
 20
-2.371651262
 30
0.000000000
 40
0.250000000
100
AcDbArc
 50
-130.000000000
 51
-70.000000000
  0
LINE
  5
A6B
330
A02
100
AcDbEntity
  8
Shape2DView
100
AcDbLine
 10
-6.785751592
 20
3.489583929
 30
0.000000000
 11
-23.534808993
 21
-2.606574417
 31
0.000000000
  0
ARC
  5
A6C
330
A02
100
AcDbEntity
  8
Shape2DView
100
AcDbCircle
 10
-6.871256628
 20
3.724507084
 30
0.000000000
 40
0.250000000
100
AcDbArc
 50
-70.000000000
 51
-10.000000000
  0
ARC
  5
A6D
330
A02
100
AcDbEntity
  8
Shape2DView
100
AcDbCircle
 10
-6.378852751
 20
3.637682996
 30
0.000000000
 40
0.250000000
100
AcDbArc
 50
-40.000000000
 51
170.000000000
  0
ARC
  5
A6E
330
A02
100
AcDbEntity
  8
Shape2DView
100
AcDbCircle
 10
-5.995830530
 20
3.316289191
 30
0.000000000
 40
0.250000000
100
AcDbArc
 50
140.000000000
 51
-160.000000000
  0
LINE
  5
A6F
330
A02
100
AcDbEntity
  8
Shape2DView
100
AcDbLine
 10
-5.569295416
 20
1.413442498
 30
0.000000000
 11
-6.230753685
 21
3.230784155
 31
0.000000000
  0
ARC
  5
A70
330
A02
100
AcDbEntity
  8
Shape2DView
100
AcDbCircle
 10
-1.409129324
 20
-16.390413495
 30
0.000000000
 40
4.500000000
100
AcDbArc
 50
-70.000000000
 51
110.000000000
  0
LINE
  5
A71
330
A02
100
AcDbEntity
  8
Shape2DView
100
AcDbLine
 10
0.129961321
 20
-20.619030289
 30
0.000000000
 11
-8.327272266
 21
-23.697211579
 31
0.000000000
  0
ARC
  5
A72
330
A02
100
AcDbEntity
  8
Shape2DView
100
AcDbCircle
 10
-9.866362911
 20
-19.468594785
 30
0.000000000
 40
4.500000000
100
AcDbArc
 50
110.000000000
 51
-70.000000000
  0
LINE
  5
A73
330
A02
100
AcDbEntity
  8
Shape2DView
100
AcDbLine
 10
-11.405453556
 20
-15.239977992
 30
0.000000000
 11
-2.948219969
 21
-12.161796702
 31
0.000000000
  0
ARC
  5
A74
330
A02
100
AcDbEntity
  8
Shape2DView
100
AcDbCircle
 10
-4.850183254
 20
-6.287110946
 30
0.000000000
 40
3.000000000
100
AcDbArc
 50
-70.000000000
 51
110.000000000
  0
LINE
  5
A75
330
A02
100
AcDbEntity
  8
Shape2DView
100
AcDbLine
 10
-3.824122824
 20
-9.106188809
 30
0.000000000
 11
-12.281356411
 21
-12.184370099
 31
0.000000000
  0
ARC
  5
A76
330
A02
100
AcDbEntity
  8
Shape2DView
100
AcDbCircle
 10
-13.307416841
 20
-9.365292236
 30
0.000000000
 40
3.000000000
100
AcDbArc
 50
110.000000000
 51
-70.000000000
  0
LINE
  5
A77
330
A02
100
AcDbEntity
  8
Shape2DView
100
AcDbLine
 10
-14.333477271
 20
-6.546214374
 30
0.000000000
 11
-5.876243684
 21
-3.468033084
 31
0.000000000
  0
LINE
  5
A78
330
A02
100
AcDbEntity
  8
Shape2DView
100
AcDbLine
 10
-4.650000000
 20
-50.466000000
 30
0.000000000
 11
-5.750000000
 21
-50.466000000
 31
0.000000000
  0
ARC
  5
A79
330
A02
100
AcDbEntity
  8
Shape2DView
100
AcDbCircle
 10
-6.000000000
 20
-50.466000000
 30
0.000000000
 40
0.250000000
100
AcDbArc
 50
90.000000000
 51
0.000000000
  0
LINE
  5
A7A
330
A02
100
AcDbEntity
  8
Shape2DView
100
AcDbLine
 10
-6.000000000
 20
-50.216000000
 30
0.000000000
 11
-6.000000000
 21
-38.016000000
 31
0.000000000
  0
ARC
  5
A7B
330
A02
100
AcDbEntity
  8
Shape2DView
100
AcDbCircle
 10
-6.000000000
 20
-37.766000000
 30
0.000000000
 40
0.250000000
100
AcDbArc
 50
90.000000000
 51
-90.000000000
  0
ARC
  5
A7C
330
A02
100
AcDbEntity
  8
Shape2DView
100
AcDbCircle
 10
-6.000000000
 20
-37.766000000
 30
0.000000000
 40
0.250000000
100
AcDbArc
 50
0.000000000
 51
90.000000000
  0
LINE
  5
A7D
330
A02
100
AcDbEntity
  8
Shape2DView
100
AcDbLine
 10
-5.750000000
 20
-37.766000000
 30
0.000000000
 11
-4.650000000
 21
-37.766000000
 31
0.000000000
  0
ARC
  5
A7E
330
A02
100
AcDbEntity
  8
Shape2DView
100
AcDbCircle
 10
-4.400000000
 20
-37.766000000
 30
0.000000000
 40
0.250000000
100
AcDbArc
 50
90.000000000
 51
180.000000000
  0
ARC
  5
A7F
330
A02
100
AcDbEntity
  8
Shape2DView
100
AcDbCircle
 10
-4.400000000
 20
-37.766000000
 30
0.000000000
 40
0.250000000
100
AcDbArc
 50
-90.000000000
 51
90.000000000
  0
LINE
  5
A80
330
A02
100
AcDbEntity
  8
Shape2DView
100
AcDbLine
 10
-4.400000000
 20
-38.016000000
 30
0.000000000
 11
-4.400000000
 21
-50.216000000
 31
0.000000000
  0
ARC
  5
A81
330
A02
100
AcDbEntity
  8
Shape2DView
100
AcDbCircle
 10
-4.400000000
 20
-50.466000000
 30
0.000000000
 40
0.250000000
100
AcDbArc
 50
180.000000000
 51
90.000000000
  0
ARC
  5
A82
330
A02
100
AcDbEntity
  8
Shape2DView001
100
AcDbCircle
 10
-0.965107443
 20
-83.330224637
 30
0.000000000
 40
0.186666667
100
AcDbArc
 50
-160.000000000
 51
20.000000000
  0
ARC
  5
A83
330
A02
100
AcDbEntity
  8
Shape2DView001
100
AcDbCircle
 10
-0.965107443
 20
-83.330224637
 30
0.000000000
 40
0.186666667
100
AcDbArc
 50
20.000000000
 51
110.000000000
  0
LINE
  5
A84
330
A02
100
AcDbEntity
  8
Shape2DView001
100
AcDbLine
 10
-1.140516733
 20
-83.394068397
 30
0.000000000
 11
-17.672675077
 21
-89.411281942
 31
0.000000000
  0
LINE
  5
A85
330
A02
100
AcDbEntity
  8
Shape2DView001
100
AcDbLine
 10
-17.672675077
 20
-89.411281942
 30
0.000000000
 11
-17.672675077
 21
-74.411281942
 31
0.000000000
  0
LINE
  5
A86
330
A02
100
AcDbEntity
  8
Shape2DView001
100
AcDbLine
 10
-34.672675077
 20
-74.411281942
 30
0.000000000
 11
-34.672675077
 21
-89.124615276
 31
0.000000000
  0
ARC
  5
A87
330
A02
100
AcDbEntity
  8
Shape2DView001
100
AcDbCircle
 10
-34.672675077
 20
-89.311281942
 30
0.000000000
 40
0.186666667
100
AcDbArc
 50
180.000000000
 51
-90.000000000
  0
ARC
  5
A88
330
A02
100
AcDbEntity
  8
Shape2DView001
100
AcDbCircle
 10
-34.672675077
 20
-89.311281942
 30
0.000000000
 40
0.186666667
100
AcDbArc
 50
-90.000000000
 51
90.000000000
  0
LINE
  5
A89
330
A02
100
AcDbEntity
  8
Shape2DView001
100
AcDbLine
 10
-17.672675077
 20
-74.411281942
 30
0.000000000
 11
-34.672675077
 21
-74.411281942
 31
0.000000000
  0
LINE
  5
A8A
330
A02
100
AcDbEntity
  8
Shape2DView001
100
AcDbLine
 10
-34.859341744
 20
-89.311281942
 30
0.000000000
 11
-37.472675077
 21
-89.311281942
 31
0.000000000
  0
LINE
  5
A8B
330
A02
100
AcDbEntity
  8
Shape2DView001
100
AcDbLine
 10
-37.472675077
 20
-99.511281942
 30
0.000000000
 11
-37.472675077
 21
-89.311281942
 31
0.000000000
  0
LINE
  5
A8C
330
A02
100
AcDbEntity
  8
Shape2DView001
100
AcDbLine
 10
-34.859341744
 20
-99.511281942
 30
0.000000000
 11
-37.472675077
 21
-99.511281942
 31
0.000000000
  0
ARC
  5
A8D
330
A02
100
AcDbEntity
  8
Shape2DView001
100
AcDbCircle
 10
-34.672675077
 20
-99.511281942
 30
0.000000000
 40
0.186666667
100
AcDbArc
 50
-90.000000000
 51
90.000000000
  0
ARC
  5
A8E
330
A02
100
AcDbEntity
  8
Shape2DView001
100
AcDbCircle
 10
-34.672675077
 20
-99.511281942
 30
0.000000000
 40
0.186666667
100
AcDbArc
 50
90.000000000
 51
180.000000000
  0
LINE
  5
A8F
330
A02
100
AcDbEntity
  8
Shape2DView001
100
AcDbLine
 10
-34.672675077
 20
-99.697948609
 30
0.000000000
 11
-34.672675077
 21
-114.411281942
 31
0.000000000
  0
LINE
  5
A90
330
A02
100
AcDbEntity
  8
Shape2DView001
100
AcDbLine
 10
-34.672675077
 20
-114.411281942
 30
0.000000000
 11
-16.209341744
 21
-114.411281942
 31
0.000000000
  0
ARC
  5
A91
330
A02
100
AcDbEntity
  8
Shape2DView001
100
AcDbCircle
 10
-16.022675077
 20
-114.411281942
 30
0.000000000
 40
0.186666667
100
AcDbArc
 50
-90.000000000
 51
-0.000000000
  0
ARC
  5
A92
330
A02
100
AcDbEntity
  8
Shape2DView001
100
AcDbCircle
 10
-16.022675077
 20
-114.411281942
 30
0.000000000
 40
0.186666667
100
AcDbArc
 50
-0.000000000
 51
-180.000000000
  0
LINE
  5
A93
330
A02
100
AcDbEntity
  8
Shape2DView001
100
AcDbLine
 10
-16.022675077
 20
-114.597948609
 30
0.000000000
 11
-16.022675077
 21
-117.211281942
 31
0.000000000
  0
LINE
  5
A94
330
A02
100
AcDbEntity
  8
Shape2DView001
100
AcDbLine
 10
-5.822675077
 20
-117.211281942
 30
0.000000000
 11
-16.022675077
 21
-117.211281942
 31
0.000000000
  0
LINE
  5
A95
330
A02
100
AcDbEntity
  8
Shape2DView001
100
AcDbLine
 10
-5.822675077
 20
-114.597948609
 30
0.000000000
 11
-5.822675077
 21
-117.211281942
 31
0.000000000
  0
ARC
  5
A96
330
A02
100
AcDbEntity
  8
Shape2DView001
100
AcDbCircle
 10
-5.822675077
 20
-114.411281942
 30
0.000000000
 40
0.186666667
100
AcDbArc
 50
-0.000000000
 51
-180.000000000
  0
ARC
  5
A97
330
A02
100
AcDbEntity
  8
Shape2DView001
100
AcDbCircle
 10
-5.822675077
 20
-114.411281942
 30
0.000000000
 40
0.186666667
100
AcDbArc
 50
-180.000000000
 51
-90.000000000
  0
LINE
  5
A98
330
A02
100
AcDbEntity
  8
Shape2DView001
100
AcDbLine
 10
-5.636008411
 20
-114.411281942
 30
0.000000000
 11
31.290658256
 21
-114.411281942
 31
0.000000000
  0
ARC
  5
A99
330
A02
100
AcDbEntity
  8
Shape2DView001
100
AcDbCircle
 10
31.477324923
 20
-114.411281942
 30
0.000000000
 40
0.186666667
100
AcDbArc
 50
-90.000000000
 51
0.000000000
  0
ARC
  5
A9A
330
A02
100
AcDbEntity
  8
Shape2DView001
100
AcDbCircle
 10
31.477324923
 20
-114.411281942
 30
0.000000000
 40
0.186666667
100
AcDbArc
 50
0.000000000
 51
180.000000000
  0
LINE
  5
A9B
330
A02
100
AcDbEntity
  8
Shape2DView001
100
AcDbLine
 10
31.477324923
 20
-114.597948609
 30
0.000000000
 11
31.477324923
 21
-117.211281942
 31
0.000000000
  0
LINE
  5
A9C
330
A02
100
AcDbEntity
  8
Shape2DView001
100
AcDbLine
 10
41.677324923
 20
-117.211281942
 30
0.000000000
 11
31.477324923
 21
-117.211281942
 31
0.000000000
  0
LINE
  5
A9D
330
A02
100
AcDbEntity
  8
Shape2DView001
100
AcDbLine
 10
41.677324923
 20
-114.597948609
 30
0.000000000
 11
41.677324923
 21
-117.211281942
 31
0.000000000
  0
ARC
  5
A9E
330
A02
100
AcDbEntity
  8
Shape2DView001
100
AcDbCircle
 10
41.677324923
 20
-114.411281942
 30
0.000000000
 40
0.186666667
100
AcDbArc
 50
0.000000000
 51
180.000000000
  0
ARC
  5
A9F
330
A02
100
AcDbEntity
  8
Shape2DView001
100
AcDbCircle
 10
41.677324923
 20
-114.411281942
 30
0.000000000
 40
0.186666667
100
AcDbArc
 50
180.000000000
 51
-90.000000000
  0
LINE
  5
AA0
330
A02
100
AcDbEntity
  8
Shape2DView001
100
AcDbLine
 10
41.863991589
 20
-114.411281942
 30
0.000000000
 11
60.327324923
 21
-114.411281942
 31
0.000000000
  0
LINE
  5
AA1
330
A02
100
AcDbEntity
  8
Shape2DView001
100
AcDbLine
 10
60.327324923
 20
-114.411281942
 30
0.000000000
 11
60.327324923
 21
-100.947948609
 31
0.000000000
  0
ARC
  5
AA2
330
A02
100
AcDbEntity
  8
Shape2DView001
100
AcDbCircle
 10
60.327324923
 20
-100.761281942
 30
0.000000000
 40
0.186666667
100
AcDbArc
 50
0.000000000
 51
90.000000000
  0
ARC
  5
AA3
330
A02
100
AcDbEntity
  8
Shape2DView001
100
AcDbCircle
 10
60.327324923
 20
-100.761281942
 30
0.000000000
 40
0.186666667
100
AcDbArc
 50
90.000000000
 51
-90.000000000
  0
LINE
  5
AA4
330
A02
100
AcDbEntity
  8
Shape2DView001
100
AcDbLine
 10
60.513991589
 20
-100.761281942
 30
0.000000000
 11
63.127324923
 21
-100.761281942
 31
0.000000000
  0
LINE
  5
AA5
330
A02
100
AcDbEntity
  8
Shape2DView001
100
AcDbLine
 10
63.127324923
 20
-90.561281942
 30
0.000000000
 11
63.127324923
 21
-100.761281942
 31
0.000000000
  0
LINE
  5
AA6
330
A02
100
AcDbEntity
  8
Shape2DView001
100
AcDbLine
 10
60.513991589
 20
-90.561281942
 30
0.000000000
 11
63.127324923
 21
-90.561281942
 31
0.000000000
  0
ARC
  5
AA7
330
A02
100
AcDbEntity
  8
Shape2DView001
100
AcDbCircle
 10
60.327324923
 20
-90.561281942
 30
0.000000000
 40
0.186666667
100
AcDbArc
 50
90.000000000
 51
-90.000000000
  0
ARC
  5
AA8
330
A02
100
AcDbEntity
  8
Shape2DView001
100
AcDbCircle
 10
60.327324923
 20
-90.561281942
 30
0.000000000
 40
0.186666667
100
AcDbArc
 50
-90.000000000
 51
0.000000000
  0
LINE
  5
AA9
330
A02
100
AcDbEntity
  8
Shape2DView001
100
AcDbLine
 10
60.327324923
 20
-90.374615276
 30
0.000000000
 11
60.327324923
 21
-63.447948609
 31
0.000000000
  0
ARC
  5
AAA
330
A02
100
AcDbEntity
  8
Shape2DView001
100
AcDbCircle
 10
60.327324923
 20
-63.261281942
 30
0.000000000
 40
0.186666667
100
AcDbArc
 50
0.000000000
 51
90.000000000
  0
ARC
  5
AAB
330
A02
100
AcDbEntity
  8
Shape2DView001
100
AcDbCircle
 10
60.327324923
 20
-63.261281942
 30
0.000000000
 40
0.186666667
100
AcDbArc
 50
90.000000000
 51
-90.000000000
  0
LINE
  5
AAC
330
A02
100
AcDbEntity
  8
Shape2DView001
100
AcDbLine
 10
60.513991589
 20
-63.261281942
 30
0.000000000
 11
63.127324923
 21
-63.261281942
 31
0.000000000
  0
LINE
  5
AAD
330
A02
100
AcDbEntity
  8
Shape2DView001
100
AcDbLine
 10
63.127324923
 20
-53.061281942
 30
0.000000000
 11
63.127324923
 21
-63.261281942
 31
0.000000000
  0
LINE
  5
AAE
330
A02
100
AcDbEntity
  8
Shape2DView001
100
AcDbLine
 10
60.513991589
 20
-53.061281942
 30
0.000000000
 11
63.127324923
 21
-53.061281942
 31
0.000000000
  0
ARC
  5
AAF
330
A02
100
AcDbEntity
  8
Shape2DView001
100
AcDbCircle
 10
60.327324923
 20
-53.061281942
 30
0.000000000
 40
0.186666667
100
AcDbArc
 50
90.000000000
 51
-90.000000000
  0
ARC
  5
AB0
330
A02
100
AcDbEntity
  8
Shape2DView001
100
AcDbCircle
 10
60.327324923
 20
-53.061281942
 30
0.000000000
 40
0.186666667
100
AcDbArc
 50
-90.000000000
 51
0.000000000
  0
LINE
  5
AB1
330
A02
100
AcDbEntity
  8
Shape2DView001
100
AcDbLine
 10
60.327324923
 20
-52.874615276
 30
0.000000000
 11
60.327324923
 21
-39.411281942
 31
0.000000000
  0
LINE
  5
AB2
330
A02
100
AcDbEntity
  8
Shape2DView001
100
AcDbLine
 10
60.327324923
 20
-39.411281942
 30
0.000000000
 11
48.113991589
 21
-39.411281942
 31
0.000000000
  0
ARC
  5
AB3
330
A02
100
AcDbEntity
  8
Shape2DView001
100
AcDbCircle
 10
47.927324923
 20
-39.411281942
 30
0.000000000
 40
0.186666667
100
AcDbArc
 50
90.000000000
 51
180.000000000
  0
ARC
  5
AB4
330
A02
100
AcDbEntity
  8
Shape2DView001
100
AcDbCircle
 10
47.927324923
 20
-39.411281942
 30
0.000000000
 40
0.186666667
100
AcDbArc
 50
180.000000000
 51
0.000000000
  0
LINE
  5
AB5
330
A02
100
AcDbEntity
  8
Shape2DView001
100
AcDbLine
 10
47.927324923
 20
-39.224615276
 30
0.000000000
 11
47.927324923
 21
-36.611281942
 31
0.000000000
  0
LINE
  5
AB6
330
A02
100
AcDbEntity
  8
Shape2DView001
100
AcDbLine
 10
37.727324923
 20
-36.611281942
 30
0.000000000
 11
47.927324923
 21
-36.611281942
 31
0.000000000
  0
LINE
  5
AB7
330
A02
100
AcDbEntity
  8
Shape2DView001
100
AcDbLine
 10
37.727324923
 20
-39.224615276
 30
0.000000000
 11
37.727324923
 21
-36.611281942
 31
0.000000000
  0
ARC
  5
AB8
330
A02
100
AcDbEntity
  8
Shape2DView001
100
AcDbCircle
 10
37.727324923
 20
-39.411281942
 30
0.000000000
 40
0.186666667
100
AcDbArc
 50
180.000000000
 51
0.000000000
  0
ARC
  5
AB9
330
A02
100
AcDbEntity
  8
Shape2DView001
100
AcDbCircle
 10
37.727324923
 20
-39.411281942
 30
0.000000000
 40
0.186666667
100
AcDbArc
 50
0.000000000
 51
90.000000000
  0
LINE
  5
ABA
330
A02
100
AcDbEntity
  8
Shape2DView001
100
AcDbLine
 10
37.540658256
 20
-39.411281942
 30
0.000000000
 11
25.327324923
 21
-39.411281942
 31
0.000000000
  0
LINE
  5
ABB
330
A02
100
AcDbEntity
  8
Shape2DView001
100
AcDbLine
 10
25.327324923
 20
-39.411281942
 30
0.000000000
 11
25.327324923
 21
-51.299255239
 31
0.000000000
  0
ARC
  5
ABC
330
A02
100
AcDbEntity
  8
Shape2DView001
100
AcDbCircle
 10
25.327324923
 20
-51.485921906
 30
0.000000000
 40
0.186666667
100
AcDbArc
 50
180.000000000
 51
-90.000000000
  0
ARC
  5
ABD
330
A02
100
AcDbEntity
  8
Shape2DView001
100
AcDbCircle
 10
25.327324923
 20
-51.485921906
 30
0.000000000
 40
0.186666667
100
AcDbArc
 50
-90.000000000
 51
90.000000000
  0
LINE
  5
ABE
330
A02
100
AcDbEntity
  8
Shape2DView001
100
AcDbLine
 10
25.140658256
 20
-51.485921906
 30
0.000000000
 11
22.527324923
 21
-51.485921906
 31
0.000000000
  0
LINE
  5
ABF
330
A02
100
AcDbEntity
  8
Shape2DView001
100
AcDbLine
 10
22.527324923
 20
-61.685921906
 30
0.000000000
 11
22.527324923
 21
-51.485921906
 31
0.000000000
  0
LINE
  5
AC0
330
A02
100
AcDbEntity
  8
Shape2DView001
100
AcDbLine
 10
25.140658256
 20
-61.685921906
 30
0.000000000
 11
22.527324923
 21
-61.685921906
 31
0.000000000
  0
ARC
  5
AC1
330
A02
100
AcDbEntity
  8
Shape2DView001
100
AcDbCircle
 10
25.327324923
 20
-61.685921906
 30
0.000000000
 40
0.186666667
100
AcDbArc
 50
-90.000000000
 51
90.000000000
  0
ARC
  5
AC2
330
A02
100
AcDbEntity
  8
Shape2DView001
100
AcDbCircle
 10
25.327324923
 20
-61.685921906
 30
0.000000000
 40
0.186666667
100
AcDbArc
 50
90.000000000
 51
180.000000000
  0
LINE
  5
AC3
330
A02
100
AcDbEntity
  8
Shape2DView001
100
AcDbLine
 10
25.327324923
 20
-61.872588572
 30
0.000000000
 11
25.327324923
 21
-73.760561869
 31
0.000000000
  0
LINE
  5
AC4
330
A02
100
AcDbEntity
  8
Shape2DView001
100
AcDbLine
 10
25.327324923
 20
-73.760561869
 30
0.000000000
 11
8.795166578
 21
-79.777775414
 31
0.000000000
  0
ARC
  5
AC5
330
A02
100
AcDbEntity
  8
Shape2DView001
100
AcDbCircle
 10
8.619757289
 20
-79.841619175
 30
0.000000000
 40
0.186666667
100
AcDbArc
 50
110.000000000
 51
-160.000000000
  0
ARC
  5
AC6
330
A02
100
AcDbEntity
  8
Shape2DView001
100
AcDbCircle
 10
8.619757289
 20
-79.841619175
 30
0.000000000
 40
0.186666667
100
AcDbArc
 50
-160.000000000
 51
20.000000000
  0
LINE
  5
AC7
330
A02
100
AcDbEntity
  8
Shape2DView001
100
AcDbLine
 10
8.555913529
 20
-79.666209885
 30
0.000000000
 11
7.662100887
 21
-77.210479836
 31
0.000000000
  0
LINE
  5
AC8
330
A02
100
AcDbEntity
  8
Shape2DView001
100
AcDbLine
 10
-1.922763845
 20
-80.699085298
 30
0.000000000
 11
7.662100887
 21
-77.210479836
 31
0.000000000
  0
LINE
  5
AC9
330
A02
100
AcDbEntity
  8
Shape2DView001
100
AcDbLine
 10
-1.028951203
 20
-83.154815347
 30
0.000000000
 11
-1.922763845
 21
-80.699085298
 31
0.000000000
  0
ARC
  5
ACA
330
A02
100
AcDbEntity
  8
Shape2DView001
100
AcDbCircle
 10
22.636926543
 20
-104.057884429
 30
0.000000000
 40
0.250000000
100
AcDbArc
 50
-130.000000000
 51
20.000503334
  0
LINE
  5
ACB
330
A02
100
AcDbEntity
  8
Shape2DView001
100
AcDbLine
 10
22.871849699
 20
-103.972379393
 30
0.000000000
 11
21.914193297
 21
-101.341240055
 31
0.000000000
  0
ARC
  5
ACC
330
A02
100
AcDbEntity
  8
Shape2DView001
100
AcDbCircle
 10
22.315532739
 20
-104.440906650
 30
0.000000000
 40
0.250000000
100
AcDbArc
 50
50.000000000
 51
110.000000000
  0
ARC
  5
ACD
330
A02
100
AcDbEntity
  8
Shape2DView001
100
AcDbCircle
 10
21.679270142
 20
-101.426745091
 30
0.000000000
 40
0.250000000
100
AcDbArc
 50
19.999496683
 51
170.000000000
  0
LINE
  5
ACE
330
A02
100
AcDbEntity
  8
Shape2DView001
100
AcDbLine
 10
5.480970302
 20
-110.302141841
 30
0.000000000
 11
22.230027703
 21
-104.205983495
 31
0.000000000
  0
ARC
  5
ACF
330
A02
100
AcDbEntity
  8
Shape2DView001
100
AcDbCircle
 10
21.186866266
 20
-101.339921002
 30
0.000000000
 40
0.250000000
100
AcDbArc
 50
-70.000000000
 51
-10.000000000
  0
ARC
  5
AD0
330
A02
100
AcDbEntity
  8
Shape2DView001
100
AcDbCircle
 10
5.566475338
 20
-110.537064996
 30
0.000000000
 40
0.250000000
100
AcDbArc
 50
110.000000000
 51
170.000000000
  0
LINE
  5
AD1
330
A02
100
AcDbEntity
  8
Shape2DView001
100
AcDbLine
 10
21.272371302
 20
-101.574844157
 30
0.000000000
 11
4.523313900
 21
-107.671002503
 31
0.000000000
  0
ARC
  5
AD2
330
A02
100
AcDbEntity
  8
Shape2DView001
100
AcDbCircle
 10
5.074071461
 20
-110.450240908
 30
0.000000000
 40
0.250000000
100
AcDbArc
 50
140.000000000
 51
-10.000000000
  0
ARC
  5
AD3
330
A02
100
AcDbEntity
  8
Shape2DView001
100
AcDbCircle
 10
4.437808865
 20
-107.436079348
 30
0.000000000
 40
0.250000000
100
AcDbArc
 50
-130.000000000
 51
-70.000000000
  0
ARC
  5
AD4
330
A02
100
AcDbEntity
  8
Shape2DView001
100
AcDbCircle
 10
4.691049239
 20
-110.128847103
 30
0.000000000
 40
0.250000000
100
AcDbArc
 50
-40.000000000
 51
20.000000000
  0
ARC
  5
AD5
330
A02
100
AcDbEntity
  8
Shape2DView001
100
AcDbCircle
 10
4.116415060
 20
-107.819101569
 30
0.000000000
 40
0.250000000
100
AcDbArc
 50
50.000000000
 51
-100.000000000
  0
LINE
  5
AD6
330
A02
100
AcDbEntity
  8
Shape2DView001
100
AcDbLine
 10
4.264514126
 20
-108.226000410
 30
0.000000000
 11
4.925972395
 21
-110.043342067
 31
0.000000000
  0
ARC
  5
AD7
330
A02
100
AcDbEntity
  8
Shape2DView001
100
AcDbCircle
 10
4.029590971
 20
-108.311505446
 30
0.000000000
 40
0.250000000
100
AcDbArc
 50
20.000000000
 51
80.000000000
  0
LINE
  5
AD8
330
A02
100
AcDbEntity
  8
Shape2DView001
100
AcDbLine
 10
32.097765835
 20
-100.082331649
 30
0.000000000
 11
31.482129577
 21
-98.390884932
 31
0.000000000
  0
ARC
  5
AD9
330
A02
100
AcDbEntity
  8
Shape2DView001
100
AcDbCircle
 10
31.862842680
 20
-100.167836685
 30
0.000000000
 40
0.250000000
100
AcDbArc
 50
-70.000000000
 51
20.000000000
  0
ARC
  5
ADA
330
A02
100
AcDbEntity
  8
Shape2DView001
100
AcDbCircle
 10
31.247206422
 20
-98.476389968
 30
0.000000000
 40
0.250000000
100
AcDbArc
 50
20.000000000
 51
110.000000000
  0
ARC
  5
ADB
330
A02
100
AcDbEntity
  8
Shape2DView001
100
AcDbCircle
 10
32.033852751
 20
-100.637682996
 30
0.000000000
 40
0.250000000
100
AcDbArc
 50
110.000000000
 51
-10.000000000
  0
ARC
  5
ADC
330
A02
100
AcDbEntity
  8
Shape2DView001
100
AcDbCircle
 10
31.076196350
 20
-98.006543657
 30
0.000000000
 40
0.250000000
100
AcDbArc
 50
50.000000000
 51
-70.000000000
  0
ARC
  5
ADD
330
A02
100
AcDbEntity
  8
Shape2DView001
100
AcDbCircle
 10
32.526256628
 20
-100.724507084
 30
0.000000000
 40
0.250000000
100
AcDbArc
 50
110.000000000
 51
170.000000000
  0
ARC
  5
ADE
330
A02
100
AcDbEntity
  8
Shape2DView001
100
AcDbCircle
 10
31.397590155
 20
-97.623521436
 30
0.000000000
 40
0.250000000
100
AcDbArc
 50
-130.000000000
 51
-70.000000000
  0
LINE
  5
ADF
330
A02
100
AcDbEntity
  8
Shape2DView001
100
AcDbLine
 10
49.189808993
 20
-94.393425583
 30
0.000000000
 11
32.440751592
 21
-100.489583929
 31
0.000000000
  0
LINE
  5
AE0
330
A02
100
AcDbEntity
  8
Shape2DView001
100
AcDbLine
 10
31.483095191
 20
-97.858444591
 30
0.000000000
 11
48.232152592
 21
-91.762286245
 31
0.000000000
  0
ARC
  5
AE1
330
A02
100
AcDbEntity
  8
Shape2DView001
100
AcDbCircle
 10
49.275314029
 20
-94.628348738
 30
0.000000000
 40
0.250000000
100
AcDbArc
 50
50.000000000
 51
110.000000000
  0
ARC
  5
AE2
330
A02
100
AcDbEntity
  8
Shape2DView001
100
AcDbCircle
 10
48.146647556
 20
-91.527363090
 30
0.000000000
 40
0.250000000
100
AcDbArc
 50
-70.000000000
 51
-10.000000000
  0
ARC
  5
AE3
330
A02
100
AcDbEntity
  8
Shape2DView001
100
AcDbCircle
 10
49.596707834
 20
-94.245326517
 30
0.000000000
 40
0.250000000
100
AcDbArc
 50
-130.000000000
 51
80.000000000
  0
ARC
  5
AE4
330
A02
100
AcDbEntity
  8
Shape2DView001
100
AcDbCircle
 10
48.639051433
 20
-91.614187179
 30
0.000000000
 40
0.250000000
100
AcDbArc
 50
-40.000000000
 51
170.000000000
  0
ARC
  5
AE5
330
A02
100
AcDbEntity
  8
Shape2DView001
100
AcDbCircle
 10
49.683531923
 20
-93.752922640
 30
0.000000000
 40
0.250000000
100
AcDbArc
 50
-160.000000000
 51
-100.000000000
  0
ARC
  5
AE6
330
A02
100
AcDbEntity
  8
Shape2DView001
100
AcDbCircle
 10
49.022073654
 20
-91.935580983
 30
0.000000000
 40
0.250000000
100
AcDbArc
 50
140.000000000
 51
-160.000000000
  0
LINE
  5
AE7
330
A02
100
AcDbEntity
  8
Shape2DView001
100
AcDbLine
 10
48.787150499
 20
-92.021086019
 30
0.000000000
 11
49.448608767
 21
-93.838427676
 31
0.000000000
  0
LINE
  5
AE8
330
A02
100
AcDbEntity
  8
Shape2DView001
100
AcDbLine
 10
30.305000000
 20
-59.234000000
 30
0.000000000
 11
31.405000000
 21
-59.234000000
 31
0.000000000
  0
ARC
  5
AE9
330
A02
100
AcDbEntity
  8
Shape2DView001
100
AcDbCircle
 10
31.655000000
 20
-59.234000000
 30
0.000000000
 40
0.250000000
100
AcDbArc
 50
180.000000000
 51
90.000000000
  0
ARC
  5
AEA
330
A02
100
AcDbEntity
  8
Shape2DView001
100
AcDbCircle
 10
30.055000000
 20
-59.234000000
 30
0.000000000
 40
0.250000000
100
AcDbArc
 50
90.000000000
 51
0.000000000
  0
LINE
  5
AEB
330
A02
100
AcDbEntity
  8
Shape2DView001
100
AcDbLine
 10
31.655000000
 20
-58.984000000
 30
0.000000000
 11
31.655000000
 21
-46.784000000
 31
0.000000000
  0
LINE
  5
AEC
330
A02
100
AcDbEntity
  8
Shape2DView001
100
AcDbLine
 10
30.055000000
 20
-46.784000000
 30
0.000000000
 11
30.055000000
 21
-58.984000000
 31
0.000000000
  0
ARC
  5
AED
330
A02
100
AcDbEntity
  8
Shape2DView001
100
AcDbCircle
 10
31.655000000
 20
-46.534000000
 30
0.000000000
 40
0.250000000
100
AcDbArc
 50
90.000000000
 51
180.000000000
  0
ARC
  5
AEE
330
A02
100
AcDbEntity
  8
Shape2DView001
100
AcDbCircle
 10
31.655000000
 20
-46.534000000
 30
0.000000000
 40
0.250000000
100
AcDbArc
 50
-90.000000000
 51
90.000000000
  0
ARC
  5
AEF
330
A02
100
AcDbEntity
  8
Shape2DView001
100
AcDbCircle
 10
30.055000000
 20
-46.534000000
 30
0.000000000
 40
0.250000000
100
AcDbArc
 50
90.000000000
 51
-90.000000000
  0
ARC
  5
AF0
330
A02
100
AcDbEntity
  8
Shape2DView001
100
AcDbCircle
 10
30.055000000
 20
-46.534000000
 30
0.000000000
 40
0.250000000
100
AcDbArc
 50
0.000000000
 51
90.000000000
  0
LINE
  5
AF1
330
A02
100
AcDbEntity
  8
Shape2DView001
100
AcDbLine
 10
31.405000000
 20
-46.534000000
 30
0.000000000
 11
30.305000000
 21
-46.534000000
 31
0.000000000
  0
LINE
  5
AF2
330
A02
100
AcDbEntity
  8
Shape2DView002
100
AcDbLine
 10
84.333333333
 20
-62.260000000
 30
0.000000000
 11
75.000000000
 21
-62.260000000
 31
0.000000000
  0
LINE
  5
AF3
330
A02
100
AcDbEntity
  8
Shape2DView002
100
AcDbLine
 10
75.000000000
 20
-62.260000000
 30
0.000000000
 11
75.000000000
 21
-52.060000000
 31
0.000000000
  0
LINE
  5
AF4
330
A02
100
AcDbEntity
  8
Shape2DView002
100
AcDbLine
 10
75.000000000
 20
-52.060000000
 30
0.000000000
 11
145.000000000
 21
-52.060000000
 31
0.000000000
  0
LINE
  5
AF5
330
A02
100
AcDbEntity
  8
Shape2DView002
100
AcDbLine
 10
145.000000000
 20
-52.060000000
 30
0.000000000
 11
145.000000000
 21
-62.260000000
 31
0.000000000
  0
LINE
  5
AF6
330
A02
100
AcDbEntity
  8
Shape2DView002
100
AcDbLine
 10
135.666666667
 20
-62.260000000
 30
0.000000000
 11
145.000000000
 21
-62.260000000
 31
0.000000000
  0
ARC
  5
AF7
330
A02
100
AcDbEntity
  8
Shape2DView002
100
AcDbCircle
 10
135.666666667
 20
-62.660000000
 30
0.000000000
 40
0.400000000
100
AcDbArc
 50
90.000000000
 51
-90.000000000
  0
ARC
  5
AF8
330
A02
100
AcDbEntity
  8
Shape2DView002
100
AcDbCircle
 10
84.333333333
 20
-62.660000000
 30
0.000000000
 40
0.400000000
100
AcDbArc
 50
-90.000000000
 51
90.000000000
  0
LINE
  5
AF9
330
A02
100
AcDbEntity
  8
Shape2DView002
100
AcDbLine
 10
147.800000000
 20
-63.060000000
 30
0.000000000
 11
135.666666667
 21
-63.060000000
 31
0.000000000
  0
LINE
  5
AFA
330
A02
100
AcDbEntity
  8
Shape2DView002
100
AcDbLine
 10
147.800000000
 20
-63.060000000
 30
0.000000000
 11
147.800000000
 21
-62.310000000
 31
0.000000000
  0
LINE
  5
AFB
330
A02
100
AcDbEntity
  8
Shape2DView002
100
AcDbLine
 10
147.800000000
 20
-62.310000000
 30
0.000000000
 11
149.800000000
 21
-63.060000000
 31
0.000000000
  0
LINE
  5
AFC
330
A02
100
AcDbEntity
  8
Shape2DView002
100
AcDbLine
 10
149.800000000
 20
-63.060000000
 30
0.000000000
 11
149.800000000
 21
-65.860000000
 31
0.000000000
  0
LINE
  5
AFD
330
A02
100
AcDbEntity
  8
Shape2DView002
100
AcDbLine
 10
133.800000000
 20
-65.860000000
 30
0.000000000
 11
149.800000000
 21
-65.860000000
 31
0.000000000
  0
ARC
  5
AFE
330
A02
100
AcDbEntity
  8
Shape2DView002
100
AcDbCircle
 10
133.800000000
 20
-66.260000000
 30
0.000000000
 40
0.400000000
100
AcDbArc
 50
90.000000000
 51
-90.000000000
  0
LINE
  5
AFF
330
A02
100
AcDbEntity
  8
Shape2DView002
100
AcDbLine
 10
147.800000000
 20
-66.660000000
 30
0.000000000
 11
133.800000000
 21
-66.660000000
 31
0.000000000
  0
LINE
  5
B00
330
A02
100
AcDbEntity
  8
Shape2DView002
100
AcDbLine
 10
147.800000000
 20
-81.750000000
 30
0.000000000
 11
147.800000000
 21
-66.660000000
 31
0.000000000
  0
LINE
  5
B01
330
A02
100
AcDbEntity
  8
Shape2DView002
100
AcDbLine
 10
145.000000000
 20
-81.750000000
 30
0.000000000
 11
147.800000000
 21
-81.750000000
 31
0.000000000
  0
LINE
  5
B02
330
A02
100
AcDbEntity
  8
Shape2DView002
100
AcDbLine
 10
145.000000000
 20
-81.750000000
 30
0.000000000
 11
145.000000000
 21
-91.750000000
 31
0.000000000
  0
LINE
  5
B03
330
A02
100
AcDbEntity
  8
Shape2DView002
100
AcDbLine
 10
147.800000000
 20
-91.750000000
 30
0.000000000
 11
145.000000000
 21
-91.750000000
 31
0.000000000
  0
LINE
  5
B04
330
A02
100
AcDbEntity
  8
Shape2DView002
100
AcDbLine
 10
147.800000000
 20
-106.840000000
 30
0.000000000
 11
147.800000000
 21
-91.750000000
 31
0.000000000
  0
LINE
  5
B05
330
A02
100
AcDbEntity
  8
Shape2DView002
100
AcDbLine
 10
133.800000000
 20
-106.840000000
 30
0.000000000
 11
147.800000000
 21
-106.840000000
 31
0.000000000
  0
ARC
  5
B06
330
A02
100
AcDbEntity
  8
Shape2DView002
100
AcDbCircle
 10
133.800000000
 20
-107.240000000
 30
0.000000000
 40
0.400000000
100
AcDbArc
 50
90.000000000
 51
-90.000000000
  0
LINE
  5
B07
330
A02
100
AcDbEntity
  8
Shape2DView002
100
AcDbLine
 10
149.800000000
 20
-107.640000000
 30
0.000000000
 11
133.800000000
 21
-107.640000000
 31
0.000000000
  0
LINE
  5
B08
330
A02
100
AcDbEntity
  8
Shape2DView002
100
AcDbLine
 10
149.800000000
 20
-110.440000000
 30
0.000000000
 11
149.800000000
 21
-107.640000000
 31
0.000000000
  0
LINE
  5
B09
330
A02
100
AcDbEntity
  8
Shape2DView002
100
AcDbLine
 10
147.800000000
 20
-111.190000000
 30
0.000000000
 11
149.800000000
 21
-110.440000000
 31
0.000000000
  0
LINE
  5
B0A
330
A02
100
AcDbEntity
  8
Shape2DView002
100
AcDbLine
 10
147.800000000
 20
-110.440000000
 30
0.000000000
 11
147.800000000
 21
-111.190000000
 31
0.000000000
  0
LINE
  5
B0B
330
A02
100
AcDbEntity
  8
Shape2DView002
100
AcDbLine
 10
147.800000000
 20
-110.440000000
 30
0.000000000
 11
135.666666667
 21
-110.440000000
 31
0.000000000
  0
ARC
  5
B0C
330
A02
100
AcDbEntity
  8
Shape2DView002
100
AcDbCircle
 10
135.666666667
 20
-110.840000000
 30
0.000000000
 40
0.400000000
100
AcDbArc
 50
90.000000000
 51
-90.000000000
  0
LINE
  5
B0D
330
A02
100
AcDbEntity
  8
Shape2DView002
100
AcDbLine
 10
135.666666667
 20
-111.240000000
 30
0.000000000
 11
145.000000000
 21
-111.240000000
 31
0.000000000
  0
LINE
  5
B0E
330
A02
100
AcDbEntity
  8
Shape2DView002
100
AcDbLine
 10
145.000000000
 20
-111.240000000
 30
0.000000000
 11
145.000000000
 21
-121.440000000
 31
0.000000000
  0
LINE
  5
B0F
330
A02
100
AcDbEntity
  8
Shape2DView002
100
AcDbLine
 10
145.000000000
 20
-121.440000000
 30
0.000000000
 11
75.000000000
 21
-121.440000000
 31
0.000000000
  0
LINE
  5
B10
330
A02
100
AcDbEntity
  8
Shape2DView002
100
AcDbLine
 10
75.000000000
 20
-121.440000000
 30
0.000000000
 11
75.000000000
 21
-111.240000000
 31
0.000000000
  0
LINE
  5
B11
330
A02
100
AcDbEntity
  8
Shape2DView002
100
AcDbLine
 10
84.333333333
 20
-111.240000000
 30
0.000000000
 11
75.000000000
 21
-111.240000000
 31
0.000000000
  0
ARC
  5
B12
330
A02
100
AcDbEntity
  8
Shape2DView002
100
AcDbCircle
 10
84.333333333
 20
-110.840000000
 30
0.000000000
 40
0.400000000
100
AcDbArc
 50
-90.000000000
 51
90.000000000
  0
LINE
  5
B13
330
A02
100
AcDbEntity
  8
Shape2DView002
100
AcDbLine
 10
84.333333333
 20
-110.440000000
 30
0.000000000
 11
72.200000000
 21
-110.440000000
 31
0.000000000
  0
LINE
  5
B14
330
A02
100
AcDbEntity
  8
Shape2DView002
100
AcDbLine
 10
72.200000000
 20
-110.440000000
 30
0.000000000
 11
72.200000000
 21
-111.190000000
 31
0.000000000
  0
LINE
  5
B15
330
A02
100
AcDbEntity
  8
Shape2DView002
100
AcDbLine
 10
72.200000000
 20
-111.190000000
 30
0.000000000
 11
70.200000000
 21
-110.440000000
 31
0.000000000
  0
LINE
  5
B16
330
A02
100
AcDbEntity
  8
Shape2DView002
100
AcDbLine
 10
70.200000000
 20
-110.440000000
 30
0.000000000
 11
70.200000000
 21
-107.640000000
 31
0.000000000
  0
LINE
  5
B17
330
A02
100
AcDbEntity
  8
Shape2DView002
100
AcDbLine
 10
70.200000000
 20
-107.640000000
 30
0.000000000
 11
86.200000000
 21
-107.640000000
 31
0.000000000
  0
ARC
  5
B18
330
A02
100
AcDbEntity
  8
Shape2DView002
100
AcDbCircle
 10
86.200000000
 20
-107.240000000
 30
0.000000000
 40
0.400000000
100
AcDbArc
 50
-90.000000000
 51
90.000000000
  0
LINE
  5
B19
330
A02
100
AcDbEntity
  8
Shape2DView002
100
AcDbLine
 10
86.200000000
 20
-106.840000000
 30
0.000000000
 11
72.200000000
 21
-106.840000000
 31
0.000000000
  0
LINE
  5
B1A
330
A02
100
AcDbEntity
  8
Shape2DView002
100
AcDbLine
 10
72.200000000
 20
-106.840000000
 30
0.000000000
 11
72.200000000
 21
-91.750000000
 31
0.000000000
  0
LINE
  5
B1B
330
A02
100
AcDbEntity
  8
Shape2DView002
100
AcDbLine
 10
75.000000000
 20
-91.750000000
 30
0.000000000
 11
72.200000000
 21
-91.750000000
 31
0.000000000
  0
LINE
  5
B1C
330
A02
100
AcDbEntity
  8
Shape2DView002
100
AcDbLine
 10
75.000000000
 20
-81.750000000
 30
0.000000000
 11
75.000000000
 21
-91.750000000
 31
0.000000000
  0
LINE
  5
B1D
330
A02
100
AcDbEntity
  8
Shape2DView002
100
AcDbLine
 10
72.200000000
 20
-81.750000000
 30
0.000000000
 11
75.000000000
 21
-81.750000000
 31
0.000000000
  0
LINE
  5
B1E
330
A02
100
AcDbEntity
  8
Shape2DView002
100
AcDbLine
 10
72.200000000
 20
-66.660000000
 30
0.000000000
 11
72.200000000
 21
-81.750000000
 31
0.000000000
  0
LINE
  5
B1F
330
A02
100
AcDbEntity
  8
Shape2DView002
100
AcDbLine
 10
86.200000000
 20
-66.660000000
 30
0.000000000
 11
72.200000000
 21
-66.660000000
 31
0.000000000
  0
ARC
  5
B20
330
A02
100
AcDbEntity
  8
Shape2DView002
100
AcDbCircle
 10
86.200000000
 20
-66.260000000
 30
0.000000000
 40
0.400000000
100
AcDbArc
 50
-90.000000000
 51
90.000000000
  0
LINE
  5
B21
330
A02
100
AcDbEntity
  8
Shape2DView002
100
AcDbLine
 10
70.200000000
 20
-65.860000000
 30
0.000000000
 11
86.200000000
 21
-65.860000000
 31
0.000000000
  0
LINE
  5
B22
330
A02
100
AcDbEntity
  8
Shape2DView002
100
AcDbLine
 10
70.200000000
 20
-63.060000000
 30
0.000000000
 11
70.200000000
 21
-65.860000000
 31
0.000000000
  0
LINE
  5
B23
330
A02
100
AcDbEntity
  8
Shape2DView002
100
AcDbLine
 10
72.200000000
 20
-62.310000000
 30
0.000000000
 11
70.200000000
 21
-63.060000000
 31
0.000000000
  0
LINE
  5
B24
330
A02
100
AcDbEntity
  8
Shape2DView002
100
AcDbLine
 10
72.200000000
 20
-63.060000000
 30
0.000000000
 11
72.200000000
 21
-62.310000000
 31
0.000000000
  0
LINE
  5
B25
330
A02
100
AcDbEntity
  8
Shape2DView002
100
AcDbLine
 10
72.200000000
 20
-63.060000000
 30
0.000000000
 11
84.333333333
 21
-63.060000000
 31
0.000000000
  0
LINE
  5
B26
330
A02
100
AcDbEntity
  8
Shape2DView002
100
AcDbLine
 10
126.092192385
 20
-82.769677057
 30
0.000000000
 11
126.261802004
 21
-82.875660910
 31
0.000000000
  0
ARC
  5
B27
330
A02
100
AcDbEntity
  8
Shape2DView002
100
AcDbCircle
 10
122.700000000
 20
-80.650000000
 30
0.000000000
 40
4.200000000
100
AcDbArc
 50
-148.000000000
 51
-32.000000000
  0
LINE
  5
B28
330
A02
100
AcDbEntity
  8
Shape2DView002
100
AcDbLine
 10
119.138197996
 20
-82.875660910
 30
0.000000000
 11
119.307807615
 21
-82.769677057
 31
0.000000000
  0
ARC
  5
B29
330
A02
100
AcDbEntity
  8
Shape2DView002
100
AcDbCircle
 10
122.700000000
 20
-80.650000000
 30
0.000000000
 40
4.000000000
100
AcDbArc
 50
-148.000000000
 51
-32.000000000
  0
LINE
  5
B2A
330
A02
100
AcDbEntity
  8
Shape2DView002
100
AcDbLine
 10
119.138197996
 20
-90.624339090
 30
0.000000000
 11
119.307807615
 21
-90.730322943
 31
0.000000000
  0
ARC
  5
B2B
330
A02
100
AcDbEntity
  8
Shape2DView002
100
AcDbCircle
 10
122.700000000
 20
-92.850000000
 30
0.000000000
 40
4.000000000
100
AcDbArc
 50
32.000000000
 51
148.000000000
  0
LINE
  5
B2C
330
A02
100
AcDbEntity
  8
Shape2DView002
100
AcDbLine
 10
126.092192385
 20
-90.730322943
 30
0.000000000
 11
126.261802004
 21
-90.624339090
 31
0.000000000
  0
ARC
  5
B2D
330
A02
100
AcDbEntity
  8
Shape2DView002
100
AcDbCircle
 10
122.700000000
 20
-92.850000000
 30
0.000000000
 40
4.200000000
100
AcDbArc
 50
32.000000000
 51
148.000000000
  0
LINE
  5
B2E
330
A02
100
AcDbEntity
  8
Shape2DView002
100
AcDbLine
 10
93.738197996
 20
-90.624339090
 30
0.000000000
 11
93.907807615
 21
-90.730322943
 31
0.000000000
  0
ARC
  5
B2F
330
A02
100
AcDbEntity
  8
Shape2DView002
100
AcDbCircle
 10
97.300000000
 20
-92.850000000
 30
0.000000000
 40
4.000000000
100
AcDbArc
 50
32.000000000
 51
148.000000000
  0
LINE
  5
B30
330
A02
100
AcDbEntity
  8
Shape2DView002
100
AcDbLine
 10
100.692192385
 20
-90.730322943
 30
0.000000000
 11
100.861802004
 21
-90.624339090
 31
0.000000000
  0
ARC
  5
B31
330
A02
100
AcDbEntity
  8
Shape2DView002
100
AcDbCircle
 10
97.300000000
 20
-92.850000000
 30
0.000000000
 40
4.200000000
100
AcDbArc
 50
32.000000000
 51
148.000000000
  0
LINE
  5
B32
330
A02
100
AcDbEntity
  8
Shape2DView002
100
AcDbLine
 10
100.692192385
 20
-82.769677057
 30
0.000000000
 11
100.861802004
 21
-82.875660910
 31
0.000000000
  0
ARC
  5
B33
330
A02
100
AcDbEntity
  8
Shape2DView002
100
AcDbCircle
 10
97.300000000
 20
-80.650000000
 30
0.000000000
 40
4.200000000
100
AcDbArc
 50
-148.000000000
 51
-32.000000000
  0
LINE
  5
B34
330
A02
100
AcDbEntity
  8
Shape2DView002
100
AcDbLine
 10
93.738197996
 20
-82.875660910
 30
0.000000000
 11
93.907807615
 21
-82.769677057
 31
0.000000000
  0
ARC
  5
B35
330
A02
100
AcDbEntity
  8
Shape2DView002
100
AcDbCircle
 10
97.300000000
 20
-80.650000000
 30
0.000000000
 40
4.000000000
100
AcDbArc
 50
-148.000000000
 51
-32.000000000
  0
LINE
  5
B36
330
A02
100
AcDbEntity
  8
Shape2DView002
100
AcDbLine
 10
97.160402013
 20
-96.847563308
 30
0.000000000
 11
97.153422114
 21
-97.047441473
 31
0.000000000
  0
ARC
  5
B37
330
A02
100
AcDbEntity
  8
Shape2DView002
100
AcDbCircle
 10
97.300000000
 20
-92.850000000
 30
0.000000000
 40
4.200000000
100
AcDbArc
 50
152.000000000
 51
-92.000000000
  0
LINE
  5
B38
330
A02
100
AcDbEntity
  8
Shape2DView002
100
AcDbLine
 10
93.591620110
 20
-90.878219436
 30
0.000000000
 11
93.768209629
 21
-90.972113749
 31
0.000000000
  0
ARC
  5
B39
330
A02
100
AcDbEntity
  8
Shape2DView002
100
AcDbCircle
 10
97.300000000
 20
-92.850000000
 30
0.000000000
 40
4.000000000
100
AcDbArc
 50
152.000000000
 51
-92.000000000
  0
LINE
  5
B3A
330
A02
100
AcDbEntity
  8
Shape2DView002
100
AcDbLine
 10
122.839597987
 20
-96.847563308
 30
0.000000000
 11
122.846577886
 21
-97.047441473
 31
0.000000000
  0
ARC
  5
B3B
330
A02
100
AcDbEntity
  8
Shape2DView002
100
AcDbCircle
 10
122.700000000
 20
-92.850000000
 30
0.000000000
 40
4.200000000
100
AcDbArc
 50
-88.000000000
 51
28.000000000
  0
LINE
  5
B3C
330
A02
100
AcDbEntity
  8
Shape2DView002
100
AcDbLine
 10
126.408379890
 20
-90.878219436
 30
0.000000000
 11
126.231790371
 21
-90.972113749
 31
0.000000000
  0
ARC
  5
B3D
330
A02
100
AcDbEntity
  8
Shape2DView002
100
AcDbCircle
 10
122.700000000
 20
-92.850000000
 30
0.000000000
 40
4.000000000
100
AcDbArc
 50
-88.000000000
 51
28.000000000
  0
LINE
  5
B3E
330
A02
100
AcDbEntity
  8
Shape2DView002
100
AcDbLine
 10
122.839597987
 20
-76.652436692
 30
0.000000000
 11
122.846577886
 21
-76.452558527
 31
0.000000000
  0
ARC
  5
B3F
330
A02
100
AcDbEntity
  8
Shape2DView002
100
AcDbCircle
 10
122.700000000
 20
-80.650000000
 30
0.000000000
 40
4.200000000
100
AcDbArc
 50
-28.000000000
 51
88.000000000
  0
LINE
  5
B40
330
A02
100
AcDbEntity
  8
Shape2DView002
100
AcDbLine
 10
126.408379890
 20
-82.621780564
 30
0.000000000
 11
126.231790371
 21
-82.527886251
 31
0.000000000
  0
ARC
  5
B41
330
A02
100
AcDbEntity
  8
Shape2DView002
100
AcDbCircle
 10
122.700000000
 20
-80.650000000
 30
0.000000000
 40
4.000000000
100
AcDbArc
 50
-28.000000000
 51
88.000000000
  0
LINE
  5
B42
330
A02
100
AcDbEntity
  8
Shape2DView002
100
AcDbLine
 10
97.446577886
 20
-97.047441473
 30
0.000000000
 11
97.439597987
 21
-96.847563308
 31
0.000000000
  0
ARC
  5
B43
330
A02
100
AcDbEntity
  8
Shape2DView002
100
AcDbCircle
 10
97.300000000
 20
-92.850000000
 30
0.000000000
 40
4.000000000
100
AcDbArc
 50
-88.000000000
 51
28.000000000
  0
LINE
  5
B44
330
A02
100
AcDbEntity
  8
Shape2DView002
100
AcDbLine
 10
100.831790371
 20
-90.972113749
 30
0.000000000
 11
101.008379890
 21
-90.878219436
 31
0.000000000
  0
ARC
  5
B45
330
A02
100
AcDbEntity
  8
Shape2DView002
100
AcDbCircle
 10
97.300000000
 20
-92.850000000
 30
0.000000000
 40
4.200000000
100
AcDbArc
 50
-88.000000000
 51
28.000000000
  0
LINE
  5
B46
330
A02
100
AcDbEntity
  8
Shape2DView002
100
AcDbLine
 10
122.560402013
 20
-96.847563308
 30
0.000000000
 11
122.553422114
 21
-97.047441473
 31
0.000000000
  0
ARC
  5
B47
330
A02
100
AcDbEntity
  8
Shape2DView002
100
AcDbCircle
 10
122.700000000
 20
-92.850000000
 30
0.000000000
 40
4.200000000
100
AcDbArc
 50
152.000000000
 51
-92.000000000
  0
LINE
  5
B48
330
A02
100
AcDbEntity
  8
Shape2DView002
100
AcDbLine
 10
118.991620110
 20
-90.878219436
 30
0.000000000
 11
119.168209629
 21
-90.972113749
 31
0.000000000
  0
ARC
  5
B49
330
A02
100
AcDbEntity
  8
Shape2DView002
100
AcDbCircle
 10
122.700000000
 20
-92.850000000
 30
0.000000000
 40
4.000000000
100
AcDbArc
 50
152.000000000
 51
-92.000000000
  0
LINE
  5
B4A
330
A02
100
AcDbEntity
  8
Shape2DView002
100
AcDbLine
 10
122.560402013
 20
-76.652436692
 30
0.000000000
 11
122.553422114
 21
-76.452558527
 31
0.000000000
  0
ARC
  5
B4B
330
A02
100
AcDbEntity
  8
Shape2DView002
100
AcDbCircle
 10
122.700000000
 20
-80.650000000
 30
0.000000000
 40
4.200000000
100
AcDbArc
 50
92.000000000
 51
-152.000000000
  0
LINE
  5
B4C
330
A02
100
AcDbEntity
  8
Shape2DView002
100
AcDbLine
 10
118.991620110
 20
-82.621780564
 30
0.000000000
 11
119.168209629
 21
-82.527886251
 31
0.000000000
  0
ARC
  5
B4D
330
A02
100
AcDbEntity
  8
Shape2DView002
100
AcDbCircle
 10
122.700000000
 20
-80.650000000
 30
0.000000000
 40
4.000000000
100
AcDbArc
 50
92.000000000
 51
-152.000000000
  0
LINE
  5
B4E
330
A02
100
AcDbEntity
  8
Shape2DView002
100
AcDbLine
 10
97.439597987
 20
-76.652436692
 30
0.000000000
 11
97.446577886
 21
-76.452558527
 31
0.000000000
  0
ARC
  5
B4F
330
A02
100
AcDbEntity
  8
Shape2DView002
100
AcDbCircle
 10
97.300000000
 20
-80.650000000
 30
0.000000000
 40
4.200000000
100
AcDbArc
 50
-28.000000000
 51
88.000000000
  0
LINE
  5
B50
330
A02
100
AcDbEntity
  8
Shape2DView002
100
AcDbLine
 10
101.008379890
 20
-82.621780564
 30
0.000000000
 11
100.831790371
 21
-82.527886251
 31
0.000000000
  0
ARC
  5
B51
330
A02
100
AcDbEntity
  8
Shape2DView002
100
AcDbCircle
 10
97.300000000
 20
-80.650000000
 30
0.000000000
 40
4.000000000
100
AcDbArc
 50
-28.000000000
 51
88.000000000
  0
LINE
  5
B52
330
A02
100
AcDbEntity
  8
Shape2DView002
100
AcDbLine
 10
97.153422114
 20
-76.452558527
 30
0.000000000
 11
97.160402013
 21
-76.652436692
 31
0.000000000
  0
ARC
  5
B53
330
A02
100
AcDbEntity
  8
Shape2DView002
100
AcDbCircle
 10
97.300000000
 20
-80.650000000
 30
0.000000000
 40
4.000000000
100
AcDbArc
 50
92.000000000
 51
-152.000000000
  0
LINE
  5
B54
330
A02
100
AcDbEntity
  8
Shape2DView002
100
AcDbLine
 10
93.768209629
 20
-82.527886251
 30
0.000000000
 11
93.591620110
 21
-82.621780564
 31
0.000000000
  0
ARC
  5
B55
330
A02
100
AcDbEntity
  8
Shape2DView002
100
AcDbCircle
 10
97.300000000
 20
-80.650000000
 30
0.000000000
 40
4.200000000
100
AcDbArc
 50
92.000000000
 51
-152.000000000
  0
CIRCLE
  5
B56
330
A02
100
AcDbEntity
  8
Shape2DView002
100
AcDbCircle
 10
97.300000000
 20
-92.850000000
 30
0.000000000
 40
1.525000000
  0
CIRCLE
  5
B57
330
A02
100
AcDbEntity
  8
Shape2DView002
100
AcDbCircle
 10
122.700000000
 20
-92.850000000
 30
0.000000000
 40
1.525000000
  0
CIRCLE
  5
B58
330
A02
100
AcDbEntity
  8
Shape2DView002
100
AcDbCircle
 10
135.400000000
 20
-59.060000000
 30
0.000000000
 40
1.525000000
  0
CIRCLE
  5
B59
330
A02
100
AcDbEntity
  8
Shape2DView002
100
AcDbCircle
 10
84.600000000
 20
-59.060000000
 30
0.000000000
 40
1.525000000
  0
CIRCLE
  5
B5A
330
A02
100
AcDbEntity
  8
Shape2DView002
100
AcDbCircle
 10
97.300000000
 20
-80.650000000
 30
0.000000000
 40
1.525000000
  0
CIRCLE
  5
B5B
330
A02
100
AcDbEntity
  8
Shape2DView002
100
AcDbCircle
 10
122.700000000
 20
-80.650000000
 30
0.000000000
 40
1.525000000
  0
CIRCLE
  5
B5C
330
A02
100
AcDbEntity
  8
Shape2DView002
100
AcDbCircle
 10
84.600000000
 20
-114.940000000
 30
0.000000000
 40
1.525000000
  0
CIRCLE
  5
B5D
330
A02
100
AcDbEntity
  8
Shape2DView002
100
AcDbCircle
 10
135.400000000
 20
-114.940000000
 30
0.000000000
 40
1.525000000
  0
LINE
  5
B5E
330
A02
100
AcDbEntity
  8
Shape2DView003
100
AcDbLine
 10
38.130000000
 20
131.511281942
 30
0.000000000
 11
35.561383714
 21
131.511281942
 31
0.000000000
  0
LINE
  5
B5F
330
A02
100
AcDbEntity
  8
Shape2DView003
100
AcDbLine
 10
38.130000000
 20
146.611281942
 30
0.000000000
 11
38.130000000
 21
131.511281942
 31
0.000000000
  0
LINE
  5
B60
330
A02
100
AcDbEntity
  8
Shape2DView003
100
AcDbLine
 10
-37.470000000
 20
146.611281942
 30
0.000000000
 11
38.130000000
 21
146.611281942
 31
0.000000000
  0
LINE
  5
B61
330
A02
100
AcDbEntity
  8
Shape2DView003
100
AcDbLine
 10
-37.470000000
 20
131.511281942
 30
0.000000000
 11
-37.470000000
 21
146.611281942
 31
0.000000000
  0
LINE
  5
B62
330
A02
100
AcDbEntity
  8
Shape2DView003
100
AcDbLine
 10
-34.901383714
 20
131.511281942
 30
0.000000000
 11
-37.470000000
 21
131.511281942
 31
0.000000000
  0
ARC
  5
B63
330
A02
100
AcDbEntity
  8
Shape2DView003
100
AcDbCircle
 10
-34.729333333
 20
131.411948609
 30
0.000000000
 40
0.198666667
100
AcDbArc
 50
-60.000000000
 51
150.000000000
  0
LINE
  5
B64
330
A02
100
AcDbEntity
  8
Shape2DView003
100
AcDbLine
 10
-34.630000000
 20
131.239898229
 30
0.000000000
 11
-34.630000000
 21
121.982665656
 31
0.000000000
  0
ARC
  5
B65
330
A02
100
AcDbEntity
  8
Shape2DView003
100
AcDbCircle
 10
-34.729333333
 20
121.810615276
 30
0.000000000
 40
0.198666667
100
AcDbArc
 50
-150.000000000
 51
60.000000000
  0
LINE
  5
B66
330
A02
100
AcDbEntity
  8
Shape2DView003
100
AcDbLine
 10
-34.901383714
 20
121.711281942
 30
0.000000000
 11
-37.470000000
 21
121.711281942
 31
0.000000000
  0
LINE
  5
B67
330
A02
100
AcDbEntity
  8
Shape2DView003
100
AcDbLine
 10
-37.470000000
 20
106.611281942
 30
0.000000000
 11
-37.470000000
 21
121.711281942
 31
0.000000000
  0
LINE
  5
B68
330
A02
100
AcDbEntity
  8
Shape2DView003
100
AcDbLine
 10
-20.076666667
 20
106.611281942
 30
0.000000000
 11
-37.470000000
 21
106.611281942
 31
0.000000000
  0
ARC
  5
B69
330
A02
100
AcDbEntity
  8
Shape2DView003
100
AcDbCircle
 10
-19.890000000
 20
106.611281942
 30
0.000000000
 40
0.186666667
100
AcDbArc
 50
-90.000000000
 51
0.000000000
  0
ARC
  5
B6A
330
A02
100
AcDbEntity
  8
Shape2DView003
100
AcDbCircle
 10
-19.890000000
 20
106.611281942
 30
0.000000000
 40
0.186666667
100
AcDbArc
 50
0.000000000
 51
180.000000000
  0
LINE
  5
B6B
330
A02
100
AcDbEntity
  8
Shape2DView003
100
AcDbLine
 10
-19.890000000
 20
106.424615276
 30
0.000000000
 11
-19.890000000
 21
103.811281942
 31
0.000000000
  0
LINE
  5
B6C
330
A02
100
AcDbEntity
  8
Shape2DView003
100
AcDbLine
 10
-19.890000000
 20
103.811281942
 30
0.000000000
 11
-9.690000000
 21
103.811281942
 31
0.000000000
  0
ARC
  5
B6D
330
A02
100
AcDbEntity
  8
Shape2DView003
100
AcDbCircle
 10
-9.690000000
 20
106.611281942
 30
0.000000000
 40
0.186666667
100
AcDbArc
 50
0.000000000
 51
180.000000000
  0
ARC
  5
B6E
330
A02
100
AcDbEntity
  8
Shape2DView003
100
AcDbCircle
 10
-9.690000000
 20
106.611281942
 30
0.000000000
 40
0.186666667
100
AcDbArc
 50
180.000000000
 51
-90.000000000
  0
LINE
  5
B6F
330
A02
100
AcDbEntity
  8
Shape2DView003
100
AcDbLine
 10
10.163333333
 20
106.611281942
 30
0.000000000
 11
-9.503333333
 21
106.611281942
 31
0.000000000
  0
ARC
  5
B70
330
A02
100
AcDbEntity
  8
Shape2DView003
100
AcDbCircle
 10
10.350000000
 20
106.611281942
 30
0.000000000
 40
0.186666667
100
AcDbArc
 50
-90.000000000
 51
0.000000000
  0
ARC
  5
B71
330
A02
100
AcDbEntity
  8
Shape2DView003
100
AcDbCircle
 10
10.350000000
 20
106.611281942
 30
0.000000000
 40
0.186666667
100
AcDbArc
 50
0.000000000
 51
180.000000000
  0
LINE
  5
B72
330
A02
100
AcDbEntity
  8
Shape2DView003
100
AcDbLine
 10
-9.690000000
 20
106.424615276
 30
0.000000000
 11
-9.690000000
 21
103.811281942
 31
0.000000000
  0
LINE
  5
B73
330
A02
100
AcDbEntity
  8
Shape2DView003
100
AcDbLine
 10
10.350000000
 20
106.424615276
 30
0.000000000
 11
10.350000000
 21
103.811281942
 31
0.000000000
  0
LINE
  5
B74
330
A02
100
AcDbEntity
  8
Shape2DView003
100
AcDbLine
 10
10.350000000
 20
103.811281942
 30
0.000000000
 11
20.550000000
 21
103.811281942
 31
0.000000000
  0
LINE
  5
B75
330
A02
100
AcDbEntity
  8
Shape2DView003
100
AcDbLine
 10
38.130000000
 20
106.611281942
 30
0.000000000
 11
20.736666667
 21
106.611281942
 31
0.000000000
  0
ARC
  5
B76
330
A02
100
AcDbEntity
  8
Shape2DView003
100
AcDbCircle
 10
20.550000000
 20
106.611281942
 30
0.000000000
 40
0.186666667
100
AcDbArc
 50
0.000000000
 51
180.000000000
  0
ARC
  5
B77
330
A02
100
AcDbEntity
  8
Shape2DView003
100
AcDbCircle
 10
20.550000000
 20
106.611281942
 30
0.000000000
 40
0.186666667
100
AcDbArc
 50
180.000000000
 51
-90.000000000
  0
LINE
  5
B78
330
A02
100
AcDbEntity
  8
Shape2DView003
100
AcDbLine
 10
38.130000000
 20
121.711281942
 30
0.000000000
 11
38.130000000
 21
106.611281942
 31
0.000000000
  0
LINE
  5
B79
330
A02
100
AcDbEntity
  8
Shape2DView003
100
AcDbLine
 10
38.130000000
 20
121.711281942
 30
0.000000000
 11
35.561383714
 21
121.711281942
 31
0.000000000
  0
LINE
  5
B7A
330
A02
100
AcDbEntity
  8
Shape2DView003
100
AcDbLine
 10
20.550000000
 20
106.424615276
 30
0.000000000
 11
20.550000000
 21
103.811281942
 31
0.000000000
  0
ARC
  5
B7B
330
A02
100
AcDbEntity
  8
Shape2DView003
100
AcDbCircle
 10
35.389333333
 20
121.810615276
 30
0.000000000
 40
0.198666667
100
AcDbArc
 50
180.000000000
 51
-30.000000000
  0
ARC
  5
B7C
330
A02
100
AcDbEntity
  8
Shape2DView003
100
AcDbCircle
 10
35.389333333
 20
121.810615276
 30
0.000000000
 40
0.198666667
100
AcDbArc
 50
120.000000000
 51
180.000000000
  0
LINE
  5
B7D
330
A02
100
AcDbEntity
  8
Shape2DView003
100
AcDbLine
 10
35.290000000
 20
131.239898229
 30
0.000000000
 11
35.290000000
 21
121.982665656
 31
0.000000000
  0
ARC
  5
B7E
330
A02
100
AcDbEntity
  8
Shape2DView003
100
AcDbCircle
 10
35.389333333
 20
131.411948609
 30
0.000000000
 40
0.198666667
100
AcDbArc
 50
180.000000000
 51
-120.000000000
  0
ARC
  5
B7F
330
A02
100
AcDbEntity
  8
Shape2DView003
100
AcDbCircle
 10
35.389333333
 20
131.411948609
 30
0.000000000
 40
0.198666667
100
AcDbArc
 50
30.000000000
 51
180.000000000
  0
LINE
  5
B80
330
A02
100
AcDbEntity
  8
Shape2DView004
100
AcDbLine
 10
70.200000000
 20
26.411281942
 30
0.000000000
 11
93.263333333
 21
26.411281942
 31
0.000000000
  0
ARC
  5
B81
330
A02
100
AcDbEntity
  8
Shape2DView004
100
AcDbCircle
 10
93.450000000
 20
26.411281942
 30
0.000000000
 40
0.186666667
100
AcDbArc
 50
180.000000000
 51
0.000000000
  0
ARC
  5
B82
330
A02
100
AcDbEntity
  8
Shape2DView004
100
AcDbCircle
 10
93.450000000
 20
26.411281942
 30
0.000000000
 40
0.186666667
100
AcDbArc
 50
0.000000000
 51
90.000000000
  0
LINE
  5
B83
330
A02
100
AcDbEntity
  8
Shape2DView004
100
AcDbLine
 10
70.200000000
 20
12.561281942
 30
0.000000000
 11
70.200000000
 21
26.411281942
 31
0.000000000
  0
LINE
  5
B84
330
A02
100
AcDbEntity
  8
Shape2DView004
100
AcDbLine
 10
70.200000000
 20
12.561281942
 30
0.000000000
 11
72.768616286
 21
12.561281942
 31
0.000000000
  0
LINE
  5
B85
330
A02
100
AcDbEntity
  8
Shape2DView004
100
AcDbLine
 10
93.450000000
 20
26.597948609
 30
0.000000000
 11
93.450000000
 21
29.211281942
 31
0.000000000
  0
LINE
  5
B86
330
A02
100
AcDbEntity
  8
Shape2DView004
100
AcDbLine
 10
103.650000000
 20
29.211281942
 30
0.000000000
 11
93.450000000
 21
29.211281942
 31
0.000000000
  0
LINE
  5
B87
330
A02
100
AcDbEntity
  8
Shape2DView004
100
AcDbLine
 10
103.650000000
 20
26.597948609
 30
0.000000000
 11
103.650000000
 21
29.211281942
 31
0.000000000
  0
ARC
  5
B88
330
A02
100
AcDbEntity
  8
Shape2DView004
100
AcDbCircle
 10
103.650000000
 20
26.411281942
 30
0.000000000
 40
0.186666667
100
AcDbArc
 50
90.000000000
 51
180.000000000
  0
ARC
  5
B89
330
A02
100
AcDbEntity
  8
Shape2DView004
100
AcDbCircle
 10
103.650000000
 20
26.411281942
 30
0.000000000
 40
0.186666667
100
AcDbArc
 50
180.000000000
 51
0.000000000
  0
LINE
  5
B8A
330
A02
100
AcDbEntity
  8
Shape2DView004
100
AcDbLine
 10
103.836666667
 20
26.411281942
 30
0.000000000
 11
112.163333333
 21
26.411281942
 31
0.000000000
  0
ARC
  5
B8B
330
A02
100
AcDbEntity
  8
Shape2DView004
100
AcDbCircle
 10
112.350000000
 20
26.411281942
 30
0.000000000
 40
0.186666667
100
AcDbArc
 50
180.000000000
 51
0.000000000
  0
ARC
  5
B8C
330
A02
100
AcDbEntity
  8
Shape2DView004
100
AcDbCircle
 10
112.350000000
 20
26.411281942
 30
0.000000000
 40
0.186666667
100
AcDbArc
 50
0.000000000
 51
90.000000000
  0
LINE
  5
B8D
330
A02
100
AcDbEntity
  8
Shape2DView004
100
AcDbLine
 10
112.350000000
 20
26.597948609
 30
0.000000000
 11
112.350000000
 21
29.211281942
 31
0.000000000
  0
LINE
  5
B8E
330
A02
100
AcDbEntity
  8
Shape2DView004
100
AcDbLine
 10
122.550000000
 20
29.211281942
 30
0.000000000
 11
112.350000000
 21
29.211281942
 31
0.000000000
  0
LINE
  5
B8F
330
A02
100
AcDbEntity
  8
Shape2DView004
100
AcDbLine
 10
122.550000000
 20
26.597948609
 30
0.000000000
 11
122.550000000
 21
29.211281942
 31
0.000000000
  0
ARC
  5
B90
330
A02
100
AcDbEntity
  8
Shape2DView004
100
AcDbCircle
 10
122.550000000
 20
26.411281942
 30
0.000000000
 40
0.186666667
100
AcDbArc
 50
90.000000000
 51
180.000000000
  0
ARC
  5
B91
330
A02
100
AcDbEntity
  8
Shape2DView004
100
AcDbCircle
 10
122.550000000
 20
26.411281942
 30
0.000000000
 40
0.186666667
100
AcDbArc
 50
180.000000000
 51
0.000000000
  0
LINE
  5
B92
330
A02
100
AcDbEntity
  8
Shape2DView004
100
AcDbLine
 10
122.736666667
 20
26.411281942
 30
0.000000000
 11
145.800000000
 21
26.411281942
 31
0.000000000
  0
LINE
  5
B93
330
A02
100
AcDbEntity
  8
Shape2DView004
100
AcDbLine
 10
145.800000000
 20
26.411281942
 30
0.000000000
 11
145.800000000
 21
12.561281942
 31
0.000000000
  0
LINE
  5
B94
330
A02
100
AcDbEntity
  8
Shape2DView004
100
AcDbLine
 10
143.231383714
 20
12.561281942
 30
0.000000000
 11
145.800000000
 21
12.561281942
 31
0.000000000
  0
ARC
  5
B95
330
A02
100
AcDbEntity
  8
Shape2DView004
100
AcDbCircle
 10
143.059333333
 20
12.461948609
 30
0.000000000
 40
0.198666667
100
AcDbArc
 50
30.000000000
 51
-120.000000000
  0
LINE
  5
B96
330
A02
100
AcDbEntity
  8
Shape2DView004
100
AcDbLine
 10
142.960000000
 20
3.032665656
 30
0.000000000
 11
142.960000000
 21
12.289898229
 31
0.000000000
  0
ARC
  5
B97
330
A02
100
AcDbEntity
  8
Shape2DView004
100
AcDbCircle
 10
143.059333333
 20
2.860615276
 30
0.000000000
 40
0.198666667
100
AcDbArc
 50
120.000000000
 51
-30.000000000
  0
LINE
  5
B98
330
A02
100
AcDbEntity
  8
Shape2DView004
100
AcDbLine
 10
143.231383714
 20
2.761281942
 30
0.000000000
 11
145.800000000
 21
2.761281942
 31
0.000000000
  0
LINE
  5
B99
330
A02
100
AcDbEntity
  8
Shape2DView004
100
AcDbLine
 10
145.800000000
 20
2.761281942
 30
0.000000000
 11
145.800000000
 21
-24.938718058
 31
0.000000000
  0
LINE
  5
B9A
330
A02
100
AcDbEntity
  8
Shape2DView004
100
AcDbLine
 10
143.231383714
 20
-24.938718058
 30
0.000000000
 11
145.800000000
 21
-24.938718058
 31
0.000000000
  0
ARC
  5
B9B
330
A02
100
AcDbEntity
  8
Shape2DView004
100
AcDbCircle
 10
143.059333333
 20
-25.038051391
 30
0.000000000
 40
0.198666667
100
AcDbArc
 50
30.000000000
 51
-120.000000000
  0
LINE
  5
B9C
330
A02
100
AcDbEntity
  8
Shape2DView004
100
AcDbLine
 10
142.960000000
 20
-34.467334344
 30
0.000000000
 11
142.960000000
 21
-25.210101771
 31
0.000000000
  0
ARC
  5
B9D
330
A02
100
AcDbEntity
  8
Shape2DView004
100
AcDbCircle
 10
143.059333333
 20
-34.639384724
 30
0.000000000
 40
0.198666667
100
AcDbArc
 50
120.000000000
 51
-30.000000000
  0
LINE
  5
B9E
330
A02
100
AcDbEntity
  8
Shape2DView004
100
AcDbLine
 10
143.231383714
 20
-34.738718058
 30
0.000000000
 11
145.800000000
 21
-34.738718058
 31
0.000000000
  0
LINE
  5
B9F
330
A02
100
AcDbEntity
  8
Shape2DView004
100
AcDbLine
 10
145.800000000
 20
-34.738718058
 30
0.000000000
 11
145.800000000
 21
-48.588718058
 31
0.000000000
  0
LINE
  5
BA0
330
A02
100
AcDbEntity
  8
Shape2DView004
100
AcDbLine
 10
145.800000000
 20
-48.588718058
 30
0.000000000
 11
128.406666667
 21
-48.588718058
 31
0.000000000
  0
ARC
  5
BA1
330
A02
100
AcDbEntity
  8
Shape2DView004
100
AcDbCircle
 10
128.220000000
 20
-48.588718058
 30
0.000000000
 40
0.186666667
100
AcDbArc
 50
-0.000000000
 51
180.000000000
  0
ARC
  5
BA2
330
A02
100
AcDbEntity
  8
Shape2DView004
100
AcDbCircle
 10
128.220000000
 20
-48.588718058
 30
0.000000000
 40
0.186666667
100
AcDbArc
 50
180.000000000
 51
-90.000000000
  0
LINE
  5
BA3
330
A02
100
AcDbEntity
  8
Shape2DView004
100
AcDbLine
 10
128.220000000
 20
-48.775384724
 30
0.000000000
 11
128.220000000
 21
-51.388718058
 31
0.000000000
  0
LINE
  5
BA4
330
A02
100
AcDbEntity
  8
Shape2DView004
100
AcDbLine
 10
118.020000000
 20
-51.388718058
 30
0.000000000
 11
128.220000000
 21
-51.388718058
 31
0.000000000
  0
LINE
  5
BA5
330
A02
100
AcDbEntity
  8
Shape2DView004
100
AcDbLine
 10
118.020000000
 20
-48.775384724
 30
0.000000000
 11
118.020000000
 21
-51.388718058
 31
0.000000000
  0
ARC
  5
BA6
330
A02
100
AcDbEntity
  8
Shape2DView004
100
AcDbCircle
 10
118.020000000
 20
-48.588718058
 30
0.000000000
 40
0.186666667
100
AcDbArc
 50
-90.000000000
 51
0.000000000
  0
ARC
  5
BA7
330
A02
100
AcDbEntity
  8
Shape2DView004
100
AcDbCircle
 10
118.020000000
 20
-48.588718058
 30
0.000000000
 40
0.186666667
100
AcDbArc
 50
0.000000000
 51
180.000000000
  0
LINE
  5
BA8
330
A02
100
AcDbEntity
  8
Shape2DView004
100
AcDbLine
 10
117.833333333
 20
-48.588718058
 30
0.000000000
 11
98.166666667
 21
-48.588718058
 31
0.000000000
  0
ARC
  5
BA9
330
A02
100
AcDbEntity
  8
Shape2DView004
100
AcDbCircle
 10
97.980000000
 20
-48.588718058
 30
0.000000000
 40
0.186666667
100
AcDbArc
 50
0.000000000
 51
180.000000000
  0
ARC
  5
BAA
330
A02
100
AcDbEntity
  8
Shape2DView004
100
AcDbCircle
 10
97.980000000
 20
-48.588718058
 30
0.000000000
 40
0.186666667
100
AcDbArc
 50
180.000000000
 51
-90.000000000
  0
LINE
  5
BAB
330
A02
100
AcDbEntity
  8
Shape2DView004
100
AcDbLine
 10
97.980000000
 20
-48.775384724
 30
0.000000000
 11
97.980000000
 21
-51.388718058
 31
0.000000000
  0
LINE
  5
BAC
330
A02
100
AcDbEntity
  8
Shape2DView004
100
AcDbLine
 10
87.780000000
 20
-51.388718058
 30
0.000000000
 11
97.980000000
 21
-51.388718058
 31
0.000000000
  0
LINE
  5
BAD
330
A02
100
AcDbEntity
  8
Shape2DView004
100
AcDbLine
 10
87.780000000
 20
-48.775384724
 30
0.000000000
 11
87.780000000
 21
-51.388718058
 31
0.000000000
  0
ARC
  5
BAE
330
A02
100
AcDbEntity
  8
Shape2DView004
100
AcDbCircle
 10
87.780000000
 20
-48.588718058
 30
0.000000000
 40
0.186666667
100
AcDbArc
 50
-90.000000000
 51
0.000000000
  0
ARC
  5
BAF
330
A02
100
AcDbEntity
  8
Shape2DView004
100
AcDbCircle
 10
87.780000000
 20
-48.588718058
 30
0.000000000
 40
0.186666667
100
AcDbArc
 50
0.000000000
 51
180.000000000
  0
LINE
  5
BB0
330
A02
100
AcDbEntity
  8
Shape2DView004
100
AcDbLine
 10
87.593333333
 20
-48.588718058
 30
0.000000000
 11
70.200000000
 21
-48.588718058
 31
0.000000000
  0
LINE
  5
BB1
330
A02
100
AcDbEntity
  8
Shape2DView004
100
AcDbLine
 10
70.200000000
 20
-48.588718058
 30
0.000000000
 11
70.200000000
 21
-34.738718058
 31
0.000000000
  0
LINE
  5
BB2
330
A02
100
AcDbEntity
  8
Shape2DView004
100
AcDbLine
 10
70.200000000
 20
-34.738718058
 30
0.000000000
 11
72.768616286
 21
-34.738718058
 31
0.000000000
  0
ARC
  5
BB3
330
A02
100
AcDbEntity
  8
Shape2DView004
100
AcDbCircle
 10
72.940666667
 20
12.461948609
 30
0.000000000
 40
0.198666667
100
AcDbArc
 50
0.000000000
 51
150.000000000
  0
ARC
  5
BB4
330
A02
100
AcDbEntity
  8
Shape2DView004
100
AcDbCircle
 10
72.940666667
 20
12.461948609
 30
0.000000000
 40
0.198666667
100
AcDbArc
 50
-60.000000000
 51
0.000000000
  0
LINE
  5
BB5
330
A02
100
AcDbEntity
  8
Shape2DView004
100
AcDbLine
 10
73.040000000
 20
3.032665656
 30
0.000000000
 11
73.040000000
 21
12.289898229
 31
0.000000000
  0
ARC
  5
BB6
330
A02
100
AcDbEntity
  8
Shape2DView004
100
AcDbCircle
 10
72.940666667
 20
2.860615276
 30
0.000000000
 40
0.198666667
100
AcDbArc
 50
0.000000000
 51
60.000000000
  0
ARC
  5
BB7
330
A02
100
AcDbEntity
  8
Shape2DView004
100
AcDbCircle
 10
72.940666667
 20
2.860615276
 30
0.000000000
 40
0.198666667
100
AcDbArc
 50
-150.000000000
 51
0.000000000
  0
LINE
  5
BB8
330
A02
100
AcDbEntity
  8
Shape2DView004
100
AcDbLine
 10
70.200000000
 20
2.761281942
 30
0.000000000
 11
72.768616286
 21
2.761281942
 31
0.000000000
  0
LINE
  5
BB9
330
A02
100
AcDbEntity
  8
Shape2DView004
100
AcDbLine
 10
70.200000000
 20
-24.938718058
 30
0.000000000
 11
70.200000000
 21
2.761281942
 31
0.000000000
  0
LINE
  5
BBA
330
A02
100
AcDbEntity
  8
Shape2DView004
100
AcDbLine
 10
70.200000000
 20
-24.938718058
 30
0.000000000
 11
72.768616286
 21
-24.938718058
 31
0.000000000
  0
ARC
  5
BBB
330
A02
100
AcDbEntity
  8
Shape2DView004
100
AcDbCircle
 10
72.940666667
 20
-25.038051391
 30
0.000000000
 40
0.198666667
100
AcDbArc
 50
0.000000000
 51
150.000000000
  0
ARC
  5
BBC
330
A02
100
AcDbEntity
  8
Shape2DView004
100
AcDbCircle
 10
72.940666667
 20
-25.038051391
 30
0.000000000
 40
0.198666667
100
AcDbArc
 50
-60.000000000
 51
0.000000000
  0
LINE
  5
BBD
330
A02
100
AcDbEntity
  8
Shape2DView004
100
AcDbLine
 10
73.040000000
 20
-34.467334344
 30
0.000000000
 11
73.040000000
 21
-25.210101771
 31
0.000000000
  0
ARC
  5
BBE
330
A02
100
AcDbEntity
  8
Shape2DView004
100
AcDbCircle
 10
72.940666667
 20
-34.639384724
 30
0.000000000
 40
0.198666667
100
AcDbArc
 50
0.000000000
 51
60.000000000
  0
ARC
  5
BBF
330
A02
100
AcDbEntity
  8
Shape2DView004
100
AcDbCircle
 10
72.940666667
 20
-34.639384724
 30
0.000000000
 40
0.198666667
100
AcDbArc
 50
-150.000000000
 51
0.000000000
  0
LINE
  5
BC0
330
A02
100
AcDbEntity
  8
Shape2DView005
100
AcDbLine
 10
70.200000000
 20
95.485921906
 30
0.000000000
 11
72.768616286
 21
95.485921906
 31
0.000000000
  0
LINE
  5
BC1
330
A02
100
AcDbEntity
  8
Shape2DView005
100
AcDbLine
 10
70.200000000
 20
104.780864106
 30
0.000000000
 11
70.200000000
 21
95.485921906
 31
0.000000000
  0
LINE
  5
BC2
330
A02
100
AcDbEntity
  8
Shape2DView005
100
AcDbLine
 10
82.813333333
 20
104.780864106
 30
0.000000000
 11
70.200000000
 21
104.780864106
 31
0.000000000
  0
ARC
  5
BC3
330
A02
100
AcDbEntity
  8
Shape2DView005
100
AcDbCircle
 10
83.000000000
 20
104.780864106
 30
0.000000000
 40
0.186666667
100
AcDbArc
 50
180.000000000
 51
0.000000000
  0
ARC
  5
BC4
330
A02
100
AcDbEntity
  8
Shape2DView005
100
AcDbCircle
 10
83.000000000
 20
104.780864106
 30
0.000000000
 40
0.186666667
100
AcDbArc
 50
0.000000000
 51
90.000000000
  0
LINE
  5
BC5
330
A02
100
AcDbEntity
  8
Shape2DView005
100
AcDbLine
 10
83.000000000
 20
104.967530773
 30
0.000000000
 11
83.000000000
 21
107.580864106
 31
0.000000000
  0
LINE
  5
BC6
330
A02
100
AcDbEntity
  8
Shape2DView005
100
AcDbLine
 10
93.200000000
 20
107.580864106
 30
0.000000000
 11
83.000000000
 21
107.580864106
 31
0.000000000
  0
LINE
  5
BC7
330
A02
100
AcDbEntity
  8
Shape2DView005
100
AcDbLine
 10
93.200000000
 20
104.967530773
 30
0.000000000
 11
93.200000000
 21
107.580864106
 31
0.000000000
  0
ARC
  5
BC8
330
A02
100
AcDbEntity
  8
Shape2DView005
100
AcDbCircle
 10
93.200000000
 20
104.780864106
 30
0.000000000
 40
0.186666667
100
AcDbArc
 50
90.000000000
 51
180.000000000
  0
ARC
  5
BC9
330
A02
100
AcDbEntity
  8
Shape2DView005
100
AcDbCircle
 10
93.200000000
 20
104.780864106
 30
0.000000000
 40
0.186666667
100
AcDbArc
 50
180.000000000
 51
0.000000000
  0
LINE
  5
BCA
330
A02
100
AcDbEntity
  8
Shape2DView005
100
AcDbLine
 10
106.000000000
 20
104.780864106
 30
0.000000000
 11
93.386666667
 21
104.780864106
 31
0.000000000
  0
LINE
  5
BCB
330
A02
100
AcDbEntity
  8
Shape2DView005
100
AcDbLine
 10
106.000000000
 20
101.280864106
 30
0.000000000
 11
106.000000000
 21
104.780864106
 31
0.000000000
  0
ARC
  5
BCC
330
A02
100
AcDbEntity
  8
Shape2DView005
100
AcDbCircle
 10
108.000000000
 20
101.280864106
 30
0.000000000
 40
2.000000000
100
AcDbArc
 50
-180.000000000
 51
0.000000000
  0
LINE
  5
BCD
330
A02
100
AcDbEntity
  8
Shape2DView005
100
AcDbLine
 10
110.000000000
 20
104.780864106
 30
0.000000000
 11
110.000000000
 21
101.280864106
 31
0.000000000
  0
LINE
  5
BCE
330
A02
100
AcDbEntity
  8
Shape2DView005
100
AcDbLine
 10
122.613333333
 20
104.780864106
 30
0.000000000
 11
110.000000000
 21
104.780864106
 31
0.000000000
  0
ARC
  5
BCF
330
A02
100
AcDbEntity
  8
Shape2DView005
100
AcDbCircle
 10
122.800000000
 20
104.780864106
 30
0.000000000
 40
0.186666667
100
AcDbArc
 50
180.000000000
 51
0.000000000
  0
ARC
  5
BD0
330
A02
100
AcDbEntity
  8
Shape2DView005
100
AcDbCircle
 10
122.800000000
 20
104.780864106
 30
0.000000000
 40
0.186666667
100
AcDbArc
 50
0.000000000
 51
90.000000000
  0
LINE
  5
BD1
330
A02
100
AcDbEntity
  8
Shape2DView005
100
AcDbLine
 10
122.800000000
 20
104.967530773
 30
0.000000000
 11
122.800000000
 21
107.580864106
 31
0.000000000
  0
LINE
  5
BD2
330
A02
100
AcDbEntity
  8
Shape2DView005
100
AcDbLine
 10
133.000000000
 20
107.580864106
 30
0.000000000
 11
122.800000000
 21
107.580864106
 31
0.000000000
  0
LINE
  5
BD3
330
A02
100
AcDbEntity
  8
Shape2DView005
100
AcDbLine
 10
133.000000000
 20
104.967530773
 30
0.000000000
 11
133.000000000
 21
107.580864106
 31
0.000000000
  0
ARC
  5
BD4
330
A02
100
AcDbEntity
  8
Shape2DView005
100
AcDbCircle
 10
133.000000000
 20
104.780864106
 30
0.000000000
 40
0.186666667
100
AcDbArc
 50
90.000000000
 51
180.000000000
  0
ARC
  5
BD5
330
A02
100
AcDbEntity
  8
Shape2DView005
100
AcDbCircle
 10
133.000000000
 20
104.780864106
 30
0.000000000
 40
0.186666667
100
AcDbArc
 50
180.000000000
 51
0.000000000
  0
LINE
  5
BD6
330
A02
100
AcDbEntity
  8
Shape2DView005
100
AcDbLine
 10
145.800000000
 20
104.780864106
 30
0.000000000
 11
133.186666667
 21
104.780864106
 31
0.000000000
  0
LINE
  5
BD7
330
A02
100
AcDbEntity
  8
Shape2DView005
100
AcDbLine
 10
145.800000000
 20
95.485921906
 30
0.000000000
 11
145.800000000
 21
104.780864106
 31
0.000000000
  0
LINE
  5
BD8
330
A02
100
AcDbEntity
  8
Shape2DView005
100
AcDbLine
 10
143.231383714
 20
95.485921906
 30
0.000000000
 11
145.800000000
 21
95.485921906
 31
0.000000000
  0
ARC
  5
BD9
330
A02
100
AcDbEntity
  8
Shape2DView005
100
AcDbCircle
 10
143.059333333
 20
95.386588572
 30
0.000000000
 40
0.198666667
100
AcDbArc
 50
30.000000000
 51
-120.000000000
  0
LINE
  5
BDA
330
A02
100
AcDbEntity
  8
Shape2DView005
100
AcDbLine
 10
142.960000000
 20
95.214538192
 30
0.000000000
 11
142.960000000
 21
85.957305619
 31
0.000000000
  0
ARC
  5
BDB
330
A02
100
AcDbEntity
  8
Shape2DView005
100
AcDbCircle
 10
143.059333333
 20
85.785255239
 30
0.000000000
 40
0.198666667
100
AcDbArc
 50
120.000000000
 51
-30.000000000
  0
LINE
  5
BDC
330
A02
100
AcDbEntity
  8
Shape2DView005
100
AcDbLine
 10
143.231383714
 20
85.685921906
 30
0.000000000
 11
145.800000000
 21
85.685921906
 31
0.000000000
  0
LINE
  5
BDD
330
A02
100
AcDbEntity
  8
Shape2DView005
100
AcDbLine
 10
145.800000000
 20
73.411281942
 30
0.000000000
 11
145.800000000
 21
85.685921906
 31
0.000000000
  0
LINE
  5
BDE
330
A02
100
AcDbEntity
  8
Shape2DView005
100
AcDbLine
 10
128.406666667
 20
73.411281942
 30
0.000000000
 11
145.800000000
 21
73.411281942
 31
0.000000000
  0
ARC
  5
BDF
330
A02
100
AcDbEntity
  8
Shape2DView005
100
AcDbCircle
 10
128.220000000
 20
73.411281942
 30
0.000000000
 40
0.186666667
100
AcDbArc
 50
0.000000000
 51
180.000000000
  0
ARC
  5
BE0
330
A02
100
AcDbEntity
  8
Shape2DView005
100
AcDbCircle
 10
128.220000000
 20
73.411281942
 30
0.000000000
 40
0.186666667
100
AcDbArc
 50
180.000000000
 51
-90.000000000
  0
LINE
  5
BE1
330
A02
100
AcDbEntity
  8
Shape2DView005
100
AcDbLine
 10
128.220000000
 20
73.224615276
 30
0.000000000
 11
128.220000000
 21
70.611281942
 31
0.000000000
  0
LINE
  5
BE2
330
A02
100
AcDbEntity
  8
Shape2DView005
100
AcDbLine
 10
128.220000000
 20
70.611281942
 30
0.000000000
 11
118.020000000
 21
70.611281942
 31
0.000000000
  0
ARC
  5
BE3
330
A02
100
AcDbEntity
  8
Shape2DView005
100
AcDbCircle
 10
118.020000000
 20
73.411281942
 30
0.000000000
 40
0.186666667
100
AcDbArc
 50
-90.000000000
 51
0.000000000
  0
ARC
  5
BE4
330
A02
100
AcDbEntity
  8
Shape2DView005
100
AcDbCircle
 10
118.020000000
 20
73.411281942
 30
0.000000000
 40
0.186666667
100
AcDbArc
 50
0.000000000
 51
180.000000000
  0
LINE
  5
BE5
330
A02
100
AcDbEntity
  8
Shape2DView005
100
AcDbLine
 10
98.166666667
 20
73.411281942
 30
0.000000000
 11
117.833333333
 21
73.411281942
 31
0.000000000
  0
ARC
  5
BE6
330
A02
100
AcDbEntity
  8
Shape2DView005
100
AcDbCircle
 10
97.980000000
 20
73.411281942
 30
0.000000000
 40
0.186666667
100
AcDbArc
 50
0.000000000
 51
180.000000000
  0
ARC
  5
BE7
330
A02
100
AcDbEntity
  8
Shape2DView005
100
AcDbCircle
 10
97.980000000
 20
73.411281942
 30
0.000000000
 40
0.186666667
100
AcDbArc
 50
180.000000000
 51
-90.000000000
  0
LINE
  5
BE8
330
A02
100
AcDbEntity
  8
Shape2DView005
100
AcDbLine
 10
118.020000000
 20
73.224615276
 30
0.000000000
 11
118.020000000
 21
70.611281942
 31
0.000000000
  0
LINE
  5
BE9
330
A02
100
AcDbEntity
  8
Shape2DView005
100
AcDbLine
 10
97.980000000
 20
73.224615276
 30
0.000000000
 11
97.980000000
 21
70.611281942
 31
0.000000000
  0
LINE
  5
BEA
330
A02
100
AcDbEntity
  8
Shape2DView005
100
AcDbLine
 10
97.980000000
 20
70.611281942
 30
0.000000000
 11
87.780000000
 21
70.611281942
 31
0.000000000
  0
LINE
  5
BEB
330
A02
100
AcDbEntity
  8
Shape2DView005
100
AcDbLine
 10
70.200000000
 20
73.411281942
 30
0.000000000
 11
87.593333333
 21
73.411281942
 31
0.000000000
  0
ARC
  5
BEC
330
A02
100
AcDbEntity
  8
Shape2DView005
100
AcDbCircle
 10
87.780000000
 20
73.411281942
 30
0.000000000
 40
0.186666667
100
AcDbArc
 50
-90.000000000
 51
0.000000000
  0
ARC
  5
BED
330
A02
100
AcDbEntity
  8
Shape2DView005
100
AcDbCircle
 10
87.780000000
 20
73.411281942
 30
0.000000000
 40
0.186666667
100
AcDbArc
 50
0.000000000
 51
180.000000000
  0
LINE
  5
BEE
330
A02
100
AcDbEntity
  8
Shape2DView005
100
AcDbLine
 10
70.200000000
 20
85.685921906
 30
0.000000000
 11
70.200000000
 21
73.411281942
 31
0.000000000
  0
LINE
  5
BEF
330
A02
100
AcDbEntity
  8
Shape2DView005
100
AcDbLine
 10
70.200000000
 20
85.685921906
 30
0.000000000
 11
72.768616286
 21
85.685921906
 31
0.000000000
  0
LINE
  5
BF0
330
A02
100
AcDbEntity
  8
Shape2DView005
100
AcDbLine
 10
87.780000000
 20
73.224615276
 30
0.000000000
 11
87.780000000
 21
70.611281942
 31
0.000000000
  0
LINE
  5
BF1
330
A02
100
AcDbEntity
  8
Shape2DView005
100
AcDbLine
 10
73.040000000
 20
95.214538192
 30
0.000000000
 11
73.040000000
 21
85.957305619
 31
0.000000000
  0
CIRCLE
  5
BF2
330
A02
100
AcDbEntity
  8
Shape2DView005
100
AcDbCircle
 10
108.000000000
 20
89.932000000
 30
0.000000000
 40
7.000000000
  0
CIRCLE
  5
BF3
330
A02
100
AcDbEntity
  8
Shape2DView005
100
AcDbCircle
 10
121.970000000
 20
80.204000000
 30
0.000000000
 40
5.000000000
  0
CIRCLE
  5
BF4
330
A02
100
AcDbEntity
  8
Shape2DView005
100
AcDbCircle
 10
82.600000000
 20
86.122000000
 30
0.000000000
 40
4.000000000
  0
CIRCLE
  5
BF5
330
A02
100
AcDbEntity
  8
Shape2DView005
100
AcDbCircle
 10
133.400000000
 20
86.122000000
 30
0.000000000
 40
4.000000000
  0
CIRCLE
  5
BF6
330
A02
100
AcDbEntity
  8
Shape2DView005
100
AcDbCircle
 10
119.418000000
 20
88.662000000
 30
0.000000000
 40
3.000000000
  0
CIRCLE
  5
BF7
330
A02
100
AcDbEntity
  8
Shape2DView005
100
AcDbCircle
 10
94.030000000
 20
85.360000000
 30
0.000000000
 40
3.000000000
  0
ARC
  5
BF8
330
A02
100
AcDbEntity
  8
Shape2DView005
100
AcDbCircle
 10
72.940666667
 20
95.386588572
 30
0.000000000
 40
0.198666667
100
AcDbArc
 50
0.000000000
 51
150.000000000
  0
ARC
  5
BF9
330
A02
100
AcDbEntity
  8
Shape2DView005
100
AcDbCircle
 10
72.940666667
 20
95.386588572
 30
0.000000000
 40
0.198666667
100
AcDbArc
 50
-60.000000000
 51
0.000000000
  0
ARC
  5
BFA
330
A02
100
AcDbEntity
  8
Shape2DView005
100
AcDbCircle
 10
72.940666667
 20
85.785255239
 30
0.000000000
 40
0.198666667
100
AcDbArc
 50
0.000000000
 51
60.000000000
  0
ARC
  5
BFB
330
A02
100
AcDbEntity
  8
Shape2DView005
100
AcDbCircle
 10
72.940666667
 20
85.785255239
 30
0.000000000
 40
0.198666667
100
AcDbArc
 50
-150.000000000
 51
0.000000000
  0
LINE
  5
BFC
330
A02
100
AcDbEntity
  8
Shape2DView006
100
AcDbLine
 10
70.200000000
 20
168.588718058
 30
0.000000000
 11
87.593333333
 21
168.588718058
 31
0.000000000
  0
ARC
  5
BFD
330
A02
100
AcDbEntity
  8
Shape2DView006
100
AcDbCircle
 10
87.780000000
 20
168.588718058
 30
0.000000000
 40
0.186666667
100
AcDbArc
 50
180.000000000
 51
0.000000000
  0
ARC
  5
BFE
330
A02
100
AcDbEntity
  8
Shape2DView006
100
AcDbCircle
 10
87.780000000
 20
168.588718058
 30
0.000000000
 40
0.186666667
100
AcDbArc
 50
0.000000000
 51
90.000000000
  0
LINE
  5
BFF
330
A02
100
AcDbEntity
  8
Shape2DView006
100
AcDbLine
 10
70.200000000
 20
157.587532477
 30
0.000000000
 11
70.200000000
 21
168.588718058
 31
0.000000000
  0
LINE
  5
C00
330
A02
100
AcDbEntity
  8
Shape2DView006
100
AcDbLine
 10
87.593333333
 20
157.587532477
 30
0.000000000
 11
70.200000000
 21
157.587532477
 31
0.000000000
  0
ARC
  5
C01
330
A02
100
AcDbEntity
  8
Shape2DView006
100
AcDbCircle
 10
87.780000000
 20
157.587532477
 30
0.000000000
 40
0.186666667
100
AcDbArc
 50
-90.000000000
 51
0.000000000
  0
ARC
  5
C02
330
A02
100
AcDbEntity
  8
Shape2DView006
100
AcDbCircle
 10
87.780000000
 20
157.587532477
 30
0.000000000
 40
0.186666667
100
AcDbArc
 50
0.000000000
 51
180.000000000
  0
LINE
  5
C03
330
A02
100
AcDbEntity
  8
Shape2DView006
100
AcDbLine
 10
87.780000000
 20
168.775384724
 30
0.000000000
 11
87.780000000
 21
171.388718058
 31
0.000000000
  0
LINE
  5
C04
330
A02
100
AcDbEntity
  8
Shape2DView006
100
AcDbLine
 10
87.780000000
 20
157.400865810
 30
0.000000000
 11
87.780000000
 21
154.787532477
 31
0.000000000
  0
LINE
  5
C05
330
A02
100
AcDbEntity
  8
Shape2DView006
100
AcDbLine
 10
87.780000000
 20
154.787532477
 30
0.000000000
 11
97.980000000
 21
154.787532477
 31
0.000000000
  0
ARC
  5
C06
330
A02
100
AcDbEntity
  8
Shape2DView006
100
AcDbCircle
 10
97.980000000
 20
157.587532477
 30
0.000000000
 40
0.186666667
100
AcDbArc
 50
0.000000000
 51
180.000000000
  0
ARC
  5
C07
330
A02
100
AcDbEntity
  8
Shape2DView006
100
AcDbCircle
 10
97.980000000
 20
157.587532477
 30
0.000000000
 40
0.186666667
100
AcDbArc
 50
180.000000000
 51
-90.000000000
  0
LINE
  5
C08
330
A02
100
AcDbEntity
  8
Shape2DView006
100
AcDbLine
 10
117.833333333
 20
157.587532477
 30
0.000000000
 11
98.166666667
 21
157.587532477
 31
0.000000000
  0
ARC
  5
C09
330
A02
100
AcDbEntity
  8
Shape2DView006
100
AcDbCircle
 10
118.020000000
 20
157.587532477
 30
0.000000000
 40
0.186666667
100
AcDbArc
 50
-90.000000000
 51
0.000000000
  0
ARC
  5
C0A
330
A02
100
AcDbEntity
  8
Shape2DView006
100
AcDbCircle
 10
118.020000000
 20
157.587532477
 30
0.000000000
 40
0.186666667
100
AcDbArc
 50
0.000000000
 51
180.000000000
  0
LINE
  5
C0B
330
A02
100
AcDbEntity
  8
Shape2DView006
100
AcDbLine
 10
97.980000000
 20
157.400865810
 30
0.000000000
 11
97.980000000
 21
154.787532477
 31
0.000000000
  0
LINE
  5
C0C
330
A02
100
AcDbEntity
  8
Shape2DView006
100
AcDbLine
 10
118.020000000
 20
157.400865810
 30
0.000000000
 11
118.020000000
 21
154.787532477
 31
0.000000000
  0
LINE
  5
C0D
330
A02
100
AcDbEntity
  8
Shape2DView006
100
AcDbLine
 10
118.020000000
 20
154.787532477
 30
0.000000000
 11
128.220000000
 21
154.787532477
 31
0.000000000
  0
ARC
  5
C0E
330
A02
100
AcDbEntity
  8
Shape2DView006
100
AcDbCircle
 10
128.220000000
 20
157.587532477
 30
0.000000000
 40
0.186666667
100
AcDbArc
 50
0.000000000
 51
180.000000000
  0
ARC
  5
C0F
330
A02
100
AcDbEntity
  8
Shape2DView006
100
AcDbCircle
 10
128.220000000
 20
157.587532477
 30
0.000000000
 40
0.186666667
100
AcDbArc
 50
180.000000000
 51
-90.000000000
  0
LINE
  5
C10
330
A02
100
AcDbEntity
  8
Shape2DView006
100
AcDbLine
 10
145.800000000
 20
157.587532477
 30
0.000000000
 11
128.406666667
 21
157.587532477
 31
0.000000000
  0
LINE
  5
C11
330
A02
100
AcDbEntity
  8
Shape2DView006
100
AcDbLine
 10
145.800000000
 20
168.588718058
 30
0.000000000
 11
145.800000000
 21
157.587532477
 31
0.000000000
  0
LINE
  5
C12
330
A02
100
AcDbEntity
  8
Shape2DView006
100
AcDbLine
 10
128.406666667
 20
168.588718058
 30
0.000000000
 11
145.800000000
 21
168.588718058
 31
0.000000000
  0
ARC
  5
C13
330
A02
100
AcDbEntity
  8
Shape2DView006
100
AcDbCircle
 10
128.220000000
 20
168.588718058
 30
0.000000000
 40
0.186666667
100
AcDbArc
 50
90.000000000
 51
180.000000000
  0
ARC
  5
C14
330
A02
100
AcDbEntity
  8
Shape2DView006
100
AcDbCircle
 10
128.220000000
 20
168.588718058
 30
0.000000000
 40
0.186666667
100
AcDbArc
 50
180.000000000
 51
0.000000000
  0
LINE
  5
C15
330
A02
100
AcDbEntity
  8
Shape2DView006
100
AcDbLine
 10
128.220000000
 20
157.400865810
 30
0.000000000
 11
128.220000000
 21
154.787532477
 31
0.000000000
  0
LINE
  5
C16
330
A02
100
AcDbEntity
  8
Shape2DView006
100
AcDbLine
 10
128.220000000
 20
168.775384724
 30
0.000000000
 11
128.220000000
 21
171.388718058
 31
0.000000000
  0
LINE
  5
C17
330
A02
100
AcDbEntity
  8
Shape2DView006
100
AcDbLine
 10
128.220000000
 20
171.388718058
 30
0.000000000
 11
118.020000000
 21
171.388718058
 31
0.000000000
  0
ARC
  5
C18
330
A02
100
AcDbEntity
  8
Shape2DView006
100
AcDbCircle
 10
118.020000000
 20
168.588718058
 30
0.000000000
 40
0.186666667
100
AcDbArc
 50
180.000000000
 51
0.000000000
  0
ARC
  5
C19
330
A02
100
AcDbEntity
  8
Shape2DView006
100
AcDbCircle
 10
118.020000000
 20
168.588718058
 30
0.000000000
 40
0.186666667
100
AcDbArc
 50
0.000000000
 51
90.000000000
  0
LINE
  5
C1A
330
A02
100
AcDbEntity
  8
Shape2DView006
100
AcDbLine
 10
98.166666667
 20
168.588718058
 30
0.000000000
 11
117.833333333
 21
168.588718058
 31
0.000000000
  0
ARC
  5
C1B
330
A02
100
AcDbEntity
  8
Shape2DView006
100
AcDbCircle
 10
97.980000000
 20
168.588718058
 30
0.000000000
 40
0.186666667
100
AcDbArc
 50
90.000000000
 51
180.000000000
  0
ARC
  5
C1C
330
A02
100
AcDbEntity
  8
Shape2DView006
100
AcDbCircle
 10
97.980000000
 20
168.588718058
 30
0.000000000
 40
0.186666667
100
AcDbArc
 50
180.000000000
 51
0.000000000
  0
LINE
  5
C1D
330
A02
100
AcDbEntity
  8
Shape2DView006
100
AcDbLine
 10
118.020000000
 20
168.775384724
 30
0.000000000
 11
118.020000000
 21
171.388718058
 31
0.000000000
  0
LINE
  5
C1E
330
A02
100
AcDbEntity
  8
Shape2DView006
100
AcDbLine
 10
97.980000000
 20
168.775384724
 30
0.000000000
 11
97.980000000
 21
171.388718058
 31
0.000000000
  0
LINE
  5
C1F
330
A02
100
AcDbEntity
  8
Shape2DView006
100
AcDbLine
 10
97.980000000
 20
171.388718058
 30
0.000000000
 11
87.780000000
 21
171.388718058
 31
0.000000000
  0
LINE
  5
C20
330
A02
100
AcDbEntity
  8
Shape2DView007
100
AcDbLine
 10
65.085006561
 20
27.459550623
 30
0.000000000
 11
65.737675077
 21
29.200000000
 31
0.000000000
  0
ARC
  5
C21
330
A02
100
AcDbEntity
  8
Shape2DView007
100
AcDbCircle
 10
64.710474890
 20
27.600000000
 30
0.000000000
 40
0.400000000
100
AcDbArc
 50
-90.000000000
 51
-20.556045220
  0
LINE
  5
C22
330
A02
100
AcDbEntity
  8
Shape2DView007
100
AcDbLine
 10
64.710474890
 20
27.200000000
 30
0.000000000
 11
62.587675077
 21
27.200000000
 31
0.000000000
  0
ARC
  5
C23
330
A02
100
AcDbEntity
  8
Shape2DView007
100
AcDbCircle
 10
62.587675077
 20
27.600000000
 30
0.000000000
 40
0.400000000
100
AcDbArc
 50
180.000000000
 51
-90.000000000
  0
LINE
  5
C24
330
A02
100
AcDbEntity
  8
Shape2DView007
100
AcDbLine
 10
62.187675077
 20
27.600000000
 30
0.000000000
 11
62.187675077
 21
41.200000000
 31
0.000000000
  0
ARC
  5
C25
330
A02
100
AcDbEntity
  8
Shape2DView007
100
AcDbCircle
 10
61.787675077
 20
41.200000000
 30
0.000000000
 40
0.400000000
100
AcDbArc
 50
0.000000000
 51
180.000000000
  0
LINE
  5
C26
330
A02
100
AcDbEntity
  8
Shape2DView007
100
AcDbLine
 10
61.387675077
 20
41.200000000
 30
0.000000000
 11
61.387675077
 21
27.600000000
 31
0.000000000
  0
ARC
  5
C27
330
A02
100
AcDbEntity
  8
Shape2DView007
100
AcDbCircle
 10
60.987675077
 20
27.600000000
 30
0.000000000
 40
0.400000000
100
AcDbArc
 50
-90.000000000
 51
0.000000000
  0
LINE
  5
C28
330
A02
100
AcDbEntity
  8
Shape2DView007
100
AcDbLine
 10
60.987675077
 20
27.200000000
 30
0.000000000
 11
43.337675077
 21
27.200000000
 31
0.000000000
  0
LINE
  5
C29
330
A02
100
AcDbEntity
  8
Shape2DView007
100
AcDbLine
 10
43.337675077
 20
27.200000000
 30
0.000000000
 11
43.337675077
 21
29.768616286
 31
0.000000000
  0
ARC
  5
C2A
330
A02
100
AcDbEntity
  8
Shape2DView007
100
AcDbCircle
 10
43.238341744
 20
29.940666667
 30
0.000000000
 40
0.198666667
100
AcDbArc
 50
-60.000000000
 51
90.000000000
  0
ARC
  5
C2B
330
A02
100
AcDbEntity
  8
Shape2DView007
100
AcDbCircle
 10
43.238341744
 20
29.940666667
 30
0.000000000
 40
0.198666667
100
AcDbArc
 50
90.000000000
 51
150.000000000
  0
LINE
  5
C2C
330
A02
100
AcDbEntity
  8
Shape2DView007
100
AcDbLine
 10
33.809058791
 20
30.040000000
 30
0.000000000
 11
43.066291364
 21
30.040000000
 31
0.000000000
  0
ARC
  5
C2D
330
A02
100
AcDbEntity
  8
Shape2DView007
100
AcDbCircle
 10
33.637008411
 20
29.940666667
 30
0.000000000
 40
0.198666667
100
AcDbArc
 50
30.000000000
 51
90.000000000
  0
ARC
  5
C2E
330
A02
100
AcDbEntity
  8
Shape2DView007
100
AcDbCircle
 10
33.637008411
 20
29.940666667
 30
0.000000000
 40
0.198666667
100
AcDbArc
 50
90.000000000
 51
-120.000000000
  0
LINE
  5
C2F
330
A02
100
AcDbEntity
  8
Shape2DView007
100
AcDbLine
 10
33.537675077
 20
27.200000000
 30
0.000000000
 11
33.537675077
 21
29.768616286
 31
0.000000000
  0
LINE
  5
C30
330
A02
100
AcDbEntity
  8
Shape2DView007
100
AcDbLine
 10
33.537675077
 20
27.200000000
 30
0.000000000
 11
-4.162324923
 21
27.200000000
 31
0.000000000
  0
LINE
  5
C31
330
A02
100
AcDbEntity
  8
Shape2DView007
100
AcDbLine
 10
-4.162324923
 20
27.200000000
 30
0.000000000
 11
-4.162324923
 21
29.768616286
 31
0.000000000
  0
ARC
  5
C32
330
A02
100
AcDbEntity
  8
Shape2DView007
100
AcDbCircle
 10
-4.261658256
 20
29.940666667
 30
0.000000000
 40
0.198666667
100
AcDbArc
 50
-60.000000000
 51
90.000000000
  0
ARC
  5
C33
330
A02
100
AcDbEntity
  8
Shape2DView007
100
AcDbCircle
 10
-4.261658256
 20
29.940666667
 30
0.000000000
 40
0.198666667
100
AcDbArc
 50
90.000000000
 51
150.000000000
  0
LINE
  5
C34
330
A02
100
AcDbEntity
  8
Shape2DView007
100
AcDbLine
 10
-13.690941209
 20
30.040000000
 30
0.000000000
 11
-4.433708636
 21
30.040000000
 31
0.000000000
  0
ARC
  5
C35
330
A02
100
AcDbEntity
  8
Shape2DView007
100
AcDbCircle
 10
-13.862991589
 20
29.940666667
 30
0.000000000
 40
0.198666667
100
AcDbArc
 50
30.000000000
 51
90.000000000
  0
ARC
  5
C36
330
A02
100
AcDbEntity
  8
Shape2DView007
100
AcDbCircle
 10
-13.862991589
 20
29.940666667
 30
0.000000000
 40
0.198666667
100
AcDbArc
 50
90.000000000
 51
-120.000000000
  0
LINE
  5
C37
330
A02
100
AcDbEntity
  8
Shape2DView007
100
AcDbLine
 10
-13.962324923
 20
27.200000000
 30
0.000000000
 11
-13.962324923
 21
29.768616286
 31
0.000000000
  0
LINE
  5
C38
330
A02
100
AcDbEntity
  8
Shape2DView007
100
AcDbLine
 10
-13.962324923
 20
27.200000000
 30
0.000000000
 11
-31.612324923
 21
27.200000000
 31
0.000000000
  0
ARC
  5
C39
330
A02
100
AcDbEntity
  8
Shape2DView007
100
AcDbCircle
 10
-31.612324923
 20
27.600000000
 30
0.000000000
 40
0.400000000
100
AcDbArc
 50
180.000000000
 51
-90.000000000
  0
LINE
  5
C3A
330
A02
100
AcDbEntity
  8
Shape2DView007
100
AcDbLine
 10
-32.012324923
 20
27.600000000
 30
0.000000000
 11
-32.012324923
 21
41.200000000
 31
0.000000000
  0
ARC
  5
C3B
330
A02
100
AcDbEntity
  8
Shape2DView007
100
AcDbCircle
 10
-32.412324923
 20
41.200000000
 30
0.000000000
 40
0.400000000
100
AcDbArc
 50
0.000000000
 51
180.000000000
  0
LINE
  5
C3C
330
A02
100
AcDbEntity
  8
Shape2DView007
100
AcDbLine
 10
-32.812324923
 20
41.200000000
 30
0.000000000
 11
-32.812324923
 21
27.600000000
 31
0.000000000
  0
ARC
  5
C3D
330
A02
100
AcDbEntity
  8
Shape2DView007
100
AcDbCircle
 10
-33.212324923
 20
27.600000000
 30
0.000000000
 40
0.400000000
100
AcDbArc
 50
-90.000000000
 51
0.000000000
  0
LINE
  5
C3E
330
A02
100
AcDbEntity
  8
Shape2DView007
100
AcDbLine
 10
-33.212324923
 20
27.200000000
 30
0.000000000
 11
-35.335124735
 21
27.200000000
 31
0.000000000
  0
ARC
  5
C3F
330
A02
100
AcDbEntity
  8
Shape2DView007
100
AcDbCircle
 10
-35.335124735
 20
27.600000000
 30
0.000000000
 40
0.400000000
100
AcDbArc
 50
-159.443954780
 51
-90.000000000
  0
LINE
  5
C40
330
A02
100
AcDbEntity
  8
Shape2DView007
100
AcDbLine
 10
-35.709656406
 20
27.459550623
 30
0.000000000
 11
-36.362324923
 21
29.200000000
 31
0.000000000
  0
LINE
  5
C41
330
A02
100
AcDbEntity
  8
Shape2DView007
100
AcDbLine
 10
-36.362324923
 20
29.200000000
 30
0.000000000
 11
-35.612324923
 21
29.200000000
 31
0.000000000
  0
LINE
  5
C42
330
A02
100
AcDbEntity
  8
Shape2DView007
100
AcDbLine
 10
-35.612324923
 20
29.200000000
 30
0.000000000
 11
-35.612324923
 21
32.000000000
 31
0.000000000
  0
LINE
  5
C43
330
A02
100
AcDbEntity
  8
Shape2DView007
100
AcDbLine
 10
-37.091034774
 20
32.000000000
 30
0.000000000
 11
-35.612324923
 21
32.000000000
 31
0.000000000
  0
ARC
  5
C44
330
A02
100
AcDbEntity
  8
Shape2DView007
100
AcDbCircle
 10
-37.091034774
 20
32.400000000
 30
0.000000000
 40
0.400000000
100
AcDbArc
 50
165.000000000
 51
-90.000000000
  0
LINE
  5
C45
330
A02
100
AcDbEntity
  8
Shape2DView007
100
AcDbLine
 10
-35.612324923
 20
39.464101615
 30
0.000000000
 11
-37.477405104
 21
32.503527618
 31
0.000000000
  0
LINE
  5
C46
330
A02
100
AcDbEntity
  8
Shape2DView007
100
AcDbLine
 10
-35.612324923
 20
50.650000000
 30
0.000000000
 11
-35.612324923
 21
39.464101615
 31
0.000000000
  0
LINE
  5
C47
330
A02
100
AcDbEntity
  8
Shape2DView007
100
AcDbLine
 10
-35.612324923
 20
50.650000000
 30
0.000000000
 11
-33.043708636
 21
50.650000000
 31
0.000000000
  0
ARC
  5
C48
330
A02
100
AcDbEntity
  8
Shape2DView007
100
AcDbCircle
 10
-32.871658256
 20
50.749333333
 30
0.000000000
 40
0.198666667
100
AcDbArc
 50
-150.000000000
 51
0.000000000
  0
ARC
  5
C49
330
A02
100
AcDbEntity
  8
Shape2DView007
100
AcDbCircle
 10
-32.871658256
 20
50.749333333
 30
0.000000000
 40
0.198666667
100
AcDbArc
 50
0.000000000
 51
60.000000000
  0
LINE
  5
C4A
330
A02
100
AcDbEntity
  8
Shape2DView007
100
AcDbLine
 10
-32.772324923
 20
60.178616286
 30
0.000000000
 11
-32.772324923
 21
50.921383714
 31
0.000000000
  0
ARC
  5
C4B
330
A02
100
AcDbEntity
  8
Shape2DView007
100
AcDbCircle
 10
-32.871658256
 20
60.350666667
 30
0.000000000
 40
0.198666667
100
AcDbArc
 50
-60.000000000
 51
0.000000000
  0
ARC
  5
C4C
330
A02
100
AcDbEntity
  8
Shape2DView007
100
AcDbCircle
 10
-32.871658256
 20
60.350666667
 30
0.000000000
 40
0.198666667
100
AcDbArc
 50
0.000000000
 51
150.000000000
  0
LINE
  5
C4D
330
A02
100
AcDbEntity
  8
Shape2DView007
100
AcDbLine
 10
-35.612324923
 20
60.450000000
 30
0.000000000
 11
-33.043708636
 21
60.450000000
 31
0.000000000
  0
LINE
  5
C4E
330
A02
100
AcDbEntity
  8
Shape2DView007
100
AcDbLine
 10
-35.612324923
 20
69.550000000
 30
0.000000000
 11
-35.612324923
 21
60.450000000
 31
0.000000000
  0
LINE
  5
C4F
330
A02
100
AcDbEntity
  8
Shape2DView007
100
AcDbLine
 10
-35.612324923
 20
69.550000000
 30
0.000000000
 11
-33.043708636
 21
69.550000000
 31
0.000000000
  0
ARC
  5
C50
330
A02
100
AcDbEntity
  8
Shape2DView007
100
AcDbCircle
 10
-32.871658256
 20
69.649333333
 30
0.000000000
 40
0.198666667
100
AcDbArc
 50
-150.000000000
 51
0.000000000
  0
ARC
  5
C51
330
A02
100
AcDbEntity
  8
Shape2DView007
100
AcDbCircle
 10
-32.871658256
 20
69.649333333
 30
0.000000000
 40
0.198666667
100
AcDbArc
 50
0.000000000
 51
60.000000000
  0
LINE
  5
C52
330
A02
100
AcDbEntity
  8
Shape2DView007
100
AcDbLine
 10
-32.772324923
 20
79.078616286
 30
0.000000000
 11
-32.772324923
 21
69.821383714
 31
0.000000000
  0
ARC
  5
C53
330
A02
100
AcDbEntity
  8
Shape2DView007
100
AcDbCircle
 10
-32.871658256
 20
79.250666667
 30
0.000000000
 40
0.198666667
100
AcDbArc
 50
-60.000000000
 51
0.000000000
  0
ARC
  5
C54
330
A02
100
AcDbEntity
  8
Shape2DView007
100
AcDbCircle
 10
-32.871658256
 20
79.250666667
 30
0.000000000
 40
0.198666667
100
AcDbArc
 50
0.000000000
 51
150.000000000
  0
LINE
  5
C55
330
A02
100
AcDbEntity
  8
Shape2DView007
100
AcDbLine
 10
-35.612324923
 20
79.350000000
 30
0.000000000
 11
-33.043708636
 21
79.350000000
 31
0.000000000
  0
LINE
  5
C56
330
A02
100
AcDbEntity
  8
Shape2DView007
100
AcDbLine
 10
-35.612324923
 20
90.535898385
 30
0.000000000
 11
-35.612324923
 21
79.350000000
 31
0.000000000
  0
LINE
  5
C57
330
A02
100
AcDbEntity
  8
Shape2DView007
100
AcDbLine
 10
-37.477405104
 20
97.496472382
 30
0.000000000
 11
-35.612324923
 21
90.535898385
 31
0.000000000
  0
ARC
  5
C58
330
A02
100
AcDbEntity
  8
Shape2DView007
100
AcDbCircle
 10
-37.091034774
 20
97.600000000
 30
0.000000000
 40
0.400000000
100
AcDbArc
 50
90.000000000
 51
-165.000000000
  0
LINE
  5
C59
330
A02
100
AcDbEntity
  8
Shape2DView007
100
AcDbLine
 10
-35.612324923
 20
98.000000000
 30
0.000000000
 11
-37.091034774
 21
98.000000000
 31
0.000000000
  0
LINE
  5
C5A
330
A02
100
AcDbEntity
  8
Shape2DView007
100
AcDbLine
 10
-35.612324923
 20
100.800000000
 30
0.000000000
 11
-35.612324923
 21
98.000000000
 31
0.000000000
  0
LINE
  5
C5B
330
A02
100
AcDbEntity
  8
Shape2DView007
100
AcDbLine
 10
-36.362324923
 20
100.800000000
 30
0.000000000
 11
-35.612324923
 21
100.800000000
 31
0.000000000
  0
LINE
  5
C5C
330
A02
100
AcDbEntity
  8
Shape2DView007
100
AcDbLine
 10
-35.709656406
 20
102.540449377
 30
0.000000000
 11
-36.362324923
 21
100.800000000
 31
0.000000000
  0
ARC
  5
C5D
330
A02
100
AcDbEntity
  8
Shape2DView007
100
AcDbCircle
 10
-35.335124735
 20
102.400000000
 30
0.000000000
 40
0.400000000
100
AcDbArc
 50
90.000000000
 51
159.443954780
  0
LINE
  5
C5E
330
A02
100
AcDbEntity
  8
Shape2DView007
100
AcDbLine
 10
-35.335124735
 20
102.800000000
 30
0.000000000
 11
-33.212324923
 21
102.800000000
 31
0.000000000
  0
ARC
  5
C5F
330
A02
100
AcDbEntity
  8
Shape2DView007
100
AcDbCircle
 10
-33.212324923
 20
102.400000000
 30
0.000000000
 40
0.400000000
100
AcDbArc
 50
0.000000000
 51
90.000000000
  0
LINE
  5
C60
330
A02
100
AcDbEntity
  8
Shape2DView007
100
AcDbLine
 10
-32.812324923
 20
102.400000000
 30
0.000000000
 11
-32.812324923
 21
88.800000000
 31
0.000000000
  0
ARC
  5
C61
330
A02
100
AcDbEntity
  8
Shape2DView007
100
AcDbCircle
 10
-32.412324923
 20
88.800000000
 30
0.000000000
 40
0.400000000
100
AcDbArc
 50
180.000000000
 51
0.000000000
  0
LINE
  5
C62
330
A02
100
AcDbEntity
  8
Shape2DView007
100
AcDbLine
 10
-32.012324923
 20
88.800000000
 30
0.000000000
 11
-32.012324923
 21
102.400000000
 31
0.000000000
  0
ARC
  5
C63
330
A02
100
AcDbEntity
  8
Shape2DView007
100
AcDbCircle
 10
-31.612324923
 20
102.400000000
 30
0.000000000
 40
0.400000000
100
AcDbArc
 50
90.000000000
 51
180.000000000
  0
LINE
  5
C64
330
A02
100
AcDbEntity
  8
Shape2DView007
100
AcDbLine
 10
-31.612324923
 20
102.800000000
 30
0.000000000
 11
-13.962324923
 21
102.800000000
 31
0.000000000
  0
LINE
  5
C65
330
A02
100
AcDbEntity
  8
Shape2DView007
100
AcDbLine
 10
-13.962324923
 20
100.231383714
 30
0.000000000
 11
-13.962324923
 21
102.800000000
 31
0.000000000
  0
ARC
  5
C66
330
A02
100
AcDbEntity
  8
Shape2DView007
100
AcDbCircle
 10
-13.862991589
 20
100.059333333
 30
0.000000000
 40
0.198666667
100
AcDbArc
 50
120.000000000
 51
-30.000000000
  0
LINE
  5
C67
330
A02
100
AcDbEntity
  8
Shape2DView007
100
AcDbLine
 10
-13.690941209
 20
99.960000000
 30
0.000000000
 11
-4.433708636
 21
99.960000000
 31
0.000000000
  0
ARC
  5
C68
330
A02
100
AcDbEntity
  8
Shape2DView007
100
AcDbCircle
 10
-4.261658256
 20
100.059333333
 30
0.000000000
 40
0.198666667
100
AcDbArc
 50
-150.000000000
 51
60.000000000
  0
LINE
  5
C69
330
A02
100
AcDbEntity
  8
Shape2DView007
100
AcDbLine
 10
-4.162324923
 20
100.231383714
 30
0.000000000
 11
-4.162324923
 21
102.800000000
 31
0.000000000
  0
LINE
  5
C6A
330
A02
100
AcDbEntity
  8
Shape2DView007
100
AcDbLine
 10
-4.162324923
 20
102.800000000
 30
0.000000000
 11
33.537675077
 21
102.800000000
 31
0.000000000
  0
LINE
  5
C6B
330
A02
100
AcDbEntity
  8
Shape2DView007
100
AcDbLine
 10
33.537675077
 20
100.231383714
 30
0.000000000
 11
33.537675077
 21
102.800000000
 31
0.000000000
  0
ARC
  5
C6C
330
A02
100
AcDbEntity
  8
Shape2DView007
100
AcDbCircle
 10
33.637008411
 20
100.059333333
 30
0.000000000
 40
0.198666667
100
AcDbArc
 50
120.000000000
 51
-30.000000000
  0
LINE
  5
C6D
330
A02
100
AcDbEntity
  8
Shape2DView007
100
AcDbLine
 10
33.809058791
 20
99.960000000
 30
0.000000000
 11
43.066291364
 21
99.960000000
 31
0.000000000
  0
ARC
  5
C6E
330
A02
100
AcDbEntity
  8
Shape2DView007
100
AcDbCircle
 10
43.238341744
 20
100.059333333
 30
0.000000000
 40
0.198666667
100
AcDbArc
 50
-150.000000000
 51
60.000000000
  0
LINE
  5
C6F
330
A02
100
AcDbEntity
  8
Shape2DView007
100
AcDbLine
 10
43.337675077
 20
100.231383714
 30
0.000000000
 11
43.337675077
 21
102.800000000
 31
0.000000000
  0
LINE
  5
C70
330
A02
100
AcDbEntity
  8
Shape2DView007
100
AcDbLine
 10
43.337675077
 20
102.800000000
 30
0.000000000
 11
60.987675077
 21
102.800000000
 31
0.000000000
  0
ARC
  5
C71
330
A02
100
AcDbEntity
  8
Shape2DView007
100
AcDbCircle
 10
60.987675077
 20
102.400000000
 30
0.000000000
 40
0.400000000
100
AcDbArc
 50
0.000000000
 51
90.000000000
  0
LINE
  5
C72
330
A02
100
AcDbEntity
  8
Shape2DView007
100
AcDbLine
 10
61.387675077
 20
88.800000000
 30
0.000000000
 11
61.387675077
 21
102.400000000
 31
0.000000000
  0
ARC
  5
C73
330
A02
100
AcDbEntity
  8
Shape2DView007
100
AcDbCircle
 10
61.787675077
 20
88.800000000
 30
0.000000000
 40
0.400000000
100
AcDbArc
 50
180.000000000
 51
0.000000000
  0
LINE
  5
C74
330
A02
100
AcDbEntity
  8
Shape2DView007
100
AcDbLine
 10
62.187675077
 20
102.400000000
 30
0.000000000
 11
62.187675077
 21
88.800000000
 31
0.000000000
  0
ARC
  5
C75
330
A02
100
AcDbEntity
  8
Shape2DView007
100
AcDbCircle
 10
62.587675077
 20
102.400000000
 30
0.000000000
 40
0.400000000
100
AcDbArc
 50
90.000000000
 51
180.000000000
  0
LINE
  5
C76
330
A02
100
AcDbEntity
  8
Shape2DView007
100
AcDbLine
 10
62.587675077
 20
102.800000000
 30
0.000000000
 11
64.710474890
 21
102.800000000
 31
0.000000000
  0
ARC
  5
C77
330
A02
100
AcDbEntity
  8
Shape2DView007
100
AcDbCircle
 10
64.710474890
 20
102.400000000
 30
0.000000000
 40
0.400000000
100
AcDbArc
 50
20.556045220
 51
90.000000000
  0
LINE
  5
C78
330
A02
100
AcDbEntity
  8
Shape2DView007
100
AcDbLine
 10
65.085006561
 20
102.540449377
 30
0.000000000
 11
65.737675077
 21
100.800000000
 31
0.000000000
  0
LINE
  5
C79
330
A02
100
AcDbEntity
  8
Shape2DView007
100
AcDbLine
 10
65.737675077
 20
100.800000000
 30
0.000000000
 11
64.987675077
 21
100.800000000
 31
0.000000000
  0
LINE
  5
C7A
330
A02
100
AcDbEntity
  8
Shape2DView007
100
AcDbLine
 10
64.987675077
 20
100.800000000
 30
0.000000000
 11
64.987675077
 21
98.000000000
 31
0.000000000
  0
LINE
  5
C7B
330
A02
100
AcDbEntity
  8
Shape2DView007
100
AcDbLine
 10
66.466384928
 20
98.000000000
 30
0.000000000
 11
64.987675077
 21
98.000000000
 31
0.000000000
  0
ARC
  5
C7C
330
A02
100
AcDbEntity
  8
Shape2DView007
100
AcDbCircle
 10
66.466384928
 20
97.600000000
 30
0.000000000
 40
0.400000000
100
AcDbArc
 50
-15.000000000
 51
90.000000000
  0
LINE
  5
C7D
330
A02
100
AcDbEntity
  8
Shape2DView007
100
AcDbLine
 10
64.987675077
 20
90.535898385
 30
0.000000000
 11
66.852755259
 21
97.496472382
 31
0.000000000
  0
LINE
  5
C7E
330
A02
100
AcDbEntity
  8
Shape2DView007
100
AcDbLine
 10
64.987675077
 20
39.464101615
 30
0.000000000
 11
64.987675077
 21
90.535898385
 31
0.000000000
  0
LINE
  5
C7F
330
A02
100
AcDbEntity
  8
Shape2DView007
100
AcDbLine
 10
66.852755259
 20
32.503527618
 30
0.000000000
 11
64.987675077
 21
39.464101615
 31
0.000000000
  0
ARC
  5
C80
330
A02
100
AcDbEntity
  8
Shape2DView007
100
AcDbCircle
 10
66.466384928
 20
32.400000000
 30
0.000000000
 40
0.400000000
100
AcDbArc
 50
-90.000000000
 51
15.000000000
  0
LINE
  5
C81
330
A02
100
AcDbEntity
  8
Shape2DView007
100
AcDbLine
 10
64.987675077
 20
32.000000000
 30
0.000000000
 11
66.466384928
 21
32.000000000
 31
0.000000000
  0
LINE
  5
C82
330
A02
100
AcDbEntity
  8
Shape2DView007
100
AcDbLine
 10
64.987675077
 20
29.200000000
 30
0.000000000
 11
64.987675077
 21
32.000000000
 31
0.000000000
  0
LINE
  5
C83
330
A02
100
AcDbEntity
  8
Shape2DView007
100
AcDbLine
 10
65.737675077
 20
29.200000000
 30
0.000000000
 11
64.987675077
 21
29.200000000
 31
0.000000000
  0
ARC
  5
C84
330
A02
100
AcDbEntity
  8
Shape2DView007
100
AcDbCircle
 10
60.687675077
 20
49.750000000
 30
0.000000000
 40
0.500000000
100
AcDbArc
 50
-100.703703444
 51
79.296296556
  0
ARC
  5
C85
330
A02
100
AcDbEntity
  8
Shape2DView007
100
AcDbCircle
 10
53.687675215
 20
12.716668479
 30
0.000000000
 40
37.189091812
100
AcDbArc
 50
79.296296556
 51
100.703703869
  0
ARC
  5
C86
330
A02
100
AcDbEntity
  8
Shape2DView007
100
AcDbCircle
 10
53.687675215
 20
12.716668479
 30
0.000000000
 40
38.189091812
100
AcDbArc
 50
79.296296556
 51
100.703703869
  0
ARC
  5
C87
330
A02
100
AcDbEntity
  8
Shape2DView007
100
AcDbCircle
 10
46.687675077
 20
49.749999948
 30
0.000000000
 40
0.500000000
100
AcDbArc
 50
100.703703869
 51
-79.296296131
  0
ARC
  5
C88
330
A02
100
AcDbEntity
  8
Shape2DView007
100
AcDbCircle
 10
60.687675077
 20
76.750000000
 30
0.000000000
 40
1.500000000
100
AcDbArc
 50
0.000000000
 51
90.000000000
  0
LINE
  5
C89
330
A02
100
AcDbEntity
  8
Shape2DView007
100
AcDbLine
 10
62.187675077
 20
76.750000000
 30
0.000000000
 11
62.187675077
 21
53.250000000
 31
0.000000000
  0
ARC
  5
C8A
330
A02
100
AcDbEntity
  8
Shape2DView007
100
AcDbCircle
 10
60.687675077
 20
76.750000000
 30
0.000000000
 40
1.500000000
100
AcDbArc
 50
90.000000000
 51
99.798185124
  0
ARC
  5
C8B
330
A02
100
AcDbEntity
  8
Shape2DView007
100
AcDbCircle
 10
60.687675077
 20
53.250000000
 30
0.000000000
 40
1.500000000
100
AcDbArc
 50
-90.000000000
 51
0.000000000
  0
ARC
  5
C8C
330
A02
100
AcDbEntity
  8
Shape2DView007
100
AcDbCircle
 10
53.687675232
 20
117.283331524
 30
0.000000000
 40
39.633331524
100
AcDbArc
 50
-99.798185124
 51
-80.201814876
  0
ARC
  5
C8D
330
A02
100
AcDbEntity
  8
Shape2DView007
100
AcDbCircle
 10
60.687675077
 20
53.250000000
 30
0.000000000
 40
1.500000000
100
AcDbArc
 50
-99.798185149
 51
-90.000000000
  0
ARC
  5
C8E
330
A02
100
AcDbEntity
  8
Shape2DView007
100
AcDbCircle
 10
46.687675388
 20
76.750000000
 30
0.000000000
 40
1.500000000
100
AcDbArc
 50
80.201814876
 51
90.000011850
  0
ARC
  5
C8F
330
A02
100
AcDbEntity
  8
Shape2DView007
100
AcDbCircle
 10
53.687675215
 20
12.716668479
 30
0.000000000
 40
39.633331524
100
AcDbArc
 50
80.201814851
 51
99.798185149
  0
ARC
  5
C90
330
A02
100
AcDbEntity
  8
Shape2DView007
100
AcDbCircle
 10
46.687675077
 20
76.750000000
 30
0.000000000
 40
1.500000000
100
AcDbArc
 50
90.000000000
 51
180.000000000
  0
ARC
  5
C91
330
A02
100
AcDbEntity
  8
Shape2DView007
100
AcDbCircle
 10
46.687675352
 20
53.250000000
 30
0.000000000
 40
1.500000000
100
AcDbArc
 50
-90.000010492
 51
-80.201814851
  0
LINE
  5
C92
330
A02
100
AcDbEntity
  8
Shape2DView007
100
AcDbLine
 10
45.187675077
 20
53.250000000
 30
0.000000000
 11
45.187675077
 21
76.750000000
 31
0.000000000
  0
ARC
  5
C93
330
A02
100
AcDbEntity
  8
Shape2DView007
100
AcDbCircle
 10
46.687675077
 20
53.250000000
 30
0.000000000
 40
1.500000000
100
AcDbArc
 50
180.000000000
 51
-90.000000000
  0
ARC
  5
C94
330
A02
100
AcDbEntity
  8
Shape2DView007
100
AcDbCircle
 10
46.687675077
 20
80.250000059
 30
0.000000000
 40
0.500000000
100
AcDbArc
 50
79.296296103
 51
-100.703703897
  0
ARC
  5
C95
330
A02
100
AcDbEntity
  8
Shape2DView007
100
AcDbCircle
 10
53.687675232
 20
117.283331524
 30
0.000000000
 40
37.189091811
100
AcDbArc
 50
-100.703703897
 51
-79.296296583
  0
ARC
  5
C96
330
A02
100
AcDbEntity
  8
Shape2DView007
100
AcDbCircle
 10
53.687675232
 20
117.283331524
 30
0.000000000
 40
38.189091811
100
AcDbArc
 50
-100.703703897
 51
-79.296296583
  0
ARC
  5
C97
330
A02
100
AcDbEntity
  8
Shape2DView007
100
AcDbCircle
 10
60.687675077
 20
80.250000000
 30
0.000000000
 40
0.500000000
100
AcDbArc
 50
-79.296296583
 51
100.703703417
  0
LINE
  5
C98
330
A02
100
AcDbEntity
  8
Shape2DView008
100
AcDbLine
 10
71.959550623
 20
70.225006561
 30
0.000000000
 11
73.700000000
 21
70.877675077
 31
0.000000000
  0
ARC
  5
C99
330
A02
100
AcDbEntity
  8
Shape2DView008
100
AcDbCircle
 10
72.100000000
 20
69.850474890
 30
0.000000000
 40
0.400000000
100
AcDbArc
 50
110.556045220
 51
180.000000000
  0
LINE
  5
C9A
330
A02
100
AcDbEntity
  8
Shape2DView008
100
AcDbLine
 10
73.700000000
 20
70.877675077
 30
0.000000000
 11
73.700000000
 21
70.127675077
 31
0.000000000
  0
LINE
  5
C9B
330
A02
100
AcDbEntity
  8
Shape2DView008
100
AcDbLine
 10
76.500000000
 20
70.127675077
 30
0.000000000
 11
73.700000000
 21
70.127675077
 31
0.000000000
  0
LINE
  5
C9C
330
A02
100
AcDbEntity
  8
Shape2DView008
100
AcDbLine
 10
76.500000000
 20
71.606384928
 30
0.000000000
 11
76.500000000
 21
70.127675077
 31
0.000000000
  0
ARC
  5
C9D
330
A02
100
AcDbEntity
  8
Shape2DView008
100
AcDbCircle
 10
76.900000000
 20
71.606384928
 30
0.000000000
 40
0.400000000
100
AcDbArc
 50
75.000000000
 51
180.000000000
  0
LINE
  5
C9E
330
A02
100
AcDbEntity
  8
Shape2DView008
100
AcDbLine
 10
83.964101615
 20
70.127675077
 30
0.000000000
 11
77.003527618
 21
71.992755259
 31
0.000000000
  0
LINE
  5
C9F
330
A02
100
AcDbEntity
  8
Shape2DView008
100
AcDbLine
 10
89.480000000
 20
70.127675077
 30
0.000000000
 11
83.964101615
 21
70.127675077
 31
0.000000000
  0
LINE
  5
CA0
330
A02
100
AcDbEntity
  8
Shape2DView008
100
AcDbLine
 10
89.480000000
 20
70.127675077
 30
0.000000000
 11
89.480000000
 21
67.559058791
 31
0.000000000
  0
ARC
  5
CA1
330
A02
100
AcDbEntity
  8
Shape2DView008
100
AcDbCircle
 10
89.579333333
 20
67.387008411
 30
0.000000000
 40
0.198666667
100
AcDbArc
 50
120.000000000
 51
-90.000000000
  0
ARC
  5
CA2
330
A02
100
AcDbEntity
  8
Shape2DView008
100
AcDbCircle
 10
89.579333333
 20
67.387008411
 30
0.000000000
 40
0.198666667
100
AcDbArc
 50
-90.000000000
 51
-30.000000000
  0
LINE
  5
CA3
330
A02
100
AcDbEntity
  8
Shape2DView008
100
AcDbLine
 10
89.751383714
 20
67.287675077
 30
0.000000000
 11
99.008616286
 21
67.287675077
 31
0.000000000
  0
ARC
  5
CA4
330
A02
100
AcDbEntity
  8
Shape2DView008
100
AcDbCircle
 10
99.180666667
 20
67.387008411
 30
0.000000000
 40
0.198666667
100
AcDbArc
 50
-150.000000000
 51
-90.000000000
  0
ARC
  5
CA5
330
A02
100
AcDbEntity
  8
Shape2DView008
100
AcDbCircle
 10
99.180666667
 20
67.387008411
 30
0.000000000
 40
0.198666667
100
AcDbArc
 50
-90.000000000
 51
60.000000000
  0
LINE
  5
CA6
330
A02
100
AcDbEntity
  8
Shape2DView008
100
AcDbLine
 10
99.280000000
 20
70.127675077
 30
0.000000000
 11
99.280000000
 21
67.559058791
 31
0.000000000
  0
LINE
  5
CA7
330
A02
100
AcDbEntity
  8
Shape2DView008
100
AcDbLine
 10
119.720000000
 20
70.127675077
 30
0.000000000
 11
99.280000000
 21
70.127675077
 31
0.000000000
  0
LINE
  5
CA8
330
A02
100
AcDbEntity
  8
Shape2DView008
100
AcDbLine
 10
119.720000000
 20
70.127675077
 30
0.000000000
 11
119.720000000
 21
67.559058791
 31
0.000000000
  0
ARC
  5
CA9
330
A02
100
AcDbEntity
  8
Shape2DView008
100
AcDbCircle
 10
119.819333333
 20
67.387008411
 30
0.000000000
 40
0.198666667
100
AcDbArc
 50
120.000000000
 51
-90.000000000
  0
ARC
  5
CAA
330
A02
100
AcDbEntity
  8
Shape2DView008
100
AcDbCircle
 10
119.819333333
 20
67.387008411
 30
0.000000000
 40
0.198666667
100
AcDbArc
 50
-90.000000000
 51
-30.000000000
  0
LINE
  5
CAB
330
A02
100
AcDbEntity
  8
Shape2DView008
100
AcDbLine
 10
119.991383714
 20
67.287675077
 30
0.000000000
 11
129.248616286
 21
67.287675077
 31
0.000000000
  0
ARC
  5
CAC
330
A02
100
AcDbEntity
  8
Shape2DView008
100
AcDbCircle
 10
129.420666667
 20
67.387008411
 30
0.000000000
 40
0.198666667
100
AcDbArc
 50
-150.000000000
 51
-90.000000000
  0
ARC
  5
CAD
330
A02
100
AcDbEntity
  8
Shape2DView008
100
AcDbCircle
 10
129.420666667
 20
67.387008411
 30
0.000000000
 40
0.198666667
100
AcDbArc
 50
-90.000000000
 51
60.000000000
  0
LINE
  5
CAE
330
A02
100
AcDbEntity
  8
Shape2DView008
100
AcDbLine
 10
129.520000000
 20
70.127675077
 30
0.000000000
 11
129.520000000
 21
67.559058791
 31
0.000000000
  0
LINE
  5
CAF
330
A02
100
AcDbEntity
  8
Shape2DView008
100
AcDbLine
 10
135.035898385
 20
70.127675077
 30
0.000000000
 11
129.520000000
 21
70.127675077
 31
0.000000000
  0
LINE
  5
CB0
330
A02
100
AcDbEntity
  8
Shape2DView008
100
AcDbLine
 10
141.996472382
 20
71.992755259
 30
0.000000000
 11
135.035898385
 21
70.127675077
 31
0.000000000
  0
ARC
  5
CB1
330
A02
100
AcDbEntity
  8
Shape2DView008
100
AcDbCircle
 10
142.100000000
 20
71.606384928
 30
0.000000000
 40
0.400000000
100
AcDbArc
 50
0.000000000
 51
105.000000000
  0
LINE
  5
CB2
330
A02
100
AcDbEntity
  8
Shape2DView008
100
AcDbLine
 10
142.500000000
 20
70.127675077
 30
0.000000000
 11
142.500000000
 21
71.606384928
 31
0.000000000
  0
LINE
  5
CB3
330
A02
100
AcDbEntity
  8
Shape2DView008
100
AcDbLine
 10
145.300000000
 20
70.127675077
 30
0.000000000
 11
142.500000000
 21
70.127675077
 31
0.000000000
  0
LINE
  5
CB4
330
A02
100
AcDbEntity
  8
Shape2DView008
100
AcDbLine
 10
145.300000000
 20
70.877675077
 30
0.000000000
 11
145.300000000
 21
70.127675077
 31
0.000000000
  0
LINE
  5
CB5
330
A02
100
AcDbEntity
  8
Shape2DView008
100
AcDbLine
 10
147.040449377
 20
70.225006561
 30
0.000000000
 11
145.300000000
 21
70.877675077
 31
0.000000000
  0
ARC
  5
CB6
330
A02
100
AcDbEntity
  8
Shape2DView008
100
AcDbCircle
 10
146.900000000
 20
69.850474890
 30
0.000000000
 40
0.400000000
100
AcDbArc
 50
0.000000000
 51
69.443954780
  0
LINE
  5
CB7
330
A02
100
AcDbEntity
  8
Shape2DView008
100
AcDbLine
 10
147.300000000
 20
67.727675077
 30
0.000000000
 11
147.300000000
 21
69.850474890
 31
0.000000000
  0
ARC
  5
CB8
330
A02
100
AcDbEntity
  8
Shape2DView008
100
AcDbCircle
 10
146.900000000
 20
67.727675077
 30
0.000000000
 40
0.400000000
100
AcDbArc
 50
-90.000000000
 51
0.000000000
  0
LINE
  5
CB9
330
A02
100
AcDbEntity
  8
Shape2DView008
100
AcDbLine
 10
133.300000000
 20
67.327675077
 30
0.000000000
 11
146.900000000
 21
67.327675077
 31
0.000000000
  0
ARC
  5
CBA
330
A02
100
AcDbEntity
  8
Shape2DView008
100
AcDbCircle
 10
133.300000000
 20
66.927675077
 30
0.000000000
 40
0.400000000
100
AcDbArc
 50
90.000000000
 51
-90.000000000
  0
LINE
  5
CBB
330
A02
100
AcDbEntity
  8
Shape2DView008
100
AcDbLine
 10
146.900000000
 20
66.527675077
 30
0.000000000
 11
133.300000000
 21
66.527675077
 31
0.000000000
  0
ARC
  5
CBC
330
A02
100
AcDbEntity
  8
Shape2DView008
100
AcDbCircle
 10
146.900000000
 20
66.127675077
 30
0.000000000
 40
0.400000000
100
AcDbArc
 50
0.000000000
 51
90.000000000
  0
LINE
  5
CBD
330
A02
100
AcDbEntity
  8
Shape2DView008
100
AcDbLine
 10
147.300000000
 20
54.727675077
 30
0.000000000
 11
147.300000000
 21
66.127675077
 31
0.000000000
  0
LINE
  5
CBE
330
A02
100
AcDbEntity
  8
Shape2DView008
100
AcDbLine
 10
147.300000000
 20
54.727675077
 30
0.000000000
 11
144.731383714
 21
54.727675077
 31
0.000000000
  0
ARC
  5
CBF
330
A02
100
AcDbEntity
  8
Shape2DView008
100
AcDbCircle
 10
144.559333333
 20
54.628341744
 30
0.000000000
 40
0.198666667
100
AcDbArc
 50
30.000000000
 51
180.000000000
  0
ARC
  5
CC0
330
A02
100
AcDbEntity
  8
Shape2DView008
100
AcDbCircle
 10
144.559333333
 20
54.628341744
 30
0.000000000
 40
0.198666667
100
AcDbArc
 50
180.000000000
 51
-120.000000000
  0
LINE
  5
CC1
330
A02
100
AcDbEntity
  8
Shape2DView008
100
AcDbLine
 10
144.460000000
 20
54.456291364
 30
0.000000000
 11
144.460000000
 21
45.199058791
 31
0.000000000
  0
ARC
  5
CC2
330
A02
100
AcDbEntity
  8
Shape2DView008
100
AcDbCircle
 10
144.559333333
 20
45.027008411
 30
0.000000000
 40
0.198666667
100
AcDbArc
 50
120.000000000
 51
180.000000000
  0
ARC
  5
CC3
330
A02
100
AcDbEntity
  8
Shape2DView008
100
AcDbCircle
 10
144.559333333
 20
45.027008411
 30
0.000000000
 40
0.198666667
100
AcDbArc
 50
180.000000000
 51
-30.000000000
  0
LINE
  5
CC4
330
A02
100
AcDbEntity
  8
Shape2DView008
100
AcDbLine
 10
147.300000000
 20
44.927675077
 30
0.000000000
 11
144.731383714
 21
44.927675077
 31
0.000000000
  0
LINE
  5
CC5
330
A02
100
AcDbEntity
  8
Shape2DView008
100
AcDbLine
 10
147.300000000
 20
33.527675077
 30
0.000000000
 11
147.300000000
 21
44.927675077
 31
0.000000000
  0
ARC
  5
CC6
330
A02
100
AcDbEntity
  8
Shape2DView008
100
AcDbCircle
 10
146.900000000
 20
33.527675077
 30
0.000000000
 40
0.400000000
100
AcDbArc
 50
-90.000000000
 51
0.000000000
  0
LINE
  5
CC7
330
A02
100
AcDbEntity
  8
Shape2DView008
100
AcDbLine
 10
133.300000000
 20
33.127675077
 30
0.000000000
 11
146.900000000
 21
33.127675077
 31
0.000000000
  0
ARC
  5
CC8
330
A02
100
AcDbEntity
  8
Shape2DView008
100
AcDbCircle
 10
133.300000000
 20
32.727675077
 30
0.000000000
 40
0.400000000
100
AcDbArc
 50
90.000000000
 51
-90.000000000
  0
LINE
  5
CC9
330
A02
100
AcDbEntity
  8
Shape2DView008
100
AcDbLine
 10
146.900000000
 20
32.327675077
 30
0.000000000
 11
133.300000000
 21
32.327675077
 31
0.000000000
  0
ARC
  5
CCA
330
A02
100
AcDbEntity
  8
Shape2DView008
100
AcDbCircle
 10
146.900000000
 20
31.927675077
 30
0.000000000
 40
0.400000000
100
AcDbArc
 50
0.000000000
 51
90.000000000
  0
LINE
  5
CCB
330
A02
100
AcDbEntity
  8
Shape2DView008
100
AcDbLine
 10
147.300000000
 20
29.804875265
 30
0.000000000
 11
147.300000000
 21
31.927675077
 31
0.000000000
  0
ARC
  5
CCC
330
A02
100
AcDbEntity
  8
Shape2DView008
100
AcDbCircle
 10
146.900000000
 20
29.804875265
 30
0.000000000
 40
0.400000000
100
AcDbArc
 50
-69.443954780
 51
0.000000000
  0
LINE
  5
CCD
330
A02
100
AcDbEntity
  8
Shape2DView008
100
AcDbLine
 10
147.040449377
 20
29.430343594
 30
0.000000000
 11
145.300000000
 21
28.777675077
 31
0.000000000
  0
LINE
  5
CCE
330
A02
100
AcDbEntity
  8
Shape2DView008
100
AcDbLine
 10
145.300000000
 20
28.777675077
 30
0.000000000
 11
145.300000000
 21
29.527675077
 31
0.000000000
  0
LINE
  5
CCF
330
A02
100
AcDbEntity
  8
Shape2DView008
100
AcDbLine
 10
142.500000000
 20
29.527675077
 30
0.000000000
 11
145.300000000
 21
29.527675077
 31
0.000000000
  0
LINE
  5
CD0
330
A02
100
AcDbEntity
  8
Shape2DView008
100
AcDbLine
 10
142.500000000
 20
28.048965226
 30
0.000000000
 11
142.500000000
 21
29.527675077
 31
0.000000000
  0
ARC
  5
CD1
330
A02
100
AcDbEntity
  8
Shape2DView008
100
AcDbCircle
 10
142.100000000
 20
28.048965226
 30
0.000000000
 40
0.400000000
100
AcDbArc
 50
-105.000000000
 51
0.000000000
  0
LINE
  5
CD2
330
A02
100
AcDbEntity
  8
Shape2DView008
100
AcDbLine
 10
135.035898385
 20
29.527675077
 30
0.000000000
 11
141.996472382
 21
27.662594896
 31
0.000000000
  0
LINE
  5
CD3
330
A02
100
AcDbEntity
  8
Shape2DView008
100
AcDbLine
 10
129.520000000
 20
29.527675077
 30
0.000000000
 11
135.035898385
 21
29.527675077
 31
0.000000000
  0
LINE
  5
CD4
330
A02
100
AcDbEntity
  8
Shape2DView008
100
AcDbLine
 10
129.520000000
 20
29.527675077
 30
0.000000000
 11
129.520000000
 21
32.096291364
 31
0.000000000
  0
ARC
  5
CD5
330
A02
100
AcDbEntity
  8
Shape2DView008
100
AcDbCircle
 10
129.420666667
 20
32.268341744
 30
0.000000000
 40
0.198666667
100
AcDbArc
 50
-60.000000000
 51
90.000000000
  0
ARC
  5
CD6
330
A02
100
AcDbEntity
  8
Shape2DView008
100
AcDbCircle
 10
129.420666667
 20
32.268341744
 30
0.000000000
 40
0.198666667
100
AcDbArc
 50
90.000000000
 51
150.000000000
  0
LINE
  5
CD7
330
A02
100
AcDbEntity
  8
Shape2DView008
100
AcDbLine
 10
129.248616286
 20
32.367675077
 30
0.000000000
 11
119.991383714
 21
32.367675077
 31
0.000000000
  0
ARC
  5
CD8
330
A02
100
AcDbEntity
  8
Shape2DView008
100
AcDbCircle
 10
119.819333333
 20
32.268341744
 30
0.000000000
 40
0.198666667
100
AcDbArc
 50
30.000000000
 51
90.000000000
  0
ARC
  5
CD9
330
A02
100
AcDbEntity
  8
Shape2DView008
100
AcDbCircle
 10
119.819333333
 20
32.268341744
 30
0.000000000
 40
0.198666667
100
AcDbArc
 50
90.000000000
 51
-120.000000000
  0
LINE
  5
CDA
330
A02
100
AcDbEntity
  8
Shape2DView008
100
AcDbLine
 10
119.720000000
 20
29.527675077
 30
0.000000000
 11
119.720000000
 21
32.096291364
 31
0.000000000
  0
LINE
  5
CDB
330
A02
100
AcDbEntity
  8
Shape2DView008
100
AcDbLine
 10
99.280000000
 20
29.527675077
 30
0.000000000
 11
119.720000000
 21
29.527675077
 31
0.000000000
  0
LINE
  5
CDC
330
A02
100
AcDbEntity
  8
Shape2DView008
100
AcDbLine
 10
99.280000000
 20
29.527675077
 30
0.000000000
 11
99.280000000
 21
32.096291364
 31
0.000000000
  0
ARC
  5
CDD
330
A02
100
AcDbEntity
  8
Shape2DView008
100
AcDbCircle
 10
99.180666667
 20
32.268341744
 30
0.000000000
 40
0.198666667
100
AcDbArc
 50
-60.000000000
 51
90.000000000
  0
ARC
  5
CDE
330
A02
100
AcDbEntity
  8
Shape2DView008
100
AcDbCircle
 10
99.180666667
 20
32.268341744
 30
0.000000000
 40
0.198666667
100
AcDbArc
 50
90.000000000
 51
150.000000000
  0
LINE
  5
CDF
330
A02
100
AcDbEntity
  8
Shape2DView008
100
AcDbLine
 10
99.008616286
 20
32.367675077
 30
0.000000000
 11
89.751383714
 21
32.367675077
 31
0.000000000
  0
ARC
  5
CE0
330
A02
100
AcDbEntity
  8
Shape2DView008
100
AcDbCircle
 10
89.579333333
 20
32.268341744
 30
0.000000000
 40
0.198666667
100
AcDbArc
 50
30.000000000
 51
90.000000000
  0
ARC
  5
CE1
330
A02
100
AcDbEntity
  8
Shape2DView008
100
AcDbCircle
 10
89.579333333
 20
32.268341744
 30
0.000000000
 40
0.198666667
100
AcDbArc
 50
90.000000000
 51
-120.000000000
  0
LINE
  5
CE2
330
A02
100
AcDbEntity
  8
Shape2DView008
100
AcDbLine
 10
89.480000000
 20
29.527675077
 30
0.000000000
 11
89.480000000
 21
32.096291364
 31
0.000000000
  0
LINE
  5
CE3
330
A02
100
AcDbEntity
  8
Shape2DView008
100
AcDbLine
 10
83.964101615
 20
29.527675077
 30
0.000000000
 11
89.480000000
 21
29.527675077
 31
0.000000000
  0
LINE
  5
CE4
330
A02
100
AcDbEntity
  8
Shape2DView008
100
AcDbLine
 10
77.003527618
 20
27.662594896
 30
0.000000000
 11
83.964101615
 21
29.527675077
 31
0.000000000
  0
ARC
  5
CE5
330
A02
100
AcDbEntity
  8
Shape2DView008
100
AcDbCircle
 10
76.900000000
 20
28.048965226
 30
0.000000000
 40
0.400000000
100
AcDbArc
 50
180.000000000
 51
-75.000000000
  0
LINE
  5
CE6
330
A02
100
AcDbEntity
  8
Shape2DView008
100
AcDbLine
 10
76.500000000
 20
29.527675077
 30
0.000000000
 11
76.500000000
 21
28.048965226
 31
0.000000000
  0
LINE
  5
CE7
330
A02
100
AcDbEntity
  8
Shape2DView008
100
AcDbLine
 10
73.700000000
 20
29.527675077
 30
0.000000000
 11
76.500000000
 21
29.527675077
 31
0.000000000
  0
LINE
  5
CE8
330
A02
100
AcDbEntity
  8
Shape2DView008
100
AcDbLine
 10
73.700000000
 20
28.777675077
 30
0.000000000
 11
73.700000000
 21
29.527675077
 31
0.000000000
  0
LINE
  5
CE9
330
A02
100
AcDbEntity
  8
Shape2DView008
100
AcDbLine
 10
71.959550623
 20
29.430343594
 30
0.000000000
 11
73.700000000
 21
28.777675077
 31
0.000000000
  0
ARC
  5
CEA
330
A02
100
AcDbEntity
  8
Shape2DView008
100
AcDbCircle
 10
72.100000000
 20
29.804875265
 30
0.000000000
 40
0.400000000
100
AcDbArc
 50
180.000000000
 51
-110.556045220
  0
LINE
  5
CEB
330
A02
100
AcDbEntity
  8
Shape2DView008
100
AcDbLine
 10
71.700000000
 20
31.927675077
 30
0.000000000
 11
71.700000000
 21
29.804875265
 31
0.000000000
  0
ARC
  5
CEC
330
A02
100
AcDbEntity
  8
Shape2DView008
100
AcDbCircle
 10
72.100000000
 20
31.927675077
 30
0.000000000
 40
0.400000000
100
AcDbArc
 50
90.000000000
 51
180.000000000
  0
LINE
  5
CED
330
A02
100
AcDbEntity
  8
Shape2DView008
100
AcDbLine
 10
85.700000000
 20
32.327675077
 30
0.000000000
 11
72.100000000
 21
32.327675077
 31
0.000000000
  0
ARC
  5
CEE
330
A02
100
AcDbEntity
  8
Shape2DView008
100
AcDbCircle
 10
85.700000000
 20
32.727675077
 30
0.000000000
 40
0.400000000
100
AcDbArc
 50
-90.000000000
 51
90.000000000
  0
LINE
  5
CEF
330
A02
100
AcDbEntity
  8
Shape2DView008
100
AcDbLine
 10
72.100000000
 20
33.127675077
 30
0.000000000
 11
85.700000000
 21
33.127675077
 31
0.000000000
  0
ARC
  5
CF0
330
A02
100
AcDbEntity
  8
Shape2DView008
100
AcDbCircle
 10
72.100000000
 20
33.527675077
 30
0.000000000
 40
0.400000000
100
AcDbArc
 50
180.000000000
 51
-90.000000000
  0
LINE
  5
CF1
330
A02
100
AcDbEntity
  8
Shape2DView008
100
AcDbLine
 10
71.700000000
 20
44.927675077
 30
0.000000000
 11
71.700000000
 21
33.527675077
 31
0.000000000
  0
LINE
  5
CF2
330
A02
100
AcDbEntity
  8
Shape2DView008
100
AcDbLine
 10
74.268616286
 20
44.927675077
 30
0.000000000
 11
71.700000000
 21
44.927675077
 31
0.000000000
  0
ARC
  5
CF3
330
A02
100
AcDbEntity
  8
Shape2DView008
100
AcDbCircle
 10
74.440666667
 20
45.027008411
 30
0.000000000
 40
0.198666667
100
AcDbArc
 50
-150.000000000
 51
60.000000000
  0
LINE
  5
CF4
330
A02
100
AcDbEntity
  8
Shape2DView008
100
AcDbLine
 10
74.540000000
 20
54.456291364
 30
0.000000000
 11
74.540000000
 21
45.199058791
 31
0.000000000
  0
ARC
  5
CF5
330
A02
100
AcDbEntity
  8
Shape2DView008
100
AcDbCircle
 10
74.440666667
 20
54.628341744
 30
0.000000000
 40
0.198666667
100
AcDbArc
 50
-60.000000000
 51
150.000000000
  0
LINE
  5
CF6
330
A02
100
AcDbEntity
  8
Shape2DView008
100
AcDbLine
 10
74.268616286
 20
54.727675077
 30
0.000000000
 11
71.700000000
 21
54.727675077
 31
0.000000000
  0
LINE
  5
CF7
330
A02
100
AcDbEntity
  8
Shape2DView008
100
AcDbLine
 10
71.700000000
 20
66.127675077
 30
0.000000000
 11
71.700000000
 21
54.727675077
 31
0.000000000
  0
ARC
  5
CF8
330
A02
100
AcDbEntity
  8
Shape2DView008
100
AcDbCircle
 10
72.100000000
 20
66.127675077
 30
0.000000000
 40
0.400000000
100
AcDbArc
 50
90.000000000
 51
180.000000000
  0
LINE
  5
CF9
330
A02
100
AcDbEntity
  8
Shape2DView008
100
AcDbLine
 10
85.700000000
 20
66.527675077
 30
0.000000000
 11
72.100000000
 21
66.527675077
 31
0.000000000
  0
ARC
  5
CFA
330
A02
100
AcDbEntity
  8
Shape2DView008
100
AcDbCircle
 10
85.700000000
 20
66.927675077
 30
0.000000000
 40
0.400000000
100
AcDbArc
 50
-90.000000000
 51
90.000000000
  0
LINE
  5
CFB
330
A02
100
AcDbEntity
  8
Shape2DView008
100
AcDbLine
 10
72.100000000
 20
67.327675077
 30
0.000000000
 11
85.700000000
 21
67.327675077
 31
0.000000000
  0
ARC
  5
CFC
330
A02
100
AcDbEntity
  8
Shape2DView008
100
AcDbCircle
 10
72.100000000
 20
67.727675077
 30
0.000000000
 40
0.400000000
100
AcDbArc
 50
180.000000000
 51
-90.000000000
  0
LINE
  5
CFD
330
A02
100
AcDbEntity
  8
Shape2DView008
100
AcDbLine
 10
71.700000000
 20
69.850474890
 30
0.000000000
 11
71.700000000
 21
67.727675077
 31
0.000000000
  0
LINE
  5
CFE
330
A02
100
AcDbEntity
  8
Shape2DView008
100
AcDbLine
 10
106.650000000
 20
37.300000000
 30
0.000000000
 11
112.350000000
 21
37.300000000
 31
0.000000000
  0
ARC
  5
CFF
330
A02
100
AcDbEntity
  8
Shape2DView008
100
AcDbCircle
 10
106.650000000
 20
34.800000000
 30
0.000000000
 40
2.500000000
100
AcDbArc
 50
90.000000000
 51
-90.000000000
  0
ARC
  5
D00
330
A02
100
AcDbEntity
  8
Shape2DView008
100
AcDbCircle
 10
112.350000000
 20
34.800000000
 30
0.000000000
 40
2.500000000
100
AcDbArc
 50
-90.000000000
 51
90.000000000
  0
LINE
  5
D01
330
A02
100
AcDbEntity
  8
Shape2DView008
100
AcDbLine
 10
106.650000000
 20
32.300000000
 30
0.000000000
 11
112.350000000
 21
32.300000000
 31
0.000000000
  0
CIRCLE
  5
D02
330
A02
100
AcDbEntity
  8
Shape2DView008
100
AcDbCircle
 10
122.300000000
 20
42.900000000
 30
0.000000000
 40
8.500000000
  0
LINE
  5
D03
330
A02
100
AcDbEntity
  8
Shape2DView008
100
AcDbLine
 10
134.900000000
 20
61.250000000
 30
0.000000000
 11
134.900000000
 21
62.350000000
 31
0.000000000
  0
ARC
  5
D04
330
A02
100
AcDbEntity
  8
Shape2DView008
100
AcDbCircle
 10
134.900000000
 20
61.000000000
 30
0.000000000
 40
0.250000000
100
AcDbArc
 50
180.000000000
 51
90.000000000
  0
ARC
  5
D05
330
A02
100
AcDbEntity
  8
Shape2DView008
100
AcDbCircle
 10
134.900000000
 20
62.600000000
 30
0.000000000
 40
0.250000000
100
AcDbArc
 50
-90.000000000
 51
180.000000000
  0
LINE
  5
D06
330
A02
100
AcDbEntity
  8
Shape2DView008
100
AcDbLine
 10
122.450000000
 20
61.000000000
 30
0.000000000
 11
134.650000000
 21
61.000000000
 31
0.000000000
  0
LINE
  5
D07
330
A02
100
AcDbEntity
  8
Shape2DView008
100
AcDbLine
 10
134.650000000
 20
62.600000000
 30
0.000000000
 11
122.450000000
 21
62.600000000
 31
0.000000000
  0
ARC
  5
D08
330
A02
100
AcDbEntity
  8
Shape2DView008
100
AcDbCircle
 10
122.200000000
 20
61.000000000
 30
0.000000000
 40
0.250000000
100
AcDbArc
 50
180.000000000
 51
0.000000000
  0
ARC
  5
D09
330
A02
100
AcDbEntity
  8
Shape2DView008
100
AcDbCircle
 10
122.200000000
 20
62.600000000
 30
0.000000000
 40
0.250000000
100
AcDbArc
 50
0.000000000
 51
180.000000000
  0
ARC
  5
D0A
330
A02
100
AcDbEntity
  8
Shape2DView008
100
AcDbCircle
 10
122.200000000
 20
61.000000000
 30
0.000000000
 40
0.250000000
100
AcDbArc
 50
90.000000000
 51
180.000000000
  0
ARC
  5
D0B
330
A02
100
AcDbEntity
  8
Shape2DView008
100
AcDbCircle
 10
122.200000000
 20
62.600000000
 30
0.000000000
 40
0.250000000
100
AcDbArc
 50
180.000000000
 51
-90.000000000
  0
LINE
  5
D0C
330
A02
100
AcDbEntity
  8
Shape2DView008
100
AcDbLine
 10
122.200000000
 20
62.350000000
 30
0.000000000
 11
122.200000000
 21
61.250000000
 31
0.000000000
  0
CIRCLE
  5
D0D
330
A02
100
AcDbEntity
  8
Shape2DView008
100
AcDbCircle
 10
96.700000000
 20
42.900000000
 30
0.000000000
 40
8.500000000
  0
LINE
  5
D0E
330
A02
100
AcDbEntity
  8
Shape2DView008
100
AcDbLine
 10
96.800000000
 20
61.250000000
 30
0.000000000
 11
96.800000000
 21
62.350000000
 31
0.000000000
  0
ARC
  5
D0F
330
A02
100
AcDbEntity
  8
Shape2DView008
100
AcDbCircle
 10
96.800000000
 20
61.000000000
 30
0.000000000
 40
0.250000000
100
AcDbArc
 50
180.000000000
 51
90.000000000
  0
ARC
  5
D10
330
A02
100
AcDbEntity
  8
Shape2DView008
100
AcDbCircle
 10
96.800000000
 20
62.600000000
 30
0.000000000
 40
0.250000000
100
AcDbArc
 50
-90.000000000
 51
180.000000000
  0
LINE
  5
D11
330
A02
100
AcDbEntity
  8
Shape2DView008
100
AcDbLine
 10
84.350000000
 20
61.000000000
 30
0.000000000
 11
96.550000000
 21
61.000000000
 31
0.000000000
  0
LINE
  5
D12
330
A02
100
AcDbEntity
  8
Shape2DView008
100
AcDbLine
 10
96.550000000
 20
62.600000000
 30
0.000000000
 11
84.350000000
 21
62.600000000
 31
0.000000000
  0
ARC
  5
D13
330
A02
100
AcDbEntity
  8
Shape2DView008
100
AcDbCircle
 10
84.100000000
 20
61.000000000
 30
0.000000000
 40
0.250000000
100
AcDbArc
 50
180.000000000
 51
0.000000000
  0
ARC
  5
D14
330
A02
100
AcDbEntity
  8
Shape2DView008
100
AcDbCircle
 10
84.100000000
 20
62.600000000
 30
0.000000000
 40
0.250000000
100
AcDbArc
 50
0.000000000
 51
180.000000000
  0
ARC
  5
D15
330
A02
100
AcDbEntity
  8
Shape2DView008
100
AcDbCircle
 10
84.100000000
 20
61.000000000
 30
0.000000000
 40
0.250000000
100
AcDbArc
 50
90.000000000
 51
180.000000000
  0
ARC
  5
D16
330
A02
100
AcDbEntity
  8
Shape2DView008
100
AcDbCircle
 10
84.100000000
 20
62.600000000
 30
0.000000000
 40
0.250000000
100
AcDbArc
 50
180.000000000
 51
-90.000000000
  0
LINE
  5
D17
330
A02
100
AcDbEntity
  8
Shape2DView008
100
AcDbLine
 10
84.100000000
 20
62.350000000
 30
0.000000000
 11
84.100000000
 21
61.250000000
 31
0.000000000
  0
LINE
  5
D18
330
A02
100
AcDbEntity
  8
Shape2DView009
100
AcDbLine
 10
-32.700000000
 20
173.127675077
 30
0.000000000
 11
-32.700000000
 21
174.606384928
 31
0.000000000
  0
LINE
  5
D19
330
A02
100
AcDbEntity
  8
Shape2DView009
100
AcDbLine
 10
-35.500000000
 20
173.127675077
 30
0.000000000
 11
-32.700000000
 21
173.127675077
 31
0.000000000
  0
LINE
  5
D1A
330
A02
100
AcDbEntity
  8
Shape2DView009
100
AcDbLine
 10
-35.500000000
 20
173.127675077
 30
0.000000000
 11
-35.500000000
 21
173.877675077
 31
0.000000000
  0
LINE
  5
D1B
330
A02
100
AcDbEntity
  8
Shape2DView009
100
AcDbLine
 10
-35.500000000
 20
173.877675077
 30
0.000000000
 11
-37.240449377
 21
173.225006561
 31
0.000000000
  0
ARC
  5
D1C
330
A02
100
AcDbEntity
  8
Shape2DView009
100
AcDbCircle
 10
-37.100000000
 20
172.850474890
 30
0.000000000
 40
0.400000000
100
AcDbArc
 50
110.556045220
 51
180.000000000
  0
LINE
  5
D1D
330
A02
100
AcDbEntity
  8
Shape2DView009
100
AcDbLine
 10
-37.500000000
 20
170.727675077
 30
0.000000000
 11
-37.500000000
 21
172.850474890
 31
0.000000000
  0
ARC
  5
D1E
330
A02
100
AcDbEntity
  8
Shape2DView009
100
AcDbCircle
 10
-37.100000000
 20
170.727675077
 30
0.000000000
 40
0.400000000
100
AcDbArc
 50
180.000000000
 51
-90.000000000
  0
LINE
  5
D1F
330
A02
100
AcDbEntity
  8
Shape2DView009
100
AcDbLine
 10
-23.500000000
 20
170.327675077
 30
0.000000000
 11
-37.100000000
 21
170.327675077
 31
0.000000000
  0
ARC
  5
D20
330
A02
100
AcDbEntity
  8
Shape2DView009
100
AcDbCircle
 10
-23.500000000
 20
169.927675077
 30
0.000000000
 40
0.400000000
100
AcDbArc
 50
-90.000000000
 51
90.000000000
  0
LINE
  5
D21
330
A02
100
AcDbEntity
  8
Shape2DView009
100
AcDbLine
 10
-37.100000000
 20
169.527675077
 30
0.000000000
 11
-23.500000000
 21
169.527675077
 31
0.000000000
  0
ARC
  5
D22
330
A02
100
AcDbEntity
  8
Shape2DView009
100
AcDbCircle
 10
-37.100000000
 20
169.127675077
 30
0.000000000
 40
0.400000000
100
AcDbArc
 50
90.000000000
 51
180.000000000
  0
LINE
  5
D23
330
A02
100
AcDbEntity
  8
Shape2DView009
100
AcDbLine
 10
-37.500000000
 20
154.527675077
 30
0.000000000
 11
-37.500000000
 21
169.127675077
 31
0.000000000
  0
ARC
  5
D24
330
A02
100
AcDbEntity
  8
Shape2DView009
100
AcDbCircle
 10
-37.100000000
 20
154.527675077
 30
0.000000000
 40
0.400000000
100
AcDbArc
 50
180.000000000
 51
-90.000000000
  0
LINE
  5
D25
330
A02
100
AcDbEntity
  8
Shape2DView009
100
AcDbLine
 10
-23.500000000
 20
154.127675077
 30
0.000000000
 11
-37.100000000
 21
154.127675077
 31
0.000000000
  0
ARC
  5
D26
330
A02
100
AcDbEntity
  8
Shape2DView009
100
AcDbCircle
 10
-23.500000000
 20
153.727675077
 30
0.000000000
 40
0.400000000
100
AcDbArc
 50
-90.000000000
 51
90.000000000
  0
LINE
  5
D27
330
A02
100
AcDbEntity
  8
Shape2DView009
100
AcDbLine
 10
-37.100000000
 20
153.327675077
 30
0.000000000
 11
-23.500000000
 21
153.327675077
 31
0.000000000
  0
ARC
  5
D28
330
A02
100
AcDbEntity
  8
Shape2DView009
100
AcDbCircle
 10
-37.100000000
 20
152.927675077
 30
0.000000000
 40
0.400000000
100
AcDbArc
 50
90.000000000
 51
180.000000000
  0
LINE
  5
D29
330
A02
100
AcDbEntity
  8
Shape2DView009
100
AcDbLine
 10
-37.500000000
 20
150.804875265
 30
0.000000000
 11
-37.500000000
 21
152.927675077
 31
0.000000000
  0
ARC
  5
D2A
330
A02
100
AcDbEntity
  8
Shape2DView009
100
AcDbCircle
 10
-37.100000000
 20
150.804875265
 30
0.000000000
 40
0.400000000
100
AcDbArc
 50
180.000000000
 51
-110.556045220
  0
LINE
  5
D2B
330
A02
100
AcDbEntity
  8
Shape2DView009
100
AcDbLine
 10
-37.240449377
 20
150.430343594
 30
0.000000000
 11
-35.500000000
 21
149.777675077
 31
0.000000000
  0
LINE
  5
D2C
330
A02
100
AcDbEntity
  8
Shape2DView009
100
AcDbLine
 10
-35.500000000
 20
150.527675077
 30
0.000000000
 11
-35.500000000
 21
149.777675077
 31
0.000000000
  0
LINE
  5
D2D
330
A02
100
AcDbEntity
  8
Shape2DView009
100
AcDbLine
 10
-32.700000000
 20
150.527675077
 30
0.000000000
 11
-35.500000000
 21
150.527675077
 31
0.000000000
  0
LINE
  5
D2E
330
A02
100
AcDbEntity
  8
Shape2DView009
100
AcDbLine
 10
-32.700000000
 20
149.048965226
 30
0.000000000
 11
-32.700000000
 21
150.527675077
 31
0.000000000
  0
ARC
  5
D2F
330
A02
100
AcDbEntity
  8
Shape2DView009
100
AcDbCircle
 10
-32.300000000
 20
149.048965226
 30
0.000000000
 40
0.400000000
100
AcDbArc
 50
180.000000000
 51
-75.000000000
  0
LINE
  5
D30
330
A02
100
AcDbEntity
  8
Shape2DView009
100
AcDbLine
 10
-25.235898385
 20
150.527675077
 30
0.000000000
 11
-32.196472382
 21
148.662594896
 31
0.000000000
  0
LINE
  5
D31
330
A02
100
AcDbEntity
  8
Shape2DView009
100
AcDbLine
 10
-19.720000000
 20
150.527675077
 30
0.000000000
 11
-25.235898385
 21
150.527675077
 31
0.000000000
  0
LINE
  5
D32
330
A02
100
AcDbEntity
  8
Shape2DView009
100
AcDbLine
 10
-19.720000000
 20
153.096291364
 30
0.000000000
 11
-19.720000000
 21
150.527675077
 31
0.000000000
  0
ARC
  5
D33
330
A02
100
AcDbEntity
  8
Shape2DView009
100
AcDbCircle
 10
-19.620666667
 20
153.268341744
 30
0.000000000
 40
0.198666667
100
AcDbArc
 50
30.000000000
 51
-120.000000000
  0
LINE
  5
D34
330
A02
100
AcDbEntity
  8
Shape2DView009
100
AcDbLine
 10
-10.191383714
 20
153.367675077
 30
0.000000000
 11
-19.448616286
 21
153.367675077
 31
0.000000000
  0
ARC
  5
D35
330
A02
100
AcDbEntity
  8
Shape2DView009
100
AcDbCircle
 10
-10.019333333
 20
153.268341744
 30
0.000000000
 40
0.198666667
100
AcDbArc
 50
-60.000000000
 51
150.000000000
  0
LINE
  5
D36
330
A02
100
AcDbEntity
  8
Shape2DView009
100
AcDbLine
 10
-9.920000000
 20
153.096291364
 30
0.000000000
 11
-9.920000000
 21
150.527675077
 31
0.000000000
  0
LINE
  5
D37
330
A02
100
AcDbEntity
  8
Shape2DView009
100
AcDbLine
 10
10.520000000
 20
150.527675077
 30
0.000000000
 11
-9.920000000
 21
150.527675077
 31
0.000000000
  0
LINE
  5
D38
330
A02
100
AcDbEntity
  8
Shape2DView009
100
AcDbLine
 10
10.520000000
 20
153.096291364
 30
0.000000000
 11
10.520000000
 21
150.527675077
 31
0.000000000
  0
ARC
  5
D39
330
A02
100
AcDbEntity
  8
Shape2DView009
100
AcDbCircle
 10
10.619333333
 20
153.268341744
 30
0.000000000
 40
0.198666667
100
AcDbArc
 50
30.000000000
 51
-120.000000000
  0
LINE
  5
D3A
330
A02
100
AcDbEntity
  8
Shape2DView009
100
AcDbLine
 10
20.048616286
 20
153.367675077
 30
0.000000000
 11
10.791383714
 21
153.367675077
 31
0.000000000
  0
ARC
  5
D3B
330
A02
100
AcDbEntity
  8
Shape2DView009
100
AcDbCircle
 10
20.220666667
 20
153.268341744
 30
0.000000000
 40
0.198666667
100
AcDbArc
 50
-60.000000000
 51
150.000000000
  0
LINE
  5
D3C
330
A02
100
AcDbEntity
  8
Shape2DView009
100
AcDbLine
 10
20.320000000
 20
153.096291364
 30
0.000000000
 11
20.320000000
 21
150.527675077
 31
0.000000000
  0
LINE
  5
D3D
330
A02
100
AcDbEntity
  8
Shape2DView009
100
AcDbLine
 10
25.835898385
 20
150.527675077
 30
0.000000000
 11
20.320000000
 21
150.527675077
 31
0.000000000
  0
LINE
  5
D3E
330
A02
100
AcDbEntity
  8
Shape2DView009
100
AcDbLine
 10
32.796472382
 20
148.662594896
 30
0.000000000
 11
25.835898385
 21
150.527675077
 31
0.000000000
  0
ARC
  5
D3F
330
A02
100
AcDbEntity
  8
Shape2DView009
100
AcDbCircle
 10
32.900000000
 20
149.048965226
 30
0.000000000
 40
0.400000000
100
AcDbArc
 50
-105.000000000
 51
0.000000000
  0
LINE
  5
D40
330
A02
100
AcDbEntity
  8
Shape2DView009
100
AcDbLine
 10
33.300000000
 20
150.527675077
 30
0.000000000
 11
33.300000000
 21
149.048965226
 31
0.000000000
  0
LINE
  5
D41
330
A02
100
AcDbEntity
  8
Shape2DView009
100
AcDbLine
 10
36.100000000
 20
150.527675077
 30
0.000000000
 11
33.300000000
 21
150.527675077
 31
0.000000000
  0
LINE
  5
D42
330
A02
100
AcDbEntity
  8
Shape2DView009
100
AcDbLine
 10
36.100000000
 20
150.527675077
 30
0.000000000
 11
36.100000000
 21
149.777675077
 31
0.000000000
  0
LINE
  5
D43
330
A02
100
AcDbEntity
  8
Shape2DView009
100
AcDbLine
 10
37.840449377
 20
150.430343594
 30
0.000000000
 11
36.100000000
 21
149.777675077
 31
0.000000000
  0
ARC
  5
D44
330
A02
100
AcDbEntity
  8
Shape2DView009
100
AcDbCircle
 10
37.700000000
 20
150.804875265
 30
0.000000000
 40
0.400000000
100
AcDbArc
 50
-69.443954780
 51
0.000000000
  0
LINE
  5
D45
330
A02
100
AcDbEntity
  8
Shape2DView009
100
AcDbLine
 10
38.100000000
 20
152.927675077
 30
0.000000000
 11
38.100000000
 21
150.804875265
 31
0.000000000
  0
ARC
  5
D46
330
A02
100
AcDbEntity
  8
Shape2DView009
100
AcDbCircle
 10
37.700000000
 20
152.927675077
 30
0.000000000
 40
0.400000000
100
AcDbArc
 50
0.000000000
 51
90.000000000
  0
LINE
  5
D47
330
A02
100
AcDbEntity
  8
Shape2DView009
100
AcDbLine
 10
24.100000000
 20
153.327675077
 30
0.000000000
 11
37.700000000
 21
153.327675077
 31
0.000000000
  0
ARC
  5
D48
330
A02
100
AcDbEntity
  8
Shape2DView009
100
AcDbCircle
 10
24.100000000
 20
153.727675077
 30
0.000000000
 40
0.400000000
100
AcDbArc
 50
90.000000000
 51
-90.000000000
  0
LINE
  5
D49
330
A02
100
AcDbEntity
  8
Shape2DView009
100
AcDbLine
 10
37.700000000
 20
154.127675077
 30
0.000000000
 11
24.100000000
 21
154.127675077
 31
0.000000000
  0
ARC
  5
D4A
330
A02
100
AcDbEntity
  8
Shape2DView009
100
AcDbCircle
 10
37.700000000
 20
154.527675077
 30
0.000000000
 40
0.400000000
100
AcDbArc
 50
-90.000000000
 51
0.000000000
  0
LINE
  5
D4B
330
A02
100
AcDbEntity
  8
Shape2DView009
100
AcDbLine
 10
38.100000000
 20
169.127675077
 30
0.000000000
 11
38.100000000
 21
154.527675077
 31
0.000000000
  0
ARC
  5
D4C
330
A02
100
AcDbEntity
  8
Shape2DView009
100
AcDbCircle
 10
37.700000000
 20
169.127675077
 30
0.000000000
 40
0.400000000
100
AcDbArc
 50
0.000000000
 51
90.000000000
  0
LINE
  5
D4D
330
A02
100
AcDbEntity
  8
Shape2DView009
100
AcDbLine
 10
24.100000000
 20
169.527675077
 30
0.000000000
 11
37.700000000
 21
169.527675077
 31
0.000000000
  0
ARC
  5
D4E
330
A02
100
AcDbEntity
  8
Shape2DView009
100
AcDbCircle
 10
24.100000000
 20
169.927675077
 30
0.000000000
 40
0.400000000
100
AcDbArc
 50
90.000000000
 51
-90.000000000
  0
LINE
  5
D4F
330
A02
100
AcDbEntity
  8
Shape2DView009
100
AcDbLine
 10
37.700000000
 20
170.327675077
 30
0.000000000
 11
24.100000000
 21
170.327675077
 31
0.000000000
  0
ARC
  5
D50
330
A02
100
AcDbEntity
  8
Shape2DView009
100
AcDbCircle
 10
37.700000000
 20
170.727675077
 30
0.000000000
 40
0.400000000
100
AcDbArc
 50
-90.000000000
 51
0.000000000
  0
LINE
  5
D51
330
A02
100
AcDbEntity
  8
Shape2DView009
100
AcDbLine
 10
38.100000000
 20
172.850474890
 30
0.000000000
 11
38.100000000
 21
170.727675077
 31
0.000000000
  0
ARC
  5
D52
330
A02
100
AcDbEntity
  8
Shape2DView009
100
AcDbCircle
 10
37.700000000
 20
172.850474890
 30
0.000000000
 40
0.400000000
100
AcDbArc
 50
0.000000000
 51
69.443954780
  0
LINE
  5
D53
330
A02
100
AcDbEntity
  8
Shape2DView009
100
AcDbLine
 10
36.100000000
 20
173.877675077
 30
0.000000000
 11
37.840449377
 21
173.225006561
 31
0.000000000
  0
LINE
  5
D54
330
A02
100
AcDbEntity
  8
Shape2DView009
100
AcDbLine
 10
36.100000000
 20
173.127675077
 30
0.000000000
 11
36.100000000
 21
173.877675077
 31
0.000000000
  0
LINE
  5
D55
330
A02
100
AcDbEntity
  8
Shape2DView009
100
AcDbLine
 10
33.300000000
 20
173.127675077
 30
0.000000000
 11
36.100000000
 21
173.127675077
 31
0.000000000
  0
LINE
  5
D56
330
A02
100
AcDbEntity
  8
Shape2DView009
100
AcDbLine
 10
33.300000000
 20
174.606384928
 30
0.000000000
 11
33.300000000
 21
173.127675077
 31
0.000000000
  0
ARC
  5
D57
330
A02
100
AcDbEntity
  8
Shape2DView009
100
AcDbCircle
 10
32.900000000
 20
174.606384928
 30
0.000000000
 40
0.400000000
100
AcDbArc
 50
0.000000000
 51
105.000000000
  0
LINE
  5
D58
330
A02
100
AcDbEntity
  8
Shape2DView009
100
AcDbLine
 10
25.835898385
 20
173.127675077
 30
0.000000000
 11
32.796472382
 21
174.992755259
 31
0.000000000
  0
LINE
  5
D59
330
A02
100
AcDbEntity
  8
Shape2DView009
100
AcDbLine
 10
20.320000000
 20
173.127675077
 30
0.000000000
 11
25.835898385
 21
173.127675077
 31
0.000000000
  0
LINE
  5
D5A
330
A02
100
AcDbEntity
  8
Shape2DView009
100
AcDbLine
 10
20.320000000
 20
173.127675077
 30
0.000000000
 11
20.320000000
 21
170.559058791
 31
0.000000000
  0
ARC
  5
D5B
330
A02
100
AcDbEntity
  8
Shape2DView009
100
AcDbCircle
 10
20.220666667
 20
170.387008411
 30
0.000000000
 40
0.198666667
100
AcDbArc
 50
-90.000000000
 51
60.000000000
  0
ARC
  5
D5C
330
A02
100
AcDbEntity
  8
Shape2DView009
100
AcDbCircle
 10
20.220666667
 20
170.387008411
 30
0.000000000
 40
0.198666667
100
AcDbArc
 50
-150.000000000
 51
-90.000000000
  0
LINE
  5
D5D
330
A02
100
AcDbEntity
  8
Shape2DView009
100
AcDbLine
 10
20.048616286
 20
170.287675077
 30
0.000000000
 11
10.791383714
 21
170.287675077
 31
0.000000000
  0
ARC
  5
D5E
330
A02
100
AcDbEntity
  8
Shape2DView009
100
AcDbCircle
 10
10.619333333
 20
170.387008411
 30
0.000000000
 40
0.198666667
100
AcDbArc
 50
-90.000000000
 51
-30.000000000
  0
ARC
  5
D5F
330
A02
100
AcDbEntity
  8
Shape2DView009
100
AcDbCircle
 10
10.619333333
 20
170.387008411
 30
0.000000000
 40
0.198666667
100
AcDbArc
 50
120.000000000
 51
-90.000000000
  0
LINE
  5
D60
330
A02
100
AcDbEntity
  8
Shape2DView009
100
AcDbLine
 10
10.520000000
 20
173.127675077
 30
0.000000000
 11
10.520000000
 21
170.559058791
 31
0.000000000
  0
LINE
  5
D61
330
A02
100
AcDbEntity
  8
Shape2DView009
100
AcDbLine
 10
-9.920000000
 20
173.127675077
 30
0.000000000
 11
10.520000000
 21
173.127675077
 31
0.000000000
  0
LINE
  5
D62
330
A02
100
AcDbEntity
  8
Shape2DView009
100
AcDbLine
 10
-9.920000000
 20
173.127675077
 30
0.000000000
 11
-9.920000000
 21
170.559058791
 31
0.000000000
  0
ARC
  5
D63
330
A02
100
AcDbEntity
  8
Shape2DView009
100
AcDbCircle
 10
-10.019333333
 20
170.387008411
 30
0.000000000
 40
0.198666667
100
AcDbArc
 50
-90.000000000
 51
60.000000000
  0
ARC
  5
D64
330
A02
100
AcDbEntity
  8
Shape2DView009
100
AcDbCircle
 10
-10.019333333
 20
170.387008411
 30
0.000000000
 40
0.198666667
100
AcDbArc
 50
-150.000000000
 51
-90.000000000
  0
LINE
  5
D65
330
A02
100
AcDbEntity
  8
Shape2DView009
100
AcDbLine
 10
-10.191383714
 20
170.287675077
 30
0.000000000
 11
-19.448616286
 21
170.287675077
 31
0.000000000
  0
ARC
  5
D66
330
A02
100
AcDbEntity
  8
Shape2DView009
100
AcDbCircle
 10
-19.620666667
 20
170.387008411
 30
0.000000000
 40
0.198666667
100
AcDbArc
 50
-90.000000000
 51
-30.000000000
  0
ARC
  5
D67
330
A02
100
AcDbEntity
  8
Shape2DView009
100
AcDbCircle
 10
-19.620666667
 20
170.387008411
 30
0.000000000
 40
0.198666667
100
AcDbArc
 50
120.000000000
 51
-90.000000000
  0
LINE
  5
D68
330
A02
100
AcDbEntity
  8
Shape2DView009
100
AcDbLine
 10
-19.720000000
 20
173.127675077
 30
0.000000000
 11
-19.720000000
 21
170.559058791
 31
0.000000000
  0
LINE
  5
D69
330
A02
100
AcDbEntity
  8
Shape2DView009
100
AcDbLine
 10
-25.235898385
 20
173.127675077
 30
0.000000000
 11
-19.720000000
 21
173.127675077
 31
0.000000000
  0
LINE
  5
D6A
330
A02
100
AcDbEntity
  8
Shape2DView009
100
AcDbLine
 10
-32.196472382
 20
174.992755259
 30
0.000000000
 11
-25.235898385
 21
173.127675077
 31
0.000000000
  0
ARC
  5
D6B
330
A02
100
AcDbEntity
  8
Shape2DView009
100
AcDbCircle
 10
-32.300000000
 20
174.606384928
 30
0.000000000
 40
0.400000000
100
AcDbArc
 50
75.000000000
 51
-180.000000000
  0
CIRCLE
  5
D6C
330
A02
100
AcDbEntity
  8
Shape2DView009
100
AcDbCircle
 10
-24.700000000
 20
161.827675077
 30
0.000000000
 40
2.500000000
  0
LINE
  5
D6D
330
A02
100
AcDbEntity
  8
Shape2DView009
100
AcDbLine
 10
-1.450000000
 20
155.427675077
 30
0.000000000
 11
2.050000000
 21
155.427675077
 31
0.000000000
  0
ARC
  5
D6E
330
A02
100
AcDbEntity
  8
Shape2DView009
100
AcDbCircle
 10
-1.450000000
 20
154.427675077
 30
0.000000000
 40
1.000000000
100
AcDbArc
 50
90.000000000
 51
-90.000000000
  0
ARC
  5
D6F
330
A02
100
AcDbEntity
  8
Shape2DView009
100
AcDbCircle
 10
2.050000000
 20
154.427675077
 30
0.000000000
 40
1.000000000
100
AcDbArc
 50
-90.000000000
 51
90.000000000
  0
LINE
  5
D70
330
A02
100
AcDbEntity
  8
Shape2DView009
100
AcDbLine
 10
-1.450000000
 20
153.427675077
 30
0.000000000
 11
2.050000000
 21
153.427675077
 31
0.000000000
  0
LINE
  5
D71
330
A02
100
AcDbEntity
  8
Shape2DView009
100
AcDbLine
 10
-1.450000000
 20
170.227675077
 30
0.000000000
 11
2.050000000
 21
170.227675077
 31
0.000000000
  0
ARC
  5
D72
330
A02
100
AcDbEntity
  8
Shape2DView009
100
AcDbCircle
 10
-1.450000000
 20
169.227675077
 30
0.000000000
 40
1.000000000
100
AcDbArc
 50
90.000000000
 51
-90.000000000
  0
ARC
  5
D73
330
A02
100
AcDbEntity
  8
Shape2DView009
100
AcDbCircle
 10
2.050000000
 20
169.227675077
 30
0.000000000
 40
1.000000000
100
AcDbArc
 50
-90.000000000
 51
90.000000000
  0
LINE
  5
D74
330
A02
100
AcDbEntity
  8
Shape2DView009
100
AcDbLine
 10
-1.450000000
 20
168.227675077
 30
0.000000000
 11
2.050000000
 21
168.227675077
 31
0.000000000
  0
CIRCLE
  5
D75
330
A02
100
AcDbEntity
  8
Shape2DView009
100
AcDbCircle
 10
25.300000000
 20
161.827675077
 30
0.000000000
 40
2.500000000
  0
LINE
  5
D76
330
A02
100
AcDbEntity
  8
Shape2DView011
100
AcDbLine
 10
68.127675077
 20
-27.888718058
 30
0.000000000
 11
68.127675077
 21
22.711281942
 31
0.000000000
  0
ARC
  5
D77
330
A02
100
AcDbEntity
  8
Shape2DView011
100
AcDbCircle
 10
65.627675077
 20
-27.888718058
 30
0.000000000
 40
2.500000000
100
AcDbArc
 50
-90.000000000
 51
0.000000000
  0
ARC
  5
D78
330
A02
100
AcDbEntity
  8
Shape2DView011
100
AcDbCircle
 10
65.627675077
 20
22.711281942
 30
0.000000000
 40
2.500000000
100
AcDbArc
 50
0.000000000
 51
90.000000000
  0
LINE
  5
D79
330
A02
100
AcDbEntity
  8
Shape2DView011
100
AcDbLine
 10
38.027675077
 20
-30.388718058
 30
0.000000000
 11
65.627675077
 21
-30.388718058
 31
0.000000000
  0
LINE
  5
D7A
330
A02
100
AcDbEntity
  8
Shape2DView011
100
AcDbLine
 10
65.627675077
 20
25.211281942
 30
0.000000000
 11
-39.972324923
 21
25.211281942
 31
0.000000000
  0
ARC
  5
D7B
330
A02
100
AcDbEntity
  8
Shape2DView011
100
AcDbCircle
 10
38.027675077
 20
-27.888718058
 30
0.000000000
 40
2.500000000
100
AcDbArc
 50
180.000000000
 51
-90.000000000
  0
ARC
  5
D7C
330
A02
100
AcDbEntity
  8
Shape2DView011
100
AcDbCircle
 10
-39.972324923
 20
22.711281942
 30
0.000000000
 40
2.500000000
100
AcDbArc
 50
90.000000000
 51
180.000000000
  0
LINE
  5
D7D
330
A02
100
AcDbEntity
  8
Shape2DView011
100
AcDbLine
 10
35.527675077
 20
-22.298642527
 30
0.000000000
 11
35.527675077
 21
-27.888718058
 31
0.000000000
  0
LINE
  5
D7E
330
A02
100
AcDbEntity
  8
Shape2DView011
100
AcDbLine
 10
-42.472324923
 20
22.711281942
 30
0.000000000
 11
-42.472324923
 21
-62.888718058
 31
0.000000000
  0
ARC
  5
D7F
330
A02
100
AcDbEntity
  8
Shape2DView011
100
AcDbCircle
 10
33.027675077
 20
-22.298642527
 30
0.000000000
 40
2.500000000
100
AcDbArc
 50
0.000000000
 51
110.000000000
  0
ARC
  5
D80
330
A02
100
AcDbEntity
  8
Shape2DView011
100
AcDbCircle
 10
-39.972324923
 20
-62.888718058
 30
0.000000000
 40
2.500000000
100
AcDbArc
 50
180.000000000
 51
-90.000000000
  0
LINE
  5
D81
330
A02
100
AcDbEntity
  8
Shape2DView011
100
AcDbLine
 10
9.772624719
 20
-28.102344223
 30
0.000000000
 11
32.172624719
 21
-19.949410975
 31
0.000000000
  0
LINE
  5
D82
330
A02
100
AcDbEntity
  8
Shape2DView011
100
AcDbLine
 10
-39.972324923
 20
-65.388718058
 30
0.000000000
 11
5.627675077
 21
-65.388718058
 31
0.000000000
  0
ARC
  5
D83
330
A02
100
AcDbEntity
  8
Shape2DView011
100
AcDbCircle
 10
10.627675077
 20
-30.451575775
 30
0.000000000
 40
2.500000000
100
AcDbArc
 50
110.000000000
 51
180.000000000
  0
ARC
  5
D84
330
A02
100
AcDbEntity
  8
Shape2DView011
100
AcDbCircle
 10
5.627675077
 20
-62.888718058
 30
0.000000000
 40
2.500000000
100
AcDbArc
 50
-90.000000000
 51
0.000000000
  0
LINE
  5
D85
330
A02
100
AcDbEntity
  8
Shape2DView011
100
AcDbLine
 10
8.127675077
 20
-62.888718058
 30
0.000000000
 11
8.127675077
 21
-30.451575775
 31
0.000000000
  0
ARC
  5
D86
330
A02
100
AcDbEntity
  8
Shape2DView011
100
AcDbCircle
 10
63.377675077
 20
-24.955705356
 30
0.000000000
 40
0.250000000
100
AcDbArc
 50
180.000000000
 51
-120.000000000
  0
ARC
  5
D87
330
A02
100
AcDbEntity
  8
Shape2DView011
100
AcDbCircle
 10
63.127675077
 20
-25.388718058
 30
0.000000000
 40
0.250000000
100
AcDbArc
 50
-150.000000000
 51
60.000000000
  0
ARC
  5
D88
330
A02
100
AcDbEntity
  8
Shape2DView011
100
AcDbCircle
 10
62.694662375
 20
-25.638718058
 30
0.000000000
 40
0.250000000
100
AcDbArc
 50
30.000000000
 51
90.000000000
  0
LINE
  5
D89
330
A02
100
AcDbEntity
  8
Shape2DView011
100
AcDbLine
 10
40.960687779
 20
-25.388718058
 30
0.000000000
 11
62.694662375
 21
-25.388718058
 31
0.000000000
  0
ARC
  5
D8A
330
A02
100
AcDbEntity
  8
Shape2DView011
100
AcDbCircle
 10
40.960687779
 20
-25.638718058
 30
0.000000000
 40
0.250000000
100
AcDbArc
 50
90.000000000
 51
150.000000000
  0
ARC
  5
D8B
330
A02
100
AcDbEntity
  8
Shape2DView011
100
AcDbCircle
 10
40.527675077
 20
-25.388718058
 30
0.000000000
 40
0.250000000
100
AcDbArc
 50
120.000000000
 51
-30.000000000
  0
ARC
  5
D8C
330
A02
100
AcDbEntity
  8
Shape2DView011
100
AcDbCircle
 10
40.277675077
 20
-24.955705356
 30
0.000000000
 40
0.250000000
100
AcDbArc
 50
-60.000000000
 51
0.000000000
  0
LINE
  5
D8D
330
A02
100
AcDbEntity
  8
Shape2DView011
100
AcDbLine
 10
40.527675077
 20
-13.015680483
 30
0.000000000
 11
40.527675077
 21
-24.955705356
 31
0.000000000
  0
ARC
  5
D8E
330
A02
100
AcDbEntity
  8
Shape2DView011
100
AcDbCircle
 10
39.527675077
 20
-13.015680483
 30
0.000000000
 40
1.000000000
100
AcDbArc
 50
0.000000000
 51
110.000000000
  0
LINE
  5
D8F
330
A02
100
AcDbEntity
  8
Shape2DView011
100
AcDbLine
 10
3.785654934
 20
-24.960534156
 30
0.000000000
 11
39.185654934
 21
-12.075987863
 31
0.000000000
  0
ARC
  5
D90
330
A02
100
AcDbEntity
  8
Shape2DView011
100
AcDbCircle
 10
4.127675077
 20
-25.900226776
 30
0.000000000
 40
1.000000000
100
AcDbArc
 50
110.000000000
 51
-180.000000000
  0
LINE
  5
D91
330
A02
100
AcDbEntity
  8
Shape2DView011
100
AcDbLine
 10
3.127675077
 20
-59.955705356
 30
0.000000000
 11
3.127675077
 21
-25.900226776
 31
0.000000000
  0
ARC
  5
D92
330
A02
100
AcDbEntity
  8
Shape2DView011
100
AcDbCircle
 10
3.377675077
 20
-59.955705356
 30
0.000000000
 40
0.250000000
100
AcDbArc
 50
180.000000000
 51
-120.000000000
  0
ARC
  5
D93
330
A02
100
AcDbEntity
  8
Shape2DView011
100
AcDbCircle
 10
3.127675077
 20
-60.388718058
 30
0.000000000
 40
0.250000000
100
AcDbArc
 50
-150.000000000
 51
60.000000000
  0
ARC
  5
D94
330
A02
100
AcDbEntity
  8
Shape2DView011
100
AcDbCircle
 10
2.694662375
 20
-60.638718058
 30
0.000000000
 40
0.250000000
100
AcDbArc
 50
30.000000000
 51
90.000000000
  0
LINE
  5
D95
330
A02
100
AcDbEntity
  8
Shape2DView011
100
AcDbLine
 10
-37.039312221
 20
-60.388718058
 30
0.000000000
 11
2.694662375
 21
-60.388718058
 31
0.000000000
  0
ARC
  5
D96
330
A02
100
AcDbEntity
  8
Shape2DView011
100
AcDbCircle
 10
-37.039312221
 20
-60.638718058
 30
0.000000000
 40
0.250000000
100
AcDbArc
 50
90.000000000
 51
150.000000000
  0
ARC
  5
D97
330
A02
100
AcDbEntity
  8
Shape2DView011
100
AcDbCircle
 10
-37.472324923
 20
-60.388718058
 30
0.000000000
 40
0.250000000
100
AcDbArc
 50
120.000000000
 51
-30.000000000
  0
ARC
  5
D98
330
A02
100
AcDbEntity
  8
Shape2DView011
100
AcDbCircle
 10
-37.722324923
 20
-59.955705356
 30
0.000000000
 40
0.250000000
100
AcDbArc
 50
-60.000000000
 51
0.000000000
  0
LINE
  5
D99
330
A02
100
AcDbEntity
  8
Shape2DView011
100
AcDbLine
 10
-37.472324923
 20
19.778269240
 30
0.000000000
 11
-37.472324923
 21
-59.955705356
 31
0.000000000
  0
ARC
  5
D9A
330
A02
100
AcDbEntity
  8
Shape2DView011
100
AcDbCircle
 10
-37.722324923
 20
19.778269240
 30
0.000000000
 40
0.250000000
100
AcDbArc
 50
0.000000000
 51
60.000000000
  0
ARC
  5
D9B
330
A02
100
AcDbEntity
  8
Shape2DView011
100
AcDbCircle
 10
-37.472324923
 20
20.211281942
 30
0.000000000
 40
0.250000000
100
AcDbArc
 50
30.000000000
 51
-120.000000000
  0
ARC
  5
D9C
330
A02
100
AcDbEntity
  8
Shape2DView011
100
AcDbCircle
 10
-37.039312221
 20
20.461281942
 30
0.000000000
 40
0.250000000
100
AcDbArc
 50
-150.000000000
 51
-90.000000000
  0
LINE
  5
D9D
330
A02
100
AcDbEntity
  8
Shape2DView011
100
AcDbLine
 10
62.694662375
 20
20.211281942
 30
0.000000000
 11
-37.039312221
 21
20.211281942
 31
0.000000000
  0
ARC
  5
D9E
330
A02
100
AcDbEntity
  8
Shape2DView011
100
AcDbCircle
 10
62.694662375
 20
20.461281942
 30
0.000000000
 40
0.250000000
100
AcDbArc
 50
-90.000000000
 51
-30.000000000
  0
ARC
  5
D9F
330
A02
100
AcDbEntity
  8
Shape2DView011
100
AcDbCircle
 10
63.127675077
 20
20.211281942
 30
0.000000000
 40
0.250000000
100
AcDbArc
 50
-60.000000000
 51
150.000000000
  0
ARC
  5
DA0
330
A02
100
AcDbEntity
  8
Shape2DView011
100
AcDbCircle
 10
63.377675077
 20
19.778269240
 30
0.000000000
 40
0.250000000
100
AcDbArc
 50
120.000000000
 51
180.000000000
  0
LINE
  5
DA1
330
A02
100
AcDbEntity
  8
Shape2DView011
100
AcDbLine
 10
63.127675077
 20
-24.955705356
 30
0.000000000
 11
63.127675077
 21
19.778269240
 31
0.000000000
  0
LINE
  5
DA2
330
A02
100
AcDbEntity
  8
Shape2DView012
100
AcDbLine
 10
-42.477675077
 20
-69.111281942
 30
0.000000000
 11
-42.477675077
 21
-119.711281942
 31
0.000000000
  0
ARC
  5
DA3
330
A02
100
AcDbEntity
  8
Shape2DView012
100
AcDbCircle
 10
-39.977675077
 20
-69.111281942
 30
0.000000000
 40
2.500000000
100
AcDbArc
 50
90.000000000
 51
180.000000000
  0
ARC
  5
DA4
330
A02
100
AcDbEntity
  8
Shape2DView012
100
AcDbCircle
 10
-39.977675077
 20
-119.711281942
 30
0.000000000
 40
2.500000000
100
AcDbArc
 50
180.000000000
 51
-90.000000000
  0
LINE
  5
DA5
330
A02
100
AcDbEntity
  8
Shape2DView012
100
AcDbLine
 10
-12.377675077
 20
-66.611281942
 30
0.000000000
 11
-39.977675077
 21
-66.611281942
 31
0.000000000
  0
LINE
  5
DA6
330
A02
100
AcDbEntity
  8
Shape2DView012
100
AcDbLine
 10
-39.977675077
 20
-122.211281942
 30
0.000000000
 11
65.622324923
 21
-122.211281942
 31
0.000000000
  0
ARC
  5
DA7
330
A02
100
AcDbEntity
  8
Shape2DView012
100
AcDbCircle
 10
-12.377675077
 20
-69.111281942
 30
0.000000000
 40
2.500000000
100
AcDbArc
 50
0.000000000
 51
90.000000000
  0
ARC
  5
DA8
330
A02
100
AcDbEntity
  8
Shape2DView012
100
AcDbCircle
 10
65.622324923
 20
-119.711281942
 30
0.000000000
 40
2.500000000
100
AcDbArc
 50
-90.000000000
 51
0.000000000
  0
LINE
  5
DA9
330
A02
100
AcDbEntity
  8
Shape2DView012
100
AcDbLine
 10
-9.877675077
 20
-74.701357473
 30
0.000000000
 11
-9.877675077
 21
-69.111281942
 31
0.000000000
  0
LINE
  5
DAA
330
A02
100
AcDbEntity
  8
Shape2DView012
100
AcDbLine
 10
68.122324923
 20
-119.711281942
 30
0.000000000
 11
68.122324923
 21
-34.111281942
 31
0.000000000
  0
ARC
  5
DAB
330
A02
100
AcDbEntity
  8
Shape2DView012
100
AcDbCircle
 10
-7.377675077
 20
-74.701357473
 30
0.000000000
 40
2.500000000
100
AcDbArc
 50
180.000000000
 51
-70.000000000
  0
ARC
  5
DAC
330
A02
100
AcDbEntity
  8
Shape2DView012
100
AcDbCircle
 10
65.622324923
 20
-34.111281942
 30
0.000000000
 40
2.500000000
100
AcDbArc
 50
0.000000000
 51
90.000000000
  0
LINE
  5
DAD
330
A02
100
AcDbEntity
  8
Shape2DView012
100
AcDbLine
 10
15.877375281
 20
-68.897655777
 30
0.000000000
 11
-6.522624719
 21
-77.050589025
 31
0.000000000
  0
LINE
  5
DAE
330
A02
100
AcDbEntity
  8
Shape2DView012
100
AcDbLine
 10
65.622324923
 20
-31.611281942
 30
0.000000000
 11
20.022324923
 21
-31.611281942
 31
0.000000000
  0
ARC
  5
DAF
330
A02
100
AcDbEntity
  8
Shape2DView012
100
AcDbCircle
 10
15.022324923
 20
-66.548424225
 30
0.000000000
 40
2.500000000
100
AcDbArc
 50
-70.000000000
 51
0.000000000
  0
ARC
  5
DB0
330
A02
100
AcDbEntity
  8
Shape2DView012
100
AcDbCircle
 10
20.022324923
 20
-34.111281942
 30
0.000000000
 40
2.500000000
100
AcDbArc
 50
90.000000000
 51
180.000000000
  0
LINE
  5
DB1
330
A02
100
AcDbEntity
  8
Shape2DView012
100
AcDbLine
 10
17.522324923
 20
-34.111281942
 30
0.000000000
 11
17.522324923
 21
-66.548424225
 31
0.000000000
  0
ARC
  5
DB2
330
A02
100
AcDbEntity
  8
Shape2DView012
100
AcDbCircle
 10
-37.727675077
 20
-72.044294644
 30
0.000000000
 40
0.250000000
100
AcDbArc
 50
0.000000000
 51
60.000000000
  0
ARC
  5
DB3
330
A02
100
AcDbEntity
  8
Shape2DView012
100
AcDbCircle
 10
-37.477675077
 20
-71.611281942
 30
0.000000000
 40
0.250000000
100
AcDbArc
 50
30.000000000
 51
-120.000000000
  0
ARC
  5
DB4
330
A02
100
AcDbEntity
  8
Shape2DView012
100
AcDbCircle
 10
-37.044662375
 20
-71.361281942
 30
0.000000000
 40
0.250000000
100
AcDbArc
 50
-150.000000000
 51
-90.000000000
  0
LINE
  5
DB5
330
A02
100
AcDbEntity
  8
Shape2DView012
100
AcDbLine
 10
-15.310687779
 20
-71.611281942
 30
0.000000000
 11
-37.044662375
 21
-71.611281942
 31
0.000000000
  0
ARC
  5
DB6
330
A02
100
AcDbEntity
  8
Shape2DView012
100
AcDbCircle
 10
-15.310687779
 20
-71.361281942
 30
0.000000000
 40
0.250000000
100
AcDbArc
 50
-90.000000000
 51
-30.000000000
  0
ARC
  5
DB7
330
A02
100
AcDbEntity
  8
Shape2DView012
100
AcDbCircle
 10
-14.877675077
 20
-71.611281942
 30
0.000000000
 40
0.250000000
100
AcDbArc
 50
-60.000000000
 51
150.000000000
  0
ARC
  5
DB8
330
A02
100
AcDbEntity
  8
Shape2DView012
100
AcDbCircle
 10
-14.627675077
 20
-72.044294644
 30
0.000000000
 40
0.250000000
100
AcDbArc
 50
120.000000000
 51
180.000000000
  0
LINE
  5
DB9
330
A02
100
AcDbEntity
  8
Shape2DView012
100
AcDbLine
 10
-14.877675077
 20
-83.984319517
 30
0.000000000
 11
-14.877675077
 21
-72.044294644
 31
0.000000000
  0
ARC
  5
DBA
330
A02
100
AcDbEntity
  8
Shape2DView012
100
AcDbCircle
 10
-13.877675077
 20
-83.984319517
 30
0.000000000
 40
1.000000000
100
AcDbArc
 50
180.000000000
 51
-70.000000000
  0
LINE
  5
DBB
330
A02
100
AcDbEntity
  8
Shape2DView012
100
AcDbLine
 10
21.864345066
 20
-72.039465844
 30
0.000000000
 11
-13.535654934
 21
-84.924012137
 31
0.000000000
  0
ARC
  5
DBC
330
A02
100
AcDbEntity
  8
Shape2DView012
100
AcDbCircle
 10
21.522324923
 20
-71.099773224
 30
0.000000000
 40
1.000000000
100
AcDbArc
 50
-70.000000000
 51
0.000000000
  0
LINE
  5
DBD
330
A02
100
AcDbEntity
  8
Shape2DView012
100
AcDbLine
 10
22.522324923
 20
-37.044294644
 30
0.000000000
 11
22.522324923
 21
-71.099773224
 31
0.000000000
  0
ARC
  5
DBE
330
A02
100
AcDbEntity
  8
Shape2DView012
100
AcDbCircle
 10
22.272324923
 20
-37.044294644
 30
0.000000000
 40
0.250000000
100
AcDbArc
 50
0.000000000
 51
60.000000000
  0
ARC
  5
DBF
330
A02
100
AcDbEntity
  8
Shape2DView012
100
AcDbCircle
 10
22.522324923
 20
-36.611281942
 30
0.000000000
 40
0.250000000
100
AcDbArc
 50
30.000000000
 51
-120.000000000
  0
ARC
  5
DC0
330
A02
100
AcDbEntity
  8
Shape2DView012
100
AcDbCircle
 10
22.955337625
 20
-36.361281942
 30
0.000000000
 40
0.250000000
100
AcDbArc
 50
-150.000000000
 51
-90.000000000
  0
LINE
  5
DC1
330
A02
100
AcDbEntity
  8
Shape2DView012
100
AcDbLine
 10
62.689312221
 20
-36.611281942
 30
0.000000000
 11
22.955337625
 21
-36.611281942
 31
0.000000000
  0
ARC
  5
DC2
330
A02
100
AcDbEntity
  8
Shape2DView012
100
AcDbCircle
 10
62.689312221
 20
-36.361281942
 30
0.000000000
 40
0.250000000
100
AcDbArc
 50
-90.000000000
 51
-30.000000000
  0
ARC
  5
DC3
330
A02
100
AcDbEntity
  8
Shape2DView012
100
AcDbCircle
 10
63.122324923
 20
-36.611281942
 30
0.000000000
 40
0.250000000
100
AcDbArc
 50
-60.000000000
 51
150.000000000
  0
ARC
  5
DC4
330
A02
100
AcDbEntity
  8
Shape2DView012
100
AcDbCircle
 10
63.372324923
 20
-37.044294644
 30
0.000000000
 40
0.250000000
100
AcDbArc
 50
120.000000000
 51
180.000000000
  0
LINE
  5
DC5
330
A02
100
AcDbEntity
  8
Shape2DView012
100
AcDbLine
 10
63.122324923
 20
-116.778269240
 30
0.000000000
 11
63.122324923
 21
-37.044294644
 31
0.000000000
  0
ARC
  5
DC6
330
A02
100
AcDbEntity
  8
Shape2DView012
100
AcDbCircle
 10
63.372324923
 20
-116.778269240
 30
0.000000000
 40
0.250000000
100
AcDbArc
 50
180.000000000
 51
-120.000000000
  0
ARC
  5
DC7
330
A02
100
AcDbEntity
  8
Shape2DView012
100
AcDbCircle
 10
63.122324923
 20
-117.211281942
 30
0.000000000
 40
0.250000000
100
AcDbArc
 50
-150.000000000
 51
60.000000000
  0
ARC
  5
DC8
330
A02
100
AcDbEntity
  8
Shape2DView012
100
AcDbCircle
 10
62.689312221
 20
-117.461281942
 30
0.000000000
 40
0.250000000
100
AcDbArc
 50
30.000000000
 51
90.000000000
  0
LINE
  5
DC9
330
A02
100
AcDbEntity
  8
Shape2DView012
100
AcDbLine
 10
-37.044662375
 20
-117.211281942
 30
0.000000000
 11
62.689312221
 21
-117.211281942
 31
0.000000000
  0
ARC
  5
DCA
330
A02
100
AcDbEntity
  8
Shape2DView012
100
AcDbCircle
 10
-37.044662375
 20
-117.461281942
 30
0.000000000
 40
0.250000000
100
AcDbArc
 50
90.000000000
 51
150.000000000
  0
ARC
  5
DCB
330
A02
100
AcDbEntity
  8
Shape2DView012
100
AcDbCircle
 10
-37.477675077
 20
-117.211281942
 30
0.000000000
 40
0.250000000
100
AcDbArc
 50
120.000000000
 51
-30.000000000
  0
ARC
  5
DCC
330
A02
100
AcDbEntity
  8
Shape2DView012
100
AcDbCircle
 10
-37.727675077
 20
-116.778269240
 30
0.000000000
 40
0.250000000
100
AcDbArc
 50
-60.000000000
 51
0.000000000
  0
LINE
  5
DCD
330
A02
100
AcDbEntity
  8
Shape2DView012
100
AcDbLine
 10
-37.477675077
 20
-72.044294644
 30
0.000000000
 11
-37.477675077
 21
-116.778269240
 31
0.000000000
  0
LINE
  5
DCE
330
A02
100
AcDbEntity
  8
Shape2DView013
100
AcDbLine
 10
70.200000000
 20
137.146030000
 30
0.000000000
 11
70.200000000
 21
153.920388000
 31
0.000000000
  0
LINE
  5
DCF
330
A02
100
AcDbEntity
  8
Shape2DView013
100
AcDbLine
 10
70.200000000
 20
153.920388000
 30
0.000000000
 11
87.973350000
 21
153.920388000
 31
0.000000000
  0
LINE
  5
DD0
330
A02
100
AcDbEntity
  8
Shape2DView013
100
AcDbLine
 10
87.973350000
 20
153.920388000
 30
0.000000000
 11
87.973350000
 21
151.360189000
 31
0.000000000
  0
ARC
  5
DD1
330
A02
100
AcDbEntity
  8
Shape2DView013
100
AcDbCircle
 10
88.072905000
 20
151.176688000
 30
0.000000000
 40
0.208767371
100
AcDbArc
 50
118.481207995
 51
-15.612156875
  0
LINE
  5
DD2
330
A02
100
AcDbEntity
  8
Shape2DView013
100
AcDbLine
 10
88.273970000
 20
151.120503653
 30
0.000000000
 11
97.486030000
 21
151.120503653
 31
0.000000000
  0
ARC
  5
DD3
330
A02
100
AcDbEntity
  8
Shape2DView013
100
AcDbCircle
 10
97.687095000
 20
151.176688000
 30
0.000000000
 40
0.208767371
100
AcDbArc
 50
-164.387843125
 51
61.518792005
  0
LINE
  5
DD4
330
A02
100
AcDbEntity
  8
Shape2DView013
100
AcDbLine
 10
97.786650000
 20
153.920388000
 30
0.000000000
 11
97.786650000
 21
151.360189000
 31
0.000000000
  0
LINE
  5
DD5
330
A02
100
AcDbEntity
  8
Shape2DView013
100
AcDbLine
 10
97.786650000
 20
153.920388000
 30
0.000000000
 11
118.213350000
 21
153.920388000
 31
0.000000000
  0
LINE
  5
DD6
330
A02
100
AcDbEntity
  8
Shape2DView013
100
AcDbLine
 10
118.213350000
 20
153.920388000
 30
0.000000000
 11
118.213350000
 21
151.360189000
 31
0.000000000
  0
ARC
  5
DD7
330
A02
100
AcDbEntity
  8
Shape2DView013
100
AcDbCircle
 10
118.312905000
 20
151.176688000
 30
0.000000000
 40
0.208767371
100
AcDbArc
 50
118.481207995
 51
-15.729005476
  0
LINE
  5
DD8
330
A02
100
AcDbEntity
  8
Shape2DView013
100
AcDbLine
 10
118.513855000
 20
151.120093720
 30
0.000000000
 11
127.726145000
 21
151.120093720
 31
0.000000000
  0
ARC
  5
DD9
330
A02
100
AcDbEntity
  8
Shape2DView013
100
AcDbCircle
 10
127.927095000
 20
151.176688000
 30
0.000000000
 40
0.208767371
100
AcDbArc
 50
-164.270994524
 51
61.518792005
  0
LINE
  5
DDA
330
A02
100
AcDbEntity
  8
Shape2DView013
100
AcDbLine
 10
128.026650000
 20
153.920388000
 30
0.000000000
 11
128.026650000
 21
151.360189000
 31
0.000000000
  0
LINE
  5
DDB
330
A02
100
AcDbEntity
  8
Shape2DView013
100
AcDbLine
 10
128.026650000
 20
153.920388000
 30
0.000000000
 11
145.800000000
 21
153.920388000
 31
0.000000000
  0
LINE
  5
DDC
330
A02
100
AcDbEntity
  8
Shape2DView013
100
AcDbLine
 10
145.800000000
 20
153.920388000
 30
0.000000000
 11
145.800000000
 21
137.146030000
 31
0.000000000
  0
LINE
  5
DDD
330
A02
100
AcDbEntity
  8
Shape2DView013
100
AcDbLine
 10
143.225339000
 20
137.146030000
 30
0.000000000
 11
145.800000000
 21
137.146030000
 31
0.000000000
  0
ARC
  5
DDE
330
A02
100
AcDbEntity
  8
Shape2DView013
100
AcDbCircle
 10
143.052905000
 20
137.046475000
 30
0.000000000
 40
0.199109724
100
AcDbArc
 50
30.000045775
 51
-120.000045775
  0
LINE
  5
DDF
330
A02
100
AcDbEntity
  8
Shape2DView013
100
AcDbLine
 10
142.953350000
 20
136.874041000
 30
0.000000000
 11
142.953350000
 21
127.604719000
 31
0.000000000
  0
ARC
  5
DE0
330
A02
100
AcDbEntity
  8
Shape2DView013
100
AcDbCircle
 10
143.052905000
 20
127.432285000
 30
0.000000000
 40
0.199109724
100
AcDbArc
 50
120.000045775
 51
-30.000045775
  0
LINE
  5
DE1
330
A02
100
AcDbEntity
  8
Shape2DView013
100
AcDbLine
 10
143.225339000
 20
127.332730000
 30
0.000000000
 11
145.800000000
 21
127.332730000
 31
0.000000000
  0
LINE
  5
DE2
330
A02
100
AcDbEntity
  8
Shape2DView013
100
AcDbLine
 10
145.800000000
 20
127.332730000
 30
0.000000000
 11
145.800000000
 21
109.920139000
 31
0.000000000
  0
LINE
  5
DE3
330
A02
100
AcDbEntity
  8
Shape2DView013
100
AcDbLine
 10
145.800000000
 20
109.920139000
 30
0.000000000
 11
143.000000000
 21
109.920139000
 31
0.000000000
  0
LINE
  5
DE4
330
A02
100
AcDbEntity
  8
Shape2DView013
100
AcDbLine
 10
143.000000000
 20
109.920139000
 30
0.000000000
 11
143.000000000
 21
108.520139000
 31
0.000000000
  0
LINE
  5
DE5
330
A02
100
AcDbEntity
  8
Shape2DView013
100
AcDbLine
 10
143.000000000
 20
108.520139000
 30
0.000000000
 11
132.806650000
 21
108.520139000
 31
0.000000000
  0
LINE
  5
DE6
330
A02
100
AcDbEntity
  8
Shape2DView013
100
AcDbLine
 10
132.806650000
 20
108.520139000
 30
0.000000000
 11
132.806650000
 21
111.089385000
 31
0.000000000
  0
ARC
  5
DE7
330
A02
100
AcDbEntity
  8
Shape2DView013
100
AcDbCircle
 10
132.710207000
 20
111.267150000
 30
0.000000000
 40
0.202241557
100
AcDbArc
 50
-61.518802362
 51
149.503782981
  0
LINE
  5
DE8
330
A02
100
AcDbEntity
  8
Shape2DView013
100
AcDbLine
 10
123.264057000
 20
111.369783843
 30
0.000000000
 11
132.535943000
 21
111.369783843
 31
0.000000000
  0
ARC
  5
DE9
330
A02
100
AcDbEntity
  8
Shape2DView013
100
AcDbCircle
 10
123.089793000
 20
111.267150000
 30
0.000000000
 40
0.202241557
100
AcDbArc
 50
30.496217019
 51
-118.481197638
  0
LINE
  5
DEA
330
A02
100
AcDbEntity
  8
Shape2DView013
100
AcDbLine
 10
122.993350000
 20
108.520139000
 30
0.000000000
 11
122.993350000
 21
111.089385000
 31
0.000000000
  0
LINE
  5
DEB
330
A02
100
AcDbEntity
  8
Shape2DView013
100
AcDbLine
 10
122.993350000
 20
108.520139000
 30
0.000000000
 11
110.000000000
 21
108.520139000
 31
0.000000000
  0
LINE
  5
DEC
330
A02
100
AcDbEntity
  8
Shape2DView013
100
AcDbLine
 10
110.000000000
 20
108.520139000
 30
0.000000000
 11
110.000000000
 21
111.020139000
 31
0.000000000
  0
ARC
  5
DED
330
A02
100
AcDbEntity
  8
Shape2DView013
100
AcDbCircle
 10
108.000000000
 20
111.020139000
 30
0.000000000
 40
2.000000000
100
AcDbArc
 50
0.000000000
 51
180.000000000
  0
LINE
  5
DEE
330
A02
100
AcDbEntity
  8
Shape2DView013
100
AcDbLine
 10
106.000000000
 20
111.020139000
 30
0.000000000
 11
106.000000000
 21
108.520139000
 31
0.000000000
  0
LINE
  5
DEF
330
A02
100
AcDbEntity
  8
Shape2DView013
100
AcDbLine
 10
106.000000000
 20
108.520139000
 30
0.000000000
 11
93.006650000
 21
108.520139000
 31
0.000000000
  0
LINE
  5
DF0
330
A02
100
AcDbEntity
  8
Shape2DView013
100
AcDbLine
 10
93.006650000
 20
108.520139000
 30
0.000000000
 11
93.006650000
 21
111.089385000
 31
0.000000000
  0
ARC
  5
DF1
330
A02
100
AcDbEntity
  8
Shape2DView013
100
AcDbCircle
 10
92.910207000
 20
111.262756098
 30
0.000000000
 40
0.198390498
100
AcDbArc
 50
-60.913655853
 51
147.352028511
  0
LINE
  5
DF2
330
A02
100
AcDbEntity
  8
Shape2DView013
100
AcDbLine
 10
83.464057497
 20
111.369783000
 30
0.000000000
 11
92.743162000
 21
111.369783000
 31
0.000000000
  0
ARC
  5
DF3
330
A02
100
AcDbEntity
  8
Shape2DView013
100
AcDbCircle
 10
83.289793000
 20
111.267150000
 30
0.000000000
 40
0.202241557
100
AcDbArc
 50
30.495939772
 51
-118.481197638
  0
LINE
  5
DF4
330
A02
100
AcDbEntity
  8
Shape2DView013
100
AcDbLine
 10
83.193350000
 20
108.520139000
 30
0.000000000
 11
83.193350000
 21
111.089385000
 31
0.000000000
  0
LINE
  5
DF5
330
A02
100
AcDbEntity
  8
Shape2DView013
100
AcDbLine
 10
83.193350000
 20
108.520139000
 30
0.000000000
 11
73.000000000
 21
108.520139000
 31
0.000000000
  0
LINE
  5
DF6
330
A02
100
AcDbEntity
  8
Shape2DView013
100
AcDbLine
 10
73.000000000
 20
108.520139000
 30
0.000000000
 11
73.000000000
 21
109.920139000
 31
0.000000000
  0
LINE
  5
DF7
330
A02
100
AcDbEntity
  8
Shape2DView013
100
AcDbLine
 10
73.000000000
 20
109.920139000
 30
0.000000000
 11
70.200000000
 21
109.920139000
 31
0.000000000
  0
LINE
  5
DF8
330
A02
100
AcDbEntity
  8
Shape2DView013
100
AcDbLine
 10
70.200000000
 20
109.920139000
 30
0.000000000
 11
70.200000000
 21
127.332730000
 31
0.000000000
  0
LINE
  5
DF9
330
A02
100
AcDbEntity
  8
Shape2DView013
100
AcDbLine
 10
70.200000000
 20
127.332730000
 30
0.000000000
 11
72.774661000
 21
127.332730000
 31
0.000000000
  0
ARC
  5
DFA
330
A02
100
AcDbEntity
  8
Shape2DView013
100
AcDbCircle
 10
72.954141000
 20
127.439363694
 30
0.000000000
 40
0.208767371
100
AcDbArc
 50
-149.284361728
 51
63.696879652
  0
LINE
  5
DFB
330
A02
100
AcDbEntity
  8
Shape2DView013
100
AcDbLine
 10
73.046650000
 20
136.862974000
 30
0.000000000
 11
73.046650000
 21
127.626515771
 31
0.000000000
  0
ARC
  5
DFC
330
A02
100
AcDbEntity
  8
Shape2DView013
100
AcDbCircle
 10
72.947095000
 20
137.046475000
 30
0.000000000
 40
0.208767371
100
AcDbArc
 50
-61.518792005
 51
151.518792005
  0
LINE
  5
DFD
330
A02
100
AcDbEntity
  8
Shape2DView013
100
AcDbLine
 10
70.200000000
 20
137.146030000
 30
0.000000000
 11
72.763594000
 21
137.146030000
 31
0.000000000
  0
ARC
  5
DFE
330
A02
100
AcDbEntity
  8
Shape2DView013
100
AcDbCircle
 10
75.926980000
 20
116.039380000
 30
0.000000000
 40
0.300000000
100
AcDbArc
 50
180.000000000
 51
-90.000000000
  0
LINE
  5
DFF
330
A02
100
AcDbEntity
  8
Shape2DView013
100
AcDbLine
 10
75.926980000
 20
115.739380000
 30
0.000000000
 11
85.325620000
 21
115.739380000
 31
0.000000000
  0
ARC
  5
E00
330
A02
100
AcDbEntity
  8
Shape2DView013
100
AcDbCircle
 10
85.325620000
 20
116.039380000
 30
0.000000000
 40
0.300000000
100
AcDbArc
 50
-90.000000000
 51
90.000000000
  0
LINE
  5
E01
330
A02
100
AcDbEntity
  8
Shape2DView013
100
AcDbLine
 10
85.325620000
 20
116.339380000
 30
0.000000000
 11
76.226980000
 21
116.339380000
 31
0.000000000
  0
LINE
  5
E02
330
A02
100
AcDbEntity
  8
Shape2DView013
100
AcDbLine
 10
76.226980000
 20
116.339380000
 30
0.000000000
 11
76.226980000
 21
117.438020000
 31
0.000000000
  0
ARC
  5
E03
330
A02
100
AcDbEntity
  8
Shape2DView013
100
AcDbCircle
 10
75.926980000
 20
117.438020000
 30
0.000000000
 40
0.300000000
100
AcDbArc
 50
0.000000000
 51
180.000000000
  0
LINE
  5
E04
330
A02
100
AcDbEntity
  8
Shape2DView013
100
AcDbLine
 10
75.626980000
 20
117.438020000
 30
0.000000000
 11
75.626980000
 21
116.039380000
 31
0.000000000
  0
ARC
  5
E05
330
A02
100
AcDbEntity
  8
Shape2DView013
100
AcDbCircle
 10
75.926980000
 20
119.038020000
 30
0.000000000
 40
0.300000000
100
AcDbArc
 50
180.000000000
 51
0.000000000
  0
LINE
  5
E06
330
A02
100
AcDbEntity
  8
Shape2DView013
100
AcDbLine
 10
76.226980000
 20
119.038020000
 30
0.000000000
 11
76.226980000
 21
131.438020000
 31
0.000000000
  0
ARC
  5
E07
330
A02
100
AcDbEntity
  8
Shape2DView013
100
AcDbCircle
 10
75.926980000
 20
131.438020000
 30
0.000000000
 40
0.300000000
100
AcDbArc
 50
0.000000000
 51
180.000000000
  0
LINE
  5
E08
330
A02
100
AcDbEntity
  8
Shape2DView013
100
AcDbLine
 10
75.626980000
 20
119.038020000
 30
0.000000000
 11
75.626980000
 21
131.438020000
 31
0.000000000
  0
LINE
  5
E09
330
A02
100
AcDbEntity
  8
Shape2DView013
100
AcDbLine
 10
76.226980000
 20
145.440740000
 30
0.000000000
 11
76.226980000
 21
133.040740000
 31
0.000000000
  0
ARC
  5
E0A
330
A02
100
AcDbEntity
  8
Shape2DView013
100
AcDbCircle
 10
75.926980000
 20
133.040740000
 30
0.000000000
 40
0.300000000
100
AcDbArc
 50
180.000000000
 51
0.000000000
  0
LINE
  5
E0B
330
A02
100
AcDbEntity
  8
Shape2DView013
100
AcDbLine
 10
75.626980000
 20
145.440740000
 30
0.000000000
 11
75.626980000
 21
133.040740000
 31
0.000000000
  0
ARC
  5
E0C
330
A02
100
AcDbEntity
  8
Shape2DView013
100
AcDbCircle
 10
75.926980000
 20
145.440740000
 30
0.000000000
 40
0.300000000
100
AcDbArc
 50
0.000000000
 51
180.000000000
  0
LINE
  5
E0D
330
A02
100
AcDbEntity
  8
Shape2DView013
100
AcDbLine
 10
75.926980000
 20
148.739380000
 30
0.000000000
 11
85.325620000
 21
148.739380000
 31
0.000000000
  0
ARC
  5
E0E
330
A02
100
AcDbEntity
  8
Shape2DView013
100
AcDbCircle
 10
85.325620000
 20
148.439380000
 30
0.000000000
 40
0.300000000
100
AcDbArc
 50
-90.000000000
 51
90.000000000
  0
LINE
  5
E0F
330
A02
100
AcDbEntity
  8
Shape2DView013
100
AcDbLine
 10
85.325620000
 20
148.139380000
 30
0.000000000
 11
76.226980000
 21
148.139380000
 31
0.000000000
  0
LINE
  5
E10
330
A02
100
AcDbEntity
  8
Shape2DView013
100
AcDbLine
 10
76.226980000
 20
148.139380000
 30
0.000000000
 11
76.226980000
 21
147.040740000
 31
0.000000000
  0
ARC
  5
E11
330
A02
100
AcDbEntity
  8
Shape2DView013
100
AcDbCircle
 10
75.926980000
 20
147.040740000
 30
0.000000000
 40
0.300000000
100
AcDbArc
 50
180.000000000
 51
0.000000000
  0
LINE
  5
E12
330
A02
100
AcDbEntity
  8
Shape2DView013
100
AcDbLine
 10
75.626980000
 20
147.040740000
 30
0.000000000
 11
75.626980000
 21
148.439380000
 31
0.000000000
  0
ARC
  5
E13
330
A02
100
AcDbEntity
  8
Shape2DView013
100
AcDbCircle
 10
75.926980000
 20
148.439380000
 30
0.000000000
 40
0.300000000
100
AcDbArc
 50
90.000000000
 51
180.000000000
  0
ARC
  5
E14
330
A02
100
AcDbEntity
  8
Shape2DView013
100
AcDbCircle
 10
129.074380000
 20
148.439380000
 30
0.000000000
 40
0.300000000
100
AcDbArc
 50
-90.000000000
 51
90.000000000
  0
LINE
  5
E15
330
A02
100
AcDbEntity
  8
Shape2DView013
100
AcDbLine
 10
86.925620000
 20
148.739380000
 30
0.000000000
 11
129.074380000
 21
148.739380000
 31
0.000000000
  0
ARC
  5
E16
330
A02
100
AcDbEntity
  8
Shape2DView013
100
AcDbCircle
 10
86.925620000
 20
148.439380000
 30
0.000000000
 40
0.300000000
100
AcDbArc
 50
90.000000000
 51
-90.000000000
  0
LINE
  5
E17
330
A02
100
AcDbEntity
  8
Shape2DView013
100
AcDbLine
 10
91.499260000
 20
148.139380000
 30
0.000000000
 11
86.925620000
 21
148.139380000
 31
0.000000000
  0
LINE
  5
E18
330
A02
100
AcDbEntity
  8
Shape2DView013
100
AcDbLine
 10
91.499260000
 20
116.339380000
 30
0.000000000
 11
91.499260000
 21
148.139380000
 31
0.000000000
  0
LINE
  5
E19
330
A02
100
AcDbEntity
  8
Shape2DView013
100
AcDbLine
 10
91.499260000
 20
116.339380000
 30
0.000000000
 11
86.925620000
 21
116.339380000
 31
0.000000000
  0
ARC
  5
E1A
330
A02
100
AcDbEntity
  8
Shape2DView013
100
AcDbCircle
 10
86.925620000
 20
116.039380000
 30
0.000000000
 40
0.300000000
100
AcDbArc
 50
90.000000000
 51
-90.000000000
  0
LINE
  5
E1B
330
A02
100
AcDbEntity
  8
Shape2DView013
100
AcDbLine
 10
129.074380000
 20
115.739380000
 30
0.000000000
 11
86.925620000
 21
115.739380000
 31
0.000000000
  0
ARC
  5
E1C
330
A02
100
AcDbEntity
  8
Shape2DView013
100
AcDbCircle
 10
129.074380000
 20
116.039380000
 30
0.000000000
 40
0.300000000
100
AcDbArc
 50
-90.000000000
 51
90.000000000
  0
LINE
  5
E1D
330
A02
100
AcDbEntity
  8
Shape2DView013
100
AcDbLine
 10
124.500740000
 20
116.339380000
 30
0.000000000
 11
129.074380000
 21
116.339380000
 31
0.000000000
  0
LINE
  5
E1E
330
A02
100
AcDbEntity
  8
Shape2DView013
100
AcDbLine
 10
124.500740000
 20
148.139380000
 30
0.000000000
 11
124.500740000
 21
116.339380000
 31
0.000000000
  0
LINE
  5
E1F
330
A02
100
AcDbEntity
  8
Shape2DView013
100
AcDbLine
 10
124.500740000
 20
148.139380000
 30
0.000000000
 11
129.074380000
 21
148.139380000
 31
0.000000000
  0
LINE
  5
E20
330
A02
100
AcDbEntity
  8
Shape2DView013
100
AcDbLine
 10
140.073020000
 20
115.739380000
 30
0.000000000
 11
130.674380000
 21
115.739380000
 31
0.000000000
  0
ARC
  5
E21
330
A02
100
AcDbEntity
  8
Shape2DView013
100
AcDbCircle
 10
130.674380000
 20
116.039380000
 30
0.000000000
 40
0.300000000
100
AcDbArc
 50
90.000000000
 51
-90.000000000
  0
LINE
  5
E22
330
A02
100
AcDbEntity
  8
Shape2DView013
100
AcDbLine
 10
130.674380000
 20
116.339380000
 30
0.000000000
 11
139.773020000
 21
116.339380000
 31
0.000000000
  0
LINE
  5
E23
330
A02
100
AcDbEntity
  8
Shape2DView013
100
AcDbLine
 10
139.773020000
 20
116.339380000
 30
0.000000000
 11
139.773020000
 21
117.438020000
 31
0.000000000
  0
ARC
  5
E24
330
A02
100
AcDbEntity
  8
Shape2DView013
100
AcDbCircle
 10
140.073020000
 20
117.438020000
 30
0.000000000
 40
0.300000000
100
AcDbArc
 50
0.000000000
 51
180.000000000
  0
LINE
  5
E25
330
A02
100
AcDbEntity
  8
Shape2DView013
100
AcDbLine
 10
140.373020000
 20
117.438020000
 30
0.000000000
 11
140.373020000
 21
116.039380000
 31
0.000000000
  0
ARC
  5
E26
330
A02
100
AcDbEntity
  8
Shape2DView013
100
AcDbCircle
 10
140.073020000
 20
116.039380000
 30
0.000000000
 40
0.300000000
100
AcDbArc
 50
-90.000000000
 51
0.000000000
  0
LINE
  5
E27
330
A02
100
AcDbEntity
  8
Shape2DView013
100
AcDbLine
 10
139.773020000
 20
119.038020000
 30
0.000000000
 11
139.773020000
 21
131.438020000
 31
0.000000000
  0
ARC
  5
E28
330
A02
100
AcDbEntity
  8
Shape2DView013
100
AcDbCircle
 10
140.073020000
 20
131.438020000
 30
0.000000000
 40
0.300000000
100
AcDbArc
 50
0.000000000
 51
180.000000000
  0
LINE
  5
E29
330
A02
100
AcDbEntity
  8
Shape2DView013
100
AcDbLine
 10
140.373020000
 20
119.038020000
 30
0.000000000
 11
140.373020000
 21
131.438020000
 31
0.000000000
  0
ARC
  5
E2A
330
A02
100
AcDbEntity
  8
Shape2DView013
100
AcDbCircle
 10
140.073020000
 20
119.038020000
 30
0.000000000
 40
0.300000000
100
AcDbArc
 50
180.000000000
 51
0.000000000
  0
ARC
  5
E2B
330
A02
100
AcDbEntity
  8
Shape2DView013
100
AcDbCircle
 10
140.073020000
 20
145.440740000
 30
0.000000000
 40
0.300000000
100
AcDbArc
 50
0.000000000
 51
180.000000000
  0
LINE
  5
E2C
330
A02
100
AcDbEntity
  8
Shape2DView013
100
AcDbLine
 10
139.773020000
 20
145.440740000
 30
0.000000000
 11
139.773020000
 21
133.040740000
 31
0.000000000
  0
ARC
  5
E2D
330
A02
100
AcDbEntity
  8
Shape2DView013
100
AcDbCircle
 10
140.073020000
 20
133.040740000
 30
0.000000000
 40
0.300000000
100
AcDbArc
 50
180.000000000
 51
0.000000000
  0
LINE
  5
E2E
330
A02
100
AcDbEntity
  8
Shape2DView013
100
AcDbLine
 10
140.373020000
 20
145.440740000
 30
0.000000000
 11
140.373020000
 21
133.040740000
 31
0.000000000
  0
ARC
  5
E2F
330
A02
100
AcDbEntity
  8
Shape2DView013
100
AcDbCircle
 10
140.073020000
 20
148.439380000
 30
0.000000000
 40
0.300000000
100
AcDbArc
 50
0.000000000
 51
90.000000000
  0
LINE
  5
E30
330
A02
100
AcDbEntity
  8
Shape2DView013
100
AcDbLine
 10
140.073020000
 20
148.739380000
 30
0.000000000
 11
130.674380000
 21
148.739380000
 31
0.000000000
  0
ARC
  5
E31
330
A02
100
AcDbEntity
  8
Shape2DView013
100
AcDbCircle
 10
130.674380000
 20
148.439380000
 30
0.000000000
 40
0.300000000
100
AcDbArc
 50
90.000000000
 51
-90.000000000
  0
LINE
  5
E32
330
A02
100
AcDbEntity
  8
Shape2DView013
100
AcDbLine
 10
130.674380000
 20
148.139380000
 30
0.000000000
 11
139.773020000
 21
148.139380000
 31
0.000000000
  0
LINE
  5
E33
330
A02
100
AcDbEntity
  8
Shape2DView013
100
AcDbLine
 10
139.773020000
 20
148.139380000
 30
0.000000000
 11
139.773020000
 21
147.040740000
 31
0.000000000
  0
ARC
  5
E34
330
A02
100
AcDbEntity
  8
Shape2DView013
100
AcDbCircle
 10
140.073020000
 20
147.040740000
 30
0.000000000
 40
0.300000000
100
AcDbArc
 50
180.000000000
 51
0.000000000
  0
LINE
  5
E35
330
A02
100
AcDbEntity
  8
Shape2DView013
100
AcDbLine
 10
140.373020000
 20
147.040740000
 30
0.000000000
 11
140.373020000
 21
148.439380000
 31
0.000000000
  0
ENDSEC
  0
SECTION
  2
OBJECTS
  0
DICTIONARY
  5
F000
330
0
100
AcDbDictionary
  3
ACAD_GROUP
350
F001
  0
DICTIONARY
  5
F001
330
F000
100
AcDbDictionary
  0
ENDSEC
  0
EOF