<?xml version="1.0" standalone="no"?>
 <!DOCTYPE svg PUBLIC "-//W3C//DTD SVG 1.1//EN" 
 "http://www.w3.org/Graphics/SVG/1.1/DTD/svg11.dtd"> 
<svg
  xmlns:svg="http://www.w3.org/2000/svg"
  xmlns="http://www.w3.org/2000/svg"
  xmlns:xlink="http://www.w3.org/1999/xlink"
  version="1.1"
  width="297.0022mm" height="210.0072mm" viewBox="0.0000 0.0000 297.0022 210.0072">
<title>SVG Image created as BagTag-Edge_Cuts.svg date 2023/06/07 16:34:19 </title>
  <desc>Image generated by PCBNEW </desc>
<g style="fill:#000000; fill-opacity:1.0000;stroke:#000000; stroke-opacity:1.0000;
stroke-linecap:round; stroke-linejoin:round;"
 transform="translate(0 0) scale(1 1)">
</g>
<g style="fill:#000000; fill-opacity:0.0; 
stroke:#000000; stroke-width:0.0000; stroke-opacity:1; 
stroke-linecap:round; stroke-linejoin:round;">
</g>
<g style="fill:#D0D2CD; fill-opacity:0.0; 
stroke:#D0D2CD; stroke-width:0.0000; stroke-opacity:1; 
stroke-linecap:round; stroke-linejoin:round;">
</g>
<g style="fill:#D0D2CD; fill-opacity:0.0; 
stroke:#D0D2CD; stroke-width:0.1000; stroke-opacity:1; 
stroke-linecap:round; stroke-linejoin:round;">
<path d="M84.4550 57.1500
L75.5650 57.1500
" />
<path d="M109.2200 61.7220 A0.7620 0.7620 0.0 0 0 108.4580 60.9600" />
<circle cx="104.6480" cy="54.6100" r="1.5240" /> 
<path d="M108.4580 58.4200
L104.3940 58.4200
" />
<path d="M50.8000 55.1180
L55.1180 50.8000
" />
<path d="M55.1180 50.8000
L104.9020 50.8000
" />
<path d="M109.2200 55.1180
L104.9020 50.8000
" />
<path d="M104.9020 109.2200
L109.2200 104.9020
" />
<path d="M75.5650 53.3400 A1.9050 1.9050 0.0 0 0 75.5650 57.1500" />
<circle cx="55.3720" cy="105.4100" r="1.5240" /> 
<path d="M104.9020 109.2200
L55.1180 109.2200
" />
<path d="M51.5620 60.9600 A0.7620 0.7620 0.0 0 0 50.8000 61.7220" />
<path d="M50.8000 104.9020
L55.1180 109.2200
" />
<path d="M50.8000 57.6580 A0.7620 0.7620 0.0 0 0 51.5620 58.4200" />
<path d="M109.2200 55.1180
L109.2200 57.6580
" />
<path d="M109.2200 61.7220
L109.2200 104.9020
" />
<path d="M55.6260 58.4200
L51.5620 58.4200
" />
<path d="M55.6260 60.9600 A1.2700 1.2700 0.0 0 0 55.6260 58.4200" />
<circle cx="104.6480" cy="105.4100" r="1.5240" /> 
<circle cx="55.3720" cy="54.6100" r="1.5240" /> 
<path d="M51.5620 60.9600
L55.6260 60.9600
" />
<path d="M84.4550 57.1500 A1.9050 1.9050 0.0 0 0 84.4550 53.3400" />
<path d="M104.3940 58.4200 A1.2700 1.2700 0.0 0 0 104.3940 60.9600" />
<path d="M75.5650 53.3400
L84.4550 53.3400
" />
<path d="M104.3940 60.9600
L108.4580 60.9600
" />
<path d="M50.8000 55.1180
L50.8000 57.6580
" />
<path d="M50.8000 104.9020
L50.8000 61.7220
" />
<path d="M108.4580 58.4200 A0.7620 0.7620 0.0 0 0 109.2200 57.6580" />
<g >
</g>
<g >
</g>
<g >
</g>
<g >
</g>
<g >
</g>
<g >
</g>
<g >
</g>
<g >
</g>
<g >
</g>
<g >
</g>
<g >
</g>
<g >
</g>
<g >
</g>
<g >
</g>
<g >
</g>
<g >
</g>
<g >
</g>
<g >
</g>
<g >
</g>
<g >
</g>
<g >
</g>
<g >
</g>
<g >
</g>
<g >
</g>
<g >
</g>
<g >
</g>
<g >
</g>
<g >
</g>
<g >
</g>
<g >
</g>
<g >
</g>
<g >
</g>
<g >
</g>
<g >
</g>
<g >
</g>
<g >
</g>
<g >
</g>
<g >
</g>
<g >
</g>
<g >
</g>
<g >
</g>
<g >
</g>
<g >
</g>
<g >
</g>
<g >
</g>
<g >
</g>
<g >
</g>
<g >
</g>
<g >
</g>
<g >
</g>
<g >
</g>
<g >
</g>
<g >
</g>
<g >
</g>
<g >
</g>
<g >
</g>
<g >
</g>
<g >
</g>
<g >
</g>
<g >
</g>
<g >
</g>
<g >
</g>
<g >
</g>
<g >
</g>
<g >
</g>
<g >
</g>
<g >
</g>
<g >
</g>
<g >
</g>
<g >
</g>
<g >
</g>
<g >
</g>
<g >
</g>
<g >
</g>
<g >
</g>
<g >
</g>
<g >
</g>
<g >
</g>
<g >
</g>
<g >
</g>
<g >
</g>
<g >
</g>
<g >
</g>
<g >
</g>
<g >
</g>
<g >
</g>
<g >
</g>
<g >
</g>
<g >
</g>
<g >
</g>
<g >
</g>
<g >
</g>
<g >
</g>
<g >
</g>
<g >
</g>
<g >
</g>
<g >
</g>
<g >
</g>
<g >
</g>
<g >
</g>
<g >
</g>
<g >
</g>
<g >
</g>
<g >
</g>
<g >
</g>
<g >
</g>
<g >
</g>
<g >
</g>
<g >
</g>
<g >
</g>
<g >
</g>
<g >
</g>
<g >
</g>
<g >
</g>
<g >
</g>
<g >
</g>
<g >
</g>
<g >
</g>
<g >
</g>
<g >
</g>
<g >
</g>
<g >
</g>
<g >
</g>
<g >
</g>
<g >
</g>
<g >
</g>
<g >
</g>
<g >
</g>
<g >
</g>
<g >
</g>
<g >
</g>
<g >
</g>
<g >
</g>
<g >
</g>
<g >
</g>
<g >
</g>
<g >
</g>
<g >
</g>
<g >
</g>
<g >
</g>
<g >
</g>
<g >
</g>
<g >
</g>
<g >
</g>
<g >
</g>
<g >
</g>
<g >
</g>
<g >
</g>
<g >
</g>
<g >
</g>
<g >
</g>
<g >
</g>
<g >
</g>
<g >
</g>
<g >
</g>
<g >
</g>
<g >
</g>
<g >
</g>
<g >
</g>
<g >
</g>
<g >
</g>
<g >
</g>
<g >
</g>
<g >
</g>
<g >
</g>
<g >
</g>
<g >
</g>
<g >
</g>
<g >
</g>
<g >
</g>
<g >
</g>
<g >
</g>
<g >
</g>
<g >
</g>
<g >
</g>
<g >
</g>
<g >
</g>
<g >
</g>
<g >
</g>
<g >
</g>
<g >
</g>
<g >
</g>
<g >
</g>
<g >
</g>
<g >
</g>
<g >
</g>
<g >
</g>
<g >
</g>
</g> 
</svg>
