<?xml version="1.0" standalone="no"?>
 <!DOCTYPE svg PUBLIC "-//W3C//DTD SVG 1.1//EN" 
 "http://www.w3.org/Graphics/SVG/1.1/DTD/svg11.dtd"> 
<svg
  xmlns:svg="http://www.w3.org/2000/svg"
  xmlns="http://www.w3.org/2000/svg"
  xmlns:xlink="http://www.w3.org/1999/xlink"
  version="1.1"
  width="297.0022mm" height="210.0072mm" viewBox="0.0000 0.0000 297.0022 210.0072">
<title>SVG Image created as BagTag-User_Drawings.svg date 2023/06/07 16:34:19 </title>
  <desc>Image generated by PCBNEW </desc>
<g style="fill:#000000; fill-opacity:1.0000;stroke:#000000; stroke-opacity:1.0000;
stroke-linecap:round; stroke-linejoin:round;"
 transform="translate(0 0) scale(1 1)">
</g>
<g style="fill:#000000; fill-opacity:0.0; 
stroke:#000000; stroke-width:0.0000; stroke-opacity:1; 
stroke-linecap:round; stroke-linejoin:round;">
</g>
<g style="fill:#C2C2C2; fill-opacity:0.0; 
stroke:#C2C2C2; stroke-width:0.0000; stroke-opacity:1; 
stroke-linecap:round; stroke-linejoin:round;">
</g>
<g style="fill:#C2C2C2; fill-opacity:0.0; 
stroke:#C2C2C2; stroke-width:0.1500; stroke-opacity:1; 
stroke-linecap:round; stroke-linejoin:round;">
<g transform="rotate(-90.000000 116.1980 80.0100)">
<text x="116.1980" y="80.5100"
textLength="7.5560" font-size="1.3333" lengthAdjust="spacingAndGlyphs"
text-anchor="middle" opacity="0">2.0000 in</text>
</g>
<g class="stroked-text"><desc>2.0000 in</desc>
<path d="M115.7481 83.5100
L115.7004 83.4624
" />
<path d="M115.7004 83.4624
L115.6528 83.3671
" />
<path d="M115.6528 83.3671
L115.6528 83.1290
" />
<path d="M115.6528 83.1290
L115.7004 83.0338
" />
<path d="M115.7004 83.0338
L115.7481 82.9862
" />
<path d="M115.7481 82.9862
L115.8433 82.9386
" />
<path d="M115.8433 82.9386
L115.9385 82.9386
" />
<path d="M115.9385 82.9386
L116.0814 82.9862
" />
<path d="M116.0814 82.9862
L116.6528 83.5576
" />
<path d="M116.6528 83.5576
L116.6528 82.9386
" />
<path d="M116.5576 82.5100
L116.6052 82.4624
" />
<path d="M116.6052 82.4624
L116.6528 82.5100
" />
<path d="M116.6528 82.5100
L116.6052 82.5576
" />
<path d="M116.6052 82.5576
L116.5576 82.5100
" />
<path d="M116.5576 82.5100
L116.6528 82.5100
" />
<path d="M115.6528 81.8433
L115.6528 81.7481
" />
<path d="M115.6528 81.7481
L115.7004 81.6529
" />
<path d="M115.7004 81.6529
L115.7481 81.6052
" />
<path d="M115.7481 81.6052
L115.8433 81.5576
" />
<path d="M115.8433 81.5576
L116.0338 81.5100
" />
<path d="M116.0338 81.5100
L116.2719 81.5100
" />
<path d="M116.2719 81.5100
L116.4623 81.5576
" />
<path d="M116.4623 81.5576
L116.5576 81.6052
" />
<path d="M116.5576 81.6052
L116.6052 81.6529
" />
<path d="M116.6052 81.6529
L116.6528 81.7481
" />
<path d="M116.6528 81.7481
L116.6528 81.8433
" />
<path d="M116.6528 81.8433
L116.6052 81.9386
" />
<path d="M116.6052 81.9386
L116.5576 81.9862
" />
<path d="M116.5576 81.9862
L116.4623 82.0338
" />
<path d="M116.4623 82.0338
L116.2719 82.0814
" />
<path d="M116.2719 82.0814
L116.0338 82.0814
" />
<path d="M116.0338 82.0814
L115.8433 82.0338
" />
<path d="M115.8433 82.0338
L115.7481 81.9862
" />
<path d="M115.7481 81.9862
L115.7004 81.9386
" />
<path d="M115.7004 81.9386
L115.6528 81.8433
" />
<path d="M115.6528 80.8910
L115.6528 80.7957
" />
<path d="M115.6528 80.7957
L115.7004 80.7005
" />
<path d="M115.7004 80.7005
L115.7481 80.6529
" />
<path d="M115.7481 80.6529
L115.8433 80.6052
" />
<path d="M115.8433 80.6052
L116.0338 80.5576
" />
<path d="M116.0338 80.5576
L116.2719 80.5576
" />
<path d="M116.2719 80.5576
L116.4623 80.6052
" />
<path d="M116.4623 80.6052
L116.5576 80.6529
" />
<path d="M116.5576 80.6529
L116.6052 80.7005
" />
<path d="M116.6052 80.7005
L116.6528 80.7957
" />
<path d="M116.6528 80.7957
L116.6528 80.8910
" />
<path d="M116.6528 80.8910
L116.6052 80.9862
" />
<path d="M116.6052 80.9862
L116.5576 81.0338
" />
<path d="M116.5576 81.0338
L116.4623 81.0814
" />
<path d="M116.4623 81.0814
L116.2719 81.1290
" />
<path d="M116.2719 81.1290
L116.0338 81.1290
" />
<path d="M116.0338 81.1290
L115.8433 81.0814
" />
<path d="M115.8433 81.0814
L115.7481 81.0338
" />
<path d="M115.7481 81.0338
L115.7004 80.9862
" />
<path d="M115.7004 80.9862
L115.6528 80.8910
" />
<path d="M115.6528 79.9386
L115.6528 79.8433
" />
<path d="M115.6528 79.8433
L115.7004 79.7481
" />
<path d="M115.7004 79.7481
L115.7481 79.7005
" />
<path d="M115.7481 79.7005
L115.8433 79.6529
" />
<path d="M115.8433 79.6529
L116.0338 79.6052
" />
<path d="M116.0338 79.6052
L116.2719 79.6052
" />
<path d="M116.2719 79.6052
L116.4623 79.6529
" />
<path d="M116.4623 79.6529
L116.5576 79.7005
" />
<path d="M116.5576 79.7005
L116.6052 79.7481
" />
<path d="M116.6052 79.7481
L116.6528 79.8433
" />
<path d="M116.6528 79.8433
L116.6528 79.9386
" />
<path d="M116.6528 79.9386
L116.6052 80.0338
" />
<path d="M116.6052 80.0338
L116.5576 80.0814
" />
<path d="M116.5576 80.0814
L116.4623 80.1290
" />
<path d="M116.4623 80.1290
L116.2719 80.1767
" />
<path d="M116.2719 80.1767
L116.0338 80.1767
" />
<path d="M116.0338 80.1767
L115.8433 80.1290
" />
<path d="M115.8433 80.1290
L115.7481 80.0814
" />
<path d="M115.7481 80.0814
L115.7004 80.0338
" />
<path d="M115.7004 80.0338
L115.6528 79.9386
" />
<path d="M115.6528 78.9862
L115.6528 78.8910
" />
<path d="M115.6528 78.8910
L115.7004 78.7957
" />
<path d="M115.7004 78.7957
L115.7481 78.7481
" />
<path d="M115.7481 78.7481
L115.8433 78.7005
" />
<path d="M115.8433 78.7005
L116.0338 78.6529
" />
<path d="M116.0338 78.6529
L116.2719 78.6529
" />
<path d="M116.2719 78.6529
L116.4623 78.7005
" />
<path d="M116.4623 78.7005
L116.5576 78.7481
" />
<path d="M116.5576 78.7481
L116.6052 78.7957
" />
<path d="M116.6052 78.7957
L116.6528 78.8910
" />
<path d="M116.6528 78.8910
L116.6528 78.9862
" />
<path d="M116.6528 78.9862
L116.6052 79.0814
" />
<path d="M116.6052 79.0814
L116.5576 79.1290
" />
<path d="M116.5576 79.1290
L116.4623 79.1767
" />
<path d="M116.4623 79.1767
L116.2719 79.2243
" />
<path d="M116.2719 79.2243
L116.0338 79.2243
" />
<path d="M116.0338 79.2243
L115.8433 79.1767
" />
<path d="M115.8433 79.1767
L115.7481 79.1290
" />
<path d="M115.7481 79.1290
L115.7004 79.0814
" />
<path d="M115.7004 79.0814
L115.6528 78.9862
" />
<path d="M116.6528 77.4624
L115.9862 77.4624
" />
<path d="M115.6528 77.4624
L115.7004 77.5100
" />
<path d="M115.7004 77.5100
L115.7481 77.4624
" />
<path d="M115.7481 77.4624
L115.7004 77.4148
" />
<path d="M115.7004 77.4148
L115.6528 77.4624
" />
<path d="M115.6528 77.4624
L115.7481 77.4624
" />
<path d="M115.9862 76.9862
L116.6528 76.9862
" />
<path d="M116.0814 76.9862
L116.0338 76.9386
" />
<path d="M116.0338 76.9386
L115.9862 76.8433
" />
<path d="M115.9862 76.8433
L115.9862 76.7005
" />
<path d="M115.9862 76.7005
L116.0338 76.6052
" />
<path d="M116.0338 76.6052
L116.1290 76.5576
" />
<path d="M116.1290 76.5576
L116.6528 76.5576
" />
</g></g>
<g style="fill:#C2C2C2; fill-opacity:0.0; 
stroke:#C2C2C2; stroke-width:0.1000; stroke-opacity:1; 
stroke-linecap:round; stroke-linejoin:round;">
<path d="M105.1480 54.6100
L117.9344 54.6100
" />
<path d="M117.9344 105.4100
L105.1480 105.4100
" />
<path d="M117.3480 54.6100
L117.3480 105.4100
" />
<path d="M117.3480 54.6100
L117.3480 105.4100
" />
<path d="M117.3480 54.6100
L117.9344 55.7365
" />
<path d="M117.3480 54.6100
L116.7616 55.7365
" />
<path d="M117.3480 105.4100
L116.7616 104.2835
" />
<path d="M117.3480 105.4100
L117.9344 104.2835
" />
</g>
<g style="fill:#C2C2C2; fill-opacity:0.0; 
stroke:#C2C2C2; stroke-width:0.1500; stroke-opacity:1; 
stroke-linecap:round; stroke-linejoin:round;">
<g transform="rotate(-90.000000 123.3100 80.0100)">
<text x="123.3100" y="80.5100"
textLength="7.5560" font-size="1.3333" lengthAdjust="spacingAndGlyphs"
text-anchor="middle" opacity="0">2.3000 in</text>
</g>
<g class="stroked-text"><desc>2.3000 in</desc>
<path d="M122.8601 83.5100
L122.8124 83.4624
" />
<path d="M122.8124 83.4624
L122.7648 83.3671
" />
<path d="M122.7648 83.3671
L122.7648 83.1290
" />
<path d="M122.7648 83.1290
L122.8124 83.0338
" />
<path d="M122.8124 83.0338
L122.8601 82.9862
" />
<path d="M122.8601 82.9862
L122.9553 82.9386
" />
<path d="M122.9553 82.9386
L123.0505 82.9386
" />
<path d="M123.0505 82.9386
L123.1934 82.9862
" />
<path d="M123.1934 82.9862
L123.7648 83.5576
" />
<path d="M123.7648 83.5576
L123.7648 82.9386
" />
<path d="M123.6696 82.5100
L123.7172 82.4624
" />
<path d="M123.7172 82.4624
L123.7648 82.5100
" />
<path d="M123.7648 82.5100
L123.7172 82.5576
" />
<path d="M123.7172 82.5576
L123.6696 82.5100
" />
<path d="M123.6696 82.5100
L123.7648 82.5100
" />
<path d="M122.7648 82.1290
L122.7648 81.5100
" />
<path d="M122.7648 81.5100
L123.1458 81.8433
" />
<path d="M123.1458 81.8433
L123.1458 81.7005
" />
<path d="M123.1458 81.7005
L123.1934 81.6052
" />
<path d="M123.1934 81.6052
L123.2410 81.5576
" />
<path d="M123.2410 81.5576
L123.3362 81.5100
" />
<path d="M123.3362 81.5100
L123.5743 81.5100
" />
<path d="M123.5743 81.5100
L123.6696 81.5576
" />
<path d="M123.6696 81.5576
L123.7172 81.6052
" />
<path d="M123.7172 81.6052
L123.7648 81.7005
" />
<path d="M123.7648 81.7005
L123.7648 81.9862
" />
<path d="M123.7648 81.9862
L123.7172 82.0814
" />
<path d="M123.7172 82.0814
L123.6696 82.1290
" />
<path d="M122.7648 80.8910
L122.7648 80.7957
" />
<path d="M122.7648 80.7957
L122.8124 80.7005
" />
<path d="M122.8124 80.7005
L122.8601 80.6529
" />
<path d="M122.8601 80.6529
L122.9553 80.6052
" />
<path d="M122.9553 80.6052
L123.1458 80.5576
" />
<path d="M123.1458 80.5576
L123.3839 80.5576
" />
<path d="M123.3839 80.5576
L123.5743 80.6052
" />
<path d="M123.5743 80.6052
L123.6696 80.6529
" />
<path d="M123.6696 80.6529
L123.7172 80.7005
" />
<path d="M123.7172 80.7005
L123.7648 80.7957
" />
<path d="M123.7648 80.7957
L123.7648 80.8910
" />
<path d="M123.7648 80.8910
L123.7172 80.9862
" />
<path d="M123.7172 80.9862
L123.6696 81.0338
" />
<path d="M123.6696 81.0338
L123.5743 81.0814
" />
<path d="M123.5743 81.0814
L123.3839 81.1290
" />
<path d="M123.3839 81.1290
L123.1458 81.1290
" />
<path d="M123.1458 81.1290
L122.9553 81.0814
" />
<path d="M122.9553 81.0814
L122.8601 81.0338
" />
<path d="M122.8601 81.0338
L122.8124 80.9862
" />
<path d="M122.8124 80.9862
L122.7648 80.8910
" />
<path d="M122.7648 79.9386
L122.7648 79.8433
" />
<path d="M122.7648 79.8433
L122.8124 79.7481
" />
<path d="M122.8124 79.7481
L122.8601 79.7005
" />
<path d="M122.8601 79.7005
L122.9553 79.6529
" />
<path d="M122.9553 79.6529
L123.1458 79.6052
" />
<path d="M123.1458 79.6052
L123.3839 79.6052
" />
<path d="M123.3839 79.6052
L123.5743 79.6529
" />
<path d="M123.5743 79.6529
L123.6696 79.7005
" />
<path d="M123.6696 79.7005
L123.7172 79.7481
" />
<path d="M123.7172 79.7481
L123.7648 79.8433
" />
<path d="M123.7648 79.8433
L123.7648 79.9386
" />
<path d="M123.7648 79.9386
L123.7172 80.0338
" />
<path d="M123.7172 80.0338
L123.6696 80.0814
" />
<path d="M123.6696 80.0814
L123.5743 80.1290
" />
<path d="M123.5743 80.1290
L123.3839 80.1767
" />
<path d="M123.3839 80.1767
L123.1458 80.1767
" />
<path d="M123.1458 80.1767
L122.9553 80.1290
" />
<path d="M122.9553 80.1290
L122.8601 80.0814
" />
<path d="M122.8601 80.0814
L122.8124 80.0338
" />
<path d="M122.8124 80.0338
L122.7648 79.9386
" />
<path d="M122.7648 78.9862
L122.7648 78.8910
" />
<path d="M122.7648 78.8910
L122.8124 78.7957
" />
<path d="M122.8124 78.7957
L122.8601 78.7481
" />
<path d="M122.8601 78.7481
L122.9553 78.7005
" />
<path d="M122.9553 78.7005
L123.1458 78.6529
" />
<path d="M123.1458 78.6529
L123.3839 78.6529
" />
<path d="M123.3839 78.6529
L123.5743 78.7005
" />
<path d="M123.5743 78.7005
L123.6696 78.7481
" />
<path d="M123.6696 78.7481
L123.7172 78.7957
" />
<path d="M123.7172 78.7957
L123.7648 78.8910
" />
<path d="M123.7648 78.8910
L123.7648 78.9862
" />
<path d="M123.7648 78.9862
L123.7172 79.0814
" />
<path d="M123.7172 79.0814
L123.6696 79.1290
" />
<path d="M123.6696 79.1290
L123.5743 79.1767
" />
<path d="M123.5743 79.1767
L123.3839 79.2243
" />
<path d="M123.3839 79.2243
L123.1458 79.2243
" />
<path d="M123.1458 79.2243
L122.9553 79.1767
" />
<path d="M122.9553 79.1767
L122.8601 79.1290
" />
<path d="M122.8601 79.1290
L122.8124 79.0814
" />
<path d="M122.8124 79.0814
L122.7648 78.9862
" />
<path d="M123.7648 77.4624
L123.0982 77.4624
" />
<path d="M122.7648 77.4624
L122.8124 77.5100
" />
<path d="M122.8124 77.5100
L122.8601 77.4624
" />
<path d="M122.8601 77.4624
L122.8124 77.4148
" />
<path d="M122.8124 77.4148
L122.7648 77.4624
" />
<path d="M122.7648 77.4624
L122.8601 77.4624
" />
<path d="M123.0982 76.9862
L123.7648 76.9862
" />
<path d="M123.1934 76.9862
L123.1458 76.9386
" />
<path d="M123.1458 76.9386
L123.0982 76.8433
" />
<path d="M123.0982 76.8433
L123.0982 76.7005
" />
<path d="M123.0982 76.7005
L123.1458 76.6052
" />
<path d="M123.1458 76.6052
L123.2410 76.5576
" />
<path d="M123.2410 76.5576
L123.7648 76.5576
" />
</g></g>
<g style="fill:#C2C2C2; fill-opacity:0.0; 
stroke:#C2C2C2; stroke-width:0.1000; stroke-opacity:1; 
stroke-linecap:round; stroke-linejoin:round;">
<path d="M109.7200 50.8000
L125.0464 50.8000
" />
<path d="M125.0464 109.2200
L109.7200 109.2200
" />
<path d="M124.4600 50.8000
L124.4600 109.2200
" />
<path d="M124.4600 50.8000
L124.4600 109.2200
" />
<path d="M124.4600 50.8000
L125.0464 51.9265
" />
<path d="M124.4600 50.8000
L123.8736 51.9265
" />
<path d="M124.4600 109.2200
L123.8736 108.0935
" />
<path d="M124.4600 109.2200
L125.0464 108.0935
" />
</g>
<g style="fill:#C2C2C2; fill-opacity:0.0; 
stroke:#C2C2C2; stroke-width:0.1500; stroke-opacity:1; 
stroke-linecap:round; stroke-linejoin:round;">
<text x="80.0100" y="123.8100"
textLength="7.5560" font-size="1.3333" lengthAdjust="spacingAndGlyphs"
text-anchor="middle" opacity="0">2.3000 in</text>
<g class="stroked-text"><desc>2.3000 in</desc>
<path d="M76.5100 122.8601
L76.5576 122.8124
" />
<path d="M76.5576 122.8124
L76.6529 122.7648
" />
<path d="M76.6529 122.7648
L76.8910 122.7648
" />
<path d="M76.8910 122.7648
L76.9862 122.8124
" />
<path d="M76.9862 122.8124
L77.0338 122.8601
" />
<path d="M77.0338 122.8601
L77.0814 122.9553
" />
<path d="M77.0814 122.9553
L77.0814 123.0505
" />
<path d="M77.0814 123.0505
L77.0338 123.1934
" />
<path d="M77.0338 123.1934
L76.4624 123.7648
" />
<path d="M76.4624 123.7648
L77.0814 123.7648
" />
<path d="M77.5100 123.6696
L77.5576 123.7172
" />
<path d="M77.5576 123.7172
L77.5100 123.7648
" />
<path d="M77.5100 123.7648
L77.4624 123.7172
" />
<path d="M77.4624 123.7172
L77.5100 123.6696
" />
<path d="M77.5100 123.6696
L77.5100 123.7648
" />
<path d="M77.8910 122.7648
L78.5100 122.7648
" />
<path d="M78.5100 122.7648
L78.1767 123.1458
" />
<path d="M78.1767 123.1458
L78.3195 123.1458
" />
<path d="M78.3195 123.1458
L78.4148 123.1934
" />
<path d="M78.4148 123.1934
L78.4624 123.2410
" />
<path d="M78.4624 123.2410
L78.5100 123.3362
" />
<path d="M78.5100 123.3362
L78.5100 123.5743
" />
<path d="M78.5100 123.5743
L78.4624 123.6696
" />
<path d="M78.4624 123.6696
L78.4148 123.7172
" />
<path d="M78.4148 123.7172
L78.3195 123.7648
" />
<path d="M78.3195 123.7648
L78.0338 123.7648
" />
<path d="M78.0338 123.7648
L77.9386 123.7172
" />
<path d="M77.9386 123.7172
L77.8910 123.6696
" />
<path d="M79.1290 122.7648
L79.2243 122.7648
" />
<path d="M79.2243 122.7648
L79.3195 122.8124
" />
<path d="M79.3195 122.8124
L79.3671 122.8601
" />
<path d="M79.3671 122.8601
L79.4148 122.9553
" />
<path d="M79.4148 122.9553
L79.4624 123.1458
" />
<path d="M79.4624 123.1458
L79.4624 123.3839
" />
<path d="M79.4624 123.3839
L79.4148 123.5743
" />
<path d="M79.4148 123.5743
L79.3671 123.6696
" />
<path d="M79.3671 123.6696
L79.3195 123.7172
" />
<path d="M79.3195 123.7172
L79.2243 123.7648
" />
<path d="M79.2243 123.7648
L79.1290 123.7648
" />
<path d="M79.1290 123.7648
L79.0338 123.7172
" />
<path d="M79.0338 123.7172
L78.9862 123.6696
" />
<path d="M78.9862 123.6696
L78.9386 123.5743
" />
<path d="M78.9386 123.5743
L78.8910 123.3839
" />
<path d="M78.8910 123.3839
L78.8910 123.1458
" />
<path d="M78.8910 123.1458
L78.9386 122.9553
" />
<path d="M78.9386 122.9553
L78.9862 122.8601
" />
<path d="M78.9862 122.8601
L79.0338 122.8124
" />
<path d="M79.0338 122.8124
L79.1290 122.7648
" />
<path d="M80.0814 122.7648
L80.1767 122.7648
" />
<path d="M80.1767 122.7648
L80.2719 122.8124
" />
<path d="M80.2719 122.8124
L80.3195 122.8601
" />
<path d="M80.3195 122.8601
L80.3671 122.9553
" />
<path d="M80.3671 122.9553
L80.4148 123.1458
" />
<path d="M80.4148 123.1458
L80.4148 123.3839
" />
<path d="M80.4148 123.3839
L80.3671 123.5743
" />
<path d="M80.3671 123.5743
L80.3195 123.6696
" />
<path d="M80.3195 123.6696
L80.2719 123.7172
" />
<path d="M80.2719 123.7172
L80.1767 123.7648
" />
<path d="M80.1767 123.7648
L80.0814 123.7648
" />
<path d="M80.0814 123.7648
L79.9862 123.7172
" />
<path d="M79.9862 123.7172
L79.9386 123.6696
" />
<path d="M79.9386 123.6696
L79.8910 123.5743
" />
<path d="M79.8910 123.5743
L79.8433 123.3839
" />
<path d="M79.8433 123.3839
L79.8433 123.1458
" />
<path d="M79.8433 123.1458
L79.8910 122.9553
" />
<path d="M79.8910 122.9553
L79.9386 122.8601
" />
<path d="M79.9386 122.8601
L79.9862 122.8124
" />
<path d="M79.9862 122.8124
L80.0814 122.7648
" />
<path d="M81.0338 122.7648
L81.1290 122.7648
" />
<path d="M81.1290 122.7648
L81.2243 122.8124
" />
<path d="M81.2243 122.8124
L81.2719 122.8601
" />
<path d="M81.2719 122.8601
L81.3195 122.9553
" />
<path d="M81.3195 122.9553
L81.3671 123.1458
" />
<path d="M81.3671 123.1458
L81.3671 123.3839
" />
<path d="M81.3671 123.3839
L81.3195 123.5743
" />
<path d="M81.3195 123.5743
L81.2719 123.6696
" />
<path d="M81.2719 123.6696
L81.2243 123.7172
" />
<path d="M81.2243 123.7172
L81.1290 123.7648
" />
<path d="M81.1290 123.7648
L81.0338 123.7648
" />
<path d="M81.0338 123.7648
L80.9386 123.7172
" />
<path d="M80.9386 123.7172
L80.8910 123.6696
" />
<path d="M80.8910 123.6696
L80.8433 123.5743
" />
<path d="M80.8433 123.5743
L80.7957 123.3839
" />
<path d="M80.7957 123.3839
L80.7957 123.1458
" />
<path d="M80.7957 123.1458
L80.8433 122.9553
" />
<path d="M80.8433 122.9553
L80.8910 122.8601
" />
<path d="M80.8910 122.8601
L80.9386 122.8124
" />
<path d="M80.9386 122.8124
L81.0338 122.7648
" />
<path d="M82.5576 123.7648
L82.5576 123.0982
" />
<path d="M82.5576 122.7648
L82.5100 122.8124
" />
<path d="M82.5100 122.8124
L82.5576 122.8601
" />
<path d="M82.5576 122.8601
L82.6052 122.8124
" />
<path d="M82.6052 122.8124
L82.5576 122.7648
" />
<path d="M82.5576 122.7648
L82.5576 122.8601
" />
<path d="M83.0338 123.0982
L83.0338 123.7648
" />
<path d="M83.0338 123.1934
L83.0814 123.1458
" />
<path d="M83.0814 123.1458
L83.1767 123.0982
" />
<path d="M83.1767 123.0982
L83.3195 123.0982
" />
<path d="M83.3195 123.0982
L83.4148 123.1458
" />
<path d="M83.4148 123.1458
L83.4624 123.2410
" />
<path d="M83.4624 123.2410
L83.4624 123.7648
" />
</g></g>
<g style="fill:#C2C2C2; fill-opacity:0.0; 
stroke:#C2C2C2; stroke-width:0.1000; stroke-opacity:1; 
stroke-linecap:round; stroke-linejoin:round;">
<path d="M50.8000 109.7200
L50.8000 125.0464
" />
<path d="M109.2200 125.0464
L109.2200 109.7200
" />
<path d="M50.8000 124.4600
L109.2200 124.4600
" />
<path d="M50.8000 124.4600
L109.2200 124.4600
" />
<path d="M50.8000 124.4600
L51.9265 123.8736
" />
<path d="M50.8000 124.4600
L51.9265 125.0464
" />
<path d="M109.2200 124.4600
L108.0935 125.0464
" />
<path d="M109.2200 124.4600
L108.0935 123.8736
" />
</g>
<g style="fill:#C2C2C2; fill-opacity:0.0; 
stroke:#C2C2C2; stroke-width:0.1500; stroke-opacity:1; 
stroke-linecap:round; stroke-linejoin:round;">
<text x="80.0100" y="117.4600"
textLength="7.5560" font-size="1.3333" lengthAdjust="spacingAndGlyphs"
text-anchor="middle" opacity="0">1.9400 in</text>
<g class="stroked-text"><desc>1.9400 in</desc>
<path d="M77.0814 117.4148
L76.5100 117.4148
" />
<path d="M76.7957 117.4148
L76.7957 116.4148
" />
<path d="M76.7957 116.4148
L76.7005 116.5577
" />
<path d="M76.7005 116.5577
L76.6052 116.6529
" />
<path d="M76.6052 116.6529
L76.5100 116.7005
" />
<path d="M77.5100 117.3196
L77.5576 117.3672
" />
<path d="M77.5576 117.3672
L77.5100 117.4148
" />
<path d="M77.5100 117.4148
L77.4624 117.3672
" />
<path d="M77.4624 117.3672
L77.5100 117.3196
" />
<path d="M77.5100 117.3196
L77.5100 117.4148
" />
<path d="M78.0338 117.4148
L78.2243 117.4148
" />
<path d="M78.2243 117.4148
L78.3195 117.3672
" />
<path d="M78.3195 117.3672
L78.3671 117.3196
" />
<path d="M78.3671 117.3196
L78.4624 117.1767
" />
<path d="M78.4624 117.1767
L78.5100 116.9862
" />
<path d="M78.5100 116.9862
L78.5100 116.6053
" />
<path d="M78.5100 116.6053
L78.4624 116.5101
" />
<path d="M78.4624 116.5101
L78.4148 116.4624
" />
<path d="M78.4148 116.4624
L78.3195 116.4148
" />
<path d="M78.3195 116.4148
L78.1290 116.4148
" />
<path d="M78.1290 116.4148
L78.0338 116.4624
" />
<path d="M78.0338 116.4624
L77.9862 116.5101
" />
<path d="M77.9862 116.5101
L77.9386 116.6053
" />
<path d="M77.9386 116.6053
L77.9386 116.8434
" />
<path d="M77.9386 116.8434
L77.9862 116.9386
" />
<path d="M77.9862 116.9386
L78.0338 116.9862
" />
<path d="M78.0338 116.9862
L78.1290 117.0339
" />
<path d="M78.1290 117.0339
L78.3195 117.0339
" />
<path d="M78.3195 117.0339
L78.4148 116.9862
" />
<path d="M78.4148 116.9862
L78.4624 116.9386
" />
<path d="M78.4624 116.9386
L78.5100 116.8434
" />
<path d="M79.3671 116.7482
L79.3671 117.4148
" />
<path d="M79.1290 116.3672
L78.8910 117.0815
" />
<path d="M78.8910 117.0815
L79.5100 117.0815
" />
<path d="M80.0814 116.4148
L80.1767 116.4148
" />
<path d="M80.1767 116.4148
L80.2719 116.4624
" />
<path d="M80.2719 116.4624
L80.3195 116.5101
" />
<path d="M80.3195 116.5101
L80.3671 116.6053
" />
<path d="M80.3671 116.6053
L80.4148 116.7958
" />
<path d="M80.4148 116.7958
L80.4148 117.0339
" />
<path d="M80.4148 117.0339
L80.3671 117.2243
" />
<path d="M80.3671 117.2243
L80.3195 117.3196
" />
<path d="M80.3195 117.3196
L80.2719 117.3672
" />
<path d="M80.2719 117.3672
L80.1767 117.4148
" />
<path d="M80.1767 117.4148
L80.0814 117.4148
" />
<path d="M80.0814 117.4148
L79.9862 117.3672
" />
<path d="M79.9862 117.3672
L79.9386 117.3196
" />
<path d="M79.9386 117.3196
L79.8910 117.2243
" />
<path d="M79.8910 117.2243
L79.8433 117.0339
" />
<path d="M79.8433 117.0339
L79.8433 116.7958
" />
<path d="M79.8433 116.7958
L79.8910 116.6053
" />
<path d="M79.8910 116.6053
L79.9386 116.5101
" />
<path d="M79.9386 116.5101
L79.9862 116.4624
" />
<path d="M79.9862 116.4624
L80.0814 116.4148
" />
<path d="M81.0338 116.4148
L81.1290 116.4148
" />
<path d="M81.1290 116.4148
L81.2243 116.4624
" />
<path d="M81.2243 116.4624
L81.2719 116.5101
" />
<path d="M81.2719 116.5101
L81.3195 116.6053
" />
<path d="M81.3195 116.6053
L81.3671 116.7958
" />
<path d="M81.3671 116.7958
L81.3671 117.0339
" />
<path d="M81.3671 117.0339
L81.3195 117.2243
" />
<path d="M81.3195 117.2243
L81.2719 117.3196
" />
<path d="M81.2719 117.3196
L81.2243 117.3672
" />
<path d="M81.2243 117.3672
L81.1290 117.4148
" />
<path d="M81.1290 117.4148
L81.0338 117.4148
" />
<path d="M81.0338 117.4148
L80.9386 117.3672
" />
<path d="M80.9386 117.3672
L80.8910 117.3196
" />
<path d="M80.8910 117.3196
L80.8433 117.2243
" />
<path d="M80.8433 117.2243
L80.7957 117.0339
" />
<path d="M80.7957 117.0339
L80.7957 116.7958
" />
<path d="M80.7957 116.7958
L80.8433 116.6053
" />
<path d="M80.8433 116.6053
L80.8910 116.5101
" />
<path d="M80.8910 116.5101
L80.9386 116.4624
" />
<path d="M80.9386 116.4624
L81.0338 116.4148
" />
<path d="M82.5576 117.4148
L82.5576 116.7482
" />
<path d="M82.5576 116.4148
L82.5100 116.4624
" />
<path d="M82.5100 116.4624
L82.5576 116.5101
" />
<path d="M82.5576 116.5101
L82.6052 116.4624
" />
<path d="M82.6052 116.4624
L82.5576 116.4148
" />
<path d="M82.5576 116.4148
L82.5576 116.5101
" />
<path d="M83.0338 116.7482
L83.0338 117.4148
" />
<path d="M83.0338 116.8434
L83.0814 116.7958
" />
<path d="M83.0814 116.7958
L83.1767 116.7482
" />
<path d="M83.1767 116.7482
L83.3195 116.7482
" />
<path d="M83.3195 116.7482
L83.4148 116.7958
" />
<path d="M83.4148 116.7958
L83.4624 116.8910
" />
<path d="M83.4624 116.8910
L83.4624 117.4148
" />
</g></g>
<g style="fill:#C2C2C2; fill-opacity:0.0; 
stroke:#C2C2C2; stroke-width:0.1000; stroke-opacity:1; 
stroke-linecap:round; stroke-linejoin:round;">
<path d="M55.3720 105.9100
L55.3720 118.6964
" />
<path d="M104.6480 118.6964
L104.6480 105.9100
" />
<path d="M55.3720 118.1100
L104.6480 118.1100
" />
<path d="M55.3720 118.1100
L104.6480 118.1100
" />
<path d="M55.3720 118.1100
L56.4985 117.5236
" />
<path d="M55.3720 118.1100
L56.4985 118.6964
" />
<path d="M104.6480 118.1100
L103.5215 118.6964
" />
<path d="M104.6480 118.1100
L103.5215 117.5236
" />
<g >
</g>
<g >
</g>
<g >
</g>
<g >
</g>
<g >
</g>
<g >
</g>
<g >
</g>
<g >
</g>
<g >
</g>
<g >
</g>
<g >
</g>
<g >
</g>
<g >
</g>
<g >
</g>
<g >
</g>
<g >
</g>
<g >
</g>
<g >
</g>
<g >
</g>
<g >
</g>
<g >
</g>
<g >
</g>
<g >
</g>
<g >
</g>
<g >
</g>
<g >
</g>
<g >
</g>
<g >
</g>
<g >
</g>
<g >
</g>
<g >
</g>
<g >
</g>
<g >
</g>
<g >
</g>
<g >
</g>
<g >
</g>
<g >
</g>
<g >
</g>
<g >
</g>
<g >
</g>
<g >
</g>
<g >
</g>
<g >
</g>
<g >
</g>
<g >
</g>
<g >
</g>
<g >
</g>
<g >
</g>
<g >
</g>
<g >
</g>
<g >
</g>
<g >
</g>
<g >
</g>
<g >
</g>
<g >
</g>
<g >
</g>
<g >
</g>
<g >
</g>
<g >
</g>
<g >
</g>
<g >
</g>
<g >
</g>
<g >
</g>
<g >
</g>
<g >
</g>
<g >
</g>
<g >
</g>
<g >
</g>
<g >
</g>
<g >
</g>
<g >
</g>
<g >
</g>
<g >
</g>
<g >
</g>
<g >
</g>
<g >
</g>
<g >
</g>
<g >
</g>
<g >
</g>
<g >
</g>
<g >
</g>
<g >
</g>
<g >
</g>
<g >
</g>
<g >
</g>
<g >
</g>
<g >
</g>
<g >
</g>
<g >
</g>
<g >
</g>
<g >
</g>
<g >
</g>
<g >
</g>
<g >
</g>
<g >
</g>
<g >
</g>
<g >
</g>
<g >
</g>
<g >
</g>
<g >
</g>
<g >
</g>
<g >
</g>
<g >
</g>
<g >
</g>
<g >
</g>
<g >
</g>
<g >
</g>
<g >
</g>
<g >
</g>
<g >
</g>
<g >
</g>
<g >
</g>
<g >
</g>
<g >
</g>
<g >
</g>
<g >
</g>
<g >
</g>
<g >
</g>
<g >
</g>
<g >
</g>
<g >
</g>
<g >
</g>
<g >
</g>
<g >
</g>
<g >
</g>
<g >
</g>
<g >
</g>
<g >
</g>
<g >
</g>
<g >
</g>
<g >
</g>
<g >
</g>
<g >
</g>
<g >
</g>
<g >
</g>
<g >
</g>
<g >
</g>
<g >
</g>
<g >
</g>
<g >
</g>
<g >
</g>
<g >
</g>
<g >
</g>
<g >
</g>
<g >
</g>
<g >
</g>
<g >
</g>
<g >
</g>
<g >
</g>
<g >
</g>
<g >
</g>
<g >
</g>
<g >
</g>
<g >
</g>
<g >
</g>
<g >
</g>
<g >
</g>
<g >
</g>
<g >
</g>
<g >
</g>
<g >
</g>
<g >
</g>
<g >
</g>
<g >
</g>
<g >
</g>
<g >
</g>
<g >
</g>
<g >
</g>
<g >
</g>
<g >
</g>
<g >
</g>
<g >
</g>
<g >
</g>
<g >
</g>
<g >
</g>
<g >
</g>
<g >
</g>
<g >
</g>
<g >
</g>
<g >
</g>
<g >
</g>
<g >
</g>
<g >
</g>
<g >
</g>
<g >
</g>
<g >
</g>
<g >
</g>
<g >
</g>
</g> 
</svg>
