ISO-10303-21;
HEADER;
FILE_DESCRIPTION(('FreeCAD Model'),'2;1');
FILE_NAME('Open CASCADE Shape Model','2025-10-25T23:40:15',(''),(''),
  'Open CASCADE STEP processor 7.8','FreeCAD','Unknown');
FILE_SCHEMA(('AUTOMOTIVE_DESIGN { 1 0 10303 214 1 1 1 1 }'));
ENDSEC;
DATA;
#1 = APPLICATION_PROTOCOL_DEFINITION('international standard',
  'automotive_design',2000,#2);
#2 = APPLICATION_CONTEXT(
  'core data for automotive mechanical design processes');
#3 = SHAPE_DEFINITION_REPRESENTATION(#4,#10);
#4 = PRODUCT_DEFINITION_SHAPE('','',#5);
#5 = PRODUCT_DEFINITION('design','',#6,#9);
#6 = PRODUCT_DEFINITION_FORMATION('','',#7);
#7 = PRODUCT('trimpot_knob','trimpot_knob','',(#8));
#8 = PRODUCT_CONTEXT('',#2,'mechanical');
#9 = PRODUCT_DEFINITION_CONTEXT('part definition',#2,'design');
#10 = ADVANCED_BREP_SHAPE_REPRESENTATION('',(#11,#15),#1387);
#11 = AXIS2_PLACEMENT_3D('',#12,#13,#14);
#12 = CARTESIAN_POINT('',(0.,0.,0.));
#13 = DIRECTION('',(0.,0.,1.));
#14 = DIRECTION('',(1.,0.,-0.));
#15 = MANIFOLD_SOLID_BREP('',#16);
#16 = CLOSED_SHELL('',(#17,#159,#182,#207,#305,#410,#444,#488,#510,#594,
    #611,#623,#654,#671,#702,#719,#737,#762,#861,#909,#927,#1009,#1021,
    #1053,#1065,#1082,#1100,#1112,#1129,#1146,#1177,#1208,#1225,#1243,
    #1254,#1287,#1313,#1330,#1357,#1375));
#17 = ADVANCED_FACE('',(#18),#154,.T.);
#18 = FACE_BOUND('',#19,.F.);
#19 = EDGE_LOOP('',(#20,#31,#63,#72,#81,#90,#122,#131,#139,#148));
#20 = ORIENTED_EDGE('',*,*,#21,.T.);
#21 = EDGE_CURVE('',#22,#24,#26,.T.);
#22 = VERTEX_POINT('',#23);
#23 = CARTESIAN_POINT('',(14.480000044703,-54.90761093672,5.15));
#24 = VERTEX_POINT('',#25);
#25 = CARTESIAN_POINT('',(18.050021242557,-52.63296459651,5.15));
#26 = CIRCLE('',#27,4.75);
#27 = AXIS2_PLACEMENT_3D('',#28,#29,#30);
#28 = CARTESIAN_POINT('',(13.980000044703,-50.1840000298,5.15));
#29 = DIRECTION('',(0.,0.,1.));
#30 = DIRECTION('',(1.,0.,0.));
#31 = ORIENTED_EDGE('',*,*,#32,.T.);
#32 = EDGE_CURVE('',#24,#33,#35,.T.);
#33 = VERTEX_POINT('',#34);
#34 = CARTESIAN_POINT('',(18.503165782885,-51.63433506176,6.097664043757
    ));
#35 = B_SPLINE_CURVE_WITH_KNOTS('',6,(#36,#37,#38,#39,#40,#41,#42,#43,
    #44,#45,#46,#47,#48,#49,#50,#51,#52,#53,#54,#55,#56,#57,#58,#59,#60,
    #61,#62),.UNSPECIFIED.,.F.,.F.,(7,5,5,5,5,7),(0.,0.226789353503,
    0.382206978671,0.455496198609,0.579152156405,1.),.UNSPECIFIED.);
#36 = CARTESIAN_POINT('',(18.050021242555,-52.63296459651,5.15));
#37 = CARTESIAN_POINT('',(18.084331303977,-52.57594348678,5.15));
#38 = CARTESIAN_POINT('',(18.11769048616,-52.51833322115,5.15390188474)
  );
#39 = CARTESIAN_POINT('',(18.14985498267,-52.46053451929,5.161855980112)
  );
#40 = CARTESIAN_POINT('',(18.180609597517,-52.40300654441,5.17394859683)
  );
#41 = CARTESIAN_POINT('',(18.209776903725,-52.34624837075,5.190167451436
    ));
#42 = CARTESIAN_POINT('',(18.25603740759,-52.25276855939,5.224209798113)
  );
#43 = CARTESIAN_POINT('',(18.274044537826,-52.21535652039,5.239924065795
    ));
#44 = CARTESIAN_POINT('',(18.29120682161,-52.17870815217,5.257465068544)
  );
#45 = CARTESIAN_POINT('',(18.307500806811,-52.14297481053,5.276765184625
    ));
#46 = CARTESIAN_POINT('',(18.322917138386,-52.10829349763,5.297737591227
    ));
#47 = CARTESIAN_POINT('',(18.344313663485,-52.0589835851,5.330909967443)
  );
#48 = CARTESIAN_POINT('',(18.350975469927,-52.04344260233,5.341889461816
    ));
#49 = CARTESIAN_POINT('',(18.357442892322,-52.02817435415,5.353207774243
    ));
#50 = CARTESIAN_POINT('',(18.363716782905,-52.01319014804,5.364853952247
    ));
#51 = CARTESIAN_POINT('',(18.369798509743,-51.99850026706,5.376816663071
    ));
#52 = CARTESIAN_POINT('',(18.385630197892,-51.95984094093,5.409782370681
    ));
#53 = CARTESIAN_POINT('',(18.395028708966,-51.93643210516,5.431348433872
    ));
#54 = CARTESIAN_POINT('',(18.403894306351,-51.91393195502,5.453726577542
    ));
#55 = CARTESIAN_POINT('',(18.41223921206,-51.89237637928,5.476859771639)
  );
#56 = CARTESIAN_POINT('',(18.420077687475,-51.87179390173,5.50069126053)
  );
#57 = CARTESIAN_POINT('',(18.452429208618,-51.78554503622,5.60846303752)
  );
#58 = CARTESIAN_POINT('',(18.471717612928,-51.73047464503,5.699136467955
    ));
#59 = CARTESIAN_POINT('',(18.485948241131,-51.68771980309,5.795135369327
    ));
#60 = CARTESIAN_POINT('',(18.49573993159,-51.65746969934,5.89456635124)
  );
#61 = CARTESIAN_POINT('',(18.501454815155,-51.63967106375,5.995847060447
    ));
#62 = CARTESIAN_POINT('',(18.503165782885,-51.63433506176,6.097664043757
    ));
#63 = ORIENTED_EDGE('',*,*,#64,.T.);
#64 = EDGE_CURVE('',#33,#65,#67,.T.);
#65 = VERTEX_POINT('',#66);
#66 = CARTESIAN_POINT('',(18.639358487826,-51.10751445768,16.15));
#67 = ELLIPSE('',#68,90.759782394163,4.75);
#68 = AXIS2_PLACEMENT_3D('',#69,#70,#71);
#69 = CARTESIAN_POINT('',(13.980000044703,-50.1840000298,33.771705031627
    ));
#70 = DIRECTION('',(0.,-0.998629534755,5.233595624294E-02));
#71 = DIRECTION('',(0.,-5.233595624294E-02,-0.998629534755));
#72 = ORIENTED_EDGE('',*,*,#73,.T.);
#73 = EDGE_CURVE('',#65,#74,#76,.T.);
#74 = VERTEX_POINT('',#75);
#75 = CARTESIAN_POINT('',(18.639358487827,-49.26048560192,16.15));
#76 = CIRCLE('',#77,4.75);
#77 = AXIS2_PLACEMENT_3D('',#78,#79,#80);
#78 = CARTESIAN_POINT('',(13.980000044703,-50.1840000298,16.15));
#79 = DIRECTION('',(-0.,0.,1.));
#80 = DIRECTION('',(0.983040074238,-0.183390873391,0.));
#81 = ORIENTED_EDGE('',*,*,#82,.F.);
#82 = EDGE_CURVE('',#83,#74,#85,.T.);
#83 = VERTEX_POINT('',#84);
#84 = CARTESIAN_POINT('',(18.503165782886,-48.73366499784,6.097664043757
    ));
#85 = ELLIPSE('',#86,90.759782394163,4.75);
#86 = AXIS2_PLACEMENT_3D('',#87,#88,#89);
#87 = CARTESIAN_POINT('',(13.980000044703,-50.1840000298,33.771705031542
    ));
#88 = DIRECTION('',(0.,-0.998629534755,-5.233595624294E-02));
#89 = DIRECTION('',(0.,5.233595624294E-02,-0.998629534755));
#90 = ORIENTED_EDGE('',*,*,#91,.F.);
#91 = EDGE_CURVE('',#92,#83,#94,.T.);
#92 = VERTEX_POINT('',#93);
#93 = CARTESIAN_POINT('',(18.050021242557,-47.73503546309,5.15));
#94 = B_SPLINE_CURVE_WITH_KNOTS('',6,(#95,#96,#97,#98,#99,#100,#101,#102
    ,#103,#104,#105,#106,#107,#108,#109,#110,#111,#112,#113,#114,#115,
    #116,#117,#118,#119,#120,#121),.UNSPECIFIED.,.F.,.F.,(7,5,5,5,5,7),(
    0.,0.226789353503,0.382206978671,0.455496198609,0.579152156405,1.),
  .UNSPECIFIED.);
#95 = CARTESIAN_POINT('',(18.050021242558,-47.73503546309,5.15));
#96 = CARTESIAN_POINT('',(18.08433130398,-47.79205657282,5.15));
#97 = CARTESIAN_POINT('',(18.117690486163,-47.84966683845,5.15390188474)
  );
#98 = CARTESIAN_POINT('',(18.149854982673,-47.90746554031,5.161855980112
    ));
#99 = CARTESIAN_POINT('',(18.180609597519,-47.96499351519,5.17394859683)
  );
#100 = CARTESIAN_POINT('',(18.209776903727,-48.02175168885,
    5.190167451436));
#101 = CARTESIAN_POINT('',(18.256037407593,-48.11523150021,
    5.224209798113));
#102 = CARTESIAN_POINT('',(18.274044537829,-48.15264353921,
    5.239924065795));
#103 = CARTESIAN_POINT('',(18.291206821612,-48.18929190743,
    5.257465068544));
#104 = CARTESIAN_POINT('',(18.307500806813,-48.22502524906,
    5.276765184625));
#105 = CARTESIAN_POINT('',(18.322917138388,-48.25970656197,
    5.297737591227));
#106 = CARTESIAN_POINT('',(18.344313663487,-48.3090164745,5.330909967443
    ));
#107 = CARTESIAN_POINT('',(18.350975469929,-48.32455745727,
    5.341889461816));
#108 = CARTESIAN_POINT('',(18.357442892324,-48.33982570545,
    5.353207774243));
#109 = CARTESIAN_POINT('',(18.363716782907,-48.35480991156,
    5.364853952247));
#110 = CARTESIAN_POINT('',(18.369798509745,-48.36949979254,
    5.376816663071));
#111 = CARTESIAN_POINT('',(18.385630197894,-48.40815911867,
    5.409782370681));
#112 = CARTESIAN_POINT('',(18.395028708968,-48.43156795444,
    5.431348433872));
#113 = CARTESIAN_POINT('',(18.403894306353,-48.45406810458,
    5.453726577542));
#114 = CARTESIAN_POINT('',(18.412239212062,-48.47562368032,
    5.476859771639));
#115 = CARTESIAN_POINT('',(18.420077687476,-48.49620615787,5.50069126053
    ));
#116 = CARTESIAN_POINT('',(18.45242920862,-48.58245502338,5.60846303752)
  );
#117 = CARTESIAN_POINT('',(18.47171761293,-48.63752541457,5.699136467955
    ));
#118 = CARTESIAN_POINT('',(18.485948241132,-48.68028025651,
    5.795135369327));
#119 = CARTESIAN_POINT('',(18.495739931591,-48.71053036026,5.89456635124
    ));
#120 = CARTESIAN_POINT('',(18.501454815157,-48.72832899585,
    5.995847060447));
#121 = CARTESIAN_POINT('',(18.503165782886,-48.73366499784,
    6.097664043757));
#122 = ORIENTED_EDGE('',*,*,#123,.T.);
#123 = EDGE_CURVE('',#92,#124,#126,.T.);
#124 = VERTEX_POINT('',#125);
#125 = CARTESIAN_POINT('',(16.618181236357,-46.2340000298,5.15));
#126 = CIRCLE('',#127,4.75);
#127 = AXIS2_PLACEMENT_3D('',#128,#129,#130);
#128 = CARTESIAN_POINT('',(13.980000044703,-50.1840000298,5.15));
#129 = DIRECTION('',(0.,0.,1.));
#130 = DIRECTION('',(1.,0.,0.));
#131 = ORIENTED_EDGE('',*,*,#132,.F.);
#132 = EDGE_CURVE('',#133,#124,#135,.T.);
#133 = VERTEX_POINT('',#134);
#134 = CARTESIAN_POINT('',(16.618181236357,-46.2340000298,1.8));
#135 = LINE('',#136,#137);
#136 = CARTESIAN_POINT('',(16.618181236357,-46.2340000298,4.15));
#137 = VECTOR('',#138,1.);
#138 = DIRECTION('',(0.,0.,1.));
#139 = ORIENTED_EDGE('',*,*,#140,.F.);
#140 = EDGE_CURVE('',#141,#133,#143,.T.);
#141 = VERTEX_POINT('',#142);
#142 = CARTESIAN_POINT('',(14.480000044703,-54.90761093672,1.8));
#143 = CIRCLE('',#144,4.75);
#144 = AXIS2_PLACEMENT_3D('',#145,#146,#147);
#145 = CARTESIAN_POINT('',(13.980000044703,-50.1840000298,1.8));
#146 = DIRECTION('',(-0.,0.,1.));
#147 = DIRECTION('',(0.105263157895,-0.994444401457,0.));
#148 = ORIENTED_EDGE('',*,*,#149,.F.);
#149 = EDGE_CURVE('',#22,#141,#150,.T.);
#150 = LINE('',#151,#152);
#151 = CARTESIAN_POINT('',(14.480000044703,-54.90761093672,1.4));
#152 = VECTOR('',#153,1.);
#153 = DIRECTION('',(-0.,-0.,-1.));
#154 = CYLINDRICAL_SURFACE('',#155,4.75);
#155 = AXIS2_PLACEMENT_3D('',#156,#157,#158);
#156 = CARTESIAN_POINT('',(13.980000044703,-50.1840000298,1.4));
#157 = DIRECTION('',(-0.,-0.,-1.));
#158 = DIRECTION('',(1.,0.,0.));
#159 = ADVANCED_FACE('',(#160),#177,.T.);
#160 = FACE_BOUND('',#161,.T.);
#161 = EDGE_LOOP('',(#162,#163,#171));
#162 = ORIENTED_EDGE('',*,*,#21,.T.);
#163 = ORIENTED_EDGE('',*,*,#164,.T.);
#164 = EDGE_CURVE('',#24,#165,#167,.T.);
#165 = VERTEX_POINT('',#166);
#166 = CARTESIAN_POINT('',(14.480000044703,-52.63296459651,5.15));
#167 = LINE('',#168,#169);
#168 = CARTESIAN_POINT('',(18.486939139032,-52.63296459651,5.15));
#169 = VECTOR('',#170,1.);
#170 = DIRECTION('',(-1.,0.,0.));
#171 = ORIENTED_EDGE('',*,*,#172,.T.);
#172 = EDGE_CURVE('',#165,#22,#173,.T.);
#173 = LINE('',#174,#175);
#174 = CARTESIAN_POINT('',(14.480000044703,-48.12815632067,5.15));
#175 = VECTOR('',#176,1.);
#176 = DIRECTION('',(2.3E-15,-1.,0.));
#177 = PLANE('',#178);
#178 = AXIS2_PLACEMENT_3D('',#179,#180,#181);
#179 = CARTESIAN_POINT('',(13.980000044703,-50.02231261155,5.15));
#180 = DIRECTION('',(0.,0.,1.));
#181 = DIRECTION('',(1.,0.,0.));
#182 = ADVANCED_FACE('',(#183),#202,.F.);
#183 = FACE_BOUND('',#184,.T.);
#184 = EDGE_LOOP('',(#185,#186,#194,#201));
#185 = ORIENTED_EDGE('',*,*,#32,.T.);
#186 = ORIENTED_EDGE('',*,*,#187,.T.);
#187 = EDGE_CURVE('',#33,#188,#190,.T.);
#188 = VERTEX_POINT('',#189);
#189 = CARTESIAN_POINT('',(14.480000044703,-51.63433506176,
    6.097664043757));
#190 = LINE('',#191,#192);
#191 = CARTESIAN_POINT('',(18.486939139032,-51.63433506176,
    6.097664043757));
#192 = VECTOR('',#193,1.);
#193 = DIRECTION('',(-1.,0.,0.));
#194 = ORIENTED_EDGE('',*,*,#195,.F.);
#195 = EDGE_CURVE('',#165,#188,#196,.T.);
#196 = CIRCLE('',#197,1.);
#197 = AXIS2_PLACEMENT_3D('',#198,#199,#200);
#198 = CARTESIAN_POINT('',(14.480000044703,-52.63296459651,6.15));
#199 = DIRECTION('',(1.,-0.,0.));
#200 = DIRECTION('',(0.,0.,-1.));
#201 = ORIENTED_EDGE('',*,*,#164,.F.);
#202 = CYLINDRICAL_SURFACE('',#203,1.);
#203 = AXIS2_PLACEMENT_3D('',#204,#205,#206);
#204 = CARTESIAN_POINT('',(18.486939139032,-52.63296459651,6.15));
#205 = DIRECTION('',(-1.,0.,0.));
#206 = DIRECTION('',(0.,0.,-1.));
#207 = ADVANCED_FACE('',(#208),#300,.T.);
#208 = FACE_BOUND('',#209,.T.);
#209 = EDGE_LOOP('',(#210,#220,#228,#236,#244,#252,#260,#266,#267,#268,
    #269,#277,#285,#293));
#210 = ORIENTED_EDGE('',*,*,#211,.F.);
#211 = EDGE_CURVE('',#212,#214,#216,.T.);
#212 = VERTEX_POINT('',#213);
#213 = CARTESIAN_POINT('',(14.480000044703,-46.2340000298,5.15));
#214 = VERTEX_POINT('',#215);
#215 = CARTESIAN_POINT('',(14.480000044703,-47.73503546309,5.15));
#216 = LINE('',#217,#218);
#217 = CARTESIAN_POINT('',(14.480000044703,-48.12815632067,5.15));
#218 = VECTOR('',#219,1.);
#219 = DIRECTION('',(2.3E-15,-1.,0.));
#220 = ORIENTED_EDGE('',*,*,#221,.F.);
#221 = EDGE_CURVE('',#222,#212,#224,.T.);
#222 = VERTEX_POINT('',#223);
#223 = CARTESIAN_POINT('',(14.480000044703,-46.2340000298,1.8));
#224 = LINE('',#225,#226);
#225 = CARTESIAN_POINT('',(14.480000044703,-46.2340000298,1.4));
#226 = VECTOR('',#227,1.);
#227 = DIRECTION('',(7.34E-28,-3.67E-13,1.));
#228 = ORIENTED_EDGE('',*,*,#229,.T.);
#229 = EDGE_CURVE('',#222,#230,#232,.T.);
#230 = VERTEX_POINT('',#231);
#231 = CARTESIAN_POINT('',(14.480000044703,-47.8340000298,1.8));
#232 = LINE('',#233,#234);
#233 = CARTESIAN_POINT('',(14.480000044703,-46.2340000298,1.8));
#234 = VECTOR('',#235,1.);
#235 = DIRECTION('',(2.3E-15,-1.,-3.6754E-13));
#236 = ORIENTED_EDGE('',*,*,#237,.T.);
#237 = EDGE_CURVE('',#230,#238,#240,.T.);
#238 = VERTEX_POINT('',#239);
#239 = CARTESIAN_POINT('',(14.480000044703,-47.8340000298,4.15));
#240 = LINE('',#241,#242);
#241 = CARTESIAN_POINT('',(14.480000044703,-47.8340000298,1.4));
#242 = VECTOR('',#243,1.);
#243 = DIRECTION('',(0.,0.,1.));
#244 = ORIENTED_EDGE('',*,*,#245,.T.);
#245 = EDGE_CURVE('',#238,#246,#248,.T.);
#246 = VERTEX_POINT('',#247);
#247 = CARTESIAN_POINT('',(14.480000044703,-53.29406433781,4.15));
#248 = LINE('',#249,#250);
#249 = CARTESIAN_POINT('',(14.480000044703,-48.12815632067,4.15));
#250 = VECTOR('',#251,1.);
#251 = DIRECTION('',(2.3E-15,-1.,0.));
#252 = ORIENTED_EDGE('',*,*,#253,.T.);
#253 = EDGE_CURVE('',#246,#254,#256,.T.);
#254 = VERTEX_POINT('',#255);
#255 = CARTESIAN_POINT('',(14.480000044703,-53.29406433781,1.8));
#256 = LINE('',#257,#258);
#257 = CARTESIAN_POINT('',(14.480000044703,-53.29406433781,1.4));
#258 = VECTOR('',#259,1.);
#259 = DIRECTION('',(-0.,-0.,-1.));
#260 = ORIENTED_EDGE('',*,*,#261,.T.);
#261 = EDGE_CURVE('',#254,#141,#262,.T.);
#262 = LINE('',#263,#264);
#263 = CARTESIAN_POINT('',(14.480000044703,-53.29406433781,1.8));
#264 = VECTOR('',#265,1.);
#265 = DIRECTION('',(2.3E-15,-1.,-3.6754E-13));
#266 = ORIENTED_EDGE('',*,*,#149,.F.);
#267 = ORIENTED_EDGE('',*,*,#172,.F.);
#268 = ORIENTED_EDGE('',*,*,#195,.T.);
#269 = ORIENTED_EDGE('',*,*,#270,.F.);
#270 = EDGE_CURVE('',#271,#188,#273,.T.);
#271 = VERTEX_POINT('',#272);
#272 = CARTESIAN_POINT('',(14.480000044703,-51.46126696784,
    9.400000000036));
#273 = LINE('',#274,#275);
#274 = CARTESIAN_POINT('',(14.480000044703,-51.77453154655,
    3.422555754294));
#275 = VECTOR('',#276,1.);
#276 = DIRECTION('',(1.2E-16,-5.233595624294E-02,-0.998629534755));
#277 = ORIENTED_EDGE('',*,*,#278,.F.);
#278 = EDGE_CURVE('',#279,#271,#281,.T.);
#279 = VERTEX_POINT('',#280);
#280 = CARTESIAN_POINT('',(14.480000044703,-48.90673309176,
    9.400000000037));
#281 = LINE('',#282,#283);
#282 = CARTESIAN_POINT('',(14.480000044703,-46.2340000298,9.400000000038
    ));
#283 = VECTOR('',#284,1.);
#284 = DIRECTION('',(2.3E-15,-1.,-3.6754E-13));
#285 = ORIENTED_EDGE('',*,*,#286,.F.);
#286 = EDGE_CURVE('',#287,#279,#289,.T.);
#287 = VERTEX_POINT('',#288);
#288 = CARTESIAN_POINT('',(14.480000044703,-48.73366499784,
    6.097664043757));
#289 = LINE('',#290,#291);
#290 = CARTESIAN_POINT('',(14.480000044703,-48.5826492564,3.216112039341
    ));
#291 = VECTOR('',#292,1.);
#292 = DIRECTION('',(1.2E-16,-5.233595624294E-02,0.998629534755));
#293 = ORIENTED_EDGE('',*,*,#294,.F.);
#294 = EDGE_CURVE('',#214,#287,#295,.T.);
#295 = CIRCLE('',#296,1.);
#296 = AXIS2_PLACEMENT_3D('',#297,#298,#299);
#297 = CARTESIAN_POINT('',(14.480000044703,-47.73503546309,6.15));
#298 = DIRECTION('',(-1.,0.,0.));
#299 = DIRECTION('',(0.,0.,1.));
#300 = PLANE('',#301);
#301 = AXIS2_PLACEMENT_3D('',#302,#303,#304);
#302 = CARTESIAN_POINT('',(14.480000044703,-46.2340000298,1.4));
#303 = DIRECTION('',(-1.,-2.3E-15,-0.));
#304 = DIRECTION('',(8.45204E-28,-3.6748E-13,1.));
#305 = ADVANCED_FACE('',(#306),#405,.T.);
#306 = FACE_BOUND('',#307,.T.);
#307 = EDGE_LOOP('',(#308,#309,#310,#311,#338,#346,#373,#382,#390,#398)
  );
#308 = ORIENTED_EDGE('',*,*,#270,.T.);
#309 = ORIENTED_EDGE('',*,*,#187,.F.);
#310 = ORIENTED_EDGE('',*,*,#64,.T.);
#311 = ORIENTED_EDGE('',*,*,#312,.T.);
#312 = EDGE_CURVE('',#65,#313,#315,.T.);
#313 = VERTEX_POINT('',#314);
#314 = CARTESIAN_POINT('',(17.627420120148,-51.0551066784,17.15));
#315 = B_SPLINE_CURVE_WITH_KNOTS('',5,(#316,#317,#318,#319,#320,#321,
    #322,#323,#324,#325,#326,#327,#328,#329,#330,#331,#332,#333,#334,
    #335,#336,#337),.UNSPECIFIED.,.F.,.F.,(6,4,4,4,4,6),(0.,
    0.171090306817,0.451971049695,0.566793133765,0.733021944718,1.),
  .UNSPECIFIED.);
#316 = CARTESIAN_POINT('',(18.639358487824,-51.10751445769,16.15));
#317 = CARTESIAN_POINT('',(18.639919025801,-51.10468640511,
    16.203962457765));
#318 = CARTESIAN_POINT('',(18.636766762487,-51.10185724914,
    16.25794596944));
#319 = CARTESIAN_POINT('',(18.629894989789,-51.09904464523,
    16.311613649175));
#320 = CARTESIAN_POINT('',(18.619344502486,-51.09626596601,
    16.364634007125));
#321 = CARTESIAN_POINT('',(18.581988328067,-51.08906026579,
    16.502126958038));
#322 = CARTESIAN_POINT('',(18.549093572211,-51.08471927811,
    16.584957937291));
#323 = CARTESIAN_POINT('',(18.50691335275,-51.08059120919,
    16.663726184668));
#324 = CARTESIAN_POINT('',(18.456168356448,-51.07674480274,
    16.737119991936));
#325 = CARTESIAN_POINT('',(18.374016953765,-51.07180403059,
    16.831395540634));
#326 = CARTESIAN_POINT('',(18.348913349951,-51.07042700593,
    16.857670736317));
#327 = CARTESIAN_POINT('',(18.322611760397,-51.06911053179,
    16.882790559327));
#328 = CARTESIAN_POINT('',(18.295185783047,-51.06785812029,
    16.906687994307));
#329 = CARTESIAN_POINT('',(18.22549781219,-51.06495703965,
    16.962043910638));
#330 = CARTESIAN_POINT('',(18.18209008313,-51.06338197731,
    16.992097890438));
#331 = CARTESIAN_POINT('',(18.136734750599,-51.06195720176,
    17.019284227515));
#332 = CARTESIAN_POINT('',(18.089692051292,-51.06069026995,
    17.043458726547));
#333 = CARTESIAN_POINT('',(17.963420700467,-51.05781454038,
    17.098330915503));
#334 = CARTESIAN_POINT('',(17.881960011242,-51.05646384802,
    17.124103660967));
#335 = CARTESIAN_POINT('',(17.798008081642,-51.05555809213,
    17.141386512985));
#336 = CARTESIAN_POINT('',(17.712764270914,-51.0551066784,17.15));
#337 = CARTESIAN_POINT('',(17.627420120148,-51.0551066784,17.15));
#338 = ORIENTED_EDGE('',*,*,#339,.T.);
#339 = EDGE_CURVE('',#313,#340,#342,.T.);
#340 = VERTEX_POINT('',#341);
#341 = CARTESIAN_POINT('',(10.332579969259,-51.0551066784,17.15));
#342 = LINE('',#343,#344);
#343 = CARTESIAN_POINT('',(16.233469591868,-51.0551066784,17.15));
#344 = VECTOR('',#345,1.);
#345 = DIRECTION('',(-1.,0.,0.));
#346 = ORIENTED_EDGE('',*,*,#347,.T.);
#347 = EDGE_CURVE('',#340,#348,#350,.T.);
#348 = VERTEX_POINT('',#349);
#349 = CARTESIAN_POINT('',(9.32064160158,-51.10751445768,16.15));
#350 = B_SPLINE_CURVE_WITH_KNOTS('',5,(#351,#352,#353,#354,#355,#356,
    #357,#358,#359,#360,#361,#362,#363,#364,#365,#366,#367,#368,#369,
    #370,#371,#372),.UNSPECIFIED.,.F.,.F.,(6,4,4,4,4,6),(0.,
    0.266831673892,0.433061518606,0.547884114127,0.828765374737,1.),
  .UNSPECIFIED.);
#351 = CARTESIAN_POINT('',(10.332579969258,-51.0551066784,17.15));
#352 = CARTESIAN_POINT('',(10.247282610521,-51.0551066784,17.15));
#353 = CARTESIAN_POINT('',(10.162085489153,-51.05555759724,
    17.141395956038));
#354 = CARTESIAN_POINT('',(10.078178174936,-51.05646235851,
    17.124132082553));
#355 = CARTESIAN_POINT('',(9.996758049747,-51.05781157889,17.098387424)
  );
#356 = CARTESIAN_POINT('',(9.870516123537,-51.06068484356,
    17.043562268153));
#357 = CARTESIAN_POINT('',(9.823467446025,-51.06195122322,17.01939830472
    ));
#358 = CARTESIAN_POINT('',(9.778105451499,-51.06337546687,16.99222211696
    ));
#359 = CARTESIAN_POINT('',(9.734690411782,-51.06495002081,
    16.962177838116));
#360 = CARTESIAN_POINT('',(9.664989109536,-51.06785028465,
    16.906837507282));
#361 = CARTESIAN_POINT('',(9.637557423527,-51.06910237363,
    16.882946226308));
#362 = CARTESIAN_POINT('',(9.611249847736,-51.07041853868,
    16.857832301019));
#363 = CARTESIAN_POINT('',(9.586139996372,-51.07179526862,
    16.831562729017));
#364 = CARTESIAN_POINT('',(9.50396637773,-51.07673506834,16.737305735269
    ));
#365 = CARTESIAN_POINT('',(9.453204160357,-51.08058087108,
    16.663923447498));
#366 = CARTESIAN_POINT('',(9.411005485493,-51.08470843843,
    16.585164770662));
#367 = CARTESIAN_POINT('',(9.378091360176,-51.08904903593,
    16.502341236434));
#368 = CARTESIAN_POINT('',(9.340691201022,-51.09625659067,
    16.364812899412));
#369 = CARTESIAN_POINT('',(9.330122497236,-51.09903752767,
    16.311749460413));
#370 = CARTESIAN_POINT('',(9.323238647793,-51.10185247609,
    16.258037044726));
#371 = CARTESIAN_POINT('',(9.32008059078,-51.10468401959,16.204007976191
    ));
#372 = CARTESIAN_POINT('',(9.320641601582,-51.10751445769,16.15));
#373 = ORIENTED_EDGE('',*,*,#374,.F.);
#374 = EDGE_CURVE('',#375,#348,#377,.T.);
#375 = VERTEX_POINT('',#376);
#376 = CARTESIAN_POINT('',(9.456834306521,-51.63433506176,6.097664043757
    ));
#377 = ELLIPSE('',#378,90.759782394163,4.75);
#378 = AXIS2_PLACEMENT_3D('',#379,#380,#381);
#379 = CARTESIAN_POINT('',(13.980000044703,-50.1840000298,
    33.771705031627));
#380 = DIRECTION('',(0.,0.998629534755,-5.233595624294E-02));
#381 = DIRECTION('',(0.,-5.233595624294E-02,-0.998629534755));
#382 = ORIENTED_EDGE('',*,*,#383,.F.);
#383 = EDGE_CURVE('',#384,#375,#386,.T.);
#384 = VERTEX_POINT('',#385);
#385 = CARTESIAN_POINT('',(13.480000044753,-51.63433506176,
    6.097664043757));
#386 = LINE('',#387,#388);
#387 = CARTESIAN_POINT('',(13.480000044753,-51.63433506176,
    6.097664043757));
#388 = VECTOR('',#389,1.);
#389 = DIRECTION('',(-1.,0.,0.));
#390 = ORIENTED_EDGE('',*,*,#391,.T.);
#391 = EDGE_CURVE('',#384,#392,#394,.T.);
#392 = VERTEX_POINT('',#393);
#393 = CARTESIAN_POINT('',(13.480000044753,-51.46126696784,
    9.400000000036));
#394 = LINE('',#395,#396);
#395 = CARTESIAN_POINT('',(13.480000044753,-51.56547462002,7.41159954505
    ));
#396 = VECTOR('',#397,1.);
#397 = DIRECTION('',(-1.2E-16,5.233595624294E-02,0.998629534755));
#398 = ORIENTED_EDGE('',*,*,#399,.F.);
#399 = EDGE_CURVE('',#271,#392,#400,.T.);
#400 = ELLIPSE('',#401,0.500686172974,0.499999999975);
#401 = AXIS2_PLACEMENT_3D('',#402,#403,#404);
#402 = CARTESIAN_POINT('',(13.980000044728,-51.46126696784,
    9.400000000036));
#403 = DIRECTION('',(0.,-0.998629534755,5.233595624294E-02));
#404 = DIRECTION('',(-4.394E-14,5.233595624294E-02,0.998629534755));
#405 = PLANE('',#406);
#406 = AXIS2_PLACEMENT_3D('',#407,#408,#409);
#407 = CARTESIAN_POINT('',(18.486939139033,-51.6840000298,5.15));
#408 = DIRECTION('',(0.,-0.998629534755,5.233595624294E-02));
#409 = DIRECTION('',(-1.,0.,0.));
#410 = ADVANCED_FACE('',(#411),#439,.T.);
#411 = FACE_BOUND('',#412,.F.);
#412 = EDGE_LOOP('',(#413,#422,#423,#432));
#413 = ORIENTED_EDGE('',*,*,#414,.F.);
#414 = EDGE_CURVE('',#141,#415,#417,.T.);
#415 = VERTEX_POINT('',#416);
#416 = CARTESIAN_POINT('',(14.880000044703,-54.43987831753,1.4));
#417 = PARABOLA('',#418,1.856155300615);
#418 = AXIS2_PLACEMENT_3D('',#419,#420,#421);
#419 = CARTESIAN_POINT('',(16.605000044703,-50.1840000298,-0.325));
#420 = DIRECTION('',(-0.707106781187,-1.63E-15,-0.707106781187));
#421 = DIRECTION('',(-0.707106781187,-1.63E-15,0.707106781187));
#422 = ORIENTED_EDGE('',*,*,#140,.T.);
#423 = ORIENTED_EDGE('',*,*,#424,.F.);
#424 = EDGE_CURVE('',#425,#133,#427,.T.);
#425 = VERTEX_POINT('',#426);
#426 = CARTESIAN_POINT('',(16.493961062698,-46.6340000298,1.4));
#427 = PARABOLA('',#428,0.282842712474);
#428 = AXIS2_PLACEMENT_3D('',#429,#430,#431);
#429 = CARTESIAN_POINT('',(13.980000044703,-50.5840000298,
    -2.550000000001));
#430 = DIRECTION('',(-1.51E-15,0.707106781187,-0.707106781186));
#431 = DIRECTION('',(-1.51E-15,0.707106781186,0.707106781187));
#432 = ORIENTED_EDGE('',*,*,#433,.F.);
#433 = EDGE_CURVE('',#415,#425,#434,.T.);
#434 = CIRCLE('',#435,4.35);
#435 = AXIS2_PLACEMENT_3D('',#436,#437,#438);
#436 = CARTESIAN_POINT('',(13.980000044703,-50.1840000298,1.4));
#437 = DIRECTION('',(-0.,0.,1.));
#438 = DIRECTION('',(0.105263157895,-0.994444401457,0.));
#439 = CONICAL_SURFACE('',#440,4.75,0.785398163397);
#440 = AXIS2_PLACEMENT_3D('',#441,#442,#443);
#441 = CARTESIAN_POINT('',(13.980000044703,-50.1840000298,1.8));
#442 = DIRECTION('',(0.,0.,1.));
#443 = DIRECTION('',(0.105263157895,-0.994444401457,0.));
#444 = ADVANCED_FACE('',(#445),#483,.T.);
#445 = FACE_BOUND('',#446,.T.);
#446 = EDGE_LOOP('',(#447,#448,#449,#476));
#447 = ORIENTED_EDGE('',*,*,#312,.F.);
#448 = ORIENTED_EDGE('',*,*,#73,.T.);
#449 = ORIENTED_EDGE('',*,*,#450,.T.);
#450 = EDGE_CURVE('',#74,#451,#453,.T.);
#451 = VERTEX_POINT('',#452);
#452 = CARTESIAN_POINT('',(17.627420120149,-49.3128933812,17.15));
#453 = B_SPLINE_CURVE_WITH_KNOTS('',5,(#454,#455,#456,#457,#458,#459,
    #460,#461,#462,#463,#464,#465,#466,#467,#468,#469,#470,#471,#472,
    #473,#474,#475),.UNSPECIFIED.,.F.,.F.,(6,4,4,4,4,6),(0.,
    0.171090306817,0.451971049696,0.566793133766,0.733021944718,1.),
  .UNSPECIFIED.);
#454 = CARTESIAN_POINT('',(18.639358487825,-49.26048560191,16.15));
#455 = CARTESIAN_POINT('',(18.639919025802,-49.26331365449,
    16.203962457765));
#456 = CARTESIAN_POINT('',(18.636766762488,-49.26614281045,
    16.257945969441));
#457 = CARTESIAN_POINT('',(18.62989498979,-49.26895541437,
    16.311613649176));
#458 = CARTESIAN_POINT('',(18.619344502487,-49.27173409359,
    16.364634007125));
#459 = CARTESIAN_POINT('',(18.581988328067,-49.27893979381,
    16.502126958039));
#460 = CARTESIAN_POINT('',(18.549093572212,-49.28328078149,
    16.584957937292));
#461 = CARTESIAN_POINT('',(18.506913352751,-49.28740885041,
    16.663726184668));
#462 = CARTESIAN_POINT('',(18.456168356449,-49.29125525686,
    16.737119991937));
#463 = CARTESIAN_POINT('',(18.374016953765,-49.29619602901,
    16.831395540635));
#464 = CARTESIAN_POINT('',(18.348913349952,-49.29757305367,
    16.857670736318));
#465 = CARTESIAN_POINT('',(18.322611760398,-49.29888952781,
    16.882790559328));
#466 = CARTESIAN_POINT('',(18.295185783047,-49.30014193931,
    16.906687994308));
#467 = CARTESIAN_POINT('',(18.22549781219,-49.30304301995,
    16.962043910639));
#468 = CARTESIAN_POINT('',(18.18209008313,-49.30461808229,
    16.992097890439));
#469 = CARTESIAN_POINT('',(18.136734750599,-49.30604285784,
    17.019284227515));
#470 = CARTESIAN_POINT('',(18.089692051292,-49.30730978965,
    17.043458726547));
#471 = CARTESIAN_POINT('',(17.963420700467,-49.31018551922,
    17.098330915503));
#472 = CARTESIAN_POINT('',(17.881960011243,-49.31153621158,
    17.124103660967));
#473 = CARTESIAN_POINT('',(17.798008081643,-49.31244196747,
    17.141386512985));
#474 = CARTESIAN_POINT('',(17.712764270915,-49.3128933812,17.15));
#475 = CARTESIAN_POINT('',(17.627420120149,-49.3128933812,17.15));
#476 = ORIENTED_EDGE('',*,*,#477,.F.);
#477 = EDGE_CURVE('',#313,#451,#478,.T.);
#478 = CIRCLE('',#479,3.75);
#479 = AXIS2_PLACEMENT_3D('',#480,#481,#482);
#480 = CARTESIAN_POINT('',(13.980000044703,-50.1840000298,17.15));
#481 = DIRECTION('',(-0.,0.,1.));
#482 = DIRECTION('',(0.983040074238,-0.183390873391,0.));
#483 = TOROIDAL_SURFACE('',#484,3.75,1.);
#484 = AXIS2_PLACEMENT_3D('',#485,#486,#487);
#485 = CARTESIAN_POINT('',(13.980000044703,-50.1840000298,16.15));
#486 = DIRECTION('',(0.,0.,1.));
#487 = DIRECTION('',(0.983040074238,-0.183390873391,0.));
#488 = ADVANCED_FACE('',(#489),#505,.T.);
#489 = FACE_BOUND('',#490,.T.);
#490 = EDGE_LOOP('',(#491,#492,#498,#499));
#491 = ORIENTED_EDGE('',*,*,#132,.F.);
#492 = ORIENTED_EDGE('',*,*,#493,.F.);
#493 = EDGE_CURVE('',#222,#133,#494,.T.);
#494 = LINE('',#495,#496);
#495 = CARTESIAN_POINT('',(14.480000044703,-46.2340000298,1.8));
#496 = VECTOR('',#497,1.);
#497 = DIRECTION('',(1.,1.35E-15,0.));
#498 = ORIENTED_EDGE('',*,*,#221,.T.);
#499 = ORIENTED_EDGE('',*,*,#500,.T.);
#500 = EDGE_CURVE('',#212,#124,#501,.T.);
#501 = LINE('',#502,#503);
#502 = CARTESIAN_POINT('',(11.341818853048,-46.2340000298,5.15));
#503 = VECTOR('',#504,1.);
#504 = DIRECTION('',(1.,2.69E-15,0.));
#505 = PLANE('',#506);
#506 = AXIS2_PLACEMENT_3D('',#507,#508,#509);
#507 = CARTESIAN_POINT('',(13.980000044703,-46.2340000298,3.275));
#508 = DIRECTION('',(-2.3E-15,1.,3.6741E-13));
#509 = DIRECTION('',(0.,-3.6741E-13,1.));
#510 = ADVANCED_FACE('',(#511),#589,.T.);
#511 = FACE_BOUND('',#512,.T.);
#512 = EDGE_LOOP('',(#513,#523,#531,#540,#567,#573,#574,#575,#581,#582)
  );
#513 = ORIENTED_EDGE('',*,*,#514,.T.);
#514 = EDGE_CURVE('',#515,#517,#519,.T.);
#515 = VERTEX_POINT('',#516);
#516 = CARTESIAN_POINT('',(13.480000044753,-48.90673309176,
    9.400000000037));
#517 = VERTEX_POINT('',#518);
#518 = CARTESIAN_POINT('',(13.480000044753,-48.73366499784,
    6.097664043757));
#519 = LINE('',#520,#521);
#520 = CARTESIAN_POINT('',(13.480000044753,-48.79170618294,
    7.205155830096));
#521 = VECTOR('',#522,1.);
#522 = DIRECTION('',(-1.2E-16,5.233595624294E-02,-0.998629534755));
#523 = ORIENTED_EDGE('',*,*,#524,.F.);
#524 = EDGE_CURVE('',#525,#517,#527,.T.);
#525 = VERTEX_POINT('',#526);
#526 = CARTESIAN_POINT('',(9.45683430652,-48.73366499784,6.097664043757)
  );
#527 = LINE('',#528,#529);
#528 = CARTESIAN_POINT('',(9.473060950372,-48.73366499784,6.097664043757
    ));
#529 = VECTOR('',#530,1.);
#530 = DIRECTION('',(1.,0.,0.));
#531 = ORIENTED_EDGE('',*,*,#532,.T.);
#532 = EDGE_CURVE('',#525,#533,#535,.T.);
#533 = VERTEX_POINT('',#534);
#534 = CARTESIAN_POINT('',(9.320641601579,-49.26048560192,16.15));
#535 = ELLIPSE('',#536,90.759782394163,4.75);
#536 = AXIS2_PLACEMENT_3D('',#537,#538,#539);
#537 = CARTESIAN_POINT('',(13.980000044703,-50.1840000298,
    33.771705031542));
#538 = DIRECTION('',(0.,0.998629534755,5.233595624294E-02));
#539 = DIRECTION('',(0.,5.233595624294E-02,-0.998629534755));
#540 = ORIENTED_EDGE('',*,*,#541,.F.);
#541 = EDGE_CURVE('',#542,#533,#544,.T.);
#542 = VERTEX_POINT('',#543);
#543 = CARTESIAN_POINT('',(10.332579969257,-49.3128933812,17.15));
#544 = B_SPLINE_CURVE_WITH_KNOTS('',5,(#545,#546,#547,#548,#549,#550,
    #551,#552,#553,#554,#555,#556,#557,#558,#559,#560,#561,#562,#563,
    #564,#565,#566),.UNSPECIFIED.,.F.,.F.,(6,4,4,4,4,6),(0.,
    0.266831673892,0.433061518606,0.547884114127,0.828765374737,1.),
  .UNSPECIFIED.);
#545 = CARTESIAN_POINT('',(10.332579969257,-49.3128933812,17.15));
#546 = CARTESIAN_POINT('',(10.24728261052,-49.3128933812,17.15));
#547 = CARTESIAN_POINT('',(10.162085489152,-49.31244246236,
    17.141395956038));
#548 = CARTESIAN_POINT('',(10.078178174935,-49.31153770109,
    17.124132082553));
#549 = CARTESIAN_POINT('',(9.996758049746,-49.31018848071,17.098387424)
  );
#550 = CARTESIAN_POINT('',(9.870516123536,-49.30731521604,
    17.043562268153));
#551 = CARTESIAN_POINT('',(9.823467446024,-49.30604883638,17.01939830472
    ));
#552 = CARTESIAN_POINT('',(9.778105451499,-49.30462459273,16.99222211696
    ));
#553 = CARTESIAN_POINT('',(9.734690411781,-49.30305003879,
    16.962177838115));
#554 = CARTESIAN_POINT('',(9.664989109535,-49.30014977495,
    16.906837507282));
#555 = CARTESIAN_POINT('',(9.637557423526,-49.29889768597,
    16.882946226308));
#556 = CARTESIAN_POINT('',(9.611249847735,-49.29758152091,
    16.857832301019));
#557 = CARTESIAN_POINT('',(9.586139996371,-49.29620479098,
    16.831562729017));
#558 = CARTESIAN_POINT('',(9.503966377729,-49.29126499126,
    16.737305735269));
#559 = CARTESIAN_POINT('',(9.453204160356,-49.28741918852,
    16.663923447498));
#560 = CARTESIAN_POINT('',(9.411005485493,-49.28329162117,
    16.585164770662));
#561 = CARTESIAN_POINT('',(9.378091360175,-49.27895102366,
    16.502341236434));
#562 = CARTESIAN_POINT('',(9.340691201021,-49.27174346893,
    16.364812899412));
#563 = CARTESIAN_POINT('',(9.330122497235,-49.26896253193,
    16.311749460413));
#564 = CARTESIAN_POINT('',(9.323238647792,-49.26614758351,
    16.258037044726));
#565 = CARTESIAN_POINT('',(9.320080590779,-49.26331604001,
    16.204007976191));
#566 = CARTESIAN_POINT('',(9.320641601581,-49.26048560191,16.15));
#567 = ORIENTED_EDGE('',*,*,#568,.T.);
#568 = EDGE_CURVE('',#542,#451,#569,.T.);
#569 = LINE('',#570,#571);
#570 = CARTESIAN_POINT('',(11.726530497538,-49.3128933812,17.15));
#571 = VECTOR('',#572,1.);
#572 = DIRECTION('',(1.,0.,0.));
#573 = ORIENTED_EDGE('',*,*,#450,.F.);
#574 = ORIENTED_EDGE('',*,*,#82,.F.);
#575 = ORIENTED_EDGE('',*,*,#576,.F.);
#576 = EDGE_CURVE('',#287,#83,#577,.T.);
#577 = LINE('',#578,#579);
#578 = CARTESIAN_POINT('',(14.480000044703,-48.73366499784,
    6.097664043757));
#579 = VECTOR('',#580,1.);
#580 = DIRECTION('',(1.,0.,0.));
#581 = ORIENTED_EDGE('',*,*,#286,.T.);
#582 = ORIENTED_EDGE('',*,*,#583,.F.);
#583 = EDGE_CURVE('',#515,#279,#584,.T.);
#584 = ELLIPSE('',#585,0.500686172974,0.499999999975);
#585 = AXIS2_PLACEMENT_3D('',#586,#587,#588);
#586 = CARTESIAN_POINT('',(13.980000044728,-48.90673309176,
    9.400000000037));
#587 = DIRECTION('',(0.,0.998629534755,5.233595624294E-02));
#588 = DIRECTION('',(-4.394E-14,5.233595624294E-02,-0.998629534755));
#589 = PLANE('',#590);
#590 = AXIS2_PLACEMENT_3D('',#591,#592,#593);
#591 = CARTESIAN_POINT('',(9.473060950373,-48.6840000298,5.15));
#592 = DIRECTION('',(0.,0.998629534755,5.233595624294E-02));
#593 = DIRECTION('',(1.,0.,0.));
#594 = ADVANCED_FACE('',(#595),#606,.T.);
#595 = FACE_BOUND('',#596,.T.);
#596 = EDGE_LOOP('',(#597,#598,#599,#600));
#597 = ORIENTED_EDGE('',*,*,#123,.T.);
#598 = ORIENTED_EDGE('',*,*,#500,.F.);
#599 = ORIENTED_EDGE('',*,*,#211,.T.);
#600 = ORIENTED_EDGE('',*,*,#601,.T.);
#601 = EDGE_CURVE('',#214,#92,#602,.T.);
#602 = LINE('',#603,#604);
#603 = CARTESIAN_POINT('',(14.480000044703,-47.73503546309,5.15));
#604 = VECTOR('',#605,1.);
#605 = DIRECTION('',(1.,0.,0.));
#606 = PLANE('',#607);
#607 = AXIS2_PLACEMENT_3D('',#608,#609,#610);
#608 = CARTESIAN_POINT('',(13.980000044703,-50.02231261155,5.15));
#609 = DIRECTION('',(0.,0.,1.));
#610 = DIRECTION('',(1.,0.,0.));
#611 = ADVANCED_FACE('',(#612),#618,.F.);
#612 = FACE_BOUND('',#613,.T.);
#613 = EDGE_LOOP('',(#614,#615,#616,#617));
#614 = ORIENTED_EDGE('',*,*,#294,.T.);
#615 = ORIENTED_EDGE('',*,*,#576,.T.);
#616 = ORIENTED_EDGE('',*,*,#91,.F.);
#617 = ORIENTED_EDGE('',*,*,#601,.F.);
#618 = CYLINDRICAL_SURFACE('',#619,1.);
#619 = AXIS2_PLACEMENT_3D('',#620,#621,#622);
#620 = CARTESIAN_POINT('',(14.480000044703,-47.73503546309,6.15));
#621 = DIRECTION('',(1.,0.,0.));
#622 = DIRECTION('',(0.,0.,-1.));
#623 = ADVANCED_FACE('',(#624),#649,.F.);
#624 = FACE_BOUND('',#625,.F.);
#625 = EDGE_LOOP('',(#626,#634,#635,#643));
#626 = ORIENTED_EDGE('',*,*,#627,.F.);
#627 = EDGE_CURVE('',#222,#628,#630,.T.);
#628 = VERTEX_POINT('',#629);
#629 = CARTESIAN_POINT('',(14.880000044703,-46.6340000298,1.4));
#630 = LINE('',#631,#632);
#631 = CARTESIAN_POINT('',(14.613333378036,-46.36733336313,
    1.666666666667));
#632 = VECTOR('',#633,1.);
#633 = DIRECTION('',(0.57735026919,-0.577350269189,-0.57735026919));
#634 = ORIENTED_EDGE('',*,*,#229,.T.);
#635 = ORIENTED_EDGE('',*,*,#636,.F.);
#636 = EDGE_CURVE('',#637,#230,#639,.T.);
#637 = VERTEX_POINT('',#638);
#638 = CARTESIAN_POINT('',(14.880000044703,-47.4340000298,1.4));
#639 = LINE('',#640,#641);
#640 = CARTESIAN_POINT('',(14.880000044703,-47.4340000298,1.4));
#641 = VECTOR('',#642,1.);
#642 = DIRECTION('',(-0.57735026919,-0.57735026919,0.57735026919));
#643 = ORIENTED_EDGE('',*,*,#644,.F.);
#644 = EDGE_CURVE('',#628,#637,#645,.T.);
#645 = LINE('',#646,#647);
#646 = CARTESIAN_POINT('',(14.880000044703,-46.2340000298,1.4));
#647 = VECTOR('',#648,1.);
#648 = DIRECTION('',(2.3E-15,-1.,-3.6754E-13));
#649 = PLANE('',#650);
#650 = AXIS2_PLACEMENT_3D('',#651,#652,#653);
#651 = CARTESIAN_POINT('',(14.680000044703,-46.2340000298,1.6));
#652 = DIRECTION('',(0.707106781187,1.63E-15,0.707106781187));
#653 = DIRECTION('',(1.860675840533E-13,-1.,-1.837624159467E-13));
#654 = ADVANCED_FACE('',(#655),#666,.F.);
#655 = FACE_BOUND('',#656,.F.);
#656 = EDGE_LOOP('',(#657,#658,#664,#665));
#657 = ORIENTED_EDGE('',*,*,#583,.F.);
#658 = ORIENTED_EDGE('',*,*,#659,.T.);
#659 = EDGE_CURVE('',#515,#392,#660,.T.);
#660 = LINE('',#661,#662);
#661 = CARTESIAN_POINT('',(13.480000044753,-46.2340000298,9.400000000038
    ));
#662 = VECTOR('',#663,1.);
#663 = DIRECTION('',(2.3E-15,-1.,-3.6754E-13));
#664 = ORIENTED_EDGE('',*,*,#399,.F.);
#665 = ORIENTED_EDGE('',*,*,#278,.F.);
#666 = CYLINDRICAL_SURFACE('',#667,0.499999999975);
#667 = AXIS2_PLACEMENT_3D('',#668,#669,#670);
#668 = CARTESIAN_POINT('',(13.980000044728,-46.2340000298,9.400000000038
    ));
#669 = DIRECTION('',(-2.3E-15,1.,3.6748E-13));
#670 = DIRECTION('',(-1.,-2.3E-15,0.));
#671 = ADVANCED_FACE('',(#672),#697,.F.);
#672 = FACE_BOUND('',#673,.F.);
#673 = EDGE_LOOP('',(#674,#684,#690,#691));
#674 = ORIENTED_EDGE('',*,*,#675,.F.);
#675 = EDGE_CURVE('',#676,#678,#680,.T.);
#676 = VERTEX_POINT('',#677);
#677 = CARTESIAN_POINT('',(16.077617741043,-47.8340000298,1.8));
#678 = VERTEX_POINT('',#679);
#679 = CARTESIAN_POINT('',(16.077617741043,-47.8340000298,4.15));
#680 = LINE('',#681,#682);
#681 = CARTESIAN_POINT('',(16.077617741043,-47.8340000298,1.4));
#682 = VECTOR('',#683,1.);
#683 = DIRECTION('',(0.,0.,1.));
#684 = ORIENTED_EDGE('',*,*,#685,.F.);
#685 = EDGE_CURVE('',#230,#676,#686,.T.);
#686 = LINE('',#687,#688);
#687 = CARTESIAN_POINT('',(14.480000044703,-47.8340000298,1.8));
#688 = VECTOR('',#689,1.);
#689 = DIRECTION('',(1.,0.,0.));
#690 = ORIENTED_EDGE('',*,*,#237,.T.);
#691 = ORIENTED_EDGE('',*,*,#692,.T.);
#692 = EDGE_CURVE('',#238,#678,#693,.T.);
#693 = LINE('',#694,#695);
#694 = CARTESIAN_POINT('',(11.882382348363,-47.8340000298,4.15));
#695 = VECTOR('',#696,1.);
#696 = DIRECTION('',(1.,0.,0.));
#697 = PLANE('',#698);
#698 = AXIS2_PLACEMENT_3D('',#699,#700,#701);
#699 = CARTESIAN_POINT('',(11.882382348363,-47.8340000298,1.4));
#700 = DIRECTION('',(0.,1.,0.));
#701 = DIRECTION('',(1.,0.,0.));
#702 = ADVANCED_FACE('',(#703),#714,.F.);
#703 = FACE_BOUND('',#704,.F.);
#704 = EDGE_LOOP('',(#705,#706,#707));
#705 = ORIENTED_EDGE('',*,*,#692,.F.);
#706 = ORIENTED_EDGE('',*,*,#245,.T.);
#707 = ORIENTED_EDGE('',*,*,#708,.T.);
#708 = EDGE_CURVE('',#246,#678,#709,.T.);
#709 = CIRCLE('',#710,3.15);
#710 = AXIS2_PLACEMENT_3D('',#711,#712,#713);
#711 = CARTESIAN_POINT('',(13.980000044703,-50.1840000298,4.15));
#712 = DIRECTION('',(0.,0.,1.));
#713 = DIRECTION('',(1.,0.,0.));
#714 = PLANE('',#715);
#715 = AXIS2_PLACEMENT_3D('',#716,#717,#718);
#716 = CARTESIAN_POINT('',(13.980000044703,-50.02231261155,4.15));
#717 = DIRECTION('',(0.,0.,1.));
#718 = DIRECTION('',(1.,0.,0.));
#719 = ADVANCED_FACE('',(#720),#732,.F.);
#720 = FACE_BOUND('',#721,.T.);
#721 = EDGE_LOOP('',(#722,#723,#730,#731));
#722 = ORIENTED_EDGE('',*,*,#675,.F.);
#723 = ORIENTED_EDGE('',*,*,#724,.F.);
#724 = EDGE_CURVE('',#254,#676,#725,.T.);
#725 = CIRCLE('',#726,3.15);
#726 = AXIS2_PLACEMENT_3D('',#727,#728,#729);
#727 = CARTESIAN_POINT('',(13.980000044703,-50.1840000298,1.8));
#728 = DIRECTION('',(-0.,0.,1.));
#729 = DIRECTION('',(0.15873015873,-0.987322002545,0.));
#730 = ORIENTED_EDGE('',*,*,#253,.F.);
#731 = ORIENTED_EDGE('',*,*,#708,.T.);
#732 = CYLINDRICAL_SURFACE('',#733,3.15);
#733 = AXIS2_PLACEMENT_3D('',#734,#735,#736);
#734 = CARTESIAN_POINT('',(13.980000044703,-50.1840000298,1.4));
#735 = DIRECTION('',(-0.,-0.,-1.));
#736 = DIRECTION('',(1.,0.,0.));
#737 = ADVANCED_FACE('',(#738),#757,.F.);
#738 = FACE_BOUND('',#739,.F.);
#739 = EDGE_LOOP('',(#740,#749,#750,#751));
#740 = ORIENTED_EDGE('',*,*,#741,.F.);
#741 = EDGE_CURVE('',#254,#742,#744,.T.);
#742 = VERTEX_POINT('',#743);
#743 = CARTESIAN_POINT('',(14.880000044703,-53.61802099654,1.4));
#744 = PARABOLA('',#745,0.936916485072);
#745 = AXIS2_PLACEMENT_3D('',#746,#747,#748);
#746 = CARTESIAN_POINT('',(12.655000044703,-50.1840000298,3.625));
#747 = DIRECTION('',(-0.707106781187,-1.63E-15,-0.707106781187));
#748 = DIRECTION('',(0.707106781187,1.63E-15,-0.707106781187));
#749 = ORIENTED_EDGE('',*,*,#261,.T.);
#750 = ORIENTED_EDGE('',*,*,#414,.T.);
#751 = ORIENTED_EDGE('',*,*,#752,.F.);
#752 = EDGE_CURVE('',#742,#415,#753,.T.);
#753 = LINE('',#754,#755);
#754 = CARTESIAN_POINT('',(14.880000044703,-53.29406433781,1.4));
#755 = VECTOR('',#756,1.);
#756 = DIRECTION('',(2.3E-15,-1.,-3.6754E-13));
#757 = PLANE('',#758);
#758 = AXIS2_PLACEMENT_3D('',#759,#760,#761);
#759 = CARTESIAN_POINT('',(14.680000044703,-53.29406433781,1.6));
#760 = DIRECTION('',(0.707106781187,1.63E-15,0.707106781187));
#761 = DIRECTION('',(1.860675840533E-13,-1.,-1.837624159467E-13));
#762 = ADVANCED_FACE('',(#763),#856,.T.);
#763 = FACE_BOUND('',#764,.T.);
#764 = EDGE_LOOP('',(#765,#775,#782,#783,#784,#785,#794,#802,#810,#818,
    #826,#834,#842,#850));
#765 = ORIENTED_EDGE('',*,*,#766,.F.);
#766 = EDGE_CURVE('',#767,#769,#771,.T.);
#767 = VERTEX_POINT('',#768);
#768 = CARTESIAN_POINT('',(13.480000044753,-47.73503546309,5.15));
#769 = VERTEX_POINT('',#770);
#770 = CARTESIAN_POINT('',(13.480000044753,-46.2340000298,5.15));
#771 = LINE('',#772,#773);
#772 = CARTESIAN_POINT('',(13.480000044753,-48.12815632068,5.15));
#773 = VECTOR('',#774,1.);
#774 = DIRECTION('',(-2.3E-15,1.,0.));
#775 = ORIENTED_EDGE('',*,*,#776,.F.);
#776 = EDGE_CURVE('',#517,#767,#777,.T.);
#777 = CIRCLE('',#778,1.);
#778 = AXIS2_PLACEMENT_3D('',#779,#780,#781);
#779 = CARTESIAN_POINT('',(13.480000044753,-47.73503546309,6.15));
#780 = DIRECTION('',(1.,0.,-0.));
#781 = DIRECTION('',(0.,0.,1.));
#782 = ORIENTED_EDGE('',*,*,#514,.F.);
#783 = ORIENTED_EDGE('',*,*,#659,.T.);
#784 = ORIENTED_EDGE('',*,*,#391,.F.);
#785 = ORIENTED_EDGE('',*,*,#786,.T.);
#786 = EDGE_CURVE('',#384,#787,#789,.T.);
#787 = VERTEX_POINT('',#788);
#788 = CARTESIAN_POINT('',(13.480000044753,-52.63296459651,5.15));
#789 = CIRCLE('',#790,1.);
#790 = AXIS2_PLACEMENT_3D('',#791,#792,#793);
#791 = CARTESIAN_POINT('',(13.480000044753,-52.63296459651,6.15));
#792 = DIRECTION('',(-1.,0.,0.));
#793 = DIRECTION('',(0.,0.,-1.));
#794 = ORIENTED_EDGE('',*,*,#795,.F.);
#795 = EDGE_CURVE('',#796,#787,#798,.T.);
#796 = VERTEX_POINT('',#797);
#797 = CARTESIAN_POINT('',(13.480000044753,-54.90761093673,5.15));
#798 = LINE('',#799,#800);
#799 = CARTESIAN_POINT('',(13.480000044753,-48.12815632068,5.15));
#800 = VECTOR('',#801,1.);
#801 = DIRECTION('',(-2.3E-15,1.,0.));
#802 = ORIENTED_EDGE('',*,*,#803,.T.);
#803 = EDGE_CURVE('',#796,#804,#806,.T.);
#804 = VERTEX_POINT('',#805);
#805 = CARTESIAN_POINT('',(13.480000044753,-54.90761093673,1.8));
#806 = LINE('',#807,#808);
#807 = CARTESIAN_POINT('',(13.480000044753,-54.90761093673,1.4));
#808 = VECTOR('',#809,1.);
#809 = DIRECTION('',(-0.,-0.,-1.));
#810 = ORIENTED_EDGE('',*,*,#811,.F.);
#811 = EDGE_CURVE('',#812,#804,#814,.T.);
#812 = VERTEX_POINT('',#813);
#813 = CARTESIAN_POINT('',(13.480000044753,-53.29406433782,1.8));
#814 = LINE('',#815,#816);
#815 = CARTESIAN_POINT('',(13.480000044753,-53.29406433782,1.8));
#816 = VECTOR('',#817,1.);
#817 = DIRECTION('',(2.3E-15,-1.,-3.6754E-13));
#818 = ORIENTED_EDGE('',*,*,#819,.F.);
#819 = EDGE_CURVE('',#820,#812,#822,.T.);
#820 = VERTEX_POINT('',#821);
#821 = CARTESIAN_POINT('',(13.480000044753,-53.29406433782,4.15));
#822 = LINE('',#823,#824);
#823 = CARTESIAN_POINT('',(13.480000044753,-53.29406433782,1.4));
#824 = VECTOR('',#825,1.);
#825 = DIRECTION('',(-0.,-0.,-1.));
#826 = ORIENTED_EDGE('',*,*,#827,.T.);
#827 = EDGE_CURVE('',#820,#828,#830,.T.);
#828 = VERTEX_POINT('',#829);
#829 = CARTESIAN_POINT('',(13.480000044753,-47.8340000298,4.15));
#830 = LINE('',#831,#832);
#831 = CARTESIAN_POINT('',(13.480000044753,-48.12815632068,4.15));
#832 = VECTOR('',#833,1.);
#833 = DIRECTION('',(-2.3E-15,1.,0.));
#834 = ORIENTED_EDGE('',*,*,#835,.T.);
#835 = EDGE_CURVE('',#828,#836,#838,.T.);
#836 = VERTEX_POINT('',#837);
#837 = CARTESIAN_POINT('',(13.480000044753,-47.8340000298,1.8));
#838 = LINE('',#839,#840);
#839 = CARTESIAN_POINT('',(13.480000044753,-47.8340000298,5.400000000019
    ));
#840 = VECTOR('',#841,1.);
#841 = DIRECTION('',(0.,0.,-1.));
#842 = ORIENTED_EDGE('',*,*,#843,.F.);
#843 = EDGE_CURVE('',#844,#836,#846,.T.);
#844 = VERTEX_POINT('',#845);
#845 = CARTESIAN_POINT('',(13.480000044753,-46.2340000298,1.8));
#846 = LINE('',#847,#848);
#847 = CARTESIAN_POINT('',(13.480000044753,-46.2340000298,1.8));
#848 = VECTOR('',#849,1.);
#849 = DIRECTION('',(2.3E-15,-1.,-3.6754E-13));
#850 = ORIENTED_EDGE('',*,*,#851,.F.);
#851 = EDGE_CURVE('',#769,#844,#852,.T.);
#852 = LINE('',#853,#854);
#853 = CARTESIAN_POINT('',(13.480000044753,-46.2340000298,9.400000000038
    ));
#854 = VECTOR('',#855,1.);
#855 = DIRECTION('',(-7.34E-28,3.67E-13,-1.));
#856 = PLANE('',#857);
#857 = AXIS2_PLACEMENT_3D('',#858,#859,#860);
#858 = CARTESIAN_POINT('',(13.480000044753,-46.2340000298,9.400000000038
    ));
#859 = DIRECTION('',(1.,2.3E-15,0.));
#860 = DIRECTION('',(-8.45204E-28,3.6748E-13,-1.));
#861 = ADVANCED_FACE('',(#862),#904,.F.);
#862 = FACE_BOUND('',#863,.F.);
#863 = EDGE_LOOP('',(#864,#865,#873,#903));
#864 = ORIENTED_EDGE('',*,*,#786,.T.);
#865 = ORIENTED_EDGE('',*,*,#866,.T.);
#866 = EDGE_CURVE('',#787,#867,#869,.T.);
#867 = VERTEX_POINT('',#868);
#868 = CARTESIAN_POINT('',(9.909978846849,-52.63296459651,5.15));
#869 = LINE('',#870,#871);
#870 = CARTESIAN_POINT('',(13.480000044753,-52.63296459651,5.15));
#871 = VECTOR('',#872,1.);
#872 = DIRECTION('',(-1.,0.,0.));
#873 = ORIENTED_EDGE('',*,*,#874,.F.);
#874 = EDGE_CURVE('',#375,#867,#875,.T.);
#875 = B_SPLINE_CURVE_WITH_KNOTS('',6,(#876,#877,#878,#879,#880,#881,
    #882,#883,#884,#885,#886,#887,#888,#889,#890,#891,#892,#893,#894,
    #895,#896,#897,#898,#899,#900,#901,#902),.UNSPECIFIED.,.F.,.F.,(7,5,
    5,5,5,7),(0.,0.420847843595,0.544503801391,0.617793021329,
    0.773210646497,1.),.UNSPECIFIED.);
#876 = CARTESIAN_POINT('',(9.456834306521,-51.63433506176,6.097664043757
    ));
#877 = CARTESIAN_POINT('',(9.458545274251,-51.63967106375,5.995847060447
    ));
#878 = CARTESIAN_POINT('',(9.464260157816,-51.65746969934,5.89456635124)
  );
#879 = CARTESIAN_POINT('',(9.474051848275,-51.68771980309,5.795135369327
    ));
#880 = CARTESIAN_POINT('',(9.488282476478,-51.73047464503,5.699136467955
    ));
#881 = CARTESIAN_POINT('',(9.507570880788,-51.78554503622,5.60846303752)
  );
#882 = CARTESIAN_POINT('',(9.539922401931,-51.87179390173,5.50069126053)
  );
#883 = CARTESIAN_POINT('',(9.547760877346,-51.89237637928,5.476859771639
    ));
#884 = CARTESIAN_POINT('',(9.556105783055,-51.91393195502,5.453726577542
    ));
#885 = CARTESIAN_POINT('',(9.56497138044,-51.93643210516,5.431348433872)
  );
#886 = CARTESIAN_POINT('',(9.574369891514,-51.95984094093,5.409782370681
    ));
#887 = CARTESIAN_POINT('',(9.590201579663,-51.99850026706,5.376816663071
    ));
#888 = CARTESIAN_POINT('',(9.596283306501,-52.01319014804,5.364853952247
    ));
#889 = CARTESIAN_POINT('',(9.602557197084,-52.02817435415,5.353207774243
    ));
#890 = CARTESIAN_POINT('',(9.609024619479,-52.04344260233,5.341889461816
    ));
#891 = CARTESIAN_POINT('',(9.615686425921,-52.0589835851,5.330909967443)
  );
#892 = CARTESIAN_POINT('',(9.63708295102,-52.10829349763,5.297737591227)
  );
#893 = CARTESIAN_POINT('',(9.652499282595,-52.14297481053,5.276765184625
    ));
#894 = CARTESIAN_POINT('',(9.668793267796,-52.17870815217,5.257465068544
    ));
#895 = CARTESIAN_POINT('',(9.68595555158,-52.21535652039,5.239924065795)
  );
#896 = CARTESIAN_POINT('',(9.703962681816,-52.25276855939,5.224209798113
    ));
#897 = CARTESIAN_POINT('',(9.750223185681,-52.34624837075,5.190167451436
    ));
#898 = CARTESIAN_POINT('',(9.779390491889,-52.40300654441,5.17394859683)
  );
#899 = CARTESIAN_POINT('',(9.810145106736,-52.46053451929,5.161855980112
    ));
#900 = CARTESIAN_POINT('',(9.842309603246,-52.51833322115,5.15390188474)
  );
#901 = CARTESIAN_POINT('',(9.875668785429,-52.57594348678,5.15));
#902 = CARTESIAN_POINT('',(9.909978846851,-52.63296459651,5.15));
#903 = ORIENTED_EDGE('',*,*,#383,.F.);
#904 = CYLINDRICAL_SURFACE('',#905,1.);
#905 = AXIS2_PLACEMENT_3D('',#906,#907,#908);
#906 = CARTESIAN_POINT('',(13.480000044753,-52.63296459651,6.15));
#907 = DIRECTION('',(-1.,0.,0.));
#908 = DIRECTION('',(0.,0.998629534755,-5.233595624294E-02));
#909 = ADVANCED_FACE('',(#910),#922,.T.);
#910 = FACE_BOUND('',#911,.T.);
#911 = EDGE_LOOP('',(#912,#913,#920,#921));
#912 = ORIENTED_EDGE('',*,*,#568,.F.);
#913 = ORIENTED_EDGE('',*,*,#914,.T.);
#914 = EDGE_CURVE('',#542,#340,#915,.T.);
#915 = CIRCLE('',#916,3.75);
#916 = AXIS2_PLACEMENT_3D('',#917,#918,#919);
#917 = CARTESIAN_POINT('',(13.980000044703,-50.1840000298,17.15));
#918 = DIRECTION('',(0.,0.,1.));
#919 = DIRECTION('',(-0.983040074238,0.18339087339,0.));
#920 = ORIENTED_EDGE('',*,*,#339,.F.);
#921 = ORIENTED_EDGE('',*,*,#477,.T.);
#922 = PLANE('',#923);
#923 = AXIS2_PLACEMENT_3D('',#924,#925,#926);
#924 = CARTESIAN_POINT('',(13.980000044703,-50.1840000298,17.15));
#925 = DIRECTION('',(0.,0.,1.));
#926 = DIRECTION('',(1.,0.,0.));
#927 = ADVANCED_FACE('',(#928),#1004,.T.);
#928 = FACE_BOUND('',#929,.F.);
#929 = EDGE_LOOP('',(#930,#937,#938,#947,#955,#964,#994,#995,#1002,#1003
    ));
#930 = ORIENTED_EDGE('',*,*,#931,.T.);
#931 = EDGE_CURVE('',#867,#796,#932,.T.);
#932 = CIRCLE('',#933,4.75);
#933 = AXIS2_PLACEMENT_3D('',#934,#935,#936);
#934 = CARTESIAN_POINT('',(13.980000044703,-50.1840000298,5.15));
#935 = DIRECTION('',(0.,0.,1.));
#936 = DIRECTION('',(1.,0.,0.));
#937 = ORIENTED_EDGE('',*,*,#803,.T.);
#938 = ORIENTED_EDGE('',*,*,#939,.F.);
#939 = EDGE_CURVE('',#940,#804,#942,.T.);
#940 = VERTEX_POINT('',#941);
#941 = CARTESIAN_POINT('',(11.341818853048,-46.2340000298,1.8));
#942 = CIRCLE('',#943,4.75);
#943 = AXIS2_PLACEMENT_3D('',#944,#945,#946);
#944 = CARTESIAN_POINT('',(13.980000044703,-50.1840000298,1.8));
#945 = DIRECTION('',(0.,0.,1.));
#946 = DIRECTION('',(-0.555406566664,0.831578947368,0.));
#947 = ORIENTED_EDGE('',*,*,#948,.T.);
#948 = EDGE_CURVE('',#940,#949,#951,.T.);
#949 = VERTEX_POINT('',#950);
#950 = CARTESIAN_POINT('',(11.341818853049,-46.2340000298,5.15));
#951 = LINE('',#952,#953);
#952 = CARTESIAN_POINT('',(11.341818853048,-46.2340000298,1.4));
#953 = VECTOR('',#954,1.);
#954 = DIRECTION('',(0.,0.,1.));
#955 = ORIENTED_EDGE('',*,*,#956,.T.);
#956 = EDGE_CURVE('',#949,#957,#959,.T.);
#957 = VERTEX_POINT('',#958);
#958 = CARTESIAN_POINT('',(9.909978846849,-47.73503546309,5.15));
#959 = CIRCLE('',#960,4.75);
#960 = AXIS2_PLACEMENT_3D('',#961,#962,#963);
#961 = CARTESIAN_POINT('',(13.980000044703,-50.1840000298,5.15));
#962 = DIRECTION('',(0.,0.,1.));
#963 = DIRECTION('',(1.,0.,0.));
#964 = ORIENTED_EDGE('',*,*,#965,.F.);
#965 = EDGE_CURVE('',#525,#957,#966,.T.);
#966 = B_SPLINE_CURVE_WITH_KNOTS('',6,(#967,#968,#969,#970,#971,#972,
    #973,#974,#975,#976,#977,#978,#979,#980,#981,#982,#983,#984,#985,
    #986,#987,#988,#989,#990,#991,#992,#993),.UNSPECIFIED.,.F.,.F.,(7,5,
    5,5,5,7),(0.,0.420847843595,0.544503801391,0.617793021329,
    0.773210646497,1.),.UNSPECIFIED.);
#967 = CARTESIAN_POINT('',(9.45683430652,-48.73366499784,6.097664043757)
  );
#968 = CARTESIAN_POINT('',(9.458545274249,-48.72832899585,5.995847060447
    ));
#969 = CARTESIAN_POINT('',(9.464260157815,-48.71053036026,5.89456635124)
  );
#970 = CARTESIAN_POINT('',(9.474051848274,-48.68028025651,5.795135369327
    ));
#971 = CARTESIAN_POINT('',(9.488282476476,-48.63752541457,5.699136467955
    ));
#972 = CARTESIAN_POINT('',(9.507570880786,-48.58245502338,5.60846303752)
  );
#973 = CARTESIAN_POINT('',(9.53992240193,-48.49620615787,5.50069126053)
  );
#974 = CARTESIAN_POINT('',(9.547760877344,-48.47562368032,5.476859771639
    ));
#975 = CARTESIAN_POINT('',(9.556105783053,-48.45406810458,5.453726577542
    ));
#976 = CARTESIAN_POINT('',(9.564971380438,-48.43156795444,5.431348433872
    ));
#977 = CARTESIAN_POINT('',(9.574369891512,-48.40815911867,5.409782370681
    ));
#978 = CARTESIAN_POINT('',(9.590201579661,-48.36949979254,5.376816663071
    ));
#979 = CARTESIAN_POINT('',(9.596283306499,-48.35480991156,5.364853952247
    ));
#980 = CARTESIAN_POINT('',(9.602557197082,-48.33982570545,5.353207774243
    ));
#981 = CARTESIAN_POINT('',(9.609024619477,-48.32455745727,5.341889461816
    ));
#982 = CARTESIAN_POINT('',(9.615686425919,-48.3090164745,5.330909967443)
  );
#983 = CARTESIAN_POINT('',(9.637082951018,-48.25970656197,5.297737591227
    ));
#984 = CARTESIAN_POINT('',(9.652499282593,-48.22502524906,5.276765184625
    ));
#985 = CARTESIAN_POINT('',(9.668793267794,-48.18929190743,5.257465068544
    ));
#986 = CARTESIAN_POINT('',(9.685955551577,-48.15264353921,5.239924065795
    ));
#987 = CARTESIAN_POINT('',(9.703962681813,-48.11523150021,5.224209798113
    ));
#988 = CARTESIAN_POINT('',(9.750223185679,-48.02175168885,5.190167451436
    ));
#989 = CARTESIAN_POINT('',(9.779390491887,-47.96499351519,5.173948596831
    ));
#990 = CARTESIAN_POINT('',(9.810145106733,-47.90746554031,5.161855980112
    ));
#991 = CARTESIAN_POINT('',(9.842309603243,-47.84966683845,5.15390188474)
  );
#992 = CARTESIAN_POINT('',(9.875668785426,-47.79205657282,5.15));
#993 = CARTESIAN_POINT('',(9.909978846848,-47.73503546309,5.15));
#994 = ORIENTED_EDGE('',*,*,#532,.T.);
#995 = ORIENTED_EDGE('',*,*,#996,.T.);
#996 = EDGE_CURVE('',#533,#348,#997,.T.);
#997 = CIRCLE('',#998,4.75);
#998 = AXIS2_PLACEMENT_3D('',#999,#1000,#1001);
#999 = CARTESIAN_POINT('',(13.980000044703,-50.1840000298,16.15));
#1000 = DIRECTION('',(0.,0.,1.));
#1001 = DIRECTION('',(-0.983040074238,0.18339087339,0.));
#1002 = ORIENTED_EDGE('',*,*,#374,.F.);
#1003 = ORIENTED_EDGE('',*,*,#874,.T.);
#1004 = CYLINDRICAL_SURFACE('',#1005,4.75);
#1005 = AXIS2_PLACEMENT_3D('',#1006,#1007,#1008);
#1006 = CARTESIAN_POINT('',(13.980000044703,-50.1840000298,1.4));
#1007 = DIRECTION('',(-0.,-0.,-1.));
#1008 = DIRECTION('',(1.,0.,0.));
#1009 = ADVANCED_FACE('',(#1010),#1016,.T.);
#1010 = FACE_BOUND('',#1011,.F.);
#1011 = EDGE_LOOP('',(#1012,#1013,#1014,#1015));
#1012 = ORIENTED_EDGE('',*,*,#541,.F.);
#1013 = ORIENTED_EDGE('',*,*,#914,.T.);
#1014 = ORIENTED_EDGE('',*,*,#347,.T.);
#1015 = ORIENTED_EDGE('',*,*,#996,.F.);
#1016 = TOROIDAL_SURFACE('',#1017,3.75,1.);
#1017 = AXIS2_PLACEMENT_3D('',#1018,#1019,#1020);
#1018 = CARTESIAN_POINT('',(13.980000044703,-50.1840000298,16.15));
#1019 = DIRECTION('',(-0.,-0.,-1.));
#1020 = DIRECTION('',(-0.983040074238,0.18339087339,0.));
#1021 = ADVANCED_FACE('',(#1022),#1048,.F.);
#1022 = FACE_BOUND('',#1023,.F.);
#1023 = EDGE_LOOP('',(#1024,#1025,#1026,#1032,#1033,#1041));
#1024 = ORIENTED_EDGE('',*,*,#752,.T.);
#1025 = ORIENTED_EDGE('',*,*,#433,.T.);
#1026 = ORIENTED_EDGE('',*,*,#1027,.F.);
#1027 = EDGE_CURVE('',#628,#425,#1028,.T.);
#1028 = LINE('',#1029,#1030);
#1029 = CARTESIAN_POINT('',(14.480000044703,-46.6340000298,1.4));
#1030 = VECTOR('',#1031,1.);
#1031 = DIRECTION('',(1.,1.35E-15,0.));
#1032 = ORIENTED_EDGE('',*,*,#644,.T.);
#1033 = ORIENTED_EDGE('',*,*,#1034,.T.);
#1034 = EDGE_CURVE('',#637,#1035,#1037,.T.);
#1035 = VERTEX_POINT('',#1036);
#1036 = CARTESIAN_POINT('',(16.224994476767,-47.4340000298,1.4));
#1037 = LINE('',#1038,#1039);
#1038 = CARTESIAN_POINT('',(14.480000044703,-47.4340000298,1.4));
#1039 = VECTOR('',#1040,1.);
#1040 = DIRECTION('',(1.,0.,0.));
#1041 = ORIENTED_EDGE('',*,*,#1042,.F.);
#1042 = EDGE_CURVE('',#742,#1035,#1043,.T.);
#1043 = CIRCLE('',#1044,3.55);
#1044 = AXIS2_PLACEMENT_3D('',#1045,#1046,#1047);
#1045 = CARTESIAN_POINT('',(13.980000044703,-50.1840000298,1.4));
#1046 = DIRECTION('',(-0.,0.,1.));
#1047 = DIRECTION('',(0.15873015873,-0.987322002545,0.));
#1048 = PLANE('',#1049);
#1049 = AXIS2_PLACEMENT_3D('',#1050,#1051,#1052);
#1050 = CARTESIAN_POINT('',(13.980000044703,-50.07144216453,1.4));
#1051 = DIRECTION('',(0.,0.,1.));
#1052 = DIRECTION('',(1.,0.,0.));
#1053 = ADVANCED_FACE('',(#1054),#1060,.F.);
#1054 = FACE_BOUND('',#1055,.F.);
#1055 = EDGE_LOOP('',(#1056,#1057,#1058,#1059));
#1056 = ORIENTED_EDGE('',*,*,#627,.T.);
#1057 = ORIENTED_EDGE('',*,*,#1027,.T.);
#1058 = ORIENTED_EDGE('',*,*,#424,.T.);
#1059 = ORIENTED_EDGE('',*,*,#493,.F.);
#1060 = PLANE('',#1061);
#1061 = AXIS2_PLACEMENT_3D('',#1062,#1063,#1064);
#1062 = CARTESIAN_POINT('',(14.480000044703,-46.4340000298,1.6));
#1063 = DIRECTION('',(1.51E-15,-0.707106781187,0.707106781186));
#1064 = DIRECTION('',(1.,1.742731239592E-15,-3.927312395916E-16));
#1065 = ADVANCED_FACE('',(#1066),#1077,.F.);
#1066 = FACE_BOUND('',#1067,.F.);
#1067 = EDGE_LOOP('',(#1068,#1069,#1075,#1076));
#1068 = ORIENTED_EDGE('',*,*,#965,.T.);
#1069 = ORIENTED_EDGE('',*,*,#1070,.T.);
#1070 = EDGE_CURVE('',#957,#767,#1071,.T.);
#1071 = LINE('',#1072,#1073);
#1072 = CARTESIAN_POINT('',(9.473060950372,-47.73503546309,5.15));
#1073 = VECTOR('',#1074,1.);
#1074 = DIRECTION('',(1.,0.,0.));
#1075 = ORIENTED_EDGE('',*,*,#776,.F.);
#1076 = ORIENTED_EDGE('',*,*,#524,.F.);
#1077 = CYLINDRICAL_SURFACE('',#1078,1.);
#1078 = AXIS2_PLACEMENT_3D('',#1079,#1080,#1081);
#1079 = CARTESIAN_POINT('',(9.473060950372,-47.73503546309,6.15));
#1080 = DIRECTION('',(1.,0.,0.));
#1081 = DIRECTION('',(0.,-0.998629534755,-5.233595624294E-02));
#1082 = ADVANCED_FACE('',(#1083),#1095,.T.);
#1083 = FACE_BOUND('',#1084,.T.);
#1084 = EDGE_LOOP('',(#1085,#1086,#1087,#1094));
#1085 = ORIENTED_EDGE('',*,*,#636,.F.);
#1086 = ORIENTED_EDGE('',*,*,#1034,.T.);
#1087 = ORIENTED_EDGE('',*,*,#1088,.T.);
#1088 = EDGE_CURVE('',#1035,#676,#1089,.T.);
#1089 = PARABOLA('',#1090,0.282842712475);
#1090 = AXIS2_PLACEMENT_3D('',#1091,#1092,#1093);
#1091 = CARTESIAN_POINT('',(13.980000044703,-50.5840000298,4.55));
#1092 = DIRECTION('',(0.,0.707106781187,0.707106781187));
#1093 = DIRECTION('',(0.,0.707106781187,-0.707106781187));
#1094 = ORIENTED_EDGE('',*,*,#685,.F.);
#1095 = PLANE('',#1096);
#1096 = AXIS2_PLACEMENT_3D('',#1097,#1098,#1099);
#1097 = CARTESIAN_POINT('',(14.480000044703,-47.6340000298,1.6));
#1098 = DIRECTION('',(0.,-0.707106781187,-0.707106781187));
#1099 = DIRECTION('',(1.,0.,0.));
#1100 = ADVANCED_FACE('',(#1101),#1107,.F.);
#1101 = FACE_BOUND('',#1102,.F.);
#1102 = EDGE_LOOP('',(#1103,#1104,#1105,#1106));
#1103 = ORIENTED_EDGE('',*,*,#741,.T.);
#1104 = ORIENTED_EDGE('',*,*,#1042,.T.);
#1105 = ORIENTED_EDGE('',*,*,#1088,.T.);
#1106 = ORIENTED_EDGE('',*,*,#724,.F.);
#1107 = CONICAL_SURFACE('',#1108,3.15,0.785398163397);
#1108 = AXIS2_PLACEMENT_3D('',#1109,#1110,#1111);
#1109 = CARTESIAN_POINT('',(13.980000044703,-50.1840000298,1.8));
#1110 = DIRECTION('',(-0.,-0.,-1.));
#1111 = DIRECTION('',(0.15873015873,-0.987322002545,0.));
#1112 = ADVANCED_FACE('',(#1113),#1124,.T.);
#1113 = FACE_BOUND('',#1114,.T.);
#1114 = EDGE_LOOP('',(#1115,#1116,#1122,#1123));
#1115 = ORIENTED_EDGE('',*,*,#766,.T.);
#1116 = ORIENTED_EDGE('',*,*,#1117,.F.);
#1117 = EDGE_CURVE('',#949,#769,#1118,.T.);
#1118 = LINE('',#1119,#1120);
#1119 = CARTESIAN_POINT('',(11.341818853048,-46.2340000298,5.15));
#1120 = VECTOR('',#1121,1.);
#1121 = DIRECTION('',(1.,2.69E-15,0.));
#1122 = ORIENTED_EDGE('',*,*,#956,.T.);
#1123 = ORIENTED_EDGE('',*,*,#1070,.T.);
#1124 = PLANE('',#1125);
#1125 = AXIS2_PLACEMENT_3D('',#1126,#1127,#1128);
#1126 = CARTESIAN_POINT('',(13.980000044703,-50.02231261155,5.15));
#1127 = DIRECTION('',(0.,0.,1.));
#1128 = DIRECTION('',(1.,0.,0.));
#1129 = ADVANCED_FACE('',(#1130),#1141,.T.);
#1130 = FACE_BOUND('',#1131,.T.);
#1131 = EDGE_LOOP('',(#1132,#1133,#1139,#1140));
#1132 = ORIENTED_EDGE('',*,*,#851,.T.);
#1133 = ORIENTED_EDGE('',*,*,#1134,.F.);
#1134 = EDGE_CURVE('',#940,#844,#1135,.T.);
#1135 = LINE('',#1136,#1137);
#1136 = CARTESIAN_POINT('',(11.341818853048,-46.2340000298,1.8));
#1137 = VECTOR('',#1138,1.);
#1138 = DIRECTION('',(1.,1.35E-15,0.));
#1139 = ORIENTED_EDGE('',*,*,#948,.T.);
#1140 = ORIENTED_EDGE('',*,*,#1117,.T.);
#1141 = PLANE('',#1142);
#1142 = AXIS2_PLACEMENT_3D('',#1143,#1144,#1145);
#1143 = CARTESIAN_POINT('',(13.980000044703,-46.2340000298,3.275));
#1144 = DIRECTION('',(-2.3E-15,1.,3.6741E-13));
#1145 = DIRECTION('',(0.,-3.6741E-13,1.));
#1146 = ADVANCED_FACE('',(#1147),#1172,.F.);
#1147 = FACE_BOUND('',#1148,.T.);
#1148 = EDGE_LOOP('',(#1149,#1157,#1158,#1166));
#1149 = ORIENTED_EDGE('',*,*,#1150,.F.);
#1150 = EDGE_CURVE('',#844,#1151,#1153,.T.);
#1151 = VERTEX_POINT('',#1152);
#1152 = CARTESIAN_POINT('',(13.080000044753,-46.6340000298,1.4));
#1153 = LINE('',#1154,#1155);
#1154 = CARTESIAN_POINT('',(12.990303179469,-46.72369689508,
    1.310303134716));
#1155 = VECTOR('',#1156,1.);
#1156 = DIRECTION('',(-0.57735026919,-0.577350269189,-0.57735026919));
#1157 = ORIENTED_EDGE('',*,*,#843,.T.);
#1158 = ORIENTED_EDGE('',*,*,#1159,.T.);
#1159 = EDGE_CURVE('',#836,#1160,#1162,.T.);
#1160 = VERTEX_POINT('',#1161);
#1161 = CARTESIAN_POINT('',(13.080000044753,-47.4340000298,1.4));
#1162 = LINE('',#1163,#1164);
#1163 = CARTESIAN_POINT('',(12.813730428688,-47.16773041373,
    1.133730383935));
#1164 = VECTOR('',#1165,1.);
#1165 = DIRECTION('',(-0.57735026919,0.57735026919,-0.57735026919));
#1166 = ORIENTED_EDGE('',*,*,#1167,.F.);
#1167 = EDGE_CURVE('',#1151,#1160,#1168,.T.);
#1168 = LINE('',#1169,#1170);
#1169 = CARTESIAN_POINT('',(13.080000044753,-46.2340000298,1.4));
#1170 = VECTOR('',#1171,1.);
#1171 = DIRECTION('',(2.3E-15,-1.,-3.6754E-13));
#1172 = PLANE('',#1173);
#1173 = AXIS2_PLACEMENT_3D('',#1174,#1175,#1176);
#1174 = CARTESIAN_POINT('',(13.280000044753,-46.2340000298,1.6));
#1175 = DIRECTION('',(-0.707106781187,-1.51E-15,0.707106781187));
#1176 = DIRECTION('',(1.815522687604E-13,1.,1.836877312396E-13));
#1177 = ADVANCED_FACE('',(#1178),#1203,.F.);
#1178 = FACE_BOUND('',#1179,.F.);
#1179 = EDGE_LOOP('',(#1180,#1181,#1189,#1197));
#1180 = ORIENTED_EDGE('',*,*,#835,.T.);
#1181 = ORIENTED_EDGE('',*,*,#1182,.F.);
#1182 = EDGE_CURVE('',#1183,#836,#1185,.T.);
#1183 = VERTEX_POINT('',#1184);
#1184 = CARTESIAN_POINT('',(11.882382348363,-47.8340000298,1.8));
#1185 = LINE('',#1186,#1187);
#1186 = CARTESIAN_POINT('',(11.882382348363,-47.8340000298,1.8));
#1187 = VECTOR('',#1188,1.);
#1188 = DIRECTION('',(1.,0.,0.));
#1189 = ORIENTED_EDGE('',*,*,#1190,.T.);
#1190 = EDGE_CURVE('',#1183,#1191,#1193,.T.);
#1191 = VERTEX_POINT('',#1192);
#1192 = CARTESIAN_POINT('',(11.882382348363,-47.8340000298,4.15));
#1193 = LINE('',#1194,#1195);
#1194 = CARTESIAN_POINT('',(11.882382348363,-47.8340000298,1.4));
#1195 = VECTOR('',#1196,1.);
#1196 = DIRECTION('',(0.,0.,1.));
#1197 = ORIENTED_EDGE('',*,*,#1198,.T.);
#1198 = EDGE_CURVE('',#1191,#828,#1199,.T.);
#1199 = LINE('',#1200,#1201);
#1200 = CARTESIAN_POINT('',(11.882382348363,-47.8340000298,4.15));
#1201 = VECTOR('',#1202,1.);
#1202 = DIRECTION('',(1.,0.,0.));
#1203 = PLANE('',#1204);
#1204 = AXIS2_PLACEMENT_3D('',#1205,#1206,#1207);
#1205 = CARTESIAN_POINT('',(11.882382348363,-47.8340000298,1.4));
#1206 = DIRECTION('',(0.,1.,0.));
#1207 = DIRECTION('',(1.,0.,0.));
#1208 = ADVANCED_FACE('',(#1209),#1220,.F.);
#1209 = FACE_BOUND('',#1210,.F.);
#1210 = EDGE_LOOP('',(#1211,#1212,#1219));
#1211 = ORIENTED_EDGE('',*,*,#1198,.F.);
#1212 = ORIENTED_EDGE('',*,*,#1213,.T.);
#1213 = EDGE_CURVE('',#1191,#820,#1214,.T.);
#1214 = CIRCLE('',#1215,3.15);
#1215 = AXIS2_PLACEMENT_3D('',#1216,#1217,#1218);
#1216 = CARTESIAN_POINT('',(13.980000044703,-50.1840000298,4.15));
#1217 = DIRECTION('',(0.,0.,1.));
#1218 = DIRECTION('',(1.,0.,0.));
#1219 = ORIENTED_EDGE('',*,*,#827,.T.);
#1220 = PLANE('',#1221);
#1221 = AXIS2_PLACEMENT_3D('',#1222,#1223,#1224);
#1222 = CARTESIAN_POINT('',(13.980000044703,-50.02231261155,4.15));
#1223 = DIRECTION('',(0.,0.,1.));
#1224 = DIRECTION('',(1.,0.,0.));
#1225 = ADVANCED_FACE('',(#1226),#1238,.F.);
#1226 = FACE_BOUND('',#1227,.T.);
#1227 = EDGE_LOOP('',(#1228,#1229,#1236,#1237));
#1228 = ORIENTED_EDGE('',*,*,#819,.T.);
#1229 = ORIENTED_EDGE('',*,*,#1230,.F.);
#1230 = EDGE_CURVE('',#1183,#812,#1231,.T.);
#1231 = CIRCLE('',#1232,3.15);
#1232 = AXIS2_PLACEMENT_3D('',#1233,#1234,#1235);
#1233 = CARTESIAN_POINT('',(13.980000044703,-50.1840000298,1.8));
#1234 = DIRECTION('',(0.,0.,1.));
#1235 = DIRECTION('',(-0.665910379791,0.746031746032,0.));
#1236 = ORIENTED_EDGE('',*,*,#1190,.T.);
#1237 = ORIENTED_EDGE('',*,*,#1213,.T.);
#1238 = CYLINDRICAL_SURFACE('',#1239,3.15);
#1239 = AXIS2_PLACEMENT_3D('',#1240,#1241,#1242);
#1240 = CARTESIAN_POINT('',(13.980000044703,-50.1840000298,1.4));
#1241 = DIRECTION('',(-0.,-0.,-1.));
#1242 = DIRECTION('',(1.,0.,0.));
#1243 = ADVANCED_FACE('',(#1244),#1249,.T.);
#1244 = FACE_BOUND('',#1245,.T.);
#1245 = EDGE_LOOP('',(#1246,#1247,#1248));
#1246 = ORIENTED_EDGE('',*,*,#795,.T.);
#1247 = ORIENTED_EDGE('',*,*,#866,.T.);
#1248 = ORIENTED_EDGE('',*,*,#931,.T.);
#1249 = PLANE('',#1250);
#1250 = AXIS2_PLACEMENT_3D('',#1251,#1252,#1253);
#1251 = CARTESIAN_POINT('',(13.980000044703,-50.02231261155,5.15));
#1252 = DIRECTION('',(0.,0.,1.));
#1253 = DIRECTION('',(1.,0.,0.));
#1254 = ADVANCED_FACE('',(#1255),#1282,.F.);
#1255 = FACE_BOUND('',#1256,.T.);
#1256 = EDGE_LOOP('',(#1257,#1266,#1267,#1276));
#1257 = ORIENTED_EDGE('',*,*,#1258,.T.);
#1258 = EDGE_CURVE('',#1259,#812,#1261,.T.);
#1259 = VERTEX_POINT('',#1260);
#1260 = CARTESIAN_POINT('',(13.080000044753,-53.61802099655,1.4));
#1261 = PARABOLA('',#1262,0.93691648509);
#1262 = AXIS2_PLACEMENT_3D('',#1263,#1264,#1265);
#1263 = CARTESIAN_POINT('',(15.305000044728,-50.1840000298,
    3.624999999975));
#1264 = DIRECTION('',(0.707106781187,1.64E-15,-0.707106781187));
#1265 = DIRECTION('',(-0.707106781187,-1.64E-15,-0.707106781187));
#1266 = ORIENTED_EDGE('',*,*,#811,.T.);
#1267 = ORIENTED_EDGE('',*,*,#1268,.T.);
#1268 = EDGE_CURVE('',#804,#1269,#1271,.T.);
#1269 = VERTEX_POINT('',#1270);
#1270 = CARTESIAN_POINT('',(13.080000044753,-54.43987831754,1.4));
#1271 = PARABOLA('',#1272,1.856155300597);
#1272 = AXIS2_PLACEMENT_3D('',#1273,#1274,#1275);
#1273 = CARTESIAN_POINT('',(11.355000044728,-50.1840000298,
    -0.325000000025));
#1274 = DIRECTION('',(-0.707106781187,-1.64E-15,0.707106781187));
#1275 = DIRECTION('',(0.707106781187,1.64E-15,0.707106781187));
#1276 = ORIENTED_EDGE('',*,*,#1277,.F.);
#1277 = EDGE_CURVE('',#1259,#1269,#1278,.T.);
#1278 = LINE('',#1279,#1280);
#1279 = CARTESIAN_POINT('',(13.080000044753,-53.29406433782,1.4));
#1280 = VECTOR('',#1281,1.);
#1281 = DIRECTION('',(2.3E-15,-1.,-3.6754E-13));
#1282 = PLANE('',#1283);
#1283 = AXIS2_PLACEMENT_3D('',#1284,#1285,#1286);
#1284 = CARTESIAN_POINT('',(13.280000044753,-53.29406433782,1.6));
#1285 = DIRECTION('',(-0.707106781187,-1.64E-15,0.707106781187));
#1286 = DIRECTION('',(1.814603448789E-13,1.,1.837796551211E-13));
#1287 = ADVANCED_FACE('',(#1288),#1308,.T.);
#1288 = FACE_BOUND('',#1289,.F.);
#1289 = EDGE_LOOP('',(#1290,#1299,#1300,#1301));
#1290 = ORIENTED_EDGE('',*,*,#1291,.F.);
#1291 = EDGE_CURVE('',#940,#1292,#1294,.T.);
#1292 = VERTEX_POINT('',#1293);
#1293 = CARTESIAN_POINT('',(11.466039026708,-46.6340000298,1.4));
#1294 = PARABOLA('',#1295,0.282842712474);
#1295 = AXIS2_PLACEMENT_3D('',#1296,#1297,#1298);
#1296 = CARTESIAN_POINT('',(13.980000044703,-50.5840000298,
    -2.550000000001));
#1297 = DIRECTION('',(-1.51E-15,0.707106781187,-0.707106781186));
#1298 = DIRECTION('',(-1.51E-15,0.707106781186,0.707106781187));
#1299 = ORIENTED_EDGE('',*,*,#939,.T.);
#1300 = ORIENTED_EDGE('',*,*,#1268,.T.);
#1301 = ORIENTED_EDGE('',*,*,#1302,.F.);
#1302 = EDGE_CURVE('',#1292,#1269,#1303,.T.);
#1303 = CIRCLE('',#1304,4.35);
#1304 = AXIS2_PLACEMENT_3D('',#1305,#1306,#1307);
#1305 = CARTESIAN_POINT('',(13.980000044703,-50.1840000298,1.4));
#1306 = DIRECTION('',(0.,0.,1.));
#1307 = DIRECTION('',(-0.555406566664,0.831578947368,0.));
#1308 = CONICAL_SURFACE('',#1309,4.75,0.785398163397);
#1309 = AXIS2_PLACEMENT_3D('',#1310,#1311,#1312);
#1310 = CARTESIAN_POINT('',(13.980000044703,-50.1840000298,1.8));
#1311 = DIRECTION('',(0.,0.,1.));
#1312 = DIRECTION('',(-0.555406566664,0.831578947368,0.));
#1313 = ADVANCED_FACE('',(#1314),#1325,.F.);
#1314 = FACE_BOUND('',#1315,.T.);
#1315 = EDGE_LOOP('',(#1316,#1317,#1318,#1319));
#1316 = ORIENTED_EDGE('',*,*,#1291,.F.);
#1317 = ORIENTED_EDGE('',*,*,#1134,.T.);
#1318 = ORIENTED_EDGE('',*,*,#1150,.T.);
#1319 = ORIENTED_EDGE('',*,*,#1320,.F.);
#1320 = EDGE_CURVE('',#1292,#1151,#1321,.T.);
#1321 = LINE('',#1322,#1323);
#1322 = CARTESIAN_POINT('',(11.341818853048,-46.6340000298,1.4));
#1323 = VECTOR('',#1324,1.);
#1324 = DIRECTION('',(1.,1.35E-15,0.));
#1325 = PLANE('',#1326);
#1326 = AXIS2_PLACEMENT_3D('',#1327,#1328,#1329);
#1327 = CARTESIAN_POINT('',(11.341818853048,-46.4340000298,1.6));
#1328 = DIRECTION('',(1.51E-15,-0.707106781187,0.707106781186));
#1329 = DIRECTION('',(-1.,-1.742731239592E-15,3.927312395916E-16));
#1330 = ADVANCED_FACE('',(#1331),#1352,.F.);
#1331 = FACE_BOUND('',#1332,.F.);
#1332 = EDGE_LOOP('',(#1333,#1334,#1335,#1336,#1345,#1351));
#1333 = ORIENTED_EDGE('',*,*,#1320,.F.);
#1334 = ORIENTED_EDGE('',*,*,#1302,.T.);
#1335 = ORIENTED_EDGE('',*,*,#1277,.F.);
#1336 = ORIENTED_EDGE('',*,*,#1337,.F.);
#1337 = EDGE_CURVE('',#1338,#1259,#1340,.T.);
#1338 = VERTEX_POINT('',#1339);
#1339 = CARTESIAN_POINT('',(11.735005612639,-47.4340000298,1.4));
#1340 = CIRCLE('',#1341,3.55);
#1341 = AXIS2_PLACEMENT_3D('',#1342,#1343,#1344);
#1342 = CARTESIAN_POINT('',(13.980000044703,-50.1840000298,1.4));
#1343 = DIRECTION('',(0.,0.,1.));
#1344 = DIRECTION('',(-0.665910379791,0.746031746032,0.));
#1345 = ORIENTED_EDGE('',*,*,#1346,.T.);
#1346 = EDGE_CURVE('',#1338,#1160,#1347,.T.);
#1347 = LINE('',#1348,#1349);
#1348 = CARTESIAN_POINT('',(11.882382348363,-47.4340000298,1.4));
#1349 = VECTOR('',#1350,1.);
#1350 = DIRECTION('',(1.,0.,0.));
#1351 = ORIENTED_EDGE('',*,*,#1167,.F.);
#1352 = PLANE('',#1353);
#1353 = AXIS2_PLACEMENT_3D('',#1354,#1355,#1356);
#1354 = CARTESIAN_POINT('',(13.980000044703,-50.07144216453,1.4));
#1355 = DIRECTION('',(0.,0.,1.));
#1356 = DIRECTION('',(1.,0.,0.));
#1357 = ADVANCED_FACE('',(#1358),#1370,.T.);
#1358 = FACE_BOUND('',#1359,.T.);
#1359 = EDGE_LOOP('',(#1360,#1367,#1368,#1369));
#1360 = ORIENTED_EDGE('',*,*,#1361,.F.);
#1361 = EDGE_CURVE('',#1338,#1183,#1362,.T.);
#1362 = PARABOLA('',#1363,0.282842712475);
#1363 = AXIS2_PLACEMENT_3D('',#1364,#1365,#1366);
#1364 = CARTESIAN_POINT('',(13.980000044703,-50.5840000298,4.55));
#1365 = DIRECTION('',(0.,-0.707106781187,-0.707106781187));
#1366 = DIRECTION('',(0.,0.707106781187,-0.707106781187));
#1367 = ORIENTED_EDGE('',*,*,#1346,.T.);
#1368 = ORIENTED_EDGE('',*,*,#1159,.F.);
#1369 = ORIENTED_EDGE('',*,*,#1182,.F.);
#1370 = PLANE('',#1371);
#1371 = AXIS2_PLACEMENT_3D('',#1372,#1373,#1374);
#1372 = CARTESIAN_POINT('',(11.882382348363,-47.6340000298,1.6));
#1373 = DIRECTION('',(0.,-0.707106781187,-0.707106781187));
#1374 = DIRECTION('',(1.,0.,0.));
#1375 = ADVANCED_FACE('',(#1376),#1382,.F.);
#1376 = FACE_BOUND('',#1377,.F.);
#1377 = EDGE_LOOP('',(#1378,#1379,#1380,#1381));
#1378 = ORIENTED_EDGE('',*,*,#1361,.F.);
#1379 = ORIENTED_EDGE('',*,*,#1337,.T.);
#1380 = ORIENTED_EDGE('',*,*,#1258,.T.);
#1381 = ORIENTED_EDGE('',*,*,#1230,.F.);
#1382 = CONICAL_SURFACE('',#1383,3.15,0.785398163397);
#1383 = AXIS2_PLACEMENT_3D('',#1384,#1385,#1386);
#1384 = CARTESIAN_POINT('',(13.980000044703,-50.1840000298,1.8));
#1385 = DIRECTION('',(-0.,-0.,-1.));
#1386 = DIRECTION('',(-0.665910379791,0.746031746032,0.));
#1387 = ( GEOMETRIC_REPRESENTATION_CONTEXT(3) 
GLOBAL_UNCERTAINTY_ASSIGNED_CONTEXT((#1391)) 
GLOBAL_UNIT_ASSIGNED_CONTEXT((#1388,#1389,#1390)) REPRESENTATION_CONTEXT
('Context #1','3D Context with UNIT and UNCERTAINTY') );
#1388 = ( LENGTH_UNIT() NAMED_UNIT(*) SI_UNIT(.MILLI.,.METRE.) );
#1389 = ( NAMED_UNIT(*) PLANE_ANGLE_UNIT() SI_UNIT($,.RADIAN.) );
#1390 = ( NAMED_UNIT(*) SI_UNIT($,.STERADIAN.) SOLID_ANGLE_UNIT() );
#1391 = UNCERTAINTY_MEASURE_WITH_UNIT(LENGTH_MEASURE(5.E-06),#1388,
  'distance_accuracy_value','confusion accuracy');
#1392 = PRODUCT_RELATED_PRODUCT_CATEGORY('part',$,(#7));
#1393 = MECHANICAL_DESIGN_GEOMETRIC_PRESENTATION_REPRESENTATION('',(
    #1394),#1387);
#1394 = STYLED_ITEM('color',(#1395),#15);
#1395 = PRESENTATION_STYLE_ASSIGNMENT((#1396,#1402));
#1396 = SURFACE_STYLE_USAGE(.BOTH.,#1397);
#1397 = SURFACE_SIDE_STYLE('',(#1398));
#1398 = SURFACE_STYLE_FILL_AREA(#1399);
#1399 = FILL_AREA_STYLE('',(#1400));
#1400 = FILL_AREA_STYLE_COLOUR('',#1401);
#1401 = DRAUGHTING_PRE_DEFINED_COLOUR('yellow');
#1402 = CURVE_STYLE('',#1403,POSITIVE_LENGTH_MEASURE(0.1),#1404);
#1403 = DRAUGHTING_PRE_DEFINED_CURVE_FONT('continuous');
#1404 = COLOUR_RGB('',9.803921802644E-02,9.803921802644E-02,
  9.803921802644E-02);
ENDSEC;
END-ISO-10303-21;
