999
dxfrw 0.6.3
  0
SECTION
  2
HEADER
  9
$ACADVER
  1
AC1021
  9
$DWGCODEPAGE
  3
ANSI_1252
  9
$INSBASE
 10
0
 20
0
 30
0
  9
$EXTMIN
 10
10.64879354547075
 20
-95.93174575910952
 30
0
  9
$EXTMAX
 10
390.7656838916171
 20
194.2175547109867
 30
0
  9
$LIMMIN
 10
0
 20
0
  9
$LIMMAX
 10
12
 20
9
  9
$ORTHOMODE
 70
    1
  9
$REGENMODE
 70
    1
  9
$FILLMODE
 70
    1
  9
$QTEXTMODE
 70
    0
  9
$MIRRTEXT
 70
    0
  9
$LTSCALE
 40
1
  9
$ATTMODE
 70
    1
  9
$TEXTSIZE
 40
0.2
  9
$TRACEWID
 40
0.05
  9
$TEXTSTYLE
  7
Standard
  9
$CLAYER
  8
0
  9
$CELTYPE
  6
ByLayer
  9
$CECOLOR
 62
  256
  9
$CELTSCALE
 40
1
  9
$DISPSILH
 70
    0
  9
$DIMSCALE
 40
1
  9
$DIMASZ
 40
2
  9
$DIMEXO
 40
1
  9
$DIMDLI
 40
0.38
  9
$DIMRND
 40
0
  9
$DIMDLE
 40
0
  9
$DIMEXE
 40
1
  9
$DIMTP
 40
0
  9
$DIMTM
 40
0
  9
$DIMTXT
 40
2
  9
$DIMCEN
 40
0.09
  9
$DIMTSZ
 40
0
  9
$DIMTOL
 70
    0
  9
$DIMLIM
 70
    0
  9
$DIMTIH
 70
    1
  9
$DIMTOH
 70
    1
  9
$DIMSE1
 70
    0
  9
$DIMSE2
 70
    0
  9
$DIMTAD
 70
    0
  9
$DIMZIN
 70
    0
  9
$DIMBLK
  1

  9
$DIMASO
 70
    1
  9
$DIMSHO
 70
    1
  9
$DIMPOST
  1

  9
$DIMAPOST
  1

  9
$DIMALT
 70
    0
  9
$DIMALTD
 70
    2
  9
$DIMALTF
 40
25.4
  9
$DIMLFAC
 40
1
  9
$DIMTOFL
 70
    0
  9
$DIMTVP
 40
0
  9
$DIMTIX
 70
    0
  9
$DIMSOXD
 70
    0
  9
$DIMSAH
 70
    0
  9
$DIMBLK1
  1

  9
$DIMBLK2
  1

  9
$DIMSTYLE
  2
Standard
  9
$DIMCLRD
 70
    4
  9
$DIMCLRE
 70
    4
  9
$DIMCLRT
 70
    4
  9
$DIMTFAC
 40
1
  9
$DIMGAP
 40
2
  9
$DIMJUST
 70
    0
  9
$DIMSD1
 70
    0
  9
$DIMSD2
 70
    0
  9
$DIMTOLJ
 70
    1
  9
$DIMTZIN
 70
    0
  9
$DIMALTZ
 70
    0
  9
$DIMALTTZ
 70
    0
  9
$DIMUPT
 70
    0
  9
$DIMDEC
 70
    1
  9
$DIMTDEC
 70
    4
  9
$DIMALTU
 70
    2
  9
$DIMALTTD
 70
    2
  9
$DIMTXSTY
  7
standard
  9
$DIMAUNIT
 70
    0
  9
$DIMADEC
 70
    0
  9
$DIMALTRND
 40
0
  9
$DIMAZIN
 70
    0
  9
$DIMDSEP
 70
    0
  9
$DIMATFIT
 70
    3
  9
$DIMFRAC
 70
    0
  9
$DIMLDRBLK
  1

  9
$DIMLUNIT
 70
    2
  9
$DIMLWD
 70
   -2
  9
$DIMLWE
 70
   -2
  9
$DIMTMOVE
 70
    0
  9
$DIMFXL
 40
1
  9
$DIMFXLON
 70
    0
  9
$DIMJOGANG
 40
0.7853981633974483
  9
$DIMTFILL
 70
    0
  9
$DIMTFILLCLR
 70
    0
  9
$DIMARCSYM
 70
    0
  9
$DIMLTYPE
  6

  9
$DIMLTEX1
  6

  9
$DIMLTEX2
  6

  9
$LUNITS
 70
    2
  9
$LUPREC
 70
    2
  9
$SKETCHINC
 40
0.1
  9
$FILLETRAD
 40
2
  9
$AUNITS
 70
    0
  9
$AUPREC
 70
    0
  9
$MENU
  1
.
  9
$ELEVATION
 40
0
  9
$PELEVATION
 40
0
  9
$THICKNESS
 40
0
  9
$LIMCHECK
 70
    0
  9
$CHAMFERA
 40
0
  9
$CHAMFERB
 40
0
  9
$CHAMFERC
 40
0
  9
$CHAMFERD
 40
0
  9
$SKPOLY
 70
    0
  9
$USRTIMER
 70
    1
  9
$ANGBASE
 50
0
  9
$ANGDIR
 70
    0
  9
$PDMODE
 70
    0
  9
$PDSIZE
 40
0
  9
$PLINEWID
 40
0
  9
$SPLFRAME
 70
    0
  9
$SPLINETYPE
 70
    6
  9
$SPLINESEGS
 70
    8
  9
$HANDSEED
  5
20000
  9
$SURFTAB1
 70
    6
  9
$SURFTAB2
 70
    6
  9
$SURFTYPE
 70
    6
  9
$SURFU
 70
    6
  9
$SURFV
 70
    6
  9
$UCSBASE
  2

  9
$UCSNAME
  2

  9
$UCSORG
 10
0
 20
0
 30
0
  9
$UCSXDIR
 10
1
 20
0
 30
0
  9
$UCSYDIR
 10
0
 20
1
 30
0
  9
$UCSORTHOREF
  2

  9
$UCSORTHOVIEW
 70
    0
  9
$UCSORGTOP
 10
0
 20
0
 30
0
  9
$UCSORGBOTTOM
 10
0
 20
0
 30
0
  9
$UCSORGLEFT
 10
0
 20
0
 30
0
  9
$UCSORGRIGHT
 10
0
 20
0
 30
0
  9
$UCSORGFRONT
 10
0
 20
0
 30
0
  9
$UCSORGBACK
 10
0
 20
0
 30
0
  9
$PUCSBASE
  2

  9
$PUCSNAME
  2

  9
$PUCSORG
 10
0
 20
0
 30
0
  9
$PUCSXDIR
 10
1
 20
0
 30
0
  9
$PUCSYDIR
 10
0
 20
1
 30
0
  9
$PUCSORTHOREF
  2

  9
$PUCSORTHOVIEW
 70
    0
  9
$PUCSORGTOP
 10
0
 20
0
 30
0
  9
$PUCSORGBOTTOM
 10
0
 20
0
 30
0
  9
$PUCSORGLEFT
 10
0
 20
0
 30
0
  9
$PUCSORGRIGHT
 10
0
 20
0
 30
0
  9
$PUCSORGFRONT
 10
0
 20
0
 30
0
  9
$PUCSORGBACK
 10
0
 20
0
 30
0
  9
$USERI1
 70
    0
  9
$USERI2
 70
    0
  9
$USERI3
 70
    0
  9
$USERI4
 70
    0
  9
$USERI5
 70
    0
  9
$USERR1
 40
0
  9
$USERR2
 40
0
  9
$USERR3
 40
0
  9
$USERR4
 40
0
  9
$USERR5
 40
0
  9
$WORLDVIEW
 70
    1
  9
$SHADEDGE
 70
    3
  9
$SHADEDIF
 70
   70
  9
$TILEMODE
 70
    1
  9
$MAXACTVP
 70
   64
  9
$PINSBASE
 10
0
 20
0
 30
0
  9
$PLIMCHECK
 70
    0
  9
$PEXTMIN
 10
0
 20
0
 30
0
  9
$PEXTMAX
 10
0
 20
0
 30
0
  9
$GRIDMODE
 70
    1
  9
$SNAPSTYLE
 70
    0
  9
$GRIDUNIT
 10
0
 20
0
  9
$PLIMMIN
 10
0
 20
0
  9
$PLIMMAX
 10
297
 20
210
  9
$UNITMODE
 70
    0
  9
$VISRETAIN
 70
    1
  9
$PLINEGEN
 70
    0
  9
$PSLTSCALE
 70
    1
  9
$TREEDEPTH
 70
 3020
  9
$CMLSTYLE
  2
Standard
  9
$CMLJUST
 70
    0
  9
$CMLSCALE
 40
1
  9
$PROXYGRAPHICS
 70
    1
  9
$MEASUREMENT
 70
    0
  9
$CELWEIGHT
370
   -1
  9
$ENDCAPS
280
    0
  9
$JOINSTYLE
280
    0
  9
$LWDISPLAY
290
    0
  9
$INSUNITS
 70
    4
  9
$HYPERLINKBASE
  1

  9
$STYLESHEET
  1

  9
$XEDIT
290
    1
  9
$CEPSNTYPE
380
    0
  9
$PSTYLEMODE
290
    1
  9
$EXTNAMES
290
    1
  9
$PSVPSCALE
 40
0
  9
$OLESTARTUP
290
    0
  9
$SORTENTS
280
  127
  9
$INDEXCTL
280
    0
  9
$HIDETEXT
280
    1
  9
$XCLIPFRAME
290
    2
  9
$HALOGAP
280
    0
  9
$OBSCOLOR
 70
  257
  9
$OBSLTYPE
280
    0
  9
$INTERSECTIONDISPLAY
280
    0
  9
$INTERSECTIONCOLOR
 70
  257
  9
$DIMASSOC
280
    2
  9
$PROJECTNAME
  1

  9
$CAMERADISPLAY
290
    0
  9
$LENSLENGTH
 40
50
  9
$CAMERAHEIGHT
 40
0
  9
$STEPSPERSEC
 40
2
  9
$STEPSIZE
 40
6
  9
$3DDWFPREC
 40
2
  9
$PSOLWIDTH
 40
0.25
  9
$PSOLHEIGHT
 40
4
  9
$LOFTANG1
 40
1.570796326794896
  9
$LOFTANG2
 40
1.570796326794896
  9
$LOFTMAG1
 40
0
  9
$LOFTMAG2
 40
0
  9
$LOFTPARAM
 70
    7
  9
$LOFTNORMALS
280
    1
  9
$LATITUDE
 40
37.795
  9
$LONGITUDE
 40
-122.394
  9
$NORTHDIRECTION
 40
0
  9
$TIMEZONE
 70
-8000
  9
$LIGHTGLYPHDISPLAY
280
    1
  9
$TILEMODELIGHTSYNCH
280
    1
  9
$SOLIDHIST
280
    0
  9
$SHOWHIST
280
    1
  9
$DWFFRAME
280
    2
  9
$DGNFRAME
280
    0
  9
$REALWORLDSCALE
290
    1
  9
$INTERFERECOLOR
 62
    1
  9
$CSHADOW
280
    0
  9
$SHADOWPLANELOCATION
 40
0
  0
ENDSEC
  0
SECTION
  2
CLASSES
  0
ENDSEC
  0
SECTION
  2
TABLES
  0
TABLE
  2
VPORT
  5
8
330
0
100
AcDbSymbolTable
 70
    1
  0
VPORT
  5
31
330
2
100
AcDbSymbolTableRecord
100
AcDbViewportTableRecord
  2
*ACTIVE
 70
    0
 10
0
 20
0
 11
1
 21
1
 12
257.7847529137594
 22
99.58322325026703
 13
0
 23
0
 14
10
 24
10
 15
10
 25
10
 16
0
 26
0
 36
1
 17
0
 27
0
 37
0
 40
299.2023207655751
 41
2.104387291981846
 42
50
 43
0
 44
0
 50
0
 51
0
 71
    0
 72
  100
 73
    1
 74
    3
 75
    0
 76
    1
 77
    0
 78
    0
281
    0
 65
    1
110
0
120
0
130
0
111
1
121
0
131
0
112
0
122
1
132
0
 79
    0
146
0
348
10020
 60
    7
 61
    5
292
1
282
    1
141
0
142
0
 63
  250
421
3358443
  0
ENDTAB
  0
TABLE
  2
LTYPE
  5
5
330
0
100
AcDbSymbolTable
 70
    4
  0
LTYPE
  5
14
330
5
100
AcDbSymbolTableRecord
100
AcDbLinetypeTableRecord
  2
ByBlock
 70
    0
  3

 72
   65
 73
    0
 40
0
  0
LTYPE
  5
15
330
5
100
AcDbSymbolTableRecord
100
AcDbLinetypeTableRecord
  2
ByLayer
 70
    0
  3

 72
   65
 73
    0
 40
0
  0
LTYPE
  5
16
330
5
100
AcDbSymbolTableRecord
100
AcDbLinetypeTableRecord
  2
Continuous
 70
    0
  3
Solid line
 72
   65
 73
    0
 40
0
  0
LTYPE
  5
32
330
5
100
AcDbSymbolTableRecord
100
AcDbLinetypeTableRecord
  2
DOT
 70
    0
  3
Dot . . . . . . . . . . . . . . . . . . . . . .
 72
   65
 73
    2
 40
6.35
 49
0
 74
    0
 49
-6.35
 74
    0
  0
LTYPE
  5
33
330
5
100
AcDbSymbolTableRecord
100
AcDbLinetypeTableRecord
  2
DOTTINY
 70
    0
  3
Dot (.15x) .....................................
 72
   65
 73
    2
 40
0.9525
 49
0
 74
    0
 49
-0.9525
 74
    0
  0
LTYPE
  5
34
330
5
100
AcDbSymbolTableRecord
100
AcDbLinetypeTableRecord
  2
DOT2
 70
    0
  3
Dot (.5x) .....................................
 72
   65
 73
    2
 40
3.175
 49
0
 74
    0
 49
-3.175
 74
    0
  0
LTYPE
  5
35
330
5
100
AcDbSymbolTableRecord
100
AcDbLinetypeTableRecord
  2
DOTX2
 70
    0
  3
Dot (2x) .  .  .  .  .  .  .  .  .  .  .  .  .
 72
   65
 73
    2
 40
12.7
 49
0
 74
    0
 49
-12.7
 74
    0
  0
LTYPE
  5
36
330
5
100
AcDbSymbolTableRecord
100
AcDbLinetypeTableRecord
  2
DASHED
 70
    0
  3
Dashed _ _ _ _ _ _ _ _ _ _ _ _ _ _ _ _ _
 72
   65
 73
    2
 40
19.05
 49
12.7
 74
    0
 49
-6.35
 74
    0
  0
LTYPE
  5
37
330
5
100
AcDbSymbolTableRecord
100
AcDbLinetypeTableRecord
  2
DASHEDTINY
 70
    0
  3
Dashed (.15x) _ _ _ _ _ _ _ _ _ _ _ _ _ _ _ _ _
 72
   65
 73
    2
 40
2.8575
 49
1.905
 74
    0
 49
-0.9525
 74
    0
  0
LTYPE
  5
38
330
5
100
AcDbSymbolTableRecord
100
AcDbLinetypeTableRecord
  2
DASHED2
 70
    0
  3
Dashed (.5x) _ _ _ _ _ _ _ _ _ _ _ _ _ _ _ _ _
 72
   65
 73
    2
 40
9.524999999999999
 49
6.35
 74
    0
 49
-3.175
 74
    0
  0
LTYPE
  5
39
330
5
100
AcDbSymbolTableRecord
100
AcDbLinetypeTableRecord
  2
DASHEDX2
 70
    0
  3
Dashed (2x) ____  ____  ____  ____  ____  ___
 72
   65
 73
    2
 40
38.09999999999999
 49
25.4
 74
    0
 49
-12.7
 74
    0
  0
LTYPE
  5
3A
330
5
100
AcDbSymbolTableRecord
100
AcDbLinetypeTableRecord
  2
DASHDOT
 70
    0
  3
Dash dot __ . __ . __ . __ . __ . __ . __ . __
 72
   65
 73
    4
 40
25.4
 49
12.7
 74
    0
 49
-6.35
 74
    0
 49
0
 74
    0
 49
-6.35
 74
    0
  0
LTYPE
  5
3B
330
5
100
AcDbSymbolTableRecord
100
AcDbLinetypeTableRecord
  2
DASHDOTTINY
 70
    0
  3
Dash dot (.15x) _._._._._._._._._._._._._._._.
 72
   65
 73
    4
 40
3.81
 49
1.905
 74
    0
 49
-0.9525
 74
    0
 49
0
 74
    0
 49
-0.9525
 74
    0
  0
LTYPE
  5
3C
330
5
100
AcDbSymbolTableRecord
100
AcDbLinetypeTableRecord
  2
DASHDOT2
 70
    0
  3
Dash dot (.5x) _._._._._._._._._._._._._._._.
 72
   65
 73
    4
 40
12.7
 49
6.35
 74
    0
 49
-3.175
 74
    0
 49
0
 74
    0
 49
-3.175
 74
    0
  0
LTYPE
  5
3D
330
5
100
AcDbSymbolTableRecord
100
AcDbLinetypeTableRecord
  2
DASHDOTX2
 70
    0
  3
Dash dot (2x) ____  .  ____  .  ____  .  ___
 72
   65
 73
    4
 40
50.8
 49
25.4
 74
    0
 49
-12.7
 74
    0
 49
0
 74
    0
 49
-12.7
 74
    0
  0
LTYPE
  5
3E
330
5
100
AcDbSymbolTableRecord
100
AcDbLinetypeTableRecord
  2
DIVIDE
 70
    0
  3
Divide ____ . . ____ . . ____ . . ____ . . ____
 72
   65
 73
    6
 40
31.75
 49
12.7
 74
    0
 49
-6.35
 74
    0
 49
0
 74
    0
 49
-6.35
 74
    0
 49
0
 74
    0
 49
-6.35
 74
    0
  0
LTYPE
  5
3F
330
5
100
AcDbSymbolTableRecord
100
AcDbLinetypeTableRecord
  2
DIVIDETINY
 70
    0
  3
Divide (.15x) __..__..__..__..__..__..__..__.._
 72
   65
 73
    6
 40
4.7625
 49
1.905
 74
    0
 49
-0.9525
 74
    0
 49
0
 74
    0
 49
-0.9525
 74
    0
 49
0
 74
    0
 49
-0.9525
 74
    0
  0
LTYPE
  5
40
330
5
100
AcDbSymbolTableRecord
100
AcDbLinetypeTableRecord
  2
DIVIDE2
 70
    0
  3
Divide (.5x) __..__..__..__..__..__..__..__.._
 72
   65
 73
    6
 40
15.875
 49
6.35
 74
    0
 49
-3.175
 74
    0
 49
0
 74
    0
 49
-3.175
 74
    0
 49
0
 74
    0
 49
-3.175
 74
    0
  0
LTYPE
  5
41
330
5
100
AcDbSymbolTableRecord
100
AcDbLinetypeTableRecord
  2
DIVIDEX2
 70
    0
  3
Divide (2x) ________  .  .  ________  .  .  _
 72
   65
 73
    6
 40
63.5
 49
25.4
 74
    0
 49
-12.7
 74
    0
 49
0
 74
    0
 49
-12.7
 74
    0
 49
0
 74
    0
 49
-12.7
 74
    0
  0
LTYPE
  5
42
330
5
100
AcDbSymbolTableRecord
100
AcDbLinetypeTableRecord
  2
BORDER
 70
    0
  3
Border __ __ . __ __ . __ __ . __ __ . __ __ .
 72
   65
 73
    6
 40
44.45
 49
12.7
 74
    0
 49
-6.35
 74
    0
 49
12.7
 74
    0
 49
-6.35
 74
    0
 49
0
 74
    0
 49
-6.35
 74
    0
  0
LTYPE
  5
43
330
5
100
AcDbSymbolTableRecord
100
AcDbLinetypeTableRecord
  2
BORDERTINY
 70
    0
  3
Border (.15x) __.__.__.__.__.__.__.__.__.__.__.
 72
   65
 73
    6
 40
6.6675
 49
1.905
 74
    0
 49
-0.9525
 74
    0
 49
1.905
 74
    0
 49
-0.9525
 74
    0
 49
0
 74
    0
 49
-0.9525
 74
    0
  0
LTYPE
  5
44
330
5
100
AcDbSymbolTableRecord
100
AcDbLinetypeTableRecord
  2
BORDER2
 70
    0
  3
Border (.5x) __.__.__.__.__.__.__.__.__.__.__.
 72
   65
 73
    6
 40
22.225
 49
6.35
 74
    0
 49
-3.175
 74
    0
 49
6.35
 74
    0
 49
-3.175
 74
    0
 49
0
 74
    0
 49
-3.175
 74
    0
  0
LTYPE
  5
45
330
5
100
AcDbSymbolTableRecord
100
AcDbLinetypeTableRecord
  2
BORDERX2
 70
    0
  3
Border (2x) ____  ____  .  ____  ____  .  ___
 72
   65
 73
    6
 40
88.89999999999999
 49
25.4
 74
    0
 49
-12.7
 74
    0
 49
25.4
 74
    0
 49
-12.7
 74
    0
 49
0
 74
    0
 49
-12.7
 74
    0
  0
LTYPE
  5
46
330
5
100
AcDbSymbolTableRecord
100
AcDbLinetypeTableRecord
  2
CENTER
 70
    0
  3
Center ____ _ ____ _ ____ _ ____ _ ____ _ ____
 72
   65
 73
    4
 40
50.8
 49
31.75
 74
    0
 49
-6.35
 74
    0
 49
6.35
 74
    0
 49
-6.35
 74
    0
  0
LTYPE
  5
47
330
5
100
AcDbSymbolTableRecord
100
AcDbLinetypeTableRecord
  2
CENTERTINY
 70
    0
  3
Center (.15x) ___ _ ___ _ ___ _ ___ _ ___ _ ___
 72
   65
 73
    4
 40
7.619999999999999
 49
4.7625
 74
    0
 49
-0.9525
 74
    0
 49
0.9525
 74
    0
 49
-0.9525
 74
    0
  0
LTYPE
  5
48
330
5
100
AcDbSymbolTableRecord
100
AcDbLinetypeTableRecord
  2
CENTER2
 70
    0
  3
Center (.5x) ___ _ ___ _ ___ _ ___ _ ___ _ ___
 72
   65
 73
    4
 40
28.575
 49
19.05
 74
    0
 49
-3.175
 74
    0
 49
3.175
 74
    0
 49
-3.175
 74
    0
  0
LTYPE
  5
49
330
5
100
AcDbSymbolTableRecord
100
AcDbLinetypeTableRecord
  2
CENTERX2
 70
    0
  3
Center (2x) ________  __  ________  __  _____
 72
   65
 73
    4
 40
101.6
 49
63.5
 74
    0
 49
-12.7
 74
    0
 49
12.7
 74
    0
 49
-12.7
 74
    0
  0
ENDTAB
  0
TABLE
  2
LAYER
  5
2
330
0
100
AcDbSymbolTable
 70
    1
  0
LAYER
  5
10
330
2
100
AcDbSymbolTableRecord
100
AcDbLayerTableRecord
  2
0
 70
    0
 62
    7
  6
CONTINUOUS
370
   -3
390
F
  0
LAYER
  5
4A
330
2
100
AcDbSymbolTableRecord
100
AcDbLayerTableRecord
  2
Defpoints
 70
    0
 62
    7
  6
CONTINUOUS
290
0
370
   -3
390
F
  0
ENDTAB
  0
TABLE
  2
STYLE
  5
3
330
0
100
AcDbSymbolTable
 70
    3
  0
STYLE
  5
4B
330
2
100
AcDbSymbolTableRecord
100
AcDbTextStyleTableRecord
  2
Standard
 70
    0
 40
0
 41
1
 50
0
 71
    0
 42
1
  3
txt
  4

  0
ENDTAB
  0
TABLE
  2
VIEW
  5
6
330
0
100
AcDbSymbolTable
 70
    0
  0
ENDTAB
  0
TABLE
  2
UCS
  5
7
330
0
100
AcDbSymbolTable
 70
    0
  0
ENDTAB
  0
TABLE
  2
APPID
  5
9
330
0
100
AcDbSymbolTable
 70
    1
  0
APPID
  5
12
330
9
100
AcDbSymbolTableRecord
100
AcDbRegAppTableRecord
  2
ACAD
 70
    0
  0
APPID
  5
4C
330
9
100
AcDbSymbolTableRecord
100
AcDbRegAppTableRecord
  2
LibreCad
 70
    0
  0
ENDTAB
  0
TABLE
  2
DIMSTYLE
  5
A
330
0
100
AcDbSymbolTable
 70
    1
100
AcDbDimStyleTable
 71
    1
  0
DIMSTYLE
105
4D
330
A
100
AcDbSymbolTableRecord
100
AcDbDimStyleTableRecord
  2
Standard
 70
    0
 40
1
 41
2
 42
1
 43
0.38
 44
1
 45
0
 46
0
 47
0
 48
0
 49
1
140
2
141
0.09
142
0
143
25.4
144
1
145
0
146
1
147
2
148
0
 71
    0
 72
    0
 73
    1
 74
    1
 75
    0
 76
    0
 77
    0
 78
    0
 79
    0
170
    0
171
    2
172
    0
173
    0
174
    0
175
    0
176
    4
177
    4
178
    4
179
    0
271
    1
272
    4
273
    2
274
    2
275
    0
276
    0
277
    2
278
    0
279
    0
280
    0
281
    0
282
    0
283
    1
284
    0
285
    0
286
    0
288
    0
289
    3
340
standard
341

371
   -2
372
   -2
  0
ENDTAB
  0
TABLE
  2
BLOCK_RECORD
  5
1
330
0
100
AcDbSymbolTable
 70
    2
  0
BLOCK_RECORD
  5
1F
330
1
100
AcDbSymbolTableRecord
100
AcDbBlockTableRecord
  2
*Model_Space
 70
    0
280
    1
281
    0
  0
BLOCK_RECORD
  5
1E
330
1
100
AcDbSymbolTableRecord
100
AcDbBlockTableRecord
  2
*Paper_Space
 70
    0
280
    1
281
    0
  0
BLOCK_RECORD
  5
4E
330
1
100
AcDbSymbolTableRecord
100
AcDbBlockTableRecord
  2
*D6
 70
    0
280
    1
281
    0
  0
BLOCK_RECORD
  5
51
330
1
100
AcDbSymbolTableRecord
100
AcDbBlockTableRecord
  2
*D2
 70
    0
280
    1
281
    0
  0
BLOCK_RECORD
  5
54
330
1
100
AcDbSymbolTableRecord
100
AcDbBlockTableRecord
  2
*D3
 70
    0
280
    1
281
    0
  0
BLOCK_RECORD
  5
57
330
1
100
AcDbSymbolTableRecord
100
AcDbBlockTableRecord
  2
*D1
 70
    0
280
    1
281
    0
  0
BLOCK_RECORD
  5
5A
330
1
100
AcDbSymbolTableRecord
100
AcDbBlockTableRecord
  2
*D4
 70
    0
280
    1
281
    0
  0
BLOCK_RECORD
  5
5D
330
1
100
AcDbSymbolTableRecord
100
AcDbBlockTableRecord
  2
*D5
 70
    0
280
    1
281
    0
  0
ENDTAB
  0
ENDSEC
  0
SECTION
  2
BLOCKS
  0
BLOCK
  5
20
330
1F
100
AcDbEntity
  8
0
100
AcDbBlockBegin
  2
*Model_Space
 70
    0
 10
0
 20
0
 30
0
  3
*Model_Space
  1

  0
ENDBLK
  5
21
330
1F
100
AcDbEntity
  8
0
100
AcDbBlockEnd
  0
BLOCK
  5
1C
330
1B
100
AcDbEntity
  8
0
100
AcDbBlockBegin
  2
*Paper_Space
 70
    0
 10
0
 20
0
 30
0
  3
*Paper_Space
  1

  0
ENDBLK
  5
1D
330
1F
100
AcDbEntity
  8
0
100
AcDbBlockEnd
  0
BLOCK
  5
4F
330
4E
100
AcDbEntity
  8
0
100
AcDbBlockBegin
  2
*D6
 70
    1
 10
0
 20
0
  3
*D6
  1

  0
LINE
  5
60
100
AcDbEntity
  8
0
  6
ByBlock
 62
    4
370
   -2
100
AcDbLine
 10
280
 20
134.5250687142907
 11
280
 21
87.5250687142907
  0
SOLID
  5
61
100
AcDbEntity
  8
0
  6
ByBlock
 62
    4
370
   -2
100
AcDbTrace
 10
280
 20
134.5250687142907
 30
0
 11
280.3330277262183
 21
132.5250687142907
 31
0
 12
279.6669722737817
 22
132.5250687142907
 32
0
 13
279.6669722737817
 23
132.5250687142907
 33
0
  0
SOLID
  5
62
100
AcDbEntity
  8
0
  6
ByBlock
 62
    4
370
   -2
100
AcDbTrace
 10
280
 20
34.52506871429069
 30
0
 11
279.6669722737817
 21
36.52506871429069
 31
0
 12
280.3330277262183
 22
36.52506871429069
 32
0
 13
280.3330277262183
 23
36.52506871429069
 33
0
  0
LINE
  5
63
100
AcDbEntity
  8
0
  6
ByBlock
 62
    4
370
   -2
100
AcDbLine
 10
280
 20
81.5250687142907
 11
280
 21
34.52506871429069
  0
MTEXT
  5
64
100
AcDbEntity
  8
0
  6
CONTINUOUS
 62
    4
370
   -2
100
AcDbMText
 10
280
 20
84.5250687142907
 30
0
 40
2
 41
5.777777777777778
 71
    5
 72
    1
  1
100.0
  7
standard
210
0
220
0
230
1
 50
0
 73
    2
 44
1
  0
LINE
  5
65
100
AcDbEntity
  8
0
  6
ByBlock
 62
    4
370
   -2
100
AcDbLine
 10
230.7359419483599
 20
134.5250687142907
 11
281
 21
134.5250687142907
  0
LINE
  5
66
100
AcDbEntity
  8
0
  6
ByBlock
 62
    4
370
   -2
100
AcDbLine
 10
261.7359419483598
 20
34.52506871429069
 11
281
 21
34.52506871429069
  0
ENDBLK
  5
50
330
4E
100
AcDbEntity
  8
0
100
AcDbBlockEnd
  0
BLOCK
  5
52
330
51
100
AcDbEntity
  8
0
100
AcDbBlockBegin
  2
*D2
 70
    1
 10
0
 20
0
  3
*D2
  1

  0
LINE
  5
67
100
AcDbEntity
  8
0
  6
ByBlock
 62
    4
370
   -2
100
AcDbLine
 10
70
 20
191.9175547109866
 11
70
 21
169.0175547109865
  0
SOLID
  5
68
100
AcDbEntity
  8
0
  6
ByBlock
 62
    4
370
   -2
100
AcDbTrace
 10
70
 20
191.9175547109866
 30
0
 11
70.33302772621828
 21
189.9175547109866
 31
0
 12
69.66697227378172
 22
189.9175547109866
 32
0
 13
69.66697227378172
 23
189.9175547109866
 33
0
  0
SOLID
  5
69
100
AcDbEntity
  8
0
  6
ByBlock
 62
    4
370
   -2
100
AcDbTrace
 10
70
 20
140.1175547109865
 30
0
 11
69.66697227378172
 21
142.1175547109865
 31
0
 12
70.33302772621828
 22
142.1175547109865
 32
0
 13
70.33302772621828
 23
142.1175547109865
 33
0
  0
LINE
  5
6A
100
AcDbEntity
  8
0
  6
ByBlock
 62
    4
370
   -2
100
AcDbLine
 10
70
 20
163.0175547109865
 11
70
 21
140.1175547109865
  0
MTEXT
  5
6B
100
AcDbEntity
  8
0
  6
CONTINUOUS
 62
    4
370
   -2
100
AcDbMText
 10
70
 20
166.0175547109865
 30
0
 40
2
 41
4.222222222222346
 71
    5
 72
    1
  1
51.8
  7
standard
210
0
220
0
230
1
 50
0
 73
    2
 44
1
  0
LINE
  5
6C
100
AcDbEntity
  8
0
  6
ByBlock
 62
    4
370
   -2
100
AcDbLine
 10
84.21964076930487
 20
191.9175547109866
 11
69
 21
191.9175547109866
  0
LINE
  5
6D
100
AcDbEntity
  8
0
  6
ByBlock
 62
    4
370
   -2
100
AcDbLine
 10
84.21964076930487
 20
140.1175547109865
 11
69
 21
140.1175547109865
  0
ENDBLK
  5
53
330
51
100
AcDbEntity
  8
0
100
AcDbBlockEnd
  0
BLOCK
  5
55
330
54
100
AcDbEntity
  8
0
100
AcDbBlockBegin
  2
*D3
 70
    1
 10
0
 20
0
  3
*D3
  1

  0
LINE
  5
6E
100
AcDbEntity
  8
0
  6
ByBlock
 62
    4
370
   -2
100
AcDbLine
 10
335.9946961955357
 20
160
 11
357.7835850844246
 21
160
  0
SOLID
  5
6F
100
AcDbEntity
  8
0
  6
ByBlock
 62
    4
370
   -2
100
AcDbTrace
 10
335.9946961955357
 20
160
 30
0
 11
337.9946961955357
 21
160.3330277262183
 31
0
 12
337.9946961955357
 22
159.6669722737817
 32
0
 13
337.9946961955357
 23
159.6669722737817
 33
0
  0
SOLID
  5
70
100
AcDbEntity
  8
0
  6
ByBlock
 62
    4
370
   -2
100
AcDbTrace
 10
387.7946961955357
 20
160
 30
0
 11
385.7946961955357
 21
159.6669722737817
 31
0
 12
385.7946961955357
 22
160.3330277262183
 32
0
 13
385.7946961955357
 23
160.3330277262183
 33
0
  0
LINE
  5
71
100
AcDbEntity
  8
0
  6
ByBlock
 62
    4
370
   -2
100
AcDbLine
 10
366.0058073066469
 20
160
 11
387.7946961955357
 21
160
  0
MTEXT
  5
72
100
AcDbEntity
  8
0
  6
CONTINUOUS
 62
    4
370
   -2
100
AcDbMText
 10
361.8946961955357
 20
160
 30
0
 40
2
 41
4.222222222222346
 71
    5
 72
    1
  1
51.8
  7
standard
210
0
220
0
230
1
 50
0
 73
    2
 44
1
  0
LINE
  5
73
100
AcDbEntity
  8
0
  6
ByBlock
 62
    4
370
   -2
100
AcDbLine
 10
335.9946961955357
 20
155.061439596242
 11
335.9946961955357
 21
161
  0
LINE
  5
74
100
AcDbEntity
  8
0
  6
ByBlock
 62
    4
370
   -2
100
AcDbLine
 10
387.7946961955357
 20
155.061439596242
 11
387.7946961955357
 21
161
  0
ENDBLK
  5
56
330
54
100
AcDbEntity
  8
0
100
AcDbBlockEnd
  0
BLOCK
  5
58
330
57
100
AcDbEntity
  8
0
100
AcDbBlockBegin
  2
*D1
 70
    1
 10
0
 20
0
  3
*D1
  1

  0
LINE
  5
75
100
AcDbEntity
  8
0
  6
ByBlock
 62
    4
370
   -2
100
AcDbLine
 10
200.7359419483599
 20
150
 11
211.4026086150265
 21
150
  0
SOLID
  5
76
100
AcDbEntity
  8
0
  6
ByBlock
 62
    4
370
   -2
100
AcDbTrace
 10
200.7359419483599
 20
150
 30
0
 11
202.7359419483599
 21
150.3330277262183
 31
0
 12
202.7359419483599
 22
149.6669722737817
 32
0
 13
202.7359419483599
 23
149.6669722737817
 33
0
  0
SOLID
  5
77
100
AcDbEntity
  8
0
  6
ByBlock
 62
    4
370
   -2
100
AcDbTrace
 10
230.7359419483599
 20
150
 30
0
 11
228.7359419483599
 21
149.6669722737817
 31
0
 12
228.7359419483599
 22
150.3330277262183
 32
0
 13
228.7359419483599
 23
150.3330277262183
 33
0
  0
LINE
  5
78
100
AcDbEntity
  8
0
  6
ByBlock
 62
    4
370
   -2
100
AcDbLine
 10
220.0692752816933
 20
150
 11
230.7359419483599
 21
150
  0
MTEXT
  5
79
100
AcDbEntity
  8
0
  6
CONTINUOUS
 62
    4
370
   -2
100
AcDbMText
 10
215.7359419483599
 20
150
 30
0
 40
2
 41
4.66666666666679
 71
    5
 72
    1
  1
30.0
  7
standard
210
0
220
0
230
1
 50
0
 73
    2
 44
1
  0
LINE
  5
7A
100
AcDbEntity
  8
0
  6
ByBlock
 62
    4
370
   -2
100
AcDbLine
 10
200.7359419483599
 20
133.5250687142907
 11
200.7359419483599
 21
151
  0
LINE
  5
7B
100
AcDbEntity
  8
0
  6
ByBlock
 62
    4
370
   -2
100
AcDbLine
 10
230.7359419483599
 20
133.5250687142907
 11
230.7359419483599
 21
151
  0
ENDBLK
  5
59
330
57
100
AcDbEntity
  8
0
100
AcDbBlockEnd
  0
BLOCK
  5
5B
330
5A
100
AcDbEntity
  8
0
100
AcDbBlockBegin
  2
*D4
 70
    1
 10
0
 20
0
  3
*D4
  1

  0
LINE
  5
7C
100
AcDbEntity
  8
0
  6
ByBlock
 62
    4
370
   -2
100
AcDbLine
 10
333.9946961955357
 20
166
 11
357.5613628622022
 21
166
  0
SOLID
  5
7D
100
AcDbEntity
  8
0
  6
ByBlock
 62
    4
370
   -2
100
AcDbTrace
 10
333.9946961955357
 20
166
 30
0
 11
335.9946961955357
 21
166.3330277262183
 31
0
 12
335.9946961955357
 22
165.6669722737817
 32
0
 13
335.9946961955357
 23
165.6669722737817
 33
0
  0
SOLID
  5
7E
100
AcDbEntity
  8
0
  6
ByBlock
 62
    4
370
   -2
100
AcDbTrace
 10
389.7946961955357
 20
166
 30
0
 11
387.7946961955357
 21
165.6669722737817
 31
0
 12
387.7946961955357
 22
166.3330277262183
 32
0
 13
387.7946961955357
 23
166.3330277262183
 33
0
  0
LINE
  5
7F
100
AcDbEntity
  8
0
  6
ByBlock
 62
    4
370
   -2
100
AcDbLine
 10
366.2280295288692
 20
166
 11
389.7946961955357
 21
166
  0
MTEXT
  5
80
100
AcDbEntity
  8
0
  6
CONTINUOUS
 62
    4
370
   -2
100
AcDbMText
 10
361.8946961955357
 20
166
 30
0
 40
2
 41
4.666666666666915
 71
    5
 72
    1
  1
55.8
  7
standard
210
0
220
0
230
1
 50
0
 73
    2
 44
1
  0
LINE
  5
81
100
AcDbEntity
  8
0
  6
ByBlock
 62
    4
370
   -2
100
AcDbLine
 10
333.9946961955357
 20
135.161439596242
 11
333.9946961955357
 21
167
  0
LINE
  5
82
100
AcDbEntity
  8
0
  6
ByBlock
 62
    4
370
   -2
100
AcDbLine
 10
389.7946961955357
 20
135.161439596242
 11
389.7946961955357
 21
167
  0
ENDBLK
  5
5C
330
5A
100
AcDbEntity
  8
0
100
AcDbBlockEnd
  0
BLOCK
  5
5E
330
5D
100
AcDbEntity
  8
0
100
AcDbBlockBegin
  2
*D5
 70
    1
 10
0
 20
0
  3
*D5
  1

  0
LINE
  5
83
100
AcDbEntity
  8
0
  6
ByBlock
 62
    4
370
   -2
100
AcDbLine
 10
200.7359419483599
 20
20
 11
226.4026086150265
 21
20
  0
SOLID
  5
84
100
AcDbEntity
  8
0
  6
ByBlock
 62
    4
370
   -2
100
AcDbTrace
 10
200.7359419483599
 20
20
 30
0
 11
202.7359419483599
 21
20.33302772621827
 31
0
 12
202.7359419483599
 22
19.66697227378173
 32
0
 13
202.7359419483599
 23
19.66697227378173
 33
0
  0
SOLID
  5
85
100
AcDbEntity
  8
0
  6
ByBlock
 62
    4
370
   -2
100
AcDbTrace
 10
260.7359419483598
 20
20
 30
0
 11
258.7359419483598
 21
19.66697227378173
 31
0
 12
258.7359419483598
 22
20.33302772621827
 32
0
 13
258.7359419483598
 23
20.33302772621827
 33
0
  0
LINE
  5
86
100
AcDbEntity
  8
0
  6
ByBlock
 62
    4
370
   -2
100
AcDbLine
 10
235.0692752816933
 20
20
 11
260.7359419483598
 21
20
  0
MTEXT
  5
87
100
AcDbEntity
  8
0
  6
CONTINUOUS
 62
    4
370
   -2
100
AcDbMText
 10
230.7359419483599
 20
20
 30
0
 40
2
 41
4.66666666666679
 71
    5
 72
    1
  1
60.0
  7
standard
210
0
220
0
230
1
 50
0
 73
    2
 44
1
  0
LINE
  5
88
100
AcDbEntity
  8
0
  6
ByBlock
 62
    4
370
   -2
100
AcDbLine
 10
200.7359419483599
 20
33.52506871429068
 11
200.7359419483599
 21
19
  0
LINE
  5
89
100
AcDbEntity
  8
0
  6
ByBlock
 62
    4
370
   -2
100
AcDbLine
 10
260.7359419483598
 20
33.52506871429068
 11
260.7359419483598
 21
19
  0
ENDBLK
  5
5F
330
5D
100
AcDbEntity
  8
0
100
AcDbBlockEnd
  0
ENDSEC
  0
SECTION
  2
ENTITIES
  0
LINE
  5
8A
100
AcDbEntity
  8
0
  6
ByLayer
 62
  256
370
   -1
100
AcDbLine
 10
74.03250534977089
 20
34.52506871429068
 11
81.56242418875756
 21
34.52506871429068
  0
LINE
  5
8B
100
AcDbEntity
  8
0
  6
ByLayer
 62
  256
370
   -1
100
AcDbLine
 10
134.0325053497708
 20
34.52506871429068
 11
134.0325053497708
 21
74.02506871429068
  0
LINE
  5
8C
100
AcDbEntity
  8
0
  6
ByLayer
 62
  256
370
   -1
100
AcDbLine
 10
133.0325053497708
 20
134.5250687142907
 11
121.0325053497709
 21
134.5250687142907
  0
LINE
  5
8D
100
AcDbEntity
  8
0
  6
ByLayer
 62
  256
370
   -1
100
AcDbLine
 10
104.0325053497708
 20
133.5250687142907
 11
104.0325053497708
 21
126.5250687142906
  0
LINE
  5
8E
100
AcDbEntity
  8
0
  6
ByLayer
 62
  256
370
   -1
100
AcDbLine
 10
106.0325053497708
 20
124.5250687142906
 11
111.1683344762498
 21
124.5250687142906
  0
LINE
  5
8F
100
AcDbEntity
  8
0
  6
ByLayer
 62
  256
370
   -1
100
AcDbLine
 10
113.0459445321845
 20
121.8361706972715
 11
106.1274714232153
 21
102.9796863408153
  0
LINE
  5
90
100
AcDbEntity
  8
0
  6
ByLayer
 62
  256
370
   -1
100
AcDbLine
 10
89.09921358356216
 20
66.0846487416984
 11
85.36242418875753
 21
66.0846487416984
  0
LINE
  5
91
100
AcDbEntity
  8
0
  6
ByLayer
 62
  256
370
   -1
100
AcDbLine
 10
74.03250534977089
 20
65.0846487416984
 11
74.03250534977089
 21
34.52506871429068
  0
ARC
  5
92
100
AcDbEntity
  8
0
  6
ByLayer
 62
  256
370
   -1
100
AcDbCircle
 10
133.0325053497708
 20
133.5250687142907
 40
1
100
AcDbArc
 50
0
 51
90
  0
ARC
  5
93
100
AcDbEntity
  8
0
  6
ByLayer
 62
  256
370
   -1
100
AcDbCircle
 10
105.0325053497708
 20
133.5250687142907
 40
1
100
AcDbArc
 50
90
 51
180
  0
LINE
  5
94
100
AcDbEntity
  8
0
  6
ByLayer
 62
  256
370
   -1
100
AcDbLine
 10
345.9946961955357
 20
144.061439596242
 11
377.7946961955357
 21
144.061439596242
  0
LINE
  5
95
100
AcDbEntity
  8
0
  6
ByLayer
 62
  256
370
   -1
100
AcDbLine
 10
387.7946961955357
 20
154.061439596242
 11
387.7946961955357
 21
134.161439596242
  0
LINE
  5
96
100
AcDbEntity
  8
0
  6
ByLayer
 62
  256
370
   -1
100
AcDbLine
 10
335.9946961955357
 20
154.061439596242
 11
387.7946961955357
 21
154.061439596242
  0
LINE
  5
97
100
AcDbEntity
  8
0
  6
ByLayer
 62
  256
370
   -1
100
AcDbLine
 10
345.9946961955357
 20
144.061439596242
 11
345.9946961955357
 21
100.261439596242
  0
LINE
  5
98
100
AcDbEntity
  8
0
  6
ByLayer
 62
  256
370
   -1
100
AcDbLine
 10
345.9946961955357
 20
100.261439596242
 11
377.7946961955357
 21
100.261439596242
  0
LINE
  5
99
100
AcDbEntity
  8
0
  6
ByLayer
 62
  256
370
   -1
100
AcDbLine
 10
377.7946961955357
 20
100.261439596242
 11
377.7946961955357
 21
144.061439596242
  0
LINE
  5
9A
100
AcDbEntity
  8
0
  6
ByLayer
 62
  256
370
   -1
100
AcDbLine
 10
335.9946961955357
 20
122.161439596242
 11
335.9946961955357
 21
90.26143959624206
  0
LINE
  5
9B
100
AcDbEntity
  8
0
  6
ByLayer
 62
  256
370
   -1
100
AcDbLine
 10
335.9946961955357
 20
90.26143959624206
 11
387.7946961955357
 21
90.26143959624208
  0
LINE
  5
9C
100
AcDbEntity
  8
0
  6
ByLayer
 62
  256
370
   -1
100
AcDbLine
 10
387.7946961955357
 20
90.26143959624208
 11
387.7946961955357
 21
122.161439596242
  0
LWPOLYLINE
  5
9D
100
AcDbEntity
  8
0
  6
ByLayer
 62
  256
370
   -1
100
AcDbPolyline
 90
    8
 70
    1
 43
0
 10
368.2654541651974
 20
81.75545789755688
 10
378.7654541651974
 20
81.75545789755687
 42
-0.4142135623730867
 10
379.2654541651973
 20
81.25545789755689
 10
379.2654541651973
 20
70.75545789755688
 42
-0.414213562373095
 10
378.7654541651974
 20
70.25545789755688
 10
368.2654541651974
 20
70.25545789755688
 42
-0.414213562373095
 10
367.7654541651973
 20
70.75545789755688
 10
367.7654541651973
 20
81.25545789755689
 42
-0.4142135623730867
  0
LWPOLYLINE
  5
9E
100
AcDbEntity
  8
0
  6
ByLayer
 62
  256
370
   -1
100
AcDbPolyline
 90
    3
 70
    0
 43
0
 10
356.1446961955356
 20
84.00545789755687
 10
335.9946961955357
 20
84.00545789755687
 10
335.9946961955357
 20
78.00545789755688
  0
LINE
  5
9F
100
AcDbEntity
  8
0
  6
ByLayer
 62
  256
370
   -1
100
AcDbLine
 10
356.1446961955356
 20
84.00545789755687
 11
356.1446961955356
 21
87.00545789755688
  0
LINE
  5
A0
100
AcDbEntity
  8
0
  6
ByLayer
 62
  256
370
   -1
100
AcDbLine
 10
356.1446961955356
 20
87.00545789755688
 11
367.6446961955356
 21
87.00545789755688
  0
LINE
  5
A1
100
AcDbEntity
  8
0
  6
ByLayer
 62
  256
370
   -1
100
AcDbLine
 10
367.6446961955356
 20
87.00545789755688
 11
367.6446961955356
 21
84.00545789755687
  0
LINE
  5
A2
100
AcDbEntity
  8
0
  6
ByLayer
 62
  256
370
   -1
100
AcDbLine
 10
356.2446961955355
 20
94.81330938143671
 11
367.5446961955357
 21
94.81330938143672
  0
LINE
  5
A3
100
AcDbEntity
  8
0
  6
ByLayer
 62
  256
370
   -1
100
AcDbLine
 10
367.5446961955357
 20
91.81330938143677
 11
356.2446961955355
 21
91.81330938143672
  0
LINE
  5
A4
100
AcDbEntity
  8
0
  6
ByLayer
 62
  256
370
   -1
100
AcDbLine
 10
356.2446961955355
 20
94.81330938143672
 11
356.2446961955355
 21
91.81330938143672
  0
LINE
  5
A5
100
AcDbEntity
  8
0
  6
ByLayer
 62
  256
370
   -1
100
AcDbLine
 10
367.5446961955357
 20
94.81330938143672
 11
367.5446961955357
 21
91.81330938143677
  0
LINE
  5
A6
100
AcDbEntity
  8
0
  6
ByLayer
 62
  256
370
   -1
100
AcDbLine
 10
75.03250534977089
 20
66.0846487416984
 11
75.03250534977089
 21
66.0846487416984
  0
LINE
  5
A7
100
AcDbEntity
  8
0
  6
ByLayer
 62
  256
370
   -1
100
AcDbLine
 10
335.9946961955357
 20
78.00545789755688
 11
333.9946961955357
 21
78.00545789755688
  0
LINE
  5
A8
100
AcDbEntity
  8
0
  6
ByLayer
 62
  256
370
   -1
100
AcDbLine
 10
333.9946961955357
 20
78.00545789755688
 11
333.9946961955357
 21
74.00545789755688
  0
LINE
  5
A9
100
AcDbEntity
  8
0
  6
ByLayer
 62
  256
370
   -1
100
AcDbLine
 10
333.9946961955357
 20
74.00545789755688
 11
335.9946961955357
 21
74.00545789755688
  0
LWPOLYLINE
  5
AA
100
AcDbEntity
  8
0
  6
ByLayer
 62
  256
370
   -1
100
AcDbPolyline
 90
    4
 70
    0
 43
0
 10
335.9946961955357
 20
74.00545789755688
 10
335.9946961955357
 20
68.00545789755688
 10
387.7946961955357
 20
68.00545789755688
 10
387.7946961955357
 20
74.00545789755688
  0
LINE
  5
AB
100
AcDbEntity
  8
0
  6
ByLayer
 62
  256
370
   -1
100
AcDbLine
 10
387.7946961955357
 20
78.00545789755688
 11
389.7946961955357
 21
78.00545789755688
  0
LINE
  5
AC
100
AcDbEntity
  8
0
  6
ByLayer
 62
  256
370
   -1
100
AcDbLine
 10
389.7946961955357
 20
78.00545789755688
 11
389.7946961955357
 21
74.00545789755688
  0
LINE
  5
AD
100
AcDbEntity
  8
0
  6
ByLayer
 62
  256
370
   -1
100
AcDbLine
 10
389.7946961955357
 20
74.00545789755688
 11
387.7946961955357
 21
74.00545789755688
  0
LWPOLYLINE
  5
AE
100
AcDbEntity
  8
0
  6
ByLayer
 62
  256
370
   -1
100
AcDbPolyline
 90
    3
 70
    0
 43
0
 10
387.7946961955357
 20
78.00545789755688
 10
387.7946961955357
 20
84.00545789755687
 10
367.6446961955356
 20
84.00545789755687
  0
LINE
  5
AF
100
AcDbEntity
  8
0
  6
ByLayer
 62
  256
370
   -1
100
AcDbLine
 10
335.9946961955357
 20
134.161439596242
 11
333.9946961955357
 21
134.161439596242
  0
LINE
  5
B0
100
AcDbEntity
  8
0
  6
ByLayer
 62
  256
370
   -1
100
AcDbLine
 10
333.9946961955357
 20
134.161439596242
 11
333.9946961955357
 21
122.161439596242
  0
LINE
  5
B1
100
AcDbEntity
  8
0
  6
ByLayer
 62
  256
370
   -1
100
AcDbLine
 10
333.9946961955357
 20
122.161439596242
 11
335.9946961955357
 21
122.161439596242
  0
LINE
  5
B2
100
AcDbEntity
  8
0
  6
ByLayer
 62
  256
370
   -1
100
AcDbLine
 10
335.9946961955357
 20
134.161439596242
 11
335.9946961955357
 21
154.061439596242
  0
LINE
  5
B3
100
AcDbEntity
  8
0
  6
ByLayer
 62
  256
370
   -1
100
AcDbLine
 10
387.7946961955357
 20
134.161439596242
 11
389.7946961955357
 21
134.161439596242
  0
LINE
  5
B4
100
AcDbEntity
  8
0
  6
ByLayer
 62
  256
370
   -1
100
AcDbLine
 10
389.7946961955357
 20
134.161439596242
 11
389.7946961955357
 21
122.161439596242
  0
LINE
  5
B5
100
AcDbEntity
  8
0
  6
ByLayer
 62
  256
370
   -1
100
AcDbLine
 10
389.7946961955357
 20
122.161439596242
 11
387.7946961955357
 21
122.161439596242
  0
LINE
  5
B6
100
AcDbEntity
  8
0
  6
ByLayer
 62
  256
370
   -1
100
AcDbLine
 10
81.56242418875755
 20
66.0846487416984
 11
75.03250534977089
 21
66.0846487416984
  0
LWPOLYLINE
  5
B7
100
AcDbEntity
  8
0
  6
ByLayer
 62
  256
370
   -1
100
AcDbPolyline
 90
    4
 70
    0
 43
0
 10
125.1196407693048
 20
191.9175547109866
 10
85.21964076930487
 20
191.9175547109866
 10
85.21964076930487
 20
140.1175547109865
 10
125.1196407693048
 20
140.1175547109865
  0
LINE
  5
B8
100
AcDbEntity
  8
0
  6
ByLayer
 62
  256
370
   -1
100
AcDbLine
 10
131.7325053497708
 20
94.0250687142907
 11
134.0325053497708
 21
94.0250687142907
  0
LINE
  5
B9
100
AcDbEntity
  8
0
  6
ByLayer
 62
  256
370
   -1
100
AcDbLine
 10
134.0325053497708
 20
94.0250687142907
 11
134.0325053497708
 21
133.5250687142907
  0
LINE
  5
BA
100
AcDbEntity
  8
0
  6
ByLayer
 62
  256
370
   -1
100
AcDbLine
 10
145.3196407693048
 20
194.2175547109867
 11
145.3196407693048
 21
191.9175547109866
  0
LINE
  5
BB
100
AcDbEntity
  8
0
  6
ByLayer
 62
  256
370
   -1
100
AcDbLine
 10
125.1196407693048
 20
191.9175547109866
 11
125.1196407693048
 21
194.2175547109867
  0
LINE
  5
BC
100
AcDbEntity
  8
0
  6
ByLayer
 62
  256
370
   -1
100
AcDbLine
 10
125.1196407693048
 20
194.2175547109867
 11
145.3196407693048
 21
194.2175547109867
  0
LINE
  5
BD
100
AcDbEntity
  8
0
  6
ByLayer
 62
  256
370
   -1
100
AcDbLine
 10
145.3196407693048
 20
137.8175547109865
 11
145.3196407693048
 21
140.1175547109865
  0
LINE
  5
BE
100
AcDbEntity
  8
0
  6
ByLayer
 62
  256
370
   -1
100
AcDbLine
 10
125.1196407693048
 20
140.1175547109865
 11
125.1196407693048
 21
137.8175547109865
  0
LINE
  5
BF
100
AcDbEntity
  8
0
  6
ByLayer
 62
  256
370
   -1
100
AcDbLine
 10
125.1196407693048
 20
137.8175547109865
 11
145.3196407693048
 21
137.8175547109865
  0
LWPOLYLINE
  5
C0
100
AcDbEntity
  8
0
  6
ByLayer
 62
  256
370
   -1
100
AcDbPolyline
 90
    4
 70
    0
 43
0
 10
145.3196407693048
 20
140.1175547109865
 10
185.2196407693048
 20
140.1175547109865
 10
185.2196407693048
 20
191.9175547109865
 10
145.3196407693048
 20
191.9175547109866
  0
LINE
  5
C1
100
AcDbEntity
  8
0
  6
ByLayer
 62
  256
370
   -1
100
AcDbLine
 10
104.0325053497708
 20
34.52506871429068
 11
104.0325053497708
 21
34.52506871429068
  0
LINE
  5
C2
100
AcDbEntity
  8
0
  6
ByLayer
 62
  256
370
   -1
100
AcDbLine
 10
117.0325053497708
 20
134.5250687142906
 11
105.0325053497708
 21
134.5250687142907
  0
LINE
  5
C3
100
AcDbEntity
  8
0
  6
ByLayer
 62
  256
370
   -1
100
AcDbLine
 10
335.9946961955357
 20
37.75295458423863
 11
335.9946961955357
 21
48.05295458423861
  0
LINE
  5
C4
100
AcDbEntity
  8
0
  6
ByLayer
 62
  256
370
   -1
100
AcDbLine
 10
387.7946961955357
 20
37.75295458423862
 11
387.7946961955357
 21
48.05295458423861
  0
LINE
  5
C5
100
AcDbEntity
  8
0
  6
ByLayer
 62
  256
370
   -1
100
AcDbLine
 10
335.9946961955357
 20
48.05295458423861
 11
333.6946961955357
 21
48.05295458423861
  0
LINE
  5
C6
100
AcDbEntity
  8
0
  6
ByLayer
 62
  256
370
   -1
100
AcDbLine
 10
333.6946961955357
 20
48.05295458423861
 11
333.6946961955357
 21
52.25295458423865
  0
LINE
  5
C7
100
AcDbEntity
  8
0
  6
ByLayer
 62
  256
370
   -1
100
AcDbLine
 10
333.6946961955357
 20
52.25295458423865
 11
335.9946961955357
 21
52.25295458423865
  0
LINE
  5
C8
100
AcDbEntity
  8
0
  6
ByLayer
 62
  256
370
   -1
100
AcDbLine
 10
335.9946961955357
 20
52.25295458423861
 11
335.9946961955357
 21
62.5529545842386
  0
LINE
  5
C9
100
AcDbEntity
  8
0
  6
ByLayer
 62
  256
370
   -1
100
AcDbLine
 10
387.7946961955357
 20
48.05295458423861
 11
390.0946961955357
 21
48.05295458423861
  0
LINE
  5
CA
100
AcDbEntity
  8
0
  6
ByLayer
 62
  256
370
   -1
100
AcDbLine
 10
390.0946961955357
 20
48.05295458423861
 11
390.0946961955357
 21
52.25295458423865
  0
LINE
  5
CB
100
AcDbEntity
  8
0
  6
ByLayer
 62
  256
370
   -1
100
AcDbLine
 10
390.0946961955357
 20
52.25295458423865
 11
387.7946961955357
 21
52.25295458423865
  0
LINE
  5
CC
100
AcDbEntity
  8
0
  6
ByLayer
 62
  256
370
   -1
100
AcDbLine
 10
387.7946961955357
 20
52.25295458423861
 11
387.7946961955357
 21
62.5529545842386
  0
LINE
  5
CD
100
AcDbEntity
  8
0
  6
ByLayer
 62
  256
370
   -1
100
AcDbLine
 10
93.79323872339893
 20
69.3624036991506
 11
101.9940833211006
 21
91.71402600520712
  0
LINE
  5
CE
100
AcDbEntity
  8
0
  6
ByLayer
 62
  256
370
   -1
100
AcDbLine
 10
101.9940833211006
 20
91.71402600520712
 11
104.446228201491
 21
90.81433027754254
  0
LINE
  5
CF
100
AcDbEntity
  8
0
  6
ByLayer
 62
  256
370
   -1
100
AcDbLine
 10
108.5683644959304
 20
102.0841189186904
 11
106.1274714232153
 21
102.9796863408153
  0
LINE
  5
D0
100
AcDbEntity
  8
0
  6
ByLayer
 62
  256
370
   -1
100
AcDbLine
 10
121.0325053497708
 20
134.5250687142907
 11
121.0325053497708
 21
131.9250687142905
  0
LINE
  5
D1
100
AcDbEntity
  8
0
  6
ByLayer
 62
  256
370
   -1
100
AcDbLine
 10
121.0325053497708
 20
131.9250687142905
 11
117.0325053497707
 21
131.9250687142905
  0
LINE
  5
D2
100
AcDbEntity
  8
0
  6
ByLayer
 62
  256
370
   -1
100
AcDbLine
 10
117.0325053497707
 20
131.9250687142905
 11
117.0325053497708
 21
134.5250687142907
  0
LINE
  5
D3
100
AcDbEntity
  8
0
  6
ByLayer
 62
  256
370
   -1
100
AcDbLine
 10
108.5683644959304
 20
102.0841189186904
 11
104.446228201491
 21
90.81433027754254
  0
ARC
  5
D4
100
AcDbEntity
  8
0
  6
ByLayer
 62
  256
370
   -1
100
AcDbCircle
 10
89.09921358356216
 20
71.0846487416984
 40
5
100
AcDbArc
 50
270
 51
339.8518351656347
  0
LINE
  5
D5
100
AcDbEntity
  8
0
  6
ByLayer
 62
  256
370
   -1
100
AcDbLine
 10
85.36242418875753
 20
66.0846487416984
 11
85.36242418875753
 21
63.4846487416984
  0
LINE
  5
D6
100
AcDbEntity
  8
0
  6
ByLayer
 62
  256
370
   -1
100
AcDbLine
 10
85.36242418875753
 20
63.4846487416984
 11
81.56242418875755
 21
63.4846487416984
  0
LINE
  5
D7
100
AcDbEntity
  8
0
  6
ByLayer
 62
  256
370
   -1
100
AcDbLine
 10
81.56242418875755
 20
63.4846487416984
 11
81.56242418875755
 21
66.0846487416984
  0
ARC
  5
D8
100
AcDbEntity
  8
0
  6
ByLayer
 62
  256
370
   -1
100
AcDbCircle
 10
75.03250534977089
 20
65.0846487416984
 40
1
100
AcDbArc
 50
90
 51
180
  0
ARC
  5
D9
100
AcDbEntity
  8
0
  6
ByLayer
 62
  256
370
   -1
100
AcDbCircle
 10
111.1683344762498
 20
122.5250687142906
 40
2
100
AcDbArc
 50
339.8518351656348
 51
90
  0
ARC
  5
DA
100
AcDbEntity
  8
0
  6
ByLayer
 62
  256
370
   -1
100
AcDbCircle
 10
106.0325053497708
 20
126.5250687142906
 40
2
100
AcDbArc
 50
180
 51
270
  0
LINE
  5
DB
100
AcDbEntity
  8
0
  6
ByLayer
 62
  256
370
   -1
100
AcDbLine
 10
10.64879354547075
 20
34.52506871429068
 11
70.64879354547065
 21
34.52506871429068
  0
LINE
  5
DC
100
AcDbEntity
  8
0
  6
ByLayer
 62
  256
370
   -1
100
AcDbLine
 10
70.64879354547065
 20
34.52506871429068
 11
70.64879354547065
 21
133.5250687142907
  0
ARC
  5
DD
100
AcDbEntity
  8
0
  6
ByLayer
 62
  256
370
   -1
100
AcDbCircle
 10
69.64879354547065
 20
133.5250687142907
 40
1
100
AcDbArc
 50
0
 51
90
  0
LINE
  5
DE
100
AcDbEntity
  8
0
  6
ByLayer
 62
  256
370
   -1
100
AcDbLine
 10
69.64879354547065
 20
134.5250687142907
 11
41.64879354547065
 21
134.5250687142907
  0
ARC
  5
DF
100
AcDbEntity
  8
0
  6
ByLayer
 62
  256
370
   -1
100
AcDbCircle
 10
41.64879354547065
 20
133.5250687142907
 40
1
100
AcDbArc
 50
90
 51
180
  0
LINE
  5
E0
100
AcDbEntity
  8
0
  6
ByLayer
 62
  256
370
   -1
100
AcDbLine
 10
40.64879354547065
 20
133.5250687142907
 11
40.64879354547065
 21
126.5250687142906
  0
ARC
  5
E1
100
AcDbEntity
  8
0
  6
ByLayer
 62
  256
370
   -1
100
AcDbCircle
 10
42.64879354547065
 20
126.5250687142906
 40
2
100
AcDbArc
 50
180
 51
270
  0
LINE
  5
E2
100
AcDbEntity
  8
0
  6
ByLayer
 62
  256
370
   -1
100
AcDbLine
 10
42.64879354547065
 20
124.5250687142906
 11
47.7846226719497
 21
124.5250687142906
  0
LINE
  5
E3
100
AcDbEntity
  8
0
  6
ByLayer
 62
  256
370
   -1
100
AcDbLine
 10
49.66223272788441
 20
121.8361706972715
 11
30.40952691909879
 21
69.3624036991506
  0
ARC
  5
E4
100
AcDbEntity
  8
0
  6
ByLayer
 62
  256
370
   -1
100
AcDbCircle
 10
47.7846226719497
 20
122.5250687142906
 40
2
100
AcDbArc
 50
339.8518351656348
 51
90
  0
LINE
  5
E5
100
AcDbEntity
  8
0
  6
ByLayer
 62
  256
370
   -1
100
AcDbLine
 10
25.71550177926203
 20
66.0846487416984
 11
11.64879354547075
 21
66.0846487416984
  0
LINE
  5
E6
100
AcDbEntity
  8
0
  6
ByLayer
 62
  256
370
   -1
100
AcDbLine
 10
10.64879354547075
 20
65.0846487416984
 11
10.64879354547075
 21
34.52506871429068
  0
ARC
  5
E7
100
AcDbEntity
  8
0
  6
ByLayer
 62
  256
370
   -1
100
AcDbCircle
 10
11.64879354547075
 20
65.0846487416984
 40
1
100
AcDbArc
 50
90
 51
180
  0
LINE
  5
E8
100
AcDbEntity
  8
0
  6
ByLayer
 62
  256
370
   -1
100
AcDbLine
 10
11.64879354547075
 20
66.0846487416984
 11
11.64879354547075
 21
66.0846487416984
  0
LINE
  5
E9
100
AcDbEntity
  8
0
  6
ByLayer
 62
  256
370
   -1
100
AcDbLine
 10
40.64879354547065
 20
34.52506871429068
 11
40.64879354547065
 21
34.52506871429068
  0
LINE
  5
EA
100
AcDbEntity
  8
0
  6
ByLayer
 62
  256
370
   -1
100
AcDbLine
 10
53.95502255498387
 20
42.32506871429067
 11
53.95502255498387
 21
49.42506871429067
  0
LINE
  5
EB
100
AcDbEntity
  8
0
  6
ByLayer
 62
  256
370
   -1
100
AcDbLine
 10
53.95502255498387
 20
49.42506871429067
 11
57.45502255498387
 21
49.42506871429067
  0
LINE
  5
EC
100
AcDbEntity
  8
0
  6
ByLayer
 62
  256
370
   -1
100
AcDbLine
 10
57.45502255498387
 20
49.42506871429067
 11
57.45502255498387
 21
42.32506871429068
  0
LINE
  5
ED
100
AcDbEntity
  8
0
  6
ByLayer
 62
  256
370
   -1
100
AcDbLine
 10
57.45502255498387
 20
42.32506871429068
 11
53.95502255498387
 21
42.32506871429067
  0
ARC
  5
EE
100
AcDbEntity
  8
0
  6
ByLayer
 62
  256
370
   -1
100
AcDbCircle
 10
25.71550177926203
 20
71.0846487416984
 40
5
100
AcDbArc
 50
270
 51
339.8518351656347
  0
LINE
  5
EF
100
AcDbEntity
  8
0
  6
ByLayer
 62
  256
370
   -1
100
AcDbLine
 10
120.838734359284
 20
54.62506871429067
 11
115.8996607075751
 21
54.62506871429067
  0
LINE
  5
F0
100
AcDbEntity
  8
0
  6
ByLayer
 62
  256
370
   -1
100
AcDbLine
 10
115.8996607075751
 20
54.62506871429067
 11
115.8996607075751
 21
37.12506871429068
  0
LINE
  5
F1
100
AcDbEntity
  8
0
  6
ByLayer
 62
  256
370
   -1
100
AcDbLine
 10
115.8996607075751
 20
37.12506871429068
 11
120.838734359284
 21
37.12506871429068
  0
LINE
  5
F2
100
AcDbEntity
  8
0
  6
ByLayer
 62
  256
370
   -1
100
AcDbLine
 10
120.838734359284
 20
37.12506871429068
 11
120.838734359284
 21
54.62506871429067
  0
LINE
  5
F3
100
AcDbEntity
  8
0
  6
ByLayer
 62
  256
370
   -1
100
AcDbLine
 10
85.36242418875754
 20
34.52506871429068
 11
85.36242418875754
 21
37.12506871429069
  0
LINE
  5
F4
100
AcDbEntity
  8
0
  6
ByLayer
 62
  256
370
   -1
100
AcDbLine
 10
85.36242418875754
 20
37.12506871429069
 11
81.56242418875755
 21
37.12506871429069
  0
LINE
  5
F5
100
AcDbEntity
  8
0
  6
ByLayer
 62
  256
370
   -1
100
AcDbLine
 10
81.56242418875755
 20
37.12506871429069
 11
81.56242418875756
 21
34.52506871429068
  0
LINE
  5
F6
100
AcDbEntity
  8
0
  6
ByLayer
 62
  256
370
   -1
100
AcDbLine
 10
85.36242418875753
 20
34.52506871429068
 11
134.0325053497708
 21
34.52506871429068
  0
LINE
  5
F7
100
AcDbEntity
  8
0
  6
ByLayer
 62
  256
370
   -1
100
AcDbLine
 10
80.32595508375832
 20
47.90485872799454
 11
77.72595508375832
 21
47.90485872799454
  0
LINE
  5
F8
100
AcDbEntity
  8
0
  6
ByLayer
 62
  256
370
   -1
100
AcDbLine
 10
77.72595508375832
 20
47.90485872799454
 11
77.72595508375832
 21
51.70485872799454
  0
LINE
  5
F9
100
AcDbEntity
  8
0
  6
ByLayer
 62
  256
370
   -1
100
AcDbLine
 10
77.72595508375832
 20
51.70485872799454
 11
80.32595508375832
 21
51.70485872799453
  0
LINE
  5
FA
100
AcDbEntity
  8
0
  6
ByLayer
 62
  256
370
   -1
100
AcDbLine
 10
80.32595508375832
 20
51.70485872799453
 11
80.32595508375832
 21
47.90485872799454
  0
LINE
  5
FB
100
AcDbEntity
  8
0
  6
ByLayer
 62
  256
370
   -1
100
AcDbLine
 10
335.9946961955357
 20
30.8945719309203
 11
335.9946961955357
 21
19.71478191721644
  0
LINE
  5
FC
100
AcDbEntity
  8
0
  6
ByLayer
 62
  256
370
   -1
100
AcDbLine
 10
387.7946961955357
 20
30.8945719309203
 11
387.7946961955356
 21
19.71478191721644
  0
LINE
  5
FD
100
AcDbEntity
  8
0
  6
ByLayer
 62
  256
370
   -1
100
AcDbLine
 10
335.9946961955357
 20
30.8945719309203
 11
387.7946961955357
 21
30.8945719309203
  0
LINE
  5
FE
100
AcDbEntity
  8
0
  6
ByLayer
 62
  256
370
   -1
100
AcDbLine
 10
387.7946961955357
 20
4.534991903512576
 11
335.9946961955357
 21
4.534991903512576
  0
LINE
  5
FF
100
AcDbEntity
  8
0
  6
ByLayer
 62
  256
370
   -1
100
AcDbLine
 10
335.9946961955357
 20
19.71478191721644
 11
333.3946961955356
 21
19.71478191721644
  0
LINE
  5
100
100
AcDbEntity
  8
0
  6
ByLayer
 62
  256
370
   -1
100
AcDbLine
 10
333.3946961955356
 20
19.71478191721644
 11
333.3946961955356
 21
15.71478191721644
  0
LINE
  5
101
100
AcDbEntity
  8
0
  6
ByLayer
 62
  256
370
   -1
100
AcDbLine
 10
333.3946961955356
 20
15.71478191721644
 11
335.9946961955357
 21
15.71478191721644
  0
LINE
  5
102
100
AcDbEntity
  8
0
  6
ByLayer
 62
  256
370
   -1
100
AcDbLine
 10
387.7946961955357
 20
19.71478191721644
 11
390.3946961955356
 21
19.71478191721644
  0
LINE
  5
103
100
AcDbEntity
  8
0
  6
ByLayer
 62
  256
370
   -1
100
AcDbLine
 10
390.3946961955356
 20
19.71478191721644
 11
390.3946961955356
 21
15.71478191721644
  0
LINE
  5
104
100
AcDbEntity
  8
0
  6
ByLayer
 62
  256
370
   -1
100
AcDbLine
 10
390.3946961955356
 20
15.71478191721644
 11
387.7946961955357
 21
15.71478191721644
  0
LINE
  5
105
100
AcDbEntity
  8
0
  6
ByLayer
 62
  256
370
   -1
100
AcDbLine
 10
335.9946961955357
 20
15.71478191721644
 11
335.9946961955357
 21
4.534991903512576
  0
LINE
  5
106
100
AcDbEntity
  8
0
  6
ByLayer
 62
  256
370
   -1
100
AcDbLine
 10
387.7946961955356
 20
15.71478191721644
 11
387.7946961955357
 21
4.534991903512576
  0
LWPOLYLINE
  5
107
100
AcDbEntity
  8
0
  6
ByLayer
 62
  256
370
   -1
100
AcDbPolyline
 90
    8
 70
    1
 43
0
 10
356.6446961955356
 20
-3.174630186174908
 10
367.1446961955356
 20
-3.174630186174908
 42
-0.414213562373095
 10
367.6446961955356
 20
-3.674630186174908
 10
367.6446961955356
 20
-14.17463018617491
 42
-0.414213562373095
 10
367.1446961955356
 20
-14.67463018617491
 10
356.6446961955356
 20
-14.67463018617491
 42
-0.414213562373095
 10
356.1446961955356
 20
-14.17463018617491
 10
356.1446961955356
 20
-3.674630186174908
 42
-0.414213562373095
  0
LWPOLYLINE
  5
108
100
AcDbEntity
  8
0
  6
ByLayer
 62
  256
370
   -1
100
AcDbPolyline
 90
    3
 70
    0
 43
0
 10
356.1446961955356
 20
-0.9246301861749088
 10
335.9946961955357
 20
-0.9246301861749088
 10
335.9946961955357
 20
-6.924630186174908
  0
LWPOLYLINE
  5
109
100
AcDbEntity
  8
0
  6
ByLayer
 62
  256
370
   -1
100
AcDbPolyline
 90
    4
 70
    0
 43
0
 10
335.9946961955357
 20
-10.92463018617491
 10
335.9946961955357
 20
-16.92463018617491
 10
387.7946961955357
 20
-16.92463018617491
 10
387.7946961955357
 20
-10.92463018617491
  0
LWPOLYLINE
  5
10A
100
AcDbEntity
  8
0
  6
ByLayer
 62
  256
370
   -1
100
AcDbPolyline
 90
    3
 70
    0
 43
0
 10
387.7946961955357
 20
-6.924630186174908
 10
387.7946961955357
 20
-0.9246301861749088
 10
367.6446961955356
 20
-0.9246301861749088
  0
LINE
  5
10B
100
AcDbEntity
  8
0
  6
ByLayer
 62
  256
370
   -1
100
AcDbLine
 10
356.1446961955356
 20
-0.9246301861749088
 11
356.1446961955356
 21
2.075369813825091
  0
LINE
  5
10C
100
AcDbEntity
  8
0
  6
ByLayer
 62
  256
370
   -1
100
AcDbLine
 10
356.1446961955356
 20
2.075369813825091
 11
367.6446961955356
 21
2.075369813825091
  0
LINE
  5
10D
100
AcDbEntity
  8
0
  6
ByLayer
 62
  256
370
   -1
100
AcDbLine
 10
367.6446961955356
 20
2.075369813825091
 11
367.6446961955356
 21
-0.9246301861749088
  0
LINE
  5
10E
100
AcDbEntity
  8
0
  6
ByLayer
 62
  256
370
   -1
100
AcDbLine
 10
333.9946961955357
 20
-10.92463018617491
 11
335.9946961955357
 21
-10.92463018617491
  0
LWPOLYLINE
  5
10F
100
AcDbEntity
  8
0
  6
ByLayer
 62
  256
370
   -1
100
AcDbPolyline
 90
    8
 70
    1
 43
0
 10
355.5239382258739
 20
81.75545789755688
 10
345.0239382258739
 20
81.75545789755687
 42
0.4142135623730867
 10
344.523938225874
 20
81.25545789755689
 10
344.523938225874
 20
70.75545789755688
 42
0.414213562373095
 10
345.0239382258739
 20
70.25545789755688
 10
355.5239382258739
 20
70.25545789755688
 42
0.414213562373095
 10
356.0239382258739
 20
70.75545789755688
 10
356.0239382258739
 20
81.25545789755689
 42
0.4142135623730867
  0
LINE
  5
110
100
AcDbEntity
  8
0
  6
ByLayer
 62
  256
370
   -1
100
AcDbLine
 10
105.3550873539829
 20
131.4250687142906
 11
107.9550873539829
 21
131.4250687142906
  0
LINE
  5
111
100
AcDbEntity
  8
0
  6
ByLayer
 62
  256
370
   -1
100
AcDbLine
 10
107.9550873539829
 20
131.4250687142906
 11
107.9550873539829
 21
127.6250687142907
  0
LINE
  5
112
100
AcDbEntity
  8
0
  6
ByLayer
 62
  256
370
   -1
100
AcDbLine
 10
107.9550873539829
 20
127.6250687142907
 11
105.3550873539829
 21
127.6250687142907
  0
LINE
  5
113
100
AcDbEntity
  8
0
  6
ByLayer
 62
  256
370
   -1
100
AcDbLine
 10
335.9946961955357
 20
-19.7201686214521
 11
335.9946961955357
 21
-22.72016862145216
  0
LINE
  5
114
100
AcDbEntity
  8
0
  6
ByLayer
 62
  256
370
   -1
100
AcDbLine
 10
105.3550873539829
 20
131.4250687142906
 11
105.3550873539829
 21
127.6250687142907
  0
LINE
  5
115
100
AcDbEntity
  8
0
  6
ByLayer
 62
  256
370
   -1
100
AcDbLine
 10
335.9946961955357
 20
-22.72016862145216
 11
333.3946961955356
 21
-22.72016862145216
  0
LINE
  5
116
100
AcDbEntity
  8
0
  6
ByLayer
 62
  256
370
   -1
100
AcDbLine
 10
333.3946961955356
 20
-22.72016862145216
 11
333.3946961955356
 21
-26.72016862145216
  0
LINE
  5
117
100
AcDbEntity
  8
0
  6
ByLayer
 62
  256
370
   -1
100
AcDbLine
 10
333.3946961955356
 20
-26.72016862145216
 11
335.9946961955357
 21
-26.72016862145216
  0
LINE
  5
118
100
AcDbEntity
  8
0
  6
ByLayer
 62
  256
370
   -1
100
AcDbLine
 10
335.9946961955357
 20
-26.72016862145215
 11
335.9946961955357
 21
-29.7201686214522
  0
LINE
  5
119
100
AcDbEntity
  8
0
  6
ByLayer
 62
  256
370
   -1
100
AcDbLine
 10
335.9946961955357
 20
-19.7201686214521
 11
387.7946961955357
 21
-19.7201686214521
  0
LINE
  5
11A
100
AcDbEntity
  8
0
  6
ByLayer
 62
  256
370
   -1
100
AcDbLine
 10
335.9946961955357
 20
-29.7201686214522
 11
387.7946961955357
 21
-29.7201686214522
  0
LINE
  5
11B
100
AcDbEntity
  8
0
  6
ByLayer
 62
  256
370
   -1
100
AcDbLine
 10
387.7946961955357
 20
-19.7201686214521
 11
387.7946961955357
 21
-22.72016862145216
  0
LINE
  5
11C
100
AcDbEntity
  8
0
  6
ByLayer
 62
  256
370
   -1
100
AcDbLine
 10
387.7946961955357
 20
-26.72016862145215
 11
387.7946961955357
 21
-29.7201686214522
  0
LINE
  5
11D
100
AcDbEntity
  8
0
  6
ByLayer
 62
  256
370
   -1
100
AcDbLine
 10
387.7946961955357
 20
-22.72016862145216
 11
390.3946961955357
 21
-22.72016862145216
  0
LINE
  5
11E
100
AcDbEntity
  8
0
  6
ByLayer
 62
  256
370
   -1
100
AcDbLine
 10
390.3946961955357
 20
-22.72016862145216
 11
390.3946961955357
 21
-26.72016862145216
  0
LINE
  5
11F
100
AcDbEntity
  8
0
  6
ByLayer
 62
  256
370
   -1
100
AcDbLine
 10
390.3946961955357
 20
-26.72016862145216
 11
387.7946961955357
 21
-26.72016862145216
  0
LINE
  5
120
100
AcDbEntity
  8
0
  6
ByLayer
 62
  256
370
   -1
100
AcDbLine
 10
335.9946961955357
 20
62.5529545842386
 11
387.7946961955357
 21
62.5529545842386
  0
LINE
  5
121
100
AcDbEntity
  8
0
  6
ByLayer
 62
  256
370
   -1
100
AcDbLine
 10
335.9946961955357
 20
37.75295458423862
 11
387.7946961955357
 21
37.75295458423862
  0
LINE
  5
122
100
AcDbEntity
  8
0
  6
ByLayer
 62
  256
370
   -1
100
AcDbLine
 10
335.9946961955357
 20
-6.924630186174908
 11
333.3946961955356
 21
-6.924630186174908
  0
LINE
  5
123
100
AcDbEntity
  8
0
  6
ByLayer
 62
  256
370
   -1
100
AcDbLine
 10
333.3946961955356
 20
-10.92465534280013
 11
333.9946961955357
 21
-10.92616003422046
  0
LINE
  5
124
100
AcDbEntity
  8
0
  6
ByLayer
 62
  256
370
   -1
100
AcDbLine
 10
333.3946961955356
 20
-6.924630186174908
 11
333.3946961955356
 21
-10.92465534280013
  0
LINE
  5
125
100
AcDbEntity
  8
0
  6
ByLayer
 62
  256
370
   -1
100
AcDbLine
 10
387.7946961955357
 20
-6.924630186174908
 11
390.3946961955356
 21
-6.924630186174908
  0
LINE
  5
126
100
AcDbEntity
  8
0
  6
ByLayer
 62
  256
370
   -1
100
AcDbLine
 10
390.3946961955356
 20
-6.924630186174908
 11
390.3946961955356
 21
-10.92463018617491
  0
LINE
  5
127
100
AcDbEntity
  8
0
  6
ByLayer
 62
  256
370
   -1
100
AcDbLine
 10
390.3946961955356
 20
-10.92463018617491
 11
387.7946961955357
 21
-10.92463018617491
  0
LINE
  5
128
100
AcDbEntity
  8
0
  6
ByLayer
 62
  256
370
   -1
100
AcDbLine
 10
197.3522301440596
 20
34.52506871429068
 11
189.8223113050729
 21
34.52506871429068
  0
LINE
  5
129
100
AcDbEntity
  8
0
  6
ByLayer
 62
  256
370
   -1
100
AcDbLine
 10
186.022311305073
 20
34.52506871429068
 11
137.3522301440597
 21
34.52506871429068
  0
LINE
  5
12A
100
AcDbEntity
  8
0
  6
ByLayer
 62
  256
370
   -1
100
AcDbLine
 10
137.3522301440597
 20
34.52506871429068
 11
137.3522301440597
 21
74.02506871429068
  0
LINE
  5
12B
100
AcDbEntity
  8
0
  6
ByLayer
 62
  256
370
   -1
100
AcDbLine
 10
137.3522301440597
 20
94.0250687142907
 11
137.3522301440597
 21
133.5250687142907
  0
ARC
  5
12C
100
AcDbEntity
  8
0
  6
ByLayer
 62
  256
370
   -1
100
AcDbCircle
 10
138.3522301440597
 20
133.5250687142907
 40
1
100
AcDbArc
 50
90
 51
180
  0
LINE
  5
12D
100
AcDbEntity
  8
0
  6
ByLayer
 62
  256
370
   -1
100
AcDbLine
 10
138.3522301440597
 20
134.5250687142907
 11
150.3522301440596
 21
134.5250687142907
  0
LINE
  5
12E
100
AcDbEntity
  8
0
  6
ByLayer
 62
  256
370
   -1
100
AcDbLine
 10
154.3522301440597
 20
134.5250687142906
 11
166.3522301440597
 21
134.5250687142907
  0
ARC
  5
12F
100
AcDbEntity
  8
0
  6
ByLayer
 62
  256
370
   -1
100
AcDbCircle
 10
166.3522301440597
 20
133.5250687142907
 40
1
100
AcDbArc
 50
7.000000000000001e-15
 51
90
  0
LINE
  5
130
100
AcDbEntity
  8
0
  6
ByLayer
 62
  256
370
   -1
100
AcDbLine
 10
167.3522301440597
 20
133.5250687142907
 11
167.3522301440597
 21
126.5250687142906
  0
ARC
  5
131
100
AcDbEntity
  8
0
  6
ByLayer
 62
  256
370
   -1
100
AcDbCircle
 10
165.3522301440597
 20
126.5250687142906
 40
2
100
AcDbArc
 50
270
 51
7.000000000000001e-15
  0
LINE
  5
132
100
AcDbEntity
  8
0
  6
ByLayer
 62
  256
370
   -1
100
AcDbLine
 10
165.3522301440597
 20
124.5250687142906
 11
160.2164010175807
 21
124.5250687142906
  0
LINE
  5
133
100
AcDbEntity
  8
0
  6
ByLayer
 62
  256
370
   -1
100
AcDbLine
 10
158.338790961646
 20
121.8361706972715
 11
165.2572640706152
 21
102.9796863408153
  0
ARC
  5
134
100
AcDbEntity
  8
0
  6
ByLayer
 62
  256
370
   -1
100
AcDbCircle
 10
160.2164010175807
 20
122.5250687142906
 40
2
100
AcDbArc
 50
90
 51
200.1481648343651
  0
LINE
  5
135
100
AcDbEntity
  8
0
  6
ByLayer
 62
  256
370
   -1
100
AcDbLine
 10
169.3906521727299
 20
91.71402600520712
 11
177.5914967704316
 21
69.3624036991506
  0
LINE
  5
136
100
AcDbEntity
  8
0
  6
ByLayer
 62
  256
370
   -1
100
AcDbLine
 10
182.2855219102683
 20
66.0846487416984
 11
186.022311305073
 21
66.0846487416984
  0
LINE
  5
137
100
AcDbEntity
  8
0
  6
ByLayer
 62
  256
370
   -1
100
AcDbLine
 10
189.822311305073
 20
66.0846487416984
 11
196.3522301440596
 21
66.0846487416984
  0
LINE
  5
138
100
AcDbEntity
  8
0
  6
ByLayer
 62
  256
370
   -1
100
AcDbLine
 10
197.3522301440596
 20
65.0846487416984
 11
197.3522301440596
 21
34.52506871429068
  0
ARC
  5
139
100
AcDbEntity
  8
0
  6
ByLayer
 62
  256
370
   -1
100
AcDbCircle
 10
196.3522301440596
 20
65.0846487416984
 40
1
100
AcDbArc
 50
7.000000000000001e-15
 51
90
  0
LINE
  5
13A
100
AcDbEntity
  8
0
  6
ByLayer
 62
  256
370
   -1
100
AcDbLine
 10
196.3522301440596
 20
66.0846487416984
 11
196.3522301440596
 21
66.0846487416984
  0
LINE
  5
13B
100
AcDbEntity
  8
0
  6
ByLayer
 62
  256
370
   -1
100
AcDbLine
 10
167.3522301440597
 20
34.52506871429068
 11
167.3522301440597
 21
34.52506871429068
  0
ARC
  5
13C
100
AcDbEntity
  8
0
  6
ByLayer
 62
  256
370
   -1
100
AcDbCircle
 10
182.2855219102683
 20
71.0846487416984
 40
5
100
AcDbArc
 50
200.1481648343652
 51
270
  0
LINE
  5
13D
100
AcDbEntity
  8
0
  6
ByLayer
 62
  256
370
   -1
100
AcDbLine
 10
150.3522301440597
 20
134.5250687142907
 11
150.3522301440597
 21
131.9250687142905
  0
LINE
  5
13E
100
AcDbEntity
  8
0
  6
ByLayer
 62
  256
370
   -1
100
AcDbLine
 10
150.3522301440597
 20
131.9250687142905
 11
154.3522301440598
 21
131.9250687142905
  0
LINE
  5
13F
100
AcDbEntity
  8
0
  6
ByLayer
 62
  256
370
   -1
100
AcDbLine
 10
154.3522301440598
 20
131.9250687142905
 11
154.3522301440597
 21
134.5250687142907
  0
LINE
  5
140
100
AcDbEntity
  8
0
  6
ByLayer
 62
  256
370
   -1
100
AcDbLine
 10
165.2572640706152
 20
102.9796863408153
 11
162.8163709979001
 21
102.0841189186904
  0
LINE
  5
141
100
AcDbEntity
  8
0
  6
ByLayer
 62
  256
370
   -1
100
AcDbLine
 10
162.8163709979001
 20
102.0841189186904
 11
166.9385072923395
 21
90.81433027754254
  0
LINE
  5
142
100
AcDbEntity
  8
0
  6
ByLayer
 62
  256
370
   -1
100
AcDbLine
 10
166.9385072923395
 20
90.81433027754254
 11
169.3906521727299
 21
91.71402600520712
  0
LINE
  5
143
100
AcDbEntity
  8
0
  6
ByLayer
 62
  256
370
   -1
100
AcDbLine
 10
186.022311305073
 20
66.0846487416984
 11
186.022311305073
 21
63.4846487416984
  0
LINE
  5
144
100
AcDbEntity
  8
0
  6
ByLayer
 62
  256
370
   -1
100
AcDbLine
 10
186.022311305073
 20
63.4846487416984
 11
189.822311305073
 21
63.4846487416984
  0
LINE
  5
145
100
AcDbEntity
  8
0
  6
ByLayer
 62
  256
370
   -1
100
AcDbLine
 10
189.822311305073
 20
63.4846487416984
 11
189.822311305073
 21
66.0846487416984
  0
LINE
  5
146
100
AcDbEntity
  8
0
  6
ByLayer
 62
  256
370
   -1
100
AcDbLine
 10
260.7359419483598
 20
34.52506871429068
 11
200.7359419483599
 21
34.52506871429068
  0
LINE
  5
147
100
AcDbEntity
  8
0
  6
ByLayer
 62
  256
370
   -1
100
AcDbLine
 10
200.7359419483599
 20
34.52506871429068
 11
200.7359419483599
 21
133.5250687142907
  0
ARC
  5
148
100
AcDbEntity
  8
0
  6
ByLayer
 62
  256
370
   -1
100
AcDbCircle
 10
201.7359419483599
 20
133.5250687142907
 40
1
100
AcDbArc
 50
90
 51
180
  0
LINE
  5
149
100
AcDbEntity
  8
0
  6
ByLayer
 62
  256
370
   -1
100
AcDbLine
 10
201.7359419483599
 20
134.5250687142907
 11
229.7359419483599
 21
134.5250687142907
  0
ARC
  5
14A
100
AcDbEntity
  8
0
  6
ByLayer
 62
  256
370
   -1
100
AcDbCircle
 10
229.7359419483599
 20
133.5250687142907
 40
1
100
AcDbArc
 50
7.000000000000001e-15
 51
90
  0
LINE
  5
14B
100
AcDbEntity
  8
0
  6
ByLayer
 62
  256
370
   -1
100
AcDbLine
 10
230.7359419483599
 20
133.5250687142907
 11
230.7359419483599
 21
126.5250687142906
  0
ARC
  5
14C
100
AcDbEntity
  8
0
  6
ByLayer
 62
  256
370
   -1
100
AcDbCircle
 10
228.7359419483599
 20
126.5250687142906
 40
2
100
AcDbArc
 50
270
 51
7.000000000000001e-15
  0
LINE
  5
14D
100
AcDbEntity
  8
0
  6
ByLayer
 62
  256
370
   -1
100
AcDbLine
 10
228.7359419483599
 20
124.5250687142906
 11
223.6001128218808
 21
124.5250687142906
  0
LINE
  5
14E
100
AcDbEntity
  8
0
  6
ByLayer
 62
  256
370
   -1
100
AcDbLine
 10
221.7225027659461
 20
121.8361706972715
 11
240.9752085747317
 21
69.3624036991506
  0
ARC
  5
14F
100
AcDbEntity
  8
0
  6
ByLayer
 62
  256
370
   -1
100
AcDbCircle
 10
223.6001128218808
 20
122.5250687142906
 40
2
100
AcDbArc
 50
90
 51
200.1481648343651
  0
LINE
  5
150
100
AcDbEntity
  8
0
  6
ByLayer
 62
  256
370
   -1
100
AcDbLine
 10
245.6692337145685
 20
66.0846487416984
 11
259.7359419483598
 21
66.0846487416984
  0
LINE
  5
151
100
AcDbEntity
  8
0
  6
ByLayer
 62
  256
370
   -1
100
AcDbLine
 10
260.7359419483598
 20
65.0846487416984
 11
260.7359419483598
 21
34.52506871429068
  0
ARC
  5
152
100
AcDbEntity
  8
0
  6
ByLayer
 62
  256
370
   -1
100
AcDbCircle
 10
259.7359419483598
 20
65.0846487416984
 40
1
100
AcDbArc
 50
7.000000000000001e-15
 51
90
  0
LINE
  5
153
100
AcDbEntity
  8
0
  6
ByLayer
 62
  256
370
   -1
100
AcDbLine
 10
259.7359419483598
 20
66.0846487416984
 11
259.7359419483598
 21
66.0846487416984
  0
LINE
  5
154
100
AcDbEntity
  8
0
  6
ByLayer
 62
  256
370
   -1
100
AcDbLine
 10
230.7359419483599
 20
34.52506871429068
 11
230.7359419483599
 21
34.52506871429068
  0
ARC
  5
155
100
AcDbEntity
  8
0
  6
ByLayer
 62
  256
370
   -1
100
AcDbCircle
 10
245.6692337145685
 20
71.0846487416984
 40
5
100
AcDbArc
 50
200.1481648343652
 51
270
  0
LINE
  5
156
100
AcDbEntity
  8
0
  6
ByLayer
 62
  256
370
   -1
100
AcDbLine
 10
150.5460011345465
 20
54.62506871429067
 11
155.4850747862554
 21
54.62506871429067
  0
LINE
  5
157
100
AcDbEntity
  8
0
  6
ByLayer
 62
  256
370
   -1
100
AcDbLine
 10
155.4850747862554
 20
54.62506871429067
 11
155.4850747862554
 21
37.12506871429068
  0
LINE
  5
158
100
AcDbEntity
  8
0
  6
ByLayer
 62
  256
370
   -1
100
AcDbLine
 10
155.4850747862554
 20
37.12506871429068
 11
150.5460011345465
 21
37.12506871429068
  0
LINE
  5
159
100
AcDbEntity
  8
0
  6
ByLayer
 62
  256
370
   -1
100
AcDbLine
 10
150.5460011345465
 20
37.12506871429068
 11
150.5460011345465
 21
54.62506871429067
  0
LINE
  5
15A
100
AcDbEntity
  8
0
  6
ByLayer
 62
  256
370
   -1
100
AcDbLine
 10
186.022311305073
 20
34.52506871429068
 11
186.022311305073
 21
37.12506871429069
  0
LINE
  5
15B
100
AcDbEntity
  8
0
  6
ByLayer
 62
  256
370
   -1
100
AcDbLine
 10
186.022311305073
 20
37.12506871429069
 11
189.822311305073
 21
37.12506871429069
  0
LINE
  5
15C
100
AcDbEntity
  8
0
  6
ByLayer
 62
  256
370
   -1
100
AcDbLine
 10
189.822311305073
 20
37.12506871429069
 11
189.8223113050729
 21
34.52506871429068
  0
LINE
  5
15D
100
AcDbEntity
  8
0
  6
ByLayer
 62
  256
370
   -1
100
AcDbLine
 10
191.0587804100721
 20
47.90485872799454
 11
193.6587804100722
 21
47.90485872799454
  0
LINE
  5
15E
100
AcDbEntity
  8
0
  6
ByLayer
 62
  256
370
   -1
100
AcDbLine
 10
193.6587804100722
 20
47.90485872799454
 11
193.6587804100722
 21
51.70485872799454
  0
LINE
  5
15F
100
AcDbEntity
  8
0
  6
ByLayer
 62
  256
370
   -1
100
AcDbLine
 10
193.6587804100722
 20
51.70485872799454
 11
191.0587804100721
 21
51.70485872799453
  0
LINE
  5
160
100
AcDbEntity
  8
0
  6
ByLayer
 62
  256
370
   -1
100
AcDbLine
 10
191.0587804100721
 20
51.70485872799453
 11
191.0587804100721
 21
47.90485872799454
  0
LINE
  5
161
100
AcDbEntity
  8
0
  6
ByLayer
 62
  256
370
   -1
100
AcDbLine
 10
166.0296481398476
 20
131.4250687142906
 11
163.4296481398476
 21
131.4250687142906
  0
LINE
  5
162
100
AcDbEntity
  8
0
  6
ByLayer
 62
  256
370
   -1
100
AcDbLine
 10
163.4296481398476
 20
131.4250687142906
 11
163.4296481398476
 21
127.6250687142907
  0
LINE
  5
163
100
AcDbEntity
  8
0
  6
ByLayer
 62
  256
370
   -1
100
AcDbLine
 10
163.4296481398476
 20
127.6250687142907
 11
166.0296481398476
 21
127.6250687142907
  0
LINE
  5
164
100
AcDbEntity
  8
0
  6
ByLayer
 62
  256
370
   -1
100
AcDbLine
 10
166.0296481398476
 20
131.4250687142906
 11
166.0296481398476
 21
127.6250687142907
  0
LINE
  5
165
100
AcDbEntity
  8
0
  6
ByLayer
 62
  256
370
   -1
100
AcDbLine
 10
335.9946961955357
 20
-95.93174575910952
 11
335.9946961955357
 21
-88.40182692012286
  0
LINE
  5
166
100
AcDbEntity
  8
0
  6
ByLayer
 62
  256
370
   -1
100
AcDbLine
 10
335.9946961955357
 20
-84.60182692012287
 11
333.3946961955356
 21
-84.60182692012287
  0
LINE
  5
167
100
AcDbEntity
  8
0
  6
ByLayer
 62
  256
370
   -1
100
AcDbLine
 10
333.3946961955356
 20
-84.60182692012287
 11
333.3946961955356
 21
-88.40182692012287
  0
LINE
  5
168
100
AcDbEntity
  8
0
  6
ByLayer
 62
  256
370
   -1
100
AcDbLine
 10
333.3946961955356
 20
-88.40182692012287
 11
335.9946961955357
 21
-88.40182692012286
  0
LINE
  5
169
100
AcDbEntity
  8
0
  6
ByLayer
 62
  256
370
   -1
100
AcDbLine
 10
335.9946961955357
 20
-84.60182692012287
 11
335.9946961955357
 21
-38.23174575910962
  0
LINE
  5
16A
100
AcDbEntity
  8
0
  6
ByLayer
 62
  256
370
   -1
100
AcDbLine
 10
335.9946961955357
 20
-95.93174575910952
 11
388.1656838916171
 21
-95.93174575910952
  0
LINE
  5
16B
100
AcDbEntity
  8
0
  6
ByLayer
 62
  256
370
   -1
100
AcDbLine
 10
388.1656838916171
 20
-95.93174575910952
 11
388.1656838916171
 21
-88.40182692012286
  0
LINE
  5
16C
100
AcDbEntity
  8
0
  6
ByLayer
 62
  256
370
   -1
100
AcDbLine
 10
388.1656838916171
 20
-84.60182692012287
 11
388.1656838916171
 21
-38.23174575910962
  0
LINE
  5
16D
100
AcDbEntity
  8
0
  6
ByLayer
 62
  256
370
   -1
100
AcDbLine
 10
388.1656838916171
 20
-84.60182692012287
 11
390.7656838916171
 21
-84.60182692012287
  0
LINE
  5
16E
100
AcDbEntity
  8
0
  6
ByLayer
 62
  256
370
   -1
100
AcDbLine
 10
390.7656838916171
 20
-84.60182692012287
 11
390.7656838916171
 21
-88.40182692012287
  0
LINE
  5
16F
100
AcDbEntity
  8
0
  6
ByLayer
 62
  256
370
   -1
100
AcDbLine
 10
390.7656838916171
 20
-88.40182692012287
 11
388.1656838916171
 21
-88.40182692012286
  0
LINE
  5
170
100
AcDbEntity
  8
0
  6
ByLayer
 62
  256
370
   -1
100
AcDbLine
 10
134.0325053497708
 20
74.02506871429068
 11
131.7325053497707
 21
74.02506871429068
  0
LINE
  5
171
100
AcDbEntity
  8
0
  6
ByLayer
 62
  256
370
   -1
100
AcDbLine
 10
131.7325053497707
 20
74.02506871429068
 11
131.7325053497707
 21
94.0250687142907
  0
LINE
  5
172
100
AcDbEntity
  8
0
  6
ByLayer
 62
  256
370
   -1
100
AcDbLine
 10
139.6522301440597
 20
94.0250687142907
 11
137.3522301440597
 21
94.0250687142907
  0
LINE
  5
173
100
AcDbEntity
  8
0
  6
ByLayer
 62
  256
370
   -1
100
AcDbLine
 10
137.3522301440597
 20
74.02506871429068
 11
139.6522301440597
 21
74.02506871429068
  0
LINE
  5
174
100
AcDbEntity
  8
0
  6
ByLayer
 62
  256
370
   -1
100
AcDbLine
 10
139.6522301440597
 20
74.02506871429068
 11
139.6522301440597
 21
94.0250687142907
  0
LINE
  5
175
100
AcDbEntity
  8
0
  6
ByLayer
 62
  256
370
   -1
100
AcDbLine
 10
335.9946961955357
 20
-38.23174575910961
 11
388.1656838916171
 21
-38.23174575910961
  0
DIMENSION
  5
176
100
AcDbEntity
  8
0
  6
ByLayer
 62
  256
370
   -1
100
AcDbDimension
  2
*D1
 10
230.7359419483599
 20
150
 30
0
 11
215.7359419483599
 21
150
 31
0
 70
   32
 71
    5
  3
Standard
 53
0
210
0
220
0
230
1
100
AcDbAlignedDimension
 13
200.7359419483599
 23
132.5250687142907
 33
0
 14
230.7359419483599
 24
132.5250687142907
 34
0
100
AcDbRotatedDimension
  0
DIMENSION
  5
177
100
AcDbEntity
  8
0
  6
ByLayer
 62
  256
370
   -1
100
AcDbDimension
  2
*D2
 10
70
 20
140.1175547109865
 30
0
 11
70
 21
166.0175547109865
 31
0
 70
   32
 71
    5
  3
Standard
 53
0
210
0
220
0
230
1
100
AcDbAlignedDimension
 13
85.21964076930487
 23
191.9175547109866
 33
0
 14
85.21964076930487
 24
140.1175547109865
 34
0
 50
90
100
AcDbRotatedDimension
  0
DIMENSION
  5
178
100
AcDbEntity
  8
0
  6
ByLayer
 62
  256
370
   -1
100
AcDbDimension
  2
*D3
 10
387.7946961955357
 20
160
 30
0
 11
361.8946961955357
 21
160
 31
0
 70
   32
 71
    5
  3
Standard
 53
0
210
0
220
0
230
1
100
AcDbAlignedDimension
 13
335.9946961955357
 23
154.061439596242
 33
0
 14
387.7946961955357
 24
154.061439596242
 34
0
100
AcDbRotatedDimension
  0
DIMENSION
  5
179
100
AcDbEntity
  8
0
  6
ByLayer
 62
  256
370
   -1
100
AcDbDimension
  2
*D4
 10
389.7946961955357
 20
166
 30
0
 11
361.8946961955357
 21
166
 31
0
 70
   32
 71
    5
  3
Standard
 53
0
210
0
220
0
230
1
100
AcDbAlignedDimension
 13
333.9946961955357
 23
134.161439596242
 33
0
 14
389.7946961955357
 24
134.161439596242
 34
0
100
AcDbRotatedDimension
  0
DIMENSION
  5
17A
100
AcDbEntity
  8
0
  6
ByLayer
 62
  256
370
   -1
100
AcDbDimension
  2
*D5
 10
260.7359419483598
 20
20
 30
0
 11
230.7359419483599
 21
20
 31
0
 70
   32
 71
    5
  3
Standard
 53
0
210
0
220
0
230
1
100
AcDbAlignedDimension
 13
200.7359419483599
 23
34.52506871429068
 33
0
 14
260.7359419483598
 24
34.52506871429068
 34
0
100
AcDbRotatedDimension
  0
DIMENSION
  5
17B
100
AcDbEntity
  8
0
  6
ByLayer
 62
  256
370
   -1
100
AcDbDimension
  2
*D6
 10
280
 20
34.52506871429069
 30
0
 11
280
 21
84.5250687142907
 31
0
 70
   32
 71
    5
  3
Standard
 53
0
210
0
220
0
230
1
100
AcDbAlignedDimension
 13
229.7359419483599
 23
134.5250687142907
 33
0
 14
260.7359419483598
 24
34.52506871429069
 34
0
 50
90
100
AcDbRotatedDimension
  0
ENDSEC
  0
SECTION
  2
OBJECTS
  0
DICTIONARY
  5
C
330
0
100
AcDbDictionary
281
    1
  3
ACAD_GROUP
350
D
  0
DICTIONARY
  5
D
330
C
100
AcDbDictionary
281
    1
  0
ENDSEC
  0
EOF
