<?xml version='1.0' encoding='utf-8'?>
<svg width="211.43mm" height="124.45mm" viewBox="0.0 0.0 211.43 124.45" xmlns="http://www.w3.org/2000/svg" xmlns:dc="http://purl.org/dc/elements/1.1/" xmlns:cc="http://creativecommons.org/ns#" xmlns:rdf="http://www.w3.org/1999/02/22-rdf-syntax-ns#" xmlns:svg="http://www.w3.org/2000/svg" xmlns:xlink="http://www.w3.org/1999/xlink" xmlns:inkscape="http://www.inkscape.org/namespaces/inkscape">
<!--
FlexBox - Box with living hinge and round corners

Created with Boxes.py (https://festi.info/boxes.py)
Creation date: 2023-05-12 10:28:01
Command line (remove spaces between dashes): boxes FlexBox - -x=52 - -y=52 - -h=30 - -outside=0 - -radius=10 - -thickness=2.5 - -labels=0 - -burn=0.2
Url: http://www.festi.info/boxes.py/FlexBox?FingerJoint_angle=90.0&FingerJoint_style=rectangular&FingerJoint_surroundingspaces=2.0&FingerJoint_bottom_lip=0.0&FingerJoint_edge_width=1.0&FingerJoint_extra_length=0.0&FingerJoint_finger=2.0&FingerJoint_play=0.0&FingerJoint_space=2.0&FingerJoint_width=1.0&Flex_stretch=1.05&Flex_connection=1.0&Flex_distance=0.5&Flex_width=5.0&x=52&y=52&h=30&outside=0&radius=10&latchsize=8&thickness=2.5&format=svg&tabs=0.0&qr_code=0&debug=0&labels=0&reference=100&inner_corners=loop&burn=0.2&language=en&render=2
Url short: http://www.festi.info/boxes.py/FlexBox?x=52&y=52&h=30&outside=0&radius=10&thickness=2.5&labels=0&burn=0.2
SettingsUrl: http://www.festi.info/boxes.py/FlexBox?FingerJoint_angle=90.0&FingerJoint_style=rectangular&FingerJoint_surroundingspaces=2.0&FingerJoint_bottom_lip=0.0&FingerJoint_edge_width=1.0&FingerJoint_extra_length=0.0&FingerJoint_finger=2.0&FingerJoint_play=0.0&FingerJoint_space=2.0&FingerJoint_width=1.0&Flex_stretch=1.05&Flex_connection=1.0&Flex_distance=0.5&Flex_width=5.0&x=52&y=52&h=30&outside=0&radius=10&latchsize=8&thickness=2.5&format=svg&tabs=0.0&qr_code=0&debug=0&labels=0&reference=100&inner_corners=loop&burn=0.2&language=en&render=2
SettingsUrl short: http://www.festi.info/boxes.py/FlexBox?x=52&y=52&h=30&outside=0&radius=10&thickness=2.5&labels=0&burn=0.2
-->
<title>FlexBox</title>
<metadata>
<rdf:RDF><cc:Work>
<dc:title>FlexBox - FlexBox</dc:title>
<dc:date>2023-05-12 10:28:01</dc:date>
<dc:source>http://www.festi.info/boxes.py/FlexBox?FingerJoint_angle=90.0&amp;FingerJoint_style=rectangular&amp;FingerJoint_surroundingspaces=2.0&amp;FingerJoint_bottom_lip=0.0&amp;FingerJoint_edge_width=1.0&amp;FingerJoint_extra_length=0.0&amp;FingerJoint_finger=2.0&amp;FingerJoint_play=0.0&amp;FingerJoint_space=2.0&amp;FingerJoint_width=1.0&amp;Flex_stretch=1.05&amp;Flex_connection=1.0&amp;Flex_distance=0.5&amp;Flex_width=5.0&amp;x=52&amp;y=52&amp;h=30&amp;outside=0&amp;radius=10&amp;latchsize=8&amp;thickness=2.5&amp;format=svg&amp;tabs=0.0&amp;qr_code=0&amp;debug=0&amp;labels=0&amp;reference=100&amp;inner_corners=loop&amp;burn=0.2&amp;language=en&amp;render=2</dc:source>
<dc:source>http://www.festi.info/boxes.py/FlexBox?x=52&amp;y=52&amp;h=30&amp;outside=0&amp;radius=10&amp;thickness=2.5&amp;labels=0&amp;burn=0.2</dc:source>
<dc:description>Box with living hinge and round corners

Created with Boxes.py (https://festi.info/boxes.py)
Command line: boxes FlexBox --FingerJoint_angle=90.0 --FingerJoint_style=rectangular --FingerJoint_surroundingspaces=2.0 --FingerJoint_bottom_lip=0.0 --FingerJoint_edge_width=1.0 --FingerJoint_extra_length=0.0 --FingerJoint_finger=2.0 --FingerJoint_play=0.0 --FingerJoint_space=2.0 --FingerJoint_width=1.0 --Flex_stretch=1.05 --Flex_connection=1.0 --Flex_distance=0.5 --Flex_width=5.0 --x=52 --y=52 --h=30 --outside=0 --radius=10 --latchsize=8 --thickness=2.5 --format=svg --tabs=0.0 --qr_code=0 --debug=0 --labels=0 --reference=100 --inner_corners=loop --burn=0.2
Command line short: boxes FlexBox --x=52 --y=52 --h=30 --outside=0 --radius=10 --thickness=2.5 --labels=0 --burn=0.2
Url: http://www.festi.info/boxes.py/FlexBox?FingerJoint_angle=90.0&amp;FingerJoint_style=rectangular&amp;FingerJoint_surroundingspaces=2.0&amp;FingerJoint_bottom_lip=0.0&amp;FingerJoint_edge_width=1.0&amp;FingerJoint_extra_length=0.0&amp;FingerJoint_finger=2.0&amp;FingerJoint_play=0.0&amp;FingerJoint_space=2.0&amp;FingerJoint_width=1.0&amp;Flex_stretch=1.05&amp;Flex_connection=1.0&amp;Flex_distance=0.5&amp;Flex_width=5.0&amp;x=52&amp;y=52&amp;h=30&amp;outside=0&amp;radius=10&amp;latchsize=8&amp;thickness=2.5&amp;format=svg&amp;tabs=0.0&amp;qr_code=0&amp;debug=0&amp;labels=0&amp;reference=100&amp;inner_corners=loop&amp;burn=0.2&amp;language=en&amp;render=2
Url short: http://www.festi.info/boxes.py/FlexBox?x=52&amp;y=52&amp;h=30&amp;outside=0&amp;radius=10&amp;thickness=2.5&amp;labels=0&amp;burn=0.2
SettingsUrl: http://www.festi.info/boxes.py/FlexBox?FingerJoint_angle=90.0&amp;FingerJoint_style=rectangular&amp;FingerJoint_surroundingspaces=2.0&amp;FingerJoint_bottom_lip=0.0&amp;FingerJoint_edge_width=1.0&amp;FingerJoint_extra_length=0.0&amp;FingerJoint_finger=2.0&amp;FingerJoint_play=0.0&amp;FingerJoint_space=2.0&amp;FingerJoint_width=1.0&amp;Flex_stretch=1.05&amp;Flex_connection=1.0&amp;Flex_distance=0.5&amp;Flex_width=5.0&amp;x=52&amp;y=52&amp;h=30&amp;outside=0&amp;radius=10&amp;latchsize=8&amp;thickness=2.5&amp;format=svg&amp;tabs=0.0&amp;qr_code=0&amp;debug=0&amp;labels=0&amp;reference=100&amp;inner_corners=loop&amp;burn=0.2&amp;language=en&amp;render=2
SettingsUrl short: http://www.festi.info/boxes.py/FlexBox?x=52&amp;y=52&amp;h=30&amp;outside=0&amp;radius=10&amp;thickness=2.5&amp;labels=0&amp;burn=0.2
</dc:description>
</cc:Work></rdf:RDF></metadata>
<g id="p-0" style="fill:none;stroke-linecap:round;stroke-linejoin:round;">
  <path d="M 10.400 114.450 H 110.400 V 104.450 H 10.400 V 114.450 Z" stroke="rgb(0,0,0)" stroke-width="0.40" />
  <text transform="matrix( 1.000 0.000 0.000 1.000 60.400 105.450 )" style="font-family: sans-serif ; font-weight: normal; font-style: normal; fill: rgb(255,0,0)" font-size="8px" text-anchor="middle" dominant-baseline="hanging">100mm, burn:0.20mm</text>
</g>
<g id="p-1" style="fill:none;stroke-linecap:round;stroke-linejoin:round;">
  <path d="M 10.400 102.175 H 13.900 C 14.010 102.175 14.100 102.085 14.100 101.975 V 99.675 C 14.100 99.475 13.900 99.675 14.100 99.675 H 18.700 C 18.900 99.675 18.700 99.475 18.700 99.675 V 101.975 C 18.700 102.085 18.790 102.175 18.900 102.175 H 22.400 H 38.108 H 46.608 C 46.718 102.175 46.808 102.085 46.808 101.975 V 99.675 C 46.808 99.475 46.608 99.675 46.808 99.675 H 51.408 C 51.608 99.675 51.408 99.475 51.408 99.675 V 101.975 C 51.408 102.085 51.498 102.175 51.608 102.175 H 56.608 C 56.718 102.175 56.808 102.085 56.808 101.975 V 99.675 C 56.808 99.475 56.608 99.675 56.808 99.675 H 61.408 C 61.608 99.675 61.408 99.475 61.408 99.675 V 101.975 C 61.408 102.085 61.498 102.175 61.608 102.175 H 70.108 H 85.816 H 94.316 C 94.426 102.175 94.516 102.085 94.516 101.975 V 99.675 C 94.516 99.475 94.316 99.675 94.516 99.675 H 99.116 C 99.316 99.675 99.116 99.475 99.116 99.675 V 101.975 C 99.116 102.085 99.205 102.175 99.316 102.175 H 104.316 C 104.426 102.175 104.516 102.085 104.516 101.975 V 99.675 C 104.516 99.475 104.316 99.675 104.516 99.675 H 109.116 C 109.316 99.675 109.116 99.475 109.116 99.675 V 101.975 C 109.116 102.085 109.205 102.175 109.316 102.175 H 117.816 H 133.524 H 165.524 H 181.232 C 181.342 102.175 181.432 102.085 181.432 101.975 V 99.425 C 181.432 99.225 181.232 99.425 181.432 99.425 H 191.532 C 191.732 99.425 191.532 99.225 191.532 99.425 V 101.975 C 191.532 102.120 191.570 102.262 191.642 102.388 C 191.715 102.513 191.819 102.617 191.944 102.689 C 192.070 102.762 192.212 102.800 192.357 102.800 C 192.482 102.800 192.606 102.767 192.715 102.704 C 192.823 102.641 192.914 102.551 192.977 102.442 C 193.039 102.333 193.072 102.210 193.072 102.084 C 193.072 102.029 193.087 101.975 193.115 101.927 C 193.142 101.879 193.182 101.839 193.230 101.811 C 193.278 101.783 193.333 101.769 193.388 101.769 C 193.444 101.769 193.498 101.783 193.546 101.811 C 193.594 101.839 193.634 101.879 193.661 101.927 C 193.689 101.975 193.704 102.029 193.704 102.084 C 193.704 102.210 193.737 102.333 193.800 102.442 C 193.862 102.551 193.953 102.641 194.062 102.704 C 194.170 102.767 194.294 102.800 194.419 102.800 C 194.545 102.800 194.668 102.767 194.777 102.704 C 194.886 102.641 194.976 102.551 195.039 102.442 C 195.102 102.333 195.135 102.210 195.135 102.084 C 195.135 102.029 195.150 101.975 195.177 101.927 C 195.205 101.879 195.245 101.839 195.293 101.811 C 195.341 101.783 195.395 101.769 195.451 101.769 C 195.506 101.769 195.560 101.783 195.608 101.811 C 195.656 101.839 195.696 101.879 195.724 101.927 C 195.752 101.975 195.766 102.029 195.766 102.084 C 195.766 102.210 195.799 102.333 195.862 102.442 C 195.925 102.551 196.015 102.641 196.124 102.704 C 196.233 102.767 196.356 102.800 196.482 102.800 C 196.607 102.800 196.731 102.767 196.840 102.704 C 196.948 102.641 197.039 102.551 197.102 102.442 C 197.164 102.333 197.197 102.210 197.197 102.084 C 197.197 102.029 197.212 101.975 197.240 101.927 C 197.267 101.879 197.307 101.839 197.355 101.811 C 197.403 101.783 197.458 101.769 197.513 101.769 C 197.569 101.769 197.623 101.783 197.671 101.811 C 197.719 101.839 197.759 101.879 197.786 101.927 C 197.814 101.975 197.829 102.029 197.829 102.084 C 197.829 102.210 197.862 102.333 197.925 102.442 C 197.987 102.551 198.078 102.641 198.187 102.704 C 198.295 102.767 198.419 102.800 198.544 102.800 C 198.670 102.800 198.793 102.767 198.902 102.704 C 199.011 102.641 199.101 102.551 199.164 102.442 C 199.227 102.333 199.260 102.210 199.260 102.084 C 199.260 102.029 199.275 101.975 199.302 101.927 C 199.330 101.879 199.370 101.839 199.418 101.811 C 199.466 101.783 199.520 101.769 199.576 101.769 C 199.631 101.769 199.685 101.783 199.733 101.811 C 199.781 101.839 199.821 101.879 199.849 101.927 C 199.877 101.975 199.891 102.029 199.891 102.084 C 199.891 102.210 199.924 102.333 199.987 102.442 C 200.050 102.551 200.140 102.641 200.249 102.704 C 200.358 102.767 200.481 102.800 200.607 102.800 C 200.752 102.800 200.894 102.762 201.019 102.689 C 201.145 102.617 201.249 102.513 201.321 102.388 C 201.394 102.262 201.432 102.120 201.432 101.975 V 66.975 C 201.432 66.830 201.394 66.688 201.321 66.563 C 201.249 66.437 201.145 66.333 201.019 66.261 C 200.894 66.188 200.752 66.150 200.607 66.150 C 200.481 66.150 200.358 66.183 200.249 66.246 C 200.140 66.309 200.050 66.399 199.987 66.508 C 199.924 66.617 199.891 66.740 199.891 66.866 C 199.891 66.921 199.877 66.975 199.849 67.023 C 199.821 67.071 199.781 67.111 199.733 67.139 C 199.685 67.167 199.631 67.181 199.576 67.181 C 199.520 67.181 199.466 67.167 199.418 67.139 C 199.370 67.111 199.330 67.071 199.302 67.023 C 199.275 66.975 199.260 66.921 199.260 66.866 C 199.260 66.740 199.227 66.617 199.164 66.508 C 199.101 66.399 199.011 66.309 198.902 66.246 C 198.793 66.183 198.670 66.150 198.544 66.150 C 198.419 66.150 198.295 66.183 198.187 66.246 C 198.078 66.309 197.987 66.399 197.925 66.508 C 197.862 66.617 197.829 66.740 197.829 66.866 C 197.829 66.921 197.814 66.975 197.786 67.023 C 197.759 67.071 197.719 67.111 197.671 67.139 C 197.623 67.167 197.569 67.181 197.513 67.181 C 197.458 67.181 197.403 67.167 197.355 67.139 C 197.307 67.111 197.267 67.071 197.240 67.023 C 197.212 66.975 197.197 66.921 197.197 66.866 C 197.197 66.740 197.164 66.617 197.102 66.508 C 197.039 66.399 196.948 66.309 196.840 66.246 C 196.731 66.183 196.607 66.150 196.482 66.150 C 196.356 66.150 196.233 66.183 196.124 66.246 C 196.015 66.309 195.925 66.399 195.862 66.508 C 195.799 66.617 195.766 66.740 195.766 66.866 C 195.766 66.921 195.752 66.975 195.724 67.023 C 195.696 67.071 195.656 67.111 195.608 67.139 C 195.560 67.167 195.506 67.181 195.451 67.181 C 195.395 67.181 195.341 67.167 195.293 67.139 C 195.245 67.111 195.205 67.071 195.177 67.023 C 195.150 66.975 195.135 66.921 195.135 66.866 C 195.135 66.740 195.102 66.617 195.039 66.508 C 194.976 66.399 194.886 66.309 194.777 66.246 C 194.668 66.183 194.545 66.150 194.419 66.150 C 194.294 66.150 194.170 66.183 194.062 66.246 C 193.953 66.309 193.862 66.399 193.800 66.508 C 193.737 66.617 193.704 66.740 193.704 66.866 C 193.704 66.921 193.689 66.975 193.661 67.023 C 193.634 67.071 193.594 67.111 193.546 67.139 C 193.498 67.167 193.444 67.181 193.388 67.181 C 193.333 67.181 193.278 67.167 193.230 67.139 C 193.182 67.111 193.142 67.071 193.115 67.023 C 193.087 66.975 193.072 66.921 193.072 66.866 C 193.072 66.740 193.039 66.617 192.977 66.508 C 192.914 66.399 192.823 66.309 192.715 66.246 C 192.606 66.183 192.482 66.150 192.357 66.150 C 192.212 66.150 192.070 66.188 191.944 66.261 C 191.819 66.333 191.715 66.437 191.642 66.562 C 191.570 66.688 191.532 66.830 191.532 66.975 V 69.525 C 191.532 69.725 191.732 69.525 191.532 69.525 H 181.432 C 181.232 69.525 181.432 69.725 181.432 69.525 V 66.975 C 181.432 66.865 181.342 66.775 181.232 66.775 H 165.524 H 133.524 H 117.816 H 109.316 C 109.205 66.775 109.116 66.865 109.116 66.975 V 69.275 C 109.116 69.475 109.316 69.275 109.116 69.275 H 104.516 C 104.316 69.275 104.516 69.475 104.516 69.275 V 66.975 C 104.516 66.865 104.426 66.775 104.316 66.775 H 99.316 C 99.205 66.775 99.116 66.865 99.116 66.975 V 69.275 C 99.116 69.475 99.316 69.275 99.116 69.275 H 94.516 C 94.316 69.275 94.516 69.475 94.516 69.275 V 66.975 C 94.516 66.865 94.426 66.775 94.316 66.775 H 85.816 H 70.108 H 61.608 C 61.498 66.775 61.408 66.865 61.408 66.975 V 69.275 C 61.408 69.475 61.608 69.275 61.408 69.275 H 56.808 C 56.608 69.275 56.808 69.475 56.808 69.275 V 66.975 C 56.808 66.865 56.718 66.775 56.608 66.775 H 51.608 C 51.498 66.775 51.408 66.865 51.408 66.975 V 69.275 C 51.408 69.475 51.608 69.275 51.408 69.275 H 46.808 C 46.608 69.275 46.808 69.475 46.808 69.275 V 66.975 C 46.808 66.865 46.718 66.775 46.608 66.775 H 38.108 H 22.400 H 18.900 C 18.790 66.775 18.700 66.865 18.700 66.975 V 69.275 C 18.700 69.475 18.900 69.275 18.700 69.275 H 14.100 C 13.900 69.275 14.100 69.475 14.100 69.275 V 66.975 C 14.100 66.865 14.010 66.775 13.900 66.775 H 10.400 C 10.290 66.775 10.200 66.865 10.200 66.975 V 101.975 C 10.200 102.085 10.290 102.175 10.400 102.175 Z" stroke="rgb(0,0,0)" stroke-width="0.40" />
  <path d="M 24.004 102.175 V 85.725 M 24.004 83.225 V 66.775 M 25.254 69.275 V 99.675 M 26.504 102.175 V 85.725 M 26.504 83.225 V 66.775 M 27.754 69.275 V 99.675 M 29.004 102.175 V 85.725 M 29.004 83.225 V 66.775 M 30.254 69.275 V 99.675 M 31.504 102.175 V 85.725 M 31.504 83.225 V 66.775 M 32.754 69.275 V 99.675 M 34.004 102.175 V 85.725 M 34.004 83.225 V 66.775 M 35.254 69.275 V 99.675 M 36.504 102.175 V 85.725 M 36.504 83.225 V 66.775" stroke="rgb(0,0,0)" stroke-width="0.40" />
  <path d="M 71.712 102.175 V 85.725 M 71.712 83.225 V 66.775 M 72.962 69.275 V 99.675 M 74.212 102.175 V 85.725 M 74.212 83.225 V 66.775 M 75.462 69.275 V 99.675 M 76.712 102.175 V 85.725 M 76.712 83.225 V 66.775 M 77.962 69.275 V 99.675 M 79.212 102.175 V 85.725 M 79.212 83.225 V 66.775 M 80.462 69.275 V 99.675 M 81.712 102.175 V 85.725 M 81.712 83.225 V 66.775 M 82.962 69.275 V 99.675 M 84.212 102.175 V 85.725 M 84.212 83.225 V 66.775" stroke="rgb(0,0,0)" stroke-width="0.40" />
  <path d="M 119.420 102.175 V 85.725 M 119.420 83.225 V 66.775 M 120.670 69.275 V 99.675 M 121.920 102.175 V 85.725 M 121.920 83.225 V 66.775 M 123.170 69.275 V 99.675 M 124.420 102.175 V 85.725 M 124.420 83.225 V 66.775 M 125.670 69.275 V 99.675 M 126.920 102.175 V 85.725 M 126.920 83.225 V 66.775 M 128.170 69.275 V 99.675 M 129.420 102.175 V 85.725 M 129.420 83.225 V 66.775 M 130.670 69.275 V 99.675 M 131.920 102.175 V 85.725 M 131.920 83.225 V 66.775" stroke="rgb(0,0,0)" stroke-width="0.40" />
  <path d="M 167.128 102.175 V 85.725 M 167.128 83.225 V 66.775 M 168.378 69.275 V 99.675 M 169.628 102.175 V 85.725 M 169.628 83.225 V 66.775 M 170.878 69.275 V 99.675 M 172.128 102.175 V 85.725 M 172.128 83.225 V 66.775 M 173.378 69.275 V 99.675 M 174.628 102.175 V 85.725 M 174.628 83.225 V 66.775 M 175.878 69.275 V 99.675 M 177.128 102.175 V 85.725 M 177.128 83.225 V 66.775 M 178.378 69.275 V 99.675 M 179.628 102.175 V 85.725 M 179.628 83.225 V 66.775" stroke="rgb(0,0,0)" stroke-width="0.40" />
</g>
<g id="p-2" style="fill:none;stroke-linecap:round;stroke-linejoin:round;">
  <path d="M 22.900 62.400 H 31.200 C 31.400 62.400 31.200 62.200 31.200 62.400 V 64.700 C 31.200 64.810 31.290 64.900 31.400 64.900 H 36.400 C 36.510 64.900 36.600 64.810 36.600 64.700 V 62.400 C 36.600 62.200 36.400 62.400 36.600 62.400 H 41.200 C 41.400 62.400 41.200 62.200 41.200 62.400 V 64.700 C 41.200 64.810 41.290 64.900 41.400 64.900 H 46.400 C 46.510 64.900 46.600 64.810 46.600 64.700 V 62.400 C 46.600 62.200 46.400 62.400 46.600 62.400 H 54.900 C 56.690 62.400 58.449 61.929 60.000 61.033 C 61.551 60.138 62.838 58.851 63.733 57.300 C 64.629 55.749 65.100 53.990 65.100 52.200 V 43.900 C 65.100 43.700 64.900 43.900 65.100 43.900 H 67.400 C 67.510 43.900 67.600 43.810 67.600 43.700 V 38.700 C 67.600 38.590 67.510 38.500 67.400 38.500 H 65.100 C 64.900 38.500 65.100 38.700 65.100 38.500 V 33.900 C 65.100 33.700 64.900 33.900 65.100 33.900 H 67.400 C 67.510 33.900 67.600 33.810 67.600 33.700 V 28.700 C 67.600 28.590 67.510 28.500 67.400 28.500 H 65.100 C 64.900 28.500 65.100 28.700 65.100 28.500 V 20.200 C 65.100 18.410 64.629 16.651 63.733 15.100 C 62.838 13.549 61.551 12.262 60.000 11.367 C 58.449 10.471 56.690 10.000 54.900 10.000 H 22.900 C 21.110 10.000 19.351 10.471 17.800 11.367 C 16.249 12.262 14.962 13.549 14.067 15.100 C 13.171 16.651 12.700 18.410 12.700 20.200 C 12.700 20.090 12.790 20.000 12.900 20.000 H 10.400 C 10.290 20.000 10.200 20.090 10.200 20.200 V 30.200 C 10.200 30.310 10.290 30.400 10.400 30.400 H 12.700 C 12.900 30.400 12.700 30.200 12.700 30.400 V 40.200 V 43.500 C 12.700 43.700 12.900 43.500 12.700 43.500 H 10.400 C 10.290 43.500 10.200 43.590 10.200 43.700 V 48.700 C 10.200 48.810 10.290 48.900 10.400 48.900 H 12.700 C 12.900 48.900 12.700 48.700 12.700 48.900 V 52.200 C 12.700 53.990 13.171 55.749 14.067 57.300 C 14.962 58.851 16.249 60.138 17.800 61.033 C 19.351 61.929 21.110 62.400 22.900 62.400 Z" stroke="rgb(0,0,0)" stroke-width="0.40" />
</g>
<g id="p-3" style="fill:none;stroke-linecap:round;stroke-linejoin:round;">
  <path d="M 113.550 62.400 H 105.250 C 105.050 62.400 105.250 62.200 105.250 62.400 V 64.700 C 105.250 64.810 105.160 64.900 105.050 64.900 H 100.050 C 99.940 64.900 99.850 64.810 99.850 64.700 V 62.400 C 99.850 62.200 100.050 62.400 99.850 62.400 H 95.250 C 95.050 62.400 95.250 62.200 95.250 62.400 V 64.700 C 95.250 64.810 95.160 64.900 95.050 64.900 H 90.050 C 89.940 64.900 89.850 64.810 89.850 64.700 V 62.400 C 89.850 62.200 90.050 62.400 89.850 62.400 H 81.550 C 79.760 62.400 78.001 61.929 76.450 61.033 C 74.899 60.138 73.612 58.851 72.717 57.300 C 71.821 55.749 71.350 53.990 71.350 52.200 V 43.900 C 71.350 43.700 71.550 43.900 71.350 43.900 H 69.050 C 68.940 43.900 68.850 43.810 68.850 43.700 V 38.700 C 68.850 38.590 68.940 38.500 69.050 38.500 H 71.350 C 71.550 38.500 71.350 38.700 71.350 38.500 V 33.900 C 71.350 33.700 71.550 33.900 71.350 33.900 H 69.050 C 68.940 33.900 68.850 33.810 68.850 33.700 V 28.700 C 68.850 28.590 68.940 28.500 69.050 28.500 H 71.350 C 71.550 28.500 71.350 28.700 71.350 28.500 V 20.200 C 71.350 18.410 71.821 16.651 72.717 15.100 C 73.612 13.549 74.899 12.262 76.450 11.367 C 78.001 10.471 79.760 10.000 81.550 10.000 H 113.550 C 115.340 10.000 117.099 10.471 118.650 11.367 C 120.201 12.262 121.488 13.549 122.383 15.100 C 123.279 16.651 123.750 18.410 123.750 20.200 C 123.750 20.090 123.660 20.000 123.550 20.000 H 126.050 C 126.160 20.000 126.250 20.090 126.250 20.200 V 30.200 C 126.250 30.310 126.160 30.400 126.050 30.400 H 123.750 C 123.550 30.400 123.750 30.200 123.750 30.400 V 40.200 V 43.500 C 123.750 43.700 123.550 43.500 123.750 43.500 H 126.050 C 126.160 43.500 126.250 43.590 126.250 43.700 V 48.700 C 126.250 48.810 126.160 48.900 126.050 48.900 H 123.750 C 123.550 48.900 123.750 48.700 123.750 48.900 V 52.200 C 123.750 53.990 123.279 55.749 122.383 57.300 C 121.488 58.851 120.201 60.138 118.650 61.033 C 117.099 61.929 115.340 62.400 113.550 62.400 Z" stroke="rgb(0,0,0)" stroke-width="0.40" />
</g>
</svg>