<?xml version='1.0' encoding='utf-8'?>
<svg width="215.72mm" height="126.45mm" viewBox="0.0 0.0 215.72 126.45" xmlns="http://www.w3.org/2000/svg" xmlns:dc="http://purl.org/dc/elements/1.1/" xmlns:cc="http://creativecommons.org/ns#" xmlns:rdf="http://www.w3.org/1999/02/22-rdf-syntax-ns#" xmlns:svg="http://www.w3.org/2000/svg" xmlns:xlink="http://www.w3.org/1999/xlink" xmlns:inkscape="http://www.inkscape.org/namespaces/inkscape">
<!--
FlexBox - Box with living hinge and round corners

Created with Boxes.py (https://festi.info/boxes.py)
Creation date: 2023-05-12 05:20:42
Command line (remove spaces between dashes): boxes FlexBox - -x=52 - -y=52 - -h=32 - -outside=0 - -radius=7.5 - -thickness=2.5 - -burn=0.2
Url: http://www.festi.info/boxes.py/FlexBox?FingerJoint_angle=90.0&FingerJoint_style=rectangular&FingerJoint_surroundingspaces=2.0&FingerJoint_bottom_lip=0.0&FingerJoint_edge_width=1.0&FingerJoint_extra_length=0.0&FingerJoint_finger=2.0&FingerJoint_play=0.0&FingerJoint_space=2.0&FingerJoint_width=1.0&Flex_stretch=1.05&Flex_connection=1.0&Flex_distance=0.5&Flex_width=5.0&x=52&y=52&h=32&outside=0&radius=7.5&latchsize=8&thickness=2.5&format=svg&tabs=0.0&qr_code=0&debug=0&labels=0&labels=1&reference=100&inner_corners=loop&burn=0.2&language=en&render=2
Url short: http://www.festi.info/boxes.py/FlexBox?x=52&y=52&h=32&outside=0&radius=7.5&thickness=2.5&burn=0.2
SettingsUrl: http://www.festi.info/boxes.py/FlexBox?FingerJoint_angle=90.0&FingerJoint_style=rectangular&FingerJoint_surroundingspaces=2.0&FingerJoint_bottom_lip=0.0&FingerJoint_edge_width=1.0&FingerJoint_extra_length=0.0&FingerJoint_finger=2.0&FingerJoint_play=0.0&FingerJoint_space=2.0&FingerJoint_width=1.0&Flex_stretch=1.05&Flex_connection=1.0&Flex_distance=0.5&Flex_width=5.0&x=52&y=52&h=32&outside=0&radius=7.5&latchsize=8&thickness=2.5&format=svg&tabs=0.0&qr_code=0&debug=0&labels=0&labels=1&reference=100&inner_corners=loop&burn=0.2&language=en&render=2
SettingsUrl short: http://www.festi.info/boxes.py/FlexBox?x=52&y=52&h=32&outside=0&radius=7.5&thickness=2.5&burn=0.2
-->
<title>FlexBox</title>
<metadata>
<rdf:RDF><cc:Work>
<dc:title>FlexBox - FlexBox</dc:title>
<dc:date>2023-05-12 05:20:42</dc:date>
<dc:source>http://www.festi.info/boxes.py/FlexBox?FingerJoint_angle=90.0&amp;FingerJoint_style=rectangular&amp;FingerJoint_surroundingspaces=2.0&amp;FingerJoint_bottom_lip=0.0&amp;FingerJoint_edge_width=1.0&amp;FingerJoint_extra_length=0.0&amp;FingerJoint_finger=2.0&amp;FingerJoint_play=0.0&amp;FingerJoint_space=2.0&amp;FingerJoint_width=1.0&amp;Flex_stretch=1.05&amp;Flex_connection=1.0&amp;Flex_distance=0.5&amp;Flex_width=5.0&amp;x=52&amp;y=52&amp;h=32&amp;outside=0&amp;radius=7.5&amp;latchsize=8&amp;thickness=2.5&amp;format=svg&amp;tabs=0.0&amp;qr_code=0&amp;debug=0&amp;labels=0&amp;labels=1&amp;reference=100&amp;inner_corners=loop&amp;burn=0.2&amp;language=en&amp;render=2</dc:source>
<dc:source>http://www.festi.info/boxes.py/FlexBox?x=52&amp;y=52&amp;h=32&amp;outside=0&amp;radius=7.5&amp;thickness=2.5&amp;burn=0.2</dc:source>
<dc:description>Box with living hinge and round corners

Created with Boxes.py (https://festi.info/boxes.py)
Command line: boxes FlexBox --FingerJoint_angle=90.0 --FingerJoint_style=rectangular --FingerJoint_surroundingspaces=2.0 --FingerJoint_bottom_lip=0.0 --FingerJoint_edge_width=1.0 --FingerJoint_extra_length=0.0 --FingerJoint_finger=2.0 --FingerJoint_play=0.0 --FingerJoint_space=2.0 --FingerJoint_width=1.0 --Flex_stretch=1.05 --Flex_connection=1.0 --Flex_distance=0.5 --Flex_width=5.0 --x=52 --y=52 --h=32 --outside=0 --radius=7.5 --latchsize=8 --thickness=2.5 --format=svg --tabs=0.0 --qr_code=0 --debug=0 --labels=0 --labels=1 --reference=100 --inner_corners=loop --burn=0.2
Command line short: boxes FlexBox --x=52 --y=52 --h=32 --outside=0 --radius=7.5 --thickness=2.5 --burn=0.2
Url: http://www.festi.info/boxes.py/FlexBox?FingerJoint_angle=90.0&amp;FingerJoint_style=rectangular&amp;FingerJoint_surroundingspaces=2.0&amp;FingerJoint_bottom_lip=0.0&amp;FingerJoint_edge_width=1.0&amp;FingerJoint_extra_length=0.0&amp;FingerJoint_finger=2.0&amp;FingerJoint_play=0.0&amp;FingerJoint_space=2.0&amp;FingerJoint_width=1.0&amp;Flex_stretch=1.05&amp;Flex_connection=1.0&amp;Flex_distance=0.5&amp;Flex_width=5.0&amp;x=52&amp;y=52&amp;h=32&amp;outside=0&amp;radius=7.5&amp;latchsize=8&amp;thickness=2.5&amp;format=svg&amp;tabs=0.0&amp;qr_code=0&amp;debug=0&amp;labels=0&amp;labels=1&amp;reference=100&amp;inner_corners=loop&amp;burn=0.2&amp;language=en&amp;render=2
Url short: http://www.festi.info/boxes.py/FlexBox?x=52&amp;y=52&amp;h=32&amp;outside=0&amp;radius=7.5&amp;thickness=2.5&amp;burn=0.2
SettingsUrl: http://www.festi.info/boxes.py/FlexBox?FingerJoint_angle=90.0&amp;FingerJoint_style=rectangular&amp;FingerJoint_surroundingspaces=2.0&amp;FingerJoint_bottom_lip=0.0&amp;FingerJoint_edge_width=1.0&amp;FingerJoint_extra_length=0.0&amp;FingerJoint_finger=2.0&amp;FingerJoint_play=0.0&amp;FingerJoint_space=2.0&amp;FingerJoint_width=1.0&amp;Flex_stretch=1.05&amp;Flex_connection=1.0&amp;Flex_distance=0.5&amp;Flex_width=5.0&amp;x=52&amp;y=52&amp;h=32&amp;outside=0&amp;radius=7.5&amp;latchsize=8&amp;thickness=2.5&amp;format=svg&amp;tabs=0.0&amp;qr_code=0&amp;debug=0&amp;labels=0&amp;labels=1&amp;reference=100&amp;inner_corners=loop&amp;burn=0.2&amp;language=en&amp;render=2
SettingsUrl short: http://www.festi.info/boxes.py/FlexBox?x=52&amp;y=52&amp;h=32&amp;outside=0&amp;radius=7.5&amp;thickness=2.5&amp;burn=0.2
</dc:description>
</cc:Work></rdf:RDF></metadata>
<g id="p-0" style="fill:none;stroke-linecap:round;stroke-linejoin:round;">
  <path d="M 10.400 116.450 H 110.400 V 106.450 H 10.400 V 116.450 Z" stroke="rgb(0,0,0)" stroke-width="0.40" />
  <text transform="matrix( 1.000 0.000 0.000 1.000 60.400 107.450 )" style="font-family: sans-serif ; font-weight: normal; font-style: normal; fill: rgb(255,0,0)" font-size="8px" text-anchor="middle" dominant-baseline="hanging">100mm, burn:0.20mm</text>
</g>
<g id="p-1" style="fill:none;stroke-linecap:round;stroke-linejoin:round;">
  <path d="M 10.400 104.175 H 16.400 C 16.510 104.175 16.600 104.085 16.600 103.975 V 101.675 C 16.600 101.475 16.400 101.675 16.600 101.675 H 21.200 C 21.400 101.675 21.200 101.475 21.200 101.675 V 103.975 C 21.200 104.085 21.290 104.175 21.400 104.175 H 27.400 H 39.181 H 45.181 C 45.291 104.175 45.381 104.085 45.381 103.975 V 101.675 C 45.381 101.475 45.181 101.675 45.381 101.675 H 49.981 C 50.181 101.675 49.981 101.475 49.981 101.675 V 103.975 C 49.981 104.085 50.071 104.175 50.181 104.175 H 55.181 C 55.291 104.175 55.381 104.085 55.381 103.975 V 101.675 C 55.381 101.475 55.181 101.675 55.381 101.675 H 59.981 C 60.181 101.675 59.981 101.475 59.981 101.675 V 103.975 C 59.981 104.085 60.071 104.175 60.181 104.175 H 65.181 C 65.291 104.175 65.381 104.085 65.381 103.975 V 101.675 C 65.381 101.475 65.181 101.675 65.381 101.675 H 69.981 C 70.181 101.675 69.981 101.475 69.981 101.675 V 103.975 C 69.981 104.085 70.071 104.175 70.181 104.175 H 76.181 H 87.962 H 93.962 C 94.072 104.175 94.162 104.085 94.162 103.975 V 101.675 C 94.162 101.475 93.962 101.675 94.162 101.675 H 98.762 C 98.962 101.675 98.762 101.475 98.762 101.675 V 103.975 C 98.762 104.085 98.851 104.175 98.962 104.175 H 103.962 C 104.072 104.175 104.162 104.085 104.162 103.975 V 101.675 C 104.162 101.475 103.962 101.675 104.162 101.675 H 108.762 C 108.962 101.675 108.762 101.475 108.762 101.675 V 103.975 C 108.762 104.085 108.851 104.175 108.962 104.175 H 113.962 C 114.072 104.175 114.162 104.085 114.162 103.975 V 101.675 C 114.162 101.475 113.962 101.675 114.162 101.675 H 118.762 C 118.962 101.675 118.762 101.475 118.762 101.675 V 103.975 C 118.762 104.085 118.851 104.175 118.962 104.175 H 124.962 H 136.743 H 173.743 H 185.524 C 185.634 104.175 185.724 104.085 185.724 103.975 V 101.425 C 185.724 101.225 185.524 101.425 185.724 101.425 H 195.824 C 196.024 101.425 195.824 101.225 195.824 101.425 V 103.975 C 195.824 104.120 195.862 104.262 195.934 104.388 C 196.007 104.513 196.111 104.617 196.236 104.689 C 196.362 104.762 196.504 104.800 196.649 104.800 C 196.775 104.800 196.898 104.767 197.007 104.704 C 197.115 104.641 197.206 104.551 197.269 104.442 C 197.331 104.333 197.365 104.210 197.365 104.084 C 197.365 104.029 197.379 103.975 197.407 103.927 C 197.435 103.879 197.474 103.839 197.522 103.811 C 197.570 103.783 197.625 103.769 197.680 103.769 C 197.736 103.769 197.790 103.783 197.838 103.811 C 197.886 103.839 197.926 103.879 197.953 103.927 C 197.981 103.975 197.996 104.029 197.996 104.084 C 197.996 104.210 198.029 104.333 198.092 104.442 C 198.154 104.551 198.245 104.641 198.354 104.704 C 198.462 104.767 198.586 104.800 198.711 104.800 C 198.837 104.800 198.960 104.767 199.069 104.704 C 199.178 104.641 199.268 104.551 199.331 104.442 C 199.394 104.333 199.427 104.210 199.427 104.084 C 199.427 104.029 199.442 103.975 199.469 103.927 C 199.497 103.879 199.537 103.839 199.585 103.811 C 199.633 103.783 199.687 103.769 199.743 103.769 C 199.798 103.769 199.852 103.783 199.900 103.811 C 199.948 103.839 199.988 103.879 200.016 103.927 C 200.044 103.975 200.058 104.029 200.058 104.084 C 200.058 104.210 200.091 104.333 200.154 104.442 C 200.217 104.551 200.307 104.641 200.416 104.704 C 200.525 104.767 200.648 104.800 200.774 104.800 C 200.900 104.800 201.023 104.767 201.132 104.704 C 201.240 104.641 201.331 104.551 201.394 104.442 C 201.456 104.333 201.490 104.210 201.490 104.084 C 201.490 104.029 201.504 103.975 201.532 103.927 C 201.560 103.879 201.599 103.839 201.647 103.811 C 201.695 103.783 201.750 103.769 201.805 103.769 C 201.861 103.769 201.915 103.783 201.963 103.811 C 202.011 103.839 202.051 103.879 202.078 103.927 C 202.106 103.975 202.121 104.029 202.121 104.084 C 202.121 104.210 202.154 104.333 202.217 104.442 C 202.279 104.551 202.370 104.641 202.479 104.704 C 202.587 104.767 202.711 104.800 202.836 104.800 C 202.962 104.800 203.085 104.767 203.194 104.704 C 203.303 104.641 203.393 104.551 203.456 104.442 C 203.519 104.333 203.552 104.210 203.552 104.084 C 203.552 104.029 203.567 103.975 203.594 103.927 C 203.622 103.879 203.662 103.839 203.710 103.811 C 203.758 103.783 203.812 103.769 203.868 103.769 C 203.923 103.769 203.977 103.783 204.025 103.811 C 204.073 103.839 204.113 103.879 204.141 103.927 C 204.169 103.975 204.183 104.029 204.183 104.084 C 204.183 104.210 204.216 104.333 204.279 104.442 C 204.342 104.551 204.432 104.641 204.541 104.704 C 204.650 104.767 204.773 104.800 204.899 104.800 C 205.044 104.800 205.186 104.762 205.311 104.689 C 205.437 104.617 205.541 104.513 205.613 104.388 C 205.686 104.262 205.724 104.120 205.724 103.975 V 66.975 C 205.724 66.830 205.686 66.688 205.613 66.563 C 205.541 66.437 205.437 66.333 205.311 66.261 C 205.186 66.188 205.044 66.150 204.899 66.150 C 204.773 66.150 204.650 66.183 204.541 66.246 C 204.432 66.309 204.342 66.399 204.279 66.508 C 204.216 66.617 204.183 66.740 204.183 66.866 C 204.183 66.921 204.169 66.975 204.141 67.023 C 204.113 67.071 204.073 67.111 204.025 67.139 C 203.977 67.167 203.923 67.181 203.868 67.181 C 203.812 67.181 203.758 67.167 203.710 67.139 C 203.662 67.111 203.622 67.071 203.594 67.023 C 203.567 66.975 203.552 66.921 203.552 66.866 C 203.552 66.740 203.519 66.617 203.456 66.508 C 203.393 66.399 203.303 66.309 203.194 66.246 C 203.085 66.183 202.962 66.150 202.836 66.150 C 202.711 66.150 202.587 66.183 202.479 66.246 C 202.370 66.309 202.279 66.399 202.217 66.508 C 202.154 66.617 202.121 66.740 202.121 66.866 C 202.121 66.921 202.106 66.975 202.078 67.023 C 202.051 67.071 202.011 67.111 201.963 67.139 C 201.915 67.167 201.861 67.181 201.805 67.181 C 201.750 67.181 201.695 67.167 201.647 67.139 C 201.599 67.111 201.560 67.071 201.532 67.023 C 201.504 66.975 201.490 66.921 201.490 66.866 C 201.490 66.740 201.456 66.617 201.394 66.508 C 201.331 66.399 201.240 66.309 201.132 66.246 C 201.023 66.183 200.900 66.150 200.774 66.150 C 200.648 66.150 200.525 66.183 200.416 66.246 C 200.307 66.309 200.217 66.399 200.154 66.508 C 200.091 66.617 200.058 66.740 200.058 66.866 C 200.058 66.921 200.044 66.975 200.016 67.023 C 199.988 67.071 199.948 67.111 199.900 67.139 C 199.852 67.167 199.798 67.181 199.743 67.181 C 199.687 67.181 199.633 67.167 199.585 67.139 C 199.537 67.111 199.497 67.071 199.469 67.023 C 199.442 66.975 199.427 66.921 199.427 66.866 C 199.427 66.740 199.394 66.617 199.331 66.508 C 199.268 66.399 199.178 66.309 199.069 66.246 C 198.960 66.183 198.837 66.150 198.711 66.150 C 198.586 66.150 198.462 66.183 198.354 66.246 C 198.245 66.309 198.154 66.399 198.092 66.508 C 198.029 66.617 197.996 66.740 197.996 66.866 C 197.996 66.921 197.981 66.975 197.953 67.023 C 197.926 67.071 197.886 67.111 197.838 67.139 C 197.790 67.167 197.736 67.181 197.680 67.181 C 197.625 67.181 197.570 67.167 197.522 67.139 C 197.474 67.111 197.435 67.071 197.407 67.023 C 197.379 66.975 197.365 66.921 197.365 66.866 C 197.365 66.740 197.331 66.617 197.269 66.508 C 197.206 66.399 197.115 66.309 197.007 66.246 C 196.898 66.183 196.775 66.150 196.649 66.150 C 196.504 66.150 196.362 66.188 196.236 66.261 C 196.111 66.333 196.007 66.437 195.934 66.562 C 195.862 66.688 195.824 66.830 195.824 66.975 V 69.525 C 195.824 69.725 196.024 69.525 195.824 69.525 H 185.724 C 185.524 69.525 185.724 69.725 185.724 69.525 V 66.975 C 185.724 66.865 185.634 66.775 185.524 66.775 H 173.743 H 136.743 H 124.962 H 118.962 C 118.851 66.775 118.762 66.865 118.762 66.975 V 69.275 C 118.762 69.475 118.962 69.275 118.762 69.275 H 114.162 C 113.962 69.275 114.162 69.475 114.162 69.275 V 66.975 C 114.162 66.865 114.072 66.775 113.962 66.775 H 108.962 C 108.851 66.775 108.762 66.865 108.762 66.975 V 69.275 C 108.762 69.475 108.962 69.275 108.762 69.275 H 104.162 C 103.962 69.275 104.162 69.475 104.162 69.275 V 66.975 C 104.162 66.865 104.072 66.775 103.962 66.775 H 98.962 C 98.851 66.775 98.762 66.865 98.762 66.975 V 69.275 C 98.762 69.475 98.962 69.275 98.762 69.275 H 94.162 C 93.962 69.275 94.162 69.475 94.162 69.275 V 66.975 C 94.162 66.865 94.072 66.775 93.962 66.775 H 87.962 H 76.181 H 70.181 C 70.071 66.775 69.981 66.865 69.981 66.975 V 69.275 C 69.981 69.475 70.181 69.275 69.981 69.275 H 65.381 C 65.181 69.275 65.381 69.475 65.381 69.275 V 66.975 C 65.381 66.865 65.291 66.775 65.181 66.775 H 60.181 C 60.071 66.775 59.981 66.865 59.981 66.975 V 69.275 C 59.981 69.475 60.181 69.275 59.981 69.275 H 55.381 C 55.181 69.275 55.381 69.475 55.381 69.275 V 66.975 C 55.381 66.865 55.291 66.775 55.181 66.775 H 50.181 C 50.071 66.775 49.981 66.865 49.981 66.975 V 69.275 C 49.981 69.475 50.181 69.275 49.981 69.275 H 45.381 C 45.181 69.275 45.381 69.475 45.381 69.275 V 66.975 C 45.381 66.865 45.291 66.775 45.181 66.775 H 39.181 H 27.400 H 21.400 C 21.290 66.775 21.200 66.865 21.200 66.975 V 69.275 C 21.200 69.475 21.400 69.275 21.200 69.275 H 16.600 C 16.400 69.275 16.600 69.475 16.600 69.275 V 66.975 C 16.600 66.865 16.510 66.775 16.400 66.775 H 10.400 C 10.290 66.775 10.200 66.865 10.200 66.975 V 103.975 C 10.200 104.085 10.290 104.175 10.400 104.175 Z" stroke="rgb(0,0,0)" stroke-width="0.40" />
  <path d="M 28.915 104.175 V 86.725 M 28.915 84.225 V 66.775 M 30.165 69.275 V 101.675 M 31.415 104.175 V 86.725 M 31.415 84.225 V 66.775 M 32.665 69.275 V 101.675 M 33.915 104.175 V 86.725 M 33.915 84.225 V 66.775 M 35.165 69.275 V 101.675 M 36.415 104.175 V 86.725 M 36.415 84.225 V 66.775 M 37.665 69.275 V 101.675" stroke="rgb(0,0,0)" stroke-width="0.40" />
  <path d="M 77.696 104.175 V 86.725 M 77.696 84.225 V 66.775 M 78.946 69.275 V 101.675 M 80.196 104.175 V 86.725 M 80.196 84.225 V 66.775 M 81.446 69.275 V 101.675 M 82.696 104.175 V 86.725 M 82.696 84.225 V 66.775 M 83.946 69.275 V 101.675 M 85.196 104.175 V 86.725 M 85.196 84.225 V 66.775 M 86.446 69.275 V 101.675" stroke="rgb(0,0,0)" stroke-width="0.40" />
  <path d="M 126.477 104.175 V 86.725 M 126.477 84.225 V 66.775 M 127.727 69.275 V 101.675 M 128.977 104.175 V 86.725 M 128.977 84.225 V 66.775 M 130.227 69.275 V 101.675 M 131.477 104.175 V 86.725 M 131.477 84.225 V 66.775 M 132.727 69.275 V 101.675 M 133.977 104.175 V 86.725 M 133.977 84.225 V 66.775 M 135.227 69.275 V 101.675" stroke="rgb(0,0,0)" stroke-width="0.40" />
  <path d="M 175.258 104.175 V 86.725 M 175.258 84.225 V 66.775 M 176.508 69.275 V 101.675 M 177.758 104.175 V 86.725 M 177.758 84.225 V 66.775 M 179.008 69.275 V 101.675 M 180.258 104.175 V 86.725 M 180.258 84.225 V 66.775 M 181.508 69.275 V 101.675 M 182.758 104.175 V 86.725 M 182.758 84.225 V 66.775 M 184.008 69.275 V 101.675" stroke="rgb(0,0,0)" stroke-width="0.40" />
</g>
<g id="p-2" style="fill:none;stroke-linecap:round;stroke-linejoin:round;">
  <path d="M 20.400 62.400 H 26.200 C 26.400 62.400 26.200 62.200 26.200 62.400 V 64.700 C 26.200 64.810 26.290 64.900 26.400 64.900 H 31.400 C 31.510 64.900 31.600 64.810 31.600 64.700 V 62.400 C 31.600 62.200 31.400 62.400 31.600 62.400 H 36.200 C 36.400 62.400 36.200 62.200 36.200 62.400 V 64.700 C 36.200 64.810 36.290 64.900 36.400 64.900 H 41.400 C 41.510 64.900 41.600 64.810 41.600 64.700 V 62.400 C 41.600 62.200 41.400 62.400 41.600 62.400 H 46.200 C 46.400 62.400 46.200 62.200 46.200 62.400 V 64.700 C 46.200 64.810 46.290 64.900 46.400 64.900 H 51.400 C 51.510 64.900 51.600 64.810 51.600 64.700 V 62.400 C 51.600 62.200 51.400 62.400 51.600 62.400 H 57.400 C 58.752 62.400 60.079 62.044 61.250 61.368 C 62.421 60.693 63.393 59.721 64.068 58.550 C 64.744 57.379 65.100 56.052 65.100 54.700 V 48.900 C 65.100 48.700 64.900 48.900 65.100 48.900 H 67.400 C 67.510 48.900 67.600 48.810 67.600 48.700 V 43.700 C 67.600 43.590 67.510 43.500 67.400 43.500 H 65.100 C 64.900 43.500 65.100 43.700 65.100 43.500 V 38.900 C 65.100 38.700 64.900 38.900 65.100 38.900 H 67.400 C 67.510 38.900 67.600 38.810 67.600 38.700 V 33.700 C 67.600 33.590 67.510 33.500 67.400 33.500 H 65.100 C 64.900 33.500 65.100 33.700 65.100 33.500 V 28.900 C 65.100 28.700 64.900 28.900 65.100 28.900 H 67.400 C 67.510 28.900 67.600 28.810 67.600 28.700 V 23.700 C 67.600 23.590 67.510 23.500 67.400 23.500 H 65.100 C 64.900 23.500 65.100 23.700 65.100 23.500 V 17.700 C 65.100 16.348 64.744 15.021 64.068 13.850 C 63.393 12.679 62.421 11.707 61.250 11.032 C 60.079 10.356 58.752 10.000 57.400 10.000 H 20.400 C 19.048 10.000 17.721 10.356 16.550 11.032 C 15.379 11.707 14.407 12.679 13.732 13.850 C 13.056 15.021 12.700 16.348 12.700 17.700 C 12.700 17.590 12.790 17.500 12.900 17.500 H 10.400 C 10.290 17.500 10.200 17.590 10.200 17.700 V 27.700 C 10.200 27.810 10.290 27.900 10.400 27.900 H 12.700 C 12.900 27.900 12.700 27.700 12.700 27.900 V 37.700 V 43.500 C 12.700 43.700 12.900 43.500 12.700 43.500 H 10.400 C 10.290 43.500 10.200 43.590 10.200 43.700 V 48.700 C 10.200 48.810 10.290 48.900 10.400 48.900 H 12.700 C 12.900 48.900 12.700 48.700 12.700 48.900 V 54.700 C 12.700 56.052 13.056 57.379 13.732 58.550 C 14.407 59.721 15.379 60.693 16.550 61.368 C 17.721 62.044 19.048 62.400 20.400 62.400 Z" stroke="rgb(0,0,0)" stroke-width="0.40" />
</g>
<g id="p-3" style="fill:none;stroke-linecap:round;stroke-linejoin:round;">
  <path d="M 116.050 62.400 H 110.250 C 110.050 62.400 110.250 62.200 110.250 62.400 V 64.700 C 110.250 64.810 110.160 64.900 110.050 64.900 H 105.050 C 104.940 64.900 104.850 64.810 104.850 64.700 V 62.400 C 104.850 62.200 105.050 62.400 104.850 62.400 H 100.250 C 100.050 62.400 100.250 62.200 100.250 62.400 V 64.700 C 100.250 64.810 100.160 64.900 100.050 64.900 H 95.050 C 94.940 64.900 94.850 64.810 94.850 64.700 V 62.400 C 94.850 62.200 95.050 62.400 94.850 62.400 H 90.250 C 90.050 62.400 90.250 62.200 90.250 62.400 V 64.700 C 90.250 64.810 90.160 64.900 90.050 64.900 H 85.050 C 84.940 64.900 84.850 64.810 84.850 64.700 V 62.400 C 84.850 62.200 85.050 62.400 84.850 62.400 H 79.050 C 77.698 62.400 76.371 62.044 75.200 61.368 C 74.029 60.693 73.057 59.721 72.382 58.550 C 71.706 57.379 71.350 56.052 71.350 54.700 V 48.900 C 71.350 48.700 71.550 48.900 71.350 48.900 H 69.050 C 68.940 48.900 68.850 48.810 68.850 48.700 V 43.700 C 68.850 43.590 68.940 43.500 69.050 43.500 H 71.350 C 71.550 43.500 71.350 43.700 71.350 43.500 V 38.900 C 71.350 38.700 71.550 38.900 71.350 38.900 H 69.050 C 68.940 38.900 68.850 38.810 68.850 38.700 V 33.700 C 68.850 33.590 68.940 33.500 69.050 33.500 H 71.350 C 71.550 33.500 71.350 33.700 71.350 33.500 V 28.900 C 71.350 28.700 71.550 28.900 71.350 28.900 H 69.050 C 68.940 28.900 68.850 28.810 68.850 28.700 V 23.700 C 68.850 23.590 68.940 23.500 69.050 23.500 H 71.350 C 71.550 23.500 71.350 23.700 71.350 23.500 V 17.700 C 71.350 16.348 71.706 15.021 72.382 13.850 C 73.057 12.679 74.029 11.707 75.200 11.032 C 76.371 10.356 77.698 10.000 79.050 10.000 H 116.050 C 117.402 10.000 118.729 10.356 119.900 11.032 C 121.071 11.707 122.043 12.679 122.718 13.850 C 123.394 15.021 123.750 16.348 123.750 17.700 C 123.750 17.590 123.660 17.500 123.550 17.500 H 126.050 C 126.160 17.500 126.250 17.590 126.250 17.700 V 27.700 C 126.250 27.810 126.160 27.900 126.050 27.900 H 123.750 C 123.550 27.900 123.750 27.700 123.750 27.900 V 37.700 V 43.500 C 123.750 43.700 123.550 43.500 123.750 43.500 H 126.050 C 126.160 43.500 126.250 43.590 126.250 43.700 V 48.700 C 126.250 48.810 126.160 48.900 126.050 48.900 H 123.750 C 123.550 48.900 123.750 48.700 123.750 48.900 V 54.700 C 123.750 56.052 123.394 57.379 122.718 58.550 C 122.043 59.721 121.071 60.693 119.900 61.368 C 118.729 62.044 117.402 62.400 116.050 62.400 Z" stroke="rgb(0,0,0)" stroke-width="0.40" />
</g>
</svg>