999
"DXF R12 Output" (www.mydxf.blogspot.com)
 0 
SECTION
 2 
HEADER
 9 
$ACADVER
 1 
AC1009
 9 
$EXTMIN
 10 
 0 
 20 
 0 
 9 
$EXTMAX
 10 
 8.5 
 20 
 11 
 0 
ENDSEC
 0 
SECTION
 2 
ENTITIES
0
LINE
8
Layer 1
10
0.200000
20
32.275000
11
7.200000
21
32.275000
0
LINE
8
Layer 1
10
7.200000
20
32.275000
11
7.400000
21
32.475000
0
LINE
8
Layer 1
10
7.400000
20
32.475000
11
7.400000
21
34.775000
0
LINE
8
Layer 1
10
7.400000
20
34.775000
11
7.325000
21
34.850000
0
LINE
8
Layer 1
10
7.325000
20
34.850000
11
7.400000
21
34.775000
0
LINE
8
Layer 1
10
7.400000
20
34.775000
11
12.000000
21
34.775000
0
LINE
8
Layer 1
10
12.000000
20
34.775000
11
12.075000
21
34.850000
0
LINE
8
Layer 1
10
12.075000
20
34.850000
11
12.000000
21
34.775000
0
LINE
8
Layer 1
10
12.000000
20
34.775000
11
12.000000
21
32.475000
0
LINE
8
Layer 1
10
12.000000
20
32.475000
11
12.200000
21
32.275000
0
LINE
8
Layer 1
10
12.200000
20
32.275000
11
19.200000
21
32.275000
0
LINE
8
Layer 1
10
19.200000
20
32.275000
11
30.981000
21
32.275000
0
LINE
8
Layer 1
10
30.981000
20
32.275000
11
37.981000
21
32.275000
0
LINE
8
Layer 1
10
37.981000
20
32.275000
11
38.181000
21
32.475000
0
LINE
8
Layer 1
10
38.181000
20
32.475000
11
38.181000
21
34.775000
0
LINE
8
Layer 1
10
38.181000
20
34.775000
11
38.106000
21
34.850000
0
LINE
8
Layer 1
10
38.106000
20
34.850000
11
38.181000
21
34.775000
0
LINE
8
Layer 1
10
38.181000
20
34.775000
11
42.781000
21
34.775000
0
LINE
8
Layer 1
10
42.781000
20
34.775000
11
42.856000
21
34.850000
0
LINE
8
Layer 1
10
42.856000
20
34.850000
11
42.781000
21
34.775000
0
LINE
8
Layer 1
10
42.781000
20
34.775000
11
42.781000
21
32.475000
0
LINE
8
Layer 1
10
42.781000
20
32.475000
11
42.981000
21
32.275000
0
LINE
8
Layer 1
10
42.981000
20
32.275000
11
47.981000
21
32.275000
0
LINE
8
Layer 1
10
47.981000
20
32.275000
11
48.181000
21
32.475000
0
LINE
8
Layer 1
10
48.181000
20
32.475000
11
48.181000
21
34.775000
0
LINE
8
Layer 1
10
48.181000
20
34.775000
11
48.106000
21
34.850000
0
LINE
8
Layer 1
10
48.106000
20
34.850000
11
48.181000
21
34.775000
0
LINE
8
Layer 1
10
48.181000
20
34.775000
11
52.781000
21
34.775000
0
LINE
8
Layer 1
10
52.781000
20
34.775000
11
52.856000
21
34.850000
0
LINE
8
Layer 1
10
52.856000
20
34.850000
11
52.781000
21
34.775000
0
LINE
8
Layer 1
10
52.781000
20
34.775000
11
52.781000
21
32.475000
0
LINE
8
Layer 1
10
52.781000
20
32.475000
11
52.981000
21
32.275000
0
LINE
8
Layer 1
10
52.981000
20
32.275000
11
57.981000
21
32.275000
0
LINE
8
Layer 1
10
57.981000
20
32.275000
11
58.181000
21
32.475000
0
LINE
8
Layer 1
10
58.181000
20
32.475000
11
58.181000
21
34.775000
0
LINE
8
Layer 1
10
58.181000
20
34.775000
11
58.106000
21
34.850000
0
LINE
8
Layer 1
10
58.106000
20
34.850000
11
58.181000
21
34.775000
0
LINE
8
Layer 1
10
58.181000
20
34.775000
11
62.781000
21
34.775000
0
LINE
8
Layer 1
10
62.781000
20
34.775000
11
62.856000
21
34.850000
0
LINE
8
Layer 1
10
62.856000
20
34.850000
11
62.781000
21
34.775000
0
LINE
8
Layer 1
10
62.781000
20
34.775000
11
62.781000
21
32.475000
0
LINE
8
Layer 1
10
62.781000
20
32.475000
11
62.981000
21
32.275000
0
LINE
8
Layer 1
10
62.981000
20
32.275000
11
69.981000
21
32.275000
0
LINE
8
Layer 1
10
69.981000
20
32.275000
11
81.762000
21
32.275000
0
LINE
8
Layer 1
10
81.762000
20
32.275000
11
88.762000
21
32.275000
0
LINE
8
Layer 1
10
88.762000
20
32.275000
11
88.962000
21
32.475000
0
LINE
8
Layer 1
10
88.962000
20
32.475000
11
88.962000
21
34.775000
0
LINE
8
Layer 1
10
88.962000
20
34.775000
11
88.887000
21
34.850000
0
LINE
8
Layer 1
10
88.887000
20
34.850000
11
88.962000
21
34.775000
0
LINE
8
Layer 1
10
88.962000
20
34.775000
11
93.562000
21
34.775000
0
LINE
8
Layer 1
10
93.562000
20
34.775000
11
93.637000
21
34.850000
0
LINE
8
Layer 1
10
93.637000
20
34.850000
11
93.562000
21
34.775000
0
LINE
8
Layer 1
10
93.562000
20
34.775000
11
93.562000
21
32.475000
0
LINE
8
Layer 1
10
93.562000
20
32.475000
11
93.762000
21
32.275000
0
LINE
8
Layer 1
10
93.762000
20
32.275000
11
98.762000
21
32.275000
0
LINE
8
Layer 1
10
98.762000
20
32.275000
11
98.962000
21
32.475000
0
LINE
8
Layer 1
10
98.962000
20
32.475000
11
98.962000
21
34.775000
0
LINE
8
Layer 1
10
98.962000
20
34.775000
11
98.887000
21
34.850000
0
LINE
8
Layer 1
10
98.887000
20
34.850000
11
98.962000
21
34.775000
0
LINE
8
Layer 1
10
98.962000
20
34.775000
11
103.562000
21
34.775000
0
LINE
8
Layer 1
10
103.562000
20
34.775000
11
103.637000
21
34.850000
0
LINE
8
Layer 1
10
103.637000
20
34.850000
11
103.562000
21
34.775000
0
LINE
8
Layer 1
10
103.562000
20
34.775000
11
103.562000
21
32.475000
0
LINE
8
Layer 1
10
103.562000
20
32.475000
11
103.762000
21
32.275000
0
LINE
8
Layer 1
10
103.762000
20
32.275000
11
108.762000
21
32.275000
0
LINE
8
Layer 1
10
108.762000
20
32.275000
11
108.962000
21
32.475000
0
LINE
8
Layer 1
10
108.962000
20
32.475000
11
108.962000
21
34.775000
0
LINE
8
Layer 1
10
108.962000
20
34.775000
11
108.887000
21
34.850000
0
LINE
8
Layer 1
10
108.887000
20
34.850000
11
108.962000
21
34.775000
0
LINE
8
Layer 1
10
108.962000
20
34.775000
11
113.562000
21
34.775000
0
LINE
8
Layer 1
10
113.562000
20
34.775000
11
113.637000
21
34.850000
0
LINE
8
Layer 1
10
113.637000
20
34.850000
11
113.562000
21
34.775000
0
LINE
8
Layer 1
10
113.562000
20
34.775000
11
113.562000
21
32.475000
0
LINE
8
Layer 1
10
113.562000
20
32.475000
11
113.762000
21
32.275000
0
LINE
8
Layer 1
10
113.762000
20
32.275000
11
120.762000
21
32.275000
0
LINE
8
Layer 1
10
120.762000
20
32.275000
11
132.543000
21
32.275000
0
LINE
8
Layer 1
10
132.543000
20
32.275000
11
171.543000
21
32.275000
0
LINE
8
Layer 1
10
171.543000
20
32.275000
11
183.324000
21
32.275000
0
LINE
8
Layer 1
10
183.324000
20
32.275000
11
183.524000
21
32.475000
0
LINE
8
Layer 1
10
183.524000
20
32.475000
11
183.524000
21
35.025000
0
LINE
8
Layer 1
10
183.524000
20
35.025000
11
183.449000
21
35.100000
0
LINE
8
Layer 1
10
183.449000
20
35.100000
11
183.524000
21
35.025000
0
LINE
8
Layer 1
10
183.524000
20
35.025000
11
193.624000
21
35.025000
0
LINE
8
Layer 1
10
193.624000
20
35.025000
11
193.699000
21
35.100000
0
LINE
8
Layer 1
10
193.699000
20
35.100000
11
193.624000
21
35.025000
0
LINE
8
Layer 1
10
193.624000
20
35.025000
11
193.624000
21
32.475000
0
LINE
8
Layer 1
10
193.624000
20
32.475000
11
193.734000
21
32.062000
0
LINE
8
Layer 1
10
193.734000
20
32.062000
11
194.036000
21
31.761000
0
LINE
8
Layer 1
10
194.036000
20
31.761000
11
194.449000
21
31.650000
0
LINE
8
Layer 1
10
194.449000
20
31.650000
11
194.807000
21
31.746000
0
LINE
8
Layer 1
10
194.807000
20
31.746000
11
195.069000
21
32.008000
0
LINE
8
Layer 1
10
195.069000
20
32.008000
11
195.165000
21
32.366000
0
LINE
8
Layer 1
10
195.165000
20
32.366000
11
195.207000
21
32.523000
0
LINE
8
Layer 1
10
195.207000
20
32.523000
11
195.322000
21
32.639000
0
LINE
8
Layer 1
10
195.322000
20
32.639000
11
195.480000
21
32.681000
0
LINE
8
Layer 1
10
195.480000
20
32.681000
11
195.638000
21
32.639000
0
LINE
8
Layer 1
10
195.638000
20
32.639000
11
195.753000
21
32.523000
0
LINE
8
Layer 1
10
195.753000
20
32.523000
11
195.796000
21
32.366000
0
LINE
8
Layer 1
10
195.796000
20
32.366000
11
195.892000
21
32.008000
0
LINE
8
Layer 1
10
195.892000
20
32.008000
11
196.154000
21
31.746000
0
LINE
8
Layer 1
10
196.154000
20
31.746000
11
196.511000
21
31.650000
0
LINE
8
Layer 1
10
196.511000
20
31.650000
11
196.869000
21
31.746000
0
LINE
8
Layer 1
10
196.869000
20
31.746000
11
197.131000
21
32.008000
0
LINE
8
Layer 1
10
197.131000
20
32.008000
11
197.227000
21
32.366000
0
LINE
8
Layer 1
10
197.227000
20
32.366000
11
197.269000
21
32.523000
0
LINE
8
Layer 1
10
197.269000
20
32.523000
11
197.385000
21
32.639000
0
LINE
8
Layer 1
10
197.385000
20
32.639000
11
197.543000
21
32.681000
0
LINE
8
Layer 1
10
197.543000
20
32.681000
11
197.700000
21
32.639000
0
LINE
8
Layer 1
10
197.700000
20
32.639000
11
197.816000
21
32.523000
0
LINE
8
Layer 1
10
197.816000
20
32.523000
11
197.858000
21
32.366000
0
LINE
8
Layer 1
10
197.858000
20
32.366000
11
197.954000
21
32.008000
0
LINE
8
Layer 1
10
197.954000
20
32.008000
11
198.216000
21
31.746000
0
LINE
8
Layer 1
10
198.216000
20
31.746000
11
198.574000
21
31.650000
0
LINE
8
Layer 1
10
198.574000
20
31.650000
11
198.932000
21
31.746000
0
LINE
8
Layer 1
10
198.932000
20
31.746000
11
199.194000
21
32.008000
0
LINE
8
Layer 1
10
199.194000
20
32.008000
11
199.290000
21
32.366000
0
LINE
8
Layer 1
10
199.290000
20
32.366000
11
199.332000
21
32.523000
0
LINE
8
Layer 1
10
199.332000
20
32.523000
11
199.447000
21
32.639000
0
LINE
8
Layer 1
10
199.447000
20
32.639000
11
199.605000
21
32.681000
0
LINE
8
Layer 1
10
199.605000
20
32.681000
11
199.763000
21
32.639000
0
LINE
8
Layer 1
10
199.763000
20
32.639000
11
199.878000
21
32.523000
0
LINE
8
Layer 1
10
199.878000
20
32.523000
11
199.921000
21
32.366000
0
LINE
8
Layer 1
10
199.921000
20
32.366000
11
200.017000
21
32.008000
0
LINE
8
Layer 1
10
200.017000
20
32.008000
11
200.279000
21
31.746000
0
LINE
8
Layer 1
10
200.279000
20
31.746000
11
200.636000
21
31.650000
0
LINE
8
Layer 1
10
200.636000
20
31.650000
11
200.994000
21
31.746000
0
LINE
8
Layer 1
10
200.994000
20
31.746000
11
201.256000
21
32.008000
0
LINE
8
Layer 1
10
201.256000
20
32.008000
11
201.352000
21
32.366000
0
LINE
8
Layer 1
10
201.352000
20
32.366000
11
201.394000
21
32.523000
0
LINE
8
Layer 1
10
201.394000
20
32.523000
11
201.510000
21
32.639000
0
LINE
8
Layer 1
10
201.510000
20
32.639000
11
201.668000
21
32.681000
0
LINE
8
Layer 1
10
201.668000
20
32.681000
11
201.825000
21
32.639000
0
LINE
8
Layer 1
10
201.825000
20
32.639000
11
201.941000
21
32.523000
0
LINE
8
Layer 1
10
201.941000
20
32.523000
11
201.983000
21
32.366000
0
LINE
8
Layer 1
10
201.983000
20
32.366000
11
202.079000
21
32.008000
0
LINE
8
Layer 1
10
202.079000
20
32.008000
11
202.341000
21
31.746000
0
LINE
8
Layer 1
10
202.341000
20
31.746000
11
202.699000
21
31.650000
0
LINE
8
Layer 1
10
202.699000
20
31.650000
11
203.111000
21
31.761000
0
LINE
8
Layer 1
10
203.111000
20
31.761000
11
203.413000
21
32.062000
0
LINE
8
Layer 1
10
203.413000
20
32.062000
11
203.524000
21
32.475000
0
LINE
8
Layer 1
10
203.524000
20
32.475000
11
203.524000
21
69.475000
0
LINE
8
Layer 1
10
203.524000
20
69.475000
11
203.413000
21
69.887000
0
LINE
8
Layer 1
10
203.413000
20
69.887000
11
203.111000
21
70.189000
0
LINE
8
Layer 1
10
203.111000
20
70.189000
11
202.699000
21
70.300000
0
LINE
8
Layer 1
10
202.699000
20
70.300000
11
202.341000
21
70.204000
0
LINE
8
Layer 1
10
202.341000
20
70.204000
11
202.079000
21
69.942000
0
LINE
8
Layer 1
10
202.079000
20
69.942000
11
201.983000
21
69.584000
0
LINE
8
Layer 1
10
201.983000
20
69.584000
11
201.941000
21
69.427000
0
LINE
8
Layer 1
10
201.941000
20
69.427000
11
201.825000
21
69.311000
0
LINE
8
Layer 1
10
201.825000
20
69.311000
11
201.668000
21
69.269000
0
LINE
8
Layer 1
10
201.668000
20
69.269000
11
201.510000
21
69.311000
0
LINE
8
Layer 1
10
201.510000
20
69.311000
11
201.394000
21
69.427000
0
LINE
8
Layer 1
10
201.394000
20
69.427000
11
201.352000
21
69.584000
0
LINE
8
Layer 1
10
201.352000
20
69.584000
11
201.256000
21
69.942000
0
LINE
8
Layer 1
10
201.256000
20
69.942000
11
200.994000
21
70.204000
0
LINE
8
Layer 1
10
200.994000
20
70.204000
11
200.636000
21
70.300000
0
LINE
8
Layer 1
10
200.636000
20
70.300000
11
200.279000
21
70.204000
0
LINE
8
Layer 1
10
200.279000
20
70.204000
11
200.017000
21
69.942000
0
LINE
8
Layer 1
10
200.017000
20
69.942000
11
199.921000
21
69.584000
0
LINE
8
Layer 1
10
199.921000
20
69.584000
11
199.878000
21
69.427000
0
LINE
8
Layer 1
10
199.878000
20
69.427000
11
199.763000
21
69.311000
0
LINE
8
Layer 1
10
199.763000
20
69.311000
11
199.605000
21
69.269000
0
LINE
8
Layer 1
10
199.605000
20
69.269000
11
199.447000
21
69.311000
0
LINE
8
Layer 1
10
199.447000
20
69.311000
11
199.332000
21
69.427000
0
LINE
8
Layer 1
10
199.332000
20
69.427000
11
199.290000
21
69.584000
0
LINE
8
Layer 1
10
199.290000
20
69.584000
11
199.194000
21
69.942000
0
LINE
8
Layer 1
10
199.194000
20
69.942000
11
198.932000
21
70.204000
0
LINE
8
Layer 1
10
198.932000
20
70.204000
11
198.574000
21
70.300000
0
LINE
8
Layer 1
10
198.574000
20
70.300000
11
198.216000
21
70.204000
0
LINE
8
Layer 1
10
198.216000
20
70.204000
11
197.954000
21
69.942000
0
LINE
8
Layer 1
10
197.954000
20
69.942000
11
197.858000
21
69.584000
0
LINE
8
Layer 1
10
197.858000
20
69.584000
11
197.816000
21
69.427000
0
LINE
8
Layer 1
10
197.816000
20
69.427000
11
197.700000
21
69.311000
0
LINE
8
Layer 1
10
197.700000
20
69.311000
11
197.543000
21
69.269000
0
LINE
8
Layer 1
10
197.543000
20
69.269000
11
197.385000
21
69.311000
0
LINE
8
Layer 1
10
197.385000
20
69.311000
11
197.269000
21
69.427000
0
LINE
8
Layer 1
10
197.269000
20
69.427000
11
197.227000
21
69.584000
0
LINE
8
Layer 1
10
197.227000
20
69.584000
11
197.131000
21
69.942000
0
LINE
8
Layer 1
10
197.131000
20
69.942000
11
196.869000
21
70.204000
0
LINE
8
Layer 1
10
196.869000
20
70.204000
11
196.511000
21
70.300000
0
LINE
8
Layer 1
10
196.511000
20
70.300000
11
196.154000
21
70.204000
0
LINE
8
Layer 1
10
196.154000
20
70.204000
11
195.892000
21
69.942000
0
LINE
8
Layer 1
10
195.892000
20
69.942000
11
195.796000
21
69.584000
0
LINE
8
Layer 1
10
195.796000
20
69.584000
11
195.753000
21
69.427000
0
LINE
8
Layer 1
10
195.753000
20
69.427000
11
195.638000
21
69.311000
0
LINE
8
Layer 1
10
195.638000
20
69.311000
11
195.480000
21
69.269000
0
LINE
8
Layer 1
10
195.480000
20
69.269000
11
195.322000
21
69.311000
0
LINE
8
Layer 1
10
195.322000
20
69.311000
11
195.207000
21
69.427000
0
LINE
8
Layer 1
10
195.207000
20
69.427000
11
195.165000
21
69.584000
0
LINE
8
Layer 1
10
195.165000
20
69.584000
11
195.069000
21
69.942000
0
LINE
8
Layer 1
10
195.069000
20
69.942000
11
194.807000
21
70.204000
0
LINE
8
Layer 1
10
194.807000
20
70.204000
11
194.449000
21
70.300000
0
LINE
8
Layer 1
10
194.449000
20
70.300000
11
194.036000
21
70.189000
0
LINE
8
Layer 1
10
194.036000
20
70.189000
11
193.734000
21
69.888000
0
LINE
8
Layer 1
10
193.734000
20
69.888000
11
193.624000
21
69.475000
0
LINE
8
Layer 1
10
193.624000
20
69.475000
11
193.624000
21
66.925000
0
LINE
8
Layer 1
10
193.624000
20
66.925000
11
193.699000
21
66.850000
0
LINE
8
Layer 1
10
193.699000
20
66.850000
11
193.624000
21
66.925000
0
LINE
8
Layer 1
10
193.624000
20
66.925000
11
183.524000
21
66.925000
0
LINE
8
Layer 1
10
183.524000
20
66.925000
11
183.449000
21
66.850000
0
LINE
8
Layer 1
10
183.449000
20
66.850000
11
183.524000
21
66.925000
0
LINE
8
Layer 1
10
183.524000
20
66.925000
11
183.524000
21
69.475000
0
LINE
8
Layer 1
10
183.524000
20
69.475000
11
183.324000
21
69.675000
0
LINE
8
Layer 1
10
183.324000
20
69.675000
11
171.543000
21
69.675000
0
LINE
8
Layer 1
10
171.543000
20
69.675000
11
132.543000
21
69.675000
0
LINE
8
Layer 1
10
132.543000
20
69.675000
11
120.762000
21
69.675000
0
LINE
8
Layer 1
10
120.762000
20
69.675000
11
113.762000
21
69.675000
0
LINE
8
Layer 1
10
113.762000
20
69.675000
11
113.562000
21
69.475000
0
LINE
8
Layer 1
10
113.562000
20
69.475000
11
113.562000
21
67.175000
0
LINE
8
Layer 1
10
113.562000
20
67.175000
11
113.637000
21
67.100000
0
LINE
8
Layer 1
10
113.637000
20
67.100000
11
113.562000
21
67.175000
0
LINE
8
Layer 1
10
113.562000
20
67.175000
11
108.962000
21
67.175000
0
LINE
8
Layer 1
10
108.962000
20
67.175000
11
108.887000
21
67.100000
0
LINE
8
Layer 1
10
108.887000
20
67.100000
11
108.962000
21
67.175000
0
LINE
8
Layer 1
10
108.962000
20
67.175000
11
108.962000
21
69.475000
0
LINE
8
Layer 1
10
108.962000
20
69.475000
11
108.762000
21
69.675000
0
LINE
8
Layer 1
10
108.762000
20
69.675000
11
103.762000
21
69.675000
0
LINE
8
Layer 1
10
103.762000
20
69.675000
11
103.562000
21
69.475000
0
LINE
8
Layer 1
10
103.562000
20
69.475000
11
103.562000
21
67.175000
0
LINE
8
Layer 1
10
103.562000
20
67.175000
11
103.637000
21
67.100000
0
LINE
8
Layer 1
10
103.637000
20
67.100000
11
103.562000
21
67.175000
0
LINE
8
Layer 1
10
103.562000
20
67.175000
11
98.962000
21
67.175000
0
LINE
8
Layer 1
10
98.962000
20
67.175000
11
98.887000
21
67.100000
0
LINE
8
Layer 1
10
98.887000
20
67.100000
11
98.962000
21
67.175000
0
LINE
8
Layer 1
10
98.962000
20
67.175000
11
98.962000
21
69.475000
0
LINE
8
Layer 1
10
98.962000
20
69.475000
11
98.762000
21
69.675000
0
LINE
8
Layer 1
10
98.762000
20
69.675000
11
93.762000
21
69.675000
0
LINE
8
Layer 1
10
93.762000
20
69.675000
11
93.562000
21
69.475000
0
LINE
8
Layer 1
10
93.562000
20
69.475000
11
93.562000
21
67.175000
0
LINE
8
Layer 1
10
93.562000
20
67.175000
11
93.637000
21
67.100000
0
LINE
8
Layer 1
10
93.637000
20
67.100000
11
93.562000
21
67.175000
0
LINE
8
Layer 1
10
93.562000
20
67.175000
11
88.962000
21
67.175000
0
LINE
8
Layer 1
10
88.962000
20
67.175000
11
88.887000
21
67.100000
0
LINE
8
Layer 1
10
88.887000
20
67.100000
11
88.962000
21
67.175000
0
LINE
8
Layer 1
10
88.962000
20
67.175000
11
88.962000
21
69.475000
0
LINE
8
Layer 1
10
88.962000
20
69.475000
11
88.762000
21
69.675000
0
LINE
8
Layer 1
10
88.762000
20
69.675000
11
81.762000
21
69.675000
0
LINE
8
Layer 1
10
81.762000
20
69.675000
11
69.981000
21
69.675000
0
LINE
8
Layer 1
10
69.981000
20
69.675000
11
62.981000
21
69.675000
0
LINE
8
Layer 1
10
62.981000
20
69.675000
11
62.781000
21
69.475000
0
LINE
8
Layer 1
10
62.781000
20
69.475000
11
62.781000
21
67.175000
0
LINE
8
Layer 1
10
62.781000
20
67.175000
11
62.856000
21
67.100000
0
LINE
8
Layer 1
10
62.856000
20
67.100000
11
62.781000
21
67.175000
0
LINE
8
Layer 1
10
62.781000
20
67.175000
11
58.181000
21
67.175000
0
LINE
8
Layer 1
10
58.181000
20
67.175000
11
58.106000
21
67.100000
0
LINE
8
Layer 1
10
58.106000
20
67.100000
11
58.181000
21
67.175000
0
LINE
8
Layer 1
10
58.181000
20
67.175000
11
58.181000
21
69.475000
0
LINE
8
Layer 1
10
58.181000
20
69.475000
11
57.981000
21
69.675000
0
LINE
8
Layer 1
10
57.981000
20
69.675000
11
52.981000
21
69.675000
0
LINE
8
Layer 1
10
52.981000
20
69.675000
11
52.781000
21
69.475000
0
LINE
8
Layer 1
10
52.781000
20
69.475000
11
52.781000
21
67.175000
0
LINE
8
Layer 1
10
52.781000
20
67.175000
11
52.856000
21
67.100000
0
LINE
8
Layer 1
10
52.856000
20
67.100000
11
52.781000
21
67.175000
0
LINE
8
Layer 1
10
52.781000
20
67.175000
11
48.181000
21
67.175000
0
LINE
8
Layer 1
10
48.181000
20
67.175000
11
48.106000
21
67.100000
0
LINE
8
Layer 1
10
48.106000
20
67.100000
11
48.181000
21
67.175000
0
LINE
8
Layer 1
10
48.181000
20
67.175000
11
48.181000
21
69.475000
0
LINE
8
Layer 1
10
48.181000
20
69.475000
11
47.981000
21
69.675000
0
LINE
8
Layer 1
10
47.981000
20
69.675000
11
42.981000
21
69.675000
0
LINE
8
Layer 1
10
42.981000
20
69.675000
11
42.781000
21
69.475000
0
LINE
8
Layer 1
10
42.781000
20
69.475000
11
42.781000
21
67.175000
0
LINE
8
Layer 1
10
42.781000
20
67.175000
11
42.856000
21
67.100000
0
LINE
8
Layer 1
10
42.856000
20
67.100000
11
42.781000
21
67.175000
0
LINE
8
Layer 1
10
42.781000
20
67.175000
11
38.181000
21
67.175000
0
LINE
8
Layer 1
10
38.181000
20
67.175000
11
38.106000
21
67.100000
0
LINE
8
Layer 1
10
38.106000
20
67.100000
11
38.181000
21
67.175000
0
LINE
8
Layer 1
10
38.181000
20
67.175000
11
38.181000
21
69.475000
0
LINE
8
Layer 1
10
38.181000
20
69.475000
11
37.981000
21
69.675000
0
LINE
8
Layer 1
10
37.981000
20
69.675000
11
30.981000
21
69.675000
0
LINE
8
Layer 1
10
30.981000
20
69.675000
11
19.200000
21
69.675000
0
LINE
8
Layer 1
10
19.200000
20
69.675000
11
12.200000
21
69.675000
0
LINE
8
Layer 1
10
12.200000
20
69.675000
11
12.000000
21
69.475000
0
LINE
8
Layer 1
10
12.000000
20
69.475000
11
12.000000
21
67.175000
0
LINE
8
Layer 1
10
12.000000
20
67.175000
11
12.075000
21
67.100000
0
LINE
8
Layer 1
10
12.075000
20
67.100000
11
12.000000
21
67.175000
0
LINE
8
Layer 1
10
12.000000
20
67.175000
11
7.400000
21
67.175000
0
LINE
8
Layer 1
10
7.400000
20
67.175000
11
7.325000
21
67.100000
0
LINE
8
Layer 1
10
7.325000
20
67.100000
11
7.400000
21
67.175000
0
LINE
8
Layer 1
10
7.400000
20
67.175000
11
7.400000
21
69.475000
0
LINE
8
Layer 1
10
7.400000
20
69.475000
11
7.200000
21
69.675000
0
LINE
8
Layer 1
10
7.200000
20
69.675000
11
0.200000
21
69.675000
0
LINE
8
Layer 1
10
0.200000
20
69.675000
11
0.000000
21
69.475000
0
LINE
8
Layer 1
10
0.000000
20
69.475000
11
0.000000
21
32.475000
0
LINE
8
Layer 1
10
0.000000
20
32.475000
11
0.200000
21
32.275000
0
LINE
8
Layer 1
10
0.200000
20
32.275000
11
0.200000
21
32.275000
0
LINE
8
Layer 1
10
20.715000
20
32.275000
11
20.715000
21
49.725000
0
LINE
8
Layer 1
10
20.715000
20
52.225000
11
20.715000
21
69.675000
0
LINE
8
Layer 1
10
21.965000
20
67.175000
11
21.965000
21
34.775000
0
LINE
8
Layer 1
10
23.215000
20
32.275000
11
23.215000
21
49.725000
0
LINE
8
Layer 1
10
23.215000
20
52.225000
11
23.215000
21
69.675000
0
LINE
8
Layer 1
10
24.465000
20
67.175000
11
24.465000
21
34.775000
0
LINE
8
Layer 1
10
25.715000
20
32.275000
11
25.715000
21
49.725000
0
LINE
8
Layer 1
10
25.715000
20
52.225000
11
25.715000
21
69.675000
0
LINE
8
Layer 1
10
26.965000
20
67.175000
11
26.965000
21
34.775000
0
LINE
8
Layer 1
10
28.215000
20
32.275000
11
28.215000
21
49.725000
0
LINE
8
Layer 1
10
28.215000
20
52.225000
11
28.215000
21
69.675000
0
LINE
8
Layer 1
10
29.465000
20
67.175000
11
29.465000
21
34.775000
0
LINE
8
Layer 1
10
71.496000
20
32.275000
11
71.496000
21
49.725000
0
LINE
8
Layer 1
10
71.496000
20
52.225000
11
71.496000
21
69.675000
0
LINE
8
Layer 1
10
72.746000
20
67.175000
11
72.746000
21
34.775000
0
LINE
8
Layer 1
10
73.996000
20
32.275000
11
73.996000
21
49.725000
0
LINE
8
Layer 1
10
73.996000
20
52.225000
11
73.996000
21
69.675000
0
LINE
8
Layer 1
10
75.246000
20
67.175000
11
75.246000
21
34.775000
0
LINE
8
Layer 1
10
76.496000
20
32.275000
11
76.496000
21
49.725000
0
LINE
8
Layer 1
10
76.496000
20
52.225000
11
76.496000
21
69.675000
0
LINE
8
Layer 1
10
77.746000
20
67.175000
11
77.746000
21
34.775000
0
LINE
8
Layer 1
10
78.996000
20
32.275000
11
78.996000
21
49.725000
0
LINE
8
Layer 1
10
78.996000
20
52.225000
11
78.996000
21
69.675000
0
LINE
8
Layer 1
10
80.246000
20
67.175000
11
80.246000
21
34.775000
0
LINE
8
Layer 1
10
122.277000
20
32.275000
11
122.277000
21
49.725000
0
LINE
8
Layer 1
10
122.277000
20
52.225000
11
122.277000
21
69.675000
0
LINE
8
Layer 1
10
123.527000
20
67.175000
11
123.527000
21
34.775000
0
LINE
8
Layer 1
10
124.777000
20
32.275000
11
124.777000
21
49.725000
0
LINE
8
Layer 1
10
124.777000
20
52.225000
11
124.777000
21
69.675000
0
LINE
8
Layer 1
10
126.027000
20
67.175000
11
126.027000
21
34.775000
0
LINE
8
Layer 1
10
127.277000
20
32.275000
11
127.277000
21
49.725000
0
LINE
8
Layer 1
10
127.277000
20
52.225000
11
127.277000
21
69.675000
0
LINE
8
Layer 1
10
128.527000
20
67.175000
11
128.527000
21
34.775000
0
LINE
8
Layer 1
10
129.777000
20
32.275000
11
129.777000
21
49.725000
0
LINE
8
Layer 1
10
129.777000
20
52.225000
11
129.777000
21
69.675000
0
LINE
8
Layer 1
10
131.027000
20
67.175000
11
131.027000
21
34.775000
0
LINE
8
Layer 1
10
173.058000
20
32.275000
11
173.058000
21
49.725000
0
LINE
8
Layer 1
10
173.058000
20
52.225000
11
173.058000
21
69.675000
0
LINE
8
Layer 1
10
174.308000
20
67.175000
11
174.308000
21
34.775000
0
LINE
8
Layer 1
10
175.558000
20
32.275000
11
175.558000
21
49.725000
0
LINE
8
Layer 1
10
175.558000
20
52.225000
11
175.558000
21
69.675000
0
LINE
8
Layer 1
10
176.808000
20
67.175000
11
176.808000
21
34.775000
0
LINE
8
Layer 1
10
178.058000
20
32.275000
11
178.058000
21
49.725000
0
LINE
8
Layer 1
10
178.058000
20
52.225000
11
178.058000
21
69.675000
0
LINE
8
Layer 1
10
179.308000
20
67.175000
11
179.308000
21
34.775000
0
LINE
8
Layer 1
10
180.558000
20
32.275000
11
180.558000
21
49.725000
0
LINE
8
Layer 1
10
180.558000
20
52.225000
11
180.558000
21
69.675000
0
LINE
8
Layer 1
10
181.808000
20
67.175000
11
181.808000
21
34.775000
0
LINE
8
Layer 1
10
10.200000
20
74.050000
11
17.000000
21
74.050000
0
LINE
8
Layer 1
10
17.000000
20
74.050000
11
17.075000
21
74.125000
0
LINE
8
Layer 1
10
17.075000
20
74.125000
11
17.000000
21
74.050000
0
LINE
8
Layer 1
10
17.000000
20
74.050000
11
17.000000
21
71.750000
0
LINE
8
Layer 1
10
17.000000
20
71.750000
11
17.200000
21
71.550000
0
LINE
8
Layer 1
10
17.200000
20
71.550000
11
22.200000
21
71.550000
0
LINE
8
Layer 1
10
22.200000
20
71.550000
11
22.400000
21
71.750000
0
LINE
8
Layer 1
10
22.400000
20
71.750000
11
22.400000
21
74.050000
0
LINE
8
Layer 1
10
22.400000
20
74.050000
11
22.325000
21
74.125000
0
LINE
8
Layer 1
10
22.325000
20
74.125000
11
22.400000
21
74.050000
0
LINE
8
Layer 1
10
22.400000
20
74.050000
11
27.000000
21
74.050000
0
LINE
8
Layer 1
10
27.000000
20
74.050000
11
27.075000
21
74.125000
0
LINE
8
Layer 1
10
27.075000
20
74.125000
11
27.000000
21
74.050000
0
LINE
8
Layer 1
10
27.000000
20
74.050000
11
27.000000
21
71.750000
0
LINE
8
Layer 1
10
27.000000
20
71.750000
11
27.200000
21
71.550000
0
LINE
8
Layer 1
10
27.200000
20
71.550000
11
32.200000
21
71.550000
0
LINE
8
Layer 1
10
32.200000
20
71.550000
11
32.400000
21
71.750000
0
LINE
8
Layer 1
10
32.400000
20
71.750000
11
32.400000
21
74.050000
0
LINE
8
Layer 1
10
32.400000
20
74.050000
11
32.325000
21
74.125000
0
LINE
8
Layer 1
10
32.325000
20
74.125000
11
32.400000
21
74.050000
0
LINE
8
Layer 1
10
32.400000
20
74.050000
11
37.000000
21
74.050000
0
LINE
8
Layer 1
10
37.000000
20
74.050000
11
37.075000
21
74.125000
0
LINE
8
Layer 1
10
37.075000
20
74.125000
11
37.000000
21
74.050000
0
LINE
8
Layer 1
10
37.000000
20
74.050000
11
37.000000
21
71.750000
0
LINE
8
Layer 1
10
37.000000
20
71.750000
11
37.200000
21
71.550000
0
LINE
8
Layer 1
10
37.200000
20
71.550000
11
42.200000
21
71.550000
0
LINE
8
Layer 1
10
42.200000
20
71.550000
11
42.400000
21
71.750000
0
LINE
8
Layer 1
10
42.400000
20
71.750000
11
42.400000
21
74.050000
0
LINE
8
Layer 1
10
42.400000
20
74.050000
11
42.325000
21
74.125000
0
LINE
8
Layer 1
10
42.325000
20
74.125000
11
42.400000
21
74.050000
0
LINE
8
Layer 1
10
42.400000
20
74.050000
11
49.200000
21
74.050000
0
LINE
8
Layer 1
10
49.200000
20
74.050000
11
51.192875
21
74.312500
0
LINE
8
Layer 1
10
51.192875
20
74.312500
11
53.050000
21
75.082000
0
LINE
8
Layer 1
10
53.050000
20
75.082000
11
54.645000
21
76.305000
0
LINE
8
Layer 1
10
54.645000
20
76.305000
11
55.868000
21
77.900000
0
LINE
8
Layer 1
10
55.868000
20
77.900000
11
56.637500
21
79.757125
0
LINE
8
Layer 1
10
56.637500
20
79.757125
11
56.900000
21
81.750000
0
LINE
8
Layer 1
10
56.900000
20
81.750000
11
56.900000
21
88.550000
0
LINE
8
Layer 1
10
56.900000
20
88.550000
11
56.825000
21
88.625000
0
LINE
8
Layer 1
10
56.825000
20
88.625000
11
56.900000
21
88.550000
0
LINE
8
Layer 1
10
56.900000
20
88.550000
11
59.200000
21
88.550000
0
LINE
8
Layer 1
10
59.200000
20
88.550000
11
59.400000
21
88.750000
0
LINE
8
Layer 1
10
59.400000
20
88.750000
11
59.400000
21
93.750000
0
LINE
8
Layer 1
10
59.400000
20
93.750000
11
59.200000
21
93.950000
0
LINE
8
Layer 1
10
59.200000
20
93.950000
11
56.900000
21
93.950000
0
LINE
8
Layer 1
10
56.900000
20
93.950000
11
56.825000
21
93.875000
0
LINE
8
Layer 1
10
56.825000
20
93.875000
11
56.900000
21
93.950000
0
LINE
8
Layer 1
10
56.900000
20
93.950000
11
56.900000
21
98.550000
0
LINE
8
Layer 1
10
56.900000
20
98.550000
11
56.825000
21
98.625000
0
LINE
8
Layer 1
10
56.825000
20
98.625000
11
56.900000
21
98.550000
0
LINE
8
Layer 1
10
56.900000
20
98.550000
11
59.200000
21
98.550000
0
LINE
8
Layer 1
10
59.200000
20
98.550000
11
59.400000
21
98.750000
0
LINE
8
Layer 1
10
59.400000
20
98.750000
11
59.400000
21
103.750000
0
LINE
8
Layer 1
10
59.400000
20
103.750000
11
59.200000
21
103.950000
0
LINE
8
Layer 1
10
59.200000
20
103.950000
11
56.900000
21
103.950000
0
LINE
8
Layer 1
10
56.900000
20
103.950000
11
56.825000
21
103.875000
0
LINE
8
Layer 1
10
56.825000
20
103.875000
11
56.900000
21
103.950000
0
LINE
8
Layer 1
10
56.900000
20
103.950000
11
56.900000
21
108.550000
0
LINE
8
Layer 1
10
56.900000
20
108.550000
11
56.825000
21
108.625000
0
LINE
8
Layer 1
10
56.825000
20
108.625000
11
56.900000
21
108.550000
0
LINE
8
Layer 1
10
56.900000
20
108.550000
11
59.200000
21
108.550000
0
LINE
8
Layer 1
10
59.200000
20
108.550000
11
59.400000
21
108.750000
0
LINE
8
Layer 1
10
59.400000
20
108.750000
11
59.400000
21
113.750000
0
LINE
8
Layer 1
10
59.400000
20
113.750000
11
59.200000
21
113.950000
0
LINE
8
Layer 1
10
59.200000
20
113.950000
11
56.900000
21
113.950000
0
LINE
8
Layer 1
10
56.900000
20
113.950000
11
56.825000
21
113.875000
0
LINE
8
Layer 1
10
56.825000
20
113.875000
11
56.900000
21
113.950000
0
LINE
8
Layer 1
10
56.900000
20
113.950000
11
56.900000
21
120.750000
0
LINE
8
Layer 1
10
56.900000
20
120.750000
11
56.637500
21
122.742875
0
LINE
8
Layer 1
10
56.637500
20
122.742875
11
55.868000
21
124.600000
0
LINE
8
Layer 1
10
55.868000
20
124.600000
11
54.645000
21
126.195000
0
LINE
8
Layer 1
10
54.645000
20
126.195000
11
53.050000
21
127.418000
0
LINE
8
Layer 1
10
53.050000
20
127.418000
11
51.192875
21
128.187500
0
LINE
8
Layer 1
10
51.192875
20
128.187500
11
49.200000
21
128.450000
0
LINE
8
Layer 1
10
49.200000
20
128.450000
11
10.200000
21
128.450000
0
LINE
8
Layer 1
10
10.200000
20
128.450000
11
8.207125
21
128.187500
0
LINE
8
Layer 1
10
8.207125
20
128.187500
11
6.350000
21
127.418000
0
LINE
8
Layer 1
10
6.350000
20
127.418000
11
4.755000
21
126.195000
0
LINE
8
Layer 1
10
4.755000
20
126.195000
11
3.532000
21
124.600000
0
LINE
8
Layer 1
10
3.532000
20
124.600000
11
2.762500
21
122.742875
0
LINE
8
Layer 1
10
2.762500
20
122.742875
11
2.500000
21
120.750000
0
LINE
8
Layer 1
10
2.500000
20
120.750000
11
2.700000
21
120.950000
0
LINE
8
Layer 1
10
2.700000
20
120.950000
11
0.200000
21
120.950000
0
LINE
8
Layer 1
10
0.200000
20
120.950000
11
0.000000
21
120.750000
0
LINE
8
Layer 1
10
0.000000
20
120.750000
11
-0.000000
21
110.750000
0
LINE
8
Layer 1
10
-0.000000
20
110.750000
11
0.200000
21
110.550000
0
LINE
8
Layer 1
10
0.200000
20
110.550000
11
2.500000
21
110.550000
0
LINE
8
Layer 1
10
2.500000
20
110.550000
11
2.575000
21
110.625000
0
LINE
8
Layer 1
10
2.575000
20
110.625000
11
2.500000
21
110.550000
0
LINE
8
Layer 1
10
2.500000
20
110.550000
11
2.500000
21
100.750000
0
LINE
8
Layer 1
10
2.500000
20
100.750000
11
2.500000
21
93.950000
0
LINE
8
Layer 1
10
2.500000
20
93.950000
11
2.575000
21
93.875000
0
LINE
8
Layer 1
10
2.575000
20
93.875000
11
2.500000
21
93.950000
0
LINE
8
Layer 1
10
2.500000
20
93.950000
11
0.200000
21
93.950000
0
LINE
8
Layer 1
10
0.200000
20
93.950000
11
0.000000
21
93.750000
0
LINE
8
Layer 1
10
0.000000
20
93.750000
11
-0.000000
21
88.750000
0
LINE
8
Layer 1
10
-0.000000
20
88.750000
11
0.200000
21
88.550000
0
LINE
8
Layer 1
10
0.200000
20
88.550000
11
2.500000
21
88.550000
0
LINE
8
Layer 1
10
2.500000
20
88.550000
11
2.575000
21
88.625000
0
LINE
8
Layer 1
10
2.575000
20
88.625000
11
2.500000
21
88.550000
0
LINE
8
Layer 1
10
2.500000
20
88.550000
11
2.500000
21
81.750000
0
LINE
8
Layer 1
10
2.500000
20
81.750000
11
2.762500
21
79.757125
0
LINE
8
Layer 1
10
2.762500
20
79.757125
11
3.532000
21
77.900000
0
LINE
8
Layer 1
10
3.532000
20
77.900000
11
4.755000
21
76.305000
0
LINE
8
Layer 1
10
4.755000
20
76.305000
11
6.350000
21
75.082000
0
LINE
8
Layer 1
10
6.350000
20
75.082000
11
8.207125
21
74.312500
0
LINE
8
Layer 1
10
8.207125
20
74.312500
11
10.200000
21
74.050000
0
LINE
8
Layer 1
10
10.200000
20
74.050000
11
10.200000
21
74.050000
0
LINE
8
Layer 1
10
109.850000
20
74.050000
11
103.050000
21
74.050000
0
LINE
8
Layer 1
10
103.050000
20
74.050000
11
102.975000
21
74.125000
0
LINE
8
Layer 1
10
102.975000
20
74.125000
11
103.050000
21
74.050000
0
LINE
8
Layer 1
10
103.050000
20
74.050000
11
103.050000
21
71.750000
0
LINE
8
Layer 1
10
103.050000
20
71.750000
11
102.850000
21
71.550000
0
LINE
8
Layer 1
10
102.850000
20
71.550000
11
97.850000
21
71.550000
0
LINE
8
Layer 1
10
97.850000
20
71.550000
11
97.650000
21
71.750000
0
LINE
8
Layer 1
10
97.650000
20
71.750000
11
97.650000
21
74.050000
0
LINE
8
Layer 1
10
97.650000
20
74.050000
11
97.725000
21
74.125000
0
LINE
8
Layer 1
10
97.725000
20
74.125000
11
97.650000
21
74.050000
0
LINE
8
Layer 1
10
97.650000
20
74.050000
11
93.050000
21
74.050000
0
LINE
8
Layer 1
10
93.050000
20
74.050000
11
92.975000
21
74.125000
0
LINE
8
Layer 1
10
92.975000
20
74.125000
11
93.050000
21
74.050000
0
LINE
8
Layer 1
10
93.050000
20
74.050000
11
93.050000
21
71.750000
0
LINE
8
Layer 1
10
93.050000
20
71.750000
11
92.850000
21
71.550000
0
LINE
8
Layer 1
10
92.850000
20
71.550000
11
87.850000
21
71.550000
0
LINE
8
Layer 1
10
87.850000
20
71.550000
11
87.650000
21
71.750000
0
LINE
8
Layer 1
10
87.650000
20
71.750000
11
87.650000
21
74.050000
0
LINE
8
Layer 1
10
87.650000
20
74.050000
11
87.725000
21
74.125000
0
LINE
8
Layer 1
10
87.725000
20
74.125000
11
87.650000
21
74.050000
0
LINE
8
Layer 1
10
87.650000
20
74.050000
11
83.050000
21
74.050000
0
LINE
8
Layer 1
10
83.050000
20
74.050000
11
82.975000
21
74.125000
0
LINE
8
Layer 1
10
82.975000
20
74.125000
11
83.050000
21
74.050000
0
LINE
8
Layer 1
10
83.050000
20
74.050000
11
83.050000
21
71.750000
0
LINE
8
Layer 1
10
83.050000
20
71.750000
11
82.850000
21
71.550000
0
LINE
8
Layer 1
10
82.850000
20
71.550000
11
77.850000
21
71.550000
0
LINE
8
Layer 1
10
77.850000
20
71.550000
11
77.650000
21
71.750000
0
LINE
8
Layer 1
10
77.650000
20
71.750000
11
77.650000
21
74.050000
0
LINE
8
Layer 1
10
77.650000
20
74.050000
11
77.725000
21
74.125000
0
LINE
8
Layer 1
10
77.725000
20
74.125000
11
77.650000
21
74.050000
0
LINE
8
Layer 1
10
77.650000
20
74.050000
11
70.850000
21
74.050000
0
LINE
8
Layer 1
10
70.850000
20
74.050000
11
68.857125
21
74.312500
0
LINE
8
Layer 1
10
68.857125
20
74.312500
11
67.000000
21
75.082000
0
LINE
8
Layer 1
10
67.000000
20
75.082000
11
65.405000
21
76.305000
0
LINE
8
Layer 1
10
65.405000
20
76.305000
11
64.182000
21
77.900000
0
LINE
8
Layer 1
10
64.182000
20
77.900000
11
63.412500
21
79.757125
0
LINE
8
Layer 1
10
63.412500
20
79.757125
11
63.150000
21
81.750000
0
LINE
8
Layer 1
10
63.150000
20
81.750000
11
63.150000
21
88.550000
0
LINE
8
Layer 1
10
63.150000
20
88.550000
11
63.225000
21
88.625000
0
LINE
8
Layer 1
10
63.225000
20
88.625000
11
63.150000
21
88.550000
0
LINE
8
Layer 1
10
63.150000
20
88.550000
11
60.850000
21
88.550000
0
LINE
8
Layer 1
10
60.850000
20
88.550000
11
60.650000
21
88.750000
0
LINE
8
Layer 1
10
60.650000
20
88.750000
11
60.650000
21
93.750000
0
LINE
8
Layer 1
10
60.650000
20
93.750000
11
60.850000
21
93.950000
0
LINE
8
Layer 1
10
60.850000
20
93.950000
11
63.150000
21
93.950000
0
LINE
8
Layer 1
10
63.150000
20
93.950000
11
63.225000
21
93.875000
0
LINE
8
Layer 1
10
63.225000
20
93.875000
11
63.150000
21
93.950000
0
LINE
8
Layer 1
10
63.150000
20
93.950000
11
63.150000
21
98.550000
0
LINE
8
Layer 1
10
63.150000
20
98.550000
11
63.225000
21
98.625000
0
LINE
8
Layer 1
10
63.225000
20
98.625000
11
63.150000
21
98.550000
0
LINE
8
Layer 1
10
63.150000
20
98.550000
11
60.850000
21
98.550000
0
LINE
8
Layer 1
10
60.850000
20
98.550000
11
60.650000
21
98.750000
0
LINE
8
Layer 1
10
60.650000
20
98.750000
11
60.650000
21
103.750000
0
LINE
8
Layer 1
10
60.650000
20
103.750000
11
60.850000
21
103.950000
0
LINE
8
Layer 1
10
60.850000
20
103.950000
11
63.150000
21
103.950000
0
LINE
8
Layer 1
10
63.150000
20
103.950000
11
63.225000
21
103.875000
0
LINE
8
Layer 1
10
63.225000
20
103.875000
11
63.150000
21
103.950000
0
LINE
8
Layer 1
10
63.150000
20
103.950000
11
63.150000
21
108.550000
0
LINE
8
Layer 1
10
63.150000
20
108.550000
11
63.225000
21
108.625000
0
LINE
8
Layer 1
10
63.225000
20
108.625000
11
63.150000
21
108.550000
0
LINE
8
Layer 1
10
63.150000
20
108.550000
11
60.850000
21
108.550000
0
LINE
8
Layer 1
10
60.850000
20
108.550000
11
60.650000
21
108.750000
0
LINE
8
Layer 1
10
60.650000
20
108.750000
11
60.650000
21
113.750000
0
LINE
8
Layer 1
10
60.650000
20
113.750000
11
60.850000
21
113.950000
0
LINE
8
Layer 1
10
60.850000
20
113.950000
11
63.150000
21
113.950000
0
LINE
8
Layer 1
10
63.150000
20
113.950000
11
63.225000
21
113.875000
0
LINE
8
Layer 1
10
63.225000
20
113.875000
11
63.150000
21
113.950000
0
LINE
8
Layer 1
10
63.150000
20
113.950000
11
63.150000
21
120.750000
0
LINE
8
Layer 1
10
63.150000
20
120.750000
11
63.412500
21
122.742875
0
LINE
8
Layer 1
10
63.412500
20
122.742875
11
64.182000
21
124.600000
0
LINE
8
Layer 1
10
64.182000
20
124.600000
11
65.405000
21
126.195000
0
LINE
8
Layer 1
10
65.405000
20
126.195000
11
67.000000
21
127.418000
0
LINE
8
Layer 1
10
67.000000
20
127.418000
11
68.857125
21
128.187500
0
LINE
8
Layer 1
10
68.857125
20
128.187500
11
70.850000
21
128.450000
0
LINE
8
Layer 1
10
70.850000
20
128.450000
11
109.850000
21
128.450000
0
LINE
8
Layer 1
10
109.850000
20
128.450000
11
111.842875
21
128.187500
0
LINE
8
Layer 1
10
111.842875
20
128.187500
11
113.700000
21
127.418000
0
LINE
8
Layer 1
10
113.700000
20
127.418000
11
115.295000
21
126.195000
0
LINE
8
Layer 1
10
115.295000
20
126.195000
11
116.518000
21
124.600000
0
LINE
8
Layer 1
10
116.518000
20
124.600000
11
117.287500
21
122.742875
0
LINE
8
Layer 1
10
117.287500
20
122.742875
11
117.550000
21
120.750000
0
LINE
8
Layer 1
10
117.550000
20
120.750000
11
117.350000
21
120.950000
0
LINE
8
Layer 1
10
117.350000
20
120.950000
11
119.850000
21
120.950000
0
LINE
8
Layer 1
10
119.850000
20
120.950000
11
120.050000
21
120.750000
0
LINE
8
Layer 1
10
120.050000
20
120.750000
11
120.050000
21
110.750000
0
LINE
8
Layer 1
10
120.050000
20
110.750000
11
119.850000
21
110.550000
0
LINE
8
Layer 1
10
119.850000
20
110.550000
11
117.550000
21
110.550000
0
LINE
8
Layer 1
10
117.550000
20
110.550000
11
117.475000
21
110.625000
0
LINE
8
Layer 1
10
117.475000
20
110.625000
11
117.550000
21
110.550000
0
LINE
8
Layer 1
10
117.550000
20
110.550000
11
117.550000
21
100.750000
0
LINE
8
Layer 1
10
117.550000
20
100.750000
11
117.550000
21
93.950000
0
LINE
8
Layer 1
10
117.550000
20
93.950000
11
117.475000
21
93.875000
0
LINE
8
Layer 1
10
117.475000
20
93.875000
11
117.550000
21
93.950000
0
LINE
8
Layer 1
10
117.550000
20
93.950000
11
119.850000
21
93.950000
0
LINE
8
Layer 1
10
119.850000
20
93.950000
11
120.050000
21
93.750000
0
LINE
8
Layer 1
10
120.050000
20
93.750000
11
120.050000
21
88.750000
0
LINE
8
Layer 1
10
120.050000
20
88.750000
11
119.850000
21
88.550000
0
LINE
8
Layer 1
10
119.850000
20
88.550000
11
117.550000
21
88.550000
0
LINE
8
Layer 1
10
117.550000
20
88.550000
11
117.475000
21
88.625000
0
LINE
8
Layer 1
10
117.475000
20
88.625000
11
117.550000
21
88.550000
0
LINE
8
Layer 1
10
117.550000
20
88.550000
11
117.550000
21
81.750000
0
LINE
8
Layer 1
10
117.550000
20
81.750000
11
117.287500
21
79.757125
0
LINE
8
Layer 1
10
117.287500
20
79.757125
11
116.518000
21
77.900000
0
LINE
8
Layer 1
10
116.518000
20
77.900000
11
115.295000
21
76.305000
0
LINE
8
Layer 1
10
115.295000
20
76.305000
11
113.700000
21
75.082000
0
LINE
8
Layer 1
10
113.700000
20
75.082000
11
111.842875
21
74.312500
0
LINE
8
Layer 1
10
111.842875
20
74.312500
11
109.850000
21
74.050000
0
LINE
8
Layer 1
10
109.850000
20
74.050000
11
109.850000
21
74.050000
0
LINE
8
Layer 1
10
17.500000
20
82.948600
11
17.500000
21
82.946600
0
LINE
8
Layer 1
10
17.500000
20
82.946600
11
17.410600
21
82.946600
0
LINE
8
Layer 1
10
17.410600
20
82.946600
11
16.446077
21
82.715907
0
LINE
8
Layer 1
10
16.446077
20
82.715907
11
15.671490
21
82.153080
0
LINE
8
Layer 1
10
15.671490
20
82.153080
11
15.164168
21
81.341056
0
LINE
8
Layer 1
10
15.164168
20
81.341056
11
15.001440
21
80.362770
0
LINE
8
Layer 1
10
15.001440
20
80.362770
11
15.222272
21
79.417936
0
LINE
8
Layer 1
10
15.222272
20
79.417936
11
15.763295
21
78.651628
0
LINE
8
Layer 1
10
15.763295
20
78.651628
11
16.548030
21
78.137699
0
LINE
8
Layer 1
10
16.548030
20
78.137699
11
17.500000
21
77.950000
0
LINE
8
Layer 1
10
17.500000
20
77.950000
11
17.500000
21
77.948000
0
LINE
8
Layer 1
10
17.500000
20
77.948000
11
25.499500
21
77.948000
0
LINE
8
Layer 1
10
25.499500
20
77.948000
11
25.499500
21
77.950000
0
LINE
8
Layer 1
10
25.499500
20
77.950000
11
25.581150
21
77.949490
0
LINE
8
Layer 1
10
25.581150
20
77.949490
11
26.546398
21
78.177090
0
LINE
8
Layer 1
10
26.546398
20
78.177090
11
27.322780
21
78.737426
0
LINE
8
Layer 1
10
27.322780
20
78.737426
11
27.832701
21
79.547811
0
LINE
8
Layer 1
10
27.832701
20
79.547811
11
27.998570
21
80.525560
0
LINE
8
Layer 1
10
27.998570
20
80.525560
11
27.998054
21
80.541560
0
LINE
8
Layer 1
10
27.998054
20
80.541560
11
27.775102
21
81.483922
0
LINE
8
Layer 1
10
27.775102
20
81.483922
11
27.233592
21
82.247747
0
LINE
8
Layer 1
10
27.233592
20
82.247747
11
26.449673
21
82.759736
0
LINE
8
Layer 1
10
26.449673
20
82.759736
11
25.499494
21
82.946590
0
LINE
8
Layer 1
10
25.499494
20
82.946590
11
25.499500
21
82.948600
0
LINE
8
Layer 1
10
25.499500
20
82.948600
11
17.500000
21
82.948600
0
LINE
8
Layer 1
10
92.971100
20
58.671800
11
91.992135
21
58.539306
0
LINE
8
Layer 1
10
91.992135
20
58.539306
11
91.084028
21
58.228070
0
LINE
8
Layer 1
10
91.084028
20
58.228070
11
90.265170
21
57.757166
0
LINE
8
Layer 1
10
90.265170
20
57.757166
11
89.553953
21
57.145668
0
LINE
8
Layer 1
10
89.553953
20
57.145668
11
88.968766
21
56.412649
0
LINE
8
Layer 1
10
88.968766
20
56.412649
11
88.528000
21
55.577182
0
LINE
8
Layer 1
10
88.528000
20
55.577182
11
88.250048
21
54.658341
0
LINE
8
Layer 1
10
88.250048
20
54.658341
11
88.153300
21
53.675200
0
LINE
8
Layer 1
10
88.153300
20
53.675200
11
88.150200
21
53.675200
0
LINE
8
Layer 1
10
88.150200
20
53.675200
11
88.150200
21
41.674900
0
LINE
8
Layer 1
10
88.150200
20
41.674900
11
88.153300
21
41.674900
0
LINE
8
Layer 1
10
88.153300
20
41.674900
11
88.152800
21
41.504400
0
LINE
8
Layer 1
10
88.152800
20
41.504400
11
88.288485
21
40.501844
0
LINE
8
Layer 1
10
88.288485
20
40.501844
11
88.611090
21
39.574623
0
LINE
8
Layer 1
10
88.611090
20
39.574623
11
89.099912
21
38.742103
0
LINE
8
Layer 1
10
89.099912
20
38.742103
11
89.734250
21
38.023649
0
LINE
8
Layer 1
10
89.734250
20
38.023649
11
90.493401
21
37.438626
0
LINE
8
Layer 1
10
90.493401
20
37.438626
11
91.356661
21
37.006400
0
LINE
8
Layer 1
10
91.356661
20
37.006400
11
92.303328
21
36.746336
0
LINE
8
Layer 1
10
92.303328
20
36.746336
11
93.312700
21
36.677800
0
LINE
8
Layer 1
10
93.312700
20
36.677800
11
94.294770
21
36.807049
0
LINE
8
Layer 1
10
94.294770
20
36.807049
11
95.206152
21
37.116202
0
LINE
8
Layer 1
10
95.206152
20
37.116202
11
96.028276
21
37.586078
0
LINE
8
Layer 1
10
96.028276
20
37.586078
11
96.742573
21
38.197493
0
LINE
8
Layer 1
10
96.742573
20
38.197493
11
97.330473
21
38.931265
0
LINE
8
Layer 1
10
97.330473
20
38.931265
11
97.773407
21
39.768212
0
LINE
8
Layer 1
10
97.773407
20
39.768212
11
98.052806
21
40.689151
0
LINE
8
Layer 1
10
98.052806
20
40.689151
11
98.150100
21
41.674900
0
LINE
8
Layer 1
10
98.150100
20
41.674900
11
98.150100
21
41.700800
0
LINE
8
Layer 1
10
98.150100
20
41.700800
11
98.150100
21
53.675200
0
LINE
8
Layer 1
10
98.150100
20
53.675200
11
98.147500
21
53.829200
0
LINE
8
Layer 1
10
98.147500
20
53.829200
11
98.146500
21
53.861800
0
LINE
8
Layer 1
10
98.146500
20
53.861800
11
98.007595
21
54.863918
0
LINE
8
Layer 1
10
98.007595
20
54.863918
11
97.682012
21
55.790100
0
LINE
8
Layer 1
10
97.682012
20
55.790100
11
97.190515
21
56.621048
0
LINE
8
Layer 1
10
97.190515
20
56.621048
11
96.553869
21
57.337461
0
LINE
8
Layer 1
10
96.553869
20
57.337461
11
95.792840
21
57.920042
0
LINE
8
Layer 1
10
95.792840
20
57.920042
11
94.928192
21
58.349491
0
LINE
8
Layer 1
10
94.928192
20
58.349491
11
93.980690
21
58.606510
0
LINE
8
Layer 1
10
93.980690
20
58.606510
11
92.971100
21
58.671800
0
LINE
8
Layer 1
10
92.971100
20
58.671800
11
92.971100
21
58.671800
 0 
ENDSEC
 0 
EOF