<?xml version='1.0' encoding='utf-8'?>
<svg width="223.72mm" height="128.45mm" viewBox="0.0 0.0 223.72 128.45" xmlns="http://www.w3.org/2000/svg" xmlns:dc="http://purl.org/dc/elements/1.1/" xmlns:cc="http://creativecommons.org/ns#" xmlns:rdf="http://www.w3.org/1999/02/22-rdf-syntax-ns#" xmlns:svg="http://www.w3.org/2000/svg" xmlns:xlink="http://www.w3.org/1999/xlink" xmlns:inkscape="http://www.inkscape.org/namespaces/inkscape">
<!--
FlexBox - Box with living hinge and round corners

Created with Boxes.py (https://festi.info/boxes.py)
Creation date: 2023-05-12 08:43:35
Command line (remove spaces between dashes): boxes FlexBox - -x=54 - -y=54 - -h=32 - -outside=0 - -radius=7.5 - -thickness=2.5 - -labels=0 - -burn=0.2
Url: http://www.festi.info/boxes.py/FlexBox?FingerJoint_angle=90.0&FingerJoint_style=rectangular&FingerJoint_surroundingspaces=2.0&FingerJoint_bottom_lip=0.0&FingerJoint_edge_width=1.0&FingerJoint_extra_length=0.0&FingerJoint_finger=2.0&FingerJoint_play=0.0&FingerJoint_space=2.0&FingerJoint_width=1.0&Flex_stretch=1.05&Flex_connection=1.0&Flex_distance=0.5&Flex_width=5.0&x=54&y=54&h=32&outside=0&radius=7.5&latchsize=8&thickness=2.5&format=svg&tabs=0.0&qr_code=0&debug=0&labels=0&reference=100&inner_corners=loop&burn=0.2&language=en&render=2
Url short: http://www.festi.info/boxes.py/FlexBox?x=54&y=54&h=32&outside=0&radius=7.5&thickness=2.5&labels=0&burn=0.2
SettingsUrl: http://www.festi.info/boxes.py/FlexBox?FingerJoint_angle=90.0&FingerJoint_style=rectangular&FingerJoint_surroundingspaces=2.0&FingerJoint_bottom_lip=0.0&FingerJoint_edge_width=1.0&FingerJoint_extra_length=0.0&FingerJoint_finger=2.0&FingerJoint_play=0.0&FingerJoint_space=2.0&FingerJoint_width=1.0&Flex_stretch=1.05&Flex_connection=1.0&Flex_distance=0.5&Flex_width=5.0&x=54&y=54&h=32&outside=0&radius=7.5&latchsize=8&thickness=2.5&format=svg&tabs=0.0&qr_code=0&debug=0&labels=0&reference=100&inner_corners=loop&burn=0.2&language=en&render=2
SettingsUrl short: http://www.festi.info/boxes.py/FlexBox?x=54&y=54&h=32&outside=0&radius=7.5&thickness=2.5&labels=0&burn=0.2
-->
<title>FlexBox</title>
<metadata>
<rdf:RDF><cc:Work>
<dc:title>FlexBox - FlexBox</dc:title>
<dc:date>2023-05-12 08:43:35</dc:date>
<dc:source>http://www.festi.info/boxes.py/FlexBox?FingerJoint_angle=90.0&amp;FingerJoint_style=rectangular&amp;FingerJoint_surroundingspaces=2.0&amp;FingerJoint_bottom_lip=0.0&amp;FingerJoint_edge_width=1.0&amp;FingerJoint_extra_length=0.0&amp;FingerJoint_finger=2.0&amp;FingerJoint_play=0.0&amp;FingerJoint_space=2.0&amp;FingerJoint_width=1.0&amp;Flex_stretch=1.05&amp;Flex_connection=1.0&amp;Flex_distance=0.5&amp;Flex_width=5.0&amp;x=54&amp;y=54&amp;h=32&amp;outside=0&amp;radius=7.5&amp;latchsize=8&amp;thickness=2.5&amp;format=svg&amp;tabs=0.0&amp;qr_code=0&amp;debug=0&amp;labels=0&amp;reference=100&amp;inner_corners=loop&amp;burn=0.2&amp;language=en&amp;render=2</dc:source>
<dc:source>http://www.festi.info/boxes.py/FlexBox?x=54&amp;y=54&amp;h=32&amp;outside=0&amp;radius=7.5&amp;thickness=2.5&amp;labels=0&amp;burn=0.2</dc:source>
<dc:description>Box with living hinge and round corners

Created with Boxes.py (https://festi.info/boxes.py)
Command line: boxes FlexBox --FingerJoint_angle=90.0 --FingerJoint_style=rectangular --FingerJoint_surroundingspaces=2.0 --FingerJoint_bottom_lip=0.0 --FingerJoint_edge_width=1.0 --FingerJoint_extra_length=0.0 --FingerJoint_finger=2.0 --FingerJoint_play=0.0 --FingerJoint_space=2.0 --FingerJoint_width=1.0 --Flex_stretch=1.05 --Flex_connection=1.0 --Flex_distance=0.5 --Flex_width=5.0 --x=54 --y=54 --h=32 --outside=0 --radius=7.5 --latchsize=8 --thickness=2.5 --format=svg --tabs=0.0 --qr_code=0 --debug=0 --labels=0 --reference=100 --inner_corners=loop --burn=0.2
Command line short: boxes FlexBox --x=54 --y=54 --h=32 --outside=0 --radius=7.5 --thickness=2.5 --labels=0 --burn=0.2
Url: http://www.festi.info/boxes.py/FlexBox?FingerJoint_angle=90.0&amp;FingerJoint_style=rectangular&amp;FingerJoint_surroundingspaces=2.0&amp;FingerJoint_bottom_lip=0.0&amp;FingerJoint_edge_width=1.0&amp;FingerJoint_extra_length=0.0&amp;FingerJoint_finger=2.0&amp;FingerJoint_play=0.0&amp;FingerJoint_space=2.0&amp;FingerJoint_width=1.0&amp;Flex_stretch=1.05&amp;Flex_connection=1.0&amp;Flex_distance=0.5&amp;Flex_width=5.0&amp;x=54&amp;y=54&amp;h=32&amp;outside=0&amp;radius=7.5&amp;latchsize=8&amp;thickness=2.5&amp;format=svg&amp;tabs=0.0&amp;qr_code=0&amp;debug=0&amp;labels=0&amp;reference=100&amp;inner_corners=loop&amp;burn=0.2&amp;language=en&amp;render=2
Url short: http://www.festi.info/boxes.py/FlexBox?x=54&amp;y=54&amp;h=32&amp;outside=0&amp;radius=7.5&amp;thickness=2.5&amp;labels=0&amp;burn=0.2
SettingsUrl: http://www.festi.info/boxes.py/FlexBox?FingerJoint_angle=90.0&amp;FingerJoint_style=rectangular&amp;FingerJoint_surroundingspaces=2.0&amp;FingerJoint_bottom_lip=0.0&amp;FingerJoint_edge_width=1.0&amp;FingerJoint_extra_length=0.0&amp;FingerJoint_finger=2.0&amp;FingerJoint_play=0.0&amp;FingerJoint_space=2.0&amp;FingerJoint_width=1.0&amp;Flex_stretch=1.05&amp;Flex_connection=1.0&amp;Flex_distance=0.5&amp;Flex_width=5.0&amp;x=54&amp;y=54&amp;h=32&amp;outside=0&amp;radius=7.5&amp;latchsize=8&amp;thickness=2.5&amp;format=svg&amp;tabs=0.0&amp;qr_code=0&amp;debug=0&amp;labels=0&amp;reference=100&amp;inner_corners=loop&amp;burn=0.2&amp;language=en&amp;render=2
SettingsUrl short: http://www.festi.info/boxes.py/FlexBox?x=54&amp;y=54&amp;h=32&amp;outside=0&amp;radius=7.5&amp;thickness=2.5&amp;labels=0&amp;burn=0.2
</dc:description>
</cc:Work></rdf:RDF></metadata>
<g id="p-0" style="fill:none;stroke-linecap:round;stroke-linejoin:round;">
  <path d="M 10.400 118.450 H 110.400 V 108.450 H 10.400 V 118.450 Z" stroke="rgb(0,0,0)" stroke-width="0.40" />
  <text transform="matrix( 1.000 0.000 0.000 1.000 60.400 109.450 )" style="font-family: sans-serif ; font-weight: normal; font-style: normal; fill: rgb(255,0,0)" font-size="8px" text-anchor="middle" dominant-baseline="hanging">100mm, burn:0.20mm</text>
</g>
<g id="p-1" style="fill:none;stroke-linecap:round;stroke-linejoin:round;">
  <path d="M 10.400 106.175 H 17.400 C 17.510 106.175 17.600 106.085 17.600 105.975 V 103.675 C 17.600 103.475 17.400 103.675 17.600 103.675 H 22.200 C 22.400 103.675 22.200 103.475 22.200 103.675 V 105.975 C 22.200 106.085 22.290 106.175 22.400 106.175 H 29.400 H 41.181 H 48.181 C 48.291 106.175 48.381 106.085 48.381 105.975 V 103.675 C 48.381 103.475 48.181 103.675 48.381 103.675 H 52.981 C 53.181 103.675 52.981 103.475 52.981 103.675 V 105.975 C 52.981 106.085 53.071 106.175 53.181 106.175 H 58.181 C 58.291 106.175 58.381 106.085 58.381 105.975 V 103.675 C 58.381 103.475 58.181 103.675 58.381 103.675 H 62.981 C 63.181 103.675 62.981 103.475 62.981 103.675 V 105.975 C 62.981 106.085 63.071 106.175 63.181 106.175 H 68.181 C 68.291 106.175 68.381 106.085 68.381 105.975 V 103.675 C 68.381 103.475 68.181 103.675 68.381 103.675 H 72.981 C 73.181 103.675 72.981 103.475 72.981 103.675 V 105.975 C 72.981 106.085 73.071 106.175 73.181 106.175 H 80.181 H 91.962 H 98.962 C 99.072 106.175 99.162 106.085 99.162 105.975 V 103.675 C 99.162 103.475 98.962 103.675 99.162 103.675 H 103.762 C 103.962 103.675 103.762 103.475 103.762 103.675 V 105.975 C 103.762 106.085 103.851 106.175 103.962 106.175 H 108.962 C 109.072 106.175 109.162 106.085 109.162 105.975 V 103.675 C 109.162 103.475 108.962 103.675 109.162 103.675 H 113.762 C 113.962 103.675 113.762 103.475 113.762 103.675 V 105.975 C 113.762 106.085 113.851 106.175 113.962 106.175 H 118.962 C 119.072 106.175 119.162 106.085 119.162 105.975 V 103.675 C 119.162 103.475 118.962 103.675 119.162 103.675 H 123.762 C 123.962 103.675 123.762 103.475 123.762 103.675 V 105.975 C 123.762 106.085 123.851 106.175 123.962 106.175 H 130.962 H 142.743 H 181.743 H 193.524 C 193.634 106.175 193.724 106.085 193.724 105.975 V 103.425 C 193.724 103.225 193.524 103.425 193.724 103.425 H 203.824 C 204.024 103.425 203.824 103.225 203.824 103.425 V 105.975 C 203.824 106.120 203.862 106.262 203.934 106.388 C 204.007 106.513 204.111 106.617 204.236 106.689 C 204.362 106.762 204.504 106.800 204.649 106.800 C 204.775 106.800 204.898 106.767 205.007 106.704 C 205.115 106.641 205.206 106.551 205.269 106.442 C 205.331 106.333 205.365 106.210 205.365 106.084 C 205.365 106.029 205.379 105.975 205.407 105.927 C 205.435 105.879 205.474 105.839 205.522 105.811 C 205.570 105.783 205.625 105.769 205.680 105.769 C 205.736 105.769 205.790 105.783 205.838 105.811 C 205.886 105.839 205.926 105.879 205.953 105.927 C 205.981 105.975 205.996 106.029 205.996 106.084 C 205.996 106.210 206.029 106.333 206.092 106.442 C 206.154 106.551 206.245 106.641 206.354 106.704 C 206.462 106.767 206.586 106.800 206.711 106.800 C 206.837 106.800 206.960 106.767 207.069 106.704 C 207.178 106.641 207.268 106.551 207.331 106.442 C 207.394 106.333 207.427 106.210 207.427 106.084 C 207.427 106.029 207.442 105.975 207.469 105.927 C 207.497 105.879 207.537 105.839 207.585 105.811 C 207.633 105.783 207.687 105.769 207.743 105.769 C 207.798 105.769 207.852 105.783 207.900 105.811 C 207.948 105.839 207.988 105.879 208.016 105.927 C 208.044 105.975 208.058 106.029 208.058 106.084 C 208.058 106.210 208.091 106.333 208.154 106.442 C 208.217 106.551 208.307 106.641 208.416 106.704 C 208.525 106.767 208.648 106.800 208.774 106.800 C 208.900 106.800 209.023 106.767 209.132 106.704 C 209.240 106.641 209.331 106.551 209.394 106.442 C 209.456 106.333 209.490 106.210 209.490 106.084 C 209.490 106.029 209.504 105.975 209.532 105.927 C 209.560 105.879 209.599 105.839 209.647 105.811 C 209.695 105.783 209.750 105.769 209.805 105.769 C 209.861 105.769 209.915 105.783 209.963 105.811 C 210.011 105.839 210.051 105.879 210.078 105.927 C 210.106 105.975 210.121 106.029 210.121 106.084 C 210.121 106.210 210.154 106.333 210.217 106.442 C 210.279 106.551 210.370 106.641 210.479 106.704 C 210.587 106.767 210.711 106.800 210.836 106.800 C 210.962 106.800 211.085 106.767 211.194 106.704 C 211.303 106.641 211.393 106.551 211.456 106.442 C 211.519 106.333 211.552 106.210 211.552 106.084 C 211.552 106.029 211.567 105.975 211.594 105.927 C 211.622 105.879 211.662 105.839 211.710 105.811 C 211.758 105.783 211.812 105.769 211.868 105.769 C 211.923 105.769 211.977 105.783 212.025 105.811 C 212.073 105.839 212.113 105.879 212.141 105.927 C 212.169 105.975 212.183 106.029 212.183 106.084 C 212.183 106.210 212.216 106.333 212.279 106.442 C 212.342 106.551 212.432 106.641 212.541 106.704 C 212.650 106.767 212.773 106.800 212.899 106.800 C 213.044 106.800 213.186 106.762 213.311 106.689 C 213.437 106.617 213.541 106.513 213.613 106.388 C 213.686 106.262 213.724 106.120 213.724 105.975 V 68.975 C 213.724 68.830 213.686 68.688 213.613 68.563 C 213.541 68.437 213.437 68.333 213.311 68.261 C 213.186 68.188 213.044 68.150 212.899 68.150 C 212.773 68.150 212.650 68.183 212.541 68.246 C 212.432 68.309 212.342 68.399 212.279 68.508 C 212.216 68.617 212.183 68.740 212.183 68.866 C 212.183 68.921 212.169 68.975 212.141 69.023 C 212.113 69.071 212.073 69.111 212.025 69.139 C 211.977 69.167 211.923 69.181 211.868 69.181 C 211.812 69.181 211.758 69.167 211.710 69.139 C 211.662 69.111 211.622 69.071 211.594 69.023 C 211.567 68.975 211.552 68.921 211.552 68.866 C 211.552 68.740 211.519 68.617 211.456 68.508 C 211.393 68.399 211.303 68.309 211.194 68.246 C 211.085 68.183 210.962 68.150 210.836 68.150 C 210.711 68.150 210.587 68.183 210.479 68.246 C 210.370 68.309 210.279 68.399 210.217 68.508 C 210.154 68.617 210.121 68.740 210.121 68.866 C 210.121 68.921 210.106 68.975 210.078 69.023 C 210.051 69.071 210.011 69.111 209.963 69.139 C 209.915 69.167 209.861 69.181 209.805 69.181 C 209.750 69.181 209.695 69.167 209.647 69.139 C 209.599 69.111 209.560 69.071 209.532 69.023 C 209.504 68.975 209.490 68.921 209.490 68.866 C 209.490 68.740 209.456 68.617 209.394 68.508 C 209.331 68.399 209.240 68.309 209.132 68.246 C 209.023 68.183 208.900 68.150 208.774 68.150 C 208.648 68.150 208.525 68.183 208.416 68.246 C 208.307 68.309 208.217 68.399 208.154 68.508 C 208.091 68.617 208.058 68.740 208.058 68.866 C 208.058 68.921 208.044 68.975 208.016 69.023 C 207.988 69.071 207.948 69.111 207.900 69.139 C 207.852 69.167 207.798 69.181 207.743 69.181 C 207.687 69.181 207.633 69.167 207.585 69.139 C 207.537 69.111 207.497 69.071 207.469 69.023 C 207.442 68.975 207.427 68.921 207.427 68.866 C 207.427 68.740 207.394 68.617 207.331 68.508 C 207.268 68.399 207.178 68.309 207.069 68.246 C 206.960 68.183 206.837 68.150 206.711 68.150 C 206.586 68.150 206.462 68.183 206.354 68.246 C 206.245 68.309 206.154 68.399 206.092 68.508 C 206.029 68.617 205.996 68.740 205.996 68.866 C 205.996 68.921 205.981 68.975 205.953 69.023 C 205.926 69.071 205.886 69.111 205.838 69.139 C 205.790 69.167 205.736 69.181 205.680 69.181 C 205.625 69.181 205.570 69.167 205.522 69.139 C 205.474 69.111 205.435 69.071 205.407 69.023 C 205.379 68.975 205.365 68.921 205.365 68.866 C 205.365 68.740 205.331 68.617 205.269 68.508 C 205.206 68.399 205.115 68.309 205.007 68.246 C 204.898 68.183 204.775 68.150 204.649 68.150 C 204.504 68.150 204.362 68.188 204.236 68.261 C 204.111 68.333 204.007 68.437 203.934 68.562 C 203.862 68.688 203.824 68.830 203.824 68.975 V 71.525 C 203.824 71.725 204.024 71.525 203.824 71.525 H 193.724 C 193.524 71.525 193.724 71.725 193.724 71.525 V 68.975 C 193.724 68.865 193.634 68.775 193.524 68.775 H 181.743 H 142.743 H 130.962 H 123.962 C 123.851 68.775 123.762 68.865 123.762 68.975 V 71.275 C 123.762 71.475 123.962 71.275 123.762 71.275 H 119.162 C 118.962 71.275 119.162 71.475 119.162 71.275 V 68.975 C 119.162 68.865 119.072 68.775 118.962 68.775 H 113.962 C 113.851 68.775 113.762 68.865 113.762 68.975 V 71.275 C 113.762 71.475 113.962 71.275 113.762 71.275 H 109.162 C 108.962 71.275 109.162 71.475 109.162 71.275 V 68.975 C 109.162 68.865 109.072 68.775 108.962 68.775 H 103.962 C 103.851 68.775 103.762 68.865 103.762 68.975 V 71.275 C 103.762 71.475 103.962 71.275 103.762 71.275 H 99.162 C 98.962 71.275 99.162 71.475 99.162 71.275 V 68.975 C 99.162 68.865 99.072 68.775 98.962 68.775 H 91.962 H 80.181 H 73.181 C 73.071 68.775 72.981 68.865 72.981 68.975 V 71.275 C 72.981 71.475 73.181 71.275 72.981 71.275 H 68.381 C 68.181 71.275 68.381 71.475 68.381 71.275 V 68.975 C 68.381 68.865 68.291 68.775 68.181 68.775 H 63.181 C 63.071 68.775 62.981 68.865 62.981 68.975 V 71.275 C 62.981 71.475 63.181 71.275 62.981 71.275 H 58.381 C 58.181 71.275 58.381 71.475 58.381 71.275 V 68.975 C 58.381 68.865 58.291 68.775 58.181 68.775 H 53.181 C 53.071 68.775 52.981 68.865 52.981 68.975 V 71.275 C 52.981 71.475 53.181 71.275 52.981 71.275 H 48.381 C 48.181 71.275 48.381 71.475 48.381 71.275 V 68.975 C 48.381 68.865 48.291 68.775 48.181 68.775 H 41.181 H 29.400 H 22.400 C 22.290 68.775 22.200 68.865 22.200 68.975 V 71.275 C 22.200 71.475 22.400 71.275 22.200 71.275 H 17.600 C 17.400 71.275 17.600 71.475 17.600 71.275 V 68.975 C 17.600 68.865 17.510 68.775 17.400 68.775 H 10.400 C 10.290 68.775 10.200 68.865 10.200 68.975 V 105.975 C 10.200 106.085 10.290 106.175 10.400 106.175 Z" stroke="rgb(0,0,0)" stroke-width="0.40" />
  <path d="M 30.915 106.175 V 88.725 M 30.915 86.225 V 68.775 M 32.165 71.275 V 103.675 M 33.415 106.175 V 88.725 M 33.415 86.225 V 68.775 M 34.665 71.275 V 103.675 M 35.915 106.175 V 88.725 M 35.915 86.225 V 68.775 M 37.165 71.275 V 103.675 M 38.415 106.175 V 88.725 M 38.415 86.225 V 68.775 M 39.665 71.275 V 103.675" stroke="rgb(0,0,0)" stroke-width="0.40" />
  <path d="M 81.696 106.175 V 88.725 M 81.696 86.225 V 68.775 M 82.946 71.275 V 103.675 M 84.196 106.175 V 88.725 M 84.196 86.225 V 68.775 M 85.446 71.275 V 103.675 M 86.696 106.175 V 88.725 M 86.696 86.225 V 68.775 M 87.946 71.275 V 103.675 M 89.196 106.175 V 88.725 M 89.196 86.225 V 68.775 M 90.446 71.275 V 103.675" stroke="rgb(0,0,0)" stroke-width="0.40" />
  <path d="M 132.477 106.175 V 88.725 M 132.477 86.225 V 68.775 M 133.727 71.275 V 103.675 M 134.977 106.175 V 88.725 M 134.977 86.225 V 68.775 M 136.227 71.275 V 103.675 M 137.477 106.175 V 88.725 M 137.477 86.225 V 68.775 M 138.727 71.275 V 103.675 M 139.977 106.175 V 88.725 M 139.977 86.225 V 68.775 M 141.227 71.275 V 103.675" stroke="rgb(0,0,0)" stroke-width="0.40" />
  <path d="M 183.258 106.175 V 88.725 M 183.258 86.225 V 68.775 M 184.508 71.275 V 103.675 M 185.758 106.175 V 88.725 M 185.758 86.225 V 68.775 M 187.008 71.275 V 103.675 M 188.258 106.175 V 88.725 M 188.258 86.225 V 68.775 M 189.508 71.275 V 103.675 M 190.758 106.175 V 88.725 M 190.758 86.225 V 68.775 M 192.008 71.275 V 103.675" stroke="rgb(0,0,0)" stroke-width="0.40" />
</g>
<g id="p-2" style="fill:none;stroke-linecap:round;stroke-linejoin:round;">
  <path d="M 20.400 64.400 H 27.200 C 27.400 64.400 27.200 64.200 27.200 64.400 V 66.700 C 27.200 66.810 27.290 66.900 27.400 66.900 H 32.400 C 32.510 66.900 32.600 66.810 32.600 66.700 V 64.400 C 32.600 64.200 32.400 64.400 32.600 64.400 H 37.200 C 37.400 64.400 37.200 64.200 37.200 64.400 V 66.700 C 37.200 66.810 37.290 66.900 37.400 66.900 H 42.400 C 42.510 66.900 42.600 66.810 42.600 66.700 V 64.400 C 42.600 64.200 42.400 64.400 42.600 64.400 H 47.200 C 47.400 64.400 47.200 64.200 47.200 64.400 V 66.700 C 47.200 66.810 47.290 66.900 47.400 66.900 H 52.400 C 52.510 66.900 52.600 66.810 52.600 66.700 V 64.400 C 52.600 64.200 52.400 64.400 52.600 64.400 H 59.400 C 60.752 64.400 62.079 64.044 63.250 63.368 C 64.421 62.693 65.393 61.721 66.068 60.550 C 66.744 59.379 67.100 58.052 67.100 56.700 V 49.900 C 67.100 49.700 66.900 49.900 67.100 49.900 H 69.400 C 69.510 49.900 69.600 49.810 69.600 49.700 V 44.700 C 69.600 44.590 69.510 44.500 69.400 44.500 H 67.100 C 66.900 44.500 67.100 44.700 67.100 44.500 V 39.900 C 67.100 39.700 66.900 39.900 67.100 39.900 H 69.400 C 69.510 39.900 69.600 39.810 69.600 39.700 V 34.700 C 69.600 34.590 69.510 34.500 69.400 34.500 H 67.100 C 66.900 34.500 67.100 34.700 67.100 34.500 V 29.900 C 67.100 29.700 66.900 29.900 67.100 29.900 H 69.400 C 69.510 29.900 69.600 29.810 69.600 29.700 V 24.700 C 69.600 24.590 69.510 24.500 69.400 24.500 H 67.100 C 66.900 24.500 67.100 24.700 67.100 24.500 V 17.700 C 67.100 16.348 66.744 15.021 66.068 13.850 C 65.393 12.679 64.421 11.707 63.250 11.032 C 62.079 10.356 60.752 10.000 59.400 10.000 H 20.400 C 19.048 10.000 17.721 10.356 16.550 11.032 C 15.379 11.707 14.407 12.679 13.732 13.850 C 13.056 15.021 12.700 16.348 12.700 17.700 C 12.700 17.590 12.790 17.500 12.900 17.500 H 10.400 C 10.290 17.500 10.200 17.590 10.200 17.700 V 27.700 C 10.200 27.810 10.290 27.900 10.400 27.900 H 12.700 C 12.900 27.900 12.700 27.700 12.700 27.900 V 37.700 V 44.500 C 12.700 44.700 12.900 44.500 12.700 44.500 H 10.400 C 10.290 44.500 10.200 44.590 10.200 44.700 V 49.700 C 10.200 49.810 10.290 49.900 10.400 49.900 H 12.700 C 12.900 49.900 12.700 49.700 12.700 49.900 V 56.700 C 12.700 58.052 13.056 59.379 13.732 60.550 C 14.407 61.721 15.379 62.693 16.550 63.368 C 17.721 64.044 19.048 64.400 20.400 64.400 Z" stroke="rgb(0,0,0)" stroke-width="0.40" />
</g>
<g id="p-3" style="fill:none;stroke-linecap:round;stroke-linejoin:round;">
  <path d="M 120.050 64.400 H 113.250 C 113.050 64.400 113.250 64.200 113.250 64.400 V 66.700 C 113.250 66.810 113.160 66.900 113.050 66.900 H 108.050 C 107.940 66.900 107.850 66.810 107.850 66.700 V 64.400 C 107.850 64.200 108.050 64.400 107.850 64.400 H 103.250 C 103.050 64.400 103.250 64.200 103.250 64.400 V 66.700 C 103.250 66.810 103.160 66.900 103.050 66.900 H 98.050 C 97.940 66.900 97.850 66.810 97.850 66.700 V 64.400 C 97.850 64.200 98.050 64.400 97.850 64.400 H 93.250 C 93.050 64.400 93.250 64.200 93.250 64.400 V 66.700 C 93.250 66.810 93.160 66.900 93.050 66.900 H 88.050 C 87.940 66.900 87.850 66.810 87.850 66.700 V 64.400 C 87.850 64.200 88.050 64.400 87.850 64.400 H 81.050 C 79.698 64.400 78.371 64.044 77.200 63.368 C 76.029 62.693 75.057 61.721 74.382 60.550 C 73.706 59.379 73.350 58.052 73.350 56.700 V 49.900 C 73.350 49.700 73.550 49.900 73.350 49.900 H 71.050 C 70.940 49.900 70.850 49.810 70.850 49.700 V 44.700 C 70.850 44.590 70.940 44.500 71.050 44.500 H 73.350 C 73.550 44.500 73.350 44.700 73.350 44.500 V 39.900 C 73.350 39.700 73.550 39.900 73.350 39.900 H 71.050 C 70.940 39.900 70.850 39.810 70.850 39.700 V 34.700 C 70.850 34.590 70.940 34.500 71.050 34.500 H 73.350 C 73.550 34.500 73.350 34.700 73.350 34.500 V 29.900 C 73.350 29.700 73.550 29.900 73.350 29.900 H 71.050 C 70.940 29.900 70.850 29.810 70.850 29.700 V 24.700 C 70.850 24.590 70.940 24.500 71.050 24.500 H 73.350 C 73.550 24.500 73.350 24.700 73.350 24.500 V 17.700 C 73.350 16.348 73.706 15.021 74.382 13.850 C 75.057 12.679 76.029 11.707 77.200 11.032 C 78.371 10.356 79.698 10.000 81.050 10.000 H 120.050 C 121.402 10.000 122.729 10.356 123.900 11.032 C 125.071 11.707 126.043 12.679 126.718 13.850 C 127.394 15.021 127.750 16.348 127.750 17.700 C 127.750 17.590 127.660 17.500 127.550 17.500 H 130.050 C 130.160 17.500 130.250 17.590 130.250 17.700 V 27.700 C 130.250 27.810 130.160 27.900 130.050 27.900 H 127.750 C 127.550 27.900 127.750 27.700 127.750 27.900 V 37.700 V 44.500 C 127.750 44.700 127.550 44.500 127.750 44.500 H 130.050 C 130.160 44.500 130.250 44.590 130.250 44.700 V 49.700 C 130.250 49.810 130.160 49.900 130.050 49.900 H 127.750 C 127.550 49.900 127.750 49.700 127.750 49.900 V 56.700 C 127.750 58.052 127.394 59.379 126.718 60.550 C 126.043 61.721 125.071 62.693 123.900 63.368 C 122.729 64.044 121.402 64.400 120.050 64.400 Z" stroke="rgb(0,0,0)" stroke-width="0.40" />
</g>
</svg>