999
dxfrw 0.6.3
  0
SECTION
  2
HEADER
  9
$ACADVER
  1
AC1021
  9
$DWGCODEPAGE
  3
ANSI_1252
  9
$INSBASE
 10
0
 20
0
 30
0
  9
$EXTMIN
 10
-101
 20
-125.3
 30
0
  9
$EXTMAX
 10
217.2
 20
65.3
 30
0
  9
$LIMMIN
 10
0
 20
0
  9
$LIMMAX
 10
420
 20
297
  9
$ORTHOMODE
 70
    0
  9
$REGENMODE
 70
    1
  9
$FILLMODE
 70
    1
  9
$QTEXTMODE
 70
    0
  9
$MIRRTEXT
 70
    0
  9
$LTSCALE
 40
1
  9
$ATTMODE
 70
    0
  9
$TEXTSIZE
 40
2.5
  9
$TRACEWID
 40
15.68
  9
$TEXTSTYLE
  7
STANDARD
  9
$CLAYER
  8
0
  9
$CELTYPE
  6
BYLAYER
  9
$CECOLOR
 62
  256
  9
$CELTSCALE
 40
1
  9
$DISPSILH
 70
    0
  9
$DIMSCALE
 40
2.5
  9
$DIMASZ
 40
2.5
  9
$DIMEXO
 40
0.625
  9
$DIMDLI
 40
3.75
  9
$DIMRND
 40
0
  9
$DIMDLE
 40
0
  9
$DIMEXE
 40
1.25
  9
$DIMTP
 40
0
  9
$DIMTM
 40
0
  9
$DIMTXT
 40
2.5
  9
$DIMCEN
 40
2.5
  9
$DIMTSZ
 40
0
  9
$DIMTOL
 70
    0
  9
$DIMLIM
 70
    0
  9
$DIMTIH
 70
    0
  9
$DIMTOH
 70
    0
  9
$DIMSE1
 70
    0
  9
$DIMSE2
 70
    0
  9
$DIMTAD
 70
    1
  9
$DIMZIN
 70
    8
  9
$DIMBLK
  1

  9
$DIMASO
 70
    1
  9
$DIMSHO
 70
    1
  9
$DIMPOST
  1

  9
$DIMAPOST
  1

  9
$DIMALT
 70
    0
  9
$DIMALTD
 70
    3
  9
$DIMALTF
 40
0.03937
  9
$DIMLFAC
 40
1
  9
$DIMTOFL
 70
    1
  9
$DIMTVP
 40
0
  9
$DIMTIX
 70
    0
  9
$DIMSOXD
 70
    0
  9
$DIMSAH
 70
    0
  9
$DIMBLK1
  1

  9
$DIMBLK2
  1

  9
$DIMSTYLE
  2
STANDARD
  9
$DIMCLRD
 70
    0
  9
$DIMCLRE
 70
    0
  9
$DIMCLRT
 70
    0
  9
$DIMTFAC
 40
1
  9
$DIMGAP
 40
0.625
  9
$DIMJUST
 70
    0
  9
$DIMSD1
 70
    0
  9
$DIMSD2
 70
    0
  9
$DIMTOLJ
 70
    0
  9
$DIMTZIN
 70
    8
  9
$DIMALTZ
 70
    0
  9
$DIMALTTZ
 70
    0
  9
$DIMUPT
 70
    0
  9
$DIMDEC
 70
    2
  9
$DIMTDEC
 70
    2
  9
$DIMALTU
 70
    2
  9
$DIMALTTD
 70
    3
  9
$DIMTXSTY
  7
STANDARD
  9
$DIMAUNIT
 70
    0
  9
$DIMADEC
 70
    0
  9
$DIMALTRND
 40
0
  9
$DIMAZIN
 70
    0
  9
$DIMDSEP
 70
   44
  9
$DIMATFIT
 70
    3
  9
$DIMFRAC
 70
    0
  9
$DIMLDRBLK
  1
STANDARD
  9
$DIMLUNIT
 70
    2
  9
$DIMLWD
 70
   -2
  9
$DIMLWE
 70
   -2
  9
$DIMTMOVE
 70
    0
  9
$DIMFXL
 40
1
  9
$DIMFXLON
 70
    0
  9
$DIMJOGANG
 40
0.7854
  9
$DIMTFILL
 70
    0
  9
$DIMTFILLCLR
 70
    0
  9
$DIMARCSYM
 70
    0
  9
$DIMLTYPE
  6

  9
$DIMLTEX1
  6

  9
$DIMLTEX2
  6

  9
$LUNITS
 70
    2
  9
$LUPREC
 70
    4
  9
$SKETCHINC
 40
1
  9
$FILLETRAD
 40
0
  9
$AUNITS
 70
    0
  9
$AUPREC
 70
    2
  9
$MENU
  1
.
  9
$ELEVATION
 40
0
  9
$PELEVATION
 40
0
  9
$THICKNESS
 40
0
  9
$LIMCHECK
 70
    0
  9
$CHAMFERA
 40
0
  9
$CHAMFERB
 40
0
  9
$CHAMFERC
 40
0
  9
$CHAMFERD
 40
0
  9
$SKPOLY
 70
    0
  9
$USRTIMER
 70
    1
  9
$ANGBASE
 50
0
  9
$ANGDIR
 70
    0
  9
$PDMODE
 70
   34
  9
$PDSIZE
 40
0
  9
$PLINEWID
 40
0
  9
$SPLFRAME
 70
    0
  9
$SPLINETYPE
 70
    2
  9
$SPLINESEGS
 70
    8
  9
$HANDSEED
  5
20000
  9
$SURFTAB1
 70
    6
  9
$SURFTAB2
 70
    6
  9
$SURFTYPE
 70
    6
  9
$SURFU
 70
    6
  9
$SURFV
 70
    6
  9
$UCSBASE
  2

  9
$UCSNAME
  2

  9
$UCSORG
 10
0
 20
0
 30
0
  9
$UCSXDIR
 10
1
 20
0
 30
0
  9
$UCSYDIR
 10
0
 20
1
 30
0
  9
$UCSORTHOREF
  2

  9
$UCSORTHOVIEW
 70
    0
  9
$UCSORGTOP
 10
0
 20
0
 30
0
  9
$UCSORGBOTTOM
 10
0
 20
0
 30
0
  9
$UCSORGLEFT
 10
0
 20
0
 30
0
  9
$UCSORGRIGHT
 10
0
 20
0
 30
0
  9
$UCSORGFRONT
 10
0
 20
0
 30
0
  9
$UCSORGBACK
 10
0
 20
0
 30
0
  9
$PUCSBASE
  2

  9
$PUCSNAME
  2

  9
$PUCSORG
 10
0
 20
0
 30
0
  9
$PUCSXDIR
 10
1
 20
0
 30
0
  9
$PUCSYDIR
 10
0
 20
1
 30
0
  9
$PUCSORTHOREF
  2

  9
$PUCSORTHOVIEW
 70
    0
  9
$PUCSORGTOP
 10
0
 20
0
 30
0
  9
$PUCSORGBOTTOM
 10
0
 20
0
 30
0
  9
$PUCSORGLEFT
 10
0
 20
0
 30
0
  9
$PUCSORGRIGHT
 10
0
 20
0
 30
0
  9
$PUCSORGFRONT
 10
0
 20
0
 30
0
  9
$PUCSORGBACK
 10
0
 20
0
 30
0
  9
$USERI1
 70
    0
  9
$USERI2
 70
    0
  9
$USERI3
 70
    0
  9
$USERI4
 70
    0
  9
$USERI5
 70
    0
  9
$USERR1
 40
0
  9
$USERR2
 40
0
  9
$USERR3
 40
0
  9
$USERR4
 40
0
  9
$USERR5
 40
0
  9
$WORLDVIEW
 70
    1
  9
$SHADEDGE
 70
    3
  9
$SHADEDIF
 70
   70
  9
$TILEMODE
 70
    1
  9
$MAXACTVP
 70
   64
  9
$PINSBASE
 10
0
 20
0
 30
0
  9
$PLIMCHECK
 70
    0
  9
$PEXTMIN
 10
0
 20
0
 30
0
  9
$PEXTMAX
 10
50
 20
50
 30
50
  9
$GRIDMODE
 70
    0
  9
$SNAPSTYLE
 70
    0
  9
$PLIMMIN
 10
0
 20
0
  9
$PLIMMAX
 10
120
 20
90
  9
$UNITMODE
 70
    0
  9
$VISRETAIN
 70
    1
  9
$PLINEGEN
 70
    0
  9
$PSLTSCALE
 70
    1
  9
$TREEDEPTH
 70
 3020
  9
$CMLSTYLE
  2
STANDARD
  9
$CMLJUST
 70
    0
  9
$CMLSCALE
 40
20
  9
$PROXYGRAPHICS
 70
    1
  9
$MEASUREMENT
 70
    1
  9
$CELWEIGHT
370
   -1
  9
$ENDCAPS
280
    0
  9
$JOINSTYLE
280
    0
  9
$LWDISPLAY
290
    0
  9
$INSUNITS
 70
    4
  9
$HYPERLINKBASE
  1

  9
$STYLESHEET
  1

  9
$XEDIT
290
    1
  9
$CEPSNTYPE
380
    0
  9
$PSTYLEMODE
290
    1
  9
$EXTNAMES
290
    1
  9
$PSVPSCALE
 40
1
  9
$OLESTARTUP
290
    0
  9
$SORTENTS
280
  127
  9
$INDEXCTL
280
    0
  9
$HIDETEXT
280
    1
  9
$XCLIPFRAME
290
    0
  9
$HALOGAP
280
    0
  9
$OBSCOLOR
 70
  257
  9
$OBSLTYPE
280
    0
  9
$INTERSECTIONDISPLAY
280
    0
  9
$INTERSECTIONCOLOR
 70
  257
  9
$DIMASSOC
280
    1
  9
$PROJECTNAME
  1

  9
$CAMERADISPLAY
290
    0
  9
$LENSLENGTH
 40
50
  9
$CAMERAHEIGHT
 40
0
  9
$STEPSPERSEC
 40
2
  9
$STEPSIZE
 40
50
  9
$3DDWFPREC
 40
2
  9
$PSOLWIDTH
 40
5
  9
$PSOLHEIGHT
 40
80
  9
$LOFTANG1
 40
1.570796326794897
  9
$LOFTANG2
 40
1.570796326794897
  9
$LOFTMAG1
 40
0
  9
$LOFTMAG2
 40
0
  9
$LOFTPARAM
 70
    7
  9
$LOFTNORMALS
280
    1
  9
$LATITUDE
 40
1
  9
$LONGITUDE
 40
1
  9
$NORTHDIRECTION
 40
0
  9
$TIMEZONE
 70
-8000
  9
$LIGHTGLYPHDISPLAY
280
    1
  9
$TILEMODELIGHTSYNCH
280
    1
  9
$SOLIDHIST
280
    1
  9
$SHOWHIST
280
    1
  9
$DWFFRAME
280
    2
  9
$DGNFRAME
280
    0
  9
$REALWORLDSCALE
290
    1
  9
$INTERFERECOLOR
 62
    1
  9
$CSHADOW
280
    0
  9
$SHADOWPLANELOCATION
 40
0
  0
ENDSEC
  0
SECTION
  2
CLASSES
  0
ENDSEC
  0
SECTION
  2
TABLES
  0
TABLE
  2
VPORT
  5
8
330
0
100
AcDbSymbolTable
 70
    1
  0
VPORT
  5
31
330
2
100
AcDbSymbolTableRecord
100
AcDbViewportTableRecord
  2
*ACTIVE
 70
    0
 10
0
 20
0
 11
1
 21
1
 12
123.8614802613957
 22
59.78380780616701
 13
0
 23
0
 14
10
 24
10
 15
10
 25
10
 16
0
 26
0
 36
1
 17
0
 27
0
 37
0
 40
253.0077170139444
 41
1.972584856396867
 42
50
 43
0
 44
0
 50
0
 51
0
 71
    0
 72
  100
 73
    1
 74
    3
 75
    0
 76
    0
 77
    0
 78
    0
281
    0
 65
    1
110
0
120
0
130
0
111
1
121
0
131
0
112
0
122
1
132
0
 79
    0
146
0
348
10020
 60
    7
 61
    5
292
1
282
    1
141
0
142
0
 63
  250
421
3358443
  0
ENDTAB
  0
TABLE
  2
LTYPE
  5
5
330
0
100
AcDbSymbolTable
 70
    4
  0
LTYPE
  5
14
330
5
100
AcDbSymbolTableRecord
100
AcDbLinetypeTableRecord
  2
ByBlock
 70
    0
  3

 72
   65
 73
    0
 40
0
  0
LTYPE
  5
15
330
5
100
AcDbSymbolTableRecord
100
AcDbLinetypeTableRecord
  2
ByLayer
 70
    0
  3

 72
   65
 73
    0
 40
0
  0
LTYPE
  5
16
330
5
100
AcDbSymbolTableRecord
100
AcDbLinetypeTableRecord
  2
Continuous
 70
    0
  3
Solid line
 72
   65
 73
    0
 40
0
  0
LTYPE
  5
32
330
5
100
AcDbSymbolTableRecord
100
AcDbLinetypeTableRecord
  2
DOT
 70
    0
  3
Dot . . . . . . . . . . . . . . . . . . . . . .
 72
   65
 73
    2
 40
6.35
 49
0
 74
    0
 49
-6.35
 74
    0
  0
LTYPE
  5
33
330
5
100
AcDbSymbolTableRecord
100
AcDbLinetypeTableRecord
  2
DOTTINY
 70
    0
  3
Dot (.15x) .....................................
 72
   65
 73
    2
 40
0.9525
 49
0
 74
    0
 49
-0.9525
 74
    0
  0
LTYPE
  5
34
330
5
100
AcDbSymbolTableRecord
100
AcDbLinetypeTableRecord
  2
DOT2
 70
    0
  3
Dot (.5x) .....................................
 72
   65
 73
    2
 40
3.175
 49
0
 74
    0
 49
-3.175
 74
    0
  0
LTYPE
  5
35
330
5
100
AcDbSymbolTableRecord
100
AcDbLinetypeTableRecord
  2
DOTX2
 70
    0
  3
Dot (2x) .  .  .  .  .  .  .  .  .  .  .  .  .
 72
   65
 73
    2
 40
12.7
 49
0
 74
    0
 49
-12.7
 74
    0
  0
LTYPE
  5
36
330
5
100
AcDbSymbolTableRecord
100
AcDbLinetypeTableRecord
  2
DASHED
 70
    0
  3
Dashed _ _ _ _ _ _ _ _ _ _ _ _ _ _ _ _ _
 72
   65
 73
    2
 40
19.05
 49
12.7
 74
    0
 49
-6.35
 74
    0
  0
LTYPE
  5
37
330
5
100
AcDbSymbolTableRecord
100
AcDbLinetypeTableRecord
  2
DASHEDTINY
 70
    0
  3
Dashed (.15x) _ _ _ _ _ _ _ _ _ _ _ _ _ _ _ _ _
 72
   65
 73
    2
 40
2.8575
 49
1.905
 74
    0
 49
-0.9525
 74
    0
  0
LTYPE
  5
38
330
5
100
AcDbSymbolTableRecord
100
AcDbLinetypeTableRecord
  2
DASHED2
 70
    0
  3
Dashed (.5x) _ _ _ _ _ _ _ _ _ _ _ _ _ _ _ _ _
 72
   65
 73
    2
 40
9.524999999999999
 49
6.35
 74
    0
 49
-3.175
 74
    0
  0
LTYPE
  5
39
330
5
100
AcDbSymbolTableRecord
100
AcDbLinetypeTableRecord
  2
DASHEDX2
 70
    0
  3
Dashed (2x) ____  ____  ____  ____  ____  ___
 72
   65
 73
    2
 40
38.09999999999999
 49
25.4
 74
    0
 49
-12.7
 74
    0
  0
LTYPE
  5
3A
330
5
100
AcDbSymbolTableRecord
100
AcDbLinetypeTableRecord
  2
DASHDOT
 70
    0
  3
Dash dot __ . __ . __ . __ . __ . __ . __ . __
 72
   65
 73
    4
 40
25.4
 49
12.7
 74
    0
 49
-6.35
 74
    0
 49
0
 74
    0
 49
-6.35
 74
    0
  0
LTYPE
  5
3B
330
5
100
AcDbSymbolTableRecord
100
AcDbLinetypeTableRecord
  2
DASHDOTTINY
 70
    0
  3
Dash dot (.15x) _._._._._._._._._._._._._._._.
 72
   65
 73
    4
 40
3.81
 49
1.905
 74
    0
 49
-0.9525
 74
    0
 49
0
 74
    0
 49
-0.9525
 74
    0
  0
LTYPE
  5
3C
330
5
100
AcDbSymbolTableRecord
100
AcDbLinetypeTableRecord
  2
DASHDOT2
 70
    0
  3
Dash dot (.5x) _._._._._._._._._._._._._._._.
 72
   65
 73
    4
 40
12.7
 49
6.35
 74
    0
 49
-3.175
 74
    0
 49
0
 74
    0
 49
-3.175
 74
    0
  0
LTYPE
  5
3D
330
5
100
AcDbSymbolTableRecord
100
AcDbLinetypeTableRecord
  2
DASHDOTX2
 70
    0
  3
Dash dot (2x) ____  .  ____  .  ____  .  ___
 72
   65
 73
    4
 40
50.8
 49
25.4
 74
    0
 49
-12.7
 74
    0
 49
0
 74
    0
 49
-12.7
 74
    0
  0
LTYPE
  5
3E
330
5
100
AcDbSymbolTableRecord
100
AcDbLinetypeTableRecord
  2
DIVIDE
 70
    0
  3
Divide ____ . . ____ . . ____ . . ____ . . ____
 72
   65
 73
    6
 40
31.75
 49
12.7
 74
    0
 49
-6.35
 74
    0
 49
0
 74
    0
 49
-6.35
 74
    0
 49
0
 74
    0
 49
-6.35
 74
    0
  0
LTYPE
  5
3F
330
5
100
AcDbSymbolTableRecord
100
AcDbLinetypeTableRecord
  2
DIVIDETINY
 70
    0
  3
Divide (.15x) __..__..__..__..__..__..__..__.._
 72
   65
 73
    6
 40
4.7625
 49
1.905
 74
    0
 49
-0.9525
 74
    0
 49
0
 74
    0
 49
-0.9525
 74
    0
 49
0
 74
    0
 49
-0.9525
 74
    0
  0
LTYPE
  5
40
330
5
100
AcDbSymbolTableRecord
100
AcDbLinetypeTableRecord
  2
DIVIDE2
 70
    0
  3
Divide (.5x) __..__..__..__..__..__..__..__.._
 72
   65
 73
    6
 40
15.875
 49
6.35
 74
    0
 49
-3.175
 74
    0
 49
0
 74
    0
 49
-3.175
 74
    0
 49
0
 74
    0
 49
-3.175
 74
    0
  0
LTYPE
  5
41
330
5
100
AcDbSymbolTableRecord
100
AcDbLinetypeTableRecord
  2
DIVIDEX2
 70
    0
  3
Divide (2x) ________  .  .  ________  .  .  _
 72
   65
 73
    6
 40
63.5
 49
25.4
 74
    0
 49
-12.7
 74
    0
 49
0
 74
    0
 49
-12.7
 74
    0
 49
0
 74
    0
 49
-12.7
 74
    0
  0
LTYPE
  5
42
330
5
100
AcDbSymbolTableRecord
100
AcDbLinetypeTableRecord
  2
BORDER
 70
    0
  3
Border __ __ . __ __ . __ __ . __ __ . __ __ .
 72
   65
 73
    6
 40
44.45
 49
12.7
 74
    0
 49
-6.35
 74
    0
 49
12.7
 74
    0
 49
-6.35
 74
    0
 49
0
 74
    0
 49
-6.35
 74
    0
  0
LTYPE
  5
43
330
5
100
AcDbSymbolTableRecord
100
AcDbLinetypeTableRecord
  2
BORDERTINY
 70
    0
  3
Border (.15x) __.__.__.__.__.__.__.__.__.__.__.
 72
   65
 73
    6
 40
6.6675
 49
1.905
 74
    0
 49
-0.9525
 74
    0
 49
1.905
 74
    0
 49
-0.9525
 74
    0
 49
0
 74
    0
 49
-0.9525
 74
    0
  0
LTYPE
  5
44
330
5
100
AcDbSymbolTableRecord
100
AcDbLinetypeTableRecord
  2
BORDER2
 70
    0
  3
Border (.5x) __.__.__.__.__.__.__.__.__.__.__.
 72
   65
 73
    6
 40
22.225
 49
6.35
 74
    0
 49
-3.175
 74
    0
 49
6.35
 74
    0
 49
-3.175
 74
    0
 49
0
 74
    0
 49
-3.175
 74
    0
  0
LTYPE
  5
45
330
5
100
AcDbSymbolTableRecord
100
AcDbLinetypeTableRecord
  2
BORDERX2
 70
    0
  3
Border (2x) ____  ____  .  ____  ____  .  ___
 72
   65
 73
    6
 40
88.89999999999999
 49
25.4
 74
    0
 49
-12.7
 74
    0
 49
25.4
 74
    0
 49
-12.7
 74
    0
 49
0
 74
    0
 49
-12.7
 74
    0
  0
LTYPE
  5
46
330
5
100
AcDbSymbolTableRecord
100
AcDbLinetypeTableRecord
  2
CENTER
 70
    0
  3
Center ____ _ ____ _ ____ _ ____ _ ____ _ ____
 72
   65
 73
    4
 40
50.8
 49
31.75
 74
    0
 49
-6.35
 74
    0
 49
6.35
 74
    0
 49
-6.35
 74
    0
  0
LTYPE
  5
47
330
5
100
AcDbSymbolTableRecord
100
AcDbLinetypeTableRecord
  2
CENTERTINY
 70
    0
  3
Center (.15x) ___ _ ___ _ ___ _ ___ _ ___ _ ___
 72
   65
 73
    4
 40
7.619999999999999
 49
4.7625
 74
    0
 49
-0.9525
 74
    0
 49
0.9525
 74
    0
 49
-0.9525
 74
    0
  0
LTYPE
  5
48
330
5
100
AcDbSymbolTableRecord
100
AcDbLinetypeTableRecord
  2
CENTER2
 70
    0
  3
Center (.5x) ___ _ ___ _ ___ _ ___ _ ___ _ ___
 72
   65
 73
    4
 40
28.575
 49
19.05
 74
    0
 49
-3.175
 74
    0
 49
3.175
 74
    0
 49
-3.175
 74
    0
  0
LTYPE
  5
49
330
5
100
AcDbSymbolTableRecord
100
AcDbLinetypeTableRecord
  2
CENTERX2
 70
    0
  3
Center (2x) ________  __  ________  __  _____
 72
   65
 73
    4
 40
101.6
 49
63.5
 74
    0
 49
-12.7
 74
    0
 49
12.7
 74
    0
 49
-12.7
 74
    0
  0
ENDTAB
  0
TABLE
  2
LAYER
  5
2
330
0
100
AcDbSymbolTable
 70
    1
  0
LAYER
  5
10
330
2
100
AcDbSymbolTableRecord
100
AcDbLayerTableRecord
  2
0
 70
    0
 62
    7
  6
CONTINUOUS
370
   -3
390
F
  0
LAYER
  5
4A
330
2
100
AcDbSymbolTableRecord
100
AcDbLayerTableRecord
  2
Sketch
 70
    0
 62
    7
  6
CONTINUOUS
370
   -3
390
F
  0
LAYER
  5
4B
330
2
100
AcDbSymbolTableRecord
100
AcDbLayerTableRecord
  2
none
 70
    0
 62
    7
  6
CONTINUOUS
370
   -3
390
F
  0
ENDTAB
  0
TABLE
  2
STYLE
  5
3
330
0
100
AcDbSymbolTable
 70
    3
  0
STYLE
  5
4C
330
2
100
AcDbSymbolTableRecord
100
AcDbTextStyleTableRecord
  2
Standard
 70
    0
 40
0
 41
1
 50
0
 71
    0
 42
1
  3
txt
  4

  0
ENDTAB
  0
TABLE
  2
VIEW
  5
6
330
0
100
AcDbSymbolTable
 70
    0
  0
ENDTAB
  0
TABLE
  2
UCS
  5
7
330
0
100
AcDbSymbolTable
 70
    0
  0
ENDTAB
  0
TABLE
  2
APPID
  5
9
330
0
100
AcDbSymbolTable
 70
    1
  0
APPID
  5
12
330
9
100
AcDbSymbolTableRecord
100
AcDbRegAppTableRecord
  2
ACAD
 70
    0
  0
APPID
  5
4D
330
9
100
AcDbSymbolTableRecord
100
AcDbRegAppTableRecord
  2
LibreCad
 70
    0
  0
ENDTAB
  0
TABLE
  2
DIMSTYLE
  5
A
330
0
100
AcDbSymbolTable
 70
    1
100
AcDbDimStyleTable
 71
    1
  0
DIMSTYLE
105
4E
330
A
100
AcDbSymbolTableRecord
100
AcDbDimStyleTableRecord
  2
Standard
 70
    0
 40
1
 41
2.5
 42
0.625
 43
0.38
 44
1.25
 45
0
 46
0
 47
0
 48
0
 49
1
140
2.5
141
0.09
142
2.5
143
25.4
144
1
145
0
146
1
147
0.625
148
0
 71
    0
 72
    0
 73
    0
 74
    1
 75
    0
 76
    0
 77
    0
 78
    1
 79
    0
170
    0
171
    2
172
    0
173
    0
174
    0
175
    0
176
    0
177
    0
178
    0
179
    0
271
    2
272
    4
273
    2
274
    2
275
    0
276
    0
277
    2
278
    0
279
    0
280
    0
281
    0
282
    0
283
    1
284
    0
285
    0
286
    0
288
    0
289
    3
340
STANDARD
341

371
   -2
372
   -2
  0
ENDTAB
  0
TABLE
  2
BLOCK_RECORD
  5
1
330
0
100
AcDbSymbolTable
 70
    2
  0
BLOCK_RECORD
  5
1F
330
1
100
AcDbSymbolTableRecord
100
AcDbBlockTableRecord
  2
*Model_Space
 70
    0
280
    1
281
    0
  0
BLOCK_RECORD
  5
1E
330
1
100
AcDbSymbolTableRecord
100
AcDbBlockTableRecord
  2
*Paper_Space
 70
    0
280
    1
281
    0
  0
ENDTAB
  0
ENDSEC
  0
SECTION
  2
BLOCKS
  0
BLOCK
  5
20
330
1F
100
AcDbEntity
  8
0
100
AcDbBlockBegin
  2
*Model_Space
 70
    0
 10
0
 20
0
 30
0
  3
*Model_Space
  1

  0
ENDBLK
  5
21
330
1F
100
AcDbEntity
  8
0
100
AcDbBlockEnd
  0
BLOCK
  5
1C
330
1B
100
AcDbEntity
  8
0
100
AcDbBlockBegin
  2
*Paper_Space
 70
    0
 10
0
 20
0
 30
0
  3
*Paper_Space
  1

  0
ENDBLK
  5
1D
330
1F
100
AcDbEntity
  8
0
100
AcDbBlockEnd
  0
ENDSEC
  0
SECTION
  2
ENTITIES
  0
LINE
  5
4F
100
AcDbEntity
  8
Sketch
  6
ByLayer
 62
  256
370
   -1
100
AcDbLine
 10
107
 20
-87.8
 11
107
 21
-37.6
  0
ARC
  5
50
100
AcDbEntity
  8
Sketch
  6
ByLayer
 62
  256
370
   -1
100
AcDbCircle
 10
109.5
 20
-37.6
 40
2.5
100
AcDbArc
 50
90
 51
-180
  0
LINE
  5
51
100
AcDbEntity
  8
Sketch
  6
ByLayer
 62
  256
370
   -1
100
AcDbLine
 10
109.5
 20
-35.1
 11
214.7
 21
-35.1
  0
ARC
  5
52
100
AcDbEntity
  8
Sketch
  6
ByLayer
 62
  256
370
   -1
100
AcDbCircle
 10
214.7
 20
-37.6
 40
2.5
100
AcDbArc
 50
0
 51
90
  0
LINE
  5
53
100
AcDbEntity
  8
Sketch
  6
ByLayer
 62
  256
370
   -1
100
AcDbLine
 10
217.2
 20
-37.6
 11
217.2
 21
-122.8
  0
ARC
  5
54
100
AcDbEntity
  8
Sketch
  6
ByLayer
 62
  256
370
   -1
100
AcDbCircle
 10
214.7
 20
-122.8
 40
2.5
100
AcDbArc
 50
-90
 51
0
  0
LINE
  5
55
100
AcDbEntity
  8
Sketch
  6
ByLayer
 62
  256
370
   -1
100
AcDbLine
 10
214.7
 20
-125.3
 11
169.5
 21
-125.3
  0
ARC
  5
56
100
AcDbEntity
  8
Sketch
  6
ByLayer
 62
  256
370
   -1
100
AcDbCircle
 10
169.5
 20
-122.8
 40
2.5
100
AcDbArc
 50
180
 51
-90
  0
LINE
  5
57
100
AcDbEntity
  8
Sketch
  6
ByLayer
 62
  256
370
   -1
100
AcDbLine
 10
167
 20
-122.8
 11
167
 21
-94.252267092
  0
ARC
  5
58
100
AcDbEntity
  8
Sketch
  6
ByLayer
 62
  256
370
   -1
100
AcDbCircle
 10
164.5
 20
-94.252267092
 40
2.5
100
AcDbArc
 50
0
 51
70
  0
LINE
  5
59
100
AcDbEntity
  8
Sketch
  6
ByLayer
 62
  256
370
   -1
100
AcDbLine
 10
165.355050358
 20
-91.90303554
 11
127.686860554
 21
-78.19293567299999
  0
ARC
  5
5A
100
AcDbEntity
  8
Sketch
  6
ByLayer
 62
  256
370
   -1
100
AcDbCircle
 10
126.831810196
 20
-80.542167225
 40
2.5
100
AcDbArc
 50
70
 51
160
  0
LINE
  5
5B
100
AcDbEntity
  8
Sketch
  6
ByLayer
 62
  256
370
   -1
100
AcDbLine
 10
124.482578644
 20
-79.687116867
 11
121.21851779
 21
-88.655050358
  0
ARC
  5
5C
100
AcDbEntity
  8
Sketch
  6
ByLayer
 62
  256
370
   -1
100
AcDbCircle
 10
118.869286238
 20
-87.8
 40
2.5
100
AcDbArc
 50
-90
 51
-20
  0
LINE
  5
5D
100
AcDbEntity
  8
Sketch
  6
ByLayer
 62
  256
370
   -1
100
AcDbLine
 10
118.869286238
 20
-90.3
 11
109.5
 21
-90.3
  0
ARC
  5
5E
100
AcDbEntity
  8
Sketch
  6
ByLayer
 62
  256
370
   -1
100
AcDbCircle
 10
109.5
 20
-87.8
 40
2.5
100
AcDbArc
 50
180
 51
-90
  0
ARC
  5
5F
100
AcDbEntity
  8
Sketch
  6
ByLayer
 62
  256
370
   -1
100
AcDbCircle
 10
111.75
 20
-84.866987298
 40
0.25
100
AcDbArc
 50
-59.99999999999999
 51
0
  0
LINE
  5
60
100
AcDbEntity
  8
Sketch
  6
ByLayer
 62
  256
370
   -1
100
AcDbLine
 10
112
 20
-84.866987298
 11
112
 21
-40.533012702
  0
ARC
  5
61
100
AcDbEntity
  8
Sketch
  6
ByLayer
 62
  256
370
   -1
100
AcDbCircle
 10
111.75
 20
-40.533012702
 40
0.25
100
AcDbArc
 50
0
 51
59.99999999999999
  0
ARC
  5
62
100
AcDbEntity
  8
Sketch
  6
ByLayer
 62
  256
370
   -1
100
AcDbCircle
 10
112
 20
-40.1
 40
0.25
100
AcDbArc
 50
30
 51
-120
  0
ARC
  5
63
100
AcDbEntity
  8
Sketch
  6
ByLayer
 62
  256
370
   -1
100
AcDbCircle
 10
112.433012702
 20
-39.85
 40
0.25
100
AcDbArc
 50
-150
 51
-90
  0
LINE
  5
64
100
AcDbEntity
  8
Sketch
  6
ByLayer
 62
  256
370
   -1
100
AcDbLine
 10
112.433012702
 20
-40.1
 11
211.766987298
 21
-40.1
  0
ARC
  5
65
100
AcDbEntity
  8
Sketch
  6
ByLayer
 62
  256
370
   -1
100
AcDbCircle
 10
211.766987298
 20
-39.85
 40
0.25
100
AcDbArc
 50
-90
 51
-30
  0
ARC
  5
66
100
AcDbEntity
  8
Sketch
  6
ByLayer
 62
  256
370
   -1
100
AcDbCircle
 10
212.2
 20
-40.1
 40
0.25
100
AcDbArc
 50
-59.99999999999999
 51
150
  0
ARC
  5
67
100
AcDbEntity
  8
Sketch
  6
ByLayer
 62
  256
370
   -1
100
AcDbCircle
 10
212.45
 20
-40.533012702
 40
0.25
100
AcDbArc
 50
120
 51
180
  0
LINE
  5
68
100
AcDbEntity
  8
Sketch
  6
ByLayer
 62
  256
370
   -1
100
AcDbLine
 10
212.2
 20
-40.533012702
 11
212.2
 21
-119.866987298
  0
ARC
  5
69
100
AcDbEntity
  8
Sketch
  6
ByLayer
 62
  256
370
   -1
100
AcDbCircle
 10
212.45
 20
-119.866987298
 40
0.25
100
AcDbArc
 50
180
 51
-120
  0
ARC
  5
6A
100
AcDbEntity
  8
Sketch
  6
ByLayer
 62
  256
370
   -1
100
AcDbCircle
 10
212.2
 20
-120.3
 40
0.25
100
AcDbArc
 50
-150
 51
59.99999999999999
  0
ARC
  5
6B
100
AcDbEntity
  8
Sketch
  6
ByLayer
 62
  256
370
   -1
100
AcDbCircle
 10
211.766987298
 20
-120.55
 40
0.25
100
AcDbArc
 50
30
 51
90
  0
LINE
  5
6C
100
AcDbEntity
  8
Sketch
  6
ByLayer
 62
  256
370
   -1
100
AcDbLine
 10
211.766987298
 20
-120.3
 11
172.433012702
 21
-120.3
  0
ARC
  5
6D
100
AcDbEntity
  8
Sketch
  6
ByLayer
 62
  256
370
   -1
100
AcDbCircle
 10
172.433012702
 20
-120.55
 40
0.25
100
AcDbArc
 50
90
 51
150
  0
ARC
  5
6E
100
AcDbEntity
  8
Sketch
  6
ByLayer
 62
  256
370
   -1
100
AcDbCircle
 10
172
 20
-120.3
 40
0.25
100
AcDbArc
 50
120
 51
-30
  0
ARC
  5
6F
100
AcDbEntity
  8
Sketch
  6
ByLayer
 62
  256
370
   -1
100
AcDbCircle
 10
171.75
 20
-119.866987298
 40
0.25
100
AcDbArc
 50
-59.99999999999999
 51
0
  0
LINE
  5
70
100
AcDbEntity
  8
Sketch
  6
ByLayer
 62
  256
370
   -1
100
AcDbLine
 10
172
 20
-119.866987298
 11
172
 21
-89.700918094
  0
ARC
  5
71
100
AcDbEntity
  8
Sketch
  6
ByLayer
 62
  256
370
   -1
100
AcDbCircle
 10
171
 20
-89.700918094
 40
1
100
AcDbArc
 50
0
 51
70
  0
LINE
  5
72
100
AcDbEntity
  8
Sketch
  6
ByLayer
 62
  256
370
   -1
100
AcDbLine
 10
171.342020143
 20
-88.761225473
 11
123.572311232
 21
-71.37447333
  0
ARC
  5
73
100
AcDbEntity
  8
Sketch
  6
ByLayer
 62
  256
370
   -1
100
AcDbCircle
 10
123.230291089
 20
-72.31416595100001
 40
1
100
AcDbArc
 50
70
 51
160
  0
LINE
  5
74
100
AcDbEntity
  8
Sketch
  6
ByLayer
 62
  256
370
   -1
100
AcDbLine
 10
122.290598468
 20
-71.972145807
 11
117.587755322
 21
-84.893101159
  0
ARC
  5
75
100
AcDbEntity
  8
Sketch
  6
ByLayer
 62
  256
370
   -1
100
AcDbCircle
 10
117.822678477
 20
-84.978606195
 40
0.25
100
AcDbArc
 50
160
 51
-140
  0
ARC
  5
76
100
AcDbEntity
  8
Sketch
  6
ByLayer
 62
  256
370
   -1
100
AcDbCircle
 10
117.439656255
 20
-85.3
 40
0.25
100
AcDbArc
 50
-150
 51
40
  0
ARC
  5
77
100
AcDbEntity
  8
Sketch
  6
ByLayer
 62
  256
370
   -1
100
AcDbCircle
 10
117.006643553
 20
-85.55
 40
0.25
100
AcDbArc
 50
30
 51
90
  0
LINE
  5
78
100
AcDbEntity
  8
Sketch
  6
ByLayer
 62
  256
370
   -1
100
AcDbLine
 10
117.006643553
 20
-85.3
 11
112.433012702
 21
-85.3
  0
ARC
  5
79
100
AcDbEntity
  8
Sketch
  6
ByLayer
 62
  256
370
   -1
100
AcDbCircle
 10
112.433012702
 20
-85.55
 40
0.25
100
AcDbArc
 50
90
 51
150
  0
ARC
  5
7A
100
AcDbEntity
  8
Sketch
  6
ByLayer
 62
  256
370
   -1
100
AcDbCircle
 10
112
 20
-85.3
 40
0.25
100
AcDbArc
 50
120
 51
-30
  0
LINE
  5
7B
100
AcDbEntity
  8
Sketch
  6
ByLayer
 62
  256
370
   -1
100
AcDbLine
 10
107
 20
27.8
 11
107
 21
-22.4
  0
ARC
  5
7C
100
AcDbEntity
  8
Sketch
  6
ByLayer
 62
  256
370
   -1
100
AcDbCircle
 10
109.5
 20
-22.4
 40
2.5
100
AcDbArc
 50
180
 51
-90
  0
LINE
  5
7D
100
AcDbEntity
  8
Sketch
  6
ByLayer
 62
  256
370
   -1
100
AcDbLine
 10
109.5
 20
-24.9
 11
214.7
 21
-24.9
  0
ARC
  5
7E
100
AcDbEntity
  8
Sketch
  6
ByLayer
 62
  256
370
   -1
100
AcDbCircle
 10
214.7
 20
-22.4
 40
2.5
100
AcDbArc
 50
-90
 51
0
  0
LINE
  5
7F
100
AcDbEntity
  8
Sketch
  6
ByLayer
 62
  256
370
   -1
100
AcDbLine
 10
217.2
 20
-22.4
 11
217.2
 21
62.8
  0
ARC
  5
80
100
AcDbEntity
  8
Sketch
  6
ByLayer
 62
  256
370
   -1
100
AcDbCircle
 10
214.7
 20
62.8
 40
2.5
100
AcDbArc
 50
0
 51
90
  0
LINE
  5
81
100
AcDbEntity
  8
Sketch
  6
ByLayer
 62
  256
370
   -1
100
AcDbLine
 10
214.7
 20
65.3
 11
169.5
 21
65.3
  0
ARC
  5
82
100
AcDbEntity
  8
Sketch
  6
ByLayer
 62
  256
370
   -1
100
AcDbCircle
 10
169.5
 20
62.8
 40
2.5
100
AcDbArc
 50
90
 51
180
  0
LINE
  5
83
100
AcDbEntity
  8
Sketch
  6
ByLayer
 62
  256
370
   -1
100
AcDbLine
 10
167
 20
62.8
 11
167
 21
34.252267092
  0
ARC
  5
84
100
AcDbEntity
  8
Sketch
  6
ByLayer
 62
  256
370
   -1
100
AcDbCircle
 10
164.5
 20
34.252267092
 40
2.5
100
AcDbArc
 50
-70
 51
0
  0
LINE
  5
85
100
AcDbEntity
  8
Sketch
  6
ByLayer
 62
  256
370
   -1
100
AcDbLine
 10
165.355050358
 20
31.90303554
 11
127.686860554
 21
18.192935673
  0
ARC
  5
86
100
AcDbEntity
  8
Sketch
  6
ByLayer
 62
  256
370
   -1
100
AcDbCircle
 10
126.831810196
 20
20.542167225
 40
2.5
100
AcDbArc
 50
-160
 51
-70
  0
LINE
  5
87
100
AcDbEntity
  8
Sketch
  6
ByLayer
 62
  256
370
   -1
100
AcDbLine
 10
124.482578644
 20
19.687116867
 11
121.21851779
 21
28.655050358
  0
ARC
  5
88
100
AcDbEntity
  8
Sketch
  6
ByLayer
 62
  256
370
   -1
100
AcDbCircle
 10
118.869286238
 20
27.8
 40
2.5
100
AcDbArc
 50
20
 51
90
  0
LINE
  5
89
100
AcDbEntity
  8
Sketch
  6
ByLayer
 62
  256
370
   -1
100
AcDbLine
 10
118.869286238
 20
30.3
 11
109.5
 21
30.3
  0
ARC
  5
8A
100
AcDbEntity
  8
Sketch
  6
ByLayer
 62
  256
370
   -1
100
AcDbCircle
 10
109.5
 20
27.8
 40
2.5
100
AcDbArc
 50
90
 51
-180
  0
ARC
  5
8B
100
AcDbEntity
  8
Sketch
  6
ByLayer
 62
  256
370
   -1
100
AcDbCircle
 10
111.75
 20
24.866987298
 40
0.25
100
AcDbArc
 50
0
 51
59.99999999999999
  0
ARC
  5
8C
100
AcDbEntity
  8
Sketch
  6
ByLayer
 62
  256
370
   -1
100
AcDbCircle
 10
112
 20
25.3
 40
0.25
100
AcDbArc
 50
30
 51
-120
  0
ARC
  5
8D
100
AcDbEntity
  8
Sketch
  6
ByLayer
 62
  256
370
   -1
100
AcDbCircle
 10
112.433012702
 20
25.55
 40
0.25
100
AcDbArc
 50
-150
 51
-90
  0
LINE
  5
8E
100
AcDbEntity
  8
Sketch
  6
ByLayer
 62
  256
370
   -1
100
AcDbLine
 10
117.006643553
 20
25.3
 11
112.433012702
 21
25.3
  0
ARC
  5
8F
100
AcDbEntity
  8
Sketch
  6
ByLayer
 62
  256
370
   -1
100
AcDbCircle
 10
117.006643553
 20
25.55
 40
0.25
100
AcDbArc
 50
-90
 51
-30
  0
ARC
  5
90
100
AcDbEntity
  8
Sketch
  6
ByLayer
 62
  256
370
   -1
100
AcDbCircle
 10
117.439656255
 20
25.3
 40
0.25
100
AcDbArc
 50
-40
 51
150
  0
ARC
  5
91
100
AcDbEntity
  8
Sketch
  6
ByLayer
 62
  256
370
   -1
100
AcDbCircle
 10
117.822678477
 20
24.978606195
 40
0.25
100
AcDbArc
 50
140
 51
-160
  0
LINE
  5
92
100
AcDbEntity
  8
Sketch
  6
ByLayer
 62
  256
370
   -1
100
AcDbLine
 10
122.290598468
 20
11.972145807
 11
117.587755322
 21
24.893101159
  0
ARC
  5
93
100
AcDbEntity
  8
Sketch
  6
ByLayer
 62
  256
370
   -1
100
AcDbCircle
 10
123.230291089
 20
12.314165951
 40
1
100
AcDbArc
 50
-160
 51
-70
  0
LINE
  5
94
100
AcDbEntity
  8
Sketch
  6
ByLayer
 62
  256
370
   -1
100
AcDbLine
 10
171.342020143
 20
28.761225473
 11
123.572311232
 21
11.37447333
  0
ARC
  5
95
100
AcDbEntity
  8
Sketch
  6
ByLayer
 62
  256
370
   -1
100
AcDbCircle
 10
171
 20
29.700918094
 40
1
100
AcDbArc
 50
-70
 51
0
  0
LINE
  5
96
100
AcDbEntity
  8
Sketch
  6
ByLayer
 62
  256
370
   -1
100
AcDbLine
 10
172
 20
59.866987298
 11
172
 21
29.700918094
  0
ARC
  5
97
100
AcDbEntity
  8
Sketch
  6
ByLayer
 62
  256
370
   -1
100
AcDbCircle
 10
171.75
 20
59.866987298
 40
0.25
100
AcDbArc
 50
0
 51
59.99999999999999
  0
ARC
  5
98
100
AcDbEntity
  8
Sketch
  6
ByLayer
 62
  256
370
   -1
100
AcDbCircle
 10
172
 20
60.3
 40
0.25
100
AcDbArc
 50
30
 51
-120
  0
ARC
  5
99
100
AcDbEntity
  8
Sketch
  6
ByLayer
 62
  256
370
   -1
100
AcDbCircle
 10
172.433012702
 20
60.55
 40
0.25
100
AcDbArc
 50
-150
 51
-90
  0
LINE
  5
9A
100
AcDbEntity
  8
Sketch
  6
ByLayer
 62
  256
370
   -1
100
AcDbLine
 10
211.766987298
 20
60.3
 11
172.433012702
 21
60.3
  0
ARC
  5
9B
100
AcDbEntity
  8
Sketch
  6
ByLayer
 62
  256
370
   -1
100
AcDbCircle
 10
211.766987298
 20
60.55
 40
0.25
100
AcDbArc
 50
-90
 51
-30
  0
ARC
  5
9C
100
AcDbEntity
  8
Sketch
  6
ByLayer
 62
  256
370
   -1
100
AcDbCircle
 10
212.2
 20
60.3
 40
0.25
100
AcDbArc
 50
-59.99999999999999
 51
150
  0
ARC
  5
9D
100
AcDbEntity
  8
Sketch
  6
ByLayer
 62
  256
370
   -1
100
AcDbCircle
 10
212.45
 20
59.866987298
 40
0.25
100
AcDbArc
 50
120
 51
180
  0
LINE
  5
9E
100
AcDbEntity
  8
Sketch
  6
ByLayer
 62
  256
370
   -1
100
AcDbLine
 10
212.2
 20
-19.466987298
 11
212.2
 21
59.866987298
  0
ARC
  5
9F
100
AcDbEntity
  8
Sketch
  6
ByLayer
 62
  256
370
   -1
100
AcDbCircle
 10
212.45
 20
-19.466987298
 40
0.25
100
AcDbArc
 50
180
 51
-120
  0
ARC
  5
A0
100
AcDbEntity
  8
Sketch
  6
ByLayer
 62
  256
370
   -1
100
AcDbCircle
 10
212.2
 20
-19.9
 40
0.25
100
AcDbArc
 50
-150
 51
59.99999999999999
  0
ARC
  5
A1
100
AcDbEntity
  8
Sketch
  6
ByLayer
 62
  256
370
   -1
100
AcDbCircle
 10
211.766987298
 20
-20.15
 40
0.25
100
AcDbArc
 50
30
 51
90
  0
LINE
  5
A2
100
AcDbEntity
  8
Sketch
  6
ByLayer
 62
  256
370
   -1
100
AcDbLine
 10
112.433012702
 20
-19.9
 11
211.766987298
 21
-19.9
  0
ARC
  5
A3
100
AcDbEntity
  8
Sketch
  6
ByLayer
 62
  256
370
   -1
100
AcDbCircle
 10
112.433012702
 20
-20.15
 40
0.25
100
AcDbArc
 50
90
 51
150
  0
ARC
  5
A4
100
AcDbEntity
  8
Sketch
  6
ByLayer
 62
  256
370
   -1
100
AcDbCircle
 10
112
 20
-19.9
 40
0.25
100
AcDbArc
 50
120
 51
-30
  0
ARC
  5
A5
100
AcDbEntity
  8
Sketch
  6
ByLayer
 62
  256
370
   -1
100
AcDbCircle
 10
111.75
 20
-19.466987298
 40
0.25
100
AcDbArc
 50
-59.99999999999999
 51
0
  0
LINE
  5
A6
100
AcDbEntity
  8
Sketch
  6
ByLayer
 62
  256
370
   -1
100
AcDbLine
 10
112
 20
24.866987298
 11
112
 21
-19.466987298
  0
LINE
  5
A7
100
AcDbEntity
  8
Sketch
  6
ByLayer
 62
  256
370
   -1
100
AcDbLine
 10
142.463050448
 20
-78.250140108
 11
142.283748705
 21
-77.865626279
  0
LINE
  5
A8
100
AcDbEntity
  8
Sketch
  6
ByLayer
 62
  256
370
   -1
100
AcDbLine
 10
143.006551274
 20
-75.87974254
 11
142.283748705
 21
-77.865626279
  0
ARC
  5
A9
100
AcDbEntity
  8
Sketch
  6
ByLayer
 62
  256
370
   -1
100
AcDbCircle
 10
143.070395034
 20
-75.70433325099999
 40
0.186666667
100
AcDbArc
 50
-110
 51
-20
  0
ARC
  5
AA
100
AcDbEntity
  8
Sketch
  6
ByLayer
 62
  256
370
   -1
100
AcDbCircle
 10
143.070395034
 20
-75.70433325099999
 40
0.186666667
100
AcDbArc
 50
-20
 51
160
  0
LINE
  5
AB
100
AcDbEntity
  8
Sketch
  6
ByLayer
 62
  256
370
   -1
100
AcDbLine
 10
142.894985745
 20
-75.640489491
 11
121.07867017
 21
-67.7
  0
LINE
  5
AC
100
AcDbEntity
  8
Sketch
  6
ByLayer
 62
  256
370
   -1
100
AcDbLine
 10
121.07867017
 20
-67.7
 11
115.619116656
 21
-82.7
  0
LINE
  5
AD
100
AcDbEntity
  8
Sketch
  6
ByLayer
 62
  256
370
   -1
100
AcDbLine
 10
115.619116656
 20
-82.7
 11
114.6
 21
-82.7
  0
LINE
  5
AE
100
AcDbEntity
  8
Sketch
  6
ByLayer
 62
  256
370
   -1
100
AcDbLine
 10
114.6
 20
-82.7
 11
114.6
 21
-67.961666667
  0
ARC
  5
AF
100
AcDbEntity
  8
Sketch
  6
ByLayer
 62
  256
370
   -1
100
AcDbCircle
 10
114.6
 20
-67.77500000000001
 40
0.186666667
100
AcDbArc
 50
-90
 51
90
  0
ARC
  5
B0
100
AcDbEntity
  8
Sketch
  6
ByLayer
 62
  256
370
   -1
100
AcDbCircle
 10
114.6
 20
-67.77500000000001
 40
0.186666667
100
AcDbArc
 50
90
 51
180
  0
LINE
  5
B1
100
AcDbEntity
  8
Sketch
  6
ByLayer
 62
  256
370
   -1
100
AcDbLine
 10
114.413333333
 20
-67.77500000000001
 11
112.3
 21
-67.77500000000001
  0
LINE
  5
B2
100
AcDbEntity
  8
Sketch
  6
ByLayer
 62
  256
370
   -1
100
AcDbLine
 10
112.3
 20
-67.77500000000001
 11
112
 21
-67.47499999999999
  0
LINE
  5
B3
100
AcDbEntity
  8
Sketch
  6
ByLayer
 62
  256
370
   -1
100
AcDbLine
 10
172
 20
-97.66508547799999
 11
172.3
 21
-97.365085478
  0
LINE
  5
B4
100
AcDbEntity
  8
Sketch
  6
ByLayer
 62
  256
370
   -1
100
AcDbLine
 10
174.413333333
 20
-97.365085478
 11
172.3
 21
-97.365085478
  0
ARC
  5
B5
100
AcDbEntity
  8
Sketch
  6
ByLayer
 62
  256
370
   -1
100
AcDbCircle
 10
174.6
 20
-97.365085478
 40
0.186666667
100
AcDbArc
 50
180
 51
-90
  0
ARC
  5
B6
100
AcDbEntity
  8
Sketch
  6
ByLayer
 62
  256
370
   -1
100
AcDbCircle
 10
174.6
 20
-97.365085478
 40
0.186666667
100
AcDbArc
 50
-90
 51
90
  0
LINE
  5
B7
100
AcDbEntity
  8
Sketch
  6
ByLayer
 62
  256
370
   -1
100
AcDbLine
 10
174.6
 20
-97.178418812
 11
174.6
 21
-87.180170956
  0
LINE
  5
B8
100
AcDbEntity
  8
Sketch
  6
ByLayer
 62
  256
370
   -1
100
AcDbLine
 10
174.6
 20
-87.180170956
 11
152.783684425
 21
-79.23968146599999
  0
ARC
  5
B9
100
AcDbEntity
  8
Sketch
  6
ByLayer
 62
  256
370
   -1
100
AcDbCircle
 10
152.608275135
 20
-79.175837706
 40
0.186666667
100
AcDbArc
 50
-20
 51
160
  0
ARC
  5
BA
100
AcDbEntity
  8
Sketch
  6
ByLayer
 62
  256
370
   -1
100
AcDbCircle
 10
152.608275135
 20
-79.175837706
 40
0.186666667
100
AcDbArc
 50
160
 51
-110
  0
LINE
  5
BB
100
AcDbEntity
  8
Sketch
  6
ByLayer
 62
  256
370
   -1
100
AcDbLine
 10
152.544431375
 20
-79.351246995
 11
151.821628806
 21
-81.337130733
  0
LINE
  5
BC
100
AcDbEntity
  8
Sketch
  6
ByLayer
 62
  256
370
   -1
100
AcDbLine
 10
151.821628806
 20
-81.337130733
 11
151.437114977
 21
-81.516432477
  0
LINE
  5
BD
100
AcDbEntity
  8
Sketch
  6
ByLayer
 62
  256
370
   -1
100
AcDbLine
 10
112
 20
-57.925
 11
112.3
 21
-57.625
  0
LINE
  5
BE
100
AcDbEntity
  8
Sketch
  6
ByLayer
 62
  256
370
   -1
100
AcDbLine
 10
114.413333333
 20
-57.625
 11
112.3
 21
-57.625
  0
ARC
  5
BF
100
AcDbEntity
  8
Sketch
  6
ByLayer
 62
  256
370
   -1
100
AcDbCircle
 10
114.6
 20
-57.625
 40
0.186666667
100
AcDbArc
 50
180
 51
-90
  0
ARC
  5
C0
100
AcDbEntity
  8
Sketch
  6
ByLayer
 62
  256
370
   -1
100
AcDbCircle
 10
114.6
 20
-57.625
 40
0.186666667
100
AcDbArc
 50
-90
 51
90
  0
LINE
  5
C1
100
AcDbEntity
  8
Sketch
  6
ByLayer
 62
  256
370
   -1
100
AcDbLine
 10
114.6
 20
-57.438333333
 11
114.6
 21
-43.7
  0
LINE
  5
C2
100
AcDbEntity
  8
Sketch
  6
ByLayer
 62
  256
370
   -1
100
AcDbLine
 10
114.6
 20
-43.7
 11
115.6
 21
-42.7
  0
LINE
  5
C3
100
AcDbEntity
  8
Sketch
  6
ByLayer
 62
  256
370
   -1
100
AcDbLine
 10
115.6
 20
-42.7
 11
133.088333333
 21
-42.7
  0
ARC
  5
C4
100
AcDbEntity
  8
Sketch
  6
ByLayer
 62
  256
370
   -1
100
AcDbCircle
 10
133.275
 20
-42.7
 40
0.186666667
100
AcDbArc
 50
180
 51
0
  0
ARC
  5
C5
100
AcDbEntity
  8
Sketch
  6
ByLayer
 62
  256
370
   -1
100
AcDbCircle
 10
133.275
 20
-42.7
 40
0.186666667
100
AcDbArc
 50
0
 51
90
  0
LINE
  5
C6
100
AcDbEntity
  8
Sketch
  6
ByLayer
 62
  256
370
   -1
100
AcDbLine
 10
133.275
 20
-42.513333333
 11
133.275
 21
-40.4
  0
LINE
  5
C7
100
AcDbEntity
  8
Sketch
  6
ByLayer
 62
  256
370
   -1
100
AcDbLine
 10
133.275
 20
-40.4
 11
133.575
 21
-40.1
  0
LINE
  5
C8
100
AcDbEntity
  8
Sketch
  6
ByLayer
 62
  256
370
   -1
100
AcDbLine
 10
187.325
 20
-120.3
 11
187.025
 21
-120
  0
LINE
  5
C9
100
AcDbEntity
  8
Sketch
  6
ByLayer
 62
  256
370
   -1
100
AcDbLine
 10
187.025
 20
-117.886666667
 11
187.025
 21
-120
  0
ARC
  5
CA
100
AcDbEntity
  8
Sketch
  6
ByLayer
 62
  256
370
   -1
100
AcDbCircle
 10
187.025
 20
-117.7
 40
0.186666667
100
AcDbArc
 50
-90
 51
0
  0
ARC
  5
CB
100
AcDbEntity
  8
Sketch
  6
ByLayer
 62
  256
370
   -1
100
AcDbCircle
 10
187.025
 20
-117.7
 40
0.186666667
100
AcDbArc
 50
0
 51
180
  0
LINE
  5
CC
100
AcDbEntity
  8
Sketch
  6
ByLayer
 62
  256
370
   -1
100
AcDbLine
 10
186.838333333
 20
-117.7
 11
175.6
 21
-117.7
  0
LINE
  5
CD
100
AcDbEntity
  8
Sketch
  6
ByLayer
 62
  256
370
   -1
100
AcDbLine
 10
175.6
 20
-117.7
 11
174.6
 21
-116.7
  0
LINE
  5
CE
100
AcDbEntity
  8
Sketch
  6
ByLayer
 62
  256
370
   -1
100
AcDbLine
 10
174.6
 20
-116.7
 11
174.6
 21
-107.701752145
  0
ARC
  5
CF
100
AcDbEntity
  8
Sketch
  6
ByLayer
 62
  256
370
   -1
100
AcDbCircle
 10
174.6
 20
-107.515085478
 40
0.186666667
100
AcDbArc
 50
-90
 51
90
  0
ARC
  5
D0
100
AcDbEntity
  8
Sketch
  6
ByLayer
 62
  256
370
   -1
100
AcDbCircle
 10
174.6
 20
-107.515085478
 40
0.186666667
100
AcDbArc
 50
90
 51
180
  0
LINE
  5
D1
100
AcDbEntity
  8
Sketch
  6
ByLayer
 62
  256
370
   -1
100
AcDbLine
 10
174.413333333
 20
-107.515085478
 11
172.3
 21
-107.515085478
  0
LINE
  5
D2
100
AcDbEntity
  8
Sketch
  6
ByLayer
 62
  256
370
   -1
100
AcDbLine
 10
172.3
 20
-107.515085478
 11
172
 21
-107.215085478
  0
LINE
  5
D3
100
AcDbEntity
  8
Sketch
  6
ByLayer
 62
  256
370
   -1
100
AcDbLine
 10
143.125
 20
-40.1
 11
143.425
 21
-40.4
  0
LINE
  5
D4
100
AcDbEntity
  8
Sketch
  6
ByLayer
 62
  256
370
   -1
100
AcDbLine
 10
143.425
 20
-42.513333333
 11
143.425
 21
-40.4
  0
ARC
  5
D5
100
AcDbEntity
  8
Sketch
  6
ByLayer
 62
  256
370
   -1
100
AcDbCircle
 10
143.425
 20
-42.7
 40
0.186666667
100
AcDbArc
 50
90
 51
180
  0
ARC
  5
D6
100
AcDbEntity
  8
Sketch
  6
ByLayer
 62
  256
370
   -1
100
AcDbCircle
 10
143.425
 20
-42.7
 40
0.186666667
100
AcDbArc
 50
180
 51
0
  0
LINE
  5
D7
100
AcDbEntity
  8
Sketch
  6
ByLayer
 62
  256
370
   -1
100
AcDbLine
 10
143.611666667
 20
-42.7
 11
180.588333333
 21
-42.7
  0
ARC
  5
D8
100
AcDbEntity
  8
Sketch
  6
ByLayer
 62
  256
370
   -1
100
AcDbCircle
 10
180.775
 20
-42.7
 40
0.186666667
100
AcDbArc
 50
180
 51
0
  0
ARC
  5
D9
100
AcDbEntity
  8
Sketch
  6
ByLayer
 62
  256
370
   -1
100
AcDbCircle
 10
180.775
 20
-42.7
 40
0.186666667
100
AcDbArc
 50
0
 51
90
  0
LINE
  5
DA
100
AcDbEntity
  8
Sketch
  6
ByLayer
 62
  256
370
   -1
100
AcDbLine
 10
180.775
 20
-42.513333333
 11
180.775
 21
-40.4
  0
LINE
  5
DB
100
AcDbEntity
  8
Sketch
  6
ByLayer
 62
  256
370
   -1
100
AcDbLine
 10
180.775
 20
-40.4
 11
181.075
 21
-40.1
  0
LINE
  5
DC
100
AcDbEntity
  8
Sketch
  6
ByLayer
 62
  256
370
   -1
100
AcDbLine
 10
212.2
 20
-103.725
 11
211.9
 21
-104.025
  0
LINE
  5
DD
100
AcDbEntity
  8
Sketch
  6
ByLayer
 62
  256
370
   -1
100
AcDbLine
 10
209.786666667
 20
-104.025
 11
211.9
 21
-104.025
  0
ARC
  5
DE
100
AcDbEntity
  8
Sketch
  6
ByLayer
 62
  256
370
   -1
100
AcDbCircle
 10
209.6
 20
-104.025
 40
0.186666667
100
AcDbArc
 50
0
 51
90
  0
ARC
  5
DF
100
AcDbEntity
  8
Sketch
  6
ByLayer
 62
  256
370
   -1
100
AcDbCircle
 10
209.6
 20
-104.025
 40
0.186666667
100
AcDbArc
 50
90
 51
-90
  0
LINE
  5
E0
100
AcDbEntity
  8
Sketch
  6
ByLayer
 62
  256
370
   -1
100
AcDbLine
 10
209.6
 20
-104.211666667
 11
209.6
 21
-116.7
  0
LINE
  5
E1
100
AcDbEntity
  8
Sketch
  6
ByLayer
 62
  256
370
   -1
100
AcDbLine
 10
209.6
 20
-116.7
 11
208.6
 21
-117.7
  0
LINE
  5
E2
100
AcDbEntity
  8
Sketch
  6
ByLayer
 62
  256
370
   -1
100
AcDbLine
 10
208.6
 20
-117.7
 11
197.361666667
 21
-117.7
  0
ARC
  5
E3
100
AcDbEntity
  8
Sketch
  6
ByLayer
 62
  256
370
   -1
100
AcDbCircle
 10
197.175
 20
-117.7
 40
0.186666667
100
AcDbArc
 50
0
 51
180
  0
ARC
  5
E4
100
AcDbEntity
  8
Sketch
  6
ByLayer
 62
  256
370
   -1
100
AcDbCircle
 10
197.175
 20
-117.7
 40
0.186666667
100
AcDbArc
 50
180
 51
-90
  0
LINE
  5
E5
100
AcDbEntity
  8
Sketch
  6
ByLayer
 62
  256
370
   -1
100
AcDbLine
 10
197.175
 20
-117.886666667
 11
197.175
 21
-120
  0
LINE
  5
E6
100
AcDbEntity
  8
Sketch
  6
ByLayer
 62
  256
370
   -1
100
AcDbLine
 10
197.175
 20
-120
 11
196.875
 21
-120.3
  0
LINE
  5
E7
100
AcDbEntity
  8
Sketch
  6
ByLayer
 62
  256
370
   -1
100
AcDbLine
 10
190.625
 20
-40.1
 11
190.925
 21
-40.4
  0
LINE
  5
E8
100
AcDbEntity
  8
Sketch
  6
ByLayer
 62
  256
370
   -1
100
AcDbLine
 10
190.925
 20
-42.513333333
 11
190.925
 21
-40.4
  0
ARC
  5
E9
100
AcDbEntity
  8
Sketch
  6
ByLayer
 62
  256
370
   -1
100
AcDbCircle
 10
190.925
 20
-42.7
 40
0.186666667
100
AcDbArc
 50
90
 51
180
  0
ARC
  5
EA
100
AcDbEntity
  8
Sketch
  6
ByLayer
 62
  256
370
   -1
100
AcDbCircle
 10
190.925
 20
-42.7
 40
0.186666667
100
AcDbArc
 50
180
 51
0
  0
LINE
  5
EB
100
AcDbEntity
  8
Sketch
  6
ByLayer
 62
  256
370
   -1
100
AcDbLine
 10
191.111666667
 20
-42.7
 11
208.6
 21
-42.7
  0
LINE
  5
EC
100
AcDbEntity
  8
Sketch
  6
ByLayer
 62
  256
370
   -1
100
AcDbLine
 10
208.6
 20
-42.7
 11
209.6
 21
-43.7
  0
LINE
  5
ED
100
AcDbEntity
  8
Sketch
  6
ByLayer
 62
  256
370
   -1
100
AcDbLine
 10
209.6
 20
-43.7
 11
209.6
 21
-56.188333333
  0
ARC
  5
EE
100
AcDbEntity
  8
Sketch
  6
ByLayer
 62
  256
370
   -1
100
AcDbCircle
 10
209.6
 20
-56.375
 40
0.186666667
100
AcDbArc
 50
90
 51
-90
  0
ARC
  5
EF
100
AcDbEntity
  8
Sketch
  6
ByLayer
 62
  256
370
   -1
100
AcDbCircle
 10
209.6
 20
-56.375
 40
0.186666667
100
AcDbArc
 50
-90
 51
0
  0
LINE
  5
F0
100
AcDbEntity
  8
Sketch
  6
ByLayer
 62
  256
370
   -1
100
AcDbLine
 10
209.786666667
 20
-56.375
 11
211.9
 21
-56.375
  0
LINE
  5
F1
100
AcDbEntity
  8
Sketch
  6
ByLayer
 62
  256
370
   -1
100
AcDbLine
 10
211.9
 20
-56.375
 11
212.2
 21
-56.675
  0
LINE
  5
F2
100
AcDbEntity
  8
Sketch
  6
ByLayer
 62
  256
370
   -1
100
AcDbLine
 10
212.2
 20
-66.22499999999999
 11
211.9
 21
-66.52500000000001
  0
LINE
  5
F3
100
AcDbEntity
  8
Sketch
  6
ByLayer
 62
  256
370
   -1
100
AcDbLine
 10
209.786666667
 20
-66.52500000000001
 11
211.9
 21
-66.52500000000001
  0
ARC
  5
F4
100
AcDbEntity
  8
Sketch
  6
ByLayer
 62
  256
370
   -1
100
AcDbCircle
 10
209.6
 20
-66.52500000000001
 40
0.186666667
100
AcDbArc
 50
0
 51
90
  0
ARC
  5
F5
100
AcDbEntity
  8
Sketch
  6
ByLayer
 62
  256
370
   -1
100
AcDbCircle
 10
209.6
 20
-66.52500000000001
 40
0.186666667
100
AcDbArc
 50
90
 51
-90
  0
LINE
  5
F6
100
AcDbEntity
  8
Sketch
  6
ByLayer
 62
  256
370
   -1
100
AcDbLine
 10
209.6
 20
-66.711666667
 11
209.6
 21
-93.688333333
  0
ARC
  5
F7
100
AcDbEntity
  8
Sketch
  6
ByLayer
 62
  256
370
   -1
100
AcDbCircle
 10
209.6
 20
-93.875
 40
0.186666667
100
AcDbArc
 50
90
 51
-90
  0
ARC
  5
F8
100
AcDbEntity
  8
Sketch
  6
ByLayer
 62
  256
370
   -1
100
AcDbCircle
 10
209.6
 20
-93.875
 40
0.186666667
100
AcDbArc
 50
-90
 51
0
  0
LINE
  5
F9
100
AcDbEntity
  8
Sketch
  6
ByLayer
 62
  256
370
   -1
100
AcDbLine
 10
209.786666667
 20
-93.875
 11
211.9
 21
-93.875
  0
LINE
  5
FA
100
AcDbEntity
  8
Sketch
  6
ByLayer
 62
  256
370
   -1
100
AcDbLine
 10
211.9
 20
-93.875
 11
212.2
 21
-94.175
  0
LINE
  5
FB
100
AcDbEntity
  8
Sketch
  6
ByLayer
 62
  256
370
   -1
100
AcDbLine
 10
158.952378217
 20
-71.718200254
 11
159.807428575
 21
-69.368968702
  0
ARC
  5
FC
100
AcDbEntity
  8
Sketch
  6
ByLayer
 62
  256
370
   -1
100
AcDbCircle
 10
164.036045368
 20
-70.90805934700001
 40
4.5
100
AcDbArc
 50
70
 51
160
  0
LINE
  5
FD
100
AcDbEntity
  8
Sketch
  6
ByLayer
 62
  256
370
   -1
100
AcDbLine
 10
165.575136013
 20
-66.679442554
 11
171.683138049
 21
-68.902573485
  0
ARC
  5
FE
100
AcDbEntity
  8
Sketch
  6
ByLayer
 62
  256
370
   -1
100
AcDbCircle
 10
170.144047404
 20
-73.13119027899999
 40
4.5
100
AcDbArc
 50
-20
 51
70
  0
LINE
  5
FF
100
AcDbEntity
  8
Sketch
  6
ByLayer
 62
  256
370
   -1
100
AcDbLine
 10
174.372664197
 20
-74.670280924
 11
173.517613839
 21
-77.019512476
  0
ARC
  5
100
100
AcDbEntity
  8
Sketch
  6
ByLayer
 62
  256
370
   -1
100
AcDbCircle
 10
169.288997045
 20
-75.480421831
 40
4.5
100
AcDbArc
 50
-110
 51
-20
  0
LINE
  5
101
100
AcDbEntity
  8
Sketch
  6
ByLayer
 62
  256
370
   -1
100
AcDbLine
 10
167.7499064
 20
-79.709038624
 11
161.641904365
 21
-77.485907693
  0
ARC
  5
102
100
AcDbEntity
  8
Sketch
  6
ByLayer
 62
  256
370
   -1
100
AcDbCircle
 10
163.18099501
 20
-73.257290899
 40
4.5
100
AcDbArc
 50
160
 51
-110
  0
LINE
  5
103
100
AcDbEntity
  8
Sketch
  6
ByLayer
 62
  256
370
   -1
100
AcDbLine
 10
140.310311926
 20
-47.894492704
 11
140.826762343
 21
-46.475556847
  0
LINE
  5
104
100
AcDbEntity
  8
Sketch
  6
ByLayer
 62
  256
370
   -1
100
AcDbLine
 10
140.826762343
 20
-46.475556847
 11
152.103073792
 21
-50.579798567
  0
LINE
  5
105
100
AcDbEntity
  8
Sketch
  6
ByLayer
 62
  256
370
   -1
100
AcDbLine
 10
151.586623376
 20
-51.998734424
 11
152.103073792
 21
-50.579798567
  0
LINE
  5
106
100
AcDbEntity
  8
Sketch
  6
ByLayer
 62
  256
370
   -1
100
AcDbLine
 10
140.310311926
 20
-47.894492704
 11
151.586623376
 21
-51.998734424
  0
LINE
  5
107
100
AcDbEntity
  8
Sketch
  6
ByLayer
 62
  256
370
   -1
100
AcDbLine
 10
170.380475791
 20
-58.839137291
 11
170.896926208
 21
-57.420201433
  0
LINE
  5
108
100
AcDbEntity
  8
Sketch
  6
ByLayer
 62
  256
370
   -1
100
AcDbLine
 10
170.896926208
 20
-57.420201433
 11
182.173237657
 21
-61.524443153
  0
LINE
  5
109
100
AcDbEntity
  8
Sketch
  6
ByLayer
 62
  256
370
   -1
100
AcDbLine
 10
181.656787241
 20
-62.943379011
 11
182.173237657
 21
-61.524443153
  0
LINE
  5
10A
100
AcDbEntity
  8
Sketch
  6
ByLayer
 62
  256
370
   -1
100
AcDbLine
 10
170.380475791
 20
-58.839137291
 11
181.656787241
 21
-62.943379011
  0
LINE
  5
10B
100
AcDbEntity
  8
Sketch
  6
ByLayer
 62
  256
370
   -1
100
AcDbLine
 10
179.49
 20
-110
 11
181
 21
-110
  0
LINE
  5
10C
100
AcDbEntity
  8
Sketch
  6
ByLayer
 62
  256
370
   -1
100
AcDbLine
 10
181
 20
-110
 11
181
 21
-98
  0
LINE
  5
10D
100
AcDbEntity
  8
Sketch
  6
ByLayer
 62
  256
370
   -1
100
AcDbLine
 10
179.49
 20
-98
 11
181
 21
-98
  0
LINE
  5
10E
100
AcDbEntity
  8
Sketch
  6
ByLayer
 62
  256
370
   -1
100
AcDbLine
 10
179.49
 20
-110
 11
179.49
 21
-98
  0
ARC
  5
10F
100
AcDbEntity
  8
Sketch
  6
ByLayer
 62
  256
370
   -1
100
AcDbCircle
 10
168.25329957
 20
-62.198272187
 40
2.5
100
AcDbArc
 50
70
 51
-110
  0
LINE
  5
110
100
AcDbEntity
  8
Sketch
  6
ByLayer
 62
  256
370
   -1
100
AcDbLine
 10
167.398249211
 20
-64.54750373900001
 11
171.250988957
 21
-65.949786327
  0
ARC
  5
111
100
AcDbEntity
  8
Sketch
  6
ByLayer
 62
  256
370
   -1
100
AcDbCircle
 10
172.106039315
 20
-63.600554775
 40
2.5
100
AcDbArc
 50
-110
 51
70
  0
LINE
  5
112
100
AcDbEntity
  8
Sketch
  6
ByLayer
 62
  256
370
   -1
100
AcDbLine
 10
169.108349928
 20
-59.849040635
 11
172.961089673
 21
-61.251323223
  0
LINE
  5
113
100
AcDbEntity
  8
Sketch
  6
ByLayer
 62
  256
370
   -1
100
AcDbLine
 10
142.463050448
 20
18.250140108
 11
142.283748705
 21
17.865626279
  0
LINE
  5
114
100
AcDbEntity
  8
Sketch
  6
ByLayer
 62
  256
370
   -1
100
AcDbLine
 10
143.006551274
 20
15.87974254
 11
142.283748705
 21
17.865626279
  0
ARC
  5
115
100
AcDbEntity
  8
Sketch
  6
ByLayer
 62
  256
370
   -1
100
AcDbCircle
 10
143.070395034
 20
15.704333251
 40
0.186666667
100
AcDbArc
 50
20
 51
110
  0
ARC
  5
116
100
AcDbEntity
  8
Sketch
  6
ByLayer
 62
  256
370
   -1
100
AcDbCircle
 10
143.070395034
 20
15.704333251
 40
0.186666667
100
AcDbArc
 50
-160
 51
20
  0
LINE
  5
117
100
AcDbEntity
  8
Sketch
  6
ByLayer
 62
  256
370
   -1
100
AcDbLine
 10
142.894985745
 20
15.640489491
 11
121.07867017
 21
7.7
  0
LINE
  5
118
100
AcDbEntity
  8
Sketch
  6
ByLayer
 62
  256
370
   -1
100
AcDbLine
 10
121.07867017
 20
7.7
 11
115.619116656
 21
22.7
  0
LINE
  5
119
100
AcDbEntity
  8
Sketch
  6
ByLayer
 62
  256
370
   -1
100
AcDbLine
 10
115.619116656
 20
22.7
 11
114.6
 21
22.7
  0
LINE
  5
11A
100
AcDbEntity
  8
Sketch
  6
ByLayer
 62
  256
370
   -1
100
AcDbLine
 10
114.6
 20
22.7
 11
114.6
 21
7.961666667
  0
ARC
  5
11B
100
AcDbEntity
  8
Sketch
  6
ByLayer
 62
  256
370
   -1
100
AcDbCircle
 10
114.6
 20
7.775
 40
0.186666667
100
AcDbArc
 50
-90
 51
90
  0
ARC
  5
11C
100
AcDbEntity
  8
Sketch
  6
ByLayer
 62
  256
370
   -1
100
AcDbCircle
 10
114.6
 20
7.775
 40
0.186666667
100
AcDbArc
 50
180
 51
-90
  0
LINE
  5
11D
100
AcDbEntity
  8
Sketch
  6
ByLayer
 62
  256
370
   -1
100
AcDbLine
 10
114.413333333
 20
7.775
 11
112.3
 21
7.775
  0
LINE
  5
11E
100
AcDbEntity
  8
Sketch
  6
ByLayer
 62
  256
370
   -1
100
AcDbLine
 10
112.3
 20
7.775
 11
112
 21
7.475
  0
LINE
  5
11F
100
AcDbEntity
  8
Sketch
  6
ByLayer
 62
  256
370
   -1
100
AcDbLine
 10
112
 20
-2.075
 11
112.3
 21
-2.375
  0
LINE
  5
120
100
AcDbEntity
  8
Sketch
  6
ByLayer
 62
  256
370
   -1
100
AcDbLine
 10
114.413333333
 20
-2.375
 11
112.3
 21
-2.375
  0
ARC
  5
121
100
AcDbEntity
  8
Sketch
  6
ByLayer
 62
  256
370
   -1
100
AcDbCircle
 10
114.6
 20
-2.375
 40
0.186666667
100
AcDbArc
 50
90
 51
180
  0
ARC
  5
122
100
AcDbEntity
  8
Sketch
  6
ByLayer
 62
  256
370
   -1
100
AcDbCircle
 10
114.6
 20
-2.375
 40
0.186666667
100
AcDbArc
 50
-90
 51
90
  0
LINE
  5
123
100
AcDbEntity
  8
Sketch
  6
ByLayer
 62
  256
370
   -1
100
AcDbLine
 10
114.6
 20
-2.561666667
 11
114.6
 21
-16.3
  0
LINE
  5
124
100
AcDbEntity
  8
Sketch
  6
ByLayer
 62
  256
370
   -1
100
AcDbLine
 10
114.6
 20
-16.3
 11
115.6
 21
-17.3
  0
LINE
  5
125
100
AcDbEntity
  8
Sketch
  6
ByLayer
 62
  256
370
   -1
100
AcDbLine
 10
115.6
 20
-17.3
 11
133.088333333
 21
-17.3
  0
ARC
  5
126
100
AcDbEntity
  8
Sketch
  6
ByLayer
 62
  256
370
   -1
100
AcDbCircle
 10
133.275
 20
-17.3
 40
0.186666667
100
AcDbArc
 50
-0
 51
-180
  0
ARC
  5
127
100
AcDbEntity
  8
Sketch
  6
ByLayer
 62
  256
370
   -1
100
AcDbCircle
 10
133.275
 20
-17.3
 40
0.186666667
100
AcDbArc
 50
-90
 51
-0
  0
LINE
  5
128
100
AcDbEntity
  8
Sketch
  6
ByLayer
 62
  256
370
   -1
100
AcDbLine
 10
133.275
 20
-17.486666667
 11
133.275
 21
-19.6
  0
LINE
  5
129
100
AcDbEntity
  8
Sketch
  6
ByLayer
 62
  256
370
   -1
100
AcDbLine
 10
133.275
 20
-19.6
 11
133.575
 21
-19.9
  0
LINE
  5
12A
100
AcDbEntity
  8
Sketch
  6
ByLayer
 62
  256
370
   -1
100
AcDbLine
 10
172
 20
37.665085478
 11
172.3
 21
37.365085478
  0
LINE
  5
12B
100
AcDbEntity
  8
Sketch
  6
ByLayer
 62
  256
370
   -1
100
AcDbLine
 10
174.413333333
 20
37.365085478
 11
172.3
 21
37.365085478
  0
ARC
  5
12C
100
AcDbEntity
  8
Sketch
  6
ByLayer
 62
  256
370
   -1
100
AcDbCircle
 10
174.6
 20
37.365085478
 40
0.186666667
100
AcDbArc
 50
90
 51
180
  0
ARC
  5
12D
100
AcDbEntity
  8
Sketch
  6
ByLayer
 62
  256
370
   -1
100
AcDbCircle
 10
174.6
 20
37.365085478
 40
0.186666667
100
AcDbArc
 50
-90
 51
90
  0
LINE
  5
12E
100
AcDbEntity
  8
Sketch
  6
ByLayer
 62
  256
370
   -1
100
AcDbLine
 10
174.6
 20
37.178418812
 11
174.6
 21
27.180170956
  0
LINE
  5
12F
100
AcDbEntity
  8
Sketch
  6
ByLayer
 62
  256
370
   -1
100
AcDbLine
 10
174.6
 20
27.180170956
 11
152.783684425
 21
19.239681466
  0
ARC
  5
130
100
AcDbEntity
  8
Sketch
  6
ByLayer
 62
  256
370
   -1
100
AcDbCircle
 10
152.608275135
 20
19.175837706
 40
0.186666667
100
AcDbArc
 50
-160
 51
20
  0
ARC
  5
131
100
AcDbEntity
  8
Sketch
  6
ByLayer
 62
  256
370
   -1
100
AcDbCircle
 10
152.608275135
 20
19.175837706
 40
0.186666667
100
AcDbArc
 50
110
 51
-160
  0
LINE
  5
132
100
AcDbEntity
  8
Sketch
  6
ByLayer
 62
  256
370
   -1
100
AcDbLine
 10
152.544431375
 20
19.351246995
 11
151.821628806
 21
21.337130733
  0
LINE
  5
133
100
AcDbEntity
  8
Sketch
  6
ByLayer
 62
  256
370
   -1
100
AcDbLine
 10
151.821628806
 20
21.337130733
 11
151.437114977
 21
21.516432477
  0
LINE
  5
134
100
AcDbEntity
  8
Sketch
  6
ByLayer
 62
  256
370
   -1
100
AcDbLine
 10
143.125
 20
-19.9
 11
143.425
 21
-19.6
  0
LINE
  5
135
100
AcDbEntity
  8
Sketch
  6
ByLayer
 62
  256
370
   -1
100
AcDbLine
 10
143.425
 20
-17.486666667
 11
143.425
 21
-19.6
  0
ARC
  5
136
100
AcDbEntity
  8
Sketch
  6
ByLayer
 62
  256
370
   -1
100
AcDbCircle
 10
143.425
 20
-17.3
 40
0.186666667
100
AcDbArc
 50
-180
 51
-90
  0
ARC
  5
137
100
AcDbEntity
  8
Sketch
  6
ByLayer
 62
  256
370
   -1
100
AcDbCircle
 10
143.425
 20
-17.3
 40
0.186666667
100
AcDbArc
 50
-0
 51
-180
  0
LINE
  5
138
100
AcDbEntity
  8
Sketch
  6
ByLayer
 62
  256
370
   -1
100
AcDbLine
 10
143.611666667
 20
-17.3
 11
180.588333333
 21
-17.3
  0
ARC
  5
139
100
AcDbEntity
  8
Sketch
  6
ByLayer
 62
  256
370
   -1
100
AcDbCircle
 10
180.775
 20
-17.3
 40
0.186666667
100
AcDbArc
 50
0
 51
180
  0
ARC
  5
13A
100
AcDbEntity
  8
Sketch
  6
ByLayer
 62
  256
370
   -1
100
AcDbCircle
 10
180.775
 20
-17.3
 40
0.186666667
100
AcDbArc
 50
-90
 51
0
  0
LINE
  5
13B
100
AcDbEntity
  8
Sketch
  6
ByLayer
 62
  256
370
   -1
100
AcDbLine
 10
180.775
 20
-17.486666667
 11
180.775
 21
-19.6
  0
LINE
  5
13C
100
AcDbEntity
  8
Sketch
  6
ByLayer
 62
  256
370
   -1
100
AcDbLine
 10
180.775
 20
-19.6
 11
181.075
 21
-19.9
  0
LINE
  5
13D
100
AcDbEntity
  8
Sketch
  6
ByLayer
 62
  256
370
   -1
100
AcDbLine
 10
187.325
 20
60.3
 11
187.025
 21
60
  0
LINE
  5
13E
100
AcDbEntity
  8
Sketch
  6
ByLayer
 62
  256
370
   -1
100
AcDbLine
 10
187.025
 20
57.886666667
 11
187.025
 21
60
  0
ARC
  5
13F
100
AcDbEntity
  8
Sketch
  6
ByLayer
 62
  256
370
   -1
100
AcDbCircle
 10
187.025
 20
57.7
 40
0.186666667
100
AcDbArc
 50
0
 51
90
  0
ARC
  5
140
100
AcDbEntity
  8
Sketch
  6
ByLayer
 62
  256
370
   -1
100
AcDbCircle
 10
187.025
 20
57.7
 40
0.186666667
100
AcDbArc
 50
180
 51
0
  0
LINE
  5
141
100
AcDbEntity
  8
Sketch
  6
ByLayer
 62
  256
370
   -1
100
AcDbLine
 10
186.838333333
 20
57.7
 11
175.6
 21
57.7
  0
LINE
  5
142
100
AcDbEntity
  8
Sketch
  6
ByLayer
 62
  256
370
   -1
100
AcDbLine
 10
175.6
 20
57.7
 11
174.6
 21
56.7
  0
LINE
  5
143
100
AcDbEntity
  8
Sketch
  6
ByLayer
 62
  256
370
   -1
100
AcDbLine
 10
174.6
 20
56.7
 11
174.6
 21
47.701752145
  0
ARC
  5
144
100
AcDbEntity
  8
Sketch
  6
ByLayer
 62
  256
370
   -1
100
AcDbCircle
 10
174.6
 20
47.515085478
 40
0.186666667
100
AcDbArc
 50
-90
 51
90
  0
ARC
  5
145
100
AcDbEntity
  8
Sketch
  6
ByLayer
 62
  256
370
   -1
100
AcDbCircle
 10
174.6
 20
47.515085478
 40
0.186666667
100
AcDbArc
 50
180
 51
-90
  0
LINE
  5
146
100
AcDbEntity
  8
Sketch
  6
ByLayer
 62
  256
370
   -1
100
AcDbLine
 10
174.413333333
 20
47.515085478
 11
172.3
 21
47.515085478
  0
LINE
  5
147
100
AcDbEntity
  8
Sketch
  6
ByLayer
 62
  256
370
   -1
100
AcDbLine
 10
172.3
 20
47.515085478
 11
172
 21
47.215085478
  0
LINE
  5
148
100
AcDbEntity
  8
Sketch
  6
ByLayer
 62
  256
370
   -1
100
AcDbLine
 10
190.625
 20
-19.9
 11
190.925
 21
-19.6
  0
LINE
  5
149
100
AcDbEntity
  8
Sketch
  6
ByLayer
 62
  256
370
   -1
100
AcDbLine
 10
190.925
 20
-17.486666667
 11
190.925
 21
-19.6
  0
ARC
  5
14A
100
AcDbEntity
  8
Sketch
  6
ByLayer
 62
  256
370
   -1
100
AcDbCircle
 10
190.925
 20
-17.3
 40
0.186666667
100
AcDbArc
 50
180
 51
-90
  0
ARC
  5
14B
100
AcDbEntity
  8
Sketch
  6
ByLayer
 62
  256
370
   -1
100
AcDbCircle
 10
190.925
 20
-17.3
 40
0.186666667
100
AcDbArc
 50
0
 51
180
  0
LINE
  5
14C
100
AcDbEntity
  8
Sketch
  6
ByLayer
 62
  256
370
   -1
100
AcDbLine
 10
191.111666667
 20
-17.3
 11
208.6
 21
-17.3
  0
LINE
  5
14D
100
AcDbEntity
  8
Sketch
  6
ByLayer
 62
  256
370
   -1
100
AcDbLine
 10
208.6
 20
-17.3
 11
209.6
 21
-16.3
  0
LINE
  5
14E
100
AcDbEntity
  8
Sketch
  6
ByLayer
 62
  256
370
   -1
100
AcDbLine
 10
209.6
 20
-16.3
 11
209.6
 21
-3.811666667
  0
ARC
  5
14F
100
AcDbEntity
  8
Sketch
  6
ByLayer
 62
  256
370
   -1
100
AcDbCircle
 10
209.6
 20
-3.625
 40
0.186666667
100
AcDbArc
 50
90
 51
-90
  0
ARC
  5
150
100
AcDbEntity
  8
Sketch
  6
ByLayer
 62
  256
370
   -1
100
AcDbCircle
 10
209.6
 20
-3.625
 40
0.186666667
100
AcDbArc
 50
0
 51
90
  0
LINE
  5
151
100
AcDbEntity
  8
Sketch
  6
ByLayer
 62
  256
370
   -1
100
AcDbLine
 10
209.786666667
 20
-3.625
 11
211.9
 21
-3.625
  0
LINE
  5
152
100
AcDbEntity
  8
Sketch
  6
ByLayer
 62
  256
370
   -1
100
AcDbLine
 10
211.9
 20
-3.625
 11
212.4
 21
-3.125
  0
LINE
  5
153
100
AcDbEntity
  8
Sketch
  6
ByLayer
 62
  256
370
   -1
100
AcDbLine
 10
212.2
 20
43.725
 11
211.9
 21
44.025
  0
LINE
  5
154
100
AcDbEntity
  8
Sketch
  6
ByLayer
 62
  256
370
   -1
100
AcDbLine
 10
209.786666667
 20
44.025
 11
211.9
 21
44.025
  0
ARC
  5
155
100
AcDbEntity
  8
Sketch
  6
ByLayer
 62
  256
370
   -1
100
AcDbCircle
 10
209.6
 20
44.025
 40
0.186666667
100
AcDbArc
 50
-90
 51
0
  0
ARC
  5
156
100
AcDbEntity
  8
Sketch
  6
ByLayer
 62
  256
370
   -1
100
AcDbCircle
 10
209.6
 20
44.025
 40
0.186666667
100
AcDbArc
 50
90
 51
-90
  0
LINE
  5
157
100
AcDbEntity
  8
Sketch
  6
ByLayer
 62
  256
370
   -1
100
AcDbLine
 10
209.6
 20
44.211666667
 11
209.6
 21
56.7
  0
LINE
  5
158
100
AcDbEntity
  8
Sketch
  6
ByLayer
 62
  256
370
   -1
100
AcDbLine
 10
209.6
 20
56.7
 11
208.6
 21
57.7
  0
LINE
  5
159
100
AcDbEntity
  8
Sketch
  6
ByLayer
 62
  256
370
   -1
100
AcDbLine
 10
208.6
 20
57.7
 11
197.361666667
 21
57.7
  0
ARC
  5
15A
100
AcDbEntity
  8
Sketch
  6
ByLayer
 62
  256
370
   -1
100
AcDbCircle
 10
197.175
 20
57.7
 40
0.186666667
100
AcDbArc
 50
180
 51
0
  0
ARC
  5
15B
100
AcDbEntity
  8
Sketch
  6
ByLayer
 62
  256
370
   -1
100
AcDbCircle
 10
197.175
 20
57.7
 40
0.186666667
100
AcDbArc
 50
90
 51
180
  0
LINE
  5
15C
100
AcDbEntity
  8
Sketch
  6
ByLayer
 62
  256
370
   -1
100
AcDbLine
 10
197.175
 20
57.886666667
 11
197.175
 21
60
  0
LINE
  5
15D
100
AcDbEntity
  8
Sketch
  6
ByLayer
 62
  256
370
   -1
100
AcDbLine
 10
197.175
 20
60
 11
196.875
 21
60.3
  0
LINE
  5
15E
100
AcDbEntity
  8
Sketch
  6
ByLayer
 62
  256
370
   -1
100
AcDbLine
 10
212.4
 20
6.025
 11
211.9
 21
6.525
  0
LINE
  5
15F
100
AcDbEntity
  8
Sketch
  6
ByLayer
 62
  256
370
   -1
100
AcDbLine
 10
209.786666667
 20
6.525
 11
211.9
 21
6.525
  0
ARC
  5
160
100
AcDbEntity
  8
Sketch
  6
ByLayer
 62
  256
370
   -1
100
AcDbCircle
 10
209.6
 20
6.525
 40
0.186666667
100
AcDbArc
 50
-90
 51
0
  0
ARC
  5
161
100
AcDbEntity
  8
Sketch
  6
ByLayer
 62
  256
370
   -1
100
AcDbCircle
 10
209.6
 20
6.525
 40
0.186666667
100
AcDbArc
 50
90
 51
-90
  0
LINE
  5
162
100
AcDbEntity
  8
Sketch
  6
ByLayer
 62
  256
370
   -1
100
AcDbLine
 10
209.6
 20
6.711666667
 11
209.6
 21
33.688333333
  0
ARC
  5
163
100
AcDbEntity
  8
Sketch
  6
ByLayer
 62
  256
370
   -1
100
AcDbCircle
 10
209.6
 20
33.875
 40
0.186666667
100
AcDbArc
 50
90
 51
-90
  0
ARC
  5
164
100
AcDbEntity
  8
Sketch
  6
ByLayer
 62
  256
370
   -1
100
AcDbCircle
 10
209.6
 20
33.875
 40
0.186666667
100
AcDbArc
 50
0
 51
90
  0
LINE
  5
165
100
AcDbEntity
  8
Sketch
  6
ByLayer
 62
  256
370
   -1
100
AcDbLine
 10
209.786666667
 20
33.875
 11
211.9
 21
33.875
  0
LINE
  5
166
100
AcDbEntity
  8
Sketch
  6
ByLayer
 62
  256
370
   -1
100
AcDbLine
 10
211.9
 20
33.875
 11
212.2
 21
34.175
  0
LINE
  5
167
100
AcDbEntity
  8
Sketch
  6
ByLayer
 62
  256
370
   -1
100
AcDbLine
 10
140.310311926
 20
-12.105507296
 11
140.826762343
 21
-13.524443153
  0
LINE
  5
168
100
AcDbEntity
  8
Sketch
  6
ByLayer
 62
  256
370
   -1
100
AcDbLine
 10
140.826762343
 20
-13.524443153
 11
152.103073792
 21
-9.420201433000001
  0
LINE
  5
169
100
AcDbEntity
  8
Sketch
  6
ByLayer
 62
  256
370
   -1
100
AcDbLine
 10
151.586623376
 20
-8.001265576
 11
152.103073792
 21
-9.420201433000001
  0
LINE
  5
16A
100
AcDbEntity
  8
Sketch
  6
ByLayer
 62
  256
370
   -1
100
AcDbLine
 10
140.310311926
 20
-12.105507296
 11
151.586623376
 21
-8.001265576
  0
LINE
  5
16B
100
AcDbEntity
  8
Sketch
  6
ByLayer
 62
  256
370
   -1
100
AcDbLine
 10
170.380475791
 20
-1.160862709
 11
170.896926208
 21
-2.579798567
  0
LINE
  5
16C
100
AcDbEntity
  8
Sketch
  6
ByLayer
 62
  256
370
   -1
100
AcDbLine
 10
170.896926208
 20
-2.579798567
 11
182.173237657
 21
1.524443153
  0
LINE
  5
16D
100
AcDbEntity
  8
Sketch
  6
ByLayer
 62
  256
370
   -1
100
AcDbLine
 10
181.656787241
 20
2.943379011
 11
182.173237657
 21
1.524443153
  0
LINE
  5
16E
100
AcDbEntity
  8
Sketch
  6
ByLayer
 62
  256
370
   -1
100
AcDbLine
 10
170.380475791
 20
-1.160862709
 11
181.656787241
 21
2.943379011
  0
LINE
  5
16F
100
AcDbEntity
  8
Sketch
  6
ByLayer
 62
  256
370
   -1
100
AcDbLine
 10
179.49
 20
38
 11
181
 21
38
  0
LINE
  5
170
100
AcDbEntity
  8
Sketch
  6
ByLayer
 62
  256
370
   -1
100
AcDbLine
 10
181
 20
38
 11
181
 21
50
  0
LINE
  5
171
100
AcDbEntity
  8
Sketch
  6
ByLayer
 62
  256
370
   -1
100
AcDbLine
 10
179.49
 20
50
 11
181
 21
50
  0
LINE
  5
172
100
AcDbEntity
  8
Sketch
  6
ByLayer
 62
  256
370
   -1
100
AcDbLine
 10
179.49
 20
38
 11
179.49
 21
50
  0
LINE
  5
173
100
AcDbEntity
  8
Sketch
  6
ByLayer
 62
  256
370
   -1
100
AcDbLine
 10
73.72499999999999
 20
-16.8
 11
73.22499999999999
 21
-17.3
  0
LINE
  5
174
100
AcDbEntity
  8
Sketch
  6
ByLayer
 62
  256
370
   -1
100
AcDbLine
 10
73.72499999999999
 20
-16.8
 11
73.72499999999999
 21
-14.708660423
  0
ARC
  5
175
100
AcDbEntity
  8
Sketch
  6
ByLayer
 62
  256
370
   -1
100
AcDbCircle
 10
73.825166667
 20
-14.535166667
 40
0.200333333
100
AcDbArc
 50
90
 51
-120
  0
ARC
  5
176
100
AcDbEntity
  8
Sketch
  6
ByLayer
 62
  256
370
   -1
100
AcDbCircle
 10
73.825166667
 20
-14.535166667
 40
0.200333333
100
AcDbArc
 50
30
 51
90
  0
LINE
  5
177
100
AcDbEntity
  8
Sketch
  6
ByLayer
 62
  256
370
   -1
100
AcDbLine
 10
73.998660423
 20
-14.435
 11
83.401339577
 21
-14.435
  0
ARC
  5
178
100
AcDbEntity
  8
Sketch
  6
ByLayer
 62
  256
370
   -1
100
AcDbCircle
 10
83.574833333
 20
-14.535166667
 40
0.200333333
100
AcDbArc
 50
90
 51
150
  0
ARC
  5
179
100
AcDbEntity
  8
Sketch
  6
ByLayer
 62
  256
370
   -1
100
AcDbCircle
 10
83.574833333
 20
-14.535166667
 40
0.200333333
100
AcDbArc
 50
-59.99999999999999
 51
90
  0
LINE
  5
17A
100
AcDbEntity
  8
Sketch
  6
ByLayer
 62
  256
370
   -1
100
AcDbLine
 10
83.675
 20
-16.8
 11
83.675
 21
-14.708660423
  0
LINE
  5
17B
100
AcDbEntity
  8
Sketch
  6
ByLayer
 62
  256
370
   -1
100
AcDbLine
 10
84.175
 20
-17.3
 11
83.675
 21
-16.8
  0
LINE
  5
17C
100
AcDbEntity
  8
Sketch
  6
ByLayer
 62
  256
370
   -1
100
AcDbLine
 10
97.5
 20
-17.3
 11
84.175
 21
-17.3
  0
ARC
  5
17D
100
AcDbEntity
  8
Sketch
  6
ByLayer
 62
  256
370
   -1
100
AcDbCircle
 10
97.5
 20
-16.9
 40
0.4
100
AcDbArc
 50
-90
 51
0
  0
LINE
  5
17E
100
AcDbEntity
  8
Sketch
  6
ByLayer
 62
  256
370
   -1
100
AcDbLine
 10
97.90000000000001
 20
-3.3
 11
97.90000000000001
 21
-16.9
  0
ARC
  5
17F
100
AcDbEntity
  8
Sketch
  6
ByLayer
 62
  256
370
   -1
100
AcDbCircle
 10
98.3
 20
-3.3
 40
0.4
100
AcDbArc
 50
0
 51
-180
  0
LINE
  5
180
100
AcDbEntity
  8
Sketch
  6
ByLayer
 62
  256
370
   -1
100
AcDbLine
 10
98.7
 20
-16.9
 11
98.7
 21
-3.3
  0
ARC
  5
181
100
AcDbEntity
  8
Sketch
  6
ByLayer
 62
  256
370
   -1
100
AcDbCircle
 10
99.09999999999999
 20
-16.9
 40
0.4
100
AcDbArc
 50
180
 51
-90
  0
LINE
  5
182
100
AcDbEntity
  8
Sketch
  6
ByLayer
 62
  256
370
   -1
100
AcDbLine
 10
99.09999999999999
 20
-17.3
 11
101.252786405
 21
-17.3
  0
ARC
  5
183
100
AcDbEntity
  8
Sketch
  6
ByLayer
 62
  256
370
   -1
100
AcDbCircle
 10
101.252786405
 20
-16.9
 40
0.4
100
AcDbArc
 50
-90
 51
-26.565051177
  0
LINE
  5
184
100
AcDbEntity
  8
Sketch
  6
ByLayer
 62
  256
370
   -1
100
AcDbLine
 10
101.610557281
 20
-17.078885438
 11
102.5
 21
-15.3
  0
LINE
  5
185
100
AcDbEntity
  8
Sketch
  6
ByLayer
 62
  256
370
   -1
100
AcDbLine
 10
102.5
 20
-15.3
 11
101.5
 21
-15.3
  0
LINE
  5
186
100
AcDbEntity
  8
Sketch
  6
ByLayer
 62
  256
370
   -1
100
AcDbLine
 10
101.5
 20
-15.3
 11
101.5
 21
-12.5
  0
LINE
  5
187
100
AcDbEntity
  8
Sketch
  6
ByLayer
 62
  256
370
   -1
100
AcDbLine
 10
103.5
 20
-12.5
 11
101.5
 21
-12.5
  0
LINE
  5
188
100
AcDbEntity
  8
Sketch
  6
ByLayer
 62
  256
370
   -1
100
AcDbLine
 10
101.513629669
 20
-5.086765004
 11
103.5
 21
-12.5
  0
ARC
  5
189
100
AcDbEntity
  8
Sketch
  6
ByLayer
 62
  256
370
   -1
100
AcDbCircle
 10
101.9
 20
-4.983237386
 40
0.4
100
AcDbArc
 50
180
 51
-165
  0
LINE
  5
18A
100
AcDbEntity
  8
Sketch
  6
ByLayer
 62
  256
370
   -1
100
AcDbLine
 10
101.5
 20
45.983237386
 11
101.5
 21
-4.983237386
  0
ARC
  5
18B
100
AcDbEntity
  8
Sketch
  6
ByLayer
 62
  256
370
   -1
100
AcDbCircle
 10
101.9
 20
45.983237386
 40
0.4
100
AcDbArc
 50
165
 51
180
  0
LINE
  5
18C
100
AcDbEntity
  8
Sketch
  6
ByLayer
 62
  256
370
   -1
100
AcDbLine
 10
103.5
 20
53.5
 11
101.513629669
 21
46.086765004
  0
LINE
  5
18D
100
AcDbEntity
  8
Sketch
  6
ByLayer
 62
  256
370
   -1
100
AcDbLine
 10
101.5
 20
53.5
 11
103.5
 21
53.5
  0
LINE
  5
18E
100
AcDbEntity
  8
Sketch
  6
ByLayer
 62
  256
370
   -1
100
AcDbLine
 10
101.5
 20
56.3
 11
101.5
 21
53.5
  0
LINE
  5
18F
100
AcDbEntity
  8
Sketch
  6
ByLayer
 62
  256
370
   -1
100
AcDbLine
 10
102.5
 20
56.3
 11
101.5
 21
56.3
  0
LINE
  5
190
100
AcDbEntity
  8
Sketch
  6
ByLayer
 62
  256
370
   -1
100
AcDbLine
 10
101.610557281
 20
58.078885438
 11
102.5
 21
56.3
  0
ARC
  5
191
100
AcDbEntity
  8
Sketch
  6
ByLayer
 62
  256
370
   -1
100
AcDbCircle
 10
101.252786405
 20
57.9
 40
0.4
100
AcDbArc
 50
26.565051177
 51
90
  0
LINE
  5
192
100
AcDbEntity
  8
Sketch
  6
ByLayer
 62
  256
370
   -1
100
AcDbLine
 10
101.252786405
 20
58.3
 11
99.09999999999999
 21
58.3
  0
ARC
  5
193
100
AcDbEntity
  8
Sketch
  6
ByLayer
 62
  256
370
   -1
100
AcDbCircle
 10
99.09999999999999
 20
57.9
 40
0.4
100
AcDbArc
 50
90
 51
180
  0
LINE
  5
194
100
AcDbEntity
  8
Sketch
  6
ByLayer
 62
  256
370
   -1
100
AcDbLine
 10
98.7
 20
57.9
 11
98.7
 21
44.3
  0
ARC
  5
195
100
AcDbEntity
  8
Sketch
  6
ByLayer
 62
  256
370
   -1
100
AcDbCircle
 10
98.3
 20
44.3
 40
0.4
100
AcDbArc
 50
180
 51
0
  0
LINE
  5
196
100
AcDbEntity
  8
Sketch
  6
ByLayer
 62
  256
370
   -1
100
AcDbLine
 10
97.90000000000001
 20
44.3
 11
97.90000000000001
 21
57.9
  0
ARC
  5
197
100
AcDbEntity
  8
Sketch
  6
ByLayer
 62
  256
370
   -1
100
AcDbCircle
 10
97.5
 20
57.9
 40
0.4
100
AcDbArc
 50
0
 51
90
  0
LINE
  5
198
100
AcDbEntity
  8
Sketch
  6
ByLayer
 62
  256
370
   -1
100
AcDbLine
 10
97.5
 20
58.3
 11
84.175
 21
58.3
  0
LINE
  5
199
100
AcDbEntity
  8
Sketch
  6
ByLayer
 62
  256
370
   -1
100
AcDbLine
 10
83.675
 20
57.8
 11
84.175
 21
58.3
  0
LINE
  5
19A
100
AcDbEntity
  8
Sketch
  6
ByLayer
 62
  256
370
   -1
100
AcDbLine
 10
83.675
 20
55.708660423
 11
83.675
 21
57.8
  0
ARC
  5
19B
100
AcDbEntity
  8
Sketch
  6
ByLayer
 62
  256
370
   -1
100
AcDbCircle
 10
83.574833333
 20
55.535166667
 40
0.200333333
100
AcDbArc
 50
-150
 51
59.99999999999999
  0
LINE
  5
19C
100
AcDbEntity
  8
Sketch
  6
ByLayer
 62
  256
370
   -1
100
AcDbLine
 10
73.998660423
 20
55.435
 11
83.401339577
 21
55.435
  0
ARC
  5
19D
100
AcDbEntity
  8
Sketch
  6
ByLayer
 62
  256
370
   -1
100
AcDbCircle
 10
73.825166667
 20
55.535166667
 40
0.200333333
100
AcDbArc
 50
120
 51
-30
  0
LINE
  5
19E
100
AcDbEntity
  8
Sketch
  6
ByLayer
 62
  256
370
   -1
100
AcDbLine
 10
73.72499999999999
 20
55.708660423
 11
73.72499999999999
 21
57.8
  0
LINE
  5
19F
100
AcDbEntity
  8
Sketch
  6
ByLayer
 62
  256
370
   -1
100
AcDbLine
 10
73.22499999999999
 20
58.3
 11
73.72499999999999
 21
57.8
  0
LINE
  5
1A0
100
AcDbEntity
  8
Sketch
  6
ByLayer
 62
  256
370
   -1
100
AcDbLine
 10
73.22499999999999
 20
58.3
 11
59.2
 21
58.3
  0
LINE
  5
1A1
100
AcDbEntity
  8
Sketch
  6
ByLayer
 62
  256
370
   -1
100
AcDbLine
 10
58.7
 20
57.8
 11
59.2
 21
58.3
  0
LINE
  5
1A2
100
AcDbEntity
  8
Sketch
  6
ByLayer
 62
  256
370
   -1
100
AcDbLine
 10
58.7
 20
57.8
 11
58.7
 21
25.761666667
  0
ARC
  5
1A3
100
AcDbEntity
  8
Sketch
  6
ByLayer
 62
  256
370
   -1
100
AcDbCircle
 10
58.7
 20
25.575
 40
0.186666667
100
AcDbArc
 50
-90
 51
90
  0
ARC
  5
1A4
100
AcDbEntity
  8
Sketch
  6
ByLayer
 62
  256
370
   -1
100
AcDbCircle
 10
58.7
 20
25.575
 40
0.186666667
100
AcDbArc
 50
180
 51
-90
  0
LINE
  5
1A5
100
AcDbEntity
  8
Sketch
  6
ByLayer
 62
  256
370
   -1
100
AcDbLine
 10
58.513333333
 20
25.575
 11
56.4
 21
25.575
  0
LINE
  5
1A6
100
AcDbEntity
  8
Sketch
  6
ByLayer
 62
  256
370
   -1
100
AcDbLine
 10
55.9
 20
25.075
 11
56.4
 21
25.575
  0
LINE
  5
1A7
100
AcDbEntity
  8
Sketch
  6
ByLayer
 62
  256
370
   -1
100
AcDbLine
 10
55.9
 20
15.925
 11
55.9
 21
25.075
  0
LINE
  5
1A8
100
AcDbEntity
  8
Sketch
  6
ByLayer
 62
  256
370
   -1
100
AcDbLine
 10
56.4
 20
15.425
 11
55.9
 21
15.925
  0
LINE
  5
1A9
100
AcDbEntity
  8
Sketch
  6
ByLayer
 62
  256
370
   -1
100
AcDbLine
 10
58.513333333
 20
15.425
 11
56.4
 21
15.425
  0
ARC
  5
1AA
100
AcDbEntity
  8
Sketch
  6
ByLayer
 62
  256
370
   -1
100
AcDbCircle
 10
58.7
 20
15.425
 40
0.186666667
100
AcDbArc
 50
90
 51
180
  0
ARC
  5
1AB
100
AcDbEntity
  8
Sketch
  6
ByLayer
 62
  256
370
   -1
100
AcDbCircle
 10
58.7
 20
15.425
 40
0.186666667
100
AcDbArc
 50
-90
 51
90
  0
LINE
  5
1AC
100
AcDbEntity
  8
Sketch
  6
ByLayer
 62
  256
370
   -1
100
AcDbLine
 10
58.7
 20
15.238333333
 11
58.7
 21
-16.8
  0
LINE
  5
1AD
100
AcDbEntity
  8
Sketch
  6
ByLayer
 62
  256
370
   -1
100
AcDbLine
 10
59.2
 20
-17.3
 11
58.7
 21
-16.8
  0
LINE
  5
1AE
100
AcDbEntity
  8
Sketch
  6
ByLayer
 62
  256
370
   -1
100
AcDbLine
 10
73.22499999999999
 20
-17.3
 11
59.2
 21
-17.3
  0
LINE
  5
1AF
100
AcDbEntity
  8
Sketch
  6
ByLayer
 62
  256
370
   -1
100
AcDbLine
 10
54.3
 20
-16.8
 11
54.3
 21
57.8
  0
LINE
  5
1B0
100
AcDbEntity
  8
Sketch
  6
ByLayer
 62
  256
370
   -1
100
AcDbLine
 10
54.3
 20
57.8
 11
53.8
 21
58.3
  0
LINE
  5
1B1
100
AcDbEntity
  8
Sketch
  6
ByLayer
 62
  256
370
   -1
100
AcDbLine
 10
53.8
 20
58.3
 11
41.025
 21
58.3
  0
LINE
  5
1B2
100
AcDbEntity
  8
Sketch
  6
ByLayer
 62
  256
370
   -1
100
AcDbLine
 10
41.025
 20
58.3
 11
40.525
 21
57.8
  0
LINE
  5
1B3
100
AcDbEntity
  8
Sketch
  6
ByLayer
 62
  256
370
   -1
100
AcDbLine
 10
40.525
 20
55.708660423
 11
40.525
 21
57.8
  0
ARC
  5
1B4
100
AcDbEntity
  8
Sketch
  6
ByLayer
 62
  256
370
   -1
100
AcDbCircle
 10
40.424833333
 20
55.535166667
 40
0.200333333
100
AcDbArc
 50
-150
 51
59.99999999999999
  0
LINE
  5
1B5
100
AcDbEntity
  8
Sketch
  6
ByLayer
 62
  256
370
   -1
100
AcDbLine
 10
30.848660423
 20
55.435
 11
40.251339577
 21
55.435
  0
ARC
  5
1B6
100
AcDbEntity
  8
Sketch
  6
ByLayer
 62
  256
370
   -1
100
AcDbCircle
 10
30.675166667
 20
55.535166667
 40
0.200333333
100
AcDbArc
 50
120
 51
-30
  0
LINE
  5
1B7
100
AcDbEntity
  8
Sketch
  6
ByLayer
 62
  256
370
   -1
100
AcDbLine
 10
30.575
 20
55.708660423
 11
30.575
 21
57.8
  0
LINE
  5
1B8
100
AcDbEntity
  8
Sketch
  6
ByLayer
 62
  256
370
   -1
100
AcDbLine
 10
30.575
 20
57.8
 11
30.075
 21
58.3
  0
LINE
  5
1B9
100
AcDbEntity
  8
Sketch
  6
ByLayer
 62
  256
370
   -1
100
AcDbLine
 10
30.075
 20
58.3
 11
3.525
 21
58.3
  0
LINE
  5
1BA
100
AcDbEntity
  8
Sketch
  6
ByLayer
 62
  256
370
   -1
100
AcDbLine
 10
3.525
 20
58.3
 11
3.025
 21
57.8
  0
LINE
  5
1BB
100
AcDbEntity
  8
Sketch
  6
ByLayer
 62
  256
370
   -1
100
AcDbLine
 10
3.025
 20
55.708660423
 11
3.025
 21
57.8
  0
ARC
  5
1BC
100
AcDbEntity
  8
Sketch
  6
ByLayer
 62
  256
370
   -1
100
AcDbCircle
 10
2.924833333
 20
55.535166667
 40
0.200333333
100
AcDbArc
 50
-150
 51
59.99999999999999
  0
LINE
  5
1BD
100
AcDbEntity
  8
Sketch
  6
ByLayer
 62
  256
370
   -1
100
AcDbLine
 10
-6.651339577
 20
55.435
 11
2.751339577
 21
55.435
  0
ARC
  5
1BE
100
AcDbEntity
  8
Sketch
  6
ByLayer
 62
  256
370
   -1
100
AcDbCircle
 10
-6.824833333
 20
55.535166667
 40
0.200333333
100
AcDbArc
 50
120
 51
-30
  0
LINE
  5
1BF
100
AcDbEntity
  8
Sketch
  6
ByLayer
 62
  256
370
   -1
100
AcDbLine
 10
-6.925
 20
55.708660423
 11
-6.925
 21
57.8
  0
LINE
  5
1C0
100
AcDbEntity
  8
Sketch
  6
ByLayer
 62
  256
370
   -1
100
AcDbLine
 10
-6.925
 20
57.8
 11
-7.425
 21
58.3
  0
LINE
  5
1C1
100
AcDbEntity
  8
Sketch
  6
ByLayer
 62
  256
370
   -1
100
AcDbLine
 10
-7.425
 20
58.3
 11
-20.2
 21
58.3
  0
LINE
  5
1C2
100
AcDbEntity
  8
Sketch
  6
ByLayer
 62
  256
370
   -1
100
AcDbLine
 10
-20.2
 20
58.3
 11
-20.7
 21
57.8
  0
LINE
  5
1C3
100
AcDbEntity
  8
Sketch
  6
ByLayer
 62
  256
370
   -1
100
AcDbLine
 10
-20.7
 20
57.8
 11
-20.7
 21
37.101666667
  0
ARC
  5
1C4
100
AcDbEntity
  8
Sketch
  6
ByLayer
 62
  256
370
   -1
100
AcDbCircle
 10
-20.7
 20
36.915
 40
0.186666667
100
AcDbArc
 50
-90
 51
90
  0
ARC
  5
1C5
100
AcDbEntity
  8
Sketch
  6
ByLayer
 62
  256
370
   -1
100
AcDbCircle
 10
-20.7
 20
36.915
 40
0.186666667
100
AcDbArc
 50
180
 51
-90
  0
LINE
  5
1C6
100
AcDbEntity
  8
Sketch
  6
ByLayer
 62
  256
370
   -1
100
AcDbLine
 10
-20.886666667
 20
36.915
 11
-23
 21
36.915
  0
LINE
  5
1C7
100
AcDbEntity
  8
Sketch
  6
ByLayer
 62
  256
370
   -1
100
AcDbLine
 10
-23
 20
36.915
 11
-23.5
 21
36.415
  0
LINE
  5
1C8
100
AcDbEntity
  8
Sketch
  6
ByLayer
 62
  256
370
   -1
100
AcDbLine
 10
-23.5
 20
27.265
 11
-23.5
 21
36.415
  0
LINE
  5
1C9
100
AcDbEntity
  8
Sketch
  6
ByLayer
 62
  256
370
   -1
100
AcDbLine
 10
-23.5
 20
27.265
 11
-23
 21
26.765
  0
LINE
  5
1CA
100
AcDbEntity
  8
Sketch
  6
ByLayer
 62
  256
370
   -1
100
AcDbLine
 10
-20.886666667
 20
26.765
 11
-23
 21
26.765
  0
ARC
  5
1CB
100
AcDbEntity
  8
Sketch
  6
ByLayer
 62
  256
370
   -1
100
AcDbCircle
 10
-20.7
 20
26.765
 40
0.186666667
100
AcDbArc
 50
90
 51
180
  0
ARC
  5
1CC
100
AcDbEntity
  8
Sketch
  6
ByLayer
 62
  256
370
   -1
100
AcDbCircle
 10
-20.7
 20
26.765
 40
0.186666667
100
AcDbArc
 50
-90
 51
90
  0
LINE
  5
1CD
100
AcDbEntity
  8
Sketch
  6
ByLayer
 62
  256
370
   -1
100
AcDbLine
 10
-20.7
 20
26.578333333
 11
-20.7
 21
14.421666667
  0
ARC
  5
1CE
100
AcDbEntity
  8
Sketch
  6
ByLayer
 62
  256
370
   -1
100
AcDbCircle
 10
-20.7
 20
14.235
 40
0.186666667
100
AcDbArc
 50
-90
 51
90
  0
ARC
  5
1CF
100
AcDbEntity
  8
Sketch
  6
ByLayer
 62
  256
370
   -1
100
AcDbCircle
 10
-20.7
 20
14.235
 40
0.186666667
100
AcDbArc
 50
180
 51
-90
  0
LINE
  5
1D0
100
AcDbEntity
  8
Sketch
  6
ByLayer
 62
  256
370
   -1
100
AcDbLine
 10
-20.886666667
 20
14.235
 11
-23
 21
14.235
  0
LINE
  5
1D1
100
AcDbEntity
  8
Sketch
  6
ByLayer
 62
  256
370
   -1
100
AcDbLine
 10
-23
 20
14.235
 11
-23.5
 21
13.735
  0
LINE
  5
1D2
100
AcDbEntity
  8
Sketch
  6
ByLayer
 62
  256
370
   -1
100
AcDbLine
 10
-23.5
 20
4.585
 11
-23.5
 21
13.735
  0
LINE
  5
1D3
100
AcDbEntity
  8
Sketch
  6
ByLayer
 62
  256
370
   -1
100
AcDbLine
 10
-23.5
 20
4.585
 11
-23
 21
4.085
  0
LINE
  5
1D4
100
AcDbEntity
  8
Sketch
  6
ByLayer
 62
  256
370
   -1
100
AcDbLine
 10
-20.886666667
 20
4.085
 11
-23
 21
4.085
  0
ARC
  5
1D5
100
AcDbEntity
  8
Sketch
  6
ByLayer
 62
  256
370
   -1
100
AcDbCircle
 10
-20.7
 20
4.085
 40
0.186666667
100
AcDbArc
 50
90
 51
180
  0
ARC
  5
1D6
100
AcDbEntity
  8
Sketch
  6
ByLayer
 62
  256
370
   -1
100
AcDbCircle
 10
-20.7
 20
4.085
 40
0.186666667
100
AcDbArc
 50
-90
 51
90
  0
LINE
  5
1D7
100
AcDbEntity
  8
Sketch
  6
ByLayer
 62
  256
370
   -1
100
AcDbLine
 10
-20.7
 20
3.898333333
 11
-20.7
 21
-16.8
  0
LINE
  5
1D8
100
AcDbEntity
  8
Sketch
  6
ByLayer
 62
  256
370
   -1
100
AcDbLine
 10
-20.7
 20
-16.8
 11
-20.2
 21
-17.3
  0
LINE
  5
1D9
100
AcDbEntity
  8
Sketch
  6
ByLayer
 62
  256
370
   -1
100
AcDbLine
 10
-20.2
 20
-17.3
 11
-7.425
 21
-17.3
  0
LINE
  5
1DA
100
AcDbEntity
  8
Sketch
  6
ByLayer
 62
  256
370
   -1
100
AcDbLine
 10
-7.425
 20
-17.3
 11
-6.925
 21
-16.8
  0
LINE
  5
1DB
100
AcDbEntity
  8
Sketch
  6
ByLayer
 62
  256
370
   -1
100
AcDbLine
 10
-6.925
 20
-16.8
 11
-6.925
 21
-14.708660423
  0
ARC
  5
1DC
100
AcDbEntity
  8
Sketch
  6
ByLayer
 62
  256
370
   -1
100
AcDbCircle
 10
-6.824833333
 20
-14.535166667
 40
0.200333333
100
AcDbArc
 50
90
 51
-120
  0
ARC
  5
1DD
100
AcDbEntity
  8
Sketch
  6
ByLayer
 62
  256
370
   -1
100
AcDbCircle
 10
-6.824833333
 20
-14.535166667
 40
0.200333333
100
AcDbArc
 50
30
 51
90
  0
LINE
  5
1DE
100
AcDbEntity
  8
Sketch
  6
ByLayer
 62
  256
370
   -1
100
AcDbLine
 10
-6.651339577
 20
-14.435
 11
2.751339577
 21
-14.435
  0
ARC
  5
1DF
100
AcDbEntity
  8
Sketch
  6
ByLayer
 62
  256
370
   -1
100
AcDbCircle
 10
2.924833333
 20
-14.535166667
 40
0.200333333
100
AcDbArc
 50
90
 51
150
  0
ARC
  5
1E0
100
AcDbEntity
  8
Sketch
  6
ByLayer
 62
  256
370
   -1
100
AcDbCircle
 10
2.924833333
 20
-14.535166667
 40
0.200333333
100
AcDbArc
 50
-59.99999999999999
 51
90
  0
LINE
  5
1E1
100
AcDbEntity
  8
Sketch
  6
ByLayer
 62
  256
370
   -1
100
AcDbLine
 10
3.025
 20
-16.8
 11
3.025
 21
-14.708660423
  0
LINE
  5
1E2
100
AcDbEntity
  8
Sketch
  6
ByLayer
 62
  256
370
   -1
100
AcDbLine
 10
3.025
 20
-16.8
 11
3.525
 21
-17.3
  0
LINE
  5
1E3
100
AcDbEntity
  8
Sketch
  6
ByLayer
 62
  256
370
   -1
100
AcDbLine
 10
3.525
 20
-17.3
 11
30.075
 21
-17.3
  0
LINE
  5
1E4
100
AcDbEntity
  8
Sketch
  6
ByLayer
 62
  256
370
   -1
100
AcDbLine
 10
30.075
 20
-17.3
 11
30.575
 21
-16.8
  0
LINE
  5
1E5
100
AcDbEntity
  8
Sketch
  6
ByLayer
 62
  256
370
   -1
100
AcDbLine
 10
30.575
 20
-16.8
 11
30.575
 21
-14.708660423
  0
ARC
  5
1E6
100
AcDbEntity
  8
Sketch
  6
ByLayer
 62
  256
370
   -1
100
AcDbCircle
 10
30.675166667
 20
-14.535166667
 40
0.200333333
100
AcDbArc
 50
90
 51
-120
  0
ARC
  5
1E7
100
AcDbEntity
  8
Sketch
  6
ByLayer
 62
  256
370
   -1
100
AcDbCircle
 10
30.675166667
 20
-14.535166667
 40
0.200333333
100
AcDbArc
 50
30
 51
90
  0
LINE
  5
1E8
100
AcDbEntity
  8
Sketch
  6
ByLayer
 62
  256
370
   -1
100
AcDbLine
 10
30.848660423
 20
-14.435
 11
40.251339577
 21
-14.435
  0
ARC
  5
1E9
100
AcDbEntity
  8
Sketch
  6
ByLayer
 62
  256
370
   -1
100
AcDbCircle
 10
40.424833333
 20
-14.535166667
 40
0.200333333
100
AcDbArc
 50
90
 51
150
  0
ARC
  5
1EA
100
AcDbEntity
  8
Sketch
  6
ByLayer
 62
  256
370
   -1
100
AcDbCircle
 10
40.424833333
 20
-14.535166667
 40
0.200333333
100
AcDbArc
 50
-59.99999999999999
 51
90
  0
LINE
  5
1EB
100
AcDbEntity
  8
Sketch
  6
ByLayer
 62
  256
370
   -1
100
AcDbLine
 10
40.525
 20
-16.8
 11
40.525
 21
-14.708660423
  0
LINE
  5
1EC
100
AcDbEntity
  8
Sketch
  6
ByLayer
 62
  256
370
   -1
100
AcDbLine
 10
41.025
 20
-17.3
 11
40.525
 21
-16.8
  0
LINE
  5
1ED
100
AcDbEntity
  8
Sketch
  6
ByLayer
 62
  256
370
   -1
100
AcDbLine
 10
41.025
 20
-17.3
 11
53.8
 21
-17.3
  0
LINE
  5
1EE
100
AcDbEntity
  8
Sketch
  6
ByLayer
 62
  256
370
   -1
100
AcDbLine
 10
54.3
 20
-16.8
 11
53.8
 21
-17.3
  0
LINE
  5
1EF
100
AcDbEntity
  8
Sketch
  6
ByLayer
 62
  256
370
   -1
100
AcDbLine
 10
-75.694914522
 20
-115.5
 11
-75.694914522
 21
-113.408660423
  0
ARC
  5
1F0
100
AcDbEntity
  8
Sketch
  6
ByLayer
 62
  256
370
   -1
100
AcDbCircle
 10
-75.59474785499999
 20
-113.235166667
 40
0.200333333
100
AcDbArc
 50
90
 51
-120
  0
ARC
  5
1F1
100
AcDbEntity
  8
Sketch
  6
ByLayer
 62
  256
370
   -1
100
AcDbCircle
 10
-75.59474785499999
 20
-113.235166667
 40
0.200333333
100
AcDbArc
 50
30
 51
90
  0
LINE
  5
1F2
100
AcDbEntity
  8
Sketch
  6
ByLayer
 62
  256
370
   -1
100
AcDbLine
 10
-75.421254099
 20
-113.135
 11
-66.01857494399999
 21
-113.135
  0
ARC
  5
1F3
100
AcDbEntity
  8
Sketch
  6
ByLayer
 62
  256
370
   -1
100
AcDbCircle
 10
-65.84508118799999
 20
-113.235166667
 40
0.200333333
100
AcDbArc
 50
90
 51
150
  0
ARC
  5
1F4
100
AcDbEntity
  8
Sketch
  6
ByLayer
 62
  256
370
   -1
100
AcDbCircle
 10
-65.84508118799999
 20
-113.235166667
 40
0.200333333
100
AcDbArc
 50
-59.99999999999999
 51
90
  0
LINE
  5
1F5
100
AcDbEntity
  8
Sketch
  6
ByLayer
 62
  256
370
   -1
100
AcDbLine
 10
-65.744914522
 20
-115.5
 11
-65.744914522
 21
-113.408660423
  0
LINE
  5
1F6
100
AcDbEntity
  8
Sketch
  6
ByLayer
 62
  256
370
   -1
100
AcDbLine
 10
-65.244914522
 20
-116
 11
-65.744914522
 21
-115.5
  0
LINE
  5
1F7
100
AcDbEntity
  8
Sketch
  6
ByLayer
 62
  256
370
   -1
100
AcDbLine
 10
-65.244914522
 20
-116
 11
-55.96
 21
-116
  0
LINE
  5
1F8
100
AcDbEntity
  8
Sketch
  6
ByLayer
 62
  256
370
   -1
100
AcDbLine
 10
-55.46
 20
-115.5
 11
-55.96
 21
-116
  0
LINE
  5
1F9
100
AcDbEntity
  8
Sketch
  6
ByLayer
 62
  256
370
   -1
100
AcDbLine
 10
-55.46
 20
-115.5
 11
-55.46
 21
-94.80166666700001
  0
ARC
  5
1FA
100
AcDbEntity
  8
Sketch
  6
ByLayer
 62
  256
370
   -1
100
AcDbCircle
 10
-55.46
 20
-94.61499999999999
 40
0.186666667
100
AcDbArc
 50
90
 51
-90
  0
ARC
  5
1FB
100
AcDbEntity
  8
Sketch
  6
ByLayer
 62
  256
370
   -1
100
AcDbCircle
 10
-55.46
 20
-94.61499999999999
 40
0.186666667
100
AcDbArc
 50
0
 51
90
  0
LINE
  5
1FC
100
AcDbEntity
  8
Sketch
  6
ByLayer
 62
  256
370
   -1
100
AcDbLine
 10
-55.273333333
 20
-94.61499999999999
 11
-53.16
 21
-94.61499999999999
  0
LINE
  5
1FD
100
AcDbEntity
  8
Sketch
  6
ByLayer
 62
  256
370
   -1
100
AcDbLine
 10
-52.66
 20
-94.11499999999999
 11
-53.16
 21
-94.61499999999999
  0
LINE
  5
1FE
100
AcDbEntity
  8
Sketch
  6
ByLayer
 62
  256
370
   -1
100
AcDbLine
 10
-52.66
 20
-84.965
 11
-52.66
 21
-94.11499999999999
  0
LINE
  5
1FF
100
AcDbEntity
  8
Sketch
  6
ByLayer
 62
  256
370
   -1
100
AcDbLine
 10
-53.16
 20
-84.465
 11
-52.66
 21
-84.965
  0
LINE
  5
200
100
AcDbEntity
  8
Sketch
  6
ByLayer
 62
  256
370
   -1
100
AcDbLine
 10
-55.273333333
 20
-84.465
 11
-53.16
 21
-84.465
  0
ARC
  5
201
100
AcDbEntity
  8
Sketch
  6
ByLayer
 62
  256
370
   -1
100
AcDbCircle
 10
-55.46
 20
-84.465
 40
0.186666667
100
AcDbArc
 50
-90
 51
0
  0
ARC
  5
202
100
AcDbEntity
  8
Sketch
  6
ByLayer
 62
  256
370
   -1
100
AcDbCircle
 10
-55.46
 20
-84.465
 40
0.186666667
100
AcDbArc
 50
90
 51
-90
  0
LINE
  5
203
100
AcDbEntity
  8
Sketch
  6
ByLayer
 62
  256
370
   -1
100
AcDbLine
 10
-55.46
 20
-84.27833333300001
 11
-55.46
 21
-72.121666667
  0
ARC
  5
204
100
AcDbEntity
  8
Sketch
  6
ByLayer
 62
  256
370
   -1
100
AcDbCircle
 10
-55.46
 20
-71.935
 40
0.186666667
100
AcDbArc
 50
90
 51
-90
  0
ARC
  5
205
100
AcDbEntity
  8
Sketch
  6
ByLayer
 62
  256
370
   -1
100
AcDbCircle
 10
-55.46
 20
-71.935
 40
0.186666667
100
AcDbArc
 50
0
 51
90
  0
LINE
  5
206
100
AcDbEntity
  8
Sketch
  6
ByLayer
 62
  256
370
   -1
100
AcDbLine
 10
-55.273333333
 20
-71.935
 11
-53.16
 21
-71.935
  0
LINE
  5
207
100
AcDbEntity
  8
Sketch
  6
ByLayer
 62
  256
370
   -1
100
AcDbLine
 10
-52.66
 20
-71.435
 11
-53.16
 21
-71.935
  0
LINE
  5
208
100
AcDbEntity
  8
Sketch
  6
ByLayer
 62
  256
370
   -1
100
AcDbLine
 10
-52.66
 20
-62.285
 11
-52.66
 21
-71.435
  0
LINE
  5
209
100
AcDbEntity
  8
Sketch
  6
ByLayer
 62
  256
370
   -1
100
AcDbLine
 10
-53.16
 20
-61.785
 11
-52.66
 21
-62.285
  0
LINE
  5
20A
100
AcDbEntity
  8
Sketch
  6
ByLayer
 62
  256
370
   -1
100
AcDbLine
 10
-55.273333333
 20
-61.785
 11
-53.16
 21
-61.785
  0
ARC
  5
20B
100
AcDbEntity
  8
Sketch
  6
ByLayer
 62
  256
370
   -1
100
AcDbCircle
 10
-55.46
 20
-61.785
 40
0.186666667
100
AcDbArc
 50
-90
 51
0
  0
ARC
  5
20C
100
AcDbEntity
  8
Sketch
  6
ByLayer
 62
  256
370
   -1
100
AcDbCircle
 10
-55.46
 20
-61.785
 40
0.186666667
100
AcDbArc
 50
90
 51
-90
  0
LINE
  5
20D
100
AcDbEntity
  8
Sketch
  6
ByLayer
 62
  256
370
   -1
100
AcDbLine
 10
-55.46
 20
-61.598333333
 11
-55.46
 21
-40.9
  0
LINE
  5
20E
100
AcDbEntity
  8
Sketch
  6
ByLayer
 62
  256
370
   -1
100
AcDbLine
 10
-55.96
 20
-40.4
 11
-55.46
 21
-40.9
  0
LINE
  5
20F
100
AcDbEntity
  8
Sketch
  6
ByLayer
 62
  256
370
   -1
100
AcDbLine
 10
-55.96
 20
-40.4
 11
-65.244914522
 21
-40.4
  0
LINE
  5
210
100
AcDbEntity
  8
Sketch
  6
ByLayer
 62
  256
370
   -1
100
AcDbLine
 10
-65.744914522
 20
-40.9
 11
-65.244914522
 21
-40.4
  0
LINE
  5
211
100
AcDbEntity
  8
Sketch
  6
ByLayer
 62
  256
370
   -1
100
AcDbLine
 10
-65.744914522
 20
-42.991339577
 11
-65.744914522
 21
-40.9
  0
ARC
  5
212
100
AcDbEntity
  8
Sketch
  6
ByLayer
 62
  256
370
   -1
100
AcDbCircle
 10
-65.84508118799999
 20
-43.164833333
 40
0.200333333
100
AcDbArc
 50
-150
 51
59.99999999999999
  0
LINE
  5
213
100
AcDbEntity
  8
Sketch
  6
ByLayer
 62
  256
370
   -1
100
AcDbLine
 10
-75.421254099
 20
-43.265
 11
-66.01857494399999
 21
-43.265
  0
ARC
  5
214
100
AcDbEntity
  8
Sketch
  6
ByLayer
 62
  256
370
   -1
100
AcDbCircle
 10
-75.59474785499999
 20
-43.164833333
 40
0.200333333
100
AcDbArc
 50
120
 51
-30
  0
LINE
  5
215
100
AcDbEntity
  8
Sketch
  6
ByLayer
 62
  256
370
   -1
100
AcDbLine
 10
-75.694914522
 20
-42.991339577
 11
-75.694914522
 21
-40.9
  0
LINE
  5
216
100
AcDbEntity
  8
Sketch
  6
ByLayer
 62
  256
370
   -1
100
AcDbLine
 10
-76.194914522
 20
-40.4
 11
-75.694914522
 21
-40.9
  0
LINE
  5
217
100
AcDbEntity
  8
Sketch
  6
ByLayer
 62
  256
370
   -1
100
AcDbLine
 10
-76.194914522
 20
-40.4
 11
-82.50013128099999
 21
-40.4
  0
LINE
  5
218
100
AcDbEntity
  8
Sketch
  6
ByLayer
 62
  256
370
   -1
100
AcDbLine
 10
-83.00013128099999
 20
-40.9
 11
-82.50013128099999
 21
-40.4
  0
LINE
  5
219
100
AcDbEntity
  8
Sketch
  6
ByLayer
 62
  256
370
   -1
100
AcDbLine
 10
-83.00013128099999
 20
-40.9
 11
-83.00013128099999
 21
-54.038333333
  0
ARC
  5
21A
100
AcDbEntity
  8
Sketch
  6
ByLayer
 62
  256
370
   -1
100
AcDbCircle
 10
-83.00013128099999
 20
-54.225
 40
0.186666667
100
AcDbArc
 50
-90
 51
90
  0
ARC
  5
21B
100
AcDbEntity
  8
Sketch
  6
ByLayer
 62
  256
370
   -1
100
AcDbCircle
 10
-83.00013128099999
 20
-54.225
 40
0.186666667
100
AcDbArc
 50
180
 51
-90
  0
LINE
  5
21C
100
AcDbEntity
  8
Sketch
  6
ByLayer
 62
  256
370
   -1
100
AcDbLine
 10
-83.186797947
 20
-54.225
 11
-85.30013128100001
 21
-54.225
  0
LINE
  5
21D
100
AcDbEntity
  8
Sketch
  6
ByLayer
 62
  256
370
   -1
100
AcDbLine
 10
-85.80013128100001
 20
-54.725
 11
-85.30013128100001
 21
-54.225
  0
LINE
  5
21E
100
AcDbEntity
  8
Sketch
  6
ByLayer
 62
  256
370
   -1
100
AcDbLine
 10
-85.80013128100001
 20
-63.875
 11
-85.80013128100001
 21
-54.725
  0
LINE
  5
21F
100
AcDbEntity
  8
Sketch
  6
ByLayer
 62
  256
370
   -1
100
AcDbLine
 10
-85.30013128100001
 20
-64.375
 11
-85.80013128100001
 21
-63.875
  0
LINE
  5
220
100
AcDbEntity
  8
Sketch
  6
ByLayer
 62
  256
370
   -1
100
AcDbLine
 10
-83.186797947
 20
-64.375
 11
-85.30013128100001
 21
-64.375
  0
ARC
  5
221
100
AcDbEntity
  8
Sketch
  6
ByLayer
 62
  256
370
   -1
100
AcDbCircle
 10
-83.00013128099999
 20
-64.375
 40
0.186666667
100
AcDbArc
 50
90
 51
180
  0
ARC
  5
222
100
AcDbEntity
  8
Sketch
  6
ByLayer
 62
  256
370
   -1
100
AcDbCircle
 10
-83.00013128099999
 20
-64.375
 40
0.186666667
100
AcDbArc
 50
-90
 51
90
  0
LINE
  5
223
100
AcDbEntity
  8
Sketch
  6
ByLayer
 62
  256
370
   -1
100
AcDbLine
 10
-83.00013128099999
 20
-64.561666667
 11
-83.00013128099999
 21
-91.83833333299999
  0
ARC
  5
224
100
AcDbEntity
  8
Sketch
  6
ByLayer
 62
  256
370
   -1
100
AcDbCircle
 10
-83.00013128099999
 20
-92.02500000000001
 40
0.186666667
100
AcDbArc
 50
-90
 51
90
  0
ARC
  5
225
100
AcDbEntity
  8
Sketch
  6
ByLayer
 62
  256
370
   -1
100
AcDbCircle
 10
-83.00013128099999
 20
-92.02500000000001
 40
0.186666667
100
AcDbArc
 50
180
 51
-90
  0
LINE
  5
226
100
AcDbEntity
  8
Sketch
  6
ByLayer
 62
  256
370
   -1
100
AcDbLine
 10
-83.186797947
 20
-92.02500000000001
 11
-85.30013128100001
 21
-92.02500000000001
  0
LINE
  5
227
100
AcDbEntity
  8
Sketch
  6
ByLayer
 62
  256
370
   -1
100
AcDbLine
 10
-85.80013128100001
 20
-92.52500000000001
 11
-85.30013128100001
 21
-92.02500000000001
  0
LINE
  5
228
100
AcDbEntity
  8
Sketch
  6
ByLayer
 62
  256
370
   -1
100
AcDbLine
 10
-85.80013128100001
 20
-101.675
 11
-85.80013128100001
 21
-92.52500000000001
  0
LINE
  5
229
100
AcDbEntity
  8
Sketch
  6
ByLayer
 62
  256
370
   -1
100
AcDbLine
 10
-85.30013128100001
 20
-102.175
 11
-85.80013128100001
 21
-101.675
  0
LINE
  5
22A
100
AcDbEntity
  8
Sketch
  6
ByLayer
 62
  256
370
   -1
100
AcDbLine
 10
-83.186797947
 20
-102.175
 11
-85.30013128100001
 21
-102.175
  0
ARC
  5
22B
100
AcDbEntity
  8
Sketch
  6
ByLayer
 62
  256
370
   -1
100
AcDbCircle
 10
-83.00013128099999
 20
-102.175
 40
0.186666667
100
AcDbArc
 50
90
 51
180
  0
ARC
  5
22C
100
AcDbEntity
  8
Sketch
  6
ByLayer
 62
  256
370
   -1
100
AcDbCircle
 10
-83.00013128099999
 20
-102.175
 40
0.186666667
100
AcDbArc
 50
-90
 51
90
  0
LINE
  5
22D
100
AcDbEntity
  8
Sketch
  6
ByLayer
 62
  256
370
   -1
100
AcDbLine
 10
-83.00013128099999
 20
-102.361666667
 11
-83.00013128099999
 21
-115.5
  0
LINE
  5
22E
100
AcDbEntity
  8
Sketch
  6
ByLayer
 62
  256
370
   -1
100
AcDbLine
 10
-82.50013128099999
 20
-116
 11
-83.00013128099999
 21
-115.5
  0
LINE
  5
22F
100
AcDbEntity
  8
Sketch
  6
ByLayer
 62
  256
370
   -1
100
AcDbLine
 10
-82.50013128099999
 20
-116
 11
-76.194914522
 21
-116
  0
LINE
  5
230
100
AcDbEntity
  8
Sketch
  6
ByLayer
 62
  256
370
   -1
100
AcDbLine
 10
-75.694914522
 20
-115.5
 11
-76.194914522
 21
-116
  0
CIRCLE
  5
231
100
AcDbEntity
  8
Sketch
  6
ByLayer
 62
  256
370
   -1
100
AcDbCircle
 10
-72.193996316
 20
-78.21499
 40
7.5
  0
LINE
  5
232
100
AcDbEntity
  8
Sketch
  6
ByLayer
 62
  256
370
   -1
100
AcDbLine
 10
-65.169742735
 20
-58.635423634
 11
-71.169683279
 21
-60.99233048
  0
ARC
  5
233
100
AcDbEntity
  8
Sketch
  6
ByLayer
 62
  256
370
   -1
100
AcDbCircle
 10
-69.89
 20
-64.25
 40
3.5
100
AcDbArc
 50
111.445977095
 51
-110.948764149
  0
LINE
  5
234
100
AcDbEntity
  8
Sketch
  6
ByLayer
 62
  256
370
   -1
100
AcDbLine
 10
-71.141365384
 20
-67.51865181300001
 11
-65.121197771
 21
-69.823403064
  0
ARC
  5
235
100
AcDbEntity
  8
Sketch
  6
ByLayer
 62
  256
370
   -1
100
AcDbCircle
 10
-62.97599997
 20
-64.21999995500001
 40
6
100
AcDbArc
 50
-110.948764149
 51
111.445977095
  0
CIRCLE
  5
236
100
AcDbEntity
  8
Sketch
  6
ByLayer
 62
  256
370
   -1
100
AcDbCircle
 10
-65.61
 20
-105.24
 40
5
  0
CIRCLE
  5
237
100
AcDbEntity
  8
Sketch
  6
ByLayer
 62
  256
370
   -1
100
AcDbCircle
 10
-65.70999999999999
 20
-51.16
 40
5
  0
CIRCLE
  5
238
100
AcDbEntity
  8
Sketch
  6
ByLayer
 62
  256
370
   -1
100
AcDbCircle
 10
-67.622
 20
-95.218
 40
3
  0
ARC
  5
239
100
AcDbEntity
  8
Sketch
  6
ByLayer
 62
  256
370
   -1
100
AcDbCircle
 10
-65.61
 20
-89.63
 40
1.5
100
AcDbArc
 50
-90
 51
90
  0
LINE
  5
23A
100
AcDbEntity
  8
Sketch
  6
ByLayer
 62
  256
370
   -1
100
AcDbLine
 10
-65.61
 20
-88.13
 11
-68.11
 21
-88.13
  0
ARC
  5
23B
100
AcDbEntity
  8
Sketch
  6
ByLayer
 62
  256
370
   -1
100
AcDbCircle
 10
-68.11
 20
-89.63
 40
1.5
100
AcDbArc
 50
90
 51
-90
  0
LINE
  5
23C
100
AcDbEntity
  8
Sketch
  6
ByLayer
 62
  256
370
   -1
100
AcDbLine
 10
-65.61
 20
-91.13
 11
-68.11
 21
-91.13
  0
LINE
  5
23D
100
AcDbEntity
  8
Sketch
  6
ByLayer
 62
  256
370
   -1
100
AcDbLine
 10
-101
 20
-14.502185863
 11
-101
 21
-0.378938169
  0
LINE
  5
23E
100
AcDbEntity
  8
Sketch
  6
ByLayer
 62
  256
370
   -1
100
AcDbLine
 10
-100.5
 20
0.121061831
 11
-101
 21
-0.378938169
  0
LINE
  5
23F
100
AcDbEntity
  8
Sketch
  6
ByLayer
 62
  256
370
   -1
100
AcDbLine
 10
-100.5
 20
0.121061831
 11
-25.9
 21
0.121061831
  0
LINE
  5
240
100
AcDbEntity
  8
Sketch
  6
ByLayer
 62
  256
370
   -1
100
AcDbLine
 10
-25.9
 20
0.121061831
 11
-25.4
 21
-0.378938169
  0
LINE
  5
241
100
AcDbEntity
  8
Sketch
  6
ByLayer
 62
  256
370
   -1
100
AcDbLine
 10
-25.4
 20
-0.378938169
 11
-25.4
 21
-14.502185863
  0
LINE
  5
242
100
AcDbEntity
  8
Sketch
  6
ByLayer
 62
  256
370
   -1
100
AcDbLine
 10
-25.4
 20
-14.502185863
 11
-25.9
 21
-15.002185863
  0
LINE
  5
243
100
AcDbEntity
  8
Sketch
  6
ByLayer
 62
  256
370
   -1
100
AcDbLine
 10
-25.9
 20
-15.002185863
 11
-39.038333333
 21
-15.002185863
  0
ARC
  5
244
100
AcDbEntity
  8
Sketch
  6
ByLayer
 62
  256
370
   -1
100
AcDbCircle
 10
-39.225
 20
-15.002185863
 40
0.186666667
100
AcDbArc
 50
-0
 51
-180
  0
ARC
  5
245
100
AcDbEntity
  8
Sketch
  6
ByLayer
 62
  256
370
   -1
100
AcDbCircle
 10
-39.225
 20
-15.002185863
 40
0.186666667
100
AcDbArc
 50
-180
 51
-90
  0
LINE
  5
246
100
AcDbEntity
  8
Sketch
  6
ByLayer
 62
  256
370
   -1
100
AcDbLine
 10
-39.225
 20
-15.18885253
 11
-39.225
 21
-17.302185863
  0
LINE
  5
247
100
AcDbEntity
  8
Sketch
  6
ByLayer
 62
  256
370
   -1
100
AcDbLine
 10
-39.225
 20
-17.302185863
 11
-39.725
 21
-17.802185863
  0
LINE
  5
248
100
AcDbEntity
  8
Sketch
  6
ByLayer
 62
  256
370
   -1
100
AcDbLine
 10
-48.875
 20
-17.802185863
 11
-39.725
 21
-17.802185863
  0
LINE
  5
249
100
AcDbEntity
  8
Sketch
  6
ByLayer
 62
  256
370
   -1
100
AcDbLine
 10
-49.375
 20
-17.302185863
 11
-48.875
 21
-17.802185863
  0
LINE
  5
24A
100
AcDbEntity
  8
Sketch
  6
ByLayer
 62
  256
370
   -1
100
AcDbLine
 10
-49.375
 20
-15.18885253
 11
-49.375
 21
-17.302185863
  0
ARC
  5
24B
100
AcDbEntity
  8
Sketch
  6
ByLayer
 62
  256
370
   -1
100
AcDbCircle
 10
-49.375
 20
-15.002185863
 40
0.186666667
100
AcDbArc
 50
-90
 51
-0
  0
ARC
  5
24C
100
AcDbEntity
  8
Sketch
  6
ByLayer
 62
  256
370
   -1
100
AcDbCircle
 10
-49.375
 20
-15.002185863
 40
0.186666667
100
AcDbArc
 50
-0
 51
-180
  0
LINE
  5
24D
100
AcDbEntity
  8
Sketch
  6
ByLayer
 62
  256
370
   -1
100
AcDbLine
 10
-49.561666667
 20
-15.002185863
 11
-76.83833333299999
 21
-15.002185863
  0
ARC
  5
24E
100
AcDbEntity
  8
Sketch
  6
ByLayer
 62
  256
370
   -1
100
AcDbCircle
 10
-77.02500000000001
 20
-15.002185863
 40
0.186666667
100
AcDbArc
 50
-0
 51
-180
  0
ARC
  5
24F
100
AcDbEntity
  8
Sketch
  6
ByLayer
 62
  256
370
   -1
100
AcDbCircle
 10
-77.02500000000001
 20
-15.002185863
 40
0.186666667
100
AcDbArc
 50
-180
 51
-90
  0
LINE
  5
250
100
AcDbEntity
  8
Sketch
  6
ByLayer
 62
  256
370
   -1
100
AcDbLine
 10
-77.02500000000001
 20
-15.18885253
 11
-77.02500000000001
 21
-17.302185863
  0
LINE
  5
251
100
AcDbEntity
  8
Sketch
  6
ByLayer
 62
  256
370
   -1
100
AcDbLine
 10
-77.52500000000001
 20
-17.802185863
 11
-77.02500000000001
 21
-17.302185863
  0
LINE
  5
252
100
AcDbEntity
  8
Sketch
  6
ByLayer
 62
  256
370
   -1
100
AcDbLine
 10
-86.675
 20
-17.802185863
 11
-77.52500000000001
 21
-17.802185863
  0
LINE
  5
253
100
AcDbEntity
  8
Sketch
  6
ByLayer
 62
  256
370
   -1
100
AcDbLine
 10
-87.175
 20
-17.302185863
 11
-86.675
 21
-17.802185863
  0
LINE
  5
254
100
AcDbEntity
  8
Sketch
  6
ByLayer
 62
  256
370
   -1
100
AcDbLine
 10
-87.175
 20
-15.18885253
 11
-87.175
 21
-17.302185863
  0
ARC
  5
255
100
AcDbEntity
  8
Sketch
  6
ByLayer
 62
  256
370
   -1
100
AcDbCircle
 10
-87.175
 20
-15.002185863
 40
0.186666667
100
AcDbArc
 50
-90
 51
-0
  0
ARC
  5
256
100
AcDbEntity
  8
Sketch
  6
ByLayer
 62
  256
370
   -1
100
AcDbCircle
 10
-87.175
 20
-15.002185863
 40
0.186666667
100
AcDbArc
 50
-0
 51
-180
  0
LINE
  5
257
100
AcDbEntity
  8
Sketch
  6
ByLayer
 62
  256
370
   -1
100
AcDbLine
 10
-87.36166666699999
 20
-15.002185863
 11
-100.5
 21
-15.002185863
  0
LINE
  5
258
100
AcDbEntity
  8
Sketch
  6
ByLayer
 62
  256
370
   -1
100
AcDbLine
 10
-101
 20
-14.502185863
 11
-100.5
 21
-15.002185863
  0
ARC
  5
259
100
AcDbEntity
  8
Sketch
  6
ByLayer
 62
  256
370
   -1
100
AcDbCircle
 10
48.315166667
 20
-73.325166667
 40
0.200333333
100
AcDbArc
 50
30
 51
180
  0
LINE
  5
25A
100
AcDbEntity
  8
Sketch
  6
ByLayer
 62
  256
370
   -1
100
AcDbLine
 10
50.58
 20
-73.22499999999999
 11
48.488660423
 21
-73.22499999999999
  0
LINE
  5
25B
100
AcDbEntity
  8
Sketch
  6
ByLayer
 62
  256
370
   -1
100
AcDbLine
 10
50.58
 20
-73.22499999999999
 11
51.08
 21
-72.72499999999999
  0
LINE
  5
25C
100
AcDbEntity
  8
Sketch
  6
ByLayer
 62
  256
370
   -1
100
AcDbLine
 10
51.08
 20
-52.716762614
 11
51.08
 21
-72.72499999999999
  0
ARC
  5
25D
100
AcDbEntity
  8
Sketch
  6
ByLayer
 62
  256
370
   -1
100
AcDbCircle
 10
51.48
 20
-52.716762614
 40
0.4
100
AcDbArc
 50
165
 51
180
  0
LINE
  5
25E
100
AcDbEntity
  8
Sketch
  6
ByLayer
 62
  256
370
   -1
100
AcDbLine
 10
53.08
 20
-45.2
 11
51.093629669
 21
-52.613234996
  0
LINE
  5
25F
100
AcDbEntity
  8
Sketch
  6
ByLayer
 62
  256
370
   -1
100
AcDbLine
 10
51.08
 20
-45.2
 11
53.08
 21
-45.2
  0
LINE
  5
260
100
AcDbEntity
  8
Sketch
  6
ByLayer
 62
  256
370
   -1
100
AcDbLine
 10
51.08
 20
-42.4
 11
51.08
 21
-45.2
  0
LINE
  5
261
100
AcDbEntity
  8
Sketch
  6
ByLayer
 62
  256
370
   -1
100
AcDbLine
 10
52.08
 20
-42.4
 11
51.08
 21
-42.4
  0
LINE
  5
262
100
AcDbEntity
  8
Sketch
  6
ByLayer
 62
  256
370
   -1
100
AcDbLine
 10
51.190557281
 20
-40.621114562
 11
52.08
 21
-42.4
  0
ARC
  5
263
100
AcDbEntity
  8
Sketch
  6
ByLayer
 62
  256
370
   -1
100
AcDbCircle
 10
50.832786405
 20
-40.8
 40
0.4
100
AcDbArc
 50
26.565051177
 51
90
  0
LINE
  5
264
100
AcDbEntity
  8
Sketch
  6
ByLayer
 62
  256
370
   -1
100
AcDbLine
 10
50.832786405
 20
-40.4
 11
48.68
 21
-40.4
  0
ARC
  5
265
100
AcDbEntity
  8
Sketch
  6
ByLayer
 62
  256
370
   -1
100
AcDbCircle
 10
48.68
 20
-40.8
 40
0.4
100
AcDbArc
 50
90
 51
180
  0
LINE
  5
266
100
AcDbEntity
  8
Sketch
  6
ByLayer
 62
  256
370
   -1
100
AcDbLine
 10
48.28
 20
-40.8
 11
48.28
 21
-54.4
  0
ARC
  5
267
100
AcDbEntity
  8
Sketch
  6
ByLayer
 62
  256
370
   -1
100
AcDbCircle
 10
47.88
 20
-54.4
 40
0.4
100
AcDbArc
 50
180
 51
0
  0
LINE
  5
268
100
AcDbEntity
  8
Sketch
  6
ByLayer
 62
  256
370
   -1
100
AcDbLine
 10
47.48
 20
-54.4
 11
47.48
 21
-40.8
  0
ARC
  5
269
100
AcDbEntity
  8
Sketch
  6
ByLayer
 62
  256
370
   -1
100
AcDbCircle
 10
47.08
 20
-40.8
 40
0.4
100
AcDbArc
 50
0
 51
90
  0
LINE
  5
26A
100
AcDbEntity
  8
Sketch
  6
ByLayer
 62
  256
370
   -1
100
AcDbLine
 10
47.08
 20
-40.4
 11
30.005
 21
-40.4
  0
LINE
  5
26B
100
AcDbEntity
  8
Sketch
  6
ByLayer
 62
  256
370
   -1
100
AcDbLine
 10
30.005
 20
-40.4
 11
29.505
 21
-40.9
  0
LINE
  5
26C
100
AcDbEntity
  8
Sketch
  6
ByLayer
 62
  256
370
   -1
100
AcDbLine
 10
29.505
 20
-40.9
 11
29.505
 21
-42.991339577
  0
ARC
  5
26D
100
AcDbEntity
  8
Sketch
  6
ByLayer
 62
  256
370
   -1
100
AcDbCircle
 10
29.404833333
 20
-43.164833333
 40
0.200333333
100
AcDbArc
 50
-90
 51
59.99999999999999
  0
ARC
  5
26E
100
AcDbEntity
  8
Sketch
  6
ByLayer
 62
  256
370
   -1
100
AcDbCircle
 10
29.404833333
 20
-43.164833333
 40
0.200333333
100
AcDbArc
 50
-150
 51
-90
  0
LINE
  5
26F
100
AcDbEntity
  8
Sketch
  6
ByLayer
 62
  256
370
   -1
100
AcDbLine
 10
19.828660423
 20
-43.265
 11
29.231339577
 21
-43.265
  0
ARC
  5
270
100
AcDbEntity
  8
Sketch
  6
ByLayer
 62
  256
370
   -1
100
AcDbCircle
 10
19.655166667
 20
-43.164833333
 40
0.200333333
100
AcDbArc
 50
-90
 51
-30
  0
ARC
  5
271
100
AcDbEntity
  8
Sketch
  6
ByLayer
 62
  256
370
   -1
100
AcDbCircle
 10
19.655166667
 20
-43.164833333
 40
0.200333333
100
AcDbArc
 50
120
 51
-90
  0
LINE
  5
272
100
AcDbEntity
  8
Sketch
  6
ByLayer
 62
  256
370
   -1
100
AcDbLine
 10
19.555
 20
-40.9
 11
19.555
 21
-42.991339577
  0
LINE
  5
273
100
AcDbEntity
  8
Sketch
  6
ByLayer
 62
  256
370
   -1
100
AcDbLine
 10
19.555
 20
-40.9
 11
19.055
 21
-40.4
  0
LINE
  5
274
100
AcDbEntity
  8
Sketch
  6
ByLayer
 62
  256
370
   -1
100
AcDbLine
 10
19.055
 20
-40.4
 11
-17.495
 21
-40.4
  0
LINE
  5
275
100
AcDbEntity
  8
Sketch
  6
ByLayer
 62
  256
370
   -1
100
AcDbLine
 10
-17.495
 20
-40.4
 11
-17.995
 21
-40.9
  0
LINE
  5
276
100
AcDbEntity
  8
Sketch
  6
ByLayer
 62
  256
370
   -1
100
AcDbLine
 10
-17.995
 20
-40.9
 11
-17.995
 21
-42.991339577
  0
ARC
  5
277
100
AcDbEntity
  8
Sketch
  6
ByLayer
 62
  256
370
   -1
100
AcDbCircle
 10
-18.095166667
 20
-43.164833333
 40
0.200333333
100
AcDbArc
 50
-90
 51
59.99999999999999
  0
ARC
  5
278
100
AcDbEntity
  8
Sketch
  6
ByLayer
 62
  256
370
   -1
100
AcDbCircle
 10
-18.095166667
 20
-43.164833333
 40
0.200333333
100
AcDbArc
 50
-150
 51
-90
  0
LINE
  5
279
100
AcDbEntity
  8
Sketch
  6
ByLayer
 62
  256
370
   -1
100
AcDbLine
 10
-27.671339577
 20
-43.265
 11
-18.268660423
 21
-43.265
  0
ARC
  5
27A
100
AcDbEntity
  8
Sketch
  6
ByLayer
 62
  256
370
   -1
100
AcDbCircle
 10
-27.844833333
 20
-43.164833333
 40
0.200333333
100
AcDbArc
 50
-90
 51
-30
  0
ARC
  5
27B
100
AcDbEntity
  8
Sketch
  6
ByLayer
 62
  256
370
   -1
100
AcDbCircle
 10
-27.844833333
 20
-43.164833333
 40
0.200333333
100
AcDbArc
 50
120
 51
-90
  0
LINE
  5
27C
100
AcDbEntity
  8
Sketch
  6
ByLayer
 62
  256
370
   -1
100
AcDbLine
 10
-27.945
 20
-40.9
 11
-27.945
 21
-42.991339577
  0
LINE
  5
27D
100
AcDbEntity
  8
Sketch
  6
ByLayer
 62
  256
370
   -1
100
AcDbLine
 10
-27.945
 20
-40.9
 11
-28.445
 21
-40.4
  0
LINE
  5
27E
100
AcDbEntity
  8
Sketch
  6
ByLayer
 62
  256
370
   -1
100
AcDbLine
 10
-28.445
 20
-40.4
 11
-45.52
 21
-40.4
  0
ARC
  5
27F
100
AcDbEntity
  8
Sketch
  6
ByLayer
 62
  256
370
   -1
100
AcDbCircle
 10
-45.52
 20
-40.8
 40
0.4
100
AcDbArc
 50
90
 51
180
  0
LINE
  5
280
100
AcDbEntity
  8
Sketch
  6
ByLayer
 62
  256
370
   -1
100
AcDbLine
 10
-45.92
 20
-40.8
 11
-45.92
 21
-54.4
  0
ARC
  5
281
100
AcDbEntity
  8
Sketch
  6
ByLayer
 62
  256
370
   -1
100
AcDbCircle
 10
-46.32
 20
-54.4
 40
0.4
100
AcDbArc
 50
180
 51
0
  0
LINE
  5
282
100
AcDbEntity
  8
Sketch
  6
ByLayer
 62
  256
370
   -1
100
AcDbLine
 10
-46.72
 20
-54.4
 11
-46.72
 21
-40.8
  0
ARC
  5
283
100
AcDbEntity
  8
Sketch
  6
ByLayer
 62
  256
370
   -1
100
AcDbCircle
 10
-47.12
 20
-40.8
 40
0.4
100
AcDbArc
 50
-0
 51
90
  0
LINE
  5
284
100
AcDbEntity
  8
Sketch
  6
ByLayer
 62
  256
370
   -1
100
AcDbLine
 10
-47.12
 20
-40.4
 11
-49.272786405
 21
-40.4
  0
ARC
  5
285
100
AcDbEntity
  8
Sketch
  6
ByLayer
 62
  256
370
   -1
100
AcDbCircle
 10
-49.272786405
 20
-40.8
 40
0.4
100
AcDbArc
 50
90
 51
153.434948823
  0
LINE
  5
286
100
AcDbEntity
  8
Sketch
  6
ByLayer
 62
  256
370
   -1
100
AcDbLine
 10
-49.630557281
 20
-40.621114562
 11
-50.52
 21
-42.4
  0
LINE
  5
287
100
AcDbEntity
  8
Sketch
  6
ByLayer
 62
  256
370
   -1
100
AcDbLine
 10
-50.52
 20
-42.4
 11
-49.52
 21
-42.4
  0
LINE
  5
288
100
AcDbEntity
  8
Sketch
  6
ByLayer
 62
  256
370
   -1
100
AcDbLine
 10
-49.52
 20
-42.4
 11
-49.52
 21
-45.2
  0
LINE
  5
289
100
AcDbEntity
  8
Sketch
  6
ByLayer
 62
  256
370
   -1
100
AcDbLine
 10
-51.52
 20
-45.2
 11
-49.52
 21
-45.2
  0
LINE
  5
28A
100
AcDbEntity
  8
Sketch
  6
ByLayer
 62
  256
370
   -1
100
AcDbLine
 10
-49.533629669
 20
-52.613234996
 11
-51.52
 21
-45.2
  0
ARC
  5
28B
100
AcDbEntity
  8
Sketch
  6
ByLayer
 62
  256
370
   -1
100
AcDbCircle
 10
-49.92
 20
-52.716762614
 40
0.4
100
AcDbArc
 50
0
 51
15
  0
LINE
  5
28C
100
AcDbEntity
  8
Sketch
  6
ByLayer
 62
  256
370
   -1
100
AcDbLine
 10
-49.52
 20
-103.683237386
 11
-49.52
 21
-52.716762614
  0
ARC
  5
28D
100
AcDbEntity
  8
Sketch
  6
ByLayer
 62
  256
370
   -1
100
AcDbCircle
 10
-49.92
 20
-103.683237386
 40
0.4
100
AcDbArc
 50
-15
 51
0
  0
LINE
  5
28E
100
AcDbEntity
  8
Sketch
  6
ByLayer
 62
  256
370
   -1
100
AcDbLine
 10
-51.52
 20
-111.2
 11
-49.533629669
 21
-103.786765004
  0
LINE
  5
28F
100
AcDbEntity
  8
Sketch
  6
ByLayer
 62
  256
370
   -1
100
AcDbLine
 10
-49.52
 20
-111.2
 11
-51.52
 21
-111.2
  0
LINE
  5
290
100
AcDbEntity
  8
Sketch
  6
ByLayer
 62
  256
370
   -1
100
AcDbLine
 10
-49.52
 20
-114
 11
-49.52
 21
-111.2
  0
LINE
  5
291
100
AcDbEntity
  8
Sketch
  6
ByLayer
 62
  256
370
   -1
100
AcDbLine
 10
-50.52
 20
-114
 11
-49.52
 21
-114
  0
LINE
  5
292
100
AcDbEntity
  8
Sketch
  6
ByLayer
 62
  256
370
   -1
100
AcDbLine
 10
-49.630557281
 20
-115.778885438
 11
-50.52
 21
-114
  0
ARC
  5
293
100
AcDbEntity
  8
Sketch
  6
ByLayer
 62
  256
370
   -1
100
AcDbCircle
 10
-49.272786405
 20
-115.6
 40
0.4
100
AcDbArc
 50
-153.434948823
 51
-90
  0
LINE
  5
294
100
AcDbEntity
  8
Sketch
  6
ByLayer
 62
  256
370
   -1
100
AcDbLine
 10
-49.272786405
 20
-116
 11
-47.12
 21
-116
  0
ARC
  5
295
100
AcDbEntity
  8
Sketch
  6
ByLayer
 62
  256
370
   -1
100
AcDbCircle
 10
-47.12
 20
-115.6
 40
0.4
100
AcDbArc
 50
-90
 51
0
  0
LINE
  5
296
100
AcDbEntity
  8
Sketch
  6
ByLayer
 62
  256
370
   -1
100
AcDbLine
 10
-46.72
 20
-115.6
 11
-46.72
 21
-102
  0
ARC
  5
297
100
AcDbEntity
  8
Sketch
  6
ByLayer
 62
  256
370
   -1
100
AcDbCircle
 10
-46.32
 20
-102
 40
0.4
100
AcDbArc
 50
0
 51
180
  0
LINE
  5
298
100
AcDbEntity
  8
Sketch
  6
ByLayer
 62
  256
370
   -1
100
AcDbLine
 10
-45.92
 20
-102
 11
-45.92
 21
-115.6
  0
ARC
  5
299
100
AcDbEntity
  8
Sketch
  6
ByLayer
 62
  256
370
   -1
100
AcDbCircle
 10
-45.52
 20
-115.6
 40
0.4
100
AcDbArc
 50
180
 51
-90
  0
LINE
  5
29A
100
AcDbEntity
  8
Sketch
  6
ByLayer
 62
  256
370
   -1
100
AcDbLine
 10
-45.52
 20
-116
 11
-28.445
 21
-116
  0
LINE
  5
29B
100
AcDbEntity
  8
Sketch
  6
ByLayer
 62
  256
370
   -1
100
AcDbLine
 10
-28.445
 20
-116
 11
-27.945
 21
-115.5
  0
LINE
  5
29C
100
AcDbEntity
  8
Sketch
  6
ByLayer
 62
  256
370
   -1
100
AcDbLine
 10
-27.945
 20
-113.408660423
 11
-27.945
 21
-115.5
  0
ARC
  5
29D
100
AcDbEntity
  8
Sketch
  6
ByLayer
 62
  256
370
   -1
100
AcDbCircle
 10
-27.844833333
 20
-113.235166667
 40
0.200333333
100
AcDbArc
 50
30
 51
-120
  0
LINE
  5
29E
100
AcDbEntity
  8
Sketch
  6
ByLayer
 62
  256
370
   -1
100
AcDbLine
 10
-27.671339577
 20
-113.135
 11
-18.268660423
 21
-113.135
  0
ARC
  5
29F
100
AcDbEntity
  8
Sketch
  6
ByLayer
 62
  256
370
   -1
100
AcDbCircle
 10
-18.095166667
 20
-113.235166667
 40
0.200333333
100
AcDbArc
 50
-59.99999999999999
 51
150
  0
LINE
  5
2A0
100
AcDbEntity
  8
Sketch
  6
ByLayer
 62
  256
370
   -1
100
AcDbLine
 10
-17.995
 20
-113.408660423
 11
-17.995
 21
-115.5
  0
LINE
  5
2A1
100
AcDbEntity
  8
Sketch
  6
ByLayer
 62
  256
370
   -1
100
AcDbLine
 10
-17.995
 20
-115.5
 11
-17.495
 21
-116
  0
LINE
  5
2A2
100
AcDbEntity
  8
Sketch
  6
ByLayer
 62
  256
370
   -1
100
AcDbLine
 10
-17.495
 20
-116
 11
19.055
 21
-116
  0
LINE
  5
2A3
100
AcDbEntity
  8
Sketch
  6
ByLayer
 62
  256
370
   -1
100
AcDbLine
 10
19.055
 20
-116
 11
19.555
 21
-115.5
  0
LINE
  5
2A4
100
AcDbEntity
  8
Sketch
  6
ByLayer
 62
  256
370
   -1
100
AcDbLine
 10
19.555
 20
-113.408660423
 11
19.555
 21
-115.5
  0
ARC
  5
2A5
100
AcDbEntity
  8
Sketch
  6
ByLayer
 62
  256
370
   -1
100
AcDbCircle
 10
19.655166667
 20
-113.235166667
 40
0.200333333
100
AcDbArc
 50
30
 51
-120
  0
LINE
  5
2A6
100
AcDbEntity
  8
Sketch
  6
ByLayer
 62
  256
370
   -1
100
AcDbLine
 10
19.828660423
 20
-113.135
 11
29.231339577
 21
-113.135
  0
ARC
  5
2A7
100
AcDbEntity
  8
Sketch
  6
ByLayer
 62
  256
370
   -1
100
AcDbCircle
 10
29.404833333
 20
-113.235166667
 40
0.200333333
100
AcDbArc
 50
-59.99999999999999
 51
150
  0
LINE
  5
2A8
100
AcDbEntity
  8
Sketch
  6
ByLayer
 62
  256
370
   -1
100
AcDbLine
 10
29.505
 20
-113.408660423
 11
29.505
 21
-115.5
  0
LINE
  5
2A9
100
AcDbEntity
  8
Sketch
  6
ByLayer
 62
  256
370
   -1
100
AcDbLine
 10
29.505
 20
-115.5
 11
30.005
 21
-116
  0
LINE
  5
2AA
100
AcDbEntity
  8
Sketch
  6
ByLayer
 62
  256
370
   -1
100
AcDbLine
 10
30.005
 20
-116
 11
47.08
 21
-116
  0
ARC
  5
2AB
100
AcDbEntity
  8
Sketch
  6
ByLayer
 62
  256
370
   -1
100
AcDbCircle
 10
47.08
 20
-115.6
 40
0.4
100
AcDbArc
 50
-90
 51
-0
  0
LINE
  5
2AC
100
AcDbEntity
  8
Sketch
  6
ByLayer
 62
  256
370
   -1
100
AcDbLine
 10
47.48
 20
-102
 11
47.48
 21
-115.6
  0
ARC
  5
2AD
100
AcDbEntity
  8
Sketch
  6
ByLayer
 62
  256
370
   -1
100
AcDbCircle
 10
47.88
 20
-102
 40
0.4
100
AcDbArc
 50
0
 51
180
  0
LINE
  5
2AE
100
AcDbEntity
  8
Sketch
  6
ByLayer
 62
  256
370
   -1
100
AcDbLine
 10
48.28
 20
-115.6
 11
48.28
 21
-102
  0
ARC
  5
2AF
100
AcDbEntity
  8
Sketch
  6
ByLayer
 62
  256
370
   -1
100
AcDbCircle
 10
48.68
 20
-115.6
 40
0.4
100
AcDbArc
 50
180
 51
-90
  0
LINE
  5
2B0
100
AcDbEntity
  8
Sketch
  6
ByLayer
 62
  256
370
   -1
100
AcDbLine
 10
48.68
 20
-116
 11
50.832786405
 21
-116
  0
ARC
  5
2B1
100
AcDbEntity
  8
Sketch
  6
ByLayer
 62
  256
370
   -1
100
AcDbCircle
 10
50.832786405
 20
-115.6
 40
0.4
100
AcDbArc
 50
-90
 51
-26.565051177
  0
LINE
  5
2B2
100
AcDbEntity
  8
Sketch
  6
ByLayer
 62
  256
370
   -1
100
AcDbLine
 10
51.190557281
 20
-115.778885438
 11
52.08
 21
-114
  0
LINE
  5
2B3
100
AcDbEntity
  8
Sketch
  6
ByLayer
 62
  256
370
   -1
100
AcDbLine
 10
52.08
 20
-114
 11
51.08
 21
-114
  0
LINE
  5
2B4
100
AcDbEntity
  8
Sketch
  6
ByLayer
 62
  256
370
   -1
100
AcDbLine
 10
51.08
 20
-114
 11
51.08
 21
-111.2
  0
LINE
  5
2B5
100
AcDbEntity
  8
Sketch
  6
ByLayer
 62
  256
370
   -1
100
AcDbLine
 10
53.08
 20
-111.2
 11
51.08
 21
-111.2
  0
LINE
  5
2B6
100
AcDbEntity
  8
Sketch
  6
ByLayer
 62
  256
370
   -1
100
AcDbLine
 10
51.093629669
 20
-103.786765004
 11
53.08
 21
-111.2
  0
ARC
  5
2B7
100
AcDbEntity
  8
Sketch
  6
ByLayer
 62
  256
370
   -1
100
AcDbCircle
 10
51.48
 20
-103.683237386
 40
0.4
100
AcDbArc
 50
180
 51
-165
  0
LINE
  5
2B8
100
AcDbEntity
  8
Sketch
  6
ByLayer
 62
  256
370
   -1
100
AcDbLine
 10
51.08
 20
-83.675
 11
51.08
 21
-103.683237386
  0
LINE
  5
2B9
100
AcDbEntity
  8
Sketch
  6
ByLayer
 62
  256
370
   -1
100
AcDbLine
 10
51.08
 20
-83.675
 11
50.58
 21
-83.175
  0
LINE
  5
2BA
100
AcDbEntity
  8
Sketch
  6
ByLayer
 62
  256
370
   -1
100
AcDbLine
 10
50.58
 20
-83.175
 11
48.488660423
 21
-83.175
  0
ARC
  5
2BB
100
AcDbEntity
  8
Sketch
  6
ByLayer
 62
  256
370
   -1
100
AcDbCircle
 10
48.315166667
 20
-83.074833333
 40
0.200333333
100
AcDbArc
 50
180
 51
-30
  0
ARC
  5
2BC
100
AcDbEntity
  8
Sketch
  6
ByLayer
 62
  256
370
   -1
100
AcDbCircle
 10
48.315166667
 20
-83.074833333
 40
0.200333333
100
AcDbArc
 50
120
 51
180
  0
LINE
  5
2BD
100
AcDbEntity
  8
Sketch
  6
ByLayer
 62
  256
370
   -1
100
AcDbLine
 10
48.215
 20
-73.498660423
 11
48.215
 21
-82.901339577
  0
ARC
  5
2BE
100
AcDbEntity
  8
Sketch
  6
ByLayer
 62
  256
370
   -1
100
AcDbCircle
 10
48.315166667
 20
-73.325166667
 40
0.200333333
100
AcDbArc
 50
180
 51
-120
  0
ARC
  5
2BF
100
AcDbEntity
  8
Sketch
  6
ByLayer
 62
  256
370
   -1
100
AcDbCircle
 10
-30.12
 20
-61.81
 40
0.8
100
AcDbArc
 50
-72.393976876
 51
108.718409075
  0
ARC
  5
2C0
100
AcDbEntity
  8
Sketch
  6
ByLayer
 62
  256
370
   -1
100
AcDbCircle
 10
-38.12
 20
-38.2
 40
24.128539869
100
AcDbArc
 50
-108.718409075
 51
-71.281590925
  0
ARC
  5
2C1
100
AcDbEntity
  8
Sketch
  6
ByLayer
 62
  256
370
   -1
100
AcDbCircle
 10
-46.12
 20
-61.81
 40
0.8
100
AcDbArc
 50
71.281590925
 51
-107.606023124
  0
ARC
  5
2C2
100
AcDbEntity
  8
Sketch
  6
ByLayer
 62
  256
370
   -1
100
AcDbCircle
 10
-38.12
 20
-36.6
 40
27.248896007
100
AcDbArc
 50
-107.606023124
 51
-72.393976876
  0
ARC
  5
2C3
100
AcDbEntity
  8
Sketch
  6
ByLayer
 62
  256
370
   -1
100
AcDbCircle
 10
-44.81
 20
-89.59
 40
2.11
100
AcDbArc
 50
180
 51
-75.360002224
  0
ARC
  5
2C4
100
AcDbEntity
  8
Sketch
  6
ByLayer
 62
  256
370
   -1
100
AcDbCircle
 10
-38.12
 20
-115.2
 40
24.359382312
100
AcDbArc
 50
75.360002224
 51
104.639997776
  0
ARC
  5
2C5
100
AcDbEntity
  8
Sketch
  6
ByLayer
 62
  256
370
   -1
100
AcDbCircle
 10
-31.43
 20
-89.59
 40
2.11
100
AcDbArc
 50
-104.639997776
 51
0
  0
LINE
  5
2C6
100
AcDbEntity
  8
Sketch
  6
ByLayer
 62
  256
370
   -1
100
AcDbLine
 10
-29.32
 20
-66.81
 11
-29.32
 21
-89.59
  0
ARC
  5
2C7
100
AcDbEntity
  8
Sketch
  6
ByLayer
 62
  256
370
   -1
100
AcDbCircle
 10
-31.43
 20
-66.81
 40
2.11
100
AcDbArc
 50
0
 51
104.639997776
  0
ARC
  5
2C8
100
AcDbEntity
  8
Sketch
  6
ByLayer
 62
  256
370
   -1
100
AcDbCircle
 10
-38.12
 20
-41.2
 40
24.359382312
100
AcDbArc
 50
-104.640029115
 51
-75.360002224
  0
ARC
  5
2C9
100
AcDbEntity
  8
Sketch
  6
ByLayer
 62
  256
370
   -1
100
AcDbCircle
 10
-44.81
 20
-66.81
 40
2.11
100
AcDbArc
 50
75.360364027
 51
180
  0
LINE
  5
2CA
100
AcDbEntity
  8
Sketch
  6
ByLayer
 62
  256
370
   -1
100
AcDbLine
 10
-46.92
 20
-89.59
 11
-46.92
 21
-66.81
  0
ARC
  5
2CB
100
AcDbEntity
  8
Sketch
  6
ByLayer
 62
  256
370
   -1
100
AcDbCircle
 10
-30.12
 20
-94.59
 40
0.8
100
AcDbArc
 50
-108.718409075
 51
72.393976876
  0
ARC
  5
2CC
100
AcDbEntity
  8
Sketch
  6
ByLayer
 62
  256
370
   -1
100
AcDbCircle
 10
-38.12
 20
-119.8
 40
27.248896007
100
AcDbArc
 50
72.393976876
 51
107.606023124
  0
ARC
  5
2CD
100
AcDbEntity
  8
Sketch
  6
ByLayer
 62
  256
370
   -1
100
AcDbCircle
 10
-46.12
 20
-94.59
 40
0.8
100
AcDbArc
 50
107.606023124
 51
-71.281590925
  0
ARC
  5
2CE
100
AcDbEntity
  8
Sketch
  6
ByLayer
 62
  256
370
   -1
100
AcDbCircle
 10
-38.12
 20
-118.2
 40
24.128539869
100
AcDbArc
 50
71.281590925
 51
108.718409075
  0
ARC
  5
2CF
100
AcDbEntity
  8
Sketch
  6
ByLayer
 62
  256
370
   -1
100
AcDbCircle
 10
94.63516666699999
 20
-61.785166667
 40
0.200333333
100
AcDbArc
 50
30
 51
180
  0
LINE
  5
2D0
100
AcDbEntity
  8
Sketch
  6
ByLayer
 62
  256
370
   -1
100
AcDbLine
 10
96.90000000000001
 20
-61.685
 11
94.80866042300001
 21
-61.685
  0
LINE
  5
2D1
100
AcDbEntity
  8
Sketch
  6
ByLayer
 62
  256
370
   -1
100
AcDbLine
 10
97.40000000000001
 20
-61.185
 11
96.90000000000001
 21
-61.685
  0
LINE
  5
2D2
100
AcDbEntity
  8
Sketch
  6
ByLayer
 62
  256
370
   -1
100
AcDbLine
 10
97.40000000000001
 20
-61.185
 11
97.40000000000001
 21
-52.516762614
  0
ARC
  5
2D3
100
AcDbEntity
  8
Sketch
  6
ByLayer
 62
  256
370
   -1
100
AcDbCircle
 10
97.8
 20
-52.516762614
 40
0.4
100
AcDbArc
 50
165
 51
180
  0
LINE
  5
2D4
100
AcDbEntity
  8
Sketch
  6
ByLayer
 62
  256
370
   -1
100
AcDbLine
 10
97.413629669
 20
-52.413234996
 11
99.40000000000001
 21
-45
  0
LINE
  5
2D5
100
AcDbEntity
  8
Sketch
  6
ByLayer
 62
  256
370
   -1
100
AcDbLine
 10
99.40000000000001
 20
-45
 11
97.40000000000001
 21
-45
  0
LINE
  5
2D6
100
AcDbEntity
  8
Sketch
  6
ByLayer
 62
  256
370
   -1
100
AcDbLine
 10
97.40000000000001
 20
-45
 11
97.40000000000001
 21
-42.2
  0
LINE
  5
2D7
100
AcDbEntity
  8
Sketch
  6
ByLayer
 62
  256
370
   -1
100
AcDbLine
 10
98.40000000000001
 20
-42.2
 11
97.40000000000001
 21
-42.2
  0
LINE
  5
2D8
100
AcDbEntity
  8
Sketch
  6
ByLayer
 62
  256
370
   -1
100
AcDbLine
 10
97.510557281
 20
-40.421114562
 11
98.40000000000001
 21
-42.2
  0
ARC
  5
2D9
100
AcDbEntity
  8
Sketch
  6
ByLayer
 62
  256
370
   -1
100
AcDbCircle
 10
97.152786405
 20
-40.6
 40
0.4
100
AcDbArc
 50
26.565051177
 51
90
  0
LINE
  5
2DA
100
AcDbEntity
  8
Sketch
  6
ByLayer
 62
  256
370
   -1
100
AcDbLine
 10
97.152786405
 20
-40.2
 11
95
 21
-40.2
  0
ARC
  5
2DB
100
AcDbEntity
  8
Sketch
  6
ByLayer
 62
  256
370
   -1
100
AcDbCircle
 10
95
 20
-40.6
 40
0.4
100
AcDbArc
 50
90
 51
180
  0
LINE
  5
2DC
100
AcDbEntity
  8
Sketch
  6
ByLayer
 62
  256
370
   -1
100
AcDbLine
 10
94.59999999999999
 20
-40.6
 11
94.59999999999999
 21
-54.2
  0
ARC
  5
2DD
100
AcDbEntity
  8
Sketch
  6
ByLayer
 62
  256
370
   -1
100
AcDbCircle
 10
94.2
 20
-54.2
 40
0.4
100
AcDbArc
 50
180
 51
0
  0
LINE
  5
2DE
100
AcDbEntity
  8
Sketch
  6
ByLayer
 62
  256
370
   -1
100
AcDbLine
 10
93.8
 20
-54.2
 11
93.8
 21
-40.6
  0
ARC
  5
2DF
100
AcDbEntity
  8
Sketch
  6
ByLayer
 62
  256
370
   -1
100
AcDbCircle
 10
93.40000000000001
 20
-40.6
 40
0.4
100
AcDbArc
 50
0
 51
90
  0
LINE
  5
2E0
100
AcDbEntity
  8
Sketch
  6
ByLayer
 62
  256
370
   -1
100
AcDbLine
 10
93.40000000000001
 20
-40.2
 11
82.575
 21
-40.2
  0
LINE
  5
2E1
100
AcDbEntity
  8
Sketch
  6
ByLayer
 62
  256
370
   -1
100
AcDbLine
 10
82.075
 20
-40.7
 11
82.575
 21
-40.2
  0
LINE
  5
2E2
100
AcDbEntity
  8
Sketch
  6
ByLayer
 62
  256
370
   -1
100
AcDbLine
 10
82.075
 20
-40.7
 11
82.075
 21
-42.791339577
  0
ARC
  5
2E3
100
AcDbEntity
  8
Sketch
  6
ByLayer
 62
  256
370
   -1
100
AcDbCircle
 10
81.97483333300001
 20
-42.964833333
 40
0.200333333
100
AcDbArc
 50
-90
 51
59.99999999999999
  0
ARC
  5
2E4
100
AcDbEntity
  8
Sketch
  6
ByLayer
 62
  256
370
   -1
100
AcDbCircle
 10
81.97483333300001
 20
-42.964833333
 40
0.200333333
100
AcDbArc
 50
-150
 51
-90
  0
LINE
  5
2E5
100
AcDbEntity
  8
Sketch
  6
ByLayer
 62
  256
370
   -1
100
AcDbLine
 10
72.398660423
 20
-43.065
 11
81.80133957699999
 21
-43.065
  0
ARC
  5
2E6
100
AcDbEntity
  8
Sketch
  6
ByLayer
 62
  256
370
   -1
100
AcDbCircle
 10
72.225166667
 20
-42.964833333
 40
0.200333333
100
AcDbArc
 50
-90
 51
-30
  0
ARC
  5
2E7
100
AcDbEntity
  8
Sketch
  6
ByLayer
 62
  256
370
   -1
100
AcDbCircle
 10
72.225166667
 20
-42.964833333
 40
0.200333333
100
AcDbArc
 50
120
 51
-90
  0
LINE
  5
2E8
100
AcDbEntity
  8
Sketch
  6
ByLayer
 62
  256
370
   -1
100
AcDbLine
 10
72.125
 20
-40.7
 11
72.125
 21
-42.791339577
  0
LINE
  5
2E9
100
AcDbEntity
  8
Sketch
  6
ByLayer
 62
  256
370
   -1
100
AcDbLine
 10
71.625
 20
-40.2
 11
72.125
 21
-40.7
  0
LINE
  5
2EA
100
AcDbEntity
  8
Sketch
  6
ByLayer
 62
  256
370
   -1
100
AcDbLine
 10
71.625
 20
-40.2
 11
60.8
 21
-40.2
  0
ARC
  5
2EB
100
AcDbEntity
  8
Sketch
  6
ByLayer
 62
  256
370
   -1
100
AcDbCircle
 10
60.8
 20
-40.6
 40
0.4
100
AcDbArc
 50
90
 51
180
  0
LINE
  5
2EC
100
AcDbEntity
  8
Sketch
  6
ByLayer
 62
  256
370
   -1
100
AcDbLine
 10
60.4
 20
-40.6
 11
60.4
 21
-54.2
  0
ARC
  5
2ED
100
AcDbEntity
  8
Sketch
  6
ByLayer
 62
  256
370
   -1
100
AcDbCircle
 10
60
 20
-54.2
 40
0.4
100
AcDbArc
 50
180
 51
0
  0
LINE
  5
2EE
100
AcDbEntity
  8
Sketch
  6
ByLayer
 62
  256
370
   -1
100
AcDbLine
 10
59.6
 20
-54.2
 11
59.6
 21
-40.6
  0
ARC
  5
2EF
100
AcDbEntity
  8
Sketch
  6
ByLayer
 62
  256
370
   -1
100
AcDbCircle
 10
59.2
 20
-40.6
 40
0.4
100
AcDbArc
 50
0
 51
90
  0
LINE
  5
2F0
100
AcDbEntity
  8
Sketch
  6
ByLayer
 62
  256
370
   -1
100
AcDbLine
 10
59.2
 20
-40.2
 11
57.047213595
 21
-40.2
  0
ARC
  5
2F1
100
AcDbEntity
  8
Sketch
  6
ByLayer
 62
  256
370
   -1
100
AcDbCircle
 10
57.047213595
 20
-40.6
 40
0.4
100
AcDbArc
 50
90
 51
153.434948823
  0
LINE
  5
2F2
100
AcDbEntity
  8
Sketch
  6
ByLayer
 62
  256
370
   -1
100
AcDbLine
 10
56.689442719
 20
-40.421114562
 11
55.8
 21
-42.2
  0
LINE
  5
2F3
100
AcDbEntity
  8
Sketch
  6
ByLayer
 62
  256
370
   -1
100
AcDbLine
 10
55.8
 20
-42.2
 11
56.8
 21
-42.2
  0
LINE
  5
2F4
100
AcDbEntity
  8
Sketch
  6
ByLayer
 62
  256
370
   -1
100
AcDbLine
 10
56.8
 20
-42.2
 11
56.8
 21
-45
  0
LINE
  5
2F5
100
AcDbEntity
  8
Sketch
  6
ByLayer
 62
  256
370
   -1
100
AcDbLine
 10
56.8
 20
-45
 11
54.8
 21
-45
  0
LINE
  5
2F6
100
AcDbEntity
  8
Sketch
  6
ByLayer
 62
  256
370
   -1
100
AcDbLine
 10
54.8
 20
-45
 11
56.786370331
 21
-52.413234996
  0
ARC
  5
2F7
100
AcDbEntity
  8
Sketch
  6
ByLayer
 62
  256
370
   -1
100
AcDbCircle
 10
56.4
 20
-52.516762614
 40
0.4
100
AcDbArc
 50
0
 51
15
  0
LINE
  5
2F8
100
AcDbEntity
  8
Sketch
  6
ByLayer
 62
  256
370
   -1
100
AcDbLine
 10
56.8
 20
-52.516762614
 11
56.8
 21
-61.185
  0
LINE
  5
2F9
100
AcDbEntity
  8
Sketch
  6
ByLayer
 62
  256
370
   -1
100
AcDbLine
 10
57.3
 20
-61.685
 11
56.8
 21
-61.185
  0
LINE
  5
2FA
100
AcDbEntity
  8
Sketch
  6
ByLayer
 62
  256
370
   -1
100
AcDbLine
 10
57.3
 20
-61.685
 11
59.391339577
 21
-61.685
  0
ARC
  5
2FB
100
AcDbEntity
  8
Sketch
  6
ByLayer
 62
  256
370
   -1
100
AcDbCircle
 10
59.564833333
 20
-61.785166667
 40
0.200333333
100
AcDbArc
 50
0
 51
150
  0
ARC
  5
2FC
100
AcDbEntity
  8
Sketch
  6
ByLayer
 62
  256
370
   -1
100
AcDbCircle
 10
59.564833333
 20
-61.785166667
 40
0.200333333
100
AcDbArc
 50
-59.99999999999999
 51
0
  0
LINE
  5
2FD
100
AcDbEntity
  8
Sketch
  6
ByLayer
 62
  256
370
   -1
100
AcDbLine
 10
59.665
 20
-71.361339577
 11
59.665
 21
-61.958660423
  0
ARC
  5
2FE
100
AcDbEntity
  8
Sketch
  6
ByLayer
 62
  256
370
   -1
100
AcDbCircle
 10
59.564833333
 20
-71.53483333299999
 40
0.200333333
100
AcDbArc
 50
0
 51
59.99999999999999
  0
ARC
  5
2FF
100
AcDbEntity
  8
Sketch
  6
ByLayer
 62
  256
370
   -1
100
AcDbCircle
 10
59.564833333
 20
-71.53483333299999
 40
0.200333333
100
AcDbArc
 50
-150
 51
0
  0
LINE
  5
300
100
AcDbEntity
  8
Sketch
  6
ByLayer
 62
  256
370
   -1
100
AcDbLine
 10
57.3
 20
-71.63500000000001
 11
59.391339577
 21
-71.63500000000001
  0
LINE
  5
301
100
AcDbEntity
  8
Sketch
  6
ByLayer
 62
  256
370
   -1
100
AcDbLine
 10
56.8
 20
-72.13500000000001
 11
57.3
 21
-71.63500000000001
  0
LINE
  5
302
100
AcDbEntity
  8
Sketch
  6
ByLayer
 62
  256
370
   -1
100
AcDbLine
 10
56.8
 20
-72.13500000000001
 11
56.8
 21
-83.86499999999999
  0
LINE
  5
303
100
AcDbEntity
  8
Sketch
  6
ByLayer
 62
  256
370
   -1
100
AcDbLine
 10
57.3
 20
-84.36499999999999
 11
56.8
 21
-83.86499999999999
  0
LINE
  5
304
100
AcDbEntity
  8
Sketch
  6
ByLayer
 62
  256
370
   -1
100
AcDbLine
 10
57.3
 20
-84.36499999999999
 11
59.391339577
 21
-84.36499999999999
  0
ARC
  5
305
100
AcDbEntity
  8
Sketch
  6
ByLayer
 62
  256
370
   -1
100
AcDbCircle
 10
59.564833333
 20
-84.46516666700001
 40
0.200333333
100
AcDbArc
 50
0
 51
150
  0
ARC
  5
306
100
AcDbEntity
  8
Sketch
  6
ByLayer
 62
  256
370
   -1
100
AcDbCircle
 10
59.564833333
 20
-84.46516666700001
 40
0.200333333
100
AcDbArc
 50
-59.99999999999999
 51
0
  0
LINE
  5
307
100
AcDbEntity
  8
Sketch
  6
ByLayer
 62
  256
370
   -1
100
AcDbLine
 10
59.665
 20
-94.041339577
 11
59.665
 21
-84.638660423
  0
ARC
  5
308
100
AcDbEntity
  8
Sketch
  6
ByLayer
 62
  256
370
   -1
100
AcDbCircle
 10
59.564833333
 20
-94.214833333
 40
0.200333333
100
AcDbArc
 50
0
 51
59.99999999999999
  0
ARC
  5
309
100
AcDbEntity
  8
Sketch
  6
ByLayer
 62
  256
370
   -1
100
AcDbCircle
 10
59.564833333
 20
-94.214833333
 40
0.200333333
100
AcDbArc
 50
-150
 51
0
  0
LINE
  5
30A
100
AcDbEntity
  8
Sketch
  6
ByLayer
 62
  256
370
   -1
100
AcDbLine
 10
57.3
 20
-94.315
 11
59.391339577
 21
-94.315
  0
LINE
  5
30B
100
AcDbEntity
  8
Sketch
  6
ByLayer
 62
  256
370
   -1
100
AcDbLine
 10
56.8
 20
-94.815
 11
57.3
 21
-94.315
  0
LINE
  5
30C
100
AcDbEntity
  8
Sketch
  6
ByLayer
 62
  256
370
   -1
100
AcDbLine
 10
56.8
 20
-94.815
 11
56.8
 21
-103.483237386
  0
ARC
  5
30D
100
AcDbEntity
  8
Sketch
  6
ByLayer
 62
  256
370
   -1
100
AcDbCircle
 10
56.4
 20
-103.483237386
 40
0.4
100
AcDbArc
 50
-15
 51
0
  0
LINE
  5
30E
100
AcDbEntity
  8
Sketch
  6
ByLayer
 62
  256
370
   -1
100
AcDbLine
 10
56.786370331
 20
-103.586765004
 11
54.8
 21
-111
  0
LINE
  5
30F
100
AcDbEntity
  8
Sketch
  6
ByLayer
 62
  256
370
   -1
100
AcDbLine
 10
54.8
 20
-111
 11
56.8
 21
-111
  0
LINE
  5
310
100
AcDbEntity
  8
Sketch
  6
ByLayer
 62
  256
370
   -1
100
AcDbLine
 10
56.8
 20
-111
 11
56.8
 21
-113.8
  0
LINE
  5
311
100
AcDbEntity
  8
Sketch
  6
ByLayer
 62
  256
370
   -1
100
AcDbLine
 10
56.8
 20
-113.8
 11
55.8
 21
-113.8
  0
LINE
  5
312
100
AcDbEntity
  8
Sketch
  6
ByLayer
 62
  256
370
   -1
100
AcDbLine
 10
56.689442719
 20
-115.578885438
 11
55.8
 21
-113.8
  0
ARC
  5
313
100
AcDbEntity
  8
Sketch
  6
ByLayer
 62
  256
370
   -1
100
AcDbCircle
 10
57.047213595
 20
-115.4
 40
0.4
100
AcDbArc
 50
-153.434948823
 51
-90
  0
LINE
  5
314
100
AcDbEntity
  8
Sketch
  6
ByLayer
 62
  256
370
   -1
100
AcDbLine
 10
57.047213595
 20
-115.8
 11
59.2
 21
-115.8
  0
ARC
  5
315
100
AcDbEntity
  8
Sketch
  6
ByLayer
 62
  256
370
   -1
100
AcDbCircle
 10
59.2
 20
-115.4
 40
0.4
100
AcDbArc
 50
-90
 51
0
  0
LINE
  5
316
100
AcDbEntity
  8
Sketch
  6
ByLayer
 62
  256
370
   -1
100
AcDbLine
 10
59.6
 20
-115.4
 11
59.6
 21
-101.8
  0
ARC
  5
317
100
AcDbEntity
  8
Sketch
  6
ByLayer
 62
  256
370
   -1
100
AcDbCircle
 10
60
 20
-101.8
 40
0.4
100
AcDbArc
 50
0
 51
180
  0
LINE
  5
318
100
AcDbEntity
  8
Sketch
  6
ByLayer
 62
  256
370
   -1
100
AcDbLine
 10
60.4
 20
-101.8
 11
60.4
 21
-115.4
  0
ARC
  5
319
100
AcDbEntity
  8
Sketch
  6
ByLayer
 62
  256
370
   -1
100
AcDbCircle
 10
60.8
 20
-115.4
 40
0.4
100
AcDbArc
 50
180
 51
-90
  0
LINE
  5
31A
100
AcDbEntity
  8
Sketch
  6
ByLayer
 62
  256
370
   -1
100
AcDbLine
 10
60.8
 20
-115.8
 11
71.625
 21
-115.8
  0
LINE
  5
31B
100
AcDbEntity
  8
Sketch
  6
ByLayer
 62
  256
370
   -1
100
AcDbLine
 10
72.125
 20
-115.3
 11
71.625
 21
-115.8
  0
LINE
  5
31C
100
AcDbEntity
  8
Sketch
  6
ByLayer
 62
  256
370
   -1
100
AcDbLine
 10
72.125
 20
-113.208660423
 11
72.125
 21
-115.3
  0
ARC
  5
31D
100
AcDbEntity
  8
Sketch
  6
ByLayer
 62
  256
370
   -1
100
AcDbCircle
 10
72.225166667
 20
-113.035166667
 40
0.200333333
100
AcDbArc
 50
30
 51
-120
  0
LINE
  5
31E
100
AcDbEntity
  8
Sketch
  6
ByLayer
 62
  256
370
   -1
100
AcDbLine
 10
72.398660423
 20
-112.935
 11
81.80133957699999
 21
-112.935
  0
ARC
  5
31F
100
AcDbEntity
  8
Sketch
  6
ByLayer
 62
  256
370
   -1
100
AcDbCircle
 10
81.97483333300001
 20
-113.035166667
 40
0.200333333
100
AcDbArc
 50
-59.99999999999999
 51
150
  0
LINE
  5
320
100
AcDbEntity
  8
Sketch
  6
ByLayer
 62
  256
370
   -1
100
AcDbLine
 10
82.075
 20
-113.208660423
 11
82.075
 21
-115.3
  0
LINE
  5
321
100
AcDbEntity
  8
Sketch
  6
ByLayer
 62
  256
370
   -1
100
AcDbLine
 10
82.575
 20
-115.8
 11
82.075
 21
-115.3
  0
LINE
  5
322
100
AcDbEntity
  8
Sketch
  6
ByLayer
 62
  256
370
   -1
100
AcDbLine
 10
82.575
 20
-115.8
 11
93.40000000000001
 21
-115.8
  0
ARC
  5
323
100
AcDbEntity
  8
Sketch
  6
ByLayer
 62
  256
370
   -1
100
AcDbCircle
 10
93.40000000000001
 20
-115.4
 40
0.4
100
AcDbArc
 50
-90
 51
0
  0
LINE
  5
324
100
AcDbEntity
  8
Sketch
  6
ByLayer
 62
  256
370
   -1
100
AcDbLine
 10
93.8
 20
-115.4
 11
93.8
 21
-101.8
  0
ARC
  5
325
100
AcDbEntity
  8
Sketch
  6
ByLayer
 62
  256
370
   -1
100
AcDbCircle
 10
94.2
 20
-101.8
 40
0.4
100
AcDbArc
 50
0
 51
180
  0
LINE
  5
326
100
AcDbEntity
  8
Sketch
  6
ByLayer
 62
  256
370
   -1
100
AcDbLine
 10
94.59999999999999
 20
-101.8
 11
94.59999999999999
 21
-115.4
  0
ARC
  5
327
100
AcDbEntity
  8
Sketch
  6
ByLayer
 62
  256
370
   -1
100
AcDbCircle
 10
95
 20
-115.4
 40
0.4
100
AcDbArc
 50
180
 51
-90
  0
LINE
  5
328
100
AcDbEntity
  8
Sketch
  6
ByLayer
 62
  256
370
   -1
100
AcDbLine
 10
95
 20
-115.8
 11
97.152786405
 21
-115.8
  0
ARC
  5
329
100
AcDbEntity
  8
Sketch
  6
ByLayer
 62
  256
370
   -1
100
AcDbCircle
 10
97.152786405
 20
-115.4
 40
0.4
100
AcDbArc
 50
-90
 51
-26.565051177
  0
LINE
  5
32A
100
AcDbEntity
  8
Sketch
  6
ByLayer
 62
  256
370
   -1
100
AcDbLine
 10
97.510557281
 20
-115.578885438
 11
98.40000000000001
 21
-113.8
  0
LINE
  5
32B
100
AcDbEntity
  8
Sketch
  6
ByLayer
 62
  256
370
   -1
100
AcDbLine
 10
98.40000000000001
 20
-113.8
 11
97.40000000000001
 21
-113.8
  0
LINE
  5
32C
100
AcDbEntity
  8
Sketch
  6
ByLayer
 62
  256
370
   -1
100
AcDbLine
 10
97.40000000000001
 20
-113.8
 11
97.40000000000001
 21
-111
  0
LINE
  5
32D
100
AcDbEntity
  8
Sketch
  6
ByLayer
 62
  256
370
   -1
100
AcDbLine
 10
97.40000000000001
 20
-111
 11
99.40000000000001
 21
-111
  0
LINE
  5
32E
100
AcDbEntity
  8
Sketch
  6
ByLayer
 62
  256
370
   -1
100
AcDbLine
 10
99.40000000000001
 20
-111
 11
97.413629669
 21
-103.586765004
  0
ARC
  5
32F
100
AcDbEntity
  8
Sketch
  6
ByLayer
 62
  256
370
   -1
100
AcDbCircle
 10
97.8
 20
-103.483237386
 40
0.4
100
AcDbArc
 50
180
 51
-165
  0
LINE
  5
330
100
AcDbEntity
  8
Sketch
  6
ByLayer
 62
  256
370
   -1
100
AcDbLine
 10
97.40000000000001
 20
-103.483237386
 11
97.40000000000001
 21
-94.815
  0
LINE
  5
331
100
AcDbEntity
  8
Sketch
  6
ByLayer
 62
  256
370
   -1
100
AcDbLine
 10
96.90000000000001
 20
-94.315
 11
97.40000000000001
 21
-94.815
  0
LINE
  5
332
100
AcDbEntity
  8
Sketch
  6
ByLayer
 62
  256
370
   -1
100
AcDbLine
 10
96.90000000000001
 20
-94.315
 11
94.80866042300001
 21
-94.315
  0
ARC
  5
333
100
AcDbEntity
  8
Sketch
  6
ByLayer
 62
  256
370
   -1
100
AcDbCircle
 10
94.63516666699999
 20
-94.214833333
 40
0.200333333
100
AcDbArc
 50
180
 51
-30
  0
ARC
  5
334
100
AcDbEntity
  8
Sketch
  6
ByLayer
 62
  256
370
   -1
100
AcDbCircle
 10
94.63516666699999
 20
-94.214833333
 40
0.200333333
100
AcDbArc
 50
120
 51
180
  0
LINE
  5
335
100
AcDbEntity
  8
Sketch
  6
ByLayer
 62
  256
370
   -1
100
AcDbLine
 10
94.535
 20
-84.638660423
 11
94.535
 21
-94.041339577
  0
ARC
  5
336
100
AcDbEntity
  8
Sketch
  6
ByLayer
 62
  256
370
   -1
100
AcDbCircle
 10
94.63516666699999
 20
-84.46516666700001
 40
0.200333333
100
AcDbArc
 50
180
 51
-120
  0
ARC
  5
337
100
AcDbEntity
  8
Sketch
  6
ByLayer
 62
  256
370
   -1
100
AcDbCircle
 10
94.63516666699999
 20
-84.46516666700001
 40
0.200333333
100
AcDbArc
 50
30
 51
180
  0
LINE
  5
338
100
AcDbEntity
  8
Sketch
  6
ByLayer
 62
  256
370
   -1
100
AcDbLine
 10
96.90000000000001
 20
-84.36499999999999
 11
94.80866042300001
 21
-84.36499999999999
  0
LINE
  5
339
100
AcDbEntity
  8
Sketch
  6
ByLayer
 62
  256
370
   -1
100
AcDbLine
 10
97.40000000000001
 20
-83.86499999999999
 11
96.90000000000001
 21
-84.36499999999999
  0
LINE
  5
33A
100
AcDbEntity
  8
Sketch
  6
ByLayer
 62
  256
370
   -1
100
AcDbLine
 10
97.40000000000001
 20
-83.86499999999999
 11
97.40000000000001
 21
-72.13500000000001
  0
LINE
  5
33B
100
AcDbEntity
  8
Sketch
  6
ByLayer
 62
  256
370
   -1
100
AcDbLine
 10
96.90000000000001
 20
-71.63500000000001
 11
97.40000000000001
 21
-72.13500000000001
  0
LINE
  5
33C
100
AcDbEntity
  8
Sketch
  6
ByLayer
 62
  256
370
   -1
100
AcDbLine
 10
96.90000000000001
 20
-71.63500000000001
 11
94.80866042300001
 21
-71.63500000000001
  0
ARC
  5
33D
100
AcDbEntity
  8
Sketch
  6
ByLayer
 62
  256
370
   -1
100
AcDbCircle
 10
94.63516666699999
 20
-71.53483333299999
 40
0.200333333
100
AcDbArc
 50
180
 51
-30
  0
ARC
  5
33E
100
AcDbEntity
  8
Sketch
  6
ByLayer
 62
  256
370
   -1
100
AcDbCircle
 10
94.63516666699999
 20
-71.53483333299999
 40
0.200333333
100
AcDbArc
 50
120
 51
180
  0
LINE
  5
33F
100
AcDbEntity
  8
Sketch
  6
ByLayer
 62
  256
370
   -1
100
AcDbLine
 10
94.535
 20
-61.958660423
 11
94.535
 21
-71.361339577
  0
ARC
  5
340
100
AcDbEntity
  8
Sketch
  6
ByLayer
 62
  256
370
   -1
100
AcDbCircle
 10
94.63516666699999
 20
-61.785166667
 40
0.200333333
100
AcDbArc
 50
180
 51
-120
  0
CIRCLE
  5
341
100
AcDbEntity
  8
Sketch
  6
ByLayer
 62
  256
370
   -1
100
AcDbCircle
 10
84.09999999999999
 20
-65.2
 40
8.5
  0
LINE
  5
342
100
AcDbEntity
  8
Sketch
  6
ByLayer
 62
  256
370
   -1
100
AcDbLine
 10
89.7
 20
-80.84999999999999
 11
89.7
 21
-75.15000000000001
  0
ARC
  5
343
100
AcDbEntity
  8
Sketch
  6
ByLayer
 62
  256
370
   -1
100
AcDbCircle
 10
92.2
 20
-75.15000000000001
 40
2.5
100
AcDbArc
 50
0
 51
180
  0
LINE
  5
344
100
AcDbEntity
  8
Sketch
  6
ByLayer
 62
  256
370
   -1
100
AcDbLine
 10
94.7
 20
-80.84999999999999
 11
94.7
 21
-75.15000000000001
  0
ARC
  5
345
100
AcDbEntity
  8
Sketch
  6
ByLayer
 62
  256
370
   -1
100
AcDbCircle
 10
92.2
 20
-80.84999999999999
 40
2.5
100
AcDbArc
 50
180
 51
0
  0
LINE
  5
346
100
AcDbEntity
  8
Sketch
  6
ByLayer
 62
  256
370
   -1
100
AcDbLine
 10
64.48999999999999
 20
-66
 11
64.48999999999999
 21
-54
  0
ARC
  5
347
100
AcDbEntity
  8
Sketch
  6
ByLayer
 62
  256
370
   -1
100
AcDbCircle
 10
65.245
 20
-54
 40
0.755
100
AcDbArc
 50
0
 51
180
  0
LINE
  5
348
100
AcDbEntity
  8
Sketch
  6
ByLayer
 62
  256
370
   -1
100
AcDbLine
 10
66
 20
-66
 11
66
 21
-54
  0
ARC
  5
349
100
AcDbEntity
  8
Sketch
  6
ByLayer
 62
  256
370
   -1
100
AcDbCircle
 10
65.245
 20
-66
 40
0.755
100
AcDbArc
 50
180
 51
0
  0
CIRCLE
  5
34A
100
AcDbEntity
  8
Sketch
  6
ByLayer
 62
  256
370
   -1
100
AcDbCircle
 10
84.09999999999999
 20
-90.8
 40
8.5
  0
LINE
  5
34B
100
AcDbEntity
  8
Sketch
  6
ByLayer
 62
  256
370
   -1
100
AcDbLine
 10
64.48999999999999
 20
-102
 11
64.48999999999999
 21
-90
  0
ARC
  5
34C
100
AcDbEntity
  8
Sketch
  6
ByLayer
 62
  256
370
   -1
100
AcDbCircle
 10
65.245
 20
-90
 40
0.755
100
AcDbArc
 50
0
 51
180
  0
LINE
  5
34D
100
AcDbEntity
  8
Sketch
  6
ByLayer
 62
  256
370
   -1
100
AcDbLine
 10
66
 20
-102
 11
66
 21
-90
  0
ARC
  5
34E
100
AcDbEntity
  8
Sketch
  6
ByLayer
 62
  256
370
   -1
100
AcDbCircle
 10
65.245
 20
-102
 40
0.755
100
AcDbArc
 50
180
 51
0
  0
LINE
  5
34F
100
AcDbEntity
  8
Sketch
  6
ByLayer
 62
  256
370
   -1
100
AcDbLine
 10
-100.8
 20
35.792815861
 11
-100.8
 21
58.295920641
  0
LINE
  5
350
100
AcDbEntity
  8
Sketch
  6
ByLayer
 62
  256
370
   -1
100
AcDbLine
 10
-100.3
 20
58.795920641
 11
-100.8
 21
58.295920641
  0
LINE
  5
351
100
AcDbEntity
  8
Sketch
  6
ByLayer
 62
  256
370
   -1
100
AcDbLine
 10
-100.3
 20
58.795920641
 11
-87.375
 21
58.795920641
  0
LINE
  5
352
100
AcDbEntity
  8
Sketch
  6
ByLayer
 62
  256
370
   -1
100
AcDbLine
 10
-87.375
 20
58.795920641
 11
-86.875
 21
58.295920641
  0
LINE
  5
353
100
AcDbEntity
  8
Sketch
  6
ByLayer
 62
  256
370
   -1
100
AcDbLine
 10
-86.875
 20
58.295920641
 11
-86.875
 21
56.204581063
  0
ARC
  5
354
100
AcDbEntity
  8
Sketch
  6
ByLayer
 62
  256
370
   -1
100
AcDbCircle
 10
-86.774833333
 20
56.031087307
 40
0.200333333
100
AcDbArc
 50
120
 51
-90
  0
ARC
  5
355
100
AcDbEntity
  8
Sketch
  6
ByLayer
 62
  256
370
   -1
100
AcDbCircle
 10
-86.774833333
 20
56.031087307
 40
0.200333333
100
AcDbArc
 50
-90
 51
-30
  0
LINE
  5
356
100
AcDbEntity
  8
Sketch
  6
ByLayer
 62
  256
370
   -1
100
AcDbLine
 10
-86.601339577
 20
55.930920641
 11
-77.19866042300001
 21
55.930920641
  0
ARC
  5
357
100
AcDbEntity
  8
Sketch
  6
ByLayer
 62
  256
370
   -1
100
AcDbCircle
 10
-77.02516666699999
 20
56.031087307
 40
0.200333333
100
AcDbArc
 50
-150
 51
-90
  0
ARC
  5
358
100
AcDbEntity
  8
Sketch
  6
ByLayer
 62
  256
370
   -1
100
AcDbCircle
 10
-77.02516666699999
 20
56.031087307
 40
0.200333333
100
AcDbArc
 50
-90
 51
59.99999999999999
  0
LINE
  5
359
100
AcDbEntity
  8
Sketch
  6
ByLayer
 62
  256
370
   -1
100
AcDbLine
 10
-76.925
 20
58.295920641
 11
-76.925
 21
56.204581063
  0
LINE
  5
35A
100
AcDbEntity
  8
Sketch
  6
ByLayer
 62
  256
370
   -1
100
AcDbLine
 10
-76.425
 20
58.795920641
 11
-76.925
 21
58.295920641
  0
LINE
  5
35B
100
AcDbEntity
  8
Sketch
  6
ByLayer
 62
  256
370
   -1
100
AcDbLine
 10
-76.425
 20
58.795920641
 11
-49.575
 21
58.795920641
  0
LINE
  5
35C
100
AcDbEntity
  8
Sketch
  6
ByLayer
 62
  256
370
   -1
100
AcDbLine
 10
-49.075
 20
58.295920641
 11
-49.575
 21
58.795920641
  0
LINE
  5
35D
100
AcDbEntity
  8
Sketch
  6
ByLayer
 62
  256
370
   -1
100
AcDbLine
 10
-49.075
 20
58.295920641
 11
-49.075
 21
56.204581063
  0
ARC
  5
35E
100
AcDbEntity
  8
Sketch
  6
ByLayer
 62
  256
370
   -1
100
AcDbCircle
 10
-48.974833333
 20
56.031087307
 40
0.200333333
100
AcDbArc
 50
120
 51
-90
  0
ARC
  5
35F
100
AcDbEntity
  8
Sketch
  6
ByLayer
 62
  256
370
   -1
100
AcDbCircle
 10
-48.974833333
 20
56.031087307
 40
0.200333333
100
AcDbArc
 50
-90
 51
-30
  0
LINE
  5
360
100
AcDbEntity
  8
Sketch
  6
ByLayer
 62
  256
370
   -1
100
AcDbLine
 10
-48.801339577
 20
55.930920641
 11
-39.398660423
 21
55.930920641
  0
ARC
  5
361
100
AcDbEntity
  8
Sketch
  6
ByLayer
 62
  256
370
   -1
100
AcDbCircle
 10
-39.225166667
 20
56.031087307
 40
0.200333333
100
AcDbArc
 50
-150
 51
-90
  0
ARC
  5
362
100
AcDbEntity
  8
Sketch
  6
ByLayer
 62
  256
370
   -1
100
AcDbCircle
 10
-39.225166667
 20
56.031087307
 40
0.200333333
100
AcDbArc
 50
-90
 51
59.99999999999999
  0
LINE
  5
363
100
AcDbEntity
  8
Sketch
  6
ByLayer
 62
  256
370
   -1
100
AcDbLine
 10
-39.125
 20
58.295920641
 11
-39.125
 21
56.204581063
  0
LINE
  5
364
100
AcDbEntity
  8
Sketch
  6
ByLayer
 62
  256
370
   -1
100
AcDbLine
 10
-38.625
 20
58.795920641
 11
-39.125
 21
58.295920641
  0
LINE
  5
365
100
AcDbEntity
  8
Sketch
  6
ByLayer
 62
  256
370
   -1
100
AcDbLine
 10
-38.625
 20
58.795920641
 11
-25.7
 21
58.795920641
  0
LINE
  5
366
100
AcDbEntity
  8
Sketch
  6
ByLayer
 62
  256
370
   -1
100
AcDbLine
 10
-25.2
 20
58.295920641
 11
-25.7
 21
58.795920641
  0
LINE
  5
367
100
AcDbEntity
  8
Sketch
  6
ByLayer
 62
  256
370
   -1
100
AcDbLine
 10
-25.2
 20
58.295920641
 11
-25.2
 21
35.792815861
  0
LINE
  5
368
100
AcDbEntity
  8
Sketch
  6
ByLayer
 62
  256
370
   -1
100
AcDbLine
 10
-25.7
 20
35.292815861
 11
-25.2
 21
35.792815861
  0
LINE
  5
369
100
AcDbEntity
  8
Sketch
  6
ByLayer
 62
  256
370
   -1
100
AcDbLine
 10
-27.791339577
 20
35.292815861
 11
-25.7
 21
35.292815861
  0
ARC
  5
36A
100
AcDbEntity
  8
Sketch
  6
ByLayer
 62
  256
370
   -1
100
AcDbCircle
 10
-27.964833333
 20
35.192649195
 40
0.200333333
100
AcDbArc
 50
30
 51
-120
  0
LINE
  5
36B
100
AcDbEntity
  8
Sketch
  6
ByLayer
 62
  256
370
   -1
100
AcDbLine
 10
-28.065
 20
35.019155439
 11
-28.065
 21
25.616476284
  0
ARC
  5
36C
100
AcDbEntity
  8
Sketch
  6
ByLayer
 62
  256
370
   -1
100
AcDbCircle
 10
-27.964833333
 20
25.442982528
 40
0.200333333
100
AcDbArc
 50
120
 51
-30
  0
LINE
  5
36D
100
AcDbEntity
  8
Sketch
  6
ByLayer
 62
  256
370
   -1
100
AcDbLine
 10
-27.791339577
 20
25.342815861
 11
-25.7
 21
25.342815861
  0
LINE
  5
36E
100
AcDbEntity
  8
Sketch
  6
ByLayer
 62
  256
370
   -1
100
AcDbLine
 10
-25.2
 20
24.842815861
 11
-25.7
 21
25.342815861
  0
LINE
  5
36F
100
AcDbEntity
  8
Sketch
  6
ByLayer
 62
  256
370
   -1
100
AcDbLine
 10
-25.2
 20
24.842815861
 11
-25.2
 21
2.900292189
  0
LINE
  5
370
100
AcDbEntity
  8
Sketch
  6
ByLayer
 62
  256
370
   -1
100
AcDbLine
 10
-25.7
 20
2.400292189
 11
-25.2
 21
2.900292189
  0
LINE
  5
371
100
AcDbEntity
  8
Sketch
  6
ByLayer
 62
  256
370
   -1
100
AcDbLine
 10
-25.7
 20
2.400292189
 11
-28
 21
2.400292189
  0
LINE
  5
372
100
AcDbEntity
  8
Sketch
  6
ByLayer
 62
  256
370
   -1
100
AcDbLine
 10
-28
 20
2.400292189
 11
-28
 21
1.500292189
  0
LINE
  5
373
100
AcDbEntity
  8
Sketch
  6
ByLayer
 62
  256
370
   -1
100
AcDbLine
 10
-28.5
 20
1.000292189
 11
-28
 21
1.500292189
  0
LINE
  5
374
100
AcDbEntity
  8
Sketch
  6
ByLayer
 62
  256
370
   -1
100
AcDbLine
 10
-28.5
 20
1.000292189
 11
-39.082644144
 21
1.000292189
  0
ELLIPSE
  5
375
100
AcDbEntity
  8
Sketch
  6
ByLayer
 62
  256
370
   -1
100
AcDbEllipse
 10
-39.222666667
 20
0.855357567
 30
0
 11
0
 21
0.207869392
 31
0
 40
0.939692621
 41
5.483927429
 42
5.759586532
  0
LINE
  5
376
100
AcDbEntity
  8
Sketch
  6
ByLayer
 62
  256
370
   -1
100
AcDbLine
 10
-39.125
 20
3.585508875
 11
-39.125
 21
1.035377741
  0
ELLIPSE
  5
377
100
AcDbEntity
  8
Sketch
  6
ByLayer
 62
  256
370
   -1
100
AcDbEllipse
 10
-39.222666667
 20
3.765529049
 30
0
 11
0
 21
0.207869392
 31
0
 40
0.939692621
 41
3.665191429
 42
4.71238898
  0
ELLIPSE
  5
378
100
AcDbEntity
  8
Sketch
  6
ByLayer
 62
  256
370
   -1
100
AcDbEllipse
 10
-39.222666667
 20
3.765529049
 30
0
 11
0
 21
0.207869392
 31
0
 40
0.939692621
 41
4.71238898
 42
1.047197551
  0
LINE
  5
379
100
AcDbEntity
  8
Sketch
  6
ByLayer
 62
  256
370
   -1
100
AcDbLine
 10
-39.391830296
 20
3.869463744
 11
-48.808169704
 21
3.869463744
  0
ELLIPSE
  5
37A
100
AcDbEntity
  8
Sketch
  6
ByLayer
 62
  256
370
   -1
100
AcDbEllipse
 10
-48.977333333
 20
3.765529049
 30
0
 11
0
 21
0.207869392
 31
0
 40
0.939692621
 41
5.235987756
 42
1.570796327
  0
ELLIPSE
  5
37B
100
AcDbEntity
  8
Sketch
  6
ByLayer
 62
  256
370
   -1
100
AcDbEllipse
 10
-48.977333333
 20
3.765529049
 30
0
 11
0
 21
0.207869392
 31
0
 40
0.939692621
 41
1.570796327
 42
2.617993878
  0
LINE
  5
37C
100
AcDbEntity
  8
Sketch
  6
ByLayer
 62
  256
370
   -1
100
AcDbLine
 10
-49.075
 20
3.585508875
 11
-49.075
 21
1.035377741
  0
ELLIPSE
  5
37D
100
AcDbEntity
  8
Sketch
  6
ByLayer
 62
  256
370
   -1
100
AcDbEllipse
 10
-48.977333333
 20
0.855357567
 30
0
 11
0
 21
0.207869392
 31
0
 40
0.939692621
 41
0.523598776
 42
0.799257878
  0
LINE
  5
37E
100
AcDbEntity
  8
Sketch
  6
ByLayer
 62
  256
370
   -1
100
AcDbLine
 10
-49.117355856
 20
1.000292189
 11
-76.882644144
 21
1.000292189
  0
ELLIPSE
  5
37F
100
AcDbEntity
  8
Sketch
  6
ByLayer
 62
  256
370
   -1
100
AcDbEllipse
 10
-77.022666667
 20
0.855357567
 30
0
 11
0
 21
0.207869392
 31
0
 40
0.939692621
 41
5.483927429
 42
5.759586532
  0
LINE
  5
380
100
AcDbEntity
  8
Sketch
  6
ByLayer
 62
  256
370
   -1
100
AcDbLine
 10
-76.925
 20
3.585508875
 11
-76.925
 21
1.035377741
  0
ELLIPSE
  5
381
100
AcDbEntity
  8
Sketch
  6
ByLayer
 62
  256
370
   -1
100
AcDbEllipse
 10
-77.022666667
 20
3.765529049
 30
0
 11
0
 21
0.207869392
 31
0
 40
0.939692621
 41
3.665191429
 42
4.71238898
  0
ELLIPSE
  5
382
100
AcDbEntity
  8
Sketch
  6
ByLayer
 62
  256
370
   -1
100
AcDbEllipse
 10
-77.022666667
 20
3.765529049
 30
0
 11
0
 21
0.207869392
 31
0
 40
0.939692621
 41
4.71238898
 42
1.047197551
  0
LINE
  5
383
100
AcDbEntity
  8
Sketch
  6
ByLayer
 62
  256
370
   -1
100
AcDbLine
 10
-77.19183029600001
 20
3.869463744
 11
-86.60816970400001
 21
3.869463744
  0
ELLIPSE
  5
384
100
AcDbEntity
  8
Sketch
  6
ByLayer
 62
  256
370
   -1
100
AcDbEllipse
 10
-86.777333333
 20
3.765529049
 30
0
 11
0
 21
0.207869392
 31
0
 40
0.939692621
 41
5.235987756
 42
1.570796327
  0
ELLIPSE
  5
385
100
AcDbEntity
  8
Sketch
  6
ByLayer
 62
  256
370
   -1
100
AcDbEllipse
 10
-86.777333333
 20
3.765529049
 30
0
 11
0
 21
0.207869392
 31
0
 40
0.939692621
 41
1.570796327
 42
2.617993878
  0
LINE
  5
386
100
AcDbEntity
  8
Sketch
  6
ByLayer
 62
  256
370
   -1
100
AcDbLine
 10
-86.875
 20
3.585508875
 11
-86.875
 21
1.035377741
  0
ELLIPSE
  5
387
100
AcDbEntity
  8
Sketch
  6
ByLayer
 62
  256
370
   -1
100
AcDbEllipse
 10
-86.777333333
 20
0.855357567
 30
0
 11
0
 21
0.207869392
 31
0
 40
0.939692621
 41
0.523598776
 42
0.799257878
  0
LINE
  5
388
100
AcDbEntity
  8
Sketch
  6
ByLayer
 62
  256
370
   -1
100
AcDbLine
 10
-86.917355856
 20
1.000292189
 11
-97.5
 21
1.000292189
  0
LINE
  5
389
100
AcDbEntity
  8
Sketch
  6
ByLayer
 62
  256
370
   -1
100
AcDbLine
 10
-98
 20
1.500292189
 11
-97.5
 21
1.000292189
  0
LINE
  5
38A
100
AcDbEntity
  8
Sketch
  6
ByLayer
 62
  256
370
   -1
100
AcDbLine
 10
-98
 20
1.500292189
 11
-98
 21
2.400292189
  0
LINE
  5
38B
100
AcDbEntity
  8
Sketch
  6
ByLayer
 62
  256
370
   -1
100
AcDbLine
 10
-98
 20
2.400292189
 11
-100.3
 21
2.400292189
  0
LINE
  5
38C
100
AcDbEntity
  8
Sketch
  6
ByLayer
 62
  256
370
   -1
100
AcDbLine
 10
-100.3
 20
2.400292189
 11
-100.8
 21
2.900292189
  0
LINE
  5
38D
100
AcDbEntity
  8
Sketch
  6
ByLayer
 62
  256
370
   -1
100
AcDbLine
 10
-100.8
 20
2.900292189
 11
-100.8
 21
24.842815861
  0
LINE
  5
38E
100
AcDbEntity
  8
Sketch
  6
ByLayer
 62
  256
370
   -1
100
AcDbLine
 10
-100.3
 20
25.342815861
 11
-100.8
 21
24.842815861
  0
LINE
  5
38F
100
AcDbEntity
  8
Sketch
  6
ByLayer
 62
  256
370
   -1
100
AcDbLine
 10
-100.3
 20
25.342815861
 11
-98.208660423
 21
25.342815861
  0
ARC
  5
390
100
AcDbEntity
  8
Sketch
  6
ByLayer
 62
  256
370
   -1
100
AcDbCircle
 10
-98.035166667
 20
25.442982528
 40
0.200333333
100
AcDbArc
 50
-150
 51
0
  0
ARC
  5
391
100
AcDbEntity
  8
Sketch
  6
ByLayer
 62
  256
370
   -1
100
AcDbCircle
 10
-98.035166667
 20
25.442982528
 40
0.200333333
100
AcDbArc
 50
0
 51
59.99999999999999
  0
LINE
  5
392
100
AcDbEntity
  8
Sketch
  6
ByLayer
 62
  256
370
   -1
100
AcDbLine
 10
-97.935
 20
35.019155439
 11
-97.935
 21
25.616476284
  0
ARC
  5
393
100
AcDbEntity
  8
Sketch
  6
ByLayer
 62
  256
370
   -1
100
AcDbCircle
 10
-98.035166667
 20
35.192649195
 40
0.200333333
100
AcDbArc
 50
-59.99999999999999
 51
0
  0
ARC
  5
394
100
AcDbEntity
  8
Sketch
  6
ByLayer
 62
  256
370
   -1
100
AcDbCircle
 10
-98.035166667
 20
35.192649195
 40
0.200333333
100
AcDbArc
 50
0
 51
150
  0
LINE
  5
395
100
AcDbEntity
  8
Sketch
  6
ByLayer
 62
  256
370
   -1
100
AcDbLine
 10
-100.3
 20
35.292815861
 11
-98.208660423
 21
35.292815861
  0
LINE
  5
396
100
AcDbEntity
  8
Sketch
  6
ByLayer
 62
  256
370
   -1
100
AcDbLine
 10
-100.8
 20
35.792815861
 11
-100.3
 21
35.292815861
  0
LINE
  5
397
100
AcDbEntity
  8
Sketch
  6
ByLayer
 62
  256
370
   -1
100
AcDbLine
 10
-64.5
 20
16.511971241
 11
-61.5
 21
16.511971241
  0
ARC
  5
398
100
AcDbEntity
  8
Sketch
  6
ByLayer
 62
  256
370
   -1
100
AcDbCircle
 10
-61.5
 20
14.511971241
 40
2
100
AcDbArc
 50
-90
 51
90
  0
LINE
  5
399
100
AcDbEntity
  8
Sketch
  6
ByLayer
 62
  256
370
   -1
100
AcDbLine
 10
-64.5
 20
12.511971241
 11
-61.5
 21
12.511971241
  0
ARC
  5
39A
100
AcDbEntity
  8
Sketch
  6
ByLayer
 62
  256
370
   -1
100
AcDbCircle
 10
-64.5
 20
14.511971241
 40
2
100
AcDbArc
 50
90
 51
-90
  0
ENDSEC
  0
SECTION
  2
OBJECTS
  0
DICTIONARY
  5
C
330
0
100
AcDbDictionary
281
    1
  3
ACAD_GROUP
350
D
  0
DICTIONARY
  5
D
330
C
100
AcDbDictionary
281
    1
  0
PLOTSETTINGS
  5
39B
100
AcDbPlotSettings
  6
1x1
 40
0
 41
0
 42
0
 43
0
  0
ENDSEC
  0
EOF
