999
FreeCAD v1.0 39285 (Git)
  0
SECTION
  2
HEADER
  9
$ACADVER
  1
AC1014
  9
$ACADMAINTVER
 70
     9
  9
$DWGCODEPAGE
  3
ANSI_1252
  9
$TEXTSTYLE
  7
STANDARD
  9
$DIMSTYLE
  2
STANDARD
  9
$DIMTXSTY
  7
STANDARD
  9
$CMLSTYLE
  2
STANDARD
  9
$LUNITS
 70
2
  9
$INSUNITS
 70
4
  9
$PEXTMAX
 10
50
 20
50
 30
50
  9
$PEXTMIN
 10
0
 20
0
 30
0
  9
$HANDSEED
  5
FFFF
  0
ENDSEC
  0
SECTION
  2
CLASSES
  0
CLASS
  1
ACDBDICTIONARYWDFLT
  2
AcDbDictionaryWithDefault
  3
ObjectDBX Classes
 90
        0
280
     0
281
     0
  0
CLASS
  1
XRECORD
  2
AcDbXrecord
  3
ObjectDBX Classes
 90
        0
280
     0
281
     0
  0
CLASS
  1
LWPOLYLINE
  2
AcDbPolyline
  3
ObjectDBX Classes
 90
        0
280
     0
281
     1
  0
ENDSEC
  0
SECTION
  2
TABLES
  0
TABLE
  2
VPORT
  5
20
330
0
100
AcDbSymbolTable
 70
     1
  0
VPORT
  5
21
330
20
100
AcDbSymbolTableRecord
100
AcDbViewportTableRecord
  2
*ACTIVE
 70
     0
  0
ENDTAB
  0
TABLE
  2
LTYPE
  5
22
330
0
100
AcDbSymbolTable
 70
     1
  0
LTYPE
  5
23
330
21
100
AcDbSymbolTableRecord
100
AcDbLinetypeTableRecord
  2
BYBLOCK
 70
     0
  3

 72
    65
 73
     0
 40
0.0
  0
LTYPE
  5
24
330
21
100
AcDbSymbolTableRecord
100
AcDbLinetypeTableRecord
  2
BYLAYER
 70
     0
  3

 72
    65
 73
     0
 40
0.0
  0
LTYPE
  5
25
330
21
100
AcDbSymbolTableRecord
100
AcDbLinetypeTableRecord
  2
CONTINUOUS
 70
     0
  3
Solid line
 72
    65
 73
     0
 40
0.0
  0
ENDTAB
  0
TABLE
  2
LAYER
  5
CF2
330
0
100
AcDbSymbolTable
 70
13
  0
LAYER
  5
CF3
330
CF2
100
AcDbSymbolTableRecord
100
AcDbLayerTableRecord
  2
0
 70
   0
 62
   7
  6
CONTINUOUS
  0
LAYER
  5
CF4
330
CF2
100
AcDbSymbolTableRecord
100
AcDbLayerTableRecord
  2
none
 70
    0
 62
    7
  6
CONTINUOUS
  0
LAYER
  5
CF5
330
CF2
100
AcDbSymbolTableRecord
100
AcDbLayerTableRecord
  2
Shape2DView
 70
    0
 62
    7
  6
CONTINUOUS
  0
LAYER
  5
CF6
330
CF2
100
AcDbSymbolTableRecord
100
AcDbLayerTableRecord
  2
Shape2DView001
 70
    0
 62
    7
  6
CONTINUOUS
  0
LAYER
  5
CF7
330
CF2
100
AcDbSymbolTableRecord
100
AcDbLayerTableRecord
  2
Shape2DView002
 70
    0
 62
    7
  6
CONTINUOUS
  0
LAYER
  5
CF8
330
CF2
100
AcDbSymbolTableRecord
100
AcDbLayerTableRecord
  2
Shape2DView003
 70
    0
 62
    7
  6
CONTINUOUS
  0
LAYER
  5
CF9
330
CF2
100
AcDbSymbolTableRecord
100
AcDbLayerTableRecord
  2
Shape2DView004
 70
    0
 62
    7
  6
CONTINUOUS
  0
LAYER
  5
CFA
330
CF2
100
AcDbSymbolTableRecord
100
AcDbLayerTableRecord
  2
Shape2DView005
 70
    0
 62
    7
  6
CONTINUOUS
  0
LAYER
  5
CFB
330
CF2
100
AcDbSymbolTableRecord
100
AcDbLayerTableRecord
  2
Shape2DView006
 70
    0
 62
    7
  6
CONTINUOUS
  0
LAYER
  5
CFC
330
CF2
100
AcDbSymbolTableRecord
100
AcDbLayerTableRecord
  2
Shape2DView007
 70
    0
 62
    7
  6
CONTINUOUS
  0
LAYER
  5
CFD
330
CF2
100
AcDbSymbolTableRecord
100
AcDbLayerTableRecord
  2
Shape2DView008
 70
    0
 62
    7
  6
CONTINUOUS
  0
LAYER
  5
CFE
330
CF2
100
AcDbSymbolTableRecord
100
AcDbLayerTableRecord
  2
Shape2DView009
 70
    0
 62
    7
  6
CONTINUOUS
  0
LAYER
  5
CFF
330
CF2
100
AcDbSymbolTableRecord
100
AcDbLayerTableRecord
  2
Shape2DView010
 70
    0
 62
    7
  6
CONTINUOUS
  0
ENDTAB
  0
TABLE
  2
STYLE
  5
70
330
0
100
AcDbSymbolTable
 70
     2
  0
STYLE
  5
71
330
70
100
AcDbSymbolTableRecord
100
AcDbTextStyleTableRecord
  2
STANDARD
 70
     0
 40
0.0
 41
1.0
 50
0.0
 71
     0
 42
2.5
  3
arial.ttf
  4

  0
STYLE
  5
72
330
70
100
AcDbSymbolTableRecord
100
AcDbTextStyleTableRecord
  2
ANNOTATIVE
 70
     0
 40
0.0
 41
1.0
 50
0.0
 71
     0
 42
2.5
  3
arial.ttf
  4

  0
ENDTAB
  0
TABLE
  2
VIEW
  5
73
330
0
100
AcDbSymbolTable
 70
     0
  0
ENDTAB
  0
TABLE
  2
UCS
  5
74
330
0
100
AcDbSymbolTable
 70
     0
  0
ENDTAB
  0
TABLE
  2
APPID
  5
75
330
0
100
AcDbSymbolTable
 70
     2
  0
APPID
  5
76
330
75
100
AcDbSymbolTableRecord
100
AcDbRegAppTableRecord
  2
ACAD
 70
     0
  0
APPID
  5
77
330
75
100
AcDbSymbolTableRecord
100
AcDbRegAppTableRecord
  2
ACADANNOTATIVE
 70
     0
  0
ENDTAB
  0
TABLE
  2
DIMSTYLE
  5
78
330
0
100
AcDbSymbolTable
 70
     2
  0
DIMSTYLE
105
79
330
78
100
AcDbSymbolTableRecord
100
AcDbDimStyleTableRecord
  2
STANDARD
 70
     0
  3

  4

  5

  6

  7

 40
0.0
 41
2.5
 42
0.625
 43
3.75
 44
1.25
 45
0.0
 46
0.0
 47
0.0
 48
0.0
140
2.5
141
2.5
142
0.0
143
0.03937007874016
144
1.0
145
0.0
146
1.0
147
0.625
 71
     0
 72
     0
 73
     0
 74
     0
 75
     0
 76
     0
 77
     1
 78
     8
170
     0
171
     3
172
     1
173
     0
174
     0
175
     0
176
     0
177
     0
178
     0
270
     2
271
     2
272
     2
273
     2
274
     3
340
71
275
     0
280
     0
281
     0
282
     0
283
     0
284
     8
285
     0
286
     0
287
     3
288
     0
  0
ENDTAB
  0
TABLE
  2
BLOCK_RECORD
  5
A01
330
0
100
AcDbSymbolTable
  70
5
  0
BLOCK_RECORD
  5
A02
330
A01
100
AcDbSymbolTableRecord
100
AcDbBlockTableRecord
  2
*MODEL_SPACE
  0
BLOCK_RECORD
  5
A03
330
A01
100
AcDbSymbolTableRecord
100
AcDbBlockTableRecord
  2
*PAPER_SPACE
  0
ENDTAB
  0
ENDSEC
  0
SECTION
  2
BLOCKS
  0
BLOCK
  5
A04
330
A02
100
AcDbEntity
  8
0
100
AcDbBlockBegin
  2
*MODEL_SPACE
 70
   0
 10
0
 20
0
 30
0
  3
*MODEL_SPACE
  1
 
  0
ENDBLK
  5
A05
330
A02
100
AcDbEntity
  8
0
100
AcDbBlockEnd
  0
BLOCK
  5
A06
330
A03
100
AcDbEntity
 67
1
  8
0
100
AcDbBlockBegin
  2
*PAPER_SPACE
 70
   0
 10
0
 20
0
 30
0
  3
*PAPER_SPACE
  1
 
  0
ENDBLK
  5
A07
330
A03
100
AcDbEntity
 67
    1
  8
0
100
AcDbBlockEnd
  0
ENDSEC
  0
SECTION
  2
ENTITIES
  0
ARC
  5
A08
330
A02
100
AcDbEntity
  8
Shape2DView
100
AcDbCircle
 10
86.946848325
 20
141.301942819
 30
0.000000000
 40
0.186666667
100
AcDbArc
 50
20.000000000
 51
-160.000000000
  0
ARC
  5
A09
330
A02
100
AcDbEntity
  8
Shape2DView
100
AcDbCircle
 10
86.946848325
 20
141.301942819
 30
0.000000000
 40
0.186666667
100
AcDbArc
 50
-160.000000000
 51
-70.000000000
  0
LINE
  5
A0A
330
A02
100
AcDbEntity
  8
Shape2DView
100
AcDbLine
 10
87.122257614
 20
141.365786579
 30
0.000000000
 11
108.921329830
 21
149.300000000
 31
0.000000000
  0
LINE
  5
A0B
330
A02
100
AcDbEntity
  8
Shape2DView
100
AcDbLine
 10
108.921329830
 20
149.300000000
 30
0.000000000
 11
114.380883344
 21
134.300000000
 31
0.000000000
  0
LINE
  5
A0C
330
A02
100
AcDbEntity
  8
Shape2DView
100
AcDbLine
 10
115.400000000
 20
134.300000000
 30
0.000000000
 11
115.400000000
 21
149.019983333
 31
0.000000000
  0
ARC
  5
A0D
330
A02
100
AcDbEntity
  8
Shape2DView
100
AcDbCircle
 10
115.400000000
 20
149.206650000
 30
0.000000000
 40
0.186666667
100
AcDbArc
 50
0.000000000
 51
90.000000000
  0
ARC
  5
A0E
330
A02
100
AcDbEntity
  8
Shape2DView
100
AcDbCircle
 10
115.400000000
 20
149.206650000
 30
0.000000000
 40
0.186666667
100
AcDbArc
 50
90.000000000
 51
-90.000000000
  0
LINE
  5
A0F
330
A02
100
AcDbEntity
  8
Shape2DView
100
AcDbLine
 10
114.380883344
 20
134.300000000
 30
0.000000000
 11
115.400000000
 21
134.300000000
 31
0.000000000
  0
LINE
  5
A10
330
A02
100
AcDbEntity
  8
Shape2DView
100
AcDbLine
 10
115.586666667
 20
149.206650000
 30
0.000000000
 11
118.200000000
 21
149.206650000
 31
0.000000000
  0
LINE
  5
A11
330
A02
100
AcDbEntity
  8
Shape2DView
100
AcDbLine
 10
118.200000000
 20
159.393350000
 30
0.000000000
 11
118.200000000
 21
149.206650000
 31
0.000000000
  0
LINE
  5
A12
330
A02
100
AcDbEntity
  8
Shape2DView
100
AcDbLine
 10
115.586666667
 20
159.393350000
 30
0.000000000
 11
118.200000000
 21
159.393350000
 31
0.000000000
  0
ARC
  5
A13
330
A02
100
AcDbEntity
  8
Shape2DView
100
AcDbCircle
 10
115.400000000
 20
159.393350000
 30
0.000000000
 40
0.186666667
100
AcDbArc
 50
90.000000000
 51
-90.000000000
  0
ARC
  5
A14
330
A02
100
AcDbEntity
  8
Shape2DView
100
AcDbCircle
 10
115.400000000
 20
159.393350000
 30
0.000000000
 40
0.186666667
100
AcDbArc
 50
-90.000000000
 51
0.000000000
  0
LINE
  5
A15
330
A02
100
AcDbEntity
  8
Shape2DView
100
AcDbLine
 10
115.400000000
 20
159.580016667
 30
0.000000000
 11
115.400000000
 21
174.300000000
 31
0.000000000
  0
LINE
  5
A16
330
A02
100
AcDbEntity
  8
Shape2DView
100
AcDbLine
 10
115.400000000
 20
174.300000000
 30
0.000000000
 11
96.930016667
 21
174.300000000
 31
0.000000000
  0
ARC
  5
A17
330
A02
100
AcDbEntity
  8
Shape2DView
100
AcDbCircle
 10
96.743350000
 20
174.300000000
 30
0.000000000
 40
0.186666667
100
AcDbArc
 50
90.000000000
 51
-180.000000000
  0
ARC
  5
A18
330
A02
100
AcDbEntity
  8
Shape2DView
100
AcDbCircle
 10
96.743350000
 20
174.300000000
 30
0.000000000
 40
0.186666667
100
AcDbArc
 50
-180.000000000
 51
-0.000000000
  0
LINE
  5
A19
330
A02
100
AcDbEntity
  8
Shape2DView
100
AcDbLine
 10
96.743350000
 20
174.486666667
 30
0.000000000
 11
96.743350000
 21
177.100000000
 31
0.000000000
  0
LINE
  5
A1A
330
A02
100
AcDbEntity
  8
Shape2DView
100
AcDbLine
 10
86.556650000
 20
177.100000000
 30
0.000000000
 11
96.743350000
 21
177.100000000
 31
0.000000000
  0
LINE
  5
A1B
330
A02
100
AcDbEntity
  8
Shape2DView
100
AcDbLine
 10
86.556650000
 20
174.486666667
 30
0.000000000
 11
86.556650000
 21
177.100000000
 31
0.000000000
  0
ARC
  5
A1C
330
A02
100
AcDbEntity
  8
Shape2DView
100
AcDbCircle
 10
86.556650000
 20
174.300000000
 30
0.000000000
 40
0.186666667
100
AcDbArc
 50
180.000000000
 51
0.000000000
  0
ARC
  5
A1D
330
A02
100
AcDbEntity
  8
Shape2DView
100
AcDbCircle
 10
86.556650000
 20
174.300000000
 30
0.000000000
 40
0.186666667
100
AcDbArc
 50
0.000000000
 51
90.000000000
  0
LINE
  5
A1E
330
A02
100
AcDbEntity
  8
Shape2DView
100
AcDbLine
 10
86.369983333
 20
174.300000000
 30
0.000000000
 11
49.430016667
 21
174.300000000
 31
0.000000000
  0
ARC
  5
A1F
330
A02
100
AcDbEntity
  8
Shape2DView
100
AcDbCircle
 10
49.243350000
 20
174.300000000
 30
0.000000000
 40
0.186666667
100
AcDbArc
 50
90.000000000
 51
180.000000000
  0
ARC
  5
A20
330
A02
100
AcDbEntity
  8
Shape2DView
100
AcDbCircle
 10
49.243350000
 20
174.300000000
 30
0.000000000
 40
0.186666667
100
AcDbArc
 50
180.000000000
 51
0.000000000
  0
LINE
  5
A21
330
A02
100
AcDbEntity
  8
Shape2DView
100
AcDbLine
 10
49.243350000
 20
174.486666667
 30
0.000000000
 11
49.243350000
 21
177.100000000
 31
0.000000000
  0
LINE
  5
A22
330
A02
100
AcDbEntity
  8
Shape2DView
100
AcDbLine
 10
39.056650000
 20
177.100000000
 30
0.000000000
 11
49.243350000
 21
177.100000000
 31
0.000000000
  0
LINE
  5
A23
330
A02
100
AcDbEntity
  8
Shape2DView
100
AcDbLine
 10
39.056650000
 20
174.486666667
 30
0.000000000
 11
39.056650000
 21
177.100000000
 31
0.000000000
  0
ARC
  5
A24
330
A02
100
AcDbEntity
  8
Shape2DView
100
AcDbCircle
 10
39.056650000
 20
174.300000000
 30
0.000000000
 40
0.186666667
100
AcDbArc
 50
180.000000000
 51
0.000000000
  0
ARC
  5
A25
330
A02
100
AcDbEntity
  8
Shape2DView
100
AcDbCircle
 10
39.056650000
 20
174.300000000
 30
0.000000000
 40
0.186666667
100
AcDbArc
 50
0.000000000
 51
90.000000000
  0
LINE
  5
A26
330
A02
100
AcDbEntity
  8
Shape2DView
100
AcDbLine
 10
38.869983333
 20
174.300000000
 30
0.000000000
 11
20.400000000
 21
174.300000000
 31
0.000000000
  0
LINE
  5
A27
330
A02
100
AcDbEntity
  8
Shape2DView
100
AcDbLine
 10
20.400000000
 20
174.300000000
 30
0.000000000
 11
20.400000000
 21
160.830016667
 31
0.000000000
  0
ARC
  5
A28
330
A02
100
AcDbEntity
  8
Shape2DView
100
AcDbCircle
 10
20.400000000
 20
160.643350000
 30
0.000000000
 40
0.186666667
100
AcDbArc
 50
180.000000000
 51
-90.000000000
  0
ARC
  5
A29
330
A02
100
AcDbEntity
  8
Shape2DView
100
AcDbCircle
 10
20.400000000
 20
160.643350000
 30
0.000000000
 40
0.186666667
100
AcDbArc
 50
-90.000000000
 51
90.000000000
  0
LINE
  5
A2A
330
A02
100
AcDbEntity
  8
Shape2DView
100
AcDbLine
 10
20.213333333
 20
160.643350000
 30
0.000000000
 11
17.600000000
 21
160.643350000
 31
0.000000000
  0
LINE
  5
A2B
330
A02
100
AcDbEntity
  8
Shape2DView
100
AcDbLine
 10
17.600000000
 20
150.456650000
 30
0.000000000
 11
17.600000000
 21
160.643350000
 31
0.000000000
  0
LINE
  5
A2C
330
A02
100
AcDbEntity
  8
Shape2DView
100
AcDbLine
 10
20.213333333
 20
150.456650000
 30
0.000000000
 11
17.600000000
 21
150.456650000
 31
0.000000000
  0
ARC
  5
A2D
330
A02
100
AcDbEntity
  8
Shape2DView
100
AcDbCircle
 10
20.400000000
 20
150.456650000
 30
0.000000000
 40
0.186666667
100
AcDbArc
 50
-90.000000000
 51
90.000000000
  0
ARC
  5
A2E
330
A02
100
AcDbEntity
  8
Shape2DView
100
AcDbCircle
 10
20.400000000
 20
150.456650000
 30
0.000000000
 40
0.186666667
100
AcDbArc
 50
90.000000000
 51
180.000000000
  0
LINE
  5
A2F
330
A02
100
AcDbEntity
  8
Shape2DView
100
AcDbLine
 10
20.400000000
 20
150.269983333
 30
0.000000000
 11
20.400000000
 21
123.330016667
 31
0.000000000
  0
ARC
  5
A30
330
A02
100
AcDbEntity
  8
Shape2DView
100
AcDbCircle
 10
20.400000000
 20
123.143350000
 30
0.000000000
 40
0.186666667
100
AcDbArc
 50
180.000000000
 51
-90.000000000
  0
ARC
  5
A31
330
A02
100
AcDbEntity
  8
Shape2DView
100
AcDbCircle
 10
20.400000000
 20
123.143350000
 30
0.000000000
 40
0.186666667
100
AcDbArc
 50
-90.000000000
 51
90.000000000
  0
LINE
  5
A32
330
A02
100
AcDbEntity
  8
Shape2DView
100
AcDbLine
 10
20.213333333
 20
123.143350000
 30
0.000000000
 11
17.600000000
 21
123.143350000
 31
0.000000000
  0
LINE
  5
A33
330
A02
100
AcDbEntity
  8
Shape2DView
100
AcDbLine
 10
17.600000000
 20
112.956650000
 30
0.000000000
 11
17.600000000
 21
123.143350000
 31
0.000000000
  0
LINE
  5
A34
330
A02
100
AcDbEntity
  8
Shape2DView
100
AcDbLine
 10
20.213333333
 20
112.956650000
 30
0.000000000
 11
17.600000000
 21
112.956650000
 31
0.000000000
  0
ARC
  5
A35
330
A02
100
AcDbEntity
  8
Shape2DView
100
AcDbCircle
 10
20.400000000
 20
112.956650000
 30
0.000000000
 40
0.186666667
100
AcDbArc
 50
-90.000000000
 51
90.000000000
  0
ARC
  5
A36
330
A02
100
AcDbEntity
  8
Shape2DView
100
AcDbCircle
 10
20.400000000
 20
112.956650000
 30
0.000000000
 40
0.186666667
100
AcDbArc
 50
90.000000000
 51
180.000000000
  0
LINE
  5
A37
330
A02
100
AcDbEntity
  8
Shape2DView
100
AcDbLine
 10
20.400000000
 20
112.769983333
 30
0.000000000
 11
20.400000000
 21
99.300000000
 31
0.000000000
  0
LINE
  5
A38
330
A02
100
AcDbEntity
  8
Shape2DView
100
AcDbLine
 10
20.400000000
 20
99.300000000
 30
0.000000000
 11
32.619983333
 21
99.300000000
 31
0.000000000
  0
ARC
  5
A39
330
A02
100
AcDbEntity
  8
Shape2DView
100
AcDbCircle
 10
32.806650000
 20
99.300000000
 30
0.000000000
 40
0.186666667
100
AcDbArc
 50
-90.000000000
 51
0.000000000
  0
ARC
  5
A3A
330
A02
100
AcDbEntity
  8
Shape2DView
100
AcDbCircle
 10
32.806650000
 20
99.300000000
 30
0.000000000
 40
0.186666667
100
AcDbArc
 50
0.000000000
 51
180.000000000
  0
LINE
  5
A3B
330
A02
100
AcDbEntity
  8
Shape2DView
100
AcDbLine
 10
32.806650000
 20
99.113333333
 30
0.000000000
 11
32.806650000
 21
96.500000000
 31
0.000000000
  0
LINE
  5
A3C
330
A02
100
AcDbEntity
  8
Shape2DView
100
AcDbLine
 10
42.993350000
 20
96.500000000
 30
0.000000000
 11
32.806650000
 21
96.500000000
 31
0.000000000
  0
LINE
  5
A3D
330
A02
100
AcDbEntity
  8
Shape2DView
100
AcDbLine
 10
42.993350000
 20
99.113333333
 30
0.000000000
 11
42.993350000
 21
96.500000000
 31
0.000000000
  0
ARC
  5
A3E
330
A02
100
AcDbEntity
  8
Shape2DView
100
AcDbCircle
 10
42.993350000
 20
99.300000000
 30
0.000000000
 40
0.186666667
100
AcDbArc
 50
0.000000000
 51
180.000000000
  0
ARC
  5
A3F
330
A02
100
AcDbEntity
  8
Shape2DView
100
AcDbCircle
 10
42.993350000
 20
99.300000000
 30
0.000000000
 40
0.186666667
100
AcDbArc
 50
180.000000000
 51
-90.000000000
  0
LINE
  5
A40
330
A02
100
AcDbEntity
  8
Shape2DView
100
AcDbLine
 10
43.180016667
 20
99.300000000
 30
0.000000000
 11
55.400000000
 21
99.300000000
 31
0.000000000
  0
LINE
  5
A41
330
A02
100
AcDbEntity
  8
Shape2DView
100
AcDbLine
 10
55.400000000
 20
99.300000000
 30
0.000000000
 11
55.400000000
 21
109.279897855
 31
0.000000000
  0
ARC
  5
A42
330
A02
100
AcDbEntity
  8
Shape2DView
100
AcDbCircle
 10
55.400000000
 20
109.466564522
 30
0.000000000
 40
0.186666667
100
AcDbArc
 50
0.000000000
 51
90.000000000
  0
ARC
  5
A43
330
A02
100
AcDbEntity
  8
Shape2DView
100
AcDbCircle
 10
55.400000000
 20
109.466564522
 30
0.000000000
 40
0.186666667
100
AcDbArc
 50
90.000000000
 51
-90.000000000
  0
LINE
  5
A44
330
A02
100
AcDbEntity
  8
Shape2DView
100
AcDbLine
 10
55.586666667
 20
109.466564522
 30
0.000000000
 11
58.200000000
 21
109.466564522
 31
0.000000000
  0
LINE
  5
A45
330
A02
100
AcDbEntity
  8
Shape2DView
100
AcDbLine
 10
58.200000000
 20
119.653264522
 30
0.000000000
 11
58.200000000
 21
109.466564522
 31
0.000000000
  0
LINE
  5
A46
330
A02
100
AcDbEntity
  8
Shape2DView
100
AcDbLine
 10
55.586666667
 20
119.653264522
 30
0.000000000
 11
58.200000000
 21
119.653264522
 31
0.000000000
  0
ARC
  5
A47
330
A02
100
AcDbEntity
  8
Shape2DView
100
AcDbCircle
 10
55.400000000
 20
119.653264522
 30
0.000000000
 40
0.186666667
100
AcDbArc
 50
90.000000000
 51
-90.000000000
  0
ARC
  5
A48
330
A02
100
AcDbEntity
  8
Shape2DView
100
AcDbCircle
 10
55.400000000
 20
119.653264522
 30
0.000000000
 40
0.186666667
100
AcDbArc
 50
-90.000000000
 51
0.000000000
  0
LINE
  5
A49
330
A02
100
AcDbEntity
  8
Shape2DView
100
AcDbLine
 10
55.400000000
 20
119.839931188
 30
0.000000000
 11
55.400000000
 21
129.819829044
 31
0.000000000
  0
LINE
  5
A4A
330
A02
100
AcDbEntity
  8
Shape2DView
100
AcDbLine
 10
55.400000000
 20
129.819829044
 30
0.000000000
 11
77.199072216
 21
137.754042465
 31
0.000000000
  0
ARC
  5
A4B
330
A02
100
AcDbEntity
  8
Shape2DView
100
AcDbCircle
 10
77.374481505
 20
137.817886225
 30
0.000000000
 40
0.186666667
100
AcDbArc
 50
-70.000000000
 51
20.000000000
  0
ARC
  5
A4C
330
A02
100
AcDbEntity
  8
Shape2DView
100
AcDbCircle
 10
77.374481505
 20
137.817886225
 30
0.000000000
 40
0.186666667
100
AcDbArc
 50
20.000000000
 51
-160.000000000
  0
LINE
  5
A4D
330
A02
100
AcDbEntity
  8
Shape2DView
100
AcDbLine
 10
77.438325265
 20
137.642476936
 30
0.000000000
 11
78.332137906
 21
135.186746887
 31
0.000000000
  0
LINE
  5
A4E
330
A02
100
AcDbEntity
  8
Shape2DView
100
AcDbLine
 10
87.904504726
 20
138.670803481
 30
0.000000000
 11
78.332137906
 21
135.186746887
 31
0.000000000
  0
LINE
  5
A4F
330
A02
100
AcDbEntity
  8
Shape2DView
100
AcDbLine
 10
87.010692085
 20
141.126533530
 30
0.000000000
 11
87.904504726
 21
138.670803481
 31
0.000000000
  0
LINE
  5
A50
330
A02
100
AcDbEntity
  8
Shape2DView
100
AcDbLine
 10
71.047621783
 20
145.281799746
 30
0.000000000
 11
70.192571425
 21
147.631031298
 31
0.000000000
  0
ARC
  5
A51
330
A02
100
AcDbEntity
  8
Shape2DView
100
AcDbCircle
 10
66.819004990
 20
143.742709101
 30
0.000000000
 40
4.500000000
100
AcDbArc
 50
-70.000000000
 51
20.000000000
  0
LINE
  5
A52
330
A02
100
AcDbEntity
  8
Shape2DView
100
AcDbLine
 10
62.250093600
 20
137.290961376
 30
0.000000000
 11
68.358095635
 21
139.514092307
 31
0.000000000
  0
ARC
  5
A53
330
A02
100
AcDbEntity
  8
Shape2DView
100
AcDbCircle
 10
60.711002955
 20
141.519578169
 30
0.000000000
 40
4.500000000
100
AcDbArc
 50
-160.000000000
 51
-70.000000000
  0
LINE
  5
A54
330
A02
100
AcDbEntity
  8
Shape2DView
100
AcDbLine
 10
55.627335803
 20
142.329719076
 30
0.000000000
 11
56.482386161
 21
139.980487524
 31
0.000000000
  0
ARC
  5
A55
330
A02
100
AcDbEntity
  8
Shape2DView
100
AcDbCircle
 10
59.855952596
 20
143.868809721
 30
0.000000000
 40
4.500000000
100
AcDbArc
 50
110.000000000
 51
-160.000000000
  0
LINE
  5
A56
330
A02
100
AcDbEntity
  8
Shape2DView
100
AcDbLine
 10
64.424863987
 20
150.320557446
 30
0.000000000
 11
58.316861951
 21
148.097426515
 31
0.000000000
  0
ARC
  5
A57
330
A02
100
AcDbEntity
  8
Shape2DView
100
AcDbCircle
 10
65.963954632
 20
146.091940653
 30
0.000000000
 40
4.500000000
100
AcDbArc
 50
20.000000000
 51
110.000000000
  0
ARC
  5
A58
330
A02
100
AcDbEntity
  8
Shape2DView
100
AcDbCircle
 10
89.431462866
 20
169.814975224
 30
0.000000000
 40
0.755000000
100
AcDbArc
 50
-70.000000000
 51
110.000000000
  0
LINE
  5
A59
330
A02
100
AcDbEntity
  8
Shape2DView
100
AcDbLine
 10
89.689688074
 20
169.105507296
 30
0.000000000
 11
78.413376624
 21
165.001265576
 31
0.000000000
  0
ARC
  5
A5A
330
A02
100
AcDbEntity
  8
Shape2DView
100
AcDbCircle
 10
78.155151416
 20
165.710733505
 30
0.000000000
 40
0.755000000
100
AcDbArc
 50
110.000000000
 51
-70.000000000
  0
LINE
  5
A5B
330
A02
100
AcDbEntity
  8
Shape2DView
100
AcDbLine
 10
89.173237657
 20
170.524443153
 30
0.000000000
 11
77.896926208
 21
166.420201433
 31
0.000000000
  0
ARC
  5
A5C
330
A02
100
AcDbEntity
  8
Shape2DView
100
AcDbCircle
 10
59.361299000
 20
158.870330638
 30
0.000000000
 40
0.755000000
100
AcDbArc
 50
-70.000000000
 51
110.000000000
  0
LINE
  5
A5D
330
A02
100
AcDbEntity
  8
Shape2DView
100
AcDbLine
 10
59.619524209
 20
158.160862709
 30
0.000000000
 11
48.343212759
 21
154.056620989
 31
0.000000000
  0
ARC
  5
A5E
330
A02
100
AcDbEntity
  8
Shape2DView
100
AcDbCircle
 10
48.084987551
 20
154.766088918
 30
0.000000000
 40
0.755000000
100
AcDbArc
 50
110.000000000
 51
-70.000000000
  0
LINE
  5
A5F
330
A02
100
AcDbEntity
  8
Shape2DView
100
AcDbLine
 10
59.103073792
 20
159.579798567
 30
0.000000000
 11
47.826762343
 21
155.475556847
 31
0.000000000
  0
ARC
  5
A60
330
A02
100
AcDbEntity
  8
Shape2DView
100
AcDbCircle
 10
49.755000000
 20
107.000000000
 30
0.000000000
 40
0.755000000
100
AcDbArc
 50
180.000000000
 51
0.000000000
  0
LINE
  5
A61
330
A02
100
AcDbEntity
  8
Shape2DView
100
AcDbLine
 10
49.000000000
 20
107.000000000
 30
0.000000000
 11
49.000000000
 21
119.000000000
 31
0.000000000
  0
ARC
  5
A62
330
A02
100
AcDbEntity
  8
Shape2DView
100
AcDbCircle
 10
49.755000000
 20
119.000000000
 30
0.000000000
 40
0.755000000
100
AcDbArc
 50
0.000000000
 51
180.000000000
  0
LINE
  5
A63
330
A02
100
AcDbEntity
  8
Shape2DView
100
AcDbLine
 10
50.510000000
 20
107.000000000
 30
0.000000000
 11
50.510000000
 21
119.000000000
 31
0.000000000
  0
ARC
  5
A64
330
A02
100
AcDbEntity
  8
Shape2DView
100
AcDbCircle
 10
61.746700430
 20
154.801727813
 30
0.000000000
 40
2.500000000
100
AcDbArc
 50
-70.000000000
 51
109.999999999
  0
LINE
  5
A65
330
A02
100
AcDbEntity
  8
Shape2DView
100
AcDbLine
 10
62.601750789
 20
152.452496261
 30
0.000000000
 11
58.749011043
 21
151.050213673
 31
0.000000000
  0
ARC
  5
A66
330
A02
100
AcDbEntity
  8
Shape2DView
100
AcDbCircle
 10
57.893960685
 20
153.399445225
 30
0.000000000
 40
2.500000000
100
AcDbArc
 50
110.000000000
 51
-70.000000000
  0
LINE
  5
A67
330
A02
100
AcDbEntity
  8
Shape2DView
100
AcDbLine
 10
60.891650072
 20
157.150959365
 30
0.000000000
 11
57.038910327
 21
155.748676777
 31
0.000000000
  0
ARC
  5
A68
330
A02
100
AcDbEntity
  8
Shape2DView001
100
AcDbCircle
 10
166.053151675
 20
141.301942819
 30
0.000000000
 40
0.186666667
100
AcDbArc
 50
-110.000000000
 51
-20.000000000
  0
ARC
  5
A69
330
A02
100
AcDbEntity
  8
Shape2DView001
100
AcDbCircle
 10
166.053151675
 20
141.301942819
 30
0.000000000
 40
0.186666667
100
AcDbArc
 50
-20.000000000
 51
160.000000000
  0
LINE
  5
A6A
330
A02
100
AcDbEntity
  8
Shape2DView001
100
AcDbLine
 10
165.877742386
 20
141.365786579
 30
0.000000000
 11
144.078670170
 21
149.300000000
 31
0.000000000
  0
LINE
  5
A6B
330
A02
100
AcDbEntity
  8
Shape2DView001
100
AcDbLine
 10
144.078670170
 20
149.300000000
 30
0.000000000
 11
138.619116656
 21
134.300000000
 31
0.000000000
  0
LINE
  5
A6C
330
A02
100
AcDbEntity
  8
Shape2DView001
100
AcDbLine
 10
137.600000000
 20
134.300000000
 30
0.000000000
 11
137.600000000
 21
149.019983333
 31
0.000000000
  0
ARC
  5
A6D
330
A02
100
AcDbEntity
  8
Shape2DView001
100
AcDbCircle
 10
137.600000000
 20
149.206650000
 30
0.000000000
 40
0.186666667
100
AcDbArc
 50
-90.000000000
 51
90.000000000
  0
ARC
  5
A6E
330
A02
100
AcDbEntity
  8
Shape2DView001
100
AcDbCircle
 10
137.600000000
 20
149.206650000
 30
0.000000000
 40
0.186666667
100
AcDbArc
 50
90.000000000
 51
180.000000000
  0
LINE
  5
A6F
330
A02
100
AcDbEntity
  8
Shape2DView001
100
AcDbLine
 10
138.619116656
 20
134.300000000
 30
0.000000000
 11
137.600000000
 21
134.300000000
 31
0.000000000
  0
LINE
  5
A70
330
A02
100
AcDbEntity
  8
Shape2DView001
100
AcDbLine
 10
137.413333333
 20
149.206650000
 30
0.000000000
 11
134.800000000
 21
149.206650000
 31
0.000000000
  0
LINE
  5
A71
330
A02
100
AcDbEntity
  8
Shape2DView001
100
AcDbLine
 10
134.800000000
 20
159.393350000
 30
0.000000000
 11
134.800000000
 21
149.206650000
 31
0.000000000
  0
LINE
  5
A72
330
A02
100
AcDbEntity
  8
Shape2DView001
100
AcDbLine
 10
137.413333333
 20
159.393350000
 30
0.000000000
 11
134.800000000
 21
159.393350000
 31
0.000000000
  0
ARC
  5
A73
330
A02
100
AcDbEntity
  8
Shape2DView001
100
AcDbCircle
 10
137.600000000
 20
159.393350000
 30
0.000000000
 40
0.186666667
100
AcDbArc
 50
180.000000000
 51
-90.000000000
  0
ARC
  5
A74
330
A02
100
AcDbEntity
  8
Shape2DView001
100
AcDbCircle
 10
137.600000000
 20
159.393350000
 30
0.000000000
 40
0.186666667
100
AcDbArc
 50
-90.000000000
 51
90.000000000
  0
LINE
  5
A75
330
A02
100
AcDbEntity
  8
Shape2DView001
100
AcDbLine
 10
137.600000000
 20
159.580016667
 30
0.000000000
 11
137.600000000
 21
174.300000000
 31
0.000000000
  0
LINE
  5
A76
330
A02
100
AcDbEntity
  8
Shape2DView001
100
AcDbLine
 10
137.600000000
 20
174.300000000
 30
0.000000000
 11
156.069983333
 21
174.300000000
 31
0.000000000
  0
ARC
  5
A77
330
A02
100
AcDbEntity
  8
Shape2DView001
100
AcDbCircle
 10
156.256650000
 20
174.300000000
 30
0.000000000
 40
0.186666667
100
AcDbArc
 50
180.000000000
 51
0.000000000
  0
ARC
  5
A78
330
A02
100
AcDbEntity
  8
Shape2DView001
100
AcDbCircle
 10
156.256650000
 20
174.300000000
 30
0.000000000
 40
0.186666667
100
AcDbArc
 50
0.000000000
 51
90.000000000
  0
LINE
  5
A79
330
A02
100
AcDbEntity
  8
Shape2DView001
100
AcDbLine
 10
156.256650000
 20
174.486666667
 30
0.000000000
 11
156.256650000
 21
177.100000000
 31
0.000000000
  0
LINE
  5
A7A
330
A02
100
AcDbEntity
  8
Shape2DView001
100
AcDbLine
 10
166.443350000
 20
177.100000000
 30
0.000000000
 11
156.256650000
 21
177.100000000
 31
0.000000000
  0
LINE
  5
A7B
330
A02
100
AcDbEntity
  8
Shape2DView001
100
AcDbLine
 10
166.443350000
 20
174.486666667
 30
0.000000000
 11
166.443350000
 21
177.100000000
 31
0.000000000
  0
ARC
  5
A7C
330
A02
100
AcDbEntity
  8
Shape2DView001
100
AcDbCircle
 10
166.443350000
 20
174.300000000
 30
0.000000000
 40
0.186666667
100
AcDbArc
 50
90.000000000
 51
180.000000000
  0
ARC
  5
A7D
330
A02
100
AcDbEntity
  8
Shape2DView001
100
AcDbCircle
 10
166.443350000
 20
174.300000000
 30
0.000000000
 40
0.186666667
100
AcDbArc
 50
180.000000000
 51
0.000000000
  0
LINE
  5
A7E
330
A02
100
AcDbEntity
  8
Shape2DView001
100
AcDbLine
 10
166.630016667
 20
174.300000000
 30
0.000000000
 11
203.569983333
 21
174.300000000
 31
0.000000000
  0
ARC
  5
A7F
330
A02
100
AcDbEntity
  8
Shape2DView001
100
AcDbCircle
 10
203.756650000
 20
174.300000000
 30
0.000000000
 40
0.186666667
100
AcDbArc
 50
180.000000000
 51
0.000000000
  0
ARC
  5
A80
330
A02
100
AcDbEntity
  8
Shape2DView001
100
AcDbCircle
 10
203.756650000
 20
174.300000000
 30
0.000000000
 40
0.186666667
100
AcDbArc
 50
0.000000000
 51
90.000000000
  0
LINE
  5
A81
330
A02
100
AcDbEntity
  8
Shape2DView001
100
AcDbLine
 10
203.756650000
 20
174.486666667
 30
0.000000000
 11
203.756650000
 21
177.100000000
 31
0.000000000
  0
LINE
  5
A82
330
A02
100
AcDbEntity
  8
Shape2DView001
100
AcDbLine
 10
213.943350000
 20
177.100000000
 30
0.000000000
 11
203.756650000
 21
177.100000000
 31
0.000000000
  0
LINE
  5
A83
330
A02
100
AcDbEntity
  8
Shape2DView001
100
AcDbLine
 10
213.943350000
 20
174.486666667
 30
0.000000000
 11
213.943350000
 21
177.100000000
 31
0.000000000
  0
ARC
  5
A84
330
A02
100
AcDbEntity
  8
Shape2DView001
100
AcDbCircle
 10
213.943350000
 20
174.300000000
 30
0.000000000
 40
0.186666667
100
AcDbArc
 50
90.000000000
 51
180.000000000
  0
ARC
  5
A85
330
A02
100
AcDbEntity
  8
Shape2DView001
100
AcDbCircle
 10
213.943350000
 20
174.300000000
 30
0.000000000
 40
0.186666667
100
AcDbArc
 50
180.000000000
 51
0.000000000
  0
LINE
  5
A86
330
A02
100
AcDbEntity
  8
Shape2DView001
100
AcDbLine
 10
214.130016667
 20
174.300000000
 30
0.000000000
 11
232.600000000
 21
174.300000000
 31
0.000000000
  0
LINE
  5
A87
330
A02
100
AcDbEntity
  8
Shape2DView001
100
AcDbLine
 10
232.600000000
 20
174.300000000
 30
0.000000000
 11
232.600000000
 21
160.830016667
 31
0.000000000
  0
ARC
  5
A88
330
A02
100
AcDbEntity
  8
Shape2DView001
100
AcDbCircle
 10
232.600000000
 20
160.643350000
 30
0.000000000
 40
0.186666667
100
AcDbArc
 50
90.000000000
 51
-90.000000000
  0
ARC
  5
A89
330
A02
100
AcDbEntity
  8
Shape2DView001
100
AcDbCircle
 10
232.600000000
 20
160.643350000
 30
0.000000000
 40
0.186666667
100
AcDbArc
 50
-90.000000000
 51
0.000000000
  0
LINE
  5
A8A
330
A02
100
AcDbEntity
  8
Shape2DView001
100
AcDbLine
 10
232.786666667
 20
160.643350000
 30
0.000000000
 11
235.400000000
 21
160.643350000
 31
0.000000000
  0
LINE
  5
A8B
330
A02
100
AcDbEntity
  8
Shape2DView001
100
AcDbLine
 10
235.400000000
 20
150.456650000
 30
0.000000000
 11
235.400000000
 21
160.643350000
 31
0.000000000
  0
LINE
  5
A8C
330
A02
100
AcDbEntity
  8
Shape2DView001
100
AcDbLine
 10
232.786666667
 20
150.456650000
 30
0.000000000
 11
235.400000000
 21
150.456650000
 31
0.000000000
  0
ARC
  5
A8D
330
A02
100
AcDbEntity
  8
Shape2DView001
100
AcDbCircle
 10
232.600000000
 20
150.456650000
 30
0.000000000
 40
0.186666667
100
AcDbArc
 50
0.000000000
 51
90.000000000
  0
ARC
  5
A8E
330
A02
100
AcDbEntity
  8
Shape2DView001
100
AcDbCircle
 10
232.600000000
 20
150.456650000
 30
0.000000000
 40
0.186666667
100
AcDbArc
 50
90.000000000
 51
-90.000000000
  0
LINE
  5
A8F
330
A02
100
AcDbEntity
  8
Shape2DView001
100
AcDbLine
 10
232.600000000
 20
150.269983333
 30
0.000000000
 11
232.600000000
 21
123.330016667
 31
0.000000000
  0
ARC
  5
A90
330
A02
100
AcDbEntity
  8
Shape2DView001
100
AcDbCircle
 10
232.600000000
 20
123.143350000
 30
0.000000000
 40
0.186666667
100
AcDbArc
 50
90.000000000
 51
-90.000000000
  0
ARC
  5
A91
330
A02
100
AcDbEntity
  8
Shape2DView001
100
AcDbCircle
 10
232.600000000
 20
123.143350000
 30
0.000000000
 40
0.186666667
100
AcDbArc
 50
-90.000000000
 51
0.000000000
  0
LINE
  5
A92
330
A02
100
AcDbEntity
  8
Shape2DView001
100
AcDbLine
 10
232.786666667
 20
123.143350000
 30
0.000000000
 11
235.400000000
 21
123.143350000
 31
0.000000000
  0
LINE
  5
A93
330
A02
100
AcDbEntity
  8
Shape2DView001
100
AcDbLine
 10
235.400000000
 20
112.956650000
 30
0.000000000
 11
235.400000000
 21
123.143350000
 31
0.000000000
  0
LINE
  5
A94
330
A02
100
AcDbEntity
  8
Shape2DView001
100
AcDbLine
 10
232.786666667
 20
112.956650000
 30
0.000000000
 11
235.400000000
 21
112.956650000
 31
0.000000000
  0
ARC
  5
A95
330
A02
100
AcDbEntity
  8
Shape2DView001
100
AcDbCircle
 10
232.600000000
 20
112.956650000
 30
0.000000000
 40
0.186666667
100
AcDbArc
 50
0.000000000
 51
90.000000000
  0
ARC
  5
A96
330
A02
100
AcDbEntity
  8
Shape2DView001
100
AcDbCircle
 10
232.600000000
 20
112.956650000
 30
0.000000000
 40
0.186666667
100
AcDbArc
 50
90.000000000
 51
-90.000000000
  0
LINE
  5
A97
330
A02
100
AcDbEntity
  8
Shape2DView001
100
AcDbLine
 10
232.600000000
 20
112.769983333
 30
0.000000000
 11
232.600000000
 21
99.300000000
 31
0.000000000
  0
LINE
  5
A98
330
A02
100
AcDbEntity
  8
Shape2DView001
100
AcDbLine
 10
232.600000000
 20
99.300000000
 30
0.000000000
 11
220.380016667
 21
99.300000000
 31
0.000000000
  0
ARC
  5
A99
330
A02
100
AcDbEntity
  8
Shape2DView001
100
AcDbCircle
 10
220.193350000
 20
99.300000000
 30
0.000000000
 40
0.186666667
100
AcDbArc
 50
0.000000000
 51
180.000000000
  0
ARC
  5
A9A
330
A02
100
AcDbEntity
  8
Shape2DView001
100
AcDbCircle
 10
220.193350000
 20
99.300000000
 30
0.000000000
 40
0.186666667
100
AcDbArc
 50
180.000000000
 51
-90.000000000
  0
LINE
  5
A9B
330
A02
100
AcDbEntity
  8
Shape2DView001
100
AcDbLine
 10
220.193350000
 20
99.113333333
 30
0.000000000
 11
220.193350000
 21
96.500000000
 31
0.000000000
  0
LINE
  5
A9C
330
A02
100
AcDbEntity
  8
Shape2DView001
100
AcDbLine
 10
210.006650000
 20
96.500000000
 30
0.000000000
 11
220.193350000
 21
96.500000000
 31
0.000000000
  0
LINE
  5
A9D
330
A02
100
AcDbEntity
  8
Shape2DView001
100
AcDbLine
 10
210.006650000
 20
99.113333333
 30
0.000000000
 11
210.006650000
 21
96.500000000
 31
0.000000000
  0
ARC
  5
A9E
330
A02
100
AcDbEntity
  8
Shape2DView001
100
AcDbCircle
 10
210.006650000
 20
99.300000000
 30
0.000000000
 40
0.186666667
100
AcDbArc
 50
-90.000000000
 51
0.000000000
  0
ARC
  5
A9F
330
A02
100
AcDbEntity
  8
Shape2DView001
100
AcDbCircle
 10
210.006650000
 20
99.300000000
 30
0.000000000
 40
0.186666667
100
AcDbArc
 50
0.000000000
 51
180.000000000
  0
LINE
  5
AA0
330
A02
100
AcDbEntity
  8
Shape2DView001
100
AcDbLine
 10
209.819983333
 20
99.300000000
 30
0.000000000
 11
197.600000000
 21
99.300000000
 31
0.000000000
  0
LINE
  5
AA1
330
A02
100
AcDbEntity
  8
Shape2DView001
100
AcDbLine
 10
197.600000000
 20
99.300000000
 30
0.000000000
 11
197.600000000
 21
109.279897855
 31
0.000000000
  0
ARC
  5
AA2
330
A02
100
AcDbEntity
  8
Shape2DView001
100
AcDbCircle
 10
197.600000000
 20
109.466564522
 30
0.000000000
 40
0.186666667
100
AcDbArc
 50
-90.000000000
 51
90.000000000
  0
ARC
  5
AA3
330
A02
100
AcDbEntity
  8
Shape2DView001
100
AcDbCircle
 10
197.600000000
 20
109.466564522
 30
0.000000000
 40
0.186666667
100
AcDbArc
 50
90.000000000
 51
180.000000000
  0
LINE
  5
AA4
330
A02
100
AcDbEntity
  8
Shape2DView001
100
AcDbLine
 10
197.413333333
 20
109.466564522
 30
0.000000000
 11
194.800000000
 21
109.466564522
 31
0.000000000
  0
LINE
  5
AA5
330
A02
100
AcDbEntity
  8
Shape2DView001
100
AcDbLine
 10
194.800000000
 20
119.653264522
 30
0.000000000
 11
194.800000000
 21
109.466564522
 31
0.000000000
  0
LINE
  5
AA6
330
A02
100
AcDbEntity
  8
Shape2DView001
100
AcDbLine
 10
197.413333333
 20
119.653264522
 30
0.000000000
 11
194.800000000
 21
119.653264522
 31
0.000000000
  0
ARC
  5
AA7
330
A02
100
AcDbEntity
  8
Shape2DView001
100
AcDbCircle
 10
197.600000000
 20
119.653264522
 30
0.000000000
 40
0.186666667
100
AcDbArc
 50
180.000000000
 51
-90.000000000
  0
ARC
  5
AA8
330
A02
100
AcDbEntity
  8
Shape2DView001
100
AcDbCircle
 10
197.600000000
 20
119.653264522
 30
0.000000000
 40
0.186666667
100
AcDbArc
 50
-90.000000000
 51
90.000000000
  0
LINE
  5
AA9
330
A02
100
AcDbEntity
  8
Shape2DView001
100
AcDbLine
 10
197.600000000
 20
119.839931188
 30
0.000000000
 11
197.600000000
 21
129.819829044
 31
0.000000000
  0
LINE
  5
AAA
330
A02
100
AcDbEntity
  8
Shape2DView001
100
AcDbLine
 10
197.600000000
 20
129.819829044
 30
0.000000000
 11
175.800927784
 21
137.754042465
 31
0.000000000
  0
ARC
  5
AAB
330
A02
100
AcDbEntity
  8
Shape2DView001
100
AcDbCircle
 10
175.625518495
 20
137.817886225
 30
0.000000000
 40
0.186666667
100
AcDbArc
 50
-20.000000000
 51
160.000000000
  0
ARC
  5
AAC
330
A02
100
AcDbEntity
  8
Shape2DView001
100
AcDbCircle
 10
175.625518495
 20
137.817886225
 30
0.000000000
 40
0.186666667
100
AcDbArc
 50
160.000000000
 51
-110.000000000
  0
LINE
  5
AAD
330
A02
100
AcDbEntity
  8
Shape2DView001
100
AcDbLine
 10
175.561674735
 20
137.642476936
 30
0.000000000
 11
174.667862094
 21
135.186746887
 31
0.000000000
  0
LINE
  5
AAE
330
A02
100
AcDbEntity
  8
Shape2DView001
100
AcDbLine
 10
165.095495274
 20
138.670803481
 30
0.000000000
 11
174.667862094
 21
135.186746887
 31
0.000000000
  0
LINE
  5
AAF
330
A02
100
AcDbEntity
  8
Shape2DView001
100
AcDbLine
 10
165.989307915
 20
141.126533530
 30
0.000000000
 11
165.095495274
 21
138.670803481
 31
0.000000000
  0
ARC
  5
AB0
330
A02
100
AcDbEntity
  8
Shape2DView001
100
AcDbCircle
 10
163.568537134
 20
169.814975224
 30
0.000000000
 40
0.755000000
100
AcDbArc
 50
70.000000000
 51
-110.000000000
  0
LINE
  5
AB1
330
A02
100
AcDbEntity
  8
Shape2DView001
100
AcDbLine
 10
163.826762343
 20
170.524443153
 30
0.000000000
 11
175.103073792
 21
166.420201433
 31
0.000000000
  0
ARC
  5
AB2
330
A02
100
AcDbEntity
  8
Shape2DView001
100
AcDbCircle
 10
174.844848584
 20
165.710733505
 30
0.000000000
 40
0.755000000
100
AcDbArc
 50
-110.000000000
 51
70.000000000
  0
LINE
  5
AB3
330
A02
100
AcDbEntity
  8
Shape2DView001
100
AcDbLine
 10
163.310311926
 20
169.105507296
 30
0.000000000
 11
174.586623376
 21
165.001265576
 31
0.000000000
  0
ARC
  5
AB4
330
A02
100
AcDbEntity
  8
Shape2DView001
100
AcDbCircle
 10
193.638701000
 20
158.870330638
 30
0.000000000
 40
0.755000000
100
AcDbArc
 50
70.000000000
 51
-110.000000000
  0
LINE
  5
AB5
330
A02
100
AcDbEntity
  8
Shape2DView001
100
AcDbLine
 10
193.896926208
 20
159.579798567
 30
0.000000000
 11
205.173237657
 21
155.475556847
 31
0.000000000
  0
ARC
  5
AB6
330
A02
100
AcDbEntity
  8
Shape2DView001
100
AcDbCircle
 10
204.915012449
 20
154.766088918
 30
0.000000000
 40
0.755000000
100
AcDbArc
 50
-110.000000000
 51
70.000000000
  0
LINE
  5
AB7
330
A02
100
AcDbEntity
  8
Shape2DView001
100
AcDbLine
 10
193.380475791
 20
158.160862709
 30
0.000000000
 11
204.656787241
 21
154.056620989
 31
0.000000000
  0
ARC
  5
AB8
330
A02
100
AcDbEntity
  8
Shape2DView001
100
AcDbCircle
 10
203.245000000
 20
119.000000000
 30
0.000000000
 40
0.755000000
100
AcDbArc
 50
0.000000000
 51
180.000000000
  0
LINE
  5
AB9
330
A02
100
AcDbEntity
  8
Shape2DView001
100
AcDbLine
 10
204.000000000
 20
119.000000000
 30
0.000000000
 11
204.000000000
 21
107.000000000
 31
0.000000000
  0
ARC
  5
ABA
330
A02
100
AcDbEntity
  8
Shape2DView001
100
AcDbCircle
 10
203.245000000
 20
107.000000000
 30
0.000000000
 40
0.755000000
100
AcDbArc
 50
180.000000000
 51
0.000000000
  0
LINE
  5
ABB
330
A02
100
AcDbEntity
  8
Shape2DView001
100
AcDbLine
 10
202.490000000
 20
119.000000000
 30
0.000000000
 11
202.490000000
 21
107.000000000
 31
0.000000000
  0
LINE
  5
ABC
330
A02
100
AcDbEntity
  8
Shape2DView002
100
AcDbLine
 10
164.200000000
 20
186.777200187
 30
0.000000000
 11
164.200000000
 21
188.900000000
 31
0.000000000
  0
ARC
  5
ABD
330
A02
100
AcDbEntity
  8
Shape2DView002
100
AcDbCircle
 10
164.600000000
 20
186.777200187
 30
0.000000000
 40
0.400000000
100
AcDbArc
 50
180.000000000
 51
-110.556045220
  0
ARC
  5
ABE
330
A02
100
AcDbEntity
  8
Shape2DView002
100
AcDbCircle
 10
164.600000000
 20
188.900000000
 30
0.000000000
 40
0.400000000
100
AcDbArc
 50
90.000000000
 51
180.000000000
  0
LINE
  5
ABF
330
A02
100
AcDbEntity
  8
Shape2DView002
100
AcDbLine
 10
164.459550623
 20
186.402668516
 30
0.000000000
 11
166.200000000
 21
185.750000000
 31
0.000000000
  0
LINE
  5
AC0
330
A02
100
AcDbEntity
  8
Shape2DView002
100
AcDbLine
 10
166.200000000
 20
185.750000000
 30
0.000000000
 11
166.200000000
 21
186.500000000
 31
0.000000000
  0
LINE
  5
AC1
330
A02
100
AcDbEntity
  8
Shape2DView002
100
AcDbLine
 10
166.200000000
 20
186.500000000
 30
0.000000000
 11
169.000000000
 21
186.500000000
 31
0.000000000
  0
LINE
  5
AC2
330
A02
100
AcDbEntity
  8
Shape2DView002
100
AcDbLine
 10
169.000000000
 20
186.500000000
 30
0.000000000
 11
169.000000000
 21
185.021290149
 31
0.000000000
  0
ARC
  5
AC3
330
A02
100
AcDbEntity
  8
Shape2DView002
100
AcDbCircle
 10
169.400000000
 20
185.021290149
 30
0.000000000
 40
0.400000000
100
AcDbArc
 50
180.000000000
 51
-75.000000000
  0
LINE
  5
AC4
330
A02
100
AcDbEntity
  8
Shape2DView002
100
AcDbLine
 10
169.503527618
 20
184.634919819
 30
0.000000000
 11
176.464101615
 21
186.500000000
 31
0.000000000
  0
LINE
  5
AC5
330
A02
100
AcDbEntity
  8
Shape2DView002
100
AcDbLine
 10
176.464101615
 20
186.500000000
 30
0.000000000
 11
227.535898385
 21
186.500000000
 31
0.000000000
  0
LINE
  5
AC6
330
A02
100
AcDbEntity
  8
Shape2DView002
100
AcDbLine
 10
227.535898385
 20
186.500000000
 30
0.000000000
 11
234.496472382
 21
184.634919819
 31
0.000000000
  0
ARC
  5
AC7
330
A02
100
AcDbEntity
  8
Shape2DView002
100
AcDbCircle
 10
234.600000000
 20
185.021290149
 30
0.000000000
 40
0.400000000
100
AcDbArc
 50
-105.000000000
 51
0.000000000
  0
LINE
  5
AC8
330
A02
100
AcDbEntity
  8
Shape2DView002
100
AcDbLine
 10
235.000000000
 20
185.021290149
 30
0.000000000
 11
235.000000000
 21
186.500000000
 31
0.000000000
  0
LINE
  5
AC9
330
A02
100
AcDbEntity
  8
Shape2DView002
100
AcDbLine
 10
237.800000000
 20
186.500000000
 30
0.000000000
 11
235.000000000
 21
186.500000000
 31
0.000000000
  0
LINE
  5
ACA
330
A02
100
AcDbEntity
  8
Shape2DView002
100
AcDbLine
 10
237.800000000
 20
185.750000000
 30
0.000000000
 11
237.800000000
 21
186.500000000
 31
0.000000000
  0
LINE
  5
ACB
330
A02
100
AcDbEntity
  8
Shape2DView002
100
AcDbLine
 10
239.540449377
 20
186.402668516
 30
0.000000000
 11
237.800000000
 21
185.750000000
 31
0.000000000
  0
ARC
  5
ACC
330
A02
100
AcDbEntity
  8
Shape2DView002
100
AcDbCircle
 10
239.400000000
 20
186.777200187
 30
0.000000000
 40
0.400000000
100
AcDbArc
 50
-69.443954780
 51
0.000000000
  0
LINE
  5
ACD
330
A02
100
AcDbEntity
  8
Shape2DView002
100
AcDbLine
 10
239.800000000
 20
188.900000000
 30
0.000000000
 11
239.800000000
 21
186.777200187
 31
0.000000000
  0
ARC
  5
ACE
330
A02
100
AcDbEntity
  8
Shape2DView002
100
AcDbCircle
 10
239.400000000
 20
188.900000000
 30
0.000000000
 40
0.400000000
100
AcDbArc
 50
0.000000000
 51
90.000000000
  0
LINE
  5
ACF
330
A02
100
AcDbEntity
  8
Shape2DView002
100
AcDbLine
 10
239.400000000
 20
189.300000000
 30
0.000000000
 11
225.800000000
 21
189.300000000
 31
0.000000000
  0
ARC
  5
AD0
330
A02
100
AcDbEntity
  8
Shape2DView002
100
AcDbCircle
 10
225.800000000
 20
189.700000000
 30
0.000000000
 40
0.400000000
100
AcDbArc
 50
90.000000000
 51
-90.000000000
  0
LINE
  5
AD1
330
A02
100
AcDbEntity
  8
Shape2DView002
100
AcDbLine
 10
225.800000000
 20
190.100000000
 30
0.000000000
 11
239.400000000
 21
190.100000000
 31
0.000000000
  0
ARC
  5
AD2
330
A02
100
AcDbEntity
  8
Shape2DView002
100
AcDbCircle
 10
239.400000000
 20
190.500000000
 30
0.000000000
 40
0.400000000
100
AcDbArc
 50
-90.000000000
 51
0.000000000
  0
LINE
  5
AD3
330
A02
100
AcDbEntity
  8
Shape2DView002
100
AcDbLine
 10
239.800000000
 20
190.500000000
 30
0.000000000
 11
239.800000000
 21
204.393350000
 31
0.000000000
  0
LINE
  5
AD4
330
A02
100
AcDbEntity
  8
Shape2DView002
100
AcDbLine
 10
239.800000000
 20
204.393350000
 30
0.000000000
 11
237.225339318
 21
204.393350000
 31
0.000000000
  0
ARC
  5
AD5
330
A02
100
AcDbEntity
  8
Shape2DView002
100
AcDbCircle
 10
237.052905000
 20
204.492905000
 30
0.000000000
 40
0.199110000
100
AcDbArc
 50
180.000000000
 51
-30.000000000
  0
ARC
  5
AD6
330
A02
100
AcDbEntity
  8
Shape2DView002
100
AcDbCircle
 10
237.052905000
 20
204.492905000
 30
0.000000000
 40
0.199110000
100
AcDbArc
 50
120.000000000
 51
180.000000000
  0
LINE
  5
AD7
330
A02
100
AcDbEntity
  8
Shape2DView002
100
AcDbLine
 10
236.953350000
 20
213.934660682
 30
0.000000000
 11
236.953350000
 21
204.665339318
 31
0.000000000
  0
ARC
  5
AD8
330
A02
100
AcDbEntity
  8
Shape2DView002
100
AcDbCircle
 10
237.052905000
 20
214.107095000
 30
0.000000000
 40
0.199110000
100
AcDbArc
 50
180.000000000
 51
-120.000000000
  0
ARC
  5
AD9
330
A02
100
AcDbEntity
  8
Shape2DView002
100
AcDbCircle
 10
237.052905000
 20
214.107095000
 30
0.000000000
 40
0.199110000
100
AcDbArc
 50
30.000000000
 51
180.000000000
  0
LINE
  5
ADA
330
A02
100
AcDbEntity
  8
Shape2DView002
100
AcDbLine
 10
239.800000000
 20
214.206650000
 30
0.000000000
 11
237.225339318
 21
214.206650000
 31
0.000000000
  0
LINE
  5
ADB
330
A02
100
AcDbEntity
  8
Shape2DView002
100
AcDbLine
 10
239.800000000
 20
214.206650000
 30
0.000000000
 11
239.800000000
 21
229.300000000
 31
0.000000000
  0
LINE
  5
ADC
330
A02
100
AcDbEntity
  8
Shape2DView002
100
AcDbLine
 10
164.200000000
 20
229.300000000
 30
0.000000000
 11
239.800000000
 21
229.300000000
 31
0.000000000
  0
LINE
  5
ADD
330
A02
100
AcDbEntity
  8
Shape2DView002
100
AcDbLine
 10
164.200000000
 20
214.206650000
 30
0.000000000
 11
164.200000000
 21
229.300000000
 31
0.000000000
  0
LINE
  5
ADE
330
A02
100
AcDbEntity
  8
Shape2DView002
100
AcDbLine
 10
166.774660682
 20
214.206650000
 30
0.000000000
 11
164.200000000
 21
214.206650000
 31
0.000000000
  0
ARC
  5
ADF
330
A02
100
AcDbEntity
  8
Shape2DView002
100
AcDbCircle
 10
166.947095000
 20
214.107095000
 30
0.000000000
 40
0.199110000
100
AcDbArc
 50
-60.000000000
 51
150.000000000
  0
LINE
  5
AE0
330
A02
100
AcDbEntity
  8
Shape2DView002
100
AcDbLine
 10
167.046650000
 20
213.934660682
 30
0.000000000
 11
167.046650000
 21
204.665339318
 31
0.000000000
  0
ARC
  5
AE1
330
A02
100
AcDbEntity
  8
Shape2DView002
100
AcDbCircle
 10
166.947095000
 20
204.492905000
 30
0.000000000
 40
0.199110000
100
AcDbArc
 50
-150.000000000
 51
60.000000000
  0
LINE
  5
AE2
330
A02
100
AcDbEntity
  8
Shape2DView002
100
AcDbLine
 10
166.774660682
 20
204.393350000
 30
0.000000000
 11
164.200000000
 21
204.393350000
 31
0.000000000
  0
LINE
  5
AE3
330
A02
100
AcDbEntity
  8
Shape2DView002
100
AcDbLine
 10
164.200000000
 20
190.500000000
 30
0.000000000
 11
164.200000000
 21
204.393350000
 31
0.000000000
  0
ARC
  5
AE4
330
A02
100
AcDbEntity
  8
Shape2DView002
100
AcDbCircle
 10
164.600000000
 20
190.500000000
 30
0.000000000
 40
0.400000000
100
AcDbArc
 50
180.000000000
 51
-90.000000000
  0
LINE
  5
AE5
330
A02
100
AcDbEntity
  8
Shape2DView002
100
AcDbLine
 10
178.200000000
 20
190.100000000
 30
0.000000000
 11
164.600000000
 21
190.100000000
 31
0.000000000
  0
ARC
  5
AE6
330
A02
100
AcDbEntity
  8
Shape2DView002
100
AcDbCircle
 10
178.200000000
 20
189.700000000
 30
0.000000000
 40
0.400000000
100
AcDbArc
 50
-90.000000000
 51
90.000000000
  0
LINE
  5
AE7
330
A02
100
AcDbEntity
  8
Shape2DView002
100
AcDbLine
 10
164.600000000
 20
189.300000000
 30
0.000000000
 11
178.200000000
 21
189.300000000
 31
0.000000000
  0
LINE
  5
AE8
330
A02
100
AcDbEntity
  8
Shape2DView003
100
AcDbLine
 10
88.200000000
 20
262.300000000
 30
0.000000000
 11
163.800000000
 21
262.300000000
 31
0.000000000
  0
LINE
  5
AE9
330
A02
100
AcDbEntity
  8
Shape2DView003
100
AcDbLine
 10
88.200000000
 20
248.456650000
 30
0.000000000
 11
88.200000000
 21
262.300000000
 31
0.000000000
  0
LINE
  5
AEA
330
A02
100
AcDbEntity
  8
Shape2DView003
100
AcDbLine
 10
163.800000000
 20
262.300000000
 30
0.000000000
 11
163.800000000
 21
248.456650000
 31
0.000000000
  0
LINE
  5
AEB
330
A02
100
AcDbEntity
  8
Shape2DView003
100
AcDbLine
 10
88.200000000
 20
248.456650000
 30
0.000000000
 11
90.774660682
 21
248.456650000
 31
0.000000000
  0
LINE
  5
AEC
330
A02
100
AcDbEntity
  8
Shape2DView003
100
AcDbLine
 10
161.225339318
 20
248.456650000
 30
0.000000000
 11
163.800000000
 21
248.456650000
 31
0.000000000
  0
ARC
  5
AED
330
A02
100
AcDbEntity
  8
Shape2DView003
100
AcDbCircle
 10
161.052905000
 20
248.357095000
 30
0.000000000
 40
0.199110000
100
AcDbArc
 50
30.000000000
 51
-120.000000000
  0
LINE
  5
AEE
330
A02
100
AcDbEntity
  8
Shape2DView003
100
AcDbLine
 10
160.953350000
 20
238.915339318
 30
0.000000000
 11
160.953350000
 21
248.184660682
 31
0.000000000
  0
ARC
  5
AEF
330
A02
100
AcDbEntity
  8
Shape2DView003
100
AcDbCircle
 10
161.052905000
 20
238.742905000
 30
0.000000000
 40
0.199110000
100
AcDbArc
 50
120.000000000
 51
-30.000000000
  0
LINE
  5
AF0
330
A02
100
AcDbEntity
  8
Shape2DView003
100
AcDbLine
 10
161.225339318
 20
238.643350000
 30
0.000000000
 11
163.800000000
 21
238.643350000
 31
0.000000000
  0
LINE
  5
AF1
330
A02
100
AcDbEntity
  8
Shape2DView003
100
AcDbLine
 10
163.800000000
 20
238.643350000
 30
0.000000000
 11
163.800000000
 21
210.956650000
 31
0.000000000
  0
LINE
  5
AF2
330
A02
100
AcDbEntity
  8
Shape2DView003
100
AcDbLine
 10
161.225339318
 20
210.956650000
 30
0.000000000
 11
163.800000000
 21
210.956650000
 31
0.000000000
  0
ARC
  5
AF3
330
A02
100
AcDbEntity
  8
Shape2DView003
100
AcDbCircle
 10
161.052905000
 20
210.857095000
 30
0.000000000
 40
0.199110000
100
AcDbArc
 50
30.000000000
 51
-120.000000000
  0
LINE
  5
AF4
330
A02
100
AcDbEntity
  8
Shape2DView003
100
AcDbLine
 10
160.953350000
 20
201.415339318
 30
0.000000000
 11
160.953350000
 21
210.684660682
 31
0.000000000
  0
ARC
  5
AF5
330
A02
100
AcDbEntity
  8
Shape2DView003
100
AcDbCircle
 10
161.052905000
 20
201.242905000
 30
0.000000000
 40
0.199110000
100
AcDbArc
 50
120.000000000
 51
-30.000000000
  0
LINE
  5
AF6
330
A02
100
AcDbEntity
  8
Shape2DView003
100
AcDbLine
 10
161.225339318
 20
201.143350000
 30
0.000000000
 11
163.800000000
 21
201.143350000
 31
0.000000000
  0
LINE
  5
AF7
330
A02
100
AcDbEntity
  8
Shape2DView003
100
AcDbLine
 10
163.800000000
 20
201.143350000
 30
0.000000000
 11
163.800000000
 21
187.300000000
 31
0.000000000
  0
LINE
  5
AF8
330
A02
100
AcDbEntity
  8
Shape2DView003
100
AcDbLine
 10
163.800000000
 20
187.300000000
 30
0.000000000
 11
142.620016667
 21
187.300000000
 31
0.000000000
  0
ARC
  5
AF9
330
A02
100
AcDbEntity
  8
Shape2DView003
100
AcDbCircle
 10
142.433350000
 20
187.300000000
 30
0.000000000
 40
0.186666667
100
AcDbArc
 50
-0.000000000
 51
-180.000000000
  0
ARC
  5
AFA
330
A02
100
AcDbEntity
  8
Shape2DView003
100
AcDbCircle
 10
142.433350000
 20
187.300000000
 30
0.000000000
 40
0.186666667
100
AcDbArc
 50
-180.000000000
 51
-90.000000000
  0
LINE
  5
AFB
330
A02
100
AcDbEntity
  8
Shape2DView003
100
AcDbLine
 10
142.433350000
 20
187.113333333
 30
0.000000000
 11
142.433350000
 21
184.500000000
 31
0.000000000
  0
LINE
  5
AFC
330
A02
100
AcDbEntity
  8
Shape2DView003
100
AcDbLine
 10
132.246650000
 20
184.500000000
 30
0.000000000
 11
142.433350000
 21
184.500000000
 31
0.000000000
  0
LINE
  5
AFD
330
A02
100
AcDbEntity
  8
Shape2DView003
100
AcDbLine
 10
132.246650000
 20
187.113333333
 30
0.000000000
 11
132.246650000
 21
184.500000000
 31
0.000000000
  0
ARC
  5
AFE
330
A02
100
AcDbEntity
  8
Shape2DView003
100
AcDbCircle
 10
132.246650000
 20
187.300000000
 30
0.000000000
 40
0.186666667
100
AcDbArc
 50
-90.000000000
 51
-0.000000000
  0
ARC
  5
AFF
330
A02
100
AcDbEntity
  8
Shape2DView003
100
AcDbCircle
 10
132.246650000
 20
187.300000000
 30
0.000000000
 40
0.186666667
100
AcDbArc
 50
-0.000000000
 51
-180.000000000
  0
LINE
  5
B00
330
A02
100
AcDbEntity
  8
Shape2DView003
100
AcDbLine
 10
132.059983333
 20
187.300000000
 30
0.000000000
 11
119.940016667
 21
187.300000000
 31
0.000000000
  0
ARC
  5
B01
330
A02
100
AcDbEntity
  8
Shape2DView003
100
AcDbCircle
 10
119.753350000
 20
187.300000000
 30
0.000000000
 40
0.186666667
100
AcDbArc
 50
-0.000000000
 51
180.000000000
  0
ARC
  5
B02
330
A02
100
AcDbEntity
  8
Shape2DView003
100
AcDbCircle
 10
119.753350000
 20
187.300000000
 30
0.000000000
 40
0.186666667
100
AcDbArc
 50
180.000000000
 51
-90.000000000
  0
LINE
  5
B03
330
A02
100
AcDbEntity
  8
Shape2DView003
100
AcDbLine
 10
119.753350000
 20
187.113333333
 30
0.000000000
 11
119.753350000
 21
184.500000000
 31
0.000000000
  0
LINE
  5
B04
330
A02
100
AcDbEntity
  8
Shape2DView003
100
AcDbLine
 10
109.566650000
 20
184.500000000
 30
0.000000000
 11
119.753350000
 21
184.500000000
 31
0.000000000
  0
LINE
  5
B05
330
A02
100
AcDbEntity
  8
Shape2DView003
100
AcDbLine
 10
109.566650000
 20
187.113333333
 30
0.000000000
 11
109.566650000
 21
184.500000000
 31
0.000000000
  0
ARC
  5
B06
330
A02
100
AcDbEntity
  8
Shape2DView003
100
AcDbCircle
 10
109.566650000
 20
187.300000000
 30
0.000000000
 40
0.186666667
100
AcDbArc
 50
-90.000000000
 51
0.000000000
  0
ARC
  5
B07
330
A02
100
AcDbEntity
  8
Shape2DView003
100
AcDbCircle
 10
109.566650000
 20
187.300000000
 30
0.000000000
 40
0.186666667
100
AcDbArc
 50
0.000000000
 51
180.000000000
  0
LINE
  5
B08
330
A02
100
AcDbEntity
  8
Shape2DView003
100
AcDbLine
 10
109.379983333
 20
187.300000000
 30
0.000000000
 11
88.200000000
 21
187.300000000
 31
0.000000000
  0
LINE
  5
B09
330
A02
100
AcDbEntity
  8
Shape2DView003
100
AcDbLine
 10
88.200000000
 20
187.300000000
 30
0.000000000
 11
88.200000000
 21
201.143350000
 31
0.000000000
  0
LINE
  5
B0A
330
A02
100
AcDbEntity
  8
Shape2DView003
100
AcDbLine
 10
88.200000000
 20
201.143350000
 30
0.000000000
 11
90.774660682
 21
201.143350000
 31
0.000000000
  0
ARC
  5
B0B
330
A02
100
AcDbEntity
  8
Shape2DView003
100
AcDbCircle
 10
90.947095000
 20
248.357095000
 30
0.000000000
 40
0.199110000
100
AcDbArc
 50
0.000000000
 51
150.000000000
  0
ARC
  5
B0C
330
A02
100
AcDbEntity
  8
Shape2DView003
100
AcDbCircle
 10
90.947095000
 20
248.357095000
 30
0.000000000
 40
0.199110000
100
AcDbArc
 50
-60.000000000
 51
0.000000000
  0
LINE
  5
B0D
330
A02
100
AcDbEntity
  8
Shape2DView003
100
AcDbLine
 10
91.046650000
 20
238.915339318
 30
0.000000000
 11
91.046650000
 21
248.184660682
 31
0.000000000
  0
ARC
  5
B0E
330
A02
100
AcDbEntity
  8
Shape2DView003
100
AcDbCircle
 10
90.947095000
 20
238.742905000
 30
0.000000000
 40
0.199110000
100
AcDbArc
 50
0.000000000
 51
60.000000000
  0
ARC
  5
B0F
330
A02
100
AcDbEntity
  8
Shape2DView003
100
AcDbCircle
 10
90.947095000
 20
238.742905000
 30
0.000000000
 40
0.199110000
100
AcDbArc
 50
-150.000000000
 51
0.000000000
  0
LINE
  5
B10
330
A02
100
AcDbEntity
  8
Shape2DView003
100
AcDbLine
 10
88.200000000
 20
238.643350000
 30
0.000000000
 11
90.774660682
 21
238.643350000
 31
0.000000000
  0
LINE
  5
B11
330
A02
100
AcDbEntity
  8
Shape2DView003
100
AcDbLine
 10
88.200000000
 20
210.956650000
 30
0.000000000
 11
88.200000000
 21
238.643350000
 31
0.000000000
  0
LINE
  5
B12
330
A02
100
AcDbEntity
  8
Shape2DView003
100
AcDbLine
 10
88.200000000
 20
210.956650000
 30
0.000000000
 11
90.774660682
 21
210.956650000
 31
0.000000000
  0
ARC
  5
B13
330
A02
100
AcDbEntity
  8
Shape2DView003
100
AcDbCircle
 10
90.947095000
 20
210.857095000
 30
0.000000000
 40
0.199110000
100
AcDbArc
 50
0.000000000
 51
150.000000000
  0
ARC
  5
B14
330
A02
100
AcDbEntity
  8
Shape2DView003
100
AcDbCircle
 10
90.947095000
 20
210.857095000
 30
0.000000000
 40
0.199110000
100
AcDbArc
 50
-60.000000000
 51
0.000000000
  0
LINE
  5
B15
330
A02
100
AcDbEntity
  8
Shape2DView003
100
AcDbLine
 10
91.046650000
 20
201.415339318
 30
0.000000000
 11
91.046650000
 21
210.684660682
 31
0.000000000
  0
ARC
  5
B16
330
A02
100
AcDbEntity
  8
Shape2DView003
100
AcDbCircle
 10
90.947095000
 20
201.242905000
 30
0.000000000
 40
0.199110000
100
AcDbArc
 50
0.000000000
 51
60.000000000
  0
ARC
  5
B17
330
A02
100
AcDbEntity
  8
Shape2DView003
100
AcDbCircle
 10
90.947095000
 20
201.242905000
 30
0.000000000
 40
0.199110000
100
AcDbArc
 50
-150.000000000
 51
0.000000000
  0
LINE
  5
B18
330
A02
100
AcDbEntity
  8
Shape2DView004
100
AcDbLine
 10
164.800000000
 20
114.466564522
 30
0.000000000
 11
162.225339318
 21
114.466564522
 31
0.000000000
  0
LINE
  5
B19
330
A02
100
AcDbEntity
  8
Shape2DView004
100
AcDbLine
 10
164.800000000
 20
121.840131281
 30
0.000000000
 11
164.800000000
 21
114.466564522
 31
0.000000000
  0
LINE
  5
B1A
330
A02
100
AcDbEntity
  8
Shape2DView004
100
AcDbLine
 10
151.180016667
 20
121.840131281
 30
0.000000000
 11
164.800000000
 21
121.840131281
 31
0.000000000
  0
ARC
  5
B1B
330
A02
100
AcDbEntity
  8
Shape2DView004
100
AcDbCircle
 10
150.993350000
 20
121.840131281
 30
0.000000000
 40
0.186666667
100
AcDbArc
 50
90.000000000
 51
180.000000000
  0
ARC
  5
B1C
330
A02
100
AcDbEntity
  8
Shape2DView004
100
AcDbCircle
 10
150.993350000
 20
121.840131281
 30
0.000000000
 40
0.186666667
100
AcDbArc
 50
180.000000000
 51
0.000000000
  0
LINE
  5
B1D
330
A02
100
AcDbEntity
  8
Shape2DView004
100
AcDbLine
 10
150.993350000
 20
122.026797947
 30
0.000000000
 11
150.993350000
 21
124.640131281
 31
0.000000000
  0
LINE
  5
B1E
330
A02
100
AcDbEntity
  8
Shape2DView004
100
AcDbLine
 10
150.993350000
 20
124.640131281
 30
0.000000000
 11
140.806650000
 21
124.640131281
 31
0.000000000
  0
ARC
  5
B1F
330
A02
100
AcDbEntity
  8
Shape2DView004
100
AcDbCircle
 10
140.806650000
 20
121.840131281
 30
0.000000000
 40
0.186666667
100
AcDbArc
 50
180.000000000
 51
0.000000000
  0
ARC
  5
B20
330
A02
100
AcDbEntity
  8
Shape2DView004
100
AcDbCircle
 10
140.806650000
 20
121.840131281
 30
0.000000000
 40
0.186666667
100
AcDbArc
 50
0.000000000
 51
90.000000000
  0
LINE
  5
B21
330
A02
100
AcDbEntity
  8
Shape2DView004
100
AcDbLine
 10
113.380016667
 20
121.840131281
 30
0.000000000
 11
140.619983333
 21
121.840131281
 31
0.000000000
  0
ARC
  5
B22
330
A02
100
AcDbEntity
  8
Shape2DView004
100
AcDbCircle
 10
113.193350000
 20
121.840131281
 30
0.000000000
 40
0.186666667
100
AcDbArc
 50
90.000000000
 51
180.000000000
  0
ARC
  5
B23
330
A02
100
AcDbEntity
  8
Shape2DView004
100
AcDbCircle
 10
113.193350000
 20
121.840131281
 30
0.000000000
 40
0.186666667
100
AcDbArc
 50
180.000000000
 51
0.000000000
  0
LINE
  5
B24
330
A02
100
AcDbEntity
  8
Shape2DView004
100
AcDbLine
 10
140.806650000
 20
122.026797947
 30
0.000000000
 11
140.806650000
 21
124.640131281
 31
0.000000000
  0
LINE
  5
B25
330
A02
100
AcDbEntity
  8
Shape2DView004
100
AcDbLine
 10
113.193350000
 20
122.026797947
 30
0.000000000
 11
113.193350000
 21
124.640131281
 31
0.000000000
  0
LINE
  5
B26
330
A02
100
AcDbEntity
  8
Shape2DView004
100
AcDbLine
 10
113.193350000
 20
124.640131281
 30
0.000000000
 11
103.006650000
 21
124.640131281
 31
0.000000000
  0
ARC
  5
B27
330
A02
100
AcDbEntity
  8
Shape2DView004
100
AcDbCircle
 10
103.006650000
 20
121.840131281
 30
0.000000000
 40
0.186666667
100
AcDbArc
 50
180.000000000
 51
0.000000000
  0
ARC
  5
B28
330
A02
100
AcDbEntity
  8
Shape2DView004
100
AcDbCircle
 10
103.006650000
 20
121.840131281
 30
0.000000000
 40
0.186666667
100
AcDbArc
 50
0.000000000
 51
90.000000000
  0
LINE
  5
B29
330
A02
100
AcDbEntity
  8
Shape2DView004
100
AcDbLine
 10
89.200000000
 20
121.840131281
 30
0.000000000
 11
102.819983333
 21
121.840131281
 31
0.000000000
  0
LINE
  5
B2A
330
A02
100
AcDbEntity
  8
Shape2DView004
100
AcDbLine
 10
89.200000000
 20
114.466564522
 30
0.000000000
 11
89.200000000
 21
121.840131281
 31
0.000000000
  0
LINE
  5
B2B
330
A02
100
AcDbEntity
  8
Shape2DView004
100
AcDbLine
 10
91.774660682
 20
114.466564522
 30
0.000000000
 11
89.200000000
 21
114.466564522
 31
0.000000000
  0
ARC
  5
B2C
330
A02
100
AcDbEntity
  8
Shape2DView004
100
AcDbCircle
 10
91.947095000
 20
114.367009522
 30
0.000000000
 40
0.199110000
100
AcDbArc
 50
-60.000000000
 51
150.000000000
  0
LINE
  5
B2D
330
A02
100
AcDbEntity
  8
Shape2DView004
100
AcDbLine
 10
92.046650000
 20
114.194575204
 30
0.000000000
 11
92.046650000
 21
104.925253840
 31
0.000000000
  0
ARC
  5
B2E
330
A02
100
AcDbEntity
  8
Shape2DView004
100
AcDbCircle
 10
91.947095000
 20
104.752819522
 30
0.000000000
 40
0.199110000
100
AcDbArc
 50
-150.000000000
 51
60.000000000
  0
LINE
  5
B2F
330
A02
100
AcDbEntity
  8
Shape2DView004
100
AcDbLine
 10
91.774660682
 20
104.653264522
 30
0.000000000
 11
89.200000000
 21
104.653264522
 31
0.000000000
  0
LINE
  5
B30
330
A02
100
AcDbEntity
  8
Shape2DView004
100
AcDbLine
 10
89.200000000
 20
94.300000000
 30
0.000000000
 11
89.200000000
 21
104.653264522
 31
0.000000000
  0
LINE
  5
B31
330
A02
100
AcDbEntity
  8
Shape2DView004
100
AcDbLine
 10
112.269983333
 20
94.300000000
 30
0.000000000
 11
89.200000000
 21
94.300000000
 31
0.000000000
  0
ARC
  5
B32
330
A02
100
AcDbEntity
  8
Shape2DView004
100
AcDbCircle
 10
112.456650000
 20
94.300000000
 30
0.000000000
 40
0.186666667
100
AcDbArc
 50
-90.000000000
 51
0.000000000
  0
ARC
  5
B33
330
A02
100
AcDbEntity
  8
Shape2DView004
100
AcDbCircle
 10
112.456650000
 20
94.300000000
 30
0.000000000
 40
0.186666667
100
AcDbArc
 50
0.000000000
 51
180.000000000
  0
LINE
  5
B34
330
A02
100
AcDbEntity
  8
Shape2DView004
100
AcDbLine
 10
103.006650000
 20
122.026797947
 30
0.000000000
 11
103.006650000
 21
124.640131281
 31
0.000000000
  0
LINE
  5
B35
330
A02
100
AcDbEntity
  8
Shape2DView004
100
AcDbLine
 10
112.456650000
 20
94.113333333
 30
0.000000000
 11
112.456650000
 21
91.500000000
 31
0.000000000
  0
LINE
  5
B36
330
A02
100
AcDbEntity
  8
Shape2DView004
100
AcDbLine
 10
112.456650000
 20
91.500000000
 30
0.000000000
 11
122.643350000
 21
91.500000000
 31
0.000000000
  0
ARC
  5
B37
330
A02
100
AcDbEntity
  8
Shape2DView004
100
AcDbCircle
 10
122.643350000
 20
94.300000000
 30
0.000000000
 40
0.186666667
100
AcDbArc
 50
0.000000000
 51
180.000000000
  0
ARC
  5
B38
330
A02
100
AcDbEntity
  8
Shape2DView004
100
AcDbCircle
 10
122.643350000
 20
94.300000000
 30
0.000000000
 40
0.186666667
100
AcDbArc
 50
180.000000000
 51
-90.000000000
  0
LINE
  5
B39
330
A02
100
AcDbEntity
  8
Shape2DView004
100
AcDbLine
 10
131.169983333
 20
94.300000000
 30
0.000000000
 11
122.830016667
 21
94.300000000
 31
0.000000000
  0
ARC
  5
B3A
330
A02
100
AcDbEntity
  8
Shape2DView004
100
AcDbCircle
 10
131.356650000
 20
94.300000000
 30
0.000000000
 40
0.186666667
100
AcDbArc
 50
-90.000000000
 51
0.000000000
  0
ARC
  5
B3B
330
A02
100
AcDbEntity
  8
Shape2DView004
100
AcDbCircle
 10
131.356650000
 20
94.300000000
 30
0.000000000
 40
0.186666667
100
AcDbArc
 50
0.000000000
 51
180.000000000
  0
LINE
  5
B3C
330
A02
100
AcDbEntity
  8
Shape2DView004
100
AcDbLine
 10
122.643350000
 20
94.113333333
 30
0.000000000
 11
122.643350000
 21
91.500000000
 31
0.000000000
  0
LINE
  5
B3D
330
A02
100
AcDbEntity
  8
Shape2DView004
100
AcDbLine
 10
131.356650000
 20
94.113333333
 30
0.000000000
 11
131.356650000
 21
91.500000000
 31
0.000000000
  0
LINE
  5
B3E
330
A02
100
AcDbEntity
  8
Shape2DView004
100
AcDbLine
 10
131.356650000
 20
91.500000000
 30
0.000000000
 11
141.543350000
 21
91.500000000
 31
0.000000000
  0
LINE
  5
B3F
330
A02
100
AcDbEntity
  8
Shape2DView004
100
AcDbLine
 10
164.800000000
 20
94.300000000
 30
0.000000000
 11
141.730016667
 21
94.300000000
 31
0.000000000
  0
ARC
  5
B40
330
A02
100
AcDbEntity
  8
Shape2DView004
100
AcDbCircle
 10
141.543350000
 20
94.300000000
 30
0.000000000
 40
0.186666667
100
AcDbArc
 50
0.000000000
 51
180.000000000
  0
ARC
  5
B41
330
A02
100
AcDbEntity
  8
Shape2DView004
100
AcDbCircle
 10
141.543350000
 20
94.300000000
 30
0.000000000
 40
0.186666667
100
AcDbArc
 50
180.000000000
 51
-90.000000000
  0
LINE
  5
B42
330
A02
100
AcDbEntity
  8
Shape2DView004
100
AcDbLine
 10
164.800000000
 20
104.653264522
 30
0.000000000
 11
164.800000000
 21
94.300000000
 31
0.000000000
  0
LINE
  5
B43
330
A02
100
AcDbEntity
  8
Shape2DView004
100
AcDbLine
 10
164.800000000
 20
104.653264522
 30
0.000000000
 11
162.225339318
 21
104.653264522
 31
0.000000000
  0
LINE
  5
B44
330
A02
100
AcDbEntity
  8
Shape2DView004
100
AcDbLine
 10
141.543350000
 20
94.113333333
 30
0.000000000
 11
141.543350000
 21
91.500000000
 31
0.000000000
  0
ARC
  5
B45
330
A02
100
AcDbEntity
  8
Shape2DView004
100
AcDbCircle
 10
162.052905000
 20
104.752819522
 30
0.000000000
 40
0.199110000
100
AcDbArc
 50
180.000000000
 51
-30.000000000
  0
ARC
  5
B46
330
A02
100
AcDbEntity
  8
Shape2DView004
100
AcDbCircle
 10
162.052905000
 20
104.752819522
 30
0.000000000
 40
0.199110000
100
AcDbArc
 50
120.000000000
 51
180.000000000
  0
LINE
  5
B47
330
A02
100
AcDbEntity
  8
Shape2DView004
100
AcDbLine
 10
161.953350000
 20
114.194575204
 30
0.000000000
 11
161.953350000
 21
104.925253840
 31
0.000000000
  0
ARC
  5
B48
330
A02
100
AcDbEntity
  8
Shape2DView004
100
AcDbCircle
 10
162.052905000
 20
114.367009522
 30
0.000000000
 40
0.199110000
100
AcDbArc
 50
180.000000000
 51
-120.000000000
  0
ARC
  5
B49
330
A02
100
AcDbEntity
  8
Shape2DView004
100
AcDbCircle
 10
162.052905000
 20
114.367009522
 30
0.000000000
 40
0.199110000
100
AcDbArc
 50
30.000000000
 51
180.000000000
  0
CIRCLE
  5
B4A
330
A02
100
AcDbEntity
  8
Shape2DView004
100
AcDbCircle
 10
127.010000000
 20
111.034000000
 30
0.000000000
 40
7.500000000
  0
LINE
  5
B4B
330
A02
100
AcDbEntity
  8
Shape2DView004
100
AcDbLine
 10
108.109186710
 20
102.188563791
 30
0.000000000
 11
109.585430697
 21
110.384437197
 31
0.000000000
  0
ARC
  5
B4C
330
A02
100
AcDbEntity
  8
Shape2DView004
100
AcDbCircle
 10
113.030000000
 20
109.764000000
 30
0.000000000
 40
3.500000000
100
AcDbArc
 50
10.210655437
 51
169.789344563
  0
LINE
  5
B4D
330
A02
100
AcDbEntity
  8
Shape2DView004
100
AcDbLine
 10
116.474569303
 20
110.384437197
 30
0.000000000
 11
117.950813290
 21
102.188563791
 31
0.000000000
  0
ARC
  5
B4E
330
A02
100
AcDbEntity
  8
Shape2DView004
100
AcDbCircle
 10
113.030000000
 20
101.302224938
 30
0.000000000
 40
5.000000000
100
AcDbArc
 50
169.789344563
 51
10.210655437
  0
CIRCLE
  5
B4F
330
A02
100
AcDbEntity
  8
Shape2DView004
100
AcDbCircle
 10
154.000000000
 20
104.500000000
 30
0.000000000
 40
5.000000000
  0
CIRCLE
  5
B50
330
A02
100
AcDbEntity
  8
Shape2DView004
100
AcDbCircle
 10
100.000000000
 20
104.500000000
 30
0.000000000
 40
5.000000000
  0
CIRCLE
  5
B51
330
A02
100
AcDbEntity
  8
Shape2DView004
100
AcDbCircle
 10
144.018000000
 20
106.462000000
 30
0.000000000
 40
3.000000000
  0
ARC
  5
B52
330
A02
100
AcDbEntity
  8
Shape2DView004
100
AcDbCircle
 10
138.430000000
 20
104.450000000
 30
0.000000000
 40
1.500000000
100
AcDbArc
 50
180.000000000
 51
0.000000000
  0
LINE
  5
B53
330
A02
100
AcDbEntity
  8
Shape2DView004
100
AcDbLine
 10
136.930000000
 20
104.450000000
 30
0.000000000
 11
136.930000000
 21
106.950000000
 31
0.000000000
  0
ARC
  5
B54
330
A02
100
AcDbEntity
  8
Shape2DView004
100
AcDbCircle
 10
138.430000000
 20
106.950000000
 30
0.000000000
 40
1.500000000
100
AcDbArc
 50
0.000000000
 51
180.000000000
  0
LINE
  5
B55
330
A02
100
AcDbEntity
  8
Shape2DView004
100
AcDbLine
 10
139.930000000
 20
104.450000000
 30
0.000000000
 11
139.930000000
 21
106.950000000
 31
0.000000000
  0
LINE
  5
B56
330
A02
100
AcDbEntity
  8
Shape2DView005
100
AcDbLine
 10
12.200000000
 20
306.601061831
 30
0.000000000
 11
87.800000000
 21
306.601061831
 31
0.000000000
  0
LINE
  5
B57
330
A02
100
AcDbEntity
  8
Shape2DView005
100
AcDbLine
 10
12.200000000
 20
291.477814137
 30
0.000000000
 11
12.200000000
 21
306.601061831
 31
0.000000000
  0
LINE
  5
B58
330
A02
100
AcDbEntity
  8
Shape2DView005
100
AcDbLine
 10
87.800000000
 20
306.601061831
 30
0.000000000
 11
87.800000000
 21
291.477814137
 31
0.000000000
  0
LINE
  5
B59
330
A02
100
AcDbEntity
  8
Shape2DView005
100
AcDbLine
 10
25.819983333
 20
291.477814137
 30
0.000000000
 11
12.200000000
 21
291.477814137
 31
0.000000000
  0
LINE
  5
B5A
330
A02
100
AcDbEntity
  8
Shape2DView005
100
AcDbLine
 10
87.800000000
 20
291.477814137
 30
0.000000000
 11
74.180016667
 21
291.477814137
 31
0.000000000
  0
ARC
  5
B5B
330
A02
100
AcDbEntity
  8
Shape2DView005
100
AcDbCircle
 10
26.006650000
 20
291.477814137
 30
0.000000000
 40
0.186666667
100
AcDbArc
 50
-90.000000000
 51
0.000000000
  0
ARC
  5
B5C
330
A02
100
AcDbEntity
  8
Shape2DView005
100
AcDbCircle
 10
26.006650000
 20
291.477814137
 30
0.000000000
 40
0.186666667
100
AcDbArc
 50
0.000000000
 51
180.000000000
  0
ARC
  5
B5D
330
A02
100
AcDbEntity
  8
Shape2DView005
100
AcDbCircle
 10
73.993350000
 20
291.477814137
 30
0.000000000
 40
0.186666667
100
AcDbArc
 50
0.000000000
 51
180.000000000
  0
ARC
  5
B5E
330
A02
100
AcDbEntity
  8
Shape2DView005
100
AcDbCircle
 10
73.993350000
 20
291.477814137
 30
0.000000000
 40
0.186666667
100
AcDbArc
 50
180.000000000
 51
-90.000000000
  0
LINE
  5
B5F
330
A02
100
AcDbEntity
  8
Shape2DView005
100
AcDbLine
 10
26.006650000
 20
291.291147470
 30
0.000000000
 11
26.006650000
 21
288.677814137
 31
0.000000000
  0
LINE
  5
B60
330
A02
100
AcDbEntity
  8
Shape2DView005
100
AcDbLine
 10
26.006650000
 20
288.677814137
 30
0.000000000
 11
36.193350000
 21
288.677814137
 31
0.000000000
  0
ARC
  5
B61
330
A02
100
AcDbEntity
  8
Shape2DView005
100
AcDbCircle
 10
36.193350000
 20
291.477814137
 30
0.000000000
 40
0.186666667
100
AcDbArc
 50
0.000000000
 51
180.000000000
  0
ARC
  5
B62
330
A02
100
AcDbEntity
  8
Shape2DView005
100
AcDbCircle
 10
36.193350000
 20
291.477814137
 30
0.000000000
 40
0.186666667
100
AcDbArc
 50
180.000000000
 51
-90.000000000
  0
LINE
  5
B63
330
A02
100
AcDbEntity
  8
Shape2DView005
100
AcDbLine
 10
63.619983333
 20
291.477814137
 30
0.000000000
 11
36.380016667
 21
291.477814137
 31
0.000000000
  0
ARC
  5
B64
330
A02
100
AcDbEntity
  8
Shape2DView005
100
AcDbCircle
 10
63.806650000
 20
291.477814137
 30
0.000000000
 40
0.186666667
100
AcDbArc
 50
-90.000000000
 51
0.000000000
  0
ARC
  5
B65
330
A02
100
AcDbEntity
  8
Shape2DView005
100
AcDbCircle
 10
63.806650000
 20
291.477814137
 30
0.000000000
 40
0.186666667
100
AcDbArc
 50
0.000000000
 51
180.000000000
  0
LINE
  5
B66
330
A02
100
AcDbEntity
  8
Shape2DView005
100
AcDbLine
 10
36.193350000
 20
291.291147470
 30
0.000000000
 11
36.193350000
 21
288.677814137
 31
0.000000000
  0
LINE
  5
B67
330
A02
100
AcDbEntity
  8
Shape2DView005
100
AcDbLine
 10
63.806650000
 20
291.291147470
 30
0.000000000
 11
63.806650000
 21
288.677814137
 31
0.000000000
  0
LINE
  5
B68
330
A02
100
AcDbEntity
  8
Shape2DView005
100
AcDbLine
 10
73.993350000
 20
291.291147470
 30
0.000000000
 11
73.993350000
 21
288.677814137
 31
0.000000000
  0
LINE
  5
B69
330
A02
100
AcDbEntity
  8
Shape2DView005
100
AcDbLine
 10
63.806650000
 20
288.677814137
 30
0.000000000
 11
73.993350000
 21
288.677814137
 31
0.000000000
  0
LINE
  5
B6A
330
A02
100
AcDbEntity
  8
Shape2DView006
100
AcDbLine
 10
12.459550623
 20
186.702668516
 30
0.000000000
 11
14.200000000
 21
186.050000000
 31
0.000000000
  0
ARC
  5
B6B
330
A02
100
AcDbEntity
  8
Shape2DView006
100
AcDbCircle
 10
12.600000000
 20
187.077200187
 30
0.000000000
 40
0.400000000
100
AcDbArc
 50
180.000000000
 51
-110.556045220
  0
LINE
  5
B6C
330
A02
100
AcDbEntity
  8
Shape2DView006
100
AcDbLine
 10
12.200000000
 20
187.077200187
 30
0.000000000
 11
12.200000000
 21
189.200000000
 31
0.000000000
  0
ARC
  5
B6D
330
A02
100
AcDbEntity
  8
Shape2DView006
100
AcDbCircle
 10
12.600000000
 20
189.200000000
 30
0.000000000
 40
0.400000000
100
AcDbArc
 50
90.000000000
 51
180.000000000
  0
LINE
  5
B6E
330
A02
100
AcDbEntity
  8
Shape2DView006
100
AcDbLine
 10
12.600000000
 20
189.600000000
 30
0.000000000
 11
26.200000000
 21
189.600000000
 31
0.000000000
  0
ARC
  5
B6F
330
A02
100
AcDbEntity
  8
Shape2DView006
100
AcDbCircle
 10
26.200000000
 20
190.000000000
 30
0.000000000
 40
0.400000000
100
AcDbArc
 50
-90.000000000
 51
90.000000000
  0
LINE
  5
B70
330
A02
100
AcDbEntity
  8
Shape2DView006
100
AcDbLine
 10
26.200000000
 20
190.400000000
 30
0.000000000
 11
12.600000000
 21
190.400000000
 31
0.000000000
  0
ARC
  5
B71
330
A02
100
AcDbEntity
  8
Shape2DView006
100
AcDbCircle
 10
12.600000000
 20
190.800000000
 30
0.000000000
 40
0.400000000
100
AcDbArc
 50
180.000000000
 51
-90.000000000
  0
LINE
  5
B72
330
A02
100
AcDbEntity
  8
Shape2DView006
100
AcDbLine
 10
12.200000000
 20
190.800000000
 30
0.000000000
 11
12.200000000
 21
208.443350000
 31
0.000000000
  0
LINE
  5
B73
330
A02
100
AcDbEntity
  8
Shape2DView006
100
AcDbLine
 10
12.200000000
 20
208.443350000
 30
0.000000000
 11
14.774660682
 21
208.443350000
 31
0.000000000
  0
ARC
  5
B74
330
A02
100
AcDbEntity
  8
Shape2DView006
100
AcDbCircle
 10
14.947095000
 20
208.542905000
 30
0.000000000
 40
0.199110000
100
AcDbArc
 50
-150.000000000
 51
0.000000000
  0
ARC
  5
B75
330
A02
100
AcDbEntity
  8
Shape2DView006
100
AcDbCircle
 10
14.947095000
 20
208.542905000
 30
0.000000000
 40
0.199110000
100
AcDbArc
 50
0.000000000
 51
60.000000000
  0
LINE
  5
B76
330
A02
100
AcDbEntity
  8
Shape2DView006
100
AcDbLine
 10
15.046650000
 20
217.984660682
 30
0.000000000
 11
15.046650000
 21
208.715339318
 31
0.000000000
  0
ARC
  5
B77
330
A02
100
AcDbEntity
  8
Shape2DView006
100
AcDbCircle
 10
14.947095000
 20
218.157095000
 30
0.000000000
 40
0.199110000
100
AcDbArc
 50
-60.000000000
 51
0.000000000
  0
ARC
  5
B78
330
A02
100
AcDbEntity
  8
Shape2DView006
100
AcDbCircle
 10
14.947095000
 20
218.157095000
 30
0.000000000
 40
0.199110000
100
AcDbArc
 50
0.000000000
 51
150.000000000
  0
LINE
  5
B79
330
A02
100
AcDbEntity
  8
Shape2DView006
100
AcDbLine
 10
12.200000000
 20
218.256650000
 30
0.000000000
 11
14.774660682
 21
218.256650000
 31
0.000000000
  0
LINE
  5
B7A
330
A02
100
AcDbEntity
  8
Shape2DView006
100
AcDbLine
 10
12.200000000
 20
218.256650000
 30
0.000000000
 11
12.200000000
 21
255.943350000
 31
0.000000000
  0
LINE
  5
B7B
330
A02
100
AcDbEntity
  8
Shape2DView006
100
AcDbLine
 10
12.200000000
 20
255.943350000
 30
0.000000000
 11
14.774660682
 21
255.943350000
 31
0.000000000
  0
ARC
  5
B7C
330
A02
100
AcDbEntity
  8
Shape2DView006
100
AcDbCircle
 10
14.947095000
 20
256.042905000
 30
0.000000000
 40
0.199110000
100
AcDbArc
 50
-150.000000000
 51
0.000000000
  0
ARC
  5
B7D
330
A02
100
AcDbEntity
  8
Shape2DView006
100
AcDbCircle
 10
14.947095000
 20
256.042905000
 30
0.000000000
 40
0.199110000
100
AcDbArc
 50
0.000000000
 51
60.000000000
  0
LINE
  5
B7E
330
A02
100
AcDbEntity
  8
Shape2DView006
100
AcDbLine
 10
15.046650000
 20
265.484660682
 30
0.000000000
 11
15.046650000
 21
256.215339318
 31
0.000000000
  0
ARC
  5
B7F
330
A02
100
AcDbEntity
  8
Shape2DView006
100
AcDbCircle
 10
14.947095000
 20
265.657095000
 30
0.000000000
 40
0.199110000
100
AcDbArc
 50
-60.000000000
 51
0.000000000
  0
ARC
  5
B80
330
A02
100
AcDbEntity
  8
Shape2DView006
100
AcDbCircle
 10
14.947095000
 20
265.657095000
 30
0.000000000
 40
0.199110000
100
AcDbArc
 50
0.000000000
 51
150.000000000
  0
LINE
  5
B81
330
A02
100
AcDbEntity
  8
Shape2DView006
100
AcDbLine
 10
12.200000000
 20
265.756650000
 30
0.000000000
 11
14.774660682
 21
265.756650000
 31
0.000000000
  0
LINE
  5
B82
330
A02
100
AcDbEntity
  8
Shape2DView006
100
AcDbLine
 10
12.200000000
 20
265.756650000
 30
0.000000000
 11
12.200000000
 21
283.400000000
 31
0.000000000
  0
ARC
  5
B83
330
A02
100
AcDbEntity
  8
Shape2DView006
100
AcDbCircle
 10
12.600000000
 20
283.400000000
 30
0.000000000
 40
0.400000000
100
AcDbArc
 50
90.000000000
 51
180.000000000
  0
LINE
  5
B84
330
A02
100
AcDbEntity
  8
Shape2DView006
100
AcDbLine
 10
12.600000000
 20
283.800000000
 30
0.000000000
 11
26.200000000
 21
283.800000000
 31
0.000000000
  0
ARC
  5
B85
330
A02
100
AcDbEntity
  8
Shape2DView006
100
AcDbCircle
 10
26.200000000
 20
284.200000000
 30
0.000000000
 40
0.400000000
100
AcDbArc
 50
-90.000000000
 51
90.000000000
  0
LINE
  5
B86
330
A02
100
AcDbEntity
  8
Shape2DView006
100
AcDbLine
 10
26.200000000
 20
284.600000000
 30
0.000000000
 11
12.600000000
 21
284.600000000
 31
0.000000000
  0
ARC
  5
B87
330
A02
100
AcDbEntity
  8
Shape2DView006
100
AcDbCircle
 10
12.600000000
 20
285.000000000
 30
0.000000000
 40
0.400000000
100
AcDbArc
 50
180.000000000
 51
-90.000000000
  0
LINE
  5
B88
330
A02
100
AcDbEntity
  8
Shape2DView006
100
AcDbLine
 10
12.200000000
 20
285.000000000
 30
0.000000000
 11
12.200000000
 21
287.122799813
 31
0.000000000
  0
ARC
  5
B89
330
A02
100
AcDbEntity
  8
Shape2DView006
100
AcDbCircle
 10
12.600000000
 20
287.122799813
 30
0.000000000
 40
0.400000000
100
AcDbArc
 50
110.556045220
 51
180.000000000
  0
LINE
  5
B8A
330
A02
100
AcDbEntity
  8
Shape2DView006
100
AcDbLine
 10
12.459550623
 20
287.497331484
 30
0.000000000
 11
14.200000000
 21
288.150000000
 31
0.000000000
  0
LINE
  5
B8B
330
A02
100
AcDbEntity
  8
Shape2DView006
100
AcDbLine
 10
14.200000000
 20
288.150000000
 30
0.000000000
 11
14.200000000
 21
287.400000000
 31
0.000000000
  0
LINE
  5
B8C
330
A02
100
AcDbEntity
  8
Shape2DView006
100
AcDbLine
 10
14.200000000
 20
287.400000000
 30
0.000000000
 11
17.000000000
 21
287.400000000
 31
0.000000000
  0
LINE
  5
B8D
330
A02
100
AcDbEntity
  8
Shape2DView006
100
AcDbLine
 10
17.000000000
 20
288.878709851
 30
0.000000000
 11
17.000000000
 21
287.400000000
 31
0.000000000
  0
ARC
  5
B8E
330
A02
100
AcDbEntity
  8
Shape2DView006
100
AcDbCircle
 10
17.400000000
 20
288.878709851
 30
0.000000000
 40
0.400000000
100
AcDbArc
 50
75.000000000
 51
180.000000000
  0
LINE
  5
B8F
330
A02
100
AcDbEntity
  8
Shape2DView006
100
AcDbLine
 10
24.464101615
 20
287.400000000
 30
0.000000000
 11
17.503527618
 21
289.265080181
 31
0.000000000
  0
LINE
  5
B90
330
A02
100
AcDbEntity
  8
Shape2DView006
100
AcDbLine
 10
75.535898385
 20
287.400000000
 30
0.000000000
 11
24.464101615
 21
287.400000000
 31
0.000000000
  0
LINE
  5
B91
330
A02
100
AcDbEntity
  8
Shape2DView006
100
AcDbLine
 10
82.496472382
 20
289.265080181
 30
0.000000000
 11
75.535898385
 21
287.400000000
 31
0.000000000
  0
ARC
  5
B92
330
A02
100
AcDbEntity
  8
Shape2DView006
100
AcDbCircle
 10
82.600000000
 20
288.878709851
 30
0.000000000
 40
0.400000000
100
AcDbArc
 50
0.000000000
 51
105.000000000
  0
LINE
  5
B93
330
A02
100
AcDbEntity
  8
Shape2DView006
100
AcDbLine
 10
83.000000000
 20
287.400000000
 30
0.000000000
 11
83.000000000
 21
288.878709851
 31
0.000000000
  0
LINE
  5
B94
330
A02
100
AcDbEntity
  8
Shape2DView006
100
AcDbLine
 10
85.800000000
 20
287.400000000
 30
0.000000000
 11
83.000000000
 21
287.400000000
 31
0.000000000
  0
LINE
  5
B95
330
A02
100
AcDbEntity
  8
Shape2DView006
100
AcDbLine
 10
85.800000000
 20
288.150000000
 30
0.000000000
 11
85.800000000
 21
287.400000000
 31
0.000000000
  0
LINE
  5
B96
330
A02
100
AcDbEntity
  8
Shape2DView006
100
AcDbLine
 10
87.540449377
 20
287.497331484
 30
0.000000000
 11
85.800000000
 21
288.150000000
 31
0.000000000
  0
ARC
  5
B97
330
A02
100
AcDbEntity
  8
Shape2DView006
100
AcDbCircle
 10
87.400000000
 20
287.122799813
 30
0.000000000
 40
0.400000000
100
AcDbArc
 50
0.000000000
 51
69.443954780
  0
LINE
  5
B98
330
A02
100
AcDbEntity
  8
Shape2DView006
100
AcDbLine
 10
87.800000000
 20
287.122799813
 30
0.000000000
 11
87.800000000
 21
285.000000000
 31
0.000000000
  0
ARC
  5
B99
330
A02
100
AcDbEntity
  8
Shape2DView006
100
AcDbCircle
 10
87.400000000
 20
285.000000000
 30
0.000000000
 40
0.400000000
100
AcDbArc
 50
-90.000000000
 51
0.000000000
  0
LINE
  5
B9A
330
A02
100
AcDbEntity
  8
Shape2DView006
100
AcDbLine
 10
87.400000000
 20
284.600000000
 30
0.000000000
 11
73.800000000
 21
284.600000000
 31
0.000000000
  0
ARC
  5
B9B
330
A02
100
AcDbEntity
  8
Shape2DView006
100
AcDbCircle
 10
73.800000000
 20
284.200000000
 30
0.000000000
 40
0.400000000
100
AcDbArc
 50
90.000000000
 51
-90.000000000
  0
LINE
  5
B9C
330
A02
100
AcDbEntity
  8
Shape2DView006
100
AcDbLine
 10
73.800000000
 20
283.800000000
 30
0.000000000
 11
87.400000000
 21
283.800000000
 31
0.000000000
  0
ARC
  5
B9D
330
A02
100
AcDbEntity
  8
Shape2DView006
100
AcDbCircle
 10
87.400000000
 20
283.400000000
 30
0.000000000
 40
0.400000000
100
AcDbArc
 50
0.000000000
 51
90.000000000
  0
LINE
  5
B9E
330
A02
100
AcDbEntity
  8
Shape2DView006
100
AcDbLine
 10
87.800000000
 20
283.400000000
 30
0.000000000
 11
87.800000000
 21
265.756650000
 31
0.000000000
  0
LINE
  5
B9F
330
A02
100
AcDbEntity
  8
Shape2DView006
100
AcDbLine
 10
85.225339318
 20
265.756650000
 30
0.000000000
 11
87.800000000
 21
265.756650000
 31
0.000000000
  0
ARC
  5
BA0
330
A02
100
AcDbEntity
  8
Shape2DView006
100
AcDbCircle
 10
85.052905000
 20
265.657095000
 30
0.000000000
 40
0.199110000
100
AcDbArc
 50
30.000000000
 51
-120.000000000
  0
LINE
  5
BA1
330
A02
100
AcDbEntity
  8
Shape2DView006
100
AcDbLine
 10
84.953350000
 20
265.484660682
 30
0.000000000
 11
84.953350000
 21
256.215339318
 31
0.000000000
  0
ARC
  5
BA2
330
A02
100
AcDbEntity
  8
Shape2DView006
100
AcDbCircle
 10
85.052905000
 20
256.042905000
 30
0.000000000
 40
0.199110000
100
AcDbArc
 50
120.000000000
 51
-30.000000000
  0
LINE
  5
BA3
330
A02
100
AcDbEntity
  8
Shape2DView006
100
AcDbLine
 10
85.225339318
 20
255.943350000
 30
0.000000000
 11
87.800000000
 21
255.943350000
 31
0.000000000
  0
LINE
  5
BA4
330
A02
100
AcDbEntity
  8
Shape2DView006
100
AcDbLine
 10
87.800000000
 20
255.943350000
 30
0.000000000
 11
87.800000000
 21
218.256650000
 31
0.000000000
  0
LINE
  5
BA5
330
A02
100
AcDbEntity
  8
Shape2DView006
100
AcDbLine
 10
85.225339318
 20
218.256650000
 30
0.000000000
 11
87.800000000
 21
218.256650000
 31
0.000000000
  0
ARC
  5
BA6
330
A02
100
AcDbEntity
  8
Shape2DView006
100
AcDbCircle
 10
85.052905000
 20
218.157095000
 30
0.000000000
 40
0.199110000
100
AcDbArc
 50
30.000000000
 51
-120.000000000
  0
LINE
  5
BA7
330
A02
100
AcDbEntity
  8
Shape2DView006
100
AcDbLine
 10
84.953350000
 20
217.984660682
 30
0.000000000
 11
84.953350000
 21
208.715339318
 31
0.000000000
  0
ARC
  5
BA8
330
A02
100
AcDbEntity
  8
Shape2DView006
100
AcDbCircle
 10
85.052905000
 20
208.542905000
 30
0.000000000
 40
0.199110000
100
AcDbArc
 50
120.000000000
 51
-30.000000000
  0
LINE
  5
BA9
330
A02
100
AcDbEntity
  8
Shape2DView006
100
AcDbLine
 10
85.225339318
 20
208.443350000
 30
0.000000000
 11
87.800000000
 21
208.443350000
 31
0.000000000
  0
LINE
  5
BAA
330
A02
100
AcDbEntity
  8
Shape2DView006
100
AcDbLine
 10
87.800000000
 20
208.443350000
 30
0.000000000
 11
87.800000000
 21
190.800000000
 31
0.000000000
  0
ARC
  5
BAB
330
A02
100
AcDbEntity
  8
Shape2DView006
100
AcDbCircle
 10
87.400000000
 20
190.800000000
 30
0.000000000
 40
0.400000000
100
AcDbArc
 50
-90.000000000
 51
0.000000000
  0
LINE
  5
BAC
330
A02
100
AcDbEntity
  8
Shape2DView006
100
AcDbLine
 10
73.800000000
 20
190.400000000
 30
0.000000000
 11
87.400000000
 21
190.400000000
 31
0.000000000
  0
ARC
  5
BAD
330
A02
100
AcDbEntity
  8
Shape2DView006
100
AcDbCircle
 10
73.800000000
 20
190.000000000
 30
0.000000000
 40
0.400000000
100
AcDbArc
 50
90.000000000
 51
-90.000000000
  0
LINE
  5
BAE
330
A02
100
AcDbEntity
  8
Shape2DView006
100
AcDbLine
 10
87.400000000
 20
189.600000000
 30
0.000000000
 11
73.800000000
 21
189.600000000
 31
0.000000000
  0
ARC
  5
BAF
330
A02
100
AcDbEntity
  8
Shape2DView006
100
AcDbCircle
 10
87.400000000
 20
189.200000000
 30
0.000000000
 40
0.400000000
100
AcDbArc
 50
0.000000000
 51
90.000000000
  0
LINE
  5
BB0
330
A02
100
AcDbEntity
  8
Shape2DView006
100
AcDbLine
 10
87.800000000
 20
189.200000000
 30
0.000000000
 11
87.800000000
 21
187.077200187
 31
0.000000000
  0
ARC
  5
BB1
330
A02
100
AcDbEntity
  8
Shape2DView006
100
AcDbCircle
 10
87.400000000
 20
187.077200187
 30
0.000000000
 40
0.400000000
100
AcDbArc
 50
-69.443954780
 51
0.000000000
  0
LINE
  5
BB2
330
A02
100
AcDbEntity
  8
Shape2DView006
100
AcDbLine
 10
87.540449377
 20
186.702668516
 30
0.000000000
 11
85.800000000
 21
186.050000000
 31
0.000000000
  0
LINE
  5
BB3
330
A02
100
AcDbEntity
  8
Shape2DView006
100
AcDbLine
 10
85.800000000
 20
186.050000000
 30
0.000000000
 11
85.800000000
 21
186.800000000
 31
0.000000000
  0
LINE
  5
BB4
330
A02
100
AcDbEntity
  8
Shape2DView006
100
AcDbLine
 10
85.800000000
 20
186.800000000
 30
0.000000000
 11
83.000000000
 21
186.800000000
 31
0.000000000
  0
LINE
  5
BB5
330
A02
100
AcDbEntity
  8
Shape2DView006
100
AcDbLine
 10
83.000000000
 20
185.321290149
 30
0.000000000
 11
83.000000000
 21
186.800000000
 31
0.000000000
  0
ARC
  5
BB6
330
A02
100
AcDbEntity
  8
Shape2DView006
100
AcDbCircle
 10
82.600000000
 20
185.321290149
 30
0.000000000
 40
0.400000000
100
AcDbArc
 50
-105.000000000
 51
0.000000000
  0
LINE
  5
BB7
330
A02
100
AcDbEntity
  8
Shape2DView006
100
AcDbLine
 10
75.535898385
 20
186.800000000
 30
0.000000000
 11
82.496472382
 21
184.934919819
 31
0.000000000
  0
LINE
  5
BB8
330
A02
100
AcDbEntity
  8
Shape2DView006
100
AcDbLine
 10
24.464101615
 20
186.800000000
 30
0.000000000
 11
75.535898385
 21
186.800000000
 31
0.000000000
  0
LINE
  5
BB9
330
A02
100
AcDbEntity
  8
Shape2DView006
100
AcDbLine
 10
17.503527618
 20
184.934919819
 30
0.000000000
 11
24.464101615
 21
186.800000000
 31
0.000000000
  0
ARC
  5
BBA
330
A02
100
AcDbEntity
  8
Shape2DView006
100
AcDbCircle
 10
17.400000000
 20
185.321290149
 30
0.000000000
 40
0.400000000
100
AcDbArc
 50
-180.000000000
 51
-75.000000000
  0
LINE
  5
BBB
330
A02
100
AcDbEntity
  8
Shape2DView006
100
AcDbLine
 10
17.000000000
 20
186.800000000
 30
0.000000000
 11
17.000000000
 21
185.321290149
 31
0.000000000
  0
LINE
  5
BBC
330
A02
100
AcDbEntity
  8
Shape2DView006
100
AcDbLine
 10
14.200000000
 20
186.800000000
 30
0.000000000
 11
17.000000000
 21
186.800000000
 31
0.000000000
  0
LINE
  5
BBD
330
A02
100
AcDbEntity
  8
Shape2DView006
100
AcDbLine
 10
14.200000000
 20
186.050000000
 30
0.000000000
 11
14.200000000
 21
186.800000000
 31
0.000000000
  0
ARC
  5
BBE
330
A02
100
AcDbEntity
  8
Shape2DView006
100
AcDbCircle
 10
61.390000000
 20
282.690000000
 30
0.000000000
 40
2.110000000
100
AcDbArc
 50
-15.207828711
 51
90.000000000
  0
ARC
  5
BBF
330
A02
100
AcDbEntity
  8
Shape2DView006
100
AcDbCircle
 10
86.000000000
 20
276.000000000
 30
0.000000000
 40
23.393101772
100
AcDbArc
 50
164.792171289
 51
-164.792171289
  0
LINE
  5
BC0
330
A02
100
AcDbEntity
  8
Shape2DView006
100
AcDbLine
 10
61.390000000
 20
284.800000000
 30
0.000000000
 11
38.610000000
 21
284.800000000
 31
0.000000000
  0
ARC
  5
BC1
330
A02
100
AcDbEntity
  8
Shape2DView006
100
AcDbCircle
 10
61.390000000
 20
269.310000000
 30
0.000000000
 40
2.110000000
100
AcDbArc
 50
-90.000000000
 51
15.207828711
  0
ARC
  5
BC2
330
A02
100
AcDbEntity
  8
Shape2DView006
100
AcDbCircle
 10
38.610000000
 20
282.690000000
 30
0.000000000
 40
2.110000000
100
AcDbArc
 50
90.000000000
 51
-164.791867204
  0
LINE
  5
BC3
330
A02
100
AcDbEntity
  8
Shape2DView006
100
AcDbLine
 10
38.610000000
 20
267.200000000
 30
0.000000000
 11
61.390000000
 21
267.200000000
 31
0.000000000
  0
ARC
  5
BC4
330
A02
100
AcDbEntity
  8
Shape2DView006
100
AcDbCircle
 10
14.000000000
 20
276.000000000
 30
0.000000000
 40
23.393101772
100
AcDbArc
 50
-15.207828711
 51
15.207801283
  0
ARC
  5
BC5
330
A02
100
AcDbEntity
  8
Shape2DView006
100
AcDbCircle
 10
38.610000000
 20
269.310000000
 30
0.000000000
 40
2.110000000
100
AcDbArc
 50
164.792171289
 51
-90.000000000
  0
ARC
  5
BC6
330
A02
100
AcDbEntity
  8
Shape2DView006
100
AcDbCircle
 10
33.610000000
 20
268.000000000
 30
0.000000000
 40
0.800000000
100
AcDbArc
 50
160.514909870
 51
-18.285722896
  0
ARC
  5
BC7
330
A02
100
AcDbEntity
  8
Shape2DView006
100
AcDbCircle
 10
11.000000000
 20
276.000000000
 30
0.000000000
 40
23.183579800
100
AcDbArc
 50
-19.485090130
 51
19.485090130
  0
ARC
  5
BC8
330
A02
100
AcDbEntity
  8
Shape2DView006
100
AcDbCircle
 10
9.400000000
 20
276.000000000
 30
0.000000000
 40
26.297531253
100
AcDbArc
 50
-18.285722896
 51
18.285722896
  0
ARC
  5
BC9
330
A02
100
AcDbEntity
  8
Shape2DView006
100
AcDbCircle
 10
33.610000000
 20
284.000000000
 30
0.000000000
 40
0.800000000
100
AcDbArc
 50
18.285722896
 51
-160.514909870
  0
ARC
  5
BCA
330
A02
100
AcDbEntity
  8
Shape2DView006
100
AcDbCircle
 10
66.390000000
 20
268.000000000
 30
0.000000000
 40
0.800000000
100
AcDbArc
 50
-161.714277104
 51
19.485090130
  0
ARC
  5
BCB
330
A02
100
AcDbEntity
  8
Shape2DView006
100
AcDbCircle
 10
90.600000000
 20
276.000000000
 30
0.000000000
 40
26.297531253
100
AcDbArc
 50
161.714277104
 51
-161.714277104
  0
ARC
  5
BCC
330
A02
100
AcDbEntity
  8
Shape2DView006
100
AcDbCircle
 10
89.000000000
 20
276.000000000
 30
0.000000000
 40
23.183579800
100
AcDbArc
 50
160.514909870
 51
-160.514909870
  0
ARC
  5
BCD
330
A02
100
AcDbEntity
  8
Shape2DView006
100
AcDbCircle
 10
66.390000000
 20
284.000000000
 30
0.000000000
 40
0.800000000
100
AcDbArc
 50
-19.485090130
 51
161.714277104
  0
LINE
  5
BCE
330
A02
100
AcDbEntity
  8
Shape2DView007
100
AcDbLine
 10
88.200000000
 20
264.877200187
 30
0.000000000
 11
88.200000000
 21
267.000000000
 31
0.000000000
  0
ARC
  5
BCF
330
A02
100
AcDbEntity
  8
Shape2DView007
100
AcDbCircle
 10
88.600000000
 20
264.877200187
 30
0.000000000
 40
0.400000000
100
AcDbArc
 50
180.000000000
 51
-110.556045220
  0
LINE
  5
BD0
330
A02
100
AcDbEntity
  8
Shape2DView007
100
AcDbLine
 10
88.459550623
 20
264.502668516
 30
0.000000000
 11
90.200000000
 21
263.850000000
 31
0.000000000
  0
LINE
  5
BD1
330
A02
100
AcDbEntity
  8
Shape2DView007
100
AcDbLine
 10
90.200000000
 20
263.850000000
 30
0.000000000
 11
90.200000000
 21
264.600000000
 31
0.000000000
  0
LINE
  5
BD2
330
A02
100
AcDbEntity
  8
Shape2DView007
100
AcDbLine
 10
93.000000000
 20
264.600000000
 30
0.000000000
 11
90.200000000
 21
264.600000000
 31
0.000000000
  0
LINE
  5
BD3
330
A02
100
AcDbEntity
  8
Shape2DView007
100
AcDbLine
 10
93.000000000
 20
263.121290149
 30
0.000000000
 11
93.000000000
 21
264.600000000
 31
0.000000000
  0
ARC
  5
BD4
330
A02
100
AcDbEntity
  8
Shape2DView007
100
AcDbCircle
 10
93.400000000
 20
263.121290149
 30
0.000000000
 40
0.400000000
100
AcDbArc
 50
180.000000000
 51
-75.000000000
  0
LINE
  5
BD5
330
A02
100
AcDbEntity
  8
Shape2DView007
100
AcDbLine
 10
100.464101615
 20
264.600000000
 30
0.000000000
 11
93.503527618
 21
262.734919819
 31
0.000000000
  0
LINE
  5
BD6
330
A02
100
AcDbEntity
  8
Shape2DView007
100
AcDbLine
 10
109.753350000
 20
264.600000000
 30
0.000000000
 11
100.464101615
 21
264.600000000
 31
0.000000000
  0
LINE
  5
BD7
330
A02
100
AcDbEntity
  8
Shape2DView007
100
AcDbLine
 10
109.753350000
 20
264.600000000
 30
0.000000000
 11
109.753350000
 21
267.174660682
 31
0.000000000
  0
ARC
  5
BD8
330
A02
100
AcDbEntity
  8
Shape2DView007
100
AcDbCircle
 10
109.852905000
 20
267.347095000
 30
0.000000000
 40
0.199110000
100
AcDbArc
 50
90.000000000
 51
-120.000000000
  0
ARC
  5
BD9
330
A02
100
AcDbEntity
  8
Shape2DView007
100
AcDbCircle
 10
109.852905000
 20
267.347095000
 30
0.000000000
 40
0.199110000
100
AcDbArc
 50
30.000000000
 51
90.000000000
  0
LINE
  5
BDA
330
A02
100
AcDbEntity
  8
Shape2DView007
100
AcDbLine
 10
110.025339318
 20
267.446650000
 30
0.000000000
 11
119.294660682
 21
267.446650000
 31
0.000000000
  0
ARC
  5
BDB
330
A02
100
AcDbEntity
  8
Shape2DView007
100
AcDbCircle
 10
119.467095000
 20
267.347095000
 30
0.000000000
 40
0.199110000
100
AcDbArc
 50
90.000000000
 51
150.000000000
  0
ARC
  5
BDC
330
A02
100
AcDbEntity
  8
Shape2DView007
100
AcDbCircle
 10
119.467095000
 20
267.347095000
 30
0.000000000
 40
0.199110000
100
AcDbArc
 50
-60.000000000
 51
90.000000000
  0
LINE
  5
BDD
330
A02
100
AcDbEntity
  8
Shape2DView007
100
AcDbLine
 10
119.566650000
 20
264.600000000
 30
0.000000000
 11
119.566650000
 21
267.174660682
 31
0.000000000
  0
LINE
  5
BDE
330
A02
100
AcDbEntity
  8
Shape2DView007
100
AcDbLine
 10
132.433350000
 20
264.600000000
 30
0.000000000
 11
119.566650000
 21
264.600000000
 31
0.000000000
  0
LINE
  5
BDF
330
A02
100
AcDbEntity
  8
Shape2DView007
100
AcDbLine
 10
132.433350000
 20
264.600000000
 30
0.000000000
 11
132.433350000
 21
267.174660682
 31
0.000000000
  0
ARC
  5
BE0
330
A02
100
AcDbEntity
  8
Shape2DView007
100
AcDbCircle
 10
132.532905000
 20
267.347095000
 30
0.000000000
 40
0.199110000
100
AcDbArc
 50
90.000000000
 51
-120.000000000
  0
ARC
  5
BE1
330
A02
100
AcDbEntity
  8
Shape2DView007
100
AcDbCircle
 10
132.532905000
 20
267.347095000
 30
0.000000000
 40
0.199110000
100
AcDbArc
 50
30.000000000
 51
90.000000000
  0
LINE
  5
BE2
330
A02
100
AcDbEntity
  8
Shape2DView007
100
AcDbLine
 10
132.705339318
 20
267.446650000
 30
0.000000000
 11
141.974660682
 21
267.446650000
 31
0.000000000
  0
ARC
  5
BE3
330
A02
100
AcDbEntity
  8
Shape2DView007
100
AcDbCircle
 10
142.147095000
 20
267.347095000
 30
0.000000000
 40
0.199110000
100
AcDbArc
 50
90.000000000
 51
150.000000000
  0
ARC
  5
BE4
330
A02
100
AcDbEntity
  8
Shape2DView007
100
AcDbCircle
 10
142.147095000
 20
267.347095000
 30
0.000000000
 40
0.199110000
100
AcDbArc
 50
-60.000000000
 51
90.000000000
  0
LINE
  5
BE5
330
A02
100
AcDbEntity
  8
Shape2DView007
100
AcDbLine
 10
142.246650000
 20
264.600000000
 30
0.000000000
 11
142.246650000
 21
267.174660682
 31
0.000000000
  0
LINE
  5
BE6
330
A02
100
AcDbEntity
  8
Shape2DView007
100
AcDbLine
 10
151.535898385
 20
264.600000000
 30
0.000000000
 11
142.246650000
 21
264.600000000
 31
0.000000000
  0
LINE
  5
BE7
330
A02
100
AcDbEntity
  8
Shape2DView007
100
AcDbLine
 10
158.496472382
 20
262.734919819
 30
0.000000000
 11
151.535898385
 21
264.600000000
 31
0.000000000
  0
ARC
  5
BE8
330
A02
100
AcDbEntity
  8
Shape2DView007
100
AcDbCircle
 10
158.600000000
 20
263.121290149
 30
0.000000000
 40
0.400000000
100
AcDbArc
 50
-105.000000000
 51
0.000000000
  0
LINE
  5
BE9
330
A02
100
AcDbEntity
  8
Shape2DView007
100
AcDbLine
 10
159.000000000
 20
264.600000000
 30
0.000000000
 11
159.000000000
 21
263.121290149
 31
0.000000000
  0
LINE
  5
BEA
330
A02
100
AcDbEntity
  8
Shape2DView007
100
AcDbLine
 10
161.800000000
 20
264.600000000
 30
0.000000000
 11
159.000000000
 21
264.600000000
 31
0.000000000
  0
LINE
  5
BEB
330
A02
100
AcDbEntity
  8
Shape2DView007
100
AcDbLine
 10
161.800000000
 20
263.850000000
 30
0.000000000
 11
161.800000000
 21
264.600000000
 31
0.000000000
  0
LINE
  5
BEC
330
A02
100
AcDbEntity
  8
Shape2DView007
100
AcDbLine
 10
163.540449377
 20
264.502668516
 30
0.000000000
 11
161.800000000
 21
263.850000000
 31
0.000000000
  0
ARC
  5
BED
330
A02
100
AcDbEntity
  8
Shape2DView007
100
AcDbCircle
 10
163.400000000
 20
264.877200187
 30
0.000000000
 40
0.400000000
100
AcDbArc
 50
-69.443954780
 51
0.000000000
  0
LINE
  5
BEE
330
A02
100
AcDbEntity
  8
Shape2DView007
100
AcDbLine
 10
163.800000000
 20
267.000000000
 30
0.000000000
 11
163.800000000
 21
264.877200187
 31
0.000000000
  0
ARC
  5
BEF
330
A02
100
AcDbEntity
  8
Shape2DView007
100
AcDbCircle
 10
163.400000000
 20
267.000000000
 30
0.000000000
 40
0.400000000
100
AcDbArc
 50
0.000000000
 51
90.000000000
  0
LINE
  5
BF0
330
A02
100
AcDbEntity
  8
Shape2DView007
100
AcDbLine
 10
149.800000000
 20
267.400000000
 30
0.000000000
 11
163.400000000
 21
267.400000000
 31
0.000000000
  0
ARC
  5
BF1
330
A02
100
AcDbEntity
  8
Shape2DView007
100
AcDbCircle
 10
149.800000000
 20
267.800000000
 30
0.000000000
 40
0.400000000
100
AcDbArc
 50
90.000000000
 51
-90.000000000
  0
LINE
  5
BF2
330
A02
100
AcDbEntity
  8
Shape2DView007
100
AcDbLine
 10
163.400000000
 20
268.200000000
 30
0.000000000
 11
149.800000000
 21
268.200000000
 31
0.000000000
  0
ARC
  5
BF3
330
A02
100
AcDbEntity
  8
Shape2DView007
100
AcDbCircle
 10
163.400000000
 20
268.600000000
 30
0.000000000
 40
0.400000000
100
AcDbArc
 50
-90.000000000
 51
0.000000000
  0
LINE
  5
BF4
330
A02
100
AcDbEntity
  8
Shape2DView007
100
AcDbLine
 10
163.800000000
 20
279.993350000
 30
0.000000000
 11
163.800000000
 21
268.600000000
 31
0.000000000
  0
LINE
  5
BF5
330
A02
100
AcDbEntity
  8
Shape2DView007
100
AcDbLine
 10
161.225339318
 20
279.993350000
 30
0.000000000
 11
163.800000000
 21
279.993350000
 31
0.000000000
  0
ARC
  5
BF6
330
A02
100
AcDbEntity
  8
Shape2DView007
100
AcDbCircle
 10
161.052905000
 20
280.092905000
 30
0.000000000
 40
0.199110000
100
AcDbArc
 50
120.000000000
 51
-30.000000000
  0
LINE
  5
BF7
330
A02
100
AcDbEntity
  8
Shape2DView007
100
AcDbLine
 10
160.953350000
 20
289.534660682
 30
0.000000000
 11
160.953350000
 21
280.265339318
 31
0.000000000
  0
ARC
  5
BF8
330
A02
100
AcDbEntity
  8
Shape2DView007
100
AcDbCircle
 10
161.052905000
 20
289.707095000
 30
0.000000000
 40
0.199110000
100
AcDbArc
 50
30.000000000
 51
-120.000000000
  0
LINE
  5
BF9
330
A02
100
AcDbEntity
  8
Shape2DView007
100
AcDbLine
 10
161.225339318
 20
289.806650000
 30
0.000000000
 11
163.800000000
 21
289.806650000
 31
0.000000000
  0
LINE
  5
BFA
330
A02
100
AcDbEntity
  8
Shape2DView007
100
AcDbLine
 10
163.800000000
 20
301.200000000
 30
0.000000000
 11
163.800000000
 21
289.806650000
 31
0.000000000
  0
ARC
  5
BFB
330
A02
100
AcDbEntity
  8
Shape2DView007
100
AcDbCircle
 10
163.400000000
 20
301.200000000
 30
0.000000000
 40
0.400000000
100
AcDbArc
 50
0.000000000
 51
90.000000000
  0
LINE
  5
BFC
330
A02
100
AcDbEntity
  8
Shape2DView007
100
AcDbLine
 10
149.800000000
 20
301.600000000
 30
0.000000000
 11
163.400000000
 21
301.600000000
 31
0.000000000
  0
ARC
  5
BFD
330
A02
100
AcDbEntity
  8
Shape2DView007
100
AcDbCircle
 10
149.800000000
 20
302.000000000
 30
0.000000000
 40
0.400000000
100
AcDbArc
 50
90.000000000
 51
-90.000000000
  0
LINE
  5
BFE
330
A02
100
AcDbEntity
  8
Shape2DView007
100
AcDbLine
 10
163.400000000
 20
302.400000000
 30
0.000000000
 11
149.800000000
 21
302.400000000
 31
0.000000000
  0
ARC
  5
BFF
330
A02
100
AcDbEntity
  8
Shape2DView007
100
AcDbCircle
 10
163.400000000
 20
302.800000000
 30
0.000000000
 40
0.400000000
100
AcDbArc
 50
-90.000000000
 51
0.000000000
  0
LINE
  5
C00
330
A02
100
AcDbEntity
  8
Shape2DView007
100
AcDbLine
 10
163.800000000
 20
304.922799813
 30
0.000000000
 11
163.800000000
 21
302.800000000
 31
0.000000000
  0
ARC
  5
C01
330
A02
100
AcDbEntity
  8
Shape2DView007
100
AcDbCircle
 10
163.400000000
 20
304.922799813
 30
0.000000000
 40
0.400000000
100
AcDbArc
 50
0.000000000
 51
69.443954780
  0
LINE
  5
C02
330
A02
100
AcDbEntity
  8
Shape2DView007
100
AcDbLine
 10
163.540449377
 20
305.297331484
 30
0.000000000
 11
161.800000000
 21
305.950000000
 31
0.000000000
  0
LINE
  5
C03
330
A02
100
AcDbEntity
  8
Shape2DView007
100
AcDbLine
 10
161.800000000
 20
305.200000000
 30
0.000000000
 11
161.800000000
 21
305.950000000
 31
0.000000000
  0
LINE
  5
C04
330
A02
100
AcDbEntity
  8
Shape2DView007
100
AcDbLine
 10
159.000000000
 20
305.200000000
 30
0.000000000
 11
161.800000000
 21
305.200000000
 31
0.000000000
  0
LINE
  5
C05
330
A02
100
AcDbEntity
  8
Shape2DView007
100
AcDbLine
 10
159.000000000
 20
306.678709851
 30
0.000000000
 11
159.000000000
 21
305.200000000
 31
0.000000000
  0
ARC
  5
C06
330
A02
100
AcDbEntity
  8
Shape2DView007
100
AcDbCircle
 10
158.600000000
 20
306.678709851
 30
0.000000000
 40
0.400000000
100
AcDbArc
 50
0.000000000
 51
105.000000000
  0
LINE
  5
C07
330
A02
100
AcDbEntity
  8
Shape2DView007
100
AcDbLine
 10
151.535898385
 20
305.200000000
 30
0.000000000
 11
158.496472382
 21
307.065080181
 31
0.000000000
  0
LINE
  5
C08
330
A02
100
AcDbEntity
  8
Shape2DView007
100
AcDbLine
 10
140.356650000
 20
305.200000000
 30
0.000000000
 11
151.535898385
 21
305.200000000
 31
0.000000000
  0
LINE
  5
C09
330
A02
100
AcDbEntity
  8
Shape2DView007
100
AcDbLine
 10
140.356650000
 20
305.200000000
 30
0.000000000
 11
140.356650000
 21
302.625339318
 31
0.000000000
  0
ARC
  5
C0A
330
A02
100
AcDbEntity
  8
Shape2DView007
100
AcDbCircle
 10
140.257095000
 20
302.452905000
 30
0.000000000
 40
0.199110000
100
AcDbArc
 50
-90.000000000
 51
60.000000000
  0
ARC
  5
C0B
330
A02
100
AcDbEntity
  8
Shape2DView007
100
AcDbCircle
 10
140.257095000
 20
302.452905000
 30
0.000000000
 40
0.199110000
100
AcDbArc
 50
-150.000000000
 51
-90.000000000
  0
LINE
  5
C0C
330
A02
100
AcDbEntity
  8
Shape2DView007
100
AcDbLine
 10
140.084660682
 20
302.353350000
 30
0.000000000
 11
130.815339318
 21
302.353350000
 31
0.000000000
  0
ARC
  5
C0D
330
A02
100
AcDbEntity
  8
Shape2DView007
100
AcDbCircle
 10
130.642905000
 20
302.452905000
 30
0.000000000
 40
0.199110000
100
AcDbArc
 50
-90.000000000
 51
-30.000000000
  0
ARC
  5
C0E
330
A02
100
AcDbEntity
  8
Shape2DView007
100
AcDbCircle
 10
130.642905000
 20
302.452905000
 30
0.000000000
 40
0.199110000
100
AcDbArc
 50
120.000000000
 51
-90.000000000
  0
LINE
  5
C0F
330
A02
100
AcDbEntity
  8
Shape2DView007
100
AcDbLine
 10
130.543350000
 20
305.200000000
 30
0.000000000
 11
130.543350000
 21
302.625339318
 31
0.000000000
  0
LINE
  5
C10
330
A02
100
AcDbEntity
  8
Shape2DView007
100
AcDbLine
 10
121.456650000
 20
305.200000000
 30
0.000000000
 11
130.543350000
 21
305.200000000
 31
0.000000000
  0
LINE
  5
C11
330
A02
100
AcDbEntity
  8
Shape2DView007
100
AcDbLine
 10
121.456650000
 20
305.200000000
 30
0.000000000
 11
121.456650000
 21
302.625339318
 31
0.000000000
  0
ARC
  5
C12
330
A02
100
AcDbEntity
  8
Shape2DView007
100
AcDbCircle
 10
121.357095000
 20
302.452905000
 30
0.000000000
 40
0.199110000
100
AcDbArc
 50
-90.000000000
 51
60.000000000
  0
ARC
  5
C13
330
A02
100
AcDbEntity
  8
Shape2DView007
100
AcDbCircle
 10
121.357095000
 20
302.452905000
 30
0.000000000
 40
0.199110000
100
AcDbArc
 50
-150.000000000
 51
-90.000000000
  0
LINE
  5
C14
330
A02
100
AcDbEntity
  8
Shape2DView007
100
AcDbLine
 10
121.184660682
 20
302.353350000
 30
0.000000000
 11
111.915339318
 21
302.353350000
 31
0.000000000
  0
ARC
  5
C15
330
A02
100
AcDbEntity
  8
Shape2DView007
100
AcDbCircle
 10
111.742905000
 20
302.452905000
 30
0.000000000
 40
0.199110000
100
AcDbArc
 50
-90.000000000
 51
-30.000000000
  0
ARC
  5
C16
330
A02
100
AcDbEntity
  8
Shape2DView007
100
AcDbCircle
 10
111.742905000
 20
302.452905000
 30
0.000000000
 40
0.199110000
100
AcDbArc
 50
120.000000000
 51
-90.000000000
  0
LINE
  5
C17
330
A02
100
AcDbEntity
  8
Shape2DView007
100
AcDbLine
 10
111.643350000
 20
305.200000000
 30
0.000000000
 11
111.643350000
 21
302.625339318
 31
0.000000000
  0
LINE
  5
C18
330
A02
100
AcDbEntity
  8
Shape2DView007
100
AcDbLine
 10
100.464101615
 20
305.200000000
 30
0.000000000
 11
111.643350000
 21
305.200000000
 31
0.000000000
  0
LINE
  5
C19
330
A02
100
AcDbEntity
  8
Shape2DView007
100
AcDbLine
 10
93.503527618
 20
307.065080181
 30
0.000000000
 11
100.464101615
 21
305.200000000
 31
0.000000000
  0
ARC
  5
C1A
330
A02
100
AcDbEntity
  8
Shape2DView007
100
AcDbCircle
 10
93.400000000
 20
306.678709851
 30
0.000000000
 40
0.400000000
100
AcDbArc
 50
75.000000000
 51
180.000000000
  0
LINE
  5
C1B
330
A02
100
AcDbEntity
  8
Shape2DView007
100
AcDbLine
 10
93.000000000
 20
305.200000000
 30
0.000000000
 11
93.000000000
 21
306.678709851
 31
0.000000000
  0
LINE
  5
C1C
330
A02
100
AcDbEntity
  8
Shape2DView007
100
AcDbLine
 10
90.200000000
 20
305.200000000
 30
0.000000000
 11
93.000000000
 21
305.200000000
 31
0.000000000
  0
LINE
  5
C1D
330
A02
100
AcDbEntity
  8
Shape2DView007
100
AcDbLine
 10
90.200000000
 20
305.950000000
 30
0.000000000
 11
90.200000000
 21
305.200000000
 31
0.000000000
  0
LINE
  5
C1E
330
A02
100
AcDbEntity
  8
Shape2DView007
100
AcDbLine
 10
88.459550623
 20
305.297331484
 30
0.000000000
 11
90.200000000
 21
305.950000000
 31
0.000000000
  0
ARC
  5
C1F
330
A02
100
AcDbEntity
  8
Shape2DView007
100
AcDbCircle
 10
88.600000000
 20
304.922799813
 30
0.000000000
 40
0.400000000
100
AcDbArc
 50
110.556045220
 51
180.000000000
  0
LINE
  5
C20
330
A02
100
AcDbEntity
  8
Shape2DView007
100
AcDbLine
 10
88.200000000
 20
302.800000000
 30
0.000000000
 11
88.200000000
 21
304.922799813
 31
0.000000000
  0
ARC
  5
C21
330
A02
100
AcDbEntity
  8
Shape2DView007
100
AcDbCircle
 10
88.600000000
 20
302.800000000
 30
0.000000000
 40
0.400000000
100
AcDbArc
 50
180.000000000
 51
-90.000000000
  0
LINE
  5
C22
330
A02
100
AcDbEntity
  8
Shape2DView007
100
AcDbLine
 10
102.200000000
 20
302.400000000
 30
0.000000000
 11
88.600000000
 21
302.400000000
 31
0.000000000
  0
ARC
  5
C23
330
A02
100
AcDbEntity
  8
Shape2DView007
100
AcDbCircle
 10
102.200000000
 20
302.000000000
 30
0.000000000
 40
0.400000000
100
AcDbArc
 50
-90.000000000
 51
90.000000000
  0
LINE
  5
C24
330
A02
100
AcDbEntity
  8
Shape2DView007
100
AcDbLine
 10
88.600000000
 20
301.600000000
 30
0.000000000
 11
102.200000000
 21
301.600000000
 31
0.000000000
  0
ARC
  5
C25
330
A02
100
AcDbEntity
  8
Shape2DView007
100
AcDbCircle
 10
88.600000000
 20
301.200000000
 30
0.000000000
 40
0.400000000
100
AcDbArc
 50
90.000000000
 51
180.000000000
  0
LINE
  5
C26
330
A02
100
AcDbEntity
  8
Shape2DView007
100
AcDbLine
 10
88.200000000
 20
289.806650000
 30
0.000000000
 11
88.200000000
 21
301.200000000
 31
0.000000000
  0
LINE
  5
C27
330
A02
100
AcDbEntity
  8
Shape2DView007
100
AcDbLine
 10
88.200000000
 20
289.806650000
 30
0.000000000
 11
90.774660682
 21
289.806650000
 31
0.000000000
  0
ARC
  5
C28
330
A02
100
AcDbEntity
  8
Shape2DView007
100
AcDbCircle
 10
90.947095000
 20
289.707095000
 30
0.000000000
 40
0.199110000
100
AcDbArc
 50
0.000000000
 51
150.000000000
  0
ARC
  5
C29
330
A02
100
AcDbEntity
  8
Shape2DView007
100
AcDbCircle
 10
90.947095000
 20
289.707095000
 30
0.000000000
 40
0.199110000
100
AcDbArc
 50
-60.000000000
 51
0.000000000
  0
LINE
  5
C2A
330
A02
100
AcDbEntity
  8
Shape2DView007
100
AcDbLine
 10
91.046650000
 20
289.534660682
 30
0.000000000
 11
91.046650000
 21
280.265339318
 31
0.000000000
  0
ARC
  5
C2B
330
A02
100
AcDbEntity
  8
Shape2DView007
100
AcDbCircle
 10
90.947095000
 20
280.092905000
 30
0.000000000
 40
0.199110000
100
AcDbArc
 50
0.000000000
 51
60.000000000
  0
ARC
  5
C2C
330
A02
100
AcDbEntity
  8
Shape2DView007
100
AcDbCircle
 10
90.947095000
 20
280.092905000
 30
0.000000000
 40
0.199110000
100
AcDbArc
 50
-150.000000000
 51
0.000000000
  0
LINE
  5
C2D
330
A02
100
AcDbEntity
  8
Shape2DView007
100
AcDbLine
 10
88.200000000
 20
279.993350000
 30
0.000000000
 11
90.774660682
 21
279.993350000
 31
0.000000000
  0
LINE
  5
C2E
330
A02
100
AcDbEntity
  8
Shape2DView007
100
AcDbLine
 10
88.200000000
 20
268.600000000
 30
0.000000000
 11
88.200000000
 21
279.993350000
 31
0.000000000
  0
ARC
  5
C2F
330
A02
100
AcDbEntity
  8
Shape2DView007
100
AcDbCircle
 10
88.600000000
 20
268.600000000
 30
0.000000000
 40
0.400000000
100
AcDbArc
 50
180.000000000
 51
-90.000000000
  0
LINE
  5
C30
330
A02
100
AcDbEntity
  8
Shape2DView007
100
AcDbLine
 10
102.200000000
 20
268.200000000
 30
0.000000000
 11
88.600000000
 21
268.200000000
 31
0.000000000
  0
ARC
  5
C31
330
A02
100
AcDbEntity
  8
Shape2DView007
100
AcDbCircle
 10
102.200000000
 20
267.800000000
 30
0.000000000
 40
0.400000000
100
AcDbArc
 50
-90.000000000
 51
90.000000000
  0
LINE
  5
C32
330
A02
100
AcDbEntity
  8
Shape2DView007
100
AcDbLine
 10
88.600000000
 20
267.400000000
 30
0.000000000
 11
102.200000000
 21
267.400000000
 31
0.000000000
  0
ARC
  5
C33
330
A02
100
AcDbEntity
  8
Shape2DView007
100
AcDbCircle
 10
88.600000000
 20
267.000000000
 30
0.000000000
 40
0.400000000
100
AcDbArc
 50
90.000000000
 51
180.000000000
  0
CIRCLE
  5
C34
330
A02
100
AcDbEntity
  8
Shape2DView007
100
AcDbCircle
 10
113.200000000
 20
277.900000000
 30
0.000000000
 40
8.500000000
  0
LINE
  5
C35
330
A02
100
AcDbEntity
  8
Shape2DView007
100
AcDbLine
 10
123.150000000
 20
272.300000000
 30
0.000000000
 11
128.850000000
 21
272.300000000
 31
0.000000000
  0
ARC
  5
C36
330
A02
100
AcDbEntity
  8
Shape2DView007
100
AcDbCircle
 10
123.150000000
 20
269.800000000
 30
0.000000000
 40
2.500000000
100
AcDbArc
 50
90.000000000
 51
-90.000000000
  0
ARC
  5
C37
330
A02
100
AcDbEntity
  8
Shape2DView007
100
AcDbCircle
 10
128.850000000
 20
269.800000000
 30
0.000000000
 40
2.500000000
100
AcDbArc
 50
-90.000000000
 51
90.000000000
  0
LINE
  5
C38
330
A02
100
AcDbEntity
  8
Shape2DView007
100
AcDbLine
 10
123.150000000
 20
267.300000000
 30
0.000000000
 11
128.850000000
 21
267.300000000
 31
0.000000000
  0
LINE
  5
C39
330
A02
100
AcDbEntity
  8
Shape2DView007
100
AcDbLine
 10
102.000000000
 20
297.510000000
 30
0.000000000
 11
114.000000000
 21
297.510000000
 31
0.000000000
  0
ARC
  5
C3A
330
A02
100
AcDbEntity
  8
Shape2DView007
100
AcDbCircle
 10
102.000000000
 20
296.755000000
 30
0.000000000
 40
0.755000000
100
AcDbArc
 50
90.000000000
 51
-90.000000000
  0
ARC
  5
C3B
330
A02
100
AcDbEntity
  8
Shape2DView007
100
AcDbCircle
 10
114.000000000
 20
296.755000000
 30
0.000000000
 40
0.755000000
100
AcDbArc
 50
-90.000000000
 51
90.000000000
  0
LINE
  5
C3C
330
A02
100
AcDbEntity
  8
Shape2DView007
100
AcDbLine
 10
102.000000000
 20
296.000000000
 30
0.000000000
 11
114.000000000
 21
296.000000000
 31
0.000000000
  0
CIRCLE
  5
C3D
330
A02
100
AcDbEntity
  8
Shape2DView007
100
AcDbCircle
 10
138.800000000
 20
277.900000000
 30
0.000000000
 40
8.500000000
  0
LINE
  5
C3E
330
A02
100
AcDbEntity
  8
Shape2DView007
100
AcDbLine
 10
138.000000000
 20
297.510000000
 30
0.000000000
 11
150.000000000
 21
297.510000000
 31
0.000000000
  0
ARC
  5
C3F
330
A02
100
AcDbEntity
  8
Shape2DView007
100
AcDbCircle
 10
138.000000000
 20
296.755000000
 30
0.000000000
 40
0.755000000
100
AcDbArc
 50
90.000000000
 51
-90.000000000
  0
ARC
  5
C40
330
A02
100
AcDbEntity
  8
Shape2DView007
100
AcDbCircle
 10
150.000000000
 20
296.755000000
 30
0.000000000
 40
0.755000000
100
AcDbArc
 50
-90.000000000
 51
90.000000000
  0
LINE
  5
C41
330
A02
100
AcDbEntity
  8
Shape2DView007
100
AcDbLine
 10
138.000000000
 20
296.000000000
 30
0.000000000
 11
150.000000000
 21
296.000000000
 31
0.000000000
  0
LINE
  5
C42
330
A02
100
AcDbEntity
  8
Shape2DView008
100
AcDbLine
 10
164.200000000
 20
288.035920641
 30
0.000000000
 11
178.193350000
 21
288.035920641
 31
0.000000000
  0
LINE
  5
C43
330
A02
100
AcDbEntity
  8
Shape2DView008
100
AcDbLine
 10
167.000000000
 20
231.640292189
 30
0.000000000
 11
164.200000000
 21
231.640292189
 31
0.000000000
  0
LINE
  5
C44
330
A02
100
AcDbEntity
  8
Shape2DView008
100
AcDbLine
 10
167.000000000
 20
230.240292189
 30
0.000000000
 11
167.000000000
 21
231.640292189
 31
0.000000000
  0
LINE
  5
C45
330
A02
100
AcDbEntity
  8
Shape2DView008
100
AcDbLine
 10
178.138042757
 20
230.240292189
 30
0.000000000
 11
167.000000000
 21
230.240292189
 31
0.000000000
  0
ELLIPSE
  5
C46
330
A02
100
AcDbEntity
  8
Shape2DView008
100
AcDbEllipse
 10
178.289793333
 20
230.113583385
 30
0.000000000
 11
0.000000000
 21
0.205265703
 31
0.000000000
 40
0.939692621
 41
-5.759586532
 42
-5.377684492
  0
LINE
  5
C47
330
A02
100
AcDbEntity
  8
Shape2DView008
100
AcDbLine
 10
178.193350000
 20
232.809537917
 30
0.000000000
 11
178.193350000
 21
230.291348698
 31
0.000000000
  0
ELLIPSE
  5
C48
330
A02
100
AcDbEntity
  8
Shape2DView008
100
AcDbEllipse
 10
178.289793333
 20
232.987303231
 30
0.000000000
 11
0.000000000
 21
0.205265703
 31
0.000000000
 40
0.939692621
 41
-4.712388980
 42
-3.665191429
  0
ELLIPSE
  5
C49
330
A02
100
AcDbEntity
  8
Shape2DView008
100
AcDbEllipse
 10
178.289793333
 20
232.987303231
 30
0.000000000
 11
0.000000000
 21
0.205265703
 31
0.000000000
 40
0.939692621
 41
-1.047197551
 42
-4.712388980
  0
LINE
  5
C4A
330
A02
100
AcDbEntity
  8
Shape2DView008
100
AcDbLine
 10
187.743161913
 20
233.089936082
 30
0.000000000
 11
178.456838087
 21
233.089936082
 31
0.000000000
  0
ELLIPSE
  5
C4B
330
A02
100
AcDbEntity
  8
Shape2DView008
100
AcDbEllipse
 10
187.910206667
 20
232.987303231
 30
0.000000000
 11
0.000000000
 21
0.205265703
 31
0.000000000
 40
0.939692621
 41
-1.570796327
 42
-5.235987756
  0
ELLIPSE
  5
C4C
330
A02
100
AcDbEntity
  8
Shape2DView008
100
AcDbEllipse
 10
187.910206667
 20
232.987303231
 30
0.000000000
 11
0.000000000
 21
0.205265703
 31
0.000000000
 40
0.939692621
 41
-2.617993878
 42
-1.570796327
  0
LINE
  5
C4D
330
A02
100
AcDbEntity
  8
Shape2DView008
100
AcDbLine
 10
188.006650000
 20
232.809537917
 30
0.000000000
 11
188.006650000
 21
230.291348698
 31
0.000000000
  0
ELLIPSE
  5
C4E
330
A02
100
AcDbEntity
  8
Shape2DView008
100
AcDbEllipse
 10
187.910206667
 20
230.113583385
 30
0.000000000
 11
0.000000000
 21
0.205265703
 31
0.000000000
 40
0.939692621
 41
-0.905500815
 42
-0.523598776
  0
LINE
  5
C4F
330
A02
100
AcDbEntity
  8
Shape2DView008
100
AcDbLine
 10
215.938042757
 20
230.240292189
 30
0.000000000
 11
188.061957243
 21
230.240292189
 31
0.000000000
  0
ELLIPSE
  5
C50
330
A02
100
AcDbEntity
  8
Shape2DView008
100
AcDbEllipse
 10
216.089793333
 20
230.113583385
 30
0.000000000
 11
0.000000000
 21
0.205265703
 31
0.000000000
 40
0.939692621
 41
-5.759586532
 42
-5.377684492
  0
LINE
  5
C51
330
A02
100
AcDbEntity
  8
Shape2DView008
100
AcDbLine
 10
215.993350000
 20
232.809537917
 30
0.000000000
 11
215.993350000
 21
230.291348698
 31
0.000000000
  0
ELLIPSE
  5
C52
330
A02
100
AcDbEntity
  8
Shape2DView008
100
AcDbEllipse
 10
216.089793333
 20
232.987303231
 30
0.000000000
 11
0.000000000
 21
0.205265703
 31
0.000000000
 40
0.939692621
 41
-4.712388980
 42
-3.665191429
  0
ELLIPSE
  5
C53
330
A02
100
AcDbEntity
  8
Shape2DView008
100
AcDbEllipse
 10
216.089793333
 20
232.987303231
 30
0.000000000
 11
0.000000000
 21
0.205265703
 31
0.000000000
 40
0.939692621
 41
-1.047197551
 42
-4.712388980
  0
LINE
  5
C54
330
A02
100
AcDbEntity
  8
Shape2DView008
100
AcDbLine
 10
225.543161913
 20
233.089936082
 30
0.000000000
 11
216.256838087
 21
233.089936082
 31
0.000000000
  0
ELLIPSE
  5
C55
330
A02
100
AcDbEntity
  8
Shape2DView008
100
AcDbEllipse
 10
225.710206667
 20
232.987303231
 30
0.000000000
 11
0.000000000
 21
0.205265703
 31
0.000000000
 40
0.939692621
 41
-1.570796327
 42
-5.235987756
  0
ELLIPSE
  5
C56
330
A02
100
AcDbEntity
  8
Shape2DView008
100
AcDbEllipse
 10
225.710206667
 20
232.987303231
 30
0.000000000
 11
0.000000000
 21
0.205265703
 31
0.000000000
 40
0.939692621
 41
-2.617993878
 42
-1.570796327
  0
LINE
  5
C57
330
A02
100
AcDbEntity
  8
Shape2DView008
100
AcDbLine
 10
225.806650000
 20
232.809537917
 30
0.000000000
 11
225.806650000
 21
230.291348698
 31
0.000000000
  0
ELLIPSE
  5
C58
330
A02
100
AcDbEntity
  8
Shape2DView008
100
AcDbEllipse
 10
225.710206667
 20
230.113583385
 30
0.000000000
 11
0.000000000
 21
0.205265703
 31
0.000000000
 40
0.939692621
 41
-0.905500815
 42
-0.523598776
  0
LINE
  5
C59
330
A02
100
AcDbEntity
  8
Shape2DView008
100
AcDbLine
 10
237.000000000
 20
230.240292189
 30
0.000000000
 11
225.861957243
 21
230.240292189
 31
0.000000000
  0
LINE
  5
C5A
330
A02
100
AcDbEntity
  8
Shape2DView008
100
AcDbLine
 10
237.000000000
 20
231.640292189
 30
0.000000000
 11
237.000000000
 21
230.240292189
 31
0.000000000
  0
LINE
  5
C5B
330
A02
100
AcDbEntity
  8
Shape2DView008
100
AcDbLine
 10
239.800000000
 20
231.640292189
 30
0.000000000
 11
237.000000000
 21
231.640292189
 31
0.000000000
  0
LINE
  5
C5C
330
A02
100
AcDbEntity
  8
Shape2DView008
100
AcDbLine
 10
239.800000000
 20
254.651165861
 30
0.000000000
 11
239.800000000
 21
231.640292189
 31
0.000000000
  0
LINE
  5
C5D
330
A02
100
AcDbEntity
  8
Shape2DView008
100
AcDbLine
 10
237.225339318
 20
254.651165861
 30
0.000000000
 11
239.800000000
 21
254.651165861
 31
0.000000000
  0
ARC
  5
C5E
330
A02
100
AcDbEntity
  8
Shape2DView008
100
AcDbCircle
 10
237.052905000
 20
254.750720861
 30
0.000000000
 40
0.199110000
100
AcDbArc
 50
120.000000000
 51
-30.000000000
  0
LINE
  5
C5F
330
A02
100
AcDbEntity
  8
Shape2DView008
100
AcDbLine
 10
236.953350000
 20
264.192476543
 30
0.000000000
 11
236.953350000
 21
254.923155180
 31
0.000000000
  0
ARC
  5
C60
330
A02
100
AcDbEntity
  8
Shape2DView008
100
AcDbCircle
 10
237.052905000
 20
264.364910861
 30
0.000000000
 40
0.199110000
100
AcDbArc
 50
30.000000000
 51
-120.000000000
  0
LINE
  5
C61
330
A02
100
AcDbEntity
  8
Shape2DView008
100
AcDbLine
 10
237.225339318
 20
264.464465861
 30
0.000000000
 11
239.800000000
 21
264.464465861
 31
0.000000000
  0
LINE
  5
C62
330
A02
100
AcDbEntity
  8
Shape2DView008
100
AcDbLine
 10
239.800000000
 20
288.035920641
 30
0.000000000
 11
239.800000000
 21
264.464465861
 31
0.000000000
  0
LINE
  5
C63
330
A02
100
AcDbEntity
  8
Shape2DView008
100
AcDbLine
 10
225.806650000
 20
288.035920641
 30
0.000000000
 11
239.800000000
 21
288.035920641
 31
0.000000000
  0
LINE
  5
C64
330
A02
100
AcDbEntity
  8
Shape2DView008
100
AcDbLine
 10
225.806650000
 20
288.035920641
 30
0.000000000
 11
225.806650000
 21
285.461259959
 31
0.000000000
  0
ARC
  5
C65
330
A02
100
AcDbEntity
  8
Shape2DView008
100
AcDbCircle
 10
225.707095000
 20
285.288825641
 30
0.000000000
 40
0.199110000
100
AcDbArc
 50
-90.000000000
 51
60.000000000
  0
ARC
  5
C66
330
A02
100
AcDbEntity
  8
Shape2DView008
100
AcDbCircle
 10
225.707095000
 20
285.288825641
 30
0.000000000
 40
0.199110000
100
AcDbArc
 50
-150.000000000
 51
-90.000000000
  0
LINE
  5
C67
330
A02
100
AcDbEntity
  8
Shape2DView008
100
AcDbLine
 10
216.265339318
 20
285.189270641
 30
0.000000000
 11
225.534660682
 21
285.189270641
 31
0.000000000
  0
ARC
  5
C68
330
A02
100
AcDbEntity
  8
Shape2DView008
100
AcDbCircle
 10
216.092905000
 20
285.288825641
 30
0.000000000
 40
0.199110000
100
AcDbArc
 50
-90.000000000
 51
-30.000000000
  0
ARC
  5
C69
330
A02
100
AcDbEntity
  8
Shape2DView008
100
AcDbCircle
 10
216.092905000
 20
285.288825641
 30
0.000000000
 40
0.199110000
100
AcDbArc
 50
120.000000000
 51
-90.000000000
  0
LINE
  5
C6A
330
A02
100
AcDbEntity
  8
Shape2DView008
100
AcDbLine
 10
215.993350000
 20
288.035920641
 30
0.000000000
 11
215.993350000
 21
285.461259959
 31
0.000000000
  0
LINE
  5
C6B
330
A02
100
AcDbEntity
  8
Shape2DView008
100
AcDbLine
 10
188.006650000
 20
288.035920641
 30
0.000000000
 11
215.993350000
 21
288.035920641
 31
0.000000000
  0
LINE
  5
C6C
330
A02
100
AcDbEntity
  8
Shape2DView008
100
AcDbLine
 10
188.006650000
 20
288.035920641
 30
0.000000000
 11
188.006650000
 21
285.461259959
 31
0.000000000
  0
ARC
  5
C6D
330
A02
100
AcDbEntity
  8
Shape2DView008
100
AcDbCircle
 10
187.907095000
 20
285.288825641
 30
0.000000000
 40
0.199110000
100
AcDbArc
 50
-90.000000000
 51
60.000000000
  0
ARC
  5
C6E
330
A02
100
AcDbEntity
  8
Shape2DView008
100
AcDbCircle
 10
187.907095000
 20
285.288825641
 30
0.000000000
 40
0.199110000
100
AcDbArc
 50
-150.000000000
 51
-90.000000000
  0
LINE
  5
C6F
330
A02
100
AcDbEntity
  8
Shape2DView008
100
AcDbLine
 10
178.465339318
 20
285.189270641
 30
0.000000000
 11
187.734660682
 21
285.189270641
 31
0.000000000
  0
ARC
  5
C70
330
A02
100
AcDbEntity
  8
Shape2DView008
100
AcDbCircle
 10
178.292905000
 20
285.288825641
 30
0.000000000
 40
0.199110000
100
AcDbArc
 50
-90.000000000
 51
-30.000000000
  0
ARC
  5
C71
330
A02
100
AcDbEntity
  8
Shape2DView008
100
AcDbCircle
 10
178.292905000
 20
285.288825641
 30
0.000000000
 40
0.199110000
100
AcDbArc
 50
120.000000000
 51
-90.000000000
  0
LINE
  5
C72
330
A02
100
AcDbEntity
  8
Shape2DView008
100
AcDbLine
 10
178.193350000
 20
288.035920641
 30
0.000000000
 11
178.193350000
 21
285.461259959
 31
0.000000000
  0
LINE
  5
C73
330
A02
100
AcDbEntity
  8
Shape2DView008
100
AcDbLine
 10
164.200000000
 20
264.464465861
 30
0.000000000
 11
164.200000000
 21
288.035920641
 31
0.000000000
  0
LINE
  5
C74
330
A02
100
AcDbEntity
  8
Shape2DView008
100
AcDbLine
 10
164.200000000
 20
264.464465861
 30
0.000000000
 11
166.774660682
 21
264.464465861
 31
0.000000000
  0
ARC
  5
C75
330
A02
100
AcDbEntity
  8
Shape2DView008
100
AcDbCircle
 10
166.947095000
 20
264.364910861
 30
0.000000000
 40
0.199110000
100
AcDbArc
 50
0.000000000
 51
150.000000000
  0
ARC
  5
C76
330
A02
100
AcDbEntity
  8
Shape2DView008
100
AcDbCircle
 10
166.947095000
 20
264.364910861
 30
0.000000000
 40
0.199110000
100
AcDbArc
 50
-60.000000000
 51
0.000000000
  0
LINE
  5
C77
330
A02
100
AcDbEntity
  8
Shape2DView008
100
AcDbLine
 10
167.046650000
 20
264.192476543
 30
0.000000000
 11
167.046650000
 21
254.923155180
 31
0.000000000
  0
ARC
  5
C78
330
A02
100
AcDbEntity
  8
Shape2DView008
100
AcDbCircle
 10
166.947095000
 20
254.750720861
 30
0.000000000
 40
0.199110000
100
AcDbArc
 50
0.000000000
 51
60.000000000
  0
ARC
  5
C79
330
A02
100
AcDbEntity
  8
Shape2DView008
100
AcDbCircle
 10
166.947095000
 20
254.750720861
 30
0.000000000
 40
0.199110000
100
AcDbArc
 50
-150.000000000
 51
0.000000000
  0
LINE
  5
C7A
330
A02
100
AcDbEntity
  8
Shape2DView008
100
AcDbLine
 10
164.200000000
 20
254.651165861
 30
0.000000000
 11
166.774660682
 21
254.651165861
 31
0.000000000
  0
LINE
  5
C7B
330
A02
100
AcDbEntity
  8
Shape2DView008
100
AcDbLine
 10
164.200000000
 20
231.640292189
 30
0.000000000
 11
164.200000000
 21
254.651165861
 31
0.000000000
  0
CIRCLE
  5
C7C
330
A02
100
AcDbEntity
  8
Shape2DView008
100
AcDbCircle
 10
201.500000000
 20
243.740292189
 30
0.000000000
 40
2.000000000
  0
SPLINE
  5
C7D
330
A02
100
AcDbEntity
  8
Shape2DView008
100
AcDbSpline
210
0
220
0
230
1
 70
8
 71
3
 72
8
 73
4
 74
0
 40
5.377684492
 40
5.377684492
 40
5.377684492
 40
5.377684492
 40
6.283185307
 40
6.283185307
 40
6.283185307
 40
6.283185307
 10
225.861957243
 20
230.240292189
 30
0.000000000
 10
225.826093024
 20
230.240292189
 30
0.000000000
 10
225.768585560
 20
230.240292189
 30
0.000000000
 10
225.710206667
 20
230.240292189
 30
0.000000000
  0
SPLINE
  5
C7E
330
A02
100
AcDbEntity
  8
Shape2DView008
100
AcDbSpline
210
0
220
0
230
1
 70
8
 71
3
 72
8
 73
4
 74
0
 40
0.000000000
 40
0.000000000
 40
0.000000000
 40
0.000000000
 40
1.047197551
 40
1.047197551
 40
1.047197551
 40
1.047197551
 10
225.710206667
 20
230.240292189
 30
0.000000000
 10
225.642562522
 20
230.240292189
 30
0.000000000
 10
225.576614541
 20
230.240292189
 30
0.000000000
 10
225.543161913
 20
230.240292189
 30
0.000000000
  0
LINE
  5
C7F
330
A02
100
AcDbEntity
  8
Shape2DView008
100
AcDbLine
 10
225.543161913
 20
230.240292189
 30
0.000000000
 11
216.256838087
 21
230.240292189
 31
0.000000000
  0
SPLINE
  5
C80
330
A02
100
AcDbEntity
  8
Shape2DView008
100
AcDbSpline
210
0
220
0
230
1
 70
8
 71
3
 72
8
 73
4
 74
0
 40
5.235987756
 40
5.235987756
 40
5.235987756
 40
5.235987756
 40
6.283185307
 40
6.283185307
 40
6.283185307
 40
6.283185307
 10
216.256838087
 20
230.240292189
 30
0.000000000
 10
216.223385459
 20
230.240292189
 30
0.000000000
 10
216.157437478
 20
230.240292189
 30
0.000000000
 10
216.089793333
 20
230.240292189
 30
0.000000000
  0
SPLINE
  5
C81
330
A02
100
AcDbEntity
  8
Shape2DView008
100
AcDbSpline
210
0
220
0
230
1
 70
8
 71
3
 72
8
 73
4
 74
0
 40
0.000000000
 40
0.000000000
 40
0.000000000
 40
0.000000000
 40
0.905500815
 40
0.905500815
 40
0.905500815
 40
0.905500815
 10
216.089793333
 20
230.240292189
 30
0.000000000
 10
216.031414440
 20
230.240292189
 30
0.000000000
 10
215.973906976
 20
230.240292189
 30
0.000000000
 10
215.938042757
 20
230.240292189
 30
0.000000000
  0
SPLINE
  5
C82
330
A02
100
AcDbEntity
  8
Shape2DView008
100
AcDbSpline
210
0
220
0
230
1
 70
8
 71
3
 72
8
 73
4
 74
0
 40
5.377684492
 40
5.377684492
 40
5.377684492
 40
5.377684492
 40
6.283185307
 40
6.283185307
 40
6.283185307
 40
6.283185307
 10
188.061957243
 20
230.240292189
 30
0.000000000
 10
188.026093024
 20
230.240292189
 30
0.000000000
 10
187.968585560
 20
230.240292189
 30
0.000000000
 10
187.910206667
 20
230.240292189
 30
0.000000000
  0
SPLINE
  5
C83
330
A02
100
AcDbEntity
  8
Shape2DView008
100
AcDbSpline
210
0
220
0
230
1
 70
8
 71
3
 72
8
 73
4
 74
0
 40
0.000000000
 40
0.000000000
 40
0.000000000
 40
0.000000000
 40
1.047197551
 40
1.047197551
 40
1.047197551
 40
1.047197551
 10
187.910206667
 20
230.240292189
 30
0.000000000
 10
187.842562522
 20
230.240292189
 30
0.000000000
 10
187.776614541
 20
230.240292189
 30
0.000000000
 10
187.743161913
 20
230.240292189
 30
0.000000000
  0
LINE
  5
C84
330
A02
100
AcDbEntity
  8
Shape2DView008
100
AcDbLine
 10
187.743161913
 20
230.240292189
 30
0.000000000
 11
178.456838087
 21
230.240292189
 31
0.000000000
  0
SPLINE
  5
C85
330
A02
100
AcDbEntity
  8
Shape2DView008
100
AcDbSpline
210
0
220
0
230
1
 70
8
 71
3
 72
8
 73
4
 74
0
 40
5.235987756
 40
5.235987756
 40
5.235987756
 40
5.235987756
 40
6.283185307
 40
6.283185307
 40
6.283185307
 40
6.283185307
 10
178.456838087
 20
230.240292189
 30
0.000000000
 10
178.423385459
 20
230.240292189
 30
0.000000000
 10
178.357437478
 20
230.240292189
 30
0.000000000
 10
178.289793333
 20
230.240292189
 30
0.000000000
  0
SPLINE
  5
C86
330
A02
100
AcDbEntity
  8
Shape2DView008
100
AcDbSpline
210
0
220
0
230
1
 70
8
 71
3
 72
8
 73
4
 74
0
 40
0.000000000
 40
0.000000000
 40
0.000000000
 40
0.000000000
 40
0.905500815
 40
0.905500815
 40
0.905500815
 40
0.905500815
 10
178.289793333
 20
230.240292189
 30
0.000000000
 10
178.231414440
 20
230.240292189
 30
0.000000000
 10
178.173906976
 20
230.240292189
 30
0.000000000
 10
178.138042757
 20
230.240292189
 30
0.000000000
  0
LINE
  5
C87
330
A02
100
AcDbEntity
  8
Shape2DView008
100
AcDbLine
 10
178.193350000
 20
232.809537917
 30
0.000000000
 11
178.193350000
 21
233.165068544
 31
0.000000000
  0
LINE
  5
C88
330
A02
100
AcDbEntity
  8
Shape2DView008
100
AcDbLine
 10
178.193350000
 20
233.165068544
 30
0.000000000
 11
178.193350000
 21
232.809537917
 31
0.000000000
  0
LINE
  5
C89
330
A02
100
AcDbEntity
  8
Shape2DView008
100
AcDbLine
 10
188.006650000
 20
232.809537917
 30
0.000000000
 11
188.006650000
 21
233.165068544
 31
0.000000000
  0
LINE
  5
C8A
330
A02
100
AcDbEntity
  8
Shape2DView008
100
AcDbLine
 10
215.993350000
 20
232.809537917
 30
0.000000000
 11
215.993350000
 21
233.165068544
 31
0.000000000
  0
LINE
  5
C8B
330
A02
100
AcDbEntity
  8
Shape2DView008
100
AcDbLine
 10
225.806650000
 20
232.809537917
 30
0.000000000
 11
225.806650000
 21
233.165068544
 31
0.000000000
  0
LINE
  5
C8C
330
A02
100
AcDbEntity
  8
Shape2DView008
100
AcDbLine
 10
225.543161913
 20
230.240292189
 30
0.000000000
 11
225.543161913
 21
230.974414167
 31
0.000000000
  0
LINE
  5
C8D
330
A02
100
AcDbEntity
  8
Shape2DView008
100
AcDbLine
 10
216.256838087
 20
230.974414167
 30
0.000000000
 11
225.543161913
 21
230.974414167
 31
0.000000000
  0
LINE
  5
C8E
330
A02
100
AcDbEntity
  8
Shape2DView008
100
AcDbLine
 10
216.256838087
 20
230.240292189
 30
0.000000000
 11
216.256838087
 21
230.974414167
 31
0.000000000
  0
LINE
  5
C8F
330
A02
100
AcDbEntity
  8
Shape2DView008
100
AcDbLine
 10
187.743161913
 20
230.240292189
 30
0.000000000
 11
187.743161913
 21
230.974414167
 31
0.000000000
  0
LINE
  5
C90
330
A02
100
AcDbEntity
  8
Shape2DView008
100
AcDbLine
 10
178.456838087
 20
230.974414167
 30
0.000000000
 11
187.743161913
 21
230.974414167
 31
0.000000000
  0
LINE
  5
C91
330
A02
100
AcDbEntity
  8
Shape2DView008
100
AcDbLine
 10
178.456838087
 20
230.240292189
 30
0.000000000
 11
178.456838087
 21
230.974414167
 31
0.000000000
  0
ELLIPSE
  5
C92
330
A02
100
AcDbEntity
  8
Shape2DView008
100
AcDbEllipse
 10
178.289793333
 20
231.065041255
 30
0.000000000
 11
0.192886667
 21
0.000000000
 31
0.000000000
 40
0.939692621
 41
-1.570796327
 42
-0.523598776
  0
ELLIPSE
  5
C93
330
A02
100
AcDbEntity
  8
Shape2DView008
100
AcDbEllipse
 10
187.910206667
 20
231.065041255
 30
0.000000000
 11
0.192886667
 21
0.000000000
 31
0.000000000
 40
0.939692621
 41
-2.617993878
 42
-1.570796327
  0
ELLIPSE
  5
C94
330
A02
100
AcDbEntity
  8
Shape2DView008
100
AcDbEllipse
 10
187.910206667
 20
231.065041255
 30
0.000000000
 11
0.192886667
 21
0.000000000
 31
0.000000000
 40
0.939692621
 41
-1.570796327
 42
-1.047197551
  0
ELLIPSE
  5
C95
330
A02
100
AcDbEntity
  8
Shape2DView008
100
AcDbEllipse
 10
178.289793333
 20
231.065041255
 30
0.000000000
 11
0.192886667
 21
0.000000000
 31
0.000000000
 40
0.939692621
 41
-2.094395102
 42
-1.570796327
  0
ELLIPSE
  5
C96
330
A02
100
AcDbEntity
  8
Shape2DView008
100
AcDbEllipse
 10
216.089793333
 20
231.065041255
 30
0.000000000
 11
0.192886667
 21
0.000000000
 31
0.000000000
 40
0.939692621
 41
-1.570796327
 42
-0.523598776
  0
ELLIPSE
  5
C97
330
A02
100
AcDbEntity
  8
Shape2DView008
100
AcDbEllipse
 10
225.710206667
 20
231.065041255
 30
0.000000000
 11
0.192886667
 21
0.000000000
 31
0.000000000
 40
0.939692621
 41
-2.617993878
 42
-1.570796327
  0
ELLIPSE
  5
C98
330
A02
100
AcDbEntity
  8
Shape2DView008
100
AcDbEllipse
 10
225.710206667
 20
231.065041255
 30
0.000000000
 11
0.192886667
 21
0.000000000
 31
0.000000000
 40
0.939692621
 41
-1.570796327
 42
-1.047197551
  0
ELLIPSE
  5
C99
330
A02
100
AcDbEntity
  8
Shape2DView008
100
AcDbEllipse
 10
216.089793333
 20
231.065041255
 30
0.000000000
 11
0.192886667
 21
0.000000000
 31
0.000000000
 40
0.939692621
 41
-2.094395102
 42
-1.570796327
  0
LINE
  5
C9A
330
A02
100
AcDbEntity
  8
Shape2DView009
100
AcDbLine
 10
123.000000000
 20
129.200000000
 30
0.000000000
 11
123.000000000
 21
179.400000000
 31
0.000000000
  0
ARC
  5
C9B
330
A02
100
AcDbEntity
  8
Shape2DView009
100
AcDbCircle
 10
120.500000000
 20
129.200000000
 30
0.000000000
 40
2.500000000
100
AcDbArc
 50
-90.000000000
 51
0.000000000
  0
ARC
  5
C9C
330
A02
100
AcDbEntity
  8
Shape2DView009
100
AcDbCircle
 10
120.500000000
 20
179.400000000
 30
0.000000000
 40
2.500000000
100
AcDbArc
 50
0.000000000
 51
90.000000000
  0
LINE
  5
C9D
330
A02
100
AcDbEntity
  8
Shape2DView009
100
AcDbLine
 10
110.809824899
 20
126.700000000
 30
0.000000000
 11
120.500000000
 21
126.700000000
 31
0.000000000
  0
LINE
  5
C9E
330
A02
100
AcDbEntity
  8
Shape2DView009
100
AcDbLine
 10
120.500000000
 20
181.900000000
 30
0.000000000
 11
15.300000000
 21
181.900000000
 31
0.000000000
  0
ARC
  5
C9F
330
A02
100
AcDbEntity
  8
Shape2DView009
100
AcDbCircle
 10
110.809824899
 20
129.200000000
 30
0.000000000
 40
2.500000000
100
AcDbArc
 50
-160.000000000
 51
-90.000000000
  0
ARC
  5
CA0
330
A02
100
AcDbEntity
  8
Shape2DView009
100
AcDbCircle
 10
15.300000000
 20
179.400000000
 30
0.000000000
 40
2.500000000
100
AcDbArc
 50
90.000000000
 51
180.000000000
  0
LINE
  5
CA1
330
A02
100
AcDbEntity
  8
Shape2DView009
100
AcDbLine
 10
105.234069360
 20
137.209751441
 30
0.000000000
 11
108.460593347
 21
128.344949642
 31
0.000000000
  0
LINE
  5
CA2
330
A02
100
AcDbEntity
  8
Shape2DView009
100
AcDbLine
 10
12.800000000
 20
179.400000000
 30
0.000000000
 11
12.800000000
 21
94.200000000
 31
0.000000000
  0
ARC
  5
CA3
330
A02
100
AcDbEntity
  8
Shape2DView009
100
AcDbCircle
 10
102.884837808
 20
136.354701082
 30
0.000000000
 40
2.500000000
100
AcDbArc
 50
20.000000000
 51
110.000000000
  0
ARC
  5
CA4
330
A02
100
AcDbEntity
  8
Shape2DView009
100
AcDbCircle
 10
15.300000000
 20
94.200000000
 30
0.000000000
 40
2.500000000
100
AcDbArc
 50
180.000000000
 51
-90.000000000
  0
LINE
  5
CA5
330
A02
100
AcDbEntity
  8
Shape2DView009
100
AcDbLine
 10
64.644949642
 20
125.096964460
 30
0.000000000
 11
102.029787449
 21
138.703932634
 31
0.000000000
  0
LINE
  5
CA6
330
A02
100
AcDbEntity
  8
Shape2DView009
100
AcDbLine
 10
15.300000000
 20
91.700000000
 30
0.000000000
 11
60.500000000
 21
91.700000000
 31
0.000000000
  0
ARC
  5
CA7
330
A02
100
AcDbEntity
  8
Shape2DView009
100
AcDbCircle
 10
65.500000000
 20
122.747732908
 30
0.000000000
 40
2.500000000
100
AcDbArc
 50
110.000000000
 51
180.000000000
  0
ARC
  5
CA8
330
A02
100
AcDbEntity
  8
Shape2DView009
100
AcDbCircle
 10
60.500000000
 20
94.200000000
 30
0.000000000
 40
2.500000000
100
AcDbArc
 50
-90.000000000
 51
0.000000000
  0
LINE
  5
CA9
330
A02
100
AcDbEntity
  8
Shape2DView009
100
AcDbLine
 10
63.000000000
 20
94.200000000
 30
0.000000000
 11
63.000000000
 21
122.747732908
 31
0.000000000
  0
ARC
  5
CAA
330
A02
100
AcDbEntity
  8
Shape2DView009
100
AcDbCircle
 10
118.250000000
 20
132.133012702
 30
0.000000000
 40
0.250000000
100
AcDbArc
 50
180.000000000
 51
-120.000000000
  0
ARC
  5
CAB
330
A02
100
AcDbEntity
  8
Shape2DView009
100
AcDbCircle
 10
118.000000000
 20
131.700000000
 30
0.000000000
 40
0.250000000
100
AcDbArc
 50
-150.000000000
 51
60.000000000
  0
ARC
  5
CAC
330
A02
100
AcDbEntity
  8
Shape2DView009
100
AcDbCircle
 10
117.566987298
 20
131.450000000
 30
0.000000000
 40
0.250000000
100
AcDbArc
 50
30.000000000
 51
90.000000000
  0
LINE
  5
CAD
330
A02
100
AcDbEntity
  8
Shape2DView009
100
AcDbLine
 10
112.993356447
 20
131.700000000
 30
0.000000000
 11
117.566987298
 21
131.700000000
 31
0.000000000
  0
ARC
  5
CAE
330
A02
100
AcDbEntity
  8
Shape2DView009
100
AcDbCircle
 10
112.993356447
 20
131.450000000
 30
0.000000000
 40
0.250000000
100
AcDbArc
 50
90.000000000
 51
150.000000000
  0
ARC
  5
CAF
330
A02
100
AcDbEntity
  8
Shape2DView009
100
AcDbCircle
 10
112.560343745
 20
131.700000000
 30
0.000000000
 40
0.250000000
100
AcDbArc
 50
140.000000000
 51
-30.000000000
  0
ARC
  5
CB0
330
A02
100
AcDbEntity
  8
Shape2DView009
100
AcDbCircle
 10
112.177321523
 20
132.021393805
 30
0.000000000
 40
0.250000000
100
AcDbArc
 50
-40.000000000
 51
20.000000000
  0
LINE
  5
CB1
330
A02
100
AcDbEntity
  8
Shape2DView009
100
AcDbLine
 10
107.709401532
 20
145.027854193
 30
0.000000000
 11
112.412244678
 21
132.106898841
 31
0.000000000
  0
ARC
  5
CB2
330
A02
100
AcDbEntity
  8
Shape2DView009
100
AcDbCircle
 10
106.769708911
 20
144.685834049
 30
0.000000000
 40
1.000000000
100
AcDbArc
 50
20.000000000
 51
110.000000000
  0
LINE
  5
CB3
330
A02
100
AcDbEntity
  8
Shape2DView009
100
AcDbLine
 10
58.657979857
 20
128.238774527
 30
0.000000000
 11
106.427688768
 21
145.625526670
 31
0.000000000
  0
ARC
  5
CB4
330
A02
100
AcDbEntity
  8
Shape2DView009
100
AcDbCircle
 10
59.000000000
 20
127.299081906
 30
0.000000000
 40
1.000000000
100
AcDbArc
 50
110.000000000
 51
180.000000000
  0
LINE
  5
CB5
330
A02
100
AcDbEntity
  8
Shape2DView009
100
AcDbLine
 10
58.000000000
 20
97.133012702
 30
0.000000000
 11
58.000000000
 21
127.299081906
 31
0.000000000
  0
ARC
  5
CB6
330
A02
100
AcDbEntity
  8
Shape2DView009
100
AcDbCircle
 10
58.250000000
 20
97.133012702
 30
0.000000000
 40
0.250000000
100
AcDbArc
 50
180.000000000
 51
-120.000000000
  0
ARC
  5
CB7
330
A02
100
AcDbEntity
  8
Shape2DView009
100
AcDbCircle
 10
58.000000000
 20
96.700000000
 30
0.000000000
 40
0.250000000
100
AcDbArc
 50
-150.000000000
 51
60.000000000
  0
ARC
  5
CB8
330
A02
100
AcDbEntity
  8
Shape2DView009
100
AcDbCircle
 10
57.566987298
 20
96.450000000
 30
0.000000000
 40
0.250000000
100
AcDbArc
 50
30.000000000
 51
90.000000000
  0
LINE
  5
CB9
330
A02
100
AcDbEntity
  8
Shape2DView009
100
AcDbLine
 10
18.233012702
 20
96.700000000
 30
0.000000000
 11
57.566987298
 21
96.700000000
 31
0.000000000
  0
ARC
  5
CBA
330
A02
100
AcDbEntity
  8
Shape2DView009
100
AcDbCircle
 10
18.233012702
 20
96.450000000
 30
0.000000000
 40
0.250000000
100
AcDbArc
 50
90.000000000
 51
150.000000000
  0
ARC
  5
CBB
330
A02
100
AcDbEntity
  8
Shape2DView009
100
AcDbCircle
 10
17.800000000
 20
96.700000000
 30
0.000000000
 40
0.250000000
100
AcDbArc
 50
120.000000000
 51
-30.000000000
  0
ARC
  5
CBC
330
A02
100
AcDbEntity
  8
Shape2DView009
100
AcDbCircle
 10
17.550000000
 20
97.133012702
 30
0.000000000
 40
0.250000000
100
AcDbArc
 50
-60.000000000
 51
0.000000000
  0
LINE
  5
CBD
330
A02
100
AcDbEntity
  8
Shape2DView009
100
AcDbLine
 10
17.800000000
 20
176.466987298
 30
0.000000000
 11
17.800000000
 21
97.133012702
 31
0.000000000
  0
ARC
  5
CBE
330
A02
100
AcDbEntity
  8
Shape2DView009
100
AcDbCircle
 10
17.550000000
 20
176.466987298
 30
0.000000000
 40
0.250000000
100
AcDbArc
 50
0.000000000
 51
60.000000000
  0
ARC
  5
CBF
330
A02
100
AcDbEntity
  8
Shape2DView009
100
AcDbCircle
 10
17.800000000
 20
176.900000000
 30
0.000000000
 40
0.250000000
100
AcDbArc
 50
30.000000000
 51
-120.000000000
  0
ARC
  5
CC0
330
A02
100
AcDbEntity
  8
Shape2DView009
100
AcDbCircle
 10
18.233012702
 20
177.150000000
 30
0.000000000
 40
0.250000000
100
AcDbArc
 50
-150.000000000
 51
-90.000000000
  0
LINE
  5
CC1
330
A02
100
AcDbEntity
  8
Shape2DView009
100
AcDbLine
 10
117.566987298
 20
176.900000000
 30
0.000000000
 11
18.233012702
 21
176.900000000
 31
0.000000000
  0
ARC
  5
CC2
330
A02
100
AcDbEntity
  8
Shape2DView009
100
AcDbCircle
 10
117.566987298
 20
177.150000000
 30
0.000000000
 40
0.250000000
100
AcDbArc
 50
-90.000000000
 51
-30.000000000
  0
ARC
  5
CC3
330
A02
100
AcDbEntity
  8
Shape2DView009
100
AcDbCircle
 10
118.000000000
 20
176.900000000
 30
0.000000000
 40
0.250000000
100
AcDbArc
 50
-60.000000000
 51
150.000000000
  0
ARC
  5
CC4
330
A02
100
AcDbEntity
  8
Shape2DView009
100
AcDbCircle
 10
118.250000000
 20
176.466987298
 30
0.000000000
 40
0.250000000
100
AcDbArc
 50
120.000000000
 51
180.000000000
  0
LINE
  5
CC5
330
A02
100
AcDbEntity
  8
Shape2DView009
100
AcDbLine
 10
118.000000000
 20
132.133012702
 30
0.000000000
 11
118.000000000
 21
176.466987298
 31
0.000000000
  0
LINE
  5
CC6
330
A02
100
AcDbEntity
  8
Shape2DView010
100
AcDbLine
 10
130.000000000
 20
129.200000000
 30
0.000000000
 11
130.000000000
 21
179.400000000
 31
0.000000000
  0
ARC
  5
CC7
330
A02
100
AcDbEntity
  8
Shape2DView010
100
AcDbCircle
 10
132.500000000
 20
129.200000000
 30
0.000000000
 40
2.500000000
100
AcDbArc
 50
180.000000000
 51
-90.000000000
  0
ARC
  5
CC8
330
A02
100
AcDbEntity
  8
Shape2DView010
100
AcDbCircle
 10
132.500000000
 20
179.400000000
 30
0.000000000
 40
2.500000000
100
AcDbArc
 50
90.000000000
 51
180.000000000
  0
LINE
  5
CC9
330
A02
100
AcDbEntity
  8
Shape2DView010
100
AcDbLine
 10
142.190175101
 20
126.700000000
 30
0.000000000
 11
132.500000000
 21
126.700000000
 31
0.000000000
  0
LINE
  5
CCA
330
A02
100
AcDbEntity
  8
Shape2DView010
100
AcDbLine
 10
132.500000000
 20
181.900000000
 30
0.000000000
 11
237.700000000
 21
181.900000000
 31
0.000000000
  0
ARC
  5
CCB
330
A02
100
AcDbEntity
  8
Shape2DView010
100
AcDbCircle
 10
142.190175101
 20
129.200000000
 30
0.000000000
 40
2.500000000
100
AcDbArc
 50
-90.000000000
 51
-20.000000000
  0
ARC
  5
CCC
330
A02
100
AcDbEntity
  8
Shape2DView010
100
AcDbCircle
 10
237.700000000
 20
179.400000000
 30
0.000000000
 40
2.500000000
100
AcDbArc
 50
0.000000000
 51
90.000000000
  0
LINE
  5
CCD
330
A02
100
AcDbEntity
  8
Shape2DView010
100
AcDbLine
 10
147.765930640
 20
137.209751441
 30
0.000000000
 11
144.539406653
 21
128.344949642
 31
0.000000000
  0
LINE
  5
CCE
330
A02
100
AcDbEntity
  8
Shape2DView010
100
AcDbLine
 10
240.200000000
 20
179.400000000
 30
0.000000000
 11
240.200000000
 21
94.200000000
 31
0.000000000
  0
ARC
  5
CCF
330
A02
100
AcDbEntity
  8
Shape2DView010
100
AcDbCircle
 10
150.115162192
 20
136.354701082
 30
0.000000000
 40
2.500000000
100
AcDbArc
 50
70.000000000
 51
160.000000000
  0
ARC
  5
CD0
330
A02
100
AcDbEntity
  8
Shape2DView010
100
AcDbCircle
 10
237.700000000
 20
94.200000000
 30
0.000000000
 40
2.500000000
100
AcDbArc
 50
-90.000000000
 51
0.000000000
  0
LINE
  5
CD1
330
A02
100
AcDbEntity
  8
Shape2DView010
100
AcDbLine
 10
188.355050358
 20
125.096964460
 30
0.000000000
 11
150.970212551
 21
138.703932634
 31
0.000000000
  0
LINE
  5
CD2
330
A02
100
AcDbEntity
  8
Shape2DView010
100
AcDbLine
 10
237.700000000
 20
91.700000000
 30
0.000000000
 11
192.500000000
 21
91.700000000
 31
0.000000000
  0
ARC
  5
CD3
330
A02
100
AcDbEntity
  8
Shape2DView010
100
AcDbCircle
 10
187.500000000
 20
122.747732908
 30
0.000000000
 40
2.500000000
100
AcDbArc
 50
0.000000000
 51
70.000000000
  0
ARC
  5
CD4
330
A02
100
AcDbEntity
  8
Shape2DView010
100
AcDbCircle
 10
192.500000000
 20
94.200000000
 30
0.000000000
 40
2.500000000
100
AcDbArc
 50
180.000000000
 51
-90.000000000
  0
LINE
  5
CD5
330
A02
100
AcDbEntity
  8
Shape2DView010
100
AcDbLine
 10
190.000000000
 20
94.200000000
 30
0.000000000
 11
190.000000000
 21
122.747732908
 31
0.000000000
  0
ARC
  5
CD6
330
A02
100
AcDbEntity
  8
Shape2DView010
100
AcDbCircle
 10
134.750000000
 20
132.133012702
 30
0.000000000
 40
0.250000000
100
AcDbArc
 50
-60.000000000
 51
0.000000000
  0
ARC
  5
CD7
330
A02
100
AcDbEntity
  8
Shape2DView010
100
AcDbCircle
 10
135.000000000
 20
131.700000000
 30
0.000000000
 40
0.250000000
100
AcDbArc
 50
120.000000000
 51
-30.000000000
  0
ARC
  5
CD8
330
A02
100
AcDbEntity
  8
Shape2DView010
100
AcDbCircle
 10
135.433012702
 20
131.450000000
 30
0.000000000
 40
0.250000000
100
AcDbArc
 50
90.000000000
 51
150.000000000
  0
LINE
  5
CD9
330
A02
100
AcDbEntity
  8
Shape2DView010
100
AcDbLine
 10
140.006643553
 20
131.700000000
 30
0.000000000
 11
135.433012702
 21
131.700000000
 31
0.000000000
  0
ARC
  5
CDA
330
A02
100
AcDbEntity
  8
Shape2DView010
100
AcDbCircle
 10
140.006643553
 20
131.450000000
 30
0.000000000
 40
0.250000000
100
AcDbArc
 50
30.000000000
 51
90.000000000
  0
ARC
  5
CDB
330
A02
100
AcDbEntity
  8
Shape2DView010
100
AcDbCircle
 10
140.439656255
 20
131.700000000
 30
0.000000000
 40
0.250000000
100
AcDbArc
 50
-150.000000000
 51
40.000000000
  0
ARC
  5
CDC
330
A02
100
AcDbEntity
  8
Shape2DView010
100
AcDbCircle
 10
140.822678477
 20
132.021393805
 30
0.000000000
 40
0.250000000
100
AcDbArc
 50
160.000000000
 51
-140.000000000
  0
LINE
  5
CDD
330
A02
100
AcDbEntity
  8
Shape2DView010
100
AcDbLine
 10
145.290598468
 20
145.027854193
 30
0.000000000
 11
140.587755322
 21
132.106898841
 31
0.000000000
  0
ARC
  5
CDE
330
A02
100
AcDbEntity
  8
Shape2DView010
100
AcDbCircle
 10
146.230291089
 20
144.685834049
 30
0.000000000
 40
1.000000000
100
AcDbArc
 50
70.000000000
 51
160.000000000
  0
LINE
  5
CDF
330
A02
100
AcDbEntity
  8
Shape2DView010
100
AcDbLine
 10
194.342020143
 20
128.238774527
 30
0.000000000
 11
146.572311232
 21
145.625526670
 31
0.000000000
  0
ARC
  5
CE0
330
A02
100
AcDbEntity
  8
Shape2DView010
100
AcDbCircle
 10
194.000000000
 20
127.299081906
 30
0.000000000
 40
1.000000000
100
AcDbArc
 50
0.000000000
 51
70.000000000
  0
LINE
  5
CE1
330
A02
100
AcDbEntity
  8
Shape2DView010
100
AcDbLine
 10
195.000000000
 20
97.133012702
 30
0.000000000
 11
195.000000000
 21
127.299081906
 31
0.000000000
  0
ARC
  5
CE2
330
A02
100
AcDbEntity
  8
Shape2DView010
100
AcDbCircle
 10
194.750000000
 20
97.133012702
 30
0.000000000
 40
0.250000000
100
AcDbArc
 50
-60.000000000
 51
0.000000000
  0
ARC
  5
CE3
330
A02
100
AcDbEntity
  8
Shape2DView010
100
AcDbCircle
 10
195.000000000
 20
96.700000000
 30
0.000000000
 40
0.250000000
100
AcDbArc
 50
120.000000000
 51
-30.000000000
  0
ARC
  5
CE4
330
A02
100
AcDbEntity
  8
Shape2DView010
100
AcDbCircle
 10
195.433012702
 20
96.450000000
 30
0.000000000
 40
0.250000000
100
AcDbArc
 50
90.000000000
 51
150.000000000
  0
LINE
  5
CE5
330
A02
100
AcDbEntity
  8
Shape2DView010
100
AcDbLine
 10
234.766987298
 20
96.700000000
 30
0.000000000
 11
195.433012702
 21
96.700000000
 31
0.000000000
  0
ARC
  5
CE6
330
A02
100
AcDbEntity
  8
Shape2DView010
100
AcDbCircle
 10
234.766987298
 20
96.450000000
 30
0.000000000
 40
0.250000000
100
AcDbArc
 50
30.000000000
 51
90.000000000
  0
ARC
  5
CE7
330
A02
100
AcDbEntity
  8
Shape2DView010
100
AcDbCircle
 10
235.200000000
 20
96.700000000
 30
0.000000000
 40
0.250000000
100
AcDbArc
 50
-150.000000000
 51
60.000000000
  0
ARC
  5
CE8
330
A02
100
AcDbEntity
  8
Shape2DView010
100
AcDbCircle
 10
235.450000000
 20
97.133012702
 30
0.000000000
 40
0.250000000
100
AcDbArc
 50
180.000000000
 51
-120.000000000
  0
LINE
  5
CE9
330
A02
100
AcDbEntity
  8
Shape2DView010
100
AcDbLine
 10
235.200000000
 20
176.466987298
 30
0.000000000
 11
235.200000000
 21
97.133012702
 31
0.000000000
  0
ARC
  5
CEA
330
A02
100
AcDbEntity
  8
Shape2DView010
100
AcDbCircle
 10
235.450000000
 20
176.466987298
 30
0.000000000
 40
0.250000000
100
AcDbArc
 50
120.000000000
 51
180.000000000
  0
ARC
  5
CEB
330
A02
100
AcDbEntity
  8
Shape2DView010
100
AcDbCircle
 10
235.200000000
 20
176.900000000
 30
0.000000000
 40
0.250000000
100
AcDbArc
 50
-60.000000000
 51
150.000000000
  0
ARC
  5
CEC
330
A02
100
AcDbEntity
  8
Shape2DView010
100
AcDbCircle
 10
234.766987298
 20
177.150000000
 30
0.000000000
 40
0.250000000
100
AcDbArc
 50
-90.000000000
 51
-30.000000000
  0
LINE
  5
CED
330
A02
100
AcDbEntity
  8
Shape2DView010
100
AcDbLine
 10
135.433012702
 20
176.900000000
 30
0.000000000
 11
234.766987298
 21
176.900000000
 31
0.000000000
  0
ARC
  5
CEE
330
A02
100
AcDbEntity
  8
Shape2DView010
100
AcDbCircle
 10
135.433012702
 20
177.150000000
 30
0.000000000
 40
0.250000000
100
AcDbArc
 50
-150.000000000
 51
-90.000000000
  0
ARC
  5
CEF
330
A02
100
AcDbEntity
  8
Shape2DView010
100
AcDbCircle
 10
135.000000000
 20
176.900000000
 30
0.000000000
 40
0.250000000
100
AcDbArc
 50
30.000000000
 51
-120.000000000
  0
ARC
  5
CF0
330
A02
100
AcDbEntity
  8
Shape2DView010
100
AcDbCircle
 10
134.750000000
 20
176.466987298
 30
0.000000000
 40
0.250000000
100
AcDbArc
 50
0.000000000
 51
60.000000000
  0
LINE
  5
CF1
330
A02
100
AcDbEntity
  8
Shape2DView010
100
AcDbLine
 10
135.000000000
 20
132.133012702
 30
0.000000000
 11
135.000000000
 21
176.466987298
 31
0.000000000
  0
ENDSEC
  0
SECTION
  2
OBJECTS
  0
DICTIONARY
  5
F000
330
0
100
AcDbDictionary
  3
ACAD_GROUP
350
F001
  0
DICTIONARY
  5
F001
330
F000
100
AcDbDictionary
  0
ENDSEC
  0
EOF