999
dxfrw 0.6.3
  0
SECTION
  2
HEADER
  9
$ACADVER
  1
AC1021
  9
$DWGCODEPAGE
  3
ANSI_1252
  9
$INSBASE
 10
0
 20
0
 30
0
  9
$EXTMIN
 10
-8.881784197001252e-16
 20
1.877537996853206
 30
0
  9
$EXTMAX
 10
248.5100465153425
 20
201.4391615868691
 30
0
  9
$LIMMIN
 10
0
 20
0
  9
$LIMMAX
 10
420
 20
297
  9
$ORTHOMODE
 70
    0
  9
$REGENMODE
 70
    1
  9
$FILLMODE
 70
    1
  9
$QTEXTMODE
 70
    0
  9
$MIRRTEXT
 70
    0
  9
$LTSCALE
 40
1
  9
$ATTMODE
 70
    0
  9
$TEXTSIZE
 40
2.5
  9
$TRACEWID
 40
15.68
  9
$TEXTSTYLE
  7
STANDARD
  9
$CLAYER
  8
0
  9
$CELTYPE
  6
BYLAYER
  9
$CECOLOR
 62
  256
  9
$CELTSCALE
 40
1
  9
$DISPSILH
 70
    0
  9
$DIMSCALE
 40
2.5
  9
$DIMASZ
 40
2.5
  9
$DIMEXO
 40
0.625
  9
$DIMDLI
 40
3.75
  9
$DIMRND
 40
0
  9
$DIMDLE
 40
0
  9
$DIMEXE
 40
1.25
  9
$DIMTP
 40
0
  9
$DIMTM
 40
0
  9
$DIMTXT
 40
2.5
  9
$DIMCEN
 40
2.5
  9
$DIMTSZ
 40
0
  9
$DIMTOL
 70
    0
  9
$DIMLIM
 70
    0
  9
$DIMTIH
 70
    0
  9
$DIMTOH
 70
    0
  9
$DIMSE1
 70
    0
  9
$DIMSE2
 70
    0
  9
$DIMTAD
 70
    1
  9
$DIMZIN
 70
    8
  9
$DIMBLK
  1

  9
$DIMASO
 70
    1
  9
$DIMSHO
 70
    1
  9
$DIMPOST
  1

  9
$DIMAPOST
  1

  9
$DIMALT
 70
    0
  9
$DIMALTD
 70
    3
  9
$DIMALTF
 40
0.03937
  9
$DIMLFAC
 40
1
  9
$DIMTOFL
 70
    1
  9
$DIMTVP
 40
0
  9
$DIMTIX
 70
    0
  9
$DIMSOXD
 70
    0
  9
$DIMSAH
 70
    0
  9
$DIMBLK1
  1

  9
$DIMBLK2
  1

  9
$DIMSTYLE
  2
STANDARD
  9
$DIMCLRD
 70
    0
  9
$DIMCLRE
 70
    0
  9
$DIMCLRT
 70
    0
  9
$DIMTFAC
 40
1
  9
$DIMGAP
 40
0.625
  9
$DIMJUST
 70
    0
  9
$DIMSD1
 70
    0
  9
$DIMSD2
 70
    0
  9
$DIMTOLJ
 70
    0
  9
$DIMTZIN
 70
    8
  9
$DIMALTZ
 70
    0
  9
$DIMALTTZ
 70
    0
  9
$DIMUPT
 70
    0
  9
$DIMDEC
 70
    2
  9
$DIMTDEC
 70
    2
  9
$DIMALTU
 70
    2
  9
$DIMALTTD
 70
    3
  9
$DIMTXSTY
  7
STANDARD
  9
$DIMAUNIT
 70
    0
  9
$DIMADEC
 70
    0
  9
$DIMALTRND
 40
0
  9
$DIMAZIN
 70
    0
  9
$DIMDSEP
 70
   44
  9
$DIMATFIT
 70
    3
  9
$DIMFRAC
 70
    0
  9
$DIMLDRBLK
  1
STANDARD
  9
$DIMLUNIT
 70
    2
  9
$DIMLWD
 70
   -2
  9
$DIMLWE
 70
   -2
  9
$DIMTMOVE
 70
    0
  9
$DIMFXL
 40
1
  9
$DIMFXLON
 70
    0
  9
$DIMJOGANG
 40
0.7854
  9
$DIMTFILL
 70
    0
  9
$DIMTFILLCLR
 70
    0
  9
$DIMARCSYM
 70
    0
  9
$DIMLTYPE
  6

  9
$DIMLTEX1
  6

  9
$DIMLTEX2
  6

  9
$LUNITS
 70
    2
  9
$LUPREC
 70
    4
  9
$SKETCHINC
 40
1
  9
$FILLETRAD
 40
0
  9
$AUNITS
 70
    0
  9
$AUPREC
 70
    2
  9
$MENU
  1
.
  9
$ELEVATION
 40
0
  9
$PELEVATION
 40
0
  9
$THICKNESS
 40
0
  9
$LIMCHECK
 70
    0
  9
$CHAMFERA
 40
0
  9
$CHAMFERB
 40
0
  9
$CHAMFERC
 40
0
  9
$CHAMFERD
 40
0
  9
$SKPOLY
 70
    0
  9
$USRTIMER
 70
    1
  9
$ANGBASE
 50
0
  9
$ANGDIR
 70
    0
  9
$PDMODE
 70
   34
  9
$PDSIZE
 40
0
  9
$PLINEWID
 40
0
  9
$SPLFRAME
 70
    0
  9
$SPLINETYPE
 70
    2
  9
$SPLINESEGS
 70
    8
  9
$HANDSEED
  5
20000
  9
$SURFTAB1
 70
    6
  9
$SURFTAB2
 70
    6
  9
$SURFTYPE
 70
    6
  9
$SURFU
 70
    6
  9
$SURFV
 70
    6
  9
$UCSBASE
  2

  9
$UCSNAME
  2

  9
$UCSORG
 10
0
 20
0
 30
0
  9
$UCSXDIR
 10
1
 20
0
 30
0
  9
$UCSYDIR
 10
0
 20
1
 30
0
  9
$UCSORTHOREF
  2

  9
$UCSORTHOVIEW
 70
    0
  9
$UCSORGTOP
 10
0
 20
0
 30
0
  9
$UCSORGBOTTOM
 10
0
 20
0
 30
0
  9
$UCSORGLEFT
 10
0
 20
0
 30
0
  9
$UCSORGRIGHT
 10
0
 20
0
 30
0
  9
$UCSORGFRONT
 10
0
 20
0
 30
0
  9
$UCSORGBACK
 10
0
 20
0
 30
0
  9
$PUCSBASE
  2

  9
$PUCSNAME
  2

  9
$PUCSORG
 10
0
 20
0
 30
0
  9
$PUCSXDIR
 10
1
 20
0
 30
0
  9
$PUCSYDIR
 10
0
 20
1
 30
0
  9
$PUCSORTHOREF
  2

  9
$PUCSORTHOVIEW
 70
    0
  9
$PUCSORGTOP
 10
0
 20
0
 30
0
  9
$PUCSORGBOTTOM
 10
0
 20
0
 30
0
  9
$PUCSORGLEFT
 10
0
 20
0
 30
0
  9
$PUCSORGRIGHT
 10
0
 20
0
 30
0
  9
$PUCSORGFRONT
 10
0
 20
0
 30
0
  9
$PUCSORGBACK
 10
0
 20
0
 30
0
  9
$USERI1
 70
    0
  9
$USERI2
 70
    0
  9
$USERI3
 70
    0
  9
$USERI4
 70
    0
  9
$USERI5
 70
    0
  9
$USERR1
 40
0
  9
$USERR2
 40
0
  9
$USERR3
 40
0
  9
$USERR4
 40
0
  9
$USERR5
 40
0
  9
$WORLDVIEW
 70
    1
  9
$SHADEDGE
 70
    3
  9
$SHADEDIF
 70
   70
  9
$TILEMODE
 70
    1
  9
$MAXACTVP
 70
   64
  9
$PINSBASE
 10
0
 20
0
 30
0
  9
$PLIMCHECK
 70
    0
  9
$PEXTMIN
 10
0
 20
0
 30
0
  9
$PEXTMAX
 10
50
 20
50
 30
50
  9
$GRIDMODE
 70
    0
  9
$SNAPSTYLE
 70
    0
  9
$PLIMMIN
 10
0
 20
0
  9
$PLIMMAX
 10
210
 20
297
  9
$UNITMODE
 70
    0
  9
$VISRETAIN
 70
    1
  9
$PLINEGEN
 70
    0
  9
$PSLTSCALE
 70
    1
  9
$TREEDEPTH
 70
 3020
  9
$CMLSTYLE
  2
STANDARD
  9
$CMLJUST
 70
    0
  9
$CMLSCALE
 40
20
  9
$PROXYGRAPHICS
 70
    1
  9
$MEASUREMENT
 70
    1
  9
$CELWEIGHT
370
   -1
  9
$ENDCAPS
280
    0
  9
$JOINSTYLE
280
    0
  9
$LWDISPLAY
290
    0
  9
$INSUNITS
 70
    4
  9
$HYPERLINKBASE
  1

  9
$STYLESHEET
  1

  9
$XEDIT
290
    1
  9
$CEPSNTYPE
380
    0
  9
$PSTYLEMODE
290
    1
  9
$EXTNAMES
290
    1
  9
$PSVPSCALE
 40
1
  9
$OLESTARTUP
290
    0
  9
$SORTENTS
280
  127
  9
$INDEXCTL
280
    0
  9
$HIDETEXT
280
    1
  9
$XCLIPFRAME
290
    0
  9
$HALOGAP
280
    0
  9
$OBSCOLOR
 70
  257
  9
$OBSLTYPE
280
    0
  9
$INTERSECTIONDISPLAY
280
    0
  9
$INTERSECTIONCOLOR
 70
  257
  9
$DIMASSOC
280
    1
  9
$PROJECTNAME
  1

  9
$CAMERADISPLAY
290
    0
  9
$LENSLENGTH
 40
50
  9
$CAMERAHEIGHT
 40
0
  9
$STEPSPERSEC
 40
2
  9
$STEPSIZE
 40
50
  9
$3DDWFPREC
 40
2
  9
$PSOLWIDTH
 40
5
  9
$PSOLHEIGHT
 40
80
  9
$LOFTANG1
 40
1.570796326794897
  9
$LOFTANG2
 40
1.570796326794897
  9
$LOFTMAG1
 40
0
  9
$LOFTMAG2
 40
0
  9
$LOFTPARAM
 70
    7
  9
$LOFTNORMALS
280
    1
  9
$LATITUDE
 40
1
  9
$LONGITUDE
 40
1
  9
$NORTHDIRECTION
 40
0
  9
$TIMEZONE
 70
-8000
  9
$LIGHTGLYPHDISPLAY
280
    1
  9
$TILEMODELIGHTSYNCH
280
    1
  9
$SOLIDHIST
280
    1
  9
$SHOWHIST
280
    1
  9
$DWFFRAME
280
    2
  9
$DGNFRAME
280
    0
  9
$REALWORLDSCALE
290
    1
  9
$INTERFERECOLOR
 62
    1
  9
$CSHADOW
280
    0
  9
$SHADOWPLANELOCATION
 40
0
  0
ENDSEC
  0
SECTION
  2
CLASSES
  0
ENDSEC
  0
SECTION
  2
TABLES
  0
TABLE
  2
VPORT
  5
8
330
0
100
AcDbSymbolTable
 70
    1
  0
VPORT
  5
31
330
2
100
AcDbSymbolTableRecord
100
AcDbViewportTableRecord
  2
*ACTIVE
 70
    0
 10
0
 20
0
 11
1
 21
1
 12
193.7419359376795
 22
104.5683612257341
 13
0
 23
0
 14
10
 24
10
 15
10
 25
10
 16
0
 26
0
 36
1
 17
0
 27
0
 37
0
 40
224.5315089652568
 41
1.954721862871928
 42
50
 43
0
 44
0
 50
0
 51
0
 71
    0
 72
  100
 73
    1
 74
    3
 75
    0
 76
    0
 77
    0
 78
    0
281
    0
 65
    1
110
0
120
0
130
0
111
1
121
0
131
0
112
0
122
1
132
0
 79
    0
146
0
348
10020
 60
    7
 61
    5
292
1
282
    1
141
0
142
0
 63
  250
421
3358443
  0
ENDTAB
  0
TABLE
  2
LTYPE
  5
5
330
0
100
AcDbSymbolTable
 70
    4
  0
LTYPE
  5
14
330
5
100
AcDbSymbolTableRecord
100
AcDbLinetypeTableRecord
  2
ByBlock
 70
    0
  3

 72
   65
 73
    0
 40
0
  0
LTYPE
  5
15
330
5
100
AcDbSymbolTableRecord
100
AcDbLinetypeTableRecord
  2
ByLayer
 70
    0
  3

 72
   65
 73
    0
 40
0
  0
LTYPE
  5
16
330
5
100
AcDbSymbolTableRecord
100
AcDbLinetypeTableRecord
  2
Continuous
 70
    0
  3
Solid line
 72
   65
 73
    0
 40
0
  0
LTYPE
  5
32
330
5
100
AcDbSymbolTableRecord
100
AcDbLinetypeTableRecord
  2
DOT
 70
    0
  3
Dot . . . . . . . . . . . . . . . . . . . . . .
 72
   65
 73
    2
 40
6.35
 49
0
 74
    0
 49
-6.35
 74
    0
  0
LTYPE
  5
33
330
5
100
AcDbSymbolTableRecord
100
AcDbLinetypeTableRecord
  2
DOTTINY
 70
    0
  3
Dot (.15x) .....................................
 72
   65
 73
    2
 40
0.9525
 49
0
 74
    0
 49
-0.9525
 74
    0
  0
LTYPE
  5
34
330
5
100
AcDbSymbolTableRecord
100
AcDbLinetypeTableRecord
  2
DOT2
 70
    0
  3
Dot (.5x) .....................................
 72
   65
 73
    2
 40
3.175
 49
0
 74
    0
 49
-3.175
 74
    0
  0
LTYPE
  5
35
330
5
100
AcDbSymbolTableRecord
100
AcDbLinetypeTableRecord
  2
DOTX2
 70
    0
  3
Dot (2x) .  .  .  .  .  .  .  .  .  .  .  .  .
 72
   65
 73
    2
 40
12.7
 49
0
 74
    0
 49
-12.7
 74
    0
  0
LTYPE
  5
36
330
5
100
AcDbSymbolTableRecord
100
AcDbLinetypeTableRecord
  2
DASHED
 70
    0
  3
Dashed _ _ _ _ _ _ _ _ _ _ _ _ _ _ _ _ _
 72
   65
 73
    2
 40
19.05
 49
12.7
 74
    0
 49
-6.35
 74
    0
  0
LTYPE
  5
37
330
5
100
AcDbSymbolTableRecord
100
AcDbLinetypeTableRecord
  2
DASHEDTINY
 70
    0
  3
Dashed (.15x) _ _ _ _ _ _ _ _ _ _ _ _ _ _ _ _ _
 72
   65
 73
    2
 40
2.8575
 49
1.905
 74
    0
 49
-0.9525
 74
    0
  0
LTYPE
  5
38
330
5
100
AcDbSymbolTableRecord
100
AcDbLinetypeTableRecord
  2
DASHED2
 70
    0
  3
Dashed (.5x) _ _ _ _ _ _ _ _ _ _ _ _ _ _ _ _ _
 72
   65
 73
    2
 40
9.524999999999999
 49
6.35
 74
    0
 49
-3.175
 74
    0
  0
LTYPE
  5
39
330
5
100
AcDbSymbolTableRecord
100
AcDbLinetypeTableRecord
  2
DASHEDX2
 70
    0
  3
Dashed (2x) ____  ____  ____  ____  ____  ___
 72
   65
 73
    2
 40
38.09999999999999
 49
25.4
 74
    0
 49
-12.7
 74
    0
  0
LTYPE
  5
3A
330
5
100
AcDbSymbolTableRecord
100
AcDbLinetypeTableRecord
  2
DASHDOT
 70
    0
  3
Dash dot __ . __ . __ . __ . __ . __ . __ . __
 72
   65
 73
    4
 40
25.4
 49
12.7
 74
    0
 49
-6.35
 74
    0
 49
0
 74
    0
 49
-6.35
 74
    0
  0
LTYPE
  5
3B
330
5
100
AcDbSymbolTableRecord
100
AcDbLinetypeTableRecord
  2
DASHDOTTINY
 70
    0
  3
Dash dot (.15x) _._._._._._._._._._._._._._._.
 72
   65
 73
    4
 40
3.81
 49
1.905
 74
    0
 49
-0.9525
 74
    0
 49
0
 74
    0
 49
-0.9525
 74
    0
  0
LTYPE
  5
3C
330
5
100
AcDbSymbolTableRecord
100
AcDbLinetypeTableRecord
  2
DASHDOT2
 70
    0
  3
Dash dot (.5x) _._._._._._._._._._._._._._._.
 72
   65
 73
    4
 40
12.7
 49
6.35
 74
    0
 49
-3.175
 74
    0
 49
0
 74
    0
 49
-3.175
 74
    0
  0
LTYPE
  5
3D
330
5
100
AcDbSymbolTableRecord
100
AcDbLinetypeTableRecord
  2
DASHDOTX2
 70
    0
  3
Dash dot (2x) ____  .  ____  .  ____  .  ___
 72
   65
 73
    4
 40
50.8
 49
25.4
 74
    0
 49
-12.7
 74
    0
 49
0
 74
    0
 49
-12.7
 74
    0
  0
LTYPE
  5
3E
330
5
100
AcDbSymbolTableRecord
100
AcDbLinetypeTableRecord
  2
DIVIDE
 70
    0
  3
Divide ____ . . ____ . . ____ . . ____ . . ____
 72
   65
 73
    6
 40
31.75
 49
12.7
 74
    0
 49
-6.35
 74
    0
 49
0
 74
    0
 49
-6.35
 74
    0
 49
0
 74
    0
 49
-6.35
 74
    0
  0
LTYPE
  5
3F
330
5
100
AcDbSymbolTableRecord
100
AcDbLinetypeTableRecord
  2
DIVIDETINY
 70
    0
  3
Divide (.15x) __..__..__..__..__..__..__..__.._
 72
   65
 73
    6
 40
4.7625
 49
1.905
 74
    0
 49
-0.9525
 74
    0
 49
0
 74
    0
 49
-0.9525
 74
    0
 49
0
 74
    0
 49
-0.9525
 74
    0
  0
LTYPE
  5
40
330
5
100
AcDbSymbolTableRecord
100
AcDbLinetypeTableRecord
  2
DIVIDE2
 70
    0
  3
Divide (.5x) __..__..__..__..__..__..__..__.._
 72
   65
 73
    6
 40
15.875
 49
6.35
 74
    0
 49
-3.175
 74
    0
 49
0
 74
    0
 49
-3.175
 74
    0
 49
0
 74
    0
 49
-3.175
 74
    0
  0
LTYPE
  5
41
330
5
100
AcDbSymbolTableRecord
100
AcDbLinetypeTableRecord
  2
DIVIDEX2
 70
    0
  3
Divide (2x) ________  .  .  ________  .  .  _
 72
   65
 73
    6
 40
63.5
 49
25.4
 74
    0
 49
-12.7
 74
    0
 49
0
 74
    0
 49
-12.7
 74
    0
 49
0
 74
    0
 49
-12.7
 74
    0
  0
LTYPE
  5
42
330
5
100
AcDbSymbolTableRecord
100
AcDbLinetypeTableRecord
  2
BORDER
 70
    0
  3
Border __ __ . __ __ . __ __ . __ __ . __ __ .
 72
   65
 73
    6
 40
44.45
 49
12.7
 74
    0
 49
-6.35
 74
    0
 49
12.7
 74
    0
 49
-6.35
 74
    0
 49
0
 74
    0
 49
-6.35
 74
    0
  0
LTYPE
  5
43
330
5
100
AcDbSymbolTableRecord
100
AcDbLinetypeTableRecord
  2
BORDERTINY
 70
    0
  3
Border (.15x) __.__.__.__.__.__.__.__.__.__.__.
 72
   65
 73
    6
 40
6.6675
 49
1.905
 74
    0
 49
-0.9525
 74
    0
 49
1.905
 74
    0
 49
-0.9525
 74
    0
 49
0
 74
    0
 49
-0.9525
 74
    0
  0
LTYPE
  5
44
330
5
100
AcDbSymbolTableRecord
100
AcDbLinetypeTableRecord
  2
BORDER2
 70
    0
  3
Border (.5x) __.__.__.__.__.__.__.__.__.__.__.
 72
   65
 73
    6
 40
22.225
 49
6.35
 74
    0
 49
-3.175
 74
    0
 49
6.35
 74
    0
 49
-3.175
 74
    0
 49
0
 74
    0
 49
-3.175
 74
    0
  0
LTYPE
  5
45
330
5
100
AcDbSymbolTableRecord
100
AcDbLinetypeTableRecord
  2
BORDERX2
 70
    0
  3
Border (2x) ____  ____  .  ____  ____  .  ___
 72
   65
 73
    6
 40
88.89999999999999
 49
25.4
 74
    0
 49
-12.7
 74
    0
 49
25.4
 74
    0
 49
-12.7
 74
    0
 49
0
 74
    0
 49
-12.7
 74
    0
  0
LTYPE
  5
46
330
5
100
AcDbSymbolTableRecord
100
AcDbLinetypeTableRecord
  2
CENTER
 70
    0
  3
Center ____ _ ____ _ ____ _ ____ _ ____ _ ____
 72
   65
 73
    4
 40
50.8
 49
31.75
 74
    0
 49
-6.35
 74
    0
 49
6.35
 74
    0
 49
-6.35
 74
    0
  0
LTYPE
  5
47
330
5
100
AcDbSymbolTableRecord
100
AcDbLinetypeTableRecord
  2
CENTERTINY
 70
    0
  3
Center (.15x) ___ _ ___ _ ___ _ ___ _ ___ _ ___
 72
   65
 73
    4
 40
7.619999999999999
 49
4.7625
 74
    0
 49
-0.9525
 74
    0
 49
0.9525
 74
    0
 49
-0.9525
 74
    0
  0
LTYPE
  5
48
330
5
100
AcDbSymbolTableRecord
100
AcDbLinetypeTableRecord
  2
CENTER2
 70
    0
  3
Center (.5x) ___ _ ___ _ ___ _ ___ _ ___ _ ___
 72
   65
 73
    4
 40
28.575
 49
19.05
 74
    0
 49
-3.175
 74
    0
 49
3.175
 74
    0
 49
-3.175
 74
    0
  0
LTYPE
  5
49
330
5
100
AcDbSymbolTableRecord
100
AcDbLinetypeTableRecord
  2
CENTERX2
 70
    0
  3
Center (2x) ________  __  ________  __  _____
 72
   65
 73
    4
 40
101.6
 49
63.5
 74
    0
 49
-12.7
 74
    0
 49
12.7
 74
    0
 49
-12.7
 74
    0
  0
ENDTAB
  0
TABLE
  2
LAYER
  5
2
330
0
100
AcDbSymbolTable
 70
    1
  0
LAYER
  5
10
330
2
100
AcDbSymbolTableRecord
100
AcDbLayerTableRecord
  2
0
 70
    0
 62
    7
  6
CONTINUOUS
370
   -3
390
F
  0
LAYER
  5
4A
330
2
100
AcDbSymbolTableRecord
100
AcDbLayerTableRecord
  2
Shape2DView
 70
    0
 62
    7
  6
CONTINUOUS
370
   -3
390
F
  0
LAYER
  5
4B
330
2
100
AcDbSymbolTableRecord
100
AcDbLayerTableRecord
  2
Shape2DView001
 70
    0
 62
    7
  6
CONTINUOUS
370
   -3
390
F
  0
LAYER
  5
4C
330
2
100
AcDbSymbolTableRecord
100
AcDbLayerTableRecord
  2
Shape2DView002
 70
    0
 62
    7
  6
CONTINUOUS
370
   -3
390
F
  0
LAYER
  5
4D
330
2
100
AcDbSymbolTableRecord
100
AcDbLayerTableRecord
  2
Shape2DView003
 70
    0
 62
    7
  6
CONTINUOUS
370
   -3
390
F
  0
LAYER
  5
4E
330
2
100
AcDbSymbolTableRecord
100
AcDbLayerTableRecord
  2
Shape2DView004
 70
    0
 62
    7
  6
CONTINUOUS
370
   -3
390
F
  0
LAYER
  5
4F
330
2
100
AcDbSymbolTableRecord
100
AcDbLayerTableRecord
  2
Shape2DView005
 70
    0
 62
    7
  6
CONTINUOUS
370
   -3
390
F
  0
LAYER
  5
50
330
2
100
AcDbSymbolTableRecord
100
AcDbLayerTableRecord
  2
Shape2DView006
 70
    0
 62
    7
  6
CONTINUOUS
370
   -3
390
F
  0
LAYER
  5
51
330
2
100
AcDbSymbolTableRecord
100
AcDbLayerTableRecord
  2
Shape2DView007
 70
    0
 62
    7
  6
CONTINUOUS
370
   -3
390
F
  0
LAYER
  5
52
330
2
100
AcDbSymbolTableRecord
100
AcDbLayerTableRecord
  2
Shape2DView008
 70
    0
 62
    7
  6
CONTINUOUS
370
   -3
390
F
  0
LAYER
  5
53
330
2
100
AcDbSymbolTableRecord
100
AcDbLayerTableRecord
  2
none
 70
    0
 62
    7
  6
CONTINUOUS
370
   -3
390
F
  0
ENDTAB
  0
TABLE
  2
STYLE
  5
3
330
0
100
AcDbSymbolTable
 70
    3
  0
STYLE
  5
54
330
2
100
AcDbSymbolTableRecord
100
AcDbTextStyleTableRecord
  2
Standard
 70
    0
 40
0
 41
1
 50
0
 71
    0
 42
1
  3
txt
  4

  0
ENDTAB
  0
TABLE
  2
VIEW
  5
6
330
0
100
AcDbSymbolTable
 70
    0
  0
ENDTAB
  0
TABLE
  2
UCS
  5
7
330
0
100
AcDbSymbolTable
 70
    0
  0
ENDTAB
  0
TABLE
  2
APPID
  5
9
330
0
100
AcDbSymbolTable
 70
    1
  0
APPID
  5
12
330
9
100
AcDbSymbolTableRecord
100
AcDbRegAppTableRecord
  2
ACAD
 70
    0
  0
APPID
  5
55
330
9
100
AcDbSymbolTableRecord
100
AcDbRegAppTableRecord
  2
LibreCad
 70
    0
  0
ENDTAB
  0
TABLE
  2
DIMSTYLE
  5
A
330
0
100
AcDbSymbolTable
 70
    1
100
AcDbDimStyleTable
 71
    1
  0
DIMSTYLE
105
56
330
A
100
AcDbSymbolTableRecord
100
AcDbDimStyleTableRecord
  2
Standard
 70
    0
 40
2.5
 41
2.5
 42
0.625
 43
0.38
 44
1.25
 45
0
 46
0
 47
0
 48
0
 49
1
140
2.5
141
0.09
142
0
143
25.4
144
1
145
0
146
1
147
0.625
148
0
 71
    0
 72
    0
 73
    0
 74
    1
 75
    0
 76
    0
 77
    0
 78
    8
 79
    0
170
    0
171
    2
172
    0
173
    0
174
    0
175
    0
176
    0
177
    0
178
    0
179
    0
271
    2
272
    4
273
    2
274
    2
275
    0
276
    0
277
    2
278
   44
279
    0
280
    0
281
    0
282
    0
283
    1
284
    0
285
    0
286
    0
288
    0
289
    3
340
STANDARD
341

371
   -2
372
   -2
  0
ENDTAB
  0
TABLE
  2
BLOCK_RECORD
  5
1
330
0
100
AcDbSymbolTable
 70
    2
  0
BLOCK_RECORD
  5
1F
330
1
100
AcDbSymbolTableRecord
100
AcDbBlockTableRecord
  2
*Model_Space
 70
    0
280
    1
281
    0
  0
BLOCK_RECORD
  5
1E
330
1
100
AcDbSymbolTableRecord
100
AcDbBlockTableRecord
  2
*Paper_Space
 70
    0
280
    1
281
    0
  0
ENDTAB
  0
ENDSEC
  0
SECTION
  2
BLOCKS
  0
BLOCK
  5
20
330
1F
100
AcDbEntity
  8
0
100
AcDbBlockBegin
  2
*Model_Space
 70
    0
 10
0
 20
0
 30
0
  3
*Model_Space
  1

  0
ENDBLK
  5
21
330
1F
100
AcDbEntity
  8
0
100
AcDbBlockEnd
  0
BLOCK
  5
1C
330
1B
100
AcDbEntity
  8
0
100
AcDbBlockBegin
  2
*Paper_Space
 70
    0
 10
0
 20
0
 30
0
  3
*Paper_Space
  1

  0
ENDBLK
  5
1D
330
1F
100
AcDbEntity
  8
0
100
AcDbBlockEnd
  0
ENDSEC
  0
SECTION
  2
ENTITIES
  0
LINE
  5
57
100
AcDbEntity
  8
Shape2DView005
  6
ByLayer
 62
  256
370
   -1
100
AcDbLine
 10
171.2
 20
108.523247694
 11
246.8
 21
108.523247694
  0
LINE
  5
58
100
AcDbEntity
  8
Shape2DView005
  6
ByLayer
 62
  256
370
   -1
100
AcDbLine
 10
171.2
 20
93.40000000000001
 11
171.2
 21
108.523247694
  0
LINE
  5
59
100
AcDbEntity
  8
Shape2DView005
  6
ByLayer
 62
  256
370
   -1
100
AcDbLine
 10
246.8
 20
108.523247694
 11
246.8
 21
93.40000000000001
  0
LINE
  5
5A
100
AcDbEntity
  8
Shape2DView005
  6
ByLayer
 62
  256
370
   -1
100
AcDbLine
 10
184.819983333
 20
93.40000000000001
 11
171.2
 21
93.40000000000001
  0
LINE
  5
5B
100
AcDbEntity
  8
Shape2DView005
  6
ByLayer
 62
  256
370
   -1
100
AcDbLine
 10
246.8
 20
93.40000000000001
 11
233.180016667
 21
93.40000000000001
  0
ARC
  5
5C
100
AcDbEntity
  8
Shape2DView005
  6
ByLayer
 62
  256
370
   -1
100
AcDbCircle
 10
185.00665
 20
93.40000000000001
 40
0.186666667
100
AcDbArc
 50
-90
 51
0
  0
ARC
  5
5D
100
AcDbEntity
  8
Shape2DView005
  6
ByLayer
 62
  256
370
   -1
100
AcDbCircle
 10
185.00665
 20
93.40000000000001
 40
0.186666667
100
AcDbArc
 50
0
 51
180
  0
ARC
  5
5E
100
AcDbEntity
  8
Shape2DView005
  6
ByLayer
 62
  256
370
   -1
100
AcDbCircle
 10
232.99335
 20
93.40000000000001
 40
0.186666667
100
AcDbArc
 50
0
 51
180
  0
ARC
  5
5F
100
AcDbEntity
  8
Shape2DView005
  6
ByLayer
 62
  256
370
   -1
100
AcDbCircle
 10
232.99335
 20
93.40000000000001
 40
0.186666667
100
AcDbArc
 50
180
 51
-90
  0
LINE
  5
60
100
AcDbEntity
  8
Shape2DView005
  6
ByLayer
 62
  256
370
   -1
100
AcDbLine
 10
185.00665
 20
93.21333333299999
 11
185.00665
 21
90.59999999999999
  0
LINE
  5
61
100
AcDbEntity
  8
Shape2DView005
  6
ByLayer
 62
  256
370
   -1
100
AcDbLine
 10
185.00665
 20
90.59999999999999
 11
195.19335
 21
90.59999999999999
  0
ARC
  5
62
100
AcDbEntity
  8
Shape2DView005
  6
ByLayer
 62
  256
370
   -1
100
AcDbCircle
 10
195.19335
 20
93.40000000000001
 40
0.186666667
100
AcDbArc
 50
0
 51
180
  0
ARC
  5
63
100
AcDbEntity
  8
Shape2DView005
  6
ByLayer
 62
  256
370
   -1
100
AcDbCircle
 10
195.19335
 20
93.40000000000001
 40
0.186666667
100
AcDbArc
 50
180
 51
-90
  0
LINE
  5
64
100
AcDbEntity
  8
Shape2DView005
  6
ByLayer
 62
  256
370
   -1
100
AcDbLine
 10
222.619983333
 20
93.40000000000001
 11
195.380016667
 21
93.40000000000001
  0
ARC
  5
65
100
AcDbEntity
  8
Shape2DView005
  6
ByLayer
 62
  256
370
   -1
100
AcDbCircle
 10
222.80665
 20
93.40000000000001
 40
0.186666667
100
AcDbArc
 50
-90
 51
0
  0
ARC
  5
66
100
AcDbEntity
  8
Shape2DView005
  6
ByLayer
 62
  256
370
   -1
100
AcDbCircle
 10
222.80665
 20
93.40000000000001
 40
0.186666667
100
AcDbArc
 50
0
 51
180
  0
LINE
  5
67
100
AcDbEntity
  8
Shape2DView005
  6
ByLayer
 62
  256
370
   -1
100
AcDbLine
 10
195.19335
 20
93.21333333299999
 11
195.19335
 21
90.59999999999999
  0
LINE
  5
68
100
AcDbEntity
  8
Shape2DView005
  6
ByLayer
 62
  256
370
   -1
100
AcDbLine
 10
222.80665
 20
93.21333333299999
 11
222.80665
 21
90.59999999999999
  0
LINE
  5
69
100
AcDbEntity
  8
Shape2DView005
  6
ByLayer
 62
  256
370
   -1
100
AcDbLine
 10
232.99335
 20
93.21333333299999
 11
232.99335
 21
90.59999999999999
  0
LINE
  5
6A
100
AcDbEntity
  8
Shape2DView005
  6
ByLayer
 62
  256
370
   -1
100
AcDbLine
 10
222.80665
 20
90.59999999999999
 11
232.99335
 21
90.59999999999999
  0
LINE
  5
6B
100
AcDbEntity
  8
Shape2DView003
  6
ByLayer
 62
  256
370
   -1
100
AcDbLine
 10
171.0498066383823
 20
192.05665
 11
246.6498066383822
 21
192.05665
  0
LINE
  5
6C
100
AcDbEntity
  8
Shape2DView003
  6
ByLayer
 62
  256
370
   -1
100
AcDbLine
 10
171.0498066383823
 20
178.2133
 11
171.0498066383823
 21
192.05665
  0
LINE
  5
6D
100
AcDbEntity
  8
Shape2DView003
  6
ByLayer
 62
  256
370
   -1
100
AcDbLine
 10
246.6498066383822
 20
192.05665
 11
246.6498066383822
 21
178.2133
  0
LINE
  5
6E
100
AcDbEntity
  8
Shape2DView003
  6
ByLayer
 62
  256
370
   -1
100
AcDbLine
 10
171.0498066383823
 20
178.2133
 11
173.6244673203823
 21
178.2133
  0
LINE
  5
6F
100
AcDbEntity
  8
Shape2DView003
  6
ByLayer
 62
  256
370
   -1
100
AcDbLine
 10
244.0751459563822
 20
178.2133
 11
246.6498066383822
 21
178.2133
  0
ARC
  5
70
100
AcDbEntity
  8
Shape2DView003
  6
ByLayer
 62
  256
370
   -1
100
AcDbCircle
 10
243.9027116383822
 20
178.113745
 40
0.19911
100
AcDbArc
 50
30
 51
-120
  0
LINE
  5
71
100
AcDbEntity
  8
Shape2DView003
  6
ByLayer
 62
  256
370
   -1
100
AcDbLine
 10
243.8031566383822
 20
168.671989318
 11
243.8031566383822
 21
177.941310682
  0
ARC
  5
72
100
AcDbEntity
  8
Shape2DView003
  6
ByLayer
 62
  256
370
   -1
100
AcDbCircle
 10
243.9027116383822
 20
168.499555
 40
0.19911
100
AcDbArc
 50
120
 51
-30
  0
LINE
  5
73
100
AcDbEntity
  8
Shape2DView003
  6
ByLayer
 62
  256
370
   -1
100
AcDbLine
 10
244.0751459563822
 20
168.4
 11
246.6498066383822
 21
168.4
  0
LINE
  5
74
100
AcDbEntity
  8
Shape2DView003
  6
ByLayer
 62
  256
370
   -1
100
AcDbLine
 10
246.6498066383822
 20
168.4
 11
246.6498066383822
 21
140.7133
  0
LINE
  5
75
100
AcDbEntity
  8
Shape2DView003
  6
ByLayer
 62
  256
370
   -1
100
AcDbLine
 10
244.0751459563822
 20
140.7133
 11
246.6498066383822
 21
140.7133
  0
ARC
  5
76
100
AcDbEntity
  8
Shape2DView003
  6
ByLayer
 62
  256
370
   -1
100
AcDbCircle
 10
243.9027116383822
 20
140.613745
 40
0.19911
100
AcDbArc
 50
30
 51
-120
  0
LINE
  5
77
100
AcDbEntity
  8
Shape2DView003
  6
ByLayer
 62
  256
370
   -1
100
AcDbLine
 10
243.8031566383822
 20
131.171989318
 11
243.8031566383822
 21
140.441310682
  0
ARC
  5
78
100
AcDbEntity
  8
Shape2DView003
  6
ByLayer
 62
  256
370
   -1
100
AcDbCircle
 10
243.9027116383822
 20
130.999555
 40
0.19911
100
AcDbArc
 50
120
 51
-30
  0
LINE
  5
79
100
AcDbEntity
  8
Shape2DView003
  6
ByLayer
 62
  256
370
   -1
100
AcDbLine
 10
244.0751459563822
 20
130.9
 11
246.6498066383822
 21
130.9
  0
LINE
  5
7A
100
AcDbEntity
  8
Shape2DView003
  6
ByLayer
 62
  256
370
   -1
100
AcDbLine
 10
246.6498066383822
 20
130.9
 11
246.6498066383822
 21
117.05665
  0
LINE
  5
7B
100
AcDbEntity
  8
Shape2DView003
  6
ByLayer
 62
  256
370
   -1
100
AcDbLine
 10
246.6498066383822
 20
117.05665
 11
225.4698233053822
 21
117.05665
  0
ARC
  5
7C
100
AcDbEntity
  8
Shape2DView003
  6
ByLayer
 62
  256
370
   -1
100
AcDbCircle
 10
225.2831566383823
 20
117.05665
 40
0.186666667
100
AcDbArc
 50
-0
 51
-180
  0
ARC
  5
7D
100
AcDbEntity
  8
Shape2DView003
  6
ByLayer
 62
  256
370
   -1
100
AcDbCircle
 10
225.2831566383823
 20
117.05665
 40
0.186666667
100
AcDbArc
 50
-180
 51
-90
  0
LINE
  5
7E
100
AcDbEntity
  8
Shape2DView003
  6
ByLayer
 62
  256
370
   -1
100
AcDbLine
 10
225.2831566383823
 20
116.869983333
 11
225.2831566383823
 21
114.25665
  0
LINE
  5
7F
100
AcDbEntity
  8
Shape2DView003
  6
ByLayer
 62
  256
370
   -1
100
AcDbLine
 10
215.0964566383823
 20
114.25665
 11
225.2831566383823
 21
114.25665
  0
LINE
  5
80
100
AcDbEntity
  8
Shape2DView003
  6
ByLayer
 62
  256
370
   -1
100
AcDbLine
 10
215.0964566383823
 20
116.869983333
 11
215.0964566383823
 21
114.25665
  0
ARC
  5
81
100
AcDbEntity
  8
Shape2DView003
  6
ByLayer
 62
  256
370
   -1
100
AcDbCircle
 10
215.0964566383823
 20
117.05665
 40
0.186666667
100
AcDbArc
 50
-90
 51
-0
  0
ARC
  5
82
100
AcDbEntity
  8
Shape2DView003
  6
ByLayer
 62
  256
370
   -1
100
AcDbCircle
 10
215.0964566383823
 20
117.05665
 40
0.186666667
100
AcDbArc
 50
-0
 51
-180
  0
LINE
  5
83
100
AcDbEntity
  8
Shape2DView003
  6
ByLayer
 62
  256
370
   -1
100
AcDbLine
 10
214.9097899713823
 20
117.05665
 11
202.7898233053822
 21
117.05665
  0
ARC
  5
84
100
AcDbEntity
  8
Shape2DView003
  6
ByLayer
 62
  256
370
   -1
100
AcDbCircle
 10
202.6031566383822
 20
117.05665
 40
0.186666667
100
AcDbArc
 50
-0
 51
180
  0
ARC
  5
85
100
AcDbEntity
  8
Shape2DView003
  6
ByLayer
 62
  256
370
   -1
100
AcDbCircle
 10
202.6031566383822
 20
117.05665
 40
0.186666667
100
AcDbArc
 50
180
 51
-90
  0
LINE
  5
86
100
AcDbEntity
  8
Shape2DView003
  6
ByLayer
 62
  256
370
   -1
100
AcDbLine
 10
202.6031566383822
 20
116.869983333
 11
202.6031566383822
 21
114.25665
  0
LINE
  5
87
100
AcDbEntity
  8
Shape2DView003
  6
ByLayer
 62
  256
370
   -1
100
AcDbLine
 10
192.4164566383822
 20
114.25665
 11
202.6031566383822
 21
114.25665
  0
LINE
  5
88
100
AcDbEntity
  8
Shape2DView003
  6
ByLayer
 62
  256
370
   -1
100
AcDbLine
 10
192.4164566383822
 20
116.869983333
 11
192.4164566383822
 21
114.25665
  0
ARC
  5
89
100
AcDbEntity
  8
Shape2DView003
  6
ByLayer
 62
  256
370
   -1
100
AcDbCircle
 10
192.4164566383822
 20
117.05665
 40
0.186666667
100
AcDbArc
 50
-90
 51
-0
  0
ARC
  5
8A
100
AcDbEntity
  8
Shape2DView003
  6
ByLayer
 62
  256
370
   -1
100
AcDbCircle
 10
192.4164566383822
 20
117.05665
 40
0.186666667
100
AcDbArc
 50
-0
 51
180
  0
LINE
  5
8B
100
AcDbEntity
  8
Shape2DView003
  6
ByLayer
 62
  256
370
   -1
100
AcDbLine
 10
192.2297899713822
 20
117.05665
 11
171.0498066383823
 21
117.05665
  0
LINE
  5
8C
100
AcDbEntity
  8
Shape2DView003
  6
ByLayer
 62
  256
370
   -1
100
AcDbLine
 10
171.0498066383823
 20
117.05665
 11
171.0498066383823
 21
130.9
  0
LINE
  5
8D
100
AcDbEntity
  8
Shape2DView003
  6
ByLayer
 62
  256
370
   -1
100
AcDbLine
 10
171.0498066383823
 20
130.9
 11
173.6244673203823
 21
130.9
  0
ARC
  5
8E
100
AcDbEntity
  8
Shape2DView003
  6
ByLayer
 62
  256
370
   -1
100
AcDbCircle
 10
173.7969016383823
 20
178.113745
 40
0.19911
100
AcDbArc
 50
0
 51
150
  0
ARC
  5
8F
100
AcDbEntity
  8
Shape2DView003
  6
ByLayer
 62
  256
370
   -1
100
AcDbCircle
 10
173.7969016383823
 20
178.113745
 40
0.19911
100
AcDbArc
 50
-59.99999999999999
 51
0
  0
LINE
  5
90
100
AcDbEntity
  8
Shape2DView003
  6
ByLayer
 62
  256
370
   -1
100
AcDbLine
 10
173.8964566383823
 20
168.671989318
 11
173.8964566383823
 21
177.941310682
  0
ARC
  5
91
100
AcDbEntity
  8
Shape2DView003
  6
ByLayer
 62
  256
370
   -1
100
AcDbCircle
 10
173.7969016383823
 20
168.499555
 40
0.19911
100
AcDbArc
 50
0
 51
59.99999999999999
  0
ARC
  5
92
100
AcDbEntity
  8
Shape2DView003
  6
ByLayer
 62
  256
370
   -1
100
AcDbCircle
 10
173.7969016383823
 20
168.499555
 40
0.19911
100
AcDbArc
 50
-150
 51
0
  0
LINE
  5
93
100
AcDbEntity
  8
Shape2DView003
  6
ByLayer
 62
  256
370
   -1
100
AcDbLine
 10
171.0498066383823
 20
168.4
 11
173.6244673203823
 21
168.4
  0
LINE
  5
94
100
AcDbEntity
  8
Shape2DView003
  6
ByLayer
 62
  256
370
   -1
100
AcDbLine
 10
171.0498066383823
 20
140.7133
 11
171.0498066383823
 21
168.4
  0
LINE
  5
95
100
AcDbEntity
  8
Shape2DView003
  6
ByLayer
 62
  256
370
   -1
100
AcDbLine
 10
171.0498066383823
 20
140.7133
 11
173.6244673203823
 21
140.7133
  0
ARC
  5
96
100
AcDbEntity
  8
Shape2DView003
  6
ByLayer
 62
  256
370
   -1
100
AcDbCircle
 10
173.7969016383823
 20
140.613745
 40
0.19911
100
AcDbArc
 50
0
 51
150
  0
ARC
  5
97
100
AcDbEntity
  8
Shape2DView003
  6
ByLayer
 62
  256
370
   -1
100
AcDbCircle
 10
173.7969016383823
 20
140.613745
 40
0.19911
100
AcDbArc
 50
-59.99999999999999
 51
0
  0
LINE
  5
98
100
AcDbEntity
  8
Shape2DView003
  6
ByLayer
 62
  256
370
   -1
100
AcDbLine
 10
173.8964566383823
 20
131.171989318
 11
173.8964566383823
 21
140.441310682
  0
ARC
  5
99
100
AcDbEntity
  8
Shape2DView003
  6
ByLayer
 62
  256
370
   -1
100
AcDbCircle
 10
173.7969016383823
 20
130.999555
 40
0.19911
100
AcDbArc
 50
0
 51
59.99999999999999
  0
ARC
  5
9A
100
AcDbEntity
  8
Shape2DView003
  6
ByLayer
 62
  256
370
   -1
100
AcDbCircle
 10
173.7969016383823
 20
130.999555
 40
0.19911
100
AcDbArc
 50
-150
 51
0
  0
LINE
  5
9B
100
AcDbEntity
  8
Shape2DView006
  6
ByLayer
 62
  256
370
   -1
100
AcDbLine
 10
0.259550623
 20
91.88083032807587
 11
2
 21
91.2281618120759
  0
ARC
  5
9C
100
AcDbEntity
  8
Shape2DView006
  6
ByLayer
 62
  256
370
   -1
100
AcDbCircle
 10
0.4
 20
92.25536199907587
 40
0.4
100
AcDbArc
 50
180
 51
-110.55604522
  0
LINE
  5
9D
100
AcDbEntity
  8
Shape2DView006
  6
ByLayer
 62
  256
370
   -1
100
AcDbLine
 10
0
 20
92.25536199907587
 11
0
 21
94.37816181207587
  0
ARC
  5
9E
100
AcDbEntity
  8
Shape2DView006
  6
ByLayer
 62
  256
370
   -1
100
AcDbCircle
 10
0.4
 20
94.37816181207587
 40
0.4
100
AcDbArc
 50
90
 51
180
  0
LINE
  5
9F
100
AcDbEntity
  8
Shape2DView006
  6
ByLayer
 62
  256
370
   -1
100
AcDbLine
 10
0.4
 20
94.77816181207588
 11
14
 21
94.77816181207588
  0
ARC
  5
A0
100
AcDbEntity
  8
Shape2DView006
  6
ByLayer
 62
  256
370
   -1
100
AcDbCircle
 10
14
 20
95.17816181207588
 40
0.4
100
AcDbArc
 50
-90
 51
90
  0
LINE
  5
A1
100
AcDbEntity
  8
Shape2DView006
  6
ByLayer
 62
  256
370
   -1
100
AcDbLine
 10
14
 20
95.57816181207589
 11
0.4
 21
95.57816181207589
  0
ARC
  5
A2
100
AcDbEntity
  8
Shape2DView006
  6
ByLayer
 62
  256
370
   -1
100
AcDbCircle
 10
0.4
 20
95.9781618120759
 40
0.4
100
AcDbArc
 50
180
 51
-90
  0
LINE
  5
A3
100
AcDbEntity
  8
Shape2DView006
  6
ByLayer
 62
  256
370
   -1
100
AcDbLine
 10
0
 20
95.9781618120759
 11
0
 21
113.6215118120759
  0
LINE
  5
A4
100
AcDbEntity
  8
Shape2DView006
  6
ByLayer
 62
  256
370
   -1
100
AcDbLine
 10
0
 20
113.6215118120759
 11
2.574660682
 21
113.6215118120759
  0
ARC
  5
A5
100
AcDbEntity
  8
Shape2DView006
  6
ByLayer
 62
  256
370
   -1
100
AcDbCircle
 10
2.747095
 20
113.7210668120759
 40
0.19911
100
AcDbArc
 50
-150
 51
0
  0
ARC
  5
A6
100
AcDbEntity
  8
Shape2DView006
  6
ByLayer
 62
  256
370
   -1
100
AcDbCircle
 10
2.747095
 20
113.7210668120759
 40
0.19911
100
AcDbArc
 50
0
 51
59.99999999999999
  0
LINE
  5
A7
100
AcDbEntity
  8
Shape2DView006
  6
ByLayer
 62
  256
370
   -1
100
AcDbLine
 10
2.84665
 20
123.1628224940759
 11
2.84665
 21
113.8935011300759
  0
ARC
  5
A8
100
AcDbEntity
  8
Shape2DView006
  6
ByLayer
 62
  256
370
   -1
100
AcDbCircle
 10
2.747095
 20
123.3352568120759
 40
0.19911
100
AcDbArc
 50
-59.99999999999999
 51
0
  0
ARC
  5
A9
100
AcDbEntity
  8
Shape2DView006
  6
ByLayer
 62
  256
370
   -1
100
AcDbCircle
 10
2.747095
 20
123.3352568120759
 40
0.19911
100
AcDbArc
 50
0
 51
150
  0
LINE
  5
AA
100
AcDbEntity
  8
Shape2DView006
  6
ByLayer
 62
  256
370
   -1
100
AcDbLine
 10
0
 20
123.4348118120759
 11
2.574660682
 21
123.4348118120759
  0
LINE
  5
AB
100
AcDbEntity
  8
Shape2DView006
  6
ByLayer
 62
  256
370
   -1
100
AcDbLine
 10
0
 20
123.4348118120759
 11
0
 21
161.1215118120759
  0
LINE
  5
AC
100
AcDbEntity
  8
Shape2DView006
  6
ByLayer
 62
  256
370
   -1
100
AcDbLine
 10
0
 20
161.1215118120759
 11
2.574660682
 21
161.1215118120759
  0
ARC
  5
AD
100
AcDbEntity
  8
Shape2DView006
  6
ByLayer
 62
  256
370
   -1
100
AcDbCircle
 10
2.747095
 20
161.2210668120759
 40
0.19911
100
AcDbArc
 50
-150
 51
0
  0
ARC
  5
AE
100
AcDbEntity
  8
Shape2DView006
  6
ByLayer
 62
  256
370
   -1
100
AcDbCircle
 10
2.747095
 20
161.2210668120759
 40
0.19911
100
AcDbArc
 50
0
 51
59.99999999999999
  0
LINE
  5
AF
100
AcDbEntity
  8
Shape2DView006
  6
ByLayer
 62
  256
370
   -1
100
AcDbLine
 10
2.84665
 20
170.6628224940759
 11
2.84665
 21
161.3935011300759
  0
ARC
  5
B0
100
AcDbEntity
  8
Shape2DView006
  6
ByLayer
 62
  256
370
   -1
100
AcDbCircle
 10
2.747095
 20
170.8352568120758
 40
0.19911
100
AcDbArc
 50
-59.99999999999999
 51
0
  0
ARC
  5
B1
100
AcDbEntity
  8
Shape2DView006
  6
ByLayer
 62
  256
370
   -1
100
AcDbCircle
 10
2.747095
 20
170.8352568120758
 40
0.19911
100
AcDbArc
 50
0
 51
150
  0
LINE
  5
B2
100
AcDbEntity
  8
Shape2DView006
  6
ByLayer
 62
  256
370
   -1
100
AcDbLine
 10
0
 20
170.9348118120758
 11
2.574660682
 21
170.9348118120758
  0
LINE
  5
B3
100
AcDbEntity
  8
Shape2DView006
  6
ByLayer
 62
  256
370
   -1
100
AcDbLine
 10
0
 20
170.9348118120758
 11
0
 21
188.5781618120758
  0
ARC
  5
B4
100
AcDbEntity
  8
Shape2DView006
  6
ByLayer
 62
  256
370
   -1
100
AcDbCircle
 10
0.4
 20
188.5781618120758
 40
0.4
100
AcDbArc
 50
90
 51
180
  0
LINE
  5
B5
100
AcDbEntity
  8
Shape2DView006
  6
ByLayer
 62
  256
370
   -1
100
AcDbLine
 10
0.4
 20
188.9781618120759
 11
14
 21
188.9781618120759
  0
ARC
  5
B6
100
AcDbEntity
  8
Shape2DView006
  6
ByLayer
 62
  256
370
   -1
100
AcDbCircle
 10
14
 20
189.3781618120759
 40
0.4
100
AcDbArc
 50
-90
 51
90
  0
LINE
  5
B7
100
AcDbEntity
  8
Shape2DView006
  6
ByLayer
 62
  256
370
   -1
100
AcDbLine
 10
14
 20
189.7781618120759
 11
0.4
 21
189.7781618120759
  0
ARC
  5
B8
100
AcDbEntity
  8
Shape2DView006
  6
ByLayer
 62
  256
370
   -1
100
AcDbCircle
 10
0.4
 20
190.1781618120759
 40
0.4
100
AcDbArc
 50
180
 51
-90
  0
LINE
  5
B9
100
AcDbEntity
  8
Shape2DView006
  6
ByLayer
 62
  256
370
   -1
100
AcDbLine
 10
0
 20
190.1781618120759
 11
0
 21
192.3009616250758
  0
ARC
  5
BA
100
AcDbEntity
  8
Shape2DView006
  6
ByLayer
 62
  256
370
   -1
100
AcDbCircle
 10
0.4
 20
192.3009616250758
 40
0.4
100
AcDbArc
 50
110.55604522
 51
180
  0
LINE
  5
BB
100
AcDbEntity
  8
Shape2DView006
  6
ByLayer
 62
  256
370
   -1
100
AcDbLine
 10
0.259550623
 20
192.6754932960758
 11
2
 21
193.3281618120758
  0
LINE
  5
BC
100
AcDbEntity
  8
Shape2DView006
  6
ByLayer
 62
  256
370
   -1
100
AcDbLine
 10
2
 20
193.3281618120758
 11
2
 21
192.5781618120758
  0
LINE
  5
BD
100
AcDbEntity
  8
Shape2DView006
  6
ByLayer
 62
  256
370
   -1
100
AcDbLine
 10
2
 20
192.5781618120758
 11
4.8
 21
192.5781618120758
  0
LINE
  5
BE
100
AcDbEntity
  8
Shape2DView006
  6
ByLayer
 62
  256
370
   -1
100
AcDbLine
 10
4.8
 20
194.0568716630759
 11
4.8
 21
192.5781618120758
  0
ARC
  5
BF
100
AcDbEntity
  8
Shape2DView006
  6
ByLayer
 62
  256
370
   -1
100
AcDbCircle
 10
5.2
 20
194.0568716630759
 40
0.4
100
AcDbArc
 50
75
 51
180
  0
LINE
  5
C0
100
AcDbEntity
  8
Shape2DView006
  6
ByLayer
 62
  256
370
   -1
100
AcDbLine
 10
12.264101615
 20
192.5781618120758
 11
5.303527618
 21
194.4432419930758
  0
LINE
  5
C1
100
AcDbEntity
  8
Shape2DView006
  6
ByLayer
 62
  256
370
   -1
100
AcDbLine
 10
63.335898385
 20
192.5781618120758
 11
12.264101615
 21
192.5781618120758
  0
LINE
  5
C2
100
AcDbEntity
  8
Shape2DView006
  6
ByLayer
 62
  256
370
   -1
100
AcDbLine
 10
70.296472382
 20
194.4432419930758
 11
63.335898385
 21
192.5781618120758
  0
ARC
  5
C3
100
AcDbEntity
  8
Shape2DView006
  6
ByLayer
 62
  256
370
   -1
100
AcDbCircle
 10
70.40000000000001
 20
194.0568716630759
 40
0.4
100
AcDbArc
 50
0
 51
105
  0
LINE
  5
C4
100
AcDbEntity
  8
Shape2DView006
  6
ByLayer
 62
  256
370
   -1
100
AcDbLine
 10
70.8
 20
192.5781618120758
 11
70.8
 21
194.0568716630759
  0
LINE
  5
C5
100
AcDbEntity
  8
Shape2DView006
  6
ByLayer
 62
  256
370
   -1
100
AcDbLine
 10
73.59999999999999
 20
192.5781618120758
 11
70.8
 21
192.5781618120758
  0
LINE
  5
C6
100
AcDbEntity
  8
Shape2DView006
  6
ByLayer
 62
  256
370
   -1
100
AcDbLine
 10
73.59999999999999
 20
193.3281618120758
 11
73.59999999999999
 21
192.5781618120758
  0
LINE
  5
C7
100
AcDbEntity
  8
Shape2DView006
  6
ByLayer
 62
  256
370
   -1
100
AcDbLine
 10
75.340449377
 20
192.6754932960758
 11
73.59999999999999
 21
193.3281618120758
  0
ARC
  5
C8
100
AcDbEntity
  8
Shape2DView006
  6
ByLayer
 62
  256
370
   -1
100
AcDbCircle
 10
75.2
 20
192.3009616250758
 40
0.4
100
AcDbArc
 50
0
 51
69.44395478
  0
LINE
  5
C9
100
AcDbEntity
  8
Shape2DView006
  6
ByLayer
 62
  256
370
   -1
100
AcDbLine
 10
75.59999999999999
 20
192.3009616250758
 11
75.59999999999999
 21
190.1781618120759
  0
ARC
  5
CA
100
AcDbEntity
  8
Shape2DView006
  6
ByLayer
 62
  256
370
   -1
100
AcDbCircle
 10
75.2
 20
190.1781618120759
 40
0.4
100
AcDbArc
 50
-90
 51
0
  0
LINE
  5
CB
100
AcDbEntity
  8
Shape2DView006
  6
ByLayer
 62
  256
370
   -1
100
AcDbLine
 10
75.2
 20
189.7781618120759
 11
61.6
 21
189.7781618120759
  0
ARC
  5
CC
100
AcDbEntity
  8
Shape2DView006
  6
ByLayer
 62
  256
370
   -1
100
AcDbCircle
 10
61.6
 20
189.3781618120759
 40
0.4
100
AcDbArc
 50
90
 51
-90
  0
LINE
  5
CD
100
AcDbEntity
  8
Shape2DView006
  6
ByLayer
 62
  256
370
   -1
100
AcDbLine
 10
61.6
 20
188.9781618120759
 11
75.2
 21
188.9781618120759
  0
ARC
  5
CE
100
AcDbEntity
  8
Shape2DView006
  6
ByLayer
 62
  256
370
   -1
100
AcDbCircle
 10
75.2
 20
188.5781618120758
 40
0.4
100
AcDbArc
 50
0
 51
90
  0
LINE
  5
CF
100
AcDbEntity
  8
Shape2DView006
  6
ByLayer
 62
  256
370
   -1
100
AcDbLine
 10
75.59999999999999
 20
188.5781618120758
 11
75.59999999999999
 21
170.9348118120758
  0
LINE
  5
D0
100
AcDbEntity
  8
Shape2DView006
  6
ByLayer
 62
  256
370
   -1
100
AcDbLine
 10
73.02533931799999
 20
170.9348118120758
 11
75.59999999999999
 21
170.9348118120758
  0
ARC
  5
D1
100
AcDbEntity
  8
Shape2DView006
  6
ByLayer
 62
  256
370
   -1
100
AcDbCircle
 10
72.85290500000001
 20
170.8352568120758
 40
0.19911
100
AcDbArc
 50
30
 51
-120
  0
LINE
  5
D2
100
AcDbEntity
  8
Shape2DView006
  6
ByLayer
 62
  256
370
   -1
100
AcDbLine
 10
72.75335
 20
170.6628224940759
 11
72.75335
 21
161.3935011300759
  0
ARC
  5
D3
100
AcDbEntity
  8
Shape2DView006
  6
ByLayer
 62
  256
370
   -1
100
AcDbCircle
 10
72.85290500000001
 20
161.2210668120759
 40
0.19911
100
AcDbArc
 50
120
 51
-30
  0
LINE
  5
D4
100
AcDbEntity
  8
Shape2DView006
  6
ByLayer
 62
  256
370
   -1
100
AcDbLine
 10
73.02533931799999
 20
161.1215118120759
 11
75.59999999999999
 21
161.1215118120759
  0
LINE
  5
D5
100
AcDbEntity
  8
Shape2DView006
  6
ByLayer
 62
  256
370
   -1
100
AcDbLine
 10
75.59999999999999
 20
161.1215118120759
 11
75.59999999999999
 21
123.4348118120759
  0
LINE
  5
D6
100
AcDbEntity
  8
Shape2DView006
  6
ByLayer
 62
  256
370
   -1
100
AcDbLine
 10
73.02533931799999
 20
123.4348118120759
 11
75.59999999999999
 21
123.4348118120759
  0
ARC
  5
D7
100
AcDbEntity
  8
Shape2DView006
  6
ByLayer
 62
  256
370
   -1
100
AcDbCircle
 10
72.85290500000001
 20
123.3352568120759
 40
0.19911
100
AcDbArc
 50
30
 51
-120
  0
LINE
  5
D8
100
AcDbEntity
  8
Shape2DView006
  6
ByLayer
 62
  256
370
   -1
100
AcDbLine
 10
72.75335
 20
123.1628224940759
 11
72.75335
 21
113.8935011300759
  0
ARC
  5
D9
100
AcDbEntity
  8
Shape2DView006
  6
ByLayer
 62
  256
370
   -1
100
AcDbCircle
 10
72.85290500000001
 20
113.7210668120759
 40
0.19911
100
AcDbArc
 50
120
 51
-30
  0
LINE
  5
DA
100
AcDbEntity
  8
Shape2DView006
  6
ByLayer
 62
  256
370
   -1
100
AcDbLine
 10
73.02533931799999
 20
113.6215118120759
 11
75.59999999999999
 21
113.6215118120759
  0
LINE
  5
DB
100
AcDbEntity
  8
Shape2DView006
  6
ByLayer
 62
  256
370
   -1
100
AcDbLine
 10
75.59999999999999
 20
113.6215118120759
 11
75.59999999999999
 21
95.9781618120759
  0
ARC
  5
DC
100
AcDbEntity
  8
Shape2DView006
  6
ByLayer
 62
  256
370
   -1
100
AcDbCircle
 10
75.2
 20
95.9781618120759
 40
0.4
100
AcDbArc
 50
-90
 51
0
  0
LINE
  5
DD
100
AcDbEntity
  8
Shape2DView006
  6
ByLayer
 62
  256
370
   -1
100
AcDbLine
 10
61.6
 20
95.57816181207589
 11
75.2
 21
95.57816181207589
  0
ARC
  5
DE
100
AcDbEntity
  8
Shape2DView006
  6
ByLayer
 62
  256
370
   -1
100
AcDbCircle
 10
61.6
 20
95.17816181207588
 40
0.4
100
AcDbArc
 50
90
 51
-90
  0
LINE
  5
DF
100
AcDbEntity
  8
Shape2DView006
  6
ByLayer
 62
  256
370
   -1
100
AcDbLine
 10
75.2
 20
94.77816181207588
 11
61.6
 21
94.77816181207588
  0
ARC
  5
E0
100
AcDbEntity
  8
Shape2DView006
  6
ByLayer
 62
  256
370
   -1
100
AcDbCircle
 10
75.2
 20
94.37816181207587
 40
0.4
100
AcDbArc
 50
0
 51
90
  0
LINE
  5
E1
100
AcDbEntity
  8
Shape2DView006
  6
ByLayer
 62
  256
370
   -1
100
AcDbLine
 10
75.59999999999999
 20
94.37816181207587
 11
75.59999999999999
 21
92.25536199907587
  0
ARC
  5
E2
100
AcDbEntity
  8
Shape2DView006
  6
ByLayer
 62
  256
370
   -1
100
AcDbCircle
 10
75.2
 20
92.25536199907587
 40
0.4
100
AcDbArc
 50
-69.44395478
 51
0
  0
LINE
  5
E3
100
AcDbEntity
  8
Shape2DView006
  6
ByLayer
 62
  256
370
   -1
100
AcDbLine
 10
75.340449377
 20
91.88083032807587
 11
73.59999999999999
 21
91.2281618120759
  0
LINE
  5
E4
100
AcDbEntity
  8
Shape2DView006
  6
ByLayer
 62
  256
370
   -1
100
AcDbLine
 10
73.59999999999999
 20
91.2281618120759
 11
73.59999999999999
 21
91.9781618120759
  0
LINE
  5
E5
100
AcDbEntity
  8
Shape2DView006
  6
ByLayer
 62
  256
370
   -1
100
AcDbLine
 10
73.59999999999999
 20
91.9781618120759
 11
70.8
 21
91.9781618120759
  0
LINE
  5
E6
100
AcDbEntity
  8
Shape2DView006
  6
ByLayer
 62
  256
370
   -1
100
AcDbLine
 10
70.8
 20
90.49945196107588
 11
70.8
 21
91.9781618120759
  0
ARC
  5
E7
100
AcDbEntity
  8
Shape2DView006
  6
ByLayer
 62
  256
370
   -1
100
AcDbCircle
 10
70.40000000000001
 20
90.49945196107588
 40
0.4
100
AcDbArc
 50
-105
 51
0
  0
LINE
  5
E8
100
AcDbEntity
  8
Shape2DView006
  6
ByLayer
 62
  256
370
   -1
100
AcDbLine
 10
63.335898385
 20
91.9781618120759
 11
70.296472382
 21
90.11308163107587
  0
LINE
  5
E9
100
AcDbEntity
  8
Shape2DView006
  6
ByLayer
 62
  256
370
   -1
100
AcDbLine
 10
52.15665
 20
91.9781618120759
 11
63.335898385
 21
91.9781618120759
  0
LINE
  5
EA
100
AcDbEntity
  8
Shape2DView006
  6
ByLayer
 62
  256
370
   -1
100
AcDbLine
 10
52.15665
 20
91.9781618120759
 11
52.15665
 21
94.55282249407587
  0
ARC
  5
EB
100
AcDbEntity
  8
Shape2DView006
  6
ByLayer
 62
  256
370
   -1
100
AcDbCircle
 10
52.057095
 20
94.72525681207587
 40
0.19911
100
AcDbArc
 50
-59.99999999999999
 51
90
  0
ARC
  5
EC
100
AcDbEntity
  8
Shape2DView006
  6
ByLayer
 62
  256
370
   -1
100
AcDbCircle
 10
52.057095
 20
94.72525681207587
 40
0.19911
100
AcDbArc
 50
90
 51
150
  0
LINE
  5
ED
100
AcDbEntity
  8
Shape2DView006
  6
ByLayer
 62
  256
370
   -1
100
AcDbLine
 10
42.615339318
 20
94.82481181207588
 11
51.884660682
 21
94.82481181207588
  0
ARC
  5
EE
100
AcDbEntity
  8
Shape2DView006
  6
ByLayer
 62
  256
370
   -1
100
AcDbCircle
 10
42.442905
 20
94.72525681207587
 40
0.19911
100
AcDbArc
 50
30
 51
90
  0
ARC
  5
EF
100
AcDbEntity
  8
Shape2DView006
  6
ByLayer
 62
  256
370
   -1
100
AcDbCircle
 10
42.442905
 20
94.72525681207587
 40
0.19911
100
AcDbArc
 50
90
 51
-120
  0
LINE
  5
F0
100
AcDbEntity
  8
Shape2DView006
  6
ByLayer
 62
  256
370
   -1
100
AcDbLine
 10
42.34335
 20
91.9781618120759
 11
42.34335
 21
94.55282249407587
  0
LINE
  5
F1
100
AcDbEntity
  8
Shape2DView006
  6
ByLayer
 62
  256
370
   -1
100
AcDbLine
 10
33.25665
 20
91.9781618120759
 11
42.34335
 21
91.9781618120759
  0
LINE
  5
F2
100
AcDbEntity
  8
Shape2DView006
  6
ByLayer
 62
  256
370
   -1
100
AcDbLine
 10
33.25665
 20
91.9781618120759
 11
33.25665
 21
94.55282249407587
  0
ARC
  5
F3
100
AcDbEntity
  8
Shape2DView006
  6
ByLayer
 62
  256
370
   -1
100
AcDbCircle
 10
33.157095
 20
94.72525681207587
 40
0.19911
100
AcDbArc
 50
-59.99999999999999
 51
90
  0
ARC
  5
F4
100
AcDbEntity
  8
Shape2DView006
  6
ByLayer
 62
  256
370
   -1
100
AcDbCircle
 10
33.157095
 20
94.72525681207587
 40
0.19911
100
AcDbArc
 50
90
 51
150
  0
LINE
  5
F5
100
AcDbEntity
  8
Shape2DView006
  6
ByLayer
 62
  256
370
   -1
100
AcDbLine
 10
23.715339318
 20
94.82481181207588
 11
32.984660682
 21
94.82481181207588
  0
ARC
  5
F6
100
AcDbEntity
  8
Shape2DView006
  6
ByLayer
 62
  256
370
   -1
100
AcDbCircle
 10
23.542905
 20
94.72525681207587
 40
0.19911
100
AcDbArc
 50
30
 51
90
  0
ARC
  5
F7
100
AcDbEntity
  8
Shape2DView006
  6
ByLayer
 62
  256
370
   -1
100
AcDbCircle
 10
23.542905
 20
94.72525681207587
 40
0.19911
100
AcDbArc
 50
90
 51
-120
  0
LINE
  5
F8
100
AcDbEntity
  8
Shape2DView006
  6
ByLayer
 62
  256
370
   -1
100
AcDbLine
 10
23.44335
 20
91.9781618120759
 11
23.44335
 21
94.55282249407587
  0
LINE
  5
F9
100
AcDbEntity
  8
Shape2DView006
  6
ByLayer
 62
  256
370
   -1
100
AcDbLine
 10
12.264101615
 20
91.9781618120759
 11
23.44335
 21
91.9781618120759
  0
LINE
  5
FA
100
AcDbEntity
  8
Shape2DView006
  6
ByLayer
 62
  256
370
   -1
100
AcDbLine
 10
5.303527618
 20
90.11308163107587
 11
12.264101615
 21
91.9781618120759
  0
ARC
  5
FB
100
AcDbEntity
  8
Shape2DView006
  6
ByLayer
 62
  256
370
   -1
100
AcDbCircle
 10
5.2
 20
90.49945196107588
 40
0.4
100
AcDbArc
 50
-180
 51
-75
  0
LINE
  5
FC
100
AcDbEntity
  8
Shape2DView006
  6
ByLayer
 62
  256
370
   -1
100
AcDbLine
 10
4.8
 20
91.9781618120759
 11
4.8
 21
90.49945196107588
  0
LINE
  5
FD
100
AcDbEntity
  8
Shape2DView006
  6
ByLayer
 62
  256
370
   -1
100
AcDbLine
 10
2
 20
91.9781618120759
 11
4.8
 21
91.9781618120759
  0
LINE
  5
FE
100
AcDbEntity
  8
Shape2DView006
  6
ByLayer
 62
  256
370
   -1
100
AcDbLine
 10
2
 20
91.2281618120759
 11
2
 21
91.9781618120759
  0
ARC
  5
FF
100
AcDbEntity
  8
Shape2DView006
  6
ByLayer
 62
  256
370
   -1
100
AcDbCircle
 10
21.41
 20
173.1781618120759
 40
0.8
100
AcDbArc
 50
163.267180167
 51
-15.832667197
  0
ARC
  5
100
100
AcDbEntity
  8
Shape2DView006
  6
ByLayer
 62
  256
370
   -1
100
AcDbCircle
 10
-5.2
 20
181.1781618120759
 40
26.986545305
100
AcDbArc
 50
-16.732819833
 51
16.732819833
  0
ARC
  5
101
100
AcDbEntity
  8
Shape2DView006
  6
ByLayer
 62
  256
370
   -1
100
AcDbCircle
 10
-6.8
 20
181.1781618120759
 40
30.12241634
100
AcDbArc
 50
-15.832667197
 51
15.832667197
  0
ARC
  5
102
100
AcDbEntity
  8
Shape2DView006
  6
ByLayer
 62
  256
370
   -1
100
AcDbCircle
 10
21.41
 20
189.1781618120759
 40
0.8
100
AcDbArc
 50
15.832667197
 51
-163.267180167
  0
ARC
  5
103
100
AcDbEntity
  8
Shape2DView006
  6
ByLayer
 62
  256
370
   -1
100
AcDbCircle
 10
49.19
 20
187.8681618120759
 40
2.11
100
AcDbArc
 50
-13.161241803
 51
90
  0
ARC
  5
104
100
AcDbEntity
  8
Shape2DView006
  6
ByLayer
 62
  256
370
   -1
100
AcDbCircle
 10
77.8
 20
181.1781618120759
 40
27.271766455
100
AcDbArc
 50
166.838758197
 51
-166.838758197
  0
LINE
  5
105
100
AcDbEntity
  8
Shape2DView006
  6
ByLayer
 62
  256
370
   -1
100
AcDbLine
 10
49.19
 20
189.9781618120759
 11
26.41
 21
189.9781618120759
  0
ARC
  5
106
100
AcDbEntity
  8
Shape2DView006
  6
ByLayer
 62
  256
370
   -1
100
AcDbCircle
 10
49.19
 20
174.4881618120759
 40
2.11
100
AcDbArc
 50
-90
 51
13.161241803
  0
ARC
  5
107
100
AcDbEntity
  8
Shape2DView006
  6
ByLayer
 62
  256
370
   -1
100
AcDbCircle
 10
26.41
 20
187.8681618120759
 40
2.11
100
AcDbArc
 50
90
 51
-166.83847694
  0
LINE
  5
108
100
AcDbEntity
  8
Shape2DView006
  6
ByLayer
 62
  256
370
   -1
100
AcDbLine
 10
26.41
 20
172.3781618120759
 11
49.19
 21
172.3781618120759
  0
ARC
  5
109
100
AcDbEntity
  8
Shape2DView006
  6
ByLayer
 62
  256
370
   -1
100
AcDbCircle
 10
-2.2
 20
181.1781618120759
 40
27.271766455
100
AcDbArc
 50
-13.161241803
 51
13.161220043
  0
ARC
  5
10A
100
AcDbEntity
  8
Shape2DView006
  6
ByLayer
 62
  256
370
   -1
100
AcDbCircle
 10
26.41
 20
174.4881618120759
 40
2.11
100
AcDbArc
 50
166.838758197
 51
-90
  0
ARC
  5
10B
100
AcDbEntity
  8
Shape2DView006
  6
ByLayer
 62
  256
370
   -1
100
AcDbCircle
 10
54.19
 20
173.1781618120759
 40
0.8
100
AcDbArc
 50
-164.167332803
 51
16.732819833
  0
ARC
  5
10C
100
AcDbEntity
  8
Shape2DView006
  6
ByLayer
 62
  256
370
   -1
100
AcDbCircle
 10
82.40000000000001
 20
181.1781618120759
 40
30.12241634
100
AcDbArc
 50
164.167332803
 51
-164.167332803
  0
ARC
  5
10D
100
AcDbEntity
  8
Shape2DView006
  6
ByLayer
 62
  256
370
   -1
100
AcDbCircle
 10
80.8
 20
181.1781618120759
 40
26.986545305
100
AcDbArc
 50
163.267180167
 51
-163.267180167
  0
ARC
  5
10E
100
AcDbEntity
  8
Shape2DView006
  6
ByLayer
 62
  256
370
   -1
100
AcDbCircle
 10
54.19
 20
189.1781618120759
 40
0.8
100
AcDbArc
 50
-16.732819833
 51
164.167332803
  0
ARC
  5
10F
100
AcDbEntity
  8
Shape2DView
  6
ByLayer
 62
  256
370
   -1
100
AcDbCircle
 10
69.346848325
 20
38.18523664191148
 40
0.186666667
100
AcDbArc
 50
160
 51
340
  0
ARC
  5
110
100
AcDbEntity
  8
Shape2DView
  6
ByLayer
 62
  256
370
   -1
100
AcDbCircle
 10
69.346848325
 20
38.18523664191148
 40
0.186666667
100
AcDbArc
 50
70
 51
160
  0
LINE
  5
111
100
AcDbEntity
  8
Shape2DView
  6
ByLayer
 62
  256
370
   -1
100
AcDbLine
 10
69.522257614
 20
38.12139288191148
 11
91.32132983
 21
30.18717946091148
  0
LINE
  5
112
100
AcDbEntity
  8
Shape2DView
  6
ByLayer
 62
  256
370
   -1
100
AcDbLine
 10
91.32132983
 20
30.18717946091148
 11
96.780883344
 21
45.18717946091148
  0
LINE
  5
113
100
AcDbEntity
  8
Shape2DView
  6
ByLayer
 62
  256
370
   -1
100
AcDbLine
 10
97.80000000000003
 20
45.18717946091148
 11
97.80000000000003
 21
30.46719612791148
  0
ARC
  5
114
100
AcDbEntity
  8
Shape2DView
  6
ByLayer
 62
  256
370
   -1
100
AcDbCircle
 10
97.80000000000003
 20
30.28052946091147
 40
0.186666667
100
AcDbArc
 50
270
 51
0
  0
ARC
  5
115
100
AcDbEntity
  8
Shape2DView
  6
ByLayer
 62
  256
370
   -1
100
AcDbCircle
 10
97.80000000000003
 20
30.28052946091147
 40
0.186666667
100
AcDbArc
 50
90
 51
270
  0
LINE
  5
116
100
AcDbEntity
  8
Shape2DView
  6
ByLayer
 62
  256
370
   -1
100
AcDbLine
 10
96.780883344
 20
45.18717946091148
 11
97.80000000000003
 21
45.18717946091148
  0
LINE
  5
117
100
AcDbEntity
  8
Shape2DView
  6
ByLayer
 62
  256
370
   -1
100
AcDbLine
 10
97.98666666699999
 20
30.28052946091147
 11
100.6
 21
30.28052946091147
  0
LINE
  5
118
100
AcDbEntity
  8
Shape2DView
  6
ByLayer
 62
  256
370
   -1
100
AcDbLine
 10
100.6
 20
20.09382946091148
 11
100.6
 21
30.28052946091147
  0
LINE
  5
119
100
AcDbEntity
  8
Shape2DView
  6
ByLayer
 62
  256
370
   -1
100
AcDbLine
 10
97.98666666699999
 20
20.09382946091148
 11
100.6
 21
20.09382946091148
  0
ARC
  5
11A
100
AcDbEntity
  8
Shape2DView
  6
ByLayer
 62
  256
370
   -1
100
AcDbCircle
 10
97.80000000000003
 20
20.09382946091148
 40
0.186666667
100
AcDbArc
 50
90
 51
270
  0
ARC
  5
11B
100
AcDbEntity
  8
Shape2DView
  6
ByLayer
 62
  256
370
   -1
100
AcDbCircle
 10
97.80000000000003
 20
20.09382946091148
 40
0.186666667
100
AcDbArc
 50
0
 51
90
  0
LINE
  5
11C
100
AcDbEntity
  8
Shape2DView
  6
ByLayer
 62
  256
370
   -1
100
AcDbLine
 10
97.80000000000003
 20
19.90716279391147
 11
97.80000000000003
 21
5.18717946091148
  0
LINE
  5
11D
100
AcDbEntity
  8
Shape2DView
  6
ByLayer
 62
  256
370
   -1
100
AcDbLine
 10
97.80000000000003
 20
5.18717946091148
 11
79.330016667
 21
5.18717946091148
  0
ARC
  5
11E
100
AcDbEntity
  8
Shape2DView
  6
ByLayer
 62
  256
370
   -1
100
AcDbCircle
 10
79.14335
 20
5.18717946091148
 40
0.186666667
100
AcDbArc
 50
180
 51
270
  0
ARC
  5
11F
100
AcDbEntity
  8
Shape2DView
  6
ByLayer
 62
  256
370
   -1
100
AcDbCircle
 10
79.14335
 20
5.18717946091148
 40
0.186666667
100
AcDbArc
 50
0
 51
180
  0
LINE
  5
120
100
AcDbEntity
  8
Shape2DView
  6
ByLayer
 62
  256
370
   -1
100
AcDbLine
 10
79.14335
 20
5.000512793911483
 11
79.14335
 21
2.387179460911483
  0
LINE
  5
121
100
AcDbEntity
  8
Shape2DView
  6
ByLayer
 62
  256
370
   -1
100
AcDbLine
 10
68.95665
 20
2.387179460911483
 11
79.14335
 21
2.387179460911483
  0
LINE
  5
122
100
AcDbEntity
  8
Shape2DView
  6
ByLayer
 62
  256
370
   -1
100
AcDbLine
 10
68.95665
 20
5.000512793911483
 11
68.95665
 21
2.387179460911483
  0
ARC
  5
123
100
AcDbEntity
  8
Shape2DView
  6
ByLayer
 62
  256
370
   -1
100
AcDbCircle
 10
68.95665
 20
5.18717946091148
 40
0.186666667
100
AcDbArc
 50
0
 51
180
  0
ARC
  5
124
100
AcDbEntity
  8
Shape2DView
  6
ByLayer
 62
  256
370
   -1
100
AcDbCircle
 10
68.95665
 20
5.18717946091148
 40
0.186666667
100
AcDbArc
 50
270
 51
0
  0
LINE
  5
125
100
AcDbEntity
  8
Shape2DView
  6
ByLayer
 62
  256
370
   -1
100
AcDbLine
 10
68.769983333
 20
5.18717946091148
 11
31.83001666700001
 21
5.18717946091148
  0
ARC
  5
126
100
AcDbEntity
  8
Shape2DView
  6
ByLayer
 62
  256
370
   -1
100
AcDbCircle
 10
31.64335000000001
 20
5.18717946091148
 40
0.186666667
100
AcDbArc
 50
180
 51
270
  0
ARC
  5
127
100
AcDbEntity
  8
Shape2DView
  6
ByLayer
 62
  256
370
   -1
100
AcDbCircle
 10
31.64335000000001
 20
5.18717946091148
 40
0.186666667
100
AcDbArc
 50
0
 51
180
  0
LINE
  5
128
100
AcDbEntity
  8
Shape2DView
  6
ByLayer
 62
  256
370
   -1
100
AcDbLine
 10
31.64335000000001
 20
5.000512793911483
 11
31.64335000000001
 21
2.387179460911483
  0
LINE
  5
129
100
AcDbEntity
  8
Shape2DView
  6
ByLayer
 62
  256
370
   -1
100
AcDbLine
 10
21.45665
 20
2.387179460911483
 11
31.64335000000001
 21
2.387179460911483
  0
LINE
  5
12A
100
AcDbEntity
  8
Shape2DView
  6
ByLayer
 62
  256
370
   -1
100
AcDbLine
 10
21.45665
 20
5.000512793911483
 11
21.45665
 21
2.387179460911483
  0
ARC
  5
12B
100
AcDbEntity
  8
Shape2DView
  6
ByLayer
 62
  256
370
   -1
100
AcDbCircle
 10
21.45665
 20
5.18717946091148
 40
0.186666667
100
AcDbArc
 50
0
 51
180
  0
ARC
  5
12C
100
AcDbEntity
  8
Shape2DView
  6
ByLayer
 62
  256
370
   -1
100
AcDbCircle
 10
21.45665
 20
5.18717946091148
 40
0.186666667
100
AcDbArc
 50
270
 51
0
  0
LINE
  5
12D
100
AcDbEntity
  8
Shape2DView
  6
ByLayer
 62
  256
370
   -1
100
AcDbLine
 10
21.269983333
 20
5.18717946091148
 11
2.8
 21
5.18717946091148
  0
LINE
  5
12E
100
AcDbEntity
  8
Shape2DView
  6
ByLayer
 62
  256
370
   -1
100
AcDbLine
 10
2.8
 20
5.18717946091148
 11
2.8
 21
18.65716279391148
  0
ARC
  5
12F
100
AcDbEntity
  8
Shape2DView
  6
ByLayer
 62
  256
370
   -1
100
AcDbCircle
 10
2.8
 20
18.84382946091148
 40
0.186666667
100
AcDbArc
 50
90
 51
180
  0
ARC
  5
130
100
AcDbEntity
  8
Shape2DView
  6
ByLayer
 62
  256
370
   -1
100
AcDbCircle
 10
2.8
 20
18.84382946091148
 40
0.186666667
100
AcDbArc
 50
270
 51
90
  0
LINE
  5
131
100
AcDbEntity
  8
Shape2DView
  6
ByLayer
 62
  256
370
   -1
100
AcDbLine
 10
2.613333333
 20
18.84382946091148
 11
-8.881784197001252e-16
 21
18.84382946091148
  0
LINE
  5
132
100
AcDbEntity
  8
Shape2DView
  6
ByLayer
 62
  256
370
   -1
100
AcDbLine
 10
-8.881784197001252e-16
 20
29.03052946091147
 11
-8.881784197001252e-16
 21
18.84382946091148
  0
LINE
  5
133
100
AcDbEntity
  8
Shape2DView
  6
ByLayer
 62
  256
370
   -1
100
AcDbLine
 10
2.613333333
 20
29.03052946091147
 11
-8.881784197001252e-16
 21
29.03052946091147
  0
ARC
  5
134
100
AcDbEntity
  8
Shape2DView
  6
ByLayer
 62
  256
370
   -1
100
AcDbCircle
 10
2.8
 20
29.03052946091147
 40
0.186666667
100
AcDbArc
 50
270
 51
90
  0
ARC
  5
135
100
AcDbEntity
  8
Shape2DView
  6
ByLayer
 62
  256
370
   -1
100
AcDbCircle
 10
2.8
 20
29.03052946091147
 40
0.186666667
100
AcDbArc
 50
180
 51
270
  0
LINE
  5
136
100
AcDbEntity
  8
Shape2DView
  6
ByLayer
 62
  256
370
   -1
100
AcDbLine
 10
2.8
 20
29.21719612791148
 11
2.8
 21
56.15716279391148
  0
ARC
  5
137
100
AcDbEntity
  8
Shape2DView
  6
ByLayer
 62
  256
370
   -1
100
AcDbCircle
 10
2.8
 20
56.34382946091148
 40
0.186666667
100
AcDbArc
 50
90
 51
180
  0
ARC
  5
138
100
AcDbEntity
  8
Shape2DView
  6
ByLayer
 62
  256
370
   -1
100
AcDbCircle
 10
2.8
 20
56.34382946091148
 40
0.186666667
100
AcDbArc
 50
270
 51
90
  0
LINE
  5
139
100
AcDbEntity
  8
Shape2DView
  6
ByLayer
 62
  256
370
   -1
100
AcDbLine
 10
2.613333333
 20
56.34382946091148
 11
-8.881784197001252e-16
 21
56.34382946091148
  0
LINE
  5
13A
100
AcDbEntity
  8
Shape2DView
  6
ByLayer
 62
  256
370
   -1
100
AcDbLine
 10
-8.881784197001252e-16
 20
66.53052946091148
 11
-8.881784197001252e-16
 21
56.34382946091148
  0
LINE
  5
13B
100
AcDbEntity
  8
Shape2DView
  6
ByLayer
 62
  256
370
   -1
100
AcDbLine
 10
2.613333333
 20
66.53052946091148
 11
-8.881784197001252e-16
 21
66.53052946091148
  0
ARC
  5
13C
100
AcDbEntity
  8
Shape2DView
  6
ByLayer
 62
  256
370
   -1
100
AcDbCircle
 10
2.8
 20
66.53052946091148
 40
0.186666667
100
AcDbArc
 50
270
 51
90
  0
ARC
  5
13D
100
AcDbEntity
  8
Shape2DView
  6
ByLayer
 62
  256
370
   -1
100
AcDbCircle
 10
2.8
 20
66.53052946091148
 40
0.186666667
100
AcDbArc
 50
180
 51
270
  0
LINE
  5
13E
100
AcDbEntity
  8
Shape2DView
  6
ByLayer
 62
  256
370
   -1
100
AcDbLine
 10
2.8
 20
66.71719612791148
 11
2.8
 21
80.18717946091148
  0
LINE
  5
13F
100
AcDbEntity
  8
Shape2DView
  6
ByLayer
 62
  256
370
   -1
100
AcDbLine
 10
2.8
 20
80.18717946091148
 11
15.019983333
 21
80.18717946091148
  0
ARC
  5
140
100
AcDbEntity
  8
Shape2DView
  6
ByLayer
 62
  256
370
   -1
100
AcDbCircle
 10
15.20665
 20
80.18717946091148
 40
0.186666667
100
AcDbArc
 50
0
 51
90
  0
ARC
  5
141
100
AcDbEntity
  8
Shape2DView
  6
ByLayer
 62
  256
370
   -1
100
AcDbCircle
 10
15.20665
 20
80.18717946091148
 40
0.186666667
100
AcDbArc
 50
180
 51
0
  0
LINE
  5
142
100
AcDbEntity
  8
Shape2DView
  6
ByLayer
 62
  256
370
   -1
100
AcDbLine
 10
15.20665
 20
80.37384612791148
 11
15.20665
 21
82.98717946091148
  0
LINE
  5
143
100
AcDbEntity
  8
Shape2DView
  6
ByLayer
 62
  256
370
   -1
100
AcDbLine
 10
25.39335
 20
82.98717946091148
 11
15.20665
 21
82.98717946091148
  0
LINE
  5
144
100
AcDbEntity
  8
Shape2DView
  6
ByLayer
 62
  256
370
   -1
100
AcDbLine
 10
25.39335
 20
80.37384612791148
 11
25.39335
 21
82.98717946091148
  0
ARC
  5
145
100
AcDbEntity
  8
Shape2DView
  6
ByLayer
 62
  256
370
   -1
100
AcDbCircle
 10
25.39335
 20
80.18717946091148
 40
0.186666667
100
AcDbArc
 50
180
 51
0
  0
ARC
  5
146
100
AcDbEntity
  8
Shape2DView
  6
ByLayer
 62
  256
370
   -1
100
AcDbCircle
 10
25.39335
 20
80.18717946091148
 40
0.186666667
100
AcDbArc
 50
90
 51
180
  0
LINE
  5
147
100
AcDbEntity
  8
Shape2DView
  6
ByLayer
 62
  256
370
   -1
100
AcDbLine
 10
25.58001666699999
 20
80.18717946091148
 11
37.8
 21
80.18717946091148
  0
LINE
  5
148
100
AcDbEntity
  8
Shape2DView
  6
ByLayer
 62
  256
370
   -1
100
AcDbLine
 10
37.8
 20
80.18717946091148
 11
37.8
 21
70.20728160591148
  0
ARC
  5
149
100
AcDbEntity
  8
Shape2DView
  6
ByLayer
 62
  256
370
   -1
100
AcDbCircle
 10
37.8
 20
70.02061493891148
 40
0.186666667
100
AcDbArc
 50
270
 51
0
  0
ARC
  5
14A
100
AcDbEntity
  8
Shape2DView
  6
ByLayer
 62
  256
370
   -1
100
AcDbCircle
 10
37.8
 20
70.02061493891148
 40
0.186666667
100
AcDbArc
 50
90
 51
270
  0
LINE
  5
14B
100
AcDbEntity
  8
Shape2DView
  6
ByLayer
 62
  256
370
   -1
100
AcDbLine
 10
37.986666667
 20
70.02061493891148
 11
40.59999999999999
 21
70.02061493891148
  0
LINE
  5
14C
100
AcDbEntity
  8
Shape2DView
  6
ByLayer
 62
  256
370
   -1
100
AcDbLine
 10
40.59999999999999
 20
59.83391493891148
 11
40.59999999999999
 21
70.02061493891148
  0
LINE
  5
14D
100
AcDbEntity
  8
Shape2DView
  6
ByLayer
 62
  256
370
   -1
100
AcDbLine
 10
37.986666667
 20
59.83391493891148
 11
40.59999999999999
 21
59.83391493891148
  0
ARC
  5
14E
100
AcDbEntity
  8
Shape2DView
  6
ByLayer
 62
  256
370
   -1
100
AcDbCircle
 10
37.8
 20
59.83391493891148
 40
0.186666667
100
AcDbArc
 50
90
 51
270
  0
ARC
  5
14F
100
AcDbEntity
  8
Shape2DView
  6
ByLayer
 62
  256
370
   -1
100
AcDbCircle
 10
37.8
 20
59.83391493891148
 40
0.186666667
100
AcDbArc
 50
0
 51
90
  0
LINE
  5
150
100
AcDbEntity
  8
Shape2DView
  6
ByLayer
 62
  256
370
   -1
100
AcDbLine
 10
37.8
 20
59.64724827291148
 11
37.8
 21
49.66735041691148
  0
LINE
  5
151
100
AcDbEntity
  8
Shape2DView
  6
ByLayer
 62
  256
370
   -1
100
AcDbLine
 10
37.8
 20
49.66735041691148
 11
59.59907221599999
 21
41.73313699591148
  0
ARC
  5
152
100
AcDbEntity
  8
Shape2DView
  6
ByLayer
 62
  256
370
   -1
100
AcDbCircle
 10
59.774481505
 20
41.66929323591147
 40
0.186666667
100
AcDbArc
 50
340
 51
70.00000000000003
  0
ARC
  5
153
100
AcDbEntity
  8
Shape2DView
  6
ByLayer
 62
  256
370
   -1
100
AcDbCircle
 10
59.774481505
 20
41.66929323591147
 40
0.186666667
100
AcDbArc
 50
160
 51
340
  0
LINE
  5
154
100
AcDbEntity
  8
Shape2DView
  6
ByLayer
 62
  256
370
   -1
100
AcDbLine
 10
59.83832526500002
 20
41.84470252491148
 11
60.732137906
 21
44.30043257391148
  0
LINE
  5
155
100
AcDbEntity
  8
Shape2DView
  6
ByLayer
 62
  256
370
   -1
100
AcDbLine
 10
70.304504726
 20
40.81637597991148
 11
60.732137906
 21
44.30043257391148
  0
LINE
  5
156
100
AcDbEntity
  8
Shape2DView
  6
ByLayer
 62
  256
370
   -1
100
AcDbLine
 10
69.41069208499999
 20
38.36064593091147
 11
70.304504726
 21
40.81637597991148
  0
LINE
  5
157
100
AcDbEntity
  8
Shape2DView
  6
ByLayer
 62
  256
370
   -1
100
AcDbLine
 10
52.038082852
 20
34.71840992991148
 11
51.18303249399999
 21
32.36917837791147
  0
ARC
  5
158
100
AcDbEntity
  8
Shape2DView
  6
ByLayer
 62
  256
370
   -1
100
AcDbCircle
 10
49.21900499
 20
35.74447035991147
 40
3
100
AcDbArc
 50
340
 51
70.00000000000003
  0
LINE
  5
159
100
AcDbEntity
  8
Shape2DView
  6
ByLayer
 62
  256
370
   -1
100
AcDbLine
 10
44.137063385
 20
40.78667915391148
 11
50.24506542
 21
38.56354822291148
  0
ARC
  5
15A
100
AcDbEntity
  8
Shape2DView
  6
ByLayer
 62
  256
370
   -1
100
AcDbCircle
 10
43.11100295499998
 20
37.96760129191148
 40
3
100
AcDbArc
 50
70
 51
160
  0
LINE
  5
15B
100
AcDbEntity
  8
Shape2DView
  6
ByLayer
 62
  256
370
   -1
100
AcDbLine
 10
39.436874734
 20
36.64443016991148
 11
40.291925092
 21
38.99366172191148
  0
ARC
  5
15C
100
AcDbEntity
  8
Shape2DView
  6
ByLayer
 62
  256
370
   -1
100
AcDbCircle
 10
42.255952596
 20
35.61836973991148
 40
3
100
AcDbArc
 50
160
 51
250
  0
LINE
  5
15D
100
AcDbEntity
  8
Shape2DView
  6
ByLayer
 62
  256
370
   -1
100
AcDbLine
 10
47.337894202
 20
30.57616094591148
 11
41.229892166
 21
32.79929187691148
  0
ARC
  5
15E
100
AcDbEntity
  8
Shape2DView
  6
ByLayer
 62
  256
370
   -1
100
AcDbCircle
 10
48.363954632
 20
33.39523880791148
 40
3
100
AcDbArc
 50
250
 51
340
  0
ARC
  5
15F
100
AcDbEntity
  8
Shape2DView
  6
ByLayer
 62
  256
370
   -1
100
AcDbCircle
 10
71.831462866
 20
9.672204236911483
 40
0.755
100
AcDbArc
 50
250
 51
70
  0
LINE
  5
160
100
AcDbEntity
  8
Shape2DView
  6
ByLayer
 62
  256
370
   -1
100
AcDbLine
 10
72.08968807399999
 20
10.38167216491148
 11
60.813376624
 21
14.48591388491148
  0
ARC
  5
161
100
AcDbEntity
  8
Shape2DView
  6
ByLayer
 62
  256
370
   -1
100
AcDbCircle
 10
60.55515141600002
 20
13.77644595591148
 40
0.755
100
AcDbArc
 50
70
 51
250
  0
LINE
  5
162
100
AcDbEntity
  8
Shape2DView
  6
ByLayer
 62
  256
370
   -1
100
AcDbLine
 10
71.57323765700001
 20
8.96273630791147
 11
60.296926208
 21
13.06697802791147
  0
ARC
  5
163
100
AcDbEntity
  8
Shape2DView
  6
ByLayer
 62
  256
370
   -1
100
AcDbCircle
 10
41.761299
 20
20.61684882291148
 40
0.755
100
AcDbArc
 50
250
 51
70
  0
LINE
  5
164
100
AcDbEntity
  8
Shape2DView
  6
ByLayer
 62
  256
370
   -1
100
AcDbLine
 10
42.019524209
 20
21.32631675191148
 11
30.74321275900001
 21
25.43055847191147
  0
ARC
  5
165
100
AcDbEntity
  8
Shape2DView
  6
ByLayer
 62
  256
370
   -1
100
AcDbCircle
 10
30.48498755099999
 20
24.72109054291148
 40
0.755
100
AcDbArc
 50
70
 51
250
  0
LINE
  5
166
100
AcDbEntity
  8
Shape2DView
  6
ByLayer
 62
  256
370
   -1
100
AcDbLine
 10
41.503073792
 20
19.90738089391148
 11
30.226762343
 21
24.01162261391148
  0
ARC
  5
167
100
AcDbEntity
  8
Shape2DView
  6
ByLayer
 62
  256
370
   -1
100
AcDbCircle
 10
32.155
 20
72.48717946091148
 40
0.755
100
AcDbArc
 50
0
 51
180
  0
LINE
  5
168
100
AcDbEntity
  8
Shape2DView
  6
ByLayer
 62
  256
370
   -1
100
AcDbLine
 10
31.4
 20
72.48717946091148
 11
31.4
 21
60.48717946091148
  0
ARC
  5
169
100
AcDbEntity
  8
Shape2DView
  6
ByLayer
 62
  256
370
   -1
100
AcDbCircle
 10
32.155
 20
60.48717946091148
 40
0.755
100
AcDbArc
 50
180
 51
0
  0
LINE
  5
16A
100
AcDbEntity
  8
Shape2DView
  6
ByLayer
 62
  256
370
   -1
100
AcDbLine
 10
32.90999999999998
 20
72.48717946091148
 11
32.90999999999998
 21
60.48717946091148
  0
ARC
  5
16B
100
AcDbEntity
  8
Shape2DView
  6
ByLayer
 62
  256
370
   -1
100
AcDbCircle
 10
43.756797467
 20
23.61420205991148
 40
1.5
100
AcDbArc
 50
250
 51
70
  0
LINE
  5
16C
100
AcDbEntity
  8
Shape2DView
  6
ByLayer
 62
  256
370
   -1
100
AcDbLine
 10
44.269827682
 20
25.02374099191147
 11
40.41708793699998
 21
26.42602357891148
  0
ARC
  5
16D
100
AcDbEntity
  8
Shape2DView
  6
ByLayer
 62
  256
370
   -1
100
AcDbCircle
 10
39.904057722
 20
25.01648464791148
 40
1.5
100
AcDbArc
 50
70
 51
250
  0
LINE
  5
16E
100
AcDbEntity
  8
Shape2DView
  6
ByLayer
 62
  256
370
   -1
100
AcDbLine
 10
43.243767252
 20
22.20466312891148
 11
39.39102750699998
 21
23.60694571691148
  0
ARC
  5
16F
100
AcDbEntity
  8
Shape2DView001
  6
ByLayer
 62
  256
370
   -1
100
AcDbCircle
 10
141.853151675
 20
38.18523664191148
 40
0.186666667
100
AcDbArc
 50
20
 51
110
  0
ARC
  5
170
100
AcDbEntity
  8
Shape2DView001
  6
ByLayer
 62
  256
370
   -1
100
AcDbCircle
 10
141.853151675
 20
38.18523664191148
 40
0.186666667
100
AcDbArc
 50
200
 51
20
  0
LINE
  5
171
100
AcDbEntity
  8
Shape2DView001
  6
ByLayer
 62
  256
370
   -1
100
AcDbLine
 10
141.677742386
 20
38.12139288191148
 11
119.87867017
 21
30.18717946091148
  0
LINE
  5
172
100
AcDbEntity
  8
Shape2DView001
  6
ByLayer
 62
  256
370
   -1
100
AcDbLine
 10
119.87867017
 20
30.18717946091148
 11
114.419116656
 21
45.18717946091148
  0
LINE
  5
173
100
AcDbEntity
  8
Shape2DView001
  6
ByLayer
 62
  256
370
   -1
100
AcDbLine
 10
113.4
 20
45.18717946091148
 11
113.4
 21
30.46719612791148
  0
ARC
  5
174
100
AcDbEntity
  8
Shape2DView001
  6
ByLayer
 62
  256
370
   -1
100
AcDbCircle
 10
113.4
 20
30.28052946091147
 40
0.186666667
100
AcDbArc
 50
270
 51
90
  0
ARC
  5
175
100
AcDbEntity
  8
Shape2DView001
  6
ByLayer
 62
  256
370
   -1
100
AcDbCircle
 10
113.4
 20
30.28052946091147
 40
0.186666667
100
AcDbArc
 50
180
 51
270
  0
LINE
  5
176
100
AcDbEntity
  8
Shape2DView001
  6
ByLayer
 62
  256
370
   -1
100
AcDbLine
 10
114.419116656
 20
45.18717946091148
 11
113.4
 21
45.18717946091148
  0
LINE
  5
177
100
AcDbEntity
  8
Shape2DView001
  6
ByLayer
 62
  256
370
   -1
100
AcDbLine
 10
113.213333333
 20
30.28052946091147
 11
110.6
 21
30.28052946091147
  0
LINE
  5
178
100
AcDbEntity
  8
Shape2DView001
  6
ByLayer
 62
  256
370
   -1
100
AcDbLine
 10
110.6
 20
20.09382946091148
 11
110.6
 21
30.28052946091147
  0
LINE
  5
179
100
AcDbEntity
  8
Shape2DView001
  6
ByLayer
 62
  256
370
   -1
100
AcDbLine
 10
113.213333333
 20
20.09382946091148
 11
110.6
 21
20.09382946091148
  0
ARC
  5
17A
100
AcDbEntity
  8
Shape2DView001
  6
ByLayer
 62
  256
370
   -1
100
AcDbCircle
 10
113.4
 20
20.09382946091148
 40
0.186666667
100
AcDbArc
 50
90
 51
180
  0
ARC
  5
17B
100
AcDbEntity
  8
Shape2DView001
  6
ByLayer
 62
  256
370
   -1
100
AcDbCircle
 10
113.4
 20
20.09382946091148
 40
0.186666667
100
AcDbArc
 50
270
 51
90
  0
LINE
  5
17C
100
AcDbEntity
  8
Shape2DView001
  6
ByLayer
 62
  256
370
   -1
100
AcDbLine
 10
113.4
 20
19.90716279391147
 11
113.4
 21
5.18717946091148
  0
LINE
  5
17D
100
AcDbEntity
  8
Shape2DView001
  6
ByLayer
 62
  256
370
   -1
100
AcDbLine
 10
113.4
 20
5.18717946091148
 11
131.8699833329999
 21
5.18717946091148
  0
ARC
  5
17E
100
AcDbEntity
  8
Shape2DView001
  6
ByLayer
 62
  256
370
   -1
100
AcDbCircle
 10
132.05665
 20
5.18717946091148
 40
0.186666667
100
AcDbArc
 50
0
 51
180
  0
ARC
  5
17F
100
AcDbEntity
  8
Shape2DView001
  6
ByLayer
 62
  256
370
   -1
100
AcDbCircle
 10
132.05665
 20
5.18717946091148
 40
0.186666667
100
AcDbArc
 50
270
 51
0
  0
LINE
  5
180
100
AcDbEntity
  8
Shape2DView001
  6
ByLayer
 62
  256
370
   -1
100
AcDbLine
 10
132.05665
 20
5.000512793911483
 11
132.05665
 21
2.387179460911483
  0
LINE
  5
181
100
AcDbEntity
  8
Shape2DView001
  6
ByLayer
 62
  256
370
   -1
100
AcDbLine
 10
142.24335
 20
2.387179460911483
 11
132.05665
 21
2.387179460911483
  0
LINE
  5
182
100
AcDbEntity
  8
Shape2DView001
  6
ByLayer
 62
  256
370
   -1
100
AcDbLine
 10
142.24335
 20
5.000512793911483
 11
142.24335
 21
2.387179460911483
  0
ARC
  5
183
100
AcDbEntity
  8
Shape2DView001
  6
ByLayer
 62
  256
370
   -1
100
AcDbCircle
 10
142.24335
 20
5.18717946091148
 40
0.186666667
100
AcDbArc
 50
180
 51
270
  0
ARC
  5
184
100
AcDbEntity
  8
Shape2DView001
  6
ByLayer
 62
  256
370
   -1
100
AcDbCircle
 10
142.24335
 20
5.18717946091148
 40
0.186666667
100
AcDbArc
 50
0
 51
180
  0
LINE
  5
185
100
AcDbEntity
  8
Shape2DView001
  6
ByLayer
 62
  256
370
   -1
100
AcDbLine
 10
142.430016667
 20
5.18717946091148
 11
179.3699833329999
 21
5.18717946091148
  0
ARC
  5
186
100
AcDbEntity
  8
Shape2DView001
  6
ByLayer
 62
  256
370
   -1
100
AcDbCircle
 10
179.55665
 20
5.18717946091148
 40
0.186666667
100
AcDbArc
 50
0
 51
180
  0
ARC
  5
187
100
AcDbEntity
  8
Shape2DView001
  6
ByLayer
 62
  256
370
   -1
100
AcDbCircle
 10
179.55665
 20
5.18717946091148
 40
0.186666667
100
AcDbArc
 50
270
 51
0
  0
LINE
  5
188
100
AcDbEntity
  8
Shape2DView001
  6
ByLayer
 62
  256
370
   -1
100
AcDbLine
 10
179.55665
 20
5.000512793911483
 11
179.55665
 21
2.387179460911483
  0
LINE
  5
189
100
AcDbEntity
  8
Shape2DView001
  6
ByLayer
 62
  256
370
   -1
100
AcDbLine
 10
189.74335
 20
2.387179460911483
 11
179.55665
 21
2.387179460911483
  0
LINE
  5
18A
100
AcDbEntity
  8
Shape2DView001
  6
ByLayer
 62
  256
370
   -1
100
AcDbLine
 10
189.74335
 20
5.000512793911483
 11
189.74335
 21
2.387179460911483
  0
ARC
  5
18B
100
AcDbEntity
  8
Shape2DView001
  6
ByLayer
 62
  256
370
   -1
100
AcDbCircle
 10
189.74335
 20
5.18717946091148
 40
0.186666667
100
AcDbArc
 50
180
 51
270
  0
ARC
  5
18C
100
AcDbEntity
  8
Shape2DView001
  6
ByLayer
 62
  256
370
   -1
100
AcDbCircle
 10
189.74335
 20
5.18717946091148
 40
0.186666667
100
AcDbArc
 50
0
 51
180
  0
LINE
  5
18D
100
AcDbEntity
  8
Shape2DView001
  6
ByLayer
 62
  256
370
   -1
100
AcDbLine
 10
189.930016667
 20
5.18717946091148
 11
208.4000000000001
 21
5.18717946091148
  0
LINE
  5
18E
100
AcDbEntity
  8
Shape2DView001
  6
ByLayer
 62
  256
370
   -1
100
AcDbLine
 10
208.4000000000001
 20
5.18717946091148
 11
208.4000000000001
 21
18.65716279391148
  0
ARC
  5
18F
100
AcDbEntity
  8
Shape2DView001
  6
ByLayer
 62
  256
370
   -1
100
AcDbCircle
 10
208.4000000000001
 20
18.84382946091148
 40
0.186666667
100
AcDbArc
 50
90
 51
270
  0
ARC
  5
190
100
AcDbEntity
  8
Shape2DView001
  6
ByLayer
 62
  256
370
   -1
100
AcDbCircle
 10
208.4000000000001
 20
18.84382946091148
 40
0.186666667
100
AcDbArc
 50
0
 51
90
  0
LINE
  5
191
100
AcDbEntity
  8
Shape2DView001
  6
ByLayer
 62
  256
370
   -1
100
AcDbLine
 10
208.5866666670001
 20
18.84382946091148
 11
211.2
 21
18.84382946091148
  0
LINE
  5
192
100
AcDbEntity
  8
Shape2DView001
  6
ByLayer
 62
  256
370
   -1
100
AcDbLine
 10
211.2
 20
29.03052946091147
 11
211.2
 21
18.84382946091148
  0
LINE
  5
193
100
AcDbEntity
  8
Shape2DView001
  6
ByLayer
 62
  256
370
   -1
100
AcDbLine
 10
208.5866666670001
 20
29.03052946091147
 11
211.2
 21
29.03052946091147
  0
ARC
  5
194
100
AcDbEntity
  8
Shape2DView001
  6
ByLayer
 62
  256
370
   -1
100
AcDbCircle
 10
208.4000000000001
 20
29.03052946091147
 40
0.186666667
100
AcDbArc
 50
270
 51
0
  0
ARC
  5
195
100
AcDbEntity
  8
Shape2DView001
  6
ByLayer
 62
  256
370
   -1
100
AcDbCircle
 10
208.4000000000001
 20
29.03052946091147
 40
0.186666667
100
AcDbArc
 50
90
 51
270
  0
LINE
  5
196
100
AcDbEntity
  8
Shape2DView001
  6
ByLayer
 62
  256
370
   -1
100
AcDbLine
 10
208.4000000000001
 20
29.21719612791148
 11
208.4000000000001
 21
56.15716279391148
  0
ARC
  5
197
100
AcDbEntity
  8
Shape2DView001
  6
ByLayer
 62
  256
370
   -1
100
AcDbCircle
 10
208.4000000000001
 20
56.34382946091148
 40
0.186666667
100
AcDbArc
 50
90
 51
270
  0
ARC
  5
198
100
AcDbEntity
  8
Shape2DView001
  6
ByLayer
 62
  256
370
   -1
100
AcDbCircle
 10
208.4000000000001
 20
56.34382946091148
 40
0.186666667
100
AcDbArc
 50
0
 51
90
  0
LINE
  5
199
100
AcDbEntity
  8
Shape2DView001
  6
ByLayer
 62
  256
370
   -1
100
AcDbLine
 10
208.5866666670001
 20
56.34382946091148
 11
211.2
 21
56.34382946091148
  0
LINE
  5
19A
100
AcDbEntity
  8
Shape2DView001
  6
ByLayer
 62
  256
370
   -1
100
AcDbLine
 10
211.2
 20
66.53052946091148
 11
211.2
 21
56.34382946091148
  0
LINE
  5
19B
100
AcDbEntity
  8
Shape2DView001
  6
ByLayer
 62
  256
370
   -1
100
AcDbLine
 10
208.5866666670001
 20
66.53052946091148
 11
211.2
 21
66.53052946091148
  0
ARC
  5
19C
100
AcDbEntity
  8
Shape2DView001
  6
ByLayer
 62
  256
370
   -1
100
AcDbCircle
 10
208.4000000000001
 20
66.53052946091148
 40
0.186666667
100
AcDbArc
 50
270
 51
0
  0
ARC
  5
19D
100
AcDbEntity
  8
Shape2DView001
  6
ByLayer
 62
  256
370
   -1
100
AcDbCircle
 10
208.4000000000001
 20
66.53052946091148
 40
0.186666667
100
AcDbArc
 50
90
 51
270
  0
LINE
  5
19E
100
AcDbEntity
  8
Shape2DView001
  6
ByLayer
 62
  256
370
   -1
100
AcDbLine
 10
208.4000000000001
 20
66.71719612791148
 11
208.4000000000001
 21
80.18717946091148
  0
LINE
  5
19F
100
AcDbEntity
  8
Shape2DView001
  6
ByLayer
 62
  256
370
   -1
100
AcDbLine
 10
208.4000000000001
 20
80.18717946091148
 11
196.180016667
 21
80.18717946091148
  0
ARC
  5
1A0
100
AcDbEntity
  8
Shape2DView001
  6
ByLayer
 62
  256
370
   -1
100
AcDbCircle
 10
195.99335
 20
80.18717946091148
 40
0.186666667
100
AcDbArc
 50
180
 51
0
  0
ARC
  5
1A1
100
AcDbEntity
  8
Shape2DView001
  6
ByLayer
 62
  256
370
   -1
100
AcDbCircle
 10
195.99335
 20
80.18717946091148
 40
0.186666667
100
AcDbArc
 50
90
 51
180
  0
LINE
  5
1A2
100
AcDbEntity
  8
Shape2DView001
  6
ByLayer
 62
  256
370
   -1
100
AcDbLine
 10
195.99335
 20
80.37384612791148
 11
195.99335
 21
82.98717946091148
  0
LINE
  5
1A3
100
AcDbEntity
  8
Shape2DView001
  6
ByLayer
 62
  256
370
   -1
100
AcDbLine
 10
185.80665
 20
82.98717946091148
 11
195.99335
 21
82.98717946091148
  0
LINE
  5
1A4
100
AcDbEntity
  8
Shape2DView001
  6
ByLayer
 62
  256
370
   -1
100
AcDbLine
 10
185.80665
 20
80.37384612791148
 11
185.80665
 21
82.98717946091148
  0
ARC
  5
1A5
100
AcDbEntity
  8
Shape2DView001
  6
ByLayer
 62
  256
370
   -1
100
AcDbCircle
 10
185.80665
 20
80.18717946091148
 40
0.186666667
100
AcDbArc
 50
0
 51
90
  0
ARC
  5
1A6
100
AcDbEntity
  8
Shape2DView001
  6
ByLayer
 62
  256
370
   -1
100
AcDbCircle
 10
185.80665
 20
80.18717946091148
 40
0.186666667
100
AcDbArc
 50
180
 51
0
  0
LINE
  5
1A7
100
AcDbEntity
  8
Shape2DView001
  6
ByLayer
 62
  256
370
   -1
100
AcDbLine
 10
185.619983333
 20
80.18717946091148
 11
173.4
 21
80.18717946091148
  0
LINE
  5
1A8
100
AcDbEntity
  8
Shape2DView001
  6
ByLayer
 62
  256
370
   -1
100
AcDbLine
 10
173.4
 20
80.18717946091148
 11
173.4
 21
70.20728160591148
  0
ARC
  5
1A9
100
AcDbEntity
  8
Shape2DView001
  6
ByLayer
 62
  256
370
   -1
100
AcDbCircle
 10
173.4
 20
70.02061493891148
 40
0.186666667
100
AcDbArc
 50
270
 51
90
  0
ARC
  5
1AA
100
AcDbEntity
  8
Shape2DView001
  6
ByLayer
 62
  256
370
   -1
100
AcDbCircle
 10
173.4
 20
70.02061493891148
 40
0.186666667
100
AcDbArc
 50
180
 51
270
  0
LINE
  5
1AB
100
AcDbEntity
  8
Shape2DView001
  6
ByLayer
 62
  256
370
   -1
100
AcDbLine
 10
173.213333333
 20
70.02061493891148
 11
170.6
 21
70.02061493891148
  0
LINE
  5
1AC
100
AcDbEntity
  8
Shape2DView001
  6
ByLayer
 62
  256
370
   -1
100
AcDbLine
 10
170.6
 20
59.83391493891148
 11
170.6
 21
70.02061493891148
  0
LINE
  5
1AD
100
AcDbEntity
  8
Shape2DView001
  6
ByLayer
 62
  256
370
   -1
100
AcDbLine
 10
173.213333333
 20
59.83391493891148
 11
170.6
 21
59.83391493891148
  0
ARC
  5
1AE
100
AcDbEntity
  8
Shape2DView001
  6
ByLayer
 62
  256
370
   -1
100
AcDbCircle
 10
173.4
 20
59.83391493891148
 40
0.186666667
100
AcDbArc
 50
90
 51
180
  0
ARC
  5
1AF
100
AcDbEntity
  8
Shape2DView001
  6
ByLayer
 62
  256
370
   -1
100
AcDbCircle
 10
173.4
 20
59.83391493891148
 40
0.186666667
100
AcDbArc
 50
270
 51
90
  0
LINE
  5
1B0
100
AcDbEntity
  8
Shape2DView001
  6
ByLayer
 62
  256
370
   -1
100
AcDbLine
 10
173.4
 20
59.64724827291148
 11
173.4
 21
49.66735041691148
  0
LINE
  5
1B1
100
AcDbEntity
  8
Shape2DView001
  6
ByLayer
 62
  256
370
   -1
100
AcDbLine
 10
173.4
 20
49.66735041691148
 11
151.600927784
 21
41.73313699591148
  0
ARC
  5
1B2
100
AcDbEntity
  8
Shape2DView001
  6
ByLayer
 62
  256
370
   -1
100
AcDbCircle
 10
151.425518495
 20
41.66929323591147
 40
0.186666667
100
AcDbArc
 50
200
 51
20
  0
ARC
  5
1B3
100
AcDbEntity
  8
Shape2DView001
  6
ByLayer
 62
  256
370
   -1
100
AcDbCircle
 10
151.425518495
 20
41.66929323591147
 40
0.186666667
100
AcDbArc
 50
110
 51
200
  0
LINE
  5
1B4
100
AcDbEntity
  8
Shape2DView001
  6
ByLayer
 62
  256
370
   -1
100
AcDbLine
 10
151.361674735
 20
41.84470252491148
 11
150.467862094
 21
44.30043257391148
  0
LINE
  5
1B5
100
AcDbEntity
  8
Shape2DView001
  6
ByLayer
 62
  256
370
   -1
100
AcDbLine
 10
140.895495274
 20
40.81637597991148
 11
150.467862094
 21
44.30043257391148
  0
LINE
  5
1B6
100
AcDbEntity
  8
Shape2DView001
  6
ByLayer
 62
  256
370
   -1
100
AcDbLine
 10
141.7893079149999
 20
38.36064593091147
 11
140.895495274
 21
40.81637597991148
  0
ARC
  5
1B7
100
AcDbEntity
  8
Shape2DView001
  6
ByLayer
 62
  256
370
   -1
100
AcDbCircle
 10
139.368537134
 20
9.672204236911483
 40
0.755
100
AcDbArc
 50
110
 51
290
  0
LINE
  5
1B8
100
AcDbEntity
  8
Shape2DView001
  6
ByLayer
 62
  256
370
   -1
100
AcDbLine
 10
139.626762343
 20
8.96273630791147
 11
150.903073792
 21
13.06697802791147
  0
ARC
  5
1B9
100
AcDbEntity
  8
Shape2DView001
  6
ByLayer
 62
  256
370
   -1
100
AcDbCircle
 10
150.644848584
 20
13.77644595591148
 40
0.755
100
AcDbArc
 50
290
 51
110
  0
LINE
  5
1BA
100
AcDbEntity
  8
Shape2DView001
  6
ByLayer
 62
  256
370
   -1
100
AcDbLine
 10
139.110311926
 20
10.38167216491148
 11
150.386623376
 21
14.48591388491148
  0
ARC
  5
1BB
100
AcDbEntity
  8
Shape2DView001
  6
ByLayer
 62
  256
370
   -1
100
AcDbCircle
 10
169.438701
 20
20.61684882291148
 40
0.755
100
AcDbArc
 50
110
 51
290
  0
LINE
  5
1BC
100
AcDbEntity
  8
Shape2DView001
  6
ByLayer
 62
  256
370
   -1
100
AcDbLine
 10
169.696926208
 20
19.90738089391148
 11
180.973237657
 21
24.01162261391148
  0
ARC
  5
1BD
100
AcDbEntity
  8
Shape2DView001
  6
ByLayer
 62
  256
370
   -1
100
AcDbCircle
 10
180.715012449
 20
24.72109054291148
 40
0.755
100
AcDbArc
 50
290
 51
110
  0
LINE
  5
1BE
100
AcDbEntity
  8
Shape2DView001
  6
ByLayer
 62
  256
370
   -1
100
AcDbLine
 10
169.1804757909999
 20
21.32631675191148
 11
180.456787241
 21
25.43055847191147
  0
ARC
  5
1BF
100
AcDbEntity
  8
Shape2DView001
  6
ByLayer
 62
  256
370
   -1
100
AcDbCircle
 10
179.045
 20
60.48717946091148
 40
0.755
100
AcDbArc
 50
180
 51
0
  0
LINE
  5
1C0
100
AcDbEntity
  8
Shape2DView001
  6
ByLayer
 62
  256
370
   -1
100
AcDbLine
 10
179.8
 20
60.48717946091148
 11
179.8
 21
72.48717946091148
  0
ARC
  5
1C1
100
AcDbEntity
  8
Shape2DView001
  6
ByLayer
 62
  256
370
   -1
100
AcDbCircle
 10
179.045
 20
72.48717946091148
 40
0.755
100
AcDbArc
 50
0
 51
180
  0
LINE
  5
1C2
100
AcDbEntity
  8
Shape2DView001
  6
ByLayer
 62
  256
370
   -1
100
AcDbLine
 10
178.29
 20
60.48717946091148
 11
178.29
 21
72.48717946091148
  0
LINE
  5
1C3
100
AcDbEntity
  8
Shape2DView008
  6
ByLayer
 62
  256
370
   -1
100
AcDbLine
 10
85.59999999999999
 20
155.4697451471739
 11
99.59335000000002
 21
155.4697451471739
  0
LINE
  5
1C4
100
AcDbEntity
  8
Shape2DView008
  6
ByLayer
 62
  256
370
   -1
100
AcDbLine
 10
88.40000000000001
 20
99.07411669517404
 11
85.59999999999999
 21
99.07411669517404
  0
LINE
  5
1C5
100
AcDbEntity
  8
Shape2DView008
  6
ByLayer
 62
  256
370
   -1
100
AcDbLine
 10
88.40000000000001
 20
97.67411669517404
 11
88.40000000000001
 21
99.07411669517404
  0
LINE
  5
1C6
100
AcDbEntity
  8
Shape2DView008
  6
ByLayer
 62
  256
370
   -1
100
AcDbLine
 10
99.538042757
 20
97.67411669517404
 11
88.40000000000001
 21
97.67411669517404
  0
ELLIPSE
  5
1C7
100
AcDbEntity
  8
Shape2DView008
  6
ByLayer
 62
  256
370
   -1
100
AcDbEllipse
 10
99.68979333300001
 20
97.54740789117392
 30
0
 11
0
 21
0.205265703
 31
0
 40
0.939692621
 41
-5.759586532
 42
-5.377684492
  0
LINE
  5
1C8
100
AcDbEntity
  8
Shape2DView008
  6
ByLayer
 62
  256
370
   -1
100
AcDbLine
 10
99.59335000000002
 20
100.2433624231739
 11
99.59335000000002
 21
97.72517320417404
  0
ELLIPSE
  5
1C9
100
AcDbEntity
  8
Shape2DView008
  6
ByLayer
 62
  256
370
   -1
100
AcDbEllipse
 10
99.68979333300001
 20
100.421127736174
 30
0
 11
0
 21
0.205265703
 31
0
 40
0.939692621
 41
-4.71238898
 42
-3.665191429
  0
ELLIPSE
  5
1CA
100
AcDbEntity
  8
Shape2DView008
  6
ByLayer
 62
  256
370
   -1
100
AcDbEllipse
 10
99.68979333300001
 20
100.421127736174
 30
0
 11
0
 21
0.205265703
 31
0
 40
0.939692621
 41
-1.047197551
 42
-4.71238898
  0
LINE
  5
1CB
100
AcDbEntity
  8
Shape2DView008
  6
ByLayer
 62
  256
370
   -1
100
AcDbLine
 10
109.143161913
 20
100.523760588174
 11
99.856838087
 21
100.523760588174
  0
ELLIPSE
  5
1CC
100
AcDbEntity
  8
Shape2DView008
  6
ByLayer
 62
  256
370
   -1
100
AcDbEllipse
 10
109.310206667
 20
100.421127736174
 30
0
 11
0
 21
0.205265703
 31
0
 40
0.939692621
 41
-1.570796327
 42
-5.235987756
  0
ELLIPSE
  5
1CD
100
AcDbEntity
  8
Shape2DView008
  6
ByLayer
 62
  256
370
   -1
100
AcDbEllipse
 10
109.310206667
 20
100.421127736174
 30
0
 11
0
 21
0.205265703
 31
0
 40
0.939692621
 41
-2.617993878
 42
-1.570796327
  0
LINE
  5
1CE
100
AcDbEntity
  8
Shape2DView008
  6
ByLayer
 62
  256
370
   -1
100
AcDbLine
 10
109.40665
 20
100.2433624231739
 11
109.40665
 21
97.72517320417404
  0
ELLIPSE
  5
1CF
100
AcDbEntity
  8
Shape2DView008
  6
ByLayer
 62
  256
370
   -1
100
AcDbEllipse
 10
109.310206667
 20
97.54740789117392
 30
0
 11
0
 21
0.205265703
 31
0
 40
0.939692621
 41
-0.905500815
 42
-0.523598776
  0
LINE
  5
1D0
100
AcDbEntity
  8
Shape2DView008
  6
ByLayer
 62
  256
370
   -1
100
AcDbLine
 10
137.338042757
 20
97.67411669517404
 11
109.461957243
 21
97.67411669517404
  0
ELLIPSE
  5
1D1
100
AcDbEntity
  8
Shape2DView008
  6
ByLayer
 62
  256
370
   -1
100
AcDbEllipse
 10
137.489793333
 20
97.54740789117392
 30
0
 11
0
 21
0.205265703
 31
0
 40
0.939692621
 41
-5.759586532
 42
-5.377684492
  0
LINE
  5
1D2
100
AcDbEntity
  8
Shape2DView008
  6
ByLayer
 62
  256
370
   -1
100
AcDbLine
 10
137.39335
 20
100.2433624231739
 11
137.39335
 21
97.72517320417404
  0
ELLIPSE
  5
1D3
100
AcDbEntity
  8
Shape2DView008
  6
ByLayer
 62
  256
370
   -1
100
AcDbEllipse
 10
137.489793333
 20
100.421127736174
 30
0
 11
0
 21
0.205265703
 31
0
 40
0.939692621
 41
-4.71238898
 42
-3.665191429
  0
ELLIPSE
  5
1D4
100
AcDbEntity
  8
Shape2DView008
  6
ByLayer
 62
  256
370
   -1
100
AcDbEllipse
 10
137.489793333
 20
100.421127736174
 30
0
 11
0
 21
0.205265703
 31
0
 40
0.939692621
 41
-1.047197551
 42
-4.71238898
  0
LINE
  5
1D5
100
AcDbEntity
  8
Shape2DView008
  6
ByLayer
 62
  256
370
   -1
100
AcDbLine
 10
146.943161913
 20
100.523760588174
 11
137.656838087
 21
100.523760588174
  0
ELLIPSE
  5
1D6
100
AcDbEntity
  8
Shape2DView008
  6
ByLayer
 62
  256
370
   -1
100
AcDbEllipse
 10
147.110206667
 20
100.421127736174
 30
0
 11
0
 21
0.205265703
 31
0
 40
0.939692621
 41
-1.570796327
 42
-5.235987756
  0
ELLIPSE
  5
1D7
100
AcDbEntity
  8
Shape2DView008
  6
ByLayer
 62
  256
370
   -1
100
AcDbEllipse
 10
147.110206667
 20
100.421127736174
 30
0
 11
0
 21
0.205265703
 31
0
 40
0.939692621
 41
-2.617993878
 42
-1.570796327
  0
LINE
  5
1D8
100
AcDbEntity
  8
Shape2DView008
  6
ByLayer
 62
  256
370
   -1
100
AcDbLine
 10
147.20665
 20
100.2433624231739
 11
147.20665
 21
97.72517320417404
  0
ELLIPSE
  5
1D9
100
AcDbEntity
  8
Shape2DView008
  6
ByLayer
 62
  256
370
   -1
100
AcDbEllipse
 10
147.110206667
 20
97.54740789117392
 30
0
 11
0
 21
0.205265703
 31
0
 40
0.939692621
 41
-0.905500815
 42
-0.523598776
  0
LINE
  5
1DA
100
AcDbEntity
  8
Shape2DView008
  6
ByLayer
 62
  256
370
   -1
100
AcDbLine
 10
158.4
 20
97.67411669517404
 11
147.261957243
 21
97.67411669517404
  0
LINE
  5
1DB
100
AcDbEntity
  8
Shape2DView008
  6
ByLayer
 62
  256
370
   -1
100
AcDbLine
 10
158.4
 20
99.07411669517404
 11
158.4
 21
97.67411669517404
  0
LINE
  5
1DC
100
AcDbEntity
  8
Shape2DView008
  6
ByLayer
 62
  256
370
   -1
100
AcDbLine
 10
161.2
 20
99.07411669517404
 11
158.4
 21
99.07411669517404
  0
LINE
  5
1DD
100
AcDbEntity
  8
Shape2DView008
  6
ByLayer
 62
  256
370
   -1
100
AcDbLine
 10
161.2
 20
122.084990367174
 11
161.2
 21
99.07411669517404
  0
LINE
  5
1DE
100
AcDbEntity
  8
Shape2DView008
  6
ByLayer
 62
  256
370
   -1
100
AcDbLine
 10
158.625339318
 20
122.084990367174
 11
161.2
 21
122.084990367174
  0
ARC
  5
1DF
100
AcDbEntity
  8
Shape2DView008
  6
ByLayer
 62
  256
370
   -1
100
AcDbCircle
 10
158.452905
 20
122.1845453671739
 40
0.19911
100
AcDbArc
 50
120
 51
-30
  0
LINE
  5
1E0
100
AcDbEntity
  8
Shape2DView008
  6
ByLayer
 62
  256
370
   -1
100
AcDbLine
 10
158.35335
 20
131.6263010491739
 11
158.35335
 21
122.3569796851739
  0
ARC
  5
1E1
100
AcDbEntity
  8
Shape2DView008
  6
ByLayer
 62
  256
370
   -1
100
AcDbCircle
 10
158.452905
 20
131.7987353671739
 40
0.19911
100
AcDbArc
 50
30
 51
-120
  0
LINE
  5
1E2
100
AcDbEntity
  8
Shape2DView008
  6
ByLayer
 62
  256
370
   -1
100
AcDbLine
 10
158.625339318
 20
131.898290367174
 11
161.2
 21
131.898290367174
  0
LINE
  5
1E3
100
AcDbEntity
  8
Shape2DView008
  6
ByLayer
 62
  256
370
   -1
100
AcDbLine
 10
161.2
 20
155.4697451471739
 11
161.2
 21
131.898290367174
  0
LINE
  5
1E4
100
AcDbEntity
  8
Shape2DView008
  6
ByLayer
 62
  256
370
   -1
100
AcDbLine
 10
147.20665
 20
155.4697451471739
 11
161.2
 21
155.4697451471739
  0
LINE
  5
1E5
100
AcDbEntity
  8
Shape2DView008
  6
ByLayer
 62
  256
370
   -1
100
AcDbLine
 10
147.20665
 20
155.4697451471739
 11
147.20665
 21
152.8950844651739
  0
ARC
  5
1E6
100
AcDbEntity
  8
Shape2DView008
  6
ByLayer
 62
  256
370
   -1
100
AcDbCircle
 10
147.107095
 20
152.7226501471739
 40
0.19911
100
AcDbArc
 50
-90
 51
59.99999999999999
  0
ARC
  5
1E7
100
AcDbEntity
  8
Shape2DView008
  6
ByLayer
 62
  256
370
   -1
100
AcDbCircle
 10
147.107095
 20
152.7226501471739
 40
0.19911
100
AcDbArc
 50
-150
 51
-90
  0
LINE
  5
1E8
100
AcDbEntity
  8
Shape2DView008
  6
ByLayer
 62
  256
370
   -1
100
AcDbLine
 10
137.665339318
 20
152.623095147174
 11
146.934660682
 21
152.623095147174
  0
ARC
  5
1E9
100
AcDbEntity
  8
Shape2DView008
  6
ByLayer
 62
  256
370
   -1
100
AcDbCircle
 10
137.492905
 20
152.7226501471739
 40
0.19911
100
AcDbArc
 50
-90
 51
-30
  0
ARC
  5
1EA
100
AcDbEntity
  8
Shape2DView008
  6
ByLayer
 62
  256
370
   -1
100
AcDbCircle
 10
137.492905
 20
152.7226501471739
 40
0.19911
100
AcDbArc
 50
120
 51
-90
  0
LINE
  5
1EB
100
AcDbEntity
  8
Shape2DView008
  6
ByLayer
 62
  256
370
   -1
100
AcDbLine
 10
137.39335
 20
155.4697451471739
 11
137.39335
 21
152.8950844651739
  0
LINE
  5
1EC
100
AcDbEntity
  8
Shape2DView008
  6
ByLayer
 62
  256
370
   -1
100
AcDbLine
 10
109.40665
 20
155.4697451471739
 11
137.39335
 21
155.4697451471739
  0
LINE
  5
1ED
100
AcDbEntity
  8
Shape2DView008
  6
ByLayer
 62
  256
370
   -1
100
AcDbLine
 10
109.40665
 20
155.4697451471739
 11
109.40665
 21
152.8950844651739
  0
ARC
  5
1EE
100
AcDbEntity
  8
Shape2DView008
  6
ByLayer
 62
  256
370
   -1
100
AcDbCircle
 10
109.307095
 20
152.7226501471739
 40
0.19911
100
AcDbArc
 50
-90
 51
59.99999999999999
  0
ARC
  5
1EF
100
AcDbEntity
  8
Shape2DView008
  6
ByLayer
 62
  256
370
   -1
100
AcDbCircle
 10
109.307095
 20
152.7226501471739
 40
0.19911
100
AcDbArc
 50
-150
 51
-90
  0
LINE
  5
1F0
100
AcDbEntity
  8
Shape2DView008
  6
ByLayer
 62
  256
370
   -1
100
AcDbLine
 10
99.865339318
 20
152.623095147174
 11
109.134660682
 21
152.623095147174
  0
ARC
  5
1F1
100
AcDbEntity
  8
Shape2DView008
  6
ByLayer
 62
  256
370
   -1
100
AcDbCircle
 10
99.692905
 20
152.7226501471739
 40
0.19911
100
AcDbArc
 50
-90
 51
-30
  0
ARC
  5
1F2
100
AcDbEntity
  8
Shape2DView008
  6
ByLayer
 62
  256
370
   -1
100
AcDbCircle
 10
99.692905
 20
152.7226501471739
 40
0.19911
100
AcDbArc
 50
120
 51
-90
  0
LINE
  5
1F3
100
AcDbEntity
  8
Shape2DView008
  6
ByLayer
 62
  256
370
   -1
100
AcDbLine
 10
99.59335000000002
 20
155.4697451471739
 11
99.59335000000002
 21
152.8950844651739
  0
LINE
  5
1F4
100
AcDbEntity
  8
Shape2DView008
  6
ByLayer
 62
  256
370
   -1
100
AcDbLine
 10
85.59999999999999
 20
131.898290367174
 11
85.59999999999999
 21
155.4697451471739
  0
LINE
  5
1F5
100
AcDbEntity
  8
Shape2DView008
  6
ByLayer
 62
  256
370
   -1
100
AcDbLine
 10
85.59999999999999
 20
131.898290367174
 11
88.174660682
 21
131.898290367174
  0
ARC
  5
1F6
100
AcDbEntity
  8
Shape2DView008
  6
ByLayer
 62
  256
370
   -1
100
AcDbCircle
 10
88.347095
 20
131.7987353671739
 40
0.19911
100
AcDbArc
 50
0
 51
150
  0
ARC
  5
1F7
100
AcDbEntity
  8
Shape2DView008
  6
ByLayer
 62
  256
370
   -1
100
AcDbCircle
 10
88.347095
 20
131.7987353671739
 40
0.19911
100
AcDbArc
 50
-59.99999999999999
 51
0
  0
LINE
  5
1F8
100
AcDbEntity
  8
Shape2DView008
  6
ByLayer
 62
  256
370
   -1
100
AcDbLine
 10
88.44665000000001
 20
131.6263010491739
 11
88.44665000000001
 21
122.3569796851739
  0
ARC
  5
1F9
100
AcDbEntity
  8
Shape2DView008
  6
ByLayer
 62
  256
370
   -1
100
AcDbCircle
 10
88.347095
 20
122.1845453671739
 40
0.19911
100
AcDbArc
 50
0
 51
59.99999999999999
  0
ARC
  5
1FA
100
AcDbEntity
  8
Shape2DView008
  6
ByLayer
 62
  256
370
   -1
100
AcDbCircle
 10
88.347095
 20
122.1845453671739
 40
0.19911
100
AcDbArc
 50
-150
 51
0
  0
LINE
  5
1FB
100
AcDbEntity
  8
Shape2DView008
  6
ByLayer
 62
  256
370
   -1
100
AcDbLine
 10
85.59999999999999
 20
122.084990367174
 11
88.174660682
 21
122.084990367174
  0
LINE
  5
1FC
100
AcDbEntity
  8
Shape2DView008
  6
ByLayer
 62
  256
370
   -1
100
AcDbLine
 10
85.59999999999999
 20
99.07411669517404
 11
85.59999999999999
 21
122.084990367174
  0
CIRCLE
  5
1FD
100
AcDbEntity
  8
Shape2DView008
  6
ByLayer
 62
  256
370
   -1
100
AcDbCircle
 10
121.9
 20
106.674116695174
 40
2
  0
LINE
  5
1FE
100
AcDbEntity
  8
Shape2DView007
  6
ByLayer
 62
  256
370
   -1
100
AcDbLine
 10
160.659550623
 20
199.3577832198692
 11
159.2
 21
198.8104517358691
  0
LINE
  5
1FF
100
AcDbEntity
  8
Shape2DView007
  6
ByLayer
 62
  256
370
   -1
100
AcDbLine
 10
159.2
 20
198.8104517358691
 11
159.2
 21
199.5604517358691
  0
LINE
  5
200
100
AcDbEntity
  8
Shape2DView007
  6
ByLayer
 62
  256
370
   -1
100
AcDbLine
 10
156.4
 20
199.5604517358691
 11
159.2
 21
199.5604517358691
  0
LINE
  5
201
100
AcDbEntity
  8
Shape2DView007
  6
ByLayer
 62
  256
370
   -1
100
AcDbLine
 10
156.4
 20
201.0391615868691
 11
156.4
 21
199.5604517358691
  0
ARC
  5
202
100
AcDbEntity
  8
Shape2DView007
  6
ByLayer
 62
  256
370
   -1
100
AcDbCircle
 10
156
 20
201.0391615868691
 40
0.4
100
AcDbArc
 50
0
 51
105
  0
LINE
  5
203
100
AcDbEntity
  8
Shape2DView007
  6
ByLayer
 62
  256
370
   -1
100
AcDbLine
 10
148.935898385
 20
199.5604517358691
 11
155.896472382
 21
201.4255319168691
  0
LINE
  5
204
100
AcDbEntity
  8
Shape2DView007
  6
ByLayer
 62
  256
370
   -1
100
AcDbLine
 10
137.75665
 20
199.5604517358691
 11
148.935898385
 21
199.5604517358691
  0
LINE
  5
205
100
AcDbEntity
  8
Shape2DView007
  6
ByLayer
 62
  256
370
   -1
100
AcDbLine
 10
137.75665
 20
199.5604517358691
 11
137.75665
 21
196.9857910538691
  0
ARC
  5
206
100
AcDbEntity
  8
Shape2DView007
  6
ByLayer
 62
  256
370
   -1
100
AcDbCircle
 10
137.657095
 20
196.8133567358691
 40
0.19911
100
AcDbArc
 50
-90
 51
59.99999999999999
  0
ARC
  5
207
100
AcDbEntity
  8
Shape2DView007
  6
ByLayer
 62
  256
370
   -1
100
AcDbCircle
 10
137.657095
 20
196.8133567358691
 40
0.19911
100
AcDbArc
 50
-150
 51
-90
  0
LINE
  5
208
100
AcDbEntity
  8
Shape2DView007
  6
ByLayer
 62
  256
370
   -1
100
AcDbLine
 10
137.484660682
 20
196.7138017358691
 11
128.215339318
 21
196.7138017358691
  0
ARC
  5
209
100
AcDbEntity
  8
Shape2DView007
  6
ByLayer
 62
  256
370
   -1
100
AcDbCircle
 10
128.042905
 20
196.8133567358691
 40
0.19911
100
AcDbArc
 50
-90
 51
-30
  0
ARC
  5
20A
100
AcDbEntity
  8
Shape2DView007
  6
ByLayer
 62
  256
370
   -1
100
AcDbCircle
 10
128.042905
 20
196.8133567358691
 40
0.19911
100
AcDbArc
 50
120
 51
-90
  0
LINE
  5
20B
100
AcDbEntity
  8
Shape2DView007
  6
ByLayer
 62
  256
370
   -1
100
AcDbLine
 10
127.94335
 20
199.5604517358691
 11
127.94335
 21
196.9857910538691
  0
LINE
  5
20C
100
AcDbEntity
  8
Shape2DView007
  6
ByLayer
 62
  256
370
   -1
100
AcDbLine
 10
118.85665
 20
199.5604517358691
 11
127.94335
 21
199.5604517358691
  0
LINE
  5
20D
100
AcDbEntity
  8
Shape2DView007
  6
ByLayer
 62
  256
370
   -1
100
AcDbLine
 10
118.85665
 20
199.5604517358691
 11
118.85665
 21
196.9857910538691
  0
ARC
  5
20E
100
AcDbEntity
  8
Shape2DView007
  6
ByLayer
 62
  256
370
   -1
100
AcDbCircle
 10
118.757095
 20
196.8133567358691
 40
0.19911
100
AcDbArc
 50
-90
 51
59.99999999999999
  0
ARC
  5
20F
100
AcDbEntity
  8
Shape2DView007
  6
ByLayer
 62
  256
370
   -1
100
AcDbCircle
 10
118.757095
 20
196.8133567358691
 40
0.19911
100
AcDbArc
 50
-150
 51
-90
  0
LINE
  5
210
100
AcDbEntity
  8
Shape2DView007
  6
ByLayer
 62
  256
370
   -1
100
AcDbLine
 10
118.584660682
 20
196.7138017358691
 11
109.315339318
 21
196.7138017358691
  0
ARC
  5
211
100
AcDbEntity
  8
Shape2DView007
  6
ByLayer
 62
  256
370
   -1
100
AcDbCircle
 10
109.142905
 20
196.8133567358691
 40
0.19911
100
AcDbArc
 50
-90
 51
-30
  0
ARC
  5
212
100
AcDbEntity
  8
Shape2DView007
  6
ByLayer
 62
  256
370
   -1
100
AcDbCircle
 10
109.142905
 20
196.8133567358691
 40
0.19911
100
AcDbArc
 50
120
 51
-90
  0
LINE
  5
213
100
AcDbEntity
  8
Shape2DView007
  6
ByLayer
 62
  256
370
   -1
100
AcDbLine
 10
109.04335
 20
199.5604517358691
 11
109.04335
 21
196.9857910538691
  0
LINE
  5
214
100
AcDbEntity
  8
Shape2DView007
  6
ByLayer
 62
  256
370
   -1
100
AcDbLine
 10
97.864101615
 20
199.5604517358691
 11
109.04335
 21
199.5604517358691
  0
LINE
  5
215
100
AcDbEntity
  8
Shape2DView007
  6
ByLayer
 62
  256
370
   -1
100
AcDbLine
 10
90.903527618
 20
201.4255319168691
 11
97.864101615
 21
199.5604517358691
  0
ARC
  5
216
100
AcDbEntity
  8
Shape2DView007
  6
ByLayer
 62
  256
370
   -1
100
AcDbCircle
 10
90.8
 20
201.0391615868691
 40
0.4
100
AcDbArc
 50
75
 51
180
  0
LINE
  5
217
100
AcDbEntity
  8
Shape2DView007
  6
ByLayer
 62
  256
370
   -1
100
AcDbLine
 10
90.40000000000001
 20
199.5604517358691
 11
90.40000000000001
 21
201.0391615868691
  0
LINE
  5
218
100
AcDbEntity
  8
Shape2DView007
  6
ByLayer
 62
  256
370
   -1
100
AcDbLine
 10
87.59999999999999
 20
199.5604517358691
 11
90.40000000000001
 21
199.5604517358691
  0
LINE
  5
219
100
AcDbEntity
  8
Shape2DView007
  6
ByLayer
 62
  256
370
   -1
100
AcDbLine
 10
87.59999999999999
 20
200.3104517358691
 11
87.59999999999999
 21
199.5604517358691
  0
LINE
  5
21A
100
AcDbEntity
  8
Shape2DView007
  6
ByLayer
 62
  256
370
   -1
100
AcDbLine
 10
85.859550623
 20
199.6577832198691
 11
87.59999999999999
 21
200.3104517358691
  0
ARC
  5
21B
100
AcDbEntity
  8
Shape2DView007
  6
ByLayer
 62
  256
370
   -1
100
AcDbCircle
 10
86
 20
199.2832515488691
 40
0.4
100
AcDbArc
 50
110.55604522
 51
180
  0
LINE
  5
21C
100
AcDbEntity
  8
Shape2DView007
  6
ByLayer
 62
  256
370
   -1
100
AcDbLine
 10
85.59999999999999
 20
197.1604517358691
 11
85.59999999999999
 21
199.2832515488691
  0
ARC
  5
21D
100
AcDbEntity
  8
Shape2DView007
  6
ByLayer
 62
  256
370
   -1
100
AcDbCircle
 10
86
 20
197.1604517358691
 40
0.4
100
AcDbArc
 50
180
 51
-90
  0
LINE
  5
21E
100
AcDbEntity
  8
Shape2DView007
  6
ByLayer
 62
  256
370
   -1
100
AcDbLine
 10
99.59999999999999
 20
196.7604517358691
 11
86
 21
196.7604517358691
  0
ARC
  5
21F
100
AcDbEntity
  8
Shape2DView007
  6
ByLayer
 62
  256
370
   -1
100
AcDbCircle
 10
99.59999999999999
 20
196.360451735869
 40
0.4
100
AcDbArc
 50
-90
 51
90
  0
LINE
  5
220
100
AcDbEntity
  8
Shape2DView007
  6
ByLayer
 62
  256
370
   -1
100
AcDbLine
 10
86
 20
195.9604517358692
 11
99.59999999999999
 21
195.9604517358692
  0
ARC
  5
221
100
AcDbEntity
  8
Shape2DView007
  6
ByLayer
 62
  256
370
   -1
100
AcDbCircle
 10
86
 20
195.5604517358691
 40
0.4
100
AcDbArc
 50
90
 51
180
  0
LINE
  5
222
100
AcDbEntity
  8
Shape2DView007
  6
ByLayer
 62
  256
370
   -1
100
AcDbLine
 10
85.59999999999999
 20
184.1671017358691
 11
85.59999999999999
 21
195.5604517358691
  0
LINE
  5
223
100
AcDbEntity
  8
Shape2DView007
  6
ByLayer
 62
  256
370
   -1
100
AcDbLine
 10
85.59999999999999
 20
184.1671017358691
 11
88.174660682
 21
184.1671017358691
  0
ARC
  5
224
100
AcDbEntity
  8
Shape2DView007
  6
ByLayer
 62
  256
370
   -1
100
AcDbCircle
 10
88.347095
 20
184.0675467358691
 40
0.19911
100
AcDbArc
 50
0
 51
150
  0
ARC
  5
225
100
AcDbEntity
  8
Shape2DView007
  6
ByLayer
 62
  256
370
   -1
100
AcDbCircle
 10
88.347095
 20
184.0675467358691
 40
0.19911
100
AcDbArc
 50
-59.99999999999999
 51
0
  0
LINE
  5
226
100
AcDbEntity
  8
Shape2DView007
  6
ByLayer
 62
  256
370
   -1
100
AcDbLine
 10
88.44665000000001
 20
183.8951124178691
 11
88.44665000000001
 21
174.6257910538691
  0
ARC
  5
227
100
AcDbEntity
  8
Shape2DView007
  6
ByLayer
 62
  256
370
   -1
100
AcDbCircle
 10
88.347095
 20
174.4533567358691
 40
0.19911
100
AcDbArc
 50
0
 51
59.99999999999999
  0
ARC
  5
228
100
AcDbEntity
  8
Shape2DView007
  6
ByLayer
 62
  256
370
   -1
100
AcDbCircle
 10
88.347095
 20
174.4533567358691
 40
0.19911
100
AcDbArc
 50
-150
 51
0
  0
LINE
  5
229
100
AcDbEntity
  8
Shape2DView007
  6
ByLayer
 62
  256
370
   -1
100
AcDbLine
 10
85.59999999999999
 20
174.3538017358691
 11
88.174660682
 21
174.3538017358691
  0
LINE
  5
22A
100
AcDbEntity
  8
Shape2DView007
  6
ByLayer
 62
  256
370
   -1
100
AcDbLine
 10
85.59999999999999
 20
162.9604517358691
 11
85.59999999999999
 21
174.3538017358691
  0
ARC
  5
22B
100
AcDbEntity
  8
Shape2DView007
  6
ByLayer
 62
  256
370
   -1
100
AcDbCircle
 10
86
 20
162.9604517358691
 40
0.4
100
AcDbArc
 50
180
 51
-90
  0
LINE
  5
22C
100
AcDbEntity
  8
Shape2DView007
  6
ByLayer
 62
  256
370
   -1
100
AcDbLine
 10
99.59999999999999
 20
162.5604517358691
 11
86
 21
162.5604517358691
  0
ARC
  5
22D
100
AcDbEntity
  8
Shape2DView007
  6
ByLayer
 62
  256
370
   -1
100
AcDbCircle
 10
99.59999999999999
 20
162.1604517358691
 40
0.4
100
AcDbArc
 50
-90
 51
90
  0
LINE
  5
22E
100
AcDbEntity
  8
Shape2DView007
  6
ByLayer
 62
  256
370
   -1
100
AcDbLine
 10
86
 20
161.7604517358691
 11
99.59999999999999
 21
161.7604517358691
  0
ARC
  5
22F
100
AcDbEntity
  8
Shape2DView007
  6
ByLayer
 62
  256
370
   -1
100
AcDbCircle
 10
86
 20
161.360451735869
 40
0.4
100
AcDbArc
 50
90
 51
180
  0
LINE
  5
230
100
AcDbEntity
  8
Shape2DView007
  6
ByLayer
 62
  256
370
   -1
100
AcDbLine
 10
85.59999999999999
 20
159.237651922869
 11
85.59999999999999
 21
161.360451735869
  0
ARC
  5
231
100
AcDbEntity
  8
Shape2DView007
  6
ByLayer
 62
  256
370
   -1
100
AcDbCircle
 10
86
 20
159.237651922869
 40
0.4
100
AcDbArc
 50
180
 51
-110.55604522
  0
LINE
  5
232
100
AcDbEntity
  8
Shape2DView007
  6
ByLayer
 62
  256
370
   -1
100
AcDbLine
 10
85.859550623
 20
158.863120251869
 11
87.59999999999999
 21
158.2104517358691
  0
LINE
  5
233
100
AcDbEntity
  8
Shape2DView007
  6
ByLayer
 62
  256
370
   -1
100
AcDbLine
 10
87.59999999999999
 20
158.2104517358691
 11
87.59999999999999
 21
158.9604517358691
  0
LINE
  5
234
100
AcDbEntity
  8
Shape2DView007
  6
ByLayer
 62
  256
370
   -1
100
AcDbLine
 10
90.40000000000001
 20
158.9604517358691
 11
87.59999999999999
 21
158.9604517358691
  0
LINE
  5
235
100
AcDbEntity
  8
Shape2DView007
  6
ByLayer
 62
  256
370
   -1
100
AcDbLine
 10
90.40000000000001
 20
157.4817418848691
 11
90.40000000000001
 21
158.9604517358691
  0
ARC
  5
236
100
AcDbEntity
  8
Shape2DView007
  6
ByLayer
 62
  256
370
   -1
100
AcDbCircle
 10
90.8
 20
157.4817418848691
 40
0.4
100
AcDbArc
 50
180
 51
-75
  0
LINE
  5
237
100
AcDbEntity
  8
Shape2DView007
  6
ByLayer
 62
  256
370
   -1
100
AcDbLine
 10
97.864101615
 20
158.9604517358691
 11
90.903527618
 21
157.095371554869
  0
LINE
  5
238
100
AcDbEntity
  8
Shape2DView007
  6
ByLayer
 62
  256
370
   -1
100
AcDbLine
 10
107.15335
 20
158.9604517358691
 11
97.864101615
 21
158.9604517358691
  0
LINE
  5
239
100
AcDbEntity
  8
Shape2DView007
  6
ByLayer
 62
  256
370
   -1
100
AcDbLine
 10
107.15335
 20
158.9604517358691
 11
107.15335
 21
161.5351124178691
  0
ARC
  5
23A
100
AcDbEntity
  8
Shape2DView007
  6
ByLayer
 62
  256
370
   -1
100
AcDbCircle
 10
107.252905
 20
161.7075467358691
 40
0.19911
100
AcDbArc
 50
90
 51
-120
  0
ARC
  5
23B
100
AcDbEntity
  8
Shape2DView007
  6
ByLayer
 62
  256
370
   -1
100
AcDbCircle
 10
107.252905
 20
161.7075467358691
 40
0.19911
100
AcDbArc
 50
30
 51
90
  0
LINE
  5
23C
100
AcDbEntity
  8
Shape2DView007
  6
ByLayer
 62
  256
370
   -1
100
AcDbLine
 10
107.425339318
 20
161.8071017358691
 11
116.694660682
 21
161.8071017358691
  0
ARC
  5
23D
100
AcDbEntity
  8
Shape2DView007
  6
ByLayer
 62
  256
370
   -1
100
AcDbCircle
 10
116.867095
 20
161.7075467358691
 40
0.19911
100
AcDbArc
 50
90
 51
150
  0
ARC
  5
23E
100
AcDbEntity
  8
Shape2DView007
  6
ByLayer
 62
  256
370
   -1
100
AcDbCircle
 10
116.867095
 20
161.7075467358691
 40
0.19911
100
AcDbArc
 50
-59.99999999999999
 51
90
  0
LINE
  5
23F
100
AcDbEntity
  8
Shape2DView007
  6
ByLayer
 62
  256
370
   -1
100
AcDbLine
 10
116.96665
 20
158.9604517358691
 11
116.96665
 21
161.5351124178691
  0
LINE
  5
240
100
AcDbEntity
  8
Shape2DView007
  6
ByLayer
 62
  256
370
   -1
100
AcDbLine
 10
129.83335
 20
158.9604517358691
 11
116.96665
 21
158.9604517358691
  0
LINE
  5
241
100
AcDbEntity
  8
Shape2DView007
  6
ByLayer
 62
  256
370
   -1
100
AcDbLine
 10
129.83335
 20
158.9604517358691
 11
129.83335
 21
161.5351124178691
  0
ARC
  5
242
100
AcDbEntity
  8
Shape2DView007
  6
ByLayer
 62
  256
370
   -1
100
AcDbCircle
 10
129.932905
 20
161.7075467358691
 40
0.19911
100
AcDbArc
 50
90
 51
-120
  0
ARC
  5
243
100
AcDbEntity
  8
Shape2DView007
  6
ByLayer
 62
  256
370
   -1
100
AcDbCircle
 10
129.932905
 20
161.7075467358691
 40
0.19911
100
AcDbArc
 50
30
 51
90
  0
LINE
  5
244
100
AcDbEntity
  8
Shape2DView007
  6
ByLayer
 62
  256
370
   -1
100
AcDbLine
 10
130.105339318
 20
161.8071017358691
 11
139.374660682
 21
161.8071017358691
  0
ARC
  5
245
100
AcDbEntity
  8
Shape2DView007
  6
ByLayer
 62
  256
370
   -1
100
AcDbCircle
 10
139.547095
 20
161.7075467358691
 40
0.19911
100
AcDbArc
 50
90
 51
150
  0
ARC
  5
246
100
AcDbEntity
  8
Shape2DView007
  6
ByLayer
 62
  256
370
   -1
100
AcDbCircle
 10
139.547095
 20
161.7075467358691
 40
0.19911
100
AcDbArc
 50
-59.99999999999999
 51
90
  0
LINE
  5
247
100
AcDbEntity
  8
Shape2DView007
  6
ByLayer
 62
  256
370
   -1
100
AcDbLine
 10
139.64665
 20
158.9604517358691
 11
139.64665
 21
161.5351124178691
  0
LINE
  5
248
100
AcDbEntity
  8
Shape2DView007
  6
ByLayer
 62
  256
370
   -1
100
AcDbLine
 10
148.935898385
 20
158.9604517358691
 11
139.64665
 21
158.9604517358691
  0
LINE
  5
249
100
AcDbEntity
  8
Shape2DView007
  6
ByLayer
 62
  256
370
   -1
100
AcDbLine
 10
155.896472382
 20
157.095371554869
 11
148.935898385
 21
158.9604517358691
  0
ARC
  5
24A
100
AcDbEntity
  8
Shape2DView007
  6
ByLayer
 62
  256
370
   -1
100
AcDbCircle
 10
156
 20
157.4817418848691
 40
0.4
100
AcDbArc
 50
-105
 51
0
  0
LINE
  5
24B
100
AcDbEntity
  8
Shape2DView007
  6
ByLayer
 62
  256
370
   -1
100
AcDbLine
 10
156.4
 20
158.9604517358691
 11
156.4
 21
157.4817418848691
  0
LINE
  5
24C
100
AcDbEntity
  8
Shape2DView007
  6
ByLayer
 62
  256
370
   -1
100
AcDbLine
 10
159.2
 20
158.9604517358691
 11
156.4
 21
158.9604517358691
  0
LINE
  5
24D
100
AcDbEntity
  8
Shape2DView007
  6
ByLayer
 62
  256
370
   -1
100
AcDbLine
 10
159.2
 20
158.2104517358691
 11
159.2
 21
158.9604517358691
  0
LINE
  5
24E
100
AcDbEntity
  8
Shape2DView007
  6
ByLayer
 62
  256
370
   -1
100
AcDbLine
 10
160.940449377
 20
158.863120251869
 11
159.2
 21
158.2104517358691
  0
ARC
  5
24F
100
AcDbEntity
  8
Shape2DView007
  6
ByLayer
 62
  256
370
   -1
100
AcDbCircle
 10
160.8
 20
159.237651922869
 40
0.4
100
AcDbArc
 50
-69.44395478
 51
0
  0
LINE
  5
250
100
AcDbEntity
  8
Shape2DView007
  6
ByLayer
 62
  256
370
   -1
100
AcDbLine
 10
161.2
 20
161.360451735869
 11
161.2
 21
159.237651922869
  0
ARC
  5
251
100
AcDbEntity
  8
Shape2DView007
  6
ByLayer
 62
  256
370
   -1
100
AcDbCircle
 10
160.8
 20
161.360451735869
 40
0.4
100
AcDbArc
 50
0
 51
90
  0
LINE
  5
252
100
AcDbEntity
  8
Shape2DView007
  6
ByLayer
 62
  256
370
   -1
100
AcDbLine
 10
147.2
 20
161.7604517358691
 11
160.8
 21
161.7604517358691
  0
ARC
  5
253
100
AcDbEntity
  8
Shape2DView007
  6
ByLayer
 62
  256
370
   -1
100
AcDbCircle
 10
147.2
 20
162.1604517358691
 40
0.4
100
AcDbArc
 50
90
 51
-90
  0
LINE
  5
254
100
AcDbEntity
  8
Shape2DView007
  6
ByLayer
 62
  256
370
   -1
100
AcDbLine
 10
160.8
 20
162.5604517358691
 11
147.2
 21
162.5604517358691
  0
ARC
  5
255
100
AcDbEntity
  8
Shape2DView007
  6
ByLayer
 62
  256
370
   -1
100
AcDbCircle
 10
160.8
 20
162.9604517358691
 40
0.4
100
AcDbArc
 50
-90
 51
0
  0
LINE
  5
256
100
AcDbEntity
  8
Shape2DView007
  6
ByLayer
 62
  256
370
   -1
100
AcDbLine
 10
161.2
 20
174.3538017358691
 11
161.2
 21
162.9604517358691
  0
LINE
  5
257
100
AcDbEntity
  8
Shape2DView007
  6
ByLayer
 62
  256
370
   -1
100
AcDbLine
 10
158.625339318
 20
174.3538017358691
 11
161.2
 21
174.3538017358691
  0
ARC
  5
258
100
AcDbEntity
  8
Shape2DView007
  6
ByLayer
 62
  256
370
   -1
100
AcDbCircle
 10
158.452905
 20
174.4533567358691
 40
0.19911
100
AcDbArc
 50
120
 51
-30
  0
LINE
  5
259
100
AcDbEntity
  8
Shape2DView007
  6
ByLayer
 62
  256
370
   -1
100
AcDbLine
 10
158.35335
 20
183.8951124178691
 11
158.35335
 21
174.6257910538691
  0
ARC
  5
25A
100
AcDbEntity
  8
Shape2DView007
  6
ByLayer
 62
  256
370
   -1
100
AcDbCircle
 10
158.452905
 20
184.0675467358691
 40
0.19911
100
AcDbArc
 50
30
 51
-120
  0
LINE
  5
25B
100
AcDbEntity
  8
Shape2DView007
  6
ByLayer
 62
  256
370
   -1
100
AcDbLine
 10
158.625339318
 20
184.1671017358691
 11
161.2
 21
184.1671017358691
  0
LINE
  5
25C
100
AcDbEntity
  8
Shape2DView007
  6
ByLayer
 62
  256
370
   -1
100
AcDbLine
 10
161.2
 20
195.5604517358691
 11
161.2
 21
184.1671017358691
  0
ARC
  5
25D
100
AcDbEntity
  8
Shape2DView007
  6
ByLayer
 62
  256
370
   -1
100
AcDbCircle
 10
160.8
 20
195.5604517358691
 40
0.4
100
AcDbArc
 50
0
 51
90
  0
LINE
  5
25E
100
AcDbEntity
  8
Shape2DView007
  6
ByLayer
 62
  256
370
   -1
100
AcDbLine
 10
147.2
 20
195.9604517358692
 11
160.8
 21
195.9604517358692
  0
ARC
  5
25F
100
AcDbEntity
  8
Shape2DView007
  6
ByLayer
 62
  256
370
   -1
100
AcDbCircle
 10
147.2
 20
196.360451735869
 40
0.4
100
AcDbArc
 50
90
 51
-90
  0
LINE
  5
260
100
AcDbEntity
  8
Shape2DView007
  6
ByLayer
 62
  256
370
   -1
100
AcDbLine
 10
160.8
 20
196.7604517358691
 11
147.2
 21
196.7604517358691
  0
ARC
  5
261
100
AcDbEntity
  8
Shape2DView007
  6
ByLayer
 62
  256
370
   -1
100
AcDbCircle
 10
160.8
 20
197.1604517358691
 40
0.4
100
AcDbArc
 50
-90
 51
0
  0
LINE
  5
262
100
AcDbEntity
  8
Shape2DView007
  6
ByLayer
 62
  256
370
   -1
100
AcDbLine
 10
161.2
 20
198.9832515488692
 11
161.2
 21
197.1604517358691
  0
ARC
  5
263
100
AcDbEntity
  8
Shape2DView007
  6
ByLayer
 62
  256
370
   -1
100
AcDbCircle
 10
160.8
 20
198.9832515488692
 40
0.4
100
AcDbArc
 50
0
 51
110.55604522
  0
CIRCLE
  5
264
100
AcDbEntity
  8
Shape2DView007
  6
ByLayer
 62
  256
370
   -1
100
AcDbCircle
 10
110.6
 20
172.2604517358691
 40
8.5
  0
LINE
  5
265
100
AcDbEntity
  8
Shape2DView007
  6
ByLayer
 62
  256
370
   -1
100
AcDbLine
 10
120.55
 20
166.6604517358691
 11
126.25
 21
166.6604517358691
  0
ARC
  5
266
100
AcDbEntity
  8
Shape2DView007
  6
ByLayer
 62
  256
370
   -1
100
AcDbCircle
 10
120.55
 20
164.1604517358691
 40
2.5
100
AcDbArc
 50
90
 51
-90
  0
ARC
  5
267
100
AcDbEntity
  8
Shape2DView007
  6
ByLayer
 62
  256
370
   -1
100
AcDbCircle
 10
126.25
 20
164.1604517358691
 40
2.5
100
AcDbArc
 50
-90
 51
90
  0
LINE
  5
268
100
AcDbEntity
  8
Shape2DView007
  6
ByLayer
 62
  256
370
   -1
100
AcDbLine
 10
120.55
 20
161.6604517358691
 11
126.25
 21
161.6604517358691
  0
LINE
  5
269
100
AcDbEntity
  8
Shape2DView007
  6
ByLayer
 62
  256
370
   -1
100
AcDbLine
 10
99.40000000000001
 20
191.8704517358691
 11
111.4
 21
191.8704517358691
  0
ARC
  5
26A
100
AcDbEntity
  8
Shape2DView007
  6
ByLayer
 62
  256
370
   -1
100
AcDbCircle
 10
99.40000000000001
 20
191.115451735869
 40
0.755
100
AcDbArc
 50
90
 51
-90
  0
ARC
  5
26B
100
AcDbEntity
  8
Shape2DView007
  6
ByLayer
 62
  256
370
   -1
100
AcDbCircle
 10
111.4
 20
191.115451735869
 40
0.755
100
AcDbArc
 50
-90
 51
90
  0
LINE
  5
26C
100
AcDbEntity
  8
Shape2DView007
  6
ByLayer
 62
  256
370
   -1
100
AcDbLine
 10
99.40000000000001
 20
190.360451735869
 11
111.4
 21
190.360451735869
  0
CIRCLE
  5
26D
100
AcDbEntity
  8
Shape2DView007
  6
ByLayer
 62
  256
370
   -1
100
AcDbCircle
 10
136.2
 20
172.2604517358691
 40
8.5
  0
LINE
  5
26E
100
AcDbEntity
  8
Shape2DView007
  6
ByLayer
 62
  256
370
   -1
100
AcDbLine
 10
135.4
 20
191.8704517358691
 11
147.4
 21
191.8704517358691
  0
ARC
  5
26F
100
AcDbEntity
  8
Shape2DView007
  6
ByLayer
 62
  256
370
   -1
100
AcDbCircle
 10
135.4
 20
191.115451735869
 40
0.755
100
AcDbArc
 50
90
 51
-90
  0
ARC
  5
270
100
AcDbEntity
  8
Shape2DView007
  6
ByLayer
 62
  256
370
   -1
100
AcDbCircle
 10
147.4
 20
191.115451735869
 40
0.755
100
AcDbArc
 50
-90
 51
90
  0
LINE
  5
271
100
AcDbEntity
  8
Shape2DView007
  6
ByLayer
 62
  256
370
   -1
100
AcDbLine
 10
135.4
 20
190.360451735869
 11
147.4
 21
190.360451735869
  0
LINE
  5
272
100
AcDbEntity
  8
Shape2DView002
  6
ByLayer
 62
  256
370
   -1
100
AcDbLine
 10
161.2395635561298
 20
77.72333631992223
 11
158.6649028741298
 21
77.72333631992223
  0
LINE
  5
273
100
AcDbEntity
  8
Shape2DView002
  6
ByLayer
 62
  256
370
   -1
100
AcDbLine
 10
161.2395635561298
 20
77.72333631992223
 11
161.2395635561298
 21
92.81668631992224
  0
LINE
  5
274
100
AcDbEntity
  8
Shape2DView002
  6
ByLayer
 62
  256
370
   -1
100
AcDbLine
 10
138.1695802231297
 20
92.81668631992224
 11
161.2395635561298
 21
92.81668631992224
  0
ARC
  5
275
100
AcDbEntity
  8
Shape2DView002
  6
ByLayer
 62
  256
370
   -1
100
AcDbCircle
 10
137.9829135561297
 20
92.81668631992224
 40
0.186666667
100
AcDbArc
 50
90
 51
180
  0
ARC
  5
276
100
AcDbEntity
  8
Shape2DView002
  6
ByLayer
 62
  256
370
   -1
100
AcDbCircle
 10
137.9829135561297
 20
92.81668631992224
 40
0.186666667
100
AcDbArc
 50
180
 51
-0
  0
LINE
  5
277
100
AcDbEntity
  8
Shape2DView002
  6
ByLayer
 62
  256
370
   -1
100
AcDbLine
 10
137.9829135561297
 20
93.00335298692224
 11
137.9829135561297
 21
95.61668631992222
  0
LINE
  5
278
100
AcDbEntity
  8
Shape2DView002
  6
ByLayer
 62
  256
370
   -1
100
AcDbLine
 10
137.9829135561297
 20
95.61668631992222
 11
127.7962135561298
 21
95.61668631992222
  0
ARC
  5
279
100
AcDbEntity
  8
Shape2DView002
  6
ByLayer
 62
  256
370
   -1
100
AcDbCircle
 10
127.7962135561298
 20
92.81668631992224
 40
0.186666667
100
AcDbArc
 50
180
 51
0
  0
ARC
  5
27A
100
AcDbEntity
  8
Shape2DView002
  6
ByLayer
 62
  256
370
   -1
100
AcDbCircle
 10
127.7962135561298
 20
92.81668631992224
 40
0.186666667
100
AcDbArc
 50
0
 51
90
  0
LINE
  5
27B
100
AcDbEntity
  8
Shape2DView002
  6
ByLayer
 62
  256
370
   -1
100
AcDbLine
 10
119.2695802231298
 20
92.81668631992224
 11
127.6095468891298
 21
92.81668631992224
  0
ARC
  5
27C
100
AcDbEntity
  8
Shape2DView002
  6
ByLayer
 62
  256
370
   -1
100
AcDbCircle
 10
119.0829135561298
 20
92.81668631992224
 40
0.186666667
100
AcDbArc
 50
90
 51
180
  0
ARC
  5
27D
100
AcDbEntity
  8
Shape2DView002
  6
ByLayer
 62
  256
370
   -1
100
AcDbCircle
 10
119.0829135561298
 20
92.81668631992224
 40
0.186666667
100
AcDbArc
 50
180
 51
0
  0
LINE
  5
27E
100
AcDbEntity
  8
Shape2DView002
  6
ByLayer
 62
  256
370
   -1
100
AcDbLine
 10
127.7962135561298
 20
93.00335298692224
 11
127.7962135561298
 21
95.61668631992222
  0
LINE
  5
27F
100
AcDbEntity
  8
Shape2DView002
  6
ByLayer
 62
  256
370
   -1
100
AcDbLine
 10
119.0829135561298
 20
93.00335298692224
 11
119.0829135561298
 21
95.61668631992222
  0
LINE
  5
280
100
AcDbEntity
  8
Shape2DView002
  6
ByLayer
 62
  256
370
   -1
100
AcDbLine
 10
119.0829135561298
 20
95.61668631992222
 11
108.8962135561298
 21
95.61668631992222
  0
LINE
  5
281
100
AcDbEntity
  8
Shape2DView002
  6
ByLayer
 62
  256
370
   -1
100
AcDbLine
 10
85.63956355612976
 20
50.01668631992226
 11
87.63956355612976
 21
49.26668631992226
  0
LINE
  5
282
100
AcDbEntity
  8
Shape2DView002
  6
ByLayer
 62
  256
370
   -1
100
AcDbLine
 10
85.63956355612976
 20
50.01668631992226
 11
85.63956355612976
 21
52.81668631992226
  0
LINE
  5
283
100
AcDbEntity
  8
Shape2DView002
  6
ByLayer
 62
  256
370
   -1
100
AcDbLine
 10
87.63956355612976
 20
49.26668631992226
 11
87.63956355612976
 21
50.01668631992226
  0
LINE
  5
284
100
AcDbEntity
  8
Shape2DView002
  6
ByLayer
 62
  256
370
   -1
100
AcDbLine
 10
85.63956355612976
 20
52.81668631992226
 11
99.63956355612976
 21
52.81668631992226
  0
LINE
  5
285
100
AcDbEntity
  8
Shape2DView002
  6
ByLayer
 62
  256
370
   -1
100
AcDbLine
 10
87.63956355612976
 20
50.01668631992226
 11
90.43956355612977
 21
50.01668631992226
  0
LINE
  5
286
100
AcDbEntity
  8
Shape2DView002
  6
ByLayer
 62
  256
370
   -1
100
AcDbLine
 10
90.43956355612977
 20
50.01668631992226
 11
90.43956355612977
 21
48.01668631992226
  0
LINE
  5
287
100
AcDbEntity
  8
Shape2DView002
  6
ByLayer
 62
  256
370
   -1
100
AcDbLine
 10
90.43956355612977
 20
48.01668631992226
 11
97.90366517112977
 21
50.01668631992226
  0
LINE
  5
288
100
AcDbEntity
  8
Shape2DView002
  6
ByLayer
 62
  256
370
   -1
100
AcDbLine
 10
97.90366517112977
 20
50.01668631992226
 11
148.9754619411298
 21
50.01668631992226
  0
LINE
  5
289
100
AcDbEntity
  8
Shape2DView002
  6
ByLayer
 62
  256
370
   -1
100
AcDbLine
 10
148.9754619411298
 20
50.01668631992226
 11
156.4395635561298
 21
48.01668631992226
  0
LINE
  5
28A
100
AcDbEntity
  8
Shape2DView002
  6
ByLayer
 62
  256
370
   -1
100
AcDbLine
 10
156.4395635561298
 20
48.01668631992226
 11
156.4395635561298
 21
50.01668631992226
  0
LINE
  5
28B
100
AcDbEntity
  8
Shape2DView002
  6
ByLayer
 62
  256
370
   -1
100
AcDbLine
 10
159.2395635561298
 20
50.01668631992226
 11
156.4395635561298
 21
50.01668631992226
  0
LINE
  5
28C
100
AcDbEntity
  8
Shape2DView002
  6
ByLayer
 62
  256
370
   -1
100
AcDbLine
 10
159.2395635561298
 20
49.26668631992226
 11
159.2395635561298
 21
50.01668631992226
  0
LINE
  5
28D
100
AcDbEntity
  8
Shape2DView002
  6
ByLayer
 62
  256
370
   -1
100
AcDbLine
 10
161.2395635561298
 20
50.01668631992226
 11
159.2395635561298
 21
49.26668631992226
  0
LINE
  5
28E
100
AcDbEntity
  8
Shape2DView002
  6
ByLayer
 62
  256
370
   -1
100
AcDbLine
 10
161.2395635561298
 20
52.81668631992226
 11
161.2395635561298
 21
50.01668631992226
  0
LINE
  5
28F
100
AcDbEntity
  8
Shape2DView002
  6
ByLayer
 62
  256
370
   -1
100
AcDbLine
 10
161.2395635561298
 20
52.81668631992226
 11
147.2395635561298
 21
52.81668631992226
  0
ARC
  5
290
100
AcDbEntity
  8
Shape2DView002
  6
ByLayer
 62
  256
370
   -1
100
AcDbCircle
 10
147.2395635561298
 20
53.21668631992227
 40
0.4
100
AcDbArc
 50
90
 51
-90
  0
LINE
  5
291
100
AcDbEntity
  8
Shape2DView002
  6
ByLayer
 62
  256
370
   -1
100
AcDbLine
 10
147.2395635561298
 20
53.61668631992226
 11
161.2395635561298
 21
53.61668631992226
  0
LINE
  5
292
100
AcDbEntity
  8
Shape2DView002
  6
ByLayer
 62
  256
370
   -1
100
AcDbLine
 10
161.2395635561298
 20
53.61668631992226
 11
161.2395635561298
 21
67.91003631992226
  0
LINE
  5
293
100
AcDbEntity
  8
Shape2DView002
  6
ByLayer
 62
  256
370
   -1
100
AcDbLine
 10
161.2395635561298
 20
67.91003631992226
 11
158.6649028741298
 21
67.91003631992226
  0
ARC
  5
294
100
AcDbEntity
  8
Shape2DView002
  6
ByLayer
 62
  256
370
   -1
100
AcDbCircle
 10
99.63956355612976
 20
53.21668631992227
 40
0.4
100
AcDbArc
 50
-90
 51
90
  0
ARC
  5
295
100
AcDbEntity
  8
Shape2DView002
  6
ByLayer
 62
  256
370
   -1
100
AcDbCircle
 10
108.8962135561298
 20
92.81668631992224
 40
0.186666667
100
AcDbArc
 50
180
 51
0
  0
ARC
  5
296
100
AcDbEntity
  8
Shape2DView002
  6
ByLayer
 62
  256
370
   -1
100
AcDbCircle
 10
108.8962135561298
 20
92.81668631992224
 40
0.186666667
100
AcDbArc
 50
0
 51
90
  0
LINE
  5
297
100
AcDbEntity
  8
Shape2DView002
  6
ByLayer
 62
  256
370
   -1
100
AcDbLine
 10
85.63956355612976
 20
92.81668631992224
 11
108.7095468891298
 21
92.81668631992224
  0
LINE
  5
298
100
AcDbEntity
  8
Shape2DView002
  6
ByLayer
 62
  256
370
   -1
100
AcDbLine
 10
85.63956355612976
 20
77.72333631992223
 11
85.63956355612976
 21
92.81668631992224
  0
LINE
  5
299
100
AcDbEntity
  8
Shape2DView002
  6
ByLayer
 62
  256
370
   -1
100
AcDbLine
 10
88.21422423812976
 20
77.72333631992223
 11
85.63956355612976
 21
77.72333631992223
  0
ARC
  5
29A
100
AcDbEntity
  8
Shape2DView002
  6
ByLayer
 62
  256
370
   -1
100
AcDbCircle
 10
88.38665855612976
 20
77.62378131992224
 40
0.19911
100
AcDbArc
 50
-59.99999999999999
 51
150
  0
LINE
  5
29B
100
AcDbEntity
  8
Shape2DView002
  6
ByLayer
 62
  256
370
   -1
100
AcDbLine
 10
88.48621355612977
 20
77.45134700192224
 11
88.48621355612977
 21
68.18202563792227
  0
ARC
  5
29C
100
AcDbEntity
  8
Shape2DView002
  6
ByLayer
 62
  256
370
   -1
100
AcDbCircle
 10
88.38665855612976
 20
68.00959131992227
 40
0.19911
100
AcDbArc
 50
-150
 51
59.99999999999999
  0
LINE
  5
29D
100
AcDbEntity
  8
Shape2DView002
  6
ByLayer
 62
  256
370
   -1
100
AcDbLine
 10
88.21422423812976
 20
67.91003631992226
 11
85.63956355612976
 21
67.91003631992226
  0
LINE
  5
29E
100
AcDbEntity
  8
Shape2DView002
  6
ByLayer
 62
  256
370
   -1
100
AcDbLine
 10
85.63956355612976
 20
53.61668631992226
 11
85.63956355612976
 21
67.91003631992226
  0
LINE
  5
29F
100
AcDbEntity
  8
Shape2DView002
  6
ByLayer
 62
  256
370
   -1
100
AcDbLine
 10
99.63956355612976
 20
53.61668631992226
 11
85.63956355612976
 21
53.61668631992226
  0
LINE
  5
2A0
100
AcDbEntity
  8
Shape2DView002
  6
ByLayer
 62
  256
370
   -1
100
AcDbLine
 10
108.8962135561298
 20
93.00335298692224
 11
108.8962135561298
 21
95.61668631992222
  0
ARC
  5
2A1
100
AcDbEntity
  8
Shape2DView002
  6
ByLayer
 62
  256
370
   -1
100
AcDbCircle
 10
158.4924685561298
 20
68.00959131992227
 40
0.19911
100
AcDbArc
 50
180
 51
-30
  0
ARC
  5
2A2
100
AcDbEntity
  8
Shape2DView002
  6
ByLayer
 62
  256
370
   -1
100
AcDbCircle
 10
158.4924685561298
 20
68.00959131992227
 40
0.19911
100
AcDbArc
 50
120
 51
180
  0
LINE
  5
2A3
100
AcDbEntity
  8
Shape2DView002
  6
ByLayer
 62
  256
370
   -1
100
AcDbLine
 10
158.3929135561298
 20
77.45134700192224
 11
158.3929135561298
 21
68.18202563792227
  0
ARC
  5
2A4
100
AcDbEntity
  8
Shape2DView002
  6
ByLayer
 62
  256
370
   -1
100
AcDbCircle
 10
158.4924685561298
 20
77.62378131992224
 40
0.19911
100
AcDbArc
 50
180
 51
-120
  0
ARC
  5
2A5
100
AcDbEntity
  8
Shape2DView002
  6
ByLayer
 62
  256
370
   -1
100
AcDbCircle
 10
158.4924685561298
 20
77.62378131992224
 40
0.19911
100
AcDbArc
 50
30
 51
180
  0
LINE
  5
2A6
100
AcDbEntity
  8
Shape2DView004
  6
ByLayer
 62
  256
370
   -1
100
AcDbLine
 10
225.5434819933425
 20
77.47753799685319
 11
225.5434819933425
 21
74.90287731485319
  0
LINE
  5
2A7
100
AcDbEntity
  8
Shape2DView004
  6
ByLayer
 62
  256
370
   -1
100
AcDbLine
 10
218.1699152343425
 20
77.47753799685319
 11
225.5434819933425
 21
77.47753799685319
  0
LINE
  5
2A8
100
AcDbEntity
  8
Shape2DView004
  6
ByLayer
 62
  256
370
   -1
100
AcDbLine
 10
218.1699152343425
 20
63.8575546638532
 11
218.1699152343425
 21
77.47753799685319
  0
ARC
  5
2A9
100
AcDbEntity
  8
Shape2DView004
  6
ByLayer
 62
  256
370
   -1
100
AcDbCircle
 10
218.1699152343425
 20
63.6708879968532
 40
0.186666667
100
AcDbArc
 50
180
 51
270
  0
ARC
  5
2AA
100
AcDbEntity
  8
Shape2DView004
  6
ByLayer
 62
  256
370
   -1
100
AcDbCircle
 10
218.1699152343425
 20
63.6708879968532
 40
0.186666667
100
AcDbArc
 50
270
 51
90
  0
LINE
  5
2AB
100
AcDbEntity
  8
Shape2DView004
  6
ByLayer
 62
  256
370
   -1
100
AcDbLine
 10
217.9832485683425
 20
63.6708879968532
 11
215.3699152343425
 21
63.6708879968532
  0
LINE
  5
2AC
100
AcDbEntity
  8
Shape2DView004
  6
ByLayer
 62
  256
370
   -1
100
AcDbLine
 10
215.3699152343425
 20
63.6708879968532
 11
215.3699152343425
 21
53.48418799685323
  0
ARC
  5
2AD
100
AcDbEntity
  8
Shape2DView004
  6
ByLayer
 62
  256
370
   -1
100
AcDbCircle
 10
218.1699152343425
 20
53.48418799685323
 40
0.186666667
100
AcDbArc
 50
270
 51
90
  0
ARC
  5
2AE
100
AcDbEntity
  8
Shape2DView004
  6
ByLayer
 62
  256
370
   -1
100
AcDbCircle
 10
218.1699152343425
 20
53.48418799685323
 40
0.186666667
100
AcDbArc
 50
90
 51
180
  0
LINE
  5
2AF
100
AcDbEntity
  8
Shape2DView004
  6
ByLayer
 62
  256
370
   -1
100
AcDbLine
 10
218.1699152343425
 20
26.05755466385319
 11
218.1699152343425
 21
53.29752132985318
  0
ARC
  5
2B0
100
AcDbEntity
  8
Shape2DView004
  6
ByLayer
 62
  256
370
   -1
100
AcDbCircle
 10
218.1699152343425
 20
25.87088799685319
 40
0.186666667
100
AcDbArc
 50
180
 51
270
  0
ARC
  5
2B1
100
AcDbEntity
  8
Shape2DView004
  6
ByLayer
 62
  256
370
   -1
100
AcDbCircle
 10
218.1699152343425
 20
25.87088799685319
 40
0.186666667
100
AcDbArc
 50
270
 51
90
  0
LINE
  5
2B2
100
AcDbEntity
  8
Shape2DView004
  6
ByLayer
 62
  256
370
   -1
100
AcDbLine
 10
217.9832485683425
 20
53.48418799685323
 11
215.3699152343425
 21
53.48418799685323
  0
LINE
  5
2B3
100
AcDbEntity
  8
Shape2DView004
  6
ByLayer
 62
  256
370
   -1
100
AcDbLine
 10
217.9832485683425
 20
25.87088799685319
 11
215.3699152343425
 21
25.87088799685319
  0
LINE
  5
2B4
100
AcDbEntity
  8
Shape2DView004
  6
ByLayer
 62
  256
370
   -1
100
AcDbLine
 10
215.3699152343425
 20
25.87088799685319
 11
215.3699152343425
 21
15.68418799685323
  0
ARC
  5
2B5
100
AcDbEntity
  8
Shape2DView004
  6
ByLayer
 62
  256
370
   -1
100
AcDbCircle
 10
218.1699152343425
 20
15.68418799685323
 40
0.186666667
100
AcDbArc
 50
270
 51
90
  0
ARC
  5
2B6
100
AcDbEntity
  8
Shape2DView004
  6
ByLayer
 62
  256
370
   -1
100
AcDbCircle
 10
218.1699152343425
 20
15.68418799685323
 40
0.186666667
100
AcDbArc
 50
90
 51
180
  0
LINE
  5
2B7
100
AcDbEntity
  8
Shape2DView004
  6
ByLayer
 62
  256
370
   -1
100
AcDbLine
 10
218.1699152343425
 20
1.877537996853206
 11
218.1699152343425
 21
15.49752132985323
  0
LINE
  5
2B8
100
AcDbEntity
  8
Shape2DView004
  6
ByLayer
 62
  256
370
   -1
100
AcDbLine
 10
225.5434819933425
 20
1.877537996853206
 11
218.1699152343425
 21
1.877537996853206
  0
LINE
  5
2B9
100
AcDbEntity
  8
Shape2DView004
  6
ByLayer
 62
  256
370
   -1
100
AcDbLine
 10
225.5434819933425
 20
4.452198678853236
 11
225.5434819933425
 21
1.877537996853206
  0
ARC
  5
2BA
100
AcDbEntity
  8
Shape2DView004
  6
ByLayer
 62
  256
370
   -1
100
AcDbCircle
 10
225.6430369933425
 20
4.624632996853236
 40
0.19911
100
AcDbArc
 50
30.00000000000002
 51
240
  0
LINE
  5
2BB
100
AcDbEntity
  8
Shape2DView004
  6
ByLayer
 62
  256
370
   -1
100
AcDbLine
 10
225.8154713113425
 20
4.724187996853246
 11
235.0847926753425
 21
4.724187996853246
  0
ARC
  5
2BC
100
AcDbEntity
  8
Shape2DView004
  6
ByLayer
 62
  256
370
   -1
100
AcDbCircle
 10
235.2572269933425
 20
4.624632996853236
 40
0.19911
100
AcDbArc
 50
299.9999999999999
 51
150
  0
LINE
  5
2BD
100
AcDbEntity
  8
Shape2DView004
  6
ByLayer
 62
  256
370
   -1
100
AcDbLine
 10
235.3567819933425
 20
4.452198678853236
 11
235.3567819933425
 21
1.877537996853206
  0
LINE
  5
2BE
100
AcDbEntity
  8
Shape2DView004
  6
ByLayer
 62
  256
370
   -1
100
AcDbLine
 10
245.7100465153425
 20
1.877537996853206
 11
235.3567819933425
 21
1.877537996853206
  0
LINE
  5
2BF
100
AcDbEntity
  8
Shape2DView004
  6
ByLayer
 62
  256
370
   -1
100
AcDbLine
 10
245.7100465153425
 20
24.94752132985321
 11
245.7100465153425
 21
1.877537996853206
  0
ARC
  5
2C0
100
AcDbEntity
  8
Shape2DView004
  6
ByLayer
 62
  256
370
   -1
100
AcDbCircle
 10
245.7100465153425
 20
25.13418799685321
 40
0.186666667
100
AcDbArc
 50
0
 51
90
  0
ARC
  5
2C1
100
AcDbEntity
  8
Shape2DView004
  6
ByLayer
 62
  256
370
   -1
100
AcDbCircle
 10
245.7100465153425
 20
25.13418799685321
 40
0.186666667
100
AcDbArc
 50
90
 51
270
  0
LINE
  5
2C2
100
AcDbEntity
  8
Shape2DView004
  6
ByLayer
 62
  256
370
   -1
100
AcDbLine
 10
217.9832485683425
 20
15.68418799685323
 11
215.3699152343425
 21
15.68418799685323
  0
LINE
  5
2C3
100
AcDbEntity
  8
Shape2DView004
  6
ByLayer
 62
  256
370
   -1
100
AcDbLine
 10
245.8967131823425
 20
25.13418799685321
 11
248.5100465153425
 21
25.13418799685321
  0
LINE
  5
2C4
100
AcDbEntity
  8
Shape2DView004
  6
ByLayer
 62
  256
370
   -1
100
AcDbLine
 10
248.5100465153425
 20
25.13418799685321
 11
248.5100465153425
 21
35.32088799685318
  0
ARC
  5
2C5
100
AcDbEntity
  8
Shape2DView004
  6
ByLayer
 62
  256
370
   -1
100
AcDbCircle
 10
245.7100465153425
 20
35.32088799685318
 40
0.186666667
100
AcDbArc
 50
90
 51
270
  0
ARC
  5
2C6
100
AcDbEntity
  8
Shape2DView004
  6
ByLayer
 62
  256
370
   -1
100
AcDbCircle
 10
245.7100465153425
 20
35.32088799685318
 40
0.186666667
100
AcDbArc
 50
270
 51
0
  0
LINE
  5
2C7
100
AcDbEntity
  8
Shape2DView004
  6
ByLayer
 62
  256
370
   -1
100
AcDbLine
 10
245.7100465153425
 20
43.84752132985319
 11
245.7100465153425
 21
35.50755466385323
  0
ARC
  5
2C8
100
AcDbEntity
  8
Shape2DView004
  6
ByLayer
 62
  256
370
   -1
100
AcDbCircle
 10
245.7100465153425
 20
44.03418799685318
 40
0.186666667
100
AcDbArc
 50
0
 51
90
  0
ARC
  5
2C9
100
AcDbEntity
  8
Shape2DView004
  6
ByLayer
 62
  256
370
   -1
100
AcDbCircle
 10
245.7100465153425
 20
44.03418799685318
 40
0.186666667
100
AcDbArc
 50
90
 51
270
  0
LINE
  5
2CA
100
AcDbEntity
  8
Shape2DView004
  6
ByLayer
 62
  256
370
   -1
100
AcDbLine
 10
245.8967131823425
 20
35.32088799685318
 11
248.5100465153425
 21
35.32088799685318
  0
LINE
  5
2CB
100
AcDbEntity
  8
Shape2DView004
  6
ByLayer
 62
  256
370
   -1
100
AcDbLine
 10
245.8967131823425
 20
44.03418799685318
 11
248.5100465153425
 21
44.03418799685318
  0
LINE
  5
2CC
100
AcDbEntity
  8
Shape2DView004
  6
ByLayer
 62
  256
370
   -1
100
AcDbLine
 10
248.5100465153425
 20
44.03418799685318
 11
248.5100465153425
 21
54.22088799685321
  0
LINE
  5
2CD
100
AcDbEntity
  8
Shape2DView004
  6
ByLayer
 62
  256
370
   -1
100
AcDbLine
 10
245.7100465153425
 20
77.47753799685319
 11
245.7100465153425
 21
54.40755466385321
  0
ARC
  5
2CE
100
AcDbEntity
  8
Shape2DView004
  6
ByLayer
 62
  256
370
   -1
100
AcDbCircle
 10
245.7100465153425
 20
54.22088799685321
 40
0.186666667
100
AcDbArc
 50
90
 51
270
  0
ARC
  5
2CF
100
AcDbEntity
  8
Shape2DView004
  6
ByLayer
 62
  256
370
   -1
100
AcDbCircle
 10
245.7100465153425
 20
54.22088799685321
 40
0.186666667
100
AcDbArc
 50
270
 51
0
  0
LINE
  5
2D0
100
AcDbEntity
  8
Shape2DView004
  6
ByLayer
 62
  256
370
   -1
100
AcDbLine
 10
235.3567819933425
 20
77.47753799685319
 11
245.7100465153425
 21
77.47753799685319
  0
LINE
  5
2D1
100
AcDbEntity
  8
Shape2DView004
  6
ByLayer
 62
  256
370
   -1
100
AcDbLine
 10
235.3567819933425
 20
77.47753799685319
 11
235.3567819933425
 21
74.90287731485319
  0
LINE
  5
2D2
100
AcDbEntity
  8
Shape2DView004
  6
ByLayer
 62
  256
370
   -1
100
AcDbLine
 10
245.8967131823425
 20
54.22088799685321
 11
248.5100465153425
 21
54.22088799685321
  0
ARC
  5
2D3
100
AcDbEntity
  8
Shape2DView004
  6
ByLayer
 62
  256
370
   -1
100
AcDbCircle
 10
235.2572269933425
 20
74.73044299685318
 40
0.19911
100
AcDbArc
 50
270
 51
60.00000000000001
  0
ARC
  5
2D4
100
AcDbEntity
  8
Shape2DView004
  6
ByLayer
 62
  256
370
   -1
100
AcDbCircle
 10
235.2572269933425
 20
74.73044299685318
 40
0.19911
100
AcDbArc
 50
210
 51
270
  0
LINE
  5
2D5
100
AcDbEntity
  8
Shape2DView004
  6
ByLayer
 62
  256
370
   -1
100
AcDbLine
 10
225.8154713113425
 20
74.63088799685323
 11
235.0847926753425
 21
74.63088799685323
  0
ARC
  5
2D6
100
AcDbEntity
  8
Shape2DView004
  6
ByLayer
 62
  256
370
   -1
100
AcDbCircle
 10
225.6430369933425
 20
74.73044299685318
 40
0.19911
100
AcDbArc
 50
270
 51
330.0000000000001
  0
ARC
  5
2D7
100
AcDbEntity
  8
Shape2DView004
  6
ByLayer
 62
  256
370
   -1
100
AcDbCircle
 10
225.6430369933425
 20
74.73044299685318
 40
0.19911
100
AcDbArc
 50
120
 51
270
  0
CIRCLE
  5
2D8
100
AcDbEntity
  8
Shape2DView004
  6
ByLayer
 62
  256
370
   -1
100
AcDbCircle
 10
228.9760465153425
 20
39.68753799685323
 40
7.5
  0
LINE
  5
2D9
100
AcDbEntity
  8
Shape2DView004
  6
ByLayer
 62
  256
370
   -1
100
AcDbLine
 10
237.8214827243426
 20
20.7867247068532
 11
229.6256093183425
 21
22.26296869385323
  0
ARC
  5
2DA
100
AcDbEntity
  8
Shape2DView004
  6
ByLayer
 62
  256
370
   -1
100
AcDbCircle
 10
230.2460465153425
 20
25.70753799685321
 40
3.5
100
AcDbArc
 50
100.210655437
 51
259.789344563
  0
LINE
  5
2DB
100
AcDbEntity
  8
Shape2DView004
  6
ByLayer
 62
  256
370
   -1
100
AcDbLine
 10
229.6256093183425
 20
29.15210729985319
 11
237.8214827243426
 21
30.62835128685322
  0
ARC
  5
2DC
100
AcDbEntity
  8
Shape2DView004
  6
ByLayer
 62
  256
370
   -1
100
AcDbCircle
 10
238.7078215773425
 20
25.70753799685321
 40
5
100
AcDbArc
 50
259.789344563
 51
100.210655437
  0
CIRCLE
  5
2DD
100
AcDbEntity
  8
Shape2DView004
  6
ByLayer
 62
  256
370
   -1
100
AcDbCircle
 10
235.5100465153425
 20
66.67753799685323
 40
5
  0
CIRCLE
  5
2DE
100
AcDbEntity
  8
Shape2DView004
  6
ByLayer
 62
  256
370
   -1
100
AcDbCircle
 10
235.5100465153425
 20
12.67753799685325
 40
5
  0
CIRCLE
  5
2DF
100
AcDbEntity
  8
Shape2DView004
  6
ByLayer
 62
  256
370
   -1
100
AcDbCircle
 10
233.5480465153425
 20
56.69553799685321
 40
3
  0
ARC
  5
2E0
100
AcDbEntity
  8
Shape2DView004
  6
ByLayer
 62
  256
370
   -1
100
AcDbCircle
 10
235.5600465153425
 20
51.10753799685319
 40
1.5
100
AcDbArc
 50
270
 51
90
  0
LINE
  5
2E1
100
AcDbEntity
  8
Shape2DView004
  6
ByLayer
 62
  256
370
   -1
100
AcDbLine
 10
235.5600465153425
 20
49.60753799685319
 11
233.0600465153425
 21
49.60753799685319
  0
ARC
  5
2E2
100
AcDbEntity
  8
Shape2DView004
  6
ByLayer
 62
  256
370
   -1
100
AcDbCircle
 10
233.0600465153425
 20
51.10753799685319
 40
1.5
100
AcDbArc
 50
90
 51
270
  0
LINE
  5
2E3
100
AcDbEntity
  8
Shape2DView004
  6
ByLayer
 62
  256
370
   -1
100
AcDbLine
 10
235.5600465153425
 20
52.60753799685319
 11
233.0600465153425
 21
52.60753799685319
  0
ENDSEC
  0
SECTION
  2
OBJECTS
  0
DICTIONARY
  5
C
330
0
100
AcDbDictionary
281
    1
  3
ACAD_GROUP
350
D
  0
DICTIONARY
  5
D
330
C
100
AcDbDictionary
281
    1
  0
PLOTSETTINGS
  5
2E4
100
AcDbPlotSettings
  6
1x1
 40
0
 41
0
 42
0
 43
0
  0
ENDSEC
  0
EOF
