999
dxfrw 0.6.3
  0
SECTION
  2
HEADER
  9
$ACADVER
  1
AC1021
  9
$DWGCODEPAGE
  3
ANSI_1252
  9
$INSBASE
 10
0
 20
0
 30
0
  9
$EXTMIN
 10
-4.800000000000001
 20
0.3999999999999999
 30
0
  9
$EXTMAX
 10
224.8
 20
214.758709851
 30
0
  9
$LIMMIN
 10
0
 20
0
  9
$LIMMAX
 10
420
 20
297
  9
$ORTHOMODE
 70
    0
  9
$REGENMODE
 70
    1
  9
$FILLMODE
 70
    1
  9
$QTEXTMODE
 70
    0
  9
$MIRRTEXT
 70
    0
  9
$LTSCALE
 40
1
  9
$ATTMODE
 70
    0
  9
$TEXTSIZE
 40
2.5
  9
$TRACEWID
 40
15.68
  9
$TEXTSTYLE
  7
STANDARD
  9
$CLAYER
  8
0
  9
$CELTYPE
  6
BYLAYER
  9
$CECOLOR
 62
  256
  9
$CELTSCALE
 40
1
  9
$DISPSILH
 70
    0
  9
$DIMSCALE
 40
2.5
  9
$DIMASZ
 40
2.5
  9
$DIMEXO
 40
0.625
  9
$DIMDLI
 40
3.75
  9
$DIMRND
 40
0
  9
$DIMDLE
 40
0
  9
$DIMEXE
 40
1.25
  9
$DIMTP
 40
0
  9
$DIMTM
 40
0
  9
$DIMTXT
 40
2.5
  9
$DIMCEN
 40
2.5
  9
$DIMTSZ
 40
0
  9
$DIMTOL
 70
    0
  9
$DIMLIM
 70
    0
  9
$DIMTIH
 70
    0
  9
$DIMTOH
 70
    0
  9
$DIMSE1
 70
    0
  9
$DIMSE2
 70
    0
  9
$DIMTAD
 70
    1
  9
$DIMZIN
 70
    8
  9
$DIMBLK
  1

  9
$DIMASO
 70
    1
  9
$DIMSHO
 70
    1
  9
$DIMPOST
  1

  9
$DIMAPOST
  1

  9
$DIMALT
 70
    0
  9
$DIMALTD
 70
    3
  9
$DIMALTF
 40
0.03937
  9
$DIMLFAC
 40
1
  9
$DIMTOFL
 70
    1
  9
$DIMTVP
 40
0
  9
$DIMTIX
 70
    0
  9
$DIMSOXD
 70
    0
  9
$DIMSAH
 70
    0
  9
$DIMBLK1
  1

  9
$DIMBLK2
  1

  9
$DIMSTYLE
  2
STANDARD
  9
$DIMCLRD
 70
    0
  9
$DIMCLRE
 70
    0
  9
$DIMCLRT
 70
    0
  9
$DIMTFAC
 40
1
  9
$DIMGAP
 40
0.625
  9
$DIMJUST
 70
    0
  9
$DIMSD1
 70
    0
  9
$DIMSD2
 70
    0
  9
$DIMTOLJ
 70
    0
  9
$DIMTZIN
 70
    8
  9
$DIMALTZ
 70
    0
  9
$DIMALTTZ
 70
    0
  9
$DIMUPT
 70
    0
  9
$DIMDEC
 70
    2
  9
$DIMTDEC
 70
    2
  9
$DIMALTU
 70
    2
  9
$DIMALTTD
 70
    3
  9
$DIMTXSTY
  7
STANDARD
  9
$DIMAUNIT
 70
    0
  9
$DIMADEC
 70
    0
  9
$DIMALTRND
 40
0
  9
$DIMAZIN
 70
    0
  9
$DIMDSEP
 70
   44
  9
$DIMATFIT
 70
    3
  9
$DIMFRAC
 70
    0
  9
$DIMLDRBLK
  1
STANDARD
  9
$DIMLUNIT
 70
    2
  9
$DIMLWD
 70
   -2
  9
$DIMLWE
 70
   -2
  9
$DIMTMOVE
 70
    0
  9
$DIMFXL
 40
1
  9
$DIMFXLON
 70
    0
  9
$DIMJOGANG
 40
0.7854
  9
$DIMTFILL
 70
    0
  9
$DIMTFILLCLR
 70
    0
  9
$DIMARCSYM
 70
    0
  9
$DIMLTYPE
  6

  9
$DIMLTEX1
  6

  9
$DIMLTEX2
  6

  9
$LUNITS
 70
    2
  9
$LUPREC
 70
    4
  9
$SKETCHINC
 40
1
  9
$FILLETRAD
 40
0
  9
$AUNITS
 70
    0
  9
$AUPREC
 70
    2
  9
$MENU
  1
.
  9
$ELEVATION
 40
0
  9
$PELEVATION
 40
0
  9
$THICKNESS
 40
0
  9
$LIMCHECK
 70
    0
  9
$CHAMFERA
 40
0
  9
$CHAMFERB
 40
0
  9
$CHAMFERC
 40
0
  9
$CHAMFERD
 40
0
  9
$SKPOLY
 70
    0
  9
$USRTIMER
 70
    1
  9
$ANGBASE
 50
0
  9
$ANGDIR
 70
    0
  9
$PDMODE
 70
   34
  9
$PDSIZE
 40
0
  9
$PLINEWID
 40
0
  9
$SPLFRAME
 70
    0
  9
$SPLINETYPE
 70
    2
  9
$SPLINESEGS
 70
    8
  9
$HANDSEED
  5
20000
  9
$SURFTAB1
 70
    6
  9
$SURFTAB2
 70
    6
  9
$SURFTYPE
 70
    6
  9
$SURFU
 70
    6
  9
$SURFV
 70
    6
  9
$UCSBASE
  2

  9
$UCSNAME
  2

  9
$UCSORG
 10
0
 20
0
 30
0
  9
$UCSXDIR
 10
1
 20
0
 30
0
  9
$UCSYDIR
 10
0
 20
1
 30
0
  9
$UCSORTHOREF
  2

  9
$UCSORTHOVIEW
 70
    0
  9
$UCSORGTOP
 10
0
 20
0
 30
0
  9
$UCSORGBOTTOM
 10
0
 20
0
 30
0
  9
$UCSORGLEFT
 10
0
 20
0
 30
0
  9
$UCSORGRIGHT
 10
0
 20
0
 30
0
  9
$UCSORGFRONT
 10
0
 20
0
 30
0
  9
$UCSORGBACK
 10
0
 20
0
 30
0
  9
$PUCSBASE
  2

  9
$PUCSNAME
  2

  9
$PUCSORG
 10
0
 20
0
 30
0
  9
$PUCSXDIR
 10
1
 20
0
 30
0
  9
$PUCSYDIR
 10
0
 20
1
 30
0
  9
$PUCSORTHOREF
  2

  9
$PUCSORTHOVIEW
 70
    0
  9
$PUCSORGTOP
 10
0
 20
0
 30
0
  9
$PUCSORGBOTTOM
 10
0
 20
0
 30
0
  9
$PUCSORGLEFT
 10
0
 20
0
 30
0
  9
$PUCSORGRIGHT
 10
0
 20
0
 30
0
  9
$PUCSORGFRONT
 10
0
 20
0
 30
0
  9
$PUCSORGBACK
 10
0
 20
0
 30
0
  9
$USERI1
 70
    0
  9
$USERI2
 70
    0
  9
$USERI3
 70
    0
  9
$USERI4
 70
    0
  9
$USERI5
 70
    0
  9
$USERR1
 40
0
  9
$USERR2
 40
0
  9
$USERR3
 40
0
  9
$USERR4
 40
0
  9
$USERR5
 40
0
  9
$WORLDVIEW
 70
    1
  9
$SHADEDGE
 70
    3
  9
$SHADEDIF
 70
   70
  9
$TILEMODE
 70
    1
  9
$MAXACTVP
 70
   64
  9
$PINSBASE
 10
0
 20
0
 30
0
  9
$PLIMCHECK
 70
    0
  9
$PEXTMIN
 10
0
 20
0
 30
0
  9
$PEXTMAX
 10
50
 20
50
 30
50
  9
$GRIDMODE
 70
    0
  9
$SNAPSTYLE
 70
    0
  9
$PLIMMIN
 10
0
 20
0
  9
$PLIMMAX
 10
210
 20
297
  9
$UNITMODE
 70
    0
  9
$VISRETAIN
 70
    1
  9
$PLINEGEN
 70
    0
  9
$PSLTSCALE
 70
    1
  9
$TREEDEPTH
 70
 3020
  9
$CMLSTYLE
  2
STANDARD
  9
$CMLJUST
 70
    0
  9
$CMLSCALE
 40
20
  9
$PROXYGRAPHICS
 70
    1
  9
$MEASUREMENT
 70
    1
  9
$CELWEIGHT
370
   -1
  9
$ENDCAPS
280
    0
  9
$JOINSTYLE
280
    0
  9
$LWDISPLAY
290
    0
  9
$INSUNITS
 70
    4
  9
$HYPERLINKBASE
  1

  9
$STYLESHEET
  1

  9
$XEDIT
290
    1
  9
$CEPSNTYPE
380
    0
  9
$PSTYLEMODE
290
    1
  9
$EXTNAMES
290
    1
  9
$PSVPSCALE
 40
1
  9
$OLESTARTUP
290
    0
  9
$SORTENTS
280
  127
  9
$INDEXCTL
280
    0
  9
$HIDETEXT
280
    1
  9
$XCLIPFRAME
290
    0
  9
$HALOGAP
280
    0
  9
$OBSCOLOR
 70
  257
  9
$OBSLTYPE
280
    0
  9
$INTERSECTIONDISPLAY
280
    0
  9
$INTERSECTIONCOLOR
 70
  257
  9
$DIMASSOC
280
    1
  9
$PROJECTNAME
  1

  9
$CAMERADISPLAY
290
    0
  9
$LENSLENGTH
 40
50
  9
$CAMERAHEIGHT
 40
0
  9
$STEPSPERSEC
 40
2
  9
$STEPSIZE
 40
50
  9
$3DDWFPREC
 40
2
  9
$PSOLWIDTH
 40
5
  9
$PSOLHEIGHT
 40
80
  9
$LOFTANG1
 40
1.570796326794897
  9
$LOFTANG2
 40
1.570796326794897
  9
$LOFTMAG1
 40
0
  9
$LOFTMAG2
 40
0
  9
$LOFTPARAM
 70
    7
  9
$LOFTNORMALS
280
    1
  9
$LATITUDE
 40
1
  9
$LONGITUDE
 40
1
  9
$NORTHDIRECTION
 40
0
  9
$TIMEZONE
 70
-8000
  9
$LIGHTGLYPHDISPLAY
280
    1
  9
$TILEMODELIGHTSYNCH
280
    1
  9
$SOLIDHIST
280
    1
  9
$SHOWHIST
280
    1
  9
$DWFFRAME
280
    2
  9
$DGNFRAME
280
    0
  9
$REALWORLDSCALE
290
    1
  9
$INTERFERECOLOR
 62
    1
  9
$CSHADOW
280
    0
  9
$SHADOWPLANELOCATION
 40
0
  0
ENDSEC
  0
SECTION
  2
CLASSES
  0
ENDSEC
  0
SECTION
  2
TABLES
  0
TABLE
  2
VPORT
  5
8
330
0
100
AcDbSymbolTable
 70
    1
  0
VPORT
  5
31
330
2
100
AcDbSymbolTableRecord
100
AcDbViewportTableRecord
  2
*ACTIVE
 70
    0
 10
0
 20
0
 11
1
 21
1
 12
180.4191231981366
 22
101.5484720114095
 13
0
 23
0
 14
10
 24
10
 15
10
 25
10
 16
0
 26
0
 36
1
 17
0
 27
0
 37
0
 40
323.1087745817574
 41
1.877018633540373
 42
50
 43
0
 44
0
 50
0
 51
0
 71
    0
 72
  100
 73
    1
 74
    3
 75
    0
 76
    0
 77
    0
 78
    0
281
    0
 65
    1
110
0
120
0
130
0
111
1
121
0
131
0
112
0
122
1
132
0
 79
    0
146
0
348
10020
 60
    7
 61
    5
292
1
282
    1
141
0
142
0
 63
  250
421
3358443
  0
ENDTAB
  0
TABLE
  2
LTYPE
  5
5
330
0
100
AcDbSymbolTable
 70
    4
  0
LTYPE
  5
14
330
5
100
AcDbSymbolTableRecord
100
AcDbLinetypeTableRecord
  2
ByBlock
 70
    0
  3

 72
   65
 73
    0
 40
0
  0
LTYPE
  5
15
330
5
100
AcDbSymbolTableRecord
100
AcDbLinetypeTableRecord
  2
ByLayer
 70
    0
  3

 72
   65
 73
    0
 40
0
  0
LTYPE
  5
16
330
5
100
AcDbSymbolTableRecord
100
AcDbLinetypeTableRecord
  2
Continuous
 70
    0
  3
Solid line
 72
   65
 73
    0
 40
0
  0
LTYPE
  5
32
330
5
100
AcDbSymbolTableRecord
100
AcDbLinetypeTableRecord
  2
DOT
 70
    0
  3
Dot . . . . . . . . . . . . . . . . . . . . . .
 72
   65
 73
    2
 40
6.35
 49
0
 74
    0
 49
-6.35
 74
    0
  0
LTYPE
  5
33
330
5
100
AcDbSymbolTableRecord
100
AcDbLinetypeTableRecord
  2
DOTTINY
 70
    0
  3
Dot (.15x) .....................................
 72
   65
 73
    2
 40
0.9525
 49
0
 74
    0
 49
-0.9525
 74
    0
  0
LTYPE
  5
34
330
5
100
AcDbSymbolTableRecord
100
AcDbLinetypeTableRecord
  2
DOT2
 70
    0
  3
Dot (.5x) .....................................
 72
   65
 73
    2
 40
3.175
 49
0
 74
    0
 49
-3.175
 74
    0
  0
LTYPE
  5
35
330
5
100
AcDbSymbolTableRecord
100
AcDbLinetypeTableRecord
  2
DOTX2
 70
    0
  3
Dot (2x) .  .  .  .  .  .  .  .  .  .  .  .  .
 72
   65
 73
    2
 40
12.7
 49
0
 74
    0
 49
-12.7
 74
    0
  0
LTYPE
  5
36
330
5
100
AcDbSymbolTableRecord
100
AcDbLinetypeTableRecord
  2
DASHED
 70
    0
  3
Dashed _ _ _ _ _ _ _ _ _ _ _ _ _ _ _ _ _
 72
   65
 73
    2
 40
19.05
 49
12.7
 74
    0
 49
-6.35
 74
    0
  0
LTYPE
  5
37
330
5
100
AcDbSymbolTableRecord
100
AcDbLinetypeTableRecord
  2
DASHEDTINY
 70
    0
  3
Dashed (.15x) _ _ _ _ _ _ _ _ _ _ _ _ _ _ _ _ _
 72
   65
 73
    2
 40
2.8575
 49
1.905
 74
    0
 49
-0.9525
 74
    0
  0
LTYPE
  5
38
330
5
100
AcDbSymbolTableRecord
100
AcDbLinetypeTableRecord
  2
DASHED2
 70
    0
  3
Dashed (.5x) _ _ _ _ _ _ _ _ _ _ _ _ _ _ _ _ _
 72
   65
 73
    2
 40
9.524999999999999
 49
6.35
 74
    0
 49
-3.175
 74
    0
  0
LTYPE
  5
39
330
5
100
AcDbSymbolTableRecord
100
AcDbLinetypeTableRecord
  2
DASHEDX2
 70
    0
  3
Dashed (2x) ____  ____  ____  ____  ____  ___
 72
   65
 73
    2
 40
38.09999999999999
 49
25.4
 74
    0
 49
-12.7
 74
    0
  0
LTYPE
  5
3A
330
5
100
AcDbSymbolTableRecord
100
AcDbLinetypeTableRecord
  2
DASHDOT
 70
    0
  3
Dash dot __ . __ . __ . __ . __ . __ . __ . __
 72
   65
 73
    4
 40
25.4
 49
12.7
 74
    0
 49
-6.35
 74
    0
 49
0
 74
    0
 49
-6.35
 74
    0
  0
LTYPE
  5
3B
330
5
100
AcDbSymbolTableRecord
100
AcDbLinetypeTableRecord
  2
DASHDOTTINY
 70
    0
  3
Dash dot (.15x) _._._._._._._._._._._._._._._.
 72
   65
 73
    4
 40
3.81
 49
1.905
 74
    0
 49
-0.9525
 74
    0
 49
0
 74
    0
 49
-0.9525
 74
    0
  0
LTYPE
  5
3C
330
5
100
AcDbSymbolTableRecord
100
AcDbLinetypeTableRecord
  2
DASHDOT2
 70
    0
  3
Dash dot (.5x) _._._._._._._._._._._._._._._.
 72
   65
 73
    4
 40
12.7
 49
6.35
 74
    0
 49
-3.175
 74
    0
 49
0
 74
    0
 49
-3.175
 74
    0
  0
LTYPE
  5
3D
330
5
100
AcDbSymbolTableRecord
100
AcDbLinetypeTableRecord
  2
DASHDOTX2
 70
    0
  3
Dash dot (2x) ____  .  ____  .  ____  .  ___
 72
   65
 73
    4
 40
50.8
 49
25.4
 74
    0
 49
-12.7
 74
    0
 49
0
 74
    0
 49
-12.7
 74
    0
  0
LTYPE
  5
3E
330
5
100
AcDbSymbolTableRecord
100
AcDbLinetypeTableRecord
  2
DIVIDE
 70
    0
  3
Divide ____ . . ____ . . ____ . . ____ . . ____
 72
   65
 73
    6
 40
31.75
 49
12.7
 74
    0
 49
-6.35
 74
    0
 49
0
 74
    0
 49
-6.35
 74
    0
 49
0
 74
    0
 49
-6.35
 74
    0
  0
LTYPE
  5
3F
330
5
100
AcDbSymbolTableRecord
100
AcDbLinetypeTableRecord
  2
DIVIDETINY
 70
    0
  3
Divide (.15x) __..__..__..__..__..__..__..__.._
 72
   65
 73
    6
 40
4.7625
 49
1.905
 74
    0
 49
-0.9525
 74
    0
 49
0
 74
    0
 49
-0.9525
 74
    0
 49
0
 74
    0
 49
-0.9525
 74
    0
  0
LTYPE
  5
40
330
5
100
AcDbSymbolTableRecord
100
AcDbLinetypeTableRecord
  2
DIVIDE2
 70
    0
  3
Divide (.5x) __..__..__..__..__..__..__..__.._
 72
   65
 73
    6
 40
15.875
 49
6.35
 74
    0
 49
-3.175
 74
    0
 49
0
 74
    0
 49
-3.175
 74
    0
 49
0
 74
    0
 49
-3.175
 74
    0
  0
LTYPE
  5
41
330
5
100
AcDbSymbolTableRecord
100
AcDbLinetypeTableRecord
  2
DIVIDEX2
 70
    0
  3
Divide (2x) ________  .  .  ________  .  .  _
 72
   65
 73
    6
 40
63.5
 49
25.4
 74
    0
 49
-12.7
 74
    0
 49
0
 74
    0
 49
-12.7
 74
    0
 49
0
 74
    0
 49
-12.7
 74
    0
  0
LTYPE
  5
42
330
5
100
AcDbSymbolTableRecord
100
AcDbLinetypeTableRecord
  2
BORDER
 70
    0
  3
Border __ __ . __ __ . __ __ . __ __ . __ __ .
 72
   65
 73
    6
 40
44.45
 49
12.7
 74
    0
 49
-6.35
 74
    0
 49
12.7
 74
    0
 49
-6.35
 74
    0
 49
0
 74
    0
 49
-6.35
 74
    0
  0
LTYPE
  5
43
330
5
100
AcDbSymbolTableRecord
100
AcDbLinetypeTableRecord
  2
BORDERTINY
 70
    0
  3
Border (.15x) __.__.__.__.__.__.__.__.__.__.__.
 72
   65
 73
    6
 40
6.6675
 49
1.905
 74
    0
 49
-0.9525
 74
    0
 49
1.905
 74
    0
 49
-0.9525
 74
    0
 49
0
 74
    0
 49
-0.9525
 74
    0
  0
LTYPE
  5
44
330
5
100
AcDbSymbolTableRecord
100
AcDbLinetypeTableRecord
  2
BORDER2
 70
    0
  3
Border (.5x) __.__.__.__.__.__.__.__.__.__.__.
 72
   65
 73
    6
 40
22.225
 49
6.35
 74
    0
 49
-3.175
 74
    0
 49
6.35
 74
    0
 49
-3.175
 74
    0
 49
0
 74
    0
 49
-3.175
 74
    0
  0
LTYPE
  5
45
330
5
100
AcDbSymbolTableRecord
100
AcDbLinetypeTableRecord
  2
BORDERX2
 70
    0
  3
Border (2x) ____  ____  .  ____  ____  .  ___
 72
   65
 73
    6
 40
88.89999999999999
 49
25.4
 74
    0
 49
-12.7
 74
    0
 49
25.4
 74
    0
 49
-12.7
 74
    0
 49
0
 74
    0
 49
-12.7
 74
    0
  0
LTYPE
  5
46
330
5
100
AcDbSymbolTableRecord
100
AcDbLinetypeTableRecord
  2
CENTER
 70
    0
  3
Center ____ _ ____ _ ____ _ ____ _ ____ _ ____
 72
   65
 73
    4
 40
50.8
 49
31.75
 74
    0
 49
-6.35
 74
    0
 49
6.35
 74
    0
 49
-6.35
 74
    0
  0
LTYPE
  5
47
330
5
100
AcDbSymbolTableRecord
100
AcDbLinetypeTableRecord
  2
CENTERTINY
 70
    0
  3
Center (.15x) ___ _ ___ _ ___ _ ___ _ ___ _ ___
 72
   65
 73
    4
 40
7.619999999999999
 49
4.7625
 74
    0
 49
-0.9525
 74
    0
 49
0.9525
 74
    0
 49
-0.9525
 74
    0
  0
LTYPE
  5
48
330
5
100
AcDbSymbolTableRecord
100
AcDbLinetypeTableRecord
  2
CENTER2
 70
    0
  3
Center (.5x) ___ _ ___ _ ___ _ ___ _ ___ _ ___
 72
   65
 73
    4
 40
28.575
 49
19.05
 74
    0
 49
-3.175
 74
    0
 49
3.175
 74
    0
 49
-3.175
 74
    0
  0
LTYPE
  5
49
330
5
100
AcDbSymbolTableRecord
100
AcDbLinetypeTableRecord
  2
CENTERX2
 70
    0
  3
Center (2x) ________  __  ________  __  _____
 72
   65
 73
    4
 40
101.6
 49
63.5
 74
    0
 49
-12.7
 74
    0
 49
12.7
 74
    0
 49
-12.7
 74
    0
  0
ENDTAB
  0
TABLE
  2
LAYER
  5
2
330
0
100
AcDbSymbolTable
 70
    1
  0
LAYER
  5
10
330
2
100
AcDbSymbolTableRecord
100
AcDbLayerTableRecord
  2
0
 70
    0
 62
    7
  6
CONTINUOUS
370
   -3
390
F
  0
LAYER
  5
4A
330
2
100
AcDbSymbolTableRecord
100
AcDbLayerTableRecord
  2
Shape2DView
 70
    0
 62
    7
  6
CONTINUOUS
370
   -3
390
F
  0
LAYER
  5
4B
330
2
100
AcDbSymbolTableRecord
100
AcDbLayerTableRecord
  2
Shape2DView001
 70
    0
 62
    7
  6
CONTINUOUS
370
   -3
390
F
  0
LAYER
  5
4C
330
2
100
AcDbSymbolTableRecord
100
AcDbLayerTableRecord
  2
Shape2DView002
 70
    0
 62
    7
  6
CONTINUOUS
370
   -3
390
F
  0
LAYER
  5
4D
330
2
100
AcDbSymbolTableRecord
100
AcDbLayerTableRecord
  2
Shape2DView003
 70
    0
 62
    7
  6
CONTINUOUS
370
   -3
390
F
  0
LAYER
  5
4E
330
2
100
AcDbSymbolTableRecord
100
AcDbLayerTableRecord
  2
Shape2DView004
 70
    0
 62
    7
  6
CONTINUOUS
370
   -3
390
F
  0
LAYER
  5
4F
330
2
100
AcDbSymbolTableRecord
100
AcDbLayerTableRecord
  2
Shape2DView005
 70
    0
 62
    7
  6
CONTINUOUS
370
   -3
390
F
  0
LAYER
  5
50
330
2
100
AcDbSymbolTableRecord
100
AcDbLayerTableRecord
  2
Shape2DView006
 70
    0
 62
    7
  6
CONTINUOUS
370
   -3
390
F
  0
LAYER
  5
51
330
2
100
AcDbSymbolTableRecord
100
AcDbLayerTableRecord
  2
Shape2DView007
 70
    0
 62
    7
  6
CONTINUOUS
370
   -3
390
F
  0
LAYER
  5
52
330
2
100
AcDbSymbolTableRecord
100
AcDbLayerTableRecord
  2
Shape2DView009
 70
    0
 62
    7
  6
CONTINUOUS
370
   -3
390
F
  0
LAYER
  5
53
330
2
100
AcDbSymbolTableRecord
100
AcDbLayerTableRecord
  2
Shape2DView010
 70
    0
 62
    7
  6
CONTINUOUS
370
   -3
390
F
  0
LAYER
  5
54
330
2
100
AcDbSymbolTableRecord
100
AcDbLayerTableRecord
  2
Shape2DView012
 70
    0
 62
    7
  6
CONTINUOUS
370
   -3
390
F
  0
LAYER
  5
55
330
2
100
AcDbSymbolTableRecord
100
AcDbLayerTableRecord
  2
none
 70
    0
 62
    7
  6
CONTINUOUS
370
   -3
390
F
  0
ENDTAB
  0
TABLE
  2
STYLE
  5
3
330
0
100
AcDbSymbolTable
 70
    3
  0
STYLE
  5
56
330
2
100
AcDbSymbolTableRecord
100
AcDbTextStyleTableRecord
  2
Standard
 70
    0
 40
0
 41
1
 50
0
 71
    0
 42
1
  3
txt
  4

  0
ENDTAB
  0
TABLE
  2
VIEW
  5
6
330
0
100
AcDbSymbolTable
 70
    0
  0
ENDTAB
  0
TABLE
  2
UCS
  5
7
330
0
100
AcDbSymbolTable
 70
    0
  0
ENDTAB
  0
TABLE
  2
APPID
  5
9
330
0
100
AcDbSymbolTable
 70
    1
  0
APPID
  5
12
330
9
100
AcDbSymbolTableRecord
100
AcDbRegAppTableRecord
  2
ACAD
 70
    0
  0
APPID
  5
57
330
9
100
AcDbSymbolTableRecord
100
AcDbRegAppTableRecord
  2
LibreCad
 70
    0
  0
ENDTAB
  0
TABLE
  2
DIMSTYLE
  5
A
330
0
100
AcDbSymbolTable
 70
    1
100
AcDbDimStyleTable
 71
    1
  0
DIMSTYLE
105
58
330
A
100
AcDbSymbolTableRecord
100
AcDbDimStyleTableRecord
  2
Standard
 70
    0
 40
1
 41
2.5
 42
0.625
 43
0.38
 44
1.25
 45
0
 46
0
 47
0
 48
0
 49
1
140
2.5
141
0.09
142
2.5
143
25.4
144
1
145
0
146
1
147
0.625
148
0
 71
    0
 72
    0
 73
    0
 74
    1
 75
    0
 76
    0
 77
    0
 78
    1
 79
    0
170
    0
171
    2
172
    0
173
    0
174
    0
175
    0
176
    0
177
    0
178
    0
179
    0
271
    2
272
    4
273
    2
274
    2
275
    0
276
    0
277
    2
278
    0
279
    0
280
    0
281
    0
282
    0
283
    1
284
    0
285
    0
286
    0
288
    0
289
    3
340
STANDARD
341

371
   -2
372
   -2
  0
ENDTAB
  0
TABLE
  2
BLOCK_RECORD
  5
1
330
0
100
AcDbSymbolTable
 70
    2
  0
BLOCK_RECORD
  5
1F
330
1
100
AcDbSymbolTableRecord
100
AcDbBlockTableRecord
  2
*Model_Space
 70
    0
280
    1
281
    0
  0
BLOCK_RECORD
  5
1E
330
1
100
AcDbSymbolTableRecord
100
AcDbBlockTableRecord
  2
*Paper_Space
 70
    0
280
    1
281
    0
  0
ENDTAB
  0
ENDSEC
  0
SECTION
  2
BLOCKS
  0
BLOCK
  5
20
330
1F
100
AcDbEntity
  8
0
100
AcDbBlockBegin
  2
*Model_Space
 70
    0
 10
0
 20
0
 30
0
  3
*Model_Space
  1

  0
ENDBLK
  5
21
330
1F
100
AcDbEntity
  8
0
100
AcDbBlockEnd
  0
BLOCK
  5
1C
330
1B
100
AcDbEntity
  8
0
100
AcDbBlockBegin
  2
*Paper_Space
 70
    0
 10
0
 20
0
 30
0
  3
*Paper_Space
  1

  0
ENDBLK
  5
1D
330
1F
100
AcDbEntity
  8
0
100
AcDbBlockEnd
  0
ENDSEC
  0
SECTION
  2
ENTITIES
  0
ARC
  5
59
100
AcDbEntity
  8
Shape2DView
  6
ByLayer
 62
  256
370
   -1
100
AcDbCircle
 10
69.346848325
 20
49.801942819
 40
0.186666667
100
AcDbArc
 50
20
 51
-160
  0
ARC
  5
5A
100
AcDbEntity
  8
Shape2DView
  6
ByLayer
 62
  256
370
   -1
100
AcDbCircle
 10
69.346848325
 20
49.801942819
 40
0.186666667
100
AcDbArc
 50
-160
 51
-70
  0
LINE
  5
5B
100
AcDbEntity
  8
Shape2DView
  6
ByLayer
 62
  256
370
   -1
100
AcDbLine
 10
69.522257614
 20
49.865786579
 11
91.32132983
 21
57.8
  0
LINE
  5
5C
100
AcDbEntity
  8
Shape2DView
  6
ByLayer
 62
  256
370
   -1
100
AcDbLine
 10
91.32132983
 20
57.8
 11
96.780883344
 21
42.8
  0
LINE
  5
5D
100
AcDbEntity
  8
Shape2DView
  6
ByLayer
 62
  256
370
   -1
100
AcDbLine
 10
97.8
 20
42.8
 11
97.8
 21
57.519983333
  0
ARC
  5
5E
100
AcDbEntity
  8
Shape2DView
  6
ByLayer
 62
  256
370
   -1
100
AcDbCircle
 10
97.8
 20
57.70665
 40
0.186666667
100
AcDbArc
 50
0
 51
90
  0
ARC
  5
5F
100
AcDbEntity
  8
Shape2DView
  6
ByLayer
 62
  256
370
   -1
100
AcDbCircle
 10
97.8
 20
57.70665
 40
0.186666667
100
AcDbArc
 50
90
 51
-90
  0
LINE
  5
60
100
AcDbEntity
  8
Shape2DView
  6
ByLayer
 62
  256
370
   -1
100
AcDbLine
 10
96.780883344
 20
42.8
 11
97.8
 21
42.8
  0
ARC
  5
61
100
AcDbEntity
  8
Shape2DView
  6
ByLayer
 62
  256
370
   -1
100
AcDbCircle
 10
97.8
 20
67.89335
 40
0.186666667
100
AcDbArc
 50
90
 51
-90
  0
ARC
  5
62
100
AcDbEntity
  8
Shape2DView
  6
ByLayer
 62
  256
370
   -1
100
AcDbCircle
 10
97.8
 20
67.89335
 40
0.186666667
100
AcDbArc
 50
-90
 51
0
  0
LINE
  5
63
100
AcDbEntity
  8
Shape2DView
  6
ByLayer
 62
  256
370
   -1
100
AcDbLine
 10
97.8
 20
68.080016667
 11
97.8
 21
82.8
  0
LINE
  5
64
100
AcDbEntity
  8
Shape2DView
  6
ByLayer
 62
  256
370
   -1
100
AcDbLine
 10
97.8
 20
82.8
 11
79.330016667
 21
82.8
  0
ARC
  5
65
100
AcDbEntity
  8
Shape2DView
  6
ByLayer
 62
  256
370
   -1
100
AcDbCircle
 10
79.14335
 20
82.8
 40
0.186666667
100
AcDbArc
 50
90
 51
-180
  0
ARC
  5
66
100
AcDbEntity
  8
Shape2DView
  6
ByLayer
 62
  256
370
   -1
100
AcDbCircle
 10
79.14335
 20
82.8
 40
0.186666667
100
AcDbArc
 50
-180
 51
-0
  0
ARC
  5
67
100
AcDbEntity
  8
Shape2DView
  6
ByLayer
 62
  256
370
   -1
100
AcDbCircle
 10
68.95665
 20
82.8
 40
0.186666667
100
AcDbArc
 50
-180
 51
-0
  0
ARC
  5
68
100
AcDbEntity
  8
Shape2DView
  6
ByLayer
 62
  256
370
   -1
100
AcDbCircle
 10
68.95665
 20
82.8
 40
0.186666667
100
AcDbArc
 50
-0
 51
90
  0
LINE
  5
69
100
AcDbEntity
  8
Shape2DView
  6
ByLayer
 62
  256
370
   -1
100
AcDbLine
 10
68.769983333
 20
82.8
 11
31.830016667
 21
82.8
  0
ARC
  5
6A
100
AcDbEntity
  8
Shape2DView
  6
ByLayer
 62
  256
370
   -1
100
AcDbCircle
 10
31.64335
 20
82.8
 40
0.186666667
100
AcDbArc
 50
90
 51
180
  0
ARC
  5
6B
100
AcDbEntity
  8
Shape2DView
  6
ByLayer
 62
  256
370
   -1
100
AcDbCircle
 10
31.64335
 20
82.8
 40
0.186666667
100
AcDbArc
 50
180
 51
0
  0
ARC
  5
6C
100
AcDbEntity
  8
Shape2DView
  6
ByLayer
 62
  256
370
   -1
100
AcDbCircle
 10
21.45665
 20
82.8
 40
0.186666667
100
AcDbArc
 50
180
 51
0
  0
ARC
  5
6D
100
AcDbEntity
  8
Shape2DView
  6
ByLayer
 62
  256
370
   -1
100
AcDbCircle
 10
21.45665
 20
82.8
 40
0.186666667
100
AcDbArc
 50
0
 51
90
  0
LINE
  5
6E
100
AcDbEntity
  8
Shape2DView
  6
ByLayer
 62
  256
370
   -1
100
AcDbLine
 10
21.269983333
 20
82.8
 11
2.8
 21
82.8
  0
LINE
  5
6F
100
AcDbEntity
  8
Shape2DView
  6
ByLayer
 62
  256
370
   -1
100
AcDbLine
 10
2.8
 20
82.8
 11
2.8
 21
69.330016667
  0
ARC
  5
70
100
AcDbEntity
  8
Shape2DView
  6
ByLayer
 62
  256
370
   -1
100
AcDbCircle
 10
2.8
 20
69.14335
 40
0.186666667
100
AcDbArc
 50
180
 51
-90
  0
ARC
  5
71
100
AcDbEntity
  8
Shape2DView
  6
ByLayer
 62
  256
370
   -1
100
AcDbCircle
 10
2.8
 20
69.14335
 40
0.186666667
100
AcDbArc
 50
-90
 51
90
  0
ARC
  5
72
100
AcDbEntity
  8
Shape2DView
  6
ByLayer
 62
  256
370
   -1
100
AcDbCircle
 10
2.8
 20
58.95665
 40
0.186666667
100
AcDbArc
 50
-90
 51
90
  0
ARC
  5
73
100
AcDbEntity
  8
Shape2DView
  6
ByLayer
 62
  256
370
   -1
100
AcDbCircle
 10
2.8
 20
58.95665
 40
0.186666667
100
AcDbArc
 50
90
 51
180
  0
LINE
  5
74
100
AcDbEntity
  8
Shape2DView
  6
ByLayer
 62
  256
370
   -1
100
AcDbLine
 10
2.8
 20
58.769983333
 11
2.8
 21
31.830016667
  0
ARC
  5
75
100
AcDbEntity
  8
Shape2DView
  6
ByLayer
 62
  256
370
   -1
100
AcDbCircle
 10
2.8
 20
31.64335
 40
0.186666667
100
AcDbArc
 50
180
 51
-90
  0
ARC
  5
76
100
AcDbEntity
  8
Shape2DView
  6
ByLayer
 62
  256
370
   -1
100
AcDbCircle
 10
2.8
 20
31.64335
 40
0.186666667
100
AcDbArc
 50
-90
 51
90
  0
ARC
  5
77
100
AcDbEntity
  8
Shape2DView
  6
ByLayer
 62
  256
370
   -1
100
AcDbCircle
 10
2.8
 20
21.45665
 40
0.186666667
100
AcDbArc
 50
-90
 51
90
  0
ARC
  5
78
100
AcDbEntity
  8
Shape2DView
  6
ByLayer
 62
  256
370
   -1
100
AcDbCircle
 10
2.8
 20
21.45665
 40
0.186666667
100
AcDbArc
 50
90
 51
180
  0
LINE
  5
79
100
AcDbEntity
  8
Shape2DView
  6
ByLayer
 62
  256
370
   -1
100
AcDbLine
 10
2.8
 20
21.269983333
 11
2.8
 21
7.8
  0
LINE
  5
7A
100
AcDbEntity
  8
Shape2DView
  6
ByLayer
 62
  256
370
   -1
100
AcDbLine
 10
2.8
 20
7.8
 11
15.019983333
 21
7.8
  0
ARC
  5
7B
100
AcDbEntity
  8
Shape2DView
  6
ByLayer
 62
  256
370
   -1
100
AcDbCircle
 10
15.20665
 20
7.8
 40
0.186666667
100
AcDbArc
 50
-90
 51
0
  0
ARC
  5
7C
100
AcDbEntity
  8
Shape2DView
  6
ByLayer
 62
  256
370
   -1
100
AcDbCircle
 10
15.20665
 20
7.8
 40
0.186666667
100
AcDbArc
 50
0
 51
180
  0
ARC
  5
7D
100
AcDbEntity
  8
Shape2DView
  6
ByLayer
 62
  256
370
   -1
100
AcDbCircle
 10
25.39335
 20
7.8
 40
0.186666667
100
AcDbArc
 50
0
 51
180
  0
ARC
  5
7E
100
AcDbEntity
  8
Shape2DView
  6
ByLayer
 62
  256
370
   -1
100
AcDbCircle
 10
25.39335
 20
7.8
 40
0.186666667
100
AcDbArc
 50
180
 51
-90
  0
LINE
  5
7F
100
AcDbEntity
  8
Shape2DView
  6
ByLayer
 62
  256
370
   -1
100
AcDbLine
 10
25.580016667
 20
7.8
 11
37.8
 21
7.8
  0
LINE
  5
80
100
AcDbEntity
  8
Shape2DView
  6
ByLayer
 62
  256
370
   -1
100
AcDbLine
 10
37.8
 20
7.8
 11
37.8
 21
17.779897855
  0
ARC
  5
81
100
AcDbEntity
  8
Shape2DView
  6
ByLayer
 62
  256
370
   -1
100
AcDbCircle
 10
37.8
 20
17.966564522
 40
0.186666667
100
AcDbArc
 50
0
 51
90
  0
ARC
  5
82
100
AcDbEntity
  8
Shape2DView
  6
ByLayer
 62
  256
370
   -1
100
AcDbCircle
 10
37.8
 20
17.966564522
 40
0.186666667
100
AcDbArc
 50
90
 51
-90
  0
ARC
  5
83
100
AcDbEntity
  8
Shape2DView
  6
ByLayer
 62
  256
370
   -1
100
AcDbCircle
 10
37.8
 20
28.153264522
 40
0.186666667
100
AcDbArc
 50
90
 51
-90
  0
ARC
  5
84
100
AcDbEntity
  8
Shape2DView
  6
ByLayer
 62
  256
370
   -1
100
AcDbCircle
 10
37.8
 20
28.153264522
 40
0.186666667
100
AcDbArc
 50
-90
 51
0
  0
LINE
  5
85
100
AcDbEntity
  8
Shape2DView
  6
ByLayer
 62
  256
370
   -1
100
AcDbLine
 10
37.8
 20
28.339931188
 11
37.8
 21
38.319829044
  0
LINE
  5
86
100
AcDbEntity
  8
Shape2DView
  6
ByLayer
 62
  256
370
   -1
100
AcDbLine
 10
37.8
 20
38.319829044
 11
59.599072216
 21
46.254042465
  0
ARC
  5
87
100
AcDbEntity
  8
Shape2DView
  6
ByLayer
 62
  256
370
   -1
100
AcDbCircle
 10
59.774481505
 20
46.317886225
 40
0.186666667
100
AcDbArc
 50
-70
 51
20
  0
ARC
  5
88
100
AcDbEntity
  8
Shape2DView
  6
ByLayer
 62
  256
370
   -1
100
AcDbCircle
 10
59.774481505
 20
46.317886225
 40
0.186666667
100
AcDbArc
 50
20
 51
-160
  0
LINE
  5
89
100
AcDbEntity
  8
Shape2DView
  6
ByLayer
 62
  256
370
   -1
100
AcDbLine
 10
52.038082852
 20
53.268769531
 11
51.183032494
 21
55.618001083
  0
ARC
  5
8A
100
AcDbEntity
  8
Shape2DView
  6
ByLayer
 62
  256
370
   -1
100
AcDbCircle
 10
49.21900499
 20
52.242709101
 40
3
100
AcDbArc
 50
-70
 51
20
  0
LINE
  5
8B
100
AcDbEntity
  8
Shape2DView
  6
ByLayer
 62
  256
370
   -1
100
AcDbLine
 10
44.137063385
 20
47.200500307
 11
50.24506542
 21
49.423631238
  0
ARC
  5
8C
100
AcDbEntity
  8
Shape2DView
  6
ByLayer
 62
  256
370
   -1
100
AcDbCircle
 10
43.111002955
 20
50.019578169
 40
3
100
AcDbArc
 50
-160
 51
-70
  0
LINE
  5
8D
100
AcDbEntity
  8
Shape2DView
  6
ByLayer
 62
  256
370
   -1
100
AcDbLine
 10
39.436874734
 20
51.342749291
 11
40.291925092
 21
48.993517739
  0
ARC
  5
8E
100
AcDbEntity
  8
Shape2DView
  6
ByLayer
 62
  256
370
   -1
100
AcDbCircle
 10
42.255952596
 20
52.368809721
 40
3
100
AcDbArc
 50
110
 51
-160
  0
LINE
  5
8F
100
AcDbEntity
  8
Shape2DView
  6
ByLayer
 62
  256
370
   -1
100
AcDbLine
 10
47.337894202
 20
57.411018515
 11
41.229892166
 21
55.187887584
  0
ARC
  5
90
100
AcDbEntity
  8
Shape2DView
  6
ByLayer
 62
  256
370
   -1
100
AcDbCircle
 10
48.363954632
 20
54.591940653
 40
3
100
AcDbArc
 50
20
 51
110
  0
ARC
  5
91
100
AcDbEntity
  8
Shape2DView
  6
ByLayer
 62
  256
370
   -1
100
AcDbCircle
 10
71.831462866
 20
78.31497522399999
 40
0.755
100
AcDbArc
 50
-70
 51
110
  0
LINE
  5
92
100
AcDbEntity
  8
Shape2DView
  6
ByLayer
 62
  256
370
   -1
100
AcDbLine
 10
72.08968807399999
 20
77.605507296
 11
60.813376624
 21
73.50126557599999
  0
ARC
  5
93
100
AcDbEntity
  8
Shape2DView
  6
ByLayer
 62
  256
370
   -1
100
AcDbCircle
 10
60.555151416
 20
74.21073350499999
 40
0.755
100
AcDbArc
 50
110
 51
-70
  0
LINE
  5
94
100
AcDbEntity
  8
Shape2DView
  6
ByLayer
 62
  256
370
   -1
100
AcDbLine
 10
71.57323765700001
 20
79.02444315300001
 11
60.296926208
 21
74.920201433
  0
ARC
  5
95
100
AcDbEntity
  8
Shape2DView
  6
ByLayer
 62
  256
370
   -1
100
AcDbCircle
 10
41.761299
 20
67.370330638
 40
0.755
100
AcDbArc
 50
-70
 51
110
  0
LINE
  5
96
100
AcDbEntity
  8
Shape2DView
  6
ByLayer
 62
  256
370
   -1
100
AcDbLine
 10
42.019524209
 20
66.660862709
 11
30.743212759
 21
62.556620989
  0
ARC
  5
97
100
AcDbEntity
  8
Shape2DView
  6
ByLayer
 62
  256
370
   -1
100
AcDbCircle
 10
30.484987551
 20
63.266088918
 40
0.755
100
AcDbArc
 50
110
 51
-70
  0
LINE
  5
98
100
AcDbEntity
  8
Shape2DView
  6
ByLayer
 62
  256
370
   -1
100
AcDbLine
 10
41.503073792
 20
68.079798567
 11
30.226762343
 21
63.975556847
  0
ARC
  5
99
100
AcDbEntity
  8
Shape2DView
  6
ByLayer
 62
  256
370
   -1
100
AcDbCircle
 10
32.155
 20
15.5
 40
0.755
100
AcDbArc
 50
180
 51
0
  0
LINE
  5
9A
100
AcDbEntity
  8
Shape2DView
  6
ByLayer
 62
  256
370
   -1
100
AcDbLine
 10
31.4
 20
15.5
 11
31.4
 21
27.5
  0
ARC
  5
9B
100
AcDbEntity
  8
Shape2DView
  6
ByLayer
 62
  256
370
   -1
100
AcDbCircle
 10
32.155
 20
27.5
 40
0.755
100
AcDbArc
 50
0
 51
180
  0
LINE
  5
9C
100
AcDbEntity
  8
Shape2DView
  6
ByLayer
 62
  256
370
   -1
100
AcDbLine
 10
32.91
 20
15.5
 11
32.91
 21
27.5
  0
ARC
  5
9D
100
AcDbEntity
  8
Shape2DView
  6
ByLayer
 62
  256
370
   -1
100
AcDbCircle
 10
43.756797467
 20
64.372977401
 40
1.5
100
AcDbArc
 50
-70
 51
110
  0
LINE
  5
9E
100
AcDbEntity
  8
Shape2DView
  6
ByLayer
 62
  256
370
   -1
100
AcDbLine
 10
44.269827682
 20
62.963438469
 11
40.417087937
 21
61.561155882
  0
ARC
  5
9F
100
AcDbEntity
  8
Shape2DView
  6
ByLayer
 62
  256
370
   -1
100
AcDbCircle
 10
39.904057722
 20
62.970694813
 40
1.5
100
AcDbArc
 50
110
 51
-70
  0
LINE
  5
A0
100
AcDbEntity
  8
Shape2DView
  6
ByLayer
 62
  256
370
   -1
100
AcDbLine
 10
43.243767252
 20
65.782516332
 11
39.391027507
 21
64.38023374399999
  0
ARC
  5
A1
100
AcDbEntity
  8
Shape2DView001
  6
ByLayer
 62
  256
370
   -1
100
AcDbCircle
 10
148.853151675
 20
49.801942819
 40
0.186666667
100
AcDbArc
 50
-110
 51
-20
  0
ARC
  5
A2
100
AcDbEntity
  8
Shape2DView001
  6
ByLayer
 62
  256
370
   -1
100
AcDbCircle
 10
148.853151675
 20
49.801942819
 40
0.186666667
100
AcDbArc
 50
-20
 51
160
  0
LINE
  5
A3
100
AcDbEntity
  8
Shape2DView001
  6
ByLayer
 62
  256
370
   -1
100
AcDbLine
 10
148.677742386
 20
49.865786579
 11
126.87867017
 21
57.8
  0
LINE
  5
A4
100
AcDbEntity
  8
Shape2DView001
  6
ByLayer
 62
  256
370
   -1
100
AcDbLine
 10
126.87867017
 20
57.8
 11
121.419116656
 21
42.8
  0
LINE
  5
A5
100
AcDbEntity
  8
Shape2DView001
  6
ByLayer
 62
  256
370
   -1
100
AcDbLine
 10
120.4
 20
42.8
 11
120.4
 21
57.519983333
  0
ARC
  5
A6
100
AcDbEntity
  8
Shape2DView001
  6
ByLayer
 62
  256
370
   -1
100
AcDbCircle
 10
120.4
 20
57.70665
 40
0.186666667
100
AcDbArc
 50
-90
 51
90
  0
ARC
  5
A7
100
AcDbEntity
  8
Shape2DView001
  6
ByLayer
 62
  256
370
   -1
100
AcDbCircle
 10
120.4
 20
57.70665
 40
0.186666667
100
AcDbArc
 50
90
 51
180
  0
LINE
  5
A8
100
AcDbEntity
  8
Shape2DView001
  6
ByLayer
 62
  256
370
   -1
100
AcDbLine
 10
121.419116656
 20
42.8
 11
120.4
 21
42.8
  0
ARC
  5
A9
100
AcDbEntity
  8
Shape2DView001
  6
ByLayer
 62
  256
370
   -1
100
AcDbCircle
 10
120.4
 20
67.89335
 40
0.186666667
100
AcDbArc
 50
180
 51
-90
  0
ARC
  5
AA
100
AcDbEntity
  8
Shape2DView001
  6
ByLayer
 62
  256
370
   -1
100
AcDbCircle
 10
120.4
 20
67.89335
 40
0.186666667
100
AcDbArc
 50
-90
 51
90
  0
LINE
  5
AB
100
AcDbEntity
  8
Shape2DView001
  6
ByLayer
 62
  256
370
   -1
100
AcDbLine
 10
120.4
 20
68.080016667
 11
120.4
 21
82.8
  0
LINE
  5
AC
100
AcDbEntity
  8
Shape2DView001
  6
ByLayer
 62
  256
370
   -1
100
AcDbLine
 10
120.4
 20
82.8
 11
138.869983333
 21
82.8
  0
ARC
  5
AD
100
AcDbEntity
  8
Shape2DView001
  6
ByLayer
 62
  256
370
   -1
100
AcDbCircle
 10
139.05665
 20
82.8
 40
0.186666667
100
AcDbArc
 50
180
 51
0
  0
ARC
  5
AE
100
AcDbEntity
  8
Shape2DView001
  6
ByLayer
 62
  256
370
   -1
100
AcDbCircle
 10
139.05665
 20
82.8
 40
0.186666667
100
AcDbArc
 50
0
 51
90
  0
ARC
  5
AF
100
AcDbEntity
  8
Shape2DView001
  6
ByLayer
 62
  256
370
   -1
100
AcDbCircle
 10
149.24335
 20
82.8
 40
0.186666667
100
AcDbArc
 50
90
 51
180
  0
ARC
  5
B0
100
AcDbEntity
  8
Shape2DView001
  6
ByLayer
 62
  256
370
   -1
100
AcDbCircle
 10
149.24335
 20
82.8
 40
0.186666667
100
AcDbArc
 50
180
 51
0
  0
LINE
  5
B1
100
AcDbEntity
  8
Shape2DView001
  6
ByLayer
 62
  256
370
   -1
100
AcDbLine
 10
149.430016667
 20
82.8
 11
186.369983333
 21
82.8
  0
ARC
  5
B2
100
AcDbEntity
  8
Shape2DView001
  6
ByLayer
 62
  256
370
   -1
100
AcDbCircle
 10
186.55665
 20
82.8
 40
0.186666667
100
AcDbArc
 50
-180
 51
-0
  0
ARC
  5
B3
100
AcDbEntity
  8
Shape2DView001
  6
ByLayer
 62
  256
370
   -1
100
AcDbCircle
 10
186.55665
 20
82.8
 40
0.186666667
100
AcDbArc
 50
-0
 51
90
  0
ARC
  5
B4
100
AcDbEntity
  8
Shape2DView001
  6
ByLayer
 62
  256
370
   -1
100
AcDbCircle
 10
196.74335
 20
82.8
 40
0.186666667
100
AcDbArc
 50
90
 51
-180
  0
ARC
  5
B5
100
AcDbEntity
  8
Shape2DView001
  6
ByLayer
 62
  256
370
   -1
100
AcDbCircle
 10
196.74335
 20
82.8
 40
0.186666667
100
AcDbArc
 50
-180
 51
-0
  0
LINE
  5
B6
100
AcDbEntity
  8
Shape2DView001
  6
ByLayer
 62
  256
370
   -1
100
AcDbLine
 10
196.930016667
 20
82.8
 11
215.4
 21
82.8
  0
LINE
  5
B7
100
AcDbEntity
  8
Shape2DView001
  6
ByLayer
 62
  256
370
   -1
100
AcDbLine
 10
215.4
 20
82.8
 11
215.4
 21
69.330016667
  0
ARC
  5
B8
100
AcDbEntity
  8
Shape2DView001
  6
ByLayer
 62
  256
370
   -1
100
AcDbCircle
 10
215.4
 20
69.14335
 40
0.186666667
100
AcDbArc
 50
90
 51
-90
  0
ARC
  5
B9
100
AcDbEntity
  8
Shape2DView001
  6
ByLayer
 62
  256
370
   -1
100
AcDbCircle
 10
215.4
 20
69.14335
 40
0.186666667
100
AcDbArc
 50
-90
 51
0
  0
ARC
  5
BA
100
AcDbEntity
  8
Shape2DView001
  6
ByLayer
 62
  256
370
   -1
100
AcDbCircle
 10
215.4
 20
58.95665
 40
0.186666667
100
AcDbArc
 50
0
 51
90
  0
ARC
  5
BB
100
AcDbEntity
  8
Shape2DView001
  6
ByLayer
 62
  256
370
   -1
100
AcDbCircle
 10
215.4
 20
58.95665
 40
0.186666667
100
AcDbArc
 50
90
 51
-90
  0
LINE
  5
BC
100
AcDbEntity
  8
Shape2DView001
  6
ByLayer
 62
  256
370
   -1
100
AcDbLine
 10
215.4
 20
58.769983333
 11
215.4
 21
31.830016667
  0
ARC
  5
BD
100
AcDbEntity
  8
Shape2DView001
  6
ByLayer
 62
  256
370
   -1
100
AcDbCircle
 10
215.4
 20
31.64335
 40
0.186666667
100
AcDbArc
 50
90
 51
-90
  0
ARC
  5
BE
100
AcDbEntity
  8
Shape2DView001
  6
ByLayer
 62
  256
370
   -1
100
AcDbCircle
 10
215.4
 20
31.64335
 40
0.186666667
100
AcDbArc
 50
-90
 51
0
  0
ARC
  5
BF
100
AcDbEntity
  8
Shape2DView001
  6
ByLayer
 62
  256
370
   -1
100
AcDbCircle
 10
215.4
 20
21.45665
 40
0.186666667
100
AcDbArc
 50
0
 51
90
  0
ARC
  5
C0
100
AcDbEntity
  8
Shape2DView001
  6
ByLayer
 62
  256
370
   -1
100
AcDbCircle
 10
215.4
 20
21.45665
 40
0.186666667
100
AcDbArc
 50
90
 51
-90
  0
LINE
  5
C1
100
AcDbEntity
  8
Shape2DView001
  6
ByLayer
 62
  256
370
   -1
100
AcDbLine
 10
215.4
 20
21.269983333
 11
215.4
 21
7.8
  0
LINE
  5
C2
100
AcDbEntity
  8
Shape2DView001
  6
ByLayer
 62
  256
370
   -1
100
AcDbLine
 10
215.4
 20
7.8
 11
203.180016667
 21
7.8
  0
ARC
  5
C3
100
AcDbEntity
  8
Shape2DView001
  6
ByLayer
 62
  256
370
   -1
100
AcDbCircle
 10
202.99335
 20
7.8
 40
0.186666667
100
AcDbArc
 50
-0
 51
-180
  0
ARC
  5
C4
100
AcDbEntity
  8
Shape2DView001
  6
ByLayer
 62
  256
370
   -1
100
AcDbCircle
 10
202.99335
 20
7.8
 40
0.186666667
100
AcDbArc
 50
-180
 51
-90
  0
ARC
  5
C5
100
AcDbEntity
  8
Shape2DView001
  6
ByLayer
 62
  256
370
   -1
100
AcDbCircle
 10
192.80665
 20
7.8
 40
0.186666667
100
AcDbArc
 50
-90
 51
-0
  0
ARC
  5
C6
100
AcDbEntity
  8
Shape2DView001
  6
ByLayer
 62
  256
370
   -1
100
AcDbCircle
 10
192.80665
 20
7.8
 40
0.186666667
100
AcDbArc
 50
-0
 51
-180
  0
LINE
  5
C7
100
AcDbEntity
  8
Shape2DView001
  6
ByLayer
 62
  256
370
   -1
100
AcDbLine
 10
192.619983333
 20
7.8
 11
180.4
 21
7.8
  0
LINE
  5
C8
100
AcDbEntity
  8
Shape2DView001
  6
ByLayer
 62
  256
370
   -1
100
AcDbLine
 10
180.4
 20
7.8
 11
180.4
 21
17.779897855
  0
ARC
  5
C9
100
AcDbEntity
  8
Shape2DView001
  6
ByLayer
 62
  256
370
   -1
100
AcDbCircle
 10
180.4
 20
17.966564522
 40
0.186666667
100
AcDbArc
 50
-90
 51
90
  0
ARC
  5
CA
100
AcDbEntity
  8
Shape2DView001
  6
ByLayer
 62
  256
370
   -1
100
AcDbCircle
 10
180.4
 20
17.966564522
 40
0.186666667
100
AcDbArc
 50
90
 51
180
  0
LINE
  5
CB
100
AcDbEntity
  8
Shape2DView001
  6
ByLayer
 62
  256
370
   -1
100
AcDbLine
 10
180.213333333
 20
28.153264522
 11
177.6
 21
28.153264522
  0
ARC
  5
CC
100
AcDbEntity
  8
Shape2DView001
  6
ByLayer
 62
  256
370
   -1
100
AcDbCircle
 10
180.4
 20
28.153264522
 40
0.186666667
100
AcDbArc
 50
180
 51
-90
  0
ARC
  5
CD
100
AcDbEntity
  8
Shape2DView001
  6
ByLayer
 62
  256
370
   -1
100
AcDbCircle
 10
180.4
 20
28.153264522
 40
0.186666667
100
AcDbArc
 50
-90
 51
90
  0
LINE
  5
CE
100
AcDbEntity
  8
Shape2DView001
  6
ByLayer
 62
  256
370
   -1
100
AcDbLine
 10
180.4
 20
28.339931188
 11
180.4
 21
38.319829044
  0
LINE
  5
CF
100
AcDbEntity
  8
Shape2DView001
  6
ByLayer
 62
  256
370
   -1
100
AcDbLine
 10
180.4
 20
38.319829044
 11
158.600927784
 21
46.254042465
  0
ARC
  5
D0
100
AcDbEntity
  8
Shape2DView001
  6
ByLayer
 62
  256
370
   -1
100
AcDbCircle
 10
158.425518495
 20
46.317886225
 40
0.186666667
100
AcDbArc
 50
-20
 51
160
  0
ARC
  5
D1
100
AcDbEntity
  8
Shape2DView001
  6
ByLayer
 62
  256
370
   -1
100
AcDbCircle
 10
158.425518495
 20
46.317886225
 40
0.186666667
100
AcDbArc
 50
160
 51
-110
  0
ARC
  5
D2
100
AcDbEntity
  8
Shape2DView001
  6
ByLayer
 62
  256
370
   -1
100
AcDbCircle
 10
146.368537134
 20
78.31497522399999
 40
0.755
100
AcDbArc
 50
70
 51
-110
  0
LINE
  5
D3
100
AcDbEntity
  8
Shape2DView001
  6
ByLayer
 62
  256
370
   -1
100
AcDbLine
 10
146.626762343
 20
79.02444315300001
 11
157.903073792
 21
74.920201433
  0
ARC
  5
D4
100
AcDbEntity
  8
Shape2DView001
  6
ByLayer
 62
  256
370
   -1
100
AcDbCircle
 10
157.644848584
 20
74.21073350499999
 40
0.755
100
AcDbArc
 50
-110
 51
70
  0
LINE
  5
D5
100
AcDbEntity
  8
Shape2DView001
  6
ByLayer
 62
  256
370
   -1
100
AcDbLine
 10
146.110311926
 20
77.605507296
 11
157.386623376
 21
73.50126557599999
  0
ARC
  5
D6
100
AcDbEntity
  8
Shape2DView001
  6
ByLayer
 62
  256
370
   -1
100
AcDbCircle
 10
176.438701
 20
67.370330638
 40
0.755
100
AcDbArc
 50
70
 51
-110
  0
LINE
  5
D7
100
AcDbEntity
  8
Shape2DView001
  6
ByLayer
 62
  256
370
   -1
100
AcDbLine
 10
176.696926208
 20
68.079798567
 11
187.973237657
 21
63.975556847
  0
ARC
  5
D8
100
AcDbEntity
  8
Shape2DView001
  6
ByLayer
 62
  256
370
   -1
100
AcDbCircle
 10
187.715012449
 20
63.266088918
 40
0.755
100
AcDbArc
 50
-110
 51
70
  0
LINE
  5
D9
100
AcDbEntity
  8
Shape2DView001
  6
ByLayer
 62
  256
370
   -1
100
AcDbLine
 10
176.180475791
 20
66.660862709
 11
187.456787241
 21
62.556620989
  0
ARC
  5
DA
100
AcDbEntity
  8
Shape2DView001
  6
ByLayer
 62
  256
370
   -1
100
AcDbCircle
 10
186.045
 20
27.5
 40
0.755
100
AcDbArc
 50
0
 51
180
  0
LINE
  5
DB
100
AcDbEntity
  8
Shape2DView001
  6
ByLayer
 62
  256
370
   -1
100
AcDbLine
 10
186.8
 20
27.5
 11
186.8
 21
15.5
  0
ARC
  5
DC
100
AcDbEntity
  8
Shape2DView001
  6
ByLayer
 62
  256
370
   -1
100
AcDbCircle
 10
186.045
 20
15.5
 40
0.755
100
AcDbArc
 50
-180
 51
0
  0
LINE
  5
DD
100
AcDbEntity
  8
Shape2DView001
  6
ByLayer
 62
  256
370
   -1
100
AcDbLine
 10
185.29
 20
27.5
 11
185.29
 21
15.5
  0
LINE
  5
DE
100
AcDbEntity
  8
Shape2DView002
  6
ByLayer
 62
  256
370
   -1
100
AcDbLine
 10
224.8
 20
120.70665
 11
222.225339318
 21
120.70665
  0
LINE
  5
DF
100
AcDbEntity
  8
Shape2DView002
  6
ByLayer
 62
  256
370
   -1
100
AcDbLine
 10
224.8
 20
120.70665
 11
224.8
 21
135.8
  0
LINE
  5
E0
100
AcDbEntity
  8
Shape2DView002
  6
ByLayer
 62
  256
370
   -1
100
AcDbLine
 10
201.730016667
 20
135.8
 11
224.8
 21
135.8
  0
ARC
  5
E1
100
AcDbEntity
  8
Shape2DView002
  6
ByLayer
 62
  256
370
   -1
100
AcDbCircle
 10
201.54335
 20
135.8
 40
0.186666667
100
AcDbArc
 50
90
 51
180
  0
ARC
  5
E2
100
AcDbEntity
  8
Shape2DView002
  6
ByLayer
 62
  256
370
   -1
100
AcDbCircle
 10
201.54335
 20
135.8
 40
0.186666667
100
AcDbArc
 50
180
 51
0
  0
LINE
  5
E3
100
AcDbEntity
  8
Shape2DView002
  6
ByLayer
 62
  256
370
   -1
100
AcDbLine
 10
201.54335
 20
135.986666667
 11
201.54335
 21
138.6
  0
LINE
  5
E4
100
AcDbEntity
  8
Shape2DView002
  6
ByLayer
 62
  256
370
   -1
100
AcDbLine
 10
201.54335
 20
138.6
 11
191.35665
 21
138.6
  0
ARC
  5
E5
100
AcDbEntity
  8
Shape2DView002
  6
ByLayer
 62
  256
370
   -1
100
AcDbCircle
 10
191.35665
 20
135.8
 40
0.186666667
100
AcDbArc
 50
180
 51
0
  0
ARC
  5
E6
100
AcDbEntity
  8
Shape2DView002
  6
ByLayer
 62
  256
370
   -1
100
AcDbCircle
 10
191.35665
 20
135.8
 40
0.186666667
100
AcDbArc
 50
0
 51
90
  0
LINE
  5
E7
100
AcDbEntity
  8
Shape2DView002
  6
ByLayer
 62
  256
370
   -1
100
AcDbLine
 10
182.830016667
 20
135.8
 11
191.169983333
 21
135.8
  0
ARC
  5
E8
100
AcDbEntity
  8
Shape2DView002
  6
ByLayer
 62
  256
370
   -1
100
AcDbCircle
 10
182.64335
 20
135.8
 40
0.186666667
100
AcDbArc
 50
90
 51
180
  0
ARC
  5
E9
100
AcDbEntity
  8
Shape2DView002
  6
ByLayer
 62
  256
370
   -1
100
AcDbCircle
 10
182.64335
 20
135.8
 40
0.186666667
100
AcDbArc
 50
180
 51
0
  0
LINE
  5
EA
100
AcDbEntity
  8
Shape2DView002
  6
ByLayer
 62
  256
370
   -1
100
AcDbLine
 10
191.35665
 20
135.986666667
 11
191.35665
 21
138.6
  0
LINE
  5
EB
100
AcDbEntity
  8
Shape2DView002
  6
ByLayer
 62
  256
370
   -1
100
AcDbLine
 10
182.64335
 20
135.986666667
 11
182.64335
 21
138.6
  0
LINE
  5
EC
100
AcDbEntity
  8
Shape2DView002
  6
ByLayer
 62
  256
370
   -1
100
AcDbLine
 10
182.64335
 20
138.6
 11
172.45665
 21
138.6
  0
LINE
  5
ED
100
AcDbEntity
  8
Shape2DView002
  6
ByLayer
 62
  256
370
   -1
100
AcDbLine
 10
149.2
 20
93
 11
151.2
 21
92.25
  0
LINE
  5
EE
100
AcDbEntity
  8
Shape2DView002
  6
ByLayer
 62
  256
370
   -1
100
AcDbLine
 10
149.2
 20
93
 11
149.2
 21
95.8
  0
LINE
  5
EF
100
AcDbEntity
  8
Shape2DView002
  6
ByLayer
 62
  256
370
   -1
100
AcDbLine
 10
151.2
 20
92.25
 11
151.2
 21
93
  0
LINE
  5
F0
100
AcDbEntity
  8
Shape2DView002
  6
ByLayer
 62
  256
370
   -1
100
AcDbLine
 10
149.2
 20
95.8
 11
163.2
 21
95.8
  0
LINE
  5
F1
100
AcDbEntity
  8
Shape2DView002
  6
ByLayer
 62
  256
370
   -1
100
AcDbLine
 10
151.2
 20
93
 11
154
 21
93
  0
LINE
  5
F2
100
AcDbEntity
  8
Shape2DView002
  6
ByLayer
 62
  256
370
   -1
100
AcDbLine
 10
154
 20
93
 11
154
 21
91
  0
LINE
  5
F3
100
AcDbEntity
  8
Shape2DView002
  6
ByLayer
 62
  256
370
   -1
100
AcDbLine
 10
154
 20
91
 11
161.464101615
 21
93
  0
LINE
  5
F4
100
AcDbEntity
  8
Shape2DView002
  6
ByLayer
 62
  256
370
   -1
100
AcDbLine
 10
161.464101615
 20
93
 11
212.535898385
 21
93
  0
LINE
  5
F5
100
AcDbEntity
  8
Shape2DView002
  6
ByLayer
 62
  256
370
   -1
100
AcDbLine
 10
212.535898385
 20
93
 11
220
 21
91
  0
LINE
  5
F6
100
AcDbEntity
  8
Shape2DView002
  6
ByLayer
 62
  256
370
   -1
100
AcDbLine
 10
220
 20
91
 11
220
 21
93
  0
LINE
  5
F7
100
AcDbEntity
  8
Shape2DView002
  6
ByLayer
 62
  256
370
   -1
100
AcDbLine
 10
222.8
 20
93
 11
220
 21
93
  0
LINE
  5
F8
100
AcDbEntity
  8
Shape2DView002
  6
ByLayer
 62
  256
370
   -1
100
AcDbLine
 10
222.8
 20
92.25
 11
222.8
 21
93
  0
LINE
  5
F9
100
AcDbEntity
  8
Shape2DView002
  6
ByLayer
 62
  256
370
   -1
100
AcDbLine
 10
224.8
 20
93
 11
222.8
 21
92.25
  0
LINE
  5
FA
100
AcDbEntity
  8
Shape2DView002
  6
ByLayer
 62
  256
370
   -1
100
AcDbLine
 10
224.8
 20
95.8
 11
224.8
 21
93
  0
LINE
  5
FB
100
AcDbEntity
  8
Shape2DView002
  6
ByLayer
 62
  256
370
   -1
100
AcDbLine
 10
224.8
 20
95.8
 11
210.8
 21
95.8
  0
ARC
  5
FC
100
AcDbEntity
  8
Shape2DView002
  6
ByLayer
 62
  256
370
   -1
100
AcDbCircle
 10
210.8
 20
96.2
 40
0.4
100
AcDbArc
 50
90
 51
-90
  0
LINE
  5
FD
100
AcDbEntity
  8
Shape2DView002
  6
ByLayer
 62
  256
370
   -1
100
AcDbLine
 10
210.8
 20
96.59999999999999
 11
224.8
 21
96.59999999999999
  0
LINE
  5
FE
100
AcDbEntity
  8
Shape2DView002
  6
ByLayer
 62
  256
370
   -1
100
AcDbLine
 10
224.8
 20
96.59999999999999
 11
224.8
 21
110.89335
  0
LINE
  5
FF
100
AcDbEntity
  8
Shape2DView002
  6
ByLayer
 62
  256
370
   -1
100
AcDbLine
 10
224.8
 20
110.89335
 11
222.225339318
 21
110.89335
  0
ARC
  5
100
100
AcDbEntity
  8
Shape2DView002
  6
ByLayer
 62
  256
370
   -1
100
AcDbCircle
 10
163.2
 20
96.2
 40
0.4
100
AcDbArc
 50
-90
 51
90
  0
ARC
  5
101
100
AcDbEntity
  8
Shape2DView002
  6
ByLayer
 62
  256
370
   -1
100
AcDbCircle
 10
172.45665
 20
135.8
 40
0.186666667
100
AcDbArc
 50
180
 51
0
  0
ARC
  5
102
100
AcDbEntity
  8
Shape2DView002
  6
ByLayer
 62
  256
370
   -1
100
AcDbCircle
 10
172.45665
 20
135.8
 40
0.186666667
100
AcDbArc
 50
0
 51
90
  0
LINE
  5
103
100
AcDbEntity
  8
Shape2DView002
  6
ByLayer
 62
  256
370
   -1
100
AcDbLine
 10
149.2
 20
135.8
 11
172.269983333
 21
135.8
  0
LINE
  5
104
100
AcDbEntity
  8
Shape2DView002
  6
ByLayer
 62
  256
370
   -1
100
AcDbLine
 10
149.2
 20
120.70665
 11
149.2
 21
135.8
  0
LINE
  5
105
100
AcDbEntity
  8
Shape2DView002
  6
ByLayer
 62
  256
370
   -1
100
AcDbLine
 10
151.774660682
 20
120.70665
 11
149.2
 21
120.70665
  0
ARC
  5
106
100
AcDbEntity
  8
Shape2DView002
  6
ByLayer
 62
  256
370
   -1
100
AcDbCircle
 10
151.947095
 20
120.607095
 40
0.19911
100
AcDbArc
 50
-59.99999999999999
 51
150
  0
LINE
  5
107
100
AcDbEntity
  8
Shape2DView002
  6
ByLayer
 62
  256
370
   -1
100
AcDbLine
 10
152.04665
 20
120.434660682
 11
152.04665
 21
111.165339318
  0
ARC
  5
108
100
AcDbEntity
  8
Shape2DView002
  6
ByLayer
 62
  256
370
   -1
100
AcDbCircle
 10
151.947095
 20
110.992905
 40
0.19911
100
AcDbArc
 50
-150
 51
59.99999999999999
  0
LINE
  5
109
100
AcDbEntity
  8
Shape2DView002
  6
ByLayer
 62
  256
370
   -1
100
AcDbLine
 10
151.774660682
 20
110.89335
 11
149.2
 21
110.89335
  0
LINE
  5
10A
100
AcDbEntity
  8
Shape2DView002
  6
ByLayer
 62
  256
370
   -1
100
AcDbLine
 10
149.2
 20
96.59999999999999
 11
149.2
 21
110.89335
  0
LINE
  5
10B
100
AcDbEntity
  8
Shape2DView002
  6
ByLayer
 62
  256
370
   -1
100
AcDbLine
 10
163.2
 20
96.59999999999999
 11
149.2
 21
96.59999999999999
  0
LINE
  5
10C
100
AcDbEntity
  8
Shape2DView002
  6
ByLayer
 62
  256
370
   -1
100
AcDbLine
 10
172.45665
 20
135.986666667
 11
172.45665
 21
138.6
  0
ARC
  5
10D
100
AcDbEntity
  8
Shape2DView002
  6
ByLayer
 62
  256
370
   -1
100
AcDbCircle
 10
222.052905
 20
110.992905
 40
0.19911
100
AcDbArc
 50
180
 51
-30
  0
ARC
  5
10E
100
AcDbEntity
  8
Shape2DView002
  6
ByLayer
 62
  256
370
   -1
100
AcDbCircle
 10
222.052905
 20
110.992905
 40
0.19911
100
AcDbArc
 50
120
 51
180
  0
LINE
  5
10F
100
AcDbEntity
  8
Shape2DView002
  6
ByLayer
 62
  256
370
   -1
100
AcDbLine
 10
221.95335
 20
120.434660682
 11
221.95335
 21
111.165339318
  0
ARC
  5
110
100
AcDbEntity
  8
Shape2DView002
  6
ByLayer
 62
  256
370
   -1
100
AcDbCircle
 10
222.052905
 20
120.607095
 40
0.19911
100
AcDbArc
 50
180
 51
-120
  0
ARC
  5
111
100
AcDbEntity
  8
Shape2DView002
  6
ByLayer
 62
  256
370
   -1
100
AcDbCircle
 10
222.052905
 20
120.607095
 40
0.19911
100
AcDbArc
 50
30
 51
180
  0
LINE
  5
112
100
AcDbEntity
  8
Shape2DView003
  6
ByLayer
 62
  256
370
   -1
100
AcDbLine
 10
72.2
 20
169.4
 11
147.8
 21
169.4
  0
LINE
  5
113
100
AcDbEntity
  8
Shape2DView003
  6
ByLayer
 62
  256
370
   -1
100
AcDbLine
 10
72.2
 20
155.55665
 11
72.2
 21
169.4
  0
LINE
  5
114
100
AcDbEntity
  8
Shape2DView003
  6
ByLayer
 62
  256
370
   -1
100
AcDbLine
 10
147.8
 20
169.4
 11
147.8
 21
155.55665
  0
LINE
  5
115
100
AcDbEntity
  8
Shape2DView003
  6
ByLayer
 62
  256
370
   -1
100
AcDbLine
 10
72.2
 20
155.55665
 11
74.774660682
 21
155.55665
  0
LINE
  5
116
100
AcDbEntity
  8
Shape2DView003
  6
ByLayer
 62
  256
370
   -1
100
AcDbLine
 10
145.225339318
 20
155.55665
 11
147.8
 21
155.55665
  0
ARC
  5
117
100
AcDbEntity
  8
Shape2DView003
  6
ByLayer
 62
  256
370
   -1
100
AcDbCircle
 10
145.052905
 20
155.457095
 40
0.19911
100
AcDbArc
 50
30
 51
-120
  0
LINE
  5
118
100
AcDbEntity
  8
Shape2DView003
  6
ByLayer
 62
  256
370
   -1
100
AcDbLine
 10
144.95335
 20
146.015339318
 11
144.95335
 21
155.284660682
  0
ARC
  5
119
100
AcDbEntity
  8
Shape2DView003
  6
ByLayer
 62
  256
370
   -1
100
AcDbCircle
 10
145.052905
 20
145.842905
 40
0.19911
100
AcDbArc
 50
120
 51
-30
  0
LINE
  5
11A
100
AcDbEntity
  8
Shape2DView003
  6
ByLayer
 62
  256
370
   -1
100
AcDbLine
 10
145.225339318
 20
145.74335
 11
147.8
 21
145.74335
  0
LINE
  5
11B
100
AcDbEntity
  8
Shape2DView003
  6
ByLayer
 62
  256
370
   -1
100
AcDbLine
 10
147.8
 20
145.74335
 11
147.8
 21
118.05665
  0
LINE
  5
11C
100
AcDbEntity
  8
Shape2DView003
  6
ByLayer
 62
  256
370
   -1
100
AcDbLine
 10
145.225339318
 20
118.05665
 11
147.8
 21
118.05665
  0
ARC
  5
11D
100
AcDbEntity
  8
Shape2DView003
  6
ByLayer
 62
  256
370
   -1
100
AcDbCircle
 10
145.052905
 20
117.957095
 40
0.19911
100
AcDbArc
 50
30
 51
-120
  0
LINE
  5
11E
100
AcDbEntity
  8
Shape2DView003
  6
ByLayer
 62
  256
370
   -1
100
AcDbLine
 10
144.95335
 20
108.515339318
 11
144.95335
 21
117.784660682
  0
ARC
  5
11F
100
AcDbEntity
  8
Shape2DView003
  6
ByLayer
 62
  256
370
   -1
100
AcDbCircle
 10
145.052905
 20
108.342905
 40
0.19911
100
AcDbArc
 50
120
 51
-30
  0
LINE
  5
120
100
AcDbEntity
  8
Shape2DView003
  6
ByLayer
 62
  256
370
   -1
100
AcDbLine
 10
145.225339318
 20
108.24335
 11
147.8
 21
108.24335
  0
LINE
  5
121
100
AcDbEntity
  8
Shape2DView003
  6
ByLayer
 62
  256
370
   -1
100
AcDbLine
 10
147.8
 20
108.24335
 11
147.8
 21
94.40000000000001
  0
LINE
  5
122
100
AcDbEntity
  8
Shape2DView003
  6
ByLayer
 62
  256
370
   -1
100
AcDbLine
 10
147.8
 20
94.40000000000001
 11
126.620016667
 21
94.40000000000001
  0
ARC
  5
123
100
AcDbEntity
  8
Shape2DView003
  6
ByLayer
 62
  256
370
   -1
100
AcDbCircle
 10
126.43335
 20
94.40000000000001
 40
0.186666667
100
AcDbArc
 50
-0
 51
-180
  0
ARC
  5
124
100
AcDbEntity
  8
Shape2DView003
  6
ByLayer
 62
  256
370
   -1
100
AcDbCircle
 10
126.43335
 20
94.40000000000001
 40
0.186666667
100
AcDbArc
 50
-180
 51
-90
  0
LINE
  5
125
100
AcDbEntity
  8
Shape2DView003
  6
ByLayer
 62
  256
370
   -1
100
AcDbLine
 10
126.43335
 20
94.21333333299999
 11
126.43335
 21
91.59999999999999
  0
LINE
  5
126
100
AcDbEntity
  8
Shape2DView003
  6
ByLayer
 62
  256
370
   -1
100
AcDbLine
 10
116.24665
 20
91.59999999999999
 11
126.43335
 21
91.59999999999999
  0
LINE
  5
127
100
AcDbEntity
  8
Shape2DView003
  6
ByLayer
 62
  256
370
   -1
100
AcDbLine
 10
116.24665
 20
94.21333333299999
 11
116.24665
 21
91.59999999999999
  0
ARC
  5
128
100
AcDbEntity
  8
Shape2DView003
  6
ByLayer
 62
  256
370
   -1
100
AcDbCircle
 10
116.24665
 20
94.40000000000001
 40
0.186666667
100
AcDbArc
 50
-90
 51
-0
  0
ARC
  5
129
100
AcDbEntity
  8
Shape2DView003
  6
ByLayer
 62
  256
370
   -1
100
AcDbCircle
 10
116.24665
 20
94.40000000000001
 40
0.186666667
100
AcDbArc
 50
-0
 51
-180
  0
LINE
  5
12A
100
AcDbEntity
  8
Shape2DView003
  6
ByLayer
 62
  256
370
   -1
100
AcDbLine
 10
116.059983333
 20
94.40000000000001
 11
103.940016667
 21
94.40000000000001
  0
ARC
  5
12B
100
AcDbEntity
  8
Shape2DView003
  6
ByLayer
 62
  256
370
   -1
100
AcDbCircle
 10
103.75335
 20
94.40000000000001
 40
0.186666667
100
AcDbArc
 50
-0
 51
180
  0
ARC
  5
12C
100
AcDbEntity
  8
Shape2DView003
  6
ByLayer
 62
  256
370
   -1
100
AcDbCircle
 10
103.75335
 20
94.40000000000001
 40
0.186666667
100
AcDbArc
 50
180
 51
-90
  0
LINE
  5
12D
100
AcDbEntity
  8
Shape2DView003
  6
ByLayer
 62
  256
370
   -1
100
AcDbLine
 10
103.75335
 20
94.21333333299999
 11
103.75335
 21
91.59999999999999
  0
LINE
  5
12E
100
AcDbEntity
  8
Shape2DView003
  6
ByLayer
 62
  256
370
   -1
100
AcDbLine
 10
93.56665
 20
91.59999999999999
 11
103.75335
 21
91.59999999999999
  0
LINE
  5
12F
100
AcDbEntity
  8
Shape2DView003
  6
ByLayer
 62
  256
370
   -1
100
AcDbLine
 10
93.56665
 20
94.21333333299999
 11
93.56665
 21
91.59999999999999
  0
ARC
  5
130
100
AcDbEntity
  8
Shape2DView003
  6
ByLayer
 62
  256
370
   -1
100
AcDbCircle
 10
93.56665
 20
94.40000000000001
 40
0.186666667
100
AcDbArc
 50
-90
 51
-0
  0
ARC
  5
131
100
AcDbEntity
  8
Shape2DView003
  6
ByLayer
 62
  256
370
   -1
100
AcDbCircle
 10
93.56665
 20
94.40000000000001
 40
0.186666667
100
AcDbArc
 50
-0
 51
180
  0
LINE
  5
132
100
AcDbEntity
  8
Shape2DView003
  6
ByLayer
 62
  256
370
   -1
100
AcDbLine
 10
93.379983333
 20
94.40000000000001
 11
72.2
 21
94.40000000000001
  0
LINE
  5
133
100
AcDbEntity
  8
Shape2DView003
  6
ByLayer
 62
  256
370
   -1
100
AcDbLine
 10
72.2
 20
94.40000000000001
 11
72.2
 21
108.24335
  0
LINE
  5
134
100
AcDbEntity
  8
Shape2DView003
  6
ByLayer
 62
  256
370
   -1
100
AcDbLine
 10
72.2
 20
108.24335
 11
74.774660682
 21
108.24335
  0
ARC
  5
135
100
AcDbEntity
  8
Shape2DView003
  6
ByLayer
 62
  256
370
   -1
100
AcDbCircle
 10
74.947095
 20
155.457095
 40
0.19911
100
AcDbArc
 50
0
 51
150
  0
ARC
  5
136
100
AcDbEntity
  8
Shape2DView003
  6
ByLayer
 62
  256
370
   -1
100
AcDbCircle
 10
74.947095
 20
155.457095
 40
0.19911
100
AcDbArc
 50
-59.99999999999999
 51
0
  0
LINE
  5
137
100
AcDbEntity
  8
Shape2DView003
  6
ByLayer
 62
  256
370
   -1
100
AcDbLine
 10
75.04665
 20
146.015339318
 11
75.04665
 21
155.284660682
  0
ARC
  5
138
100
AcDbEntity
  8
Shape2DView003
  6
ByLayer
 62
  256
370
   -1
100
AcDbCircle
 10
74.947095
 20
145.842905
 40
0.19911
100
AcDbArc
 50
0
 51
59.99999999999999
  0
ARC
  5
139
100
AcDbEntity
  8
Shape2DView003
  6
ByLayer
 62
  256
370
   -1
100
AcDbCircle
 10
74.947095
 20
145.842905
 40
0.19911
100
AcDbArc
 50
-150
 51
0
  0
LINE
  5
13A
100
AcDbEntity
  8
Shape2DView003
  6
ByLayer
 62
  256
370
   -1
100
AcDbLine
 10
72.2
 20
145.74335
 11
74.774660682
 21
145.74335
  0
LINE
  5
13B
100
AcDbEntity
  8
Shape2DView003
  6
ByLayer
 62
  256
370
   -1
100
AcDbLine
 10
72.2
 20
118.05665
 11
72.2
 21
145.74335
  0
LINE
  5
13C
100
AcDbEntity
  8
Shape2DView003
  6
ByLayer
 62
  256
370
   -1
100
AcDbLine
 10
72.2
 20
118.05665
 11
74.774660682
 21
118.05665
  0
ARC
  5
13D
100
AcDbEntity
  8
Shape2DView003
  6
ByLayer
 62
  256
370
   -1
100
AcDbCircle
 10
74.947095
 20
117.957095
 40
0.19911
100
AcDbArc
 50
0
 51
150
  0
ARC
  5
13E
100
AcDbEntity
  8
Shape2DView003
  6
ByLayer
 62
  256
370
   -1
100
AcDbCircle
 10
74.947095
 20
117.957095
 40
0.19911
100
AcDbArc
 50
-59.99999999999999
 51
0
  0
LINE
  5
13F
100
AcDbEntity
  8
Shape2DView003
  6
ByLayer
 62
  256
370
   -1
100
AcDbLine
 10
75.04665
 20
108.515339318
 11
75.04665
 21
117.784660682
  0
ARC
  5
140
100
AcDbEntity
  8
Shape2DView003
  6
ByLayer
 62
  256
370
   -1
100
AcDbCircle
 10
74.947095
 20
108.342905
 40
0.19911
100
AcDbArc
 50
0
 51
59.99999999999999
  0
ARC
  5
141
100
AcDbEntity
  8
Shape2DView003
  6
ByLayer
 62
  256
370
   -1
100
AcDbCircle
 10
74.947095
 20
108.342905
 40
0.19911
100
AcDbArc
 50
-150
 51
0
  0
LINE
  5
142
100
AcDbEntity
  8
Shape2DView004
  6
ByLayer
 62
  256
370
   -1
100
AcDbLine
 10
147.2
 20
24.566564522
 11
144.625339318
 21
24.566564522
  0
LINE
  5
143
100
AcDbEntity
  8
Shape2DView004
  6
ByLayer
 62
  256
370
   -1
100
AcDbLine
 10
147.2
 20
31.940131281
 11
147.2
 21
24.566564522
  0
LINE
  5
144
100
AcDbEntity
  8
Shape2DView004
  6
ByLayer
 62
  256
370
   -1
100
AcDbLine
 10
133.580016667
 20
31.940131281
 11
147.2
 21
31.940131281
  0
ARC
  5
145
100
AcDbEntity
  8
Shape2DView004
  6
ByLayer
 62
  256
370
   -1
100
AcDbCircle
 10
133.39335
 20
31.940131281
 40
0.186666667
100
AcDbArc
 50
90
 51
180
  0
ARC
  5
146
100
AcDbEntity
  8
Shape2DView004
  6
ByLayer
 62
  256
370
   -1
100
AcDbCircle
 10
133.39335
 20
31.940131281
 40
0.186666667
100
AcDbArc
 50
180
 51
0
  0
LINE
  5
147
100
AcDbEntity
  8
Shape2DView004
  6
ByLayer
 62
  256
370
   -1
100
AcDbLine
 10
133.39335
 20
32.126797947
 11
133.39335
 21
34.740131281
  0
LINE
  5
148
100
AcDbEntity
  8
Shape2DView004
  6
ByLayer
 62
  256
370
   -1
100
AcDbLine
 10
133.39335
 20
34.740131281
 11
123.20665
 21
34.740131281
  0
ARC
  5
149
100
AcDbEntity
  8
Shape2DView004
  6
ByLayer
 62
  256
370
   -1
100
AcDbCircle
 10
123.20665
 20
31.940131281
 40
0.186666667
100
AcDbArc
 50
180
 51
0
  0
ARC
  5
14A
100
AcDbEntity
  8
Shape2DView004
  6
ByLayer
 62
  256
370
   -1
100
AcDbCircle
 10
123.20665
 20
31.940131281
 40
0.186666667
100
AcDbArc
 50
0
 51
90
  0
LINE
  5
14B
100
AcDbEntity
  8
Shape2DView004
  6
ByLayer
 62
  256
370
   -1
100
AcDbLine
 10
95.780016667
 20
31.940131281
 11
123.019983333
 21
31.940131281
  0
ARC
  5
14C
100
AcDbEntity
  8
Shape2DView004
  6
ByLayer
 62
  256
370
   -1
100
AcDbCircle
 10
95.59335
 20
31.940131281
 40
0.186666667
100
AcDbArc
 50
90
 51
180
  0
ARC
  5
14D
100
AcDbEntity
  8
Shape2DView004
  6
ByLayer
 62
  256
370
   -1
100
AcDbCircle
 10
95.59335
 20
31.940131281
 40
0.186666667
100
AcDbArc
 50
180
 51
0
  0
LINE
  5
14E
100
AcDbEntity
  8
Shape2DView004
  6
ByLayer
 62
  256
370
   -1
100
AcDbLine
 10
123.20665
 20
32.126797947
 11
123.20665
 21
34.740131281
  0
LINE
  5
14F
100
AcDbEntity
  8
Shape2DView004
  6
ByLayer
 62
  256
370
   -1
100
AcDbLine
 10
95.59335
 20
32.126797947
 11
95.59335
 21
34.740131281
  0
LINE
  5
150
100
AcDbEntity
  8
Shape2DView004
  6
ByLayer
 62
  256
370
   -1
100
AcDbLine
 10
95.59335
 20
34.740131281
 11
85.40665
 21
34.740131281
  0
ARC
  5
151
100
AcDbEntity
  8
Shape2DView004
  6
ByLayer
 62
  256
370
   -1
100
AcDbCircle
 10
85.40665
 20
31.940131281
 40
0.186666667
100
AcDbArc
 50
180
 51
0
  0
ARC
  5
152
100
AcDbEntity
  8
Shape2DView004
  6
ByLayer
 62
  256
370
   -1
100
AcDbCircle
 10
85.40665
 20
31.940131281
 40
0.186666667
100
AcDbArc
 50
0
 51
90
  0
LINE
  5
153
100
AcDbEntity
  8
Shape2DView004
  6
ByLayer
 62
  256
370
   -1
100
AcDbLine
 10
71.59999999999999
 20
31.940131281
 11
85.219983333
 21
31.940131281
  0
LINE
  5
154
100
AcDbEntity
  8
Shape2DView004
  6
ByLayer
 62
  256
370
   -1
100
AcDbLine
 10
71.59999999999999
 20
24.566564522
 11
71.59999999999999
 21
31.940131281
  0
LINE
  5
155
100
AcDbEntity
  8
Shape2DView004
  6
ByLayer
 62
  256
370
   -1
100
AcDbLine
 10
74.174660682
 20
24.566564522
 11
71.59999999999999
 21
24.566564522
  0
ARC
  5
156
100
AcDbEntity
  8
Shape2DView004
  6
ByLayer
 62
  256
370
   -1
100
AcDbCircle
 10
74.347095
 20
24.467009522
 40
0.19911
100
AcDbArc
 50
-59.99999999999999
 51
150
  0
LINE
  5
157
100
AcDbEntity
  8
Shape2DView004
  6
ByLayer
 62
  256
370
   -1
100
AcDbLine
 10
74.44665000000001
 20
24.294575204
 11
74.44665000000001
 21
15.02525384
  0
ARC
  5
158
100
AcDbEntity
  8
Shape2DView004
  6
ByLayer
 62
  256
370
   -1
100
AcDbCircle
 10
74.347095
 20
14.852819522
 40
0.19911
100
AcDbArc
 50
-150
 51
59.99999999999999
  0
LINE
  5
159
100
AcDbEntity
  8
Shape2DView004
  6
ByLayer
 62
  256
370
   -1
100
AcDbLine
 10
74.174660682
 20
14.753264522
 11
71.59999999999999
 21
14.753264522
  0
LINE
  5
15A
100
AcDbEntity
  8
Shape2DView004
  6
ByLayer
 62
  256
370
   -1
100
AcDbLine
 10
71.59999999999999
 20
4.4
 11
71.59999999999999
 21
14.753264522
  0
LINE
  5
15B
100
AcDbEntity
  8
Shape2DView004
  6
ByLayer
 62
  256
370
   -1
100
AcDbLine
 10
94.669983333
 20
4.4
 11
71.59999999999999
 21
4.4
  0
ARC
  5
15C
100
AcDbEntity
  8
Shape2DView004
  6
ByLayer
 62
  256
370
   -1
100
AcDbCircle
 10
94.85665
 20
4.4
 40
0.186666667
100
AcDbArc
 50
-90
 51
-0
  0
ARC
  5
15D
100
AcDbEntity
  8
Shape2DView004
  6
ByLayer
 62
  256
370
   -1
100
AcDbCircle
 10
94.85665
 20
4.4
 40
0.186666667
100
AcDbArc
 50
-0
 51
-180
  0
LINE
  5
15E
100
AcDbEntity
  8
Shape2DView004
  6
ByLayer
 62
  256
370
   -1
100
AcDbLine
 10
85.40665
 20
32.126797947
 11
85.40665
 21
34.740131281
  0
LINE
  5
15F
100
AcDbEntity
  8
Shape2DView004
  6
ByLayer
 62
  256
370
   -1
100
AcDbLine
 10
94.85665
 20
4.213333333
 11
94.85665
 21
1.6
  0
LINE
  5
160
100
AcDbEntity
  8
Shape2DView004
  6
ByLayer
 62
  256
370
   -1
100
AcDbLine
 10
94.85665
 20
1.6
 11
105.04335
 21
1.6
  0
ARC
  5
161
100
AcDbEntity
  8
Shape2DView004
  6
ByLayer
 62
  256
370
   -1
100
AcDbCircle
 10
105.04335
 20
4.4
 40
0.186666667
100
AcDbArc
 50
-0
 51
-180
  0
ARC
  5
162
100
AcDbEntity
  8
Shape2DView004
  6
ByLayer
 62
  256
370
   -1
100
AcDbCircle
 10
105.04335
 20
4.4
 40
0.186666667
100
AcDbArc
 50
-180
 51
-90
  0
LINE
  5
163
100
AcDbEntity
  8
Shape2DView004
  6
ByLayer
 62
  256
370
   -1
100
AcDbLine
 10
113.569983333
 20
4.4
 11
105.230016667
 21
4.4
  0
ARC
  5
164
100
AcDbEntity
  8
Shape2DView004
  6
ByLayer
 62
  256
370
   -1
100
AcDbCircle
 10
113.75665
 20
4.4
 40
0.186666667
100
AcDbArc
 50
-90
 51
-0
  0
ARC
  5
165
100
AcDbEntity
  8
Shape2DView004
  6
ByLayer
 62
  256
370
   -1
100
AcDbCircle
 10
113.75665
 20
4.4
 40
0.186666667
100
AcDbArc
 50
-0
 51
-180
  0
LINE
  5
166
100
AcDbEntity
  8
Shape2DView004
  6
ByLayer
 62
  256
370
   -1
100
AcDbLine
 10
105.04335
 20
4.213333333
 11
105.04335
 21
1.6
  0
LINE
  5
167
100
AcDbEntity
  8
Shape2DView004
  6
ByLayer
 62
  256
370
   -1
100
AcDbLine
 10
113.75665
 20
4.213333333
 11
113.75665
 21
1.6
  0
LINE
  5
168
100
AcDbEntity
  8
Shape2DView004
  6
ByLayer
 62
  256
370
   -1
100
AcDbLine
 10
113.75665
 20
1.6
 11
123.94335
 21
1.6
  0
LINE
  5
169
100
AcDbEntity
  8
Shape2DView004
  6
ByLayer
 62
  256
370
   -1
100
AcDbLine
 10
147.2
 20
4.4
 11
124.130016667
 21
4.4
  0
ARC
  5
16A
100
AcDbEntity
  8
Shape2DView004
  6
ByLayer
 62
  256
370
   -1
100
AcDbCircle
 10
123.94335
 20
4.4
 40
0.186666667
100
AcDbArc
 50
-0
 51
-180
  0
ARC
  5
16B
100
AcDbEntity
  8
Shape2DView004
  6
ByLayer
 62
  256
370
   -1
100
AcDbCircle
 10
123.94335
 20
4.4
 40
0.186666667
100
AcDbArc
 50
-180
 51
-90
  0
LINE
  5
16C
100
AcDbEntity
  8
Shape2DView004
  6
ByLayer
 62
  256
370
   -1
100
AcDbLine
 10
147.2
 20
14.753264522
 11
147.2
 21
4.4
  0
LINE
  5
16D
100
AcDbEntity
  8
Shape2DView004
  6
ByLayer
 62
  256
370
   -1
100
AcDbLine
 10
147.2
 20
14.753264522
 11
144.625339318
 21
14.753264522
  0
LINE
  5
16E
100
AcDbEntity
  8
Shape2DView004
  6
ByLayer
 62
  256
370
   -1
100
AcDbLine
 10
123.94335
 20
4.213333333
 11
123.94335
 21
1.6
  0
ARC
  5
16F
100
AcDbEntity
  8
Shape2DView004
  6
ByLayer
 62
  256
370
   -1
100
AcDbCircle
 10
144.452905
 20
14.852819522
 40
0.19911
100
AcDbArc
 50
180
 51
-30
  0
ARC
  5
170
100
AcDbEntity
  8
Shape2DView004
  6
ByLayer
 62
  256
370
   -1
100
AcDbCircle
 10
144.452905
 20
14.852819522
 40
0.19911
100
AcDbArc
 50
120
 51
180
  0
LINE
  5
171
100
AcDbEntity
  8
Shape2DView004
  6
ByLayer
 62
  256
370
   -1
100
AcDbLine
 10
144.35335
 20
24.294575204
 11
144.35335
 21
15.02525384
  0
ARC
  5
172
100
AcDbEntity
  8
Shape2DView004
  6
ByLayer
 62
  256
370
   -1
100
AcDbCircle
 10
144.452905
 20
24.467009522
 40
0.19911
100
AcDbArc
 50
180
 51
-120
  0
ARC
  5
173
100
AcDbEntity
  8
Shape2DView004
  6
ByLayer
 62
  256
370
   -1
100
AcDbCircle
 10
144.452905
 20
24.467009522
 40
0.19911
100
AcDbArc
 50
30
 51
180
  0
CIRCLE
  5
174
100
AcDbEntity
  8
Shape2DView004
  6
ByLayer
 62
  256
370
   -1
100
AcDbCircle
 10
109.41
 20
21.134
 40
7.5
  0
LINE
  5
175
100
AcDbEntity
  8
Shape2DView004
  6
ByLayer
 62
  256
370
   -1
100
AcDbLine
 10
90.50918670999999
 20
12.288563791
 11
91.985430697
 21
20.484437197
  0
ARC
  5
176
100
AcDbEntity
  8
Shape2DView004
  6
ByLayer
 62
  256
370
   -1
100
AcDbCircle
 10
95.43000000000001
 20
19.864
 40
3.5
100
AcDbArc
 50
10.210655437
 51
169.789344563
  0
LINE
  5
177
100
AcDbEntity
  8
Shape2DView004
  6
ByLayer
 62
  256
370
   -1
100
AcDbLine
 10
98.874569303
 20
20.484437197
 11
100.35081329
 21
12.288563791
  0
ARC
  5
178
100
AcDbEntity
  8
Shape2DView004
  6
ByLayer
 62
  256
370
   -1
100
AcDbCircle
 10
95.43000000000001
 20
11.402224938
 40
5
100
AcDbArc
 50
169.789344563
 51
10.210655437
  0
CIRCLE
  5
179
100
AcDbEntity
  8
Shape2DView004
  6
ByLayer
 62
  256
370
   -1
100
AcDbCircle
 10
136.4
 20
14.6
 40
5
  0
CIRCLE
  5
17A
100
AcDbEntity
  8
Shape2DView004
  6
ByLayer
 62
  256
370
   -1
100
AcDbCircle
 10
82.40000000000001
 20
14.6
 40
5
  0
CIRCLE
  5
17B
100
AcDbEntity
  8
Shape2DView004
  6
ByLayer
 62
  256
370
   -1
100
AcDbCircle
 10
126.418
 20
16.562
 40
3
  0
ARC
  5
17C
100
AcDbEntity
  8
Shape2DView004
  6
ByLayer
 62
  256
370
   -1
100
AcDbCircle
 10
120.83
 20
14.55
 40
1.5
100
AcDbArc
 50
180
 51
0
  0
LINE
  5
17D
100
AcDbEntity
  8
Shape2DView004
  6
ByLayer
 62
  256
370
   -1
100
AcDbLine
 10
119.33
 20
14.55
 11
119.33
 21
17.05
  0
ARC
  5
17E
100
AcDbEntity
  8
Shape2DView004
  6
ByLayer
 62
  256
370
   -1
100
AcDbCircle
 10
120.83
 20
17.05
 40
1.5
100
AcDbArc
 50
0
 51
180
  0
LINE
  5
17F
100
AcDbEntity
  8
Shape2DView004
  6
ByLayer
 62
  256
370
   -1
100
AcDbLine
 10
122.33
 20
14.55
 11
122.33
 21
17.05
  0
LINE
  5
180
100
AcDbEntity
  8
Shape2DView005
  6
ByLayer
 62
  256
370
   -1
100
AcDbLine
 10
-4.8
 20
212.521061831
 11
70.8
 21
212.521061831
  0
LINE
  5
181
100
AcDbEntity
  8
Shape2DView005
  6
ByLayer
 62
  256
370
   -1
100
AcDbLine
 10
-4.8
 20
197.397814137
 11
-4.8
 21
212.521061831
  0
LINE
  5
182
100
AcDbEntity
  8
Shape2DView005
  6
ByLayer
 62
  256
370
   -1
100
AcDbLine
 10
70.8
 20
212.521061831
 11
70.8
 21
197.397814137
  0
LINE
  5
183
100
AcDbEntity
  8
Shape2DView005
  6
ByLayer
 62
  256
370
   -1
100
AcDbLine
 10
8.819983333
 20
197.397814137
 11
-4.8
 21
197.397814137
  0
LINE
  5
184
100
AcDbEntity
  8
Shape2DView005
  6
ByLayer
 62
  256
370
   -1
100
AcDbLine
 10
70.8
 20
197.397814137
 11
57.180016667
 21
197.397814137
  0
ARC
  5
185
100
AcDbEntity
  8
Shape2DView005
  6
ByLayer
 62
  256
370
   -1
100
AcDbCircle
 10
9.00665
 20
197.397814137
 40
0.186666667
100
AcDbArc
 50
-90
 51
0
  0
ARC
  5
186
100
AcDbEntity
  8
Shape2DView005
  6
ByLayer
 62
  256
370
   -1
100
AcDbCircle
 10
9.00665
 20
197.397814137
 40
0.186666667
100
AcDbArc
 50
0
 51
180
  0
ARC
  5
187
100
AcDbEntity
  8
Shape2DView005
  6
ByLayer
 62
  256
370
   -1
100
AcDbCircle
 10
56.99335
 20
197.397814137
 40
0.186666667
100
AcDbArc
 50
0
 51
180
  0
ARC
  5
188
100
AcDbEntity
  8
Shape2DView005
  6
ByLayer
 62
  256
370
   -1
100
AcDbCircle
 10
56.99335
 20
197.397814137
 40
0.186666667
100
AcDbArc
 50
180
 51
-90
  0
LINE
  5
189
100
AcDbEntity
  8
Shape2DView005
  6
ByLayer
 62
  256
370
   -1
100
AcDbLine
 10
9.00665
 20
197.21114747
 11
9.00665
 21
194.597814137
  0
LINE
  5
18A
100
AcDbEntity
  8
Shape2DView005
  6
ByLayer
 62
  256
370
   -1
100
AcDbLine
 10
9.00665
 20
194.597814137
 11
19.19335
 21
194.597814137
  0
ARC
  5
18B
100
AcDbEntity
  8
Shape2DView005
  6
ByLayer
 62
  256
370
   -1
100
AcDbCircle
 10
19.19335
 20
197.397814137
 40
0.186666667
100
AcDbArc
 50
0
 51
180
  0
ARC
  5
18C
100
AcDbEntity
  8
Shape2DView005
  6
ByLayer
 62
  256
370
   -1
100
AcDbCircle
 10
19.19335
 20
197.397814137
 40
0.186666667
100
AcDbArc
 50
180
 51
-90
  0
LINE
  5
18D
100
AcDbEntity
  8
Shape2DView005
  6
ByLayer
 62
  256
370
   -1
100
AcDbLine
 10
46.619983333
 20
197.397814137
 11
19.380016667
 21
197.397814137
  0
ARC
  5
18E
100
AcDbEntity
  8
Shape2DView005
  6
ByLayer
 62
  256
370
   -1
100
AcDbCircle
 10
46.80665
 20
197.397814137
 40
0.186666667
100
AcDbArc
 50
-90
 51
0
  0
ARC
  5
18F
100
AcDbEntity
  8
Shape2DView005
  6
ByLayer
 62
  256
370
   -1
100
AcDbCircle
 10
46.80665
 20
197.397814137
 40
0.186666667
100
AcDbArc
 50
0
 51
180
  0
LINE
  5
190
100
AcDbEntity
  8
Shape2DView005
  6
ByLayer
 62
  256
370
   -1
100
AcDbLine
 10
19.19335
 20
197.21114747
 11
19.19335
 21
194.597814137
  0
LINE
  5
191
100
AcDbEntity
  8
Shape2DView005
  6
ByLayer
 62
  256
370
   -1
100
AcDbLine
 10
46.80665
 20
197.21114747
 11
46.80665
 21
194.597814137
  0
LINE
  5
192
100
AcDbEntity
  8
Shape2DView005
  6
ByLayer
 62
  256
370
   -1
100
AcDbLine
 10
56.99335
 20
197.21114747
 11
56.99335
 21
194.597814137
  0
LINE
  5
193
100
AcDbEntity
  8
Shape2DView005
  6
ByLayer
 62
  256
370
   -1
100
AcDbLine
 10
46.80665
 20
194.597814137
 11
56.99335
 21
194.597814137
  0
LINE
  5
194
100
AcDbEntity
  8
Shape2DView006
  6
ByLayer
 62
  256
370
   -1
100
AcDbLine
 10
-4.540449377
 20
92.702668516
 11
-2.8
 21
92.05
  0
ARC
  5
195
100
AcDbEntity
  8
Shape2DView006
  6
ByLayer
 62
  256
370
   -1
100
AcDbCircle
 10
-4.4
 20
93.077200187
 40
0.4
100
AcDbArc
 50
180
 51
-110.55604522
  0
LINE
  5
196
100
AcDbEntity
  8
Shape2DView006
  6
ByLayer
 62
  256
370
   -1
100
AcDbLine
 10
-4.8
 20
93.077200187
 11
-4.8
 21
95.2
  0
ARC
  5
197
100
AcDbEntity
  8
Shape2DView006
  6
ByLayer
 62
  256
370
   -1
100
AcDbCircle
 10
-4.4
 20
95.2
 40
0.4
100
AcDbArc
 50
90
 51
180
  0
LINE
  5
198
100
AcDbEntity
  8
Shape2DView006
  6
ByLayer
 62
  256
370
   -1
100
AcDbLine
 10
-4.4
 20
95.59999999999999
 11
9.199999999999999
 21
95.59999999999999
  0
ARC
  5
199
100
AcDbEntity
  8
Shape2DView006
  6
ByLayer
 62
  256
370
   -1
100
AcDbCircle
 10
9.199999999999999
 20
96
 40
0.4
100
AcDbArc
 50
-90
 51
90
  0
LINE
  5
19A
100
AcDbEntity
  8
Shape2DView006
  6
ByLayer
 62
  256
370
   -1
100
AcDbLine
 10
9.199999999999999
 20
96.40000000000001
 11
-4.4
 21
96.40000000000001
  0
ARC
  5
19B
100
AcDbEntity
  8
Shape2DView006
  6
ByLayer
 62
  256
370
   -1
100
AcDbCircle
 10
-4.4
 20
96.8
 40
0.4
100
AcDbArc
 50
180
 51
-90
  0
LINE
  5
19C
100
AcDbEntity
  8
Shape2DView006
  6
ByLayer
 62
  256
370
   -1
100
AcDbLine
 10
-4.8
 20
96.8
 11
-4.8
 21
114.44335
  0
LINE
  5
19D
100
AcDbEntity
  8
Shape2DView006
  6
ByLayer
 62
  256
370
   -1
100
AcDbLine
 10
-4.8
 20
114.44335
 11
-2.225339318
 21
114.44335
  0
ARC
  5
19E
100
AcDbEntity
  8
Shape2DView006
  6
ByLayer
 62
  256
370
   -1
100
AcDbCircle
 10
-2.052905
 20
114.542905
 40
0.19911
100
AcDbArc
 50
-150
 51
0
  0
ARC
  5
19F
100
AcDbEntity
  8
Shape2DView006
  6
ByLayer
 62
  256
370
   -1
100
AcDbCircle
 10
-2.052905
 20
114.542905
 40
0.19911
100
AcDbArc
 50
0
 51
59.99999999999999
  0
LINE
  5
1A0
100
AcDbEntity
  8
Shape2DView006
  6
ByLayer
 62
  256
370
   -1
100
AcDbLine
 10
-1.95335
 20
123.984660682
 11
-1.95335
 21
114.715339318
  0
ARC
  5
1A1
100
AcDbEntity
  8
Shape2DView006
  6
ByLayer
 62
  256
370
   -1
100
AcDbCircle
 10
-2.052905
 20
124.157095
 40
0.19911
100
AcDbArc
 50
-59.99999999999999
 51
0
  0
ARC
  5
1A2
100
AcDbEntity
  8
Shape2DView006
  6
ByLayer
 62
  256
370
   -1
100
AcDbCircle
 10
-2.052905
 20
124.157095
 40
0.19911
100
AcDbArc
 50
0
 51
150
  0
LINE
  5
1A3
100
AcDbEntity
  8
Shape2DView006
  6
ByLayer
 62
  256
370
   -1
100
AcDbLine
 10
-4.8
 20
124.25665
 11
-2.225339318
 21
124.25665
  0
LINE
  5
1A4
100
AcDbEntity
  8
Shape2DView006
  6
ByLayer
 62
  256
370
   -1
100
AcDbLine
 10
-4.8
 20
124.25665
 11
-4.8
 21
161.94335
  0
LINE
  5
1A5
100
AcDbEntity
  8
Shape2DView006
  6
ByLayer
 62
  256
370
   -1
100
AcDbLine
 10
-4.8
 20
161.94335
 11
-2.225339318
 21
161.94335
  0
ARC
  5
1A6
100
AcDbEntity
  8
Shape2DView006
  6
ByLayer
 62
  256
370
   -1
100
AcDbCircle
 10
-2.052905
 20
162.042905
 40
0.19911
100
AcDbArc
 50
-150
 51
0
  0
ARC
  5
1A7
100
AcDbEntity
  8
Shape2DView006
  6
ByLayer
 62
  256
370
   -1
100
AcDbCircle
 10
-2.052905
 20
162.042905
 40
0.19911
100
AcDbArc
 50
0
 51
59.99999999999999
  0
LINE
  5
1A8
100
AcDbEntity
  8
Shape2DView006
  6
ByLayer
 62
  256
370
   -1
100
AcDbLine
 10
-1.95335
 20
171.484660682
 11
-1.95335
 21
162.215339318
  0
ARC
  5
1A9
100
AcDbEntity
  8
Shape2DView006
  6
ByLayer
 62
  256
370
   -1
100
AcDbCircle
 10
-2.052905
 20
171.657095
 40
0.19911
100
AcDbArc
 50
-59.99999999999999
 51
0
  0
ARC
  5
1AA
100
AcDbEntity
  8
Shape2DView006
  6
ByLayer
 62
  256
370
   -1
100
AcDbCircle
 10
-2.052905
 20
171.657095
 40
0.19911
100
AcDbArc
 50
0
 51
150
  0
LINE
  5
1AB
100
AcDbEntity
  8
Shape2DView006
  6
ByLayer
 62
  256
370
   -1
100
AcDbLine
 10
-4.8
 20
171.75665
 11
-2.225339318
 21
171.75665
  0
LINE
  5
1AC
100
AcDbEntity
  8
Shape2DView006
  6
ByLayer
 62
  256
370
   -1
100
AcDbLine
 10
-4.8
 20
171.75665
 11
-4.8
 21
189.4
  0
ARC
  5
1AD
100
AcDbEntity
  8
Shape2DView006
  6
ByLayer
 62
  256
370
   -1
100
AcDbCircle
 10
-4.4
 20
189.4
 40
0.4
100
AcDbArc
 50
90
 51
180
  0
LINE
  5
1AE
100
AcDbEntity
  8
Shape2DView006
  6
ByLayer
 62
  256
370
   -1
100
AcDbLine
 10
-4.4
 20
189.8
 11
9.199999999999999
 21
189.8
  0
ARC
  5
1AF
100
AcDbEntity
  8
Shape2DView006
  6
ByLayer
 62
  256
370
   -1
100
AcDbCircle
 10
9.199999999999999
 20
190.2
 40
0.4
100
AcDbArc
 50
-90
 51
90
  0
LINE
  5
1B0
100
AcDbEntity
  8
Shape2DView006
  6
ByLayer
 62
  256
370
   -1
100
AcDbLine
 10
9.199999999999999
 20
190.6
 11
-4.4
 21
190.6
  0
ARC
  5
1B1
100
AcDbEntity
  8
Shape2DView006
  6
ByLayer
 62
  256
370
   -1
100
AcDbCircle
 10
-4.4
 20
191
 40
0.4
100
AcDbArc
 50
180
 51
-90
  0
LINE
  5
1B2
100
AcDbEntity
  8
Shape2DView006
  6
ByLayer
 62
  256
370
   -1
100
AcDbLine
 10
-4.8
 20
191
 11
-4.8
 21
193.122799813
  0
ARC
  5
1B3
100
AcDbEntity
  8
Shape2DView006
  6
ByLayer
 62
  256
370
   -1
100
AcDbCircle
 10
-4.4
 20
193.122799813
 40
0.4
100
AcDbArc
 50
110.55604522
 51
180
  0
LINE
  5
1B4
100
AcDbEntity
  8
Shape2DView006
  6
ByLayer
 62
  256
370
   -1
100
AcDbLine
 10
-4.540449377
 20
193.497331484
 11
-2.8
 21
194.15
  0
LINE
  5
1B5
100
AcDbEntity
  8
Shape2DView006
  6
ByLayer
 62
  256
370
   -1
100
AcDbLine
 10
-2.8
 20
194.15
 11
-2.8
 21
193.4
  0
LINE
  5
1B6
100
AcDbEntity
  8
Shape2DView006
  6
ByLayer
 62
  256
370
   -1
100
AcDbLine
 10
-2.8
 20
193.4
 11
0
 21
193.4
  0
LINE
  5
1B7
100
AcDbEntity
  8
Shape2DView006
  6
ByLayer
 62
  256
370
   -1
100
AcDbLine
 10
0
 20
194.878709851
 11
0
 21
193.4
  0
ARC
  5
1B8
100
AcDbEntity
  8
Shape2DView006
  6
ByLayer
 62
  256
370
   -1
100
AcDbCircle
 10
0.4
 20
194.878709851
 40
0.4
100
AcDbArc
 50
75
 51
180
  0
LINE
  5
1B9
100
AcDbEntity
  8
Shape2DView006
  6
ByLayer
 62
  256
370
   -1
100
AcDbLine
 10
7.464101615
 20
193.4
 11
0.503527618
 21
195.265080181
  0
LINE
  5
1BA
100
AcDbEntity
  8
Shape2DView006
  6
ByLayer
 62
  256
370
   -1
100
AcDbLine
 10
58.535898385
 20
193.4
 11
7.464101615
 21
193.4
  0
LINE
  5
1BB
100
AcDbEntity
  8
Shape2DView006
  6
ByLayer
 62
  256
370
   -1
100
AcDbLine
 10
65.49647238199999
 20
195.265080181
 11
58.535898385
 21
193.4
  0
ARC
  5
1BC
100
AcDbEntity
  8
Shape2DView006
  6
ByLayer
 62
  256
370
   -1
100
AcDbCircle
 10
65.59999999999999
 20
194.878709851
 40
0.4
100
AcDbArc
 50
0
 51
105
  0
LINE
  5
1BD
100
AcDbEntity
  8
Shape2DView006
  6
ByLayer
 62
  256
370
   -1
100
AcDbLine
 10
66
 20
193.4
 11
66
 21
194.878709851
  0
LINE
  5
1BE
100
AcDbEntity
  8
Shape2DView006
  6
ByLayer
 62
  256
370
   -1
100
AcDbLine
 10
68.8
 20
193.4
 11
66
 21
193.4
  0
LINE
  5
1BF
100
AcDbEntity
  8
Shape2DView006
  6
ByLayer
 62
  256
370
   -1
100
AcDbLine
 10
68.8
 20
194.15
 11
68.8
 21
193.4
  0
LINE
  5
1C0
100
AcDbEntity
  8
Shape2DView006
  6
ByLayer
 62
  256
370
   -1
100
AcDbLine
 10
70.540449377
 20
193.497331484
 11
68.8
 21
194.15
  0
ARC
  5
1C1
100
AcDbEntity
  8
Shape2DView006
  6
ByLayer
 62
  256
370
   -1
100
AcDbCircle
 10
70.40000000000001
 20
193.122799813
 40
0.4
100
AcDbArc
 50
0
 51
69.44395478
  0
LINE
  5
1C2
100
AcDbEntity
  8
Shape2DView006
  6
ByLayer
 62
  256
370
   -1
100
AcDbLine
 10
70.8
 20
193.122799813
 11
70.8
 21
191
  0
ARC
  5
1C3
100
AcDbEntity
  8
Shape2DView006
  6
ByLayer
 62
  256
370
   -1
100
AcDbCircle
 10
70.40000000000001
 20
191
 40
0.4
100
AcDbArc
 50
-90
 51
0
  0
LINE
  5
1C4
100
AcDbEntity
  8
Shape2DView006
  6
ByLayer
 62
  256
370
   -1
100
AcDbLine
 10
70.40000000000001
 20
190.6
 11
56.8
 21
190.6
  0
ARC
  5
1C5
100
AcDbEntity
  8
Shape2DView006
  6
ByLayer
 62
  256
370
   -1
100
AcDbCircle
 10
56.8
 20
190.2
 40
0.4
100
AcDbArc
 50
90
 51
-90
  0
LINE
  5
1C6
100
AcDbEntity
  8
Shape2DView006
  6
ByLayer
 62
  256
370
   -1
100
AcDbLine
 10
56.8
 20
189.8
 11
70.40000000000001
 21
189.8
  0
ARC
  5
1C7
100
AcDbEntity
  8
Shape2DView006
  6
ByLayer
 62
  256
370
   -1
100
AcDbCircle
 10
70.40000000000001
 20
189.4
 40
0.4
100
AcDbArc
 50
0
 51
90
  0
LINE
  5
1C8
100
AcDbEntity
  8
Shape2DView006
  6
ByLayer
 62
  256
370
   -1
100
AcDbLine
 10
70.8
 20
189.4
 11
70.8
 21
171.75665
  0
LINE
  5
1C9
100
AcDbEntity
  8
Shape2DView006
  6
ByLayer
 62
  256
370
   -1
100
AcDbLine
 10
68.225339318
 20
171.75665
 11
70.8
 21
171.75665
  0
ARC
  5
1CA
100
AcDbEntity
  8
Shape2DView006
  6
ByLayer
 62
  256
370
   -1
100
AcDbCircle
 10
68.052905
 20
171.657095
 40
0.19911
100
AcDbArc
 50
30
 51
-120
  0
LINE
  5
1CB
100
AcDbEntity
  8
Shape2DView006
  6
ByLayer
 62
  256
370
   -1
100
AcDbLine
 10
67.95335
 20
171.484660682
 11
67.95335
 21
162.215339318
  0
ARC
  5
1CC
100
AcDbEntity
  8
Shape2DView006
  6
ByLayer
 62
  256
370
   -1
100
AcDbCircle
 10
68.052905
 20
162.042905
 40
0.19911
100
AcDbArc
 50
120
 51
-30
  0
LINE
  5
1CD
100
AcDbEntity
  8
Shape2DView006
  6
ByLayer
 62
  256
370
   -1
100
AcDbLine
 10
68.225339318
 20
161.94335
 11
70.8
 21
161.94335
  0
LINE
  5
1CE
100
AcDbEntity
  8
Shape2DView006
  6
ByLayer
 62
  256
370
   -1
100
AcDbLine
 10
70.8
 20
161.94335
 11
70.8
 21
124.25665
  0
LINE
  5
1CF
100
AcDbEntity
  8
Shape2DView006
  6
ByLayer
 62
  256
370
   -1
100
AcDbLine
 10
68.225339318
 20
124.25665
 11
70.8
 21
124.25665
  0
ARC
  5
1D0
100
AcDbEntity
  8
Shape2DView006
  6
ByLayer
 62
  256
370
   -1
100
AcDbCircle
 10
68.052905
 20
124.157095
 40
0.19911
100
AcDbArc
 50
30
 51
-120
  0
LINE
  5
1D1
100
AcDbEntity
  8
Shape2DView006
  6
ByLayer
 62
  256
370
   -1
100
AcDbLine
 10
67.95335
 20
123.984660682
 11
67.95335
 21
114.715339318
  0
ARC
  5
1D2
100
AcDbEntity
  8
Shape2DView006
  6
ByLayer
 62
  256
370
   -1
100
AcDbCircle
 10
68.052905
 20
114.542905
 40
0.19911
100
AcDbArc
 50
120
 51
-30
  0
LINE
  5
1D3
100
AcDbEntity
  8
Shape2DView006
  6
ByLayer
 62
  256
370
   -1
100
AcDbLine
 10
68.225339318
 20
114.44335
 11
70.8
 21
114.44335
  0
LINE
  5
1D4
100
AcDbEntity
  8
Shape2DView006
  6
ByLayer
 62
  256
370
   -1
100
AcDbLine
 10
70.8
 20
114.44335
 11
70.8
 21
96.8
  0
ARC
  5
1D5
100
AcDbEntity
  8
Shape2DView006
  6
ByLayer
 62
  256
370
   -1
100
AcDbCircle
 10
70.40000000000001
 20
96.8
 40
0.4
100
AcDbArc
 50
-90
 51
0
  0
LINE
  5
1D6
100
AcDbEntity
  8
Shape2DView006
  6
ByLayer
 62
  256
370
   -1
100
AcDbLine
 10
56.8
 20
96.40000000000001
 11
70.40000000000001
 21
96.40000000000001
  0
ARC
  5
1D7
100
AcDbEntity
  8
Shape2DView006
  6
ByLayer
 62
  256
370
   -1
100
AcDbCircle
 10
56.8
 20
96
 40
0.4
100
AcDbArc
 50
90
 51
-90
  0
LINE
  5
1D8
100
AcDbEntity
  8
Shape2DView006
  6
ByLayer
 62
  256
370
   -1
100
AcDbLine
 10
70.40000000000001
 20
95.59999999999999
 11
56.8
 21
95.59999999999999
  0
ARC
  5
1D9
100
AcDbEntity
  8
Shape2DView006
  6
ByLayer
 62
  256
370
   -1
100
AcDbCircle
 10
70.40000000000001
 20
95.2
 40
0.4
100
AcDbArc
 50
0
 51
90
  0
LINE
  5
1DA
100
AcDbEntity
  8
Shape2DView006
  6
ByLayer
 62
  256
370
   -1
100
AcDbLine
 10
70.8
 20
95.2
 11
70.8
 21
93.077200187
  0
ARC
  5
1DB
100
AcDbEntity
  8
Shape2DView006
  6
ByLayer
 62
  256
370
   -1
100
AcDbCircle
 10
70.40000000000001
 20
93.077200187
 40
0.4
100
AcDbArc
 50
-69.44395478
 51
0
  0
LINE
  5
1DC
100
AcDbEntity
  8
Shape2DView006
  6
ByLayer
 62
  256
370
   -1
100
AcDbLine
 10
70.540449377
 20
92.702668516
 11
68.8
 21
92.05
  0
LINE
  5
1DD
100
AcDbEntity
  8
Shape2DView006
  6
ByLayer
 62
  256
370
   -1
100
AcDbLine
 10
68.8
 20
92.05
 11
68.8
 21
92.8
  0
LINE
  5
1DE
100
AcDbEntity
  8
Shape2DView006
  6
ByLayer
 62
  256
370
   -1
100
AcDbLine
 10
68.8
 20
92.8
 11
66
 21
92.8
  0
LINE
  5
1DF
100
AcDbEntity
  8
Shape2DView006
  6
ByLayer
 62
  256
370
   -1
100
AcDbLine
 10
66
 20
91.32129014900001
 11
66
 21
92.8
  0
ARC
  5
1E0
100
AcDbEntity
  8
Shape2DView006
  6
ByLayer
 62
  256
370
   -1
100
AcDbCircle
 10
65.59999999999999
 20
91.32129014900001
 40
0.4
100
AcDbArc
 50
-105
 51
0
  0
LINE
  5
1E1
100
AcDbEntity
  8
Shape2DView006
  6
ByLayer
 62
  256
370
   -1
100
AcDbLine
 10
58.535898385
 20
92.8
 11
65.49647238199999
 21
90.934919819
  0
LINE
  5
1E2
100
AcDbEntity
  8
Shape2DView006
  6
ByLayer
 62
  256
370
   -1
100
AcDbLine
 10
47.35665
 20
92.8
 11
58.535898385
 21
92.8
  0
LINE
  5
1E3
100
AcDbEntity
  8
Shape2DView006
  6
ByLayer
 62
  256
370
   -1
100
AcDbLine
 10
47.35665
 20
92.8
 11
47.35665
 21
95.374660682
  0
ARC
  5
1E4
100
AcDbEntity
  8
Shape2DView006
  6
ByLayer
 62
  256
370
   -1
100
AcDbCircle
 10
47.257095
 20
95.547095
 40
0.19911
100
AcDbArc
 50
-59.99999999999999
 51
90
  0
ARC
  5
1E5
100
AcDbEntity
  8
Shape2DView006
  6
ByLayer
 62
  256
370
   -1
100
AcDbCircle
 10
47.257095
 20
95.547095
 40
0.19911
100
AcDbArc
 50
90
 51
150
  0
LINE
  5
1E6
100
AcDbEntity
  8
Shape2DView006
  6
ByLayer
 62
  256
370
   -1
100
AcDbLine
 10
37.815339318
 20
95.64664999999999
 11
47.084660682
 21
95.64664999999999
  0
ARC
  5
1E7
100
AcDbEntity
  8
Shape2DView006
  6
ByLayer
 62
  256
370
   -1
100
AcDbCircle
 10
37.642905
 20
95.547095
 40
0.19911
100
AcDbArc
 50
30
 51
90
  0
ARC
  5
1E8
100
AcDbEntity
  8
Shape2DView006
  6
ByLayer
 62
  256
370
   -1
100
AcDbCircle
 10
37.642905
 20
95.547095
 40
0.19911
100
AcDbArc
 50
90
 51
-120
  0
LINE
  5
1E9
100
AcDbEntity
  8
Shape2DView006
  6
ByLayer
 62
  256
370
   -1
100
AcDbLine
 10
37.54335
 20
92.8
 11
37.54335
 21
95.374660682
  0
LINE
  5
1EA
100
AcDbEntity
  8
Shape2DView006
  6
ByLayer
 62
  256
370
   -1
100
AcDbLine
 10
28.45665
 20
92.8
 11
37.54335
 21
92.8
  0
LINE
  5
1EB
100
AcDbEntity
  8
Shape2DView006
  6
ByLayer
 62
  256
370
   -1
100
AcDbLine
 10
28.45665
 20
92.8
 11
28.45665
 21
95.374660682
  0
ARC
  5
1EC
100
AcDbEntity
  8
Shape2DView006
  6
ByLayer
 62
  256
370
   -1
100
AcDbCircle
 10
28.357095
 20
95.547095
 40
0.19911
100
AcDbArc
 50
-59.99999999999999
 51
90
  0
ARC
  5
1ED
100
AcDbEntity
  8
Shape2DView006
  6
ByLayer
 62
  256
370
   -1
100
AcDbCircle
 10
28.357095
 20
95.547095
 40
0.19911
100
AcDbArc
 50
90
 51
150
  0
LINE
  5
1EE
100
AcDbEntity
  8
Shape2DView006
  6
ByLayer
 62
  256
370
   -1
100
AcDbLine
 10
18.915339318
 20
95.64664999999999
 11
28.184660682
 21
95.64664999999999
  0
ARC
  5
1EF
100
AcDbEntity
  8
Shape2DView006
  6
ByLayer
 62
  256
370
   -1
100
AcDbCircle
 10
18.742905
 20
95.547095
 40
0.19911
100
AcDbArc
 50
30
 51
90
  0
ARC
  5
1F0
100
AcDbEntity
  8
Shape2DView006
  6
ByLayer
 62
  256
370
   -1
100
AcDbCircle
 10
18.742905
 20
95.547095
 40
0.19911
100
AcDbArc
 50
90
 51
-120
  0
LINE
  5
1F1
100
AcDbEntity
  8
Shape2DView006
  6
ByLayer
 62
  256
370
   -1
100
AcDbLine
 10
18.64335
 20
92.8
 11
18.64335
 21
95.374660682
  0
LINE
  5
1F2
100
AcDbEntity
  8
Shape2DView006
  6
ByLayer
 62
  256
370
   -1
100
AcDbLine
 10
7.464101615
 20
92.8
 11
18.64335
 21
92.8
  0
LINE
  5
1F3
100
AcDbEntity
  8
Shape2DView006
  6
ByLayer
 62
  256
370
   -1
100
AcDbLine
 10
0.503527618
 20
90.934919819
 11
7.464101615
 21
92.8
  0
ARC
  5
1F4
100
AcDbEntity
  8
Shape2DView006
  6
ByLayer
 62
  256
370
   -1
100
AcDbCircle
 10
0.4
 20
91.32129014900001
 40
0.4
100
AcDbArc
 50
180
 51
-75
  0
LINE
  5
1F5
100
AcDbEntity
  8
Shape2DView006
  6
ByLayer
 62
  256
370
   -1
100
AcDbLine
 10
0
 20
92.8
 11
0
 21
91.32129014900001
  0
LINE
  5
1F6
100
AcDbEntity
  8
Shape2DView006
  6
ByLayer
 62
  256
370
   -1
100
AcDbLine
 10
-2.8
 20
92.8
 11
0
 21
92.8
  0
LINE
  5
1F7
100
AcDbEntity
  8
Shape2DView006
  6
ByLayer
 62
  256
370
   -1
100
AcDbLine
 10
-2.8
 20
92.05
 11
-2.8
 21
92.8
  0
ARC
  5
1F8
100
AcDbEntity
  8
Shape2DView006
  6
ByLayer
 62
  256
370
   -1
100
AcDbCircle
 10
16.61
 20
174
 40
0.8
100
AcDbArc
 50
163.267180167
 51
-15.832667197
  0
ARC
  5
1F9
100
AcDbEntity
  8
Shape2DView006
  6
ByLayer
 62
  256
370
   -1
100
AcDbCircle
 10
-10
 20
182
 40
26.986545305
100
AcDbArc
 50
-16.732819833
 51
16.732819833
  0
ARC
  5
1FA
100
AcDbEntity
  8
Shape2DView006
  6
ByLayer
 62
  256
370
   -1
100
AcDbCircle
 10
-11.6
 20
182
 40
30.12241634
100
AcDbArc
 50
-15.832667197
 51
15.832667197
  0
ARC
  5
1FB
100
AcDbEntity
  8
Shape2DView006
  6
ByLayer
 62
  256
370
   -1
100
AcDbCircle
 10
16.61
 20
190
 40
0.8
100
AcDbArc
 50
15.832667197
 51
-163.267180167
  0
ARC
  5
1FC
100
AcDbEntity
  8
Shape2DView006
  6
ByLayer
 62
  256
370
   -1
100
AcDbCircle
 10
44.39
 20
188.69
 40
2.11
100
AcDbArc
 50
-13.161241803
 51
90
  0
ARC
  5
1FD
100
AcDbEntity
  8
Shape2DView006
  6
ByLayer
 62
  256
370
   -1
100
AcDbCircle
 10
73
 20
182
 40
27.271766455
100
AcDbArc
 50
166.838758197
 51
-166.838758197
  0
LINE
  5
1FE
100
AcDbEntity
  8
Shape2DView006
  6
ByLayer
 62
  256
370
   -1
100
AcDbLine
 10
44.39
 20
190.8
 11
21.61
 21
190.8
  0
ARC
  5
1FF
100
AcDbEntity
  8
Shape2DView006
  6
ByLayer
 62
  256
370
   -1
100
AcDbCircle
 10
44.39
 20
175.31
 40
2.11
100
AcDbArc
 50
-90
 51
13.161241803
  0
ARC
  5
200
100
AcDbEntity
  8
Shape2DView006
  6
ByLayer
 62
  256
370
   -1
100
AcDbCircle
 10
21.61
 20
188.69
 40
2.11
100
AcDbArc
 50
90
 51
-166.838476918
  0
LINE
  5
201
100
AcDbEntity
  8
Shape2DView006
  6
ByLayer
 62
  256
370
   -1
100
AcDbLine
 10
21.61
 20
173.2
 11
44.39
 21
173.2
  0
ARC
  5
202
100
AcDbEntity
  8
Shape2DView006
  6
ByLayer
 62
  256
370
   -1
100
AcDbCircle
 10
-7
 20
182
 40
27.271766455
100
AcDbArc
 50
-13.161241803
 51
13.161220041
  0
ARC
  5
203
100
AcDbEntity
  8
Shape2DView006
  6
ByLayer
 62
  256
370
   -1
100
AcDbCircle
 10
21.61
 20
175.31
 40
2.11
100
AcDbArc
 50
166.838758197
 51
-90
  0
ARC
  5
204
100
AcDbEntity
  8
Shape2DView006
  6
ByLayer
 62
  256
370
   -1
100
AcDbCircle
 10
49.39
 20
174
 40
0.8
100
AcDbArc
 50
-164.167332803
 51
16.732819833
  0
ARC
  5
205
100
AcDbEntity
  8
Shape2DView006
  6
ByLayer
 62
  256
370
   -1
100
AcDbCircle
 10
77.59999999999999
 20
182
 40
30.12241634
100
AcDbArc
 50
164.167332803
 51
-164.167332803
  0
ARC
  5
206
100
AcDbEntity
  8
Shape2DView006
  6
ByLayer
 62
  256
370
   -1
100
AcDbCircle
 10
76
 20
182
 40
26.986545305
100
AcDbArc
 50
163.267180167
 51
-163.267180167
  0
ARC
  5
207
100
AcDbEntity
  8
Shape2DView006
  6
ByLayer
 62
  256
370
   -1
100
AcDbCircle
 10
49.39
 20
190
 40
0.8
100
AcDbArc
 50
-16.732819833
 51
164.167332803
  0
LINE
  5
208
100
AcDbEntity
  8
Shape2DView007
  6
ByLayer
 62
  256
370
   -1
100
AcDbLine
 10
147.259550623
 20
212.677331484
 11
145.8
 21
212.13
  0
LINE
  5
209
100
AcDbEntity
  8
Shape2DView007
  6
ByLayer
 62
  256
370
   -1
100
AcDbLine
 10
145.8
 20
212.13
 11
145.8
 21
212.88
  0
LINE
  5
20A
100
AcDbEntity
  8
Shape2DView007
  6
ByLayer
 62
  256
370
   -1
100
AcDbLine
 10
143
 20
212.88
 11
145.8
 21
212.88
  0
LINE
  5
20B
100
AcDbEntity
  8
Shape2DView007
  6
ByLayer
 62
  256
370
   -1
100
AcDbLine
 10
143
 20
214.358709851
 11
143
 21
212.88
  0
ARC
  5
20C
100
AcDbEntity
  8
Shape2DView007
  6
ByLayer
 62
  256
370
   -1
100
AcDbCircle
 10
142.6
 20
214.358709851
 40
0.4
100
AcDbArc
 50
0
 51
105
  0
LINE
  5
20D
100
AcDbEntity
  8
Shape2DView007
  6
ByLayer
 62
  256
370
   -1
100
AcDbLine
 10
135.535898385
 20
212.88
 11
142.496472382
 21
214.745080181
  0
LINE
  5
20E
100
AcDbEntity
  8
Shape2DView007
  6
ByLayer
 62
  256
370
   -1
100
AcDbLine
 10
124.35665
 20
212.88
 11
135.535898385
 21
212.88
  0
LINE
  5
20F
100
AcDbEntity
  8
Shape2DView007
  6
ByLayer
 62
  256
370
   -1
100
AcDbLine
 10
124.35665
 20
212.88
 11
124.35665
 21
210.305339318
  0
ARC
  5
210
100
AcDbEntity
  8
Shape2DView007
  6
ByLayer
 62
  256
370
   -1
100
AcDbCircle
 10
124.257095
 20
210.132905
 40
0.19911
100
AcDbArc
 50
-90
 51
59.99999999999999
  0
ARC
  5
211
100
AcDbEntity
  8
Shape2DView007
  6
ByLayer
 62
  256
370
   -1
100
AcDbCircle
 10
124.257095
 20
210.132905
 40
0.19911
100
AcDbArc
 50
-150
 51
-90
  0
LINE
  5
212
100
AcDbEntity
  8
Shape2DView007
  6
ByLayer
 62
  256
370
   -1
100
AcDbLine
 10
124.084660682
 20
210.03335
 11
114.815339318
 21
210.03335
  0
ARC
  5
213
100
AcDbEntity
  8
Shape2DView007
  6
ByLayer
 62
  256
370
   -1
100
AcDbCircle
 10
114.642905
 20
210.132905
 40
0.19911
100
AcDbArc
 50
-90
 51
-30
  0
ARC
  5
214
100
AcDbEntity
  8
Shape2DView007
  6
ByLayer
 62
  256
370
   -1
100
AcDbCircle
 10
114.642905
 20
210.132905
 40
0.19911
100
AcDbArc
 50
120
 51
-90
  0
LINE
  5
215
100
AcDbEntity
  8
Shape2DView007
  6
ByLayer
 62
  256
370
   -1
100
AcDbLine
 10
114.54335
 20
212.88
 11
114.54335
 21
210.305339318
  0
LINE
  5
216
100
AcDbEntity
  8
Shape2DView007
  6
ByLayer
 62
  256
370
   -1
100
AcDbLine
 10
105.45665
 20
212.88
 11
114.54335
 21
212.88
  0
LINE
  5
217
100
AcDbEntity
  8
Shape2DView007
  6
ByLayer
 62
  256
370
   -1
100
AcDbLine
 10
105.45665
 20
212.88
 11
105.45665
 21
210.305339318
  0
ARC
  5
218
100
AcDbEntity
  8
Shape2DView007
  6
ByLayer
 62
  256
370
   -1
100
AcDbCircle
 10
105.357095
 20
210.132905
 40
0.19911
100
AcDbArc
 50
-90
 51
59.99999999999999
  0
ARC
  5
219
100
AcDbEntity
  8
Shape2DView007
  6
ByLayer
 62
  256
370
   -1
100
AcDbCircle
 10
105.357095
 20
210.132905
 40
0.19911
100
AcDbArc
 50
-150
 51
-90
  0
LINE
  5
21A
100
AcDbEntity
  8
Shape2DView007
  6
ByLayer
 62
  256
370
   -1
100
AcDbLine
 10
105.184660682
 20
210.03335
 11
95.91533931799999
 21
210.03335
  0
ARC
  5
21B
100
AcDbEntity
  8
Shape2DView007
  6
ByLayer
 62
  256
370
   -1
100
AcDbCircle
 10
95.74290499999999
 20
210.132905
 40
0.19911
100
AcDbArc
 50
-90
 51
-30
  0
ARC
  5
21C
100
AcDbEntity
  8
Shape2DView007
  6
ByLayer
 62
  256
370
   -1
100
AcDbCircle
 10
95.74290499999999
 20
210.132905
 40
0.19911
100
AcDbArc
 50
120
 51
-90
  0
LINE
  5
21D
100
AcDbEntity
  8
Shape2DView007
  6
ByLayer
 62
  256
370
   -1
100
AcDbLine
 10
95.64335
 20
212.88
 11
95.64335
 21
210.305339318
  0
LINE
  5
21E
100
AcDbEntity
  8
Shape2DView007
  6
ByLayer
 62
  256
370
   -1
100
AcDbLine
 10
84.464101615
 20
212.88
 11
95.64335
 21
212.88
  0
LINE
  5
21F
100
AcDbEntity
  8
Shape2DView007
  6
ByLayer
 62
  256
370
   -1
100
AcDbLine
 10
77.50352761800001
 20
214.745080181
 11
84.464101615
 21
212.88
  0
ARC
  5
220
100
AcDbEntity
  8
Shape2DView007
  6
ByLayer
 62
  256
370
   -1
100
AcDbCircle
 10
77.40000000000001
 20
214.358709851
 40
0.4
100
AcDbArc
 50
75
 51
180
  0
LINE
  5
221
100
AcDbEntity
  8
Shape2DView007
  6
ByLayer
 62
  256
370
   -1
100
AcDbLine
 10
77
 20
212.88
 11
77
 21
214.358709851
  0
LINE
  5
222
100
AcDbEntity
  8
Shape2DView007
  6
ByLayer
 62
  256
370
   -1
100
AcDbLine
 10
74.2
 20
212.88
 11
77
 21
212.88
  0
LINE
  5
223
100
AcDbEntity
  8
Shape2DView007
  6
ByLayer
 62
  256
370
   -1
100
AcDbLine
 10
74.2
 20
213.63
 11
74.2
 21
212.88
  0
LINE
  5
224
100
AcDbEntity
  8
Shape2DView007
  6
ByLayer
 62
  256
370
   -1
100
AcDbLine
 10
72.459550623
 20
212.977331484
 11
74.2
 21
213.63
  0
ARC
  5
225
100
AcDbEntity
  8
Shape2DView007
  6
ByLayer
 62
  256
370
   -1
100
AcDbCircle
 10
72.59999999999999
 20
212.602799813
 40
0.4
100
AcDbArc
 50
110.55604522
 51
180
  0
LINE
  5
226
100
AcDbEntity
  8
Shape2DView007
  6
ByLayer
 62
  256
370
   -1
100
AcDbLine
 10
72.2
 20
210.48
 11
72.2
 21
212.602799813
  0
ARC
  5
227
100
AcDbEntity
  8
Shape2DView007
  6
ByLayer
 62
  256
370
   -1
100
AcDbCircle
 10
72.59999999999999
 20
210.48
 40
0.4
100
AcDbArc
 50
180
 51
-90
  0
LINE
  5
228
100
AcDbEntity
  8
Shape2DView007
  6
ByLayer
 62
  256
370
   -1
100
AcDbLine
 10
86.2
 20
210.08
 11
72.59999999999999
 21
210.08
  0
ARC
  5
229
100
AcDbEntity
  8
Shape2DView007
  6
ByLayer
 62
  256
370
   -1
100
AcDbCircle
 10
86.2
 20
209.68
 40
0.4
100
AcDbArc
 50
-90
 51
90
  0
LINE
  5
22A
100
AcDbEntity
  8
Shape2DView007
  6
ByLayer
 62
  256
370
   -1
100
AcDbLine
 10
72.59999999999999
 20
209.28
 11
86.2
 21
209.28
  0
ARC
  5
22B
100
AcDbEntity
  8
Shape2DView007
  6
ByLayer
 62
  256
370
   -1
100
AcDbCircle
 10
72.59999999999999
 20
208.88
 40
0.4
100
AcDbArc
 50
90
 51
180
  0
LINE
  5
22C
100
AcDbEntity
  8
Shape2DView007
  6
ByLayer
 62
  256
370
   -1
100
AcDbLine
 10
72.2
 20
197.48665
 11
72.2
 21
208.88
  0
LINE
  5
22D
100
AcDbEntity
  8
Shape2DView007
  6
ByLayer
 62
  256
370
   -1
100
AcDbLine
 10
72.2
 20
197.48665
 11
74.774660682
 21
197.48665
  0
ARC
  5
22E
100
AcDbEntity
  8
Shape2DView007
  6
ByLayer
 62
  256
370
   -1
100
AcDbCircle
 10
74.947095
 20
197.387095
 40
0.19911
100
AcDbArc
 50
0
 51
150
  0
ARC
  5
22F
100
AcDbEntity
  8
Shape2DView007
  6
ByLayer
 62
  256
370
   -1
100
AcDbCircle
 10
74.947095
 20
197.387095
 40
0.19911
100
AcDbArc
 50
-59.99999999999999
 51
0
  0
LINE
  5
230
100
AcDbEntity
  8
Shape2DView007
  6
ByLayer
 62
  256
370
   -1
100
AcDbLine
 10
75.04665
 20
197.214660682
 11
75.04665
 21
187.945339318
  0
ARC
  5
231
100
AcDbEntity
  8
Shape2DView007
  6
ByLayer
 62
  256
370
   -1
100
AcDbCircle
 10
74.947095
 20
187.772905
 40
0.19911
100
AcDbArc
 50
0
 51
59.99999999999999
  0
ARC
  5
232
100
AcDbEntity
  8
Shape2DView007
  6
ByLayer
 62
  256
370
   -1
100
AcDbCircle
 10
74.947095
 20
187.772905
 40
0.19911
100
AcDbArc
 50
-150
 51
0
  0
LINE
  5
233
100
AcDbEntity
  8
Shape2DView007
  6
ByLayer
 62
  256
370
   -1
100
AcDbLine
 10
72.2
 20
187.67335
 11
74.774660682
 21
187.67335
  0
LINE
  5
234
100
AcDbEntity
  8
Shape2DView007
  6
ByLayer
 62
  256
370
   -1
100
AcDbLine
 10
72.2
 20
176.28
 11
72.2
 21
187.67335
  0
ARC
  5
235
100
AcDbEntity
  8
Shape2DView007
  6
ByLayer
 62
  256
370
   -1
100
AcDbCircle
 10
72.59999999999999
 20
176.28
 40
0.4
100
AcDbArc
 50
180
 51
-90
  0
LINE
  5
236
100
AcDbEntity
  8
Shape2DView007
  6
ByLayer
 62
  256
370
   -1
100
AcDbLine
 10
86.2
 20
175.88
 11
72.59999999999999
 21
175.88
  0
ARC
  5
237
100
AcDbEntity
  8
Shape2DView007
  6
ByLayer
 62
  256
370
   -1
100
AcDbCircle
 10
86.2
 20
175.48
 40
0.4
100
AcDbArc
 50
-90
 51
90
  0
LINE
  5
238
100
AcDbEntity
  8
Shape2DView007
  6
ByLayer
 62
  256
370
   -1
100
AcDbLine
 10
72.59999999999999
 20
175.08
 11
86.2
 21
175.08
  0
ARC
  5
239
100
AcDbEntity
  8
Shape2DView007
  6
ByLayer
 62
  256
370
   -1
100
AcDbCircle
 10
72.59999999999999
 20
174.68
 40
0.4
100
AcDbArc
 50
90
 51
180
  0
LINE
  5
23A
100
AcDbEntity
  8
Shape2DView007
  6
ByLayer
 62
  256
370
   -1
100
AcDbLine
 10
72.2
 20
172.557200187
 11
72.2
 21
174.68
  0
ARC
  5
23B
100
AcDbEntity
  8
Shape2DView007
  6
ByLayer
 62
  256
370
   -1
100
AcDbCircle
 10
72.59999999999999
 20
172.557200187
 40
0.4
100
AcDbArc
 50
180
 51
-110.55604522
  0
LINE
  5
23C
100
AcDbEntity
  8
Shape2DView007
  6
ByLayer
 62
  256
370
   -1
100
AcDbLine
 10
72.459550623
 20
172.182668516
 11
74.2
 21
171.53
  0
LINE
  5
23D
100
AcDbEntity
  8
Shape2DView007
  6
ByLayer
 62
  256
370
   -1
100
AcDbLine
 10
74.2
 20
171.53
 11
74.2
 21
172.28
  0
LINE
  5
23E
100
AcDbEntity
  8
Shape2DView007
  6
ByLayer
 62
  256
370
   -1
100
AcDbLine
 10
77
 20
172.28
 11
74.2
 21
172.28
  0
LINE
  5
23F
100
AcDbEntity
  8
Shape2DView007
  6
ByLayer
 62
  256
370
   -1
100
AcDbLine
 10
77
 20
170.801290149
 11
77
 21
172.28
  0
ARC
  5
240
100
AcDbEntity
  8
Shape2DView007
  6
ByLayer
 62
  256
370
   -1
100
AcDbCircle
 10
77.40000000000001
 20
170.801290149
 40
0.4
100
AcDbArc
 50
180
 51
-75
  0
LINE
  5
241
100
AcDbEntity
  8
Shape2DView007
  6
ByLayer
 62
  256
370
   -1
100
AcDbLine
 10
84.464101615
 20
172.28
 11
77.50352761800001
 21
170.414919819
  0
LINE
  5
242
100
AcDbEntity
  8
Shape2DView007
  6
ByLayer
 62
  256
370
   -1
100
AcDbLine
 10
93.75335
 20
172.28
 11
84.464101615
 21
172.28
  0
LINE
  5
243
100
AcDbEntity
  8
Shape2DView007
  6
ByLayer
 62
  256
370
   -1
100
AcDbLine
 10
93.75335
 20
172.28
 11
93.75335
 21
174.854660682
  0
ARC
  5
244
100
AcDbEntity
  8
Shape2DView007
  6
ByLayer
 62
  256
370
   -1
100
AcDbCircle
 10
93.85290500000001
 20
175.027095
 40
0.19911
100
AcDbArc
 50
90
 51
-120
  0
ARC
  5
245
100
AcDbEntity
  8
Shape2DView007
  6
ByLayer
 62
  256
370
   -1
100
AcDbCircle
 10
93.85290500000001
 20
175.027095
 40
0.19911
100
AcDbArc
 50
30
 51
90
  0
LINE
  5
246
100
AcDbEntity
  8
Shape2DView007
  6
ByLayer
 62
  256
370
   -1
100
AcDbLine
 10
94.02533931799999
 20
175.12665
 11
103.294660682
 21
175.12665
  0
ARC
  5
247
100
AcDbEntity
  8
Shape2DView007
  6
ByLayer
 62
  256
370
   -1
100
AcDbCircle
 10
103.467095
 20
175.027095
 40
0.19911
100
AcDbArc
 50
90
 51
150
  0
ARC
  5
248
100
AcDbEntity
  8
Shape2DView007
  6
ByLayer
 62
  256
370
   -1
100
AcDbCircle
 10
103.467095
 20
175.027095
 40
0.19911
100
AcDbArc
 50
-59.99999999999999
 51
90
  0
LINE
  5
249
100
AcDbEntity
  8
Shape2DView007
  6
ByLayer
 62
  256
370
   -1
100
AcDbLine
 10
103.56665
 20
172.28
 11
103.56665
 21
174.854660682
  0
LINE
  5
24A
100
AcDbEntity
  8
Shape2DView007
  6
ByLayer
 62
  256
370
   -1
100
AcDbLine
 10
116.43335
 20
172.28
 11
103.56665
 21
172.28
  0
LINE
  5
24B
100
AcDbEntity
  8
Shape2DView007
  6
ByLayer
 62
  256
370
   -1
100
AcDbLine
 10
116.43335
 20
172.28
 11
116.43335
 21
174.854660682
  0
ARC
  5
24C
100
AcDbEntity
  8
Shape2DView007
  6
ByLayer
 62
  256
370
   -1
100
AcDbCircle
 10
116.532905
 20
175.027095
 40
0.19911
100
AcDbArc
 50
90
 51
-120
  0
ARC
  5
24D
100
AcDbEntity
  8
Shape2DView007
  6
ByLayer
 62
  256
370
   -1
100
AcDbCircle
 10
116.532905
 20
175.027095
 40
0.19911
100
AcDbArc
 50
30
 51
90
  0
LINE
  5
24E
100
AcDbEntity
  8
Shape2DView007
  6
ByLayer
 62
  256
370
   -1
100
AcDbLine
 10
116.705339318
 20
175.12665
 11
125.974660682
 21
175.12665
  0
ARC
  5
24F
100
AcDbEntity
  8
Shape2DView007
  6
ByLayer
 62
  256
370
   -1
100
AcDbCircle
 10
126.147095
 20
175.027095
 40
0.19911
100
AcDbArc
 50
90
 51
150
  0
ARC
  5
250
100
AcDbEntity
  8
Shape2DView007
  6
ByLayer
 62
  256
370
   -1
100
AcDbCircle
 10
126.147095
 20
175.027095
 40
0.19911
100
AcDbArc
 50
-59.99999999999999
 51
90
  0
LINE
  5
251
100
AcDbEntity
  8
Shape2DView007
  6
ByLayer
 62
  256
370
   -1
100
AcDbLine
 10
126.24665
 20
172.28
 11
126.24665
 21
174.854660682
  0
LINE
  5
252
100
AcDbEntity
  8
Shape2DView007
  6
ByLayer
 62
  256
370
   -1
100
AcDbLine
 10
135.535898385
 20
172.28
 11
126.24665
 21
172.28
  0
LINE
  5
253
100
AcDbEntity
  8
Shape2DView007
  6
ByLayer
 62
  256
370
   -1
100
AcDbLine
 10
142.496472382
 20
170.414919819
 11
135.535898385
 21
172.28
  0
ARC
  5
254
100
AcDbEntity
  8
Shape2DView007
  6
ByLayer
 62
  256
370
   -1
100
AcDbCircle
 10
142.6
 20
170.801290149
 40
0.4
100
AcDbArc
 50
-105
 51
0
  0
LINE
  5
255
100
AcDbEntity
  8
Shape2DView007
  6
ByLayer
 62
  256
370
   -1
100
AcDbLine
 10
143
 20
172.28
 11
143
 21
170.801290149
  0
LINE
  5
256
100
AcDbEntity
  8
Shape2DView007
  6
ByLayer
 62
  256
370
   -1
100
AcDbLine
 10
145.8
 20
172.28
 11
143
 21
172.28
  0
LINE
  5
257
100
AcDbEntity
  8
Shape2DView007
  6
ByLayer
 62
  256
370
   -1
100
AcDbLine
 10
145.8
 20
171.53
 11
145.8
 21
172.28
  0
LINE
  5
258
100
AcDbEntity
  8
Shape2DView007
  6
ByLayer
 62
  256
370
   -1
100
AcDbLine
 10
147.540449377
 20
172.182668516
 11
145.8
 21
171.53
  0
ARC
  5
259
100
AcDbEntity
  8
Shape2DView007
  6
ByLayer
 62
  256
370
   -1
100
AcDbCircle
 10
147.4
 20
172.557200187
 40
0.4
100
AcDbArc
 50
-69.44395478
 51
0
  0
LINE
  5
25A
100
AcDbEntity
  8
Shape2DView007
  6
ByLayer
 62
  256
370
   -1
100
AcDbLine
 10
147.8
 20
174.68
 11
147.8
 21
172.557200187
  0
ARC
  5
25B
100
AcDbEntity
  8
Shape2DView007
  6
ByLayer
 62
  256
370
   -1
100
AcDbCircle
 10
147.4
 20
174.68
 40
0.4
100
AcDbArc
 50
0
 51
90
  0
LINE
  5
25C
100
AcDbEntity
  8
Shape2DView007
  6
ByLayer
 62
  256
370
   -1
100
AcDbLine
 10
133.8
 20
175.08
 11
147.4
 21
175.08
  0
ARC
  5
25D
100
AcDbEntity
  8
Shape2DView007
  6
ByLayer
 62
  256
370
   -1
100
AcDbCircle
 10
133.8
 20
175.48
 40
0.4
100
AcDbArc
 50
90
 51
-90
  0
LINE
  5
25E
100
AcDbEntity
  8
Shape2DView007
  6
ByLayer
 62
  256
370
   -1
100
AcDbLine
 10
147.4
 20
175.88
 11
133.8
 21
175.88
  0
ARC
  5
25F
100
AcDbEntity
  8
Shape2DView007
  6
ByLayer
 62
  256
370
   -1
100
AcDbCircle
 10
147.4
 20
176.28
 40
0.4
100
AcDbArc
 50
-90
 51
0
  0
LINE
  5
260
100
AcDbEntity
  8
Shape2DView007
  6
ByLayer
 62
  256
370
   -1
100
AcDbLine
 10
147.8
 20
187.67335
 11
147.8
 21
176.28
  0
LINE
  5
261
100
AcDbEntity
  8
Shape2DView007
  6
ByLayer
 62
  256
370
   -1
100
AcDbLine
 10
145.225339318
 20
187.67335
 11
147.8
 21
187.67335
  0
ARC
  5
262
100
AcDbEntity
  8
Shape2DView007
  6
ByLayer
 62
  256
370
   -1
100
AcDbCircle
 10
145.052905
 20
187.772905
 40
0.19911
100
AcDbArc
 50
120
 51
-30
  0
LINE
  5
263
100
AcDbEntity
  8
Shape2DView007
  6
ByLayer
 62
  256
370
   -1
100
AcDbLine
 10
144.95335
 20
197.214660682
 11
144.95335
 21
187.945339318
  0
ARC
  5
264
100
AcDbEntity
  8
Shape2DView007
  6
ByLayer
 62
  256
370
   -1
100
AcDbCircle
 10
145.052905
 20
197.387095
 40
0.19911
100
AcDbArc
 50
30
 51
-120
  0
LINE
  5
265
100
AcDbEntity
  8
Shape2DView007
  6
ByLayer
 62
  256
370
   -1
100
AcDbLine
 10
145.225339318
 20
197.48665
 11
147.8
 21
197.48665
  0
LINE
  5
266
100
AcDbEntity
  8
Shape2DView007
  6
ByLayer
 62
  256
370
   -1
100
AcDbLine
 10
147.8
 20
208.88
 11
147.8
 21
197.48665
  0
ARC
  5
267
100
AcDbEntity
  8
Shape2DView007
  6
ByLayer
 62
  256
370
   -1
100
AcDbCircle
 10
147.4
 20
208.88
 40
0.4
100
AcDbArc
 50
0
 51
90
  0
LINE
  5
268
100
AcDbEntity
  8
Shape2DView007
  6
ByLayer
 62
  256
370
   -1
100
AcDbLine
 10
133.8
 20
209.28
 11
147.4
 21
209.28
  0
ARC
  5
269
100
AcDbEntity
  8
Shape2DView007
  6
ByLayer
 62
  256
370
   -1
100
AcDbCircle
 10
133.8
 20
209.68
 40
0.4
100
AcDbArc
 50
90
 51
-90
  0
LINE
  5
26A
100
AcDbEntity
  8
Shape2DView007
  6
ByLayer
 62
  256
370
   -1
100
AcDbLine
 10
147.4
 20
210.08
 11
133.8
 21
210.08
  0
ARC
  5
26B
100
AcDbEntity
  8
Shape2DView007
  6
ByLayer
 62
  256
370
   -1
100
AcDbCircle
 10
147.4
 20
210.48
 40
0.4
100
AcDbArc
 50
-90
 51
0
  0
LINE
  5
26C
100
AcDbEntity
  8
Shape2DView007
  6
ByLayer
 62
  256
370
   -1
100
AcDbLine
 10
147.8
 20
212.302799813
 11
147.8
 21
210.48
  0
ARC
  5
26D
100
AcDbEntity
  8
Shape2DView007
  6
ByLayer
 62
  256
370
   -1
100
AcDbCircle
 10
147.4
 20
212.302799813
 40
0.4
100
AcDbArc
 50
0
 51
110.55604522
  0
CIRCLE
  5
26E
100
AcDbEntity
  8
Shape2DView007
  6
ByLayer
 62
  256
370
   -1
100
AcDbCircle
 10
97.2
 20
185.58
 40
8.5
  0
LINE
  5
26F
100
AcDbEntity
  8
Shape2DView007
  6
ByLayer
 62
  256
370
   -1
100
AcDbLine
 10
107.15
 20
179.98
 11
112.85
 21
179.98
  0
ARC
  5
270
100
AcDbEntity
  8
Shape2DView007
  6
ByLayer
 62
  256
370
   -1
100
AcDbCircle
 10
107.15
 20
177.48
 40
2.5
100
AcDbArc
 50
90
 51
-90
  0
ARC
  5
271
100
AcDbEntity
  8
Shape2DView007
  6
ByLayer
 62
  256
370
   -1
100
AcDbCircle
 10
112.85
 20
177.48
 40
2.5
100
AcDbArc
 50
-90
 51
90
  0
LINE
  5
272
100
AcDbEntity
  8
Shape2DView007
  6
ByLayer
 62
  256
370
   -1
100
AcDbLine
 10
107.15
 20
174.98
 11
112.85
 21
174.98
  0
LINE
  5
273
100
AcDbEntity
  8
Shape2DView007
  6
ByLayer
 62
  256
370
   -1
100
AcDbLine
 10
86
 20
205.19
 11
98
 21
205.19
  0
ARC
  5
274
100
AcDbEntity
  8
Shape2DView007
  6
ByLayer
 62
  256
370
   -1
100
AcDbCircle
 10
86
 20
204.435
 40
0.755
100
AcDbArc
 50
90
 51
-90
  0
ARC
  5
275
100
AcDbEntity
  8
Shape2DView007
  6
ByLayer
 62
  256
370
   -1
100
AcDbCircle
 10
98
 20
204.435
 40
0.755
100
AcDbArc
 50
-90
 51
90
  0
LINE
  5
276
100
AcDbEntity
  8
Shape2DView007
  6
ByLayer
 62
  256
370
   -1
100
AcDbLine
 10
86
 20
203.68
 11
98
 21
203.68
  0
CIRCLE
  5
277
100
AcDbEntity
  8
Shape2DView007
  6
ByLayer
 62
  256
370
   -1
100
AcDbCircle
 10
122.8
 20
185.58
 40
8.5
  0
LINE
  5
278
100
AcDbEntity
  8
Shape2DView007
  6
ByLayer
 62
  256
370
   -1
100
AcDbLine
 10
122
 20
205.19
 11
134
 21
205.19
  0
ARC
  5
279
100
AcDbEntity
  8
Shape2DView007
  6
ByLayer
 62
  256
370
   -1
100
AcDbCircle
 10
122
 20
204.435
 40
0.755
100
AcDbArc
 50
90
 51
-90
  0
ARC
  5
27A
100
AcDbEntity
  8
Shape2DView007
  6
ByLayer
 62
  256
370
   -1
100
AcDbCircle
 10
134
 20
204.435
 40
0.755
100
AcDbArc
 50
-90
 51
90
  0
LINE
  5
27B
100
AcDbEntity
  8
Shape2DView007
  6
ByLayer
 62
  256
370
   -1
100
AcDbLine
 10
122
 20
203.68
 11
134
 21
203.68
  0
LINE
  5
27C
100
AcDbEntity
  8
Shape2DView009
  6
ByLayer
 62
  256
370
   -1
100
AcDbLine
 10
105.3
 20
37.9
 11
105.3
 21
87.7
  0
ARC
  5
27D
100
AcDbEntity
  8
Shape2DView009
  6
ByLayer
 62
  256
370
   -1
100
AcDbCircle
 10
102.8
 20
37.9
 40
2.5
100
AcDbArc
 50
-90
 51
0
  0
ARC
  5
27E
100
AcDbEntity
  8
Shape2DView009
  6
ByLayer
 62
  256
370
   -1
100
AcDbCircle
 10
102.8
 20
87.7
 40
2.5
100
AcDbArc
 50
0
 51
90
  0
LINE
  5
27F
100
AcDbEntity
  8
Shape2DView009
  6
ByLayer
 62
  256
370
   -1
100
AcDbLine
 10
93.449866407
 20
35.4
 11
102.8
 21
35.4
  0
LINE
  5
280
100
AcDbEntity
  8
Shape2DView009
  6
ByLayer
 62
  256
370
   -1
100
AcDbLine
 10
102.8
 20
90.2
 11
-2
 21
90.2
  0
ARC
  5
281
100
AcDbEntity
  8
Shape2DView009
  6
ByLayer
 62
  256
370
   -1
100
AcDbCircle
 10
93.449866407
 20
37.9
 40
2.5
100
AcDbArc
 50
-160
 51
-90
  0
ARC
  5
282
100
AcDbEntity
  8
Shape2DView009
  6
ByLayer
 62
  256
370
   -1
100
AcDbCircle
 10
-2
 20
87.7
 40
2.5
100
AcDbArc
 50
90
 51
180
  0
LINE
  5
283
100
AcDbEntity
  8
Shape2DView009
  6
ByLayer
 62
  256
370
   -1
100
AcDbLine
 10
87.853603855
 20
45.966093994
 11
91.100634855
 21
37.044949642
  0
LINE
  5
284
100
AcDbEntity
  8
Shape2DView009
  6
ByLayer
 62
  256
370
   -1
100
AcDbLine
 10
-4.5
 20
87.7
 11
-4.5
 21
2.9
  0
ARC
  5
285
100
AcDbEntity
  8
Shape2DView009
  6
ByLayer
 62
  256
370
   -1
100
AcDbCircle
 10
85.504372303
 20
45.111043635
 40
2.5
100
AcDbArc
 50
20
 51
110
  0
ARC
  5
286
100
AcDbEntity
  8
Shape2DView009
  6
ByLayer
 62
  256
370
   -1
100
AcDbCircle
 10
-2
 20
2.9
 40
2.5
100
AcDbArc
 50
180
 51
-90
  0
LINE
  5
287
100
AcDbEntity
  8
Shape2DView009
  6
ByLayer
 62
  256
370
   -1
100
AcDbLine
 10
46.944949642
 20
33.737005967
 11
84.649321945
 21
47.460275187
  0
LINE
  5
288
100
AcDbEntity
  8
Shape2DView009
  6
ByLayer
 62
  256
370
   -1
100
AcDbLine
 10
-2
 20
0.4
 11
42.8
 21
0.4
  0
ARC
  5
289
100
AcDbEntity
  8
Shape2DView009
  6
ByLayer
 62
  256
370
   -1
100
AcDbCircle
 10
47.8
 20
31.387774415
 40
2.5
100
AcDbArc
 50
110
 51
180
  0
ARC
  5
28A
100
AcDbEntity
  8
Shape2DView009
  6
ByLayer
 62
  256
370
   -1
100
AcDbCircle
 10
42.8
 20
2.9
 40
2.5
100
AcDbArc
 50
-90
 51
-0
  0
LINE
  5
28B
100
AcDbEntity
  8
Shape2DView009
  6
ByLayer
 62
  256
370
   -1
100
AcDbLine
 10
45.3
 20
2.9
 11
45.3
 21
31.387774415
  0
ARC
  5
28C
100
AcDbEntity
  8
Shape2DView009
  6
ByLayer
 62
  256
370
   -1
100
AcDbCircle
 10
100.55
 20
40.833012702
 40
0.25
100
AcDbArc
 50
180
 51
-120
  0
ARC
  5
28D
100
AcDbEntity
  8
Shape2DView009
  6
ByLayer
 62
  256
370
   -1
100
AcDbCircle
 10
100.3
 20
40.4
 40
0.25
100
AcDbArc
 50
-150
 51
59.99999999999999
  0
ARC
  5
28E
100
AcDbEntity
  8
Shape2DView009
  6
ByLayer
 62
  256
370
   -1
100
AcDbCircle
 10
99.866987298
 20
40.15
 40
0.25
100
AcDbArc
 50
30
 51
90
  0
LINE
  5
28F
100
AcDbEntity
  8
Shape2DView009
  6
ByLayer
 62
  256
370
   -1
100
AcDbLine
 10
95.633397954
 20
40.4
 11
99.866987298
 21
40.4
  0
ARC
  5
290
100
AcDbEntity
  8
Shape2DView009
  6
ByLayer
 62
  256
370
   -1
100
AcDbCircle
 10
95.633397954
 20
40.15
 40
0.25
100
AcDbArc
 50
90
 51
150
  0
ARC
  5
291
100
AcDbEntity
  8
Shape2DView009
  6
ByLayer
 62
  256
370
   -1
100
AcDbCircle
 10
95.200385252
 20
40.4
 40
0.25
100
AcDbArc
 50
140
 51
-30
  0
ARC
  5
292
100
AcDbEntity
  8
Shape2DView009
  6
ByLayer
 62
  256
370
   -1
100
AcDbCircle
 10
94.817363031
 20
40.721393805
 40
0.25
100
AcDbArc
 50
-40
 51
20
  0
LINE
  5
293
100
AcDbEntity
  8
Shape2DView009
  6
ByLayer
 62
  256
370
   -1
100
AcDbLine
 10
90.328936027
 20
53.784196745
 11
95.052286186
 21
40.806898841
  0
ARC
  5
294
100
AcDbEntity
  8
Shape2DView009
  6
ByLayer
 62
  256
370
   -1
100
AcDbCircle
 10
89.389243407
 20
53.442176602
 40
1
100
AcDbArc
 50
20
 51
110
  0
LINE
  5
295
100
AcDbEntity
  8
Shape2DView009
  6
ByLayer
 62
  256
370
   -1
100
AcDbLine
 10
40.957979857
 20
36.878816034
 11
89.04722326300001
 21
54.381869223
  0
ARC
  5
296
100
AcDbEntity
  8
Shape2DView009
  6
ByLayer
 62
  256
370
   -1
100
AcDbCircle
 10
41.3
 20
35.939123414
 40
1
100
AcDbArc
 50
110
 51
180
  0
LINE
  5
297
100
AcDbEntity
  8
Shape2DView009
  6
ByLayer
 62
  256
370
   -1
100
AcDbLine
 10
40.3
 20
5.833012702
 11
40.3
 21
35.939123414
  0
ARC
  5
298
100
AcDbEntity
  8
Shape2DView009
  6
ByLayer
 62
  256
370
   -1
100
AcDbCircle
 10
40.55
 20
5.833012702
 40
0.25
100
AcDbArc
 50
-180
 51
-120
  0
ARC
  5
299
100
AcDbEntity
  8
Shape2DView009
  6
ByLayer
 62
  256
370
   -1
100
AcDbCircle
 10
40.3
 20
5.4
 40
0.25
100
AcDbArc
 50
-150
 51
59.99999999999999
  0
ARC
  5
29A
100
AcDbEntity
  8
Shape2DView009
  6
ByLayer
 62
  256
370
   -1
100
AcDbCircle
 10
39.866987298
 20
5.15
 40
0.25
100
AcDbArc
 50
30
 51
90
  0
LINE
  5
29B
100
AcDbEntity
  8
Shape2DView009
  6
ByLayer
 62
  256
370
   -1
100
AcDbLine
 10
0.933012702
 20
5.4
 11
39.866987298
 21
5.4
  0
ARC
  5
29C
100
AcDbEntity
  8
Shape2DView009
  6
ByLayer
 62
  256
370
   -1
100
AcDbCircle
 10
0.933012702
 20
5.15
 40
0.25
100
AcDbArc
 50
89.999999996
 51
150
  0
ARC
  5
29D
100
AcDbEntity
  8
Shape2DView009
  6
ByLayer
 62
  256
370
   -1
100
AcDbCircle
 10
0.5
 20
5.4
 40
0.25
100
AcDbArc
 50
120
 51
-30
  0
ARC
  5
29E
100
AcDbEntity
  8
Shape2DView009
  6
ByLayer
 62
  256
370
   -1
100
AcDbCircle
 10
0.25
 20
5.833012702
 40
0.25
100
AcDbArc
 50
-59.99999999999999
 51
0
  0
LINE
  5
29F
100
AcDbEntity
  8
Shape2DView009
  6
ByLayer
 62
  256
370
   -1
100
AcDbLine
 10
0.5
 20
84.766987298
 11
0.5
 21
5.833012702
  0
ARC
  5
2A0
100
AcDbEntity
  8
Shape2DView009
  6
ByLayer
 62
  256
370
   -1
100
AcDbCircle
 10
0.25
 20
84.766987298
 40
0.25
100
AcDbArc
 50
0
 51
59.99999999999999
  0
ARC
  5
2A1
100
AcDbEntity
  8
Shape2DView009
  6
ByLayer
 62
  256
370
   -1
100
AcDbCircle
 10
0.5
 20
85.2
 40
0.25
100
AcDbArc
 50
30
 51
-120
  0
ARC
  5
2A2
100
AcDbEntity
  8
Shape2DView009
  6
ByLayer
 62
  256
370
   -1
100
AcDbCircle
 10
0.933012702
 20
85.45
 40
0.25
100
AcDbArc
 50
-150
 51
-90
  0
LINE
  5
2A3
100
AcDbEntity
  8
Shape2DView009
  6
ByLayer
 62
  256
370
   -1
100
AcDbLine
 10
99.866987298
 20
85.2
 11
0.933012702
 21
85.2
  0
ARC
  5
2A4
100
AcDbEntity
  8
Shape2DView009
  6
ByLayer
 62
  256
370
   -1
100
AcDbCircle
 10
99.866987298
 20
85.45
 40
0.25
100
AcDbArc
 50
-90
 51
-30
  0
ARC
  5
2A5
100
AcDbEntity
  8
Shape2DView009
  6
ByLayer
 62
  256
370
   -1
100
AcDbCircle
 10
100.3
 20
85.2
 40
0.25
100
AcDbArc
 50
-59.99999999999999
 51
150
  0
ARC
  5
2A6
100
AcDbEntity
  8
Shape2DView009
  6
ByLayer
 62
  256
370
   -1
100
AcDbCircle
 10
100.55
 20
84.766987298
 40
0.25
100
AcDbArc
 50
120
 51
180
  0
LINE
  5
2A7
100
AcDbEntity
  8
Shape2DView009
  6
ByLayer
 62
  256
370
   -1
100
AcDbLine
 10
100.3
 20
40.833012702
 11
100.3
 21
84.766987298
  0
LINE
  5
2A8
100
AcDbEntity
  8
Shape2DView010
  6
ByLayer
 62
  256
370
   -1
100
AcDbLine
 10
113
 20
37.9
 11
113
 21
87.7
  0
ARC
  5
2A9
100
AcDbEntity
  8
Shape2DView010
  6
ByLayer
 62
  256
370
   -1
100
AcDbCircle
 10
115.5
 20
37.9
 40
2.5
100
AcDbArc
 50
180
 51
-90
  0
ARC
  5
2AA
100
AcDbEntity
  8
Shape2DView010
  6
ByLayer
 62
  256
370
   -1
100
AcDbCircle
 10
115.5
 20
87.7
 40
2.5
100
AcDbArc
 50
90
 51
180
  0
LINE
  5
2AB
100
AcDbEntity
  8
Shape2DView010
  6
ByLayer
 62
  256
370
   -1
100
AcDbLine
 10
124.850133593
 20
35.4
 11
115.5
 21
35.4
  0
LINE
  5
2AC
100
AcDbEntity
  8
Shape2DView010
  6
ByLayer
 62
  256
370
   -1
100
AcDbLine
 10
115.5
 20
90.2
 11
220.3
 21
90.2
  0
ARC
  5
2AD
100
AcDbEntity
  8
Shape2DView010
  6
ByLayer
 62
  256
370
   -1
100
AcDbCircle
 10
124.850133593
 20
37.9
 40
2.5
100
AcDbArc
 50
-90
 51
-20
  0
ARC
  5
2AE
100
AcDbEntity
  8
Shape2DView010
  6
ByLayer
 62
  256
370
   -1
100
AcDbCircle
 10
220.3
 20
87.7
 40
2.5
100
AcDbArc
 50
0
 51
90
  0
LINE
  5
2AF
100
AcDbEntity
  8
Shape2DView010
  6
ByLayer
 62
  256
370
   -1
100
AcDbLine
 10
130.446396145
 20
45.966093994
 11
127.199365145
 21
37.044949642
  0
LINE
  5
2B0
100
AcDbEntity
  8
Shape2DView010
  6
ByLayer
 62
  256
370
   -1
100
AcDbLine
 10
222.8
 20
87.7
 11
222.8
 21
2.9
  0
ARC
  5
2B1
100
AcDbEntity
  8
Shape2DView010
  6
ByLayer
 62
  256
370
   -1
100
AcDbCircle
 10
132.795627697
 20
45.111043635
 40
2.5
100
AcDbArc
 50
70
 51
160
  0
ARC
  5
2B2
100
AcDbEntity
  8
Shape2DView010
  6
ByLayer
 62
  256
370
   -1
100
AcDbCircle
 10
220.3
 20
2.9
 40
2.5
100
AcDbArc
 50
-90
 51
0
  0
LINE
  5
2B3
100
AcDbEntity
  8
Shape2DView010
  6
ByLayer
 62
  256
370
   -1
100
AcDbLine
 10
171.355050358
 20
33.737005967
 11
133.650678055
 21
47.460275187
  0
LINE
  5
2B4
100
AcDbEntity
  8
Shape2DView010
  6
ByLayer
 62
  256
370
   -1
100
AcDbLine
 10
220.3
 20
0.4
 11
175.5
 21
0.4
  0
ARC
  5
2B5
100
AcDbEntity
  8
Shape2DView010
  6
ByLayer
 62
  256
370
   -1
100
AcDbCircle
 10
170.5
 20
31.387774415
 40
2.5
100
AcDbArc
 50
0
 51
70
  0
ARC
  5
2B6
100
AcDbEntity
  8
Shape2DView010
  6
ByLayer
 62
  256
370
   -1
100
AcDbCircle
 10
175.5
 20
2.9
 40
2.5
100
AcDbArc
 50
-180
 51
-90
  0
LINE
  5
2B7
100
AcDbEntity
  8
Shape2DView010
  6
ByLayer
 62
  256
370
   -1
100
AcDbLine
 10
173
 20
2.9
 11
173
 21
31.387774415
  0
ARC
  5
2B8
100
AcDbEntity
  8
Shape2DView010
  6
ByLayer
 62
  256
370
   -1
100
AcDbCircle
 10
117.75
 20
40.833012702
 40
0.25
100
AcDbArc
 50
-59.99999999999999
 51
0
  0
ARC
  5
2B9
100
AcDbEntity
  8
Shape2DView010
  6
ByLayer
 62
  256
370
   -1
100
AcDbCircle
 10
118
 20
40.4
 40
0.25
100
AcDbArc
 50
120
 51
-30
  0
ARC
  5
2BA
100
AcDbEntity
  8
Shape2DView010
  6
ByLayer
 62
  256
370
   -1
100
AcDbCircle
 10
118.433012702
 20
40.15
 40
0.25
100
AcDbArc
 50
90
 51
150
  0
LINE
  5
2BB
100
AcDbEntity
  8
Shape2DView010
  6
ByLayer
 62
  256
370
   -1
100
AcDbLine
 10
122.666602046
 20
40.4
 11
118.433012702
 21
40.4
  0
ARC
  5
2BC
100
AcDbEntity
  8
Shape2DView010
  6
ByLayer
 62
  256
370
   -1
100
AcDbCircle
 10
122.666602046
 20
40.15
 40
0.25
100
AcDbArc
 50
30
 51
90
  0
ARC
  5
2BD
100
AcDbEntity
  8
Shape2DView010
  6
ByLayer
 62
  256
370
   -1
100
AcDbCircle
 10
123.099614748
 20
40.4
 40
0.25
100
AcDbArc
 50
-150
 51
40
  0
ARC
  5
2BE
100
AcDbEntity
  8
Shape2DView010
  6
ByLayer
 62
  256
370
   -1
100
AcDbCircle
 10
123.482636969
 20
40.721393805
 40
0.25
100
AcDbArc
 50
160
 51
-140
  0
LINE
  5
2BF
100
AcDbEntity
  8
Shape2DView010
  6
ByLayer
 62
  256
370
   -1
100
AcDbLine
 10
127.971063973
 20
53.784196745
 11
123.247713814
 21
40.806898841
  0
ARC
  5
2C0
100
AcDbEntity
  8
Shape2DView010
  6
ByLayer
 62
  256
370
   -1
100
AcDbCircle
 10
128.910756593
 20
53.442176602
 40
1
100
AcDbArc
 50
70
 51
160
  0
LINE
  5
2C1
100
AcDbEntity
  8
Shape2DView010
  6
ByLayer
 62
  256
370
   -1
100
AcDbLine
 10
177.342020143
 20
36.878816034
 11
129.252776737
 21
54.381869223
  0
ARC
  5
2C2
100
AcDbEntity
  8
Shape2DView010
  6
ByLayer
 62
  256
370
   -1
100
AcDbCircle
 10
177
 20
35.939123414
 40
1
100
AcDbArc
 50
0
 51
70
  0
LINE
  5
2C3
100
AcDbEntity
  8
Shape2DView010
  6
ByLayer
 62
  256
370
   -1
100
AcDbLine
 10
178
 20
5.833012702
 11
178
 21
35.939123414
  0
ARC
  5
2C4
100
AcDbEntity
  8
Shape2DView010
  6
ByLayer
 62
  256
370
   -1
100
AcDbCircle
 10
177.75
 20
5.833012702
 40
0.25
100
AcDbArc
 50
-59.99999999999999
 51
-0
  0
ARC
  5
2C5
100
AcDbEntity
  8
Shape2DView010
  6
ByLayer
 62
  256
370
   -1
100
AcDbCircle
 10
178
 20
5.4
 40
0.25
100
AcDbArc
 50
120
 51
-30
  0
ARC
  5
2C6
100
AcDbEntity
  8
Shape2DView010
  6
ByLayer
 62
  256
370
   -1
100
AcDbCircle
 10
178.433012702
 20
5.15
 40
0.25
100
AcDbArc
 50
90
 51
150
  0
LINE
  5
2C7
100
AcDbEntity
  8
Shape2DView010
  6
ByLayer
 62
  256
370
   -1
100
AcDbLine
 10
217.366987298
 20
5.4
 11
178.433012702
 21
5.4
  0
ARC
  5
2C8
100
AcDbEntity
  8
Shape2DView010
  6
ByLayer
 62
  256
370
   -1
100
AcDbCircle
 10
217.366987298
 20
5.15
 40
0.25
100
AcDbArc
 50
30
 51
90.000000004
  0
ARC
  5
2C9
100
AcDbEntity
  8
Shape2DView010
  6
ByLayer
 62
  256
370
   -1
100
AcDbCircle
 10
217.8
 20
5.4
 40
0.25
100
AcDbArc
 50
-150
 51
59.99999999999999
  0
ARC
  5
2CA
100
AcDbEntity
  8
Shape2DView010
  6
ByLayer
 62
  256
370
   -1
100
AcDbCircle
 10
218.05
 20
5.833012702
 40
0.25
100
AcDbArc
 50
180
 51
-120
  0
LINE
  5
2CB
100
AcDbEntity
  8
Shape2DView010
  6
ByLayer
 62
  256
370
   -1
100
AcDbLine
 10
217.8
 20
84.766987298
 11
217.8
 21
5.833012702
  0
ARC
  5
2CC
100
AcDbEntity
  8
Shape2DView010
  6
ByLayer
 62
  256
370
   -1
100
AcDbCircle
 10
218.05
 20
84.766987298
 40
0.25
100
AcDbArc
 50
120
 51
180
  0
ARC
  5
2CD
100
AcDbEntity
  8
Shape2DView010
  6
ByLayer
 62
  256
370
   -1
100
AcDbCircle
 10
217.8
 20
85.2
 40
0.25
100
AcDbArc
 50
-59.99999999999999
 51
150
  0
ARC
  5
2CE
100
AcDbEntity
  8
Shape2DView010
  6
ByLayer
 62
  256
370
   -1
100
AcDbCircle
 10
217.366987298
 20
85.45
 40
0.25
100
AcDbArc
 50
-90
 51
-30
  0
LINE
  5
2CF
100
AcDbEntity
  8
Shape2DView010
  6
ByLayer
 62
  256
370
   -1
100
AcDbLine
 10
118.433012702
 20
85.2
 11
217.366987298
 21
85.2
  0
ARC
  5
2D0
100
AcDbEntity
  8
Shape2DView010
  6
ByLayer
 62
  256
370
   -1
100
AcDbCircle
 10
118.433012702
 20
85.45
 40
0.25
100
AcDbArc
 50
-150
 51
-90
  0
ARC
  5
2D1
100
AcDbEntity
  8
Shape2DView010
  6
ByLayer
 62
  256
370
   -1
100
AcDbCircle
 10
118
 20
85.2
 40
0.25
100
AcDbArc
 50
30
 51
-120
  0
ARC
  5
2D2
100
AcDbEntity
  8
Shape2DView010
  6
ByLayer
 62
  256
370
   -1
100
AcDbCircle
 10
117.75
 20
84.766987298
 40
0.25
100
AcDbArc
 50
0
 51
59.99999999999999
  0
LINE
  5
2D3
100
AcDbEntity
  8
Shape2DView010
  6
ByLayer
 62
  256
370
   -1
100
AcDbLine
 10
118
 20
40.833012702
 11
118
 21
84.766987298
  0
LINE
  5
2D4
100
AcDbEntity
  8
Shape2DView012
  6
ByLayer
 62
  256
370
   -1
100
AcDbLine
 10
149.2
 20
173.624465861
 11
149.2
 21
197.195920641
  0
LINE
  5
2D5
100
AcDbEntity
  8
Shape2DView012
  6
ByLayer
 62
  256
370
   -1
100
AcDbLine
 10
149.2
 20
197.195920641
 11
163.19335
 21
197.195920641
  0
LINE
  5
2D6
100
AcDbEntity
  8
Shape2DView012
  6
ByLayer
 62
  256
370
   -1
100
AcDbLine
 10
163.19335
 20
197.195920641
 11
163.19335
 21
194.621259959
  0
ARC
  5
2D7
100
AcDbEntity
  8
Shape2DView012
  6
ByLayer
 62
  256
370
   -1
100
AcDbCircle
 10
163.292905
 20
194.448825641
 40
0.19911
100
AcDbArc
 50
120
 51
-90
  0
ARC
  5
2D8
100
AcDbEntity
  8
Shape2DView012
  6
ByLayer
 62
  256
370
   -1
100
AcDbCircle
 10
163.292905
 20
194.448825641
 40
0.19911
100
AcDbArc
 50
-90
 51
-30
  0
LINE
  5
2D9
100
AcDbEntity
  8
Shape2DView012
  6
ByLayer
 62
  256
370
   -1
100
AcDbLine
 10
163.465339318
 20
194.349270641
 11
172.734660682
 21
194.349270641
  0
ARC
  5
2DA
100
AcDbEntity
  8
Shape2DView012
  6
ByLayer
 62
  256
370
   -1
100
AcDbCircle
 10
172.907095
 20
194.448825641
 40
0.19911
100
AcDbArc
 50
-150
 51
-90
  0
ARC
  5
2DB
100
AcDbEntity
  8
Shape2DView012
  6
ByLayer
 62
  256
370
   -1
100
AcDbCircle
 10
172.907095
 20
194.448825641
 40
0.19911
100
AcDbArc
 50
-90
 51
59.99999999999999
  0
LINE
  5
2DC
100
AcDbEntity
  8
Shape2DView012
  6
ByLayer
 62
  256
370
   -1
100
AcDbLine
 10
173.00665
 20
197.195920641
 11
173.00665
 21
194.621259959
  0
LINE
  5
2DD
100
AcDbEntity
  8
Shape2DView012
  6
ByLayer
 62
  256
370
   -1
100
AcDbLine
 10
173.00665
 20
197.195920641
 11
200.99335
 21
197.195920641
  0
LINE
  5
2DE
100
AcDbEntity
  8
Shape2DView012
  6
ByLayer
 62
  256
370
   -1
100
AcDbLine
 10
200.99335
 20
197.195920641
 11
200.99335
 21
194.621259959
  0
ARC
  5
2DF
100
AcDbEntity
  8
Shape2DView012
  6
ByLayer
 62
  256
370
   -1
100
AcDbCircle
 10
201.092905
 20
194.448825641
 40
0.19911
100
AcDbArc
 50
120
 51
-90
  0
ARC
  5
2E0
100
AcDbEntity
  8
Shape2DView012
  6
ByLayer
 62
  256
370
   -1
100
AcDbCircle
 10
201.092905
 20
194.448825641
 40
0.19911
100
AcDbArc
 50
-90
 51
-30
  0
LINE
  5
2E1
100
AcDbEntity
  8
Shape2DView012
  6
ByLayer
 62
  256
370
   -1
100
AcDbLine
 10
201.265339318
 20
194.349270641
 11
210.534660682
 21
194.349270641
  0
ARC
  5
2E2
100
AcDbEntity
  8
Shape2DView012
  6
ByLayer
 62
  256
370
   -1
100
AcDbCircle
 10
210.707095
 20
194.448825641
 40
0.19911
100
AcDbArc
 50
-150
 51
-90
  0
ARC
  5
2E3
100
AcDbEntity
  8
Shape2DView012
  6
ByLayer
 62
  256
370
   -1
100
AcDbCircle
 10
210.707095
 20
194.448825641
 40
0.19911
100
AcDbArc
 50
-90
 51
59.99999999999999
  0
LINE
  5
2E4
100
AcDbEntity
  8
Shape2DView012
  6
ByLayer
 62
  256
370
   -1
100
AcDbLine
 10
210.80665
 20
197.195920641
 11
210.80665
 21
194.621259959
  0
LINE
  5
2E5
100
AcDbEntity
  8
Shape2DView012
  6
ByLayer
 62
  256
370
   -1
100
AcDbLine
 10
210.80665
 20
197.195920641
 11
224.8
 21
197.195920641
  0
LINE
  5
2E6
100
AcDbEntity
  8
Shape2DView012
  6
ByLayer
 62
  256
370
   -1
100
AcDbLine
 10
224.8
 20
197.195920641
 11
224.8
 21
173.624465861
  0
LINE
  5
2E7
100
AcDbEntity
  8
Shape2DView012
  6
ByLayer
 62
  256
370
   -1
100
AcDbLine
 10
222.225339318
 20
173.624465861
 11
224.8
 21
173.624465861
  0
ARC
  5
2E8
100
AcDbEntity
  8
Shape2DView012
  6
ByLayer
 62
  256
370
   -1
100
AcDbCircle
 10
222.052905
 20
173.524910861
 40
0.19911
100
AcDbArc
 50
30
 51
-120
  0
LINE
  5
2E9
100
AcDbEntity
  8
Shape2DView012
  6
ByLayer
 62
  256
370
   -1
100
AcDbLine
 10
221.95335
 20
173.352476543
 11
221.95335
 21
164.08315518
  0
ARC
  5
2EA
100
AcDbEntity
  8
Shape2DView012
  6
ByLayer
 62
  256
370
   -1
100
AcDbCircle
 10
222.052905
 20
163.910720861
 40
0.19911
100
AcDbArc
 50
120
 51
-30
  0
LINE
  5
2EB
100
AcDbEntity
  8
Shape2DView012
  6
ByLayer
 62
  256
370
   -1
100
AcDbLine
 10
222.225339318
 20
163.811165861
 11
224.8
 21
163.811165861
  0
LINE
  5
2EC
100
AcDbEntity
  8
Shape2DView012
  6
ByLayer
 62
  256
370
   -1
100
AcDbLine
 10
224.8
 20
163.811165861
 11
224.8
 21
140.800292189
  0
LINE
  5
2ED
100
AcDbEntity
  8
Shape2DView012
  6
ByLayer
 62
  256
370
   -1
100
AcDbLine
 10
224.8
 20
140.800292189
 11
222
 21
140.800292189
  0
LINE
  5
2EE
100
AcDbEntity
  8
Shape2DView012
  6
ByLayer
 62
  256
370
   -1
100
AcDbLine
 10
222
 20
140.800292189
 11
222
 21
139.400292189
  0
LINE
  5
2EF
100
AcDbEntity
  8
Shape2DView012
  6
ByLayer
 62
  256
370
   -1
100
AcDbLine
 10
222
 20
139.400292189
 11
210.861957243
 21
139.400292189
  0
ELLIPSE
  5
2F0
100
AcDbEntity
  8
Shape2DView012
  6
ByLayer
 62
  256
370
   -1
100
AcDbEllipse
 10
210.710206667
 20
139.273583385
 30
0
 11
0
 21
0.205265703
 31
0
 40
0.939692621
 41
5.377684492
 42
5.759586532
  0
LINE
  5
2F1
100
AcDbEntity
  8
Shape2DView012
  6
ByLayer
 62
  256
370
   -1
100
AcDbLine
 10
210.80665
 20
141.969537917
 11
210.80665
 21
139.451348698
  0
ELLIPSE
  5
2F2
100
AcDbEntity
  8
Shape2DView012
  6
ByLayer
 62
  256
370
   -1
100
AcDbEllipse
 10
210.710206667
 20
142.147303231
 30
0
 11
0
 21
0.205265703
 31
0
 40
0.939692621
 41
3.665191429
 42
4.71238898
  0
ELLIPSE
  5
2F3
100
AcDbEntity
  8
Shape2DView012
  6
ByLayer
 62
  256
370
   -1
100
AcDbEllipse
 10
210.710206667
 20
142.147303231
 30
0
 11
0
 21
0.205265703
 31
0
 40
0.939692621
 41
4.71238898
 42
1.047197551
  0
LINE
  5
2F4
100
AcDbEntity
  8
Shape2DView012
  6
ByLayer
 62
  256
370
   -1
100
AcDbLine
 10
210.543161913
 20
142.249936082
 11
201.256838087
 21
142.249936082
  0
ELLIPSE
  5
2F5
100
AcDbEntity
  8
Shape2DView012
  6
ByLayer
 62
  256
370
   -1
100
AcDbEllipse
 10
201.089793333
 20
142.147303231
 30
0
 11
0
 21
0.205265703
 31
0
 40
0.939692621
 41
5.235987756
 42
1.570796327
  0
ELLIPSE
  5
2F6
100
AcDbEntity
  8
Shape2DView012
  6
ByLayer
 62
  256
370
   -1
100
AcDbEllipse
 10
201.089793333
 20
142.147303231
 30
0
 11
0
 21
0.205265703
 31
0
 40
0.939692621
 41
1.570796327
 42
2.617993878
  0
LINE
  5
2F7
100
AcDbEntity
  8
Shape2DView012
  6
ByLayer
 62
  256
370
   -1
100
AcDbLine
 10
200.99335
 20
141.969537917
 11
200.99335
 21
139.451348698
  0
ELLIPSE
  5
2F8
100
AcDbEntity
  8
Shape2DView012
  6
ByLayer
 62
  256
370
   -1
100
AcDbEllipse
 10
201.089793333
 20
139.273583385
 30
0
 11
0
 21
0.205265703
 31
0
 40
0.939692621
 41
0.523598776
 42
0.905500815
  0
LINE
  5
2F9
100
AcDbEntity
  8
Shape2DView012
  6
ByLayer
 62
  256
370
   -1
100
AcDbLine
 10
200.938042757
 20
139.400292189
 11
173.061957243
 21
139.400292189
  0
ELLIPSE
  5
2FA
100
AcDbEntity
  8
Shape2DView012
  6
ByLayer
 62
  256
370
   -1
100
AcDbEllipse
 10
172.910206667
 20
139.273583385
 30
0
 11
0
 21
0.205265703
 31
0
 40
0.939692621
 41
5.377684492
 42
5.759586532
  0
LINE
  5
2FB
100
AcDbEntity
  8
Shape2DView012
  6
ByLayer
 62
  256
370
   -1
100
AcDbLine
 10
173.00665
 20
141.969537917
 11
173.00665
 21
139.451348698
  0
ELLIPSE
  5
2FC
100
AcDbEntity
  8
Shape2DView012
  6
ByLayer
 62
  256
370
   -1
100
AcDbEllipse
 10
172.910206667
 20
142.147303231
 30
0
 11
0
 21
0.205265703
 31
0
 40
0.939692621
 41
3.665191429
 42
4.71238898
  0
ELLIPSE
  5
2FD
100
AcDbEntity
  8
Shape2DView012
  6
ByLayer
 62
  256
370
   -1
100
AcDbEllipse
 10
172.910206667
 20
142.147303231
 30
0
 11
0
 21
0.205265703
 31
0
 40
0.939692621
 41
4.71238898
 42
1.047197551
  0
LINE
  5
2FE
100
AcDbEntity
  8
Shape2DView012
  6
ByLayer
 62
  256
370
   -1
100
AcDbLine
 10
172.743161913
 20
142.249936082
 11
163.456838087
 21
142.249936082
  0
ELLIPSE
  5
2FF
100
AcDbEntity
  8
Shape2DView012
  6
ByLayer
 62
  256
370
   -1
100
AcDbEllipse
 10
163.289793333
 20
142.147303231
 30
0
 11
0
 21
0.205265703
 31
0
 40
0.939692621
 41
5.235987756
 42
1.570796327
  0
ELLIPSE
  5
300
100
AcDbEntity
  8
Shape2DView012
  6
ByLayer
 62
  256
370
   -1
100
AcDbEllipse
 10
163.289793333
 20
142.147303231
 30
0
 11
0
 21
0.205265703
 31
0
 40
0.939692621
 41
1.570796327
 42
2.617993878
  0
LINE
  5
301
100
AcDbEntity
  8
Shape2DView012
  6
ByLayer
 62
  256
370
   -1
100
AcDbLine
 10
163.19335
 20
141.969537917
 11
163.19335
 21
139.451348698
  0
ELLIPSE
  5
302
100
AcDbEntity
  8
Shape2DView012
  6
ByLayer
 62
  256
370
   -1
100
AcDbEllipse
 10
163.289793333
 20
139.273583385
 30
0
 11
0
 21
0.205265703
 31
0
 40
0.939692621
 41
0.523598776
 42
0.905500815
  0
LINE
  5
303
100
AcDbEntity
  8
Shape2DView012
  6
ByLayer
 62
  256
370
   -1
100
AcDbLine
 10
163.138042757
 20
139.400292189
 11
152
 21
139.400292189
  0
LINE
  5
304
100
AcDbEntity
  8
Shape2DView012
  6
ByLayer
 62
  256
370
   -1
100
AcDbLine
 10
152
 20
139.400292189
 11
152
 21
140.800292189
  0
LINE
  5
305
100
AcDbEntity
  8
Shape2DView012
  6
ByLayer
 62
  256
370
   -1
100
AcDbLine
 10
152
 20
140.800292189
 11
149.2
 21
140.800292189
  0
LINE
  5
306
100
AcDbEntity
  8
Shape2DView012
  6
ByLayer
 62
  256
370
   -1
100
AcDbLine
 10
149.2
 20
140.800292189
 11
149.2
 21
163.811165861
  0
LINE
  5
307
100
AcDbEntity
  8
Shape2DView012
  6
ByLayer
 62
  256
370
   -1
100
AcDbLine
 10
149.2
 20
163.811165861
 11
151.774660682
 21
163.811165861
  0
ARC
  5
308
100
AcDbEntity
  8
Shape2DView012
  6
ByLayer
 62
  256
370
   -1
100
AcDbCircle
 10
151.947095
 20
163.910720861
 40
0.19911
100
AcDbArc
 50
-150
 51
0
  0
ARC
  5
309
100
AcDbEntity
  8
Shape2DView012
  6
ByLayer
 62
  256
370
   -1
100
AcDbCircle
 10
151.947095
 20
163.910720861
 40
0.19911
100
AcDbArc
 50
0
 51
59.99999999999999
  0
LINE
  5
30A
100
AcDbEntity
  8
Shape2DView012
  6
ByLayer
 62
  256
370
   -1
100
AcDbLine
 10
152.04665
 20
173.352476543
 11
152.04665
 21
164.08315518
  0
ARC
  5
30B
100
AcDbEntity
  8
Shape2DView012
  6
ByLayer
 62
  256
370
   -1
100
AcDbCircle
 10
151.947095
 20
173.524910861
 40
0.19911
100
AcDbArc
 50
-59.99999999999999
 51
0
  0
ARC
  5
30C
100
AcDbEntity
  8
Shape2DView012
  6
ByLayer
 62
  256
370
   -1
100
AcDbCircle
 10
151.947095
 20
173.524910861
 40
0.19911
100
AcDbArc
 50
0
 51
150
  0
LINE
  5
30D
100
AcDbEntity
  8
Shape2DView012
  6
ByLayer
 62
  256
370
   -1
100
AcDbLine
 10
149.2
 20
173.624465861
 11
151.774660682
 21
173.624465861
  0
CIRCLE
  5
30E
100
AcDbEntity
  8
Shape2DView012
  6
ByLayer
 62
  256
370
   -1
100
AcDbCircle
 10
181
 20
148.400292189
 40
2
  0
LINE
  5
30F
100
AcDbEntity
  8
Shape2DView
  6
ByLayer
 62
  256
370
   -1
100
AcDbLine
 10
21.45665
 20
82.98666666699999
 11
21.45665
 21
85.2
  0
LINE
  5
310
100
AcDbEntity
  8
Shape2DView
  6
ByLayer
 62
  256
370
   -1
100
AcDbLine
 10
31.64335
 20
82.98666666699999
 11
31.64335
 21
85.2
  0
LINE
  5
311
100
AcDbEntity
  8
Shape2DView
  6
ByLayer
 62
  256
370
   -1
100
AcDbLine
 10
68.95665
 20
82.98666666699999
 11
68.95665
 21
85.2
  0
LINE
  5
312
100
AcDbEntity
  8
Shape2DView
  6
ByLayer
 62
  256
370
   -1
100
AcDbLine
 10
79.14335
 20
82.98666666699999
 11
79.14335
 21
85.2
  0
LINE
  5
313
100
AcDbEntity
  8
Shape2DView
  6
ByLayer
 62
  256
370
   -1
100
AcDbLine
 10
97.98666666699999
 20
67.89335
 11
100.3040945139545
 21
67.89335
  0
LINE
  5
314
100
AcDbEntity
  8
Shape2DView
  6
ByLayer
 62
  256
370
   -1
100
AcDbLine
 10
97.98666666699999
 20
57.70665
 11
100.3
 21
57.70665
  0
LINE
  5
315
100
AcDbEntity
  8
Shape2DView
  6
ByLayer
 62
  256
370
   -1
100
AcDbLine
 10
37.986666667
 20
28.153264522
 11
40.3
 21
28.153264522
  0
LINE
  5
316
100
AcDbEntity
  8
Shape2DView
  6
ByLayer
 62
  256
370
   -1
100
AcDbLine
 10
37.986666667
 20
17.966564522
 11
40.3
 21
17.966564522
  0
LINE
  5
317
100
AcDbEntity
  8
Shape2DView
  6
ByLayer
 62
  256
370
   -1
100
AcDbLine
 10
25.39335
 20
7.613333333
 11
25.39335
 21
5.4
  0
LINE
  5
318
100
AcDbEntity
  8
Shape2DView
  6
ByLayer
 62
  256
370
   -1
100
AcDbLine
 10
15.20665
 20
7.613333333
 11
15.20665
 21
5.4
  0
LINE
  5
319
100
AcDbEntity
  8
Shape2DView
  6
ByLayer
 62
  256
370
   -1
100
AcDbLine
 10
2.613333333
 20
21.45665
 11
0.5
 21
21.45665
  0
LINE
  5
31A
100
AcDbEntity
  8
Shape2DView
  6
ByLayer
 62
  256
370
   -1
100
AcDbLine
 10
2.613333333
 20
31.64335
 11
0.4948445673388289
 21
31.64335
  0
LINE
  5
31B
100
AcDbEntity
  8
Shape2DView
  6
ByLayer
 62
  256
370
   -1
100
AcDbLine
 10
2.613333333
 20
58.95665
 11
0.5180333485874433
 21
58.95665
  0
LINE
  5
31C
100
AcDbEntity
  8
Shape2DView
  6
ByLayer
 62
  256
370
   -1
100
AcDbLine
 10
2.613333333
 20
69.14335
 11
0.5
 21
69.14335
  0
LINE
  5
31D
100
AcDbEntity
  8
Shape2DView001
  6
ByLayer
 62
  256
370
   -1
100
AcDbLine
 10
120.213333333
 20
57.70665
 11
118
 21
57.70665
  0
LINE
  5
31E
100
AcDbEntity
  8
Shape2DView001
  6
ByLayer
 62
  256
370
   -1
100
AcDbLine
 10
120.213333333
 20
67.89335
 11
118
 21
67.89335
  0
LINE
  5
31F
100
AcDbEntity
  8
Shape2DView001
  6
ByLayer
 62
  256
370
   -1
100
AcDbLine
 10
139.05665
 20
82.98666666699999
 11
139.05665
 21
85.2
  0
LINE
  5
320
100
AcDbEntity
  8
Shape2DView001
  6
ByLayer
 62
  256
370
   -1
100
AcDbLine
 10
149.24335
 20
82.98666666699999
 11
149.24335
 21
85.2
  0
LINE
  5
321
100
AcDbEntity
  8
Shape2DView001
  6
ByLayer
 62
  256
370
   -1
100
AcDbLine
 10
186.55665
 20
82.98666666699999
 11
186.55665
 21
85.2
  0
LINE
  5
322
100
AcDbEntity
  8
Shape2DView001
  6
ByLayer
 62
  256
370
   -1
100
AcDbLine
 10
196.74335
 20
82.98666666699999
 11
196.74335
 21
85.2
  0
LINE
  5
323
100
AcDbEntity
  8
Shape2DView001
  6
ByLayer
 62
  256
370
   -1
100
AcDbLine
 10
215.586666667
 20
69.14335
 11
217.8
 21
69.14335
  0
LINE
  5
324
100
AcDbEntity
  8
Shape2DView001
  6
ByLayer
 62
  256
370
   -1
100
AcDbLine
 10
215.586666667
 20
58.95665
 11
217.8
 21
58.95665
  0
LINE
  5
325
100
AcDbEntity
  8
Shape2DView001
  6
ByLayer
 62
  256
370
   -1
100
AcDbLine
 10
215.586666667
 20
31.64335
 11
217.8090299168642
 21
31.64335
  0
LINE
  5
326
100
AcDbEntity
  8
Shape2DView001
  6
ByLayer
 62
  256
370
   -1
100
AcDbLine
 10
215.586666667
 20
21.45665
 11
217.8
 21
21.45665
  0
LINE
  5
327
100
AcDbEntity
  8
Shape2DView001
  6
ByLayer
 62
  256
370
   -1
100
AcDbLine
 10
202.99335
 20
7.613333333
 11
202.99335
 21
5.4
  0
LINE
  5
328
100
AcDbEntity
  8
Shape2DView001
  6
ByLayer
 62
  256
370
   -1
100
AcDbLine
 10
192.80665
 20
7.613333333
 11
192.80665
 21
5.4
  0
LINE
  5
329
100
AcDbEntity
  8
Shape2DView001
  6
ByLayer
 62
  256
370
   -1
100
AcDbLine
 10
180.213333333
 20
17.966564522
 11
178
 21
17.966564522
  0
LINE
  5
32A
100
AcDbEntity
  8
Shape2DView001
  6
ByLayer
 62
  256
370
   -1
100
AcDbLine
 10
157.6046701510711
 20
44.06262393469859
 11
158.3616747347985
 21
46.1424769354734
  0
LINE
  5
32B
100
AcDbEntity
  8
Shape2DView001
  6
ByLayer
 62
  256
370
   -1
100
AcDbLine
 10
148.0323033311107
 20
47.54668052880753
 11
148.7893079147985
 21
49.6265335294734
  0
LINE
  5
32C
100
AcDbEntity
  8
Shape2DView
  6
ByLayer
 62
  256
370
   -1
100
AcDbLine
 10
60.60702762677081
 20
44.03048455421196
 11
59.83832526520146
 21
46.1424769354734
  0
LINE
  5
32D
100
AcDbEntity
  8
Shape2DView
  6
ByLayer
 62
  256
370
   -1
100
AcDbLine
 10
69.41069208499999
 20
49.62653353
 11
70.17939444673118
 21
47.51454114832092
  0
ENDSEC
  0
SECTION
  2
OBJECTS
  0
DICTIONARY
  5
C
330
0
100
AcDbDictionary
281
    1
  3
ACAD_GROUP
350
D
  0
DICTIONARY
  5
D
330
C
100
AcDbDictionary
281
    1
  0
PLOTSETTINGS
  5
32E
100
AcDbPlotSettings
  6
1x1
 40
0
 41
0
 42
0
 43
0
  0
ENDSEC
  0
EOF
