999
FreeCAD v1.0 39109 (Git)
  0
SECTION
  2
HEADER
  9
$ACADVER
  1
AC1014
  9
$ACADMAINTVER
 70
     9
  9
$DWGCODEPAGE
  3
ANSI_1252
  9
$TEXTSTYLE
  7
STANDARD
  9
$DIMSTYLE
  2
STANDARD
  9
$DIMTXSTY
  7
STANDARD
  9
$CMLSTYLE
  2
STANDARD
  9
$LUNITS
 70
2
  9
$INSUNITS
 70
4
  9
$PEXTMAX
 10
50
 20
50
 30
50
  9
$PEXTMIN
 10
0
 20
0
 30
0
  9
$HANDSEED
  5
FFFF
  0
ENDSEC
  0
SECTION
  2
CLASSES
  0
CLASS
  1
ACDBDICTIONARYWDFLT
  2
AcDbDictionaryWithDefault
  3
ObjectDBX Classes
 90
        0
280
     0
281
     0
  0
CLASS
  1
XRECORD
  2
AcDbXrecord
  3
ObjectDBX Classes
 90
        0
280
     0
281
     0
  0
CLASS
  1
LWPOLYLINE
  2
AcDbPolyline
  3
ObjectDBX Classes
 90
        0
280
     0
281
     1
  0
ENDSEC
  0
SECTION
  2
TABLES
  0
TABLE
  2
VPORT
  5
20
330
0
100
AcDbSymbolTable
 70
     1
  0
VPORT
  5
21
330
20
100
AcDbSymbolTableRecord
100
AcDbViewportTableRecord
  2
*ACTIVE
 70
     0
  0
ENDTAB
  0
TABLE
  2
LTYPE
  5
22
330
0
100
AcDbSymbolTable
 70
     1
  0
LTYPE
  5
23
330
21
100
AcDbSymbolTableRecord
100
AcDbLinetypeTableRecord
  2
BYBLOCK
 70
     0
  3

 72
    65
 73
     0
 40
0.0
  0
LTYPE
  5
24
330
21
100
AcDbSymbolTableRecord
100
AcDbLinetypeTableRecord
  2
BYLAYER
 70
     0
  3

 72
    65
 73
     0
 40
0.0
  0
LTYPE
  5
25
330
21
100
AcDbSymbolTableRecord
100
AcDbLinetypeTableRecord
  2
CONTINUOUS
 70
     0
  3
Solid line
 72
    65
 73
     0
 40
0.0
  0
ENDTAB
  0
TABLE
  2
LAYER
  5
CED
330
0
100
AcDbSymbolTable
 70
13
  0
LAYER
  5
CEE
330
CED
100
AcDbSymbolTableRecord
100
AcDbLayerTableRecord
  2
0
 70
   0
 62
   7
  6
CONTINUOUS
  0
LAYER
  5
CEF
330
CED
100
AcDbSymbolTableRecord
100
AcDbLayerTableRecord
  2
none
 70
    0
 62
    7
  6
CONTINUOUS
  0
LAYER
  5
CF0
330
CED
100
AcDbSymbolTableRecord
100
AcDbLayerTableRecord
  2
Shape2DView
 70
    0
 62
    7
  6
CONTINUOUS
  0
LAYER
  5
CF1
330
CED
100
AcDbSymbolTableRecord
100
AcDbLayerTableRecord
  2
Shape2DView001
 70
    0
 62
    7
  6
CONTINUOUS
  0
LAYER
  5
CF2
330
CED
100
AcDbSymbolTableRecord
100
AcDbLayerTableRecord
  2
Shape2DView002
 70
    0
 62
    7
  6
CONTINUOUS
  0
LAYER
  5
CF3
330
CED
100
AcDbSymbolTableRecord
100
AcDbLayerTableRecord
  2
Shape2DView003
 70
    0
 62
    7
  6
CONTINUOUS
  0
LAYER
  5
CF4
330
CED
100
AcDbSymbolTableRecord
100
AcDbLayerTableRecord
  2
Shape2DView004
 70
    0
 62
    7
  6
CONTINUOUS
  0
LAYER
  5
CF5
330
CED
100
AcDbSymbolTableRecord
100
AcDbLayerTableRecord
  2
Shape2DView005
 70
    0
 62
    7
  6
CONTINUOUS
  0
LAYER
  5
CF6
330
CED
100
AcDbSymbolTableRecord
100
AcDbLayerTableRecord
  2
Shape2DView006
 70
    0
 62
    7
  6
CONTINUOUS
  0
LAYER
  5
CF7
330
CED
100
AcDbSymbolTableRecord
100
AcDbLayerTableRecord
  2
Shape2DView007
 70
    0
 62
    7
  6
CONTINUOUS
  0
LAYER
  5
CF8
330
CED
100
AcDbSymbolTableRecord
100
AcDbLayerTableRecord
  2
Shape2DView009
 70
    0
 62
    7
  6
CONTINUOUS
  0
LAYER
  5
CF9
330
CED
100
AcDbSymbolTableRecord
100
AcDbLayerTableRecord
  2
Shape2DView010
 70
    0
 62
    7
  6
CONTINUOUS
  0
LAYER
  5
CFA
330
CED
100
AcDbSymbolTableRecord
100
AcDbLayerTableRecord
  2
Shape2DView012
 70
    0
 62
    7
  6
CONTINUOUS
  0
ENDTAB
  0
TABLE
  2
STYLE
  5
70
330
0
100
AcDbSymbolTable
 70
     2
  0
STYLE
  5
71
330
70
100
AcDbSymbolTableRecord
100
AcDbTextStyleTableRecord
  2
STANDARD
 70
     0
 40
0.0
 41
1.0
 50
0.0
 71
     0
 42
2.5
  3
arial.ttf
  4

  0
STYLE
  5
72
330
70
100
AcDbSymbolTableRecord
100
AcDbTextStyleTableRecord
  2
ANNOTATIVE
 70
     0
 40
0.0
 41
1.0
 50
0.0
 71
     0
 42
2.5
  3
arial.ttf
  4

  0
ENDTAB
  0
TABLE
  2
VIEW
  5
73
330
0
100
AcDbSymbolTable
 70
     0
  0
ENDTAB
  0
TABLE
  2
UCS
  5
74
330
0
100
AcDbSymbolTable
 70
     0
  0
ENDTAB
  0
TABLE
  2
APPID
  5
75
330
0
100
AcDbSymbolTable
 70
     2
  0
APPID
  5
76
330
75
100
AcDbSymbolTableRecord
100
AcDbRegAppTableRecord
  2
ACAD
 70
     0
  0
APPID
  5
77
330
75
100
AcDbSymbolTableRecord
100
AcDbRegAppTableRecord
  2
ACADANNOTATIVE
 70
     0
  0
ENDTAB
  0
TABLE
  2
DIMSTYLE
  5
78
330
0
100
AcDbSymbolTable
 70
     2
  0
DIMSTYLE
105
79
330
78
100
AcDbSymbolTableRecord
100
AcDbDimStyleTableRecord
  2
STANDARD
 70
     0
  3

  4

  5

  6

  7

 40
0.0
 41
2.5
 42
0.625
 43
3.75
 44
1.25
 45
0.0
 46
0.0
 47
0.0
 48
0.0
140
2.5
141
2.5
142
0.0
143
0.03937007874016
144
1.0
145
0.0
146
1.0
147
0.625
 71
     0
 72
     0
 73
     0
 74
     0
 75
     0
 76
     0
 77
     1
 78
     8
170
     0
171
     3
172
     1
173
     0
174
     0
175
     0
176
     0
177
     0
178
     0
270
     2
271
     2
272
     2
273
     2
274
     3
340
71
275
     0
280
     0
281
     0
282
     0
283
     0
284
     8
285
     0
286
     0
287
     3
288
     0
  0
ENDTAB
  0
TABLE
  2
BLOCK_RECORD
  5
A01
330
0
100
AcDbSymbolTable
  70
5
  0
BLOCK_RECORD
  5
A02
330
A01
100
AcDbSymbolTableRecord
100
AcDbBlockTableRecord
  2
*MODEL_SPACE
  0
BLOCK_RECORD
  5
A03
330
A01
100
AcDbSymbolTableRecord
100
AcDbBlockTableRecord
  2
*PAPER_SPACE
  0
ENDTAB
  0
ENDSEC
  0
SECTION
  2
BLOCKS
  0
BLOCK
  5
A04
330
A02
100
AcDbEntity
  8
0
100
AcDbBlockBegin
  2
*MODEL_SPACE
 70
   0
 10
0
 20
0
 30
0
  3
*MODEL_SPACE
  1
 
  0
ENDBLK
  5
A05
330
A02
100
AcDbEntity
  8
0
100
AcDbBlockEnd
  0
BLOCK
  5
A06
330
A03
100
AcDbEntity
 67
1
  8
0
100
AcDbBlockBegin
  2
*PAPER_SPACE
 70
   0
 10
0
 20
0
 30
0
  3
*PAPER_SPACE
  1
 
  0
ENDBLK
  5
A07
330
A03
100
AcDbEntity
 67
    1
  8
0
100
AcDbBlockEnd
  0
ENDSEC
  0
SECTION
  2
ENTITIES
  0
ARC
  5
A08
330
A02
100
AcDbEntity
  8
Shape2DView
100
AcDbCircle
 10
69.346848325
 20
49.801942819
 30
0.000000000
 40
0.186666667
100
AcDbArc
 50
20.000000000
 51
-160.000000000
  0
ARC
  5
A09
330
A02
100
AcDbEntity
  8
Shape2DView
100
AcDbCircle
 10
69.346848325
 20
49.801942819
 30
0.000000000
 40
0.186666667
100
AcDbArc
 50
-160.000000000
 51
-70.000000000
  0
LINE
  5
A0A
330
A02
100
AcDbEntity
  8
Shape2DView
100
AcDbLine
 10
69.522257614
 20
49.865786579
 30
0.000000000
 11
91.321329830
 21
57.800000000
 31
0.000000000
  0
LINE
  5
A0B
330
A02
100
AcDbEntity
  8
Shape2DView
100
AcDbLine
 10
91.321329830
 20
57.800000000
 30
0.000000000
 11
96.780883344
 21
42.800000000
 31
0.000000000
  0
LINE
  5
A0C
330
A02
100
AcDbEntity
  8
Shape2DView
100
AcDbLine
 10
97.800000000
 20
42.800000000
 30
0.000000000
 11
97.800000000
 21
57.519983333
 31
0.000000000
  0
ARC
  5
A0D
330
A02
100
AcDbEntity
  8
Shape2DView
100
AcDbCircle
 10
97.800000000
 20
57.706650000
 30
0.000000000
 40
0.186666667
100
AcDbArc
 50
0.000000000
 51
90.000000000
  0
ARC
  5
A0E
330
A02
100
AcDbEntity
  8
Shape2DView
100
AcDbCircle
 10
97.800000000
 20
57.706650000
 30
0.000000000
 40
0.186666667
100
AcDbArc
 50
90.000000000
 51
-90.000000000
  0
LINE
  5
A0F
330
A02
100
AcDbEntity
  8
Shape2DView
100
AcDbLine
 10
96.780883344
 20
42.800000000
 30
0.000000000
 11
97.800000000
 21
42.800000000
 31
0.000000000
  0
LINE
  5
A10
330
A02
100
AcDbEntity
  8
Shape2DView
100
AcDbLine
 10
97.986666667
 20
57.706650000
 30
0.000000000
 11
100.600000000
 21
57.706650000
 31
0.000000000
  0
LINE
  5
A11
330
A02
100
AcDbEntity
  8
Shape2DView
100
AcDbLine
 10
100.600000000
 20
67.893350000
 30
0.000000000
 11
100.600000000
 21
57.706650000
 31
0.000000000
  0
LINE
  5
A12
330
A02
100
AcDbEntity
  8
Shape2DView
100
AcDbLine
 10
97.986666667
 20
67.893350000
 30
0.000000000
 11
100.600000000
 21
67.893350000
 31
0.000000000
  0
ARC
  5
A13
330
A02
100
AcDbEntity
  8
Shape2DView
100
AcDbCircle
 10
97.800000000
 20
67.893350000
 30
0.000000000
 40
0.186666667
100
AcDbArc
 50
90.000000000
 51
-90.000000000
  0
ARC
  5
A14
330
A02
100
AcDbEntity
  8
Shape2DView
100
AcDbCircle
 10
97.800000000
 20
67.893350000
 30
0.000000000
 40
0.186666667
100
AcDbArc
 50
-90.000000000
 51
0.000000000
  0
LINE
  5
A15
330
A02
100
AcDbEntity
  8
Shape2DView
100
AcDbLine
 10
97.800000000
 20
68.080016667
 30
0.000000000
 11
97.800000000
 21
82.800000000
 31
0.000000000
  0
LINE
  5
A16
330
A02
100
AcDbEntity
  8
Shape2DView
100
AcDbLine
 10
97.800000000
 20
82.800000000
 30
0.000000000
 11
79.330016667
 21
82.800000000
 31
0.000000000
  0
ARC
  5
A17
330
A02
100
AcDbEntity
  8
Shape2DView
100
AcDbCircle
 10
79.143350000
 20
82.800000000
 30
0.000000000
 40
0.186666667
100
AcDbArc
 50
90.000000000
 51
-180.000000000
  0
ARC
  5
A18
330
A02
100
AcDbEntity
  8
Shape2DView
100
AcDbCircle
 10
79.143350000
 20
82.800000000
 30
0.000000000
 40
0.186666667
100
AcDbArc
 50
-180.000000000
 51
-0.000000000
  0
LINE
  5
A19
330
A02
100
AcDbEntity
  8
Shape2DView
100
AcDbLine
 10
79.143350000
 20
82.986666667
 30
0.000000000
 11
79.143350000
 21
85.600000000
 31
0.000000000
  0
LINE
  5
A1A
330
A02
100
AcDbEntity
  8
Shape2DView
100
AcDbLine
 10
68.956650000
 20
85.600000000
 30
0.000000000
 11
79.143350000
 21
85.600000000
 31
0.000000000
  0
LINE
  5
A1B
330
A02
100
AcDbEntity
  8
Shape2DView
100
AcDbLine
 10
68.956650000
 20
82.986666667
 30
0.000000000
 11
68.956650000
 21
85.600000000
 31
0.000000000
  0
ARC
  5
A1C
330
A02
100
AcDbEntity
  8
Shape2DView
100
AcDbCircle
 10
68.956650000
 20
82.800000000
 30
0.000000000
 40
0.186666667
100
AcDbArc
 50
-180.000000000
 51
-0.000000000
  0
ARC
  5
A1D
330
A02
100
AcDbEntity
  8
Shape2DView
100
AcDbCircle
 10
68.956650000
 20
82.800000000
 30
0.000000000
 40
0.186666667
100
AcDbArc
 50
-0.000000000
 51
90.000000000
  0
LINE
  5
A1E
330
A02
100
AcDbEntity
  8
Shape2DView
100
AcDbLine
 10
68.769983333
 20
82.800000000
 30
0.000000000
 11
31.830016667
 21
82.800000000
 31
0.000000000
  0
ARC
  5
A1F
330
A02
100
AcDbEntity
  8
Shape2DView
100
AcDbCircle
 10
31.643350000
 20
82.800000000
 30
0.000000000
 40
0.186666667
100
AcDbArc
 50
90.000000000
 51
180.000000000
  0
ARC
  5
A20
330
A02
100
AcDbEntity
  8
Shape2DView
100
AcDbCircle
 10
31.643350000
 20
82.800000000
 30
0.000000000
 40
0.186666667
100
AcDbArc
 50
180.000000000
 51
0.000000000
  0
LINE
  5
A21
330
A02
100
AcDbEntity
  8
Shape2DView
100
AcDbLine
 10
31.643350000
 20
82.986666667
 30
0.000000000
 11
31.643350000
 21
85.600000000
 31
0.000000000
  0
LINE
  5
A22
330
A02
100
AcDbEntity
  8
Shape2DView
100
AcDbLine
 10
21.456650000
 20
85.600000000
 30
0.000000000
 11
31.643350000
 21
85.600000000
 31
0.000000000
  0
LINE
  5
A23
330
A02
100
AcDbEntity
  8
Shape2DView
100
AcDbLine
 10
21.456650000
 20
82.986666667
 30
0.000000000
 11
21.456650000
 21
85.600000000
 31
0.000000000
  0
ARC
  5
A24
330
A02
100
AcDbEntity
  8
Shape2DView
100
AcDbCircle
 10
21.456650000
 20
82.800000000
 30
0.000000000
 40
0.186666667
100
AcDbArc
 50
180.000000000
 51
0.000000000
  0
ARC
  5
A25
330
A02
100
AcDbEntity
  8
Shape2DView
100
AcDbCircle
 10
21.456650000
 20
82.800000000
 30
0.000000000
 40
0.186666667
100
AcDbArc
 50
0.000000000
 51
90.000000000
  0
LINE
  5
A26
330
A02
100
AcDbEntity
  8
Shape2DView
100
AcDbLine
 10
21.269983333
 20
82.800000000
 30
0.000000000
 11
2.800000000
 21
82.800000000
 31
0.000000000
  0
LINE
  5
A27
330
A02
100
AcDbEntity
  8
Shape2DView
100
AcDbLine
 10
2.800000000
 20
82.800000000
 30
0.000000000
 11
2.800000000
 21
69.330016667
 31
0.000000000
  0
ARC
  5
A28
330
A02
100
AcDbEntity
  8
Shape2DView
100
AcDbCircle
 10
2.800000000
 20
69.143350000
 30
0.000000000
 40
0.186666667
100
AcDbArc
 50
180.000000000
 51
-90.000000000
  0
ARC
  5
A29
330
A02
100
AcDbEntity
  8
Shape2DView
100
AcDbCircle
 10
2.800000000
 20
69.143350000
 30
0.000000000
 40
0.186666667
100
AcDbArc
 50
-90.000000000
 51
90.000000000
  0
LINE
  5
A2A
330
A02
100
AcDbEntity
  8
Shape2DView
100
AcDbLine
 10
2.613333333
 20
69.143350000
 30
0.000000000
 11
-0.000000000
 21
69.143350000
 31
0.000000000
  0
LINE
  5
A2B
330
A02
100
AcDbEntity
  8
Shape2DView
100
AcDbLine
 10
0.000000000
 20
58.956650000
 30
0.000000000
 11
-0.000000000
 21
69.143350000
 31
0.000000000
  0
LINE
  5
A2C
330
A02
100
AcDbEntity
  8
Shape2DView
100
AcDbLine
 10
2.613333333
 20
58.956650000
 30
0.000000000
 11
0.000000000
 21
58.956650000
 31
0.000000000
  0
ARC
  5
A2D
330
A02
100
AcDbEntity
  8
Shape2DView
100
AcDbCircle
 10
2.800000000
 20
58.956650000
 30
0.000000000
 40
0.186666667
100
AcDbArc
 50
-90.000000000
 51
90.000000000
  0
ARC
  5
A2E
330
A02
100
AcDbEntity
  8
Shape2DView
100
AcDbCircle
 10
2.800000000
 20
58.956650000
 30
0.000000000
 40
0.186666667
100
AcDbArc
 50
90.000000000
 51
180.000000000
  0
LINE
  5
A2F
330
A02
100
AcDbEntity
  8
Shape2DView
100
AcDbLine
 10
2.800000000
 20
58.769983333
 30
0.000000000
 11
2.800000000
 21
31.830016667
 31
0.000000000
  0
ARC
  5
A30
330
A02
100
AcDbEntity
  8
Shape2DView
100
AcDbCircle
 10
2.800000000
 20
31.643350000
 30
0.000000000
 40
0.186666667
100
AcDbArc
 50
180.000000000
 51
-90.000000000
  0
ARC
  5
A31
330
A02
100
AcDbEntity
  8
Shape2DView
100
AcDbCircle
 10
2.800000000
 20
31.643350000
 30
0.000000000
 40
0.186666667
100
AcDbArc
 50
-90.000000000
 51
90.000000000
  0
LINE
  5
A32
330
A02
100
AcDbEntity
  8
Shape2DView
100
AcDbLine
 10
2.613333333
 20
31.643350000
 30
0.000000000
 11
0.000000000
 21
31.643350000
 31
0.000000000
  0
LINE
  5
A33
330
A02
100
AcDbEntity
  8
Shape2DView
100
AcDbLine
 10
0.000000000
 20
21.456650000
 30
0.000000000
 11
0.000000000
 21
31.643350000
 31
0.000000000
  0
LINE
  5
A34
330
A02
100
AcDbEntity
  8
Shape2DView
100
AcDbLine
 10
2.613333333
 20
21.456650000
 30
0.000000000
 11
0.000000000
 21
21.456650000
 31
0.000000000
  0
ARC
  5
A35
330
A02
100
AcDbEntity
  8
Shape2DView
100
AcDbCircle
 10
2.800000000
 20
21.456650000
 30
0.000000000
 40
0.186666667
100
AcDbArc
 50
-90.000000000
 51
90.000000000
  0
ARC
  5
A36
330
A02
100
AcDbEntity
  8
Shape2DView
100
AcDbCircle
 10
2.800000000
 20
21.456650000
 30
0.000000000
 40
0.186666667
100
AcDbArc
 50
90.000000000
 51
180.000000000
  0
LINE
  5
A37
330
A02
100
AcDbEntity
  8
Shape2DView
100
AcDbLine
 10
2.800000000
 20
21.269983333
 30
0.000000000
 11
2.800000000
 21
7.800000000
 31
0.000000000
  0
LINE
  5
A38
330
A02
100
AcDbEntity
  8
Shape2DView
100
AcDbLine
 10
2.800000000
 20
7.800000000
 30
0.000000000
 11
15.019983333
 21
7.800000000
 31
0.000000000
  0
ARC
  5
A39
330
A02
100
AcDbEntity
  8
Shape2DView
100
AcDbCircle
 10
15.206650000
 20
7.800000000
 30
0.000000000
 40
0.186666667
100
AcDbArc
 50
-90.000000000
 51
0.000000000
  0
ARC
  5
A3A
330
A02
100
AcDbEntity
  8
Shape2DView
100
AcDbCircle
 10
15.206650000
 20
7.800000000
 30
0.000000000
 40
0.186666667
100
AcDbArc
 50
0.000000000
 51
180.000000000
  0
LINE
  5
A3B
330
A02
100
AcDbEntity
  8
Shape2DView
100
AcDbLine
 10
15.206650000
 20
7.613333333
 30
0.000000000
 11
15.206650000
 21
5.000000000
 31
0.000000000
  0
LINE
  5
A3C
330
A02
100
AcDbEntity
  8
Shape2DView
100
AcDbLine
 10
25.393350000
 20
5.000000000
 30
0.000000000
 11
15.206650000
 21
5.000000000
 31
0.000000000
  0
LINE
  5
A3D
330
A02
100
AcDbEntity
  8
Shape2DView
100
AcDbLine
 10
25.393350000
 20
7.613333333
 30
0.000000000
 11
25.393350000
 21
5.000000000
 31
0.000000000
  0
ARC
  5
A3E
330
A02
100
AcDbEntity
  8
Shape2DView
100
AcDbCircle
 10
25.393350000
 20
7.800000000
 30
0.000000000
 40
0.186666667
100
AcDbArc
 50
0.000000000
 51
180.000000000
  0
ARC
  5
A3F
330
A02
100
AcDbEntity
  8
Shape2DView
100
AcDbCircle
 10
25.393350000
 20
7.800000000
 30
0.000000000
 40
0.186666667
100
AcDbArc
 50
180.000000000
 51
-90.000000000
  0
LINE
  5
A40
330
A02
100
AcDbEntity
  8
Shape2DView
100
AcDbLine
 10
25.580016667
 20
7.800000000
 30
0.000000000
 11
37.800000000
 21
7.800000000
 31
0.000000000
  0
LINE
  5
A41
330
A02
100
AcDbEntity
  8
Shape2DView
100
AcDbLine
 10
37.800000000
 20
7.800000000
 30
0.000000000
 11
37.800000000
 21
17.779897855
 31
0.000000000
  0
ARC
  5
A42
330
A02
100
AcDbEntity
  8
Shape2DView
100
AcDbCircle
 10
37.800000000
 20
17.966564522
 30
0.000000000
 40
0.186666667
100
AcDbArc
 50
0.000000000
 51
90.000000000
  0
ARC
  5
A43
330
A02
100
AcDbEntity
  8
Shape2DView
100
AcDbCircle
 10
37.800000000
 20
17.966564522
 30
0.000000000
 40
0.186666667
100
AcDbArc
 50
90.000000000
 51
-90.000000000
  0
LINE
  5
A44
330
A02
100
AcDbEntity
  8
Shape2DView
100
AcDbLine
 10
37.986666667
 20
17.966564522
 30
0.000000000
 11
40.600000000
 21
17.966564522
 31
0.000000000
  0
LINE
  5
A45
330
A02
100
AcDbEntity
  8
Shape2DView
100
AcDbLine
 10
40.600000000
 20
28.153264522
 30
0.000000000
 11
40.600000000
 21
17.966564522
 31
0.000000000
  0
LINE
  5
A46
330
A02
100
AcDbEntity
  8
Shape2DView
100
AcDbLine
 10
37.986666667
 20
28.153264522
 30
0.000000000
 11
40.600000000
 21
28.153264522
 31
0.000000000
  0
ARC
  5
A47
330
A02
100
AcDbEntity
  8
Shape2DView
100
AcDbCircle
 10
37.800000000
 20
28.153264522
 30
0.000000000
 40
0.186666667
100
AcDbArc
 50
90.000000000
 51
-90.000000000
  0
ARC
  5
A48
330
A02
100
AcDbEntity
  8
Shape2DView
100
AcDbCircle
 10
37.800000000
 20
28.153264522
 30
0.000000000
 40
0.186666667
100
AcDbArc
 50
-90.000000000
 51
0.000000000
  0
LINE
  5
A49
330
A02
100
AcDbEntity
  8
Shape2DView
100
AcDbLine
 10
37.800000000
 20
28.339931188
 30
0.000000000
 11
37.800000000
 21
38.319829044
 31
0.000000000
  0
LINE
  5
A4A
330
A02
100
AcDbEntity
  8
Shape2DView
100
AcDbLine
 10
37.800000000
 20
38.319829044
 30
0.000000000
 11
59.599072216
 21
46.254042465
 31
0.000000000
  0
ARC
  5
A4B
330
A02
100
AcDbEntity
  8
Shape2DView
100
AcDbCircle
 10
59.774481505
 20
46.317886225
 30
0.000000000
 40
0.186666667
100
AcDbArc
 50
-70.000000000
 51
20.000000000
  0
ARC
  5
A4C
330
A02
100
AcDbEntity
  8
Shape2DView
100
AcDbCircle
 10
59.774481505
 20
46.317886225
 30
0.000000000
 40
0.186666667
100
AcDbArc
 50
20.000000000
 51
-160.000000000
  0
LINE
  5
A4D
330
A02
100
AcDbEntity
  8
Shape2DView
100
AcDbLine
 10
59.838325265
 20
46.142476936
 30
0.000000000
 11
60.732137906
 21
43.686746887
 31
0.000000000
  0
LINE
  5
A4E
330
A02
100
AcDbEntity
  8
Shape2DView
100
AcDbLine
 10
70.304504726
 20
47.170803481
 30
0.000000000
 11
60.732137906
 21
43.686746887
 31
0.000000000
  0
LINE
  5
A4F
330
A02
100
AcDbEntity
  8
Shape2DView
100
AcDbLine
 10
69.410692085
 20
49.626533530
 30
0.000000000
 11
70.304504726
 21
47.170803481
 31
0.000000000
  0
LINE
  5
A50
330
A02
100
AcDbEntity
  8
Shape2DView
100
AcDbLine
 10
52.038082852
 20
53.268769531
 30
0.000000000
 11
51.183032494
 21
55.618001083
 31
0.000000000
  0
ARC
  5
A51
330
A02
100
AcDbEntity
  8
Shape2DView
100
AcDbCircle
 10
49.219004990
 20
52.242709101
 30
0.000000000
 40
3.000000000
100
AcDbArc
 50
-70.000000000
 51
20.000000000
  0
LINE
  5
A52
330
A02
100
AcDbEntity
  8
Shape2DView
100
AcDbLine
 10
44.137063385
 20
47.200500307
 30
0.000000000
 11
50.245065420
 21
49.423631238
 31
0.000000000
  0
ARC
  5
A53
330
A02
100
AcDbEntity
  8
Shape2DView
100
AcDbCircle
 10
43.111002955
 20
50.019578169
 30
0.000000000
 40
3.000000000
100
AcDbArc
 50
-160.000000000
 51
-70.000000000
  0
LINE
  5
A54
330
A02
100
AcDbEntity
  8
Shape2DView
100
AcDbLine
 10
39.436874734
 20
51.342749291
 30
0.000000000
 11
40.291925092
 21
48.993517739
 31
0.000000000
  0
ARC
  5
A55
330
A02
100
AcDbEntity
  8
Shape2DView
100
AcDbCircle
 10
42.255952596
 20
52.368809721
 30
0.000000000
 40
3.000000000
100
AcDbArc
 50
110.000000000
 51
-160.000000000
  0
LINE
  5
A56
330
A02
100
AcDbEntity
  8
Shape2DView
100
AcDbLine
 10
47.337894202
 20
57.411018515
 30
0.000000000
 11
41.229892166
 21
55.187887584
 31
0.000000000
  0
ARC
  5
A57
330
A02
100
AcDbEntity
  8
Shape2DView
100
AcDbCircle
 10
48.363954632
 20
54.591940653
 30
0.000000000
 40
3.000000000
100
AcDbArc
 50
20.000000000
 51
110.000000000
  0
ARC
  5
A58
330
A02
100
AcDbEntity
  8
Shape2DView
100
AcDbCircle
 10
71.831462866
 20
78.314975224
 30
0.000000000
 40
0.755000000
100
AcDbArc
 50
-70.000000000
 51
110.000000000
  0
LINE
  5
A59
330
A02
100
AcDbEntity
  8
Shape2DView
100
AcDbLine
 10
72.089688074
 20
77.605507296
 30
0.000000000
 11
60.813376624
 21
73.501265576
 31
0.000000000
  0
ARC
  5
A5A
330
A02
100
AcDbEntity
  8
Shape2DView
100
AcDbCircle
 10
60.555151416
 20
74.210733505
 30
0.000000000
 40
0.755000000
100
AcDbArc
 50
110.000000000
 51
-70.000000000
  0
LINE
  5
A5B
330
A02
100
AcDbEntity
  8
Shape2DView
100
AcDbLine
 10
71.573237657
 20
79.024443153
 30
0.000000000
 11
60.296926208
 21
74.920201433
 31
0.000000000
  0
ARC
  5
A5C
330
A02
100
AcDbEntity
  8
Shape2DView
100
AcDbCircle
 10
41.761299000
 20
67.370330638
 30
0.000000000
 40
0.755000000
100
AcDbArc
 50
-70.000000000
 51
110.000000000
  0
LINE
  5
A5D
330
A02
100
AcDbEntity
  8
Shape2DView
100
AcDbLine
 10
42.019524209
 20
66.660862709
 30
0.000000000
 11
30.743212759
 21
62.556620989
 31
0.000000000
  0
ARC
  5
A5E
330
A02
100
AcDbEntity
  8
Shape2DView
100
AcDbCircle
 10
30.484987551
 20
63.266088918
 30
0.000000000
 40
0.755000000
100
AcDbArc
 50
110.000000000
 51
-70.000000000
  0
LINE
  5
A5F
330
A02
100
AcDbEntity
  8
Shape2DView
100
AcDbLine
 10
41.503073792
 20
68.079798567
 30
0.000000000
 11
30.226762343
 21
63.975556847
 31
0.000000000
  0
ARC
  5
A60
330
A02
100
AcDbEntity
  8
Shape2DView
100
AcDbCircle
 10
32.155000000
 20
15.500000000
 30
0.000000000
 40
0.755000000
100
AcDbArc
 50
180.000000000
 51
0.000000000
  0
LINE
  5
A61
330
A02
100
AcDbEntity
  8
Shape2DView
100
AcDbLine
 10
31.400000000
 20
15.500000000
 30
0.000000000
 11
31.400000000
 21
27.500000000
 31
0.000000000
  0
ARC
  5
A62
330
A02
100
AcDbEntity
  8
Shape2DView
100
AcDbCircle
 10
32.155000000
 20
27.500000000
 30
0.000000000
 40
0.755000000
100
AcDbArc
 50
0.000000000
 51
180.000000000
  0
LINE
  5
A63
330
A02
100
AcDbEntity
  8
Shape2DView
100
AcDbLine
 10
32.910000000
 20
15.500000000
 30
0.000000000
 11
32.910000000
 21
27.500000000
 31
0.000000000
  0
ARC
  5
A64
330
A02
100
AcDbEntity
  8
Shape2DView
100
AcDbCircle
 10
43.756797467
 20
64.372977401
 30
0.000000000
 40
1.500000000
100
AcDbArc
 50
-70.000000000
 51
110.000000000
  0
LINE
  5
A65
330
A02
100
AcDbEntity
  8
Shape2DView
100
AcDbLine
 10
44.269827682
 20
62.963438469
 30
0.000000000
 11
40.417087937
 21
61.561155882
 31
0.000000000
  0
ARC
  5
A66
330
A02
100
AcDbEntity
  8
Shape2DView
100
AcDbCircle
 10
39.904057722
 20
62.970694813
 30
0.000000000
 40
1.500000000
100
AcDbArc
 50
110.000000000
 51
-70.000000000
  0
LINE
  5
A67
330
A02
100
AcDbEntity
  8
Shape2DView
100
AcDbLine
 10
43.243767252
 20
65.782516332
 30
0.000000000
 11
39.391027507
 21
64.380233744
 31
0.000000000
  0
ARC
  5
A68
330
A02
100
AcDbEntity
  8
Shape2DView001
100
AcDbCircle
 10
148.853151675
 20
49.801942819
 30
0.000000000
 40
0.186666667
100
AcDbArc
 50
-110.000000000
 51
-20.000000000
  0
ARC
  5
A69
330
A02
100
AcDbEntity
  8
Shape2DView001
100
AcDbCircle
 10
148.853151675
 20
49.801942819
 30
0.000000000
 40
0.186666667
100
AcDbArc
 50
-20.000000000
 51
160.000000000
  0
LINE
  5
A6A
330
A02
100
AcDbEntity
  8
Shape2DView001
100
AcDbLine
 10
148.677742386
 20
49.865786579
 30
0.000000000
 11
126.878670170
 21
57.800000000
 31
0.000000000
  0
LINE
  5
A6B
330
A02
100
AcDbEntity
  8
Shape2DView001
100
AcDbLine
 10
126.878670170
 20
57.800000000
 30
0.000000000
 11
121.419116656
 21
42.800000000
 31
0.000000000
  0
LINE
  5
A6C
330
A02
100
AcDbEntity
  8
Shape2DView001
100
AcDbLine
 10
120.400000000
 20
42.800000000
 30
0.000000000
 11
120.400000000
 21
57.519983333
 31
0.000000000
  0
ARC
  5
A6D
330
A02
100
AcDbEntity
  8
Shape2DView001
100
AcDbCircle
 10
120.400000000
 20
57.706650000
 30
0.000000000
 40
0.186666667
100
AcDbArc
 50
-90.000000000
 51
90.000000000
  0
ARC
  5
A6E
330
A02
100
AcDbEntity
  8
Shape2DView001
100
AcDbCircle
 10
120.400000000
 20
57.706650000
 30
0.000000000
 40
0.186666667
100
AcDbArc
 50
90.000000000
 51
180.000000000
  0
LINE
  5
A6F
330
A02
100
AcDbEntity
  8
Shape2DView001
100
AcDbLine
 10
121.419116656
 20
42.800000000
 30
0.000000000
 11
120.400000000
 21
42.800000000
 31
0.000000000
  0
LINE
  5
A70
330
A02
100
AcDbEntity
  8
Shape2DView001
100
AcDbLine
 10
120.213333333
 20
57.706650000
 30
0.000000000
 11
117.600000000
 21
57.706650000
 31
0.000000000
  0
LINE
  5
A71
330
A02
100
AcDbEntity
  8
Shape2DView001
100
AcDbLine
 10
117.600000000
 20
67.893350000
 30
0.000000000
 11
117.600000000
 21
57.706650000
 31
0.000000000
  0
LINE
  5
A72
330
A02
100
AcDbEntity
  8
Shape2DView001
100
AcDbLine
 10
120.213333333
 20
67.893350000
 30
0.000000000
 11
117.600000000
 21
67.893350000
 31
0.000000000
  0
ARC
  5
A73
330
A02
100
AcDbEntity
  8
Shape2DView001
100
AcDbCircle
 10
120.400000000
 20
67.893350000
 30
0.000000000
 40
0.186666667
100
AcDbArc
 50
180.000000000
 51
-90.000000000
  0
ARC
  5
A74
330
A02
100
AcDbEntity
  8
Shape2DView001
100
AcDbCircle
 10
120.400000000
 20
67.893350000
 30
0.000000000
 40
0.186666667
100
AcDbArc
 50
-90.000000000
 51
90.000000000
  0
LINE
  5
A75
330
A02
100
AcDbEntity
  8
Shape2DView001
100
AcDbLine
 10
120.400000000
 20
68.080016667
 30
0.000000000
 11
120.400000000
 21
82.800000000
 31
0.000000000
  0
LINE
  5
A76
330
A02
100
AcDbEntity
  8
Shape2DView001
100
AcDbLine
 10
120.400000000
 20
82.800000000
 30
0.000000000
 11
138.869983333
 21
82.800000000
 31
0.000000000
  0
ARC
  5
A77
330
A02
100
AcDbEntity
  8
Shape2DView001
100
AcDbCircle
 10
139.056650000
 20
82.800000000
 30
0.000000000
 40
0.186666667
100
AcDbArc
 50
180.000000000
 51
0.000000000
  0
ARC
  5
A78
330
A02
100
AcDbEntity
  8
Shape2DView001
100
AcDbCircle
 10
139.056650000
 20
82.800000000
 30
0.000000000
 40
0.186666667
100
AcDbArc
 50
0.000000000
 51
90.000000000
  0
LINE
  5
A79
330
A02
100
AcDbEntity
  8
Shape2DView001
100
AcDbLine
 10
139.056650000
 20
82.986666667
 30
0.000000000
 11
139.056650000
 21
85.600000000
 31
0.000000000
  0
LINE
  5
A7A
330
A02
100
AcDbEntity
  8
Shape2DView001
100
AcDbLine
 10
149.243350000
 20
85.600000000
 30
0.000000000
 11
139.056650000
 21
85.600000000
 31
0.000000000
  0
LINE
  5
A7B
330
A02
100
AcDbEntity
  8
Shape2DView001
100
AcDbLine
 10
149.243350000
 20
82.986666667
 30
0.000000000
 11
149.243350000
 21
85.600000000
 31
0.000000000
  0
ARC
  5
A7C
330
A02
100
AcDbEntity
  8
Shape2DView001
100
AcDbCircle
 10
149.243350000
 20
82.800000000
 30
0.000000000
 40
0.186666667
100
AcDbArc
 50
90.000000000
 51
180.000000000
  0
ARC
  5
A7D
330
A02
100
AcDbEntity
  8
Shape2DView001
100
AcDbCircle
 10
149.243350000
 20
82.800000000
 30
0.000000000
 40
0.186666667
100
AcDbArc
 50
180.000000000
 51
0.000000000
  0
LINE
  5
A7E
330
A02
100
AcDbEntity
  8
Shape2DView001
100
AcDbLine
 10
149.430016667
 20
82.800000000
 30
0.000000000
 11
186.369983333
 21
82.800000000
 31
0.000000000
  0
ARC
  5
A7F
330
A02
100
AcDbEntity
  8
Shape2DView001
100
AcDbCircle
 10
186.556650000
 20
82.800000000
 30
0.000000000
 40
0.186666667
100
AcDbArc
 50
-180.000000000
 51
-0.000000000
  0
ARC
  5
A80
330
A02
100
AcDbEntity
  8
Shape2DView001
100
AcDbCircle
 10
186.556650000
 20
82.800000000
 30
0.000000000
 40
0.186666667
100
AcDbArc
 50
-0.000000000
 51
90.000000000
  0
LINE
  5
A81
330
A02
100
AcDbEntity
  8
Shape2DView001
100
AcDbLine
 10
186.556650000
 20
82.986666667
 30
0.000000000
 11
186.556650000
 21
85.600000000
 31
0.000000000
  0
LINE
  5
A82
330
A02
100
AcDbEntity
  8
Shape2DView001
100
AcDbLine
 10
196.743350000
 20
85.600000000
 30
0.000000000
 11
186.556650000
 21
85.600000000
 31
0.000000000
  0
LINE
  5
A83
330
A02
100
AcDbEntity
  8
Shape2DView001
100
AcDbLine
 10
196.743350000
 20
82.986666667
 30
0.000000000
 11
196.743350000
 21
85.600000000
 31
0.000000000
  0
ARC
  5
A84
330
A02
100
AcDbEntity
  8
Shape2DView001
100
AcDbCircle
 10
196.743350000
 20
82.800000000
 30
0.000000000
 40
0.186666667
100
AcDbArc
 50
90.000000000
 51
-180.000000000
  0
ARC
  5
A85
330
A02
100
AcDbEntity
  8
Shape2DView001
100
AcDbCircle
 10
196.743350000
 20
82.800000000
 30
0.000000000
 40
0.186666667
100
AcDbArc
 50
-180.000000000
 51
-0.000000000
  0
LINE
  5
A86
330
A02
100
AcDbEntity
  8
Shape2DView001
100
AcDbLine
 10
196.930016667
 20
82.800000000
 30
0.000000000
 11
215.400000000
 21
82.800000000
 31
0.000000000
  0
LINE
  5
A87
330
A02
100
AcDbEntity
  8
Shape2DView001
100
AcDbLine
 10
215.400000000
 20
82.800000000
 30
0.000000000
 11
215.400000000
 21
69.330016667
 31
0.000000000
  0
ARC
  5
A88
330
A02
100
AcDbEntity
  8
Shape2DView001
100
AcDbCircle
 10
215.400000000
 20
69.143350000
 30
0.000000000
 40
0.186666667
100
AcDbArc
 50
90.000000000
 51
-90.000000000
  0
ARC
  5
A89
330
A02
100
AcDbEntity
  8
Shape2DView001
100
AcDbCircle
 10
215.400000000
 20
69.143350000
 30
0.000000000
 40
0.186666667
100
AcDbArc
 50
-90.000000000
 51
0.000000000
  0
LINE
  5
A8A
330
A02
100
AcDbEntity
  8
Shape2DView001
100
AcDbLine
 10
215.586666667
 20
69.143350000
 30
0.000000000
 11
218.200000000
 21
69.143350000
 31
0.000000000
  0
LINE
  5
A8B
330
A02
100
AcDbEntity
  8
Shape2DView001
100
AcDbLine
 10
218.200000000
 20
58.956650000
 30
0.000000000
 11
218.200000000
 21
69.143350000
 31
0.000000000
  0
LINE
  5
A8C
330
A02
100
AcDbEntity
  8
Shape2DView001
100
AcDbLine
 10
215.586666667
 20
58.956650000
 30
0.000000000
 11
218.200000000
 21
58.956650000
 31
0.000000000
  0
ARC
  5
A8D
330
A02
100
AcDbEntity
  8
Shape2DView001
100
AcDbCircle
 10
215.400000000
 20
58.956650000
 30
0.000000000
 40
0.186666667
100
AcDbArc
 50
0.000000000
 51
90.000000000
  0
ARC
  5
A8E
330
A02
100
AcDbEntity
  8
Shape2DView001
100
AcDbCircle
 10
215.400000000
 20
58.956650000
 30
0.000000000
 40
0.186666667
100
AcDbArc
 50
90.000000000
 51
-90.000000000
  0
LINE
  5
A8F
330
A02
100
AcDbEntity
  8
Shape2DView001
100
AcDbLine
 10
215.400000000
 20
58.769983333
 30
0.000000000
 11
215.400000000
 21
31.830016667
 31
0.000000000
  0
ARC
  5
A90
330
A02
100
AcDbEntity
  8
Shape2DView001
100
AcDbCircle
 10
215.400000000
 20
31.643350000
 30
0.000000000
 40
0.186666667
100
AcDbArc
 50
90.000000000
 51
-90.000000000
  0
ARC
  5
A91
330
A02
100
AcDbEntity
  8
Shape2DView001
100
AcDbCircle
 10
215.400000000
 20
31.643350000
 30
0.000000000
 40
0.186666667
100
AcDbArc
 50
-90.000000000
 51
0.000000000
  0
LINE
  5
A92
330
A02
100
AcDbEntity
  8
Shape2DView001
100
AcDbLine
 10
215.586666667
 20
31.643350000
 30
0.000000000
 11
218.200000000
 21
31.643350000
 31
0.000000000
  0
LINE
  5
A93
330
A02
100
AcDbEntity
  8
Shape2DView001
100
AcDbLine
 10
218.200000000
 20
21.456650000
 30
0.000000000
 11
218.200000000
 21
31.643350000
 31
0.000000000
  0
LINE
  5
A94
330
A02
100
AcDbEntity
  8
Shape2DView001
100
AcDbLine
 10
215.586666667
 20
21.456650000
 30
0.000000000
 11
218.200000000
 21
21.456650000
 31
0.000000000
  0
ARC
  5
A95
330
A02
100
AcDbEntity
  8
Shape2DView001
100
AcDbCircle
 10
215.400000000
 20
21.456650000
 30
0.000000000
 40
0.186666667
100
AcDbArc
 50
0.000000000
 51
90.000000000
  0
ARC
  5
A96
330
A02
100
AcDbEntity
  8
Shape2DView001
100
AcDbCircle
 10
215.400000000
 20
21.456650000
 30
0.000000000
 40
0.186666667
100
AcDbArc
 50
90.000000000
 51
-90.000000000
  0
LINE
  5
A97
330
A02
100
AcDbEntity
  8
Shape2DView001
100
AcDbLine
 10
215.400000000
 20
21.269983333
 30
0.000000000
 11
215.400000000
 21
7.800000000
 31
0.000000000
  0
LINE
  5
A98
330
A02
100
AcDbEntity
  8
Shape2DView001
100
AcDbLine
 10
215.400000000
 20
7.800000000
 30
0.000000000
 11
203.180016667
 21
7.800000000
 31
0.000000000
  0
ARC
  5
A99
330
A02
100
AcDbEntity
  8
Shape2DView001
100
AcDbCircle
 10
202.993350000
 20
7.800000000
 30
0.000000000
 40
0.186666667
100
AcDbArc
 50
-0.000000000
 51
-180.000000000
  0
ARC
  5
A9A
330
A02
100
AcDbEntity
  8
Shape2DView001
100
AcDbCircle
 10
202.993350000
 20
7.800000000
 30
0.000000000
 40
0.186666667
100
AcDbArc
 50
-180.000000000
 51
-90.000000000
  0
LINE
  5
A9B
330
A02
100
AcDbEntity
  8
Shape2DView001
100
AcDbLine
 10
202.993350000
 20
7.613333333
 30
0.000000000
 11
202.993350000
 21
5.000000000
 31
0.000000000
  0
LINE
  5
A9C
330
A02
100
AcDbEntity
  8
Shape2DView001
100
AcDbLine
 10
192.806650000
 20
5.000000000
 30
0.000000000
 11
202.993350000
 21
5.000000000
 31
0.000000000
  0
LINE
  5
A9D
330
A02
100
AcDbEntity
  8
Shape2DView001
100
AcDbLine
 10
192.806650000
 20
7.613333333
 30
0.000000000
 11
192.806650000
 21
5.000000000
 31
0.000000000
  0
ARC
  5
A9E
330
A02
100
AcDbEntity
  8
Shape2DView001
100
AcDbCircle
 10
192.806650000
 20
7.800000000
 30
0.000000000
 40
0.186666667
100
AcDbArc
 50
-90.000000000
 51
-0.000000000
  0
ARC
  5
A9F
330
A02
100
AcDbEntity
  8
Shape2DView001
100
AcDbCircle
 10
192.806650000
 20
7.800000000
 30
0.000000000
 40
0.186666667
100
AcDbArc
 50
-0.000000000
 51
-180.000000000
  0
LINE
  5
AA0
330
A02
100
AcDbEntity
  8
Shape2DView001
100
AcDbLine
 10
192.619983333
 20
7.800000000
 30
0.000000000
 11
180.400000000
 21
7.800000000
 31
0.000000000
  0
LINE
  5
AA1
330
A02
100
AcDbEntity
  8
Shape2DView001
100
AcDbLine
 10
180.400000000
 20
7.800000000
 30
0.000000000
 11
180.400000000
 21
17.779897855
 31
0.000000000
  0
ARC
  5
AA2
330
A02
100
AcDbEntity
  8
Shape2DView001
100
AcDbCircle
 10
180.400000000
 20
17.966564522
 30
0.000000000
 40
0.186666667
100
AcDbArc
 50
-90.000000000
 51
90.000000000
  0
ARC
  5
AA3
330
A02
100
AcDbEntity
  8
Shape2DView001
100
AcDbCircle
 10
180.400000000
 20
17.966564522
 30
0.000000000
 40
0.186666667
100
AcDbArc
 50
90.000000000
 51
180.000000000
  0
LINE
  5
AA4
330
A02
100
AcDbEntity
  8
Shape2DView001
100
AcDbLine
 10
180.213333333
 20
17.966564522
 30
0.000000000
 11
177.600000000
 21
17.966564522
 31
0.000000000
  0
LINE
  5
AA5
330
A02
100
AcDbEntity
  8
Shape2DView001
100
AcDbLine
 10
177.600000000
 20
28.153264522
 30
0.000000000
 11
177.600000000
 21
17.966564522
 31
0.000000000
  0
LINE
  5
AA6
330
A02
100
AcDbEntity
  8
Shape2DView001
100
AcDbLine
 10
180.213333333
 20
28.153264522
 30
0.000000000
 11
177.600000000
 21
28.153264522
 31
0.000000000
  0
ARC
  5
AA7
330
A02
100
AcDbEntity
  8
Shape2DView001
100
AcDbCircle
 10
180.400000000
 20
28.153264522
 30
0.000000000
 40
0.186666667
100
AcDbArc
 50
180.000000000
 51
-90.000000000
  0
ARC
  5
AA8
330
A02
100
AcDbEntity
  8
Shape2DView001
100
AcDbCircle
 10
180.400000000
 20
28.153264522
 30
0.000000000
 40
0.186666667
100
AcDbArc
 50
-90.000000000
 51
90.000000000
  0
LINE
  5
AA9
330
A02
100
AcDbEntity
  8
Shape2DView001
100
AcDbLine
 10
180.400000000
 20
28.339931188
 30
0.000000000
 11
180.400000000
 21
38.319829044
 31
0.000000000
  0
LINE
  5
AAA
330
A02
100
AcDbEntity
  8
Shape2DView001
100
AcDbLine
 10
180.400000000
 20
38.319829044
 30
0.000000000
 11
158.600927784
 21
46.254042465
 31
0.000000000
  0
ARC
  5
AAB
330
A02
100
AcDbEntity
  8
Shape2DView001
100
AcDbCircle
 10
158.425518495
 20
46.317886225
 30
0.000000000
 40
0.186666667
100
AcDbArc
 50
-20.000000000
 51
160.000000000
  0
ARC
  5
AAC
330
A02
100
AcDbEntity
  8
Shape2DView001
100
AcDbCircle
 10
158.425518495
 20
46.317886225
 30
0.000000000
 40
0.186666667
100
AcDbArc
 50
160.000000000
 51
-110.000000000
  0
LINE
  5
AAD
330
A02
100
AcDbEntity
  8
Shape2DView001
100
AcDbLine
 10
158.361674735
 20
46.142476936
 30
0.000000000
 11
157.467862094
 21
43.686746887
 31
0.000000000
  0
LINE
  5
AAE
330
A02
100
AcDbEntity
  8
Shape2DView001
100
AcDbLine
 10
147.895495274
 20
47.170803481
 30
0.000000000
 11
157.467862094
 21
43.686746887
 31
0.000000000
  0
LINE
  5
AAF
330
A02
100
AcDbEntity
  8
Shape2DView001
100
AcDbLine
 10
148.789307915
 20
49.626533530
 30
0.000000000
 11
147.895495274
 21
47.170803481
 31
0.000000000
  0
ARC
  5
AB0
330
A02
100
AcDbEntity
  8
Shape2DView001
100
AcDbCircle
 10
146.368537134
 20
78.314975224
 30
0.000000000
 40
0.755000000
100
AcDbArc
 50
70.000000000
 51
-110.000000000
  0
LINE
  5
AB1
330
A02
100
AcDbEntity
  8
Shape2DView001
100
AcDbLine
 10
146.626762343
 20
79.024443153
 30
0.000000000
 11
157.903073792
 21
74.920201433
 31
0.000000000
  0
ARC
  5
AB2
330
A02
100
AcDbEntity
  8
Shape2DView001
100
AcDbCircle
 10
157.644848584
 20
74.210733505
 30
0.000000000
 40
0.755000000
100
AcDbArc
 50
-110.000000000
 51
70.000000000
  0
LINE
  5
AB3
330
A02
100
AcDbEntity
  8
Shape2DView001
100
AcDbLine
 10
146.110311926
 20
77.605507296
 30
0.000000000
 11
157.386623376
 21
73.501265576
 31
0.000000000
  0
ARC
  5
AB4
330
A02
100
AcDbEntity
  8
Shape2DView001
100
AcDbCircle
 10
176.438701000
 20
67.370330638
 30
0.000000000
 40
0.755000000
100
AcDbArc
 50
70.000000000
 51
-110.000000000
  0
LINE
  5
AB5
330
A02
100
AcDbEntity
  8
Shape2DView001
100
AcDbLine
 10
176.696926208
 20
68.079798567
 30
0.000000000
 11
187.973237657
 21
63.975556847
 31
0.000000000
  0
ARC
  5
AB6
330
A02
100
AcDbEntity
  8
Shape2DView001
100
AcDbCircle
 10
187.715012449
 20
63.266088918
 30
0.000000000
 40
0.755000000
100
AcDbArc
 50
-110.000000000
 51
70.000000000
  0
LINE
  5
AB7
330
A02
100
AcDbEntity
  8
Shape2DView001
100
AcDbLine
 10
176.180475791
 20
66.660862709
 30
0.000000000
 11
187.456787241
 21
62.556620989
 31
0.000000000
  0
ARC
  5
AB8
330
A02
100
AcDbEntity
  8
Shape2DView001
100
AcDbCircle
 10
186.045000000
 20
27.500000000
 30
0.000000000
 40
0.755000000
100
AcDbArc
 50
0.000000000
 51
180.000000000
  0
LINE
  5
AB9
330
A02
100
AcDbEntity
  8
Shape2DView001
100
AcDbLine
 10
186.800000000
 20
27.500000000
 30
0.000000000
 11
186.800000000
 21
15.500000000
 31
0.000000000
  0
ARC
  5
ABA
330
A02
100
AcDbEntity
  8
Shape2DView001
100
AcDbCircle
 10
186.045000000
 20
15.500000000
 30
0.000000000
 40
0.755000000
100
AcDbArc
 50
-180.000000000
 51
0.000000000
  0
LINE
  5
ABB
330
A02
100
AcDbEntity
  8
Shape2DView001
100
AcDbLine
 10
185.290000000
 20
27.500000000
 30
0.000000000
 11
185.290000000
 21
15.500000000
 31
0.000000000
  0
LINE
  5
ABC
330
A02
100
AcDbEntity
  8
Shape2DView002
100
AcDbLine
 10
224.800000000
 20
120.706650000
 30
0.000000000
 11
222.225339318
 21
120.706650000
 31
0.000000000
  0
LINE
  5
ABD
330
A02
100
AcDbEntity
  8
Shape2DView002
100
AcDbLine
 10
224.800000000
 20
120.706650000
 30
0.000000000
 11
224.800000000
 21
135.800000000
 31
0.000000000
  0
LINE
  5
ABE
330
A02
100
AcDbEntity
  8
Shape2DView002
100
AcDbLine
 10
201.730016667
 20
135.800000000
 30
0.000000000
 11
224.800000000
 21
135.800000000
 31
0.000000000
  0
ARC
  5
ABF
330
A02
100
AcDbEntity
  8
Shape2DView002
100
AcDbCircle
 10
201.543350000
 20
135.800000000
 30
0.000000000
 40
0.186666667
100
AcDbArc
 50
90.000000000
 51
180.000000000
  0
ARC
  5
AC0
330
A02
100
AcDbEntity
  8
Shape2DView002
100
AcDbCircle
 10
201.543350000
 20
135.800000000
 30
0.000000000
 40
0.186666667
100
AcDbArc
 50
180.000000000
 51
0.000000000
  0
LINE
  5
AC1
330
A02
100
AcDbEntity
  8
Shape2DView002
100
AcDbLine
 10
201.543350000
 20
135.986666667
 30
0.000000000
 11
201.543350000
 21
138.600000000
 31
0.000000000
  0
LINE
  5
AC2
330
A02
100
AcDbEntity
  8
Shape2DView002
100
AcDbLine
 10
201.543350000
 20
138.600000000
 30
0.000000000
 11
191.356650000
 21
138.600000000
 31
0.000000000
  0
ARC
  5
AC3
330
A02
100
AcDbEntity
  8
Shape2DView002
100
AcDbCircle
 10
191.356650000
 20
135.800000000
 30
0.000000000
 40
0.186666667
100
AcDbArc
 50
180.000000000
 51
0.000000000
  0
ARC
  5
AC4
330
A02
100
AcDbEntity
  8
Shape2DView002
100
AcDbCircle
 10
191.356650000
 20
135.800000000
 30
0.000000000
 40
0.186666667
100
AcDbArc
 50
0.000000000
 51
90.000000000
  0
LINE
  5
AC5
330
A02
100
AcDbEntity
  8
Shape2DView002
100
AcDbLine
 10
182.830016667
 20
135.800000000
 30
0.000000000
 11
191.169983333
 21
135.800000000
 31
0.000000000
  0
ARC
  5
AC6
330
A02
100
AcDbEntity
  8
Shape2DView002
100
AcDbCircle
 10
182.643350000
 20
135.800000000
 30
0.000000000
 40
0.186666667
100
AcDbArc
 50
90.000000000
 51
180.000000000
  0
ARC
  5
AC7
330
A02
100
AcDbEntity
  8
Shape2DView002
100
AcDbCircle
 10
182.643350000
 20
135.800000000
 30
0.000000000
 40
0.186666667
100
AcDbArc
 50
180.000000000
 51
0.000000000
  0
LINE
  5
AC8
330
A02
100
AcDbEntity
  8
Shape2DView002
100
AcDbLine
 10
191.356650000
 20
135.986666667
 30
0.000000000
 11
191.356650000
 21
138.600000000
 31
0.000000000
  0
LINE
  5
AC9
330
A02
100
AcDbEntity
  8
Shape2DView002
100
AcDbLine
 10
182.643350000
 20
135.986666667
 30
0.000000000
 11
182.643350000
 21
138.600000000
 31
0.000000000
  0
LINE
  5
ACA
330
A02
100
AcDbEntity
  8
Shape2DView002
100
AcDbLine
 10
182.643350000
 20
138.600000000
 30
0.000000000
 11
172.456650000
 21
138.600000000
 31
0.000000000
  0
LINE
  5
ACB
330
A02
100
AcDbEntity
  8
Shape2DView002
100
AcDbLine
 10
149.200000000
 20
93.000000000
 30
0.000000000
 11
151.200000000
 21
92.250000000
 31
0.000000000
  0
LINE
  5
ACC
330
A02
100
AcDbEntity
  8
Shape2DView002
100
AcDbLine
 10
149.200000000
 20
93.000000000
 30
0.000000000
 11
149.200000000
 21
95.800000000
 31
0.000000000
  0
LINE
  5
ACD
330
A02
100
AcDbEntity
  8
Shape2DView002
100
AcDbLine
 10
151.200000000
 20
92.250000000
 30
0.000000000
 11
151.200000000
 21
93.000000000
 31
0.000000000
  0
LINE
  5
ACE
330
A02
100
AcDbEntity
  8
Shape2DView002
100
AcDbLine
 10
149.200000000
 20
95.800000000
 30
0.000000000
 11
163.200000000
 21
95.800000000
 31
0.000000000
  0
LINE
  5
ACF
330
A02
100
AcDbEntity
  8
Shape2DView002
100
AcDbLine
 10
151.200000000
 20
93.000000000
 30
0.000000000
 11
154.000000000
 21
93.000000000
 31
0.000000000
  0
LINE
  5
AD0
330
A02
100
AcDbEntity
  8
Shape2DView002
100
AcDbLine
 10
154.000000000
 20
93.000000000
 30
0.000000000
 11
154.000000000
 21
91.000000000
 31
0.000000000
  0
LINE
  5
AD1
330
A02
100
AcDbEntity
  8
Shape2DView002
100
AcDbLine
 10
154.000000000
 20
91.000000000
 30
0.000000000
 11
161.464101615
 21
93.000000000
 31
0.000000000
  0
LINE
  5
AD2
330
A02
100
AcDbEntity
  8
Shape2DView002
100
AcDbLine
 10
161.464101615
 20
93.000000000
 30
0.000000000
 11
212.535898385
 21
93.000000000
 31
0.000000000
  0
LINE
  5
AD3
330
A02
100
AcDbEntity
  8
Shape2DView002
100
AcDbLine
 10
212.535898385
 20
93.000000000
 30
0.000000000
 11
220.000000000
 21
91.000000000
 31
0.000000000
  0
LINE
  5
AD4
330
A02
100
AcDbEntity
  8
Shape2DView002
100
AcDbLine
 10
220.000000000
 20
91.000000000
 30
0.000000000
 11
220.000000000
 21
93.000000000
 31
0.000000000
  0
LINE
  5
AD5
330
A02
100
AcDbEntity
  8
Shape2DView002
100
AcDbLine
 10
222.800000000
 20
93.000000000
 30
0.000000000
 11
220.000000000
 21
93.000000000
 31
0.000000000
  0
LINE
  5
AD6
330
A02
100
AcDbEntity
  8
Shape2DView002
100
AcDbLine
 10
222.800000000
 20
92.250000000
 30
0.000000000
 11
222.800000000
 21
93.000000000
 31
0.000000000
  0
LINE
  5
AD7
330
A02
100
AcDbEntity
  8
Shape2DView002
100
AcDbLine
 10
224.800000000
 20
93.000000000
 30
0.000000000
 11
222.800000000
 21
92.250000000
 31
0.000000000
  0
LINE
  5
AD8
330
A02
100
AcDbEntity
  8
Shape2DView002
100
AcDbLine
 10
224.800000000
 20
95.800000000
 30
0.000000000
 11
224.800000000
 21
93.000000000
 31
0.000000000
  0
LINE
  5
AD9
330
A02
100
AcDbEntity
  8
Shape2DView002
100
AcDbLine
 10
224.800000000
 20
95.800000000
 30
0.000000000
 11
210.800000000
 21
95.800000000
 31
0.000000000
  0
ARC
  5
ADA
330
A02
100
AcDbEntity
  8
Shape2DView002
100
AcDbCircle
 10
210.800000000
 20
96.200000000
 30
0.000000000
 40
0.400000000
100
AcDbArc
 50
90.000000000
 51
-90.000000000
  0
LINE
  5
ADB
330
A02
100
AcDbEntity
  8
Shape2DView002
100
AcDbLine
 10
210.800000000
 20
96.600000000
 30
0.000000000
 11
224.800000000
 21
96.600000000
 31
0.000000000
  0
LINE
  5
ADC
330
A02
100
AcDbEntity
  8
Shape2DView002
100
AcDbLine
 10
224.800000000
 20
96.600000000
 30
0.000000000
 11
224.800000000
 21
110.893350000
 31
0.000000000
  0
LINE
  5
ADD
330
A02
100
AcDbEntity
  8
Shape2DView002
100
AcDbLine
 10
224.800000000
 20
110.893350000
 30
0.000000000
 11
222.225339318
 21
110.893350000
 31
0.000000000
  0
ARC
  5
ADE
330
A02
100
AcDbEntity
  8
Shape2DView002
100
AcDbCircle
 10
163.200000000
 20
96.200000000
 30
0.000000000
 40
0.400000000
100
AcDbArc
 50
-90.000000000
 51
90.000000000
  0
ARC
  5
ADF
330
A02
100
AcDbEntity
  8
Shape2DView002
100
AcDbCircle
 10
172.456650000
 20
135.800000000
 30
0.000000000
 40
0.186666667
100
AcDbArc
 50
180.000000000
 51
0.000000000
  0
ARC
  5
AE0
330
A02
100
AcDbEntity
  8
Shape2DView002
100
AcDbCircle
 10
172.456650000
 20
135.800000000
 30
0.000000000
 40
0.186666667
100
AcDbArc
 50
0.000000000
 51
90.000000000
  0
LINE
  5
AE1
330
A02
100
AcDbEntity
  8
Shape2DView002
100
AcDbLine
 10
149.200000000
 20
135.800000000
 30
0.000000000
 11
172.269983333
 21
135.800000000
 31
0.000000000
  0
LINE
  5
AE2
330
A02
100
AcDbEntity
  8
Shape2DView002
100
AcDbLine
 10
149.200000000
 20
120.706650000
 30
0.000000000
 11
149.200000000
 21
135.800000000
 31
0.000000000
  0
LINE
  5
AE3
330
A02
100
AcDbEntity
  8
Shape2DView002
100
AcDbLine
 10
151.774660682
 20
120.706650000
 30
0.000000000
 11
149.200000000
 21
120.706650000
 31
0.000000000
  0
ARC
  5
AE4
330
A02
100
AcDbEntity
  8
Shape2DView002
100
AcDbCircle
 10
151.947095000
 20
120.607095000
 30
0.000000000
 40
0.199110000
100
AcDbArc
 50
-60.000000000
 51
150.000000000
  0
LINE
  5
AE5
330
A02
100
AcDbEntity
  8
Shape2DView002
100
AcDbLine
 10
152.046650000
 20
120.434660682
 30
0.000000000
 11
152.046650000
 21
111.165339318
 31
0.000000000
  0
ARC
  5
AE6
330
A02
100
AcDbEntity
  8
Shape2DView002
100
AcDbCircle
 10
151.947095000
 20
110.992905000
 30
0.000000000
 40
0.199110000
100
AcDbArc
 50
-150.000000000
 51
60.000000000
  0
LINE
  5
AE7
330
A02
100
AcDbEntity
  8
Shape2DView002
100
AcDbLine
 10
151.774660682
 20
110.893350000
 30
0.000000000
 11
149.200000000
 21
110.893350000
 31
0.000000000
  0
LINE
  5
AE8
330
A02
100
AcDbEntity
  8
Shape2DView002
100
AcDbLine
 10
149.200000000
 20
96.600000000
 30
0.000000000
 11
149.200000000
 21
110.893350000
 31
0.000000000
  0
LINE
  5
AE9
330
A02
100
AcDbEntity
  8
Shape2DView002
100
AcDbLine
 10
163.200000000
 20
96.600000000
 30
0.000000000
 11
149.200000000
 21
96.600000000
 31
0.000000000
  0
LINE
  5
AEA
330
A02
100
AcDbEntity
  8
Shape2DView002
100
AcDbLine
 10
172.456650000
 20
135.986666667
 30
0.000000000
 11
172.456650000
 21
138.600000000
 31
0.000000000
  0
ARC
  5
AEB
330
A02
100
AcDbEntity
  8
Shape2DView002
100
AcDbCircle
 10
222.052905000
 20
110.992905000
 30
0.000000000
 40
0.199110000
100
AcDbArc
 50
180.000000000
 51
-30.000000000
  0
ARC
  5
AEC
330
A02
100
AcDbEntity
  8
Shape2DView002
100
AcDbCircle
 10
222.052905000
 20
110.992905000
 30
0.000000000
 40
0.199110000
100
AcDbArc
 50
120.000000000
 51
180.000000000
  0
LINE
  5
AED
330
A02
100
AcDbEntity
  8
Shape2DView002
100
AcDbLine
 10
221.953350000
 20
120.434660682
 30
0.000000000
 11
221.953350000
 21
111.165339318
 31
0.000000000
  0
ARC
  5
AEE
330
A02
100
AcDbEntity
  8
Shape2DView002
100
AcDbCircle
 10
222.052905000
 20
120.607095000
 30
0.000000000
 40
0.199110000
100
AcDbArc
 50
180.000000000
 51
-120.000000000
  0
ARC
  5
AEF
330
A02
100
AcDbEntity
  8
Shape2DView002
100
AcDbCircle
 10
222.052905000
 20
120.607095000
 30
0.000000000
 40
0.199110000
100
AcDbArc
 50
30.000000000
 51
180.000000000
  0
LINE
  5
AF0
330
A02
100
AcDbEntity
  8
Shape2DView003
100
AcDbLine
 10
72.200000000
 20
169.400000000
 30
0.000000000
 11
147.800000000
 21
169.400000000
 31
0.000000000
  0
LINE
  5
AF1
330
A02
100
AcDbEntity
  8
Shape2DView003
100
AcDbLine
 10
72.200000000
 20
155.556650000
 30
0.000000000
 11
72.200000000
 21
169.400000000
 31
0.000000000
  0
LINE
  5
AF2
330
A02
100
AcDbEntity
  8
Shape2DView003
100
AcDbLine
 10
147.800000000
 20
169.400000000
 30
0.000000000
 11
147.800000000
 21
155.556650000
 31
0.000000000
  0
LINE
  5
AF3
330
A02
100
AcDbEntity
  8
Shape2DView003
100
AcDbLine
 10
72.200000000
 20
155.556650000
 30
0.000000000
 11
74.774660682
 21
155.556650000
 31
0.000000000
  0
LINE
  5
AF4
330
A02
100
AcDbEntity
  8
Shape2DView003
100
AcDbLine
 10
145.225339318
 20
155.556650000
 30
0.000000000
 11
147.800000000
 21
155.556650000
 31
0.000000000
  0
ARC
  5
AF5
330
A02
100
AcDbEntity
  8
Shape2DView003
100
AcDbCircle
 10
145.052905000
 20
155.457095000
 30
0.000000000
 40
0.199110000
100
AcDbArc
 50
30.000000000
 51
-120.000000000
  0
LINE
  5
AF6
330
A02
100
AcDbEntity
  8
Shape2DView003
100
AcDbLine
 10
144.953350000
 20
146.015339318
 30
0.000000000
 11
144.953350000
 21
155.284660682
 31
0.000000000
  0
ARC
  5
AF7
330
A02
100
AcDbEntity
  8
Shape2DView003
100
AcDbCircle
 10
145.052905000
 20
145.842905000
 30
0.000000000
 40
0.199110000
100
AcDbArc
 50
120.000000000
 51
-30.000000000
  0
LINE
  5
AF8
330
A02
100
AcDbEntity
  8
Shape2DView003
100
AcDbLine
 10
145.225339318
 20
145.743350000
 30
0.000000000
 11
147.800000000
 21
145.743350000
 31
0.000000000
  0
LINE
  5
AF9
330
A02
100
AcDbEntity
  8
Shape2DView003
100
AcDbLine
 10
147.800000000
 20
145.743350000
 30
0.000000000
 11
147.800000000
 21
118.056650000
 31
0.000000000
  0
LINE
  5
AFA
330
A02
100
AcDbEntity
  8
Shape2DView003
100
AcDbLine
 10
145.225339318
 20
118.056650000
 30
0.000000000
 11
147.800000000
 21
118.056650000
 31
0.000000000
  0
ARC
  5
AFB
330
A02
100
AcDbEntity
  8
Shape2DView003
100
AcDbCircle
 10
145.052905000
 20
117.957095000
 30
0.000000000
 40
0.199110000
100
AcDbArc
 50
30.000000000
 51
-120.000000000
  0
LINE
  5
AFC
330
A02
100
AcDbEntity
  8
Shape2DView003
100
AcDbLine
 10
144.953350000
 20
108.515339318
 30
0.000000000
 11
144.953350000
 21
117.784660682
 31
0.000000000
  0
ARC
  5
AFD
330
A02
100
AcDbEntity
  8
Shape2DView003
100
AcDbCircle
 10
145.052905000
 20
108.342905000
 30
0.000000000
 40
0.199110000
100
AcDbArc
 50
120.000000000
 51
-30.000000000
  0
LINE
  5
AFE
330
A02
100
AcDbEntity
  8
Shape2DView003
100
AcDbLine
 10
145.225339318
 20
108.243350000
 30
0.000000000
 11
147.800000000
 21
108.243350000
 31
0.000000000
  0
LINE
  5
AFF
330
A02
100
AcDbEntity
  8
Shape2DView003
100
AcDbLine
 10
147.800000000
 20
108.243350000
 30
0.000000000
 11
147.800000000
 21
94.400000000
 31
0.000000000
  0
LINE
  5
B00
330
A02
100
AcDbEntity
  8
Shape2DView003
100
AcDbLine
 10
147.800000000
 20
94.400000000
 30
0.000000000
 11
126.620016667
 21
94.400000000
 31
0.000000000
  0
ARC
  5
B01
330
A02
100
AcDbEntity
  8
Shape2DView003
100
AcDbCircle
 10
126.433350000
 20
94.400000000
 30
0.000000000
 40
0.186666667
100
AcDbArc
 50
-0.000000000
 51
-180.000000000
  0
ARC
  5
B02
330
A02
100
AcDbEntity
  8
Shape2DView003
100
AcDbCircle
 10
126.433350000
 20
94.400000000
 30
0.000000000
 40
0.186666667
100
AcDbArc
 50
-180.000000000
 51
-90.000000000
  0
LINE
  5
B03
330
A02
100
AcDbEntity
  8
Shape2DView003
100
AcDbLine
 10
126.433350000
 20
94.213333333
 30
0.000000000
 11
126.433350000
 21
91.600000000
 31
0.000000000
  0
LINE
  5
B04
330
A02
100
AcDbEntity
  8
Shape2DView003
100
AcDbLine
 10
116.246650000
 20
91.600000000
 30
0.000000000
 11
126.433350000
 21
91.600000000
 31
0.000000000
  0
LINE
  5
B05
330
A02
100
AcDbEntity
  8
Shape2DView003
100
AcDbLine
 10
116.246650000
 20
94.213333333
 30
0.000000000
 11
116.246650000
 21
91.600000000
 31
0.000000000
  0
ARC
  5
B06
330
A02
100
AcDbEntity
  8
Shape2DView003
100
AcDbCircle
 10
116.246650000
 20
94.400000000
 30
0.000000000
 40
0.186666667
100
AcDbArc
 50
-90.000000000
 51
-0.000000000
  0
ARC
  5
B07
330
A02
100
AcDbEntity
  8
Shape2DView003
100
AcDbCircle
 10
116.246650000
 20
94.400000000
 30
0.000000000
 40
0.186666667
100
AcDbArc
 50
-0.000000000
 51
-180.000000000
  0
LINE
  5
B08
330
A02
100
AcDbEntity
  8
Shape2DView003
100
AcDbLine
 10
116.059983333
 20
94.400000000
 30
0.000000000
 11
103.940016667
 21
94.400000000
 31
0.000000000
  0
ARC
  5
B09
330
A02
100
AcDbEntity
  8
Shape2DView003
100
AcDbCircle
 10
103.753350000
 20
94.400000000
 30
0.000000000
 40
0.186666667
100
AcDbArc
 50
-0.000000000
 51
180.000000000
  0
ARC
  5
B0A
330
A02
100
AcDbEntity
  8
Shape2DView003
100
AcDbCircle
 10
103.753350000
 20
94.400000000
 30
0.000000000
 40
0.186666667
100
AcDbArc
 50
180.000000000
 51
-90.000000000
  0
LINE
  5
B0B
330
A02
100
AcDbEntity
  8
Shape2DView003
100
AcDbLine
 10
103.753350000
 20
94.213333333
 30
0.000000000
 11
103.753350000
 21
91.600000000
 31
0.000000000
  0
LINE
  5
B0C
330
A02
100
AcDbEntity
  8
Shape2DView003
100
AcDbLine
 10
93.566650000
 20
91.600000000
 30
0.000000000
 11
103.753350000
 21
91.600000000
 31
0.000000000
  0
LINE
  5
B0D
330
A02
100
AcDbEntity
  8
Shape2DView003
100
AcDbLine
 10
93.566650000
 20
94.213333333
 30
0.000000000
 11
93.566650000
 21
91.600000000
 31
0.000000000
  0
ARC
  5
B0E
330
A02
100
AcDbEntity
  8
Shape2DView003
100
AcDbCircle
 10
93.566650000
 20
94.400000000
 30
0.000000000
 40
0.186666667
100
AcDbArc
 50
-90.000000000
 51
-0.000000000
  0
ARC
  5
B0F
330
A02
100
AcDbEntity
  8
Shape2DView003
100
AcDbCircle
 10
93.566650000
 20
94.400000000
 30
0.000000000
 40
0.186666667
100
AcDbArc
 50
-0.000000000
 51
180.000000000
  0
LINE
  5
B10
330
A02
100
AcDbEntity
  8
Shape2DView003
100
AcDbLine
 10
93.379983333
 20
94.400000000
 30
0.000000000
 11
72.200000000
 21
94.400000000
 31
0.000000000
  0
LINE
  5
B11
330
A02
100
AcDbEntity
  8
Shape2DView003
100
AcDbLine
 10
72.200000000
 20
94.400000000
 30
0.000000000
 11
72.200000000
 21
108.243350000
 31
0.000000000
  0
LINE
  5
B12
330
A02
100
AcDbEntity
  8
Shape2DView003
100
AcDbLine
 10
72.200000000
 20
108.243350000
 30
0.000000000
 11
74.774660682
 21
108.243350000
 31
0.000000000
  0
ARC
  5
B13
330
A02
100
AcDbEntity
  8
Shape2DView003
100
AcDbCircle
 10
74.947095000
 20
155.457095000
 30
0.000000000
 40
0.199110000
100
AcDbArc
 50
0.000000000
 51
150.000000000
  0
ARC
  5
B14
330
A02
100
AcDbEntity
  8
Shape2DView003
100
AcDbCircle
 10
74.947095000
 20
155.457095000
 30
0.000000000
 40
0.199110000
100
AcDbArc
 50
-60.000000000
 51
0.000000000
  0
LINE
  5
B15
330
A02
100
AcDbEntity
  8
Shape2DView003
100
AcDbLine
 10
75.046650000
 20
146.015339318
 30
0.000000000
 11
75.046650000
 21
155.284660682
 31
0.000000000
  0
ARC
  5
B16
330
A02
100
AcDbEntity
  8
Shape2DView003
100
AcDbCircle
 10
74.947095000
 20
145.842905000
 30
0.000000000
 40
0.199110000
100
AcDbArc
 50
0.000000000
 51
60.000000000
  0
ARC
  5
B17
330
A02
100
AcDbEntity
  8
Shape2DView003
100
AcDbCircle
 10
74.947095000
 20
145.842905000
 30
0.000000000
 40
0.199110000
100
AcDbArc
 50
-150.000000000
 51
0.000000000
  0
LINE
  5
B18
330
A02
100
AcDbEntity
  8
Shape2DView003
100
AcDbLine
 10
72.200000000
 20
145.743350000
 30
0.000000000
 11
74.774660682
 21
145.743350000
 31
0.000000000
  0
LINE
  5
B19
330
A02
100
AcDbEntity
  8
Shape2DView003
100
AcDbLine
 10
72.200000000
 20
118.056650000
 30
0.000000000
 11
72.200000000
 21
145.743350000
 31
0.000000000
  0
LINE
  5
B1A
330
A02
100
AcDbEntity
  8
Shape2DView003
100
AcDbLine
 10
72.200000000
 20
118.056650000
 30
0.000000000
 11
74.774660682
 21
118.056650000
 31
0.000000000
  0
ARC
  5
B1B
330
A02
100
AcDbEntity
  8
Shape2DView003
100
AcDbCircle
 10
74.947095000
 20
117.957095000
 30
0.000000000
 40
0.199110000
100
AcDbArc
 50
0.000000000
 51
150.000000000
  0
ARC
  5
B1C
330
A02
100
AcDbEntity
  8
Shape2DView003
100
AcDbCircle
 10
74.947095000
 20
117.957095000
 30
0.000000000
 40
0.199110000
100
AcDbArc
 50
-60.000000000
 51
0.000000000
  0
LINE
  5
B1D
330
A02
100
AcDbEntity
  8
Shape2DView003
100
AcDbLine
 10
75.046650000
 20
108.515339318
 30
0.000000000
 11
75.046650000
 21
117.784660682
 31
0.000000000
  0
ARC
  5
B1E
330
A02
100
AcDbEntity
  8
Shape2DView003
100
AcDbCircle
 10
74.947095000
 20
108.342905000
 30
0.000000000
 40
0.199110000
100
AcDbArc
 50
0.000000000
 51
60.000000000
  0
ARC
  5
B1F
330
A02
100
AcDbEntity
  8
Shape2DView003
100
AcDbCircle
 10
74.947095000
 20
108.342905000
 30
0.000000000
 40
0.199110000
100
AcDbArc
 50
-150.000000000
 51
0.000000000
  0
LINE
  5
B20
330
A02
100
AcDbEntity
  8
Shape2DView004
100
AcDbLine
 10
147.200000000
 20
24.566564522
 30
0.000000000
 11
144.625339318
 21
24.566564522
 31
0.000000000
  0
LINE
  5
B21
330
A02
100
AcDbEntity
  8
Shape2DView004
100
AcDbLine
 10
147.200000000
 20
31.940131281
 30
0.000000000
 11
147.200000000
 21
24.566564522
 31
0.000000000
  0
LINE
  5
B22
330
A02
100
AcDbEntity
  8
Shape2DView004
100
AcDbLine
 10
133.580016667
 20
31.940131281
 30
0.000000000
 11
147.200000000
 21
31.940131281
 31
0.000000000
  0
ARC
  5
B23
330
A02
100
AcDbEntity
  8
Shape2DView004
100
AcDbCircle
 10
133.393350000
 20
31.940131281
 30
0.000000000
 40
0.186666667
100
AcDbArc
 50
90.000000000
 51
180.000000000
  0
ARC
  5
B24
330
A02
100
AcDbEntity
  8
Shape2DView004
100
AcDbCircle
 10
133.393350000
 20
31.940131281
 30
0.000000000
 40
0.186666667
100
AcDbArc
 50
180.000000000
 51
0.000000000
  0
LINE
  5
B25
330
A02
100
AcDbEntity
  8
Shape2DView004
100
AcDbLine
 10
133.393350000
 20
32.126797947
 30
0.000000000
 11
133.393350000
 21
34.740131281
 31
0.000000000
  0
LINE
  5
B26
330
A02
100
AcDbEntity
  8
Shape2DView004
100
AcDbLine
 10
133.393350000
 20
34.740131281
 30
0.000000000
 11
123.206650000
 21
34.740131281
 31
0.000000000
  0
ARC
  5
B27
330
A02
100
AcDbEntity
  8
Shape2DView004
100
AcDbCircle
 10
123.206650000
 20
31.940131281
 30
0.000000000
 40
0.186666667
100
AcDbArc
 50
180.000000000
 51
0.000000000
  0
ARC
  5
B28
330
A02
100
AcDbEntity
  8
Shape2DView004
100
AcDbCircle
 10
123.206650000
 20
31.940131281
 30
0.000000000
 40
0.186666667
100
AcDbArc
 50
0.000000000
 51
90.000000000
  0
LINE
  5
B29
330
A02
100
AcDbEntity
  8
Shape2DView004
100
AcDbLine
 10
95.780016667
 20
31.940131281
 30
0.000000000
 11
123.019983333
 21
31.940131281
 31
0.000000000
  0
ARC
  5
B2A
330
A02
100
AcDbEntity
  8
Shape2DView004
100
AcDbCircle
 10
95.593350000
 20
31.940131281
 30
0.000000000
 40
0.186666667
100
AcDbArc
 50
90.000000000
 51
180.000000000
  0
ARC
  5
B2B
330
A02
100
AcDbEntity
  8
Shape2DView004
100
AcDbCircle
 10
95.593350000
 20
31.940131281
 30
0.000000000
 40
0.186666667
100
AcDbArc
 50
180.000000000
 51
0.000000000
  0
LINE
  5
B2C
330
A02
100
AcDbEntity
  8
Shape2DView004
100
AcDbLine
 10
123.206650000
 20
32.126797947
 30
0.000000000
 11
123.206650000
 21
34.740131281
 31
0.000000000
  0
LINE
  5
B2D
330
A02
100
AcDbEntity
  8
Shape2DView004
100
AcDbLine
 10
95.593350000
 20
32.126797947
 30
0.000000000
 11
95.593350000
 21
34.740131281
 31
0.000000000
  0
LINE
  5
B2E
330
A02
100
AcDbEntity
  8
Shape2DView004
100
AcDbLine
 10
95.593350000
 20
34.740131281
 30
0.000000000
 11
85.406650000
 21
34.740131281
 31
0.000000000
  0
ARC
  5
B2F
330
A02
100
AcDbEntity
  8
Shape2DView004
100
AcDbCircle
 10
85.406650000
 20
31.940131281
 30
0.000000000
 40
0.186666667
100
AcDbArc
 50
180.000000000
 51
0.000000000
  0
ARC
  5
B30
330
A02
100
AcDbEntity
  8
Shape2DView004
100
AcDbCircle
 10
85.406650000
 20
31.940131281
 30
0.000000000
 40
0.186666667
100
AcDbArc
 50
0.000000000
 51
90.000000000
  0
LINE
  5
B31
330
A02
100
AcDbEntity
  8
Shape2DView004
100
AcDbLine
 10
71.600000000
 20
31.940131281
 30
0.000000000
 11
85.219983333
 21
31.940131281
 31
0.000000000
  0
LINE
  5
B32
330
A02
100
AcDbEntity
  8
Shape2DView004
100
AcDbLine
 10
71.600000000
 20
24.566564522
 30
0.000000000
 11
71.600000000
 21
31.940131281
 31
0.000000000
  0
LINE
  5
B33
330
A02
100
AcDbEntity
  8
Shape2DView004
100
AcDbLine
 10
74.174660682
 20
24.566564522
 30
0.000000000
 11
71.600000000
 21
24.566564522
 31
0.000000000
  0
ARC
  5
B34
330
A02
100
AcDbEntity
  8
Shape2DView004
100
AcDbCircle
 10
74.347095000
 20
24.467009522
 30
0.000000000
 40
0.199110000
100
AcDbArc
 50
-60.000000000
 51
150.000000000
  0
LINE
  5
B35
330
A02
100
AcDbEntity
  8
Shape2DView004
100
AcDbLine
 10
74.446650000
 20
24.294575204
 30
0.000000000
 11
74.446650000
 21
15.025253840
 31
0.000000000
  0
ARC
  5
B36
330
A02
100
AcDbEntity
  8
Shape2DView004
100
AcDbCircle
 10
74.347095000
 20
14.852819522
 30
0.000000000
 40
0.199110000
100
AcDbArc
 50
-150.000000000
 51
60.000000000
  0
LINE
  5
B37
330
A02
100
AcDbEntity
  8
Shape2DView004
100
AcDbLine
 10
74.174660682
 20
14.753264522
 30
0.000000000
 11
71.600000000
 21
14.753264522
 31
0.000000000
  0
LINE
  5
B38
330
A02
100
AcDbEntity
  8
Shape2DView004
100
AcDbLine
 10
71.600000000
 20
4.400000000
 30
0.000000000
 11
71.600000000
 21
14.753264522
 31
0.000000000
  0
LINE
  5
B39
330
A02
100
AcDbEntity
  8
Shape2DView004
100
AcDbLine
 10
94.669983333
 20
4.400000000
 30
0.000000000
 11
71.600000000
 21
4.400000000
 31
0.000000000
  0
ARC
  5
B3A
330
A02
100
AcDbEntity
  8
Shape2DView004
100
AcDbCircle
 10
94.856650000
 20
4.400000000
 30
0.000000000
 40
0.186666667
100
AcDbArc
 50
-90.000000000
 51
-0.000000000
  0
ARC
  5
B3B
330
A02
100
AcDbEntity
  8
Shape2DView004
100
AcDbCircle
 10
94.856650000
 20
4.400000000
 30
0.000000000
 40
0.186666667
100
AcDbArc
 50
-0.000000000
 51
-180.000000000
  0
LINE
  5
B3C
330
A02
100
AcDbEntity
  8
Shape2DView004
100
AcDbLine
 10
85.406650000
 20
32.126797947
 30
0.000000000
 11
85.406650000
 21
34.740131281
 31
0.000000000
  0
LINE
  5
B3D
330
A02
100
AcDbEntity
  8
Shape2DView004
100
AcDbLine
 10
94.856650000
 20
4.213333333
 30
0.000000000
 11
94.856650000
 21
1.600000000
 31
0.000000000
  0
LINE
  5
B3E
330
A02
100
AcDbEntity
  8
Shape2DView004
100
AcDbLine
 10
94.856650000
 20
1.600000000
 30
0.000000000
 11
105.043350000
 21
1.600000000
 31
0.000000000
  0
ARC
  5
B3F
330
A02
100
AcDbEntity
  8
Shape2DView004
100
AcDbCircle
 10
105.043350000
 20
4.400000000
 30
0.000000000
 40
0.186666667
100
AcDbArc
 50
-0.000000000
 51
-180.000000000
  0
ARC
  5
B40
330
A02
100
AcDbEntity
  8
Shape2DView004
100
AcDbCircle
 10
105.043350000
 20
4.400000000
 30
0.000000000
 40
0.186666667
100
AcDbArc
 50
-180.000000000
 51
-90.000000000
  0
LINE
  5
B41
330
A02
100
AcDbEntity
  8
Shape2DView004
100
AcDbLine
 10
113.569983333
 20
4.400000000
 30
0.000000000
 11
105.230016667
 21
4.400000000
 31
0.000000000
  0
ARC
  5
B42
330
A02
100
AcDbEntity
  8
Shape2DView004
100
AcDbCircle
 10
113.756650000
 20
4.400000000
 30
0.000000000
 40
0.186666667
100
AcDbArc
 50
-90.000000000
 51
-0.000000000
  0
ARC
  5
B43
330
A02
100
AcDbEntity
  8
Shape2DView004
100
AcDbCircle
 10
113.756650000
 20
4.400000000
 30
0.000000000
 40
0.186666667
100
AcDbArc
 50
-0.000000000
 51
-180.000000000
  0
LINE
  5
B44
330
A02
100
AcDbEntity
  8
Shape2DView004
100
AcDbLine
 10
105.043350000
 20
4.213333333
 30
0.000000000
 11
105.043350000
 21
1.600000000
 31
0.000000000
  0
LINE
  5
B45
330
A02
100
AcDbEntity
  8
Shape2DView004
100
AcDbLine
 10
113.756650000
 20
4.213333333
 30
0.000000000
 11
113.756650000
 21
1.600000000
 31
0.000000000
  0
LINE
  5
B46
330
A02
100
AcDbEntity
  8
Shape2DView004
100
AcDbLine
 10
113.756650000
 20
1.600000000
 30
0.000000000
 11
123.943350000
 21
1.600000000
 31
0.000000000
  0
LINE
  5
B47
330
A02
100
AcDbEntity
  8
Shape2DView004
100
AcDbLine
 10
147.200000000
 20
4.400000000
 30
0.000000000
 11
124.130016667
 21
4.400000000
 31
0.000000000
  0
ARC
  5
B48
330
A02
100
AcDbEntity
  8
Shape2DView004
100
AcDbCircle
 10
123.943350000
 20
4.400000000
 30
0.000000000
 40
0.186666667
100
AcDbArc
 50
-0.000000000
 51
-180.000000000
  0
ARC
  5
B49
330
A02
100
AcDbEntity
  8
Shape2DView004
100
AcDbCircle
 10
123.943350000
 20
4.400000000
 30
0.000000000
 40
0.186666667
100
AcDbArc
 50
-180.000000000
 51
-90.000000000
  0
LINE
  5
B4A
330
A02
100
AcDbEntity
  8
Shape2DView004
100
AcDbLine
 10
147.200000000
 20
14.753264522
 30
0.000000000
 11
147.200000000
 21
4.400000000
 31
0.000000000
  0
LINE
  5
B4B
330
A02
100
AcDbEntity
  8
Shape2DView004
100
AcDbLine
 10
147.200000000
 20
14.753264522
 30
0.000000000
 11
144.625339318
 21
14.753264522
 31
0.000000000
  0
LINE
  5
B4C
330
A02
100
AcDbEntity
  8
Shape2DView004
100
AcDbLine
 10
123.943350000
 20
4.213333333
 30
0.000000000
 11
123.943350000
 21
1.600000000
 31
0.000000000
  0
ARC
  5
B4D
330
A02
100
AcDbEntity
  8
Shape2DView004
100
AcDbCircle
 10
144.452905000
 20
14.852819522
 30
0.000000000
 40
0.199110000
100
AcDbArc
 50
180.000000000
 51
-30.000000000
  0
ARC
  5
B4E
330
A02
100
AcDbEntity
  8
Shape2DView004
100
AcDbCircle
 10
144.452905000
 20
14.852819522
 30
0.000000000
 40
0.199110000
100
AcDbArc
 50
120.000000000
 51
180.000000000
  0
LINE
  5
B4F
330
A02
100
AcDbEntity
  8
Shape2DView004
100
AcDbLine
 10
144.353350000
 20
24.294575204
 30
0.000000000
 11
144.353350000
 21
15.025253840
 31
0.000000000
  0
ARC
  5
B50
330
A02
100
AcDbEntity
  8
Shape2DView004
100
AcDbCircle
 10
144.452905000
 20
24.467009522
 30
0.000000000
 40
0.199110000
100
AcDbArc
 50
180.000000000
 51
-120.000000000
  0
ARC
  5
B51
330
A02
100
AcDbEntity
  8
Shape2DView004
100
AcDbCircle
 10
144.452905000
 20
24.467009522
 30
0.000000000
 40
0.199110000
100
AcDbArc
 50
30.000000000
 51
180.000000000
  0
CIRCLE
  5
B52
330
A02
100
AcDbEntity
  8
Shape2DView004
100
AcDbCircle
 10
109.410000000
 20
21.134000000
 30
0.000000000
 40
7.500000000
  0
LINE
  5
B53
330
A02
100
AcDbEntity
  8
Shape2DView004
100
AcDbLine
 10
90.509186710
 20
12.288563791
 30
0.000000000
 11
91.985430697
 21
20.484437197
 31
0.000000000
  0
ARC
  5
B54
330
A02
100
AcDbEntity
  8
Shape2DView004
100
AcDbCircle
 10
95.430000000
 20
19.864000000
 30
0.000000000
 40
3.500000000
100
AcDbArc
 50
10.210655437
 51
169.789344563
  0
LINE
  5
B55
330
A02
100
AcDbEntity
  8
Shape2DView004
100
AcDbLine
 10
98.874569303
 20
20.484437197
 30
0.000000000
 11
100.350813290
 21
12.288563791
 31
0.000000000
  0
ARC
  5
B56
330
A02
100
AcDbEntity
  8
Shape2DView004
100
AcDbCircle
 10
95.430000000
 20
11.402224938
 30
0.000000000
 40
5.000000000
100
AcDbArc
 50
169.789344563
 51
10.210655437
  0
CIRCLE
  5
B57
330
A02
100
AcDbEntity
  8
Shape2DView004
100
AcDbCircle
 10
136.400000000
 20
14.600000000
 30
0.000000000
 40
5.000000000
  0
CIRCLE
  5
B58
330
A02
100
AcDbEntity
  8
Shape2DView004
100
AcDbCircle
 10
82.400000000
 20
14.600000000
 30
0.000000000
 40
5.000000000
  0
CIRCLE
  5
B59
330
A02
100
AcDbEntity
  8
Shape2DView004
100
AcDbCircle
 10
126.418000000
 20
16.562000000
 30
0.000000000
 40
3.000000000
  0
ARC
  5
B5A
330
A02
100
AcDbEntity
  8
Shape2DView004
100
AcDbCircle
 10
120.830000000
 20
14.550000000
 30
0.000000000
 40
1.500000000
100
AcDbArc
 50
180.000000000
 51
0.000000000
  0
LINE
  5
B5B
330
A02
100
AcDbEntity
  8
Shape2DView004
100
AcDbLine
 10
119.330000000
 20
14.550000000
 30
0.000000000
 11
119.330000000
 21
17.050000000
 31
0.000000000
  0
ARC
  5
B5C
330
A02
100
AcDbEntity
  8
Shape2DView004
100
AcDbCircle
 10
120.830000000
 20
17.050000000
 30
0.000000000
 40
1.500000000
100
AcDbArc
 50
0.000000000
 51
180.000000000
  0
LINE
  5
B5D
330
A02
100
AcDbEntity
  8
Shape2DView004
100
AcDbLine
 10
122.330000000
 20
14.550000000
 30
0.000000000
 11
122.330000000
 21
17.050000000
 31
0.000000000
  0
LINE
  5
B5E
330
A02
100
AcDbEntity
  8
Shape2DView005
100
AcDbLine
 10
-4.800000000
 20
212.521061831
 30
0.000000000
 11
70.800000000
 21
212.521061831
 31
0.000000000
  0
LINE
  5
B5F
330
A02
100
AcDbEntity
  8
Shape2DView005
100
AcDbLine
 10
-4.800000000
 20
197.397814137
 30
0.000000000
 11
-4.800000000
 21
212.521061831
 31
0.000000000
  0
LINE
  5
B60
330
A02
100
AcDbEntity
  8
Shape2DView005
100
AcDbLine
 10
70.800000000
 20
212.521061831
 30
0.000000000
 11
70.800000000
 21
197.397814137
 31
0.000000000
  0
LINE
  5
B61
330
A02
100
AcDbEntity
  8
Shape2DView005
100
AcDbLine
 10
8.819983333
 20
197.397814137
 30
0.000000000
 11
-4.800000000
 21
197.397814137
 31
0.000000000
  0
LINE
  5
B62
330
A02
100
AcDbEntity
  8
Shape2DView005
100
AcDbLine
 10
70.800000000
 20
197.397814137
 30
0.000000000
 11
57.180016667
 21
197.397814137
 31
0.000000000
  0
ARC
  5
B63
330
A02
100
AcDbEntity
  8
Shape2DView005
100
AcDbCircle
 10
9.006650000
 20
197.397814137
 30
0.000000000
 40
0.186666667
100
AcDbArc
 50
-90.000000000
 51
0.000000000
  0
ARC
  5
B64
330
A02
100
AcDbEntity
  8
Shape2DView005
100
AcDbCircle
 10
9.006650000
 20
197.397814137
 30
0.000000000
 40
0.186666667
100
AcDbArc
 50
0.000000000
 51
180.000000000
  0
ARC
  5
B65
330
A02
100
AcDbEntity
  8
Shape2DView005
100
AcDbCircle
 10
56.993350000
 20
197.397814137
 30
0.000000000
 40
0.186666667
100
AcDbArc
 50
0.000000000
 51
180.000000000
  0
ARC
  5
B66
330
A02
100
AcDbEntity
  8
Shape2DView005
100
AcDbCircle
 10
56.993350000
 20
197.397814137
 30
0.000000000
 40
0.186666667
100
AcDbArc
 50
180.000000000
 51
-90.000000000
  0
LINE
  5
B67
330
A02
100
AcDbEntity
  8
Shape2DView005
100
AcDbLine
 10
9.006650000
 20
197.211147470
 30
0.000000000
 11
9.006650000
 21
194.597814137
 31
0.000000000
  0
LINE
  5
B68
330
A02
100
AcDbEntity
  8
Shape2DView005
100
AcDbLine
 10
9.006650000
 20
194.597814137
 30
0.000000000
 11
19.193350000
 21
194.597814137
 31
0.000000000
  0
ARC
  5
B69
330
A02
100
AcDbEntity
  8
Shape2DView005
100
AcDbCircle
 10
19.193350000
 20
197.397814137
 30
0.000000000
 40
0.186666667
100
AcDbArc
 50
0.000000000
 51
180.000000000
  0
ARC
  5
B6A
330
A02
100
AcDbEntity
  8
Shape2DView005
100
AcDbCircle
 10
19.193350000
 20
197.397814137
 30
0.000000000
 40
0.186666667
100
AcDbArc
 50
180.000000000
 51
-90.000000000
  0
LINE
  5
B6B
330
A02
100
AcDbEntity
  8
Shape2DView005
100
AcDbLine
 10
46.619983333
 20
197.397814137
 30
0.000000000
 11
19.380016667
 21
197.397814137
 31
0.000000000
  0
ARC
  5
B6C
330
A02
100
AcDbEntity
  8
Shape2DView005
100
AcDbCircle
 10
46.806650000
 20
197.397814137
 30
0.000000000
 40
0.186666667
100
AcDbArc
 50
-90.000000000
 51
0.000000000
  0
ARC
  5
B6D
330
A02
100
AcDbEntity
  8
Shape2DView005
100
AcDbCircle
 10
46.806650000
 20
197.397814137
 30
0.000000000
 40
0.186666667
100
AcDbArc
 50
0.000000000
 51
180.000000000
  0
LINE
  5
B6E
330
A02
100
AcDbEntity
  8
Shape2DView005
100
AcDbLine
 10
19.193350000
 20
197.211147470
 30
0.000000000
 11
19.193350000
 21
194.597814137
 31
0.000000000
  0
LINE
  5
B6F
330
A02
100
AcDbEntity
  8
Shape2DView005
100
AcDbLine
 10
46.806650000
 20
197.211147470
 30
0.000000000
 11
46.806650000
 21
194.597814137
 31
0.000000000
  0
LINE
  5
B70
330
A02
100
AcDbEntity
  8
Shape2DView005
100
AcDbLine
 10
56.993350000
 20
197.211147470
 30
0.000000000
 11
56.993350000
 21
194.597814137
 31
0.000000000
  0
LINE
  5
B71
330
A02
100
AcDbEntity
  8
Shape2DView005
100
AcDbLine
 10
46.806650000
 20
194.597814137
 30
0.000000000
 11
56.993350000
 21
194.597814137
 31
0.000000000
  0
LINE
  5
B72
330
A02
100
AcDbEntity
  8
Shape2DView006
100
AcDbLine
 10
-4.540449377
 20
92.702668516
 30
0.000000000
 11
-2.800000000
 21
92.050000000
 31
0.000000000
  0
ARC
  5
B73
330
A02
100
AcDbEntity
  8
Shape2DView006
100
AcDbCircle
 10
-4.400000000
 20
93.077200187
 30
0.000000000
 40
0.400000000
100
AcDbArc
 50
180.000000000
 51
-110.556045220
  0
LINE
  5
B74
330
A02
100
AcDbEntity
  8
Shape2DView006
100
AcDbLine
 10
-4.800000000
 20
93.077200187
 30
0.000000000
 11
-4.800000000
 21
95.200000000
 31
0.000000000
  0
ARC
  5
B75
330
A02
100
AcDbEntity
  8
Shape2DView006
100
AcDbCircle
 10
-4.400000000
 20
95.200000000
 30
0.000000000
 40
0.400000000
100
AcDbArc
 50
90.000000000
 51
180.000000000
  0
LINE
  5
B76
330
A02
100
AcDbEntity
  8
Shape2DView006
100
AcDbLine
 10
-4.400000000
 20
95.600000000
 30
0.000000000
 11
9.200000000
 21
95.600000000
 31
0.000000000
  0
ARC
  5
B77
330
A02
100
AcDbEntity
  8
Shape2DView006
100
AcDbCircle
 10
9.200000000
 20
96.000000000
 30
0.000000000
 40
0.400000000
100
AcDbArc
 50
-90.000000000
 51
90.000000000
  0
LINE
  5
B78
330
A02
100
AcDbEntity
  8
Shape2DView006
100
AcDbLine
 10
9.200000000
 20
96.400000000
 30
0.000000000
 11
-4.400000000
 21
96.400000000
 31
0.000000000
  0
ARC
  5
B79
330
A02
100
AcDbEntity
  8
Shape2DView006
100
AcDbCircle
 10
-4.400000000
 20
96.800000000
 30
0.000000000
 40
0.400000000
100
AcDbArc
 50
180.000000000
 51
-90.000000000
  0
LINE
  5
B7A
330
A02
100
AcDbEntity
  8
Shape2DView006
100
AcDbLine
 10
-4.800000000
 20
96.800000000
 30
0.000000000
 11
-4.800000000
 21
114.443350000
 31
0.000000000
  0
LINE
  5
B7B
330
A02
100
AcDbEntity
  8
Shape2DView006
100
AcDbLine
 10
-4.800000000
 20
114.443350000
 30
0.000000000
 11
-2.225339318
 21
114.443350000
 31
0.000000000
  0
ARC
  5
B7C
330
A02
100
AcDbEntity
  8
Shape2DView006
100
AcDbCircle
 10
-2.052905000
 20
114.542905000
 30
0.000000000
 40
0.199110000
100
AcDbArc
 50
-150.000000000
 51
0.000000000
  0
ARC
  5
B7D
330
A02
100
AcDbEntity
  8
Shape2DView006
100
AcDbCircle
 10
-2.052905000
 20
114.542905000
 30
0.000000000
 40
0.199110000
100
AcDbArc
 50
0.000000000
 51
60.000000000
  0
LINE
  5
B7E
330
A02
100
AcDbEntity
  8
Shape2DView006
100
AcDbLine
 10
-1.953350000
 20
123.984660682
 30
0.000000000
 11
-1.953350000
 21
114.715339318
 31
0.000000000
  0
ARC
  5
B7F
330
A02
100
AcDbEntity
  8
Shape2DView006
100
AcDbCircle
 10
-2.052905000
 20
124.157095000
 30
0.000000000
 40
0.199110000
100
AcDbArc
 50
-60.000000000
 51
0.000000000
  0
ARC
  5
B80
330
A02
100
AcDbEntity
  8
Shape2DView006
100
AcDbCircle
 10
-2.052905000
 20
124.157095000
 30
0.000000000
 40
0.199110000
100
AcDbArc
 50
0.000000000
 51
150.000000000
  0
LINE
  5
B81
330
A02
100
AcDbEntity
  8
Shape2DView006
100
AcDbLine
 10
-4.800000000
 20
124.256650000
 30
0.000000000
 11
-2.225339318
 21
124.256650000
 31
0.000000000
  0
LINE
  5
B82
330
A02
100
AcDbEntity
  8
Shape2DView006
100
AcDbLine
 10
-4.800000000
 20
124.256650000
 30
0.000000000
 11
-4.800000000
 21
161.943350000
 31
0.000000000
  0
LINE
  5
B83
330
A02
100
AcDbEntity
  8
Shape2DView006
100
AcDbLine
 10
-4.800000000
 20
161.943350000
 30
0.000000000
 11
-2.225339318
 21
161.943350000
 31
0.000000000
  0
ARC
  5
B84
330
A02
100
AcDbEntity
  8
Shape2DView006
100
AcDbCircle
 10
-2.052905000
 20
162.042905000
 30
0.000000000
 40
0.199110000
100
AcDbArc
 50
-150.000000000
 51
0.000000000
  0
ARC
  5
B85
330
A02
100
AcDbEntity
  8
Shape2DView006
100
AcDbCircle
 10
-2.052905000
 20
162.042905000
 30
0.000000000
 40
0.199110000
100
AcDbArc
 50
0.000000000
 51
60.000000000
  0
LINE
  5
B86
330
A02
100
AcDbEntity
  8
Shape2DView006
100
AcDbLine
 10
-1.953350000
 20
171.484660682
 30
0.000000000
 11
-1.953350000
 21
162.215339318
 31
0.000000000
  0
ARC
  5
B87
330
A02
100
AcDbEntity
  8
Shape2DView006
100
AcDbCircle
 10
-2.052905000
 20
171.657095000
 30
0.000000000
 40
0.199110000
100
AcDbArc
 50
-60.000000000
 51
0.000000000
  0
ARC
  5
B88
330
A02
100
AcDbEntity
  8
Shape2DView006
100
AcDbCircle
 10
-2.052905000
 20
171.657095000
 30
0.000000000
 40
0.199110000
100
AcDbArc
 50
0.000000000
 51
150.000000000
  0
LINE
  5
B89
330
A02
100
AcDbEntity
  8
Shape2DView006
100
AcDbLine
 10
-4.800000000
 20
171.756650000
 30
0.000000000
 11
-2.225339318
 21
171.756650000
 31
0.000000000
  0
LINE
  5
B8A
330
A02
100
AcDbEntity
  8
Shape2DView006
100
AcDbLine
 10
-4.800000000
 20
171.756650000
 30
0.000000000
 11
-4.800000000
 21
189.400000000
 31
0.000000000
  0
ARC
  5
B8B
330
A02
100
AcDbEntity
  8
Shape2DView006
100
AcDbCircle
 10
-4.400000000
 20
189.400000000
 30
0.000000000
 40
0.400000000
100
AcDbArc
 50
90.000000000
 51
180.000000000
  0
LINE
  5
B8C
330
A02
100
AcDbEntity
  8
Shape2DView006
100
AcDbLine
 10
-4.400000000
 20
189.800000000
 30
0.000000000
 11
9.200000000
 21
189.800000000
 31
0.000000000
  0
ARC
  5
B8D
330
A02
100
AcDbEntity
  8
Shape2DView006
100
AcDbCircle
 10
9.200000000
 20
190.200000000
 30
0.000000000
 40
0.400000000
100
AcDbArc
 50
-90.000000000
 51
90.000000000
  0
LINE
  5
B8E
330
A02
100
AcDbEntity
  8
Shape2DView006
100
AcDbLine
 10
9.200000000
 20
190.600000000
 30
0.000000000
 11
-4.400000000
 21
190.600000000
 31
0.000000000
  0
ARC
  5
B8F
330
A02
100
AcDbEntity
  8
Shape2DView006
100
AcDbCircle
 10
-4.400000000
 20
191.000000000
 30
0.000000000
 40
0.400000000
100
AcDbArc
 50
180.000000000
 51
-90.000000000
  0
LINE
  5
B90
330
A02
100
AcDbEntity
  8
Shape2DView006
100
AcDbLine
 10
-4.800000000
 20
191.000000000
 30
0.000000000
 11
-4.800000000
 21
193.122799813
 31
0.000000000
  0
ARC
  5
B91
330
A02
100
AcDbEntity
  8
Shape2DView006
100
AcDbCircle
 10
-4.400000000
 20
193.122799813
 30
0.000000000
 40
0.400000000
100
AcDbArc
 50
110.556045220
 51
180.000000000
  0
LINE
  5
B92
330
A02
100
AcDbEntity
  8
Shape2DView006
100
AcDbLine
 10
-4.540449377
 20
193.497331484
 30
0.000000000
 11
-2.800000000
 21
194.150000000
 31
0.000000000
  0
LINE
  5
B93
330
A02
100
AcDbEntity
  8
Shape2DView006
100
AcDbLine
 10
-2.800000000
 20
194.150000000
 30
0.000000000
 11
-2.800000000
 21
193.400000000
 31
0.000000000
  0
LINE
  5
B94
330
A02
100
AcDbEntity
  8
Shape2DView006
100
AcDbLine
 10
-2.800000000
 20
193.400000000
 30
0.000000000
 11
0.000000000
 21
193.400000000
 31
0.000000000
  0
LINE
  5
B95
330
A02
100
AcDbEntity
  8
Shape2DView006
100
AcDbLine
 10
0.000000000
 20
194.878709851
 30
0.000000000
 11
0.000000000
 21
193.400000000
 31
0.000000000
  0
ARC
  5
B96
330
A02
100
AcDbEntity
  8
Shape2DView006
100
AcDbCircle
 10
0.400000000
 20
194.878709851
 30
0.000000000
 40
0.400000000
100
AcDbArc
 50
75.000000000
 51
180.000000000
  0
LINE
  5
B97
330
A02
100
AcDbEntity
  8
Shape2DView006
100
AcDbLine
 10
7.464101615
 20
193.400000000
 30
0.000000000
 11
0.503527618
 21
195.265080181
 31
0.000000000
  0
LINE
  5
B98
330
A02
100
AcDbEntity
  8
Shape2DView006
100
AcDbLine
 10
58.535898385
 20
193.400000000
 30
0.000000000
 11
7.464101615
 21
193.400000000
 31
0.000000000
  0
LINE
  5
B99
330
A02
100
AcDbEntity
  8
Shape2DView006
100
AcDbLine
 10
65.496472382
 20
195.265080181
 30
0.000000000
 11
58.535898385
 21
193.400000000
 31
0.000000000
  0
ARC
  5
B9A
330
A02
100
AcDbEntity
  8
Shape2DView006
100
AcDbCircle
 10
65.600000000
 20
194.878709851
 30
0.000000000
 40
0.400000000
100
AcDbArc
 50
0.000000000
 51
105.000000000
  0
LINE
  5
B9B
330
A02
100
AcDbEntity
  8
Shape2DView006
100
AcDbLine
 10
66.000000000
 20
193.400000000
 30
0.000000000
 11
66.000000000
 21
194.878709851
 31
0.000000000
  0
LINE
  5
B9C
330
A02
100
AcDbEntity
  8
Shape2DView006
100
AcDbLine
 10
68.800000000
 20
193.400000000
 30
0.000000000
 11
66.000000000
 21
193.400000000
 31
0.000000000
  0
LINE
  5
B9D
330
A02
100
AcDbEntity
  8
Shape2DView006
100
AcDbLine
 10
68.800000000
 20
194.150000000
 30
0.000000000
 11
68.800000000
 21
193.400000000
 31
0.000000000
  0
LINE
  5
B9E
330
A02
100
AcDbEntity
  8
Shape2DView006
100
AcDbLine
 10
70.540449377
 20
193.497331484
 30
0.000000000
 11
68.800000000
 21
194.150000000
 31
0.000000000
  0
ARC
  5
B9F
330
A02
100
AcDbEntity
  8
Shape2DView006
100
AcDbCircle
 10
70.400000000
 20
193.122799813
 30
0.000000000
 40
0.400000000
100
AcDbArc
 50
0.000000000
 51
69.443954780
  0
LINE
  5
BA0
330
A02
100
AcDbEntity
  8
Shape2DView006
100
AcDbLine
 10
70.800000000
 20
193.122799813
 30
0.000000000
 11
70.800000000
 21
191.000000000
 31
0.000000000
  0
ARC
  5
BA1
330
A02
100
AcDbEntity
  8
Shape2DView006
100
AcDbCircle
 10
70.400000000
 20
191.000000000
 30
0.000000000
 40
0.400000000
100
AcDbArc
 50
-90.000000000
 51
0.000000000
  0
LINE
  5
BA2
330
A02
100
AcDbEntity
  8
Shape2DView006
100
AcDbLine
 10
70.400000000
 20
190.600000000
 30
0.000000000
 11
56.800000000
 21
190.600000000
 31
0.000000000
  0
ARC
  5
BA3
330
A02
100
AcDbEntity
  8
Shape2DView006
100
AcDbCircle
 10
56.800000000
 20
190.200000000
 30
0.000000000
 40
0.400000000
100
AcDbArc
 50
90.000000000
 51
-90.000000000
  0
LINE
  5
BA4
330
A02
100
AcDbEntity
  8
Shape2DView006
100
AcDbLine
 10
56.800000000
 20
189.800000000
 30
0.000000000
 11
70.400000000
 21
189.800000000
 31
0.000000000
  0
ARC
  5
BA5
330
A02
100
AcDbEntity
  8
Shape2DView006
100
AcDbCircle
 10
70.400000000
 20
189.400000000
 30
0.000000000
 40
0.400000000
100
AcDbArc
 50
0.000000000
 51
90.000000000
  0
LINE
  5
BA6
330
A02
100
AcDbEntity
  8
Shape2DView006
100
AcDbLine
 10
70.800000000
 20
189.400000000
 30
0.000000000
 11
70.800000000
 21
171.756650000
 31
0.000000000
  0
LINE
  5
BA7
330
A02
100
AcDbEntity
  8
Shape2DView006
100
AcDbLine
 10
68.225339318
 20
171.756650000
 30
0.000000000
 11
70.800000000
 21
171.756650000
 31
0.000000000
  0
ARC
  5
BA8
330
A02
100
AcDbEntity
  8
Shape2DView006
100
AcDbCircle
 10
68.052905000
 20
171.657095000
 30
0.000000000
 40
0.199110000
100
AcDbArc
 50
30.000000000
 51
-120.000000000
  0
LINE
  5
BA9
330
A02
100
AcDbEntity
  8
Shape2DView006
100
AcDbLine
 10
67.953350000
 20
171.484660682
 30
0.000000000
 11
67.953350000
 21
162.215339318
 31
0.000000000
  0
ARC
  5
BAA
330
A02
100
AcDbEntity
  8
Shape2DView006
100
AcDbCircle
 10
68.052905000
 20
162.042905000
 30
0.000000000
 40
0.199110000
100
AcDbArc
 50
120.000000000
 51
-30.000000000
  0
LINE
  5
BAB
330
A02
100
AcDbEntity
  8
Shape2DView006
100
AcDbLine
 10
68.225339318
 20
161.943350000
 30
0.000000000
 11
70.800000000
 21
161.943350000
 31
0.000000000
  0
LINE
  5
BAC
330
A02
100
AcDbEntity
  8
Shape2DView006
100
AcDbLine
 10
70.800000000
 20
161.943350000
 30
0.000000000
 11
70.800000000
 21
124.256650000
 31
0.000000000
  0
LINE
  5
BAD
330
A02
100
AcDbEntity
  8
Shape2DView006
100
AcDbLine
 10
68.225339318
 20
124.256650000
 30
0.000000000
 11
70.800000000
 21
124.256650000
 31
0.000000000
  0
ARC
  5
BAE
330
A02
100
AcDbEntity
  8
Shape2DView006
100
AcDbCircle
 10
68.052905000
 20
124.157095000
 30
0.000000000
 40
0.199110000
100
AcDbArc
 50
30.000000000
 51
-120.000000000
  0
LINE
  5
BAF
330
A02
100
AcDbEntity
  8
Shape2DView006
100
AcDbLine
 10
67.953350000
 20
123.984660682
 30
0.000000000
 11
67.953350000
 21
114.715339318
 31
0.000000000
  0
ARC
  5
BB0
330
A02
100
AcDbEntity
  8
Shape2DView006
100
AcDbCircle
 10
68.052905000
 20
114.542905000
 30
0.000000000
 40
0.199110000
100
AcDbArc
 50
120.000000000
 51
-30.000000000
  0
LINE
  5
BB1
330
A02
100
AcDbEntity
  8
Shape2DView006
100
AcDbLine
 10
68.225339318
 20
114.443350000
 30
0.000000000
 11
70.800000000
 21
114.443350000
 31
0.000000000
  0
LINE
  5
BB2
330
A02
100
AcDbEntity
  8
Shape2DView006
100
AcDbLine
 10
70.800000000
 20
114.443350000
 30
0.000000000
 11
70.800000000
 21
96.800000000
 31
0.000000000
  0
ARC
  5
BB3
330
A02
100
AcDbEntity
  8
Shape2DView006
100
AcDbCircle
 10
70.400000000
 20
96.800000000
 30
0.000000000
 40
0.400000000
100
AcDbArc
 50
-90.000000000
 51
0.000000000
  0
LINE
  5
BB4
330
A02
100
AcDbEntity
  8
Shape2DView006
100
AcDbLine
 10
56.800000000
 20
96.400000000
 30
0.000000000
 11
70.400000000
 21
96.400000000
 31
0.000000000
  0
ARC
  5
BB5
330
A02
100
AcDbEntity
  8
Shape2DView006
100
AcDbCircle
 10
56.800000000
 20
96.000000000
 30
0.000000000
 40
0.400000000
100
AcDbArc
 50
90.000000000
 51
-90.000000000
  0
LINE
  5
BB6
330
A02
100
AcDbEntity
  8
Shape2DView006
100
AcDbLine
 10
70.400000000
 20
95.600000000
 30
0.000000000
 11
56.800000000
 21
95.600000000
 31
0.000000000
  0
ARC
  5
BB7
330
A02
100
AcDbEntity
  8
Shape2DView006
100
AcDbCircle
 10
70.400000000
 20
95.200000000
 30
0.000000000
 40
0.400000000
100
AcDbArc
 50
0.000000000
 51
90.000000000
  0
LINE
  5
BB8
330
A02
100
AcDbEntity
  8
Shape2DView006
100
AcDbLine
 10
70.800000000
 20
95.200000000
 30
0.000000000
 11
70.800000000
 21
93.077200187
 31
0.000000000
  0
ARC
  5
BB9
330
A02
100
AcDbEntity
  8
Shape2DView006
100
AcDbCircle
 10
70.400000000
 20
93.077200187
 30
0.000000000
 40
0.400000000
100
AcDbArc
 50
-69.443954780
 51
0.000000000
  0
LINE
  5
BBA
330
A02
100
AcDbEntity
  8
Shape2DView006
100
AcDbLine
 10
70.540449377
 20
92.702668516
 30
0.000000000
 11
68.800000000
 21
92.050000000
 31
0.000000000
  0
LINE
  5
BBB
330
A02
100
AcDbEntity
  8
Shape2DView006
100
AcDbLine
 10
68.800000000
 20
92.050000000
 30
0.000000000
 11
68.800000000
 21
92.800000000
 31
0.000000000
  0
LINE
  5
BBC
330
A02
100
AcDbEntity
  8
Shape2DView006
100
AcDbLine
 10
68.800000000
 20
92.800000000
 30
0.000000000
 11
66.000000000
 21
92.800000000
 31
0.000000000
  0
LINE
  5
BBD
330
A02
100
AcDbEntity
  8
Shape2DView006
100
AcDbLine
 10
66.000000000
 20
91.321290149
 30
0.000000000
 11
66.000000000
 21
92.800000000
 31
0.000000000
  0
ARC
  5
BBE
330
A02
100
AcDbEntity
  8
Shape2DView006
100
AcDbCircle
 10
65.600000000
 20
91.321290149
 30
0.000000000
 40
0.400000000
100
AcDbArc
 50
-105.000000000
 51
0.000000000
  0
LINE
  5
BBF
330
A02
100
AcDbEntity
  8
Shape2DView006
100
AcDbLine
 10
58.535898385
 20
92.800000000
 30
0.000000000
 11
65.496472382
 21
90.934919819
 31
0.000000000
  0
LINE
  5
BC0
330
A02
100
AcDbEntity
  8
Shape2DView006
100
AcDbLine
 10
47.356650000
 20
92.800000000
 30
0.000000000
 11
58.535898385
 21
92.800000000
 31
0.000000000
  0
LINE
  5
BC1
330
A02
100
AcDbEntity
  8
Shape2DView006
100
AcDbLine
 10
47.356650000
 20
92.800000000
 30
0.000000000
 11
47.356650000
 21
95.374660682
 31
0.000000000
  0
ARC
  5
BC2
330
A02
100
AcDbEntity
  8
Shape2DView006
100
AcDbCircle
 10
47.257095000
 20
95.547095000
 30
0.000000000
 40
0.199110000
100
AcDbArc
 50
-60.000000000
 51
90.000000000
  0
ARC
  5
BC3
330
A02
100
AcDbEntity
  8
Shape2DView006
100
AcDbCircle
 10
47.257095000
 20
95.547095000
 30
0.000000000
 40
0.199110000
100
AcDbArc
 50
90.000000000
 51
150.000000000
  0
LINE
  5
BC4
330
A02
100
AcDbEntity
  8
Shape2DView006
100
AcDbLine
 10
37.815339318
 20
95.646650000
 30
0.000000000
 11
47.084660682
 21
95.646650000
 31
0.000000000
  0
ARC
  5
BC5
330
A02
100
AcDbEntity
  8
Shape2DView006
100
AcDbCircle
 10
37.642905000
 20
95.547095000
 30
0.000000000
 40
0.199110000
100
AcDbArc
 50
30.000000000
 51
90.000000000
  0
ARC
  5
BC6
330
A02
100
AcDbEntity
  8
Shape2DView006
100
AcDbCircle
 10
37.642905000
 20
95.547095000
 30
0.000000000
 40
0.199110000
100
AcDbArc
 50
90.000000000
 51
-120.000000000
  0
LINE
  5
BC7
330
A02
100
AcDbEntity
  8
Shape2DView006
100
AcDbLine
 10
37.543350000
 20
92.800000000
 30
0.000000000
 11
37.543350000
 21
95.374660682
 31
0.000000000
  0
LINE
  5
BC8
330
A02
100
AcDbEntity
  8
Shape2DView006
100
AcDbLine
 10
28.456650000
 20
92.800000000
 30
0.000000000
 11
37.543350000
 21
92.800000000
 31
0.000000000
  0
LINE
  5
BC9
330
A02
100
AcDbEntity
  8
Shape2DView006
100
AcDbLine
 10
28.456650000
 20
92.800000000
 30
0.000000000
 11
28.456650000
 21
95.374660682
 31
0.000000000
  0
ARC
  5
BCA
330
A02
100
AcDbEntity
  8
Shape2DView006
100
AcDbCircle
 10
28.357095000
 20
95.547095000
 30
0.000000000
 40
0.199110000
100
AcDbArc
 50
-60.000000000
 51
90.000000000
  0
ARC
  5
BCB
330
A02
100
AcDbEntity
  8
Shape2DView006
100
AcDbCircle
 10
28.357095000
 20
95.547095000
 30
0.000000000
 40
0.199110000
100
AcDbArc
 50
90.000000000
 51
150.000000000
  0
LINE
  5
BCC
330
A02
100
AcDbEntity
  8
Shape2DView006
100
AcDbLine
 10
18.915339318
 20
95.646650000
 30
0.000000000
 11
28.184660682
 21
95.646650000
 31
0.000000000
  0
ARC
  5
BCD
330
A02
100
AcDbEntity
  8
Shape2DView006
100
AcDbCircle
 10
18.742905000
 20
95.547095000
 30
0.000000000
 40
0.199110000
100
AcDbArc
 50
30.000000000
 51
90.000000000
  0
ARC
  5
BCE
330
A02
100
AcDbEntity
  8
Shape2DView006
100
AcDbCircle
 10
18.742905000
 20
95.547095000
 30
0.000000000
 40
0.199110000
100
AcDbArc
 50
90.000000000
 51
-120.000000000
  0
LINE
  5
BCF
330
A02
100
AcDbEntity
  8
Shape2DView006
100
AcDbLine
 10
18.643350000
 20
92.800000000
 30
0.000000000
 11
18.643350000
 21
95.374660682
 31
0.000000000
  0
LINE
  5
BD0
330
A02
100
AcDbEntity
  8
Shape2DView006
100
AcDbLine
 10
7.464101615
 20
92.800000000
 30
0.000000000
 11
18.643350000
 21
92.800000000
 31
0.000000000
  0
LINE
  5
BD1
330
A02
100
AcDbEntity
  8
Shape2DView006
100
AcDbLine
 10
0.503527618
 20
90.934919819
 30
0.000000000
 11
7.464101615
 21
92.800000000
 31
0.000000000
  0
ARC
  5
BD2
330
A02
100
AcDbEntity
  8
Shape2DView006
100
AcDbCircle
 10
0.400000000
 20
91.321290149
 30
0.000000000
 40
0.400000000
100
AcDbArc
 50
180.000000000
 51
-75.000000000
  0
LINE
  5
BD3
330
A02
100
AcDbEntity
  8
Shape2DView006
100
AcDbLine
 10
0.000000000
 20
92.800000000
 30
0.000000000
 11
0.000000000
 21
91.321290149
 31
0.000000000
  0
LINE
  5
BD4
330
A02
100
AcDbEntity
  8
Shape2DView006
100
AcDbLine
 10
-2.800000000
 20
92.800000000
 30
0.000000000
 11
0.000000000
 21
92.800000000
 31
0.000000000
  0
LINE
  5
BD5
330
A02
100
AcDbEntity
  8
Shape2DView006
100
AcDbLine
 10
-2.800000000
 20
92.050000000
 30
0.000000000
 11
-2.800000000
 21
92.800000000
 31
0.000000000
  0
ARC
  5
BD6
330
A02
100
AcDbEntity
  8
Shape2DView006
100
AcDbCircle
 10
16.610000000
 20
174.000000000
 30
0.000000000
 40
0.800000000
100
AcDbArc
 50
163.267180167
 51
-15.832667197
  0
ARC
  5
BD7
330
A02
100
AcDbEntity
  8
Shape2DView006
100
AcDbCircle
 10
-10.000000000
 20
182.000000000
 30
0.000000000
 40
26.986545305
100
AcDbArc
 50
-16.732819833
 51
16.732819833
  0
ARC
  5
BD8
330
A02
100
AcDbEntity
  8
Shape2DView006
100
AcDbCircle
 10
-11.600000000
 20
182.000000000
 30
0.000000000
 40
30.122416340
100
AcDbArc
 50
-15.832667197
 51
15.832667197
  0
ARC
  5
BD9
330
A02
100
AcDbEntity
  8
Shape2DView006
100
AcDbCircle
 10
16.610000000
 20
190.000000000
 30
0.000000000
 40
0.800000000
100
AcDbArc
 50
15.832667197
 51
-163.267180167
  0
ARC
  5
BDA
330
A02
100
AcDbEntity
  8
Shape2DView006
100
AcDbCircle
 10
44.390000000
 20
188.690000000
 30
0.000000000
 40
2.110000000
100
AcDbArc
 50
-13.161241803
 51
90.000000000
  0
ARC
  5
BDB
330
A02
100
AcDbEntity
  8
Shape2DView006
100
AcDbCircle
 10
73.000000000
 20
182.000000000
 30
0.000000000
 40
27.271766455
100
AcDbArc
 50
166.838758197
 51
-166.838758197
  0
LINE
  5
BDC
330
A02
100
AcDbEntity
  8
Shape2DView006
100
AcDbLine
 10
44.390000000
 20
190.800000000
 30
0.000000000
 11
21.610000000
 21
190.800000000
 31
0.000000000
  0
ARC
  5
BDD
330
A02
100
AcDbEntity
  8
Shape2DView006
100
AcDbCircle
 10
44.390000000
 20
175.310000000
 30
0.000000000
 40
2.110000000
100
AcDbArc
 50
-90.000000000
 51
13.161241803
  0
ARC
  5
BDE
330
A02
100
AcDbEntity
  8
Shape2DView006
100
AcDbCircle
 10
21.610000000
 20
188.690000000
 30
0.000000000
 40
2.110000000
100
AcDbArc
 50
90.000000000
 51
-166.838476918
  0
LINE
  5
BDF
330
A02
100
AcDbEntity
  8
Shape2DView006
100
AcDbLine
 10
21.610000000
 20
173.200000000
 30
0.000000000
 11
44.390000000
 21
173.200000000
 31
0.000000000
  0
ARC
  5
BE0
330
A02
100
AcDbEntity
  8
Shape2DView006
100
AcDbCircle
 10
-7.000000000
 20
182.000000000
 30
0.000000000
 40
27.271766455
100
AcDbArc
 50
-13.161241803
 51
13.161220041
  0
ARC
  5
BE1
330
A02
100
AcDbEntity
  8
Shape2DView006
100
AcDbCircle
 10
21.610000000
 20
175.310000000
 30
0.000000000
 40
2.110000000
100
AcDbArc
 50
166.838758197
 51
-90.000000000
  0
ARC
  5
BE2
330
A02
100
AcDbEntity
  8
Shape2DView006
100
AcDbCircle
 10
49.390000000
 20
174.000000000
 30
0.000000000
 40
0.800000000
100
AcDbArc
 50
-164.167332803
 51
16.732819833
  0
ARC
  5
BE3
330
A02
100
AcDbEntity
  8
Shape2DView006
100
AcDbCircle
 10
77.600000000
 20
182.000000000
 30
0.000000000
 40
30.122416340
100
AcDbArc
 50
164.167332803
 51
-164.167332803
  0
ARC
  5
BE4
330
A02
100
AcDbEntity
  8
Shape2DView006
100
AcDbCircle
 10
76.000000000
 20
182.000000000
 30
0.000000000
 40
26.986545305
100
AcDbArc
 50
163.267180167
 51
-163.267180167
  0
ARC
  5
BE5
330
A02
100
AcDbEntity
  8
Shape2DView006
100
AcDbCircle
 10
49.390000000
 20
190.000000000
 30
0.000000000
 40
0.800000000
100
AcDbArc
 50
-16.732819833
 51
164.167332803
  0
LINE
  5
BE6
330
A02
100
AcDbEntity
  8
Shape2DView007
100
AcDbLine
 10
147.259550623
 20
212.677331484
 30
0.000000000
 11
145.800000000
 21
212.130000000
 31
0.000000000
  0
LINE
  5
BE7
330
A02
100
AcDbEntity
  8
Shape2DView007
100
AcDbLine
 10
145.800000000
 20
212.130000000
 30
0.000000000
 11
145.800000000
 21
212.880000000
 31
0.000000000
  0
LINE
  5
BE8
330
A02
100
AcDbEntity
  8
Shape2DView007
100
AcDbLine
 10
143.000000000
 20
212.880000000
 30
0.000000000
 11
145.800000000
 21
212.880000000
 31
0.000000000
  0
LINE
  5
BE9
330
A02
100
AcDbEntity
  8
Shape2DView007
100
AcDbLine
 10
143.000000000
 20
214.358709851
 30
0.000000000
 11
143.000000000
 21
212.880000000
 31
0.000000000
  0
ARC
  5
BEA
330
A02
100
AcDbEntity
  8
Shape2DView007
100
AcDbCircle
 10
142.600000000
 20
214.358709851
 30
0.000000000
 40
0.400000000
100
AcDbArc
 50
0.000000000
 51
105.000000000
  0
LINE
  5
BEB
330
A02
100
AcDbEntity
  8
Shape2DView007
100
AcDbLine
 10
135.535898385
 20
212.880000000
 30
0.000000000
 11
142.496472382
 21
214.745080181
 31
0.000000000
  0
LINE
  5
BEC
330
A02
100
AcDbEntity
  8
Shape2DView007
100
AcDbLine
 10
124.356650000
 20
212.880000000
 30
0.000000000
 11
135.535898385
 21
212.880000000
 31
0.000000000
  0
LINE
  5
BED
330
A02
100
AcDbEntity
  8
Shape2DView007
100
AcDbLine
 10
124.356650000
 20
212.880000000
 30
0.000000000
 11
124.356650000
 21
210.305339318
 31
0.000000000
  0
ARC
  5
BEE
330
A02
100
AcDbEntity
  8
Shape2DView007
100
AcDbCircle
 10
124.257095000
 20
210.132905000
 30
0.000000000
 40
0.199110000
100
AcDbArc
 50
-90.000000000
 51
60.000000000
  0
ARC
  5
BEF
330
A02
100
AcDbEntity
  8
Shape2DView007
100
AcDbCircle
 10
124.257095000
 20
210.132905000
 30
0.000000000
 40
0.199110000
100
AcDbArc
 50
-150.000000000
 51
-90.000000000
  0
LINE
  5
BF0
330
A02
100
AcDbEntity
  8
Shape2DView007
100
AcDbLine
 10
124.084660682
 20
210.033350000
 30
0.000000000
 11
114.815339318
 21
210.033350000
 31
0.000000000
  0
ARC
  5
BF1
330
A02
100
AcDbEntity
  8
Shape2DView007
100
AcDbCircle
 10
114.642905000
 20
210.132905000
 30
0.000000000
 40
0.199110000
100
AcDbArc
 50
-90.000000000
 51
-30.000000000
  0
ARC
  5
BF2
330
A02
100
AcDbEntity
  8
Shape2DView007
100
AcDbCircle
 10
114.642905000
 20
210.132905000
 30
0.000000000
 40
0.199110000
100
AcDbArc
 50
120.000000000
 51
-90.000000000
  0
LINE
  5
BF3
330
A02
100
AcDbEntity
  8
Shape2DView007
100
AcDbLine
 10
114.543350000
 20
212.880000000
 30
0.000000000
 11
114.543350000
 21
210.305339318
 31
0.000000000
  0
LINE
  5
BF4
330
A02
100
AcDbEntity
  8
Shape2DView007
100
AcDbLine
 10
105.456650000
 20
212.880000000
 30
0.000000000
 11
114.543350000
 21
212.880000000
 31
0.000000000
  0
LINE
  5
BF5
330
A02
100
AcDbEntity
  8
Shape2DView007
100
AcDbLine
 10
105.456650000
 20
212.880000000
 30
0.000000000
 11
105.456650000
 21
210.305339318
 31
0.000000000
  0
ARC
  5
BF6
330
A02
100
AcDbEntity
  8
Shape2DView007
100
AcDbCircle
 10
105.357095000
 20
210.132905000
 30
0.000000000
 40
0.199110000
100
AcDbArc
 50
-90.000000000
 51
60.000000000
  0
ARC
  5
BF7
330
A02
100
AcDbEntity
  8
Shape2DView007
100
AcDbCircle
 10
105.357095000
 20
210.132905000
 30
0.000000000
 40
0.199110000
100
AcDbArc
 50
-150.000000000
 51
-90.000000000
  0
LINE
  5
BF8
330
A02
100
AcDbEntity
  8
Shape2DView007
100
AcDbLine
 10
105.184660682
 20
210.033350000
 30
0.000000000
 11
95.915339318
 21
210.033350000
 31
0.000000000
  0
ARC
  5
BF9
330
A02
100
AcDbEntity
  8
Shape2DView007
100
AcDbCircle
 10
95.742905000
 20
210.132905000
 30
0.000000000
 40
0.199110000
100
AcDbArc
 50
-90.000000000
 51
-30.000000000
  0
ARC
  5
BFA
330
A02
100
AcDbEntity
  8
Shape2DView007
100
AcDbCircle
 10
95.742905000
 20
210.132905000
 30
0.000000000
 40
0.199110000
100
AcDbArc
 50
120.000000000
 51
-90.000000000
  0
LINE
  5
BFB
330
A02
100
AcDbEntity
  8
Shape2DView007
100
AcDbLine
 10
95.643350000
 20
212.880000000
 30
0.000000000
 11
95.643350000
 21
210.305339318
 31
0.000000000
  0
LINE
  5
BFC
330
A02
100
AcDbEntity
  8
Shape2DView007
100
AcDbLine
 10
84.464101615
 20
212.880000000
 30
0.000000000
 11
95.643350000
 21
212.880000000
 31
0.000000000
  0
LINE
  5
BFD
330
A02
100
AcDbEntity
  8
Shape2DView007
100
AcDbLine
 10
77.503527618
 20
214.745080181
 30
0.000000000
 11
84.464101615
 21
212.880000000
 31
0.000000000
  0
ARC
  5
BFE
330
A02
100
AcDbEntity
  8
Shape2DView007
100
AcDbCircle
 10
77.400000000
 20
214.358709851
 30
0.000000000
 40
0.400000000
100
AcDbArc
 50
75.000000000
 51
180.000000000
  0
LINE
  5
BFF
330
A02
100
AcDbEntity
  8
Shape2DView007
100
AcDbLine
 10
77.000000000
 20
212.880000000
 30
0.000000000
 11
77.000000000
 21
214.358709851
 31
0.000000000
  0
LINE
  5
C00
330
A02
100
AcDbEntity
  8
Shape2DView007
100
AcDbLine
 10
74.200000000
 20
212.880000000
 30
0.000000000
 11
77.000000000
 21
212.880000000
 31
0.000000000
  0
LINE
  5
C01
330
A02
100
AcDbEntity
  8
Shape2DView007
100
AcDbLine
 10
74.200000000
 20
213.630000000
 30
0.000000000
 11
74.200000000
 21
212.880000000
 31
0.000000000
  0
LINE
  5
C02
330
A02
100
AcDbEntity
  8
Shape2DView007
100
AcDbLine
 10
72.459550623
 20
212.977331484
 30
0.000000000
 11
74.200000000
 21
213.630000000
 31
0.000000000
  0
ARC
  5
C03
330
A02
100
AcDbEntity
  8
Shape2DView007
100
AcDbCircle
 10
72.600000000
 20
212.602799813
 30
0.000000000
 40
0.400000000
100
AcDbArc
 50
110.556045220
 51
180.000000000
  0
LINE
  5
C04
330
A02
100
AcDbEntity
  8
Shape2DView007
100
AcDbLine
 10
72.200000000
 20
210.480000000
 30
0.000000000
 11
72.200000000
 21
212.602799813
 31
0.000000000
  0
ARC
  5
C05
330
A02
100
AcDbEntity
  8
Shape2DView007
100
AcDbCircle
 10
72.600000000
 20
210.480000000
 30
0.000000000
 40
0.400000000
100
AcDbArc
 50
180.000000000
 51
-90.000000000
  0
LINE
  5
C06
330
A02
100
AcDbEntity
  8
Shape2DView007
100
AcDbLine
 10
86.200000000
 20
210.080000000
 30
0.000000000
 11
72.600000000
 21
210.080000000
 31
0.000000000
  0
ARC
  5
C07
330
A02
100
AcDbEntity
  8
Shape2DView007
100
AcDbCircle
 10
86.200000000
 20
209.680000000
 30
0.000000000
 40
0.400000000
100
AcDbArc
 50
-90.000000000
 51
90.000000000
  0
LINE
  5
C08
330
A02
100
AcDbEntity
  8
Shape2DView007
100
AcDbLine
 10
72.600000000
 20
209.280000000
 30
0.000000000
 11
86.200000000
 21
209.280000000
 31
0.000000000
  0
ARC
  5
C09
330
A02
100
AcDbEntity
  8
Shape2DView007
100
AcDbCircle
 10
72.600000000
 20
208.880000000
 30
0.000000000
 40
0.400000000
100
AcDbArc
 50
90.000000000
 51
180.000000000
  0
LINE
  5
C0A
330
A02
100
AcDbEntity
  8
Shape2DView007
100
AcDbLine
 10
72.200000000
 20
197.486650000
 30
0.000000000
 11
72.200000000
 21
208.880000000
 31
0.000000000
  0
LINE
  5
C0B
330
A02
100
AcDbEntity
  8
Shape2DView007
100
AcDbLine
 10
72.200000000
 20
197.486650000
 30
0.000000000
 11
74.774660682
 21
197.486650000
 31
0.000000000
  0
ARC
  5
C0C
330
A02
100
AcDbEntity
  8
Shape2DView007
100
AcDbCircle
 10
74.947095000
 20
197.387095000
 30
0.000000000
 40
0.199110000
100
AcDbArc
 50
0.000000000
 51
150.000000000
  0
ARC
  5
C0D
330
A02
100
AcDbEntity
  8
Shape2DView007
100
AcDbCircle
 10
74.947095000
 20
197.387095000
 30
0.000000000
 40
0.199110000
100
AcDbArc
 50
-60.000000000
 51
0.000000000
  0
LINE
  5
C0E
330
A02
100
AcDbEntity
  8
Shape2DView007
100
AcDbLine
 10
75.046650000
 20
197.214660682
 30
0.000000000
 11
75.046650000
 21
187.945339318
 31
0.000000000
  0
ARC
  5
C0F
330
A02
100
AcDbEntity
  8
Shape2DView007
100
AcDbCircle
 10
74.947095000
 20
187.772905000
 30
0.000000000
 40
0.199110000
100
AcDbArc
 50
0.000000000
 51
60.000000000
  0
ARC
  5
C10
330
A02
100
AcDbEntity
  8
Shape2DView007
100
AcDbCircle
 10
74.947095000
 20
187.772905000
 30
0.000000000
 40
0.199110000
100
AcDbArc
 50
-150.000000000
 51
0.000000000
  0
LINE
  5
C11
330
A02
100
AcDbEntity
  8
Shape2DView007
100
AcDbLine
 10
72.200000000
 20
187.673350000
 30
0.000000000
 11
74.774660682
 21
187.673350000
 31
0.000000000
  0
LINE
  5
C12
330
A02
100
AcDbEntity
  8
Shape2DView007
100
AcDbLine
 10
72.200000000
 20
176.280000000
 30
0.000000000
 11
72.200000000
 21
187.673350000
 31
0.000000000
  0
ARC
  5
C13
330
A02
100
AcDbEntity
  8
Shape2DView007
100
AcDbCircle
 10
72.600000000
 20
176.280000000
 30
0.000000000
 40
0.400000000
100
AcDbArc
 50
180.000000000
 51
-90.000000000
  0
LINE
  5
C14
330
A02
100
AcDbEntity
  8
Shape2DView007
100
AcDbLine
 10
86.200000000
 20
175.880000000
 30
0.000000000
 11
72.600000000
 21
175.880000000
 31
0.000000000
  0
ARC
  5
C15
330
A02
100
AcDbEntity
  8
Shape2DView007
100
AcDbCircle
 10
86.200000000
 20
175.480000000
 30
0.000000000
 40
0.400000000
100
AcDbArc
 50
-90.000000000
 51
90.000000000
  0
LINE
  5
C16
330
A02
100
AcDbEntity
  8
Shape2DView007
100
AcDbLine
 10
72.600000000
 20
175.080000000
 30
0.000000000
 11
86.200000000
 21
175.080000000
 31
0.000000000
  0
ARC
  5
C17
330
A02
100
AcDbEntity
  8
Shape2DView007
100
AcDbCircle
 10
72.600000000
 20
174.680000000
 30
0.000000000
 40
0.400000000
100
AcDbArc
 50
90.000000000
 51
180.000000000
  0
LINE
  5
C18
330
A02
100
AcDbEntity
  8
Shape2DView007
100
AcDbLine
 10
72.200000000
 20
172.557200187
 30
0.000000000
 11
72.200000000
 21
174.680000000
 31
0.000000000
  0
ARC
  5
C19
330
A02
100
AcDbEntity
  8
Shape2DView007
100
AcDbCircle
 10
72.600000000
 20
172.557200187
 30
0.000000000
 40
0.400000000
100
AcDbArc
 50
180.000000000
 51
-110.556045220
  0
LINE
  5
C1A
330
A02
100
AcDbEntity
  8
Shape2DView007
100
AcDbLine
 10
72.459550623
 20
172.182668516
 30
0.000000000
 11
74.200000000
 21
171.530000000
 31
0.000000000
  0
LINE
  5
C1B
330
A02
100
AcDbEntity
  8
Shape2DView007
100
AcDbLine
 10
74.200000000
 20
171.530000000
 30
0.000000000
 11
74.200000000
 21
172.280000000
 31
0.000000000
  0
LINE
  5
C1C
330
A02
100
AcDbEntity
  8
Shape2DView007
100
AcDbLine
 10
77.000000000
 20
172.280000000
 30
0.000000000
 11
74.200000000
 21
172.280000000
 31
0.000000000
  0
LINE
  5
C1D
330
A02
100
AcDbEntity
  8
Shape2DView007
100
AcDbLine
 10
77.000000000
 20
170.801290149
 30
0.000000000
 11
77.000000000
 21
172.280000000
 31
0.000000000
  0
ARC
  5
C1E
330
A02
100
AcDbEntity
  8
Shape2DView007
100
AcDbCircle
 10
77.400000000
 20
170.801290149
 30
0.000000000
 40
0.400000000
100
AcDbArc
 50
180.000000000
 51
-75.000000000
  0
LINE
  5
C1F
330
A02
100
AcDbEntity
  8
Shape2DView007
100
AcDbLine
 10
84.464101615
 20
172.280000000
 30
0.000000000
 11
77.503527618
 21
170.414919819
 31
0.000000000
  0
LINE
  5
C20
330
A02
100
AcDbEntity
  8
Shape2DView007
100
AcDbLine
 10
93.753350000
 20
172.280000000
 30
0.000000000
 11
84.464101615
 21
172.280000000
 31
0.000000000
  0
LINE
  5
C21
330
A02
100
AcDbEntity
  8
Shape2DView007
100
AcDbLine
 10
93.753350000
 20
172.280000000
 30
0.000000000
 11
93.753350000
 21
174.854660682
 31
0.000000000
  0
ARC
  5
C22
330
A02
100
AcDbEntity
  8
Shape2DView007
100
AcDbCircle
 10
93.852905000
 20
175.027095000
 30
0.000000000
 40
0.199110000
100
AcDbArc
 50
90.000000000
 51
-120.000000000
  0
ARC
  5
C23
330
A02
100
AcDbEntity
  8
Shape2DView007
100
AcDbCircle
 10
93.852905000
 20
175.027095000
 30
0.000000000
 40
0.199110000
100
AcDbArc
 50
30.000000000
 51
90.000000000
  0
LINE
  5
C24
330
A02
100
AcDbEntity
  8
Shape2DView007
100
AcDbLine
 10
94.025339318
 20
175.126650000
 30
0.000000000
 11
103.294660682
 21
175.126650000
 31
0.000000000
  0
ARC
  5
C25
330
A02
100
AcDbEntity
  8
Shape2DView007
100
AcDbCircle
 10
103.467095000
 20
175.027095000
 30
0.000000000
 40
0.199110000
100
AcDbArc
 50
90.000000000
 51
150.000000000
  0
ARC
  5
C26
330
A02
100
AcDbEntity
  8
Shape2DView007
100
AcDbCircle
 10
103.467095000
 20
175.027095000
 30
0.000000000
 40
0.199110000
100
AcDbArc
 50
-60.000000000
 51
90.000000000
  0
LINE
  5
C27
330
A02
100
AcDbEntity
  8
Shape2DView007
100
AcDbLine
 10
103.566650000
 20
172.280000000
 30
0.000000000
 11
103.566650000
 21
174.854660682
 31
0.000000000
  0
LINE
  5
C28
330
A02
100
AcDbEntity
  8
Shape2DView007
100
AcDbLine
 10
116.433350000
 20
172.280000000
 30
0.000000000
 11
103.566650000
 21
172.280000000
 31
0.000000000
  0
LINE
  5
C29
330
A02
100
AcDbEntity
  8
Shape2DView007
100
AcDbLine
 10
116.433350000
 20
172.280000000
 30
0.000000000
 11
116.433350000
 21
174.854660682
 31
0.000000000
  0
ARC
  5
C2A
330
A02
100
AcDbEntity
  8
Shape2DView007
100
AcDbCircle
 10
116.532905000
 20
175.027095000
 30
0.000000000
 40
0.199110000
100
AcDbArc
 50
90.000000000
 51
-120.000000000
  0
ARC
  5
C2B
330
A02
100
AcDbEntity
  8
Shape2DView007
100
AcDbCircle
 10
116.532905000
 20
175.027095000
 30
0.000000000
 40
0.199110000
100
AcDbArc
 50
30.000000000
 51
90.000000000
  0
LINE
  5
C2C
330
A02
100
AcDbEntity
  8
Shape2DView007
100
AcDbLine
 10
116.705339318
 20
175.126650000
 30
0.000000000
 11
125.974660682
 21
175.126650000
 31
0.000000000
  0
ARC
  5
C2D
330
A02
100
AcDbEntity
  8
Shape2DView007
100
AcDbCircle
 10
126.147095000
 20
175.027095000
 30
0.000000000
 40
0.199110000
100
AcDbArc
 50
90.000000000
 51
150.000000000
  0
ARC
  5
C2E
330
A02
100
AcDbEntity
  8
Shape2DView007
100
AcDbCircle
 10
126.147095000
 20
175.027095000
 30
0.000000000
 40
0.199110000
100
AcDbArc
 50
-60.000000000
 51
90.000000000
  0
LINE
  5
C2F
330
A02
100
AcDbEntity
  8
Shape2DView007
100
AcDbLine
 10
126.246650000
 20
172.280000000
 30
0.000000000
 11
126.246650000
 21
174.854660682
 31
0.000000000
  0
LINE
  5
C30
330
A02
100
AcDbEntity
  8
Shape2DView007
100
AcDbLine
 10
135.535898385
 20
172.280000000
 30
0.000000000
 11
126.246650000
 21
172.280000000
 31
0.000000000
  0
LINE
  5
C31
330
A02
100
AcDbEntity
  8
Shape2DView007
100
AcDbLine
 10
142.496472382
 20
170.414919819
 30
0.000000000
 11
135.535898385
 21
172.280000000
 31
0.000000000
  0
ARC
  5
C32
330
A02
100
AcDbEntity
  8
Shape2DView007
100
AcDbCircle
 10
142.600000000
 20
170.801290149
 30
0.000000000
 40
0.400000000
100
AcDbArc
 50
-105.000000000
 51
0.000000000
  0
LINE
  5
C33
330
A02
100
AcDbEntity
  8
Shape2DView007
100
AcDbLine
 10
143.000000000
 20
172.280000000
 30
0.000000000
 11
143.000000000
 21
170.801290149
 31
0.000000000
  0
LINE
  5
C34
330
A02
100
AcDbEntity
  8
Shape2DView007
100
AcDbLine
 10
145.800000000
 20
172.280000000
 30
0.000000000
 11
143.000000000
 21
172.280000000
 31
0.000000000
  0
LINE
  5
C35
330
A02
100
AcDbEntity
  8
Shape2DView007
100
AcDbLine
 10
145.800000000
 20
171.530000000
 30
0.000000000
 11
145.800000000
 21
172.280000000
 31
0.000000000
  0
LINE
  5
C36
330
A02
100
AcDbEntity
  8
Shape2DView007
100
AcDbLine
 10
147.540449377
 20
172.182668516
 30
0.000000000
 11
145.800000000
 21
171.530000000
 31
0.000000000
  0
ARC
  5
C37
330
A02
100
AcDbEntity
  8
Shape2DView007
100
AcDbCircle
 10
147.400000000
 20
172.557200187
 30
0.000000000
 40
0.400000000
100
AcDbArc
 50
-69.443954780
 51
0.000000000
  0
LINE
  5
C38
330
A02
100
AcDbEntity
  8
Shape2DView007
100
AcDbLine
 10
147.800000000
 20
174.680000000
 30
0.000000000
 11
147.800000000
 21
172.557200187
 31
0.000000000
  0
ARC
  5
C39
330
A02
100
AcDbEntity
  8
Shape2DView007
100
AcDbCircle
 10
147.400000000
 20
174.680000000
 30
0.000000000
 40
0.400000000
100
AcDbArc
 50
0.000000000
 51
90.000000000
  0
LINE
  5
C3A
330
A02
100
AcDbEntity
  8
Shape2DView007
100
AcDbLine
 10
133.800000000
 20
175.080000000
 30
0.000000000
 11
147.400000000
 21
175.080000000
 31
0.000000000
  0
ARC
  5
C3B
330
A02
100
AcDbEntity
  8
Shape2DView007
100
AcDbCircle
 10
133.800000000
 20
175.480000000
 30
0.000000000
 40
0.400000000
100
AcDbArc
 50
90.000000000
 51
-90.000000000
  0
LINE
  5
C3C
330
A02
100
AcDbEntity
  8
Shape2DView007
100
AcDbLine
 10
147.400000000
 20
175.880000000
 30
0.000000000
 11
133.800000000
 21
175.880000000
 31
0.000000000
  0
ARC
  5
C3D
330
A02
100
AcDbEntity
  8
Shape2DView007
100
AcDbCircle
 10
147.400000000
 20
176.280000000
 30
0.000000000
 40
0.400000000
100
AcDbArc
 50
-90.000000000
 51
0.000000000
  0
LINE
  5
C3E
330
A02
100
AcDbEntity
  8
Shape2DView007
100
AcDbLine
 10
147.800000000
 20
187.673350000
 30
0.000000000
 11
147.800000000
 21
176.280000000
 31
0.000000000
  0
LINE
  5
C3F
330
A02
100
AcDbEntity
  8
Shape2DView007
100
AcDbLine
 10
145.225339318
 20
187.673350000
 30
0.000000000
 11
147.800000000
 21
187.673350000
 31
0.000000000
  0
ARC
  5
C40
330
A02
100
AcDbEntity
  8
Shape2DView007
100
AcDbCircle
 10
145.052905000
 20
187.772905000
 30
0.000000000
 40
0.199110000
100
AcDbArc
 50
120.000000000
 51
-30.000000000
  0
LINE
  5
C41
330
A02
100
AcDbEntity
  8
Shape2DView007
100
AcDbLine
 10
144.953350000
 20
197.214660682
 30
0.000000000
 11
144.953350000
 21
187.945339318
 31
0.000000000
  0
ARC
  5
C42
330
A02
100
AcDbEntity
  8
Shape2DView007
100
AcDbCircle
 10
145.052905000
 20
197.387095000
 30
0.000000000
 40
0.199110000
100
AcDbArc
 50
30.000000000
 51
-120.000000000
  0
LINE
  5
C43
330
A02
100
AcDbEntity
  8
Shape2DView007
100
AcDbLine
 10
145.225339318
 20
197.486650000
 30
0.000000000
 11
147.800000000
 21
197.486650000
 31
0.000000000
  0
LINE
  5
C44
330
A02
100
AcDbEntity
  8
Shape2DView007
100
AcDbLine
 10
147.800000000
 20
208.880000000
 30
0.000000000
 11
147.800000000
 21
197.486650000
 31
0.000000000
  0
ARC
  5
C45
330
A02
100
AcDbEntity
  8
Shape2DView007
100
AcDbCircle
 10
147.400000000
 20
208.880000000
 30
0.000000000
 40
0.400000000
100
AcDbArc
 50
0.000000000
 51
90.000000000
  0
LINE
  5
C46
330
A02
100
AcDbEntity
  8
Shape2DView007
100
AcDbLine
 10
133.800000000
 20
209.280000000
 30
0.000000000
 11
147.400000000
 21
209.280000000
 31
0.000000000
  0
ARC
  5
C47
330
A02
100
AcDbEntity
  8
Shape2DView007
100
AcDbCircle
 10
133.800000000
 20
209.680000000
 30
0.000000000
 40
0.400000000
100
AcDbArc
 50
90.000000000
 51
-90.000000000
  0
LINE
  5
C48
330
A02
100
AcDbEntity
  8
Shape2DView007
100
AcDbLine
 10
147.400000000
 20
210.080000000
 30
0.000000000
 11
133.800000000
 21
210.080000000
 31
0.000000000
  0
ARC
  5
C49
330
A02
100
AcDbEntity
  8
Shape2DView007
100
AcDbCircle
 10
147.400000000
 20
210.480000000
 30
0.000000000
 40
0.400000000
100
AcDbArc
 50
-90.000000000
 51
0.000000000
  0
LINE
  5
C4A
330
A02
100
AcDbEntity
  8
Shape2DView007
100
AcDbLine
 10
147.800000000
 20
212.302799813
 30
0.000000000
 11
147.800000000
 21
210.480000000
 31
0.000000000
  0
ARC
  5
C4B
330
A02
100
AcDbEntity
  8
Shape2DView007
100
AcDbCircle
 10
147.400000000
 20
212.302799813
 30
0.000000000
 40
0.400000000
100
AcDbArc
 50
0.000000000
 51
110.556045220
  0
CIRCLE
  5
C4C
330
A02
100
AcDbEntity
  8
Shape2DView007
100
AcDbCircle
 10
97.200000000
 20
185.580000000
 30
0.000000000
 40
8.500000000
  0
LINE
  5
C4D
330
A02
100
AcDbEntity
  8
Shape2DView007
100
AcDbLine
 10
107.150000000
 20
179.980000000
 30
0.000000000
 11
112.850000000
 21
179.980000000
 31
0.000000000
  0
ARC
  5
C4E
330
A02
100
AcDbEntity
  8
Shape2DView007
100
AcDbCircle
 10
107.150000000
 20
177.480000000
 30
0.000000000
 40
2.500000000
100
AcDbArc
 50
90.000000000
 51
-90.000000000
  0
ARC
  5
C4F
330
A02
100
AcDbEntity
  8
Shape2DView007
100
AcDbCircle
 10
112.850000000
 20
177.480000000
 30
0.000000000
 40
2.500000000
100
AcDbArc
 50
-90.000000000
 51
90.000000000
  0
LINE
  5
C50
330
A02
100
AcDbEntity
  8
Shape2DView007
100
AcDbLine
 10
107.150000000
 20
174.980000000
 30
0.000000000
 11
112.850000000
 21
174.980000000
 31
0.000000000
  0
LINE
  5
C51
330
A02
100
AcDbEntity
  8
Shape2DView007
100
AcDbLine
 10
86.000000000
 20
205.190000000
 30
0.000000000
 11
98.000000000
 21
205.190000000
 31
0.000000000
  0
ARC
  5
C52
330
A02
100
AcDbEntity
  8
Shape2DView007
100
AcDbCircle
 10
86.000000000
 20
204.435000000
 30
0.000000000
 40
0.755000000
100
AcDbArc
 50
90.000000000
 51
-90.000000000
  0
ARC
  5
C53
330
A02
100
AcDbEntity
  8
Shape2DView007
100
AcDbCircle
 10
98.000000000
 20
204.435000000
 30
0.000000000
 40
0.755000000
100
AcDbArc
 50
-90.000000000
 51
90.000000000
  0
LINE
  5
C54
330
A02
100
AcDbEntity
  8
Shape2DView007
100
AcDbLine
 10
86.000000000
 20
203.680000000
 30
0.000000000
 11
98.000000000
 21
203.680000000
 31
0.000000000
  0
CIRCLE
  5
C55
330
A02
100
AcDbEntity
  8
Shape2DView007
100
AcDbCircle
 10
122.800000000
 20
185.580000000
 30
0.000000000
 40
8.500000000
  0
LINE
  5
C56
330
A02
100
AcDbEntity
  8
Shape2DView007
100
AcDbLine
 10
122.000000000
 20
205.190000000
 30
0.000000000
 11
134.000000000
 21
205.190000000
 31
0.000000000
  0
ARC
  5
C57
330
A02
100
AcDbEntity
  8
Shape2DView007
100
AcDbCircle
 10
122.000000000
 20
204.435000000
 30
0.000000000
 40
0.755000000
100
AcDbArc
 50
90.000000000
 51
-90.000000000
  0
ARC
  5
C58
330
A02
100
AcDbEntity
  8
Shape2DView007
100
AcDbCircle
 10
134.000000000
 20
204.435000000
 30
0.000000000
 40
0.755000000
100
AcDbArc
 50
-90.000000000
 51
90.000000000
  0
LINE
  5
C59
330
A02
100
AcDbEntity
  8
Shape2DView007
100
AcDbLine
 10
122.000000000
 20
203.680000000
 30
0.000000000
 11
134.000000000
 21
203.680000000
 31
0.000000000
  0
LINE
  5
C5A
330
A02
100
AcDbEntity
  8
Shape2DView009
100
AcDbLine
 10
105.300000000
 20
37.900000000
 30
0.000000000
 11
105.300000000
 21
87.700000000
 31
0.000000000
  0
ARC
  5
C5B
330
A02
100
AcDbEntity
  8
Shape2DView009
100
AcDbCircle
 10
102.800000000
 20
37.900000000
 30
0.000000000
 40
2.500000000
100
AcDbArc
 50
-90.000000000
 51
0.000000000
  0
ARC
  5
C5C
330
A02
100
AcDbEntity
  8
Shape2DView009
100
AcDbCircle
 10
102.800000000
 20
87.700000000
 30
0.000000000
 40
2.500000000
100
AcDbArc
 50
0.000000000
 51
90.000000000
  0
LINE
  5
C5D
330
A02
100
AcDbEntity
  8
Shape2DView009
100
AcDbLine
 10
93.449866407
 20
35.400000000
 30
0.000000000
 11
102.800000000
 21
35.400000000
 31
0.000000000
  0
LINE
  5
C5E
330
A02
100
AcDbEntity
  8
Shape2DView009
100
AcDbLine
 10
102.800000000
 20
90.200000000
 30
0.000000000
 11
-2.000000000
 21
90.200000000
 31
0.000000000
  0
ARC
  5
C5F
330
A02
100
AcDbEntity
  8
Shape2DView009
100
AcDbCircle
 10
93.449866407
 20
37.900000000
 30
0.000000000
 40
2.500000000
100
AcDbArc
 50
-160.000000000
 51
-90.000000000
  0
ARC
  5
C60
330
A02
100
AcDbEntity
  8
Shape2DView009
100
AcDbCircle
 10
-2.000000000
 20
87.700000000
 30
0.000000000
 40
2.500000000
100
AcDbArc
 50
90.000000000
 51
180.000000000
  0
LINE
  5
C61
330
A02
100
AcDbEntity
  8
Shape2DView009
100
AcDbLine
 10
87.853603855
 20
45.966093994
 30
0.000000000
 11
91.100634855
 21
37.044949642
 31
0.000000000
  0
LINE
  5
C62
330
A02
100
AcDbEntity
  8
Shape2DView009
100
AcDbLine
 10
-4.500000000
 20
87.700000000
 30
0.000000000
 11
-4.500000000
 21
2.900000000
 31
0.000000000
  0
ARC
  5
C63
330
A02
100
AcDbEntity
  8
Shape2DView009
100
AcDbCircle
 10
85.504372303
 20
45.111043635
 30
0.000000000
 40
2.500000000
100
AcDbArc
 50
20.000000000
 51
110.000000000
  0
ARC
  5
C64
330
A02
100
AcDbEntity
  8
Shape2DView009
100
AcDbCircle
 10
-2.000000000
 20
2.900000000
 30
0.000000000
 40
2.500000000
100
AcDbArc
 50
180.000000000
 51
-90.000000000
  0
LINE
  5
C65
330
A02
100
AcDbEntity
  8
Shape2DView009
100
AcDbLine
 10
46.944949642
 20
33.737005967
 30
0.000000000
 11
84.649321945
 21
47.460275187
 31
0.000000000
  0
LINE
  5
C66
330
A02
100
AcDbEntity
  8
Shape2DView009
100
AcDbLine
 10
-2.000000000
 20
0.400000000
 30
0.000000000
 11
42.800000000
 21
0.400000000
 31
0.000000000
  0
ARC
  5
C67
330
A02
100
AcDbEntity
  8
Shape2DView009
100
AcDbCircle
 10
47.800000000
 20
31.387774415
 30
0.000000000
 40
2.500000000
100
AcDbArc
 50
110.000000000
 51
180.000000000
  0
ARC
  5
C68
330
A02
100
AcDbEntity
  8
Shape2DView009
100
AcDbCircle
 10
42.800000000
 20
2.900000000
 30
0.000000000
 40
2.500000000
100
AcDbArc
 50
-90.000000000
 51
-0.000000000
  0
LINE
  5
C69
330
A02
100
AcDbEntity
  8
Shape2DView009
100
AcDbLine
 10
45.300000000
 20
2.900000000
 30
0.000000000
 11
45.300000000
 21
31.387774415
 31
0.000000000
  0
ARC
  5
C6A
330
A02
100
AcDbEntity
  8
Shape2DView009
100
AcDbCircle
 10
100.550000000
 20
40.833012702
 30
0.000000000
 40
0.250000000
100
AcDbArc
 50
180.000000000
 51
-120.000000000
  0
ARC
  5
C6B
330
A02
100
AcDbEntity
  8
Shape2DView009
100
AcDbCircle
 10
100.300000000
 20
40.400000000
 30
0.000000000
 40
0.250000000
100
AcDbArc
 50
-150.000000000
 51
60.000000000
  0
ARC
  5
C6C
330
A02
100
AcDbEntity
  8
Shape2DView009
100
AcDbCircle
 10
99.866987298
 20
40.150000000
 30
0.000000000
 40
0.250000000
100
AcDbArc
 50
30.000000000
 51
90.000000000
  0
LINE
  5
C6D
330
A02
100
AcDbEntity
  8
Shape2DView009
100
AcDbLine
 10
95.633397954
 20
40.400000000
 30
0.000000000
 11
99.866987298
 21
40.400000000
 31
0.000000000
  0
ARC
  5
C6E
330
A02
100
AcDbEntity
  8
Shape2DView009
100
AcDbCircle
 10
95.633397954
 20
40.150000000
 30
0.000000000
 40
0.250000000
100
AcDbArc
 50
90.000000000
 51
150.000000000
  0
ARC
  5
C6F
330
A02
100
AcDbEntity
  8
Shape2DView009
100
AcDbCircle
 10
95.200385252
 20
40.400000000
 30
0.000000000
 40
0.250000000
100
AcDbArc
 50
140.000000000
 51
-30.000000000
  0
ARC
  5
C70
330
A02
100
AcDbEntity
  8
Shape2DView009
100
AcDbCircle
 10
94.817363031
 20
40.721393805
 30
0.000000000
 40
0.250000000
100
AcDbArc
 50
-40.000000000
 51
20.000000000
  0
LINE
  5
C71
330
A02
100
AcDbEntity
  8
Shape2DView009
100
AcDbLine
 10
90.328936027
 20
53.784196745
 30
0.000000000
 11
95.052286186
 21
40.806898841
 31
0.000000000
  0
ARC
  5
C72
330
A02
100
AcDbEntity
  8
Shape2DView009
100
AcDbCircle
 10
89.389243407
 20
53.442176602
 30
0.000000000
 40
1.000000000
100
AcDbArc
 50
20.000000000
 51
110.000000000
  0
LINE
  5
C73
330
A02
100
AcDbEntity
  8
Shape2DView009
100
AcDbLine
 10
40.957979857
 20
36.878816034
 30
0.000000000
 11
89.047223263
 21
54.381869223
 31
0.000000000
  0
ARC
  5
C74
330
A02
100
AcDbEntity
  8
Shape2DView009
100
AcDbCircle
 10
41.300000000
 20
35.939123414
 30
0.000000000
 40
1.000000000
100
AcDbArc
 50
110.000000000
 51
180.000000000
  0
LINE
  5
C75
330
A02
100
AcDbEntity
  8
Shape2DView009
100
AcDbLine
 10
40.300000000
 20
5.833012702
 30
0.000000000
 11
40.300000000
 21
35.939123414
 31
0.000000000
  0
ARC
  5
C76
330
A02
100
AcDbEntity
  8
Shape2DView009
100
AcDbCircle
 10
40.550000000
 20
5.833012702
 30
0.000000000
 40
0.250000000
100
AcDbArc
 50
-180.000000000
 51
-120.000000000
  0
ARC
  5
C77
330
A02
100
AcDbEntity
  8
Shape2DView009
100
AcDbCircle
 10
40.300000000
 20
5.400000000
 30
0.000000000
 40
0.250000000
100
AcDbArc
 50
-150.000000000
 51
60.000000000
  0
ARC
  5
C78
330
A02
100
AcDbEntity
  8
Shape2DView009
100
AcDbCircle
 10
39.866987298
 20
5.150000000
 30
0.000000000
 40
0.250000000
100
AcDbArc
 50
30.000000000
 51
90.000000000
  0
LINE
  5
C79
330
A02
100
AcDbEntity
  8
Shape2DView009
100
AcDbLine
 10
0.933012702
 20
5.400000000
 30
0.000000000
 11
39.866987298
 21
5.400000000
 31
0.000000000
  0
ARC
  5
C7A
330
A02
100
AcDbEntity
  8
Shape2DView009
100
AcDbCircle
 10
0.933012702
 20
5.150000000
 30
0.000000000
 40
0.250000000
100
AcDbArc
 50
89.999999996
 51
150.000000000
  0
ARC
  5
C7B
330
A02
100
AcDbEntity
  8
Shape2DView009
100
AcDbCircle
 10
0.500000000
 20
5.400000000
 30
0.000000000
 40
0.250000000
100
AcDbArc
 50
120.000000000
 51
-30.000000000
  0
ARC
  5
C7C
330
A02
100
AcDbEntity
  8
Shape2DView009
100
AcDbCircle
 10
0.250000000
 20
5.833012702
 30
0.000000000
 40
0.250000000
100
AcDbArc
 50
-60.000000000
 51
0.000000000
  0
LINE
  5
C7D
330
A02
100
AcDbEntity
  8
Shape2DView009
100
AcDbLine
 10
0.500000000
 20
84.766987298
 30
0.000000000
 11
0.500000000
 21
5.833012702
 31
0.000000000
  0
ARC
  5
C7E
330
A02
100
AcDbEntity
  8
Shape2DView009
100
AcDbCircle
 10
0.250000000
 20
84.766987298
 30
0.000000000
 40
0.250000000
100
AcDbArc
 50
0.000000000
 51
60.000000000
  0
ARC
  5
C7F
330
A02
100
AcDbEntity
  8
Shape2DView009
100
AcDbCircle
 10
0.500000000
 20
85.200000000
 30
0.000000000
 40
0.250000000
100
AcDbArc
 50
30.000000000
 51
-120.000000000
  0
ARC
  5
C80
330
A02
100
AcDbEntity
  8
Shape2DView009
100
AcDbCircle
 10
0.933012702
 20
85.450000000
 30
0.000000000
 40
0.250000000
100
AcDbArc
 50
-150.000000000
 51
-90.000000000
  0
LINE
  5
C81
330
A02
100
AcDbEntity
  8
Shape2DView009
100
AcDbLine
 10
99.866987298
 20
85.200000000
 30
0.000000000
 11
0.933012702
 21
85.200000000
 31
0.000000000
  0
ARC
  5
C82
330
A02
100
AcDbEntity
  8
Shape2DView009
100
AcDbCircle
 10
99.866987298
 20
85.450000000
 30
0.000000000
 40
0.250000000
100
AcDbArc
 50
-90.000000000
 51
-30.000000000
  0
ARC
  5
C83
330
A02
100
AcDbEntity
  8
Shape2DView009
100
AcDbCircle
 10
100.300000000
 20
85.200000000
 30
0.000000000
 40
0.250000000
100
AcDbArc
 50
-60.000000000
 51
150.000000000
  0
ARC
  5
C84
330
A02
100
AcDbEntity
  8
Shape2DView009
100
AcDbCircle
 10
100.550000000
 20
84.766987298
 30
0.000000000
 40
0.250000000
100
AcDbArc
 50
120.000000000
 51
180.000000000
  0
LINE
  5
C85
330
A02
100
AcDbEntity
  8
Shape2DView009
100
AcDbLine
 10
100.300000000
 20
40.833012702
 30
0.000000000
 11
100.300000000
 21
84.766987298
 31
0.000000000
  0
LINE
  5
C86
330
A02
100
AcDbEntity
  8
Shape2DView010
100
AcDbLine
 10
113.000000000
 20
37.900000000
 30
0.000000000
 11
113.000000000
 21
87.700000000
 31
0.000000000
  0
ARC
  5
C87
330
A02
100
AcDbEntity
  8
Shape2DView010
100
AcDbCircle
 10
115.500000000
 20
37.900000000
 30
0.000000000
 40
2.500000000
100
AcDbArc
 50
180.000000000
 51
-90.000000000
  0
ARC
  5
C88
330
A02
100
AcDbEntity
  8
Shape2DView010
100
AcDbCircle
 10
115.500000000
 20
87.700000000
 30
0.000000000
 40
2.500000000
100
AcDbArc
 50
90.000000000
 51
180.000000000
  0
LINE
  5
C89
330
A02
100
AcDbEntity
  8
Shape2DView010
100
AcDbLine
 10
124.850133593
 20
35.400000000
 30
0.000000000
 11
115.500000000
 21
35.400000000
 31
0.000000000
  0
LINE
  5
C8A
330
A02
100
AcDbEntity
  8
Shape2DView010
100
AcDbLine
 10
115.500000000
 20
90.200000000
 30
0.000000000
 11
220.300000000
 21
90.200000000
 31
0.000000000
  0
ARC
  5
C8B
330
A02
100
AcDbEntity
  8
Shape2DView010
100
AcDbCircle
 10
124.850133593
 20
37.900000000
 30
0.000000000
 40
2.500000000
100
AcDbArc
 50
-90.000000000
 51
-20.000000000
  0
ARC
  5
C8C
330
A02
100
AcDbEntity
  8
Shape2DView010
100
AcDbCircle
 10
220.300000000
 20
87.700000000
 30
0.000000000
 40
2.500000000
100
AcDbArc
 50
0.000000000
 51
90.000000000
  0
LINE
  5
C8D
330
A02
100
AcDbEntity
  8
Shape2DView010
100
AcDbLine
 10
130.446396145
 20
45.966093994
 30
0.000000000
 11
127.199365145
 21
37.044949642
 31
0.000000000
  0
LINE
  5
C8E
330
A02
100
AcDbEntity
  8
Shape2DView010
100
AcDbLine
 10
222.800000000
 20
87.700000000
 30
0.000000000
 11
222.800000000
 21
2.900000000
 31
0.000000000
  0
ARC
  5
C8F
330
A02
100
AcDbEntity
  8
Shape2DView010
100
AcDbCircle
 10
132.795627697
 20
45.111043635
 30
0.000000000
 40
2.500000000
100
AcDbArc
 50
70.000000000
 51
160.000000000
  0
ARC
  5
C90
330
A02
100
AcDbEntity
  8
Shape2DView010
100
AcDbCircle
 10
220.300000000
 20
2.900000000
 30
0.000000000
 40
2.500000000
100
AcDbArc
 50
-90.000000000
 51
0.000000000
  0
LINE
  5
C91
330
A02
100
AcDbEntity
  8
Shape2DView010
100
AcDbLine
 10
171.355050358
 20
33.737005967
 30
0.000000000
 11
133.650678055
 21
47.460275187
 31
0.000000000
  0
LINE
  5
C92
330
A02
100
AcDbEntity
  8
Shape2DView010
100
AcDbLine
 10
220.300000000
 20
0.400000000
 30
0.000000000
 11
175.500000000
 21
0.400000000
 31
0.000000000
  0
ARC
  5
C93
330
A02
100
AcDbEntity
  8
Shape2DView010
100
AcDbCircle
 10
170.500000000
 20
31.387774415
 30
0.000000000
 40
2.500000000
100
AcDbArc
 50
0.000000000
 51
70.000000000
  0
ARC
  5
C94
330
A02
100
AcDbEntity
  8
Shape2DView010
100
AcDbCircle
 10
175.500000000
 20
2.900000000
 30
0.000000000
 40
2.500000000
100
AcDbArc
 50
-180.000000000
 51
-90.000000000
  0
LINE
  5
C95
330
A02
100
AcDbEntity
  8
Shape2DView010
100
AcDbLine
 10
173.000000000
 20
2.900000000
 30
0.000000000
 11
173.000000000
 21
31.387774415
 31
0.000000000
  0
ARC
  5
C96
330
A02
100
AcDbEntity
  8
Shape2DView010
100
AcDbCircle
 10
117.750000000
 20
40.833012702
 30
0.000000000
 40
0.250000000
100
AcDbArc
 50
-60.000000000
 51
0.000000000
  0
ARC
  5
C97
330
A02
100
AcDbEntity
  8
Shape2DView010
100
AcDbCircle
 10
118.000000000
 20
40.400000000
 30
0.000000000
 40
0.250000000
100
AcDbArc
 50
120.000000000
 51
-30.000000000
  0
ARC
  5
C98
330
A02
100
AcDbEntity
  8
Shape2DView010
100
AcDbCircle
 10
118.433012702
 20
40.150000000
 30
0.000000000
 40
0.250000000
100
AcDbArc
 50
90.000000000
 51
150.000000000
  0
LINE
  5
C99
330
A02
100
AcDbEntity
  8
Shape2DView010
100
AcDbLine
 10
122.666602046
 20
40.400000000
 30
0.000000000
 11
118.433012702
 21
40.400000000
 31
0.000000000
  0
ARC
  5
C9A
330
A02
100
AcDbEntity
  8
Shape2DView010
100
AcDbCircle
 10
122.666602046
 20
40.150000000
 30
0.000000000
 40
0.250000000
100
AcDbArc
 50
30.000000000
 51
90.000000000
  0
ARC
  5
C9B
330
A02
100
AcDbEntity
  8
Shape2DView010
100
AcDbCircle
 10
123.099614748
 20
40.400000000
 30
0.000000000
 40
0.250000000
100
AcDbArc
 50
-150.000000000
 51
40.000000000
  0
ARC
  5
C9C
330
A02
100
AcDbEntity
  8
Shape2DView010
100
AcDbCircle
 10
123.482636969
 20
40.721393805
 30
0.000000000
 40
0.250000000
100
AcDbArc
 50
160.000000000
 51
-140.000000000
  0
LINE
  5
C9D
330
A02
100
AcDbEntity
  8
Shape2DView010
100
AcDbLine
 10
127.971063973
 20
53.784196745
 30
0.000000000
 11
123.247713814
 21
40.806898841
 31
0.000000000
  0
ARC
  5
C9E
330
A02
100
AcDbEntity
  8
Shape2DView010
100
AcDbCircle
 10
128.910756593
 20
53.442176602
 30
0.000000000
 40
1.000000000
100
AcDbArc
 50
70.000000000
 51
160.000000000
  0
LINE
  5
C9F
330
A02
100
AcDbEntity
  8
Shape2DView010
100
AcDbLine
 10
177.342020143
 20
36.878816034
 30
0.000000000
 11
129.252776737
 21
54.381869223
 31
0.000000000
  0
ARC
  5
CA0
330
A02
100
AcDbEntity
  8
Shape2DView010
100
AcDbCircle
 10
177.000000000
 20
35.939123414
 30
0.000000000
 40
1.000000000
100
AcDbArc
 50
0.000000000
 51
70.000000000
  0
LINE
  5
CA1
330
A02
100
AcDbEntity
  8
Shape2DView010
100
AcDbLine
 10
178.000000000
 20
5.833012702
 30
0.000000000
 11
178.000000000
 21
35.939123414
 31
0.000000000
  0
ARC
  5
CA2
330
A02
100
AcDbEntity
  8
Shape2DView010
100
AcDbCircle
 10
177.750000000
 20
5.833012702
 30
0.000000000
 40
0.250000000
100
AcDbArc
 50
-60.000000000
 51
-0.000000000
  0
ARC
  5
CA3
330
A02
100
AcDbEntity
  8
Shape2DView010
100
AcDbCircle
 10
178.000000000
 20
5.400000000
 30
0.000000000
 40
0.250000000
100
AcDbArc
 50
120.000000000
 51
-30.000000000
  0
ARC
  5
CA4
330
A02
100
AcDbEntity
  8
Shape2DView010
100
AcDbCircle
 10
178.433012702
 20
5.150000000
 30
0.000000000
 40
0.250000000
100
AcDbArc
 50
90.000000000
 51
150.000000000
  0
LINE
  5
CA5
330
A02
100
AcDbEntity
  8
Shape2DView010
100
AcDbLine
 10
217.366987298
 20
5.400000000
 30
0.000000000
 11
178.433012702
 21
5.400000000
 31
0.000000000
  0
ARC
  5
CA6
330
A02
100
AcDbEntity
  8
Shape2DView010
100
AcDbCircle
 10
217.366987298
 20
5.150000000
 30
0.000000000
 40
0.250000000
100
AcDbArc
 50
30.000000000
 51
90.000000004
  0
ARC
  5
CA7
330
A02
100
AcDbEntity
  8
Shape2DView010
100
AcDbCircle
 10
217.800000000
 20
5.400000000
 30
0.000000000
 40
0.250000000
100
AcDbArc
 50
-150.000000000
 51
60.000000000
  0
ARC
  5
CA8
330
A02
100
AcDbEntity
  8
Shape2DView010
100
AcDbCircle
 10
218.050000000
 20
5.833012702
 30
0.000000000
 40
0.250000000
100
AcDbArc
 50
180.000000000
 51
-120.000000000
  0
LINE
  5
CA9
330
A02
100
AcDbEntity
  8
Shape2DView010
100
AcDbLine
 10
217.800000000
 20
84.766987298
 30
0.000000000
 11
217.800000000
 21
5.833012702
 31
0.000000000
  0
ARC
  5
CAA
330
A02
100
AcDbEntity
  8
Shape2DView010
100
AcDbCircle
 10
218.050000000
 20
84.766987298
 30
0.000000000
 40
0.250000000
100
AcDbArc
 50
120.000000000
 51
180.000000000
  0
ARC
  5
CAB
330
A02
100
AcDbEntity
  8
Shape2DView010
100
AcDbCircle
 10
217.800000000
 20
85.200000000
 30
0.000000000
 40
0.250000000
100
AcDbArc
 50
-60.000000000
 51
150.000000000
  0
ARC
  5
CAC
330
A02
100
AcDbEntity
  8
Shape2DView010
100
AcDbCircle
 10
217.366987298
 20
85.450000000
 30
0.000000000
 40
0.250000000
100
AcDbArc
 50
-90.000000000
 51
-30.000000000
  0
LINE
  5
CAD
330
A02
100
AcDbEntity
  8
Shape2DView010
100
AcDbLine
 10
118.433012702
 20
85.200000000
 30
0.000000000
 11
217.366987298
 21
85.200000000
 31
0.000000000
  0
ARC
  5
CAE
330
A02
100
AcDbEntity
  8
Shape2DView010
100
AcDbCircle
 10
118.433012702
 20
85.450000000
 30
0.000000000
 40
0.250000000
100
AcDbArc
 50
-150.000000000
 51
-90.000000000
  0
ARC
  5
CAF
330
A02
100
AcDbEntity
  8
Shape2DView010
100
AcDbCircle
 10
118.000000000
 20
85.200000000
 30
0.000000000
 40
0.250000000
100
AcDbArc
 50
30.000000000
 51
-120.000000000
  0
ARC
  5
CB0
330
A02
100
AcDbEntity
  8
Shape2DView010
100
AcDbCircle
 10
117.750000000
 20
84.766987298
 30
0.000000000
 40
0.250000000
100
AcDbArc
 50
0.000000000
 51
60.000000000
  0
LINE
  5
CB1
330
A02
100
AcDbEntity
  8
Shape2DView010
100
AcDbLine
 10
118.000000000
 20
40.833012702
 30
0.000000000
 11
118.000000000
 21
84.766987298
 31
0.000000000
  0
LINE
  5
CB2
330
A02
100
AcDbEntity
  8
Shape2DView012
100
AcDbLine
 10
149.200000000
 20
173.624465861
 30
0.000000000
 11
149.200000000
 21
197.195920641
 31
0.000000000
  0
LINE
  5
CB3
330
A02
100
AcDbEntity
  8
Shape2DView012
100
AcDbLine
 10
149.200000000
 20
197.195920641
 30
0.000000000
 11
163.193350000
 21
197.195920641
 31
0.000000000
  0
LINE
  5
CB4
330
A02
100
AcDbEntity
  8
Shape2DView012
100
AcDbLine
 10
163.193350000
 20
197.195920641
 30
0.000000000
 11
163.193350000
 21
194.621259959
 31
0.000000000
  0
ARC
  5
CB5
330
A02
100
AcDbEntity
  8
Shape2DView012
100
AcDbCircle
 10
163.292905000
 20
194.448825641
 30
0.000000000
 40
0.199110000
100
AcDbArc
 50
120.000000000
 51
-90.000000000
  0
ARC
  5
CB6
330
A02
100
AcDbEntity
  8
Shape2DView012
100
AcDbCircle
 10
163.292905000
 20
194.448825641
 30
0.000000000
 40
0.199110000
100
AcDbArc
 50
-90.000000000
 51
-30.000000000
  0
LINE
  5
CB7
330
A02
100
AcDbEntity
  8
Shape2DView012
100
AcDbLine
 10
163.465339318
 20
194.349270641
 30
0.000000000
 11
172.734660682
 21
194.349270641
 31
0.000000000
  0
ARC
  5
CB8
330
A02
100
AcDbEntity
  8
Shape2DView012
100
AcDbCircle
 10
172.907095000
 20
194.448825641
 30
0.000000000
 40
0.199110000
100
AcDbArc
 50
-150.000000000
 51
-90.000000000
  0
ARC
  5
CB9
330
A02
100
AcDbEntity
  8
Shape2DView012
100
AcDbCircle
 10
172.907095000
 20
194.448825641
 30
0.000000000
 40
0.199110000
100
AcDbArc
 50
-90.000000000
 51
60.000000000
  0
LINE
  5
CBA
330
A02
100
AcDbEntity
  8
Shape2DView012
100
AcDbLine
 10
173.006650000
 20
197.195920641
 30
0.000000000
 11
173.006650000
 21
194.621259959
 31
0.000000000
  0
LINE
  5
CBB
330
A02
100
AcDbEntity
  8
Shape2DView012
100
AcDbLine
 10
173.006650000
 20
197.195920641
 30
0.000000000
 11
200.993350000
 21
197.195920641
 31
0.000000000
  0
LINE
  5
CBC
330
A02
100
AcDbEntity
  8
Shape2DView012
100
AcDbLine
 10
200.993350000
 20
197.195920641
 30
0.000000000
 11
200.993350000
 21
194.621259959
 31
0.000000000
  0
ARC
  5
CBD
330
A02
100
AcDbEntity
  8
Shape2DView012
100
AcDbCircle
 10
201.092905000
 20
194.448825641
 30
0.000000000
 40
0.199110000
100
AcDbArc
 50
120.000000000
 51
-90.000000000
  0
ARC
  5
CBE
330
A02
100
AcDbEntity
  8
Shape2DView012
100
AcDbCircle
 10
201.092905000
 20
194.448825641
 30
0.000000000
 40
0.199110000
100
AcDbArc
 50
-90.000000000
 51
-30.000000000
  0
LINE
  5
CBF
330
A02
100
AcDbEntity
  8
Shape2DView012
100
AcDbLine
 10
201.265339318
 20
194.349270641
 30
0.000000000
 11
210.534660682
 21
194.349270641
 31
0.000000000
  0
ARC
  5
CC0
330
A02
100
AcDbEntity
  8
Shape2DView012
100
AcDbCircle
 10
210.707095000
 20
194.448825641
 30
0.000000000
 40
0.199110000
100
AcDbArc
 50
-150.000000000
 51
-90.000000000
  0
ARC
  5
CC1
330
A02
100
AcDbEntity
  8
Shape2DView012
100
AcDbCircle
 10
210.707095000
 20
194.448825641
 30
0.000000000
 40
0.199110000
100
AcDbArc
 50
-90.000000000
 51
60.000000000
  0
LINE
  5
CC2
330
A02
100
AcDbEntity
  8
Shape2DView012
100
AcDbLine
 10
210.806650000
 20
197.195920641
 30
0.000000000
 11
210.806650000
 21
194.621259959
 31
0.000000000
  0
LINE
  5
CC3
330
A02
100
AcDbEntity
  8
Shape2DView012
100
AcDbLine
 10
210.806650000
 20
197.195920641
 30
0.000000000
 11
224.800000000
 21
197.195920641
 31
0.000000000
  0
LINE
  5
CC4
330
A02
100
AcDbEntity
  8
Shape2DView012
100
AcDbLine
 10
224.800000000
 20
197.195920641
 30
0.000000000
 11
224.800000000
 21
173.624465861
 31
0.000000000
  0
LINE
  5
CC5
330
A02
100
AcDbEntity
  8
Shape2DView012
100
AcDbLine
 10
222.225339318
 20
173.624465861
 30
0.000000000
 11
224.800000000
 21
173.624465861
 31
0.000000000
  0
ARC
  5
CC6
330
A02
100
AcDbEntity
  8
Shape2DView012
100
AcDbCircle
 10
222.052905000
 20
173.524910861
 30
0.000000000
 40
0.199110000
100
AcDbArc
 50
30.000000000
 51
-120.000000000
  0
LINE
  5
CC7
330
A02
100
AcDbEntity
  8
Shape2DView012
100
AcDbLine
 10
221.953350000
 20
173.352476543
 30
0.000000000
 11
221.953350000
 21
164.083155180
 31
0.000000000
  0
ARC
  5
CC8
330
A02
100
AcDbEntity
  8
Shape2DView012
100
AcDbCircle
 10
222.052905000
 20
163.910720861
 30
0.000000000
 40
0.199110000
100
AcDbArc
 50
120.000000000
 51
-30.000000000
  0
LINE
  5
CC9
330
A02
100
AcDbEntity
  8
Shape2DView012
100
AcDbLine
 10
222.225339318
 20
163.811165861
 30
0.000000000
 11
224.800000000
 21
163.811165861
 31
0.000000000
  0
LINE
  5
CCA
330
A02
100
AcDbEntity
  8
Shape2DView012
100
AcDbLine
 10
224.800000000
 20
163.811165861
 30
0.000000000
 11
224.800000000
 21
140.800292189
 31
0.000000000
  0
LINE
  5
CCB
330
A02
100
AcDbEntity
  8
Shape2DView012
100
AcDbLine
 10
224.800000000
 20
140.800292189
 30
0.000000000
 11
222.000000000
 21
140.800292189
 31
0.000000000
  0
LINE
  5
CCC
330
A02
100
AcDbEntity
  8
Shape2DView012
100
AcDbLine
 10
222.000000000
 20
140.800292189
 30
0.000000000
 11
222.000000000
 21
139.400292189
 31
0.000000000
  0
LINE
  5
CCD
330
A02
100
AcDbEntity
  8
Shape2DView012
100
AcDbLine
 10
222.000000000
 20
139.400292189
 30
0.000000000
 11
210.861957243
 21
139.400292189
 31
0.000000000
  0
ELLIPSE
  5
CCE
330
A02
100
AcDbEntity
  8
Shape2DView012
100
AcDbEllipse
 10
210.710206667
 20
139.273583385
 30
0.000000000
 11
0.000000000
 21
0.205265703
 31
0.000000000
 40
0.939692621
 41
5.377684492
 42
5.759586532
  0
LINE
  5
CCF
330
A02
100
AcDbEntity
  8
Shape2DView012
100
AcDbLine
 10
210.806650000
 20
141.969537917
 30
0.000000000
 11
210.806650000
 21
139.451348698
 31
0.000000000
  0
ELLIPSE
  5
CD0
330
A02
100
AcDbEntity
  8
Shape2DView012
100
AcDbEllipse
 10
210.710206667
 20
142.147303231
 30
0.000000000
 11
0.000000000
 21
0.205265703
 31
0.000000000
 40
0.939692621
 41
3.665191429
 42
4.712388980
  0
ELLIPSE
  5
CD1
330
A02
100
AcDbEntity
  8
Shape2DView012
100
AcDbEllipse
 10
210.710206667
 20
142.147303231
 30
0.000000000
 11
0.000000000
 21
0.205265703
 31
0.000000000
 40
0.939692621
 41
4.712388980
 42
1.047197551
  0
LINE
  5
CD2
330
A02
100
AcDbEntity
  8
Shape2DView012
100
AcDbLine
 10
210.543161913
 20
142.249936082
 30
0.000000000
 11
201.256838087
 21
142.249936082
 31
0.000000000
  0
ELLIPSE
  5
CD3
330
A02
100
AcDbEntity
  8
Shape2DView012
100
AcDbEllipse
 10
201.089793333
 20
142.147303231
 30
0.000000000
 11
0.000000000
 21
0.205265703
 31
0.000000000
 40
0.939692621
 41
5.235987756
 42
1.570796327
  0
ELLIPSE
  5
CD4
330
A02
100
AcDbEntity
  8
Shape2DView012
100
AcDbEllipse
 10
201.089793333
 20
142.147303231
 30
0.000000000
 11
0.000000000
 21
0.205265703
 31
0.000000000
 40
0.939692621
 41
1.570796327
 42
2.617993878
  0
LINE
  5
CD5
330
A02
100
AcDbEntity
  8
Shape2DView012
100
AcDbLine
 10
200.993350000
 20
141.969537917
 30
0.000000000
 11
200.993350000
 21
139.451348698
 31
0.000000000
  0
ELLIPSE
  5
CD6
330
A02
100
AcDbEntity
  8
Shape2DView012
100
AcDbEllipse
 10
201.089793333
 20
139.273583385
 30
0.000000000
 11
0.000000000
 21
0.205265703
 31
0.000000000
 40
0.939692621
 41
0.523598776
 42
0.905500815
  0
LINE
  5
CD7
330
A02
100
AcDbEntity
  8
Shape2DView012
100
AcDbLine
 10
200.938042757
 20
139.400292189
 30
0.000000000
 11
173.061957243
 21
139.400292189
 31
0.000000000
  0
ELLIPSE
  5
CD8
330
A02
100
AcDbEntity
  8
Shape2DView012
100
AcDbEllipse
 10
172.910206667
 20
139.273583385
 30
0.000000000
 11
0.000000000
 21
0.205265703
 31
0.000000000
 40
0.939692621
 41
5.377684492
 42
5.759586532
  0
LINE
  5
CD9
330
A02
100
AcDbEntity
  8
Shape2DView012
100
AcDbLine
 10
173.006650000
 20
141.969537917
 30
0.000000000
 11
173.006650000
 21
139.451348698
 31
0.000000000
  0
ELLIPSE
  5
CDA
330
A02
100
AcDbEntity
  8
Shape2DView012
100
AcDbEllipse
 10
172.910206667
 20
142.147303231
 30
0.000000000
 11
0.000000000
 21
0.205265703
 31
0.000000000
 40
0.939692621
 41
3.665191429
 42
4.712388980
  0
ELLIPSE
  5
CDB
330
A02
100
AcDbEntity
  8
Shape2DView012
100
AcDbEllipse
 10
172.910206667
 20
142.147303231
 30
0.000000000
 11
0.000000000
 21
0.205265703
 31
0.000000000
 40
0.939692621
 41
4.712388980
 42
1.047197551
  0
LINE
  5
CDC
330
A02
100
AcDbEntity
  8
Shape2DView012
100
AcDbLine
 10
172.743161913
 20
142.249936082
 30
0.000000000
 11
163.456838087
 21
142.249936082
 31
0.000000000
  0
ELLIPSE
  5
CDD
330
A02
100
AcDbEntity
  8
Shape2DView012
100
AcDbEllipse
 10
163.289793333
 20
142.147303231
 30
0.000000000
 11
0.000000000
 21
0.205265703
 31
0.000000000
 40
0.939692621
 41
5.235987756
 42
1.570796327
  0
ELLIPSE
  5
CDE
330
A02
100
AcDbEntity
  8
Shape2DView012
100
AcDbEllipse
 10
163.289793333
 20
142.147303231
 30
0.000000000
 11
0.000000000
 21
0.205265703
 31
0.000000000
 40
0.939692621
 41
1.570796327
 42
2.617993878
  0
LINE
  5
CDF
330
A02
100
AcDbEntity
  8
Shape2DView012
100
AcDbLine
 10
163.193350000
 20
141.969537917
 30
0.000000000
 11
163.193350000
 21
139.451348698
 31
0.000000000
  0
ELLIPSE
  5
CE0
330
A02
100
AcDbEntity
  8
Shape2DView012
100
AcDbEllipse
 10
163.289793333
 20
139.273583385
 30
0.000000000
 11
0.000000000
 21
0.205265703
 31
0.000000000
 40
0.939692621
 41
0.523598776
 42
0.905500815
  0
LINE
  5
CE1
330
A02
100
AcDbEntity
  8
Shape2DView012
100
AcDbLine
 10
163.138042757
 20
139.400292189
 30
0.000000000
 11
152.000000000
 21
139.400292189
 31
0.000000000
  0
LINE
  5
CE2
330
A02
100
AcDbEntity
  8
Shape2DView012
100
AcDbLine
 10
152.000000000
 20
139.400292189
 30
0.000000000
 11
152.000000000
 21
140.800292189
 31
0.000000000
  0
LINE
  5
CE3
330
A02
100
AcDbEntity
  8
Shape2DView012
100
AcDbLine
 10
152.000000000
 20
140.800292189
 30
0.000000000
 11
149.200000000
 21
140.800292189
 31
0.000000000
  0
LINE
  5
CE4
330
A02
100
AcDbEntity
  8
Shape2DView012
100
AcDbLine
 10
149.200000000
 20
140.800292189
 30
0.000000000
 11
149.200000000
 21
163.811165861
 31
0.000000000
  0
LINE
  5
CE5
330
A02
100
AcDbEntity
  8
Shape2DView012
100
AcDbLine
 10
149.200000000
 20
163.811165861
 30
0.000000000
 11
151.774660682
 21
163.811165861
 31
0.000000000
  0
ARC
  5
CE6
330
A02
100
AcDbEntity
  8
Shape2DView012
100
AcDbCircle
 10
151.947095000
 20
163.910720861
 30
0.000000000
 40
0.199110000
100
AcDbArc
 50
-150.000000000
 51
0.000000000
  0
ARC
  5
CE7
330
A02
100
AcDbEntity
  8
Shape2DView012
100
AcDbCircle
 10
151.947095000
 20
163.910720861
 30
0.000000000
 40
0.199110000
100
AcDbArc
 50
0.000000000
 51
60.000000000
  0
LINE
  5
CE8
330
A02
100
AcDbEntity
  8
Shape2DView012
100
AcDbLine
 10
152.046650000
 20
173.352476543
 30
0.000000000
 11
152.046650000
 21
164.083155180
 31
0.000000000
  0
ARC
  5
CE9
330
A02
100
AcDbEntity
  8
Shape2DView012
100
AcDbCircle
 10
151.947095000
 20
173.524910861
 30
0.000000000
 40
0.199110000
100
AcDbArc
 50
-60.000000000
 51
0.000000000
  0
ARC
  5
CEA
330
A02
100
AcDbEntity
  8
Shape2DView012
100
AcDbCircle
 10
151.947095000
 20
173.524910861
 30
0.000000000
 40
0.199110000
100
AcDbArc
 50
0.000000000
 51
150.000000000
  0
LINE
  5
CEB
330
A02
100
AcDbEntity
  8
Shape2DView012
100
AcDbLine
 10
149.200000000
 20
173.624465861
 30
0.000000000
 11
151.774660682
 21
173.624465861
 31
0.000000000
  0
CIRCLE
  5
CEC
330
A02
100
AcDbEntity
  8
Shape2DView012
100
AcDbCircle
 10
181.000000000
 20
148.400292189
 30
0.000000000
 40
2.000000000
  0
ENDSEC
  0
SECTION
  2
OBJECTS
  0
DICTIONARY
  5
F000
330
0
100
AcDbDictionary
  3
ACAD_GROUP
350
F001
  0
DICTIONARY
  5
F001
330
F000
100
AcDbDictionary
  0
ENDSEC
  0
EOF