999
dxfrw 0.6.3
  0
SECTION
  2
HEADER
  9
$ACADVER
  1
AC1021
  9
$DWGCODEPAGE
  3
ANSI_1252
  9
$INSBASE
 10
0
 20
0
 30
0
  9
$EXTMIN
 10
-81
 20
-4.999999999999972
 30
0
  9
$EXTMAX
 10
155.6
 20
214.457369353
 30
0
  9
$LIMMIN
 10
0
 20
0
  9
$LIMMAX
 10
420
 20
297
  9
$ORTHOMODE
 70
    0
  9
$REGENMODE
 70
    1
  9
$FILLMODE
 70
    1
  9
$QTEXTMODE
 70
    0
  9
$MIRRTEXT
 70
    0
  9
$LTSCALE
 40
1
  9
$ATTMODE
 70
    0
  9
$TEXTSIZE
 40
2.5
  9
$TRACEWID
 40
15.68
  9
$TEXTSTYLE
  7
STANDARD
  9
$CLAYER
  8
0
  9
$CELTYPE
  6
BYLAYER
  9
$CECOLOR
 62
  256
  9
$CELTSCALE
 40
1
  9
$DISPSILH
 70
    0
  9
$DIMSCALE
 40
2.5
  9
$DIMASZ
 40
2.5
  9
$DIMEXO
 40
0.625
  9
$DIMDLI
 40
3.75
  9
$DIMRND
 40
0
  9
$DIMDLE
 40
0
  9
$DIMEXE
 40
1.25
  9
$DIMTP
 40
0
  9
$DIMTM
 40
0
  9
$DIMTXT
 40
2.5
  9
$DIMCEN
 40
2.5
  9
$DIMTSZ
 40
0
  9
$DIMTOL
 70
    0
  9
$DIMLIM
 70
    0
  9
$DIMTIH
 70
    0
  9
$DIMTOH
 70
    0
  9
$DIMSE1
 70
    0
  9
$DIMSE2
 70
    0
  9
$DIMTAD
 70
    1
  9
$DIMZIN
 70
    8
  9
$DIMBLK
  1

  9
$DIMASO
 70
    1
  9
$DIMSHO
 70
    1
  9
$DIMPOST
  1

  9
$DIMAPOST
  1

  9
$DIMALT
 70
    0
  9
$DIMALTD
 70
    3
  9
$DIMALTF
 40
0.03937
  9
$DIMLFAC
 40
1
  9
$DIMTOFL
 70
    1
  9
$DIMTVP
 40
0
  9
$DIMTIX
 70
    0
  9
$DIMSOXD
 70
    0
  9
$DIMSAH
 70
    0
  9
$DIMBLK1
  1

  9
$DIMBLK2
  1

  9
$DIMSTYLE
  2
STANDARD
  9
$DIMCLRD
 70
    0
  9
$DIMCLRE
 70
    0
  9
$DIMCLRT
 70
    0
  9
$DIMTFAC
 40
1
  9
$DIMGAP
 40
0.625
  9
$DIMJUST
 70
    0
  9
$DIMSD1
 70
    0
  9
$DIMSD2
 70
    0
  9
$DIMTOLJ
 70
    0
  9
$DIMTZIN
 70
    8
  9
$DIMALTZ
 70
    0
  9
$DIMALTTZ
 70
    0
  9
$DIMUPT
 70
    0
  9
$DIMDEC
 70
    2
  9
$DIMTDEC
 70
    2
  9
$DIMALTU
 70
    2
  9
$DIMALTTD
 70
    3
  9
$DIMTXSTY
  7
STANDARD
  9
$DIMAUNIT
 70
    0
  9
$DIMADEC
 70
    0
  9
$DIMALTRND
 40
0
  9
$DIMAZIN
 70
    0
  9
$DIMDSEP
 70
   44
  9
$DIMATFIT
 70
    3
  9
$DIMFRAC
 70
    0
  9
$DIMLDRBLK
  1
STANDARD
  9
$DIMLUNIT
 70
    2
  9
$DIMLWD
 70
   -2
  9
$DIMLWE
 70
   -2
  9
$DIMTMOVE
 70
    0
  9
$DIMFXL
 40
1
  9
$DIMFXLON
 70
    0
  9
$DIMJOGANG
 40
0.7854
  9
$DIMTFILL
 70
    0
  9
$DIMTFILLCLR
 70
    0
  9
$DIMARCSYM
 70
    0
  9
$DIMLTYPE
  6

  9
$DIMLTEX1
  6

  9
$DIMLTEX2
  6

  9
$LUNITS
 70
    2
  9
$LUPREC
 70
    4
  9
$SKETCHINC
 40
1
  9
$FILLETRAD
 40
0
  9
$AUNITS
 70
    0
  9
$AUPREC
 70
    2
  9
$MENU
  1
.
  9
$ELEVATION
 40
0
  9
$PELEVATION
 40
0
  9
$THICKNESS
 40
0
  9
$LIMCHECK
 70
    0
  9
$CHAMFERA
 40
0
  9
$CHAMFERB
 40
0
  9
$CHAMFERC
 40
0
  9
$CHAMFERD
 40
0
  9
$SKPOLY
 70
    0
  9
$USRTIMER
 70
    1
  9
$ANGBASE
 50
0
  9
$ANGDIR
 70
    0
  9
$PDMODE
 70
   34
  9
$PDSIZE
 40
0
  9
$PLINEWID
 40
0
  9
$SPLFRAME
 70
    0
  9
$SPLINETYPE
 70
    2
  9
$SPLINESEGS
 70
    8
  9
$HANDSEED
  5
20000
  9
$SURFTAB1
 70
    6
  9
$SURFTAB2
 70
    6
  9
$SURFTYPE
 70
    6
  9
$SURFU
 70
    6
  9
$SURFV
 70
    6
  9
$UCSBASE
  2

  9
$UCSNAME
  2

  9
$UCSORG
 10
0
 20
0
 30
0
  9
$UCSXDIR
 10
1
 20
0
 30
0
  9
$UCSYDIR
 10
0
 20
1
 30
0
  9
$UCSORTHOREF
  2

  9
$UCSORTHOVIEW
 70
    0
  9
$UCSORGTOP
 10
0
 20
0
 30
0
  9
$UCSORGBOTTOM
 10
0
 20
0
 30
0
  9
$UCSORGLEFT
 10
0
 20
0
 30
0
  9
$UCSORGRIGHT
 10
0
 20
0
 30
0
  9
$UCSORGFRONT
 10
0
 20
0
 30
0
  9
$UCSORGBACK
 10
0
 20
0
 30
0
  9
$PUCSBASE
  2

  9
$PUCSNAME
  2

  9
$PUCSORG
 10
0
 20
0
 30
0
  9
$PUCSXDIR
 10
1
 20
0
 30
0
  9
$PUCSYDIR
 10
0
 20
1
 30
0
  9
$PUCSORTHOREF
  2

  9
$PUCSORTHOVIEW
 70
    0
  9
$PUCSORGTOP
 10
0
 20
0
 30
0
  9
$PUCSORGBOTTOM
 10
0
 20
0
 30
0
  9
$PUCSORGLEFT
 10
0
 20
0
 30
0
  9
$PUCSORGRIGHT
 10
0
 20
0
 30
0
  9
$PUCSORGFRONT
 10
0
 20
0
 30
0
  9
$PUCSORGBACK
 10
0
 20
0
 30
0
  9
$USERI1
 70
    0
  9
$USERI2
 70
    0
  9
$USERI3
 70
    0
  9
$USERI4
 70
    0
  9
$USERI5
 70
    0
  9
$USERR1
 40
0
  9
$USERR2
 40
0
  9
$USERR3
 40
0
  9
$USERR4
 40
0
  9
$USERR5
 40
0
  9
$WORLDVIEW
 70
    1
  9
$SHADEDGE
 70
    3
  9
$SHADEDIF
 70
   70
  9
$TILEMODE
 70
    1
  9
$MAXACTVP
 70
   64
  9
$PINSBASE
 10
0
 20
0
 30
0
  9
$PLIMCHECK
 70
    0
  9
$PEXTMIN
 10
0
 20
0
 30
0
  9
$PEXTMAX
 10
50
 20
50
 30
50
  9
$GRIDMODE
 70
    0
  9
$SNAPSTYLE
 70
    0
  9
$PLIMMIN
 10
0
 20
0
  9
$PLIMMAX
 10
210
 20
297
  9
$UNITMODE
 70
    0
  9
$VISRETAIN
 70
    1
  9
$PLINEGEN
 70
    0
  9
$PSLTSCALE
 70
    1
  9
$TREEDEPTH
 70
 3020
  9
$CMLSTYLE
  2
STANDARD
  9
$CMLJUST
 70
    0
  9
$CMLSCALE
 40
20
  9
$PROXYGRAPHICS
 70
    1
  9
$MEASUREMENT
 70
    1
  9
$CELWEIGHT
370
   -1
  9
$ENDCAPS
280
    0
  9
$JOINSTYLE
280
    0
  9
$LWDISPLAY
290
    0
  9
$INSUNITS
 70
    4
  9
$HYPERLINKBASE
  1

  9
$STYLESHEET
  1

  9
$XEDIT
290
    1
  9
$CEPSNTYPE
380
    0
  9
$PSTYLEMODE
290
    1
  9
$EXTNAMES
290
    1
  9
$PSVPSCALE
 40
1
  9
$OLESTARTUP
290
    0
  9
$SORTENTS
280
  127
  9
$INDEXCTL
280
    0
  9
$HIDETEXT
280
    1
  9
$XCLIPFRAME
290
    0
  9
$HALOGAP
280
    0
  9
$OBSCOLOR
 70
  257
  9
$OBSLTYPE
280
    0
  9
$INTERSECTIONDISPLAY
280
    0
  9
$INTERSECTIONCOLOR
 70
  257
  9
$DIMASSOC
280
    1
  9
$PROJECTNAME
  1

  9
$CAMERADISPLAY
290
    0
  9
$LENSLENGTH
 40
50
  9
$CAMERAHEIGHT
 40
0
  9
$STEPSPERSEC
 40
2
  9
$STEPSIZE
 40
50
  9
$3DDWFPREC
 40
2
  9
$PSOLWIDTH
 40
5
  9
$PSOLHEIGHT
 40
80
  9
$LOFTANG1
 40
1.570796326794897
  9
$LOFTANG2
 40
1.570796326794897
  9
$LOFTMAG1
 40
0
  9
$LOFTMAG2
 40
0
  9
$LOFTPARAM
 70
    7
  9
$LOFTNORMALS
280
    1
  9
$LATITUDE
 40
1
  9
$LONGITUDE
 40
1
  9
$NORTHDIRECTION
 40
0
  9
$TIMEZONE
 70
-8000
  9
$LIGHTGLYPHDISPLAY
280
    1
  9
$TILEMODELIGHTSYNCH
280
    1
  9
$SOLIDHIST
280
    1
  9
$SHOWHIST
280
    1
  9
$DWFFRAME
280
    2
  9
$DGNFRAME
280
    0
  9
$REALWORLDSCALE
290
    1
  9
$INTERFERECOLOR
 62
    1
  9
$CSHADOW
280
    0
  9
$SHADOWPLANELOCATION
 40
0
  0
ENDSEC
  0
SECTION
  2
CLASSES
  0
ENDSEC
  0
SECTION
  2
TABLES
  0
TABLE
  2
VPORT
  5
8
330
0
100
AcDbSymbolTable
 70
    1
  0
VPORT
  5
31
330
2
100
AcDbSymbolTableRecord
100
AcDbViewportTableRecord
  2
*ACTIVE
 70
    0
 10
0
 20
0
 11
1
 21
1
 12
158.2862739112884
 22
123.9966872215344
 13
0
 23
0
 14
10
 24
10
 15
10
 25
10
 16
0
 26
0
 36
1
 17
0
 27
0
 37
0
 40
267.7358637492908
 41
1.954721862871928
 42
50
 43
0
 44
0
 50
0
 51
0
 71
    0
 72
  100
 73
    1
 74
    3
 75
    0
 76
    0
 77
    0
 78
    0
281
    0
 65
    1
110
0
120
0
130
0
111
1
121
0
131
0
112
0
122
1
132
0
 79
    0
146
0
348
10020
 60
    7
 61
    5
292
1
282
    1
141
0
142
0
 63
  250
421
3358443
  0
ENDTAB
  0
TABLE
  2
LTYPE
  5
5
330
0
100
AcDbSymbolTable
 70
    4
  0
LTYPE
  5
14
330
5
100
AcDbSymbolTableRecord
100
AcDbLinetypeTableRecord
  2
ByBlock
 70
    0
  3

 72
   65
 73
    0
 40
0
  0
LTYPE
  5
15
330
5
100
AcDbSymbolTableRecord
100
AcDbLinetypeTableRecord
  2
ByLayer
 70
    0
  3

 72
   65
 73
    0
 40
0
  0
LTYPE
  5
16
330
5
100
AcDbSymbolTableRecord
100
AcDbLinetypeTableRecord
  2
Continuous
 70
    0
  3
Solid line
 72
   65
 73
    0
 40
0
  0
LTYPE
  5
32
330
5
100
AcDbSymbolTableRecord
100
AcDbLinetypeTableRecord
  2
DOT
 70
    0
  3
Dot . . . . . . . . . . . . . . . . . . . . . .
 72
   65
 73
    2
 40
6.35
 49
0
 74
    0
 49
-6.35
 74
    0
  0
LTYPE
  5
33
330
5
100
AcDbSymbolTableRecord
100
AcDbLinetypeTableRecord
  2
DOTTINY
 70
    0
  3
Dot (.15x) .....................................
 72
   65
 73
    2
 40
0.9525
 49
0
 74
    0
 49
-0.9525
 74
    0
  0
LTYPE
  5
34
330
5
100
AcDbSymbolTableRecord
100
AcDbLinetypeTableRecord
  2
DOT2
 70
    0
  3
Dot (.5x) .....................................
 72
   65
 73
    2
 40
3.175
 49
0
 74
    0
 49
-3.175
 74
    0
  0
LTYPE
  5
35
330
5
100
AcDbSymbolTableRecord
100
AcDbLinetypeTableRecord
  2
DOTX2
 70
    0
  3
Dot (2x) .  .  .  .  .  .  .  .  .  .  .  .  .
 72
   65
 73
    2
 40
12.7
 49
0
 74
    0
 49
-12.7
 74
    0
  0
LTYPE
  5
36
330
5
100
AcDbSymbolTableRecord
100
AcDbLinetypeTableRecord
  2
DASHED
 70
    0
  3
Dashed _ _ _ _ _ _ _ _ _ _ _ _ _ _ _ _ _
 72
   65
 73
    2
 40
19.05
 49
12.7
 74
    0
 49
-6.35
 74
    0
  0
LTYPE
  5
37
330
5
100
AcDbSymbolTableRecord
100
AcDbLinetypeTableRecord
  2
DASHEDTINY
 70
    0
  3
Dashed (.15x) _ _ _ _ _ _ _ _ _ _ _ _ _ _ _ _ _
 72
   65
 73
    2
 40
2.8575
 49
1.905
 74
    0
 49
-0.9525
 74
    0
  0
LTYPE
  5
38
330
5
100
AcDbSymbolTableRecord
100
AcDbLinetypeTableRecord
  2
DASHED2
 70
    0
  3
Dashed (.5x) _ _ _ _ _ _ _ _ _ _ _ _ _ _ _ _ _
 72
   65
 73
    2
 40
9.524999999999999
 49
6.35
 74
    0
 49
-3.175
 74
    0
  0
LTYPE
  5
39
330
5
100
AcDbSymbolTableRecord
100
AcDbLinetypeTableRecord
  2
DASHEDX2
 70
    0
  3
Dashed (2x) ____  ____  ____  ____  ____  ___
 72
   65
 73
    2
 40
38.09999999999999
 49
25.4
 74
    0
 49
-12.7
 74
    0
  0
LTYPE
  5
3A
330
5
100
AcDbSymbolTableRecord
100
AcDbLinetypeTableRecord
  2
DASHDOT
 70
    0
  3
Dash dot __ . __ . __ . __ . __ . __ . __ . __
 72
   65
 73
    4
 40
25.4
 49
12.7
 74
    0
 49
-6.35
 74
    0
 49
0
 74
    0
 49
-6.35
 74
    0
  0
LTYPE
  5
3B
330
5
100
AcDbSymbolTableRecord
100
AcDbLinetypeTableRecord
  2
DASHDOTTINY
 70
    0
  3
Dash dot (.15x) _._._._._._._._._._._._._._._.
 72
   65
 73
    4
 40
3.81
 49
1.905
 74
    0
 49
-0.9525
 74
    0
 49
0
 74
    0
 49
-0.9525
 74
    0
  0
LTYPE
  5
3C
330
5
100
AcDbSymbolTableRecord
100
AcDbLinetypeTableRecord
  2
DASHDOT2
 70
    0
  3
Dash dot (.5x) _._._._._._._._._._._._._._._.
 72
   65
 73
    4
 40
12.7
 49
6.35
 74
    0
 49
-3.175
 74
    0
 49
0
 74
    0
 49
-3.175
 74
    0
  0
LTYPE
  5
3D
330
5
100
AcDbSymbolTableRecord
100
AcDbLinetypeTableRecord
  2
DASHDOTX2
 70
    0
  3
Dash dot (2x) ____  .  ____  .  ____  .  ___
 72
   65
 73
    4
 40
50.8
 49
25.4
 74
    0
 49
-12.7
 74
    0
 49
0
 74
    0
 49
-12.7
 74
    0
  0
LTYPE
  5
3E
330
5
100
AcDbSymbolTableRecord
100
AcDbLinetypeTableRecord
  2
DIVIDE
 70
    0
  3
Divide ____ . . ____ . . ____ . . ____ . . ____
 72
   65
 73
    6
 40
31.75
 49
12.7
 74
    0
 49
-6.35
 74
    0
 49
0
 74
    0
 49
-6.35
 74
    0
 49
0
 74
    0
 49
-6.35
 74
    0
  0
LTYPE
  5
3F
330
5
100
AcDbSymbolTableRecord
100
AcDbLinetypeTableRecord
  2
DIVIDETINY
 70
    0
  3
Divide (.15x) __..__..__..__..__..__..__..__.._
 72
   65
 73
    6
 40
4.7625
 49
1.905
 74
    0
 49
-0.9525
 74
    0
 49
0
 74
    0
 49
-0.9525
 74
    0
 49
0
 74
    0
 49
-0.9525
 74
    0
  0
LTYPE
  5
40
330
5
100
AcDbSymbolTableRecord
100
AcDbLinetypeTableRecord
  2
DIVIDE2
 70
    0
  3
Divide (.5x) __..__..__..__..__..__..__..__.._
 72
   65
 73
    6
 40
15.875
 49
6.35
 74
    0
 49
-3.175
 74
    0
 49
0
 74
    0
 49
-3.175
 74
    0
 49
0
 74
    0
 49
-3.175
 74
    0
  0
LTYPE
  5
41
330
5
100
AcDbSymbolTableRecord
100
AcDbLinetypeTableRecord
  2
DIVIDEX2
 70
    0
  3
Divide (2x) ________  .  .  ________  .  .  _
 72
   65
 73
    6
 40
63.5
 49
25.4
 74
    0
 49
-12.7
 74
    0
 49
0
 74
    0
 49
-12.7
 74
    0
 49
0
 74
    0
 49
-12.7
 74
    0
  0
LTYPE
  5
42
330
5
100
AcDbSymbolTableRecord
100
AcDbLinetypeTableRecord
  2
BORDER
 70
    0
  3
Border __ __ . __ __ . __ __ . __ __ . __ __ .
 72
   65
 73
    6
 40
44.45
 49
12.7
 74
    0
 49
-6.35
 74
    0
 49
12.7
 74
    0
 49
-6.35
 74
    0
 49
0
 74
    0
 49
-6.35
 74
    0
  0
LTYPE
  5
43
330
5
100
AcDbSymbolTableRecord
100
AcDbLinetypeTableRecord
  2
BORDERTINY
 70
    0
  3
Border (.15x) __.__.__.__.__.__.__.__.__.__.__.
 72
   65
 73
    6
 40
6.6675
 49
1.905
 74
    0
 49
-0.9525
 74
    0
 49
1.905
 74
    0
 49
-0.9525
 74
    0
 49
0
 74
    0
 49
-0.9525
 74
    0
  0
LTYPE
  5
44
330
5
100
AcDbSymbolTableRecord
100
AcDbLinetypeTableRecord
  2
BORDER2
 70
    0
  3
Border (.5x) __.__.__.__.__.__.__.__.__.__.__.
 72
   65
 73
    6
 40
22.225
 49
6.35
 74
    0
 49
-3.175
 74
    0
 49
6.35
 74
    0
 49
-3.175
 74
    0
 49
0
 74
    0
 49
-3.175
 74
    0
  0
LTYPE
  5
45
330
5
100
AcDbSymbolTableRecord
100
AcDbLinetypeTableRecord
  2
BORDERX2
 70
    0
  3
Border (2x) ____  ____  .  ____  ____  .  ___
 72
   65
 73
    6
 40
88.89999999999999
 49
25.4
 74
    0
 49
-12.7
 74
    0
 49
25.4
 74
    0
 49
-12.7
 74
    0
 49
0
 74
    0
 49
-12.7
 74
    0
  0
LTYPE
  5
46
330
5
100
AcDbSymbolTableRecord
100
AcDbLinetypeTableRecord
  2
CENTER
 70
    0
  3
Center ____ _ ____ _ ____ _ ____ _ ____ _ ____
 72
   65
 73
    4
 40
50.8
 49
31.75
 74
    0
 49
-6.35
 74
    0
 49
6.35
 74
    0
 49
-6.35
 74
    0
  0
LTYPE
  5
47
330
5
100
AcDbSymbolTableRecord
100
AcDbLinetypeTableRecord
  2
CENTERTINY
 70
    0
  3
Center (.15x) ___ _ ___ _ ___ _ ___ _ ___ _ ___
 72
   65
 73
    4
 40
7.619999999999999
 49
4.7625
 74
    0
 49
-0.9525
 74
    0
 49
0.9525
 74
    0
 49
-0.9525
 74
    0
  0
LTYPE
  5
48
330
5
100
AcDbSymbolTableRecord
100
AcDbLinetypeTableRecord
  2
CENTER2
 70
    0
  3
Center (.5x) ___ _ ___ _ ___ _ ___ _ ___ _ ___
 72
   65
 73
    4
 40
28.575
 49
19.05
 74
    0
 49
-3.175
 74
    0
 49
3.175
 74
    0
 49
-3.175
 74
    0
  0
LTYPE
  5
49
330
5
100
AcDbSymbolTableRecord
100
AcDbLinetypeTableRecord
  2
CENTERX2
 70
    0
  3
Center (2x) ________  __  ________  __  _____
 72
   65
 73
    4
 40
101.6
 49
63.5
 74
    0
 49
-12.7
 74
    0
 49
12.7
 74
    0
 49
-12.7
 74
    0
  0
ENDTAB
  0
TABLE
  2
LAYER
  5
2
330
0
100
AcDbSymbolTable
 70
    1
  0
LAYER
  5
10
330
2
100
AcDbSymbolTableRecord
100
AcDbLayerTableRecord
  2
0
 70
    0
 62
    7
  6
CONTINUOUS
370
   -3
390
F
  0
LAYER
  5
4A
330
2
100
AcDbSymbolTableRecord
100
AcDbLayerTableRecord
  2
Shape2DView
 70
    0
 62
    7
  6
CONTINUOUS
370
   -3
390
F
  0
LAYER
  5
4B
330
2
100
AcDbSymbolTableRecord
100
AcDbLayerTableRecord
  2
Shape2DView001
 70
    0
 62
    7
  6
CONTINUOUS
370
   -3
390
F
  0
LAYER
  5
4C
330
2
100
AcDbSymbolTableRecord
100
AcDbLayerTableRecord
  2
Shape2DView002
 70
    0
 62
    7
  6
CONTINUOUS
370
   -3
390
F
  0
LAYER
  5
4D
330
2
100
AcDbSymbolTableRecord
100
AcDbLayerTableRecord
  2
Shape2DView003
 70
    0
 62
    7
  6
CONTINUOUS
370
   -3
390
F
  0
LAYER
  5
4E
330
2
100
AcDbSymbolTableRecord
100
AcDbLayerTableRecord
  2
Shape2DView004
 70
    0
 62
    7
  6
CONTINUOUS
370
   -3
390
F
  0
LAYER
  5
4F
330
2
100
AcDbSymbolTableRecord
100
AcDbLayerTableRecord
  2
Shape2DView005
 70
    0
 62
    7
  6
CONTINUOUS
370
   -3
390
F
  0
LAYER
  5
50
330
2
100
AcDbSymbolTableRecord
100
AcDbLayerTableRecord
  2
Shape2DView006
 70
    0
 62
    7
  6
CONTINUOUS
370
   -3
390
F
  0
LAYER
  5
51
330
2
100
AcDbSymbolTableRecord
100
AcDbLayerTableRecord
  2
Shape2DView007
 70
    0
 62
    7
  6
CONTINUOUS
370
   -3
390
F
  0
LAYER
  5
52
330
2
100
AcDbSymbolTableRecord
100
AcDbLayerTableRecord
  2
Shape2DView008
 70
    0
 62
    7
  6
CONTINUOUS
370
   -3
390
F
  0
LAYER
  5
53
330
2
100
AcDbSymbolTableRecord
100
AcDbLayerTableRecord
  2
Shape2DView009
 70
    0
 62
    7
  6
CONTINUOUS
370
   -3
390
F
  0
LAYER
  5
54
330
2
100
AcDbSymbolTableRecord
100
AcDbLayerTableRecord
  2
Shape2DView010
 70
    0
 62
    7
  6
CONTINUOUS
370
   -3
390
F
  0
LAYER
  5
55
330
2
100
AcDbSymbolTableRecord
100
AcDbLayerTableRecord
  2
none
 70
    0
 62
    7
  6
CONTINUOUS
370
   -3
390
F
  0
ENDTAB
  0
TABLE
  2
STYLE
  5
3
330
0
100
AcDbSymbolTable
 70
    3
  0
STYLE
  5
56
330
2
100
AcDbSymbolTableRecord
100
AcDbTextStyleTableRecord
  2
Standard
 70
    0
 40
0
 41
1
 50
0
 71
    0
 42
1
  3
txt
  4

  0
ENDTAB
  0
TABLE
  2
VIEW
  5
6
330
0
100
AcDbSymbolTable
 70
    0
  0
ENDTAB
  0
TABLE
  2
UCS
  5
7
330
0
100
AcDbSymbolTable
 70
    0
  0
ENDTAB
  0
TABLE
  2
APPID
  5
9
330
0
100
AcDbSymbolTable
 70
    1
  0
APPID
  5
12
330
9
100
AcDbSymbolTableRecord
100
AcDbRegAppTableRecord
  2
ACAD
 70
    0
  0
APPID
  5
57
330
9
100
AcDbSymbolTableRecord
100
AcDbRegAppTableRecord
  2
LibreCad
 70
    0
  0
ENDTAB
  0
TABLE
  2
DIMSTYLE
  5
A
330
0
100
AcDbSymbolTable
 70
    1
100
AcDbDimStyleTable
 71
    1
  0
DIMSTYLE
105
58
330
A
100
AcDbSymbolTableRecord
100
AcDbDimStyleTableRecord
  2
Standard
 70
    0
 40
1
 41
2.5
 42
0.625
 43
0.38
 44
1.25
 45
0
 46
0
 47
0
 48
0
 49
1
140
2.5
141
0.09
142
2.5
143
25.4
144
1
145
0
146
1
147
0.625
148
0
 71
    0
 72
    0
 73
    0
 74
    1
 75
    0
 76
    0
 77
    0
 78
    1
 79
    0
170
    0
171
    2
172
    0
173
    0
174
    0
175
    0
176
    0
177
    0
178
    0
179
    0
271
    2
272
    4
273
    2
274
    2
275
    0
276
    0
277
    2
278
    0
279
    0
280
    0
281
    0
282
    0
283
    1
284
    0
285
    0
286
    0
288
    0
289
    3
340
STANDARD
341

371
   -2
372
   -2
  0
ENDTAB
  0
TABLE
  2
BLOCK_RECORD
  5
1
330
0
100
AcDbSymbolTable
 70
    2
  0
BLOCK_RECORD
  5
1F
330
1
100
AcDbSymbolTableRecord
100
AcDbBlockTableRecord
  2
*Model_Space
 70
    0
280
    1
281
    0
  0
BLOCK_RECORD
  5
1E
330
1
100
AcDbSymbolTableRecord
100
AcDbBlockTableRecord
  2
*Paper_Space
 70
    0
280
    1
281
    0
  0
ENDTAB
  0
ENDSEC
  0
SECTION
  2
BLOCKS
  0
BLOCK
  5
20
330
1F
100
AcDbEntity
  8
0
100
AcDbBlockBegin
  2
*Model_Space
 70
    0
 10
0
 20
0
 30
0
  3
*Model_Space
  1

  0
ENDBLK
  5
21
330
1F
100
AcDbEntity
  8
0
100
AcDbBlockEnd
  0
BLOCK
  5
1C
330
1B
100
AcDbEntity
  8
0
100
AcDbBlockBegin
  2
*Paper_Space
 70
    0
 10
0
 20
0
 30
0
  3
*Paper_Space
  1

  0
ENDBLK
  5
1D
330
1F
100
AcDbEntity
  8
0
100
AcDbBlockEnd
  0
ENDSEC
  0
SECTION
  2
ENTITIES
  0
LINE
  5
59
100
AcDbEntity
  8
Shape2DView003
  6
ByLayer
 62
  256
370
   -1
100
AcDbLine
 10
0
 20
168.4
 11
75.59999999999999
 21
168.4
  0
LINE
  5
5A
100
AcDbEntity
  8
Shape2DView003
  6
ByLayer
 62
  256
370
   -1
100
AcDbLine
 10
0
 20
154.55665
 11
0
 21
168.4
  0
LINE
  5
5B
100
AcDbEntity
  8
Shape2DView003
  6
ByLayer
 62
  256
370
   -1
100
AcDbLine
 10
75.59999999999999
 20
168.4
 11
75.59999999999999
 21
154.55665
  0
LINE
  5
5C
100
AcDbEntity
  8
Shape2DView003
  6
ByLayer
 62
  256
370
   -1
100
AcDbLine
 10
-0
 20
154.55665
 11
2.574660682
 21
154.55665
  0
LINE
  5
5D
100
AcDbEntity
  8
Shape2DView003
  6
ByLayer
 62
  256
370
   -1
100
AcDbLine
 10
73.02533931799999
 20
154.55665
 11
75.59999999999999
 21
154.55665
  0
ARC
  5
5E
100
AcDbEntity
  8
Shape2DView003
  6
ByLayer
 62
  256
370
   -1
100
AcDbCircle
 10
72.85290500000001
 20
154.457095
 40
0.19911
100
AcDbArc
 50
30
 51
-120
  0
LINE
  5
5F
100
AcDbEntity
  8
Shape2DView003
  6
ByLayer
 62
  256
370
   -1
100
AcDbLine
 10
72.75335
 20
145.015339318
 11
72.75335
 21
154.284660682
  0
ARC
  5
60
100
AcDbEntity
  8
Shape2DView003
  6
ByLayer
 62
  256
370
   -1
100
AcDbCircle
 10
72.85290500000001
 20
144.842905
 40
0.19911
100
AcDbArc
 50
120
 51
-30
  0
LINE
  5
61
100
AcDbEntity
  8
Shape2DView003
  6
ByLayer
 62
  256
370
   -1
100
AcDbLine
 10
73.02533931799999
 20
144.74335
 11
75.59999999999999
 21
144.74335
  0
LINE
  5
62
100
AcDbEntity
  8
Shape2DView003
  6
ByLayer
 62
  256
370
   -1
100
AcDbLine
 10
75.59999999999999
 20
144.74335
 11
75.59999999999999
 21
117.05665
  0
LINE
  5
63
100
AcDbEntity
  8
Shape2DView003
  6
ByLayer
 62
  256
370
   -1
100
AcDbLine
 10
73.02533931799999
 20
117.05665
 11
75.59999999999999
 21
117.05665
  0
ARC
  5
64
100
AcDbEntity
  8
Shape2DView003
  6
ByLayer
 62
  256
370
   -1
100
AcDbCircle
 10
72.85290500000001
 20
116.957095
 40
0.19911
100
AcDbArc
 50
30
 51
-120
  0
LINE
  5
65
100
AcDbEntity
  8
Shape2DView003
  6
ByLayer
 62
  256
370
   -1
100
AcDbLine
 10
72.75335
 20
107.515339318
 11
72.75335
 21
116.784660682
  0
ARC
  5
66
100
AcDbEntity
  8
Shape2DView003
  6
ByLayer
 62
  256
370
   -1
100
AcDbCircle
 10
72.85290500000001
 20
107.342905
 40
0.19911
100
AcDbArc
 50
120
 51
-30
  0
LINE
  5
67
100
AcDbEntity
  8
Shape2DView003
  6
ByLayer
 62
  256
370
   -1
100
AcDbLine
 10
73.02533931799999
 20
107.24335
 11
75.59999999999999
 21
107.24335
  0
LINE
  5
68
100
AcDbEntity
  8
Shape2DView003
  6
ByLayer
 62
  256
370
   -1
100
AcDbLine
 10
75.59999999999999
 20
107.24335
 11
75.59999999999999
 21
93.40000000000001
  0
LINE
  5
69
100
AcDbEntity
  8
Shape2DView003
  6
ByLayer
 62
  256
370
   -1
100
AcDbLine
 10
75.59999999999999
 20
93.40000000000001
 11
54.420016667
 21
93.40000000000001
  0
ARC
  5
6A
100
AcDbEntity
  8
Shape2DView003
  6
ByLayer
 62
  256
370
   -1
100
AcDbCircle
 10
54.23335
 20
93.40000000000001
 40
0.186666667
100
AcDbArc
 50
-0
 51
-180
  0
ARC
  5
6B
100
AcDbEntity
  8
Shape2DView003
  6
ByLayer
 62
  256
370
   -1
100
AcDbCircle
 10
54.23335
 20
93.40000000000001
 40
0.186666667
100
AcDbArc
 50
-180
 51
-90
  0
LINE
  5
6C
100
AcDbEntity
  8
Shape2DView003
  6
ByLayer
 62
  256
370
   -1
100
AcDbLine
 10
54.23335
 20
93.21333333299999
 11
54.23335
 21
90.59999999999999
  0
LINE
  5
6D
100
AcDbEntity
  8
Shape2DView003
  6
ByLayer
 62
  256
370
   -1
100
AcDbLine
 10
44.04665
 20
90.59999999999999
 11
54.23335
 21
90.59999999999999
  0
LINE
  5
6E
100
AcDbEntity
  8
Shape2DView003
  6
ByLayer
 62
  256
370
   -1
100
AcDbLine
 10
44.04665
 20
93.21333333299999
 11
44.04665
 21
90.59999999999999
  0
ARC
  5
6F
100
AcDbEntity
  8
Shape2DView003
  6
ByLayer
 62
  256
370
   -1
100
AcDbCircle
 10
44.04665
 20
93.40000000000001
 40
0.186666667
100
AcDbArc
 50
-90
 51
-0
  0
ARC
  5
70
100
AcDbEntity
  8
Shape2DView003
  6
ByLayer
 62
  256
370
   -1
100
AcDbCircle
 10
44.04665
 20
93.40000000000001
 40
0.186666667
100
AcDbArc
 50
-0
 51
-180
  0
LINE
  5
71
100
AcDbEntity
  8
Shape2DView003
  6
ByLayer
 62
  256
370
   -1
100
AcDbLine
 10
43.859983333
 20
93.40000000000001
 11
31.740016667
 21
93.40000000000001
  0
ARC
  5
72
100
AcDbEntity
  8
Shape2DView003
  6
ByLayer
 62
  256
370
   -1
100
AcDbCircle
 10
31.55335
 20
93.40000000000001
 40
0.186666667
100
AcDbArc
 50
-0
 51
180
  0
ARC
  5
73
100
AcDbEntity
  8
Shape2DView003
  6
ByLayer
 62
  256
370
   -1
100
AcDbCircle
 10
31.55335
 20
93.40000000000001
 40
0.186666667
100
AcDbArc
 50
180
 51
-90
  0
LINE
  5
74
100
AcDbEntity
  8
Shape2DView003
  6
ByLayer
 62
  256
370
   -1
100
AcDbLine
 10
31.55335
 20
93.21333333299999
 11
31.55335
 21
90.59999999999999
  0
LINE
  5
75
100
AcDbEntity
  8
Shape2DView003
  6
ByLayer
 62
  256
370
   -1
100
AcDbLine
 10
21.36665
 20
90.59999999999999
 11
31.55335
 21
90.59999999999999
  0
LINE
  5
76
100
AcDbEntity
  8
Shape2DView003
  6
ByLayer
 62
  256
370
   -1
100
AcDbLine
 10
21.36665
 20
93.21333333299999
 11
21.36665
 21
90.59999999999999
  0
ARC
  5
77
100
AcDbEntity
  8
Shape2DView003
  6
ByLayer
 62
  256
370
   -1
100
AcDbCircle
 10
21.36665
 20
93.40000000000001
 40
0.186666667
100
AcDbArc
 50
-90
 51
0
  0
ARC
  5
78
100
AcDbEntity
  8
Shape2DView003
  6
ByLayer
 62
  256
370
   -1
100
AcDbCircle
 10
21.36665
 20
93.40000000000001
 40
0.186666667
100
AcDbArc
 50
0
 51
180
  0
LINE
  5
79
100
AcDbEntity
  8
Shape2DView003
  6
ByLayer
 62
  256
370
   -1
100
AcDbLine
 10
21.179983333
 20
93.40000000000001
 11
0
 21
93.40000000000001
  0
LINE
  5
7A
100
AcDbEntity
  8
Shape2DView003
  6
ByLayer
 62
  256
370
   -1
100
AcDbLine
 10
0
 20
93.40000000000001
 11
0
 21
107.24335
  0
LINE
  5
7B
100
AcDbEntity
  8
Shape2DView003
  6
ByLayer
 62
  256
370
   -1
100
AcDbLine
 10
-0
 20
107.24335
 11
2.574660682
 21
107.24335
  0
ARC
  5
7C
100
AcDbEntity
  8
Shape2DView003
  6
ByLayer
 62
  256
370
   -1
100
AcDbCircle
 10
2.747095
 20
154.457095
 40
0.19911
100
AcDbArc
 50
0
 51
150
  0
ARC
  5
7D
100
AcDbEntity
  8
Shape2DView003
  6
ByLayer
 62
  256
370
   -1
100
AcDbCircle
 10
2.747095
 20
154.457095
 40
0.19911
100
AcDbArc
 50
-59.99999999999999
 51
0
  0
LINE
  5
7E
100
AcDbEntity
  8
Shape2DView003
  6
ByLayer
 62
  256
370
   -1
100
AcDbLine
 10
2.84665
 20
145.015339318
 11
2.84665
 21
154.284660682
  0
ARC
  5
7F
100
AcDbEntity
  8
Shape2DView003
  6
ByLayer
 62
  256
370
   -1
100
AcDbCircle
 10
2.747095
 20
144.842905
 40
0.19911
100
AcDbArc
 50
0
 51
59.99999999999999
  0
ARC
  5
80
100
AcDbEntity
  8
Shape2DView003
  6
ByLayer
 62
  256
370
   -1
100
AcDbCircle
 10
2.747095
 20
144.842905
 40
0.19911
100
AcDbArc
 50
-150
 51
0
  0
LINE
  5
81
100
AcDbEntity
  8
Shape2DView003
  6
ByLayer
 62
  256
370
   -1
100
AcDbLine
 10
-0
 20
144.74335
 11
2.574660682
 21
144.74335
  0
LINE
  5
82
100
AcDbEntity
  8
Shape2DView003
  6
ByLayer
 62
  256
370
   -1
100
AcDbLine
 10
0
 20
117.05665
 11
0
 21
144.74335
  0
LINE
  5
83
100
AcDbEntity
  8
Shape2DView003
  6
ByLayer
 62
  256
370
   -1
100
AcDbLine
 10
-0
 20
117.05665
 11
2.574660682
 21
117.05665
  0
ARC
  5
84
100
AcDbEntity
  8
Shape2DView003
  6
ByLayer
 62
  256
370
   -1
100
AcDbCircle
 10
2.747095
 20
116.957095
 40
0.19911
100
AcDbArc
 50
0
 51
150
  0
ARC
  5
85
100
AcDbEntity
  8
Shape2DView003
  6
ByLayer
 62
  256
370
   -1
100
AcDbCircle
 10
2.747095
 20
116.957095
 40
0.19911
100
AcDbArc
 50
-59.99999999999999
 51
0
  0
LINE
  5
86
100
AcDbEntity
  8
Shape2DView003
  6
ByLayer
 62
  256
370
   -1
100
AcDbLine
 10
2.84665
 20
107.515339318
 11
2.84665
 21
116.784660682
  0
ARC
  5
87
100
AcDbEntity
  8
Shape2DView003
  6
ByLayer
 62
  256
370
   -1
100
AcDbCircle
 10
2.747095
 20
107.342905
 40
0.19911
100
AcDbArc
 50
0
 51
59.99999999999999
  0
ARC
  5
88
100
AcDbEntity
  8
Shape2DView003
  6
ByLayer
 62
  256
370
   -1
100
AcDbCircle
 10
2.747095
 20
107.342905
 40
0.19911
100
AcDbArc
 50
-150
 51
0
  0
LINE
  5
89
100
AcDbEntity
  8
Shape2DView006
  6
ByLayer
 62
  256
370
   -1
100
AcDbLine
 10
-79.740449377
 20
88.25931851599998
 11
-78
 21
87.60665
  0
ARC
  5
8A
100
AcDbEntity
  8
Shape2DView006
  6
ByLayer
 62
  256
370
   -1
100
AcDbCircle
 10
-79.59999999999999
 20
88.63385018699998
 40
0.4
100
AcDbArc
 50
180
 51
-110.55604522
  0
LINE
  5
8B
100
AcDbEntity
  8
Shape2DView006
  6
ByLayer
 62
  256
370
   -1
100
AcDbLine
 10
-80
 20
88.63385018699998
 11
-80
 21
90.75664999999998
  0
ARC
  5
8C
100
AcDbEntity
  8
Shape2DView006
  6
ByLayer
 62
  256
370
   -1
100
AcDbCircle
 10
-79.59999999999999
 20
90.75664999999998
 40
0.4
100
AcDbArc
 50
90
 51
180
  0
LINE
  5
8D
100
AcDbEntity
  8
Shape2DView006
  6
ByLayer
 62
  256
370
   -1
100
AcDbLine
 10
-79.59999999999999
 20
91.15664999999998
 11
-66
 21
91.15664999999998
  0
ARC
  5
8E
100
AcDbEntity
  8
Shape2DView006
  6
ByLayer
 62
  256
370
   -1
100
AcDbCircle
 10
-66
 20
91.55664999999999
 40
0.4
100
AcDbArc
 50
-90
 51
90
  0
LINE
  5
8F
100
AcDbEntity
  8
Shape2DView006
  6
ByLayer
 62
  256
370
   -1
100
AcDbLine
 10
-66
 20
91.95665
 11
-79.59999999999999
 21
91.95665
  0
ARC
  5
90
100
AcDbEntity
  8
Shape2DView006
  6
ByLayer
 62
  256
370
   -1
100
AcDbCircle
 10
-79.59999999999999
 20
92.35665
 40
0.4
100
AcDbArc
 50
180
 51
-90
  0
LINE
  5
91
100
AcDbEntity
  8
Shape2DView006
  6
ByLayer
 62
  256
370
   -1
100
AcDbLine
 10
-80
 20
92.35665
 11
-80
 21
110
  0
LINE
  5
92
100
AcDbEntity
  8
Shape2DView006
  6
ByLayer
 62
  256
370
   -1
100
AcDbLine
 10
-80
 20
110
 11
-77.425339318
 21
110
  0
ARC
  5
93
100
AcDbEntity
  8
Shape2DView006
  6
ByLayer
 62
  256
370
   -1
100
AcDbCircle
 10
-77.252905
 20
110.099555
 40
0.19911
100
AcDbArc
 50
-150
 51
0
  0
ARC
  5
94
100
AcDbEntity
  8
Shape2DView006
  6
ByLayer
 62
  256
370
   -1
100
AcDbCircle
 10
-77.252905
 20
110.099555
 40
0.19911
100
AcDbArc
 50
0
 51
59.99999999999999
  0
LINE
  5
95
100
AcDbEntity
  8
Shape2DView006
  6
ByLayer
 62
  256
370
   -1
100
AcDbLine
 10
-77.15334999999999
 20
119.541310682
 11
-77.15334999999999
 21
110.271989318
  0
ARC
  5
96
100
AcDbEntity
  8
Shape2DView006
  6
ByLayer
 62
  256
370
   -1
100
AcDbCircle
 10
-77.252905
 20
119.713745
 40
0.19911
100
AcDbArc
 50
-59.99999999999999
 51
0
  0
ARC
  5
97
100
AcDbEntity
  8
Shape2DView006
  6
ByLayer
 62
  256
370
   -1
100
AcDbCircle
 10
-77.252905
 20
119.713745
 40
0.19911
100
AcDbArc
 50
0
 51
150
  0
LINE
  5
98
100
AcDbEntity
  8
Shape2DView006
  6
ByLayer
 62
  256
370
   -1
100
AcDbLine
 10
-80
 20
119.8133
 11
-77.425339318
 21
119.8133
  0
LINE
  5
99
100
AcDbEntity
  8
Shape2DView006
  6
ByLayer
 62
  256
370
   -1
100
AcDbLine
 10
-80
 20
119.8133
 11
-80
 21
157.5
  0
LINE
  5
9A
100
AcDbEntity
  8
Shape2DView006
  6
ByLayer
 62
  256
370
   -1
100
AcDbLine
 10
-80
 20
157.5
 11
-77.425339318
 21
157.5
  0
ARC
  5
9B
100
AcDbEntity
  8
Shape2DView006
  6
ByLayer
 62
  256
370
   -1
100
AcDbCircle
 10
-77.252905
 20
157.599555
 40
0.19911
100
AcDbArc
 50
-150
 51
0
  0
ARC
  5
9C
100
AcDbEntity
  8
Shape2DView006
  6
ByLayer
 62
  256
370
   -1
100
AcDbCircle
 10
-77.252905
 20
157.599555
 40
0.19911
100
AcDbArc
 50
0
 51
59.99999999999999
  0
LINE
  5
9D
100
AcDbEntity
  8
Shape2DView006
  6
ByLayer
 62
  256
370
   -1
100
AcDbLine
 10
-77.15334999999999
 20
167.041310682
 11
-77.15334999999999
 21
157.771989318
  0
ARC
  5
9E
100
AcDbEntity
  8
Shape2DView006
  6
ByLayer
 62
  256
370
   -1
100
AcDbCircle
 10
-77.252905
 20
167.213745
 40
0.19911
100
AcDbArc
 50
-59.99999999999999
 51
0
  0
ARC
  5
9F
100
AcDbEntity
  8
Shape2DView006
  6
ByLayer
 62
  256
370
   -1
100
AcDbCircle
 10
-77.252905
 20
167.213745
 40
0.19911
100
AcDbArc
 50
0
 51
150
  0
LINE
  5
A0
100
AcDbEntity
  8
Shape2DView006
  6
ByLayer
 62
  256
370
   -1
100
AcDbLine
 10
-80
 20
167.3133
 11
-77.425339318
 21
167.3133
  0
LINE
  5
A1
100
AcDbEntity
  8
Shape2DView006
  6
ByLayer
 62
  256
370
   -1
100
AcDbLine
 10
-80
 20
167.3133
 11
-80
 21
184.95665
  0
ARC
  5
A2
100
AcDbEntity
  8
Shape2DView006
  6
ByLayer
 62
  256
370
   -1
100
AcDbCircle
 10
-79.59999999999999
 20
184.95665
 40
0.4
100
AcDbArc
 50
90
 51
180
  0
LINE
  5
A3
100
AcDbEntity
  8
Shape2DView006
  6
ByLayer
 62
  256
370
   -1
100
AcDbLine
 10
-79.59999999999999
 20
185.35665
 11
-66
 21
185.35665
  0
ARC
  5
A4
100
AcDbEntity
  8
Shape2DView006
  6
ByLayer
 62
  256
370
   -1
100
AcDbCircle
 10
-66
 20
185.75665
 40
0.4
100
AcDbArc
 50
-90
 51
90
  0
LINE
  5
A5
100
AcDbEntity
  8
Shape2DView006
  6
ByLayer
 62
  256
370
   -1
100
AcDbLine
 10
-66
 20
186.15665
 11
-79.59999999999999
 21
186.15665
  0
ARC
  5
A6
100
AcDbEntity
  8
Shape2DView006
  6
ByLayer
 62
  256
370
   -1
100
AcDbCircle
 10
-79.59999999999999
 20
186.55665
 40
0.4
100
AcDbArc
 50
180
 51
-90
  0
LINE
  5
A7
100
AcDbEntity
  8
Shape2DView006
  6
ByLayer
 62
  256
370
   -1
100
AcDbLine
 10
-80
 20
186.55665
 11
-80
 21
188.679449813
  0
ARC
  5
A8
100
AcDbEntity
  8
Shape2DView006
  6
ByLayer
 62
  256
370
   -1
100
AcDbCircle
 10
-79.59999999999999
 20
188.679449813
 40
0.4
100
AcDbArc
 50
110.55604522
 51
180
  0
LINE
  5
A9
100
AcDbEntity
  8
Shape2DView006
  6
ByLayer
 62
  256
370
   -1
100
AcDbLine
 10
-79.740449377
 20
189.053981484
 11
-78
 21
189.70665
  0
LINE
  5
AA
100
AcDbEntity
  8
Shape2DView006
  6
ByLayer
 62
  256
370
   -1
100
AcDbLine
 10
-78
 20
189.70665
 11
-78
 21
188.95665
  0
LINE
  5
AB
100
AcDbEntity
  8
Shape2DView006
  6
ByLayer
 62
  256
370
   -1
100
AcDbLine
 10
-78
 20
188.95665
 11
-75.19999999999999
 21
188.95665
  0
LINE
  5
AC
100
AcDbEntity
  8
Shape2DView006
  6
ByLayer
 62
  256
370
   -1
100
AcDbLine
 10
-75.19999999999999
 20
190.435359851
 11
-75.19999999999999
 21
188.95665
  0
ARC
  5
AD
100
AcDbEntity
  8
Shape2DView006
  6
ByLayer
 62
  256
370
   -1
100
AcDbCircle
 10
-74.80000000000001
 20
190.435359851
 40
0.4
100
AcDbArc
 50
75
 51
180
  0
LINE
  5
AE
100
AcDbEntity
  8
Shape2DView006
  6
ByLayer
 62
  256
370
   -1
100
AcDbLine
 10
-67.73589838499998
 20
188.95665
 11
-74.696472382
 21
190.821730181
  0
LINE
  5
AF
100
AcDbEntity
  8
Shape2DView006
  6
ByLayer
 62
  256
370
   -1
100
AcDbLine
 10
-16.66410161499999
 20
188.95665
 11
-67.73589838499998
 21
188.95665
  0
LINE
  5
B0
100
AcDbEntity
  8
Shape2DView006
  6
ByLayer
 62
  256
370
   -1
100
AcDbLine
 10
-9.70352761800001
 20
190.821730181
 11
-16.66410161499999
 21
188.95665
  0
ARC
  5
B1
100
AcDbEntity
  8
Shape2DView006
  6
ByLayer
 62
  256
370
   -1
100
AcDbCircle
 10
-9.599999999999994
 20
190.435359851
 40
0.4
100
AcDbArc
 50
0
 51
105
  0
LINE
  5
B2
100
AcDbEntity
  8
Shape2DView006
  6
ByLayer
 62
  256
370
   -1
100
AcDbLine
 10
-9.199999999999989
 20
188.95665
 11
-9.199999999999989
 21
190.435359851
  0
LINE
  5
B3
100
AcDbEntity
  8
Shape2DView006
  6
ByLayer
 62
  256
370
   -1
100
AcDbLine
 10
-6.400000000000006
 20
188.95665
 11
-9.199999999999989
 21
188.95665
  0
LINE
  5
B4
100
AcDbEntity
  8
Shape2DView006
  6
ByLayer
 62
  256
370
   -1
100
AcDbLine
 10
-6.400000000000006
 20
189.70665
 11
-6.400000000000006
 21
188.95665
  0
LINE
  5
B5
100
AcDbEntity
  8
Shape2DView006
  6
ByLayer
 62
  256
370
   -1
100
AcDbLine
 10
-4.659550623000001
 20
189.053981484
 11
-6.400000000000006
 21
189.70665
  0
ARC
  5
B6
100
AcDbEntity
  8
Shape2DView006
  6
ByLayer
 62
  256
370
   -1
100
AcDbCircle
 10
-4.800000000000011
 20
188.679449813
 40
0.4
100
AcDbArc
 50
0
 51
69.44395478
  0
LINE
  5
B7
100
AcDbEntity
  8
Shape2DView006
  6
ByLayer
 62
  256
370
   -1
100
AcDbLine
 10
-4.400000000000006
 20
188.679449813
 11
-4.400000000000006
 21
186.55665
  0
ARC
  5
B8
100
AcDbEntity
  8
Shape2DView006
  6
ByLayer
 62
  256
370
   -1
100
AcDbCircle
 10
-4.800000000000011
 20
186.55665
 40
0.4
100
AcDbArc
 50
-90
 51
0
  0
LINE
  5
B9
100
AcDbEntity
  8
Shape2DView006
  6
ByLayer
 62
  256
370
   -1
100
AcDbLine
 10
-4.800000000000011
 20
186.15665
 11
-18.40000000000001
 21
186.15665
  0
ARC
  5
BA
100
AcDbEntity
  8
Shape2DView006
  6
ByLayer
 62
  256
370
   -1
100
AcDbCircle
 10
-18.40000000000001
 20
185.75665
 40
0.4
100
AcDbArc
 50
90
 51
-90
  0
LINE
  5
BB
100
AcDbEntity
  8
Shape2DView006
  6
ByLayer
 62
  256
370
   -1
100
AcDbLine
 10
-18.40000000000001
 20
185.35665
 11
-4.800000000000011
 21
185.35665
  0
ARC
  5
BC
100
AcDbEntity
  8
Shape2DView006
  6
ByLayer
 62
  256
370
   -1
100
AcDbCircle
 10
-4.800000000000011
 20
184.95665
 40
0.4
100
AcDbArc
 50
0
 51
90
  0
LINE
  5
BD
100
AcDbEntity
  8
Shape2DView006
  6
ByLayer
 62
  256
370
   -1
100
AcDbLine
 10
-4.400000000000006
 20
184.95665
 11
-4.400000000000006
 21
167.3133
  0
LINE
  5
BE
100
AcDbEntity
  8
Shape2DView006
  6
ByLayer
 62
  256
370
   -1
100
AcDbLine
 10
-6.974660682000007
 20
167.3133
 11
-4.400000000000006
 21
167.3133
  0
ARC
  5
BF
100
AcDbEntity
  8
Shape2DView006
  6
ByLayer
 62
  256
370
   -1
100
AcDbCircle
 10
-7.147094999999979
 20
167.213745
 40
0.19911
100
AcDbArc
 50
30
 51
-120
  0
LINE
  5
C0
100
AcDbEntity
  8
Shape2DView006
  6
ByLayer
 62
  256
370
   -1
100
AcDbLine
 10
-7.246649999999988
 20
167.041310682
 11
-7.246649999999988
 21
157.771989318
  0
ARC
  5
C1
100
AcDbEntity
  8
Shape2DView006
  6
ByLayer
 62
  256
370
   -1
100
AcDbCircle
 10
-7.147094999999979
 20
157.599555
 40
0.19911
100
AcDbArc
 50
120
 51
-30
  0
LINE
  5
C2
100
AcDbEntity
  8
Shape2DView006
  6
ByLayer
 62
  256
370
   -1
100
AcDbLine
 10
-6.974660682000007
 20
157.5
 11
-4.400000000000006
 21
157.5
  0
LINE
  5
C3
100
AcDbEntity
  8
Shape2DView006
  6
ByLayer
 62
  256
370
   -1
100
AcDbLine
 10
-4.400000000000006
 20
157.5
 11
-4.400000000000006
 21
119.8133
  0
LINE
  5
C4
100
AcDbEntity
  8
Shape2DView006
  6
ByLayer
 62
  256
370
   -1
100
AcDbLine
 10
-6.974660682000007
 20
119.8133
 11
-4.400000000000006
 21
119.8133
  0
ARC
  5
C5
100
AcDbEntity
  8
Shape2DView006
  6
ByLayer
 62
  256
370
   -1
100
AcDbCircle
 10
-7.147094999999979
 20
119.713745
 40
0.19911
100
AcDbArc
 50
30
 51
-120
  0
LINE
  5
C6
100
AcDbEntity
  8
Shape2DView006
  6
ByLayer
 62
  256
370
   -1
100
AcDbLine
 10
-7.246649999999988
 20
119.541310682
 11
-7.246649999999988
 21
110.271989318
  0
ARC
  5
C7
100
AcDbEntity
  8
Shape2DView006
  6
ByLayer
 62
  256
370
   -1
100
AcDbCircle
 10
-7.147094999999979
 20
110.099555
 40
0.19911
100
AcDbArc
 50
120
 51
-30
  0
LINE
  5
C8
100
AcDbEntity
  8
Shape2DView006
  6
ByLayer
 62
  256
370
   -1
100
AcDbLine
 10
-6.974660682000007
 20
110
 11
-4.400000000000006
 21
110
  0
LINE
  5
C9
100
AcDbEntity
  8
Shape2DView006
  6
ByLayer
 62
  256
370
   -1
100
AcDbLine
 10
-4.400000000000006
 20
110
 11
-4.400000000000006
 21
92.35665
  0
ARC
  5
CA
100
AcDbEntity
  8
Shape2DView006
  6
ByLayer
 62
  256
370
   -1
100
AcDbCircle
 10
-4.800000000000011
 20
92.35665
 40
0.4
100
AcDbArc
 50
-90
 51
0
  0
LINE
  5
CB
100
AcDbEntity
  8
Shape2DView006
  6
ByLayer
 62
  256
370
   -1
100
AcDbLine
 10
-18.40000000000001
 20
91.95665
 11
-4.800000000000011
 21
91.95665
  0
ARC
  5
CC
100
AcDbEntity
  8
Shape2DView006
  6
ByLayer
 62
  256
370
   -1
100
AcDbCircle
 10
-18.40000000000001
 20
91.55664999999999
 40
0.4
100
AcDbArc
 50
90
 51
-90
  0
LINE
  5
CD
100
AcDbEntity
  8
Shape2DView006
  6
ByLayer
 62
  256
370
   -1
100
AcDbLine
 10
-4.800000000000011
 20
91.15664999999998
 11
-18.40000000000001
 21
91.15664999999998
  0
ARC
  5
CE
100
AcDbEntity
  8
Shape2DView006
  6
ByLayer
 62
  256
370
   -1
100
AcDbCircle
 10
-4.800000000000011
 20
90.75664999999998
 40
0.4
100
AcDbArc
 50
0
 51
90
  0
LINE
  5
CF
100
AcDbEntity
  8
Shape2DView006
  6
ByLayer
 62
  256
370
   -1
100
AcDbLine
 10
-4.400000000000006
 20
90.75664999999998
 11
-4.400000000000006
 21
88.63385018699998
  0
ARC
  5
D0
100
AcDbEntity
  8
Shape2DView006
  6
ByLayer
 62
  256
370
   -1
100
AcDbCircle
 10
-4.800000000000011
 20
88.63385018699998
 40
0.4
100
AcDbArc
 50
-69.44395478
 51
0
  0
LINE
  5
D1
100
AcDbEntity
  8
Shape2DView006
  6
ByLayer
 62
  256
370
   -1
100
AcDbLine
 10
-4.659550623000001
 20
88.25931851599998
 11
-6.400000000000006
 21
87.60665
  0
LINE
  5
D2
100
AcDbEntity
  8
Shape2DView006
  6
ByLayer
 62
  256
370
   -1
100
AcDbLine
 10
-6.400000000000006
 20
87.60665
 11
-6.400000000000006
 21
88.35665
  0
LINE
  5
D3
100
AcDbEntity
  8
Shape2DView006
  6
ByLayer
 62
  256
370
   -1
100
AcDbLine
 10
-6.400000000000006
 20
88.35665
 11
-9.199999999999989
 21
88.35665
  0
LINE
  5
D4
100
AcDbEntity
  8
Shape2DView006
  6
ByLayer
 62
  256
370
   -1
100
AcDbLine
 10
-9.199999999999989
 20
86.87794014899998
 11
-9.199999999999989
 21
88.35665
  0
ARC
  5
D5
100
AcDbEntity
  8
Shape2DView006
  6
ByLayer
 62
  256
370
   -1
100
AcDbCircle
 10
-9.599999999999994
 20
86.87794014899998
 40
0.4
100
AcDbArc
 50
-105
 51
0
  0
LINE
  5
D6
100
AcDbEntity
  8
Shape2DView006
  6
ByLayer
 62
  256
370
   -1
100
AcDbLine
 10
-16.66410161499999
 20
88.35665
 11
-9.70352761800001
 21
86.49156981899998
  0
LINE
  5
D7
100
AcDbEntity
  8
Shape2DView006
  6
ByLayer
 62
  256
370
   -1
100
AcDbLine
 10
-27.84334999999999
 20
88.35665
 11
-16.66410161499999
 21
88.35665
  0
LINE
  5
D8
100
AcDbEntity
  8
Shape2DView006
  6
ByLayer
 62
  256
370
   -1
100
AcDbLine
 10
-27.84334999999999
 20
88.35665
 11
-27.84334999999999
 21
90.93131068199997
  0
ARC
  5
D9
100
AcDbEntity
  8
Shape2DView006
  6
ByLayer
 62
  256
370
   -1
100
AcDbCircle
 10
-27.942905
 20
91.10374499999998
 40
0.19911
100
AcDbArc
 50
-59.99999999999999
 51
90
  0
ARC
  5
DA
100
AcDbEntity
  8
Shape2DView006
  6
ByLayer
 62
  256
370
   -1
100
AcDbCircle
 10
-27.942905
 20
91.10374499999998
 40
0.19911
100
AcDbArc
 50
90
 51
150
  0
LINE
  5
DB
100
AcDbEntity
  8
Shape2DView006
  6
ByLayer
 62
  256
370
   -1
100
AcDbLine
 10
-37.384660682
 20
91.20329999999998
 11
-28.115339318
 21
91.20329999999998
  0
ARC
  5
DC
100
AcDbEntity
  8
Shape2DView006
  6
ByLayer
 62
  256
370
   -1
100
AcDbCircle
 10
-37.557095
 20
91.10374499999998
 40
0.19911
100
AcDbArc
 50
30
 51
90
  0
ARC
  5
DD
100
AcDbEntity
  8
Shape2DView006
  6
ByLayer
 62
  256
370
   -1
100
AcDbCircle
 10
-37.557095
 20
91.10374499999998
 40
0.19911
100
AcDbArc
 50
90
 51
-120
  0
LINE
  5
DE
100
AcDbEntity
  8
Shape2DView006
  6
ByLayer
 62
  256
370
   -1
100
AcDbLine
 10
-37.65665000000001
 20
88.35665
 11
-37.65665000000001
 21
90.93131068199997
  0
LINE
  5
DF
100
AcDbEntity
  8
Shape2DView006
  6
ByLayer
 62
  256
370
   -1
100
AcDbLine
 10
-46.74334999999999
 20
88.35665
 11
-37.65665000000001
 21
88.35665
  0
LINE
  5
E0
100
AcDbEntity
  8
Shape2DView006
  6
ByLayer
 62
  256
370
   -1
100
AcDbLine
 10
-46.74334999999999
 20
88.35665
 11
-46.74334999999999
 21
90.93131068199997
  0
ARC
  5
E1
100
AcDbEntity
  8
Shape2DView006
  6
ByLayer
 62
  256
370
   -1
100
AcDbCircle
 10
-46.842905
 20
91.10374499999998
 40
0.19911
100
AcDbArc
 50
-59.99999999999999
 51
90
  0
ARC
  5
E2
100
AcDbEntity
  8
Shape2DView006
  6
ByLayer
 62
  256
370
   -1
100
AcDbCircle
 10
-46.842905
 20
91.10374499999998
 40
0.19911
100
AcDbArc
 50
90
 51
150
  0
LINE
  5
E3
100
AcDbEntity
  8
Shape2DView006
  6
ByLayer
 62
  256
370
   -1
100
AcDbLine
 10
-56.28466068199998
 20
91.20329999999998
 11
-47.015339318
 21
91.20329999999998
  0
ARC
  5
E4
100
AcDbEntity
  8
Shape2DView006
  6
ByLayer
 62
  256
370
   -1
100
AcDbCircle
 10
-56.45709499999998
 20
91.10374499999998
 40
0.19911
100
AcDbArc
 50
30
 51
90
  0
ARC
  5
E5
100
AcDbEntity
  8
Shape2DView006
  6
ByLayer
 62
  256
370
   -1
100
AcDbCircle
 10
-56.45709499999998
 20
91.10374499999998
 40
0.19911
100
AcDbArc
 50
90
 51
-120
  0
LINE
  5
E6
100
AcDbEntity
  8
Shape2DView006
  6
ByLayer
 62
  256
370
   -1
100
AcDbLine
 10
-56.55664999999999
 20
88.35665
 11
-56.55664999999999
 21
90.93131068199997
  0
LINE
  5
E7
100
AcDbEntity
  8
Shape2DView006
  6
ByLayer
 62
  256
370
   -1
100
AcDbLine
 10
-67.73589838499998
 20
88.35665
 11
-56.55664999999999
 21
88.35665
  0
LINE
  5
E8
100
AcDbEntity
  8
Shape2DView006
  6
ByLayer
 62
  256
370
   -1
100
AcDbLine
 10
-74.696472382
 20
86.49156981899998
 11
-67.73589838499998
 21
88.35665
  0
ARC
  5
E9
100
AcDbEntity
  8
Shape2DView006
  6
ByLayer
 62
  256
370
   -1
100
AcDbCircle
 10
-74.80000000000001
 20
86.87794014899998
 40
0.4
100
AcDbArc
 50
-180
 51
-75
  0
LINE
  5
EA
100
AcDbEntity
  8
Shape2DView006
  6
ByLayer
 62
  256
370
   -1
100
AcDbLine
 10
-75.19999999999999
 20
88.35665
 11
-75.19999999999999
 21
86.87794014899998
  0
LINE
  5
EB
100
AcDbEntity
  8
Shape2DView006
  6
ByLayer
 62
  256
370
   -1
100
AcDbLine
 10
-78
 20
88.35665
 11
-75.19999999999999
 21
88.35665
  0
LINE
  5
EC
100
AcDbEntity
  8
Shape2DView006
  6
ByLayer
 62
  256
370
   -1
100
AcDbLine
 10
-78
 20
87.60665
 11
-78
 21
88.35665
  0
ARC
  5
ED
100
AcDbEntity
  8
Shape2DView006
  6
ByLayer
 62
  256
370
   -1
100
AcDbCircle
 10
-58.59
 20
169.55665
 40
0.8
100
AcDbArc
 50
163.267180167
 51
-15.832667197
  0
ARC
  5
EE
100
AcDbEntity
  8
Shape2DView006
  6
ByLayer
 62
  256
370
   -1
100
AcDbCircle
 10
-85.19999999999999
 20
177.55665
 40
26.986545305
100
AcDbArc
 50
-16.732819833
 51
16.732819833
  0
ARC
  5
EF
100
AcDbEntity
  8
Shape2DView006
  6
ByLayer
 62
  256
370
   -1
100
AcDbCircle
 10
-86.80000000000001
 20
177.55665
 40
30.12241634
100
AcDbArc
 50
-15.832667197
 51
15.832667197
  0
ARC
  5
F0
100
AcDbEntity
  8
Shape2DView006
  6
ByLayer
 62
  256
370
   -1
100
AcDbCircle
 10
-58.59
 20
185.55665
 40
0.8
100
AcDbArc
 50
15.832667197
 51
-163.267180167
  0
ARC
  5
F1
100
AcDbEntity
  8
Shape2DView006
  6
ByLayer
 62
  256
370
   -1
100
AcDbCircle
 10
-30.81
 20
184.24665
 40
2.11
100
AcDbArc
 50
-13.161241803
 51
90
  0
ARC
  5
F2
100
AcDbEntity
  8
Shape2DView006
  6
ByLayer
 62
  256
370
   -1
100
AcDbCircle
 10
-2.199999999999989
 20
177.55665
 40
27.271766455
100
AcDbArc
 50
166.838758197
 51
-166.838758197
  0
LINE
  5
F3
100
AcDbEntity
  8
Shape2DView006
  6
ByLayer
 62
  256
370
   -1
100
AcDbLine
 10
-30.81
 20
186.35665
 11
-53.59
 21
186.35665
  0
ARC
  5
F4
100
AcDbEntity
  8
Shape2DView006
  6
ByLayer
 62
  256
370
   -1
100
AcDbCircle
 10
-30.81
 20
170.86665
 40
2.11
100
AcDbArc
 50
-90
 51
13.161241803
  0
ARC
  5
F5
100
AcDbEntity
  8
Shape2DView006
  6
ByLayer
 62
  256
370
   -1
100
AcDbCircle
 10
-53.59
 20
184.24665
 40
2.11
100
AcDbArc
 50
90
 51
-166.83847694
  0
LINE
  5
F6
100
AcDbEntity
  8
Shape2DView006
  6
ByLayer
 62
  256
370
   -1
100
AcDbLine
 10
-53.59
 20
168.75665
 11
-30.81
 21
168.75665
  0
ARC
  5
F7
100
AcDbEntity
  8
Shape2DView006
  6
ByLayer
 62
  256
370
   -1
100
AcDbCircle
 10
-82.19999999999999
 20
177.55665
 40
27.271766455
100
AcDbArc
 50
-13.161241803
 51
13.161220043
  0
ARC
  5
F8
100
AcDbEntity
  8
Shape2DView006
  6
ByLayer
 62
  256
370
   -1
100
AcDbCircle
 10
-53.59
 20
170.86665
 40
2.11
100
AcDbArc
 50
166.838758197
 51
-90
  0
ARC
  5
F9
100
AcDbEntity
  8
Shape2DView006
  6
ByLayer
 62
  256
370
   -1
100
AcDbCircle
 10
-25.81
 20
169.55665
 40
0.8
100
AcDbArc
 50
-164.167332803
 51
16.732819833
  0
ARC
  5
FA
100
AcDbEntity
  8
Shape2DView006
  6
ByLayer
 62
  256
370
   -1
100
AcDbCircle
 10
2.400000000000006
 20
177.55665
 40
30.12241634
100
AcDbArc
 50
164.167332803
 51
-164.167332803
  0
ARC
  5
FB
100
AcDbEntity
  8
Shape2DView006
  6
ByLayer
 62
  256
370
   -1
100
AcDbCircle
 10
0.8000000000000114
 20
177.55665
 40
26.986545305
100
AcDbArc
 50
163.267180167
 51
-163.267180167
  0
ARC
  5
FC
100
AcDbEntity
  8
Shape2DView006
  6
ByLayer
 62
  256
370
   -1
100
AcDbCircle
 10
-25.81
 20
185.55665
 40
0.8
100
AcDbArc
 50
-16.732819833
 51
164.167332803
  0
LINE
  5
FD
100
AcDbEntity
  8
Shape2DView005
  6
ByLayer
 62
  256
370
   -1
100
AcDbLine
 10
-81
 20
210
 11
-5.399999999999977
 21
210
  0
LINE
  5
FE
100
AcDbEntity
  8
Shape2DView005
  6
ByLayer
 62
  256
370
   -1
100
AcDbLine
 10
-81
 20
194.876752306
 11
-81
 21
210
  0
LINE
  5
FF
100
AcDbEntity
  8
Shape2DView005
  6
ByLayer
 62
  256
370
   -1
100
AcDbLine
 10
-5.399999999999977
 20
210
 11
-5.399999999999977
 21
194.876752306
  0
LINE
  5
100
100
AcDbEntity
  8
Shape2DView005
  6
ByLayer
 62
  256
370
   -1
100
AcDbLine
 10
-67.38001666699998
 20
194.876752306
 11
-81
 21
194.876752306
  0
LINE
  5
101
100
AcDbEntity
  8
Shape2DView005
  6
ByLayer
 62
  256
370
   -1
100
AcDbLine
 10
-5.399999999999977
 20
194.876752306
 11
-19.019983333
 21
194.876752306
  0
ARC
  5
102
100
AcDbEntity
  8
Shape2DView005
  6
ByLayer
 62
  256
370
   -1
100
AcDbCircle
 10
-67.19334999999998
 20
194.876752306
 40
0.186666667
100
AcDbArc
 50
-90
 51
0
  0
ARC
  5
103
100
AcDbEntity
  8
Shape2DView005
  6
ByLayer
 62
  256
370
   -1
100
AcDbCircle
 10
-67.19334999999998
 20
194.876752306
 40
0.186666667
100
AcDbArc
 50
0
 51
180
  0
ARC
  5
104
100
AcDbEntity
  8
Shape2DView005
  6
ByLayer
 62
  256
370
   -1
100
AcDbCircle
 10
-19.20665
 20
194.876752306
 40
0.186666667
100
AcDbArc
 50
0
 51
180
  0
ARC
  5
105
100
AcDbEntity
  8
Shape2DView005
  6
ByLayer
 62
  256
370
   -1
100
AcDbCircle
 10
-19.20665
 20
194.876752306
 40
0.186666667
100
AcDbArc
 50
180
 51
-90
  0
LINE
  5
106
100
AcDbEntity
  8
Shape2DView005
  6
ByLayer
 62
  256
370
   -1
100
AcDbLine
 10
-67.19334999999998
 20
194.6900856389999
 11
-67.19334999999998
 21
192.0767523059999
  0
LINE
  5
107
100
AcDbEntity
  8
Shape2DView005
  6
ByLayer
 62
  256
370
   -1
100
AcDbLine
 10
-67.19334999999998
 20
192.0767523059999
 11
-57.00664999999998
 21
192.0767523059999
  0
ARC
  5
108
100
AcDbEntity
  8
Shape2DView005
  6
ByLayer
 62
  256
370
   -1
100
AcDbCircle
 10
-57.00664999999998
 20
194.876752306
 40
0.186666667
100
AcDbArc
 50
0
 51
180
  0
ARC
  5
109
100
AcDbEntity
  8
Shape2DView005
  6
ByLayer
 62
  256
370
   -1
100
AcDbCircle
 10
-57.00664999999998
 20
194.876752306
 40
0.186666667
100
AcDbArc
 50
180
 51
-90
  0
LINE
  5
10A
100
AcDbEntity
  8
Shape2DView005
  6
ByLayer
 62
  256
370
   -1
100
AcDbLine
 10
-29.580016667
 20
194.876752306
 11
-56.81998333299998
 21
194.876752306
  0
ARC
  5
10B
100
AcDbEntity
  8
Shape2DView005
  6
ByLayer
 62
  256
370
   -1
100
AcDbCircle
 10
-29.39335
 20
194.876752306
 40
0.186666667
100
AcDbArc
 50
-90
 51
0
  0
ARC
  5
10C
100
AcDbEntity
  8
Shape2DView005
  6
ByLayer
 62
  256
370
   -1
100
AcDbCircle
 10
-29.39335
 20
194.876752306
 40
0.186666667
100
AcDbArc
 50
0
 51
180
  0
LINE
  5
10D
100
AcDbEntity
  8
Shape2DView005
  6
ByLayer
 62
  256
370
   -1
100
AcDbLine
 10
-57.00664999999998
 20
194.6900856389999
 11
-57.00664999999998
 21
192.0767523059999
  0
LINE
  5
10E
100
AcDbEntity
  8
Shape2DView005
  6
ByLayer
 62
  256
370
   -1
100
AcDbLine
 10
-29.39335
 20
194.6900856389999
 11
-29.39335
 21
192.0767523059999
  0
LINE
  5
10F
100
AcDbEntity
  8
Shape2DView005
  6
ByLayer
 62
  256
370
   -1
100
AcDbLine
 10
-19.20665
 20
194.6900856389999
 11
-19.20665
 21
192.0767523059999
  0
LINE
  5
110
100
AcDbEntity
  8
Shape2DView005
  6
ByLayer
 62
  256
370
   -1
100
AcDbLine
 10
-29.39335
 20
192.0767523059999
 11
-19.20665
 21
192.0767523059999
  0
LINE
  5
111
100
AcDbEntity
  8
Shape2DView007
  6
ByLayer
 62
  256
370
   -1
100
AcDbLine
 10
75.05955062300001
 20
212.375990986
 11
73.59999999999999
 21
211.828659502
  0
LINE
  5
112
100
AcDbEntity
  8
Shape2DView007
  6
ByLayer
 62
  256
370
   -1
100
AcDbLine
 10
73.59999999999999
 20
211.828659502
 11
73.59999999999999
 21
212.578659502
  0
LINE
  5
113
100
AcDbEntity
  8
Shape2DView007
  6
ByLayer
 62
  256
370
   -1
100
AcDbLine
 10
70.80000000000001
 20
212.578659502
 11
73.59999999999999
 21
212.578659502
  0
LINE
  5
114
100
AcDbEntity
  8
Shape2DView007
  6
ByLayer
 62
  256
370
   -1
100
AcDbLine
 10
70.80000000000001
 20
214.057369353
 11
70.80000000000001
 21
212.578659502
  0
ARC
  5
115
100
AcDbEntity
  8
Shape2DView007
  6
ByLayer
 62
  256
370
   -1
100
AcDbCircle
 10
70.40000000000001
 20
214.057369353
 40
0.4
100
AcDbArc
 50
0
 51
105
  0
LINE
  5
116
100
AcDbEntity
  8
Shape2DView007
  6
ByLayer
 62
  256
370
   -1
100
AcDbLine
 10
63.33589838500001
 20
212.578659502
 11
70.29647238200002
 21
214.443739683
  0
LINE
  5
117
100
AcDbEntity
  8
Shape2DView007
  6
ByLayer
 62
  256
370
   -1
100
AcDbLine
 10
52.15665000000001
 20
212.578659502
 11
63.33589838500001
 21
212.578659502
  0
LINE
  5
118
100
AcDbEntity
  8
Shape2DView007
  6
ByLayer
 62
  256
370
   -1
100
AcDbLine
 10
52.15665000000001
 20
212.578659502
 11
52.15665000000001
 21
210.00399882
  0
ARC
  5
119
100
AcDbEntity
  8
Shape2DView007
  6
ByLayer
 62
  256
370
   -1
100
AcDbCircle
 10
52.057095
 20
209.831564502
 40
0.19911
100
AcDbArc
 50
-90
 51
59.99999999999999
  0
ARC
  5
11A
100
AcDbEntity
  8
Shape2DView007
  6
ByLayer
 62
  256
370
   -1
100
AcDbCircle
 10
52.057095
 20
209.831564502
 40
0.19911
100
AcDbArc
 50
-150
 51
-90
  0
LINE
  5
11B
100
AcDbEntity
  8
Shape2DView007
  6
ByLayer
 62
  256
370
   -1
100
AcDbLine
 10
51.884660682
 20
209.732009502
 11
42.615339318
 21
209.732009502
  0
ARC
  5
11C
100
AcDbEntity
  8
Shape2DView007
  6
ByLayer
 62
  256
370
   -1
100
AcDbCircle
 10
42.442905
 20
209.831564502
 40
0.19911
100
AcDbArc
 50
-90
 51
-30
  0
ARC
  5
11D
100
AcDbEntity
  8
Shape2DView007
  6
ByLayer
 62
  256
370
   -1
100
AcDbCircle
 10
42.442905
 20
209.831564502
 40
0.19911
100
AcDbArc
 50
120
 51
-90
  0
LINE
  5
11E
100
AcDbEntity
  8
Shape2DView007
  6
ByLayer
 62
  256
370
   -1
100
AcDbLine
 10
42.34335
 20
212.578659502
 11
42.34335
 21
210.00399882
  0
LINE
  5
11F
100
AcDbEntity
  8
Shape2DView007
  6
ByLayer
 62
  256
370
   -1
100
AcDbLine
 10
33.25665000000001
 20
212.578659502
 11
42.34335
 21
212.578659502
  0
LINE
  5
120
100
AcDbEntity
  8
Shape2DView007
  6
ByLayer
 62
  256
370
   -1
100
AcDbLine
 10
33.25665000000001
 20
212.578659502
 11
33.25665000000001
 21
210.00399882
  0
ARC
  5
121
100
AcDbEntity
  8
Shape2DView007
  6
ByLayer
 62
  256
370
   -1
100
AcDbCircle
 10
33.15709500000001
 20
209.831564502
 40
0.19911
100
AcDbArc
 50
-90
 51
59.99999999999999
  0
ARC
  5
122
100
AcDbEntity
  8
Shape2DView007
  6
ByLayer
 62
  256
370
   -1
100
AcDbCircle
 10
33.15709500000001
 20
209.831564502
 40
0.19911
100
AcDbArc
 50
-150
 51
-90
  0
LINE
  5
123
100
AcDbEntity
  8
Shape2DView007
  6
ByLayer
 62
  256
370
   -1
100
AcDbLine
 10
32.98466068200001
 20
209.732009502
 11
23.71533931800001
 21
209.732009502
  0
ARC
  5
124
100
AcDbEntity
  8
Shape2DView007
  6
ByLayer
 62
  256
370
   -1
100
AcDbCircle
 10
23.542905
 20
209.831564502
 40
0.19911
100
AcDbArc
 50
-90
 51
-30
  0
ARC
  5
125
100
AcDbEntity
  8
Shape2DView007
  6
ByLayer
 62
  256
370
   -1
100
AcDbCircle
 10
23.542905
 20
209.831564502
 40
0.19911
100
AcDbArc
 50
120
 51
-90
  0
LINE
  5
126
100
AcDbEntity
  8
Shape2DView007
  6
ByLayer
 62
  256
370
   -1
100
AcDbLine
 10
23.44335000000001
 20
212.578659502
 11
23.44335000000001
 21
210.00399882
  0
LINE
  5
127
100
AcDbEntity
  8
Shape2DView007
  6
ByLayer
 62
  256
370
   -1
100
AcDbLine
 10
12.264101615
 20
212.578659502
 11
23.44335000000001
 21
212.578659502
  0
LINE
  5
128
100
AcDbEntity
  8
Shape2DView007
  6
ByLayer
 62
  256
370
   -1
100
AcDbLine
 10
5.303527618000004
 20
214.443739683
 11
12.264101615
 21
212.578659502
  0
ARC
  5
129
100
AcDbEntity
  8
Shape2DView007
  6
ByLayer
 62
  256
370
   -1
100
AcDbCircle
 10
5.200000000000003
 20
214.057369353
 40
0.4
100
AcDbArc
 50
75
 51
180
  0
LINE
  5
12A
100
AcDbEntity
  8
Shape2DView007
  6
ByLayer
 62
  256
370
   -1
100
AcDbLine
 10
4.800000000000011
 20
212.578659502
 11
4.800000000000011
 21
214.057369353
  0
LINE
  5
12B
100
AcDbEntity
  8
Shape2DView007
  6
ByLayer
 62
  256
370
   -1
100
AcDbLine
 10
2
 20
212.578659502
 11
4.800000000000011
 21
212.578659502
  0
LINE
  5
12C
100
AcDbEntity
  8
Shape2DView007
  6
ByLayer
 62
  256
370
   -1
100
AcDbLine
 10
2
 20
213.328659502
 11
2
 21
212.578659502
  0
LINE
  5
12D
100
AcDbEntity
  8
Shape2DView007
  6
ByLayer
 62
  256
370
   -1
100
AcDbLine
 10
0.2595506230000098
 20
212.675990986
 11
2
 21
213.328659502
  0
ARC
  5
12E
100
AcDbEntity
  8
Shape2DView007
  6
ByLayer
 62
  256
370
   -1
100
AcDbCircle
 10
0.4000000000000057
 20
212.301459315
 40
0.4
100
AcDbArc
 50
110.55604522
 51
180
  0
LINE
  5
12F
100
AcDbEntity
  8
Shape2DView007
  6
ByLayer
 62
  256
370
   -1
100
AcDbLine
 10
0
 20
210.178659502
 11
0
 21
212.301459315
  0
ARC
  5
130
100
AcDbEntity
  8
Shape2DView007
  6
ByLayer
 62
  256
370
   -1
100
AcDbCircle
 10
0.4000000000000057
 20
210.178659502
 40
0.4
100
AcDbArc
 50
180
 51
-90
  0
LINE
  5
131
100
AcDbEntity
  8
Shape2DView007
  6
ByLayer
 62
  256
370
   -1
100
AcDbLine
 10
14
 20
209.778659502
 11
0.4000000000000057
 21
209.778659502
  0
ARC
  5
132
100
AcDbEntity
  8
Shape2DView007
  6
ByLayer
 62
  256
370
   -1
100
AcDbCircle
 10
14
 20
209.378659502
 40
0.4
100
AcDbArc
 50
-90
 51
90
  0
LINE
  5
133
100
AcDbEntity
  8
Shape2DView007
  6
ByLayer
 62
  256
370
   -1
100
AcDbLine
 10
0.4000000000000057
 20
208.978659502
 11
14
 21
208.978659502
  0
ARC
  5
134
100
AcDbEntity
  8
Shape2DView007
  6
ByLayer
 62
  256
370
   -1
100
AcDbCircle
 10
0.4000000000000057
 20
208.578659502
 40
0.4
100
AcDbArc
 50
90
 51
180
  0
LINE
  5
135
100
AcDbEntity
  8
Shape2DView007
  6
ByLayer
 62
  256
370
   -1
100
AcDbLine
 10
0
 20
197.185309502
 11
0
 21
208.578659502
  0
LINE
  5
136
100
AcDbEntity
  8
Shape2DView007
  6
ByLayer
 62
  256
370
   -1
100
AcDbLine
 10
0
 20
197.185309502
 11
2.574660682000001
 21
197.185309502
  0
ARC
  5
137
100
AcDbEntity
  8
Shape2DView007
  6
ByLayer
 62
  256
370
   -1
100
AcDbCircle
 10
2.747095000000002
 20
197.085754502
 40
0.19911
100
AcDbArc
 50
0
 51
150
  0
ARC
  5
138
100
AcDbEntity
  8
Shape2DView007
  6
ByLayer
 62
  256
370
   -1
100
AcDbCircle
 10
2.747095000000002
 20
197.085754502
 40
0.19911
100
AcDbArc
 50
-59.99999999999999
 51
0
  0
LINE
  5
139
100
AcDbEntity
  8
Shape2DView007
  6
ByLayer
 62
  256
370
   -1
100
AcDbLine
 10
2.846650000000011
 20
196.913320184
 11
2.846650000000011
 21
187.64399882
  0
ARC
  5
13A
100
AcDbEntity
  8
Shape2DView007
  6
ByLayer
 62
  256
370
   -1
100
AcDbCircle
 10
2.747095000000002
 20
187.471564502
 40
0.19911
100
AcDbArc
 50
0
 51
59.99999999999999
  0
ARC
  5
13B
100
AcDbEntity
  8
Shape2DView007
  6
ByLayer
 62
  256
370
   -1
100
AcDbCircle
 10
2.747095000000002
 20
187.471564502
 40
0.19911
100
AcDbArc
 50
-150
 51
0
  0
LINE
  5
13C
100
AcDbEntity
  8
Shape2DView007
  6
ByLayer
 62
  256
370
   -1
100
AcDbLine
 10
0
 20
187.372009502
 11
2.574660682000001
 21
187.372009502
  0
LINE
  5
13D
100
AcDbEntity
  8
Shape2DView007
  6
ByLayer
 62
  256
370
   -1
100
AcDbLine
 10
0
 20
175.978659502
 11
0
 21
187.372009502
  0
ARC
  5
13E
100
AcDbEntity
  8
Shape2DView007
  6
ByLayer
 62
  256
370
   -1
100
AcDbCircle
 10
0.4000000000000057
 20
175.978659502
 40
0.4
100
AcDbArc
 50
180
 51
-90
  0
LINE
  5
13F
100
AcDbEntity
  8
Shape2DView007
  6
ByLayer
 62
  256
370
   -1
100
AcDbLine
 10
14
 20
175.578659502
 11
0.4000000000000057
 21
175.578659502
  0
ARC
  5
140
100
AcDbEntity
  8
Shape2DView007
  6
ByLayer
 62
  256
370
   -1
100
AcDbCircle
 10
14
 20
175.178659502
 40
0.4
100
AcDbArc
 50
-90
 51
90
  0
LINE
  5
141
100
AcDbEntity
  8
Shape2DView007
  6
ByLayer
 62
  256
370
   -1
100
AcDbLine
 10
0.4000000000000057
 20
174.778659502
 11
14
 21
174.778659502
  0
ARC
  5
142
100
AcDbEntity
  8
Shape2DView007
  6
ByLayer
 62
  256
370
   -1
100
AcDbCircle
 10
0.4000000000000057
 20
174.378659502
 40
0.4
100
AcDbArc
 50
90
 51
180
  0
LINE
  5
143
100
AcDbEntity
  8
Shape2DView007
  6
ByLayer
 62
  256
370
   -1
100
AcDbLine
 10
0
 20
172.255859689
 11
0
 21
174.378659502
  0
ARC
  5
144
100
AcDbEntity
  8
Shape2DView007
  6
ByLayer
 62
  256
370
   -1
100
AcDbCircle
 10
0.4000000000000057
 20
172.255859689
 40
0.4
100
AcDbArc
 50
180
 51
-110.55604522
  0
LINE
  5
145
100
AcDbEntity
  8
Shape2DView007
  6
ByLayer
 62
  256
370
   -1
100
AcDbLine
 10
0.2595506230000098
 20
171.881328018
 11
2
 21
171.228659502
  0
LINE
  5
146
100
AcDbEntity
  8
Shape2DView007
  6
ByLayer
 62
  256
370
   -1
100
AcDbLine
 10
2
 20
171.228659502
 11
2
 21
171.978659502
  0
LINE
  5
147
100
AcDbEntity
  8
Shape2DView007
  6
ByLayer
 62
  256
370
   -1
100
AcDbLine
 10
4.800000000000011
 20
171.978659502
 11
2
 21
171.978659502
  0
LINE
  5
148
100
AcDbEntity
  8
Shape2DView007
  6
ByLayer
 62
  256
370
   -1
100
AcDbLine
 10
4.800000000000011
 20
170.499949651
 11
4.800000000000011
 21
171.978659502
  0
ARC
  5
149
100
AcDbEntity
  8
Shape2DView007
  6
ByLayer
 62
  256
370
   -1
100
AcDbCircle
 10
5.200000000000003
 20
170.499949651
 40
0.4
100
AcDbArc
 50
180
 51
-75
  0
LINE
  5
14A
100
AcDbEntity
  8
Shape2DView007
  6
ByLayer
 62
  256
370
   -1
100
AcDbLine
 10
12.264101615
 20
171.978659502
 11
5.303527618000004
 21
170.113579321
  0
LINE
  5
14B
100
AcDbEntity
  8
Shape2DView007
  6
ByLayer
 62
  256
370
   -1
100
AcDbLine
 10
21.55335000000001
 20
171.978659502
 11
12.264101615
 21
171.978659502
  0
LINE
  5
14C
100
AcDbEntity
  8
Shape2DView007
  6
ByLayer
 62
  256
370
   -1
100
AcDbLine
 10
21.55335000000001
 20
171.978659502
 11
21.55335000000001
 21
174.553320184
  0
ARC
  5
14D
100
AcDbEntity
  8
Shape2DView007
  6
ByLayer
 62
  256
370
   -1
100
AcDbCircle
 10
21.652905
 20
174.725754502
 40
0.19911
100
AcDbArc
 50
90
 51
-120
  0
ARC
  5
14E
100
AcDbEntity
  8
Shape2DView007
  6
ByLayer
 62
  256
370
   -1
100
AcDbCircle
 10
21.652905
 20
174.725754502
 40
0.19911
100
AcDbArc
 50
30
 51
90
  0
LINE
  5
14F
100
AcDbEntity
  8
Shape2DView007
  6
ByLayer
 62
  256
370
   -1
100
AcDbLine
 10
21.825339318
 20
174.825309502
 11
31.09466068200001
 21
174.825309502
  0
ARC
  5
150
100
AcDbEntity
  8
Shape2DView007
  6
ByLayer
 62
  256
370
   -1
100
AcDbCircle
 10
31.26709500000001
 20
174.725754502
 40
0.19911
100
AcDbArc
 50
90
 51
150
  0
ARC
  5
151
100
AcDbEntity
  8
Shape2DView007
  6
ByLayer
 62
  256
370
   -1
100
AcDbCircle
 10
31.26709500000001
 20
174.725754502
 40
0.19911
100
AcDbArc
 50
-59.99999999999999
 51
90
  0
LINE
  5
152
100
AcDbEntity
  8
Shape2DView007
  6
ByLayer
 62
  256
370
   -1
100
AcDbLine
 10
31.36665000000001
 20
171.978659502
 11
31.36665000000001
 21
174.553320184
  0
LINE
  5
153
100
AcDbEntity
  8
Shape2DView007
  6
ByLayer
 62
  256
370
   -1
100
AcDbLine
 10
44.23335
 20
171.978659502
 11
31.36665000000001
 21
171.978659502
  0
LINE
  5
154
100
AcDbEntity
  8
Shape2DView007
  6
ByLayer
 62
  256
370
   -1
100
AcDbLine
 10
44.23335
 20
171.978659502
 11
44.23335
 21
174.553320184
  0
ARC
  5
155
100
AcDbEntity
  8
Shape2DView007
  6
ByLayer
 62
  256
370
   -1
100
AcDbCircle
 10
44.33290500000001
 20
174.725754502
 40
0.19911
100
AcDbArc
 50
90
 51
-120
  0
ARC
  5
156
100
AcDbEntity
  8
Shape2DView007
  6
ByLayer
 62
  256
370
   -1
100
AcDbCircle
 10
44.33290500000001
 20
174.725754502
 40
0.19911
100
AcDbArc
 50
30
 51
90
  0
LINE
  5
157
100
AcDbEntity
  8
Shape2DView007
  6
ByLayer
 62
  256
370
   -1
100
AcDbLine
 10
44.50533931800001
 20
174.825309502
 11
53.77466068200002
 21
174.825309502
  0
ARC
  5
158
100
AcDbEntity
  8
Shape2DView007
  6
ByLayer
 62
  256
370
   -1
100
AcDbCircle
 10
53.94709500000002
 20
174.725754502
 40
0.19911
100
AcDbArc
 50
90
 51
150
  0
ARC
  5
159
100
AcDbEntity
  8
Shape2DView007
  6
ByLayer
 62
  256
370
   -1
100
AcDbCircle
 10
53.94709500000002
 20
174.725754502
 40
0.19911
100
AcDbArc
 50
-59.99999999999999
 51
90
  0
LINE
  5
15A
100
AcDbEntity
  8
Shape2DView007
  6
ByLayer
 62
  256
370
   -1
100
AcDbLine
 10
54.04665
 20
171.978659502
 11
54.04665
 21
174.553320184
  0
LINE
  5
15B
100
AcDbEntity
  8
Shape2DView007
  6
ByLayer
 62
  256
370
   -1
100
AcDbLine
 10
63.33589838500001
 20
171.978659502
 11
54.04665
 21
171.978659502
  0
LINE
  5
15C
100
AcDbEntity
  8
Shape2DView007
  6
ByLayer
 62
  256
370
   -1
100
AcDbLine
 10
70.29647238200002
 20
170.113579321
 11
63.33589838500001
 21
171.978659502
  0
ARC
  5
15D
100
AcDbEntity
  8
Shape2DView007
  6
ByLayer
 62
  256
370
   -1
100
AcDbCircle
 10
70.40000000000001
 20
170.499949651
 40
0.4
100
AcDbArc
 50
-105
 51
0
  0
LINE
  5
15E
100
AcDbEntity
  8
Shape2DView007
  6
ByLayer
 62
  256
370
   -1
100
AcDbLine
 10
70.80000000000001
 20
171.978659502
 11
70.80000000000001
 21
170.499949651
  0
LINE
  5
15F
100
AcDbEntity
  8
Shape2DView007
  6
ByLayer
 62
  256
370
   -1
100
AcDbLine
 10
73.59999999999999
 20
171.978659502
 11
70.80000000000001
 21
171.978659502
  0
LINE
  5
160
100
AcDbEntity
  8
Shape2DView007
  6
ByLayer
 62
  256
370
   -1
100
AcDbLine
 10
73.59999999999999
 20
171.228659502
 11
73.59999999999999
 21
171.978659502
  0
LINE
  5
161
100
AcDbEntity
  8
Shape2DView007
  6
ByLayer
 62
  256
370
   -1
100
AcDbLine
 10
75.340449377
 20
171.881328018
 11
73.59999999999999
 21
171.228659502
  0
ARC
  5
162
100
AcDbEntity
  8
Shape2DView007
  6
ByLayer
 62
  256
370
   -1
100
AcDbCircle
 10
75.20000000000002
 20
172.255859689
 40
0.4
100
AcDbArc
 50
-69.44395478
 51
0
  0
LINE
  5
163
100
AcDbEntity
  8
Shape2DView007
  6
ByLayer
 62
  256
370
   -1
100
AcDbLine
 10
75.59999999999999
 20
174.378659502
 11
75.59999999999999
 21
172.255859689
  0
ARC
  5
164
100
AcDbEntity
  8
Shape2DView007
  6
ByLayer
 62
  256
370
   -1
100
AcDbCircle
 10
75.20000000000002
 20
174.378659502
 40
0.4
100
AcDbArc
 50
0
 51
90
  0
LINE
  5
165
100
AcDbEntity
  8
Shape2DView007
  6
ByLayer
 62
  256
370
   -1
100
AcDbLine
 10
61.59999999999999
 20
174.778659502
 11
75.20000000000002
 21
174.778659502
  0
ARC
  5
166
100
AcDbEntity
  8
Shape2DView007
  6
ByLayer
 62
  256
370
   -1
100
AcDbCircle
 10
61.59999999999999
 20
175.178659502
 40
0.4
100
AcDbArc
 50
90
 51
-90
  0
LINE
  5
167
100
AcDbEntity
  8
Shape2DView007
  6
ByLayer
 62
  256
370
   -1
100
AcDbLine
 10
75.20000000000002
 20
175.578659502
 11
61.59999999999999
 21
175.578659502
  0
ARC
  5
168
100
AcDbEntity
  8
Shape2DView007
  6
ByLayer
 62
  256
370
   -1
100
AcDbCircle
 10
75.20000000000002
 20
175.978659502
 40
0.4
100
AcDbArc
 50
-90
 51
0
  0
LINE
  5
169
100
AcDbEntity
  8
Shape2DView007
  6
ByLayer
 62
  256
370
   -1
100
AcDbLine
 10
75.59999999999999
 20
187.372009502
 11
75.59999999999999
 21
175.978659502
  0
LINE
  5
16A
100
AcDbEntity
  8
Shape2DView007
  6
ByLayer
 62
  256
370
   -1
100
AcDbLine
 10
73.02533931799999
 20
187.372009502
 11
75.59999999999999
 21
187.372009502
  0
ARC
  5
16B
100
AcDbEntity
  8
Shape2DView007
  6
ByLayer
 62
  256
370
   -1
100
AcDbCircle
 10
72.85290499999999
 20
187.471564502
 40
0.19911
100
AcDbArc
 50
120
 51
-30
  0
LINE
  5
16C
100
AcDbEntity
  8
Shape2DView007
  6
ByLayer
 62
  256
370
   -1
100
AcDbLine
 10
72.75335000000001
 20
196.913320184
 11
72.75335000000001
 21
187.64399882
  0
ARC
  5
16D
100
AcDbEntity
  8
Shape2DView007
  6
ByLayer
 62
  256
370
   -1
100
AcDbCircle
 10
72.85290499999999
 20
197.085754502
 40
0.19911
100
AcDbArc
 50
30
 51
-120
  0
LINE
  5
16E
100
AcDbEntity
  8
Shape2DView007
  6
ByLayer
 62
  256
370
   -1
100
AcDbLine
 10
73.02533931799999
 20
197.185309502
 11
75.59999999999999
 21
197.185309502
  0
LINE
  5
16F
100
AcDbEntity
  8
Shape2DView007
  6
ByLayer
 62
  256
370
   -1
100
AcDbLine
 10
75.59999999999999
 20
208.578659502
 11
75.59999999999999
 21
197.185309502
  0
ARC
  5
170
100
AcDbEntity
  8
Shape2DView007
  6
ByLayer
 62
  256
370
   -1
100
AcDbCircle
 10
75.20000000000002
 20
208.578659502
 40
0.4
100
AcDbArc
 50
0
 51
90
  0
LINE
  5
171
100
AcDbEntity
  8
Shape2DView007
  6
ByLayer
 62
  256
370
   -1
100
AcDbLine
 10
61.59999999999999
 20
208.978659502
 11
75.20000000000002
 21
208.978659502
  0
ARC
  5
172
100
AcDbEntity
  8
Shape2DView007
  6
ByLayer
 62
  256
370
   -1
100
AcDbCircle
 10
61.59999999999999
 20
209.378659502
 40
0.4
100
AcDbArc
 50
90
 51
-90
  0
LINE
  5
173
100
AcDbEntity
  8
Shape2DView007
  6
ByLayer
 62
  256
370
   -1
100
AcDbLine
 10
75.20000000000002
 20
209.778659502
 11
61.59999999999999
 21
209.778659502
  0
ARC
  5
174
100
AcDbEntity
  8
Shape2DView007
  6
ByLayer
 62
  256
370
   -1
100
AcDbCircle
 10
75.20000000000002
 20
210.178659502
 40
0.4
100
AcDbArc
 50
-90
 51
0
  0
LINE
  5
175
100
AcDbEntity
  8
Shape2DView007
  6
ByLayer
 62
  256
370
   -1
100
AcDbLine
 10
75.59999999999999
 20
212.001459315
 11
75.59999999999999
 21
210.178659502
  0
ARC
  5
176
100
AcDbEntity
  8
Shape2DView007
  6
ByLayer
 62
  256
370
   -1
100
AcDbCircle
 10
75.20000000000002
 20
212.001459315
 40
0.4
100
AcDbArc
 50
0
 51
110.55604522
  0
CIRCLE
  5
177
100
AcDbEntity
  8
Shape2DView007
  6
ByLayer
 62
  256
370
   -1
100
AcDbCircle
 10
25
 20
185.278659502
 40
8.5
  0
LINE
  5
178
100
AcDbEntity
  8
Shape2DView007
  6
ByLayer
 62
  256
370
   -1
100
AcDbLine
 10
34.95
 20
179.678659502
 11
40.65000000000001
 21
179.678659502
  0
ARC
  5
179
100
AcDbEntity
  8
Shape2DView007
  6
ByLayer
 62
  256
370
   -1
100
AcDbCircle
 10
34.95
 20
177.178659502
 40
2.5
100
AcDbArc
 50
90
 51
-90
  0
ARC
  5
17A
100
AcDbEntity
  8
Shape2DView007
  6
ByLayer
 62
  256
370
   -1
100
AcDbCircle
 10
40.65000000000001
 20
177.178659502
 40
2.5
100
AcDbArc
 50
-90
 51
90
  0
LINE
  5
17B
100
AcDbEntity
  8
Shape2DView007
  6
ByLayer
 62
  256
370
   -1
100
AcDbLine
 10
34.95
 20
174.678659502
 11
40.65000000000001
 21
174.678659502
  0
LINE
  5
17C
100
AcDbEntity
  8
Shape2DView007
  6
ByLayer
 62
  256
370
   -1
100
AcDbLine
 10
13.80000000000001
 20
204.888659502
 11
25.80000000000001
 21
204.888659502
  0
ARC
  5
17D
100
AcDbEntity
  8
Shape2DView007
  6
ByLayer
 62
  256
370
   -1
100
AcDbCircle
 10
13.80000000000001
 20
204.133659502
 40
0.755
100
AcDbArc
 50
90
 51
-90
  0
ARC
  5
17E
100
AcDbEntity
  8
Shape2DView007
  6
ByLayer
 62
  256
370
   -1
100
AcDbCircle
 10
25.80000000000001
 20
204.133659502
 40
0.755
100
AcDbArc
 50
-90
 51
90
  0
LINE
  5
17F
100
AcDbEntity
  8
Shape2DView007
  6
ByLayer
 62
  256
370
   -1
100
AcDbLine
 10
13.80000000000001
 20
203.378659502
 11
25.80000000000001
 21
203.378659502
  0
CIRCLE
  5
180
100
AcDbEntity
  8
Shape2DView007
  6
ByLayer
 62
  256
370
   -1
100
AcDbCircle
 10
50.59999999999999
 20
185.278659502
 40
8.5
  0
LINE
  5
181
100
AcDbEntity
  8
Shape2DView007
  6
ByLayer
 62
  256
370
   -1
100
AcDbLine
 10
49.80000000000001
 20
204.888659502
 11
61.80000000000001
 21
204.888659502
  0
ARC
  5
182
100
AcDbEntity
  8
Shape2DView007
  6
ByLayer
 62
  256
370
   -1
100
AcDbCircle
 10
49.80000000000001
 20
204.133659502
 40
0.755
100
AcDbArc
 50
90
 51
-90
  0
ARC
  5
183
100
AcDbEntity
  8
Shape2DView007
  6
ByLayer
 62
  256
370
   -1
100
AcDbCircle
 10
61.80000000000001
 20
204.133659502
 40
0.755
100
AcDbArc
 50
-90
 51
90
  0
LINE
  5
184
100
AcDbEntity
  8
Shape2DView007
  6
ByLayer
 62
  256
370
   -1
100
AcDbLine
 10
49.80000000000001
 20
203.378659502
 11
61.80000000000001
 21
203.378659502
  0
LINE
  5
185
100
AcDbEntity
  8
Shape2DView008
  6
ByLayer
 62
  256
370
   -1
100
AcDbLine
 10
80
 20
146.195628452
 11
93.99335000000002
 21
146.195628452
  0
LINE
  5
186
100
AcDbEntity
  8
Shape2DView008
  6
ByLayer
 62
  256
370
   -1
100
AcDbLine
 10
82.80000000000001
 20
89.80000000000001
 11
80
 21
89.80000000000001
  0
LINE
  5
187
100
AcDbEntity
  8
Shape2DView008
  6
ByLayer
 62
  256
370
   -1
100
AcDbLine
 10
82.80000000000001
 20
88.40000000000001
 11
82.80000000000001
 21
89.80000000000001
  0
LINE
  5
188
100
AcDbEntity
  8
Shape2DView008
  6
ByLayer
 62
  256
370
   -1
100
AcDbLine
 10
93.93804275700001
 20
88.40000000000001
 11
82.80000000000001
 21
88.40000000000001
  0
ELLIPSE
  5
189
100
AcDbEntity
  8
Shape2DView008
  6
ByLayer
 62
  256
370
   -1
100
AcDbEllipse
 10
94.08979333300002
 20
88.273291196
 30
0
 11
0
 21
0.205265703
 31
0
 40
0.939692621
 41
-5.759586532
 42
-5.377684492
  0
LINE
  5
18A
100
AcDbEntity
  8
Shape2DView008
  6
ByLayer
 62
  256
370
   -1
100
AcDbLine
 10
93.99335000000002
 20
90.969245728
 11
93.99335000000002
 21
88.45105650900001
  0
ELLIPSE
  5
18B
100
AcDbEntity
  8
Shape2DView008
  6
ByLayer
 62
  256
370
   -1
100
AcDbEllipse
 10
94.08979333300002
 20
91.14701104100001
 30
0
 11
0
 21
0.205265703
 31
0
 40
0.939692621
 41
-4.71238898
 42
-3.665191429
  0
ELLIPSE
  5
18C
100
AcDbEntity
  8
Shape2DView008
  6
ByLayer
 62
  256
370
   -1
100
AcDbEllipse
 10
94.08979333300002
 20
91.14701104100001
 30
0
 11
0
 21
0.205265703
 31
0
 40
0.939692621
 41
-1.047197551
 42
-4.71238898
  0
LINE
  5
18D
100
AcDbEntity
  8
Shape2DView008
  6
ByLayer
 62
  256
370
   -1
100
AcDbLine
 10
103.543161913
 20
91.24964389300001
 11
94.25683808700001
 21
91.24964389300001
  0
ELLIPSE
  5
18E
100
AcDbEntity
  8
Shape2DView008
  6
ByLayer
 62
  256
370
   -1
100
AcDbEllipse
 10
103.710206667
 20
91.14701104100001
 30
0
 11
0
 21
0.205265703
 31
0
 40
0.939692621
 41
-1.570796327
 42
-5.235987756
  0
ELLIPSE
  5
18F
100
AcDbEntity
  8
Shape2DView008
  6
ByLayer
 62
  256
370
   -1
100
AcDbEllipse
 10
103.710206667
 20
91.14701104100001
 30
0
 11
0
 21
0.205265703
 31
0
 40
0.939692621
 41
-2.617993878
 42
-1.570796327
  0
LINE
  5
190
100
AcDbEntity
  8
Shape2DView008
  6
ByLayer
 62
  256
370
   -1
100
AcDbLine
 10
103.80665
 20
90.969245728
 11
103.80665
 21
88.45105650900001
  0
ELLIPSE
  5
191
100
AcDbEntity
  8
Shape2DView008
  6
ByLayer
 62
  256
370
   -1
100
AcDbEllipse
 10
103.710206667
 20
88.273291196
 30
0
 11
0
 21
0.205265703
 31
0
 40
0.939692621
 41
-0.905500815
 42
-0.523598776
  0
LINE
  5
192
100
AcDbEntity
  8
Shape2DView008
  6
ByLayer
 62
  256
370
   -1
100
AcDbLine
 10
131.738042757
 20
88.40000000000001
 11
103.861957243
 21
88.40000000000001
  0
ELLIPSE
  5
193
100
AcDbEntity
  8
Shape2DView008
  6
ByLayer
 62
  256
370
   -1
100
AcDbEllipse
 10
131.889793333
 20
88.273291196
 30
0
 11
0
 21
0.205265703
 31
0
 40
0.939692621
 41
-5.759586532
 42
-5.377684492
  0
LINE
  5
194
100
AcDbEntity
  8
Shape2DView008
  6
ByLayer
 62
  256
370
   -1
100
AcDbLine
 10
131.79335
 20
90.969245728
 11
131.79335
 21
88.45105650900001
  0
ELLIPSE
  5
195
100
AcDbEntity
  8
Shape2DView008
  6
ByLayer
 62
  256
370
   -1
100
AcDbEllipse
 10
131.889793333
 20
91.14701104100001
 30
0
 11
0
 21
0.205265703
 31
0
 40
0.939692621
 41
-4.71238898
 42
-3.665191429
  0
ELLIPSE
  5
196
100
AcDbEntity
  8
Shape2DView008
  6
ByLayer
 62
  256
370
   -1
100
AcDbEllipse
 10
131.889793333
 20
91.14701104100001
 30
0
 11
0
 21
0.205265703
 31
0
 40
0.939692621
 41
-1.047197551
 42
-4.71238898
  0
LINE
  5
197
100
AcDbEntity
  8
Shape2DView008
  6
ByLayer
 62
  256
370
   -1
100
AcDbLine
 10
141.343161913
 20
91.24964389300001
 11
132.056838087
 21
91.24964389300001
  0
ELLIPSE
  5
198
100
AcDbEntity
  8
Shape2DView008
  6
ByLayer
 62
  256
370
   -1
100
AcDbEllipse
 10
141.510206667
 20
91.14701104100001
 30
0
 11
0
 21
0.205265703
 31
0
 40
0.939692621
 41
-1.570796327
 42
-5.235987756
  0
ELLIPSE
  5
199
100
AcDbEntity
  8
Shape2DView008
  6
ByLayer
 62
  256
370
   -1
100
AcDbEllipse
 10
141.510206667
 20
91.14701104100001
 30
0
 11
0
 21
0.205265703
 31
0
 40
0.939692621
 41
-2.617993878
 42
-1.570796327
  0
LINE
  5
19A
100
AcDbEntity
  8
Shape2DView008
  6
ByLayer
 62
  256
370
   -1
100
AcDbLine
 10
141.60665
 20
90.969245728
 11
141.60665
 21
88.45105650900001
  0
ELLIPSE
  5
19B
100
AcDbEntity
  8
Shape2DView008
  6
ByLayer
 62
  256
370
   -1
100
AcDbEllipse
 10
141.510206667
 20
88.273291196
 30
0
 11
0
 21
0.205265703
 31
0
 40
0.939692621
 41
-0.905500815
 42
-0.523598776
  0
LINE
  5
19C
100
AcDbEntity
  8
Shape2DView008
  6
ByLayer
 62
  256
370
   -1
100
AcDbLine
 10
152.8
 20
88.40000000000001
 11
141.661957243
 21
88.40000000000001
  0
LINE
  5
19D
100
AcDbEntity
  8
Shape2DView008
  6
ByLayer
 62
  256
370
   -1
100
AcDbLine
 10
152.8
 20
89.80000000000001
 11
152.8
 21
88.40000000000001
  0
LINE
  5
19E
100
AcDbEntity
  8
Shape2DView008
  6
ByLayer
 62
  256
370
   -1
100
AcDbLine
 10
155.6
 20
89.80000000000001
 11
152.8
 21
89.80000000000001
  0
LINE
  5
19F
100
AcDbEntity
  8
Shape2DView008
  6
ByLayer
 62
  256
370
   -1
100
AcDbLine
 10
155.6
 20
112.810873672
 11
155.6
 21
89.80000000000001
  0
LINE
  5
1A0
100
AcDbEntity
  8
Shape2DView008
  6
ByLayer
 62
  256
370
   -1
100
AcDbLine
 10
153.025339318
 20
112.810873672
 11
155.6
 21
112.810873672
  0
ARC
  5
1A1
100
AcDbEntity
  8
Shape2DView008
  6
ByLayer
 62
  256
370
   -1
100
AcDbCircle
 10
152.852905
 20
112.910428672
 40
0.19911
100
AcDbArc
 50
120
 51
-30
  0
LINE
  5
1A2
100
AcDbEntity
  8
Shape2DView008
  6
ByLayer
 62
  256
370
   -1
100
AcDbLine
 10
152.75335
 20
122.352184354
 11
152.75335
 21
113.08286299
  0
ARC
  5
1A3
100
AcDbEntity
  8
Shape2DView008
  6
ByLayer
 62
  256
370
   -1
100
AcDbCircle
 10
152.852905
 20
122.524618672
 40
0.19911
100
AcDbArc
 50
30
 51
-120
  0
LINE
  5
1A4
100
AcDbEntity
  8
Shape2DView008
  6
ByLayer
 62
  256
370
   -1
100
AcDbLine
 10
153.025339318
 20
122.624173672
 11
155.6
 21
122.624173672
  0
LINE
  5
1A5
100
AcDbEntity
  8
Shape2DView008
  6
ByLayer
 62
  256
370
   -1
100
AcDbLine
 10
155.6
 20
146.195628452
 11
155.6
 21
122.624173672
  0
LINE
  5
1A6
100
AcDbEntity
  8
Shape2DView008
  6
ByLayer
 62
  256
370
   -1
100
AcDbLine
 10
141.60665
 20
146.195628452
 11
155.6
 21
146.195628452
  0
LINE
  5
1A7
100
AcDbEntity
  8
Shape2DView008
  6
ByLayer
 62
  256
370
   -1
100
AcDbLine
 10
141.60665
 20
146.195628452
 11
141.60665
 21
143.62096777
  0
ARC
  5
1A8
100
AcDbEntity
  8
Shape2DView008
  6
ByLayer
 62
  256
370
   -1
100
AcDbCircle
 10
141.507095
 20
143.448533452
 40
0.19911
100
AcDbArc
 50
-90
 51
59.99999999999999
  0
ARC
  5
1A9
100
AcDbEntity
  8
Shape2DView008
  6
ByLayer
 62
  256
370
   -1
100
AcDbCircle
 10
141.507095
 20
143.448533452
 40
0.19911
100
AcDbArc
 50
-150
 51
-90
  0
LINE
  5
1AA
100
AcDbEntity
  8
Shape2DView008
  6
ByLayer
 62
  256
370
   -1
100
AcDbLine
 10
132.065339318
 20
143.348978452
 11
141.334660682
 21
143.348978452
  0
ARC
  5
1AB
100
AcDbEntity
  8
Shape2DView008
  6
ByLayer
 62
  256
370
   -1
100
AcDbCircle
 10
131.892905
 20
143.448533452
 40
0.19911
100
AcDbArc
 50
-90
 51
-30
  0
ARC
  5
1AC
100
AcDbEntity
  8
Shape2DView008
  6
ByLayer
 62
  256
370
   -1
100
AcDbCircle
 10
131.892905
 20
143.448533452
 40
0.19911
100
AcDbArc
 50
120
 51
-90
  0
LINE
  5
1AD
100
AcDbEntity
  8
Shape2DView008
  6
ByLayer
 62
  256
370
   -1
100
AcDbLine
 10
131.79335
 20
146.195628452
 11
131.79335
 21
143.62096777
  0
LINE
  5
1AE
100
AcDbEntity
  8
Shape2DView008
  6
ByLayer
 62
  256
370
   -1
100
AcDbLine
 10
103.80665
 20
146.195628452
 11
131.79335
 21
146.195628452
  0
LINE
  5
1AF
100
AcDbEntity
  8
Shape2DView008
  6
ByLayer
 62
  256
370
   -1
100
AcDbLine
 10
103.80665
 20
146.195628452
 11
103.80665
 21
143.62096777
  0
ARC
  5
1B0
100
AcDbEntity
  8
Shape2DView008
  6
ByLayer
 62
  256
370
   -1
100
AcDbCircle
 10
103.707095
 20
143.448533452
 40
0.19911
100
AcDbArc
 50
-90
 51
59.99999999999999
  0
ARC
  5
1B1
100
AcDbEntity
  8
Shape2DView008
  6
ByLayer
 62
  256
370
   -1
100
AcDbCircle
 10
103.707095
 20
143.448533452
 40
0.19911
100
AcDbArc
 50
-150
 51
-90
  0
LINE
  5
1B2
100
AcDbEntity
  8
Shape2DView008
  6
ByLayer
 62
  256
370
   -1
100
AcDbLine
 10
94.265339318
 20
143.348978452
 11
103.534660682
 21
143.348978452
  0
ARC
  5
1B3
100
AcDbEntity
  8
Shape2DView008
  6
ByLayer
 62
  256
370
   -1
100
AcDbCircle
 10
94.092905
 20
143.448533452
 40
0.19911
100
AcDbArc
 50
-90
 51
-30
  0
ARC
  5
1B4
100
AcDbEntity
  8
Shape2DView008
  6
ByLayer
 62
  256
370
   -1
100
AcDbCircle
 10
94.092905
 20
143.448533452
 40
0.19911
100
AcDbArc
 50
120
 51
-90
  0
LINE
  5
1B5
100
AcDbEntity
  8
Shape2DView008
  6
ByLayer
 62
  256
370
   -1
100
AcDbLine
 10
93.99335000000002
 20
146.195628452
 11
93.99335000000002
 21
143.62096777
  0
LINE
  5
1B6
100
AcDbEntity
  8
Shape2DView008
  6
ByLayer
 62
  256
370
   -1
100
AcDbLine
 10
80
 20
122.624173672
 11
80
 21
146.195628452
  0
LINE
  5
1B7
100
AcDbEntity
  8
Shape2DView008
  6
ByLayer
 62
  256
370
   -1
100
AcDbLine
 10
80
 20
122.624173672
 11
82.574660682
 21
122.624173672
  0
ARC
  5
1B8
100
AcDbEntity
  8
Shape2DView008
  6
ByLayer
 62
  256
370
   -1
100
AcDbCircle
 10
82.747095
 20
122.524618672
 40
0.19911
100
AcDbArc
 50
0
 51
150
  0
ARC
  5
1B9
100
AcDbEntity
  8
Shape2DView008
  6
ByLayer
 62
  256
370
   -1
100
AcDbCircle
 10
82.747095
 20
122.524618672
 40
0.19911
100
AcDbArc
 50
-59.99999999999999
 51
0
  0
LINE
  5
1BA
100
AcDbEntity
  8
Shape2DView008
  6
ByLayer
 62
  256
370
   -1
100
AcDbLine
 10
82.84665000000001
 20
122.352184354
 11
82.84665000000001
 21
113.08286299
  0
ARC
  5
1BB
100
AcDbEntity
  8
Shape2DView008
  6
ByLayer
 62
  256
370
   -1
100
AcDbCircle
 10
82.747095
 20
112.910428672
 40
0.19911
100
AcDbArc
 50
0
 51
59.99999999999999
  0
ARC
  5
1BC
100
AcDbEntity
  8
Shape2DView008
  6
ByLayer
 62
  256
370
   -1
100
AcDbCircle
 10
82.747095
 20
112.910428672
 40
0.19911
100
AcDbArc
 50
-150
 51
0
  0
LINE
  5
1BD
100
AcDbEntity
  8
Shape2DView008
  6
ByLayer
 62
  256
370
   -1
100
AcDbLine
 10
80
 20
112.810873672
 11
82.574660682
 21
112.810873672
  0
LINE
  5
1BE
100
AcDbEntity
  8
Shape2DView008
  6
ByLayer
 62
  256
370
   -1
100
AcDbLine
 10
80
 20
89.80000000000001
 11
80
 21
112.810873672
  0
CIRCLE
  5
1BF
100
AcDbEntity
  8
Shape2DView008
  6
ByLayer
 62
  256
370
   -1
100
AcDbCircle
 10
116.3
 20
97.40000000000001
 40
2
  0
LINE
  5
1C0
100
AcDbEntity
  8
Shape2DView002
  6
ByLayer
 62
  256
370
   -1
100
AcDbLine
 10
155.6
 20
180
 11
153.025339318
 21
180
  0
LINE
  5
1C1
100
AcDbEntity
  8
Shape2DView002
  6
ByLayer
 62
  256
370
   -1
100
AcDbLine
 10
155.6
 20
180
 11
155.6
 21
195.09335
  0
LINE
  5
1C2
100
AcDbEntity
  8
Shape2DView002
  6
ByLayer
 62
  256
370
   -1
100
AcDbLine
 10
132.530016667
 20
195.09335
 11
155.6
 21
195.09335
  0
ARC
  5
1C3
100
AcDbEntity
  8
Shape2DView002
  6
ByLayer
 62
  256
370
   -1
100
AcDbCircle
 10
132.34335
 20
195.09335
 40
0.186666667
100
AcDbArc
 50
90
 51
180
  0
ARC
  5
1C4
100
AcDbEntity
  8
Shape2DView002
  6
ByLayer
 62
  256
370
   -1
100
AcDbCircle
 10
132.34335
 20
195.09335
 40
0.186666667
100
AcDbArc
 50
180
 51
-0
  0
LINE
  5
1C5
100
AcDbEntity
  8
Shape2DView002
  6
ByLayer
 62
  256
370
   -1
100
AcDbLine
 10
132.34335
 20
195.280016667
 11
132.34335
 21
197.89335
  0
LINE
  5
1C6
100
AcDbEntity
  8
Shape2DView002
  6
ByLayer
 62
  256
370
   -1
100
AcDbLine
 10
132.34335
 20
197.89335
 11
122.15665
 21
197.89335
  0
ARC
  5
1C7
100
AcDbEntity
  8
Shape2DView002
  6
ByLayer
 62
  256
370
   -1
100
AcDbCircle
 10
122.15665
 20
195.09335
 40
0.186666667
100
AcDbArc
 50
180
 51
0
  0
ARC
  5
1C8
100
AcDbEntity
  8
Shape2DView002
  6
ByLayer
 62
  256
370
   -1
100
AcDbCircle
 10
122.15665
 20
195.09335
 40
0.186666667
100
AcDbArc
 50
0
 51
90
  0
LINE
  5
1C9
100
AcDbEntity
  8
Shape2DView002
  6
ByLayer
 62
  256
370
   -1
100
AcDbLine
 10
113.630016667
 20
195.09335
 11
121.969983333
 21
195.09335
  0
ARC
  5
1CA
100
AcDbEntity
  8
Shape2DView002
  6
ByLayer
 62
  256
370
   -1
100
AcDbCircle
 10
113.44335
 20
195.09335
 40
0.186666667
100
AcDbArc
 50
90
 51
180
  0
ARC
  5
1CB
100
AcDbEntity
  8
Shape2DView002
  6
ByLayer
 62
  256
370
   -1
100
AcDbCircle
 10
113.44335
 20
195.09335
 40
0.186666667
100
AcDbArc
 50
180
 51
0
  0
LINE
  5
1CC
100
AcDbEntity
  8
Shape2DView002
  6
ByLayer
 62
  256
370
   -1
100
AcDbLine
 10
122.15665
 20
195.280016667
 11
122.15665
 21
197.89335
  0
LINE
  5
1CD
100
AcDbEntity
  8
Shape2DView002
  6
ByLayer
 62
  256
370
   -1
100
AcDbLine
 10
113.44335
 20
195.280016667
 11
113.44335
 21
197.89335
  0
LINE
  5
1CE
100
AcDbEntity
  8
Shape2DView002
  6
ByLayer
 62
  256
370
   -1
100
AcDbLine
 10
113.44335
 20
197.89335
 11
103.25665
 21
197.89335
  0
LINE
  5
1CF
100
AcDbEntity
  8
Shape2DView002
  6
ByLayer
 62
  256
370
   -1
100
AcDbLine
 10
80
 20
152.29335
 11
82
 21
151.54335
  0
LINE
  5
1D0
100
AcDbEntity
  8
Shape2DView002
  6
ByLayer
 62
  256
370
   -1
100
AcDbLine
 10
80
 20
152.29335
 11
80
 21
155.09335
  0
LINE
  5
1D1
100
AcDbEntity
  8
Shape2DView002
  6
ByLayer
 62
  256
370
   -1
100
AcDbLine
 10
82
 20
151.54335
 11
82
 21
152.29335
  0
LINE
  5
1D2
100
AcDbEntity
  8
Shape2DView002
  6
ByLayer
 62
  256
370
   -1
100
AcDbLine
 10
80
 20
155.09335
 11
94
 21
155.09335
  0
LINE
  5
1D3
100
AcDbEntity
  8
Shape2DView002
  6
ByLayer
 62
  256
370
   -1
100
AcDbLine
 10
82
 20
152.29335
 11
84.80000000000001
 21
152.29335
  0
LINE
  5
1D4
100
AcDbEntity
  8
Shape2DView002
  6
ByLayer
 62
  256
370
   -1
100
AcDbLine
 10
84.80000000000001
 20
152.29335
 11
84.80000000000001
 21
150.29335
  0
LINE
  5
1D5
100
AcDbEntity
  8
Shape2DView002
  6
ByLayer
 62
  256
370
   -1
100
AcDbLine
 10
84.80000000000001
 20
150.29335
 11
92.26410161500002
 21
152.29335
  0
LINE
  5
1D6
100
AcDbEntity
  8
Shape2DView002
  6
ByLayer
 62
  256
370
   -1
100
AcDbLine
 10
92.26410161500002
 20
152.29335
 11
143.335898385
 21
152.29335
  0
LINE
  5
1D7
100
AcDbEntity
  8
Shape2DView002
  6
ByLayer
 62
  256
370
   -1
100
AcDbLine
 10
143.335898385
 20
152.29335
 11
150.8
 21
150.29335
  0
LINE
  5
1D8
100
AcDbEntity
  8
Shape2DView002
  6
ByLayer
 62
  256
370
   -1
100
AcDbLine
 10
150.8
 20
150.29335
 11
150.8
 21
152.29335
  0
LINE
  5
1D9
100
AcDbEntity
  8
Shape2DView002
  6
ByLayer
 62
  256
370
   -1
100
AcDbLine
 10
153.6
 20
152.29335
 11
150.8
 21
152.29335
  0
LINE
  5
1DA
100
AcDbEntity
  8
Shape2DView002
  6
ByLayer
 62
  256
370
   -1
100
AcDbLine
 10
153.6
 20
151.54335
 11
153.6
 21
152.29335
  0
LINE
  5
1DB
100
AcDbEntity
  8
Shape2DView002
  6
ByLayer
 62
  256
370
   -1
100
AcDbLine
 10
155.6
 20
152.29335
 11
153.6
 21
151.54335
  0
LINE
  5
1DC
100
AcDbEntity
  8
Shape2DView002
  6
ByLayer
 62
  256
370
   -1
100
AcDbLine
 10
155.6
 20
155.09335
 11
155.6
 21
152.29335
  0
LINE
  5
1DD
100
AcDbEntity
  8
Shape2DView002
  6
ByLayer
 62
  256
370
   -1
100
AcDbLine
 10
155.6
 20
155.09335
 11
141.6
 21
155.09335
  0
ARC
  5
1DE
100
AcDbEntity
  8
Shape2DView002
  6
ByLayer
 62
  256
370
   -1
100
AcDbCircle
 10
141.6
 20
155.49335
 40
0.4
100
AcDbArc
 50
90
 51
-90
  0
LINE
  5
1DF
100
AcDbEntity
  8
Shape2DView002
  6
ByLayer
 62
  256
370
   -1
100
AcDbLine
 10
141.6
 20
155.89335
 11
155.6
 21
155.89335
  0
LINE
  5
1E0
100
AcDbEntity
  8
Shape2DView002
  6
ByLayer
 62
  256
370
   -1
100
AcDbLine
 10
155.6
 20
155.89335
 11
155.6
 21
170.1867
  0
LINE
  5
1E1
100
AcDbEntity
  8
Shape2DView002
  6
ByLayer
 62
  256
370
   -1
100
AcDbLine
 10
155.6
 20
170.1867
 11
153.025339318
 21
170.1867
  0
ARC
  5
1E2
100
AcDbEntity
  8
Shape2DView002
  6
ByLayer
 62
  256
370
   -1
100
AcDbCircle
 10
94
 20
155.49335
 40
0.4
100
AcDbArc
 50
-90
 51
90
  0
ARC
  5
1E3
100
AcDbEntity
  8
Shape2DView002
  6
ByLayer
 62
  256
370
   -1
100
AcDbCircle
 10
103.25665
 20
195.09335
 40
0.186666667
100
AcDbArc
 50
180
 51
0
  0
ARC
  5
1E4
100
AcDbEntity
  8
Shape2DView002
  6
ByLayer
 62
  256
370
   -1
100
AcDbCircle
 10
103.25665
 20
195.09335
 40
0.186666667
100
AcDbArc
 50
0
 51
90
  0
LINE
  5
1E5
100
AcDbEntity
  8
Shape2DView002
  6
ByLayer
 62
  256
370
   -1
100
AcDbLine
 10
80
 20
195.09335
 11
103.069983333
 21
195.09335
  0
LINE
  5
1E6
100
AcDbEntity
  8
Shape2DView002
  6
ByLayer
 62
  256
370
   -1
100
AcDbLine
 10
80
 20
180
 11
80
 21
195.09335
  0
LINE
  5
1E7
100
AcDbEntity
  8
Shape2DView002
  6
ByLayer
 62
  256
370
   -1
100
AcDbLine
 10
82.574660682
 20
180
 11
80
 21
180
  0
ARC
  5
1E8
100
AcDbEntity
  8
Shape2DView002
  6
ByLayer
 62
  256
370
   -1
100
AcDbCircle
 10
82.747095
 20
179.900445
 40
0.19911
100
AcDbArc
 50
-59.99999999999999
 51
150
  0
LINE
  5
1E9
100
AcDbEntity
  8
Shape2DView002
  6
ByLayer
 62
  256
370
   -1
100
AcDbLine
 10
82.84665000000001
 20
179.728010682
 11
82.84665000000001
 21
170.458689318
  0
ARC
  5
1EA
100
AcDbEntity
  8
Shape2DView002
  6
ByLayer
 62
  256
370
   -1
100
AcDbCircle
 10
82.747095
 20
170.286255
 40
0.19911
100
AcDbArc
 50
-150
 51
59.99999999999999
  0
LINE
  5
1EB
100
AcDbEntity
  8
Shape2DView002
  6
ByLayer
 62
  256
370
   -1
100
AcDbLine
 10
82.574660682
 20
170.1867
 11
80
 21
170.1867
  0
LINE
  5
1EC
100
AcDbEntity
  8
Shape2DView002
  6
ByLayer
 62
  256
370
   -1
100
AcDbLine
 10
80
 20
155.89335
 11
80
 21
170.1867
  0
LINE
  5
1ED
100
AcDbEntity
  8
Shape2DView002
  6
ByLayer
 62
  256
370
   -1
100
AcDbLine
 10
94
 20
155.89335
 11
80
 21
155.89335
  0
LINE
  5
1EE
100
AcDbEntity
  8
Shape2DView002
  6
ByLayer
 62
  256
370
   -1
100
AcDbLine
 10
103.25665
 20
195.280016667
 11
103.25665
 21
197.89335
  0
ARC
  5
1EF
100
AcDbEntity
  8
Shape2DView002
  6
ByLayer
 62
  256
370
   -1
100
AcDbCircle
 10
152.852905
 20
170.286255
 40
0.19911
100
AcDbArc
 50
180
 51
-30
  0
ARC
  5
1F0
100
AcDbEntity
  8
Shape2DView002
  6
ByLayer
 62
  256
370
   -1
100
AcDbCircle
 10
152.852905
 20
170.286255
 40
0.19911
100
AcDbArc
 50
120
 51
180
  0
LINE
  5
1F1
100
AcDbEntity
  8
Shape2DView002
  6
ByLayer
 62
  256
370
   -1
100
AcDbLine
 10
152.75335
 20
179.728010682
 11
152.75335
 21
170.458689318
  0
ARC
  5
1F2
100
AcDbEntity
  8
Shape2DView002
  6
ByLayer
 62
  256
370
   -1
100
AcDbCircle
 10
152.852905
 20
179.900445
 40
0.19911
100
AcDbArc
 50
180
 51
-120
  0
ARC
  5
1F3
100
AcDbEntity
  8
Shape2DView002
  6
ByLayer
 62
  256
370
   -1
100
AcDbCircle
 10
152.852905
 20
179.900445
 40
0.19911
100
AcDbArc
 50
30
 51
180
  0
ARC
  5
1F4
100
AcDbEntity
  8
Shape2DView
  6
ByLayer
 62
  256
370
   -1
100
AcDbCircle
 10
-6.360213944034641
 20
44.801942819
 40
0.186666667
100
AcDbArc
 50
20
 51
-160
  0
ARC
  5
1F5
100
AcDbEntity
  8
Shape2DView
  6
ByLayer
 62
  256
370
   -1
100
AcDbCircle
 10
-6.360213944034641
 20
44.801942819
 40
0.186666667
100
AcDbArc
 50
-160
 51
-70
  0
LINE
  5
1F6
100
AcDbEntity
  8
Shape2DView
  6
ByLayer
 62
  256
370
   -1
100
AcDbLine
 10
-6.18480465503464
 20
44.865786579
 11
15.61426756096536
 21
52.8
  0
LINE
  5
1F7
100
AcDbEntity
  8
Shape2DView
  6
ByLayer
 62
  256
370
   -1
100
AcDbLine
 10
15.61426756096536
 20
52.8
 11
21.07382107496537
 21
37.8
  0
LINE
  5
1F8
100
AcDbEntity
  8
Shape2DView
  6
ByLayer
 62
  256
370
   -1
100
AcDbLine
 10
22.09293773096536
 20
37.8
 11
22.09293773096536
 21
52.519983333
  0
ARC
  5
1F9
100
AcDbEntity
  8
Shape2DView
  6
ByLayer
 62
  256
370
   -1
100
AcDbCircle
 10
22.09293773096536
 20
52.70665
 40
0.186666667
100
AcDbArc
 50
0
 51
90
  0
ARC
  5
1FA
100
AcDbEntity
  8
Shape2DView
  6
ByLayer
 62
  256
370
   -1
100
AcDbCircle
 10
22.09293773096536
 20
52.70665
 40
0.186666667
100
AcDbArc
 50
90
 51
-90
  0
LINE
  5
1FB
100
AcDbEntity
  8
Shape2DView
  6
ByLayer
 62
  256
370
   -1
100
AcDbLine
 10
21.07382107496537
 20
37.8
 11
22.09293773096536
 21
37.8
  0
LINE
  5
1FC
100
AcDbEntity
  8
Shape2DView
  6
ByLayer
 62
  256
370
   -1
100
AcDbLine
 10
22.27960439796536
 20
52.70665
 11
24.89293773096536
 21
52.70665
  0
LINE
  5
1FD
100
AcDbEntity
  8
Shape2DView
  6
ByLayer
 62
  256
370
   -1
100
AcDbLine
 10
24.89293773096536
 20
62.89335
 11
24.89293773096536
 21
52.70665
  0
LINE
  5
1FE
100
AcDbEntity
  8
Shape2DView
  6
ByLayer
 62
  256
370
   -1
100
AcDbLine
 10
22.27960439796536
 20
62.89335
 11
24.89293773096536
 21
62.89335
  0
ARC
  5
1FF
100
AcDbEntity
  8
Shape2DView
  6
ByLayer
 62
  256
370
   -1
100
AcDbCircle
 10
22.09293773096536
 20
62.89335
 40
0.186666667
100
AcDbArc
 50
90
 51
-90
  0
ARC
  5
200
100
AcDbEntity
  8
Shape2DView
  6
ByLayer
 62
  256
370
   -1
100
AcDbCircle
 10
22.09293773096536
 20
62.89335
 40
0.186666667
100
AcDbArc
 50
-90
 51
0
  0
LINE
  5
201
100
AcDbEntity
  8
Shape2DView
  6
ByLayer
 62
  256
370
   -1
100
AcDbLine
 10
22.09293773096536
 20
63.080016667
 11
22.09293773096536
 21
77.8
  0
LINE
  5
202
100
AcDbEntity
  8
Shape2DView
  6
ByLayer
 62
  256
370
   -1
100
AcDbLine
 10
22.09293773096536
 20
77.8
 11
3.622954397965358
 21
77.8
  0
ARC
  5
203
100
AcDbEntity
  8
Shape2DView
  6
ByLayer
 62
  256
370
   -1
100
AcDbCircle
 10
3.436287730965361
 20
77.8
 40
0.186666667
100
AcDbArc
 50
90
 51
180
  0
ARC
  5
204
100
AcDbEntity
  8
Shape2DView
  6
ByLayer
 62
  256
370
   -1
100
AcDbCircle
 10
3.436287730965361
 20
77.8
 40
0.186666667
100
AcDbArc
 50
180
 51
0
  0
LINE
  5
205
100
AcDbEntity
  8
Shape2DView
  6
ByLayer
 62
  256
370
   -1
100
AcDbLine
 10
3.436287730965361
 20
77.98666666699999
 11
3.436287730965361
 21
80.59999999999999
  0
LINE
  5
206
100
AcDbEntity
  8
Shape2DView
  6
ByLayer
 62
  256
370
   -1
100
AcDbLine
 10
-6.750412269034641
 20
80.59999999999999
 11
3.436287730965361
 21
80.59999999999999
  0
LINE
  5
207
100
AcDbEntity
  8
Shape2DView
  6
ByLayer
 62
  256
370
   -1
100
AcDbLine
 10
-6.750412269034641
 20
77.98666666699999
 11
-6.750412269034641
 21
80.59999999999999
  0
ARC
  5
208
100
AcDbEntity
  8
Shape2DView
  6
ByLayer
 62
  256
370
   -1
100
AcDbCircle
 10
-6.750412269034641
 20
77.8
 40
0.186666667
100
AcDbArc
 50
180
 51
0
  0
ARC
  5
209
100
AcDbEntity
  8
Shape2DView
  6
ByLayer
 62
  256
370
   -1
100
AcDbCircle
 10
-6.750412269034641
 20
77.8
 40
0.186666667
100
AcDbArc
 50
0
 51
90
  0
LINE
  5
20A
100
AcDbEntity
  8
Shape2DView
  6
ByLayer
 62
  256
370
   -1
100
AcDbLine
 10
-6.937078936034638
 20
77.8
 11
-43.87704560203464
 21
77.8
  0
ARC
  5
20B
100
AcDbEntity
  8
Shape2DView
  6
ByLayer
 62
  256
370
   -1
100
AcDbCircle
 10
-44.06371226903464
 20
77.8
 40
0.186666667
100
AcDbArc
 50
90
 51
180
  0
ARC
  5
20C
100
AcDbEntity
  8
Shape2DView
  6
ByLayer
 62
  256
370
   -1
100
AcDbCircle
 10
-44.06371226903464
 20
77.8
 40
0.186666667
100
AcDbArc
 50
180
 51
0
  0
LINE
  5
20D
100
AcDbEntity
  8
Shape2DView
  6
ByLayer
 62
  256
370
   -1
100
AcDbLine
 10
-44.06371226903464
 20
77.98666666699999
 11
-44.06371226903464
 21
80.59999999999999
  0
LINE
  5
20E
100
AcDbEntity
  8
Shape2DView
  6
ByLayer
 62
  256
370
   -1
100
AcDbLine
 10
-54.25041226903464
 20
80.59999999999999
 11
-44.06371226903464
 21
80.59999999999999
  0
LINE
  5
20F
100
AcDbEntity
  8
Shape2DView
  6
ByLayer
 62
  256
370
   -1
100
AcDbLine
 10
-54.25041226903464
 20
77.98666666699999
 11
-54.25041226903464
 21
80.59999999999999
  0
ARC
  5
210
100
AcDbEntity
  8
Shape2DView
  6
ByLayer
 62
  256
370
   -1
100
AcDbCircle
 10
-54.25041226903464
 20
77.8
 40
0.186666667
100
AcDbArc
 50
180
 51
0
  0
ARC
  5
211
100
AcDbEntity
  8
Shape2DView
  6
ByLayer
 62
  256
370
   -1
100
AcDbCircle
 10
-54.25041226903464
 20
77.8
 40
0.186666667
100
AcDbArc
 50
0
 51
90
  0
LINE
  5
212
100
AcDbEntity
  8
Shape2DView
  6
ByLayer
 62
  256
370
   -1
100
AcDbLine
 10
-54.43707893603464
 20
77.8
 11
-72.90706226903464
 21
77.8
  0
LINE
  5
213
100
AcDbEntity
  8
Shape2DView
  6
ByLayer
 62
  256
370
   -1
100
AcDbLine
 10
-72.90706226903464
 20
77.8
 11
-72.90706226903464
 21
64.330016667
  0
ARC
  5
214
100
AcDbEntity
  8
Shape2DView
  6
ByLayer
 62
  256
370
   -1
100
AcDbCircle
 10
-72.90706226903464
 20
64.14335
 40
0.186666667
100
AcDbArc
 50
180
 51
-90
  0
ARC
  5
215
100
AcDbEntity
  8
Shape2DView
  6
ByLayer
 62
  256
370
   -1
100
AcDbCircle
 10
-72.90706226903464
 20
64.14335
 40
0.186666667
100
AcDbArc
 50
-90
 51
90
  0
LINE
  5
216
100
AcDbEntity
  8
Shape2DView
  6
ByLayer
 62
  256
370
   -1
100
AcDbLine
 10
-73.09372893603464
 20
64.14335
 11
-75.70706226903464
 21
64.14335
  0
LINE
  5
217
100
AcDbEntity
  8
Shape2DView
  6
ByLayer
 62
  256
370
   -1
100
AcDbLine
 10
-75.70706226903464
 20
53.95665
 11
-75.70706226903464
 21
64.14335
  0
LINE
  5
218
100
AcDbEntity
  8
Shape2DView
  6
ByLayer
 62
  256
370
   -1
100
AcDbLine
 10
-73.09372893603464
 20
53.95665
 11
-75.70706226903464
 21
53.95665
  0
ARC
  5
219
100
AcDbEntity
  8
Shape2DView
  6
ByLayer
 62
  256
370
   -1
100
AcDbCircle
 10
-72.90706226903464
 20
53.95665
 40
0.186666667
100
AcDbArc
 50
-90
 51
90
  0
ARC
  5
21A
100
AcDbEntity
  8
Shape2DView
  6
ByLayer
 62
  256
370
   -1
100
AcDbCircle
 10
-72.90706226903464
 20
53.95665
 40
0.186666667
100
AcDbArc
 50
90
 51
180
  0
LINE
  5
21B
100
AcDbEntity
  8
Shape2DView
  6
ByLayer
 62
  256
370
   -1
100
AcDbLine
 10
-72.90706226903464
 20
53.769983333
 11
-72.90706226903464
 21
26.830016667
  0
ARC
  5
21C
100
AcDbEntity
  8
Shape2DView
  6
ByLayer
 62
  256
370
   -1
100
AcDbCircle
 10
-72.90706226903464
 20
26.64335
 40
0.186666667
100
AcDbArc
 50
180
 51
-90
  0
ARC
  5
21D
100
AcDbEntity
  8
Shape2DView
  6
ByLayer
 62
  256
370
   -1
100
AcDbCircle
 10
-72.90706226903464
 20
26.64335
 40
0.186666667
100
AcDbArc
 50
-90
 51
90
  0
LINE
  5
21E
100
AcDbEntity
  8
Shape2DView
  6
ByLayer
 62
  256
370
   -1
100
AcDbLine
 10
-73.09372893603464
 20
26.64335
 11
-75.70706226903464
 21
26.64335
  0
LINE
  5
21F
100
AcDbEntity
  8
Shape2DView
  6
ByLayer
 62
  256
370
   -1
100
AcDbLine
 10
-75.70706226903464
 20
16.45665
 11
-75.70706226903464
 21
26.64335
  0
LINE
  5
220
100
AcDbEntity
  8
Shape2DView
  6
ByLayer
 62
  256
370
   -1
100
AcDbLine
 10
-73.09372893603464
 20
16.45665
 11
-75.70706226903464
 21
16.45665
  0
ARC
  5
221
100
AcDbEntity
  8
Shape2DView
  6
ByLayer
 62
  256
370
   -1
100
AcDbCircle
 10
-72.90706226903464
 20
16.45665
 40
0.186666667
100
AcDbArc
 50
-90
 51
90
  0
ARC
  5
222
100
AcDbEntity
  8
Shape2DView
  6
ByLayer
 62
  256
370
   -1
100
AcDbCircle
 10
-72.90706226903464
 20
16.45665
 40
0.186666667
100
AcDbArc
 50
90
 51
180
  0
LINE
  5
223
100
AcDbEntity
  8
Shape2DView
  6
ByLayer
 62
  256
370
   -1
100
AcDbLine
 10
-72.90706226903464
 20
16.269983333
 11
-72.90706226903464
 21
2.8
  0
LINE
  5
224
100
AcDbEntity
  8
Shape2DView
  6
ByLayer
 62
  256
370
   -1
100
AcDbLine
 10
-72.90706226903464
 20
2.8
 11
-60.68707893603464
 21
2.8
  0
ARC
  5
225
100
AcDbEntity
  8
Shape2DView
  6
ByLayer
 62
  256
370
   -1
100
AcDbCircle
 10
-60.50041226903464
 20
2.8
 40
0.186666667
100
AcDbArc
 50
-90
 51
0
  0
ARC
  5
226
100
AcDbEntity
  8
Shape2DView
  6
ByLayer
 62
  256
370
   -1
100
AcDbCircle
 10
-60.50041226903464
 20
2.8
 40
0.186666667
100
AcDbArc
 50
0
 51
180
  0
LINE
  5
227
100
AcDbEntity
  8
Shape2DView
  6
ByLayer
 62
  256
370
   -1
100
AcDbLine
 10
-60.50041226903464
 20
2.613333333
 11
-60.50041226903464
 21
0
  0
LINE
  5
228
100
AcDbEntity
  8
Shape2DView
  6
ByLayer
 62
  256
370
   -1
100
AcDbLine
 10
-50.31371226903464
 20
0
 11
-60.50041226903464
 21
0
  0
LINE
  5
229
100
AcDbEntity
  8
Shape2DView
  6
ByLayer
 62
  256
370
   -1
100
AcDbLine
 10
-50.31371226903464
 20
2.613333333
 11
-50.31371226903464
 21
0
  0
ARC
  5
22A
100
AcDbEntity
  8
Shape2DView
  6
ByLayer
 62
  256
370
   -1
100
AcDbCircle
 10
-50.31371226903464
 20
2.8
 40
0.186666667
100
AcDbArc
 50
0
 51
180
  0
ARC
  5
22B
100
AcDbEntity
  8
Shape2DView
  6
ByLayer
 62
  256
370
   -1
100
AcDbCircle
 10
-50.31371226903464
 20
2.8
 40
0.186666667
100
AcDbArc
 50
180
 51
-90
  0
LINE
  5
22C
100
AcDbEntity
  8
Shape2DView
  6
ByLayer
 62
  256
370
   -1
100
AcDbLine
 10
-50.12704560203464
 20
2.8
 11
-37.90706226903464
 21
2.8
  0
LINE
  5
22D
100
AcDbEntity
  8
Shape2DView
  6
ByLayer
 62
  256
370
   -1
100
AcDbLine
 10
-37.90706226903464
 20
2.8
 11
-37.90706226903464
 21
12.779897855
  0
ARC
  5
22E
100
AcDbEntity
  8
Shape2DView
  6
ByLayer
 62
  256
370
   -1
100
AcDbCircle
 10
-37.90706226903464
 20
12.966564522
 40
0.186666667
100
AcDbArc
 50
0
 51
90
  0
ARC
  5
22F
100
AcDbEntity
  8
Shape2DView
  6
ByLayer
 62
  256
370
   -1
100
AcDbCircle
 10
-37.90706226903464
 20
12.966564522
 40
0.186666667
100
AcDbArc
 50
90
 51
-90
  0
LINE
  5
230
100
AcDbEntity
  8
Shape2DView
  6
ByLayer
 62
  256
370
   -1
100
AcDbLine
 10
-37.72039560203464
 20
12.966564522
 11
-35.10706226903464
 21
12.966564522
  0
LINE
  5
231
100
AcDbEntity
  8
Shape2DView
  6
ByLayer
 62
  256
370
   -1
100
AcDbLine
 10
-35.10706226903464
 20
23.153264522
 11
-35.10706226903464
 21
12.966564522
  0
LINE
  5
232
100
AcDbEntity
  8
Shape2DView
  6
ByLayer
 62
  256
370
   -1
100
AcDbLine
 10
-37.72039560203464
 20
23.153264522
 11
-35.10706226903464
 21
23.153264522
  0
ARC
  5
233
100
AcDbEntity
  8
Shape2DView
  6
ByLayer
 62
  256
370
   -1
100
AcDbCircle
 10
-37.90706226903464
 20
23.153264522
 40
0.186666667
100
AcDbArc
 50
90
 51
-90
  0
ARC
  5
234
100
AcDbEntity
  8
Shape2DView
  6
ByLayer
 62
  256
370
   -1
100
AcDbCircle
 10
-37.90706226903464
 20
23.153264522
 40
0.186666667
100
AcDbArc
 50
-90
 51
0
  0
LINE
  5
235
100
AcDbEntity
  8
Shape2DView
  6
ByLayer
 62
  256
370
   -1
100
AcDbLine
 10
-37.90706226903464
 20
23.339931188
 11
-37.90706226903464
 21
33.319829044
  0
LINE
  5
236
100
AcDbEntity
  8
Shape2DView
  6
ByLayer
 62
  256
370
   -1
100
AcDbLine
 10
-37.90706226903464
 20
33.319829044
 11
-16.10799005303463
 21
41.254042465
  0
ARC
  5
237
100
AcDbEntity
  8
Shape2DView
  6
ByLayer
 62
  256
370
   -1
100
AcDbCircle
 10
-15.93258076403464
 20
41.317886225
 40
0.186666667
100
AcDbArc
 50
-70
 51
20
  0
ARC
  5
238
100
AcDbEntity
  8
Shape2DView
  6
ByLayer
 62
  256
370
   -1
100
AcDbCircle
 10
-15.93258076403464
 20
41.317886225
 40
0.186666667
100
AcDbArc
 50
20
 51
-160
  0
LINE
  5
239
100
AcDbEntity
  8
Shape2DView
  6
ByLayer
 62
  256
370
   -1
100
AcDbLine
 10
-15.86873700403464
 20
41.142476936
 11
-14.97492436303464
 21
38.686746887
  0
LINE
  5
23A
100
AcDbEntity
  8
Shape2DView
  6
ByLayer
 62
  256
370
   -1
100
AcDbLine
 10
-5.402557543034632
 20
42.170803481
 11
-14.97492436303464
 21
38.686746887
  0
LINE
  5
23B
100
AcDbEntity
  8
Shape2DView
  6
ByLayer
 62
  256
370
   -1
100
AcDbLine
 10
-6.296370184034643
 20
44.62653353
 11
-5.402557543034632
 21
42.170803481
  0
LINE
  5
23C
100
AcDbEntity
  8
Shape2DView
  6
ByLayer
 62
  256
370
   -1
100
AcDbLine
 10
-23.66897941703463
 20
48.268769531
 11
-24.52402977503463
 21
50.618001083
  0
ARC
  5
23D
100
AcDbEntity
  8
Shape2DView
  6
ByLayer
 62
  256
370
   -1
100
AcDbCircle
 10
-26.48805727903463
 20
47.242709101
 40
3
100
AcDbArc
 50
-70
 51
20
  0
LINE
  5
23E
100
AcDbEntity
  8
Shape2DView
  6
ByLayer
 62
  256
370
   -1
100
AcDbLine
 10
-31.56999888403464
 20
42.200500307
 11
-25.46199684903463
 21
44.423631238
  0
ARC
  5
23F
100
AcDbEntity
  8
Shape2DView
  6
ByLayer
 62
  256
370
   -1
100
AcDbCircle
 10
-32.59605931403464
 20
45.019578169
 40
3
100
AcDbArc
 50
-160
 51
-70
  0
LINE
  5
240
100
AcDbEntity
  8
Shape2DView
  6
ByLayer
 62
  256
370
   -1
100
AcDbLine
 10
-36.27018753503464
 20
46.342749291
 11
-35.41513717703464
 21
43.993517739
  0
ARC
  5
241
100
AcDbEntity
  8
Shape2DView
  6
ByLayer
 62
  256
370
   -1
100
AcDbCircle
 10
-33.45110967303464
 20
47.368809721
 40
3
100
AcDbArc
 50
110
 51
-160
  0
LINE
  5
242
100
AcDbEntity
  8
Shape2DView
  6
ByLayer
 62
  256
370
   -1
100
AcDbLine
 10
-28.36916806703464
 20
52.411018515
 11
-34.47717010303464
 21
50.187887584
  0
ARC
  5
243
100
AcDbEntity
  8
Shape2DView
  6
ByLayer
 62
  256
370
   -1
100
AcDbCircle
 10
-27.34310763703463
 20
49.591940653
 40
3
100
AcDbArc
 50
20
 51
110
  0
ARC
  5
244
100
AcDbEntity
  8
Shape2DView
  6
ByLayer
 62
  256
370
   -1
100
AcDbCircle
 10
-3.875599403034641
 20
73.31497522399999
 40
0.755
100
AcDbArc
 50
-70
 51
110
  0
LINE
  5
245
100
AcDbEntity
  8
Shape2DView
  6
ByLayer
 62
  256
370
   -1
100
AcDbLine
 10
-3.617374195034643
 20
72.605507296
 11
-14.89368564503464
 21
68.50126557599999
  0
ARC
  5
246
100
AcDbEntity
  8
Shape2DView
  6
ByLayer
 62
  256
370
   -1
100
AcDbCircle
 10
-15.15191085303464
 20
69.21073350499999
 40
0.755
100
AcDbArc
 50
110
 51
-70
  0
LINE
  5
247
100
AcDbEntity
  8
Shape2DView
  6
ByLayer
 62
  256
370
   -1
100
AcDbLine
 10
-4.13382461203463
 20
74.02444315300001
 11
-15.41013606103463
 21
69.920201433
  0
ARC
  5
248
100
AcDbEntity
  8
Shape2DView
  6
ByLayer
 62
  256
370
   -1
100
AcDbCircle
 10
-33.94576326903464
 20
62.370330638
 40
0.755
100
AcDbArc
 50
-70
 51
110
  0
LINE
  5
249
100
AcDbEntity
  8
Shape2DView
  6
ByLayer
 62
  256
370
   -1
100
AcDbLine
 10
-33.68753806003464
 20
61.660862709
 11
-44.96384951003463
 21
57.556620989
  0
ARC
  5
24A
100
AcDbEntity
  8
Shape2DView
  6
ByLayer
 62
  256
370
   -1
100
AcDbCircle
 10
-45.22207471803463
 20
58.266088918
 40
0.755
100
AcDbArc
 50
110
 51
-70
  0
LINE
  5
24B
100
AcDbEntity
  8
Shape2DView
  6
ByLayer
 62
  256
370
   -1
100
AcDbLine
 10
-34.20398847703463
 20
63.079798567
 11
-45.48029992603463
 21
58.975556847
  0
ARC
  5
24C
100
AcDbEntity
  8
Shape2DView
  6
ByLayer
 62
  256
370
   -1
100
AcDbCircle
 10
-43.55206226903464
 20
10.5
 40
0.755
100
AcDbArc
 50
180
 51
0
  0
LINE
  5
24D
100
AcDbEntity
  8
Shape2DView
  6
ByLayer
 62
  256
370
   -1
100
AcDbLine
 10
-44.30706226903464
 20
10.5
 11
-44.30706226903464
 21
22.5
  0
ARC
  5
24E
100
AcDbEntity
  8
Shape2DView
  6
ByLayer
 62
  256
370
   -1
100
AcDbCircle
 10
-43.55206226903464
 20
22.5
 40
0.755
100
AcDbArc
 50
0
 51
180
  0
LINE
  5
24F
100
AcDbEntity
  8
Shape2DView
  6
ByLayer
 62
  256
370
   -1
100
AcDbLine
 10
-42.79706226903464
 20
10.5
 11
-42.79706226903464
 21
22.5
  0
ARC
  5
250
100
AcDbEntity
  8
Shape2DView
  6
ByLayer
 62
  256
370
   -1
100
AcDbCircle
 10
-31.95026480203464
 20
59.372977401
 40
1.5
100
AcDbArc
 50
-70
 51
110
  0
LINE
  5
251
100
AcDbEntity
  8
Shape2DView
  6
ByLayer
 62
  256
370
   -1
100
AcDbLine
 10
-31.43723458703464
 20
57.963438469
 11
-35.28997433203464
 21
56.561155882
  0
ARC
  5
252
100
AcDbEntity
  8
Shape2DView
  6
ByLayer
 62
  256
370
   -1
100
AcDbCircle
 10
-35.80300454703464
 20
57.970694813
 40
1.5
100
AcDbArc
 50
110
 51
-70
  0
LINE
  5
253
100
AcDbEntity
  8
Shape2DView
  6
ByLayer
 62
  256
370
   -1
100
AcDbLine
 10
-32.46329501703464
 20
60.782516332
 11
-36.31603476203464
 21
59.380233744
  0
ARC
  5
254
100
AcDbEntity
  8
Shape2DView001
  6
ByLayer
 62
  256
370
   -1
100
AcDbCircle
 10
66.14608940596536
 20
44.801942819
 40
0.186666667
100
AcDbArc
 50
-110
 51
-20
  0
ARC
  5
255
100
AcDbEntity
  8
Shape2DView001
  6
ByLayer
 62
  256
370
   -1
100
AcDbCircle
 10
66.14608940596536
 20
44.801942819
 40
0.186666667
100
AcDbArc
 50
-20
 51
160
  0
LINE
  5
256
100
AcDbEntity
  8
Shape2DView001
  6
ByLayer
 62
  256
370
   -1
100
AcDbLine
 10
65.97068011696537
 20
44.865786579
 11
44.17160790096537
 21
52.8
  0
LINE
  5
257
100
AcDbEntity
  8
Shape2DView001
  6
ByLayer
 62
  256
370
   -1
100
AcDbLine
 10
44.17160790096537
 20
52.8
 11
38.71205438696536
 21
37.8
  0
LINE
  5
258
100
AcDbEntity
  8
Shape2DView001
  6
ByLayer
 62
  256
370
   -1
100
AcDbLine
 10
37.69293773096537
 20
37.8
 11
37.69293773096537
 21
52.519983333
  0
ARC
  5
259
100
AcDbEntity
  8
Shape2DView001
  6
ByLayer
 62
  256
370
   -1
100
AcDbCircle
 10
37.69293773096537
 20
52.70665
 40
0.186666667
100
AcDbArc
 50
-90
 51
90
  0
ARC
  5
25A
100
AcDbEntity
  8
Shape2DView001
  6
ByLayer
 62
  256
370
   -1
100
AcDbCircle
 10
37.69293773096537
 20
52.70665
 40
0.186666667
100
AcDbArc
 50
90
 51
180
  0
LINE
  5
25B
100
AcDbEntity
  8
Shape2DView001
  6
ByLayer
 62
  256
370
   -1
100
AcDbLine
 10
38.71205438696536
 20
37.8
 11
37.69293773096537
 21
37.8
  0
LINE
  5
25C
100
AcDbEntity
  8
Shape2DView001
  6
ByLayer
 62
  256
370
   -1
100
AcDbLine
 10
37.50627106396536
 20
52.70665
 11
34.89293773096536
 21
52.70665
  0
LINE
  5
25D
100
AcDbEntity
  8
Shape2DView001
  6
ByLayer
 62
  256
370
   -1
100
AcDbLine
 10
34.89293773096536
 20
62.89335
 11
34.89293773096536
 21
52.70665
  0
LINE
  5
25E
100
AcDbEntity
  8
Shape2DView001
  6
ByLayer
 62
  256
370
   -1
100
AcDbLine
 10
37.50627106396536
 20
62.89335
 11
34.89293773096536
 21
62.89335
  0
ARC
  5
25F
100
AcDbEntity
  8
Shape2DView001
  6
ByLayer
 62
  256
370
   -1
100
AcDbCircle
 10
37.69293773096537
 20
62.89335
 40
0.186666667
100
AcDbArc
 50
180
 51
-90
  0
ARC
  5
260
100
AcDbEntity
  8
Shape2DView001
  6
ByLayer
 62
  256
370
   -1
100
AcDbCircle
 10
37.69293773096537
 20
62.89335
 40
0.186666667
100
AcDbArc
 50
-90
 51
90
  0
LINE
  5
261
100
AcDbEntity
  8
Shape2DView001
  6
ByLayer
 62
  256
370
   -1
100
AcDbLine
 10
37.69293773096537
 20
63.080016667
 11
37.69293773096537
 21
77.8
  0
LINE
  5
262
100
AcDbEntity
  8
Shape2DView001
  6
ByLayer
 62
  256
370
   -1
100
AcDbLine
 10
37.69293773096537
 20
77.8
 11
56.16292106396536
 21
77.8
  0
ARC
  5
263
100
AcDbEntity
  8
Shape2DView001
  6
ByLayer
 62
  256
370
   -1
100
AcDbCircle
 10
56.34958773096535
 20
77.8
 40
0.186666667
100
AcDbArc
 50
180
 51
0
  0
ARC
  5
264
100
AcDbEntity
  8
Shape2DView001
  6
ByLayer
 62
  256
370
   -1
100
AcDbCircle
 10
56.34958773096535
 20
77.8
 40
0.186666667
100
AcDbArc
 50
0
 51
90
  0
LINE
  5
265
100
AcDbEntity
  8
Shape2DView001
  6
ByLayer
 62
  256
370
   -1
100
AcDbLine
 10
56.34958773096535
 20
77.98666666699999
 11
56.34958773096535
 21
80.59999999999999
  0
LINE
  5
266
100
AcDbEntity
  8
Shape2DView001
  6
ByLayer
 62
  256
370
   -1
100
AcDbLine
 10
66.53628773096536
 20
80.59999999999999
 11
56.34958773096535
 21
80.59999999999999
  0
LINE
  5
267
100
AcDbEntity
  8
Shape2DView001
  6
ByLayer
 62
  256
370
   -1
100
AcDbLine
 10
66.53628773096536
 20
77.98666666699999
 11
66.53628773096536
 21
80.59999999999999
  0
ARC
  5
268
100
AcDbEntity
  8
Shape2DView001
  6
ByLayer
 62
  256
370
   -1
100
AcDbCircle
 10
66.53628773096536
 20
77.8
 40
0.186666667
100
AcDbArc
 50
90
 51
180
  0
ARC
  5
269
100
AcDbEntity
  8
Shape2DView001
  6
ByLayer
 62
  256
370
   -1
100
AcDbCircle
 10
66.53628773096536
 20
77.8
 40
0.186666667
100
AcDbArc
 50
180
 51
0
  0
LINE
  5
26A
100
AcDbEntity
  8
Shape2DView001
  6
ByLayer
 62
  256
370
   -1
100
AcDbLine
 10
66.72295439796535
 20
77.8
 11
103.6629210639654
 21
77.8
  0
ARC
  5
26B
100
AcDbEntity
  8
Shape2DView001
  6
ByLayer
 62
  256
370
   -1
100
AcDbCircle
 10
103.8495877309654
 20
77.8
 40
0.186666667
100
AcDbArc
 50
-180
 51
-0
  0
ARC
  5
26C
100
AcDbEntity
  8
Shape2DView001
  6
ByLayer
 62
  256
370
   -1
100
AcDbCircle
 10
103.8495877309654
 20
77.8
 40
0.186666667
100
AcDbArc
 50
-0
 51
90
  0
LINE
  5
26D
100
AcDbEntity
  8
Shape2DView001
  6
ByLayer
 62
  256
370
   -1
100
AcDbLine
 10
103.8495877309654
 20
77.98666666699999
 11
103.8495877309654
 21
80.59999999999999
  0
LINE
  5
26E
100
AcDbEntity
  8
Shape2DView001
  6
ByLayer
 62
  256
370
   -1
100
AcDbLine
 10
114.0362877309654
 20
80.59999999999999
 11
103.8495877309654
 21
80.59999999999999
  0
LINE
  5
26F
100
AcDbEntity
  8
Shape2DView001
  6
ByLayer
 62
  256
370
   -1
100
AcDbLine
 10
114.0362877309654
 20
77.98666666699999
 11
114.0362877309654
 21
80.59999999999999
  0
ARC
  5
270
100
AcDbEntity
  8
Shape2DView001
  6
ByLayer
 62
  256
370
   -1
100
AcDbCircle
 10
114.0362877309654
 20
77.8
 40
0.186666667
100
AcDbArc
 50
90
 51
-180
  0
ARC
  5
271
100
AcDbEntity
  8
Shape2DView001
  6
ByLayer
 62
  256
370
   -1
100
AcDbCircle
 10
114.0362877309654
 20
77.8
 40
0.186666667
100
AcDbArc
 50
-180
 51
-0
  0
LINE
  5
272
100
AcDbEntity
  8
Shape2DView001
  6
ByLayer
 62
  256
370
   -1
100
AcDbLine
 10
114.2229543979654
 20
77.8
 11
132.6929377309654
 21
77.8
  0
LINE
  5
273
100
AcDbEntity
  8
Shape2DView001
  6
ByLayer
 62
  256
370
   -1
100
AcDbLine
 10
132.6929377309654
 20
77.8
 11
132.6929377309654
 21
64.330016667
  0
ARC
  5
274
100
AcDbEntity
  8
Shape2DView001
  6
ByLayer
 62
  256
370
   -1
100
AcDbCircle
 10
132.6929377309654
 20
64.14335
 40
0.186666667
100
AcDbArc
 50
90
 51
-90
  0
ARC
  5
275
100
AcDbEntity
  8
Shape2DView001
  6
ByLayer
 62
  256
370
   -1
100
AcDbCircle
 10
132.6929377309654
 20
64.14335
 40
0.186666667
100
AcDbArc
 50
-90
 51
0
  0
LINE
  5
276
100
AcDbEntity
  8
Shape2DView001
  6
ByLayer
 62
  256
370
   -1
100
AcDbLine
 10
132.8796043979654
 20
64.14335
 11
135.4929377309654
 21
64.14335
  0
LINE
  5
277
100
AcDbEntity
  8
Shape2DView001
  6
ByLayer
 62
  256
370
   -1
100
AcDbLine
 10
135.4929377309654
 20
53.95665
 11
135.4929377309654
 21
64.14335
  0
LINE
  5
278
100
AcDbEntity
  8
Shape2DView001
  6
ByLayer
 62
  256
370
   -1
100
AcDbLine
 10
132.8796043979654
 20
53.95665
 11
135.4929377309654
 21
53.95665
  0
ARC
  5
279
100
AcDbEntity
  8
Shape2DView001
  6
ByLayer
 62
  256
370
   -1
100
AcDbCircle
 10
132.6929377309654
 20
53.95665
 40
0.186666667
100
AcDbArc
 50
0
 51
90
  0
ARC
  5
27A
100
AcDbEntity
  8
Shape2DView001
  6
ByLayer
 62
  256
370
   -1
100
AcDbCircle
 10
132.6929377309654
 20
53.95665
 40
0.186666667
100
AcDbArc
 50
90
 51
-90
  0
LINE
  5
27B
100
AcDbEntity
  8
Shape2DView001
  6
ByLayer
 62
  256
370
   -1
100
AcDbLine
 10
132.6929377309654
 20
53.769983333
 11
132.6929377309654
 21
26.830016667
  0
ARC
  5
27C
100
AcDbEntity
  8
Shape2DView001
  6
ByLayer
 62
  256
370
   -1
100
AcDbCircle
 10
132.6929377309654
 20
26.64335
 40
0.186666667
100
AcDbArc
 50
90
 51
-90
  0
ARC
  5
27D
100
AcDbEntity
  8
Shape2DView001
  6
ByLayer
 62
  256
370
   -1
100
AcDbCircle
 10
132.6929377309654
 20
26.64335
 40
0.186666667
100
AcDbArc
 50
-90
 51
0
  0
LINE
  5
27E
100
AcDbEntity
  8
Shape2DView001
  6
ByLayer
 62
  256
370
   -1
100
AcDbLine
 10
132.8796043979654
 20
26.64335
 11
135.4929377309654
 21
26.64335
  0
LINE
  5
27F
100
AcDbEntity
  8
Shape2DView001
  6
ByLayer
 62
  256
370
   -1
100
AcDbLine
 10
135.4929377309654
 20
16.45665
 11
135.4929377309654
 21
26.64335
  0
LINE
  5
280
100
AcDbEntity
  8
Shape2DView001
  6
ByLayer
 62
  256
370
   -1
100
AcDbLine
 10
132.8796043979654
 20
16.45665
 11
135.4929377309654
 21
16.45665
  0
ARC
  5
281
100
AcDbEntity
  8
Shape2DView001
  6
ByLayer
 62
  256
370
   -1
100
AcDbCircle
 10
132.6929377309654
 20
16.45665
 40
0.186666667
100
AcDbArc
 50
0
 51
90
  0
ARC
  5
282
100
AcDbEntity
  8
Shape2DView001
  6
ByLayer
 62
  256
370
   -1
100
AcDbCircle
 10
132.6929377309654
 20
16.45665
 40
0.186666667
100
AcDbArc
 50
90
 51
-90
  0
LINE
  5
283
100
AcDbEntity
  8
Shape2DView001
  6
ByLayer
 62
  256
370
   -1
100
AcDbLine
 10
132.6929377309654
 20
16.269983333
 11
132.6929377309654
 21
2.8
  0
LINE
  5
284
100
AcDbEntity
  8
Shape2DView001
  6
ByLayer
 62
  256
370
   -1
100
AcDbLine
 10
132.6929377309654
 20
2.8
 11
120.4729543979654
 21
2.8
  0
ARC
  5
285
100
AcDbEntity
  8
Shape2DView001
  6
ByLayer
 62
  256
370
   -1
100
AcDbCircle
 10
120.2862877309654
 20
2.8
 40
0.186666667
100
AcDbArc
 50
-0
 51
-180
  0
ARC
  5
286
100
AcDbEntity
  8
Shape2DView001
  6
ByLayer
 62
  256
370
   -1
100
AcDbCircle
 10
120.2862877309654
 20
2.8
 40
0.186666667
100
AcDbArc
 50
-180
 51
-90
  0
LINE
  5
287
100
AcDbEntity
  8
Shape2DView001
  6
ByLayer
 62
  256
370
   -1
100
AcDbLine
 10
120.2862877309654
 20
2.613333333
 11
120.2862877309654
 21
0
  0
LINE
  5
288
100
AcDbEntity
  8
Shape2DView001
  6
ByLayer
 62
  256
370
   -1
100
AcDbLine
 10
110.0995877309654
 20
0
 11
120.2862877309654
 21
0
  0
LINE
  5
289
100
AcDbEntity
  8
Shape2DView001
  6
ByLayer
 62
  256
370
   -1
100
AcDbLine
 10
110.0995877309654
 20
2.613333333
 11
110.0995877309654
 21
0
  0
ARC
  5
28A
100
AcDbEntity
  8
Shape2DView001
  6
ByLayer
 62
  256
370
   -1
100
AcDbCircle
 10
110.0995877309654
 20
2.8
 40
0.186666667
100
AcDbArc
 50
-90
 51
-0
  0
ARC
  5
28B
100
AcDbEntity
  8
Shape2DView001
  6
ByLayer
 62
  256
370
   -1
100
AcDbCircle
 10
110.0995877309654
 20
2.8
 40
0.186666667
100
AcDbArc
 50
-0
 51
-180
  0
LINE
  5
28C
100
AcDbEntity
  8
Shape2DView001
  6
ByLayer
 62
  256
370
   -1
100
AcDbLine
 10
109.9129210639654
 20
2.8
 11
97.69293773096537
 21
2.8
  0
LINE
  5
28D
100
AcDbEntity
  8
Shape2DView001
  6
ByLayer
 62
  256
370
   -1
100
AcDbLine
 10
97.69293773096537
 20
2.8
 11
97.69293773096537
 21
12.779897855
  0
ARC
  5
28E
100
AcDbEntity
  8
Shape2DView001
  6
ByLayer
 62
  256
370
   -1
100
AcDbCircle
 10
97.69293773096537
 20
12.966564522
 40
0.186666667
100
AcDbArc
 50
-90
 51
90
  0
ARC
  5
28F
100
AcDbEntity
  8
Shape2DView001
  6
ByLayer
 62
  256
370
   -1
100
AcDbCircle
 10
97.69293773096537
 20
12.966564522
 40
0.186666667
100
AcDbArc
 50
90
 51
180
  0
LINE
  5
290
100
AcDbEntity
  8
Shape2DView001
  6
ByLayer
 62
  256
370
   -1
100
AcDbLine
 10
97.50627106396537
 20
12.966564522
 11
94.89293773096536
 21
12.966564522
  0
LINE
  5
291
100
AcDbEntity
  8
Shape2DView001
  6
ByLayer
 62
  256
370
   -1
100
AcDbLine
 10
94.89293773096536
 20
23.153264522
 11
94.89293773096536
 21
12.966564522
  0
LINE
  5
292
100
AcDbEntity
  8
Shape2DView001
  6
ByLayer
 62
  256
370
   -1
100
AcDbLine
 10
97.50627106396537
 20
23.153264522
 11
94.89293773096536
 21
23.153264522
  0
ARC
  5
293
100
AcDbEntity
  8
Shape2DView001
  6
ByLayer
 62
  256
370
   -1
100
AcDbCircle
 10
97.69293773096537
 20
23.153264522
 40
0.186666667
100
AcDbArc
 50
180
 51
-90
  0
ARC
  5
294
100
AcDbEntity
  8
Shape2DView001
  6
ByLayer
 62
  256
370
   -1
100
AcDbCircle
 10
97.69293773096537
 20
23.153264522
 40
0.186666667
100
AcDbArc
 50
-90
 51
90
  0
LINE
  5
295
100
AcDbEntity
  8
Shape2DView001
  6
ByLayer
 62
  256
370
   -1
100
AcDbLine
 10
97.69293773096537
 20
23.339931188
 11
97.69293773096537
 21
33.319829044
  0
LINE
  5
296
100
AcDbEntity
  8
Shape2DView001
  6
ByLayer
 62
  256
370
   -1
100
AcDbLine
 10
97.69293773096537
 20
33.319829044
 11
75.89386551496536
 21
41.254042465
  0
ARC
  5
297
100
AcDbEntity
  8
Shape2DView001
  6
ByLayer
 62
  256
370
   -1
100
AcDbCircle
 10
75.71845622596537
 20
41.317886225
 40
0.186666667
100
AcDbArc
 50
-20
 51
160
  0
ARC
  5
298
100
AcDbEntity
  8
Shape2DView001
  6
ByLayer
 62
  256
370
   -1
100
AcDbCircle
 10
75.71845622596537
 20
41.317886225
 40
0.186666667
100
AcDbArc
 50
160
 51
-110
  0
LINE
  5
299
100
AcDbEntity
  8
Shape2DView001
  6
ByLayer
 62
  256
370
   -1
100
AcDbLine
 10
75.65461246596537
 20
41.142476936
 11
74.76079982496536
 21
38.686746887
  0
LINE
  5
29A
100
AcDbEntity
  8
Shape2DView001
  6
ByLayer
 62
  256
370
   -1
100
AcDbLine
 10
65.18843300496538
 20
42.170803481
 11
74.76079982496536
 21
38.686746887
  0
LINE
  5
29B
100
AcDbEntity
  8
Shape2DView001
  6
ByLayer
 62
  256
370
   -1
100
AcDbLine
 10
66.08224564596536
 20
44.62653353
 11
65.18843300496538
 21
42.170803481
  0
ARC
  5
29C
100
AcDbEntity
  8
Shape2DView001
  6
ByLayer
 62
  256
370
   -1
100
AcDbCircle
 10
63.66147486496537
 20
73.31497522399999
 40
0.755
100
AcDbArc
 50
70
 51
-110
  0
LINE
  5
29D
100
AcDbEntity
  8
Shape2DView001
  6
ByLayer
 62
  256
370
   -1
100
AcDbLine
 10
63.91970007396536
 20
74.02444315300001
 11
75.19601152296535
 21
69.920201433
  0
ARC
  5
29E
100
AcDbEntity
  8
Shape2DView001
  6
ByLayer
 62
  256
370
   -1
100
AcDbCircle
 10
74.93778631496535
 20
69.21073350499999
 40
0.755
100
AcDbArc
 50
-110
 51
70
  0
LINE
  5
29F
100
AcDbEntity
  8
Shape2DView001
  6
ByLayer
 62
  256
370
   -1
100
AcDbLine
 10
63.40324965696537
 20
72.605507296
 11
74.67956110696535
 21
68.50126557599999
  0
ARC
  5
2A0
100
AcDbEntity
  8
Shape2DView001
  6
ByLayer
 62
  256
370
   -1
100
AcDbCircle
 10
93.73163873096537
 20
62.370330638
 40
0.755
100
AcDbArc
 50
70
 51
-110
  0
LINE
  5
2A1
100
AcDbEntity
  8
Shape2DView001
  6
ByLayer
 62
  256
370
   -1
100
AcDbLine
 10
93.98986393896537
 20
63.079798567
 11
105.2661753879654
 21
58.975556847
  0
ARC
  5
2A2
100
AcDbEntity
  8
Shape2DView001
  6
ByLayer
 62
  256
370
   -1
100
AcDbCircle
 10
105.0079501799654
 20
58.266088918
 40
0.755
100
AcDbArc
 50
-110
 51
70
  0
LINE
  5
2A3
100
AcDbEntity
  8
Shape2DView001
  6
ByLayer
 62
  256
370
   -1
100
AcDbLine
 10
93.47341352196536
 20
61.660862709
 11
104.7497249719654
 21
57.556620989
  0
ARC
  5
2A4
100
AcDbEntity
  8
Shape2DView001
  6
ByLayer
 62
  256
370
   -1
100
AcDbCircle
 10
103.3379377309654
 20
22.5
 40
0.755
100
AcDbArc
 50
0
 51
180
  0
LINE
  5
2A5
100
AcDbEntity
  8
Shape2DView001
  6
ByLayer
 62
  256
370
   -1
100
AcDbLine
 10
104.0929377309654
 20
22.5
 11
104.0929377309654
 21
10.5
  0
ARC
  5
2A6
100
AcDbEntity
  8
Shape2DView001
  6
ByLayer
 62
  256
370
   -1
100
AcDbCircle
 10
103.3379377309654
 20
10.5
 40
0.755
100
AcDbArc
 50
-180
 51
0
  0
LINE
  5
2A7
100
AcDbEntity
  8
Shape2DView001
  6
ByLayer
 62
  256
370
   -1
100
AcDbLine
 10
102.5829377309654
 20
22.5
 11
102.5829377309654
 21
10.5
  0
LINE
  5
2A8
100
AcDbEntity
  8
Shape2DView009
  6
ByLayer
 62
  256
370
   -1
100
AcDbLine
 10
29.89293773096536
 20
32.50000000000003
 11
29.89293773096536
 21
83.09999999999999
  0
ARC
  5
2A9
100
AcDbEntity
  8
Shape2DView009
  6
ByLayer
 62
  256
370
   -1
100
AcDbCircle
 10
27.39293773096536
 20
32.50000000000003
 40
2.5
100
AcDbArc
 50
-90
 51
0
  0
ARC
  5
2AA
100
AcDbEntity
  8
Shape2DView009
  6
ByLayer
 62
  256
370
   -1
100
AcDbCircle
 10
27.39293773096536
 20
83.09999999999999
 40
2.5
100
AcDbArc
 50
0
 51
90
  0
LINE
  5
2AB
100
AcDbEntity
  8
Shape2DView009
  6
ByLayer
 62
  256
370
   -1
100
AcDbLine
 10
17.68360998496536
 20
30.00000000000003
 11
27.39293773096536
 21
30.00000000000003
  0
LINE
  5
2AC
100
AcDbEntity
  8
Shape2DView009
  6
ByLayer
 62
  256
370
   -1
100
AcDbLine
 10
27.39293773096536
 20
85.59999999999999
 11
-78.20706226903464
 21
85.59999999999999
  0
ARC
  5
2AD
100
AcDbEntity
  8
Shape2DView009
  6
ByLayer
 62
  256
370
   -1
100
AcDbCircle
 10
17.68360998496536
 20
32.50000000000003
 40
2.5
100
AcDbArc
 50
-160
 51
-90
  0
ARC
  5
2AE
100
AcDbEntity
  8
Shape2DView009
  6
ByLayer
 62
  256
370
   -1
100
AcDbCircle
 10
-78.20706226903464
 20
83.09999999999999
 40
2.5
100
AcDbArc
 50
90
 51
180
  0
LINE
  5
2AF
100
AcDbEntity
  8
Shape2DView009
  6
ByLayer
 62
  256
370
   -1
100
AcDbLine
 10
12.09082459096537
 20
40.55654058000002
 11
15.33437843296537
 21
31.644949642
  0
LINE
  5
2B0
100
AcDbEntity
  8
Shape2DView009
  6
ByLayer
 62
  256
370
   -1
100
AcDbLine
 10
-80.70706226903464
 20
83.09999999999999
 11
-80.70706226903464
 21
-2.499999999999972
  0
ARC
  5
2B1
100
AcDbEntity
  8
Shape2DView009
  6
ByLayer
 62
  256
370
   -1
100
AcDbCircle
 10
9.741593038965362
 20
39.70149022199999
 40
2.5
100
AcDbArc
 50
20
 51
110
  0
ARC
  5
2B2
100
AcDbEntity
  8
Shape2DView009
  6
ByLayer
 62
  256
370
   -1
100
AcDbCircle
 10
-78.20706226903464
 20
-2.499999999999972
 40
2.5
100
AcDbArc
 50
180
 51
-90
  0
LINE
  5
2B3
100
AcDbEntity
  8
Shape2DView009
  6
ByLayer
 62
  256
370
   -1
100
AcDbLine
 10
-28.46211262703463
 20
28.45692295199999
 11
8.886542680965363
 21
42.05072177400004
  0
LINE
  5
2B4
100
AcDbEntity
  8
Shape2DView009
  6
ByLayer
 62
  256
370
   -1
100
AcDbLine
 10
-78.20706226903464
 20
-4.999999999999972
 11
-32.60706226903463
 21
-4.999999999999972
  0
ARC
  5
2B5
100
AcDbEntity
  8
Shape2DView009
  6
ByLayer
 62
  256
370
   -1
100
AcDbCircle
 10
-27.60706226903463
 20
26.10769139999999
 40
2.5
100
AcDbArc
 50
110
 51
180
  0
ARC
  5
2B6
100
AcDbEntity
  8
Shape2DView009
  6
ByLayer
 62
  256
370
   -1
100
AcDbCircle
 10
-32.60706226903463
 20
-2.499999999999972
 40
2.5
100
AcDbArc
 50
-90
 51
0
  0
LINE
  5
2B7
100
AcDbEntity
  8
Shape2DView009
  6
ByLayer
 62
  256
370
   -1
100
AcDbLine
 10
-30.10706226903463
 20
-2.499999999999972
 11
-30.10706226903463
 21
26.10769139999999
  0
ARC
  5
2B8
100
AcDbEntity
  8
Shape2DView009
  6
ByLayer
 62
  256
370
   -1
100
AcDbCircle
 10
25.14293773096536
 20
35.43301270200001
 40
0.25
100
AcDbArc
 50
180
 51
-120
  0
ARC
  5
2B9
100
AcDbEntity
  8
Shape2DView009
  6
ByLayer
 62
  256
370
   -1
100
AcDbCircle
 10
24.89293773096536
 20
35.00000000000003
 40
0.25
100
AcDbArc
 50
-150
 51
59.99999999999999
  0
ARC
  5
2BA
100
AcDbEntity
  8
Shape2DView009
  6
ByLayer
 62
  256
370
   -1
100
AcDbCircle
 10
24.45992502896536
 20
34.75000000000003
 40
0.25
100
AcDbArc
 50
30
 51
90
  0
LINE
  5
2BB
100
AcDbEntity
  8
Shape2DView009
  6
ByLayer
 62
  256
370
   -1
100
AcDbLine
 10
19.54625266996537
 20
35.00000000000003
 11
24.45992502896536
 21
35.00000000000003
  0
ARC
  5
2BC
100
AcDbEntity
  8
Shape2DView009
  6
ByLayer
 62
  256
370
   -1
100
AcDbCircle
 10
19.54625266996537
 20
34.75000000000003
 40
0.25
100
AcDbArc
 50
90
 51
150
  0
ARC
  5
2BD
100
AcDbEntity
  8
Shape2DView009
  6
ByLayer
 62
  256
370
   -1
100
AcDbCircle
 10
19.11323996796537
 20
35.00000000000003
 40
0.25
100
AcDbArc
 50
140
 51
-30
  0
ARC
  5
2BE
100
AcDbEntity
  8
Shape2DView009
  6
ByLayer
 62
  256
370
   -1
100
AcDbCircle
 10
18.73021774696537
 20
35.32139380499999
 40
0.25
100
AcDbArc
 50
-40
 51
20
  0
LINE
  5
2BF
100
AcDbEntity
  8
Shape2DView009
  6
ByLayer
 62
  256
370
   -1
100
AcDbLine
 10
14.28280476696537
 20
48.27151164
 11
18.96514090196537
 21
35.40689884100001
  0
ARC
  5
2C0
100
AcDbEntity
  8
Shape2DView009
  6
ByLayer
 62
  256
370
   -1
100
AcDbCircle
 10
13.34311214696537
 20
47.929491496
 40
1
100
AcDbArc
 50
20
 51
110
  0
LINE
  5
2C1
100
AcDbEntity
  8
Shape2DView009
  6
ByLayer
 62
  256
370
   -1
100
AcDbLine
 10
-34.44908241203463
 20
31.59873301900004
 11
13.00109200296536
 21
48.869184117
  0
ARC
  5
2C2
100
AcDbEntity
  8
Shape2DView009
  6
ByLayer
 62
  256
370
   -1
100
AcDbCircle
 10
-34.10706226903463
 20
30.65904039800003
 40
1
100
AcDbArc
 50
110
 51
180
  0
LINE
  5
2C3
100
AcDbEntity
  8
Shape2DView009
  6
ByLayer
 62
  256
370
   -1
100
AcDbLine
 10
-35.10706226903463
 20
0.4330127020000134
 11
-35.10706226903463
 21
30.65904039800003
  0
ARC
  5
2C4
100
AcDbEntity
  8
Shape2DView009
  6
ByLayer
 62
  256
370
   -1
100
AcDbCircle
 10
-34.85706226903463
 20
0.4330127020000134
 40
0.25
100
AcDbArc
 50
180
 51
-120
  0
ARC
  5
2C5
100
AcDbEntity
  8
Shape2DView009
  6
ByLayer
 62
  256
370
   -1
100
AcDbCircle
 10
-35.10706226903463
 20
2.842170943040401e-14
 40
0.25
100
AcDbArc
 50
-150
 51
59.99999999999999
  0
ARC
  5
2C6
100
AcDbEntity
  8
Shape2DView009
  6
ByLayer
 62
  256
370
   -1
100
AcDbCircle
 10
-35.54007497103463
 20
-0.2499999999999716
 40
0.25
100
AcDbArc
 50
30
 51
90
  0
LINE
  5
2C7
100
AcDbEntity
  8
Shape2DView009
  6
ByLayer
 62
  256
370
   -1
100
AcDbLine
 10
-75.27404956703464
 20
2.842170943040401e-14
 11
-35.54007497103463
 21
2.842170943040401e-14
  0
ARC
  5
2C8
100
AcDbEntity
  8
Shape2DView009
  6
ByLayer
 62
  256
370
   -1
100
AcDbCircle
 10
-75.27404956703464
 20
-0.2499999999999716
 40
0.25
100
AcDbArc
 50
90
 51
150
  0
ARC
  5
2C9
100
AcDbEntity
  8
Shape2DView009
  6
ByLayer
 62
  256
370
   -1
100
AcDbCircle
 10
-75.70706226903464
 20
2.842170943040401e-14
 40
0.25
100
AcDbArc
 50
120
 51
-30
  0
ARC
  5
2CA
100
AcDbEntity
  8
Shape2DView009
  6
ByLayer
 62
  256
370
   -1
100
AcDbCircle
 10
-75.95706226903464
 20
0.4330127020000134
 40
0.25
100
AcDbArc
 50
-59.99999999999999
 51
0
  0
LINE
  5
2CB
100
AcDbEntity
  8
Shape2DView009
  6
ByLayer
 62
  256
370
   -1
100
AcDbLine
 10
-75.70706226903464
 20
80.16698729800001
 11
-75.70706226903464
 21
0.4330127020000134
  0
ARC
  5
2CC
100
AcDbEntity
  8
Shape2DView009
  6
ByLayer
 62
  256
370
   -1
100
AcDbCircle
 10
-75.95706226903464
 20
80.16698729800001
 40
0.25
100
AcDbArc
 50
0
 51
59.99999999999999
  0
ARC
  5
2CD
100
AcDbEntity
  8
Shape2DView009
  6
ByLayer
 62
  256
370
   -1
100
AcDbCircle
 10
-75.70706226903464
 20
80.59999999999999
 40
0.25
100
AcDbArc
 50
30
 51
-120
  0
ARC
  5
2CE
100
AcDbEntity
  8
Shape2DView009
  6
ByLayer
 62
  256
370
   -1
100
AcDbCircle
 10
-75.27404956703464
 20
80.84999999999999
 40
0.25
100
AcDbArc
 50
-150
 51
-90
  0
LINE
  5
2CF
100
AcDbEntity
  8
Shape2DView009
  6
ByLayer
 62
  256
370
   -1
100
AcDbLine
 10
24.45992502896536
 20
80.59999999999999
 11
-75.27404956703464
 21
80.59999999999999
  0
ARC
  5
2D0
100
AcDbEntity
  8
Shape2DView009
  6
ByLayer
 62
  256
370
   -1
100
AcDbCircle
 10
24.45992502896536
 20
80.84999999999999
 40
0.25
100
AcDbArc
 50
-90
 51
-30
  0
ARC
  5
2D1
100
AcDbEntity
  8
Shape2DView009
  6
ByLayer
 62
  256
370
   -1
100
AcDbCircle
 10
24.89293773096536
 20
80.59999999999999
 40
0.25
100
AcDbArc
 50
-59.99999999999999
 51
150
  0
ARC
  5
2D2
100
AcDbEntity
  8
Shape2DView009
  6
ByLayer
 62
  256
370
   -1
100
AcDbCircle
 10
25.14293773096536
 20
80.16698729800001
 40
0.25
100
AcDbArc
 50
120
 51
180
  0
LINE
  5
2D3
100
AcDbEntity
  8
Shape2DView009
  6
ByLayer
 62
  256
370
   -1
100
AcDbLine
 10
24.89293773096536
 20
35.43301270200001
 11
24.89293773096536
 21
80.16698729800001
  0
LINE
  5
2D4
100
AcDbEntity
  8
Shape2DView010
  6
ByLayer
 62
  256
370
   -1
100
AcDbLine
 10
29.8929377309653
 20
32.50000000000006
 11
29.89293773096533
 21
83.10000000000002
  0
ARC
  5
2D5
100
AcDbEntity
  8
Shape2DView010
  6
ByLayer
 62
  256
370
   -1
100
AcDbCircle
 10
32.3929377309653
 20
32.50000000000006
 40
2.5
100
AcDbArc
 50
180
 51
270
  0
ARC
  5
2D6
100
AcDbEntity
  8
Shape2DView010
  6
ByLayer
 62
  256
370
   -1
100
AcDbCircle
 10
32.39293773096533
 20
83.10000000000002
 40
2.5
100
AcDbArc
 50
90
 51
180
  0
LINE
  5
2D7
100
AcDbEntity
  8
Shape2DView010
  6
ByLayer
 62
  256
370
   -1
100
AcDbLine
 10
42.10226547696529
 20
30.00000000000006
 11
32.3929377309653
 21
30.00000000000006
  0
LINE
  5
2D8
100
AcDbEntity
  8
Shape2DView010
  6
ByLayer
 62
  256
370
   -1
100
AcDbLine
 10
32.39293773096533
 20
85.60000000000002
 11
137.9929377309653
 21
85.60000000000002
  0
ARC
  5
2D9
100
AcDbEntity
  8
Shape2DView010
  6
ByLayer
 62
  256
370
   -1
100
AcDbCircle
 10
42.10226547696529
 20
32.50000000000006
 40
2.5
100
AcDbArc
 50
270
 51
340
  0
ARC
  5
2DA
100
AcDbEntity
  8
Shape2DView010
  6
ByLayer
 62
  256
370
   -1
100
AcDbCircle
 10
137.9929377309653
 20
83.10000000000002
 40
2.5
100
AcDbArc
 50
0
 51
90
  0
LINE
  5
2DB
100
AcDbEntity
  8
Shape2DView010
  6
ByLayer
 62
  256
370
   -1
100
AcDbLine
 10
47.69505087096532
 20
40.55654058000005
 11
44.45149702896528
 21
31.64494964200003
  0
LINE
  5
2DC
100
AcDbEntity
  8
Shape2DView010
  6
ByLayer
 62
  256
370
   -1
100
AcDbLine
 10
140.4929377309653
 20
83.10000000000002
 11
140.4929377309653
 21
-2.499999999999943
  0
ARC
  5
2DD
100
AcDbEntity
  8
Shape2DView010
  6
ByLayer
 62
  256
370
   -1
100
AcDbCircle
 10
50.04428242296528
 20
39.70149022200002
 40
2.5
100
AcDbArc
 50
70.00000000000003
 51
160
  0
ARC
  5
2DE
100
AcDbEntity
  8
Shape2DView010
  6
ByLayer
 62
  256
370
   -1
100
AcDbCircle
 10
137.9929377309653
 20
-2.499999999999943
 40
2.5
100
AcDbArc
 50
270
 51
0
  0
LINE
  5
2DF
100
AcDbEntity
  8
Shape2DView010
  6
ByLayer
 62
  256
370
   -1
100
AcDbLine
 10
88.2479880889653
 20
28.45692295200001
 11
50.89933278096531
 21
42.05072177400007
  0
LINE
  5
2E0
100
AcDbEntity
  8
Shape2DView010
  6
ByLayer
 62
  256
370
   -1
100
AcDbLine
 10
137.9929377309653
 20
-4.999999999999943
 11
92.3929377309653
 21
-4.999999999999943
  0
ARC
  5
2E1
100
AcDbEntity
  8
Shape2DView010
  6
ByLayer
 62
  256
370
   -1
100
AcDbCircle
 10
87.3929377309653
 20
26.10769140000002
 40
2.5
100
AcDbArc
 50
0
 51
70.00000000000003
  0
ARC
  5
2E2
100
AcDbEntity
  8
Shape2DView010
  6
ByLayer
 62
  256
370
   -1
100
AcDbCircle
 10
92.3929377309653
 20
-2.499999999999943
 40
2.5
100
AcDbArc
 50
180
 51
270
  0
LINE
  5
2E3
100
AcDbEntity
  8
Shape2DView010
  6
ByLayer
 62
  256
370
   -1
100
AcDbLine
 10
89.8929377309653
 20
-2.499999999999943
 11
89.8929377309653
 21
26.10769140000002
  0
ARC
  5
2E4
100
AcDbEntity
  8
Shape2DView010
  6
ByLayer
 62
  256
370
   -1
100
AcDbCircle
 10
34.6429377309653
 20
35.43301270200004
 40
0.25
100
AcDbArc
 50
299.9999999999999
 51
0
  0
ARC
  5
2E5
100
AcDbEntity
  8
Shape2DView010
  6
ByLayer
 62
  256
370
   -1
100
AcDbCircle
 10
34.8929377309653
 20
35.00000000000006
 40
0.25
100
AcDbArc
 50
120
 51
330.0000000000001
  0
ARC
  5
2E6
100
AcDbEntity
  8
Shape2DView010
  6
ByLayer
 62
  256
370
   -1
100
AcDbCircle
 10
35.32595043296529
 20
34.75000000000017
 40
0.25
100
AcDbArc
 50
90
 51
150
  0
LINE
  5
2E7
100
AcDbEntity
  8
Shape2DView010
  6
ByLayer
 62
  256
370
   -1
100
AcDbLine
 10
40.23962279196529
 20
35.00000000000006
 11
35.32595043296529
 21
35.00000000000006
  0
ARC
  5
2E8
100
AcDbEntity
  8
Shape2DView010
  6
ByLayer
 62
  256
370
   -1
100
AcDbCircle
 10
40.23962279196529
 20
34.75000000000017
 40
0.25
100
AcDbArc
 50
29.99999999999996
 51
90
  0
ARC
  5
2E9
100
AcDbEntity
  8
Shape2DView010
  6
ByLayer
 62
  256
370
   -1
100
AcDbCircle
 10
40.6726354939653
 20
35.00000000000006
 40
0.25
100
AcDbArc
 50
210
 51
40.00000000000001
  0
ARC
  5
2EA
100
AcDbEntity
  8
Shape2DView010
  6
ByLayer
 62
  256
370
   -1
100
AcDbCircle
 10
41.05565771496528
 20
35.32139380500001
 40
0.25
100
AcDbArc
 50
160
 51
219.9999999999999
  0
LINE
  5
2EB
100
AcDbEntity
  8
Shape2DView010
  6
ByLayer
 62
  256
370
   -1
100
AcDbLine
 10
45.50307069496533
 20
48.27151164000003
 11
40.82073455996529
 21
35.40689884100004
  0
ARC
  5
2EC
100
AcDbEntity
  8
Shape2DView010
  6
ByLayer
 62
  256
370
   -1
100
AcDbCircle
 10
46.44276331496532
 20
47.92949149600003
 40
1
100
AcDbArc
 50
70.00000000000003
 51
160
  0
LINE
  5
2ED
100
AcDbEntity
  8
Shape2DView010
  6
ByLayer
 62
  256
370
   -1
100
AcDbLine
 10
94.23495787396529
 20
31.59873301900006
 11
46.78478345896532
 21
48.86918411700003
  0
ARC
  5
2EE
100
AcDbEntity
  8
Shape2DView010
  6
ByLayer
 62
  256
370
   -1
100
AcDbCircle
 10
93.8929377309653
 20
30.65904039800006
 40
1
100
AcDbArc
 50
0
 51
70.00000000000003
  0
LINE
  5
2EF
100
AcDbEntity
  8
Shape2DView010
  6
ByLayer
 62
  256
370
   -1
100
AcDbLine
 10
94.8929377309653
 20
0.4330127020000418
 11
94.8929377309653
 21
30.65904039800006
  0
ARC
  5
2F0
100
AcDbEntity
  8
Shape2DView010
  6
ByLayer
 62
  256
370
   -1
100
AcDbCircle
 10
94.6429377309653
 20
0.4330127020000418
 40
0.25
100
AcDbArc
 50
299.9999999999999
 51
0
  0
ARC
  5
2F1
100
AcDbEntity
  8
Shape2DView010
  6
ByLayer
 62
  256
370
   -1
100
AcDbCircle
 10
94.8929377309653
 20
5.684341886080801e-14
 40
0.25
100
AcDbArc
 50
120
 51
330.0000000000001
  0
ARC
  5
2F2
100
AcDbEntity
  8
Shape2DView010
  6
ByLayer
 62
  256
370
   -1
100
AcDbCircle
 10
95.32595043296529
 20
-0.2499999999999432
 40
0.25
100
AcDbArc
 50
90
 51
150
  0
LINE
  5
2F3
100
AcDbEntity
  8
Shape2DView010
  6
ByLayer
 62
  256
370
   -1
100
AcDbLine
 10
135.0599250289653
 20
5.684341886080801e-14
 11
95.32595043296529
 21
5.684341886080801e-14
  0
ARC
  5
2F4
100
AcDbEntity
  8
Shape2DView010
  6
ByLayer
 62
  256
370
   -1
100
AcDbCircle
 10
135.0599250289653
 20
-0.2499999999999432
 40
0.25
100
AcDbArc
 50
29.99999999999996
 51
90
  0
ARC
  5
2F5
100
AcDbEntity
  8
Shape2DView010
  6
ByLayer
 62
  256
370
   -1
100
AcDbCircle
 10
135.4929377309653
 20
5.684341886080801e-14
 40
0.25
100
AcDbArc
 50
210
 51
60.00000000000004
  0
ARC
  5
2F6
100
AcDbEntity
  8
Shape2DView010
  6
ByLayer
 62
  256
370
   -1
100
AcDbCircle
 10
135.7429377309653
 20
0.4330127020000418
 40
0.25
100
AcDbArc
 50
180
 51
240
  0
LINE
  5
2F7
100
AcDbEntity
  8
Shape2DView010
  6
ByLayer
 62
  256
370
   -1
100
AcDbLine
 10
135.4929377309653
 20
80.16698729800004
 11
135.4929377309653
 21
0.4330127020000418
  0
ARC
  5
2F8
100
AcDbEntity
  8
Shape2DView010
  6
ByLayer
 62
  256
370
   -1
100
AcDbCircle
 10
135.7429377309653
 20
80.16698729800004
 40
0.25
100
AcDbArc
 50
120
 51
180
  0
ARC
  5
2F9
100
AcDbEntity
  8
Shape2DView010
  6
ByLayer
 62
  256
370
   -1
100
AcDbCircle
 10
135.4929377309653
 20
80.60000000000002
 40
0.25
100
AcDbArc
 50
299.9999999999999
 51
150
  0
ARC
  5
2FA
100
AcDbEntity
  8
Shape2DView010
  6
ByLayer
 62
  256
370
   -1
100
AcDbCircle
 10
135.0599250289653
 20
80.85000000000002
 40
0.25
100
AcDbArc
 50
270
 51
330.0000000000001
  0
LINE
  5
2FB
100
AcDbEntity
  8
Shape2DView010
  6
ByLayer
 62
  256
370
   -1
100
AcDbLine
 10
35.32595043296531
 20
80.60000000000002
 11
135.0599250289653
 21
80.60000000000002
  0
ARC
  5
2FC
100
AcDbEntity
  8
Shape2DView010
  6
ByLayer
 62
  256
370
   -1
100
AcDbCircle
 10
35.32595043296531
 20
80.85000000000002
 40
0.25
100
AcDbArc
 50
210
 51
270
  0
ARC
  5
2FD
100
AcDbEntity
  8
Shape2DView010
  6
ByLayer
 62
  256
370
   -1
100
AcDbCircle
 10
34.89293773096533
 20
80.60000000000002
 40
0.25
100
AcDbArc
 50
29.99999999999996
 51
240
  0
ARC
  5
2FE
100
AcDbEntity
  8
Shape2DView010
  6
ByLayer
 62
  256
370
   -1
100
AcDbCircle
 10
34.64293773096533
 20
80.16698729800004
 40
0.25
100
AcDbArc
 50
0
 51
60.00000000000004
  0
LINE
  5
2FF
100
AcDbEntity
  8
Shape2DView010
  6
ByLayer
 62
  256
370
   -1
100
AcDbLine
 10
34.8929377309653
 20
35.43301270200004
 11
34.89293773096533
 21
80.16698729800004
  0
LINE
  5
300
100
AcDbEntity
  8
Shape2DView004
  6
ByLayer
 62
  256
370
   -1
100
AcDbLine
 10
67.84301878244999
 20
18.90931442223001
 11
65.26835810044999
 21
18.90931442223001
  0
LINE
  5
301
100
AcDbEntity
  8
Shape2DView004
  6
ByLayer
 62
  256
370
   -1
100
AcDbLine
 10
67.84301878244999
 20
26.28288118123003
 11
67.84301878244999
 21
18.90931442223001
  0
LINE
  5
302
100
AcDbEntity
  8
Shape2DView004
  6
ByLayer
 62
  256
370
   -1
100
AcDbLine
 10
54.22303544944999
 20
26.28288118123003
 11
67.84301878244999
 21
26.28288118123003
  0
ARC
  5
303
100
AcDbEntity
  8
Shape2DView004
  6
ByLayer
 62
  256
370
   -1
100
AcDbCircle
 10
54.03636878245
 20
26.28288118123003
 40
0.186666667
100
AcDbArc
 50
90
 51
180
  0
ARC
  5
304
100
AcDbEntity
  8
Shape2DView004
  6
ByLayer
 62
  256
370
   -1
100
AcDbCircle
 10
54.03636878245
 20
26.28288118123003
 40
0.186666667
100
AcDbArc
 50
180
 51
0
  0
LINE
  5
305
100
AcDbEntity
  8
Shape2DView004
  6
ByLayer
 62
  256
370
   -1
100
AcDbLine
 10
54.03636878245
 20
26.46954784723002
 11
54.03636878245
 21
29.08288118123003
  0
LINE
  5
306
100
AcDbEntity
  8
Shape2DView004
  6
ByLayer
 62
  256
370
   -1
100
AcDbLine
 10
54.03636878245
 20
29.08288118123003
 11
43.84966878245001
 21
29.08288118123003
  0
ARC
  5
307
100
AcDbEntity
  8
Shape2DView004
  6
ByLayer
 62
  256
370
   -1
100
AcDbCircle
 10
43.84966878245001
 20
26.28288118123003
 40
0.186666667
100
AcDbArc
 50
180
 51
0
  0
ARC
  5
308
100
AcDbEntity
  8
Shape2DView004
  6
ByLayer
 62
  256
370
   -1
100
AcDbCircle
 10
43.84966878245001
 20
26.28288118123003
 40
0.186666667
100
AcDbArc
 50
0
 51
90
  0
LINE
  5
309
100
AcDbEntity
  8
Shape2DView004
  6
ByLayer
 62
  256
370
   -1
100
AcDbLine
 10
16.42303544945001
 20
26.28288118123003
 11
43.66300211545001
 21
26.28288118123003
  0
ARC
  5
30A
100
AcDbEntity
  8
Shape2DView004
  6
ByLayer
 62
  256
370
   -1
100
AcDbCircle
 10
16.23636878245001
 20
26.28288118123003
 40
0.186666667
100
AcDbArc
 50
90
 51
180
  0
ARC
  5
30B
100
AcDbEntity
  8
Shape2DView004
  6
ByLayer
 62
  256
370
   -1
100
AcDbCircle
 10
16.23636878245001
 20
26.28288118123003
 40
0.186666667
100
AcDbArc
 50
180
 51
0
  0
LINE
  5
30C
100
AcDbEntity
  8
Shape2DView004
  6
ByLayer
 62
  256
370
   -1
100
AcDbLine
 10
43.84966878245001
 20
26.46954784723002
 11
43.84966878245001
 21
29.08288118123003
  0
LINE
  5
30D
100
AcDbEntity
  8
Shape2DView004
  6
ByLayer
 62
  256
370
   -1
100
AcDbLine
 10
16.23636878245001
 20
26.46954784723002
 11
16.23636878245001
 21
29.08288118123003
  0
LINE
  5
30E
100
AcDbEntity
  8
Shape2DView004
  6
ByLayer
 62
  256
370
   -1
100
AcDbLine
 10
16.23636878245001
 20
29.08288118123003
 11
6.049668782450013
 21
29.08288118123003
  0
ARC
  5
30F
100
AcDbEntity
  8
Shape2DView004
  6
ByLayer
 62
  256
370
   -1
100
AcDbCircle
 10
6.049668782450013
 20
26.28288118123003
 40
0.186666667
100
AcDbArc
 50
180
 51
0
  0
ARC
  5
310
100
AcDbEntity
  8
Shape2DView004
  6
ByLayer
 62
  256
370
   -1
100
AcDbCircle
 10
6.049668782450013
 20
26.28288118123003
 40
0.186666667
100
AcDbArc
 50
0
 51
90
  0
LINE
  5
311
100
AcDbEntity
  8
Shape2DView004
  6
ByLayer
 62
  256
370
   -1
100
AcDbLine
 10
-7.756981217549992
 20
26.28288118123003
 11
5.863002115450016
 21
26.28288118123003
  0
LINE
  5
312
100
AcDbEntity
  8
Shape2DView004
  6
ByLayer
 62
  256
370
   -1
100
AcDbLine
 10
-7.756981217549992
 20
18.90931442223001
 11
-7.756981217549992
 21
26.28288118123003
  0
LINE
  5
313
100
AcDbEntity
  8
Shape2DView004
  6
ByLayer
 62
  256
370
   -1
100
AcDbLine
 10
-5.182320535549991
 20
18.90931442223001
 11
-7.756981217549992
 21
18.90931442223001
  0
ARC
  5
314
100
AcDbEntity
  8
Shape2DView004
  6
ByLayer
 62
  256
370
   -1
100
AcDbCircle
 10
-5.00988621754999
 20
18.80975942223002
 40
0.19911
100
AcDbArc
 50
-59.99999999999999
 51
150
  0
LINE
  5
315
100
AcDbEntity
  8
Shape2DView004
  6
ByLayer
 62
  256
370
   -1
100
AcDbLine
 10
-4.910331217549981
 20
18.63732510423002
 11
-4.910331217549981
 21
9.368003740230026
  0
ARC
  5
316
100
AcDbEntity
  8
Shape2DView004
  6
ByLayer
 62
  256
370
   -1
100
AcDbCircle
 10
-5.00988621754999
 20
9.195569422230026
 40
0.19911
100
AcDbArc
 50
-150
 51
59.99999999999999
  0
LINE
  5
317
100
AcDbEntity
  8
Shape2DView004
  6
ByLayer
 62
  256
370
   -1
100
AcDbLine
 10
-5.182320535549991
 20
9.096014422230017
 11
-7.756981217549992
 21
9.096014422230017
  0
LINE
  5
318
100
AcDbEntity
  8
Shape2DView004
  6
ByLayer
 62
  256
370
   -1
100
AcDbLine
 10
-7.756981217549992
 20
-1.257250099769973
 11
-7.756981217549992
 21
9.096014422230017
  0
LINE
  5
319
100
AcDbEntity
  8
Shape2DView004
  6
ByLayer
 62
  256
370
   -1
100
AcDbLine
 10
15.31300211545002
 20
-1.257250099769973
 11
-7.756981217549992
 21
-1.257250099769973
  0
ARC
  5
31A
100
AcDbEntity
  8
Shape2DView004
  6
ByLayer
 62
  256
370
   -1
100
AcDbCircle
 10
15.49966878245002
 20
-1.257250099769973
 40
0.186666667
100
AcDbArc
 50
-90
 51
0
  0
ARC
  5
31B
100
AcDbEntity
  8
Shape2DView004
  6
ByLayer
 62
  256
370
   -1
100
AcDbCircle
 10
15.49966878245002
 20
-1.257250099769973
 40
0.186666667
100
AcDbArc
 50
0
 51
180
  0
LINE
  5
31C
100
AcDbEntity
  8
Shape2DView004
  6
ByLayer
 62
  256
370
   -1
100
AcDbLine
 10
6.049668782450013
 20
26.46954784723002
 11
6.049668782450013
 21
29.08288118123003
  0
LINE
  5
31D
100
AcDbEntity
  8
Shape2DView004
  6
ByLayer
 62
  256
370
   -1
100
AcDbLine
 10
15.49966878245002
 20
-1.443916766769984
 11
15.49966878245002
 21
-4.057250099769984
  0
LINE
  5
31E
100
AcDbEntity
  8
Shape2DView004
  6
ByLayer
 62
  256
370
   -1
100
AcDbLine
 10
15.49966878245002
 20
-4.057250099769984
 11
25.68636878245002
 21
-4.057250099769984
  0
ARC
  5
31F
100
AcDbEntity
  8
Shape2DView004
  6
ByLayer
 62
  256
370
   -1
100
AcDbCircle
 10
25.68636878245002
 20
-1.257250099769973
 40
0.186666667
100
AcDbArc
 50
0
 51
180
  0
ARC
  5
320
100
AcDbEntity
  8
Shape2DView004
  6
ByLayer
 62
  256
370
   -1
100
AcDbCircle
 10
25.68636878245002
 20
-1.257250099769973
 40
0.186666667
100
AcDbArc
 50
180
 51
-90
  0
LINE
  5
321
100
AcDbEntity
  8
Shape2DView004
  6
ByLayer
 62
  256
370
   -1
100
AcDbLine
 10
34.21300211545001
 20
-1.257250099769973
 11
25.87303544945001
 21
-1.257250099769973
  0
ARC
  5
322
100
AcDbEntity
  8
Shape2DView004
  6
ByLayer
 62
  256
370
   -1
100
AcDbCircle
 10
34.39966878245001
 20
-1.257250099769973
 40
0.186666667
100
AcDbArc
 50
-90
 51
0
  0
ARC
  5
323
100
AcDbEntity
  8
Shape2DView004
  6
ByLayer
 62
  256
370
   -1
100
AcDbCircle
 10
34.39966878245001
 20
-1.257250099769973
 40
0.186666667
100
AcDbArc
 50
0
 51
180
  0
LINE
  5
324
100
AcDbEntity
  8
Shape2DView004
  6
ByLayer
 62
  256
370
   -1
100
AcDbLine
 10
25.68636878245002
 20
-1.443916766769984
 11
25.68636878245002
 21
-4.057250099769984
  0
LINE
  5
325
100
AcDbEntity
  8
Shape2DView004
  6
ByLayer
 62
  256
370
   -1
100
AcDbLine
 10
34.39966878245001
 20
-1.443916766769984
 11
34.39966878245001
 21
-4.057250099769984
  0
LINE
  5
326
100
AcDbEntity
  8
Shape2DView004
  6
ByLayer
 62
  256
370
   -1
100
AcDbLine
 10
34.39966878245001
 20
-4.057250099769984
 11
44.58636878245002
 21
-4.057250099769984
  0
LINE
  5
327
100
AcDbEntity
  8
Shape2DView004
  6
ByLayer
 62
  256
370
   -1
100
AcDbLine
 10
67.84301878244999
 20
-1.257250099769973
 11
44.77303544945002
 21
-1.257250099769973
  0
ARC
  5
328
100
AcDbEntity
  8
Shape2DView004
  6
ByLayer
 62
  256
370
   -1
100
AcDbCircle
 10
44.58636878245002
 20
-1.257250099769973
 40
0.186666667
100
AcDbArc
 50
0
 51
180
  0
ARC
  5
329
100
AcDbEntity
  8
Shape2DView004
  6
ByLayer
 62
  256
370
   -1
100
AcDbCircle
 10
44.58636878245002
 20
-1.257250099769973
 40
0.186666667
100
AcDbArc
 50
180
 51
-90
  0
LINE
  5
32A
100
AcDbEntity
  8
Shape2DView004
  6
ByLayer
 62
  256
370
   -1
100
AcDbLine
 10
67.84301878244999
 20
9.096014422230017
 11
67.84301878244999
 21
-1.257250099769973
  0
LINE
  5
32B
100
AcDbEntity
  8
Shape2DView004
  6
ByLayer
 62
  256
370
   -1
100
AcDbLine
 10
67.84301878244999
 20
9.096014422230017
 11
65.26835810044999
 21
9.096014422230017
  0
LINE
  5
32C
100
AcDbEntity
  8
Shape2DView004
  6
ByLayer
 62
  256
370
   -1
100
AcDbLine
 10
44.58636878245002
 20
-1.443916766769984
 11
44.58636878245002
 21
-4.057250099769984
  0
ARC
  5
32D
100
AcDbEntity
  8
Shape2DView004
  6
ByLayer
 62
  256
370
   -1
100
AcDbCircle
 10
65.09592378244999
 20
9.195569422230026
 40
0.19911
100
AcDbArc
 50
180
 51
-30
  0
ARC
  5
32E
100
AcDbEntity
  8
Shape2DView004
  6
ByLayer
 62
  256
370
   -1
100
AcDbCircle
 10
65.09592378244999
 20
9.195569422230026
 40
0.19911
100
AcDbArc
 50
120
 51
180
  0
LINE
  5
32F
100
AcDbEntity
  8
Shape2DView004
  6
ByLayer
 62
  256
370
   -1
100
AcDbLine
 10
64.99636878245003
 20
18.63732510423002
 11
64.99636878245003
 21
9.368003740230026
  0
ARC
  5
330
100
AcDbEntity
  8
Shape2DView004
  6
ByLayer
 62
  256
370
   -1
100
AcDbCircle
 10
65.09592378244999
 20
18.80975942223002
 40
0.19911
100
AcDbArc
 50
180
 51
-120
  0
ARC
  5
331
100
AcDbEntity
  8
Shape2DView004
  6
ByLayer
 62
  256
370
   -1
100
AcDbCircle
 10
65.09592378244999
 20
18.80975942223002
 40
0.19911
100
AcDbArc
 50
30
 51
180
  0
CIRCLE
  5
332
100
AcDbEntity
  8
Shape2DView004
  6
ByLayer
 62
  256
370
   -1
100
AcDbCircle
 10
30.05301878245001
 20
15.47674990023002
 40
7.5
  0
LINE
  5
333
100
AcDbEntity
  8
Shape2DView004
  6
ByLayer
 62
  256
370
   -1
100
AcDbLine
 10
11.15220549245001
 20
6.631313691230023
 11
12.62844947945001
 21
14.82718709723003
  0
ARC
  5
334
100
AcDbEntity
  8
Shape2DView004
  6
ByLayer
 62
  256
370
   -1
100
AcDbCircle
 10
16.07301878245002
 20
14.20674990023003
 40
3.5
100
AcDbArc
 50
10.210655437
 51
169.789344563
  0
LINE
  5
335
100
AcDbEntity
  8
Shape2DView004
  6
ByLayer
 62
  256
370
   -1
100
AcDbLine
 10
19.51758808545002
 20
14.82718709723003
 11
20.99383207245002
 21
6.631313691230023
  0
ARC
  5
336
100
AcDbEntity
  8
Shape2DView004
  6
ByLayer
 62
  256
370
   -1
100
AcDbCircle
 10
16.07301878245002
 20
5.744974838230025
 40
5
100
AcDbArc
 50
169.789344563
 51
10.210655437
  0
CIRCLE
  5
337
100
AcDbEntity
  8
Shape2DView004
  6
ByLayer
 62
  256
370
   -1
100
AcDbCircle
 10
57.04301878245003
 20
8.942749900230016
 40
5
  0
CIRCLE
  5
338
100
AcDbEntity
  8
Shape2DView004
  6
ByLayer
 62
  256
370
   -1
100
AcDbCircle
 10
3.043018782450019
 20
8.942749900230016
 40
5
  0
CIRCLE
  5
339
100
AcDbEntity
  8
Shape2DView004
  6
ByLayer
 62
  256
370
   -1
100
AcDbCircle
 10
47.06101878245002
 20
10.90474990023002
 40
3
  0
ARC
  5
33A
100
AcDbEntity
  8
Shape2DView004
  6
ByLayer
 62
  256
370
   -1
100
AcDbCircle
 10
41.47301878245003
 20
8.892749900230019
 40
1.5
100
AcDbArc
 50
180
 51
0
  0
LINE
  5
33B
100
AcDbEntity
  8
Shape2DView004
  6
ByLayer
 62
  256
370
   -1
100
AcDbLine
 10
39.97301878245003
 20
8.892749900230019
 11
39.97301878245003
 21
11.39274990023002
  0
ARC
  5
33C
100
AcDbEntity
  8
Shape2DView004
  6
ByLayer
 62
  256
370
   -1
100
AcDbCircle
 10
41.47301878245003
 20
11.39274990023002
 40
1.5
100
AcDbArc
 50
0
 51
180
  0
LINE
  5
33D
100
AcDbEntity
  8
Shape2DView004
  6
ByLayer
 62
  256
370
   -1
100
AcDbLine
 10
42.97301878245003
 20
8.892749900230019
 11
42.97301878245003
 21
11.39274990023002
  0
ENDSEC
  0
SECTION
  2
OBJECTS
  0
DICTIONARY
  5
C
330
0
100
AcDbDictionary
281
    1
  3
ACAD_GROUP
350
D
  0
DICTIONARY
  5
D
330
C
100
AcDbDictionary
281
    1
  0
PLOTSETTINGS
  5
33E
100
AcDbPlotSettings
  6
1x1
 40
0
 41
0
 42
0
 43
0
  0
ENDSEC
  0
EOF
