999
FreeCAD v1.0 39285 (Git)
  0
SECTION
  2
HEADER
  9
$ACADVER
  1
AC1014
  9
$ACADMAINTVER
 70
     9
  9
$DWGCODEPAGE
  3
ANSI_1252
  9
$TEXTSTYLE
  7
STANDARD
  9
$DIMSTYLE
  2
STANDARD
  9
$DIMTXSTY
  7
STANDARD
  9
$CMLSTYLE
  2
STANDARD
  9
$LUNITS
 70
2
  9
$INSUNITS
 70
4
  9
$PEXTMAX
 10
50
 20
50
 30
50
  9
$PEXTMIN
 10
0
 20
0
 30
0
  9
$HANDSEED
  5
FFFF
  0
ENDSEC
  0
SECTION
  2
CLASSES
  0
CLASS
  1
ACDBDICTIONARYWDFLT
  2
AcDbDictionaryWithDefault
  3
ObjectDBX Classes
 90
        0
280
     0
281
     0
  0
CLASS
  1
XRECORD
  2
AcDbXrecord
  3
ObjectDBX Classes
 90
        0
280
     0
281
     0
  0
CLASS
  1
LWPOLYLINE
  2
AcDbPolyline
  3
ObjectDBX Classes
 90
        0
280
     0
281
     1
  0
ENDSEC
  0
SECTION
  2
TABLES
  0
TABLE
  2
VPORT
  5
20
330
0
100
AcDbSymbolTable
 70
     1
  0
VPORT
  5
21
330
20
100
AcDbSymbolTableRecord
100
AcDbViewportTableRecord
  2
*ACTIVE
 70
     0
  0
ENDTAB
  0
TABLE
  2
LTYPE
  5
22
330
0
100
AcDbSymbolTable
 70
     1
  0
LTYPE
  5
23
330
21
100
AcDbSymbolTableRecord
100
AcDbLinetypeTableRecord
  2
BYBLOCK
 70
     0
  3

 72
    65
 73
     0
 40
0.0
  0
LTYPE
  5
24
330
21
100
AcDbSymbolTableRecord
100
AcDbLinetypeTableRecord
  2
BYLAYER
 70
     0
  3

 72
    65
 73
     0
 40
0.0
  0
LTYPE
  5
25
330
21
100
AcDbSymbolTableRecord
100
AcDbLinetypeTableRecord
  2
CONTINUOUS
 70
     0
  3
Solid line
 72
    65
 73
     0
 40
0.0
  0
ENDTAB
  0
TABLE
  2
LAYER
  5
D54
330
0
100
AcDbSymbolTable
 70
3
  0
LAYER
  5
D55
330
D54
100
AcDbSymbolTableRecord
100
AcDbLayerTableRecord
  2
0
 70
   0
 62
   7
  6
CONTINUOUS
  0
LAYER
  5
D56
330
D54
100
AcDbSymbolTableRecord
100
AcDbLayerTableRecord
  2
none
 70
    0
 62
    7
  6
CONTINUOUS
  0
LAYER
  5
D57
330
D54
100
AcDbSymbolTableRecord
100
AcDbLayerTableRecord
  2
Sketch
 70
    0
 62
    7
  6
CONTINUOUS
  0
ENDTAB
  0
TABLE
  2
STYLE
  5
70
330
0
100
AcDbSymbolTable
 70
     2
  0
STYLE
  5
71
330
70
100
AcDbSymbolTableRecord
100
AcDbTextStyleTableRecord
  2
STANDARD
 70
     0
 40
0.0
 41
1.0
 50
0.0
 71
     0
 42
2.5
  3
arial.ttf
  4

  0
STYLE
  5
72
330
70
100
AcDbSymbolTableRecord
100
AcDbTextStyleTableRecord
  2
ANNOTATIVE
 70
     0
 40
0.0
 41
1.0
 50
0.0
 71
     0
 42
2.5
  3
arial.ttf
  4

  0
ENDTAB
  0
TABLE
  2
VIEW
  5
73
330
0
100
AcDbSymbolTable
 70
     0
  0
ENDTAB
  0
TABLE
  2
UCS
  5
74
330
0
100
AcDbSymbolTable
 70
     0
  0
ENDTAB
  0
TABLE
  2
APPID
  5
75
330
0
100
AcDbSymbolTable
 70
     2
  0
APPID
  5
76
330
75
100
AcDbSymbolTableRecord
100
AcDbRegAppTableRecord
  2
ACAD
 70
     0
  0
APPID
  5
77
330
75
100
AcDbSymbolTableRecord
100
AcDbRegAppTableRecord
  2
ACADANNOTATIVE
 70
     0
  0
ENDTAB
  0
TABLE
  2
DIMSTYLE
  5
78
330
0
100
AcDbSymbolTable
 70
     2
  0
DIMSTYLE
105
79
330
78
100
AcDbSymbolTableRecord
100
AcDbDimStyleTableRecord
  2
STANDARD
 70
     0
  3

  4

  5

  6

  7

 40
0.0
 41
2.5
 42
0.625
 43
3.75
 44
1.25
 45
0.0
 46
0.0
 47
0.0
 48
0.0
140
2.5
141
2.5
142
0.0
143
0.03937007874016
144
1.0
145
0.0
146
1.0
147
0.625
 71
     0
 72
     0
 73
     0
 74
     0
 75
     0
 76
     0
 77
     1
 78
     8
170
     0
171
     3
172
     1
173
     0
174
     0
175
     0
176
     0
177
     0
178
     0
270
     2
271
     2
272
     2
273
     2
274
     3
340
71
275
     0
280
     0
281
     0
282
     0
283
     0
284
     8
285
     0
286
     0
287
     3
288
     0
  0
ENDTAB
  0
TABLE
  2
BLOCK_RECORD
  5
A01
330
0
100
AcDbSymbolTable
  70
5
  0
BLOCK_RECORD
  5
A02
330
A01
100
AcDbSymbolTableRecord
100
AcDbBlockTableRecord
  2
*MODEL_SPACE
  0
BLOCK_RECORD
  5
A03
330
A01
100
AcDbSymbolTableRecord
100
AcDbBlockTableRecord
  2
*PAPER_SPACE
  0
ENDTAB
  0
ENDSEC
  0
SECTION
  2
BLOCKS
  0
BLOCK
  5
A04
330
A02
100
AcDbEntity
  8
0
100
AcDbBlockBegin
  2
*MODEL_SPACE
 70
   0
 10
0
 20
0
 30
0
  3
*MODEL_SPACE
  1
 
  0
ENDBLK
  5
A05
330
A02
100
AcDbEntity
  8
0
100
AcDbBlockEnd
  0
BLOCK
  5
A06
330
A03
100
AcDbEntity
 67
1
  8
0
100
AcDbBlockBegin
  2
*PAPER_SPACE
 70
   0
 10
0
 20
0
 30
0
  3
*PAPER_SPACE
  1
 
  0
ENDBLK
  5
A07
330
A03
100
AcDbEntity
 67
    1
  8
0
100
AcDbBlockEnd
  0
ENDSEC
  0
SECTION
  2
ENTITIES
  0
LINE
  5
A08
330
A02
100
AcDbEntity
  8
Sketch
100
AcDbLine
 10
107.000000000
 20
-87.800000000
 30
0.000000000
 11
107.000000000
 21
-37.600000000
 31
0.000000000
  0
ARC
  5
A09
330
A02
100
AcDbEntity
  8
Sketch
100
AcDbCircle
 10
109.500000000
 20
-37.600000000
 30
0.000000000
 40
2.500000000
100
AcDbArc
 50
90.000000000
 51
-180.000000000
  0
LINE
  5
A0A
330
A02
100
AcDbEntity
  8
Sketch
100
AcDbLine
 10
109.500000000
 20
-35.100000000
 30
0.000000000
 11
214.700000000
 21
-35.100000000
 31
0.000000000
  0
ARC
  5
A0B
330
A02
100
AcDbEntity
  8
Sketch
100
AcDbCircle
 10
214.700000000
 20
-37.600000000
 30
0.000000000
 40
2.500000000
100
AcDbArc
 50
0.000000000
 51
90.000000000
  0
LINE
  5
A0C
330
A02
100
AcDbEntity
  8
Sketch
100
AcDbLine
 10
217.200000000
 20
-37.600000000
 30
0.000000000
 11
217.200000000
 21
-122.800000000
 31
0.000000000
  0
ARC
  5
A0D
330
A02
100
AcDbEntity
  8
Sketch
100
AcDbCircle
 10
214.700000000
 20
-122.800000000
 30
0.000000000
 40
2.500000000
100
AcDbArc
 50
-90.000000000
 51
0.000000000
  0
LINE
  5
A0E
330
A02
100
AcDbEntity
  8
Sketch
100
AcDbLine
 10
214.700000000
 20
-125.300000000
 30
0.000000000
 11
169.500000000
 21
-125.300000000
 31
0.000000000
  0
ARC
  5
A0F
330
A02
100
AcDbEntity
  8
Sketch
100
AcDbCircle
 10
169.500000000
 20
-122.800000000
 30
0.000000000
 40
2.500000000
100
AcDbArc
 50
180.000000000
 51
-90.000000000
  0
LINE
  5
A10
330
A02
100
AcDbEntity
  8
Sketch
100
AcDbLine
 10
167.000000000
 20
-122.800000000
 30
0.000000000
 11
167.000000000
 21
-94.252267092
 31
0.000000000
  0
ARC
  5
A11
330
A02
100
AcDbEntity
  8
Sketch
100
AcDbCircle
 10
164.500000000
 20
-94.252267092
 30
0.000000000
 40
2.500000000
100
AcDbArc
 50
0.000000000
 51
70.000000000
  0
LINE
  5
A12
330
A02
100
AcDbEntity
  8
Sketch
100
AcDbLine
 10
165.355050358
 20
-91.903035540
 30
0.000000000
 11
127.686860554
 21
-78.192935673
 31
0.000000000
  0
ARC
  5
A13
330
A02
100
AcDbEntity
  8
Sketch
100
AcDbCircle
 10
126.831810196
 20
-80.542167225
 30
0.000000000
 40
2.500000000
100
AcDbArc
 50
70.000000000
 51
160.000000000
  0
LINE
  5
A14
330
A02
100
AcDbEntity
  8
Sketch
100
AcDbLine
 10
124.482578644
 20
-79.687116867
 30
0.000000000
 11
121.218517790
 21
-88.655050358
 31
0.000000000
  0
ARC
  5
A15
330
A02
100
AcDbEntity
  8
Sketch
100
AcDbCircle
 10
118.869286238
 20
-87.800000000
 30
0.000000000
 40
2.500000000
100
AcDbArc
 50
-90.000000000
 51
-20.000000000
  0
LINE
  5
A16
330
A02
100
AcDbEntity
  8
Sketch
100
AcDbLine
 10
118.869286238
 20
-90.300000000
 30
0.000000000
 11
109.500000000
 21
-90.300000000
 31
0.000000000
  0
ARC
  5
A17
330
A02
100
AcDbEntity
  8
Sketch
100
AcDbCircle
 10
109.500000000
 20
-87.800000000
 30
0.000000000
 40
2.500000000
100
AcDbArc
 50
180.000000000
 51
-90.000000000
  0
ARC
  5
A18
330
A02
100
AcDbEntity
  8
Sketch
100
AcDbCircle
 10
111.750000000
 20
-84.866987298
 30
0.000000000
 40
0.250000000
100
AcDbArc
 50
-60.000000000
 51
0.000000000
  0
LINE
  5
A19
330
A02
100
AcDbEntity
  8
Sketch
100
AcDbLine
 10
112.000000000
 20
-84.866987298
 30
0.000000000
 11
112.000000000
 21
-40.533012702
 31
0.000000000
  0
ARC
  5
A1A
330
A02
100
AcDbEntity
  8
Sketch
100
AcDbCircle
 10
111.750000000
 20
-40.533012702
 30
0.000000000
 40
0.250000000
100
AcDbArc
 50
0.000000000
 51
60.000000000
  0
ARC
  5
A1B
330
A02
100
AcDbEntity
  8
Sketch
100
AcDbCircle
 10
112.000000000
 20
-40.100000000
 30
0.000000000
 40
0.250000000
100
AcDbArc
 50
30.000000000
 51
-120.000000000
  0
ARC
  5
A1C
330
A02
100
AcDbEntity
  8
Sketch
100
AcDbCircle
 10
112.433012702
 20
-39.850000000
 30
0.000000000
 40
0.250000000
100
AcDbArc
 50
-150.000000000
 51
-90.000000000
  0
LINE
  5
A1D
330
A02
100
AcDbEntity
  8
Sketch
100
AcDbLine
 10
112.433012702
 20
-40.100000000
 30
0.000000000
 11
211.766987298
 21
-40.100000000
 31
0.000000000
  0
ARC
  5
A1E
330
A02
100
AcDbEntity
  8
Sketch
100
AcDbCircle
 10
211.766987298
 20
-39.850000000
 30
0.000000000
 40
0.250000000
100
AcDbArc
 50
-90.000000000
 51
-30.000000000
  0
ARC
  5
A1F
330
A02
100
AcDbEntity
  8
Sketch
100
AcDbCircle
 10
212.200000000
 20
-40.100000000
 30
0.000000000
 40
0.250000000
100
AcDbArc
 50
-60.000000000
 51
150.000000000
  0
ARC
  5
A20
330
A02
100
AcDbEntity
  8
Sketch
100
AcDbCircle
 10
212.450000000
 20
-40.533012702
 30
0.000000000
 40
0.250000000
100
AcDbArc
 50
120.000000000
 51
180.000000000
  0
LINE
  5
A21
330
A02
100
AcDbEntity
  8
Sketch
100
AcDbLine
 10
212.200000000
 20
-40.533012702
 30
0.000000000
 11
212.200000000
 21
-119.866987298
 31
0.000000000
  0
ARC
  5
A22
330
A02
100
AcDbEntity
  8
Sketch
100
AcDbCircle
 10
212.450000000
 20
-119.866987298
 30
0.000000000
 40
0.250000000
100
AcDbArc
 50
180.000000000
 51
-120.000000000
  0
ARC
  5
A23
330
A02
100
AcDbEntity
  8
Sketch
100
AcDbCircle
 10
212.200000000
 20
-120.300000000
 30
0.000000000
 40
0.250000000
100
AcDbArc
 50
-150.000000000
 51
60.000000000
  0
ARC
  5
A24
330
A02
100
AcDbEntity
  8
Sketch
100
AcDbCircle
 10
211.766987298
 20
-120.550000000
 30
0.000000000
 40
0.250000000
100
AcDbArc
 50
30.000000000
 51
90.000000000
  0
LINE
  5
A25
330
A02
100
AcDbEntity
  8
Sketch
100
AcDbLine
 10
211.766987298
 20
-120.300000000
 30
0.000000000
 11
172.433012702
 21
-120.300000000
 31
0.000000000
  0
ARC
  5
A26
330
A02
100
AcDbEntity
  8
Sketch
100
AcDbCircle
 10
172.433012702
 20
-120.550000000
 30
0.000000000
 40
0.250000000
100
AcDbArc
 50
90.000000000
 51
150.000000000
  0
ARC
  5
A27
330
A02
100
AcDbEntity
  8
Sketch
100
AcDbCircle
 10
172.000000000
 20
-120.300000000
 30
0.000000000
 40
0.250000000
100
AcDbArc
 50
120.000000000
 51
-30.000000000
  0
ARC
  5
A28
330
A02
100
AcDbEntity
  8
Sketch
100
AcDbCircle
 10
171.750000000
 20
-119.866987298
 30
0.000000000
 40
0.250000000
100
AcDbArc
 50
-60.000000000
 51
0.000000000
  0
LINE
  5
A29
330
A02
100
AcDbEntity
  8
Sketch
100
AcDbLine
 10
172.000000000
 20
-119.866987298
 30
0.000000000
 11
172.000000000
 21
-89.700918094
 31
0.000000000
  0
ARC
  5
A2A
330
A02
100
AcDbEntity
  8
Sketch
100
AcDbCircle
 10
171.000000000
 20
-89.700918094
 30
0.000000000
 40
1.000000000
100
AcDbArc
 50
0.000000000
 51
70.000000000
  0
LINE
  5
A2B
330
A02
100
AcDbEntity
  8
Sketch
100
AcDbLine
 10
171.342020143
 20
-88.761225473
 30
0.000000000
 11
123.572311232
 21
-71.374473330
 31
0.000000000
  0
ARC
  5
A2C
330
A02
100
AcDbEntity
  8
Sketch
100
AcDbCircle
 10
123.230291089
 20
-72.314165951
 30
0.000000000
 40
1.000000000
100
AcDbArc
 50
70.000000000
 51
160.000000000
  0
LINE
  5
A2D
330
A02
100
AcDbEntity
  8
Sketch
100
AcDbLine
 10
122.290598468
 20
-71.972145807
 30
0.000000000
 11
117.587755322
 21
-84.893101159
 31
0.000000000
  0
ARC
  5
A2E
330
A02
100
AcDbEntity
  8
Sketch
100
AcDbCircle
 10
117.822678477
 20
-84.978606195
 30
0.000000000
 40
0.250000000
100
AcDbArc
 50
160.000000000
 51
-140.000000000
  0
ARC
  5
A2F
330
A02
100
AcDbEntity
  8
Sketch
100
AcDbCircle
 10
117.439656255
 20
-85.300000000
 30
0.000000000
 40
0.250000000
100
AcDbArc
 50
-150.000000000
 51
40.000000000
  0
ARC
  5
A30
330
A02
100
AcDbEntity
  8
Sketch
100
AcDbCircle
 10
117.006643553
 20
-85.550000000
 30
0.000000000
 40
0.250000000
100
AcDbArc
 50
30.000000000
 51
90.000000000
  0
LINE
  5
A31
330
A02
100
AcDbEntity
  8
Sketch
100
AcDbLine
 10
117.006643553
 20
-85.300000000
 30
0.000000000
 11
112.433012702
 21
-85.300000000
 31
0.000000000
  0
ARC
  5
A32
330
A02
100
AcDbEntity
  8
Sketch
100
AcDbCircle
 10
112.433012702
 20
-85.550000000
 30
0.000000000
 40
0.250000000
100
AcDbArc
 50
90.000000000
 51
150.000000000
  0
ARC
  5
A33
330
A02
100
AcDbEntity
  8
Sketch
100
AcDbCircle
 10
112.000000000
 20
-85.300000000
 30
0.000000000
 40
0.250000000
100
AcDbArc
 50
120.000000000
 51
-30.000000000
  0
LINE
  5
A34
330
A02
100
AcDbEntity
  8
Sketch
100
AcDbLine
 10
107.000000000
 20
27.800000000
 30
0.000000000
 11
107.000000000
 21
-22.400000000
 31
0.000000000
  0
ARC
  5
A35
330
A02
100
AcDbEntity
  8
Sketch
100
AcDbCircle
 10
109.500000000
 20
-22.400000000
 30
0.000000000
 40
2.500000000
100
AcDbArc
 50
180.000000000
 51
-90.000000000
  0
LINE
  5
A36
330
A02
100
AcDbEntity
  8
Sketch
100
AcDbLine
 10
109.500000000
 20
-24.900000000
 30
0.000000000
 11
214.700000000
 21
-24.900000000
 31
0.000000000
  0
ARC
  5
A37
330
A02
100
AcDbEntity
  8
Sketch
100
AcDbCircle
 10
214.700000000
 20
-22.400000000
 30
0.000000000
 40
2.500000000
100
AcDbArc
 50
-90.000000000
 51
0.000000000
  0
LINE
  5
A38
330
A02
100
AcDbEntity
  8
Sketch
100
AcDbLine
 10
217.200000000
 20
-22.400000000
 30
0.000000000
 11
217.200000000
 21
62.800000000
 31
0.000000000
  0
ARC
  5
A39
330
A02
100
AcDbEntity
  8
Sketch
100
AcDbCircle
 10
214.700000000
 20
62.800000000
 30
0.000000000
 40
2.500000000
100
AcDbArc
 50
0.000000000
 51
90.000000000
  0
LINE
  5
A3A
330
A02
100
AcDbEntity
  8
Sketch
100
AcDbLine
 10
214.700000000
 20
65.300000000
 30
0.000000000
 11
169.500000000
 21
65.300000000
 31
0.000000000
  0
ARC
  5
A3B
330
A02
100
AcDbEntity
  8
Sketch
100
AcDbCircle
 10
169.500000000
 20
62.800000000
 30
0.000000000
 40
2.500000000
100
AcDbArc
 50
90.000000000
 51
180.000000000
  0
LINE
  5
A3C
330
A02
100
AcDbEntity
  8
Sketch
100
AcDbLine
 10
167.000000000
 20
62.800000000
 30
0.000000000
 11
167.000000000
 21
34.252267092
 31
0.000000000
  0
ARC
  5
A3D
330
A02
100
AcDbEntity
  8
Sketch
100
AcDbCircle
 10
164.500000000
 20
34.252267092
 30
0.000000000
 40
2.500000000
100
AcDbArc
 50
-70.000000000
 51
0.000000000
  0
LINE
  5
A3E
330
A02
100
AcDbEntity
  8
Sketch
100
AcDbLine
 10
165.355050358
 20
31.903035540
 30
0.000000000
 11
127.686860554
 21
18.192935673
 31
0.000000000
  0
ARC
  5
A3F
330
A02
100
AcDbEntity
  8
Sketch
100
AcDbCircle
 10
126.831810196
 20
20.542167225
 30
0.000000000
 40
2.500000000
100
AcDbArc
 50
-160.000000000
 51
-70.000000000
  0
LINE
  5
A40
330
A02
100
AcDbEntity
  8
Sketch
100
AcDbLine
 10
124.482578644
 20
19.687116867
 30
0.000000000
 11
121.218517790
 21
28.655050358
 31
0.000000000
  0
ARC
  5
A41
330
A02
100
AcDbEntity
  8
Sketch
100
AcDbCircle
 10
118.869286238
 20
27.800000000
 30
0.000000000
 40
2.500000000
100
AcDbArc
 50
20.000000000
 51
90.000000000
  0
LINE
  5
A42
330
A02
100
AcDbEntity
  8
Sketch
100
AcDbLine
 10
118.869286238
 20
30.300000000
 30
0.000000000
 11
109.500000000
 21
30.300000000
 31
0.000000000
  0
ARC
  5
A43
330
A02
100
AcDbEntity
  8
Sketch
100
AcDbCircle
 10
109.500000000
 20
27.800000000
 30
0.000000000
 40
2.500000000
100
AcDbArc
 50
90.000000000
 51
-180.000000000
  0
ARC
  5
A44
330
A02
100
AcDbEntity
  8
Sketch
100
AcDbCircle
 10
111.750000000
 20
24.866987298
 30
0.000000000
 40
0.250000000
100
AcDbArc
 50
0.000000000
 51
60.000000000
  0
ARC
  5
A45
330
A02
100
AcDbEntity
  8
Sketch
100
AcDbCircle
 10
112.000000000
 20
25.300000000
 30
0.000000000
 40
0.250000000
100
AcDbArc
 50
30.000000000
 51
-120.000000000
  0
ARC
  5
A46
330
A02
100
AcDbEntity
  8
Sketch
100
AcDbCircle
 10
112.433012702
 20
25.550000000
 30
0.000000000
 40
0.250000000
100
AcDbArc
 50
-150.000000000
 51
-90.000000000
  0
LINE
  5
A47
330
A02
100
AcDbEntity
  8
Sketch
100
AcDbLine
 10
117.006643553
 20
25.300000000
 30
0.000000000
 11
112.433012702
 21
25.300000000
 31
0.000000000
  0
ARC
  5
A48
330
A02
100
AcDbEntity
  8
Sketch
100
AcDbCircle
 10
117.006643553
 20
25.550000000
 30
0.000000000
 40
0.250000000
100
AcDbArc
 50
-90.000000000
 51
-30.000000000
  0
ARC
  5
A49
330
A02
100
AcDbEntity
  8
Sketch
100
AcDbCircle
 10
117.439656255
 20
25.300000000
 30
0.000000000
 40
0.250000000
100
AcDbArc
 50
-40.000000000
 51
150.000000000
  0
ARC
  5
A4A
330
A02
100
AcDbEntity
  8
Sketch
100
AcDbCircle
 10
117.822678477
 20
24.978606195
 30
0.000000000
 40
0.250000000
100
AcDbArc
 50
140.000000000
 51
-160.000000000
  0
LINE
  5
A4B
330
A02
100
AcDbEntity
  8
Sketch
100
AcDbLine
 10
122.290598468
 20
11.972145807
 30
0.000000000
 11
117.587755322
 21
24.893101159
 31
0.000000000
  0
ARC
  5
A4C
330
A02
100
AcDbEntity
  8
Sketch
100
AcDbCircle
 10
123.230291089
 20
12.314165951
 30
0.000000000
 40
1.000000000
100
AcDbArc
 50
-160.000000000
 51
-70.000000000
  0
LINE
  5
A4D
330
A02
100
AcDbEntity
  8
Sketch
100
AcDbLine
 10
171.342020143
 20
28.761225473
 30
0.000000000
 11
123.572311232
 21
11.374473330
 31
0.000000000
  0
ARC
  5
A4E
330
A02
100
AcDbEntity
  8
Sketch
100
AcDbCircle
 10
171.000000000
 20
29.700918094
 30
0.000000000
 40
1.000000000
100
AcDbArc
 50
-70.000000000
 51
0.000000000
  0
LINE
  5
A4F
330
A02
100
AcDbEntity
  8
Sketch
100
AcDbLine
 10
172.000000000
 20
59.866987298
 30
0.000000000
 11
172.000000000
 21
29.700918094
 31
0.000000000
  0
ARC
  5
A50
330
A02
100
AcDbEntity
  8
Sketch
100
AcDbCircle
 10
171.750000000
 20
59.866987298
 30
0.000000000
 40
0.250000000
100
AcDbArc
 50
0.000000000
 51
60.000000000
  0
ARC
  5
A51
330
A02
100
AcDbEntity
  8
Sketch
100
AcDbCircle
 10
172.000000000
 20
60.300000000
 30
0.000000000
 40
0.250000000
100
AcDbArc
 50
30.000000000
 51
-120.000000000
  0
ARC
  5
A52
330
A02
100
AcDbEntity
  8
Sketch
100
AcDbCircle
 10
172.433012702
 20
60.550000000
 30
0.000000000
 40
0.250000000
100
AcDbArc
 50
-150.000000000
 51
-90.000000000
  0
LINE
  5
A53
330
A02
100
AcDbEntity
  8
Sketch
100
AcDbLine
 10
211.766987298
 20
60.300000000
 30
0.000000000
 11
172.433012702
 21
60.300000000
 31
0.000000000
  0
ARC
  5
A54
330
A02
100
AcDbEntity
  8
Sketch
100
AcDbCircle
 10
211.766987298
 20
60.550000000
 30
0.000000000
 40
0.250000000
100
AcDbArc
 50
-90.000000000
 51
-30.000000000
  0
ARC
  5
A55
330
A02
100
AcDbEntity
  8
Sketch
100
AcDbCircle
 10
212.200000000
 20
60.300000000
 30
0.000000000
 40
0.250000000
100
AcDbArc
 50
-60.000000000
 51
150.000000000
  0
ARC
  5
A56
330
A02
100
AcDbEntity
  8
Sketch
100
AcDbCircle
 10
212.450000000
 20
59.866987298
 30
0.000000000
 40
0.250000000
100
AcDbArc
 50
120.000000000
 51
180.000000000
  0
LINE
  5
A57
330
A02
100
AcDbEntity
  8
Sketch
100
AcDbLine
 10
212.200000000
 20
-19.466987298
 30
0.000000000
 11
212.200000000
 21
59.866987298
 31
0.000000000
  0
ARC
  5
A58
330
A02
100
AcDbEntity
  8
Sketch
100
AcDbCircle
 10
212.450000000
 20
-19.466987298
 30
0.000000000
 40
0.250000000
100
AcDbArc
 50
180.000000000
 51
-120.000000000
  0
ARC
  5
A59
330
A02
100
AcDbEntity
  8
Sketch
100
AcDbCircle
 10
212.200000000
 20
-19.900000000
 30
0.000000000
 40
0.250000000
100
AcDbArc
 50
-150.000000000
 51
60.000000000
  0
ARC
  5
A5A
330
A02
100
AcDbEntity
  8
Sketch
100
AcDbCircle
 10
211.766987298
 20
-20.150000000
 30
0.000000000
 40
0.250000000
100
AcDbArc
 50
30.000000000
 51
90.000000000
  0
LINE
  5
A5B
330
A02
100
AcDbEntity
  8
Sketch
100
AcDbLine
 10
112.433012702
 20
-19.900000000
 30
0.000000000
 11
211.766987298
 21
-19.900000000
 31
0.000000000
  0
ARC
  5
A5C
330
A02
100
AcDbEntity
  8
Sketch
100
AcDbCircle
 10
112.433012702
 20
-20.150000000
 30
0.000000000
 40
0.250000000
100
AcDbArc
 50
90.000000000
 51
150.000000000
  0
ARC
  5
A5D
330
A02
100
AcDbEntity
  8
Sketch
100
AcDbCircle
 10
112.000000000
 20
-19.900000000
 30
0.000000000
 40
0.250000000
100
AcDbArc
 50
120.000000000
 51
-30.000000000
  0
ARC
  5
A5E
330
A02
100
AcDbEntity
  8
Sketch
100
AcDbCircle
 10
111.750000000
 20
-19.466987298
 30
0.000000000
 40
0.250000000
100
AcDbArc
 50
-60.000000000
 51
0.000000000
  0
LINE
  5
A5F
330
A02
100
AcDbEntity
  8
Sketch
100
AcDbLine
 10
112.000000000
 20
24.866987298
 30
0.000000000
 11
112.000000000
 21
-19.466987298
 31
0.000000000
  0
LINE
  5
A60
330
A02
100
AcDbEntity
  8
Sketch
100
AcDbLine
 10
142.463050448
 20
-78.250140108
 30
0.000000000
 11
142.283748705
 21
-77.865626279
 31
0.000000000
  0
LINE
  5
A61
330
A02
100
AcDbEntity
  8
Sketch
100
AcDbLine
 10
143.006551274
 20
-75.879742540
 30
0.000000000
 11
142.283748705
 21
-77.865626279
 31
0.000000000
  0
ARC
  5
A62
330
A02
100
AcDbEntity
  8
Sketch
100
AcDbCircle
 10
143.070395034
 20
-75.704333251
 30
0.000000000
 40
0.186666667
100
AcDbArc
 50
-110.000000000
 51
-20.000000000
  0
ARC
  5
A63
330
A02
100
AcDbEntity
  8
Sketch
100
AcDbCircle
 10
143.070395034
 20
-75.704333251
 30
0.000000000
 40
0.186666667
100
AcDbArc
 50
-20.000000000
 51
160.000000000
  0
LINE
  5
A64
330
A02
100
AcDbEntity
  8
Sketch
100
AcDbLine
 10
142.894985745
 20
-75.640489491
 30
0.000000000
 11
121.078670170
 21
-67.700000000
 31
0.000000000
  0
LINE
  5
A65
330
A02
100
AcDbEntity
  8
Sketch
100
AcDbLine
 10
121.078670170
 20
-67.700000000
 30
0.000000000
 11
115.619116656
 21
-82.700000000
 31
0.000000000
  0
LINE
  5
A66
330
A02
100
AcDbEntity
  8
Sketch
100
AcDbLine
 10
115.619116656
 20
-82.700000000
 30
0.000000000
 11
114.600000000
 21
-82.700000000
 31
0.000000000
  0
LINE
  5
A67
330
A02
100
AcDbEntity
  8
Sketch
100
AcDbLine
 10
114.600000000
 20
-82.700000000
 30
0.000000000
 11
114.600000000
 21
-67.961666667
 31
0.000000000
  0
ARC
  5
A68
330
A02
100
AcDbEntity
  8
Sketch
100
AcDbCircle
 10
114.600000000
 20
-67.775000000
 30
0.000000000
 40
0.186666667
100
AcDbArc
 50
-90.000000000
 51
90.000000000
  0
ARC
  5
A69
330
A02
100
AcDbEntity
  8
Sketch
100
AcDbCircle
 10
114.600000000
 20
-67.775000000
 30
0.000000000
 40
0.186666667
100
AcDbArc
 50
90.000000000
 51
180.000000000
  0
LINE
  5
A6A
330
A02
100
AcDbEntity
  8
Sketch
100
AcDbLine
 10
114.413333333
 20
-67.775000000
 30
0.000000000
 11
112.300000000
 21
-67.775000000
 31
0.000000000
  0
LINE
  5
A6B
330
A02
100
AcDbEntity
  8
Sketch
100
AcDbLine
 10
112.300000000
 20
-67.775000000
 30
0.000000000
 11
112.000000000
 21
-67.475000000
 31
0.000000000
  0
LINE
  5
A6C
330
A02
100
AcDbEntity
  8
Sketch
100
AcDbLine
 10
172.000000000
 20
-97.665085478
 30
0.000000000
 11
172.300000000
 21
-97.365085478
 31
0.000000000
  0
LINE
  5
A6D
330
A02
100
AcDbEntity
  8
Sketch
100
AcDbLine
 10
174.413333333
 20
-97.365085478
 30
0.000000000
 11
172.300000000
 21
-97.365085478
 31
0.000000000
  0
ARC
  5
A6E
330
A02
100
AcDbEntity
  8
Sketch
100
AcDbCircle
 10
174.600000000
 20
-97.365085478
 30
0.000000000
 40
0.186666667
100
AcDbArc
 50
180.000000000
 51
-90.000000000
  0
ARC
  5
A6F
330
A02
100
AcDbEntity
  8
Sketch
100
AcDbCircle
 10
174.600000000
 20
-97.365085478
 30
0.000000000
 40
0.186666667
100
AcDbArc
 50
-90.000000000
 51
90.000000000
  0
LINE
  5
A70
330
A02
100
AcDbEntity
  8
Sketch
100
AcDbLine
 10
174.600000000
 20
-97.178418812
 30
0.000000000
 11
174.600000000
 21
-87.180170956
 31
0.000000000
  0
LINE
  5
A71
330
A02
100
AcDbEntity
  8
Sketch
100
AcDbLine
 10
174.600000000
 20
-87.180170956
 30
0.000000000
 11
152.783684425
 21
-79.239681466
 31
0.000000000
  0
ARC
  5
A72
330
A02
100
AcDbEntity
  8
Sketch
100
AcDbCircle
 10
152.608275135
 20
-79.175837706
 30
0.000000000
 40
0.186666667
100
AcDbArc
 50
-20.000000000
 51
160.000000000
  0
ARC
  5
A73
330
A02
100
AcDbEntity
  8
Sketch
100
AcDbCircle
 10
152.608275135
 20
-79.175837706
 30
0.000000000
 40
0.186666667
100
AcDbArc
 50
160.000000000
 51
-110.000000000
  0
LINE
  5
A74
330
A02
100
AcDbEntity
  8
Sketch
100
AcDbLine
 10
152.544431375
 20
-79.351246995
 30
0.000000000
 11
151.821628806
 21
-81.337130733
 31
0.000000000
  0
LINE
  5
A75
330
A02
100
AcDbEntity
  8
Sketch
100
AcDbLine
 10
151.821628806
 20
-81.337130733
 30
0.000000000
 11
151.437114977
 21
-81.516432477
 31
0.000000000
  0
LINE
  5
A76
330
A02
100
AcDbEntity
  8
Sketch
100
AcDbLine
 10
112.000000000
 20
-57.925000000
 30
0.000000000
 11
112.300000000
 21
-57.625000000
 31
0.000000000
  0
LINE
  5
A77
330
A02
100
AcDbEntity
  8
Sketch
100
AcDbLine
 10
114.413333333
 20
-57.625000000
 30
0.000000000
 11
112.300000000
 21
-57.625000000
 31
0.000000000
  0
ARC
  5
A78
330
A02
100
AcDbEntity
  8
Sketch
100
AcDbCircle
 10
114.600000000
 20
-57.625000000
 30
0.000000000
 40
0.186666667
100
AcDbArc
 50
180.000000000
 51
-90.000000000
  0
ARC
  5
A79
330
A02
100
AcDbEntity
  8
Sketch
100
AcDbCircle
 10
114.600000000
 20
-57.625000000
 30
0.000000000
 40
0.186666667
100
AcDbArc
 50
-90.000000000
 51
90.000000000
  0
LINE
  5
A7A
330
A02
100
AcDbEntity
  8
Sketch
100
AcDbLine
 10
114.600000000
 20
-57.438333333
 30
0.000000000
 11
114.600000000
 21
-43.700000000
 31
0.000000000
  0
LINE
  5
A7B
330
A02
100
AcDbEntity
  8
Sketch
100
AcDbLine
 10
114.600000000
 20
-43.700000000
 30
0.000000000
 11
115.600000000
 21
-42.700000000
 31
0.000000000
  0
LINE
  5
A7C
330
A02
100
AcDbEntity
  8
Sketch
100
AcDbLine
 10
115.600000000
 20
-42.700000000
 30
0.000000000
 11
133.088333333
 21
-42.700000000
 31
0.000000000
  0
ARC
  5
A7D
330
A02
100
AcDbEntity
  8
Sketch
100
AcDbCircle
 10
133.275000000
 20
-42.700000000
 30
0.000000000
 40
0.186666667
100
AcDbArc
 50
180.000000000
 51
0.000000000
  0
ARC
  5
A7E
330
A02
100
AcDbEntity
  8
Sketch
100
AcDbCircle
 10
133.275000000
 20
-42.700000000
 30
0.000000000
 40
0.186666667
100
AcDbArc
 50
0.000000000
 51
90.000000000
  0
LINE
  5
A7F
330
A02
100
AcDbEntity
  8
Sketch
100
AcDbLine
 10
133.275000000
 20
-42.513333333
 30
0.000000000
 11
133.275000000
 21
-40.400000000
 31
0.000000000
  0
LINE
  5
A80
330
A02
100
AcDbEntity
  8
Sketch
100
AcDbLine
 10
133.275000000
 20
-40.400000000
 30
0.000000000
 11
133.575000000
 21
-40.100000000
 31
0.000000000
  0
LINE
  5
A81
330
A02
100
AcDbEntity
  8
Sketch
100
AcDbLine
 10
187.325000000
 20
-120.300000000
 30
0.000000000
 11
187.025000000
 21
-120.000000000
 31
0.000000000
  0
LINE
  5
A82
330
A02
100
AcDbEntity
  8
Sketch
100
AcDbLine
 10
187.025000000
 20
-117.886666667
 30
0.000000000
 11
187.025000000
 21
-120.000000000
 31
0.000000000
  0
ARC
  5
A83
330
A02
100
AcDbEntity
  8
Sketch
100
AcDbCircle
 10
187.025000000
 20
-117.700000000
 30
0.000000000
 40
0.186666667
100
AcDbArc
 50
-90.000000000
 51
0.000000000
  0
ARC
  5
A84
330
A02
100
AcDbEntity
  8
Sketch
100
AcDbCircle
 10
187.025000000
 20
-117.700000000
 30
0.000000000
 40
0.186666667
100
AcDbArc
 50
0.000000000
 51
180.000000000
  0
LINE
  5
A85
330
A02
100
AcDbEntity
  8
Sketch
100
AcDbLine
 10
186.838333333
 20
-117.700000000
 30
0.000000000
 11
175.600000000
 21
-117.700000000
 31
0.000000000
  0
LINE
  5
A86
330
A02
100
AcDbEntity
  8
Sketch
100
AcDbLine
 10
175.600000000
 20
-117.700000000
 30
0.000000000
 11
174.600000000
 21
-116.700000000
 31
0.000000000
  0
LINE
  5
A87
330
A02
100
AcDbEntity
  8
Sketch
100
AcDbLine
 10
174.600000000
 20
-116.700000000
 30
0.000000000
 11
174.600000000
 21
-107.701752145
 31
0.000000000
  0
ARC
  5
A88
330
A02
100
AcDbEntity
  8
Sketch
100
AcDbCircle
 10
174.600000000
 20
-107.515085478
 30
0.000000000
 40
0.186666667
100
AcDbArc
 50
-90.000000000
 51
90.000000000
  0
ARC
  5
A89
330
A02
100
AcDbEntity
  8
Sketch
100
AcDbCircle
 10
174.600000000
 20
-107.515085478
 30
0.000000000
 40
0.186666667
100
AcDbArc
 50
90.000000000
 51
180.000000000
  0
LINE
  5
A8A
330
A02
100
AcDbEntity
  8
Sketch
100
AcDbLine
 10
174.413333333
 20
-107.515085478
 30
0.000000000
 11
172.300000000
 21
-107.515085478
 31
0.000000000
  0
LINE
  5
A8B
330
A02
100
AcDbEntity
  8
Sketch
100
AcDbLine
 10
172.300000000
 20
-107.515085478
 30
0.000000000
 11
172.000000000
 21
-107.215085478
 31
0.000000000
  0
LINE
  5
A8C
330
A02
100
AcDbEntity
  8
Sketch
100
AcDbLine
 10
143.125000000
 20
-40.100000000
 30
0.000000000
 11
143.425000000
 21
-40.400000000
 31
0.000000000
  0
LINE
  5
A8D
330
A02
100
AcDbEntity
  8
Sketch
100
AcDbLine
 10
143.425000000
 20
-42.513333333
 30
0.000000000
 11
143.425000000
 21
-40.400000000
 31
0.000000000
  0
ARC
  5
A8E
330
A02
100
AcDbEntity
  8
Sketch
100
AcDbCircle
 10
143.425000000
 20
-42.700000000
 30
0.000000000
 40
0.186666667
100
AcDbArc
 50
90.000000000
 51
180.000000000
  0
ARC
  5
A8F
330
A02
100
AcDbEntity
  8
Sketch
100
AcDbCircle
 10
143.425000000
 20
-42.700000000
 30
0.000000000
 40
0.186666667
100
AcDbArc
 50
180.000000000
 51
0.000000000
  0
LINE
  5
A90
330
A02
100
AcDbEntity
  8
Sketch
100
AcDbLine
 10
143.611666667
 20
-42.700000000
 30
0.000000000
 11
180.588333333
 21
-42.700000000
 31
0.000000000
  0
ARC
  5
A91
330
A02
100
AcDbEntity
  8
Sketch
100
AcDbCircle
 10
180.775000000
 20
-42.700000000
 30
0.000000000
 40
0.186666667
100
AcDbArc
 50
180.000000000
 51
0.000000000
  0
ARC
  5
A92
330
A02
100
AcDbEntity
  8
Sketch
100
AcDbCircle
 10
180.775000000
 20
-42.700000000
 30
0.000000000
 40
0.186666667
100
AcDbArc
 50
0.000000000
 51
90.000000000
  0
LINE
  5
A93
330
A02
100
AcDbEntity
  8
Sketch
100
AcDbLine
 10
180.775000000
 20
-42.513333333
 30
0.000000000
 11
180.775000000
 21
-40.400000000
 31
0.000000000
  0
LINE
  5
A94
330
A02
100
AcDbEntity
  8
Sketch
100
AcDbLine
 10
180.775000000
 20
-40.400000000
 30
0.000000000
 11
181.075000000
 21
-40.100000000
 31
0.000000000
  0
LINE
  5
A95
330
A02
100
AcDbEntity
  8
Sketch
100
AcDbLine
 10
212.200000000
 20
-103.725000000
 30
0.000000000
 11
211.900000000
 21
-104.025000000
 31
0.000000000
  0
LINE
  5
A96
330
A02
100
AcDbEntity
  8
Sketch
100
AcDbLine
 10
209.786666667
 20
-104.025000000
 30
0.000000000
 11
211.900000000
 21
-104.025000000
 31
0.000000000
  0
ARC
  5
A97
330
A02
100
AcDbEntity
  8
Sketch
100
AcDbCircle
 10
209.600000000
 20
-104.025000000
 30
0.000000000
 40
0.186666667
100
AcDbArc
 50
0.000000000
 51
90.000000000
  0
ARC
  5
A98
330
A02
100
AcDbEntity
  8
Sketch
100
AcDbCircle
 10
209.600000000
 20
-104.025000000
 30
0.000000000
 40
0.186666667
100
AcDbArc
 50
90.000000000
 51
-90.000000000
  0
LINE
  5
A99
330
A02
100
AcDbEntity
  8
Sketch
100
AcDbLine
 10
209.600000000
 20
-104.211666667
 30
0.000000000
 11
209.600000000
 21
-116.700000000
 31
0.000000000
  0
LINE
  5
A9A
330
A02
100
AcDbEntity
  8
Sketch
100
AcDbLine
 10
209.600000000
 20
-116.700000000
 30
0.000000000
 11
208.600000000
 21
-117.700000000
 31
0.000000000
  0
LINE
  5
A9B
330
A02
100
AcDbEntity
  8
Sketch
100
AcDbLine
 10
208.600000000
 20
-117.700000000
 30
0.000000000
 11
197.361666667
 21
-117.700000000
 31
0.000000000
  0
ARC
  5
A9C
330
A02
100
AcDbEntity
  8
Sketch
100
AcDbCircle
 10
197.175000000
 20
-117.700000000
 30
0.000000000
 40
0.186666667
100
AcDbArc
 50
0.000000000
 51
180.000000000
  0
ARC
  5
A9D
330
A02
100
AcDbEntity
  8
Sketch
100
AcDbCircle
 10
197.175000000
 20
-117.700000000
 30
0.000000000
 40
0.186666667
100
AcDbArc
 50
180.000000000
 51
-90.000000000
  0
LINE
  5
A9E
330
A02
100
AcDbEntity
  8
Sketch
100
AcDbLine
 10
197.175000000
 20
-117.886666667
 30
0.000000000
 11
197.175000000
 21
-120.000000000
 31
0.000000000
  0
LINE
  5
A9F
330
A02
100
AcDbEntity
  8
Sketch
100
AcDbLine
 10
197.175000000
 20
-120.000000000
 30
0.000000000
 11
196.875000000
 21
-120.300000000
 31
0.000000000
  0
LINE
  5
AA0
330
A02
100
AcDbEntity
  8
Sketch
100
AcDbLine
 10
190.625000000
 20
-40.100000000
 30
0.000000000
 11
190.925000000
 21
-40.400000000
 31
0.000000000
  0
LINE
  5
AA1
330
A02
100
AcDbEntity
  8
Sketch
100
AcDbLine
 10
190.925000000
 20
-42.513333333
 30
0.000000000
 11
190.925000000
 21
-40.400000000
 31
0.000000000
  0
ARC
  5
AA2
330
A02
100
AcDbEntity
  8
Sketch
100
AcDbCircle
 10
190.925000000
 20
-42.700000000
 30
0.000000000
 40
0.186666667
100
AcDbArc
 50
90.000000000
 51
180.000000000
  0
ARC
  5
AA3
330
A02
100
AcDbEntity
  8
Sketch
100
AcDbCircle
 10
190.925000000
 20
-42.700000000
 30
0.000000000
 40
0.186666667
100
AcDbArc
 50
180.000000000
 51
0.000000000
  0
LINE
  5
AA4
330
A02
100
AcDbEntity
  8
Sketch
100
AcDbLine
 10
191.111666667
 20
-42.700000000
 30
0.000000000
 11
208.600000000
 21
-42.700000000
 31
0.000000000
  0
LINE
  5
AA5
330
A02
100
AcDbEntity
  8
Sketch
100
AcDbLine
 10
208.600000000
 20
-42.700000000
 30
0.000000000
 11
209.600000000
 21
-43.700000000
 31
0.000000000
  0
LINE
  5
AA6
330
A02
100
AcDbEntity
  8
Sketch
100
AcDbLine
 10
209.600000000
 20
-43.700000000
 30
0.000000000
 11
209.600000000
 21
-56.188333333
 31
0.000000000
  0
ARC
  5
AA7
330
A02
100
AcDbEntity
  8
Sketch
100
AcDbCircle
 10
209.600000000
 20
-56.375000000
 30
0.000000000
 40
0.186666667
100
AcDbArc
 50
90.000000000
 51
-90.000000000
  0
ARC
  5
AA8
330
A02
100
AcDbEntity
  8
Sketch
100
AcDbCircle
 10
209.600000000
 20
-56.375000000
 30
0.000000000
 40
0.186666667
100
AcDbArc
 50
-90.000000000
 51
0.000000000
  0
LINE
  5
AA9
330
A02
100
AcDbEntity
  8
Sketch
100
AcDbLine
 10
209.786666667
 20
-56.375000000
 30
0.000000000
 11
211.900000000
 21
-56.375000000
 31
0.000000000
  0
LINE
  5
AAA
330
A02
100
AcDbEntity
  8
Sketch
100
AcDbLine
 10
211.900000000
 20
-56.375000000
 30
0.000000000
 11
212.200000000
 21
-56.675000000
 31
0.000000000
  0
LINE
  5
AAB
330
A02
100
AcDbEntity
  8
Sketch
100
AcDbLine
 10
212.200000000
 20
-66.225000000
 30
0.000000000
 11
211.900000000
 21
-66.525000000
 31
0.000000000
  0
LINE
  5
AAC
330
A02
100
AcDbEntity
  8
Sketch
100
AcDbLine
 10
209.786666667
 20
-66.525000000
 30
0.000000000
 11
211.900000000
 21
-66.525000000
 31
0.000000000
  0
ARC
  5
AAD
330
A02
100
AcDbEntity
  8
Sketch
100
AcDbCircle
 10
209.600000000
 20
-66.525000000
 30
0.000000000
 40
0.186666667
100
AcDbArc
 50
0.000000000
 51
90.000000000
  0
ARC
  5
AAE
330
A02
100
AcDbEntity
  8
Sketch
100
AcDbCircle
 10
209.600000000
 20
-66.525000000
 30
0.000000000
 40
0.186666667
100
AcDbArc
 50
90.000000000
 51
-90.000000000
  0
LINE
  5
AAF
330
A02
100
AcDbEntity
  8
Sketch
100
AcDbLine
 10
209.600000000
 20
-66.711666667
 30
0.000000000
 11
209.600000000
 21
-93.688333333
 31
0.000000000
  0
ARC
  5
AB0
330
A02
100
AcDbEntity
  8
Sketch
100
AcDbCircle
 10
209.600000000
 20
-93.875000000
 30
0.000000000
 40
0.186666667
100
AcDbArc
 50
90.000000000
 51
-90.000000000
  0
ARC
  5
AB1
330
A02
100
AcDbEntity
  8
Sketch
100
AcDbCircle
 10
209.600000000
 20
-93.875000000
 30
0.000000000
 40
0.186666667
100
AcDbArc
 50
-90.000000000
 51
0.000000000
  0
LINE
  5
AB2
330
A02
100
AcDbEntity
  8
Sketch
100
AcDbLine
 10
209.786666667
 20
-93.875000000
 30
0.000000000
 11
211.900000000
 21
-93.875000000
 31
0.000000000
  0
LINE
  5
AB3
330
A02
100
AcDbEntity
  8
Sketch
100
AcDbLine
 10
211.900000000
 20
-93.875000000
 30
0.000000000
 11
212.200000000
 21
-94.175000000
 31
0.000000000
  0
LINE
  5
AB4
330
A02
100
AcDbEntity
  8
Sketch
100
AcDbLine
 10
158.952378217
 20
-71.718200254
 30
0.000000000
 11
159.807428575
 21
-69.368968702
 31
0.000000000
  0
ARC
  5
AB5
330
A02
100
AcDbEntity
  8
Sketch
100
AcDbCircle
 10
164.036045368
 20
-70.908059347
 30
0.000000000
 40
4.500000000
100
AcDbArc
 50
70.000000000
 51
160.000000000
  0
LINE
  5
AB6
330
A02
100
AcDbEntity
  8
Sketch
100
AcDbLine
 10
165.575136013
 20
-66.679442554
 30
0.000000000
 11
171.683138049
 21
-68.902573485
 31
0.000000000
  0
ARC
  5
AB7
330
A02
100
AcDbEntity
  8
Sketch
100
AcDbCircle
 10
170.144047404
 20
-73.131190279
 30
0.000000000
 40
4.500000000
100
AcDbArc
 50
-20.000000000
 51
70.000000000
  0
LINE
  5
AB8
330
A02
100
AcDbEntity
  8
Sketch
100
AcDbLine
 10
174.372664197
 20
-74.670280924
 30
0.000000000
 11
173.517613839
 21
-77.019512476
 31
0.000000000
  0
ARC
  5
AB9
330
A02
100
AcDbEntity
  8
Sketch
100
AcDbCircle
 10
169.288997045
 20
-75.480421831
 30
0.000000000
 40
4.500000000
100
AcDbArc
 50
-110.000000000
 51
-20.000000000
  0
LINE
  5
ABA
330
A02
100
AcDbEntity
  8
Sketch
100
AcDbLine
 10
167.749906400
 20
-79.709038624
 30
0.000000000
 11
161.641904365
 21
-77.485907693
 31
0.000000000
  0
ARC
  5
ABB
330
A02
100
AcDbEntity
  8
Sketch
100
AcDbCircle
 10
163.180995010
 20
-73.257290899
 30
0.000000000
 40
4.500000000
100
AcDbArc
 50
160.000000000
 51
-110.000000000
  0
LINE
  5
ABC
330
A02
100
AcDbEntity
  8
Sketch
100
AcDbLine
 10
140.310311926
 20
-47.894492704
 30
0.000000000
 11
140.826762343
 21
-46.475556847
 31
0.000000000
  0
LINE
  5
ABD
330
A02
100
AcDbEntity
  8
Sketch
100
AcDbLine
 10
140.826762343
 20
-46.475556847
 30
0.000000000
 11
152.103073792
 21
-50.579798567
 31
0.000000000
  0
LINE
  5
ABE
330
A02
100
AcDbEntity
  8
Sketch
100
AcDbLine
 10
151.586623376
 20
-51.998734424
 30
0.000000000
 11
152.103073792
 21
-50.579798567
 31
0.000000000
  0
LINE
  5
ABF
330
A02
100
AcDbEntity
  8
Sketch
100
AcDbLine
 10
140.310311926
 20
-47.894492704
 30
0.000000000
 11
151.586623376
 21
-51.998734424
 31
0.000000000
  0
LINE
  5
AC0
330
A02
100
AcDbEntity
  8
Sketch
100
AcDbLine
 10
170.380475791
 20
-58.839137291
 30
0.000000000
 11
170.896926208
 21
-57.420201433
 31
0.000000000
  0
LINE
  5
AC1
330
A02
100
AcDbEntity
  8
Sketch
100
AcDbLine
 10
170.896926208
 20
-57.420201433
 30
0.000000000
 11
182.173237657
 21
-61.524443153
 31
0.000000000
  0
LINE
  5
AC2
330
A02
100
AcDbEntity
  8
Sketch
100
AcDbLine
 10
181.656787241
 20
-62.943379011
 30
0.000000000
 11
182.173237657
 21
-61.524443153
 31
0.000000000
  0
LINE
  5
AC3
330
A02
100
AcDbEntity
  8
Sketch
100
AcDbLine
 10
170.380475791
 20
-58.839137291
 30
0.000000000
 11
181.656787241
 21
-62.943379011
 31
0.000000000
  0
LINE
  5
AC4
330
A02
100
AcDbEntity
  8
Sketch
100
AcDbLine
 10
179.490000000
 20
-110.000000000
 30
0.000000000
 11
181.000000000
 21
-110.000000000
 31
0.000000000
  0
LINE
  5
AC5
330
A02
100
AcDbEntity
  8
Sketch
100
AcDbLine
 10
181.000000000
 20
-110.000000000
 30
0.000000000
 11
181.000000000
 21
-98.000000000
 31
0.000000000
  0
LINE
  5
AC6
330
A02
100
AcDbEntity
  8
Sketch
100
AcDbLine
 10
179.490000000
 20
-98.000000000
 30
0.000000000
 11
181.000000000
 21
-98.000000000
 31
0.000000000
  0
LINE
  5
AC7
330
A02
100
AcDbEntity
  8
Sketch
100
AcDbLine
 10
179.490000000
 20
-110.000000000
 30
0.000000000
 11
179.490000000
 21
-98.000000000
 31
0.000000000
  0
ARC
  5
AC8
330
A02
100
AcDbEntity
  8
Sketch
100
AcDbCircle
 10
168.253299570
 20
-62.198272187
 30
0.000000000
 40
2.500000000
100
AcDbArc
 50
70.000000000
 51
-110.000000000
  0
LINE
  5
AC9
330
A02
100
AcDbEntity
  8
Sketch
100
AcDbLine
 10
167.398249211
 20
-64.547503739
 30
0.000000000
 11
171.250988957
 21
-65.949786327
 31
0.000000000
  0
ARC
  5
ACA
330
A02
100
AcDbEntity
  8
Sketch
100
AcDbCircle
 10
172.106039315
 20
-63.600554775
 30
0.000000000
 40
2.500000000
100
AcDbArc
 50
-110.000000000
 51
70.000000000
  0
LINE
  5
ACB
330
A02
100
AcDbEntity
  8
Sketch
100
AcDbLine
 10
169.108349928
 20
-59.849040635
 30
0.000000000
 11
172.961089673
 21
-61.251323223
 31
0.000000000
  0
LINE
  5
ACC
330
A02
100
AcDbEntity
  8
Sketch
100
AcDbLine
 10
142.463050448
 20
18.250140108
 30
0.000000000
 11
142.283748705
 21
17.865626279
 31
0.000000000
  0
LINE
  5
ACD
330
A02
100
AcDbEntity
  8
Sketch
100
AcDbLine
 10
143.006551274
 20
15.879742540
 30
0.000000000
 11
142.283748705
 21
17.865626279
 31
0.000000000
  0
ARC
  5
ACE
330
A02
100
AcDbEntity
  8
Sketch
100
AcDbCircle
 10
143.070395034
 20
15.704333251
 30
0.000000000
 40
0.186666667
100
AcDbArc
 50
20.000000000
 51
110.000000000
  0
ARC
  5
ACF
330
A02
100
AcDbEntity
  8
Sketch
100
AcDbCircle
 10
143.070395034
 20
15.704333251
 30
0.000000000
 40
0.186666667
100
AcDbArc
 50
-160.000000000
 51
20.000000000
  0
LINE
  5
AD0
330
A02
100
AcDbEntity
  8
Sketch
100
AcDbLine
 10
142.894985745
 20
15.640489491
 30
0.000000000
 11
121.078670170
 21
7.700000000
 31
0.000000000
  0
LINE
  5
AD1
330
A02
100
AcDbEntity
  8
Sketch
100
AcDbLine
 10
121.078670170
 20
7.700000000
 30
0.000000000
 11
115.619116656
 21
22.700000000
 31
0.000000000
  0
LINE
  5
AD2
330
A02
100
AcDbEntity
  8
Sketch
100
AcDbLine
 10
115.619116656
 20
22.700000000
 30
0.000000000
 11
114.600000000
 21
22.700000000
 31
0.000000000
  0
LINE
  5
AD3
330
A02
100
AcDbEntity
  8
Sketch
100
AcDbLine
 10
114.600000000
 20
22.700000000
 30
0.000000000
 11
114.600000000
 21
7.961666667
 31
0.000000000
  0
ARC
  5
AD4
330
A02
100
AcDbEntity
  8
Sketch
100
AcDbCircle
 10
114.600000000
 20
7.775000000
 30
0.000000000
 40
0.186666667
100
AcDbArc
 50
-90.000000000
 51
90.000000000
  0
ARC
  5
AD5
330
A02
100
AcDbEntity
  8
Sketch
100
AcDbCircle
 10
114.600000000
 20
7.775000000
 30
0.000000000
 40
0.186666667
100
AcDbArc
 50
180.000000000
 51
-90.000000000
  0
LINE
  5
AD6
330
A02
100
AcDbEntity
  8
Sketch
100
AcDbLine
 10
114.413333333
 20
7.775000000
 30
0.000000000
 11
112.300000000
 21
7.775000000
 31
0.000000000
  0
LINE
  5
AD7
330
A02
100
AcDbEntity
  8
Sketch
100
AcDbLine
 10
112.300000000
 20
7.775000000
 30
0.000000000
 11
112.000000000
 21
7.475000000
 31
0.000000000
  0
LINE
  5
AD8
330
A02
100
AcDbEntity
  8
Sketch
100
AcDbLine
 10
112.000000000
 20
-2.075000000
 30
0.000000000
 11
112.300000000
 21
-2.375000000
 31
0.000000000
  0
LINE
  5
AD9
330
A02
100
AcDbEntity
  8
Sketch
100
AcDbLine
 10
114.413333333
 20
-2.375000000
 30
0.000000000
 11
112.300000000
 21
-2.375000000
 31
0.000000000
  0
ARC
  5
ADA
330
A02
100
AcDbEntity
  8
Sketch
100
AcDbCircle
 10
114.600000000
 20
-2.375000000
 30
0.000000000
 40
0.186666667
100
AcDbArc
 50
90.000000000
 51
180.000000000
  0
ARC
  5
ADB
330
A02
100
AcDbEntity
  8
Sketch
100
AcDbCircle
 10
114.600000000
 20
-2.375000000
 30
0.000000000
 40
0.186666667
100
AcDbArc
 50
-90.000000000
 51
90.000000000
  0
LINE
  5
ADC
330
A02
100
AcDbEntity
  8
Sketch
100
AcDbLine
 10
114.600000000
 20
-2.561666667
 30
0.000000000
 11
114.600000000
 21
-16.300000000
 31
0.000000000
  0
LINE
  5
ADD
330
A02
100
AcDbEntity
  8
Sketch
100
AcDbLine
 10
114.600000000
 20
-16.300000000
 30
0.000000000
 11
115.600000000
 21
-17.300000000
 31
0.000000000
  0
LINE
  5
ADE
330
A02
100
AcDbEntity
  8
Sketch
100
AcDbLine
 10
115.600000000
 20
-17.300000000
 30
0.000000000
 11
133.088333333
 21
-17.300000000
 31
0.000000000
  0
ARC
  5
ADF
330
A02
100
AcDbEntity
  8
Sketch
100
AcDbCircle
 10
133.275000000
 20
-17.300000000
 30
0.000000000
 40
0.186666667
100
AcDbArc
 50
-0.000000000
 51
-180.000000000
  0
ARC
  5
AE0
330
A02
100
AcDbEntity
  8
Sketch
100
AcDbCircle
 10
133.275000000
 20
-17.300000000
 30
0.000000000
 40
0.186666667
100
AcDbArc
 50
-90.000000000
 51
-0.000000000
  0
LINE
  5
AE1
330
A02
100
AcDbEntity
  8
Sketch
100
AcDbLine
 10
133.275000000
 20
-17.486666667
 30
0.000000000
 11
133.275000000
 21
-19.600000000
 31
0.000000000
  0
LINE
  5
AE2
330
A02
100
AcDbEntity
  8
Sketch
100
AcDbLine
 10
133.275000000
 20
-19.600000000
 30
0.000000000
 11
133.575000000
 21
-19.900000000
 31
0.000000000
  0
LINE
  5
AE3
330
A02
100
AcDbEntity
  8
Sketch
100
AcDbLine
 10
172.000000000
 20
37.665085478
 30
0.000000000
 11
172.300000000
 21
37.365085478
 31
0.000000000
  0
LINE
  5
AE4
330
A02
100
AcDbEntity
  8
Sketch
100
AcDbLine
 10
174.413333333
 20
37.365085478
 30
0.000000000
 11
172.300000000
 21
37.365085478
 31
0.000000000
  0
ARC
  5
AE5
330
A02
100
AcDbEntity
  8
Sketch
100
AcDbCircle
 10
174.600000000
 20
37.365085478
 30
0.000000000
 40
0.186666667
100
AcDbArc
 50
90.000000000
 51
180.000000000
  0
ARC
  5
AE6
330
A02
100
AcDbEntity
  8
Sketch
100
AcDbCircle
 10
174.600000000
 20
37.365085478
 30
0.000000000
 40
0.186666667
100
AcDbArc
 50
-90.000000000
 51
90.000000000
  0
LINE
  5
AE7
330
A02
100
AcDbEntity
  8
Sketch
100
AcDbLine
 10
174.600000000
 20
37.178418812
 30
0.000000000
 11
174.600000000
 21
27.180170956
 31
0.000000000
  0
LINE
  5
AE8
330
A02
100
AcDbEntity
  8
Sketch
100
AcDbLine
 10
174.600000000
 20
27.180170956
 30
0.000000000
 11
152.783684425
 21
19.239681466
 31
0.000000000
  0
ARC
  5
AE9
330
A02
100
AcDbEntity
  8
Sketch
100
AcDbCircle
 10
152.608275135
 20
19.175837706
 30
0.000000000
 40
0.186666667
100
AcDbArc
 50
-160.000000000
 51
20.000000000
  0
ARC
  5
AEA
330
A02
100
AcDbEntity
  8
Sketch
100
AcDbCircle
 10
152.608275135
 20
19.175837706
 30
0.000000000
 40
0.186666667
100
AcDbArc
 50
110.000000000
 51
-160.000000000
  0
LINE
  5
AEB
330
A02
100
AcDbEntity
  8
Sketch
100
AcDbLine
 10
152.544431375
 20
19.351246995
 30
0.000000000
 11
151.821628806
 21
21.337130733
 31
0.000000000
  0
LINE
  5
AEC
330
A02
100
AcDbEntity
  8
Sketch
100
AcDbLine
 10
151.821628806
 20
21.337130733
 30
0.000000000
 11
151.437114977
 21
21.516432477
 31
0.000000000
  0
LINE
  5
AED
330
A02
100
AcDbEntity
  8
Sketch
100
AcDbLine
 10
143.125000000
 20
-19.900000000
 30
0.000000000
 11
143.425000000
 21
-19.600000000
 31
0.000000000
  0
LINE
  5
AEE
330
A02
100
AcDbEntity
  8
Sketch
100
AcDbLine
 10
143.425000000
 20
-17.486666667
 30
0.000000000
 11
143.425000000
 21
-19.600000000
 31
0.000000000
  0
ARC
  5
AEF
330
A02
100
AcDbEntity
  8
Sketch
100
AcDbCircle
 10
143.425000000
 20
-17.300000000
 30
0.000000000
 40
0.186666667
100
AcDbArc
 50
-180.000000000
 51
-90.000000000
  0
ARC
  5
AF0
330
A02
100
AcDbEntity
  8
Sketch
100
AcDbCircle
 10
143.425000000
 20
-17.300000000
 30
0.000000000
 40
0.186666667
100
AcDbArc
 50
-0.000000000
 51
-180.000000000
  0
LINE
  5
AF1
330
A02
100
AcDbEntity
  8
Sketch
100
AcDbLine
 10
143.611666667
 20
-17.300000000
 30
0.000000000
 11
180.588333333
 21
-17.300000000
 31
0.000000000
  0
ARC
  5
AF2
330
A02
100
AcDbEntity
  8
Sketch
100
AcDbCircle
 10
180.775000000
 20
-17.300000000
 30
0.000000000
 40
0.186666667
100
AcDbArc
 50
0.000000000
 51
180.000000000
  0
ARC
  5
AF3
330
A02
100
AcDbEntity
  8
Sketch
100
AcDbCircle
 10
180.775000000
 20
-17.300000000
 30
0.000000000
 40
0.186666667
100
AcDbArc
 50
-90.000000000
 51
0.000000000
  0
LINE
  5
AF4
330
A02
100
AcDbEntity
  8
Sketch
100
AcDbLine
 10
180.775000000
 20
-17.486666667
 30
0.000000000
 11
180.775000000
 21
-19.600000000
 31
0.000000000
  0
LINE
  5
AF5
330
A02
100
AcDbEntity
  8
Sketch
100
AcDbLine
 10
180.775000000
 20
-19.600000000
 30
0.000000000
 11
181.075000000
 21
-19.900000000
 31
0.000000000
  0
LINE
  5
AF6
330
A02
100
AcDbEntity
  8
Sketch
100
AcDbLine
 10
187.325000000
 20
60.300000000
 30
0.000000000
 11
187.025000000
 21
60.000000000
 31
0.000000000
  0
LINE
  5
AF7
330
A02
100
AcDbEntity
  8
Sketch
100
AcDbLine
 10
187.025000000
 20
57.886666667
 30
0.000000000
 11
187.025000000
 21
60.000000000
 31
0.000000000
  0
ARC
  5
AF8
330
A02
100
AcDbEntity
  8
Sketch
100
AcDbCircle
 10
187.025000000
 20
57.700000000
 30
0.000000000
 40
0.186666667
100
AcDbArc
 50
0.000000000
 51
90.000000000
  0
ARC
  5
AF9
330
A02
100
AcDbEntity
  8
Sketch
100
AcDbCircle
 10
187.025000000
 20
57.700000000
 30
0.000000000
 40
0.186666667
100
AcDbArc
 50
180.000000000
 51
0.000000000
  0
LINE
  5
AFA
330
A02
100
AcDbEntity
  8
Sketch
100
AcDbLine
 10
186.838333333
 20
57.700000000
 30
0.000000000
 11
175.600000000
 21
57.700000000
 31
0.000000000
  0
LINE
  5
AFB
330
A02
100
AcDbEntity
  8
Sketch
100
AcDbLine
 10
175.600000000
 20
57.700000000
 30
0.000000000
 11
174.600000000
 21
56.700000000
 31
0.000000000
  0
LINE
  5
AFC
330
A02
100
AcDbEntity
  8
Sketch
100
AcDbLine
 10
174.600000000
 20
56.700000000
 30
0.000000000
 11
174.600000000
 21
47.701752145
 31
0.000000000
  0
ARC
  5
AFD
330
A02
100
AcDbEntity
  8
Sketch
100
AcDbCircle
 10
174.600000000
 20
47.515085478
 30
0.000000000
 40
0.186666667
100
AcDbArc
 50
-90.000000000
 51
90.000000000
  0
ARC
  5
AFE
330
A02
100
AcDbEntity
  8
Sketch
100
AcDbCircle
 10
174.600000000
 20
47.515085478
 30
0.000000000
 40
0.186666667
100
AcDbArc
 50
180.000000000
 51
-90.000000000
  0
LINE
  5
AFF
330
A02
100
AcDbEntity
  8
Sketch
100
AcDbLine
 10
174.413333333
 20
47.515085478
 30
0.000000000
 11
172.300000000
 21
47.515085478
 31
0.000000000
  0
LINE
  5
B00
330
A02
100
AcDbEntity
  8
Sketch
100
AcDbLine
 10
172.300000000
 20
47.515085478
 30
0.000000000
 11
172.000000000
 21
47.215085478
 31
0.000000000
  0
LINE
  5
B01
330
A02
100
AcDbEntity
  8
Sketch
100
AcDbLine
 10
190.625000000
 20
-19.900000000
 30
0.000000000
 11
190.925000000
 21
-19.600000000
 31
0.000000000
  0
LINE
  5
B02
330
A02
100
AcDbEntity
  8
Sketch
100
AcDbLine
 10
190.925000000
 20
-17.486666667
 30
0.000000000
 11
190.925000000
 21
-19.600000000
 31
0.000000000
  0
ARC
  5
B03
330
A02
100
AcDbEntity
  8
Sketch
100
AcDbCircle
 10
190.925000000
 20
-17.300000000
 30
0.000000000
 40
0.186666667
100
AcDbArc
 50
180.000000000
 51
-90.000000000
  0
ARC
  5
B04
330
A02
100
AcDbEntity
  8
Sketch
100
AcDbCircle
 10
190.925000000
 20
-17.300000000
 30
0.000000000
 40
0.186666667
100
AcDbArc
 50
0.000000000
 51
180.000000000
  0
LINE
  5
B05
330
A02
100
AcDbEntity
  8
Sketch
100
AcDbLine
 10
191.111666667
 20
-17.300000000
 30
0.000000000
 11
208.600000000
 21
-17.300000000
 31
0.000000000
  0
LINE
  5
B06
330
A02
100
AcDbEntity
  8
Sketch
100
AcDbLine
 10
208.600000000
 20
-17.300000000
 30
0.000000000
 11
209.600000000
 21
-16.300000000
 31
0.000000000
  0
LINE
  5
B07
330
A02
100
AcDbEntity
  8
Sketch
100
AcDbLine
 10
209.600000000
 20
-16.300000000
 30
0.000000000
 11
209.600000000
 21
-3.811666667
 31
0.000000000
  0
ARC
  5
B08
330
A02
100
AcDbEntity
  8
Sketch
100
AcDbCircle
 10
209.600000000
 20
-3.625000000
 30
0.000000000
 40
0.186666667
100
AcDbArc
 50
90.000000000
 51
-90.000000000
  0
ARC
  5
B09
330
A02
100
AcDbEntity
  8
Sketch
100
AcDbCircle
 10
209.600000000
 20
-3.625000000
 30
0.000000000
 40
0.186666667
100
AcDbArc
 50
0.000000000
 51
90.000000000
  0
LINE
  5
B0A
330
A02
100
AcDbEntity
  8
Sketch
100
AcDbLine
 10
209.786666667
 20
-3.625000000
 30
0.000000000
 11
211.900000000
 21
-3.625000000
 31
0.000000000
  0
LINE
  5
B0B
330
A02
100
AcDbEntity
  8
Sketch
100
AcDbLine
 10
211.900000000
 20
-3.625000000
 30
0.000000000
 11
212.400000000
 21
-3.125000000
 31
0.000000000
  0
LINE
  5
B0C
330
A02
100
AcDbEntity
  8
Sketch
100
AcDbLine
 10
212.200000000
 20
43.725000000
 30
0.000000000
 11
211.900000000
 21
44.025000000
 31
0.000000000
  0
LINE
  5
B0D
330
A02
100
AcDbEntity
  8
Sketch
100
AcDbLine
 10
209.786666667
 20
44.025000000
 30
0.000000000
 11
211.900000000
 21
44.025000000
 31
0.000000000
  0
ARC
  5
B0E
330
A02
100
AcDbEntity
  8
Sketch
100
AcDbCircle
 10
209.600000000
 20
44.025000000
 30
0.000000000
 40
0.186666667
100
AcDbArc
 50
-90.000000000
 51
0.000000000
  0
ARC
  5
B0F
330
A02
100
AcDbEntity
  8
Sketch
100
AcDbCircle
 10
209.600000000
 20
44.025000000
 30
0.000000000
 40
0.186666667
100
AcDbArc
 50
90.000000000
 51
-90.000000000
  0
LINE
  5
B10
330
A02
100
AcDbEntity
  8
Sketch
100
AcDbLine
 10
209.600000000
 20
44.211666667
 30
0.000000000
 11
209.600000000
 21
56.700000000
 31
0.000000000
  0
LINE
  5
B11
330
A02
100
AcDbEntity
  8
Sketch
100
AcDbLine
 10
209.600000000
 20
56.700000000
 30
0.000000000
 11
208.600000000
 21
57.700000000
 31
0.000000000
  0
LINE
  5
B12
330
A02
100
AcDbEntity
  8
Sketch
100
AcDbLine
 10
208.600000000
 20
57.700000000
 30
0.000000000
 11
197.361666667
 21
57.700000000
 31
0.000000000
  0
ARC
  5
B13
330
A02
100
AcDbEntity
  8
Sketch
100
AcDbCircle
 10
197.175000000
 20
57.700000000
 30
0.000000000
 40
0.186666667
100
AcDbArc
 50
180.000000000
 51
0.000000000
  0
ARC
  5
B14
330
A02
100
AcDbEntity
  8
Sketch
100
AcDbCircle
 10
197.175000000
 20
57.700000000
 30
0.000000000
 40
0.186666667
100
AcDbArc
 50
90.000000000
 51
180.000000000
  0
LINE
  5
B15
330
A02
100
AcDbEntity
  8
Sketch
100
AcDbLine
 10
197.175000000
 20
57.886666667
 30
0.000000000
 11
197.175000000
 21
60.000000000
 31
0.000000000
  0
LINE
  5
B16
330
A02
100
AcDbEntity
  8
Sketch
100
AcDbLine
 10
197.175000000
 20
60.000000000
 30
0.000000000
 11
196.875000000
 21
60.300000000
 31
0.000000000
  0
LINE
  5
B17
330
A02
100
AcDbEntity
  8
Sketch
100
AcDbLine
 10
212.400000000
 20
6.025000000
 30
0.000000000
 11
211.900000000
 21
6.525000000
 31
0.000000000
  0
LINE
  5
B18
330
A02
100
AcDbEntity
  8
Sketch
100
AcDbLine
 10
209.786666667
 20
6.525000000
 30
0.000000000
 11
211.900000000
 21
6.525000000
 31
0.000000000
  0
ARC
  5
B19
330
A02
100
AcDbEntity
  8
Sketch
100
AcDbCircle
 10
209.600000000
 20
6.525000000
 30
0.000000000
 40
0.186666667
100
AcDbArc
 50
-90.000000000
 51
0.000000000
  0
ARC
  5
B1A
330
A02
100
AcDbEntity
  8
Sketch
100
AcDbCircle
 10
209.600000000
 20
6.525000000
 30
0.000000000
 40
0.186666667
100
AcDbArc
 50
90.000000000
 51
-90.000000000
  0
LINE
  5
B1B
330
A02
100
AcDbEntity
  8
Sketch
100
AcDbLine
 10
209.600000000
 20
6.711666667
 30
0.000000000
 11
209.600000000
 21
33.688333333
 31
0.000000000
  0
ARC
  5
B1C
330
A02
100
AcDbEntity
  8
Sketch
100
AcDbCircle
 10
209.600000000
 20
33.875000000
 30
0.000000000
 40
0.186666667
100
AcDbArc
 50
90.000000000
 51
-90.000000000
  0
ARC
  5
B1D
330
A02
100
AcDbEntity
  8
Sketch
100
AcDbCircle
 10
209.600000000
 20
33.875000000
 30
0.000000000
 40
0.186666667
100
AcDbArc
 50
0.000000000
 51
90.000000000
  0
LINE
  5
B1E
330
A02
100
AcDbEntity
  8
Sketch
100
AcDbLine
 10
209.786666667
 20
33.875000000
 30
0.000000000
 11
211.900000000
 21
33.875000000
 31
0.000000000
  0
LINE
  5
B1F
330
A02
100
AcDbEntity
  8
Sketch
100
AcDbLine
 10
211.900000000
 20
33.875000000
 30
0.000000000
 11
212.200000000
 21
34.175000000
 31
0.000000000
  0
LINE
  5
B20
330
A02
100
AcDbEntity
  8
Sketch
100
AcDbLine
 10
140.310311926
 20
-12.105507296
 30
0.000000000
 11
140.826762343
 21
-13.524443153
 31
0.000000000
  0
LINE
  5
B21
330
A02
100
AcDbEntity
  8
Sketch
100
AcDbLine
 10
140.826762343
 20
-13.524443153
 30
0.000000000
 11
152.103073792
 21
-9.420201433
 31
0.000000000
  0
LINE
  5
B22
330
A02
100
AcDbEntity
  8
Sketch
100
AcDbLine
 10
151.586623376
 20
-8.001265576
 30
0.000000000
 11
152.103073792
 21
-9.420201433
 31
0.000000000
  0
LINE
  5
B23
330
A02
100
AcDbEntity
  8
Sketch
100
AcDbLine
 10
140.310311926
 20
-12.105507296
 30
0.000000000
 11
151.586623376
 21
-8.001265576
 31
0.000000000
  0
LINE
  5
B24
330
A02
100
AcDbEntity
  8
Sketch
100
AcDbLine
 10
170.380475791
 20
-1.160862709
 30
0.000000000
 11
170.896926208
 21
-2.579798567
 31
0.000000000
  0
LINE
  5
B25
330
A02
100
AcDbEntity
  8
Sketch
100
AcDbLine
 10
170.896926208
 20
-2.579798567
 30
0.000000000
 11
182.173237657
 21
1.524443153
 31
0.000000000
  0
LINE
  5
B26
330
A02
100
AcDbEntity
  8
Sketch
100
AcDbLine
 10
181.656787241
 20
2.943379011
 30
0.000000000
 11
182.173237657
 21
1.524443153
 31
0.000000000
  0
LINE
  5
B27
330
A02
100
AcDbEntity
  8
Sketch
100
AcDbLine
 10
170.380475791
 20
-1.160862709
 30
0.000000000
 11
181.656787241
 21
2.943379011
 31
0.000000000
  0
LINE
  5
B28
330
A02
100
AcDbEntity
  8
Sketch
100
AcDbLine
 10
179.490000000
 20
38.000000000
 30
0.000000000
 11
181.000000000
 21
38.000000000
 31
0.000000000
  0
LINE
  5
B29
330
A02
100
AcDbEntity
  8
Sketch
100
AcDbLine
 10
181.000000000
 20
38.000000000
 30
0.000000000
 11
181.000000000
 21
50.000000000
 31
0.000000000
  0
LINE
  5
B2A
330
A02
100
AcDbEntity
  8
Sketch
100
AcDbLine
 10
179.490000000
 20
50.000000000
 30
0.000000000
 11
181.000000000
 21
50.000000000
 31
0.000000000
  0
LINE
  5
B2B
330
A02
100
AcDbEntity
  8
Sketch
100
AcDbLine
 10
179.490000000
 20
38.000000000
 30
0.000000000
 11
179.490000000
 21
50.000000000
 31
0.000000000
  0
LINE
  5
B2C
330
A02
100
AcDbEntity
  8
Sketch
100
AcDbLine
 10
73.725000000
 20
-16.800000000
 30
0.000000000
 11
73.225000000
 21
-17.300000000
 31
0.000000000
  0
LINE
  5
B2D
330
A02
100
AcDbEntity
  8
Sketch
100
AcDbLine
 10
73.725000000
 20
-16.800000000
 30
0.000000000
 11
73.725000000
 21
-14.708660423
 31
0.000000000
  0
ARC
  5
B2E
330
A02
100
AcDbEntity
  8
Sketch
100
AcDbCircle
 10
73.825166667
 20
-14.535166667
 30
0.000000000
 40
0.200333333
100
AcDbArc
 50
90.000000000
 51
-120.000000000
  0
ARC
  5
B2F
330
A02
100
AcDbEntity
  8
Sketch
100
AcDbCircle
 10
73.825166667
 20
-14.535166667
 30
0.000000000
 40
0.200333333
100
AcDbArc
 50
30.000000000
 51
90.000000000
  0
LINE
  5
B30
330
A02
100
AcDbEntity
  8
Sketch
100
AcDbLine
 10
73.998660423
 20
-14.435000000
 30
0.000000000
 11
83.401339577
 21
-14.435000000
 31
0.000000000
  0
ARC
  5
B31
330
A02
100
AcDbEntity
  8
Sketch
100
AcDbCircle
 10
83.574833333
 20
-14.535166667
 30
0.000000000
 40
0.200333333
100
AcDbArc
 50
90.000000000
 51
150.000000000
  0
ARC
  5
B32
330
A02
100
AcDbEntity
  8
Sketch
100
AcDbCircle
 10
83.574833333
 20
-14.535166667
 30
0.000000000
 40
0.200333333
100
AcDbArc
 50
-60.000000000
 51
90.000000000
  0
LINE
  5
B33
330
A02
100
AcDbEntity
  8
Sketch
100
AcDbLine
 10
83.675000000
 20
-16.800000000
 30
0.000000000
 11
83.675000000
 21
-14.708660423
 31
0.000000000
  0
LINE
  5
B34
330
A02
100
AcDbEntity
  8
Sketch
100
AcDbLine
 10
84.175000000
 20
-17.300000000
 30
0.000000000
 11
83.675000000
 21
-16.800000000
 31
0.000000000
  0
LINE
  5
B35
330
A02
100
AcDbEntity
  8
Sketch
100
AcDbLine
 10
97.500000000
 20
-17.300000000
 30
0.000000000
 11
84.175000000
 21
-17.300000000
 31
0.000000000
  0
ARC
  5
B36
330
A02
100
AcDbEntity
  8
Sketch
100
AcDbCircle
 10
97.500000000
 20
-16.900000000
 30
0.000000000
 40
0.400000000
100
AcDbArc
 50
-90.000000000
 51
0.000000000
  0
LINE
  5
B37
330
A02
100
AcDbEntity
  8
Sketch
100
AcDbLine
 10
97.900000000
 20
-3.300000000
 30
0.000000000
 11
97.900000000
 21
-16.900000000
 31
0.000000000
  0
ARC
  5
B38
330
A02
100
AcDbEntity
  8
Sketch
100
AcDbCircle
 10
98.300000000
 20
-3.300000000
 30
0.000000000
 40
0.400000000
100
AcDbArc
 50
0.000000000
 51
-180.000000000
  0
LINE
  5
B39
330
A02
100
AcDbEntity
  8
Sketch
100
AcDbLine
 10
98.700000000
 20
-16.900000000
 30
0.000000000
 11
98.700000000
 21
-3.300000000
 31
0.000000000
  0
ARC
  5
B3A
330
A02
100
AcDbEntity
  8
Sketch
100
AcDbCircle
 10
99.100000000
 20
-16.900000000
 30
0.000000000
 40
0.400000000
100
AcDbArc
 50
180.000000000
 51
-90.000000000
  0
LINE
  5
B3B
330
A02
100
AcDbEntity
  8
Sketch
100
AcDbLine
 10
99.100000000
 20
-17.300000000
 30
0.000000000
 11
101.252786405
 21
-17.300000000
 31
0.000000000
  0
ARC
  5
B3C
330
A02
100
AcDbEntity
  8
Sketch
100
AcDbCircle
 10
101.252786405
 20
-16.900000000
 30
0.000000000
 40
0.400000000
100
AcDbArc
 50
-90.000000000
 51
-26.565051177
  0
LINE
  5
B3D
330
A02
100
AcDbEntity
  8
Sketch
100
AcDbLine
 10
101.610557281
 20
-17.078885438
 30
0.000000000
 11
102.500000000
 21
-15.300000000
 31
0.000000000
  0
LINE
  5
B3E
330
A02
100
AcDbEntity
  8
Sketch
100
AcDbLine
 10
102.500000000
 20
-15.300000000
 30
0.000000000
 11
101.500000000
 21
-15.300000000
 31
0.000000000
  0
LINE
  5
B3F
330
A02
100
AcDbEntity
  8
Sketch
100
AcDbLine
 10
101.500000000
 20
-15.300000000
 30
0.000000000
 11
101.500000000
 21
-12.500000000
 31
0.000000000
  0
LINE
  5
B40
330
A02
100
AcDbEntity
  8
Sketch
100
AcDbLine
 10
103.500000000
 20
-12.500000000
 30
0.000000000
 11
101.500000000
 21
-12.500000000
 31
0.000000000
  0
LINE
  5
B41
330
A02
100
AcDbEntity
  8
Sketch
100
AcDbLine
 10
101.513629669
 20
-5.086765004
 30
0.000000000
 11
103.500000000
 21
-12.500000000
 31
0.000000000
  0
ARC
  5
B42
330
A02
100
AcDbEntity
  8
Sketch
100
AcDbCircle
 10
101.900000000
 20
-4.983237386
 30
0.000000000
 40
0.400000000
100
AcDbArc
 50
180.000000000
 51
-165.000000000
  0
LINE
  5
B43
330
A02
100
AcDbEntity
  8
Sketch
100
AcDbLine
 10
101.500000000
 20
45.983237386
 30
0.000000000
 11
101.500000000
 21
-4.983237386
 31
0.000000000
  0
ARC
  5
B44
330
A02
100
AcDbEntity
  8
Sketch
100
AcDbCircle
 10
101.900000000
 20
45.983237386
 30
0.000000000
 40
0.400000000
100
AcDbArc
 50
165.000000000
 51
180.000000000
  0
LINE
  5
B45
330
A02
100
AcDbEntity
  8
Sketch
100
AcDbLine
 10
103.500000000
 20
53.500000000
 30
0.000000000
 11
101.513629669
 21
46.086765004
 31
0.000000000
  0
LINE
  5
B46
330
A02
100
AcDbEntity
  8
Sketch
100
AcDbLine
 10
101.500000000
 20
53.500000000
 30
0.000000000
 11
103.500000000
 21
53.500000000
 31
0.000000000
  0
LINE
  5
B47
330
A02
100
AcDbEntity
  8
Sketch
100
AcDbLine
 10
101.500000000
 20
56.300000000
 30
0.000000000
 11
101.500000000
 21
53.500000000
 31
0.000000000
  0
LINE
  5
B48
330
A02
100
AcDbEntity
  8
Sketch
100
AcDbLine
 10
102.500000000
 20
56.300000000
 30
0.000000000
 11
101.500000000
 21
56.300000000
 31
0.000000000
  0
LINE
  5
B49
330
A02
100
AcDbEntity
  8
Sketch
100
AcDbLine
 10
101.610557281
 20
58.078885438
 30
0.000000000
 11
102.500000000
 21
56.300000000
 31
0.000000000
  0
ARC
  5
B4A
330
A02
100
AcDbEntity
  8
Sketch
100
AcDbCircle
 10
101.252786405
 20
57.900000000
 30
0.000000000
 40
0.400000000
100
AcDbArc
 50
26.565051177
 51
90.000000000
  0
LINE
  5
B4B
330
A02
100
AcDbEntity
  8
Sketch
100
AcDbLine
 10
101.252786405
 20
58.300000000
 30
0.000000000
 11
99.100000000
 21
58.300000000
 31
0.000000000
  0
ARC
  5
B4C
330
A02
100
AcDbEntity
  8
Sketch
100
AcDbCircle
 10
99.100000000
 20
57.900000000
 30
0.000000000
 40
0.400000000
100
AcDbArc
 50
90.000000000
 51
180.000000000
  0
LINE
  5
B4D
330
A02
100
AcDbEntity
  8
Sketch
100
AcDbLine
 10
98.700000000
 20
57.900000000
 30
0.000000000
 11
98.700000000
 21
44.300000000
 31
0.000000000
  0
ARC
  5
B4E
330
A02
100
AcDbEntity
  8
Sketch
100
AcDbCircle
 10
98.300000000
 20
44.300000000
 30
0.000000000
 40
0.400000000
100
AcDbArc
 50
180.000000000
 51
0.000000000
  0
LINE
  5
B4F
330
A02
100
AcDbEntity
  8
Sketch
100
AcDbLine
 10
97.900000000
 20
44.300000000
 30
0.000000000
 11
97.900000000
 21
57.900000000
 31
0.000000000
  0
ARC
  5
B50
330
A02
100
AcDbEntity
  8
Sketch
100
AcDbCircle
 10
97.500000000
 20
57.900000000
 30
0.000000000
 40
0.400000000
100
AcDbArc
 50
0.000000000
 51
90.000000000
  0
LINE
  5
B51
330
A02
100
AcDbEntity
  8
Sketch
100
AcDbLine
 10
97.500000000
 20
58.300000000
 30
0.000000000
 11
84.175000000
 21
58.300000000
 31
0.000000000
  0
LINE
  5
B52
330
A02
100
AcDbEntity
  8
Sketch
100
AcDbLine
 10
83.675000000
 20
57.800000000
 30
0.000000000
 11
84.175000000
 21
58.300000000
 31
0.000000000
  0
LINE
  5
B53
330
A02
100
AcDbEntity
  8
Sketch
100
AcDbLine
 10
83.675000000
 20
55.708660423
 30
0.000000000
 11
83.675000000
 21
57.800000000
 31
0.000000000
  0
ARC
  5
B54
330
A02
100
AcDbEntity
  8
Sketch
100
AcDbCircle
 10
83.574833333
 20
55.535166667
 30
0.000000000
 40
0.200333333
100
AcDbArc
 50
-150.000000000
 51
60.000000000
  0
LINE
  5
B55
330
A02
100
AcDbEntity
  8
Sketch
100
AcDbLine
 10
73.998660423
 20
55.435000000
 30
0.000000000
 11
83.401339577
 21
55.435000000
 31
0.000000000
  0
ARC
  5
B56
330
A02
100
AcDbEntity
  8
Sketch
100
AcDbCircle
 10
73.825166667
 20
55.535166667
 30
0.000000000
 40
0.200333333
100
AcDbArc
 50
120.000000000
 51
-30.000000000
  0
LINE
  5
B57
330
A02
100
AcDbEntity
  8
Sketch
100
AcDbLine
 10
73.725000000
 20
55.708660423
 30
0.000000000
 11
73.725000000
 21
57.800000000
 31
0.000000000
  0
LINE
  5
B58
330
A02
100
AcDbEntity
  8
Sketch
100
AcDbLine
 10
73.225000000
 20
58.300000000
 30
0.000000000
 11
73.725000000
 21
57.800000000
 31
0.000000000
  0
LINE
  5
B59
330
A02
100
AcDbEntity
  8
Sketch
100
AcDbLine
 10
73.225000000
 20
58.300000000
 30
0.000000000
 11
59.200000000
 21
58.300000000
 31
0.000000000
  0
LINE
  5
B5A
330
A02
100
AcDbEntity
  8
Sketch
100
AcDbLine
 10
58.700000000
 20
57.800000000
 30
0.000000000
 11
59.200000000
 21
58.300000000
 31
0.000000000
  0
LINE
  5
B5B
330
A02
100
AcDbEntity
  8
Sketch
100
AcDbLine
 10
58.700000000
 20
57.800000000
 30
0.000000000
 11
58.700000000
 21
25.761666667
 31
0.000000000
  0
ARC
  5
B5C
330
A02
100
AcDbEntity
  8
Sketch
100
AcDbCircle
 10
58.700000000
 20
25.575000000
 30
0.000000000
 40
0.186666667
100
AcDbArc
 50
-90.000000000
 51
90.000000000
  0
ARC
  5
B5D
330
A02
100
AcDbEntity
  8
Sketch
100
AcDbCircle
 10
58.700000000
 20
25.575000000
 30
0.000000000
 40
0.186666667
100
AcDbArc
 50
180.000000000
 51
-90.000000000
  0
LINE
  5
B5E
330
A02
100
AcDbEntity
  8
Sketch
100
AcDbLine
 10
58.513333333
 20
25.575000000
 30
0.000000000
 11
56.400000000
 21
25.575000000
 31
0.000000000
  0
LINE
  5
B5F
330
A02
100
AcDbEntity
  8
Sketch
100
AcDbLine
 10
55.900000000
 20
25.075000000
 30
0.000000000
 11
56.400000000
 21
25.575000000
 31
0.000000000
  0
LINE
  5
B60
330
A02
100
AcDbEntity
  8
Sketch
100
AcDbLine
 10
55.900000000
 20
15.925000000
 30
0.000000000
 11
55.900000000
 21
25.075000000
 31
0.000000000
  0
LINE
  5
B61
330
A02
100
AcDbEntity
  8
Sketch
100
AcDbLine
 10
56.400000000
 20
15.425000000
 30
0.000000000
 11
55.900000000
 21
15.925000000
 31
0.000000000
  0
LINE
  5
B62
330
A02
100
AcDbEntity
  8
Sketch
100
AcDbLine
 10
58.513333333
 20
15.425000000
 30
0.000000000
 11
56.400000000
 21
15.425000000
 31
0.000000000
  0
ARC
  5
B63
330
A02
100
AcDbEntity
  8
Sketch
100
AcDbCircle
 10
58.700000000
 20
15.425000000
 30
0.000000000
 40
0.186666667
100
AcDbArc
 50
90.000000000
 51
180.000000000
  0
ARC
  5
B64
330
A02
100
AcDbEntity
  8
Sketch
100
AcDbCircle
 10
58.700000000
 20
15.425000000
 30
0.000000000
 40
0.186666667
100
AcDbArc
 50
-90.000000000
 51
90.000000000
  0
LINE
  5
B65
330
A02
100
AcDbEntity
  8
Sketch
100
AcDbLine
 10
58.700000000
 20
15.238333333
 30
0.000000000
 11
58.700000000
 21
-16.800000000
 31
0.000000000
  0
LINE
  5
B66
330
A02
100
AcDbEntity
  8
Sketch
100
AcDbLine
 10
59.200000000
 20
-17.300000000
 30
0.000000000
 11
58.700000000
 21
-16.800000000
 31
0.000000000
  0
LINE
  5
B67
330
A02
100
AcDbEntity
  8
Sketch
100
AcDbLine
 10
73.225000000
 20
-17.300000000
 30
0.000000000
 11
59.200000000
 21
-17.300000000
 31
0.000000000
  0
LINE
  5
B68
330
A02
100
AcDbEntity
  8
Sketch
100
AcDbLine
 10
54.300000000
 20
-16.800000000
 30
0.000000000
 11
54.300000000
 21
57.800000000
 31
0.000000000
  0
LINE
  5
B69
330
A02
100
AcDbEntity
  8
Sketch
100
AcDbLine
 10
54.300000000
 20
57.800000000
 30
0.000000000
 11
53.800000000
 21
58.300000000
 31
0.000000000
  0
LINE
  5
B6A
330
A02
100
AcDbEntity
  8
Sketch
100
AcDbLine
 10
53.800000000
 20
58.300000000
 30
0.000000000
 11
41.025000000
 21
58.300000000
 31
0.000000000
  0
LINE
  5
B6B
330
A02
100
AcDbEntity
  8
Sketch
100
AcDbLine
 10
41.025000000
 20
58.300000000
 30
0.000000000
 11
40.525000000
 21
57.800000000
 31
0.000000000
  0
LINE
  5
B6C
330
A02
100
AcDbEntity
  8
Sketch
100
AcDbLine
 10
40.525000000
 20
55.708660423
 30
0.000000000
 11
40.525000000
 21
57.800000000
 31
0.000000000
  0
ARC
  5
B6D
330
A02
100
AcDbEntity
  8
Sketch
100
AcDbCircle
 10
40.424833333
 20
55.535166667
 30
0.000000000
 40
0.200333333
100
AcDbArc
 50
-150.000000000
 51
60.000000000
  0
LINE
  5
B6E
330
A02
100
AcDbEntity
  8
Sketch
100
AcDbLine
 10
30.848660423
 20
55.435000000
 30
0.000000000
 11
40.251339577
 21
55.435000000
 31
0.000000000
  0
ARC
  5
B6F
330
A02
100
AcDbEntity
  8
Sketch
100
AcDbCircle
 10
30.675166667
 20
55.535166667
 30
0.000000000
 40
0.200333333
100
AcDbArc
 50
120.000000000
 51
-30.000000000
  0
LINE
  5
B70
330
A02
100
AcDbEntity
  8
Sketch
100
AcDbLine
 10
30.575000000
 20
55.708660423
 30
0.000000000
 11
30.575000000
 21
57.800000000
 31
0.000000000
  0
LINE
  5
B71
330
A02
100
AcDbEntity
  8
Sketch
100
AcDbLine
 10
30.575000000
 20
57.800000000
 30
0.000000000
 11
30.075000000
 21
58.300000000
 31
0.000000000
  0
LINE
  5
B72
330
A02
100
AcDbEntity
  8
Sketch
100
AcDbLine
 10
30.075000000
 20
58.300000000
 30
0.000000000
 11
3.525000000
 21
58.300000000
 31
0.000000000
  0
LINE
  5
B73
330
A02
100
AcDbEntity
  8
Sketch
100
AcDbLine
 10
3.525000000
 20
58.300000000
 30
0.000000000
 11
3.025000000
 21
57.800000000
 31
0.000000000
  0
LINE
  5
B74
330
A02
100
AcDbEntity
  8
Sketch
100
AcDbLine
 10
3.025000000
 20
55.708660423
 30
0.000000000
 11
3.025000000
 21
57.800000000
 31
0.000000000
  0
ARC
  5
B75
330
A02
100
AcDbEntity
  8
Sketch
100
AcDbCircle
 10
2.924833333
 20
55.535166667
 30
0.000000000
 40
0.200333333
100
AcDbArc
 50
-150.000000000
 51
60.000000000
  0
LINE
  5
B76
330
A02
100
AcDbEntity
  8
Sketch
100
AcDbLine
 10
-6.651339577
 20
55.435000000
 30
0.000000000
 11
2.751339577
 21
55.435000000
 31
0.000000000
  0
ARC
  5
B77
330
A02
100
AcDbEntity
  8
Sketch
100
AcDbCircle
 10
-6.824833333
 20
55.535166667
 30
0.000000000
 40
0.200333333
100
AcDbArc
 50
120.000000000
 51
-30.000000000
  0
LINE
  5
B78
330
A02
100
AcDbEntity
  8
Sketch
100
AcDbLine
 10
-6.925000000
 20
55.708660423
 30
0.000000000
 11
-6.925000000
 21
57.800000000
 31
0.000000000
  0
LINE
  5
B79
330
A02
100
AcDbEntity
  8
Sketch
100
AcDbLine
 10
-6.925000000
 20
57.800000000
 30
0.000000000
 11
-7.425000000
 21
58.300000000
 31
0.000000000
  0
LINE
  5
B7A
330
A02
100
AcDbEntity
  8
Sketch
100
AcDbLine
 10
-7.425000000
 20
58.300000000
 30
0.000000000
 11
-20.200000000
 21
58.300000000
 31
0.000000000
  0
LINE
  5
B7B
330
A02
100
AcDbEntity
  8
Sketch
100
AcDbLine
 10
-20.200000000
 20
58.300000000
 30
0.000000000
 11
-20.700000000
 21
57.800000000
 31
0.000000000
  0
LINE
  5
B7C
330
A02
100
AcDbEntity
  8
Sketch
100
AcDbLine
 10
-20.700000000
 20
57.800000000
 30
0.000000000
 11
-20.700000000
 21
37.101666667
 31
0.000000000
  0
ARC
  5
B7D
330
A02
100
AcDbEntity
  8
Sketch
100
AcDbCircle
 10
-20.700000000
 20
36.915000000
 30
0.000000000
 40
0.186666667
100
AcDbArc
 50
-90.000000000
 51
90.000000000
  0
ARC
  5
B7E
330
A02
100
AcDbEntity
  8
Sketch
100
AcDbCircle
 10
-20.700000000
 20
36.915000000
 30
0.000000000
 40
0.186666667
100
AcDbArc
 50
180.000000000
 51
-90.000000000
  0
LINE
  5
B7F
330
A02
100
AcDbEntity
  8
Sketch
100
AcDbLine
 10
-20.886666667
 20
36.915000000
 30
0.000000000
 11
-23.000000000
 21
36.915000000
 31
0.000000000
  0
LINE
  5
B80
330
A02
100
AcDbEntity
  8
Sketch
100
AcDbLine
 10
-23.000000000
 20
36.915000000
 30
0.000000000
 11
-23.500000000
 21
36.415000000
 31
0.000000000
  0
LINE
  5
B81
330
A02
100
AcDbEntity
  8
Sketch
100
AcDbLine
 10
-23.500000000
 20
27.265000000
 30
0.000000000
 11
-23.500000000
 21
36.415000000
 31
0.000000000
  0
LINE
  5
B82
330
A02
100
AcDbEntity
  8
Sketch
100
AcDbLine
 10
-23.500000000
 20
27.265000000
 30
0.000000000
 11
-23.000000000
 21
26.765000000
 31
0.000000000
  0
LINE
  5
B83
330
A02
100
AcDbEntity
  8
Sketch
100
AcDbLine
 10
-20.886666667
 20
26.765000000
 30
0.000000000
 11
-23.000000000
 21
26.765000000
 31
0.000000000
  0
ARC
  5
B84
330
A02
100
AcDbEntity
  8
Sketch
100
AcDbCircle
 10
-20.700000000
 20
26.765000000
 30
0.000000000
 40
0.186666667
100
AcDbArc
 50
90.000000000
 51
180.000000000
  0
ARC
  5
B85
330
A02
100
AcDbEntity
  8
Sketch
100
AcDbCircle
 10
-20.700000000
 20
26.765000000
 30
0.000000000
 40
0.186666667
100
AcDbArc
 50
-90.000000000
 51
90.000000000
  0
LINE
  5
B86
330
A02
100
AcDbEntity
  8
Sketch
100
AcDbLine
 10
-20.700000000
 20
26.578333333
 30
0.000000000
 11
-20.700000000
 21
14.421666667
 31
0.000000000
  0
ARC
  5
B87
330
A02
100
AcDbEntity
  8
Sketch
100
AcDbCircle
 10
-20.700000000
 20
14.235000000
 30
0.000000000
 40
0.186666667
100
AcDbArc
 50
-90.000000000
 51
90.000000000
  0
ARC
  5
B88
330
A02
100
AcDbEntity
  8
Sketch
100
AcDbCircle
 10
-20.700000000
 20
14.235000000
 30
0.000000000
 40
0.186666667
100
AcDbArc
 50
180.000000000
 51
-90.000000000
  0
LINE
  5
B89
330
A02
100
AcDbEntity
  8
Sketch
100
AcDbLine
 10
-20.886666667
 20
14.235000000
 30
0.000000000
 11
-23.000000000
 21
14.235000000
 31
0.000000000
  0
LINE
  5
B8A
330
A02
100
AcDbEntity
  8
Sketch
100
AcDbLine
 10
-23.000000000
 20
14.235000000
 30
0.000000000
 11
-23.500000000
 21
13.735000000
 31
0.000000000
  0
LINE
  5
B8B
330
A02
100
AcDbEntity
  8
Sketch
100
AcDbLine
 10
-23.500000000
 20
4.585000000
 30
0.000000000
 11
-23.500000000
 21
13.735000000
 31
0.000000000
  0
LINE
  5
B8C
330
A02
100
AcDbEntity
  8
Sketch
100
AcDbLine
 10
-23.500000000
 20
4.585000000
 30
0.000000000
 11
-23.000000000
 21
4.085000000
 31
0.000000000
  0
LINE
  5
B8D
330
A02
100
AcDbEntity
  8
Sketch
100
AcDbLine
 10
-20.886666667
 20
4.085000000
 30
0.000000000
 11
-23.000000000
 21
4.085000000
 31
0.000000000
  0
ARC
  5
B8E
330
A02
100
AcDbEntity
  8
Sketch
100
AcDbCircle
 10
-20.700000000
 20
4.085000000
 30
0.000000000
 40
0.186666667
100
AcDbArc
 50
90.000000000
 51
180.000000000
  0
ARC
  5
B8F
330
A02
100
AcDbEntity
  8
Sketch
100
AcDbCircle
 10
-20.700000000
 20
4.085000000
 30
0.000000000
 40
0.186666667
100
AcDbArc
 50
-90.000000000
 51
90.000000000
  0
LINE
  5
B90
330
A02
100
AcDbEntity
  8
Sketch
100
AcDbLine
 10
-20.700000000
 20
3.898333333
 30
0.000000000
 11
-20.700000000
 21
-16.800000000
 31
0.000000000
  0
LINE
  5
B91
330
A02
100
AcDbEntity
  8
Sketch
100
AcDbLine
 10
-20.700000000
 20
-16.800000000
 30
0.000000000
 11
-20.200000000
 21
-17.300000000
 31
0.000000000
  0
LINE
  5
B92
330
A02
100
AcDbEntity
  8
Sketch
100
AcDbLine
 10
-20.200000000
 20
-17.300000000
 30
0.000000000
 11
-7.425000000
 21
-17.300000000
 31
0.000000000
  0
LINE
  5
B93
330
A02
100
AcDbEntity
  8
Sketch
100
AcDbLine
 10
-7.425000000
 20
-17.300000000
 30
0.000000000
 11
-6.925000000
 21
-16.800000000
 31
0.000000000
  0
LINE
  5
B94
330
A02
100
AcDbEntity
  8
Sketch
100
AcDbLine
 10
-6.925000000
 20
-16.800000000
 30
0.000000000
 11
-6.925000000
 21
-14.708660423
 31
0.000000000
  0
ARC
  5
B95
330
A02
100
AcDbEntity
  8
Sketch
100
AcDbCircle
 10
-6.824833333
 20
-14.535166667
 30
0.000000000
 40
0.200333333
100
AcDbArc
 50
90.000000000
 51
-120.000000000
  0
ARC
  5
B96
330
A02
100
AcDbEntity
  8
Sketch
100
AcDbCircle
 10
-6.824833333
 20
-14.535166667
 30
0.000000000
 40
0.200333333
100
AcDbArc
 50
30.000000000
 51
90.000000000
  0
LINE
  5
B97
330
A02
100
AcDbEntity
  8
Sketch
100
AcDbLine
 10
-6.651339577
 20
-14.435000000
 30
0.000000000
 11
2.751339577
 21
-14.435000000
 31
0.000000000
  0
ARC
  5
B98
330
A02
100
AcDbEntity
  8
Sketch
100
AcDbCircle
 10
2.924833333
 20
-14.535166667
 30
0.000000000
 40
0.200333333
100
AcDbArc
 50
90.000000000
 51
150.000000000
  0
ARC
  5
B99
330
A02
100
AcDbEntity
  8
Sketch
100
AcDbCircle
 10
2.924833333
 20
-14.535166667
 30
0.000000000
 40
0.200333333
100
AcDbArc
 50
-60.000000000
 51
90.000000000
  0
LINE
  5
B9A
330
A02
100
AcDbEntity
  8
Sketch
100
AcDbLine
 10
3.025000000
 20
-16.800000000
 30
0.000000000
 11
3.025000000
 21
-14.708660423
 31
0.000000000
  0
LINE
  5
B9B
330
A02
100
AcDbEntity
  8
Sketch
100
AcDbLine
 10
3.025000000
 20
-16.800000000
 30
0.000000000
 11
3.525000000
 21
-17.300000000
 31
0.000000000
  0
LINE
  5
B9C
330
A02
100
AcDbEntity
  8
Sketch
100
AcDbLine
 10
3.525000000
 20
-17.300000000
 30
0.000000000
 11
30.075000000
 21
-17.300000000
 31
0.000000000
  0
LINE
  5
B9D
330
A02
100
AcDbEntity
  8
Sketch
100
AcDbLine
 10
30.075000000
 20
-17.300000000
 30
0.000000000
 11
30.575000000
 21
-16.800000000
 31
0.000000000
  0
LINE
  5
B9E
330
A02
100
AcDbEntity
  8
Sketch
100
AcDbLine
 10
30.575000000
 20
-16.800000000
 30
0.000000000
 11
30.575000000
 21
-14.708660423
 31
0.000000000
  0
ARC
  5
B9F
330
A02
100
AcDbEntity
  8
Sketch
100
AcDbCircle
 10
30.675166667
 20
-14.535166667
 30
0.000000000
 40
0.200333333
100
AcDbArc
 50
90.000000000
 51
-120.000000000
  0
ARC
  5
BA0
330
A02
100
AcDbEntity
  8
Sketch
100
AcDbCircle
 10
30.675166667
 20
-14.535166667
 30
0.000000000
 40
0.200333333
100
AcDbArc
 50
30.000000000
 51
90.000000000
  0
LINE
  5
BA1
330
A02
100
AcDbEntity
  8
Sketch
100
AcDbLine
 10
30.848660423
 20
-14.435000000
 30
0.000000000
 11
40.251339577
 21
-14.435000000
 31
0.000000000
  0
ARC
  5
BA2
330
A02
100
AcDbEntity
  8
Sketch
100
AcDbCircle
 10
40.424833333
 20
-14.535166667
 30
0.000000000
 40
0.200333333
100
AcDbArc
 50
90.000000000
 51
150.000000000
  0
ARC
  5
BA3
330
A02
100
AcDbEntity
  8
Sketch
100
AcDbCircle
 10
40.424833333
 20
-14.535166667
 30
0.000000000
 40
0.200333333
100
AcDbArc
 50
-60.000000000
 51
90.000000000
  0
LINE
  5
BA4
330
A02
100
AcDbEntity
  8
Sketch
100
AcDbLine
 10
40.525000000
 20
-16.800000000
 30
0.000000000
 11
40.525000000
 21
-14.708660423
 31
0.000000000
  0
LINE
  5
BA5
330
A02
100
AcDbEntity
  8
Sketch
100
AcDbLine
 10
41.025000000
 20
-17.300000000
 30
0.000000000
 11
40.525000000
 21
-16.800000000
 31
0.000000000
  0
LINE
  5
BA6
330
A02
100
AcDbEntity
  8
Sketch
100
AcDbLine
 10
41.025000000
 20
-17.300000000
 30
0.000000000
 11
53.800000000
 21
-17.300000000
 31
0.000000000
  0
LINE
  5
BA7
330
A02
100
AcDbEntity
  8
Sketch
100
AcDbLine
 10
54.300000000
 20
-16.800000000
 30
0.000000000
 11
53.800000000
 21
-17.300000000
 31
0.000000000
  0
LINE
  5
BA8
330
A02
100
AcDbEntity
  8
Sketch
100
AcDbLine
 10
-75.694914522
 20
-115.500000000
 30
0.000000000
 11
-75.694914522
 21
-113.408660423
 31
0.000000000
  0
ARC
  5
BA9
330
A02
100
AcDbEntity
  8
Sketch
100
AcDbCircle
 10
-75.594747855
 20
-113.235166667
 30
0.000000000
 40
0.200333333
100
AcDbArc
 50
90.000000000
 51
-120.000000000
  0
ARC
  5
BAA
330
A02
100
AcDbEntity
  8
Sketch
100
AcDbCircle
 10
-75.594747855
 20
-113.235166667
 30
0.000000000
 40
0.200333333
100
AcDbArc
 50
30.000000000
 51
90.000000000
  0
LINE
  5
BAB
330
A02
100
AcDbEntity
  8
Sketch
100
AcDbLine
 10
-75.421254099
 20
-113.135000000
 30
0.000000000
 11
-66.018574944
 21
-113.135000000
 31
0.000000000
  0
ARC
  5
BAC
330
A02
100
AcDbEntity
  8
Sketch
100
AcDbCircle
 10
-65.845081188
 20
-113.235166667
 30
0.000000000
 40
0.200333333
100
AcDbArc
 50
90.000000000
 51
150.000000000
  0
ARC
  5
BAD
330
A02
100
AcDbEntity
  8
Sketch
100
AcDbCircle
 10
-65.845081188
 20
-113.235166667
 30
0.000000000
 40
0.200333333
100
AcDbArc
 50
-60.000000000
 51
90.000000000
  0
LINE
  5
BAE
330
A02
100
AcDbEntity
  8
Sketch
100
AcDbLine
 10
-65.744914522
 20
-115.500000000
 30
0.000000000
 11
-65.744914522
 21
-113.408660423
 31
0.000000000
  0
LINE
  5
BAF
330
A02
100
AcDbEntity
  8
Sketch
100
AcDbLine
 10
-65.244914522
 20
-116.000000000
 30
0.000000000
 11
-65.744914522
 21
-115.500000000
 31
0.000000000
  0
LINE
  5
BB0
330
A02
100
AcDbEntity
  8
Sketch
100
AcDbLine
 10
-65.244914522
 20
-116.000000000
 30
0.000000000
 11
-55.960000000
 21
-116.000000000
 31
0.000000000
  0
LINE
  5
BB1
330
A02
100
AcDbEntity
  8
Sketch
100
AcDbLine
 10
-55.460000000
 20
-115.500000000
 30
0.000000000
 11
-55.960000000
 21
-116.000000000
 31
0.000000000
  0
LINE
  5
BB2
330
A02
100
AcDbEntity
  8
Sketch
100
AcDbLine
 10
-55.460000000
 20
-115.500000000
 30
0.000000000
 11
-55.460000000
 21
-94.801666667
 31
0.000000000
  0
ARC
  5
BB3
330
A02
100
AcDbEntity
  8
Sketch
100
AcDbCircle
 10
-55.460000000
 20
-94.615000000
 30
0.000000000
 40
0.186666667
100
AcDbArc
 50
90.000000000
 51
-90.000000000
  0
ARC
  5
BB4
330
A02
100
AcDbEntity
  8
Sketch
100
AcDbCircle
 10
-55.460000000
 20
-94.615000000
 30
0.000000000
 40
0.186666667
100
AcDbArc
 50
0.000000000
 51
90.000000000
  0
LINE
  5
BB5
330
A02
100
AcDbEntity
  8
Sketch
100
AcDbLine
 10
-55.273333333
 20
-94.615000000
 30
0.000000000
 11
-53.160000000
 21
-94.615000000
 31
0.000000000
  0
LINE
  5
BB6
330
A02
100
AcDbEntity
  8
Sketch
100
AcDbLine
 10
-52.660000000
 20
-94.115000000
 30
0.000000000
 11
-53.160000000
 21
-94.615000000
 31
0.000000000
  0
LINE
  5
BB7
330
A02
100
AcDbEntity
  8
Sketch
100
AcDbLine
 10
-52.660000000
 20
-84.965000000
 30
0.000000000
 11
-52.660000000
 21
-94.115000000
 31
0.000000000
  0
LINE
  5
BB8
330
A02
100
AcDbEntity
  8
Sketch
100
AcDbLine
 10
-53.160000000
 20
-84.465000000
 30
0.000000000
 11
-52.660000000
 21
-84.965000000
 31
0.000000000
  0
LINE
  5
BB9
330
A02
100
AcDbEntity
  8
Sketch
100
AcDbLine
 10
-55.273333333
 20
-84.465000000
 30
0.000000000
 11
-53.160000000
 21
-84.465000000
 31
0.000000000
  0
ARC
  5
BBA
330
A02
100
AcDbEntity
  8
Sketch
100
AcDbCircle
 10
-55.460000000
 20
-84.465000000
 30
0.000000000
 40
0.186666667
100
AcDbArc
 50
-90.000000000
 51
0.000000000
  0
ARC
  5
BBB
330
A02
100
AcDbEntity
  8
Sketch
100
AcDbCircle
 10
-55.460000000
 20
-84.465000000
 30
0.000000000
 40
0.186666667
100
AcDbArc
 50
90.000000000
 51
-90.000000000
  0
LINE
  5
BBC
330
A02
100
AcDbEntity
  8
Sketch
100
AcDbLine
 10
-55.460000000
 20
-84.278333333
 30
0.000000000
 11
-55.460000000
 21
-72.121666667
 31
0.000000000
  0
ARC
  5
BBD
330
A02
100
AcDbEntity
  8
Sketch
100
AcDbCircle
 10
-55.460000000
 20
-71.935000000
 30
0.000000000
 40
0.186666667
100
AcDbArc
 50
90.000000000
 51
-90.000000000
  0
ARC
  5
BBE
330
A02
100
AcDbEntity
  8
Sketch
100
AcDbCircle
 10
-55.460000000
 20
-71.935000000
 30
0.000000000
 40
0.186666667
100
AcDbArc
 50
0.000000000
 51
90.000000000
  0
LINE
  5
BBF
330
A02
100
AcDbEntity
  8
Sketch
100
AcDbLine
 10
-55.273333333
 20
-71.935000000
 30
0.000000000
 11
-53.160000000
 21
-71.935000000
 31
0.000000000
  0
LINE
  5
BC0
330
A02
100
AcDbEntity
  8
Sketch
100
AcDbLine
 10
-52.660000000
 20
-71.435000000
 30
0.000000000
 11
-53.160000000
 21
-71.935000000
 31
0.000000000
  0
LINE
  5
BC1
330
A02
100
AcDbEntity
  8
Sketch
100
AcDbLine
 10
-52.660000000
 20
-62.285000000
 30
0.000000000
 11
-52.660000000
 21
-71.435000000
 31
0.000000000
  0
LINE
  5
BC2
330
A02
100
AcDbEntity
  8
Sketch
100
AcDbLine
 10
-53.160000000
 20
-61.785000000
 30
0.000000000
 11
-52.660000000
 21
-62.285000000
 31
0.000000000
  0
LINE
  5
BC3
330
A02
100
AcDbEntity
  8
Sketch
100
AcDbLine
 10
-55.273333333
 20
-61.785000000
 30
0.000000000
 11
-53.160000000
 21
-61.785000000
 31
0.000000000
  0
ARC
  5
BC4
330
A02
100
AcDbEntity
  8
Sketch
100
AcDbCircle
 10
-55.460000000
 20
-61.785000000
 30
0.000000000
 40
0.186666667
100
AcDbArc
 50
-90.000000000
 51
0.000000000
  0
ARC
  5
BC5
330
A02
100
AcDbEntity
  8
Sketch
100
AcDbCircle
 10
-55.460000000
 20
-61.785000000
 30
0.000000000
 40
0.186666667
100
AcDbArc
 50
90.000000000
 51
-90.000000000
  0
LINE
  5
BC6
330
A02
100
AcDbEntity
  8
Sketch
100
AcDbLine
 10
-55.460000000
 20
-61.598333333
 30
0.000000000
 11
-55.460000000
 21
-40.900000000
 31
0.000000000
  0
LINE
  5
BC7
330
A02
100
AcDbEntity
  8
Sketch
100
AcDbLine
 10
-55.960000000
 20
-40.400000000
 30
0.000000000
 11
-55.460000000
 21
-40.900000000
 31
0.000000000
  0
LINE
  5
BC8
330
A02
100
AcDbEntity
  8
Sketch
100
AcDbLine
 10
-55.960000000
 20
-40.400000000
 30
0.000000000
 11
-65.244914522
 21
-40.400000000
 31
0.000000000
  0
LINE
  5
BC9
330
A02
100
AcDbEntity
  8
Sketch
100
AcDbLine
 10
-65.744914522
 20
-40.900000000
 30
0.000000000
 11
-65.244914522
 21
-40.400000000
 31
0.000000000
  0
LINE
  5
BCA
330
A02
100
AcDbEntity
  8
Sketch
100
AcDbLine
 10
-65.744914522
 20
-42.991339577
 30
0.000000000
 11
-65.744914522
 21
-40.900000000
 31
0.000000000
  0
ARC
  5
BCB
330
A02
100
AcDbEntity
  8
Sketch
100
AcDbCircle
 10
-65.845081188
 20
-43.164833333
 30
0.000000000
 40
0.200333333
100
AcDbArc
 50
-150.000000000
 51
60.000000000
  0
LINE
  5
BCC
330
A02
100
AcDbEntity
  8
Sketch
100
AcDbLine
 10
-75.421254099
 20
-43.265000000
 30
0.000000000
 11
-66.018574944
 21
-43.265000000
 31
0.000000000
  0
ARC
  5
BCD
330
A02
100
AcDbEntity
  8
Sketch
100
AcDbCircle
 10
-75.594747855
 20
-43.164833333
 30
0.000000000
 40
0.200333333
100
AcDbArc
 50
120.000000000
 51
-30.000000000
  0
LINE
  5
BCE
330
A02
100
AcDbEntity
  8
Sketch
100
AcDbLine
 10
-75.694914522
 20
-42.991339577
 30
0.000000000
 11
-75.694914522
 21
-40.900000000
 31
0.000000000
  0
LINE
  5
BCF
330
A02
100
AcDbEntity
  8
Sketch
100
AcDbLine
 10
-76.194914522
 20
-40.400000000
 30
0.000000000
 11
-75.694914522
 21
-40.900000000
 31
0.000000000
  0
LINE
  5
BD0
330
A02
100
AcDbEntity
  8
Sketch
100
AcDbLine
 10
-76.194914522
 20
-40.400000000
 30
0.000000000
 11
-82.500131281
 21
-40.400000000
 31
0.000000000
  0
LINE
  5
BD1
330
A02
100
AcDbEntity
  8
Sketch
100
AcDbLine
 10
-83.000131281
 20
-40.900000000
 30
0.000000000
 11
-82.500131281
 21
-40.400000000
 31
0.000000000
  0
LINE
  5
BD2
330
A02
100
AcDbEntity
  8
Sketch
100
AcDbLine
 10
-83.000131281
 20
-40.900000000
 30
0.000000000
 11
-83.000131281
 21
-54.038333333
 31
0.000000000
  0
ARC
  5
BD3
330
A02
100
AcDbEntity
  8
Sketch
100
AcDbCircle
 10
-83.000131281
 20
-54.225000000
 30
0.000000000
 40
0.186666667
100
AcDbArc
 50
-90.000000000
 51
90.000000000
  0
ARC
  5
BD4
330
A02
100
AcDbEntity
  8
Sketch
100
AcDbCircle
 10
-83.000131281
 20
-54.225000000
 30
0.000000000
 40
0.186666667
100
AcDbArc
 50
180.000000000
 51
-90.000000000
  0
LINE
  5
BD5
330
A02
100
AcDbEntity
  8
Sketch
100
AcDbLine
 10
-83.186797947
 20
-54.225000000
 30
0.000000000
 11
-85.300131281
 21
-54.225000000
 31
0.000000000
  0
LINE
  5
BD6
330
A02
100
AcDbEntity
  8
Sketch
100
AcDbLine
 10
-85.800131281
 20
-54.725000000
 30
0.000000000
 11
-85.300131281
 21
-54.225000000
 31
0.000000000
  0
LINE
  5
BD7
330
A02
100
AcDbEntity
  8
Sketch
100
AcDbLine
 10
-85.800131281
 20
-63.875000000
 30
0.000000000
 11
-85.800131281
 21
-54.725000000
 31
0.000000000
  0
LINE
  5
BD8
330
A02
100
AcDbEntity
  8
Sketch
100
AcDbLine
 10
-85.300131281
 20
-64.375000000
 30
0.000000000
 11
-85.800131281
 21
-63.875000000
 31
0.000000000
  0
LINE
  5
BD9
330
A02
100
AcDbEntity
  8
Sketch
100
AcDbLine
 10
-83.186797947
 20
-64.375000000
 30
0.000000000
 11
-85.300131281
 21
-64.375000000
 31
0.000000000
  0
ARC
  5
BDA
330
A02
100
AcDbEntity
  8
Sketch
100
AcDbCircle
 10
-83.000131281
 20
-64.375000000
 30
0.000000000
 40
0.186666667
100
AcDbArc
 50
90.000000000
 51
180.000000000
  0
ARC
  5
BDB
330
A02
100
AcDbEntity
  8
Sketch
100
AcDbCircle
 10
-83.000131281
 20
-64.375000000
 30
0.000000000
 40
0.186666667
100
AcDbArc
 50
-90.000000000
 51
90.000000000
  0
LINE
  5
BDC
330
A02
100
AcDbEntity
  8
Sketch
100
AcDbLine
 10
-83.000131281
 20
-64.561666667
 30
0.000000000
 11
-83.000131281
 21
-91.838333333
 31
0.000000000
  0
ARC
  5
BDD
330
A02
100
AcDbEntity
  8
Sketch
100
AcDbCircle
 10
-83.000131281
 20
-92.025000000
 30
0.000000000
 40
0.186666667
100
AcDbArc
 50
-90.000000000
 51
90.000000000
  0
ARC
  5
BDE
330
A02
100
AcDbEntity
  8
Sketch
100
AcDbCircle
 10
-83.000131281
 20
-92.025000000
 30
0.000000000
 40
0.186666667
100
AcDbArc
 50
180.000000000
 51
-90.000000000
  0
LINE
  5
BDF
330
A02
100
AcDbEntity
  8
Sketch
100
AcDbLine
 10
-83.186797947
 20
-92.025000000
 30
0.000000000
 11
-85.300131281
 21
-92.025000000
 31
0.000000000
  0
LINE
  5
BE0
330
A02
100
AcDbEntity
  8
Sketch
100
AcDbLine
 10
-85.800131281
 20
-92.525000000
 30
0.000000000
 11
-85.300131281
 21
-92.025000000
 31
0.000000000
  0
LINE
  5
BE1
330
A02
100
AcDbEntity
  8
Sketch
100
AcDbLine
 10
-85.800131281
 20
-101.675000000
 30
0.000000000
 11
-85.800131281
 21
-92.525000000
 31
0.000000000
  0
LINE
  5
BE2
330
A02
100
AcDbEntity
  8
Sketch
100
AcDbLine
 10
-85.300131281
 20
-102.175000000
 30
0.000000000
 11
-85.800131281
 21
-101.675000000
 31
0.000000000
  0
LINE
  5
BE3
330
A02
100
AcDbEntity
  8
Sketch
100
AcDbLine
 10
-83.186797947
 20
-102.175000000
 30
0.000000000
 11
-85.300131281
 21
-102.175000000
 31
0.000000000
  0
ARC
  5
BE4
330
A02
100
AcDbEntity
  8
Sketch
100
AcDbCircle
 10
-83.000131281
 20
-102.175000000
 30
0.000000000
 40
0.186666667
100
AcDbArc
 50
90.000000000
 51
180.000000000
  0
ARC
  5
BE5
330
A02
100
AcDbEntity
  8
Sketch
100
AcDbCircle
 10
-83.000131281
 20
-102.175000000
 30
0.000000000
 40
0.186666667
100
AcDbArc
 50
-90.000000000
 51
90.000000000
  0
LINE
  5
BE6
330
A02
100
AcDbEntity
  8
Sketch
100
AcDbLine
 10
-83.000131281
 20
-102.361666667
 30
0.000000000
 11
-83.000131281
 21
-115.500000000
 31
0.000000000
  0
LINE
  5
BE7
330
A02
100
AcDbEntity
  8
Sketch
100
AcDbLine
 10
-82.500131281
 20
-116.000000000
 30
0.000000000
 11
-83.000131281
 21
-115.500000000
 31
0.000000000
  0
LINE
  5
BE8
330
A02
100
AcDbEntity
  8
Sketch
100
AcDbLine
 10
-82.500131281
 20
-116.000000000
 30
0.000000000
 11
-76.194914522
 21
-116.000000000
 31
0.000000000
  0
LINE
  5
BE9
330
A02
100
AcDbEntity
  8
Sketch
100
AcDbLine
 10
-75.694914522
 20
-115.500000000
 30
0.000000000
 11
-76.194914522
 21
-116.000000000
 31
0.000000000
  0
CIRCLE
  5
BEA
330
A02
100
AcDbEntity
  8
Sketch
100
AcDbCircle
 10
-72.193996316
 20
-78.214990000
 30
0.000000000
 40
7.500000000
  0
LINE
  5
BEB
330
A02
100
AcDbEntity
  8
Sketch
100
AcDbLine
 10
-65.169742735
 20
-58.635423634
 30
0.000000000
 11
-71.169683279
 21
-60.992330480
 31
0.000000000
  0
ARC
  5
BEC
330
A02
100
AcDbEntity
  8
Sketch
100
AcDbCircle
 10
-69.890000000
 20
-64.250000000
 30
0.000000000
 40
3.500000000
100
AcDbArc
 50
111.445977095
 51
-110.948764149
  0
LINE
  5
BED
330
A02
100
AcDbEntity
  8
Sketch
100
AcDbLine
 10
-71.141365384
 20
-67.518651813
 30
0.000000000
 11
-65.121197771
 21
-69.823403064
 31
0.000000000
  0
ARC
  5
BEE
330
A02
100
AcDbEntity
  8
Sketch
100
AcDbCircle
 10
-62.975999970
 20
-64.219999955
 30
0.000000000
 40
6.000000000
100
AcDbArc
 50
-110.948764149
 51
111.445977095
  0
CIRCLE
  5
BEF
330
A02
100
AcDbEntity
  8
Sketch
100
AcDbCircle
 10
-65.610000000
 20
-105.240000000
 30
0.000000000
 40
5.000000000
  0
CIRCLE
  5
BF0
330
A02
100
AcDbEntity
  8
Sketch
100
AcDbCircle
 10
-65.710000000
 20
-51.160000000
 30
0.000000000
 40
5.000000000
  0
CIRCLE
  5
BF1
330
A02
100
AcDbEntity
  8
Sketch
100
AcDbCircle
 10
-67.622000000
 20
-95.218000000
 30
0.000000000
 40
3.000000000
  0
ARC
  5
BF2
330
A02
100
AcDbEntity
  8
Sketch
100
AcDbCircle
 10
-65.610000000
 20
-89.630000000
 30
0.000000000
 40
1.500000000
100
AcDbArc
 50
-90.000000000
 51
90.000000000
  0
LINE
  5
BF3
330
A02
100
AcDbEntity
  8
Sketch
100
AcDbLine
 10
-65.610000000
 20
-88.130000000
 30
0.000000000
 11
-68.110000000
 21
-88.130000000
 31
0.000000000
  0
ARC
  5
BF4
330
A02
100
AcDbEntity
  8
Sketch
100
AcDbCircle
 10
-68.110000000
 20
-89.630000000
 30
0.000000000
 40
1.500000000
100
AcDbArc
 50
90.000000000
 51
-90.000000000
  0
LINE
  5
BF5
330
A02
100
AcDbEntity
  8
Sketch
100
AcDbLine
 10
-65.610000000
 20
-91.130000000
 30
0.000000000
 11
-68.110000000
 21
-91.130000000
 31
0.000000000
  0
LINE
  5
BF6
330
A02
100
AcDbEntity
  8
Sketch
100
AcDbLine
 10
-101.000000000
 20
-14.502185863
 30
0.000000000
 11
-101.000000000
 21
-0.378938169
 31
0.000000000
  0
LINE
  5
BF7
330
A02
100
AcDbEntity
  8
Sketch
100
AcDbLine
 10
-100.500000000
 20
0.121061831
 30
0.000000000
 11
-101.000000000
 21
-0.378938169
 31
0.000000000
  0
LINE
  5
BF8
330
A02
100
AcDbEntity
  8
Sketch
100
AcDbLine
 10
-100.500000000
 20
0.121061831
 30
0.000000000
 11
-25.900000000
 21
0.121061831
 31
0.000000000
  0
LINE
  5
BF9
330
A02
100
AcDbEntity
  8
Sketch
100
AcDbLine
 10
-25.900000000
 20
0.121061831
 30
0.000000000
 11
-25.400000000
 21
-0.378938169
 31
0.000000000
  0
LINE
  5
BFA
330
A02
100
AcDbEntity
  8
Sketch
100
AcDbLine
 10
-25.400000000
 20
-0.378938169
 30
0.000000000
 11
-25.400000000
 21
-14.502185863
 31
0.000000000
  0
LINE
  5
BFB
330
A02
100
AcDbEntity
  8
Sketch
100
AcDbLine
 10
-25.400000000
 20
-14.502185863
 30
0.000000000
 11
-25.900000000
 21
-15.002185863
 31
0.000000000
  0
LINE
  5
BFC
330
A02
100
AcDbEntity
  8
Sketch
100
AcDbLine
 10
-25.900000000
 20
-15.002185863
 30
0.000000000
 11
-39.038333333
 21
-15.002185863
 31
0.000000000
  0
ARC
  5
BFD
330
A02
100
AcDbEntity
  8
Sketch
100
AcDbCircle
 10
-39.225000000
 20
-15.002185863
 30
0.000000000
 40
0.186666667
100
AcDbArc
 50
-0.000000000
 51
-180.000000000
  0
ARC
  5
BFE
330
A02
100
AcDbEntity
  8
Sketch
100
AcDbCircle
 10
-39.225000000
 20
-15.002185863
 30
0.000000000
 40
0.186666667
100
AcDbArc
 50
-180.000000000
 51
-90.000000000
  0
LINE
  5
BFF
330
A02
100
AcDbEntity
  8
Sketch
100
AcDbLine
 10
-39.225000000
 20
-15.188852530
 30
0.000000000
 11
-39.225000000
 21
-17.302185863
 31
0.000000000
  0
LINE
  5
C00
330
A02
100
AcDbEntity
  8
Sketch
100
AcDbLine
 10
-39.225000000
 20
-17.302185863
 30
0.000000000
 11
-39.725000000
 21
-17.802185863
 31
0.000000000
  0
LINE
  5
C01
330
A02
100
AcDbEntity
  8
Sketch
100
AcDbLine
 10
-48.875000000
 20
-17.802185863
 30
0.000000000
 11
-39.725000000
 21
-17.802185863
 31
0.000000000
  0
LINE
  5
C02
330
A02
100
AcDbEntity
  8
Sketch
100
AcDbLine
 10
-49.375000000
 20
-17.302185863
 30
0.000000000
 11
-48.875000000
 21
-17.802185863
 31
0.000000000
  0
LINE
  5
C03
330
A02
100
AcDbEntity
  8
Sketch
100
AcDbLine
 10
-49.375000000
 20
-15.188852530
 30
0.000000000
 11
-49.375000000
 21
-17.302185863
 31
0.000000000
  0
ARC
  5
C04
330
A02
100
AcDbEntity
  8
Sketch
100
AcDbCircle
 10
-49.375000000
 20
-15.002185863
 30
0.000000000
 40
0.186666667
100
AcDbArc
 50
-90.000000000
 51
-0.000000000
  0
ARC
  5
C05
330
A02
100
AcDbEntity
  8
Sketch
100
AcDbCircle
 10
-49.375000000
 20
-15.002185863
 30
0.000000000
 40
0.186666667
100
AcDbArc
 50
-0.000000000
 51
-180.000000000
  0
LINE
  5
C06
330
A02
100
AcDbEntity
  8
Sketch
100
AcDbLine
 10
-49.561666667
 20
-15.002185863
 30
0.000000000
 11
-76.838333333
 21
-15.002185863
 31
0.000000000
  0
ARC
  5
C07
330
A02
100
AcDbEntity
  8
Sketch
100
AcDbCircle
 10
-77.025000000
 20
-15.002185863
 30
0.000000000
 40
0.186666667
100
AcDbArc
 50
-0.000000000
 51
-180.000000000
  0
ARC
  5
C08
330
A02
100
AcDbEntity
  8
Sketch
100
AcDbCircle
 10
-77.025000000
 20
-15.002185863
 30
0.000000000
 40
0.186666667
100
AcDbArc
 50
-180.000000000
 51
-90.000000000
  0
LINE
  5
C09
330
A02
100
AcDbEntity
  8
Sketch
100
AcDbLine
 10
-77.025000000
 20
-15.188852530
 30
0.000000000
 11
-77.025000000
 21
-17.302185863
 31
0.000000000
  0
LINE
  5
C0A
330
A02
100
AcDbEntity
  8
Sketch
100
AcDbLine
 10
-77.525000000
 20
-17.802185863
 30
0.000000000
 11
-77.025000000
 21
-17.302185863
 31
0.000000000
  0
LINE
  5
C0B
330
A02
100
AcDbEntity
  8
Sketch
100
AcDbLine
 10
-86.675000000
 20
-17.802185863
 30
0.000000000
 11
-77.525000000
 21
-17.802185863
 31
0.000000000
  0
LINE
  5
C0C
330
A02
100
AcDbEntity
  8
Sketch
100
AcDbLine
 10
-87.175000000
 20
-17.302185863
 30
0.000000000
 11
-86.675000000
 21
-17.802185863
 31
0.000000000
  0
LINE
  5
C0D
330
A02
100
AcDbEntity
  8
Sketch
100
AcDbLine
 10
-87.175000000
 20
-15.188852530
 30
0.000000000
 11
-87.175000000
 21
-17.302185863
 31
0.000000000
  0
ARC
  5
C0E
330
A02
100
AcDbEntity
  8
Sketch
100
AcDbCircle
 10
-87.175000000
 20
-15.002185863
 30
0.000000000
 40
0.186666667
100
AcDbArc
 50
-90.000000000
 51
-0.000000000
  0
ARC
  5
C0F
330
A02
100
AcDbEntity
  8
Sketch
100
AcDbCircle
 10
-87.175000000
 20
-15.002185863
 30
0.000000000
 40
0.186666667
100
AcDbArc
 50
-0.000000000
 51
-180.000000000
  0
LINE
  5
C10
330
A02
100
AcDbEntity
  8
Sketch
100
AcDbLine
 10
-87.361666667
 20
-15.002185863
 30
0.000000000
 11
-100.500000000
 21
-15.002185863
 31
0.000000000
  0
LINE
  5
C11
330
A02
100
AcDbEntity
  8
Sketch
100
AcDbLine
 10
-101.000000000
 20
-14.502185863
 30
0.000000000
 11
-100.500000000
 21
-15.002185863
 31
0.000000000
  0
ARC
  5
C12
330
A02
100
AcDbEntity
  8
Sketch
100
AcDbCircle
 10
48.315166667
 20
-73.325166667
 30
0.000000000
 40
0.200333333
100
AcDbArc
 50
30.000000000
 51
180.000000000
  0
LINE
  5
C13
330
A02
100
AcDbEntity
  8
Sketch
100
AcDbLine
 10
50.580000000
 20
-73.225000000
 30
0.000000000
 11
48.488660423
 21
-73.225000000
 31
0.000000000
  0
LINE
  5
C14
330
A02
100
AcDbEntity
  8
Sketch
100
AcDbLine
 10
50.580000000
 20
-73.225000000
 30
0.000000000
 11
51.080000000
 21
-72.725000000
 31
0.000000000
  0
LINE
  5
C15
330
A02
100
AcDbEntity
  8
Sketch
100
AcDbLine
 10
51.080000000
 20
-52.716762614
 30
0.000000000
 11
51.080000000
 21
-72.725000000
 31
0.000000000
  0
ARC
  5
C16
330
A02
100
AcDbEntity
  8
Sketch
100
AcDbCircle
 10
51.480000000
 20
-52.716762614
 30
0.000000000
 40
0.400000000
100
AcDbArc
 50
165.000000000
 51
180.000000000
  0
LINE
  5
C17
330
A02
100
AcDbEntity
  8
Sketch
100
AcDbLine
 10
53.080000000
 20
-45.200000000
 30
0.000000000
 11
51.093629669
 21
-52.613234996
 31
0.000000000
  0
LINE
  5
C18
330
A02
100
AcDbEntity
  8
Sketch
100
AcDbLine
 10
51.080000000
 20
-45.200000000
 30
0.000000000
 11
53.080000000
 21
-45.200000000
 31
0.000000000
  0
LINE
  5
C19
330
A02
100
AcDbEntity
  8
Sketch
100
AcDbLine
 10
51.080000000
 20
-42.400000000
 30
0.000000000
 11
51.080000000
 21
-45.200000000
 31
0.000000000
  0
LINE
  5
C1A
330
A02
100
AcDbEntity
  8
Sketch
100
AcDbLine
 10
52.080000000
 20
-42.400000000
 30
0.000000000
 11
51.080000000
 21
-42.400000000
 31
0.000000000
  0
LINE
  5
C1B
330
A02
100
AcDbEntity
  8
Sketch
100
AcDbLine
 10
51.190557281
 20
-40.621114562
 30
0.000000000
 11
52.080000000
 21
-42.400000000
 31
0.000000000
  0
ARC
  5
C1C
330
A02
100
AcDbEntity
  8
Sketch
100
AcDbCircle
 10
50.832786405
 20
-40.800000000
 30
0.000000000
 40
0.400000000
100
AcDbArc
 50
26.565051177
 51
90.000000000
  0
LINE
  5
C1D
330
A02
100
AcDbEntity
  8
Sketch
100
AcDbLine
 10
50.832786405
 20
-40.400000000
 30
0.000000000
 11
48.680000000
 21
-40.400000000
 31
0.000000000
  0
ARC
  5
C1E
330
A02
100
AcDbEntity
  8
Sketch
100
AcDbCircle
 10
48.680000000
 20
-40.800000000
 30
0.000000000
 40
0.400000000
100
AcDbArc
 50
90.000000000
 51
180.000000000
  0
LINE
  5
C1F
330
A02
100
AcDbEntity
  8
Sketch
100
AcDbLine
 10
48.280000000
 20
-40.800000000
 30
0.000000000
 11
48.280000000
 21
-54.400000000
 31
0.000000000
  0
ARC
  5
C20
330
A02
100
AcDbEntity
  8
Sketch
100
AcDbCircle
 10
47.880000000
 20
-54.400000000
 30
0.000000000
 40
0.400000000
100
AcDbArc
 50
180.000000000
 51
0.000000000
  0
LINE
  5
C21
330
A02
100
AcDbEntity
  8
Sketch
100
AcDbLine
 10
47.480000000
 20
-54.400000000
 30
0.000000000
 11
47.480000000
 21
-40.800000000
 31
0.000000000
  0
ARC
  5
C22
330
A02
100
AcDbEntity
  8
Sketch
100
AcDbCircle
 10
47.080000000
 20
-40.800000000
 30
0.000000000
 40
0.400000000
100
AcDbArc
 50
0.000000000
 51
90.000000000
  0
LINE
  5
C23
330
A02
100
AcDbEntity
  8
Sketch
100
AcDbLine
 10
47.080000000
 20
-40.400000000
 30
0.000000000
 11
30.005000000
 21
-40.400000000
 31
0.000000000
  0
LINE
  5
C24
330
A02
100
AcDbEntity
  8
Sketch
100
AcDbLine
 10
30.005000000
 20
-40.400000000
 30
0.000000000
 11
29.505000000
 21
-40.900000000
 31
0.000000000
  0
LINE
  5
C25
330
A02
100
AcDbEntity
  8
Sketch
100
AcDbLine
 10
29.505000000
 20
-40.900000000
 30
0.000000000
 11
29.505000000
 21
-42.991339577
 31
0.000000000
  0
ARC
  5
C26
330
A02
100
AcDbEntity
  8
Sketch
100
AcDbCircle
 10
29.404833333
 20
-43.164833333
 30
0.000000000
 40
0.200333333
100
AcDbArc
 50
-90.000000000
 51
60.000000000
  0
ARC
  5
C27
330
A02
100
AcDbEntity
  8
Sketch
100
AcDbCircle
 10
29.404833333
 20
-43.164833333
 30
0.000000000
 40
0.200333333
100
AcDbArc
 50
-150.000000000
 51
-90.000000000
  0
LINE
  5
C28
330
A02
100
AcDbEntity
  8
Sketch
100
AcDbLine
 10
19.828660423
 20
-43.265000000
 30
0.000000000
 11
29.231339577
 21
-43.265000000
 31
0.000000000
  0
ARC
  5
C29
330
A02
100
AcDbEntity
  8
Sketch
100
AcDbCircle
 10
19.655166667
 20
-43.164833333
 30
0.000000000
 40
0.200333333
100
AcDbArc
 50
-90.000000000
 51
-30.000000000
  0
ARC
  5
C2A
330
A02
100
AcDbEntity
  8
Sketch
100
AcDbCircle
 10
19.655166667
 20
-43.164833333
 30
0.000000000
 40
0.200333333
100
AcDbArc
 50
120.000000000
 51
-90.000000000
  0
LINE
  5
C2B
330
A02
100
AcDbEntity
  8
Sketch
100
AcDbLine
 10
19.555000000
 20
-40.900000000
 30
0.000000000
 11
19.555000000
 21
-42.991339577
 31
0.000000000
  0
LINE
  5
C2C
330
A02
100
AcDbEntity
  8
Sketch
100
AcDbLine
 10
19.555000000
 20
-40.900000000
 30
0.000000000
 11
19.055000000
 21
-40.400000000
 31
0.000000000
  0
LINE
  5
C2D
330
A02
100
AcDbEntity
  8
Sketch
100
AcDbLine
 10
19.055000000
 20
-40.400000000
 30
0.000000000
 11
-17.495000000
 21
-40.400000000
 31
0.000000000
  0
LINE
  5
C2E
330
A02
100
AcDbEntity
  8
Sketch
100
AcDbLine
 10
-17.495000000
 20
-40.400000000
 30
0.000000000
 11
-17.995000000
 21
-40.900000000
 31
0.000000000
  0
LINE
  5
C2F
330
A02
100
AcDbEntity
  8
Sketch
100
AcDbLine
 10
-17.995000000
 20
-40.900000000
 30
0.000000000
 11
-17.995000000
 21
-42.991339577
 31
0.000000000
  0
ARC
  5
C30
330
A02
100
AcDbEntity
  8
Sketch
100
AcDbCircle
 10
-18.095166667
 20
-43.164833333
 30
0.000000000
 40
0.200333333
100
AcDbArc
 50
-90.000000000
 51
60.000000000
  0
ARC
  5
C31
330
A02
100
AcDbEntity
  8
Sketch
100
AcDbCircle
 10
-18.095166667
 20
-43.164833333
 30
0.000000000
 40
0.200333333
100
AcDbArc
 50
-150.000000000
 51
-90.000000000
  0
LINE
  5
C32
330
A02
100
AcDbEntity
  8
Sketch
100
AcDbLine
 10
-27.671339577
 20
-43.265000000
 30
0.000000000
 11
-18.268660423
 21
-43.265000000
 31
0.000000000
  0
ARC
  5
C33
330
A02
100
AcDbEntity
  8
Sketch
100
AcDbCircle
 10
-27.844833333
 20
-43.164833333
 30
0.000000000
 40
0.200333333
100
AcDbArc
 50
-90.000000000
 51
-30.000000000
  0
ARC
  5
C34
330
A02
100
AcDbEntity
  8
Sketch
100
AcDbCircle
 10
-27.844833333
 20
-43.164833333
 30
0.000000000
 40
0.200333333
100
AcDbArc
 50
120.000000000
 51
-90.000000000
  0
LINE
  5
C35
330
A02
100
AcDbEntity
  8
Sketch
100
AcDbLine
 10
-27.945000000
 20
-40.900000000
 30
0.000000000
 11
-27.945000000
 21
-42.991339577
 31
0.000000000
  0
LINE
  5
C36
330
A02
100
AcDbEntity
  8
Sketch
100
AcDbLine
 10
-27.945000000
 20
-40.900000000
 30
0.000000000
 11
-28.445000000
 21
-40.400000000
 31
0.000000000
  0
LINE
  5
C37
330
A02
100
AcDbEntity
  8
Sketch
100
AcDbLine
 10
-28.445000000
 20
-40.400000000
 30
0.000000000
 11
-45.520000000
 21
-40.400000000
 31
0.000000000
  0
ARC
  5
C38
330
A02
100
AcDbEntity
  8
Sketch
100
AcDbCircle
 10
-45.520000000
 20
-40.800000000
 30
0.000000000
 40
0.400000000
100
AcDbArc
 50
90.000000000
 51
180.000000000
  0
LINE
  5
C39
330
A02
100
AcDbEntity
  8
Sketch
100
AcDbLine
 10
-45.920000000
 20
-40.800000000
 30
0.000000000
 11
-45.920000000
 21
-54.400000000
 31
0.000000000
  0
ARC
  5
C3A
330
A02
100
AcDbEntity
  8
Sketch
100
AcDbCircle
 10
-46.320000000
 20
-54.400000000
 30
0.000000000
 40
0.400000000
100
AcDbArc
 50
180.000000000
 51
0.000000000
  0
LINE
  5
C3B
330
A02
100
AcDbEntity
  8
Sketch
100
AcDbLine
 10
-46.720000000
 20
-54.400000000
 30
0.000000000
 11
-46.720000000
 21
-40.800000000
 31
0.000000000
  0
ARC
  5
C3C
330
A02
100
AcDbEntity
  8
Sketch
100
AcDbCircle
 10
-47.120000000
 20
-40.800000000
 30
0.000000000
 40
0.400000000
100
AcDbArc
 50
-0.000000000
 51
90.000000000
  0
LINE
  5
C3D
330
A02
100
AcDbEntity
  8
Sketch
100
AcDbLine
 10
-47.120000000
 20
-40.400000000
 30
0.000000000
 11
-49.272786405
 21
-40.400000000
 31
0.000000000
  0
ARC
  5
C3E
330
A02
100
AcDbEntity
  8
Sketch
100
AcDbCircle
 10
-49.272786405
 20
-40.800000000
 30
0.000000000
 40
0.400000000
100
AcDbArc
 50
90.000000000
 51
153.434948823
  0
LINE
  5
C3F
330
A02
100
AcDbEntity
  8
Sketch
100
AcDbLine
 10
-49.630557281
 20
-40.621114562
 30
0.000000000
 11
-50.520000000
 21
-42.400000000
 31
0.000000000
  0
LINE
  5
C40
330
A02
100
AcDbEntity
  8
Sketch
100
AcDbLine
 10
-50.520000000
 20
-42.400000000
 30
0.000000000
 11
-49.520000000
 21
-42.400000000
 31
0.000000000
  0
LINE
  5
C41
330
A02
100
AcDbEntity
  8
Sketch
100
AcDbLine
 10
-49.520000000
 20
-42.400000000
 30
0.000000000
 11
-49.520000000
 21
-45.200000000
 31
0.000000000
  0
LINE
  5
C42
330
A02
100
AcDbEntity
  8
Sketch
100
AcDbLine
 10
-51.520000000
 20
-45.200000000
 30
0.000000000
 11
-49.520000000
 21
-45.200000000
 31
0.000000000
  0
LINE
  5
C43
330
A02
100
AcDbEntity
  8
Sketch
100
AcDbLine
 10
-49.533629669
 20
-52.613234996
 30
0.000000000
 11
-51.520000000
 21
-45.200000000
 31
0.000000000
  0
ARC
  5
C44
330
A02
100
AcDbEntity
  8
Sketch
100
AcDbCircle
 10
-49.920000000
 20
-52.716762614
 30
0.000000000
 40
0.400000000
100
AcDbArc
 50
0.000000000
 51
15.000000000
  0
LINE
  5
C45
330
A02
100
AcDbEntity
  8
Sketch
100
AcDbLine
 10
-49.520000000
 20
-103.683237386
 30
0.000000000
 11
-49.520000000
 21
-52.716762614
 31
0.000000000
  0
ARC
  5
C46
330
A02
100
AcDbEntity
  8
Sketch
100
AcDbCircle
 10
-49.920000000
 20
-103.683237386
 30
0.000000000
 40
0.400000000
100
AcDbArc
 50
-15.000000000
 51
0.000000000
  0
LINE
  5
C47
330
A02
100
AcDbEntity
  8
Sketch
100
AcDbLine
 10
-51.520000000
 20
-111.200000000
 30
0.000000000
 11
-49.533629669
 21
-103.786765004
 31
0.000000000
  0
LINE
  5
C48
330
A02
100
AcDbEntity
  8
Sketch
100
AcDbLine
 10
-49.520000000
 20
-111.200000000
 30
0.000000000
 11
-51.520000000
 21
-111.200000000
 31
0.000000000
  0
LINE
  5
C49
330
A02
100
AcDbEntity
  8
Sketch
100
AcDbLine
 10
-49.520000000
 20
-114.000000000
 30
0.000000000
 11
-49.520000000
 21
-111.200000000
 31
0.000000000
  0
LINE
  5
C4A
330
A02
100
AcDbEntity
  8
Sketch
100
AcDbLine
 10
-50.520000000
 20
-114.000000000
 30
0.000000000
 11
-49.520000000
 21
-114.000000000
 31
0.000000000
  0
LINE
  5
C4B
330
A02
100
AcDbEntity
  8
Sketch
100
AcDbLine
 10
-49.630557281
 20
-115.778885438
 30
0.000000000
 11
-50.520000000
 21
-114.000000000
 31
0.000000000
  0
ARC
  5
C4C
330
A02
100
AcDbEntity
  8
Sketch
100
AcDbCircle
 10
-49.272786405
 20
-115.600000000
 30
0.000000000
 40
0.400000000
100
AcDbArc
 50
-153.434948823
 51
-90.000000000
  0
LINE
  5
C4D
330
A02
100
AcDbEntity
  8
Sketch
100
AcDbLine
 10
-49.272786405
 20
-116.000000000
 30
0.000000000
 11
-47.120000000
 21
-116.000000000
 31
0.000000000
  0
ARC
  5
C4E
330
A02
100
AcDbEntity
  8
Sketch
100
AcDbCircle
 10
-47.120000000
 20
-115.600000000
 30
0.000000000
 40
0.400000000
100
AcDbArc
 50
-90.000000000
 51
0.000000000
  0
LINE
  5
C4F
330
A02
100
AcDbEntity
  8
Sketch
100
AcDbLine
 10
-46.720000000
 20
-115.600000000
 30
0.000000000
 11
-46.720000000
 21
-102.000000000
 31
0.000000000
  0
ARC
  5
C50
330
A02
100
AcDbEntity
  8
Sketch
100
AcDbCircle
 10
-46.320000000
 20
-102.000000000
 30
0.000000000
 40
0.400000000
100
AcDbArc
 50
0.000000000
 51
180.000000000
  0
LINE
  5
C51
330
A02
100
AcDbEntity
  8
Sketch
100
AcDbLine
 10
-45.920000000
 20
-102.000000000
 30
0.000000000
 11
-45.920000000
 21
-115.600000000
 31
0.000000000
  0
ARC
  5
C52
330
A02
100
AcDbEntity
  8
Sketch
100
AcDbCircle
 10
-45.520000000
 20
-115.600000000
 30
0.000000000
 40
0.400000000
100
AcDbArc
 50
180.000000000
 51
-90.000000000
  0
LINE
  5
C53
330
A02
100
AcDbEntity
  8
Sketch
100
AcDbLine
 10
-45.520000000
 20
-116.000000000
 30
0.000000000
 11
-28.445000000
 21
-116.000000000
 31
0.000000000
  0
LINE
  5
C54
330
A02
100
AcDbEntity
  8
Sketch
100
AcDbLine
 10
-28.445000000
 20
-116.000000000
 30
0.000000000
 11
-27.945000000
 21
-115.500000000
 31
0.000000000
  0
LINE
  5
C55
330
A02
100
AcDbEntity
  8
Sketch
100
AcDbLine
 10
-27.945000000
 20
-113.408660423
 30
0.000000000
 11
-27.945000000
 21
-115.500000000
 31
0.000000000
  0
ARC
  5
C56
330
A02
100
AcDbEntity
  8
Sketch
100
AcDbCircle
 10
-27.844833333
 20
-113.235166667
 30
0.000000000
 40
0.200333333
100
AcDbArc
 50
30.000000000
 51
-120.000000000
  0
LINE
  5
C57
330
A02
100
AcDbEntity
  8
Sketch
100
AcDbLine
 10
-27.671339577
 20
-113.135000000
 30
0.000000000
 11
-18.268660423
 21
-113.135000000
 31
0.000000000
  0
ARC
  5
C58
330
A02
100
AcDbEntity
  8
Sketch
100
AcDbCircle
 10
-18.095166667
 20
-113.235166667
 30
0.000000000
 40
0.200333333
100
AcDbArc
 50
-60.000000000
 51
150.000000000
  0
LINE
  5
C59
330
A02
100
AcDbEntity
  8
Sketch
100
AcDbLine
 10
-17.995000000
 20
-113.408660423
 30
0.000000000
 11
-17.995000000
 21
-115.500000000
 31
0.000000000
  0
LINE
  5
C5A
330
A02
100
AcDbEntity
  8
Sketch
100
AcDbLine
 10
-17.995000000
 20
-115.500000000
 30
0.000000000
 11
-17.495000000
 21
-116.000000000
 31
0.000000000
  0
LINE
  5
C5B
330
A02
100
AcDbEntity
  8
Sketch
100
AcDbLine
 10
-17.495000000
 20
-116.000000000
 30
0.000000000
 11
19.055000000
 21
-116.000000000
 31
0.000000000
  0
LINE
  5
C5C
330
A02
100
AcDbEntity
  8
Sketch
100
AcDbLine
 10
19.055000000
 20
-116.000000000
 30
0.000000000
 11
19.555000000
 21
-115.500000000
 31
0.000000000
  0
LINE
  5
C5D
330
A02
100
AcDbEntity
  8
Sketch
100
AcDbLine
 10
19.555000000
 20
-113.408660423
 30
0.000000000
 11
19.555000000
 21
-115.500000000
 31
0.000000000
  0
ARC
  5
C5E
330
A02
100
AcDbEntity
  8
Sketch
100
AcDbCircle
 10
19.655166667
 20
-113.235166667
 30
0.000000000
 40
0.200333333
100
AcDbArc
 50
30.000000000
 51
-120.000000000
  0
LINE
  5
C5F
330
A02
100
AcDbEntity
  8
Sketch
100
AcDbLine
 10
19.828660423
 20
-113.135000000
 30
0.000000000
 11
29.231339577
 21
-113.135000000
 31
0.000000000
  0
ARC
  5
C60
330
A02
100
AcDbEntity
  8
Sketch
100
AcDbCircle
 10
29.404833333
 20
-113.235166667
 30
0.000000000
 40
0.200333333
100
AcDbArc
 50
-60.000000000
 51
150.000000000
  0
LINE
  5
C61
330
A02
100
AcDbEntity
  8
Sketch
100
AcDbLine
 10
29.505000000
 20
-113.408660423
 30
0.000000000
 11
29.505000000
 21
-115.500000000
 31
0.000000000
  0
LINE
  5
C62
330
A02
100
AcDbEntity
  8
Sketch
100
AcDbLine
 10
29.505000000
 20
-115.500000000
 30
0.000000000
 11
30.005000000
 21
-116.000000000
 31
0.000000000
  0
LINE
  5
C63
330
A02
100
AcDbEntity
  8
Sketch
100
AcDbLine
 10
30.005000000
 20
-116.000000000
 30
0.000000000
 11
47.080000000
 21
-116.000000000
 31
0.000000000
  0
ARC
  5
C64
330
A02
100
AcDbEntity
  8
Sketch
100
AcDbCircle
 10
47.080000000
 20
-115.600000000
 30
0.000000000
 40
0.400000000
100
AcDbArc
 50
-90.000000000
 51
-0.000000000
  0
LINE
  5
C65
330
A02
100
AcDbEntity
  8
Sketch
100
AcDbLine
 10
47.480000000
 20
-102.000000000
 30
0.000000000
 11
47.480000000
 21
-115.600000000
 31
0.000000000
  0
ARC
  5
C66
330
A02
100
AcDbEntity
  8
Sketch
100
AcDbCircle
 10
47.880000000
 20
-102.000000000
 30
0.000000000
 40
0.400000000
100
AcDbArc
 50
0.000000000
 51
180.000000000
  0
LINE
  5
C67
330
A02
100
AcDbEntity
  8
Sketch
100
AcDbLine
 10
48.280000000
 20
-115.600000000
 30
0.000000000
 11
48.280000000
 21
-102.000000000
 31
0.000000000
  0
ARC
  5
C68
330
A02
100
AcDbEntity
  8
Sketch
100
AcDbCircle
 10
48.680000000
 20
-115.600000000
 30
0.000000000
 40
0.400000000
100
AcDbArc
 50
180.000000000
 51
-90.000000000
  0
LINE
  5
C69
330
A02
100
AcDbEntity
  8
Sketch
100
AcDbLine
 10
48.680000000
 20
-116.000000000
 30
0.000000000
 11
50.832786405
 21
-116.000000000
 31
0.000000000
  0
ARC
  5
C6A
330
A02
100
AcDbEntity
  8
Sketch
100
AcDbCircle
 10
50.832786405
 20
-115.600000000
 30
0.000000000
 40
0.400000000
100
AcDbArc
 50
-90.000000000
 51
-26.565051177
  0
LINE
  5
C6B
330
A02
100
AcDbEntity
  8
Sketch
100
AcDbLine
 10
51.190557281
 20
-115.778885438
 30
0.000000000
 11
52.080000000
 21
-114.000000000
 31
0.000000000
  0
LINE
  5
C6C
330
A02
100
AcDbEntity
  8
Sketch
100
AcDbLine
 10
52.080000000
 20
-114.000000000
 30
0.000000000
 11
51.080000000
 21
-114.000000000
 31
0.000000000
  0
LINE
  5
C6D
330
A02
100
AcDbEntity
  8
Sketch
100
AcDbLine
 10
51.080000000
 20
-114.000000000
 30
0.000000000
 11
51.080000000
 21
-111.200000000
 31
0.000000000
  0
LINE
  5
C6E
330
A02
100
AcDbEntity
  8
Sketch
100
AcDbLine
 10
53.080000000
 20
-111.200000000
 30
0.000000000
 11
51.080000000
 21
-111.200000000
 31
0.000000000
  0
LINE
  5
C6F
330
A02
100
AcDbEntity
  8
Sketch
100
AcDbLine
 10
51.093629669
 20
-103.786765004
 30
0.000000000
 11
53.080000000
 21
-111.200000000
 31
0.000000000
  0
ARC
  5
C70
330
A02
100
AcDbEntity
  8
Sketch
100
AcDbCircle
 10
51.480000000
 20
-103.683237386
 30
0.000000000
 40
0.400000000
100
AcDbArc
 50
180.000000000
 51
-165.000000000
  0
LINE
  5
C71
330
A02
100
AcDbEntity
  8
Sketch
100
AcDbLine
 10
51.080000000
 20
-83.675000000
 30
0.000000000
 11
51.080000000
 21
-103.683237386
 31
0.000000000
  0
LINE
  5
C72
330
A02
100
AcDbEntity
  8
Sketch
100
AcDbLine
 10
51.080000000
 20
-83.675000000
 30
0.000000000
 11
50.580000000
 21
-83.175000000
 31
0.000000000
  0
LINE
  5
C73
330
A02
100
AcDbEntity
  8
Sketch
100
AcDbLine
 10
50.580000000
 20
-83.175000000
 30
0.000000000
 11
48.488660423
 21
-83.175000000
 31
0.000000000
  0
ARC
  5
C74
330
A02
100
AcDbEntity
  8
Sketch
100
AcDbCircle
 10
48.315166667
 20
-83.074833333
 30
0.000000000
 40
0.200333333
100
AcDbArc
 50
180.000000000
 51
-30.000000000
  0
ARC
  5
C75
330
A02
100
AcDbEntity
  8
Sketch
100
AcDbCircle
 10
48.315166667
 20
-83.074833333
 30
0.000000000
 40
0.200333333
100
AcDbArc
 50
120.000000000
 51
180.000000000
  0
LINE
  5
C76
330
A02
100
AcDbEntity
  8
Sketch
100
AcDbLine
 10
48.215000000
 20
-73.498660423
 30
0.000000000
 11
48.215000000
 21
-82.901339577
 31
0.000000000
  0
ARC
  5
C77
330
A02
100
AcDbEntity
  8
Sketch
100
AcDbCircle
 10
48.315166667
 20
-73.325166667
 30
0.000000000
 40
0.200333333
100
AcDbArc
 50
180.000000000
 51
-120.000000000
  0
ARC
  5
C78
330
A02
100
AcDbEntity
  8
Sketch
100
AcDbCircle
 10
-30.120000000
 20
-61.810000000
 30
0.000000000
 40
0.800000000
100
AcDbArc
 50
-72.393976876
 51
108.718409075
  0
ARC
  5
C79
330
A02
100
AcDbEntity
  8
Sketch
100
AcDbCircle
 10
-38.120000000
 20
-38.200000000
 30
0.000000000
 40
24.128539869
100
AcDbArc
 50
-108.718409075
 51
-71.281590925
  0
ARC
  5
C7A
330
A02
100
AcDbEntity
  8
Sketch
100
AcDbCircle
 10
-46.120000000
 20
-61.810000000
 30
0.000000000
 40
0.800000000
100
AcDbArc
 50
71.281590925
 51
-107.606023124
  0
ARC
  5
C7B
330
A02
100
AcDbEntity
  8
Sketch
100
AcDbCircle
 10
-38.120000000
 20
-36.600000000
 30
0.000000000
 40
27.248896007
100
AcDbArc
 50
-107.606023124
 51
-72.393976876
  0
ARC
  5
C7C
330
A02
100
AcDbEntity
  8
Sketch
100
AcDbCircle
 10
-44.810000000
 20
-89.590000000
 30
0.000000000
 40
2.110000000
100
AcDbArc
 50
180.000000000
 51
-75.360002224
  0
ARC
  5
C7D
330
A02
100
AcDbEntity
  8
Sketch
100
AcDbCircle
 10
-38.120000000
 20
-115.200000000
 30
0.000000000
 40
24.359382312
100
AcDbArc
 50
75.360002224
 51
104.639997776
  0
ARC
  5
C7E
330
A02
100
AcDbEntity
  8
Sketch
100
AcDbCircle
 10
-31.430000000
 20
-89.590000000
 30
0.000000000
 40
2.110000000
100
AcDbArc
 50
-104.639997776
 51
0.000000000
  0
LINE
  5
C7F
330
A02
100
AcDbEntity
  8
Sketch
100
AcDbLine
 10
-29.320000000
 20
-66.810000000
 30
0.000000000
 11
-29.320000000
 21
-89.590000000
 31
0.000000000
  0
ARC
  5
C80
330
A02
100
AcDbEntity
  8
Sketch
100
AcDbCircle
 10
-31.430000000
 20
-66.810000000
 30
0.000000000
 40
2.110000000
100
AcDbArc
 50
0.000000000
 51
104.639997776
  0
ARC
  5
C81
330
A02
100
AcDbEntity
  8
Sketch
100
AcDbCircle
 10
-38.120000000
 20
-41.200000000
 30
0.000000000
 40
24.359382312
100
AcDbArc
 50
-104.640029115
 51
-75.360002224
  0
ARC
  5
C82
330
A02
100
AcDbEntity
  8
Sketch
100
AcDbCircle
 10
-44.810000000
 20
-66.810000000
 30
0.000000000
 40
2.110000000
100
AcDbArc
 50
75.360364027
 51
180.000000000
  0
LINE
  5
C83
330
A02
100
AcDbEntity
  8
Sketch
100
AcDbLine
 10
-46.920000000
 20
-89.590000000
 30
0.000000000
 11
-46.920000000
 21
-66.810000000
 31
0.000000000
  0
ARC
  5
C84
330
A02
100
AcDbEntity
  8
Sketch
100
AcDbCircle
 10
-30.120000000
 20
-94.590000000
 30
0.000000000
 40
0.800000000
100
AcDbArc
 50
-108.718409075
 51
72.393976876
  0
ARC
  5
C85
330
A02
100
AcDbEntity
  8
Sketch
100
AcDbCircle
 10
-38.120000000
 20
-119.800000000
 30
0.000000000
 40
27.248896007
100
AcDbArc
 50
72.393976876
 51
107.606023124
  0
ARC
  5
C86
330
A02
100
AcDbEntity
  8
Sketch
100
AcDbCircle
 10
-46.120000000
 20
-94.590000000
 30
0.000000000
 40
0.800000000
100
AcDbArc
 50
107.606023124
 51
-71.281590925
  0
ARC
  5
C87
330
A02
100
AcDbEntity
  8
Sketch
100
AcDbCircle
 10
-38.120000000
 20
-118.200000000
 30
0.000000000
 40
24.128539869
100
AcDbArc
 50
71.281590925
 51
108.718409075
  0
ARC
  5
C88
330
A02
100
AcDbEntity
  8
Sketch
100
AcDbCircle
 10
94.635166667
 20
-61.785166667
 30
0.000000000
 40
0.200333333
100
AcDbArc
 50
30.000000000
 51
180.000000000
  0
LINE
  5
C89
330
A02
100
AcDbEntity
  8
Sketch
100
AcDbLine
 10
96.900000000
 20
-61.685000000
 30
0.000000000
 11
94.808660423
 21
-61.685000000
 31
0.000000000
  0
LINE
  5
C8A
330
A02
100
AcDbEntity
  8
Sketch
100
AcDbLine
 10
97.400000000
 20
-61.185000000
 30
0.000000000
 11
96.900000000
 21
-61.685000000
 31
0.000000000
  0
LINE
  5
C8B
330
A02
100
AcDbEntity
  8
Sketch
100
AcDbLine
 10
97.400000000
 20
-61.185000000
 30
0.000000000
 11
97.400000000
 21
-52.516762614
 31
0.000000000
  0
ARC
  5
C8C
330
A02
100
AcDbEntity
  8
Sketch
100
AcDbCircle
 10
97.800000000
 20
-52.516762614
 30
0.000000000
 40
0.400000000
100
AcDbArc
 50
165.000000000
 51
180.000000000
  0
LINE
  5
C8D
330
A02
100
AcDbEntity
  8
Sketch
100
AcDbLine
 10
97.413629669
 20
-52.413234996
 30
0.000000000
 11
99.400000000
 21
-45.000000000
 31
0.000000000
  0
LINE
  5
C8E
330
A02
100
AcDbEntity
  8
Sketch
100
AcDbLine
 10
99.400000000
 20
-45.000000000
 30
0.000000000
 11
97.400000000
 21
-45.000000000
 31
0.000000000
  0
LINE
  5
C8F
330
A02
100
AcDbEntity
  8
Sketch
100
AcDbLine
 10
97.400000000
 20
-45.000000000
 30
0.000000000
 11
97.400000000
 21
-42.200000000
 31
0.000000000
  0
LINE
  5
C90
330
A02
100
AcDbEntity
  8
Sketch
100
AcDbLine
 10
98.400000000
 20
-42.200000000
 30
0.000000000
 11
97.400000000
 21
-42.200000000
 31
0.000000000
  0
LINE
  5
C91
330
A02
100
AcDbEntity
  8
Sketch
100
AcDbLine
 10
97.510557281
 20
-40.421114562
 30
0.000000000
 11
98.400000000
 21
-42.200000000
 31
0.000000000
  0
ARC
  5
C92
330
A02
100
AcDbEntity
  8
Sketch
100
AcDbCircle
 10
97.152786405
 20
-40.600000000
 30
0.000000000
 40
0.400000000
100
AcDbArc
 50
26.565051177
 51
90.000000000
  0
LINE
  5
C93
330
A02
100
AcDbEntity
  8
Sketch
100
AcDbLine
 10
97.152786405
 20
-40.200000000
 30
0.000000000
 11
95.000000000
 21
-40.200000000
 31
0.000000000
  0
ARC
  5
C94
330
A02
100
AcDbEntity
  8
Sketch
100
AcDbCircle
 10
95.000000000
 20
-40.600000000
 30
0.000000000
 40
0.400000000
100
AcDbArc
 50
90.000000000
 51
180.000000000
  0
LINE
  5
C95
330
A02
100
AcDbEntity
  8
Sketch
100
AcDbLine
 10
94.600000000
 20
-40.600000000
 30
0.000000000
 11
94.600000000
 21
-54.200000000
 31
0.000000000
  0
ARC
  5
C96
330
A02
100
AcDbEntity
  8
Sketch
100
AcDbCircle
 10
94.200000000
 20
-54.200000000
 30
0.000000000
 40
0.400000000
100
AcDbArc
 50
180.000000000
 51
0.000000000
  0
LINE
  5
C97
330
A02
100
AcDbEntity
  8
Sketch
100
AcDbLine
 10
93.800000000
 20
-54.200000000
 30
0.000000000
 11
93.800000000
 21
-40.600000000
 31
0.000000000
  0
ARC
  5
C98
330
A02
100
AcDbEntity
  8
Sketch
100
AcDbCircle
 10
93.400000000
 20
-40.600000000
 30
0.000000000
 40
0.400000000
100
AcDbArc
 50
0.000000000
 51
90.000000000
  0
LINE
  5
C99
330
A02
100
AcDbEntity
  8
Sketch
100
AcDbLine
 10
93.400000000
 20
-40.200000000
 30
0.000000000
 11
82.575000000
 21
-40.200000000
 31
0.000000000
  0
LINE
  5
C9A
330
A02
100
AcDbEntity
  8
Sketch
100
AcDbLine
 10
82.075000000
 20
-40.700000000
 30
0.000000000
 11
82.575000000
 21
-40.200000000
 31
0.000000000
  0
LINE
  5
C9B
330
A02
100
AcDbEntity
  8
Sketch
100
AcDbLine
 10
82.075000000
 20
-40.700000000
 30
0.000000000
 11
82.075000000
 21
-42.791339577
 31
0.000000000
  0
ARC
  5
C9C
330
A02
100
AcDbEntity
  8
Sketch
100
AcDbCircle
 10
81.974833333
 20
-42.964833333
 30
0.000000000
 40
0.200333333
100
AcDbArc
 50
-90.000000000
 51
60.000000000
  0
ARC
  5
C9D
330
A02
100
AcDbEntity
  8
Sketch
100
AcDbCircle
 10
81.974833333
 20
-42.964833333
 30
0.000000000
 40
0.200333333
100
AcDbArc
 50
-150.000000000
 51
-90.000000000
  0
LINE
  5
C9E
330
A02
100
AcDbEntity
  8
Sketch
100
AcDbLine
 10
72.398660423
 20
-43.065000000
 30
0.000000000
 11
81.801339577
 21
-43.065000000
 31
0.000000000
  0
ARC
  5
C9F
330
A02
100
AcDbEntity
  8
Sketch
100
AcDbCircle
 10
72.225166667
 20
-42.964833333
 30
0.000000000
 40
0.200333333
100
AcDbArc
 50
-90.000000000
 51
-30.000000000
  0
ARC
  5
CA0
330
A02
100
AcDbEntity
  8
Sketch
100
AcDbCircle
 10
72.225166667
 20
-42.964833333
 30
0.000000000
 40
0.200333333
100
AcDbArc
 50
120.000000000
 51
-90.000000000
  0
LINE
  5
CA1
330
A02
100
AcDbEntity
  8
Sketch
100
AcDbLine
 10
72.125000000
 20
-40.700000000
 30
0.000000000
 11
72.125000000
 21
-42.791339577
 31
0.000000000
  0
LINE
  5
CA2
330
A02
100
AcDbEntity
  8
Sketch
100
AcDbLine
 10
71.625000000
 20
-40.200000000
 30
0.000000000
 11
72.125000000
 21
-40.700000000
 31
0.000000000
  0
LINE
  5
CA3
330
A02
100
AcDbEntity
  8
Sketch
100
AcDbLine
 10
71.625000000
 20
-40.200000000
 30
0.000000000
 11
60.800000000
 21
-40.200000000
 31
0.000000000
  0
ARC
  5
CA4
330
A02
100
AcDbEntity
  8
Sketch
100
AcDbCircle
 10
60.800000000
 20
-40.600000000
 30
0.000000000
 40
0.400000000
100
AcDbArc
 50
90.000000000
 51
180.000000000
  0
LINE
  5
CA5
330
A02
100
AcDbEntity
  8
Sketch
100
AcDbLine
 10
60.400000000
 20
-40.600000000
 30
0.000000000
 11
60.400000000
 21
-54.200000000
 31
0.000000000
  0
ARC
  5
CA6
330
A02
100
AcDbEntity
  8
Sketch
100
AcDbCircle
 10
60.000000000
 20
-54.200000000
 30
0.000000000
 40
0.400000000
100
AcDbArc
 50
180.000000000
 51
0.000000000
  0
LINE
  5
CA7
330
A02
100
AcDbEntity
  8
Sketch
100
AcDbLine
 10
59.600000000
 20
-54.200000000
 30
0.000000000
 11
59.600000000
 21
-40.600000000
 31
0.000000000
  0
ARC
  5
CA8
330
A02
100
AcDbEntity
  8
Sketch
100
AcDbCircle
 10
59.200000000
 20
-40.600000000
 30
0.000000000
 40
0.400000000
100
AcDbArc
 50
0.000000000
 51
90.000000000
  0
LINE
  5
CA9
330
A02
100
AcDbEntity
  8
Sketch
100
AcDbLine
 10
59.200000000
 20
-40.200000000
 30
0.000000000
 11
57.047213595
 21
-40.200000000
 31
0.000000000
  0
ARC
  5
CAA
330
A02
100
AcDbEntity
  8
Sketch
100
AcDbCircle
 10
57.047213595
 20
-40.600000000
 30
0.000000000
 40
0.400000000
100
AcDbArc
 50
90.000000000
 51
153.434948823
  0
LINE
  5
CAB
330
A02
100
AcDbEntity
  8
Sketch
100
AcDbLine
 10
56.689442719
 20
-40.421114562
 30
0.000000000
 11
55.800000000
 21
-42.200000000
 31
0.000000000
  0
LINE
  5
CAC
330
A02
100
AcDbEntity
  8
Sketch
100
AcDbLine
 10
55.800000000
 20
-42.200000000
 30
0.000000000
 11
56.800000000
 21
-42.200000000
 31
0.000000000
  0
LINE
  5
CAD
330
A02
100
AcDbEntity
  8
Sketch
100
AcDbLine
 10
56.800000000
 20
-42.200000000
 30
0.000000000
 11
56.800000000
 21
-45.000000000
 31
0.000000000
  0
LINE
  5
CAE
330
A02
100
AcDbEntity
  8
Sketch
100
AcDbLine
 10
56.800000000
 20
-45.000000000
 30
0.000000000
 11
54.800000000
 21
-45.000000000
 31
0.000000000
  0
LINE
  5
CAF
330
A02
100
AcDbEntity
  8
Sketch
100
AcDbLine
 10
54.800000000
 20
-45.000000000
 30
0.000000000
 11
56.786370331
 21
-52.413234996
 31
0.000000000
  0
ARC
  5
CB0
330
A02
100
AcDbEntity
  8
Sketch
100
AcDbCircle
 10
56.400000000
 20
-52.516762614
 30
0.000000000
 40
0.400000000
100
AcDbArc
 50
0.000000000
 51
15.000000000
  0
LINE
  5
CB1
330
A02
100
AcDbEntity
  8
Sketch
100
AcDbLine
 10
56.800000000
 20
-52.516762614
 30
0.000000000
 11
56.800000000
 21
-61.185000000
 31
0.000000000
  0
LINE
  5
CB2
330
A02
100
AcDbEntity
  8
Sketch
100
AcDbLine
 10
57.300000000
 20
-61.685000000
 30
0.000000000
 11
56.800000000
 21
-61.185000000
 31
0.000000000
  0
LINE
  5
CB3
330
A02
100
AcDbEntity
  8
Sketch
100
AcDbLine
 10
57.300000000
 20
-61.685000000
 30
0.000000000
 11
59.391339577
 21
-61.685000000
 31
0.000000000
  0
ARC
  5
CB4
330
A02
100
AcDbEntity
  8
Sketch
100
AcDbCircle
 10
59.564833333
 20
-61.785166667
 30
0.000000000
 40
0.200333333
100
AcDbArc
 50
0.000000000
 51
150.000000000
  0
ARC
  5
CB5
330
A02
100
AcDbEntity
  8
Sketch
100
AcDbCircle
 10
59.564833333
 20
-61.785166667
 30
0.000000000
 40
0.200333333
100
AcDbArc
 50
-60.000000000
 51
0.000000000
  0
LINE
  5
CB6
330
A02
100
AcDbEntity
  8
Sketch
100
AcDbLine
 10
59.665000000
 20
-71.361339577
 30
0.000000000
 11
59.665000000
 21
-61.958660423
 31
0.000000000
  0
ARC
  5
CB7
330
A02
100
AcDbEntity
  8
Sketch
100
AcDbCircle
 10
59.564833333
 20
-71.534833333
 30
0.000000000
 40
0.200333333
100
AcDbArc
 50
0.000000000
 51
60.000000000
  0
ARC
  5
CB8
330
A02
100
AcDbEntity
  8
Sketch
100
AcDbCircle
 10
59.564833333
 20
-71.534833333
 30
0.000000000
 40
0.200333333
100
AcDbArc
 50
-150.000000000
 51
0.000000000
  0
LINE
  5
CB9
330
A02
100
AcDbEntity
  8
Sketch
100
AcDbLine
 10
57.300000000
 20
-71.635000000
 30
0.000000000
 11
59.391339577
 21
-71.635000000
 31
0.000000000
  0
LINE
  5
CBA
330
A02
100
AcDbEntity
  8
Sketch
100
AcDbLine
 10
56.800000000
 20
-72.135000000
 30
0.000000000
 11
57.300000000
 21
-71.635000000
 31
0.000000000
  0
LINE
  5
CBB
330
A02
100
AcDbEntity
  8
Sketch
100
AcDbLine
 10
56.800000000
 20
-72.135000000
 30
0.000000000
 11
56.800000000
 21
-83.865000000
 31
0.000000000
  0
LINE
  5
CBC
330
A02
100
AcDbEntity
  8
Sketch
100
AcDbLine
 10
57.300000000
 20
-84.365000000
 30
0.000000000
 11
56.800000000
 21
-83.865000000
 31
0.000000000
  0
LINE
  5
CBD
330
A02
100
AcDbEntity
  8
Sketch
100
AcDbLine
 10
57.300000000
 20
-84.365000000
 30
0.000000000
 11
59.391339577
 21
-84.365000000
 31
0.000000000
  0
ARC
  5
CBE
330
A02
100
AcDbEntity
  8
Sketch
100
AcDbCircle
 10
59.564833333
 20
-84.465166667
 30
0.000000000
 40
0.200333333
100
AcDbArc
 50
0.000000000
 51
150.000000000
  0
ARC
  5
CBF
330
A02
100
AcDbEntity
  8
Sketch
100
AcDbCircle
 10
59.564833333
 20
-84.465166667
 30
0.000000000
 40
0.200333333
100
AcDbArc
 50
-60.000000000
 51
0.000000000
  0
LINE
  5
CC0
330
A02
100
AcDbEntity
  8
Sketch
100
AcDbLine
 10
59.665000000
 20
-94.041339577
 30
0.000000000
 11
59.665000000
 21
-84.638660423
 31
0.000000000
  0
ARC
  5
CC1
330
A02
100
AcDbEntity
  8
Sketch
100
AcDbCircle
 10
59.564833333
 20
-94.214833333
 30
0.000000000
 40
0.200333333
100
AcDbArc
 50
0.000000000
 51
60.000000000
  0
ARC
  5
CC2
330
A02
100
AcDbEntity
  8
Sketch
100
AcDbCircle
 10
59.564833333
 20
-94.214833333
 30
0.000000000
 40
0.200333333
100
AcDbArc
 50
-150.000000000
 51
0.000000000
  0
LINE
  5
CC3
330
A02
100
AcDbEntity
  8
Sketch
100
AcDbLine
 10
57.300000000
 20
-94.315000000
 30
0.000000000
 11
59.391339577
 21
-94.315000000
 31
0.000000000
  0
LINE
  5
CC4
330
A02
100
AcDbEntity
  8
Sketch
100
AcDbLine
 10
56.800000000
 20
-94.815000000
 30
0.000000000
 11
57.300000000
 21
-94.315000000
 31
0.000000000
  0
LINE
  5
CC5
330
A02
100
AcDbEntity
  8
Sketch
100
AcDbLine
 10
56.800000000
 20
-94.815000000
 30
0.000000000
 11
56.800000000
 21
-103.483237386
 31
0.000000000
  0
ARC
  5
CC6
330
A02
100
AcDbEntity
  8
Sketch
100
AcDbCircle
 10
56.400000000
 20
-103.483237386
 30
0.000000000
 40
0.400000000
100
AcDbArc
 50
-15.000000000
 51
0.000000000
  0
LINE
  5
CC7
330
A02
100
AcDbEntity
  8
Sketch
100
AcDbLine
 10
56.786370331
 20
-103.586765004
 30
0.000000000
 11
54.800000000
 21
-111.000000000
 31
0.000000000
  0
LINE
  5
CC8
330
A02
100
AcDbEntity
  8
Sketch
100
AcDbLine
 10
54.800000000
 20
-111.000000000
 30
0.000000000
 11
56.800000000
 21
-111.000000000
 31
0.000000000
  0
LINE
  5
CC9
330
A02
100
AcDbEntity
  8
Sketch
100
AcDbLine
 10
56.800000000
 20
-111.000000000
 30
0.000000000
 11
56.800000000
 21
-113.800000000
 31
0.000000000
  0
LINE
  5
CCA
330
A02
100
AcDbEntity
  8
Sketch
100
AcDbLine
 10
56.800000000
 20
-113.800000000
 30
0.000000000
 11
55.800000000
 21
-113.800000000
 31
0.000000000
  0
LINE
  5
CCB
330
A02
100
AcDbEntity
  8
Sketch
100
AcDbLine
 10
56.689442719
 20
-115.578885438
 30
0.000000000
 11
55.800000000
 21
-113.800000000
 31
0.000000000
  0
ARC
  5
CCC
330
A02
100
AcDbEntity
  8
Sketch
100
AcDbCircle
 10
57.047213595
 20
-115.400000000
 30
0.000000000
 40
0.400000000
100
AcDbArc
 50
-153.434948823
 51
-90.000000000
  0
LINE
  5
CCD
330
A02
100
AcDbEntity
  8
Sketch
100
AcDbLine
 10
57.047213595
 20
-115.800000000
 30
0.000000000
 11
59.200000000
 21
-115.800000000
 31
0.000000000
  0
ARC
  5
CCE
330
A02
100
AcDbEntity
  8
Sketch
100
AcDbCircle
 10
59.200000000
 20
-115.400000000
 30
0.000000000
 40
0.400000000
100
AcDbArc
 50
-90.000000000
 51
0.000000000
  0
LINE
  5
CCF
330
A02
100
AcDbEntity
  8
Sketch
100
AcDbLine
 10
59.600000000
 20
-115.400000000
 30
0.000000000
 11
59.600000000
 21
-101.800000000
 31
0.000000000
  0
ARC
  5
CD0
330
A02
100
AcDbEntity
  8
Sketch
100
AcDbCircle
 10
60.000000000
 20
-101.800000000
 30
0.000000000
 40
0.400000000
100
AcDbArc
 50
0.000000000
 51
180.000000000
  0
LINE
  5
CD1
330
A02
100
AcDbEntity
  8
Sketch
100
AcDbLine
 10
60.400000000
 20
-101.800000000
 30
0.000000000
 11
60.400000000
 21
-115.400000000
 31
0.000000000
  0
ARC
  5
CD2
330
A02
100
AcDbEntity
  8
Sketch
100
AcDbCircle
 10
60.800000000
 20
-115.400000000
 30
0.000000000
 40
0.400000000
100
AcDbArc
 50
180.000000000
 51
-90.000000000
  0
LINE
  5
CD3
330
A02
100
AcDbEntity
  8
Sketch
100
AcDbLine
 10
60.800000000
 20
-115.800000000
 30
0.000000000
 11
71.625000000
 21
-115.800000000
 31
0.000000000
  0
LINE
  5
CD4
330
A02
100
AcDbEntity
  8
Sketch
100
AcDbLine
 10
72.125000000
 20
-115.300000000
 30
0.000000000
 11
71.625000000
 21
-115.800000000
 31
0.000000000
  0
LINE
  5
CD5
330
A02
100
AcDbEntity
  8
Sketch
100
AcDbLine
 10
72.125000000
 20
-113.208660423
 30
0.000000000
 11
72.125000000
 21
-115.300000000
 31
0.000000000
  0
ARC
  5
CD6
330
A02
100
AcDbEntity
  8
Sketch
100
AcDbCircle
 10
72.225166667
 20
-113.035166667
 30
0.000000000
 40
0.200333333
100
AcDbArc
 50
30.000000000
 51
-120.000000000
  0
LINE
  5
CD7
330
A02
100
AcDbEntity
  8
Sketch
100
AcDbLine
 10
72.398660423
 20
-112.935000000
 30
0.000000000
 11
81.801339577
 21
-112.935000000
 31
0.000000000
  0
ARC
  5
CD8
330
A02
100
AcDbEntity
  8
Sketch
100
AcDbCircle
 10
81.974833333
 20
-113.035166667
 30
0.000000000
 40
0.200333333
100
AcDbArc
 50
-60.000000000
 51
150.000000000
  0
LINE
  5
CD9
330
A02
100
AcDbEntity
  8
Sketch
100
AcDbLine
 10
82.075000000
 20
-113.208660423
 30
0.000000000
 11
82.075000000
 21
-115.300000000
 31
0.000000000
  0
LINE
  5
CDA
330
A02
100
AcDbEntity
  8
Sketch
100
AcDbLine
 10
82.575000000
 20
-115.800000000
 30
0.000000000
 11
82.075000000
 21
-115.300000000
 31
0.000000000
  0
LINE
  5
CDB
330
A02
100
AcDbEntity
  8
Sketch
100
AcDbLine
 10
82.575000000
 20
-115.800000000
 30
0.000000000
 11
93.400000000
 21
-115.800000000
 31
0.000000000
  0
ARC
  5
CDC
330
A02
100
AcDbEntity
  8
Sketch
100
AcDbCircle
 10
93.400000000
 20
-115.400000000
 30
0.000000000
 40
0.400000000
100
AcDbArc
 50
-90.000000000
 51
0.000000000
  0
LINE
  5
CDD
330
A02
100
AcDbEntity
  8
Sketch
100
AcDbLine
 10
93.800000000
 20
-115.400000000
 30
0.000000000
 11
93.800000000
 21
-101.800000000
 31
0.000000000
  0
ARC
  5
CDE
330
A02
100
AcDbEntity
  8
Sketch
100
AcDbCircle
 10
94.200000000
 20
-101.800000000
 30
0.000000000
 40
0.400000000
100
AcDbArc
 50
0.000000000
 51
180.000000000
  0
LINE
  5
CDF
330
A02
100
AcDbEntity
  8
Sketch
100
AcDbLine
 10
94.600000000
 20
-101.800000000
 30
0.000000000
 11
94.600000000
 21
-115.400000000
 31
0.000000000
  0
ARC
  5
CE0
330
A02
100
AcDbEntity
  8
Sketch
100
AcDbCircle
 10
95.000000000
 20
-115.400000000
 30
0.000000000
 40
0.400000000
100
AcDbArc
 50
180.000000000
 51
-90.000000000
  0
LINE
  5
CE1
330
A02
100
AcDbEntity
  8
Sketch
100
AcDbLine
 10
95.000000000
 20
-115.800000000
 30
0.000000000
 11
97.152786405
 21
-115.800000000
 31
0.000000000
  0
ARC
  5
CE2
330
A02
100
AcDbEntity
  8
Sketch
100
AcDbCircle
 10
97.152786405
 20
-115.400000000
 30
0.000000000
 40
0.400000000
100
AcDbArc
 50
-90.000000000
 51
-26.565051177
  0
LINE
  5
CE3
330
A02
100
AcDbEntity
  8
Sketch
100
AcDbLine
 10
97.510557281
 20
-115.578885438
 30
0.000000000
 11
98.400000000
 21
-113.800000000
 31
0.000000000
  0
LINE
  5
CE4
330
A02
100
AcDbEntity
  8
Sketch
100
AcDbLine
 10
98.400000000
 20
-113.800000000
 30
0.000000000
 11
97.400000000
 21
-113.800000000
 31
0.000000000
  0
LINE
  5
CE5
330
A02
100
AcDbEntity
  8
Sketch
100
AcDbLine
 10
97.400000000
 20
-113.800000000
 30
0.000000000
 11
97.400000000
 21
-111.000000000
 31
0.000000000
  0
LINE
  5
CE6
330
A02
100
AcDbEntity
  8
Sketch
100
AcDbLine
 10
97.400000000
 20
-111.000000000
 30
0.000000000
 11
99.400000000
 21
-111.000000000
 31
0.000000000
  0
LINE
  5
CE7
330
A02
100
AcDbEntity
  8
Sketch
100
AcDbLine
 10
99.400000000
 20
-111.000000000
 30
0.000000000
 11
97.413629669
 21
-103.586765004
 31
0.000000000
  0
ARC
  5
CE8
330
A02
100
AcDbEntity
  8
Sketch
100
AcDbCircle
 10
97.800000000
 20
-103.483237386
 30
0.000000000
 40
0.400000000
100
AcDbArc
 50
180.000000000
 51
-165.000000000
  0
LINE
  5
CE9
330
A02
100
AcDbEntity
  8
Sketch
100
AcDbLine
 10
97.400000000
 20
-103.483237386
 30
0.000000000
 11
97.400000000
 21
-94.815000000
 31
0.000000000
  0
LINE
  5
CEA
330
A02
100
AcDbEntity
  8
Sketch
100
AcDbLine
 10
96.900000000
 20
-94.315000000
 30
0.000000000
 11
97.400000000
 21
-94.815000000
 31
0.000000000
  0
LINE
  5
CEB
330
A02
100
AcDbEntity
  8
Sketch
100
AcDbLine
 10
96.900000000
 20
-94.315000000
 30
0.000000000
 11
94.808660423
 21
-94.315000000
 31
0.000000000
  0
ARC
  5
CEC
330
A02
100
AcDbEntity
  8
Sketch
100
AcDbCircle
 10
94.635166667
 20
-94.214833333
 30
0.000000000
 40
0.200333333
100
AcDbArc
 50
180.000000000
 51
-30.000000000
  0
ARC
  5
CED
330
A02
100
AcDbEntity
  8
Sketch
100
AcDbCircle
 10
94.635166667
 20
-94.214833333
 30
0.000000000
 40
0.200333333
100
AcDbArc
 50
120.000000000
 51
180.000000000
  0
LINE
  5
CEE
330
A02
100
AcDbEntity
  8
Sketch
100
AcDbLine
 10
94.535000000
 20
-84.638660423
 30
0.000000000
 11
94.535000000
 21
-94.041339577
 31
0.000000000
  0
ARC
  5
CEF
330
A02
100
AcDbEntity
  8
Sketch
100
AcDbCircle
 10
94.635166667
 20
-84.465166667
 30
0.000000000
 40
0.200333333
100
AcDbArc
 50
180.000000000
 51
-120.000000000
  0
ARC
  5
CF0
330
A02
100
AcDbEntity
  8
Sketch
100
AcDbCircle
 10
94.635166667
 20
-84.465166667
 30
0.000000000
 40
0.200333333
100
AcDbArc
 50
30.000000000
 51
180.000000000
  0
LINE
  5
CF1
330
A02
100
AcDbEntity
  8
Sketch
100
AcDbLine
 10
96.900000000
 20
-84.365000000
 30
0.000000000
 11
94.808660423
 21
-84.365000000
 31
0.000000000
  0
LINE
  5
CF2
330
A02
100
AcDbEntity
  8
Sketch
100
AcDbLine
 10
97.400000000
 20
-83.865000000
 30
0.000000000
 11
96.900000000
 21
-84.365000000
 31
0.000000000
  0
LINE
  5
CF3
330
A02
100
AcDbEntity
  8
Sketch
100
AcDbLine
 10
97.400000000
 20
-83.865000000
 30
0.000000000
 11
97.400000000
 21
-72.135000000
 31
0.000000000
  0
LINE
  5
CF4
330
A02
100
AcDbEntity
  8
Sketch
100
AcDbLine
 10
96.900000000
 20
-71.635000000
 30
0.000000000
 11
97.400000000
 21
-72.135000000
 31
0.000000000
  0
LINE
  5
CF5
330
A02
100
AcDbEntity
  8
Sketch
100
AcDbLine
 10
96.900000000
 20
-71.635000000
 30
0.000000000
 11
94.808660423
 21
-71.635000000
 31
0.000000000
  0
ARC
  5
CF6
330
A02
100
AcDbEntity
  8
Sketch
100
AcDbCircle
 10
94.635166667
 20
-71.534833333
 30
0.000000000
 40
0.200333333
100
AcDbArc
 50
180.000000000
 51
-30.000000000
  0
ARC
  5
CF7
330
A02
100
AcDbEntity
  8
Sketch
100
AcDbCircle
 10
94.635166667
 20
-71.534833333
 30
0.000000000
 40
0.200333333
100
AcDbArc
 50
120.000000000
 51
180.000000000
  0
LINE
  5
CF8
330
A02
100
AcDbEntity
  8
Sketch
100
AcDbLine
 10
94.535000000
 20
-61.958660423
 30
0.000000000
 11
94.535000000
 21
-71.361339577
 31
0.000000000
  0
ARC
  5
CF9
330
A02
100
AcDbEntity
  8
Sketch
100
AcDbCircle
 10
94.635166667
 20
-61.785166667
 30
0.000000000
 40
0.200333333
100
AcDbArc
 50
180.000000000
 51
-120.000000000
  0
CIRCLE
  5
CFA
330
A02
100
AcDbEntity
  8
Sketch
100
AcDbCircle
 10
84.100000000
 20
-65.200000000
 30
0.000000000
 40
8.500000000
  0
LINE
  5
CFB
330
A02
100
AcDbEntity
  8
Sketch
100
AcDbLine
 10
89.700000000
 20
-80.850000000
 30
0.000000000
 11
89.700000000
 21
-75.150000000
 31
0.000000000
  0
ARC
  5
CFC
330
A02
100
AcDbEntity
  8
Sketch
100
AcDbCircle
 10
92.200000000
 20
-75.150000000
 30
0.000000000
 40
2.500000000
100
AcDbArc
 50
0.000000000
 51
180.000000000
  0
LINE
  5
CFD
330
A02
100
AcDbEntity
  8
Sketch
100
AcDbLine
 10
94.700000000
 20
-80.850000000
 30
0.000000000
 11
94.700000000
 21
-75.150000000
 31
0.000000000
  0
ARC
  5
CFE
330
A02
100
AcDbEntity
  8
Sketch
100
AcDbCircle
 10
92.200000000
 20
-80.850000000
 30
0.000000000
 40
2.500000000
100
AcDbArc
 50
180.000000000
 51
0.000000000
  0
LINE
  5
CFF
330
A02
100
AcDbEntity
  8
Sketch
100
AcDbLine
 10
64.490000000
 20
-66.000000000
 30
0.000000000
 11
64.490000000
 21
-54.000000000
 31
0.000000000
  0
ARC
  5
D00
330
A02
100
AcDbEntity
  8
Sketch
100
AcDbCircle
 10
65.245000000
 20
-54.000000000
 30
0.000000000
 40
0.755000000
100
AcDbArc
 50
0.000000000
 51
180.000000000
  0
LINE
  5
D01
330
A02
100
AcDbEntity
  8
Sketch
100
AcDbLine
 10
66.000000000
 20
-66.000000000
 30
0.000000000
 11
66.000000000
 21
-54.000000000
 31
0.000000000
  0
ARC
  5
D02
330
A02
100
AcDbEntity
  8
Sketch
100
AcDbCircle
 10
65.245000000
 20
-66.000000000
 30
0.000000000
 40
0.755000000
100
AcDbArc
 50
180.000000000
 51
0.000000000
  0
CIRCLE
  5
D03
330
A02
100
AcDbEntity
  8
Sketch
100
AcDbCircle
 10
84.100000000
 20
-90.800000000
 30
0.000000000
 40
8.500000000
  0
LINE
  5
D04
330
A02
100
AcDbEntity
  8
Sketch
100
AcDbLine
 10
64.490000000
 20
-102.000000000
 30
0.000000000
 11
64.490000000
 21
-90.000000000
 31
0.000000000
  0
ARC
  5
D05
330
A02
100
AcDbEntity
  8
Sketch
100
AcDbCircle
 10
65.245000000
 20
-90.000000000
 30
0.000000000
 40
0.755000000
100
AcDbArc
 50
0.000000000
 51
180.000000000
  0
LINE
  5
D06
330
A02
100
AcDbEntity
  8
Sketch
100
AcDbLine
 10
66.000000000
 20
-102.000000000
 30
0.000000000
 11
66.000000000
 21
-90.000000000
 31
0.000000000
  0
ARC
  5
D07
330
A02
100
AcDbEntity
  8
Sketch
100
AcDbCircle
 10
65.245000000
 20
-102.000000000
 30
0.000000000
 40
0.755000000
100
AcDbArc
 50
180.000000000
 51
0.000000000
  0
LINE
  5
D08
330
A02
100
AcDbEntity
  8
Sketch
100
AcDbLine
 10
-100.800000000
 20
35.792815861
 30
0.000000000
 11
-100.800000000
 21
58.295920641
 31
0.000000000
  0
LINE
  5
D09
330
A02
100
AcDbEntity
  8
Sketch
100
AcDbLine
 10
-100.300000000
 20
58.795920641
 30
0.000000000
 11
-100.800000000
 21
58.295920641
 31
0.000000000
  0
LINE
  5
D0A
330
A02
100
AcDbEntity
  8
Sketch
100
AcDbLine
 10
-100.300000000
 20
58.795920641
 30
0.000000000
 11
-87.375000000
 21
58.795920641
 31
0.000000000
  0
LINE
  5
D0B
330
A02
100
AcDbEntity
  8
Sketch
100
AcDbLine
 10
-87.375000000
 20
58.795920641
 30
0.000000000
 11
-86.875000000
 21
58.295920641
 31
0.000000000
  0
LINE
  5
D0C
330
A02
100
AcDbEntity
  8
Sketch
100
AcDbLine
 10
-86.875000000
 20
58.295920641
 30
0.000000000
 11
-86.875000000
 21
56.204581063
 31
0.000000000
  0
ARC
  5
D0D
330
A02
100
AcDbEntity
  8
Sketch
100
AcDbCircle
 10
-86.774833333
 20
56.031087307
 30
0.000000000
 40
0.200333333
100
AcDbArc
 50
120.000000000
 51
-90.000000000
  0
ARC
  5
D0E
330
A02
100
AcDbEntity
  8
Sketch
100
AcDbCircle
 10
-86.774833333
 20
56.031087307
 30
0.000000000
 40
0.200333333
100
AcDbArc
 50
-90.000000000
 51
-30.000000000
  0
LINE
  5
D0F
330
A02
100
AcDbEntity
  8
Sketch
100
AcDbLine
 10
-86.601339577
 20
55.930920641
 30
0.000000000
 11
-77.198660423
 21
55.930920641
 31
0.000000000
  0
ARC
  5
D10
330
A02
100
AcDbEntity
  8
Sketch
100
AcDbCircle
 10
-77.025166667
 20
56.031087307
 30
0.000000000
 40
0.200333333
100
AcDbArc
 50
-150.000000000
 51
-90.000000000
  0
ARC
  5
D11
330
A02
100
AcDbEntity
  8
Sketch
100
AcDbCircle
 10
-77.025166667
 20
56.031087307
 30
0.000000000
 40
0.200333333
100
AcDbArc
 50
-90.000000000
 51
60.000000000
  0
LINE
  5
D12
330
A02
100
AcDbEntity
  8
Sketch
100
AcDbLine
 10
-76.925000000
 20
58.295920641
 30
0.000000000
 11
-76.925000000
 21
56.204581063
 31
0.000000000
  0
LINE
  5
D13
330
A02
100
AcDbEntity
  8
Sketch
100
AcDbLine
 10
-76.425000000
 20
58.795920641
 30
0.000000000
 11
-76.925000000
 21
58.295920641
 31
0.000000000
  0
LINE
  5
D14
330
A02
100
AcDbEntity
  8
Sketch
100
AcDbLine
 10
-76.425000000
 20
58.795920641
 30
0.000000000
 11
-49.575000000
 21
58.795920641
 31
0.000000000
  0
LINE
  5
D15
330
A02
100
AcDbEntity
  8
Sketch
100
AcDbLine
 10
-49.075000000
 20
58.295920641
 30
0.000000000
 11
-49.575000000
 21
58.795920641
 31
0.000000000
  0
LINE
  5
D16
330
A02
100
AcDbEntity
  8
Sketch
100
AcDbLine
 10
-49.075000000
 20
58.295920641
 30
0.000000000
 11
-49.075000000
 21
56.204581063
 31
0.000000000
  0
ARC
  5
D17
330
A02
100
AcDbEntity
  8
Sketch
100
AcDbCircle
 10
-48.974833333
 20
56.031087307
 30
0.000000000
 40
0.200333333
100
AcDbArc
 50
120.000000000
 51
-90.000000000
  0
ARC
  5
D18
330
A02
100
AcDbEntity
  8
Sketch
100
AcDbCircle
 10
-48.974833333
 20
56.031087307
 30
0.000000000
 40
0.200333333
100
AcDbArc
 50
-90.000000000
 51
-30.000000000
  0
LINE
  5
D19
330
A02
100
AcDbEntity
  8
Sketch
100
AcDbLine
 10
-48.801339577
 20
55.930920641
 30
0.000000000
 11
-39.398660423
 21
55.930920641
 31
0.000000000
  0
ARC
  5
D1A
330
A02
100
AcDbEntity
  8
Sketch
100
AcDbCircle
 10
-39.225166667
 20
56.031087307
 30
0.000000000
 40
0.200333333
100
AcDbArc
 50
-150.000000000
 51
-90.000000000
  0
ARC
  5
D1B
330
A02
100
AcDbEntity
  8
Sketch
100
AcDbCircle
 10
-39.225166667
 20
56.031087307
 30
0.000000000
 40
0.200333333
100
AcDbArc
 50
-90.000000000
 51
60.000000000
  0
LINE
  5
D1C
330
A02
100
AcDbEntity
  8
Sketch
100
AcDbLine
 10
-39.125000000
 20
58.295920641
 30
0.000000000
 11
-39.125000000
 21
56.204581063
 31
0.000000000
  0
LINE
  5
D1D
330
A02
100
AcDbEntity
  8
Sketch
100
AcDbLine
 10
-38.625000000
 20
58.795920641
 30
0.000000000
 11
-39.125000000
 21
58.295920641
 31
0.000000000
  0
LINE
  5
D1E
330
A02
100
AcDbEntity
  8
Sketch
100
AcDbLine
 10
-38.625000000
 20
58.795920641
 30
0.000000000
 11
-25.700000000
 21
58.795920641
 31
0.000000000
  0
LINE
  5
D1F
330
A02
100
AcDbEntity
  8
Sketch
100
AcDbLine
 10
-25.200000000
 20
58.295920641
 30
0.000000000
 11
-25.700000000
 21
58.795920641
 31
0.000000000
  0
LINE
  5
D20
330
A02
100
AcDbEntity
  8
Sketch
100
AcDbLine
 10
-25.200000000
 20
58.295920641
 30
0.000000000
 11
-25.200000000
 21
35.792815861
 31
0.000000000
  0
LINE
  5
D21
330
A02
100
AcDbEntity
  8
Sketch
100
AcDbLine
 10
-25.700000000
 20
35.292815861
 30
0.000000000
 11
-25.200000000
 21
35.792815861
 31
0.000000000
  0
LINE
  5
D22
330
A02
100
AcDbEntity
  8
Sketch
100
AcDbLine
 10
-27.791339577
 20
35.292815861
 30
0.000000000
 11
-25.700000000
 21
35.292815861
 31
0.000000000
  0
ARC
  5
D23
330
A02
100
AcDbEntity
  8
Sketch
100
AcDbCircle
 10
-27.964833333
 20
35.192649195
 30
0.000000000
 40
0.200333333
100
AcDbArc
 50
30.000000000
 51
-120.000000000
  0
LINE
  5
D24
330
A02
100
AcDbEntity
  8
Sketch
100
AcDbLine
 10
-28.065000000
 20
35.019155439
 30
0.000000000
 11
-28.065000000
 21
25.616476284
 31
0.000000000
  0
ARC
  5
D25
330
A02
100
AcDbEntity
  8
Sketch
100
AcDbCircle
 10
-27.964833333
 20
25.442982528
 30
0.000000000
 40
0.200333333
100
AcDbArc
 50
120.000000000
 51
-30.000000000
  0
LINE
  5
D26
330
A02
100
AcDbEntity
  8
Sketch
100
AcDbLine
 10
-27.791339577
 20
25.342815861
 30
0.000000000
 11
-25.700000000
 21
25.342815861
 31
0.000000000
  0
LINE
  5
D27
330
A02
100
AcDbEntity
  8
Sketch
100
AcDbLine
 10
-25.200000000
 20
24.842815861
 30
0.000000000
 11
-25.700000000
 21
25.342815861
 31
0.000000000
  0
LINE
  5
D28
330
A02
100
AcDbEntity
  8
Sketch
100
AcDbLine
 10
-25.200000000
 20
24.842815861
 30
0.000000000
 11
-25.200000000
 21
2.900292189
 31
0.000000000
  0
LINE
  5
D29
330
A02
100
AcDbEntity
  8
Sketch
100
AcDbLine
 10
-25.700000000
 20
2.400292189
 30
0.000000000
 11
-25.200000000
 21
2.900292189
 31
0.000000000
  0
LINE
  5
D2A
330
A02
100
AcDbEntity
  8
Sketch
100
AcDbLine
 10
-25.700000000
 20
2.400292189
 30
0.000000000
 11
-28.000000000
 21
2.400292189
 31
0.000000000
  0
LINE
  5
D2B
330
A02
100
AcDbEntity
  8
Sketch
100
AcDbLine
 10
-28.000000000
 20
2.400292189
 30
0.000000000
 11
-28.000000000
 21
1.500292189
 31
0.000000000
  0
LINE
  5
D2C
330
A02
100
AcDbEntity
  8
Sketch
100
AcDbLine
 10
-28.500000000
 20
1.000292189
 30
0.000000000
 11
-28.000000000
 21
1.500292189
 31
0.000000000
  0
LINE
  5
D2D
330
A02
100
AcDbEntity
  8
Sketch
100
AcDbLine
 10
-28.500000000
 20
1.000292189
 30
0.000000000
 11
-39.082644144
 21
1.000292189
 31
0.000000000
  0
ELLIPSE
  5
D2E
330
A02
100
AcDbEntity
  8
Sketch
100
AcDbEllipse
 10
-39.222666667
 20
0.855357567
 30
0.000000000
 11
0.000000000
 21
0.207869392
 31
0.000000000
 40
0.939692621
 41
5.483927429
 42
5.759586532
  0
LINE
  5
D2F
330
A02
100
AcDbEntity
  8
Sketch
100
AcDbLine
 10
-39.125000000
 20
3.585508875
 30
0.000000000
 11
-39.125000000
 21
1.035377741
 31
0.000000000
  0
ELLIPSE
  5
D30
330
A02
100
AcDbEntity
  8
Sketch
100
AcDbEllipse
 10
-39.222666667
 20
3.765529049
 30
0.000000000
 11
0.000000000
 21
0.207869392
 31
0.000000000
 40
0.939692621
 41
3.665191429
 42
4.712388980
  0
ELLIPSE
  5
D31
330
A02
100
AcDbEntity
  8
Sketch
100
AcDbEllipse
 10
-39.222666667
 20
3.765529049
 30
0.000000000
 11
0.000000000
 21
0.207869392
 31
0.000000000
 40
0.939692621
 41
4.712388980
 42
1.047197551
  0
LINE
  5
D32
330
A02
100
AcDbEntity
  8
Sketch
100
AcDbLine
 10
-39.391830296
 20
3.869463744
 30
0.000000000
 11
-48.808169704
 21
3.869463744
 31
0.000000000
  0
ELLIPSE
  5
D33
330
A02
100
AcDbEntity
  8
Sketch
100
AcDbEllipse
 10
-48.977333333
 20
3.765529049
 30
0.000000000
 11
0.000000000
 21
0.207869392
 31
0.000000000
 40
0.939692621
 41
5.235987756
 42
1.570796327
  0
ELLIPSE
  5
D34
330
A02
100
AcDbEntity
  8
Sketch
100
AcDbEllipse
 10
-48.977333333
 20
3.765529049
 30
0.000000000
 11
0.000000000
 21
0.207869392
 31
0.000000000
 40
0.939692621
 41
1.570796327
 42
2.617993878
  0
LINE
  5
D35
330
A02
100
AcDbEntity
  8
Sketch
100
AcDbLine
 10
-49.075000000
 20
3.585508875
 30
0.000000000
 11
-49.075000000
 21
1.035377741
 31
0.000000000
  0
ELLIPSE
  5
D36
330
A02
100
AcDbEntity
  8
Sketch
100
AcDbEllipse
 10
-48.977333333
 20
0.855357567
 30
0.000000000
 11
0.000000000
 21
0.207869392
 31
0.000000000
 40
0.939692621
 41
0.523598776
 42
0.799257878
  0
LINE
  5
D37
330
A02
100
AcDbEntity
  8
Sketch
100
AcDbLine
 10
-49.117355856
 20
1.000292189
 30
0.000000000
 11
-76.882644144
 21
1.000292189
 31
0.000000000
  0
ELLIPSE
  5
D38
330
A02
100
AcDbEntity
  8
Sketch
100
AcDbEllipse
 10
-77.022666667
 20
0.855357567
 30
0.000000000
 11
0.000000000
 21
0.207869392
 31
0.000000000
 40
0.939692621
 41
5.483927429
 42
5.759586532
  0
LINE
  5
D39
330
A02
100
AcDbEntity
  8
Sketch
100
AcDbLine
 10
-76.925000000
 20
3.585508875
 30
0.000000000
 11
-76.925000000
 21
1.035377741
 31
0.000000000
  0
ELLIPSE
  5
D3A
330
A02
100
AcDbEntity
  8
Sketch
100
AcDbEllipse
 10
-77.022666667
 20
3.765529049
 30
0.000000000
 11
0.000000000
 21
0.207869392
 31
0.000000000
 40
0.939692621
 41
3.665191429
 42
4.712388980
  0
ELLIPSE
  5
D3B
330
A02
100
AcDbEntity
  8
Sketch
100
AcDbEllipse
 10
-77.022666667
 20
3.765529049
 30
0.000000000
 11
0.000000000
 21
0.207869392
 31
0.000000000
 40
0.939692621
 41
4.712388980
 42
1.047197551
  0
LINE
  5
D3C
330
A02
100
AcDbEntity
  8
Sketch
100
AcDbLine
 10
-77.191830296
 20
3.869463744
 30
0.000000000
 11
-86.608169704
 21
3.869463744
 31
0.000000000
  0
ELLIPSE
  5
D3D
330
A02
100
AcDbEntity
  8
Sketch
100
AcDbEllipse
 10
-86.777333333
 20
3.765529049
 30
0.000000000
 11
0.000000000
 21
0.207869392
 31
0.000000000
 40
0.939692621
 41
5.235987756
 42
1.570796327
  0
ELLIPSE
  5
D3E
330
A02
100
AcDbEntity
  8
Sketch
100
AcDbEllipse
 10
-86.777333333
 20
3.765529049
 30
0.000000000
 11
0.000000000
 21
0.207869392
 31
0.000000000
 40
0.939692621
 41
1.570796327
 42
2.617993878
  0
LINE
  5
D3F
330
A02
100
AcDbEntity
  8
Sketch
100
AcDbLine
 10
-86.875000000
 20
3.585508875
 30
0.000000000
 11
-86.875000000
 21
1.035377741
 31
0.000000000
  0
ELLIPSE
  5
D40
330
A02
100
AcDbEntity
  8
Sketch
100
AcDbEllipse
 10
-86.777333333
 20
0.855357567
 30
0.000000000
 11
0.000000000
 21
0.207869392
 31
0.000000000
 40
0.939692621
 41
0.523598776
 42
0.799257878
  0
LINE
  5
D41
330
A02
100
AcDbEntity
  8
Sketch
100
AcDbLine
 10
-86.917355856
 20
1.000292189
 30
0.000000000
 11
-97.500000000
 21
1.000292189
 31
0.000000000
  0
LINE
  5
D42
330
A02
100
AcDbEntity
  8
Sketch
100
AcDbLine
 10
-98.000000000
 20
1.500292189
 30
0.000000000
 11
-97.500000000
 21
1.000292189
 31
0.000000000
  0
LINE
  5
D43
330
A02
100
AcDbEntity
  8
Sketch
100
AcDbLine
 10
-98.000000000
 20
1.500292189
 30
0.000000000
 11
-98.000000000
 21
2.400292189
 31
0.000000000
  0
LINE
  5
D44
330
A02
100
AcDbEntity
  8
Sketch
100
AcDbLine
 10
-98.000000000
 20
2.400292189
 30
0.000000000
 11
-100.300000000
 21
2.400292189
 31
0.000000000
  0
LINE
  5
D45
330
A02
100
AcDbEntity
  8
Sketch
100
AcDbLine
 10
-100.300000000
 20
2.400292189
 30
0.000000000
 11
-100.800000000
 21
2.900292189
 31
0.000000000
  0
LINE
  5
D46
330
A02
100
AcDbEntity
  8
Sketch
100
AcDbLine
 10
-100.800000000
 20
2.900292189
 30
0.000000000
 11
-100.800000000
 21
24.842815861
 31
0.000000000
  0
LINE
  5
D47
330
A02
100
AcDbEntity
  8
Sketch
100
AcDbLine
 10
-100.300000000
 20
25.342815861
 30
0.000000000
 11
-100.800000000
 21
24.842815861
 31
0.000000000
  0
LINE
  5
D48
330
A02
100
AcDbEntity
  8
Sketch
100
AcDbLine
 10
-100.300000000
 20
25.342815861
 30
0.000000000
 11
-98.208660423
 21
25.342815861
 31
0.000000000
  0
ARC
  5
D49
330
A02
100
AcDbEntity
  8
Sketch
100
AcDbCircle
 10
-98.035166667
 20
25.442982528
 30
0.000000000
 40
0.200333333
100
AcDbArc
 50
-150.000000000
 51
0.000000000
  0
ARC
  5
D4A
330
A02
100
AcDbEntity
  8
Sketch
100
AcDbCircle
 10
-98.035166667
 20
25.442982528
 30
0.000000000
 40
0.200333333
100
AcDbArc
 50
0.000000000
 51
60.000000000
  0
LINE
  5
D4B
330
A02
100
AcDbEntity
  8
Sketch
100
AcDbLine
 10
-97.935000000
 20
35.019155439
 30
0.000000000
 11
-97.935000000
 21
25.616476284
 31
0.000000000
  0
ARC
  5
D4C
330
A02
100
AcDbEntity
  8
Sketch
100
AcDbCircle
 10
-98.035166667
 20
35.192649195
 30
0.000000000
 40
0.200333333
100
AcDbArc
 50
-60.000000000
 51
0.000000000
  0
ARC
  5
D4D
330
A02
100
AcDbEntity
  8
Sketch
100
AcDbCircle
 10
-98.035166667
 20
35.192649195
 30
0.000000000
 40
0.200333333
100
AcDbArc
 50
0.000000000
 51
150.000000000
  0
LINE
  5
D4E
330
A02
100
AcDbEntity
  8
Sketch
100
AcDbLine
 10
-100.300000000
 20
35.292815861
 30
0.000000000
 11
-98.208660423
 21
35.292815861
 31
0.000000000
  0
LINE
  5
D4F
330
A02
100
AcDbEntity
  8
Sketch
100
AcDbLine
 10
-100.800000000
 20
35.792815861
 30
0.000000000
 11
-100.300000000
 21
35.292815861
 31
0.000000000
  0
LINE
  5
D50
330
A02
100
AcDbEntity
  8
Sketch
100
AcDbLine
 10
-64.500000000
 20
16.511971241
 30
0.000000000
 11
-61.500000000
 21
16.511971241
 31
0.000000000
  0
ARC
  5
D51
330
A02
100
AcDbEntity
  8
Sketch
100
AcDbCircle
 10
-61.500000000
 20
14.511971241
 30
0.000000000
 40
2.000000000
100
AcDbArc
 50
-90.000000000
 51
90.000000000
  0
LINE
  5
D52
330
A02
100
AcDbEntity
  8
Sketch
100
AcDbLine
 10
-64.500000000
 20
12.511971241
 30
0.000000000
 11
-61.500000000
 21
12.511971241
 31
0.000000000
  0
ARC
  5
D53
330
A02
100
AcDbEntity
  8
Sketch
100
AcDbCircle
 10
-64.500000000
 20
14.511971241
 30
0.000000000
 40
2.000000000
100
AcDbArc
 50
90.000000000
 51
-90.000000000
  0
ENDSEC
  0
SECTION
  2
OBJECTS
  0
DICTIONARY
  5
F000
330
0
100
AcDbDictionary
  3
ACAD_GROUP
350
F001
  0
DICTIONARY
  5
F001
330
F000
100
AcDbDictionary
  0
ENDSEC
  0
EOF