999
dxfrw 0.6.3
  0
SECTION
  2
HEADER
  9
$ACADVER
  1
AC1021
  9
$DWGCODEPAGE
  3
ANSI_1252
  9
$INSBASE
 10
0
 20
0
 30
0
  9
$EXTMIN
 10
0
 20
-0
 30
0
  9
$EXTMAX
 10
296.8
 20
303.320388098
 30
0
  9
$LIMMIN
 10
0
 20
0
  9
$LIMMAX
 10
420
 20
297
  9
$ORTHOMODE
 70
    0
  9
$REGENMODE
 70
    1
  9
$FILLMODE
 70
    1
  9
$QTEXTMODE
 70
    0
  9
$MIRRTEXT
 70
    0
  9
$LTSCALE
 40
1
  9
$ATTMODE
 70
    0
  9
$TEXTSIZE
 40
2.5
  9
$TRACEWID
 40
15.68
  9
$TEXTSTYLE
  7
STANDARD
  9
$CLAYER
  8
0
  9
$CELTYPE
  6
BYLAYER
  9
$CECOLOR
 62
  256
  9
$CELTSCALE
 40
1
  9
$DISPSILH
 70
    0
  9
$DIMSCALE
 40
2.5
  9
$DIMASZ
 40
2.5
  9
$DIMEXO
 40
0.625
  9
$DIMDLI
 40
3.75
  9
$DIMRND
 40
0
  9
$DIMDLE
 40
0
  9
$DIMEXE
 40
1.25
  9
$DIMTP
 40
0
  9
$DIMTM
 40
0
  9
$DIMTXT
 40
2.5
  9
$DIMCEN
 40
2.5
  9
$DIMTSZ
 40
0
  9
$DIMTOL
 70
    0
  9
$DIMLIM
 70
    0
  9
$DIMTIH
 70
    0
  9
$DIMTOH
 70
    0
  9
$DIMSE1
 70
    0
  9
$DIMSE2
 70
    0
  9
$DIMTAD
 70
    1
  9
$DIMZIN
 70
    8
  9
$DIMBLK
  1

  9
$DIMASO
 70
    1
  9
$DIMSHO
 70
    1
  9
$DIMPOST
  1

  9
$DIMAPOST
  1

  9
$DIMALT
 70
    0
  9
$DIMALTD
 70
    3
  9
$DIMALTF
 40
0.03937
  9
$DIMLFAC
 40
1
  9
$DIMTOFL
 70
    1
  9
$DIMTVP
 40
0
  9
$DIMTIX
 70
    0
  9
$DIMSOXD
 70
    0
  9
$DIMSAH
 70
    0
  9
$DIMBLK1
  1

  9
$DIMBLK2
  1

  9
$DIMSTYLE
  2
STANDARD
  9
$DIMCLRD
 70
    0
  9
$DIMCLRE
 70
    0
  9
$DIMCLRT
 70
    0
  9
$DIMTFAC
 40
1
  9
$DIMGAP
 40
0.625
  9
$DIMJUST
 70
    0
  9
$DIMSD1
 70
    0
  9
$DIMSD2
 70
    0
  9
$DIMTOLJ
 70
    0
  9
$DIMTZIN
 70
    8
  9
$DIMALTZ
 70
    0
  9
$DIMALTTZ
 70
    0
  9
$DIMUPT
 70
    0
  9
$DIMDEC
 70
    2
  9
$DIMTDEC
 70
    2
  9
$DIMALTU
 70
    2
  9
$DIMALTTD
 70
    3
  9
$DIMTXSTY
  7
STANDARD
  9
$DIMAUNIT
 70
    0
  9
$DIMADEC
 70
    0
  9
$DIMALTRND
 40
0
  9
$DIMAZIN
 70
    0
  9
$DIMDSEP
 70
   44
  9
$DIMATFIT
 70
    3
  9
$DIMFRAC
 70
    0
  9
$DIMLDRBLK
  1
STANDARD
  9
$DIMLUNIT
 70
    2
  9
$DIMLWD
 70
   -2
  9
$DIMLWE
 70
   -2
  9
$DIMTMOVE
 70
    0
  9
$DIMFXL
 40
1
  9
$DIMFXLON
 70
    0
  9
$DIMJOGANG
 40
0.7854
  9
$DIMTFILL
 70
    0
  9
$DIMTFILLCLR
 70
    0
  9
$DIMARCSYM
 70
    0
  9
$DIMLTYPE
  6

  9
$DIMLTEX1
  6

  9
$DIMLTEX2
  6

  9
$LUNITS
 70
    2
  9
$LUPREC
 70
    4
  9
$SKETCHINC
 40
1
  9
$FILLETRAD
 40
0
  9
$AUNITS
 70
    0
  9
$AUPREC
 70
    2
  9
$MENU
  1
.
  9
$ELEVATION
 40
0
  9
$PELEVATION
 40
0
  9
$THICKNESS
 40
0
  9
$LIMCHECK
 70
    0
  9
$CHAMFERA
 40
0
  9
$CHAMFERB
 40
0
  9
$CHAMFERC
 40
0
  9
$CHAMFERD
 40
0
  9
$SKPOLY
 70
    0
  9
$USRTIMER
 70
    1
  9
$ANGBASE
 50
0
  9
$ANGDIR
 70
    0
  9
$PDMODE
 70
   34
  9
$PDSIZE
 40
0
  9
$PLINEWID
 40
0
  9
$SPLFRAME
 70
    0
  9
$SPLINETYPE
 70
    2
  9
$SPLINESEGS
 70
    8
  9
$HANDSEED
  5
20000
  9
$SURFTAB1
 70
    6
  9
$SURFTAB2
 70
    6
  9
$SURFTYPE
 70
    6
  9
$SURFU
 70
    6
  9
$SURFV
 70
    6
  9
$UCSBASE
  2

  9
$UCSNAME
  2

  9
$UCSORG
 10
0
 20
0
 30
0
  9
$UCSXDIR
 10
1
 20
0
 30
0
  9
$UCSYDIR
 10
0
 20
1
 30
0
  9
$UCSORTHOREF
  2

  9
$UCSORTHOVIEW
 70
    0
  9
$UCSORGTOP
 10
0
 20
0
 30
0
  9
$UCSORGBOTTOM
 10
0
 20
0
 30
0
  9
$UCSORGLEFT
 10
0
 20
0
 30
0
  9
$UCSORGRIGHT
 10
0
 20
0
 30
0
  9
$UCSORGFRONT
 10
0
 20
0
 30
0
  9
$UCSORGBACK
 10
0
 20
0
 30
0
  9
$PUCSBASE
  2

  9
$PUCSNAME
  2

  9
$PUCSORG
 10
0
 20
0
 30
0
  9
$PUCSXDIR
 10
1
 20
0
 30
0
  9
$PUCSYDIR
 10
0
 20
1
 30
0
  9
$PUCSORTHOREF
  2

  9
$PUCSORTHOVIEW
 70
    0
  9
$PUCSORGTOP
 10
0
 20
0
 30
0
  9
$PUCSORGBOTTOM
 10
0
 20
0
 30
0
  9
$PUCSORGLEFT
 10
0
 20
0
 30
0
  9
$PUCSORGRIGHT
 10
0
 20
0
 30
0
  9
$PUCSORGFRONT
 10
0
 20
0
 30
0
  9
$PUCSORGBACK
 10
0
 20
0
 30
0
  9
$USERI1
 70
    0
  9
$USERI2
 70
    0
  9
$USERI3
 70
    0
  9
$USERI4
 70
    0
  9
$USERI5
 70
    0
  9
$USERR1
 40
0
  9
$USERR2
 40
0
  9
$USERR3
 40
0
  9
$USERR4
 40
0
  9
$USERR5
 40
0
  9
$WORLDVIEW
 70
    1
  9
$SHADEDGE
 70
    3
  9
$SHADEDIF
 70
   70
  9
$TILEMODE
 70
    1
  9
$MAXACTVP
 70
   64
  9
$PINSBASE
 10
0
 20
0
 30
0
  9
$PLIMCHECK
 70
    0
  9
$PEXTMIN
 10
0
 20
0
 30
0
  9
$PEXTMAX
 10
50
 20
50
 30
50
  9
$GRIDMODE
 70
    0
  9
$SNAPSTYLE
 70
    0
  9
$PLIMMIN
 10
0
 20
0
  9
$PLIMMAX
 10
210
 20
297
  9
$UNITMODE
 70
    0
  9
$VISRETAIN
 70
    1
  9
$PLINEGEN
 70
    0
  9
$PSLTSCALE
 70
    1
  9
$TREEDEPTH
 70
 3020
  9
$CMLSTYLE
  2
STANDARD
  9
$CMLJUST
 70
    0
  9
$CMLSCALE
 40
20
  9
$PROXYGRAPHICS
 70
    1
  9
$MEASUREMENT
 70
    1
  9
$CELWEIGHT
370
   -1
  9
$ENDCAPS
280
    0
  9
$JOINSTYLE
280
    0
  9
$LWDISPLAY
290
    0
  9
$INSUNITS
 70
    4
  9
$HYPERLINKBASE
  1

  9
$STYLESHEET
  1

  9
$XEDIT
290
    1
  9
$CEPSNTYPE
380
    0
  9
$PSTYLEMODE
290
    1
  9
$EXTNAMES
290
    1
  9
$PSVPSCALE
 40
1
  9
$OLESTARTUP
290
    0
  9
$SORTENTS
280
  127
  9
$INDEXCTL
280
    0
  9
$HIDETEXT
280
    1
  9
$XCLIPFRAME
290
    0
  9
$HALOGAP
280
    0
  9
$OBSCOLOR
 70
  257
  9
$OBSLTYPE
280
    0
  9
$INTERSECTIONDISPLAY
280
    0
  9
$INTERSECTIONCOLOR
 70
  257
  9
$DIMASSOC
280
    1
  9
$PROJECTNAME
  1

  9
$CAMERADISPLAY
290
    0
  9
$LENSLENGTH
 40
50
  9
$CAMERAHEIGHT
 40
0
  9
$STEPSPERSEC
 40
2
  9
$STEPSIZE
 40
50
  9
$3DDWFPREC
 40
2
  9
$PSOLWIDTH
 40
5
  9
$PSOLHEIGHT
 40
80
  9
$LOFTANG1
 40
1.570796326794897
  9
$LOFTANG2
 40
1.570796326794897
  9
$LOFTMAG1
 40
0
  9
$LOFTMAG2
 40
0
  9
$LOFTPARAM
 70
    7
  9
$LOFTNORMALS
280
    1
  9
$LATITUDE
 40
1
  9
$LONGITUDE
 40
1
  9
$NORTHDIRECTION
 40
0
  9
$TIMEZONE
 70
-8000
  9
$LIGHTGLYPHDISPLAY
280
    1
  9
$TILEMODELIGHTSYNCH
280
    1
  9
$SOLIDHIST
280
    1
  9
$SHOWHIST
280
    1
  9
$DWFFRAME
280
    2
  9
$DGNFRAME
280
    0
  9
$REALWORLDSCALE
290
    1
  9
$INTERFERECOLOR
 62
    1
  9
$CSHADOW
280
    0
  9
$SHADOWPLANELOCATION
 40
0
  0
ENDSEC
  0
SECTION
  2
CLASSES
  0
ENDSEC
  0
SECTION
  2
TABLES
  0
TABLE
  2
VPORT
  5
8
330
0
100
AcDbSymbolTable
 70
    1
  0
VPORT
  5
31
330
2
100
AcDbSymbolTableRecord
100
AcDbViewportTableRecord
  2
*ACTIVE
 70
    0
 10
0
 20
0
 11
1
 21
1
 12
226.7834859081585
 22
153.6796373785473
 13
0
 23
0
 14
10
 24
10
 15
10
 25
10
 16
0
 26
0
 36
1
 17
0
 27
0
 37
0
 40
311.3981614161891
 41
1.959792477302205
 42
50
 43
0
 44
0
 50
0
 51
0
 71
    0
 72
  100
 73
    1
 74
    3
 75
    0
 76
    0
 77
    0
 78
    0
281
    0
 65
    1
110
0
120
0
130
0
111
1
121
0
131
0
112
0
122
1
132
0
 79
    0
146
0
348
10020
 60
    7
 61
    5
292
1
282
    1
141
0
142
0
 63
  250
421
3358443
  0
ENDTAB
  0
TABLE
  2
LTYPE
  5
5
330
0
100
AcDbSymbolTable
 70
    4
  0
LTYPE
  5
14
330
5
100
AcDbSymbolTableRecord
100
AcDbLinetypeTableRecord
  2
ByBlock
 70
    0
  3

 72
   65
 73
    0
 40
0
  0
LTYPE
  5
15
330
5
100
AcDbSymbolTableRecord
100
AcDbLinetypeTableRecord
  2
ByLayer
 70
    0
  3

 72
   65
 73
    0
 40
0
  0
LTYPE
  5
16
330
5
100
AcDbSymbolTableRecord
100
AcDbLinetypeTableRecord
  2
Continuous
 70
    0
  3
Solid line
 72
   65
 73
    0
 40
0
  0
LTYPE
  5
32
330
5
100
AcDbSymbolTableRecord
100
AcDbLinetypeTableRecord
  2
DOT
 70
    0
  3
Dot . . . . . . . . . . . . . . . . . . . . . .
 72
   65
 73
    2
 40
6.35
 49
0
 74
    0
 49
-6.35
 74
    0
  0
LTYPE
  5
33
330
5
100
AcDbSymbolTableRecord
100
AcDbLinetypeTableRecord
  2
DOTTINY
 70
    0
  3
Dot (.15x) .....................................
 72
   65
 73
    2
 40
0.9525
 49
0
 74
    0
 49
-0.9525
 74
    0
  0
LTYPE
  5
34
330
5
100
AcDbSymbolTableRecord
100
AcDbLinetypeTableRecord
  2
DOT2
 70
    0
  3
Dot (.5x) .....................................
 72
   65
 73
    2
 40
3.175
 49
0
 74
    0
 49
-3.175
 74
    0
  0
LTYPE
  5
35
330
5
100
AcDbSymbolTableRecord
100
AcDbLinetypeTableRecord
  2
DOTX2
 70
    0
  3
Dot (2x) .  .  .  .  .  .  .  .  .  .  .  .  .
 72
   65
 73
    2
 40
12.7
 49
0
 74
    0
 49
-12.7
 74
    0
  0
LTYPE
  5
36
330
5
100
AcDbSymbolTableRecord
100
AcDbLinetypeTableRecord
  2
DASHED
 70
    0
  3
Dashed _ _ _ _ _ _ _ _ _ _ _ _ _ _ _ _ _
 72
   65
 73
    2
 40
19.05
 49
12.7
 74
    0
 49
-6.35
 74
    0
  0
LTYPE
  5
37
330
5
100
AcDbSymbolTableRecord
100
AcDbLinetypeTableRecord
  2
DASHEDTINY
 70
    0
  3
Dashed (.15x) _ _ _ _ _ _ _ _ _ _ _ _ _ _ _ _ _
 72
   65
 73
    2
 40
2.8575
 49
1.905
 74
    0
 49
-0.9525
 74
    0
  0
LTYPE
  5
38
330
5
100
AcDbSymbolTableRecord
100
AcDbLinetypeTableRecord
  2
DASHED2
 70
    0
  3
Dashed (.5x) _ _ _ _ _ _ _ _ _ _ _ _ _ _ _ _ _
 72
   65
 73
    2
 40
9.524999999999999
 49
6.35
 74
    0
 49
-3.175
 74
    0
  0
LTYPE
  5
39
330
5
100
AcDbSymbolTableRecord
100
AcDbLinetypeTableRecord
  2
DASHEDX2
 70
    0
  3
Dashed (2x) ____  ____  ____  ____  ____  ___
 72
   65
 73
    2
 40
38.09999999999999
 49
25.4
 74
    0
 49
-12.7
 74
    0
  0
LTYPE
  5
3A
330
5
100
AcDbSymbolTableRecord
100
AcDbLinetypeTableRecord
  2
DASHDOT
 70
    0
  3
Dash dot __ . __ . __ . __ . __ . __ . __ . __
 72
   65
 73
    4
 40
25.4
 49
12.7
 74
    0
 49
-6.35
 74
    0
 49
0
 74
    0
 49
-6.35
 74
    0
  0
LTYPE
  5
3B
330
5
100
AcDbSymbolTableRecord
100
AcDbLinetypeTableRecord
  2
DASHDOTTINY
 70
    0
  3
Dash dot (.15x) _._._._._._._._._._._._._._._.
 72
   65
 73
    4
 40
3.81
 49
1.905
 74
    0
 49
-0.9525
 74
    0
 49
0
 74
    0
 49
-0.9525
 74
    0
  0
LTYPE
  5
3C
330
5
100
AcDbSymbolTableRecord
100
AcDbLinetypeTableRecord
  2
DASHDOT2
 70
    0
  3
Dash dot (.5x) _._._._._._._._._._._._._._._.
 72
   65
 73
    4
 40
12.7
 49
6.35
 74
    0
 49
-3.175
 74
    0
 49
0
 74
    0
 49
-3.175
 74
    0
  0
LTYPE
  5
3D
330
5
100
AcDbSymbolTableRecord
100
AcDbLinetypeTableRecord
  2
DASHDOTX2
 70
    0
  3
Dash dot (2x) ____  .  ____  .  ____  .  ___
 72
   65
 73
    4
 40
50.8
 49
25.4
 74
    0
 49
-12.7
 74
    0
 49
0
 74
    0
 49
-12.7
 74
    0
  0
LTYPE
  5
3E
330
5
100
AcDbSymbolTableRecord
100
AcDbLinetypeTableRecord
  2
DIVIDE
 70
    0
  3
Divide ____ . . ____ . . ____ . . ____ . . ____
 72
   65
 73
    6
 40
31.75
 49
12.7
 74
    0
 49
-6.35
 74
    0
 49
0
 74
    0
 49
-6.35
 74
    0
 49
0
 74
    0
 49
-6.35
 74
    0
  0
LTYPE
  5
3F
330
5
100
AcDbSymbolTableRecord
100
AcDbLinetypeTableRecord
  2
DIVIDETINY
 70
    0
  3
Divide (.15x) __..__..__..__..__..__..__..__.._
 72
   65
 73
    6
 40
4.7625
 49
1.905
 74
    0
 49
-0.9525
 74
    0
 49
0
 74
    0
 49
-0.9525
 74
    0
 49
0
 74
    0
 49
-0.9525
 74
    0
  0
LTYPE
  5
40
330
5
100
AcDbSymbolTableRecord
100
AcDbLinetypeTableRecord
  2
DIVIDE2
 70
    0
  3
Divide (.5x) __..__..__..__..__..__..__..__.._
 72
   65
 73
    6
 40
15.875
 49
6.35
 74
    0
 49
-3.175
 74
    0
 49
0
 74
    0
 49
-3.175
 74
    0
 49
0
 74
    0
 49
-3.175
 74
    0
  0
LTYPE
  5
41
330
5
100
AcDbSymbolTableRecord
100
AcDbLinetypeTableRecord
  2
DIVIDEX2
 70
    0
  3
Divide (2x) ________  .  .  ________  .  .  _
 72
   65
 73
    6
 40
63.5
 49
25.4
 74
    0
 49
-12.7
 74
    0
 49
0
 74
    0
 49
-12.7
 74
    0
 49
0
 74
    0
 49
-12.7
 74
    0
  0
LTYPE
  5
42
330
5
100
AcDbSymbolTableRecord
100
AcDbLinetypeTableRecord
  2
BORDER
 70
    0
  3
Border __ __ . __ __ . __ __ . __ __ . __ __ .
 72
   65
 73
    6
 40
44.45
 49
12.7
 74
    0
 49
-6.35
 74
    0
 49
12.7
 74
    0
 49
-6.35
 74
    0
 49
0
 74
    0
 49
-6.35
 74
    0
  0
LTYPE
  5
43
330
5
100
AcDbSymbolTableRecord
100
AcDbLinetypeTableRecord
  2
BORDERTINY
 70
    0
  3
Border (.15x) __.__.__.__.__.__.__.__.__.__.__.
 72
   65
 73
    6
 40
6.6675
 49
1.905
 74
    0
 49
-0.9525
 74
    0
 49
1.905
 74
    0
 49
-0.9525
 74
    0
 49
0
 74
    0
 49
-0.9525
 74
    0
  0
LTYPE
  5
44
330
5
100
AcDbSymbolTableRecord
100
AcDbLinetypeTableRecord
  2
BORDER2
 70
    0
  3
Border (.5x) __.__.__.__.__.__.__.__.__.__.__.
 72
   65
 73
    6
 40
22.225
 49
6.35
 74
    0
 49
-3.175
 74
    0
 49
6.35
 74
    0
 49
-3.175
 74
    0
 49
0
 74
    0
 49
-3.175
 74
    0
  0
LTYPE
  5
45
330
5
100
AcDbSymbolTableRecord
100
AcDbLinetypeTableRecord
  2
BORDERX2
 70
    0
  3
Border (2x) ____  ____  .  ____  ____  .  ___
 72
   65
 73
    6
 40
88.89999999999999
 49
25.4
 74
    0
 49
-12.7
 74
    0
 49
25.4
 74
    0
 49
-12.7
 74
    0
 49
0
 74
    0
 49
-12.7
 74
    0
  0
LTYPE
  5
46
330
5
100
AcDbSymbolTableRecord
100
AcDbLinetypeTableRecord
  2
CENTER
 70
    0
  3
Center ____ _ ____ _ ____ _ ____ _ ____ _ ____
 72
   65
 73
    4
 40
50.8
 49
31.75
 74
    0
 49
-6.35
 74
    0
 49
6.35
 74
    0
 49
-6.35
 74
    0
  0
LTYPE
  5
47
330
5
100
AcDbSymbolTableRecord
100
AcDbLinetypeTableRecord
  2
CENTERTINY
 70
    0
  3
Center (.15x) ___ _ ___ _ ___ _ ___ _ ___ _ ___
 72
   65
 73
    4
 40
7.619999999999999
 49
4.7625
 74
    0
 49
-0.9525
 74
    0
 49
0.9525
 74
    0
 49
-0.9525
 74
    0
  0
LTYPE
  5
48
330
5
100
AcDbSymbolTableRecord
100
AcDbLinetypeTableRecord
  2
CENTER2
 70
    0
  3
Center (.5x) ___ _ ___ _ ___ _ ___ _ ___ _ ___
 72
   65
 73
    4
 40
28.575
 49
19.05
 74
    0
 49
-3.175
 74
    0
 49
3.175
 74
    0
 49
-3.175
 74
    0
  0
LTYPE
  5
49
330
5
100
AcDbSymbolTableRecord
100
AcDbLinetypeTableRecord
  2
CENTERX2
 70
    0
  3
Center (2x) ________  __  ________  __  _____
 72
   65
 73
    4
 40
101.6
 49
63.5
 74
    0
 49
-12.7
 74
    0
 49
12.7
 74
    0
 49
-12.7
 74
    0
  0
ENDTAB
  0
TABLE
  2
LAYER
  5
2
330
0
100
AcDbSymbolTable
 70
    1
  0
LAYER
  5
10
330
2
100
AcDbSymbolTableRecord
100
AcDbLayerTableRecord
  2
0
 70
    0
 62
    7
  6
CONTINUOUS
370
   -3
390
F
  0
LAYER
  5
4A
330
2
100
AcDbSymbolTableRecord
100
AcDbLayerTableRecord
  2
Shape2DView
 70
    0
 62
    7
  6
CONTINUOUS
370
   -3
390
F
  0
LAYER
  5
4B
330
2
100
AcDbSymbolTableRecord
100
AcDbLayerTableRecord
  2
Shape2DView001
 70
    0
 62
    7
  6
CONTINUOUS
370
   -3
390
F
  0
LAYER
  5
4C
330
2
100
AcDbSymbolTableRecord
100
AcDbLayerTableRecord
  2
Shape2DView002
 70
    0
 62
    7
  6
CONTINUOUS
370
   -3
390
F
  0
LAYER
  5
4D
330
2
100
AcDbSymbolTableRecord
100
AcDbLayerTableRecord
  2
Shape2DView003
 70
    0
 62
    7
  6
CONTINUOUS
370
   -3
390
F
  0
LAYER
  5
4E
330
2
100
AcDbSymbolTableRecord
100
AcDbLayerTableRecord
  2
Shape2DView004
 70
    0
 62
    7
  6
CONTINUOUS
370
   -3
390
F
  0
LAYER
  5
4F
330
2
100
AcDbSymbolTableRecord
100
AcDbLayerTableRecord
  2
Shape2DView005
 70
    0
 62
    7
  6
CONTINUOUS
370
   -3
390
F
  0
LAYER
  5
50
330
2
100
AcDbSymbolTableRecord
100
AcDbLayerTableRecord
  2
Shape2DView006
 70
    0
 62
    7
  6
CONTINUOUS
370
   -3
390
F
  0
LAYER
  5
51
330
2
100
AcDbSymbolTableRecord
100
AcDbLayerTableRecord
  2
Shape2DView008
 70
    0
 62
    7
  6
CONTINUOUS
370
   -3
390
F
  0
LAYER
  5
52
330
2
100
AcDbSymbolTableRecord
100
AcDbLayerTableRecord
  2
Shape2DView010
 70
    0
 62
    7
  6
CONTINUOUS
370
   -3
390
F
  0
LAYER
  5
53
330
2
100
AcDbSymbolTableRecord
100
AcDbLayerTableRecord
  2
Shape2DView011
 70
    0
 62
    7
  6
CONTINUOUS
370
   -3
390
F
  0
LAYER
  5
54
330
2
100
AcDbSymbolTableRecord
100
AcDbLayerTableRecord
  2
none
 70
    0
 62
    7
  6
CONTINUOUS
370
   -3
390
F
  0
ENDTAB
  0
TABLE
  2
STYLE
  5
3
330
0
100
AcDbSymbolTable
 70
    3
  0
STYLE
  5
55
330
2
100
AcDbSymbolTableRecord
100
AcDbTextStyleTableRecord
  2
Standard
 70
    0
 40
0
 41
1
 50
0
 71
    0
 42
1
  3
txt
  4

  0
ENDTAB
  0
TABLE
  2
VIEW
  5
6
330
0
100
AcDbSymbolTable
 70
    0
  0
ENDTAB
  0
TABLE
  2
UCS
  5
7
330
0
100
AcDbSymbolTable
 70
    0
  0
ENDTAB
  0
TABLE
  2
APPID
  5
9
330
0
100
AcDbSymbolTable
 70
    1
  0
APPID
  5
12
330
9
100
AcDbSymbolTableRecord
100
AcDbRegAppTableRecord
  2
ACAD
 70
    0
  0
APPID
  5
56
330
9
100
AcDbSymbolTableRecord
100
AcDbRegAppTableRecord
  2
LibreCad
 70
    0
  0
ENDTAB
  0
TABLE
  2
DIMSTYLE
  5
A
330
0
100
AcDbSymbolTable
 70
    1
100
AcDbDimStyleTable
 71
    1
  0
DIMSTYLE
105
57
330
A
100
AcDbSymbolTableRecord
100
AcDbDimStyleTableRecord
  2
Standard
 70
    0
 40
1
 41
2.5
 42
0.625
 43
0.38
 44
1.25
 45
0
 46
0
 47
0
 48
0
 49
1
140
2.5
141
0.09
142
2.5
143
25.4
144
1
145
0
146
1
147
0.625
148
0
 71
    0
 72
    0
 73
    0
 74
    1
 75
    0
 76
    0
 77
    0
 78
    1
 79
    0
170
    0
171
    2
172
    0
173
    0
174
    0
175
    0
176
    0
177
    0
178
    0
179
    0
271
    2
272
    4
273
    2
274
    2
275
    0
276
    0
277
    2
278
    0
279
    0
280
    0
281
    0
282
    0
283
    1
284
    0
285
    0
286
    0
288
    0
289
    3
340
STANDARD
341

371
   -2
372
   -2
  0
ENDTAB
  0
TABLE
  2
BLOCK_RECORD
  5
1
330
0
100
AcDbSymbolTable
 70
    2
  0
BLOCK_RECORD
  5
1F
330
1
100
AcDbSymbolTableRecord
100
AcDbBlockTableRecord
  2
*Model_Space
 70
    0
280
    1
281
    0
  0
BLOCK_RECORD
  5
1E
330
1
100
AcDbSymbolTableRecord
100
AcDbBlockTableRecord
  2
*Paper_Space
 70
    0
280
    1
281
    0
  0
ENDTAB
  0
ENDSEC
  0
SECTION
  2
BLOCKS
  0
BLOCK
  5
20
330
1F
100
AcDbEntity
  8
0
100
AcDbBlockBegin
  2
*Model_Space
 70
    0
 10
0
 20
0
 30
0
  3
*Model_Space
  1

  0
ENDBLK
  5
21
330
1F
100
AcDbEntity
  8
0
100
AcDbBlockEnd
  0
BLOCK
  5
1C
330
1B
100
AcDbEntity
  8
0
100
AcDbBlockBegin
  2
*Paper_Space
 70
    0
 10
0
 20
0
 30
0
  3
*Paper_Space
  1

  0
ENDBLK
  5
1D
330
1F
100
AcDbEntity
  8
0
100
AcDbBlockEnd
  0
ENDSEC
  0
SECTION
  2
ENTITIES
  0
LINE
  5
58
100
AcDbEntity
  8
Shape2DView
  6
ByLayer
 62
  256
370
   -1
100
AcDbLine
 10
0
 20
77.8
 11
20.36665
 21
77.8
  0
LINE
  5
59
100
AcDbEntity
  8
Shape2DView
  6
ByLayer
 62
  256
370
   -1
100
AcDbLine
 10
20.36665
 20
77.8
 11
20.36665
 21
80.59999999999999
  0
LINE
  5
5A
100
AcDbEntity
  8
Shape2DView
  6
ByLayer
 62
  256
370
   -1
100
AcDbLine
 10
0
 20
57.45665
 11
0
 21
77.8
  0
LINE
  5
5B
100
AcDbEntity
  8
Shape2DView
  6
ByLayer
 62
  256
370
   -1
100
AcDbLine
 10
2.574660682
 20
57.45665
 11
0
 21
57.45665
  0
ARC
  5
5C
100
AcDbEntity
  8
Shape2DView
  6
ByLayer
 62
  256
370
   -1
100
AcDbCircle
 10
20.36665
 20
2.8
 40
0.186666667
100
AcDbArc
 50
-90
 51
0
  0
ARC
  5
5D
100
AcDbEntity
  8
Shape2DView
  6
ByLayer
 62
  256
370
   -1
100
AcDbCircle
 10
20.36665
 20
2.8
 40
0.186666667
100
AcDbArc
 50
0
 51
180
  0
LINE
  5
5E
100
AcDbEntity
  8
Shape2DView
  6
ByLayer
 62
  256
370
   -1
100
AcDbLine
 10
20.179983333
 20
2.8
 11
0
 21
2.8
  0
LINE
  5
5F
100
AcDbEntity
  8
Shape2DView
  6
ByLayer
 62
  256
370
   -1
100
AcDbLine
 10
0
 20
2.8
 11
0
 21
23.14335
  0
LINE
  5
60
100
AcDbEntity
  8
Shape2DView
  6
ByLayer
 62
  256
370
   -1
100
AcDbLine
 10
2.574660682
 20
23.14335
 11
0
 21
23.14335
  0
ARC
  5
61
100
AcDbEntity
  8
Shape2DView
  6
ByLayer
 62
  256
370
   -1
100
AcDbCircle
 10
2.747095
 20
23.242905
 40
0.19911
100
AcDbArc
 50
-150
 51
59.99999999999999
  0
LINE
  5
62
100
AcDbEntity
  8
Shape2DView
  6
ByLayer
 62
  256
370
   -1
100
AcDbLine
 10
2.84665
 20
34.684660682
 11
2.84665
 21
23.415339318
  0
ARC
  5
63
100
AcDbEntity
  8
Shape2DView
  6
ByLayer
 62
  256
370
   -1
100
AcDbCircle
 10
2.747095
 20
34.857095
 40
0.19911
100
AcDbArc
 50
-59.99999999999999
 51
150
  0
LINE
  5
64
100
AcDbEntity
  8
Shape2DView
  6
ByLayer
 62
  256
370
   -1
100
AcDbLine
 10
2.574660682
 20
34.95665
 11
0
 21
34.95665
  0
LINE
  5
65
100
AcDbEntity
  8
Shape2DView
  6
ByLayer
 62
  256
370
   -1
100
AcDbLine
 10
0
 20
34.95665
 11
0
 21
45.64335
  0
LINE
  5
66
100
AcDbEntity
  8
Shape2DView
  6
ByLayer
 62
  256
370
   -1
100
AcDbLine
 10
2.574660682
 20
45.64335
 11
0
 21
45.64335
  0
ARC
  5
67
100
AcDbEntity
  8
Shape2DView
  6
ByLayer
 62
  256
370
   -1
100
AcDbCircle
 10
2.747095
 20
45.742905
 40
0.19911
100
AcDbArc
 50
-150
 51
59.99999999999999
  0
LINE
  5
68
100
AcDbEntity
  8
Shape2DView
  6
ByLayer
 62
  256
370
   -1
100
AcDbLine
 10
2.84665
 20
57.184660682
 11
2.84665
 21
45.915339318
  0
ARC
  5
69
100
AcDbEntity
  8
Shape2DView
  6
ByLayer
 62
  256
370
   -1
100
AcDbCircle
 10
2.747095
 20
57.357095
 40
0.19911
100
AcDbArc
 50
-59.99999999999999
 51
150
  0
LINE
  5
6A
100
AcDbEntity
  8
Shape2DView
  6
ByLayer
 62
  256
370
   -1
100
AcDbLine
 10
32.55335
 20
80.59999999999999
 11
20.36665
 21
80.59999999999999
  0
LINE
  5
6B
100
AcDbEntity
  8
Shape2DView
  6
ByLayer
 62
  256
370
   -1
100
AcDbLine
 10
32.55335
 20
77.8
 11
32.55335
 21
80.59999999999999
  0
LINE
  5
6C
100
AcDbEntity
  8
Shape2DView
  6
ByLayer
 62
  256
370
   -1
100
AcDbLine
 10
32.55335
 20
77.8
 11
43.04665
 21
77.8
  0
LINE
  5
6D
100
AcDbEntity
  8
Shape2DView
  6
ByLayer
 62
  256
370
   -1
100
AcDbLine
 10
43.04665
 20
77.8
 11
43.04665
 21
80.59999999999999
  0
LINE
  5
6E
100
AcDbEntity
  8
Shape2DView
  6
ByLayer
 62
  256
370
   -1
100
AcDbLine
 10
55.23335
 20
80.59999999999999
 11
43.04665
 21
80.59999999999999
  0
LINE
  5
6F
100
AcDbEntity
  8
Shape2DView
  6
ByLayer
 62
  256
370
   -1
100
AcDbLine
 10
55.23335
 20
77.8
 11
55.23335
 21
80.59999999999999
  0
LINE
  5
70
100
AcDbEntity
  8
Shape2DView
  6
ByLayer
 62
  256
370
   -1
100
AcDbLine
 10
55.23335
 20
77.8
 11
75.59999999999999
 21
77.8
  0
LINE
  5
71
100
AcDbEntity
  8
Shape2DView
  6
ByLayer
 62
  256
370
   -1
100
AcDbLine
 10
75.59999999999999
 20
77.8
 11
75.59999999999999
 21
57.45665
  0
LINE
  5
72
100
AcDbEntity
  8
Shape2DView
  6
ByLayer
 62
  256
370
   -1
100
AcDbLine
 10
73.02533931799999
 20
57.45665
 11
75.59999999999999
 21
57.45665
  0
ARC
  5
73
100
AcDbEntity
  8
Shape2DView
  6
ByLayer
 62
  256
370
   -1
100
AcDbCircle
 10
72.85290500000001
 20
57.357095
 40
0.19911
100
AcDbArc
 50
30
 51
-120
  0
LINE
  5
74
100
AcDbEntity
  8
Shape2DView
  6
ByLayer
 62
  256
370
   -1
100
AcDbLine
 10
72.75335
 20
45.915339318
 11
72.75335
 21
57.184660682
  0
ARC
  5
75
100
AcDbEntity
  8
Shape2DView
  6
ByLayer
 62
  256
370
   -1
100
AcDbCircle
 10
72.85290500000001
 20
45.742905
 40
0.19911
100
AcDbArc
 50
120
 51
-30
  0
LINE
  5
76
100
AcDbEntity
  8
Shape2DView
  6
ByLayer
 62
  256
370
   -1
100
AcDbLine
 10
73.02533931799999
 20
45.64335
 11
75.59999999999999
 21
45.64335
  0
LINE
  5
77
100
AcDbEntity
  8
Shape2DView
  6
ByLayer
 62
  256
370
   -1
100
AcDbLine
 10
75.59999999999999
 20
45.64335
 11
75.59999999999999
 21
34.95665
  0
LINE
  5
78
100
AcDbEntity
  8
Shape2DView
  6
ByLayer
 62
  256
370
   -1
100
AcDbLine
 10
73.02533931799999
 20
34.95665
 11
75.59999999999999
 21
34.95665
  0
ARC
  5
79
100
AcDbEntity
  8
Shape2DView
  6
ByLayer
 62
  256
370
   -1
100
AcDbCircle
 10
72.85290500000001
 20
34.857095
 40
0.19911
100
AcDbArc
 50
30
 51
-120
  0
LINE
  5
7A
100
AcDbEntity
  8
Shape2DView
  6
ByLayer
 62
  256
370
   -1
100
AcDbLine
 10
72.75335
 20
23.415339318
 11
72.75335
 21
34.684660682
  0
ARC
  5
7B
100
AcDbEntity
  8
Shape2DView
  6
ByLayer
 62
  256
370
   -1
100
AcDbCircle
 10
72.85290500000001
 20
23.242905
 40
0.19911
100
AcDbArc
 50
120
 51
-30
  0
LINE
  5
7C
100
AcDbEntity
  8
Shape2DView
  6
ByLayer
 62
  256
370
   -1
100
AcDbLine
 10
73.02533931799999
 20
23.14335
 11
75.59999999999999
 21
23.14335
  0
LINE
  5
7D
100
AcDbEntity
  8
Shape2DView
  6
ByLayer
 62
  256
370
   -1
100
AcDbLine
 10
75.59999999999999
 20
23.14335
 11
75.59999999999999
 21
2.8
  0
LINE
  5
7E
100
AcDbEntity
  8
Shape2DView
  6
ByLayer
 62
  256
370
   -1
100
AcDbLine
 10
75.59999999999999
 20
2.8
 11
55.420016667
 21
2.8
  0
ARC
  5
7F
100
AcDbEntity
  8
Shape2DView
  6
ByLayer
 62
  256
370
   -1
100
AcDbCircle
 10
55.23335
 20
2.8
 40
0.186666667
100
AcDbArc
 50
-0
 51
-180
  0
ARC
  5
80
100
AcDbEntity
  8
Shape2DView
  6
ByLayer
 62
  256
370
   -1
100
AcDbCircle
 10
55.23335
 20
2.8
 40
0.186666667
100
AcDbArc
 50
-180
 51
-90
  0
LINE
  5
81
100
AcDbEntity
  8
Shape2DView
  6
ByLayer
 62
  256
370
   -1
100
AcDbLine
 10
55.23335
 20
2.613333333
 11
55.23335
 21
0
  0
LINE
  5
82
100
AcDbEntity
  8
Shape2DView
  6
ByLayer
 62
  256
370
   -1
100
AcDbLine
 10
43.04665
 20
0
 11
55.23335
 21
0
  0
LINE
  5
83
100
AcDbEntity
  8
Shape2DView
  6
ByLayer
 62
  256
370
   -1
100
AcDbLine
 10
43.04665
 20
2.613333333
 11
43.04665
 21
0
  0
ARC
  5
84
100
AcDbEntity
  8
Shape2DView
  6
ByLayer
 62
  256
370
   -1
100
AcDbCircle
 10
43.04665
 20
2.8
 40
0.186666667
100
AcDbArc
 50
-90
 51
0
  0
ARC
  5
85
100
AcDbEntity
  8
Shape2DView
  6
ByLayer
 62
  256
370
   -1
100
AcDbCircle
 10
43.04665
 20
2.8
 40
0.186666667
100
AcDbArc
 50
0
 51
180
  0
LINE
  5
86
100
AcDbEntity
  8
Shape2DView
  6
ByLayer
 62
  256
370
   -1
100
AcDbLine
 10
42.859983333
 20
2.8
 11
32.740016667
 21
2.8
  0
ARC
  5
87
100
AcDbEntity
  8
Shape2DView
  6
ByLayer
 62
  256
370
   -1
100
AcDbCircle
 10
32.55335
 20
2.8
 40
0.186666667
100
AcDbArc
 50
0
 51
180
  0
ARC
  5
88
100
AcDbEntity
  8
Shape2DView
  6
ByLayer
 62
  256
370
   -1
100
AcDbCircle
 10
32.55335
 20
2.8
 40
0.186666667
100
AcDbArc
 50
180
 51
-90
  0
LINE
  5
89
100
AcDbEntity
  8
Shape2DView
  6
ByLayer
 62
  256
370
   -1
100
AcDbLine
 10
32.55335
 20
2.613333333
 11
32.55335
 21
-0
  0
LINE
  5
8A
100
AcDbEntity
  8
Shape2DView
  6
ByLayer
 62
  256
370
   -1
100
AcDbLine
 10
20.36665
 20
-0
 11
32.55335
 21
-0
  0
LINE
  5
8B
100
AcDbEntity
  8
Shape2DView
  6
ByLayer
 62
  256
370
   -1
100
AcDbLine
 10
20.36665
 20
2.613333333
 11
20.36665
 21
-0
  0
ARC
  5
8C
100
AcDbEntity
  8
Shape2DView001
  6
ByLayer
 62
  256
370
   -1
100
AcDbCircle
 10
150.625876031
 20
47.058688404
 40
0.186666667
100
AcDbArc
 50
20
 51
-160
  0
ARC
  5
8D
100
AcDbEntity
  8
Shape2DView001
  6
ByLayer
 62
  256
370
   -1
100
AcDbCircle
 10
150.625876031
 20
47.058688404
 40
0.186666667
100
AcDbArc
 50
-160
 51
-70
  0
LINE
  5
8E
100
AcDbEntity
  8
Shape2DView001
  6
ByLayer
 62
  256
370
   -1
100
AcDbLine
 10
150.80128532
 20
47.122532164
 11
166.4
 21
52.8
  0
LINE
  5
8F
100
AcDbEntity
  8
Shape2DView001
  6
ByLayer
 62
  256
370
   -1
100
AcDbLine
 10
166.4
 20
52.8
 11
166.4
 21
37.8
  0
LINE
  5
90
100
AcDbEntity
  8
Shape2DView001
  6
ByLayer
 62
  256
370
   -1
100
AcDbLine
 10
183.4
 20
37.8
 11
183.4
 21
51.519983333
  0
ARC
  5
91
100
AcDbEntity
  8
Shape2DView001
  6
ByLayer
 62
  256
370
   -1
100
AcDbCircle
 10
183.4
 20
51.70665
 40
0.186666667
100
AcDbArc
 50
0
 51
90
  0
ARC
  5
92
100
AcDbEntity
  8
Shape2DView001
  6
ByLayer
 62
  256
370
   -1
100
AcDbCircle
 10
183.4
 20
51.70665
 40
0.186666667
100
AcDbArc
 50
90
 51
-90
  0
LINE
  5
93
100
AcDbEntity
  8
Shape2DView001
  6
ByLayer
 62
  256
370
   -1
100
AcDbLine
 10
166.4
 20
37.8
 11
183.4
 21
37.8
  0
LINE
  5
94
100
AcDbEntity
  8
Shape2DView001
  6
ByLayer
 62
  256
370
   -1
100
AcDbLine
 10
183.586666667
 20
51.70665
 11
186.2
 21
51.70665
  0
LINE
  5
95
100
AcDbEntity
  8
Shape2DView001
  6
ByLayer
 62
  256
370
   -1
100
AcDbLine
 10
186.2
 20
51.70665
 11
186.2
 21
63.89335
  0
ARC
  5
96
100
AcDbEntity
  8
Shape2DView001
  6
ByLayer
 62
  256
370
   -1
100
AcDbCircle
 10
183.4
 20
63.89335
 40
0.186666667
100
AcDbArc
 50
90
 51
-90
  0
ARC
  5
97
100
AcDbEntity
  8
Shape2DView001
  6
ByLayer
 62
  256
370
   -1
100
AcDbCircle
 10
183.4
 20
63.89335
 40
0.186666667
100
AcDbArc
 50
-90
 51
0
  0
LINE
  5
98
100
AcDbEntity
  8
Shape2DView001
  6
ByLayer
 62
  256
370
   -1
100
AcDbLine
 10
183.4
 20
64.080016667
 11
183.4
 21
77.8
  0
LINE
  5
99
100
AcDbEntity
  8
Shape2DView001
  6
ByLayer
 62
  256
370
   -1
100
AcDbLine
 10
183.4
 20
77.8
 11
163.555016667
 21
77.8
  0
ARC
  5
9A
100
AcDbEntity
  8
Shape2DView001
  6
ByLayer
 62
  256
370
   -1
100
AcDbCircle
 10
163.36835
 20
77.8
 40
0.186666667
100
AcDbArc
 50
90
 51
180
  0
ARC
  5
9B
100
AcDbEntity
  8
Shape2DView001
  6
ByLayer
 62
  256
370
   -1
100
AcDbCircle
 10
163.36835
 20
77.8
 40
0.186666667
100
AcDbArc
 50
180
 51
0
  0
LINE
  5
9C
100
AcDbEntity
  8
Shape2DView001
  6
ByLayer
 62
  256
370
   -1
100
AcDbLine
 10
183.586666667
 20
63.89335
 11
186.2
 21
63.89335
  0
LINE
  5
9D
100
AcDbEntity
  8
Shape2DView001
  6
ByLayer
 62
  256
370
   -1
100
AcDbLine
 10
163.36835
 20
77.98666666699999
 11
163.36835
 21
80.59999999999999
  0
LINE
  5
9E
100
AcDbEntity
  8
Shape2DView001
  6
ByLayer
 62
  256
370
   -1
100
AcDbLine
 10
151.18165
 20
80.59999999999999
 11
163.36835
 21
80.59999999999999
  0
LINE
  5
9F
100
AcDbEntity
  8
Shape2DView001
  6
ByLayer
 62
  256
370
   -1
100
AcDbLine
 10
151.18165
 20
77.98666666699999
 11
151.18165
 21
80.59999999999999
  0
ARC
  5
A0
100
AcDbEntity
  8
Shape2DView001
  6
ByLayer
 62
  256
370
   -1
100
AcDbCircle
 10
151.18165
 20
77.8
 40
0.186666667
100
AcDbArc
 50
180
 51
0
  0
ARC
  5
A1
100
AcDbEntity
  8
Shape2DView001
  6
ByLayer
 62
  256
370
   -1
100
AcDbCircle
 10
151.18165
 20
77.8
 40
0.186666667
100
AcDbArc
 50
0
 51
90
  0
LINE
  5
A2
100
AcDbEntity
  8
Shape2DView001
  6
ByLayer
 62
  256
370
   -1
100
AcDbLine
 10
150.994983333
 20
77.8
 11
120.805016667
 21
77.8
  0
ARC
  5
A3
100
AcDbEntity
  8
Shape2DView001
  6
ByLayer
 62
  256
370
   -1
100
AcDbCircle
 10
120.61835
 20
77.8
 40
0.186666667
100
AcDbArc
 50
90
 51
180
  0
ARC
  5
A4
100
AcDbEntity
  8
Shape2DView001
  6
ByLayer
 62
  256
370
   -1
100
AcDbCircle
 10
120.61835
 20
77.8
 40
0.186666667
100
AcDbArc
 50
180
 51
0
  0
LINE
  5
A5
100
AcDbEntity
  8
Shape2DView001
  6
ByLayer
 62
  256
370
   -1
100
AcDbLine
 10
120.61835
 20
77.98666666699999
 11
120.61835
 21
80.59999999999999
  0
LINE
  5
A6
100
AcDbEntity
  8
Shape2DView001
  6
ByLayer
 62
  256
370
   -1
100
AcDbLine
 10
108.43165
 20
80.59999999999999
 11
120.61835
 21
80.59999999999999
  0
LINE
  5
A7
100
AcDbEntity
  8
Shape2DView001
  6
ByLayer
 62
  256
370
   -1
100
AcDbLine
 10
108.43165
 20
77.98666666699999
 11
108.43165
 21
80.59999999999999
  0
ARC
  5
A8
100
AcDbEntity
  8
Shape2DView001
  6
ByLayer
 62
  256
370
   -1
100
AcDbCircle
 10
108.43165
 20
77.8
 40
0.186666667
100
AcDbArc
 50
180
 51
0
  0
ARC
  5
A9
100
AcDbEntity
  8
Shape2DView001
  6
ByLayer
 62
  256
370
   -1
100
AcDbCircle
 10
108.43165
 20
77.8
 40
0.186666667
100
AcDbArc
 50
0
 51
90
  0
LINE
  5
AA
100
AcDbEntity
  8
Shape2DView001
  6
ByLayer
 62
  256
370
   -1
100
AcDbLine
 10
108.244983333
 20
77.8
 11
88.40000000000001
 21
77.8
  0
LINE
  5
AB
100
AcDbEntity
  8
Shape2DView001
  6
ByLayer
 62
  256
370
   -1
100
AcDbLine
 10
88.40000000000001
 20
77.8
 11
88.40000000000001
 21
57.830016667
  0
ARC
  5
AC
100
AcDbEntity
  8
Shape2DView001
  6
ByLayer
 62
  256
370
   -1
100
AcDbCircle
 10
88.40000000000001
 20
57.64335
 40
0.186666667
100
AcDbArc
 50
180
 51
-90
  0
ARC
  5
AD
100
AcDbEntity
  8
Shape2DView001
  6
ByLayer
 62
  256
370
   -1
100
AcDbCircle
 10
88.40000000000001
 20
57.64335
 40
0.186666667
100
AcDbArc
 50
-90
 51
90
  0
LINE
  5
AE
100
AcDbEntity
  8
Shape2DView001
  6
ByLayer
 62
  256
370
   -1
100
AcDbLine
 10
88.21333333299999
 20
57.64335
 11
85.59999999999999
 21
57.64335
  0
LINE
  5
AF
100
AcDbEntity
  8
Shape2DView001
  6
ByLayer
 62
  256
370
   -1
100
AcDbLine
 10
85.59999999999999
 20
45.45665
 11
85.59999999999999
 21
57.64335
  0
LINE
  5
B0
100
AcDbEntity
  8
Shape2DView001
  6
ByLayer
 62
  256
370
   -1
100
AcDbLine
 10
88.21333333299999
 20
45.45665
 11
85.59999999999999
 21
45.45665
  0
ARC
  5
B1
100
AcDbEntity
  8
Shape2DView001
  6
ByLayer
 62
  256
370
   -1
100
AcDbCircle
 10
88.40000000000001
 20
45.45665
 40
0.186666667
100
AcDbArc
 50
-90
 51
90
  0
ARC
  5
B2
100
AcDbEntity
  8
Shape2DView001
  6
ByLayer
 62
  256
370
   -1
100
AcDbCircle
 10
88.40000000000001
 20
45.45665
 40
0.186666667
100
AcDbArc
 50
90
 51
180
  0
LINE
  5
B3
100
AcDbEntity
  8
Shape2DView001
  6
ByLayer
 62
  256
370
   -1
100
AcDbLine
 10
88.40000000000001
 20
45.269983333
 11
88.40000000000001
 21
35.330016667
  0
ARC
  5
B4
100
AcDbEntity
  8
Shape2DView001
  6
ByLayer
 62
  256
370
   -1
100
AcDbCircle
 10
88.40000000000001
 20
35.14335
 40
0.186666667
100
AcDbArc
 50
180
 51
-90
  0
ARC
  5
B5
100
AcDbEntity
  8
Shape2DView001
  6
ByLayer
 62
  256
370
   -1
100
AcDbCircle
 10
88.40000000000001
 20
35.14335
 40
0.186666667
100
AcDbArc
 50
-90
 51
90
  0
LINE
  5
B6
100
AcDbEntity
  8
Shape2DView001
  6
ByLayer
 62
  256
370
   -1
100
AcDbLine
 10
88.21333333299999
 20
35.14335
 11
85.59999999999999
 21
35.14335
  0
LINE
  5
B7
100
AcDbEntity
  8
Shape2DView001
  6
ByLayer
 62
  256
370
   -1
100
AcDbLine
 10
85.59999999999999
 20
22.95665
 11
85.59999999999999
 21
35.14335
  0
LINE
  5
B8
100
AcDbEntity
  8
Shape2DView001
  6
ByLayer
 62
  256
370
   -1
100
AcDbLine
 10
88.21333333299999
 20
22.95665
 11
85.59999999999999
 21
22.95665
  0
ARC
  5
B9
100
AcDbEntity
  8
Shape2DView001
  6
ByLayer
 62
  256
370
   -1
100
AcDbCircle
 10
88.40000000000001
 20
22.95665
 40
0.186666667
100
AcDbArc
 50
-90
 51
90
  0
ARC
  5
BA
100
AcDbEntity
  8
Shape2DView001
  6
ByLayer
 62
  256
370
   -1
100
AcDbCircle
 10
88.40000000000001
 20
22.95665
 40
0.186666667
100
AcDbArc
 50
90
 51
180
  0
LINE
  5
BB
100
AcDbEntity
  8
Shape2DView001
  6
ByLayer
 62
  256
370
   -1
100
AcDbLine
 10
88.40000000000001
 20
22.769983333
 11
88.40000000000001
 21
2.8
  0
LINE
  5
BC
100
AcDbEntity
  8
Shape2DView001
  6
ByLayer
 62
  256
370
   -1
100
AcDbLine
 10
88.40000000000001
 20
2.8
 11
99.61998333299999
 21
2.8
  0
ARC
  5
BD
100
AcDbEntity
  8
Shape2DView001
  6
ByLayer
 62
  256
370
   -1
100
AcDbCircle
 10
99.80665
 20
2.8
 40
0.186666667
100
AcDbArc
 50
-90
 51
-0
  0
ARC
  5
BE
100
AcDbEntity
  8
Shape2DView001
  6
ByLayer
 62
  256
370
   -1
100
AcDbCircle
 10
99.80665
 20
2.8
 40
0.186666667
100
AcDbArc
 50
-0
 51
-180
  0
LINE
  5
BF
100
AcDbEntity
  8
Shape2DView001
  6
ByLayer
 62
  256
370
   -1
100
AcDbLine
 10
99.80665
 20
2.613333333
 11
99.80665
 21
-0
  0
LINE
  5
C0
100
AcDbEntity
  8
Shape2DView001
  6
ByLayer
 62
  256
370
   -1
100
AcDbLine
 10
111.99335
 20
-0
 11
99.80665
 21
-0
  0
LINE
  5
C1
100
AcDbEntity
  8
Shape2DView001
  6
ByLayer
 62
  256
370
   -1
100
AcDbLine
 10
111.99335
 20
2.613333333
 11
111.99335
 21
-0
  0
ARC
  5
C2
100
AcDbEntity
  8
Shape2DView001
  6
ByLayer
 62
  256
370
   -1
100
AcDbCircle
 10
111.99335
 20
2.8
 40
0.186666667
100
AcDbArc
 50
-0
 51
-180
  0
ARC
  5
C3
100
AcDbEntity
  8
Shape2DView001
  6
ByLayer
 62
  256
370
   -1
100
AcDbCircle
 10
111.99335
 20
2.8
 40
0.186666667
100
AcDbArc
 50
-180
 51
-90
  0
LINE
  5
C4
100
AcDbEntity
  8
Shape2DView001
  6
ByLayer
 62
  256
370
   -1
100
AcDbLine
 10
112.180016667
 20
2.8
 11
123.4
 21
2.8
  0
LINE
  5
C5
100
AcDbEntity
  8
Shape2DView001
  6
ByLayer
 62
  256
370
   -1
100
AcDbLine
 10
123.4
 20
2.8
 11
123.4
 21
13.694623297
  0
ARC
  5
C6
100
AcDbEntity
  8
Shape2DView001
  6
ByLayer
 62
  256
370
   -1
100
AcDbCircle
 10
123.4
 20
13.881289963
 40
0.186666667
100
AcDbArc
 50
0
 51
90
  0
ARC
  5
C7
100
AcDbEntity
  8
Shape2DView001
  6
ByLayer
 62
  256
370
   -1
100
AcDbCircle
 10
123.4
 20
13.881289963
 40
0.186666667
100
AcDbArc
 50
90
 51
-90
  0
LINE
  5
C8
100
AcDbEntity
  8
Shape2DView001
  6
ByLayer
 62
  256
370
   -1
100
AcDbLine
 10
123.586666667
 20
13.881289963
 11
126.2
 21
13.881289963
  0
LINE
  5
C9
100
AcDbEntity
  8
Shape2DView001
  6
ByLayer
 62
  256
370
   -1
100
AcDbLine
 10
126.2
 20
26.067989963
 11
126.2
 21
13.881289963
  0
LINE
  5
CA
100
AcDbEntity
  8
Shape2DView001
  6
ByLayer
 62
  256
370
   -1
100
AcDbLine
 10
123.586666667
 20
26.067989963
 11
126.2
 21
26.067989963
  0
ARC
  5
CB
100
AcDbEntity
  8
Shape2DView001
  6
ByLayer
 62
  256
370
   -1
100
AcDbCircle
 10
123.4
 20
26.067989963
 40
0.186666667
100
AcDbArc
 50
90
 51
-90
  0
ARC
  5
CC
100
AcDbEntity
  8
Shape2DView001
  6
ByLayer
 62
  256
370
   -1
100
AcDbCircle
 10
123.4
 20
26.067989963
 40
0.186666667
100
AcDbArc
 50
-90
 51
0
  0
LINE
  5
CD
100
AcDbEntity
  8
Shape2DView001
  6
ByLayer
 62
  256
370
   -1
100
AcDbLine
 10
123.4
 20
26.25465663
 11
123.4
 21
37.149279927
  0
LINE
  5
CE
100
AcDbEntity
  8
Shape2DView001
  6
ByLayer
 62
  256
370
   -1
100
AcDbLine
 10
123.4
 20
37.149279927
 11
138.99871468
 21
42.826747763
  0
ARC
  5
CF
100
AcDbEntity
  8
Shape2DView001
  6
ByLayer
 62
  256
370
   -1
100
AcDbCircle
 10
139.174123969
 20
42.890591523
 40
0.186666667
100
AcDbArc
 50
-70
 51
20
  0
ARC
  5
D0
100
AcDbEntity
  8
Shape2DView001
  6
ByLayer
 62
  256
370
   -1
100
AcDbCircle
 10
139.174123969
 20
42.890591523
 40
0.186666667
100
AcDbArc
 50
20
 51
-160
  0
LINE
  5
D1
100
AcDbEntity
  8
Shape2DView001
  6
ByLayer
 62
  256
370
   -1
100
AcDbLine
 10
139.237967729
 20
42.715182234
 11
140.13178037
 21
40.259452185
  0
LINE
  5
D2
100
AcDbEntity
  8
Shape2DView001
  6
ByLayer
 62
  256
370
   -1
100
AcDbLine
 10
151.583532432
 20
44.427549065
 11
140.13178037
 21
40.259452185
  0
LINE
  5
D3
100
AcDbEntity
  8
Shape2DView001
  6
ByLayer
 62
  256
370
   -1
100
AcDbLine
 10
150.689719791
 20
46.883279114
 11
151.583532432
 21
44.427549065
  0
ARC
  5
D4
100
AcDbEntity
  8
Shape2DView001
  6
ByLayer
 62
  256
370
   -1
100
AcDbCircle
 10
117.737952661
 20
61.887665592
 40
0.25
100
AcDbArc
 50
-160
 51
-100
  0
ARC
  5
D5
100
AcDbEntity
  8
Shape2DView001
  6
ByLayer
 62
  256
370
   -1
100
AcDbCircle
 10
117.651128573
 20
61.395261715
 40
0.25
100
AcDbArc
 50
-130
 51
80
  0
ARC
  5
D6
100
AcDbEntity
  8
Shape2DView001
  6
ByLayer
 62
  256
370
   -1
100
AcDbCircle
 10
117.329734768
 20
61.012239494
 40
0.25
100
AcDbArc
 50
50
 51
110
  0
LINE
  5
D7
100
AcDbEntity
  8
Shape2DView001
  6
ByLayer
 62
  256
370
   -1
100
AcDbLine
 10
100.495172331
 20
55.151004303
 11
117.244229732
 21
61.247162649
  0
ARC
  5
D8
100
AcDbEntity
  8
Shape2DView001
  6
ByLayer
 62
  256
370
   -1
100
AcDbCircle
 10
100.580677367
 20
54.916081148
 40
0.25
100
AcDbArc
 50
110
 51
170
  0
ARC
  5
D9
100
AcDbEntity
  8
Shape2DView001
  6
ByLayer
 62
  256
370
   -1
100
AcDbCircle
 10
100.08827349
 20
55.002905236
 40
0.25
100
AcDbArc
 50
139.999999995
 51
-10
  0
ARC
  5
DA
100
AcDbEntity
  8
Shape2DView001
  6
ByLayer
 62
  256
370
   -1
100
AcDbCircle
 10
99.705251269
 20
55.324299041
 40
0.25
100
AcDbArc
 50
-40.000000004
 51
20
  0
LINE
  5
DB
100
AcDbEntity
  8
Shape2DView001
  6
ByLayer
 62
  256
370
   -1
100
AcDbLine
 10
99.278716155
 20
57.227145734
 11
99.94017442400001
 21
55.409804077
  0
ARC
  5
DC
100
AcDbEntity
  8
Shape2DView001
  6
ByLayer
 62
  256
370
   -1
100
AcDbCircle
 10
99.04379299999999
 20
57.141640698
 40
0.25
100
AcDbArc
 50
20
 51
80.000000004
  0
ARC
  5
DD
100
AcDbEntity
  8
Shape2DView001
  6
ByLayer
 62
  256
370
   -1
100
AcDbCircle
 10
99.130617089
 20
57.634044575
 40
0.25
100
AcDbArc
 50
50
 51
-99.999999995
  0
ARC
  5
DE
100
AcDbEntity
  8
Shape2DView001
  6
ByLayer
 62
  256
370
   -1
100
AcDbCircle
 10
99.452010894
 20
58.017066796
 40
0.25
100
AcDbArc
 50
-130
 51
-70
  0
LINE
  5
DF
100
AcDbEntity
  8
Shape2DView001
  6
ByLayer
 62
  256
370
   -1
100
AcDbLine
 10
116.286573331
 20
63.878301987
 11
99.53751592899999
 21
57.782143641
  0
ARC
  5
E0
100
AcDbEntity
  8
Shape2DView001
  6
ByLayer
 62
  256
370
   -1
100
AcDbCircle
 10
116.201068295
 20
64.113225142
 40
0.25
100
AcDbArc
 50
-70
 51
-10
  0
ARC
  5
E1
100
AcDbEntity
  8
Shape2DView001
  6
ByLayer
 62
  256
370
   -1
100
AcDbCircle
 10
116.693472171
 20
64.026401053
 40
0.25
100
AcDbArc
 50
-40
 51
170
  0
ARC
  5
E2
100
AcDbEntity
  8
Shape2DView001
  6
ByLayer
 62
  256
370
   -1
100
AcDbCircle
 10
117.076494393
 20
63.705007248
 40
0.25
100
AcDbArc
 50
140
 51
-160
  0
LINE
  5
E3
100
AcDbEntity
  8
Shape2DView001
  6
ByLayer
 62
  256
370
   -1
100
AcDbLine
 10
117.503029506
 20
61.802160556
 11
116.841571238
 21
63.619502213
  0
ARC
  5
E4
100
AcDbEntity
  8
Shape2DView001
  6
ByLayer
 62
  256
370
   -1
100
AcDbCircle
 10
144.697733952
 20
71.70022350399999
 40
0.25
100
AcDbArc
 50
-160
 51
-100
  0
ARC
  5
E5
100
AcDbEntity
  8
Shape2DView001
  6
ByLayer
 62
  256
370
   -1
100
AcDbCircle
 10
144.610909863
 20
71.20781962700001
 40
0.25
100
AcDbArc
 50
-130
 51
80
  0
ARC
  5
E6
100
AcDbEntity
  8
Shape2DView001
  6
ByLayer
 62
  256
370
   -1
100
AcDbCircle
 10
144.289516058
 20
70.824797406
 40
0.25
100
AcDbArc
 50
50
 51
110
  0
LINE
  5
E7
100
AcDbEntity
  8
Shape2DView001
  6
ByLayer
 62
  256
370
   -1
100
AcDbLine
 10
127.454953621
 20
64.963562215
 11
144.204011022
 21
71.05972056100001
  0
ARC
  5
E8
100
AcDbEntity
  8
Shape2DView001
  6
ByLayer
 62
  256
370
   -1
100
AcDbCircle
 10
127.540458657
 20
64.72863906000001
 40
0.25
100
AcDbArc
 50
110
 51
170
  0
ARC
  5
E9
100
AcDbEntity
  8
Shape2DView001
  6
ByLayer
 62
  256
370
   -1
100
AcDbCircle
 10
127.04805478
 20
64.81546314800001
 40
0.25
100
AcDbArc
 50
140
 51
-10
  0
ARC
  5
EA
100
AcDbEntity
  8
Shape2DView001
  6
ByLayer
 62
  256
370
   -1
100
AcDbCircle
 10
126.665032559
 20
65.13685695300001
 40
0.25
100
AcDbArc
 50
-40
 51
20
  0
LINE
  5
EB
100
AcDbEntity
  8
Shape2DView001
  6
ByLayer
 62
  256
370
   -1
100
AcDbLine
 10
126.238497446
 20
67.03970364600001
 11
126.899955714
 21
65.22236198900001
  0
ARC
  5
EC
100
AcDbEntity
  8
Shape2DView001
  6
ByLayer
 62
  256
370
   -1
100
AcDbCircle
 10
126.00357429
 20
66.95419861000001
 40
0.25
100
AcDbArc
 50
20
 51
80
  0
ARC
  5
ED
100
AcDbEntity
  8
Shape2DView001
  6
ByLayer
 62
  256
370
   -1
100
AcDbCircle
 10
126.090398379
 20
67.44660248700001
 40
0.25
100
AcDbArc
 50
50
 51
-100
  0
ARC
  5
EE
100
AcDbEntity
  8
Shape2DView001
  6
ByLayer
 62
  256
370
   -1
100
AcDbCircle
 10
126.411792184
 20
67.829624708
 40
0.25
100
AcDbArc
 50
-130
 51
-70
  0
LINE
  5
EF
100
AcDbEntity
  8
Shape2DView001
  6
ByLayer
 62
  256
370
   -1
100
AcDbLine
 10
143.246354621
 20
73.690859899
 11
126.49729722
 21
67.59470155299999
  0
ARC
  5
F0
100
AcDbEntity
  8
Shape2DView001
  6
ByLayer
 62
  256
370
   -1
100
AcDbCircle
 10
143.160849585
 20
73.92578305399999
 40
0.25
100
AcDbArc
 50
-70
 51
-10
  0
ARC
  5
F1
100
AcDbEntity
  8
Shape2DView001
  6
ByLayer
 62
  256
370
   -1
100
AcDbCircle
 10
143.653253462
 20
73.838958965
 40
0.25
100
AcDbArc
 50
-40
 51
170
  0
ARC
  5
F2
100
AcDbEntity
  8
Shape2DView001
  6
ByLayer
 62
  256
370
   -1
100
AcDbCircle
 10
144.036275683
 20
73.51756516099999
 40
0.25
100
AcDbArc
 50
140
 51
-160
  0
LINE
  5
F3
100
AcDbEntity
  8
Shape2DView001
  6
ByLayer
 62
  256
370
   -1
100
AcDbLine
 10
144.462810797
 20
71.61471846800001
 11
143.801352528
 21
73.43206012500001
  0
ARC
  5
F4
100
AcDbEntity
  8
Shape2DView001
  6
ByLayer
 62
  256
370
   -1
100
AcDbCircle
 10
121.663195599
 20
43.998304562
 40
4.5
100
AcDbArc
 50
-70
 51
110
  0
LINE
  5
F5
100
AcDbEntity
  8
Shape2DView001
  6
ByLayer
 62
  256
370
   -1
100
AcDbLine
 10
123.202286244
 20
39.769687769
 11
114.745052657
 21
36.691506479
  0
ARC
  5
F6
100
AcDbEntity
  8
Shape2DView001
  6
ByLayer
 62
  256
370
   -1
100
AcDbCircle
 10
113.205962012
 20
40.920123272
 40
4.5
100
AcDbArc
 50
110
 51
-70
  0
LINE
  5
F7
100
AcDbEntity
  8
Shape2DView001
  6
ByLayer
 62
  256
370
   -1
100
AcDbLine
 10
111.666871367
 20
45.148740066
 11
120.124104954
 21
48.226921356
  0
ARC
  5
F8
100
AcDbEntity
  8
Shape2DView001
  6
ByLayer
 62
  256
370
   -1
100
AcDbCircle
 10
118.222141669
 20
54.101607111
 40
3
100
AcDbArc
 50
-70
 51
110
  0
LINE
  5
F9
100
AcDbEntity
  8
Shape2DView001
  6
ByLayer
 62
  256
370
   -1
100
AcDbLine
 10
119.248202099
 20
51.282529249
 11
110.790968512
 21
48.204347959
  0
ARC
  5
FA
100
AcDbEntity
  8
Shape2DView001
  6
ByLayer
 62
  256
370
   -1
100
AcDbCircle
 10
109.764908082
 20
51.023425821
 40
3
100
AcDbArc
 50
110
 51
-70
  0
LINE
  5
FB
100
AcDbEntity
  8
Shape2DView001
  6
ByLayer
 62
  256
370
   -1
100
AcDbLine
 10
108.738847652
 20
53.842503684
 11
117.196081239
 21
56.920684974
  0
LINE
  5
FC
100
AcDbEntity
  8
Shape2DView001
  6
ByLayer
 62
  256
370
   -1
100
AcDbLine
 10
118.15
 20
12.134791082
 11
117.05
 21
12.134791082
  0
ARC
  5
FD
100
AcDbEntity
  8
Shape2DView001
  6
ByLayer
 62
  256
370
   -1
100
AcDbCircle
 10
116.8
 20
12.134791082
 40
0.25
100
AcDbArc
 50
90
 51
0
  0
LINE
  5
FE
100
AcDbEntity
  8
Shape2DView001
  6
ByLayer
 62
  256
370
   -1
100
AcDbLine
 10
116.8
 20
12.384791082
 11
116.8
 21
24.584791082
  0
ARC
  5
FF
100
AcDbEntity
  8
Shape2DView001
  6
ByLayer
 62
  256
370
   -1
100
AcDbCircle
 10
116.8
 20
24.834791082
 40
0.25
100
AcDbArc
 50
90
 51
-90
  0
ARC
  5
100
100
AcDbEntity
  8
Shape2DView001
  6
ByLayer
 62
  256
370
   -1
100
AcDbCircle
 10
116.8
 20
24.834791082
 40
0.25
100
AcDbArc
 50
0
 51
90
  0
LINE
  5
101
100
AcDbEntity
  8
Shape2DView001
  6
ByLayer
 62
  256
370
   -1
100
AcDbLine
 10
117.05
 20
24.834791082
 11
118.15
 21
24.834791082
  0
ARC
  5
102
100
AcDbEntity
  8
Shape2DView001
  6
ByLayer
 62
  256
370
   -1
100
AcDbCircle
 10
118.4
 20
24.834791082
 40
0.25
100
AcDbArc
 50
90
 51
180
  0
ARC
  5
103
100
AcDbEntity
  8
Shape2DView001
  6
ByLayer
 62
  256
370
   -1
100
AcDbCircle
 10
118.4
 20
24.834791082
 40
0.25
100
AcDbArc
 50
-90
 51
90
  0
LINE
  5
104
100
AcDbEntity
  8
Shape2DView001
  6
ByLayer
 62
  256
370
   -1
100
AcDbLine
 10
118.4
 20
24.584791082
 11
118.4
 21
12.384791082
  0
ARC
  5
105
100
AcDbEntity
  8
Shape2DView001
  6
ByLayer
 62
  256
370
   -1
100
AcDbCircle
 10
118.4
 20
12.134791082
 40
0.25
100
AcDbArc
 50
180
 51
90
  0
ARC
  5
106
100
AcDbEntity
  8
Shape2DView002
  6
ByLayer
 62
  256
370
   -1
100
AcDbCircle
 10
231.774123969
 20
47.058688404
 40
0.186666667
100
AcDbArc
 50
-110
 51
-20
  0
ARC
  5
107
100
AcDbEntity
  8
Shape2DView002
  6
ByLayer
 62
  256
370
   -1
100
AcDbCircle
 10
231.774123969
 20
47.058688404
 40
0.186666667
100
AcDbArc
 50
-20
 51
160
  0
LINE
  5
108
100
AcDbEntity
  8
Shape2DView002
  6
ByLayer
 62
  256
370
   -1
100
AcDbLine
 10
231.59871468
 20
47.122532164
 11
216
 21
52.8
  0
LINE
  5
109
100
AcDbEntity
  8
Shape2DView002
  6
ByLayer
 62
  256
370
   -1
100
AcDbLine
 10
216
 20
52.8
 11
216
 21
37.8
  0
LINE
  5
10A
100
AcDbEntity
  8
Shape2DView002
  6
ByLayer
 62
  256
370
   -1
100
AcDbLine
 10
199
 20
37.8
 11
199
 21
51.519983333
  0
ARC
  5
10B
100
AcDbEntity
  8
Shape2DView002
  6
ByLayer
 62
  256
370
   -1
100
AcDbCircle
 10
199
 20
51.70665
 40
0.186666667
100
AcDbArc
 50
-90
 51
90
  0
ARC
  5
10C
100
AcDbEntity
  8
Shape2DView002
  6
ByLayer
 62
  256
370
   -1
100
AcDbCircle
 10
199
 20
51.70665
 40
0.186666667
100
AcDbArc
 50
90
 51
180
  0
LINE
  5
10D
100
AcDbEntity
  8
Shape2DView002
  6
ByLayer
 62
  256
370
   -1
100
AcDbLine
 10
216
 20
37.8
 11
199
 21
37.8
  0
LINE
  5
10E
100
AcDbEntity
  8
Shape2DView002
  6
ByLayer
 62
  256
370
   -1
100
AcDbLine
 10
198.813333333
 20
51.70665
 11
196.2
 21
51.70665
  0
LINE
  5
10F
100
AcDbEntity
  8
Shape2DView002
  6
ByLayer
 62
  256
370
   -1
100
AcDbLine
 10
196.2
 20
63.89335
 11
196.2
 21
51.70665
  0
LINE
  5
110
100
AcDbEntity
  8
Shape2DView002
  6
ByLayer
 62
  256
370
   -1
100
AcDbLine
 10
198.813333333
 20
63.89335
 11
196.2
 21
63.89335
  0
ARC
  5
111
100
AcDbEntity
  8
Shape2DView002
  6
ByLayer
 62
  256
370
   -1
100
AcDbCircle
 10
199
 20
63.89335
 40
0.186666667
100
AcDbArc
 50
180
 51
-90
  0
ARC
  5
112
100
AcDbEntity
  8
Shape2DView002
  6
ByLayer
 62
  256
370
   -1
100
AcDbCircle
 10
199
 20
63.89335
 40
0.186666667
100
AcDbArc
 50
-90
 51
90
  0
LINE
  5
113
100
AcDbEntity
  8
Shape2DView002
  6
ByLayer
 62
  256
370
   -1
100
AcDbLine
 10
199
 20
64.080016667
 11
199
 21
77.8
  0
LINE
  5
114
100
AcDbEntity
  8
Shape2DView002
  6
ByLayer
 62
  256
370
   -1
100
AcDbLine
 10
199
 20
77.8
 11
218.844983333
 21
77.8
  0
ARC
  5
115
100
AcDbEntity
  8
Shape2DView002
  6
ByLayer
 62
  256
370
   -1
100
AcDbCircle
 10
219.03165
 20
77.8
 40
0.186666667
100
AcDbArc
 50
180
 51
0
  0
ARC
  5
116
100
AcDbEntity
  8
Shape2DView002
  6
ByLayer
 62
  256
370
   -1
100
AcDbCircle
 10
219.03165
 20
77.8
 40
0.186666667
100
AcDbArc
 50
0
 51
90
  0
LINE
  5
117
100
AcDbEntity
  8
Shape2DView002
  6
ByLayer
 62
  256
370
   -1
100
AcDbLine
 10
219.03165
 20
77.98666666699999
 11
219.03165
 21
80.59999999999999
  0
LINE
  5
118
100
AcDbEntity
  8
Shape2DView002
  6
ByLayer
 62
  256
370
   -1
100
AcDbLine
 10
219.03165
 20
80.59999999999999
 11
231.21835
 21
80.59999999999999
  0
ARC
  5
119
100
AcDbEntity
  8
Shape2DView002
  6
ByLayer
 62
  256
370
   -1
100
AcDbCircle
 10
231.21835
 20
77.8
 40
0.186666667
100
AcDbArc
 50
90
 51
180
  0
ARC
  5
11A
100
AcDbEntity
  8
Shape2DView002
  6
ByLayer
 62
  256
370
   -1
100
AcDbCircle
 10
231.21835
 20
77.8
 40
0.186666667
100
AcDbArc
 50
180
 51
0
  0
LINE
  5
11B
100
AcDbEntity
  8
Shape2DView002
  6
ByLayer
 62
  256
370
   -1
100
AcDbLine
 10
231.405016667
 20
77.8
 11
261.594983333
 21
77.8
  0
ARC
  5
11C
100
AcDbEntity
  8
Shape2DView002
  6
ByLayer
 62
  256
370
   -1
100
AcDbCircle
 10
261.78165
 20
77.8
 40
0.186666667
100
AcDbArc
 50
180
 51
0
  0
ARC
  5
11D
100
AcDbEntity
  8
Shape2DView002
  6
ByLayer
 62
  256
370
   -1
100
AcDbCircle
 10
261.78165
 20
77.8
 40
0.186666667
100
AcDbArc
 50
0
 51
90
  0
LINE
  5
11E
100
AcDbEntity
  8
Shape2DView002
  6
ByLayer
 62
  256
370
   -1
100
AcDbLine
 10
231.21835
 20
77.98666666699999
 11
231.21835
 21
80.59999999999999
  0
LINE
  5
11F
100
AcDbEntity
  8
Shape2DView002
  6
ByLayer
 62
  256
370
   -1
100
AcDbLine
 10
261.78165
 20
77.98666666699999
 11
261.78165
 21
80.59999999999999
  0
LINE
  5
120
100
AcDbEntity
  8
Shape2DView002
  6
ByLayer
 62
  256
370
   -1
100
AcDbLine
 10
261.78165
 20
80.59999999999999
 11
273.96835
 21
80.59999999999999
  0
ARC
  5
121
100
AcDbEntity
  8
Shape2DView002
  6
ByLayer
 62
  256
370
   -1
100
AcDbCircle
 10
273.96835
 20
77.8
 40
0.186666667
100
AcDbArc
 50
90
 51
180
  0
ARC
  5
122
100
AcDbEntity
  8
Shape2DView002
  6
ByLayer
 62
  256
370
   -1
100
AcDbCircle
 10
273.96835
 20
77.8
 40
0.186666667
100
AcDbArc
 50
180
 51
0
  0
LINE
  5
123
100
AcDbEntity
  8
Shape2DView002
  6
ByLayer
 62
  256
370
   -1
100
AcDbLine
 10
274.155016667
 20
77.8
 11
294
 21
77.8
  0
LINE
  5
124
100
AcDbEntity
  8
Shape2DView002
  6
ByLayer
 62
  256
370
   -1
100
AcDbLine
 10
294
 20
77.8
 11
294
 21
57.830016667
  0
ARC
  5
125
100
AcDbEntity
  8
Shape2DView002
  6
ByLayer
 62
  256
370
   -1
100
AcDbCircle
 10
294
 20
57.64335
 40
0.186666667
100
AcDbArc
 50
90
 51
-90
  0
ARC
  5
126
100
AcDbEntity
  8
Shape2DView002
  6
ByLayer
 62
  256
370
   -1
100
AcDbCircle
 10
294
 20
57.64335
 40
0.186666667
100
AcDbArc
 50
-90
 51
0
  0
LINE
  5
127
100
AcDbEntity
  8
Shape2DView002
  6
ByLayer
 62
  256
370
   -1
100
AcDbLine
 10
273.96835
 20
77.98666666699999
 11
273.96835
 21
80.59999999999999
  0
LINE
  5
128
100
AcDbEntity
  8
Shape2DView002
  6
ByLayer
 62
  256
370
   -1
100
AcDbLine
 10
294.186666667
 20
57.64335
 11
296.8
 21
57.64335
  0
LINE
  5
129
100
AcDbEntity
  8
Shape2DView002
  6
ByLayer
 62
  256
370
   -1
100
AcDbLine
 10
296.8
 20
57.64335
 11
296.8
 21
45.45665
  0
ARC
  5
12A
100
AcDbEntity
  8
Shape2DView002
  6
ByLayer
 62
  256
370
   -1
100
AcDbCircle
 10
294
 20
45.45665
 40
0.186666667
100
AcDbArc
 50
0
 51
90
  0
ARC
  5
12B
100
AcDbEntity
  8
Shape2DView002
  6
ByLayer
 62
  256
370
   -1
100
AcDbCircle
 10
294
 20
45.45665
 40
0.186666667
100
AcDbArc
 50
90
 51
-90
  0
LINE
  5
12C
100
AcDbEntity
  8
Shape2DView002
  6
ByLayer
 62
  256
370
   -1
100
AcDbLine
 10
294
 20
45.269983333
 11
294
 21
35.330016667
  0
ARC
  5
12D
100
AcDbEntity
  8
Shape2DView002
  6
ByLayer
 62
  256
370
   -1
100
AcDbCircle
 10
294
 20
35.14335
 40
0.186666667
100
AcDbArc
 50
90
 51
-90
  0
ARC
  5
12E
100
AcDbEntity
  8
Shape2DView002
  6
ByLayer
 62
  256
370
   -1
100
AcDbCircle
 10
294
 20
35.14335
 40
0.186666667
100
AcDbArc
 50
-90
 51
0
  0
LINE
  5
12F
100
AcDbEntity
  8
Shape2DView002
  6
ByLayer
 62
  256
370
   -1
100
AcDbLine
 10
294.186666667
 20
45.45665
 11
296.8
 21
45.45665
  0
LINE
  5
130
100
AcDbEntity
  8
Shape2DView002
  6
ByLayer
 62
  256
370
   -1
100
AcDbLine
 10
294.186666667
 20
35.14335
 11
296.8
 21
35.14335
  0
LINE
  5
131
100
AcDbEntity
  8
Shape2DView002
  6
ByLayer
 62
  256
370
   -1
100
AcDbLine
 10
296.8
 20
35.14335
 11
296.8
 21
22.95665
  0
ARC
  5
132
100
AcDbEntity
  8
Shape2DView002
  6
ByLayer
 62
  256
370
   -1
100
AcDbCircle
 10
294
 20
22.95665
 40
0.186666667
100
AcDbArc
 50
0
 51
90
  0
ARC
  5
133
100
AcDbEntity
  8
Shape2DView002
  6
ByLayer
 62
  256
370
   -1
100
AcDbCircle
 10
294
 20
22.95665
 40
0.186666667
100
AcDbArc
 50
90
 51
-90
  0
LINE
  5
134
100
AcDbEntity
  8
Shape2DView002
  6
ByLayer
 62
  256
370
   -1
100
AcDbLine
 10
294
 20
22.769983333
 11
294
 21
2.8
  0
LINE
  5
135
100
AcDbEntity
  8
Shape2DView002
  6
ByLayer
 62
  256
370
   -1
100
AcDbLine
 10
294
 20
2.8
 11
282.780016667
 21
2.8
  0
ARC
  5
136
100
AcDbEntity
  8
Shape2DView002
  6
ByLayer
 62
  256
370
   -1
100
AcDbCircle
 10
282.59335
 20
2.8
 40
0.186666667
100
AcDbArc
 50
0
 51
180
  0
ARC
  5
137
100
AcDbEntity
  8
Shape2DView002
  6
ByLayer
 62
  256
370
   -1
100
AcDbCircle
 10
282.59335
 20
2.8
 40
0.186666667
100
AcDbArc
 50
180
 51
-90
  0
LINE
  5
138
100
AcDbEntity
  8
Shape2DView002
  6
ByLayer
 62
  256
370
   -1
100
AcDbLine
 10
294.186666667
 20
22.95665
 11
296.8
 21
22.95665
  0
LINE
  5
139
100
AcDbEntity
  8
Shape2DView002
  6
ByLayer
 62
  256
370
   -1
100
AcDbLine
 10
282.59335
 20
2.613333333
 11
282.59335
 21
-0
  0
LINE
  5
13A
100
AcDbEntity
  8
Shape2DView002
  6
ByLayer
 62
  256
370
   -1
100
AcDbLine
 10
282.59335
 20
-0
 11
270.40665
 21
-0
  0
ARC
  5
13B
100
AcDbEntity
  8
Shape2DView002
  6
ByLayer
 62
  256
370
   -1
100
AcDbCircle
 10
270.40665
 20
2.8
 40
0.186666667
100
AcDbArc
 50
-90
 51
0
  0
ARC
  5
13C
100
AcDbEntity
  8
Shape2DView002
  6
ByLayer
 62
  256
370
   -1
100
AcDbCircle
 10
270.40665
 20
2.8
 40
0.186666667
100
AcDbArc
 50
0
 51
180
  0
LINE
  5
13D
100
AcDbEntity
  8
Shape2DView002
  6
ByLayer
 62
  256
370
   -1
100
AcDbLine
 10
270.219983333
 20
2.8
 11
259
 21
2.8
  0
LINE
  5
13E
100
AcDbEntity
  8
Shape2DView002
  6
ByLayer
 62
  256
370
   -1
100
AcDbLine
 10
259
 20
2.8
 11
259
 21
13.694623297
  0
ARC
  5
13F
100
AcDbEntity
  8
Shape2DView002
  6
ByLayer
 62
  256
370
   -1
100
AcDbCircle
 10
259
 20
13.881289963
 40
0.186666667
100
AcDbArc
 50
-90
 51
90
  0
ARC
  5
140
100
AcDbEntity
  8
Shape2DView002
  6
ByLayer
 62
  256
370
   -1
100
AcDbCircle
 10
259
 20
13.881289963
 40
0.186666667
100
AcDbArc
 50
90
 51
180
  0
LINE
  5
141
100
AcDbEntity
  8
Shape2DView002
  6
ByLayer
 62
  256
370
   -1
100
AcDbLine
 10
270.40665
 20
2.613333333
 11
270.40665
 21
-0
  0
LINE
  5
142
100
AcDbEntity
  8
Shape2DView002
  6
ByLayer
 62
  256
370
   -1
100
AcDbLine
 10
258.813333333
 20
13.881289963
 11
256.2
 21
13.881289963
  0
LINE
  5
143
100
AcDbEntity
  8
Shape2DView002
  6
ByLayer
 62
  256
370
   -1
100
AcDbLine
 10
256.2
 20
13.881289963
 11
256.2
 21
26.067989963
  0
ARC
  5
144
100
AcDbEntity
  8
Shape2DView002
  6
ByLayer
 62
  256
370
   -1
100
AcDbCircle
 10
259
 20
26.067989963
 40
0.186666667
100
AcDbArc
 50
180
 51
-90
  0
ARC
  5
145
100
AcDbEntity
  8
Shape2DView002
  6
ByLayer
 62
  256
370
   -1
100
AcDbCircle
 10
259
 20
26.067989963
 40
0.186666667
100
AcDbArc
 50
-90
 51
90
  0
LINE
  5
146
100
AcDbEntity
  8
Shape2DView002
  6
ByLayer
 62
  256
370
   -1
100
AcDbLine
 10
259
 20
26.25465663
 11
259
 21
37.149279927
  0
LINE
  5
147
100
AcDbEntity
  8
Shape2DView002
  6
ByLayer
 62
  256
370
   -1
100
AcDbLine
 10
259
 20
37.149279927
 11
243.40128532
 21
42.826747763
  0
ARC
  5
148
100
AcDbEntity
  8
Shape2DView002
  6
ByLayer
 62
  256
370
   -1
100
AcDbCircle
 10
243.225876031
 20
42.890591523
 40
0.186666667
100
AcDbArc
 50
-20
 51
160
  0
ARC
  5
149
100
AcDbEntity
  8
Shape2DView002
  6
ByLayer
 62
  256
370
   -1
100
AcDbCircle
 10
243.225876031
 20
42.890591523
 40
0.186666667
100
AcDbArc
 50
160
 51
-110
  0
LINE
  5
14A
100
AcDbEntity
  8
Shape2DView002
  6
ByLayer
 62
  256
370
   -1
100
AcDbLine
 10
258.813333333
 20
26.067989963
 11
256.2
 21
26.067989963
  0
LINE
  5
14B
100
AcDbEntity
  8
Shape2DView002
  6
ByLayer
 62
  256
370
   -1
100
AcDbLine
 10
243.162032271
 20
42.715182234
 11
242.26821963
 21
40.259452185
  0
LINE
  5
14C
100
AcDbEntity
  8
Shape2DView002
  6
ByLayer
 62
  256
370
   -1
100
AcDbLine
 10
231.710280209
 20
46.883279114
 11
230.816467568
 21
44.427549065
  0
LINE
  5
14D
100
AcDbEntity
  8
Shape2DView002
  6
ByLayer
 62
  256
370
   -1
100
AcDbLine
 10
242.26821963
 20
40.259452185
 11
230.816467568
 21
44.427549065
  0
LINE
  5
14E
100
AcDbEntity
  8
Shape2DView002
  6
ByLayer
 62
  256
370
   -1
100
AcDbLine
 10
265.770440912
 20
63.471049707
 11
265.154804654
 21
61.77960299
  0
ARC
  5
14F
100
AcDbEntity
  8
Shape2DView002
  6
ByLayer
 62
  256
370
   -1
100
AcDbCircle
 10
265.535517757
 20
63.556554743
 40
0.25
100
AcDbArc
 50
-20
 51
70
  0
ARC
  5
150
100
AcDbEntity
  8
Shape2DView002
  6
ByLayer
 62
  256
370
   -1
100
AcDbCircle
 10
265.706527829
 20
64.026401053
 40
0.25
100
AcDbArc
 50
10
 51
-110
  0
ARC
  5
151
100
AcDbEntity
  8
Shape2DView002
  6
ByLayer
 62
  256
370
   -1
100
AcDbCircle
 10
266.198931705
 20
64.113225142
 40
0.25
100
AcDbArc
 50
-170
 51
-110
  0
LINE
  5
152
100
AcDbEntity
  8
Shape2DView002
  6
ByLayer
 62
  256
370
   -1
100
AcDbLine
 10
282.862484071
 20
57.782143641
 11
266.113426669
 21
63.878301987
  0
ARC
  5
153
100
AcDbEntity
  8
Shape2DView002
  6
ByLayer
 62
  256
370
   -1
100
AcDbCircle
 10
282.947989106
 20
58.017066796
 40
0.25
100
AcDbArc
 50
-110
 51
-50
  0
ARC
  5
154
100
AcDbEntity
  8
Shape2DView002
  6
ByLayer
 62
  256
370
   -1
100
AcDbCircle
 10
283.269382911
 20
57.634044575
 40
0.25
100
AcDbArc
 50
-80
 51
130
  0
ARC
  5
155
100
AcDbEntity
  8
Shape2DView002
  6
ByLayer
 62
  256
370
   -1
100
AcDbCircle
 10
283.356207
 20
57.141640698
 40
0.25
100
AcDbArc
 50
100
 51
160
  0
LINE
  5
156
100
AcDbEntity
  8
Shape2DView002
  6
ByLayer
 62
  256
370
   -1
100
AcDbLine
 10
282.459825576
 20
55.409804077
 11
283.121283845
 21
57.227145734
  0
ARC
  5
157
100
AcDbEntity
  8
Shape2DView002
  6
ByLayer
 62
  256
370
   -1
100
AcDbCircle
 10
282.694748731
 20
55.324299041
 40
0.25
100
AcDbArc
 50
160
 51
-140
  0
ARC
  5
158
100
AcDbEntity
  8
Shape2DView002
  6
ByLayer
 62
  256
370
   -1
100
AcDbCircle
 10
282.31172651
 20
55.002905236
 40
0.25
100
AcDbArc
 50
-170
 51
40
  0
ARC
  5
159
100
AcDbEntity
  8
Shape2DView002
  6
ByLayer
 62
  256
370
   -1
100
AcDbCircle
 10
281.819322633
 20
54.916081148
 40
0.25
100
AcDbArc
 50
10
 51
70
  0
LINE
  5
15A
100
AcDbEntity
  8
Shape2DView002
  6
ByLayer
 62
  256
370
   -1
100
AcDbLine
 10
265.155770268
 20
61.247162649
 11
281.904827669
 21
55.151004303
  0
ARC
  5
15B
100
AcDbEntity
  8
Shape2DView002
  6
ByLayer
 62
  256
370
   -1
100
AcDbCircle
 10
265.070265232
 20
61.012239494
 40
0.25
100
AcDbArc
 50
70
 51
130
  0
ARC
  5
15C
100
AcDbEntity
  8
Shape2DView002
  6
ByLayer
 62
  256
370
   -1
100
AcDbCircle
 10
264.748871427
 20
61.395261715
 40
0.25
100
AcDbArc
 50
70
 51
-50
  0
ARC
  5
15D
100
AcDbEntity
  8
Shape2DView002
  6
ByLayer
 62
  256
370
   -1
100
AcDbCircle
 10
264.919881499
 20
61.865108026
 40
0.25
100
AcDbArc
 50
-110
 51
-20
  0
ARC
  5
15E
100
AcDbEntity
  8
Shape2DView002
  6
ByLayer
 62
  256
370
   -1
100
AcDbCircle
 10
256.309601621
 20
67.44660248700001
 40
0.25
100
AcDbArc
 50
-20
 51
130
  0
LINE
  5
15F
100
AcDbEntity
  8
Shape2DView002
  6
ByLayer
 62
  256
370
   -1
100
AcDbLine
 10
256.544524776
 20
67.36109745100001
 11
256.544523274
 21
67.36109332300001
  0
ARC
  5
160
100
AcDbEntity
  8
Shape2DView002
  6
ByLayer
 62
  256
370
   -1
100
AcDbCircle
 10
256.779444927
 20
67.27558415999999
 40
0.25
100
AcDbArc
 50
159.998993322
 51
160
  0
LINE
  5
161
100
AcDbEntity
  8
Shape2DView002
  6
ByLayer
 62
  256
370
   -1
100
AcDbLine
 10
256.544521771
 20
67.36108919599999
 11
255.586871379
 21
64.72996636800001
  0
ARC
  5
162
100
AcDbEntity
  8
Shape2DView002
  6
ByLayer
 62
  256
370
   -1
100
AcDbCircle
 10
255.821794535
 20
64.64446133200001
 40
0.25
100
AcDbArc
 50
160
 51
160.001006667
  0
LINE
  5
163
100
AcDbEntity
  8
Shape2DView002
  6
ByLayer
 62
  256
370
   -1
100
AcDbLine
 10
255.586869877
 20
64.72996224000001
 11
255.586868375
 21
64.729958113
  0
ARC
  5
164
100
AcDbEntity
  8
Shape2DView002
  6
ByLayer
 62
  256
370
   -1
100
AcDbCircle
 10
255.35194522
 20
64.81546314800001
 40
0.25
100
AcDbArc
 50
-170
 51
-20
  0
ARC
  5
165
100
AcDbEntity
  8
Shape2DView002
  6
ByLayer
 62
  256
370
   -1
100
AcDbCircle
 10
254.859541343
 20
64.72863906000001
 40
0.25
100
AcDbArc
 50
10
 51
70
  0
LINE
  5
166
100
AcDbEntity
  8
Shape2DView002
  6
ByLayer
 62
  256
370
   -1
100
AcDbLine
 10
254.945046379
 20
64.963562215
 11
238.195988978
 21
71.05972056100001
  0
ARC
  5
167
100
AcDbEntity
  8
Shape2DView002
  6
ByLayer
 62
  256
370
   -1
100
AcDbCircle
 10
238.110483942
 20
70.824797406
 40
0.25
100
AcDbArc
 50
70
 51
130
  0
ARC
  5
168
100
AcDbEntity
  8
Shape2DView002
  6
ByLayer
 62
  256
370
   -1
100
AcDbCircle
 10
237.789090137
 20
71.20781962700001
 40
0.25
100
AcDbArc
 50
100
 51
-50
  0
ARC
  5
169
100
AcDbEntity
  8
Shape2DView002
  6
ByLayer
 62
  256
370
   -1
100
AcDbCircle
 10
237.702266048
 20
71.70022350399999
 40
0.25
100
AcDbArc
 50
-80
 51
-20
  0
LINE
  5
16A
100
AcDbEntity
  8
Shape2DView002
  6
ByLayer
 62
  256
370
   -1
100
AcDbLine
 10
237.937189203
 20
71.61471846800001
 11
238.598647472
 21
73.43206012500001
  0
ARC
  5
16B
100
AcDbEntity
  8
Shape2DView002
  6
ByLayer
 62
  256
370
   -1
100
AcDbCircle
 10
238.363724317
 20
73.51756516099999
 40
0.25
100
AcDbArc
 50
-20
 51
40
  0
ARC
  5
16C
100
AcDbEntity
  8
Shape2DView002
  6
ByLayer
 62
  256
370
   -1
100
AcDbCircle
 10
238.746746538
 20
73.838958965
 40
0.25
100
AcDbArc
 50
10
 51
-140
  0
ARC
  5
16D
100
AcDbEntity
  8
Shape2DView002
  6
ByLayer
 62
  256
370
   -1
100
AcDbCircle
 10
239.239150415
 20
73.92578305399999
 40
0.25
100
AcDbArc
 50
-170
 51
-110
  0
LINE
  5
16E
100
AcDbEntity
  8
Shape2DView002
  6
ByLayer
 62
  256
370
   -1
100
AcDbLine
 10
239.153645379
 20
73.690859899
 11
255.90270278
 21
67.59470155299999
  0
ARC
  5
16F
100
AcDbEntity
  8
Shape2DView002
  6
ByLayer
 62
  256
370
   -1
100
AcDbCircle
 10
255.988207816
 20
67.829624708
 40
0.25
100
AcDbArc
 50
-110
 51
-50
  0
LINE
  5
170
100
AcDbEntity
  8
Shape2DView002
  6
ByLayer
 62
  256
370
   -1
100
AcDbLine
 10
265.35
 20
24.834791082
 11
264.25
 21
24.834791082
  0
ARC
  5
171
100
AcDbEntity
  8
Shape2DView002
  6
ByLayer
 62
  256
370
   -1
100
AcDbCircle
 10
265.6
 20
24.834791082
 40
0.25
100
AcDbArc
 50
-90
 51
180
  0
LINE
  5
172
100
AcDbEntity
  8
Shape2DView002
  6
ByLayer
 62
  256
370
   -1
100
AcDbLine
 10
265.6
 20
12.384791082
 11
265.6
 21
24.584791082
  0
ARC
  5
173
100
AcDbEntity
  8
Shape2DView002
  6
ByLayer
 62
  256
370
   -1
100
AcDbCircle
 10
265.6
 20
12.134791082
 40
0.25
100
AcDbArc
 50
-90
 51
90
  0
ARC
  5
174
100
AcDbEntity
  8
Shape2DView002
  6
ByLayer
 62
  256
370
   -1
100
AcDbCircle
 10
265.6
 20
12.134791082
 40
0.25
100
AcDbArc
 50
180
 51
-90
  0
LINE
  5
175
100
AcDbEntity
  8
Shape2DView002
  6
ByLayer
 62
  256
370
   -1
100
AcDbLine
 10
264.25
 20
12.134791082
 11
265.35
 21
12.134791082
  0
ARC
  5
176
100
AcDbEntity
  8
Shape2DView002
  6
ByLayer
 62
  256
370
   -1
100
AcDbCircle
 10
264
 20
12.134791082
 40
0.25
100
AcDbArc
 50
-90
 51
0
  0
ARC
  5
177
100
AcDbEntity
  8
Shape2DView002
  6
ByLayer
 62
  256
370
   -1
100
AcDbCircle
 10
264
 20
12.134791082
 40
0.25
100
AcDbArc
 50
90
 51
-90
  0
LINE
  5
178
100
AcDbEntity
  8
Shape2DView002
  6
ByLayer
 62
  256
370
   -1
100
AcDbLine
 10
264
 20
24.584791082
 11
264
 21
12.384791082
  0
ARC
  5
179
100
AcDbEntity
  8
Shape2DView002
  6
ByLayer
 62
  256
370
   -1
100
AcDbCircle
 10
264
 20
24.834791082
 40
0.25
100
AcDbArc
 50
0
 51
-90
  0
LINE
  5
17A
100
AcDbEntity
  8
Shape2DView003
  6
ByLayer
 62
  256
370
   -1
100
AcDbLine
 10
-0
 20
107.49335
 11
2.574660682
 21
107.49335
  0
LINE
  5
17B
100
AcDbEntity
  8
Shape2DView003
  6
ByLayer
 62
  256
370
   -1
100
AcDbLine
 10
0
 20
93.40000000000001
 11
0
 21
107.49335
  0
LINE
  5
17C
100
AcDbEntity
  8
Shape2DView003
  6
ByLayer
 62
  256
370
   -1
100
AcDbLine
 10
20.179983333
 20
93.40000000000001
 11
0
 21
93.40000000000001
  0
ARC
  5
17D
100
AcDbEntity
  8
Shape2DView003
  6
ByLayer
 62
  256
370
   -1
100
AcDbCircle
 10
20.36665
 20
93.40000000000001
 40
0.186666667
100
AcDbArc
 50
-90
 51
0
  0
ARC
  5
17E
100
AcDbEntity
  8
Shape2DView003
  6
ByLayer
 62
  256
370
   -1
100
AcDbCircle
 10
20.36665
 20
93.40000000000001
 40
0.186666667
100
AcDbArc
 50
0
 51
180
  0
LINE
  5
17F
100
AcDbEntity
  8
Shape2DView003
  6
ByLayer
 62
  256
370
   -1
100
AcDbLine
 10
20.36665
 20
93.21333333299999
 11
20.36665
 21
90.59999999999999
  0
LINE
  5
180
100
AcDbEntity
  8
Shape2DView003
  6
ByLayer
 62
  256
370
   -1
100
AcDbLine
 10
20.36665
 20
90.59999999999999
 11
32.55335
 21
90.59999999999999
  0
ARC
  5
181
100
AcDbEntity
  8
Shape2DView003
  6
ByLayer
 62
  256
370
   -1
100
AcDbCircle
 10
32.55335
 20
93.40000000000001
 40
0.186666667
100
AcDbArc
 50
0
 51
180
  0
ARC
  5
182
100
AcDbEntity
  8
Shape2DView003
  6
ByLayer
 62
  256
370
   -1
100
AcDbCircle
 10
32.55335
 20
93.40000000000001
 40
0.186666667
100
AcDbArc
 50
180
 51
-90
  0
LINE
  5
183
100
AcDbEntity
  8
Shape2DView003
  6
ByLayer
 62
  256
370
   -1
100
AcDbLine
 10
42.859983333
 20
93.40000000000001
 11
32.740016667
 21
93.40000000000001
  0
ARC
  5
184
100
AcDbEntity
  8
Shape2DView003
  6
ByLayer
 62
  256
370
   -1
100
AcDbCircle
 10
43.04665
 20
93.40000000000001
 40
0.186666667
100
AcDbArc
 50
-90
 51
0
  0
ARC
  5
185
100
AcDbEntity
  8
Shape2DView003
  6
ByLayer
 62
  256
370
   -1
100
AcDbCircle
 10
43.04665
 20
93.40000000000001
 40
0.186666667
100
AcDbArc
 50
0
 51
180
  0
LINE
  5
186
100
AcDbEntity
  8
Shape2DView003
  6
ByLayer
 62
  256
370
   -1
100
AcDbLine
 10
32.55335
 20
93.21333333299999
 11
32.55335
 21
90.59999999999999
  0
LINE
  5
187
100
AcDbEntity
  8
Shape2DView003
  6
ByLayer
 62
  256
370
   -1
100
AcDbLine
 10
43.04665
 20
93.21333333299999
 11
43.04665
 21
90.59999999999999
  0
LINE
  5
188
100
AcDbEntity
  8
Shape2DView003
  6
ByLayer
 62
  256
370
   -1
100
AcDbLine
 10
43.04665
 20
90.59999999999999
 11
55.23335
 21
90.59999999999999
  0
LINE
  5
189
100
AcDbEntity
  8
Shape2DView003
  6
ByLayer
 62
  256
370
   -1
100
AcDbLine
 10
75.59999999999999
 20
93.40000000000001
 11
55.420016667
 21
93.40000000000001
  0
ARC
  5
18A
100
AcDbEntity
  8
Shape2DView003
  6
ByLayer
 62
  256
370
   -1
100
AcDbCircle
 10
55.23335
 20
93.40000000000001
 40
0.186666667
100
AcDbArc
 50
0
 51
180
  0
ARC
  5
18B
100
AcDbEntity
  8
Shape2DView003
  6
ByLayer
 62
  256
370
   -1
100
AcDbCircle
 10
55.23335
 20
93.40000000000001
 40
0.186666667
100
AcDbArc
 50
180
 51
-90
  0
LINE
  5
18C
100
AcDbEntity
  8
Shape2DView003
  6
ByLayer
 62
  256
370
   -1
100
AcDbLine
 10
75.59999999999999
 20
107.49335
 11
75.59999999999999
 21
93.40000000000001
  0
LINE
  5
18D
100
AcDbEntity
  8
Shape2DView003
  6
ByLayer
 62
  256
370
   -1
100
AcDbLine
 10
75.59999999999999
 20
107.49335
 11
73.02533931799999
 21
107.49335
  0
LINE
  5
18E
100
AcDbEntity
  8
Shape2DView003
  6
ByLayer
 62
  256
370
   -1
100
AcDbLine
 10
55.23335
 20
93.21333333299999
 11
55.23335
 21
90.59999999999999
  0
ARC
  5
18F
100
AcDbEntity
  8
Shape2DView003
  6
ByLayer
 62
  256
370
   -1
100
AcDbCircle
 10
72.85290500000001
 20
107.592905
 40
0.19911
100
AcDbArc
 50
180
 51
-30
  0
ARC
  5
190
100
AcDbEntity
  8
Shape2DView003
  6
ByLayer
 62
  256
370
   -1
100
AcDbCircle
 10
72.85290500000001
 20
107.592905
 40
0.19911
100
AcDbArc
 50
120
 51
180
  0
LINE
  5
191
100
AcDbEntity
  8
Shape2DView003
  6
ByLayer
 62
  256
370
   -1
100
AcDbLine
 10
72.75335
 20
119.034660682
 11
72.75335
 21
107.765339318
  0
ARC
  5
192
100
AcDbEntity
  8
Shape2DView003
  6
ByLayer
 62
  256
370
   -1
100
AcDbCircle
 10
72.85290500000001
 20
119.207095
 40
0.19911
100
AcDbArc
 50
180
 51
-120
  0
ARC
  5
193
100
AcDbEntity
  8
Shape2DView003
  6
ByLayer
 62
  256
370
   -1
100
AcDbCircle
 10
72.85290500000001
 20
119.207095
 40
0.19911
100
AcDbArc
 50
30
 51
180
  0
LINE
  5
194
100
AcDbEntity
  8
Shape2DView003
  6
ByLayer
 62
  256
370
   -1
100
AcDbLine
 10
75.59999999999999
 20
119.30665
 11
73.02533931799999
 21
119.30665
  0
LINE
  5
195
100
AcDbEntity
  8
Shape2DView003
  6
ByLayer
 62
  256
370
   -1
100
AcDbLine
 10
75.59999999999999
 20
133.4
 11
75.59999999999999
 21
119.30665
  0
LINE
  5
196
100
AcDbEntity
  8
Shape2DView003
  6
ByLayer
 62
  256
370
   -1
100
AcDbLine
 10
0
 20
133.4
 11
75.59999999999999
 21
133.4
  0
LINE
  5
197
100
AcDbEntity
  8
Shape2DView003
  6
ByLayer
 62
  256
370
   -1
100
AcDbLine
 10
0
 20
119.30665
 11
0
 21
133.4
  0
LINE
  5
198
100
AcDbEntity
  8
Shape2DView003
  6
ByLayer
 62
  256
370
   -1
100
AcDbLine
 10
-0
 20
119.30665
 11
2.574660682
 21
119.30665
  0
ARC
  5
199
100
AcDbEntity
  8
Shape2DView003
  6
ByLayer
 62
  256
370
   -1
100
AcDbCircle
 10
2.747095
 20
119.207095
 40
0.19911
100
AcDbArc
 50
0
 51
150
  0
ARC
  5
19A
100
AcDbEntity
  8
Shape2DView003
  6
ByLayer
 62
  256
370
   -1
100
AcDbCircle
 10
2.747095
 20
119.207095
 40
0.19911
100
AcDbArc
 50
-59.99999999999999
 51
0
  0
LINE
  5
19B
100
AcDbEntity
  8
Shape2DView003
  6
ByLayer
 62
  256
370
   -1
100
AcDbLine
 10
2.84665
 20
107.765339318
 11
2.84665
 21
119.034660682
  0
ARC
  5
19C
100
AcDbEntity
  8
Shape2DView003
  6
ByLayer
 62
  256
370
   -1
100
AcDbCircle
 10
2.747095
 20
107.592905
 40
0.19911
100
AcDbArc
 50
0
 51
59.99999999999999
  0
ARC
  5
19D
100
AcDbEntity
  8
Shape2DView003
  6
ByLayer
 62
  256
370
   -1
100
AcDbCircle
 10
2.747095
 20
107.592905
 40
0.19911
100
AcDbArc
 50
-150
 51
0
  0
LINE
  5
19E
100
AcDbEntity
  8
Shape2DView004
  6
ByLayer
 62
  256
370
   -1
100
AcDbLine
 10
161.2
 20
93.40000000000001
 11
141.020016667
 21
93.40000000000001
  0
ARC
  5
19F
100
AcDbEntity
  8
Shape2DView004
  6
ByLayer
 62
  256
370
   -1
100
AcDbCircle
 10
140.83335
 20
93.40000000000001
 40
0.186666667
100
AcDbArc
 50
0
 51
180
  0
ARC
  5
1A0
100
AcDbEntity
  8
Shape2DView004
  6
ByLayer
 62
  256
370
   -1
100
AcDbCircle
 10
140.83335
 20
93.40000000000001
 40
0.186666667
100
AcDbArc
 50
180
 51
-90
  0
LINE
  5
1A1
100
AcDbEntity
  8
Shape2DView004
  6
ByLayer
 62
  256
370
   -1
100
AcDbLine
 10
161.2
 20
104.667989963
 11
161.2
 21
93.40000000000001
  0
LINE
  5
1A2
100
AcDbEntity
  8
Shape2DView004
  6
ByLayer
 62
  256
370
   -1
100
AcDbLine
 10
158.625339318
 20
104.667989963
 11
161.2
 21
104.667989963
  0
ARC
  5
1A3
100
AcDbEntity
  8
Shape2DView004
  6
ByLayer
 62
  256
370
   -1
100
AcDbCircle
 10
158.452905
 20
104.767544963
 40
0.19911
100
AcDbArc
 50
120
 51
-30
  0
LINE
  5
1A4
100
AcDbEntity
  8
Shape2DView004
  6
ByLayer
 62
  256
370
   -1
100
AcDbLine
 10
158.35335
 20
104.939979281
 11
158.35335
 21
116.209300645
  0
ARC
  5
1A5
100
AcDbEntity
  8
Shape2DView004
  6
ByLayer
 62
  256
370
   -1
100
AcDbCircle
 10
158.452905
 20
116.381734963
 40
0.19911
100
AcDbArc
 50
30
 51
-120
  0
LINE
  5
1A6
100
AcDbEntity
  8
Shape2DView004
  6
ByLayer
 62
  256
370
   -1
100
AcDbLine
 10
158.625339318
 20
116.481289963
 11
161.2
 21
116.481289963
  0
LINE
  5
1A7
100
AcDbEntity
  8
Shape2DView004
  6
ByLayer
 62
  256
370
   -1
100
AcDbLine
 10
161.2
 20
124.769582164
 11
161.2
 21
116.481289963
  0
LINE
  5
1A8
100
AcDbEntity
  8
Shape2DView004
  6
ByLayer
 62
  256
370
   -1
100
AcDbLine
 10
141.020016667
 20
124.769582164
 11
161.2
 21
124.769582164
  0
ARC
  5
1A9
100
AcDbEntity
  8
Shape2DView004
  6
ByLayer
 62
  256
370
   -1
100
AcDbCircle
 10
140.83335
 20
124.769582164
 40
0.186666667
100
AcDbArc
 50
90
 51
180
  0
ARC
  5
1AA
100
AcDbEntity
  8
Shape2DView004
  6
ByLayer
 62
  256
370
   -1
100
AcDbCircle
 10
140.83335
 20
124.769582164
 40
0.186666667
100
AcDbArc
 50
180
 51
0
  0
LINE
  5
1AB
100
AcDbEntity
  8
Shape2DView004
  6
ByLayer
 62
  256
370
   -1
100
AcDbLine
 10
140.83335
 20
93.21333333299999
 11
140.83335
 21
90.59999999999999
  0
LINE
  5
1AC
100
AcDbEntity
  8
Shape2DView004
  6
ByLayer
 62
  256
370
   -1
100
AcDbLine
 10
140.83335
 20
124.95624883
 11
140.83335
 21
127.569582164
  0
LINE
  5
1AD
100
AcDbEntity
  8
Shape2DView004
  6
ByLayer
 62
  256
370
   -1
100
AcDbLine
 10
128.64665
 20
127.569582164
 11
140.83335
 21
127.569582164
  0
LINE
  5
1AE
100
AcDbEntity
  8
Shape2DView004
  6
ByLayer
 62
  256
370
   -1
100
AcDbLine
 10
128.64665
 20
124.95624883
 11
128.64665
 21
127.569582164
  0
ARC
  5
1AF
100
AcDbEntity
  8
Shape2DView004
  6
ByLayer
 62
  256
370
   -1
100
AcDbCircle
 10
128.64665
 20
124.769582164
 40
0.186666667
100
AcDbArc
 50
180
 51
0
  0
ARC
  5
1B0
100
AcDbEntity
  8
Shape2DView004
  6
ByLayer
 62
  256
370
   -1
100
AcDbCircle
 10
128.64665
 20
124.769582164
 40
0.186666667
100
AcDbArc
 50
0
 51
90
  0
LINE
  5
1B1
100
AcDbEntity
  8
Shape2DView004
  6
ByLayer
 62
  256
370
   -1
100
AcDbLine
 10
118.340016667
 20
124.769582164
 11
128.459983333
 21
124.769582164
  0
ARC
  5
1B2
100
AcDbEntity
  8
Shape2DView004
  6
ByLayer
 62
  256
370
   -1
100
AcDbCircle
 10
118.15335
 20
124.769582164
 40
0.186666667
100
AcDbArc
 50
90
 51
180
  0
ARC
  5
1B3
100
AcDbEntity
  8
Shape2DView004
  6
ByLayer
 62
  256
370
   -1
100
AcDbCircle
 10
118.15335
 20
124.769582164
 40
0.186666667
100
AcDbArc
 50
180
 51
0
  0
LINE
  5
1B4
100
AcDbEntity
  8
Shape2DView004
  6
ByLayer
 62
  256
370
   -1
100
AcDbLine
 10
118.15335
 20
124.95624883
 11
118.15335
 21
127.569582164
  0
LINE
  5
1B5
100
AcDbEntity
  8
Shape2DView004
  6
ByLayer
 62
  256
370
   -1
100
AcDbLine
 10
105.96665
 20
127.569582164
 11
118.15335
 21
127.569582164
  0
LINE
  5
1B6
100
AcDbEntity
  8
Shape2DView004
  6
ByLayer
 62
  256
370
   -1
100
AcDbLine
 10
105.96665
 20
124.95624883
 11
105.96665
 21
127.569582164
  0
ARC
  5
1B7
100
AcDbEntity
  8
Shape2DView004
  6
ByLayer
 62
  256
370
   -1
100
AcDbCircle
 10
105.96665
 20
124.769582164
 40
0.186666667
100
AcDbArc
 50
180
 51
0
  0
ARC
  5
1B8
100
AcDbEntity
  8
Shape2DView004
  6
ByLayer
 62
  256
370
   -1
100
AcDbCircle
 10
105.96665
 20
124.769582164
 40
0.186666667
100
AcDbArc
 50
0
 51
90
  0
LINE
  5
1B9
100
AcDbEntity
  8
Shape2DView004
  6
ByLayer
 62
  256
370
   -1
100
AcDbLine
 10
85.59999999999999
 20
124.769582164
 11
105.779983333
 21
124.769582164
  0
LINE
  5
1BA
100
AcDbEntity
  8
Shape2DView004
  6
ByLayer
 62
  256
370
   -1
100
AcDbLine
 10
85.59999999999999
 20
116.481289963
 11
85.59999999999999
 21
124.769582164
  0
LINE
  5
1BB
100
AcDbEntity
  8
Shape2DView004
  6
ByLayer
 62
  256
370
   -1
100
AcDbLine
 10
88.174660682
 20
116.481289963
 11
85.59999999999999
 21
116.481289963
  0
ARC
  5
1BC
100
AcDbEntity
  8
Shape2DView004
  6
ByLayer
 62
  256
370
   -1
100
AcDbCircle
 10
88.347095
 20
116.381734963
 40
0.19911
100
AcDbArc
 50
-59.99999999999999
 51
150
  0
LINE
  5
1BD
100
AcDbEntity
  8
Shape2DView004
  6
ByLayer
 62
  256
370
   -1
100
AcDbLine
 10
88.44665000000001
 20
116.209300645
 11
88.44665000000001
 21
104.939979281
  0
ARC
  5
1BE
100
AcDbEntity
  8
Shape2DView004
  6
ByLayer
 62
  256
370
   -1
100
AcDbCircle
 10
88.347095
 20
104.767544963
 40
0.19911
100
AcDbArc
 50
-150
 51
59.99999999999999
  0
LINE
  5
1BF
100
AcDbEntity
  8
Shape2DView004
  6
ByLayer
 62
  256
370
   -1
100
AcDbLine
 10
88.174660682
 20
104.667989963
 11
85.59999999999999
 21
104.667989963
  0
LINE
  5
1C0
100
AcDbEntity
  8
Shape2DView004
  6
ByLayer
 62
  256
370
   -1
100
AcDbLine
 10
85.59999999999999
 20
93.40000000000001
 11
85.59999999999999
 21
104.667989963
  0
LINE
  5
1C1
100
AcDbEntity
  8
Shape2DView004
  6
ByLayer
 62
  256
370
   -1
100
AcDbLine
 10
105.779983333
 20
93.40000000000001
 11
85.59999999999999
 21
93.40000000000001
  0
ARC
  5
1C2
100
AcDbEntity
  8
Shape2DView004
  6
ByLayer
 62
  256
370
   -1
100
AcDbCircle
 10
105.96665
 20
93.40000000000001
 40
0.186666667
100
AcDbArc
 50
-90
 51
0
  0
ARC
  5
1C3
100
AcDbEntity
  8
Shape2DView004
  6
ByLayer
 62
  256
370
   -1
100
AcDbCircle
 10
105.96665
 20
93.40000000000001
 40
0.186666667
100
AcDbArc
 50
0
 51
180
  0
LINE
  5
1C4
100
AcDbEntity
  8
Shape2DView004
  6
ByLayer
 62
  256
370
   -1
100
AcDbLine
 10
105.96665
 20
93.21333333299999
 11
105.96665
 21
90.59999999999999
  0
LINE
  5
1C5
100
AcDbEntity
  8
Shape2DView004
  6
ByLayer
 62
  256
370
   -1
100
AcDbLine
 10
105.96665
 20
90.59999999999999
 11
118.15335
 21
90.59999999999999
  0
ARC
  5
1C6
100
AcDbEntity
  8
Shape2DView004
  6
ByLayer
 62
  256
370
   -1
100
AcDbCircle
 10
118.15335
 20
93.40000000000001
 40
0.186666667
100
AcDbArc
 50
0
 51
180
  0
ARC
  5
1C7
100
AcDbEntity
  8
Shape2DView004
  6
ByLayer
 62
  256
370
   -1
100
AcDbCircle
 10
118.15335
 20
93.40000000000001
 40
0.186666667
100
AcDbArc
 50
180
 51
-90
  0
LINE
  5
1C8
100
AcDbEntity
  8
Shape2DView004
  6
ByLayer
 62
  256
370
   -1
100
AcDbLine
 10
128.459983333
 20
93.40000000000001
 11
118.340016667
 21
93.40000000000001
  0
ARC
  5
1C9
100
AcDbEntity
  8
Shape2DView004
  6
ByLayer
 62
  256
370
   -1
100
AcDbCircle
 10
128.64665
 20
93.40000000000001
 40
0.186666667
100
AcDbArc
 50
-90
 51
0
  0
ARC
  5
1CA
100
AcDbEntity
  8
Shape2DView004
  6
ByLayer
 62
  256
370
   -1
100
AcDbCircle
 10
128.64665
 20
93.40000000000001
 40
0.186666667
100
AcDbArc
 50
0
 51
180
  0
LINE
  5
1CB
100
AcDbEntity
  8
Shape2DView004
  6
ByLayer
 62
  256
370
   -1
100
AcDbLine
 10
118.15335
 20
93.21333333299999
 11
118.15335
 21
90.59999999999999
  0
LINE
  5
1CC
100
AcDbEntity
  8
Shape2DView004
  6
ByLayer
 62
  256
370
   -1
100
AcDbLine
 10
128.64665
 20
93.21333333299999
 11
128.64665
 21
90.59999999999999
  0
LINE
  5
1CD
100
AcDbEntity
  8
Shape2DView004
  6
ByLayer
 62
  256
370
   -1
100
AcDbLine
 10
128.64665
 20
90.59999999999999
 11
140.83335
 21
90.59999999999999
  0
CIRCLE
  5
1CE
100
AcDbEntity
  8
Shape2DView004
  6
ByLayer
 62
  256
370
   -1
100
AcDbCircle
 10
148.8
 20
109.084791082
 40
2.5
  0
CIRCLE
  5
1CF
100
AcDbEntity
  8
Shape2DView004
  6
ByLayer
 62
  256
370
   -1
100
AcDbCircle
 10
123.4
 20
101.464791082
 40
2.5
  0
CIRCLE
  5
1D0
100
AcDbEntity
  8
Shape2DView004
  6
ByLayer
 62
  256
370
   -1
100
AcDbCircle
 10
98
 20
109.084791082
 40
2.5
  0
CIRCLE
  5
1D1
100
AcDbEntity
  8
Shape2DView004
  6
ByLayer
 62
  256
370
   -1
100
AcDbCircle
 10
123.4
 20
109.084791082
 40
2.5
  0
CIRCLE
  5
1D2
100
AcDbEntity
  8
Shape2DView004
  6
ByLayer
 62
  256
370
   -1
100
AcDbCircle
 10
123.4
 20
116.704791082
 40
2.5
  0
CIRCLE
  5
1D3
100
AcDbEntity
  8
Shape2DView004
  6
ByLayer
 62
  256
370
   -1
100
AcDbCircle
 10
131.02
 20
109.084791082
 40
2.5
  0
CIRCLE
  5
1D4
100
AcDbEntity
  8
Shape2DView004
  6
ByLayer
 62
  256
370
   -1
100
AcDbCircle
 10
115.78
 20
109.084791082
 40
2.5
  0
LINE
  5
1D5
100
AcDbEntity
  8
Shape2DView005
  6
ByLayer
 62
  256
370
   -1
100
AcDbLine
 10
246.8
 20
93.40000000000001
 11
226.620016667
 21
93.40000000000001
  0
ARC
  5
1D6
100
AcDbEntity
  8
Shape2DView005
  6
ByLayer
 62
  256
370
   -1
100
AcDbCircle
 10
226.43335
 20
93.40000000000001
 40
0.186666667
100
AcDbArc
 50
0
 51
180
  0
ARC
  5
1D7
100
AcDbEntity
  8
Shape2DView005
  6
ByLayer
 62
  256
370
   -1
100
AcDbCircle
 10
226.43335
 20
93.40000000000001
 40
0.186666667
100
AcDbArc
 50
180
 51
-90
  0
LINE
  5
1D8
100
AcDbEntity
  8
Shape2DView005
  6
ByLayer
 62
  256
370
   -1
100
AcDbLine
 10
246.8
 20
104.401185581
 11
246.8
 21
93.40000000000001
  0
LINE
  5
1D9
100
AcDbEntity
  8
Shape2DView005
  6
ByLayer
 62
  256
370
   -1
100
AcDbLine
 10
226.620016667
 20
104.401185581
 11
246.8
 21
104.401185581
  0
ARC
  5
1DA
100
AcDbEntity
  8
Shape2DView005
  6
ByLayer
 62
  256
370
   -1
100
AcDbCircle
 10
226.43335
 20
104.401185581
 40
0.186666667
100
AcDbArc
 50
90
 51
180
  0
ARC
  5
1DB
100
AcDbEntity
  8
Shape2DView005
  6
ByLayer
 62
  256
370
   -1
100
AcDbCircle
 10
226.43335
 20
104.401185581
 40
0.186666667
100
AcDbArc
 50
180
 51
0
  0
LINE
  5
1DC
100
AcDbEntity
  8
Shape2DView005
  6
ByLayer
 62
  256
370
   -1
100
AcDbLine
 10
226.43335
 20
93.21333333299999
 11
226.43335
 21
90.59999999999999
  0
LINE
  5
1DD
100
AcDbEntity
  8
Shape2DView005
  6
ByLayer
 62
  256
370
   -1
100
AcDbLine
 10
226.43335
 20
104.587852248
 11
226.43335
 21
107.201185581
  0
LINE
  5
1DE
100
AcDbEntity
  8
Shape2DView005
  6
ByLayer
 62
  256
370
   -1
100
AcDbLine
 10
214.24665
 20
107.201185581
 11
226.43335
 21
107.201185581
  0
LINE
  5
1DF
100
AcDbEntity
  8
Shape2DView005
  6
ByLayer
 62
  256
370
   -1
100
AcDbLine
 10
214.24665
 20
104.587852248
 11
214.24665
 21
107.201185581
  0
ARC
  5
1E0
100
AcDbEntity
  8
Shape2DView005
  6
ByLayer
 62
  256
370
   -1
100
AcDbCircle
 10
214.24665
 20
104.401185581
 40
0.186666667
100
AcDbArc
 50
180
 51
0
  0
ARC
  5
1E1
100
AcDbEntity
  8
Shape2DView005
  6
ByLayer
 62
  256
370
   -1
100
AcDbCircle
 10
214.24665
 20
104.401185581
 40
0.186666667
100
AcDbArc
 50
0
 51
90
  0
LINE
  5
1E2
100
AcDbEntity
  8
Shape2DView005
  6
ByLayer
 62
  256
370
   -1
100
AcDbLine
 10
203.940016667
 20
104.401185581
 11
214.059983333
 21
104.401185581
  0
ARC
  5
1E3
100
AcDbEntity
  8
Shape2DView005
  6
ByLayer
 62
  256
370
   -1
100
AcDbCircle
 10
203.75335
 20
104.401185581
 40
0.186666667
100
AcDbArc
 50
90
 51
180
  0
ARC
  5
1E4
100
AcDbEntity
  8
Shape2DView005
  6
ByLayer
 62
  256
370
   -1
100
AcDbCircle
 10
203.75335
 20
104.401185581
 40
0.186666667
100
AcDbArc
 50
180
 51
0
  0
LINE
  5
1E5
100
AcDbEntity
  8
Shape2DView005
  6
ByLayer
 62
  256
370
   -1
100
AcDbLine
 10
203.75335
 20
104.587852248
 11
203.75335
 21
107.201185581
  0
LINE
  5
1E6
100
AcDbEntity
  8
Shape2DView005
  6
ByLayer
 62
  256
370
   -1
100
AcDbLine
 10
191.56665
 20
107.201185581
 11
203.75335
 21
107.201185581
  0
LINE
  5
1E7
100
AcDbEntity
  8
Shape2DView005
  6
ByLayer
 62
  256
370
   -1
100
AcDbLine
 10
191.56665
 20
104.587852248
 11
191.56665
 21
107.201185581
  0
ARC
  5
1E8
100
AcDbEntity
  8
Shape2DView005
  6
ByLayer
 62
  256
370
   -1
100
AcDbCircle
 10
191.56665
 20
104.401185581
 40
0.186666667
100
AcDbArc
 50
180
 51
0
  0
ARC
  5
1E9
100
AcDbEntity
  8
Shape2DView005
  6
ByLayer
 62
  256
370
   -1
100
AcDbCircle
 10
191.56665
 20
104.401185581
 40
0.186666667
100
AcDbArc
 50
0
 51
90
  0
LINE
  5
1EA
100
AcDbEntity
  8
Shape2DView005
  6
ByLayer
 62
  256
370
   -1
100
AcDbLine
 10
171.2
 20
104.401185581
 11
191.379983333
 21
104.401185581
  0
LINE
  5
1EB
100
AcDbEntity
  8
Shape2DView005
  6
ByLayer
 62
  256
370
   -1
100
AcDbLine
 10
171.2
 20
93.40000000000001
 11
171.2
 21
104.401185581
  0
LINE
  5
1EC
100
AcDbEntity
  8
Shape2DView005
  6
ByLayer
 62
  256
370
   -1
100
AcDbLine
 10
191.379983333
 20
93.40000000000001
 11
171.2
 21
93.40000000000001
  0
ARC
  5
1ED
100
AcDbEntity
  8
Shape2DView005
  6
ByLayer
 62
  256
370
   -1
100
AcDbCircle
 10
191.56665
 20
93.40000000000001
 40
0.186666667
100
AcDbArc
 50
-90
 51
0
  0
ARC
  5
1EE
100
AcDbEntity
  8
Shape2DView005
  6
ByLayer
 62
  256
370
   -1
100
AcDbCircle
 10
191.56665
 20
93.40000000000001
 40
0.186666667
100
AcDbArc
 50
0
 51
180
  0
LINE
  5
1EF
100
AcDbEntity
  8
Shape2DView005
  6
ByLayer
 62
  256
370
   -1
100
AcDbLine
 10
191.56665
 20
93.21333333299999
 11
191.56665
 21
90.59999999999999
  0
LINE
  5
1F0
100
AcDbEntity
  8
Shape2DView005
  6
ByLayer
 62
  256
370
   -1
100
AcDbLine
 10
191.56665
 20
90.59999999999999
 11
203.75335
 21
90.59999999999999
  0
ARC
  5
1F1
100
AcDbEntity
  8
Shape2DView005
  6
ByLayer
 62
  256
370
   -1
100
AcDbCircle
 10
203.75335
 20
93.40000000000001
 40
0.186666667
100
AcDbArc
 50
0
 51
180
  0
ARC
  5
1F2
100
AcDbEntity
  8
Shape2DView005
  6
ByLayer
 62
  256
370
   -1
100
AcDbCircle
 10
203.75335
 20
93.40000000000001
 40
0.186666667
100
AcDbArc
 50
180
 51
-90
  0
LINE
  5
1F3
100
AcDbEntity
  8
Shape2DView005
  6
ByLayer
 62
  256
370
   -1
100
AcDbLine
 10
214.059983333
 20
93.40000000000001
 11
203.940016667
 21
93.40000000000001
  0
ARC
  5
1F4
100
AcDbEntity
  8
Shape2DView005
  6
ByLayer
 62
  256
370
   -1
100
AcDbCircle
 10
214.24665
 20
93.40000000000001
 40
0.186666667
100
AcDbArc
 50
-90
 51
0
  0
ARC
  5
1F5
100
AcDbEntity
  8
Shape2DView005
  6
ByLayer
 62
  256
370
   -1
100
AcDbCircle
 10
214.24665
 20
93.40000000000001
 40
0.186666667
100
AcDbArc
 50
0
 51
180
  0
LINE
  5
1F6
100
AcDbEntity
  8
Shape2DView005
  6
ByLayer
 62
  256
370
   -1
100
AcDbLine
 10
203.75335
 20
93.21333333299999
 11
203.75335
 21
90.59999999999999
  0
LINE
  5
1F7
100
AcDbEntity
  8
Shape2DView005
  6
ByLayer
 62
  256
370
   -1
100
AcDbLine
 10
214.24665
 20
93.21333333299999
 11
214.24665
 21
90.59999999999999
  0
LINE
  5
1F8
100
AcDbEntity
  8
Shape2DView005
  6
ByLayer
 62
  256
370
   -1
100
AcDbLine
 10
214.24665
 20
90.59999999999999
 11
226.43335
 21
90.59999999999999
  0
LINE
  5
1F9
100
AcDbEntity
  8
Shape2DView006
  6
ByLayer
 62
  256
370
   -1
100
AcDbLine
 10
0.259550623
 20
145.181164202
 11
2
 21
144.528495686
  0
ARC
  5
1FA
100
AcDbEntity
  8
Shape2DView006
  6
ByLayer
 62
  256
370
   -1
100
AcDbCircle
 10
0.4
 20
145.555695873
 40
0.4
100
AcDbArc
 50
180
 51
-110.55604522
  0
LINE
  5
1FB
100
AcDbEntity
  8
Shape2DView006
  6
ByLayer
 62
  256
370
   -1
100
AcDbLine
 10
0
 20
145.555695873
 11
0
 21
147.678495686
  0
ARC
  5
1FC
100
AcDbEntity
  8
Shape2DView006
  6
ByLayer
 62
  256
370
   -1
100
AcDbCircle
 10
0.4
 20
147.678495686
 40
0.4
100
AcDbArc
 50
90
 51
180
  0
LINE
  5
1FD
100
AcDbEntity
  8
Shape2DView006
  6
ByLayer
 62
  256
370
   -1
100
AcDbLine
 10
0.4
 20
148.078495686
 11
14
 21
148.078495686
  0
ARC
  5
1FE
100
AcDbEntity
  8
Shape2DView006
  6
ByLayer
 62
  256
370
   -1
100
AcDbCircle
 10
14
 20
148.478495686
 40
0.4
100
AcDbArc
 50
-90
 51
90
  0
LINE
  5
1FF
100
AcDbEntity
  8
Shape2DView006
  6
ByLayer
 62
  256
370
   -1
100
AcDbLine
 10
14
 20
148.878495686
 11
0.4
 21
148.878495686
  0
ARC
  5
200
100
AcDbEntity
  8
Shape2DView006
  6
ByLayer
 62
  256
370
   -1
100
AcDbCircle
 10
0.4
 20
149.278495686
 40
0.4
100
AcDbArc
 50
180
 51
-90
  0
LINE
  5
201
100
AcDbEntity
  8
Shape2DView006
  6
ByLayer
 62
  256
370
   -1
100
AcDbLine
 10
0
 20
149.278495686
 11
0
 21
168.296845686
  0
LINE
  5
202
100
AcDbEntity
  8
Shape2DView006
  6
ByLayer
 62
  256
370
   -1
100
AcDbLine
 10
2.574660682
 20
168.296845686
 11
0
 21
168.296845686
  0
ARC
  5
203
100
AcDbEntity
  8
Shape2DView006
  6
ByLayer
 62
  256
370
   -1
100
AcDbCircle
 10
2.747095
 20
168.396400686
 40
0.19911
100
AcDbArc
 50
-150
 51
59.99999999999999
  0
LINE
  5
204
100
AcDbEntity
  8
Shape2DView006
  6
ByLayer
 62
  256
370
   -1
100
AcDbLine
 10
2.84665
 20
168.568835004
 11
2.84665
 21
179.838156368
  0
ARC
  5
205
100
AcDbEntity
  8
Shape2DView006
  6
ByLayer
 62
  256
370
   -1
100
AcDbCircle
 10
2.747095
 20
180.010590686
 40
0.19911
100
AcDbArc
 50
-59.99999999999999
 51
150
  0
LINE
  5
206
100
AcDbEntity
  8
Shape2DView006
  6
ByLayer
 62
  256
370
   -1
100
AcDbLine
 10
2.574660682
 20
180.110145686
 11
0
 21
180.110145686
  0
LINE
  5
207
100
AcDbEntity
  8
Shape2DView006
  6
ByLayer
 62
  256
370
   -1
100
AcDbLine
 10
0
 20
180.110145686
 11
0
 21
211.046845686
  0
LINE
  5
208
100
AcDbEntity
  8
Shape2DView006
  6
ByLayer
 62
  256
370
   -1
100
AcDbLine
 10
2.574660682
 20
211.046845686
 11
0
 21
211.046845686
  0
ARC
  5
209
100
AcDbEntity
  8
Shape2DView006
  6
ByLayer
 62
  256
370
   -1
100
AcDbCircle
 10
2.747095
 20
211.146400686
 40
0.19911
100
AcDbArc
 50
-150
 51
59.99999999999999
  0
LINE
  5
20A
100
AcDbEntity
  8
Shape2DView006
  6
ByLayer
 62
  256
370
   -1
100
AcDbLine
 10
2.84665
 20
211.318835004
 11
2.84665
 21
222.588156368
  0
ARC
  5
20B
100
AcDbEntity
  8
Shape2DView006
  6
ByLayer
 62
  256
370
   -1
100
AcDbCircle
 10
2.747095
 20
222.760590686
 40
0.19911
100
AcDbArc
 50
-59.99999999999999
 51
150
  0
LINE
  5
20C
100
AcDbEntity
  8
Shape2DView006
  6
ByLayer
 62
  256
370
   -1
100
AcDbLine
 10
2.574660682
 20
222.860145686
 11
0
 21
222.860145686
  0
LINE
  5
20D
100
AcDbEntity
  8
Shape2DView006
  6
ByLayer
 62
  256
370
   -1
100
AcDbLine
 10
0
 20
222.860145686
 11
0
 21
241.878495686
  0
ARC
  5
20E
100
AcDbEntity
  8
Shape2DView006
  6
ByLayer
 62
  256
370
   -1
100
AcDbCircle
 10
0.4
 20
241.878495686
 40
0.4
100
AcDbArc
 50
90
 51
180
  0
LINE
  5
20F
100
AcDbEntity
  8
Shape2DView006
  6
ByLayer
 62
  256
370
   -1
100
AcDbLine
 10
0.4
 20
242.278495686
 11
14
 21
242.278495686
  0
ARC
  5
210
100
AcDbEntity
  8
Shape2DView006
  6
ByLayer
 62
  256
370
   -1
100
AcDbCircle
 10
14
 20
242.678495686
 40
0.4
100
AcDbArc
 50
-90
 51
90
  0
LINE
  5
211
100
AcDbEntity
  8
Shape2DView006
  6
ByLayer
 62
  256
370
   -1
100
AcDbLine
 10
14
 20
243.078495686
 11
0.4
 21
243.078495686
  0
ARC
  5
212
100
AcDbEntity
  8
Shape2DView006
  6
ByLayer
 62
  256
370
   -1
100
AcDbCircle
 10
0.4
 20
243.478495686
 40
0.4
100
AcDbArc
 50
180
 51
-90
  0
LINE
  5
213
100
AcDbEntity
  8
Shape2DView006
  6
ByLayer
 62
  256
370
   -1
100
AcDbLine
 10
0
 20
243.478495686
 11
0
 21
245.601295499
  0
ARC
  5
214
100
AcDbEntity
  8
Shape2DView006
  6
ByLayer
 62
  256
370
   -1
100
AcDbCircle
 10
0.4
 20
245.601295499
 40
0.4
100
AcDbArc
 50
110.55604522
 51
180
  0
LINE
  5
215
100
AcDbEntity
  8
Shape2DView006
  6
ByLayer
 62
  256
370
   -1
100
AcDbLine
 10
0.259550623
 20
245.97582717
 11
2
 21
246.628495686
  0
LINE
  5
216
100
AcDbEntity
  8
Shape2DView006
  6
ByLayer
 62
  256
370
   -1
100
AcDbLine
 10
2
 20
246.628495686
 11
2
 21
245.878495686
  0
LINE
  5
217
100
AcDbEntity
  8
Shape2DView006
  6
ByLayer
 62
  256
370
   -1
100
AcDbLine
 10
2
 20
245.878495686
 11
4.8
 21
245.878495686
  0
LINE
  5
218
100
AcDbEntity
  8
Shape2DView006
  6
ByLayer
 62
  256
370
   -1
100
AcDbLine
 10
4.8
 20
247.357205537
 11
4.8
 21
245.878495686
  0
ARC
  5
219
100
AcDbEntity
  8
Shape2DView006
  6
ByLayer
 62
  256
370
   -1
100
AcDbCircle
 10
5.2
 20
247.357205537
 40
0.4
100
AcDbArc
 50
75
 51
180
  0
LINE
  5
21A
100
AcDbEntity
  8
Shape2DView006
  6
ByLayer
 62
  256
370
   -1
100
AcDbLine
 10
12.264101615
 20
245.878495686
 11
5.303527618
 21
247.743575867
  0
LINE
  5
21B
100
AcDbEntity
  8
Shape2DView006
  6
ByLayer
 62
  256
370
   -1
100
AcDbLine
 10
20.55335
 20
245.878495686
 11
12.264101615
 21
245.878495686
  0
LINE
  5
21C
100
AcDbEntity
  8
Shape2DView006
  6
ByLayer
 62
  256
370
   -1
100
AcDbLine
 10
20.55335
 20
245.878495686
 11
20.55335
 21
243.303835004
  0
ARC
  5
21D
100
AcDbEntity
  8
Shape2DView006
  6
ByLayer
 62
  256
370
   -1
100
AcDbCircle
 10
20.652905
 20
243.131400686
 40
0.19911
100
AcDbArc
 50
120
 51
-90
  0
ARC
  5
21E
100
AcDbEntity
  8
Shape2DView006
  6
ByLayer
 62
  256
370
   -1
100
AcDbCircle
 10
20.652905
 20
243.131400686
 40
0.19911
100
AcDbArc
 50
-90
 51
-30
  0
LINE
  5
21F
100
AcDbEntity
  8
Shape2DView006
  6
ByLayer
 62
  256
370
   -1
100
AcDbLine
 10
32.094660682
 20
243.031845686
 11
20.825339318
 21
243.031845686
  0
ARC
  5
220
100
AcDbEntity
  8
Shape2DView006
  6
ByLayer
 62
  256
370
   -1
100
AcDbCircle
 10
32.267095
 20
243.131400686
 40
0.19911
100
AcDbArc
 50
-150
 51
-90
  0
ARC
  5
221
100
AcDbEntity
  8
Shape2DView006
  6
ByLayer
 62
  256
370
   -1
100
AcDbCircle
 10
32.267095
 20
243.131400686
 40
0.19911
100
AcDbArc
 50
-90
 51
59.99999999999999
  0
LINE
  5
222
100
AcDbEntity
  8
Shape2DView006
  6
ByLayer
 62
  256
370
   -1
100
AcDbLine
 10
32.36665
 20
245.878495686
 11
32.36665
 21
243.303835004
  0
LINE
  5
223
100
AcDbEntity
  8
Shape2DView006
  6
ByLayer
 62
  256
370
   -1
100
AcDbLine
 10
43.23335
 20
245.878495686
 11
32.36665
 21
245.878495686
  0
LINE
  5
224
100
AcDbEntity
  8
Shape2DView006
  6
ByLayer
 62
  256
370
   -1
100
AcDbLine
 10
43.23335
 20
245.878495686
 11
43.23335
 21
243.303835004
  0
ARC
  5
225
100
AcDbEntity
  8
Shape2DView006
  6
ByLayer
 62
  256
370
   -1
100
AcDbCircle
 10
43.332905
 20
243.131400686
 40
0.19911
100
AcDbArc
 50
120
 51
-90
  0
ARC
  5
226
100
AcDbEntity
  8
Shape2DView006
  6
ByLayer
 62
  256
370
   -1
100
AcDbCircle
 10
43.332905
 20
243.131400686
 40
0.19911
100
AcDbArc
 50
-90
 51
-30
  0
LINE
  5
227
100
AcDbEntity
  8
Shape2DView006
  6
ByLayer
 62
  256
370
   -1
100
AcDbLine
 10
54.774660682
 20
243.031845686
 11
43.505339318
 21
243.031845686
  0
ARC
  5
228
100
AcDbEntity
  8
Shape2DView006
  6
ByLayer
 62
  256
370
   -1
100
AcDbCircle
 10
54.947095
 20
243.131400686
 40
0.19911
100
AcDbArc
 50
-150
 51
-90
  0
ARC
  5
229
100
AcDbEntity
  8
Shape2DView006
  6
ByLayer
 62
  256
370
   -1
100
AcDbCircle
 10
54.947095
 20
243.131400686
 40
0.19911
100
AcDbArc
 50
-90
 51
59.99999999999999
  0
LINE
  5
22A
100
AcDbEntity
  8
Shape2DView006
  6
ByLayer
 62
  256
370
   -1
100
AcDbLine
 10
55.04665
 20
245.878495686
 11
55.04665
 21
243.303835004
  0
LINE
  5
22B
100
AcDbEntity
  8
Shape2DView006
  6
ByLayer
 62
  256
370
   -1
100
AcDbLine
 10
63.335898385
 20
245.878495686
 11
55.04665
 21
245.878495686
  0
LINE
  5
22C
100
AcDbEntity
  8
Shape2DView006
  6
ByLayer
 62
  256
370
   -1
100
AcDbLine
 10
70.296472382
 20
247.743575867
 11
63.335898385
 21
245.878495686
  0
ARC
  5
22D
100
AcDbEntity
  8
Shape2DView006
  6
ByLayer
 62
  256
370
   -1
100
AcDbCircle
 10
70.40000000000001
 20
247.357205537
 40
0.4
100
AcDbArc
 50
0
 51
105
  0
LINE
  5
22E
100
AcDbEntity
  8
Shape2DView006
  6
ByLayer
 62
  256
370
   -1
100
AcDbLine
 10
70.8
 20
245.878495686
 11
70.8
 21
247.357205537
  0
LINE
  5
22F
100
AcDbEntity
  8
Shape2DView006
  6
ByLayer
 62
  256
370
   -1
100
AcDbLine
 10
73.59999999999999
 20
245.878495686
 11
70.8
 21
245.878495686
  0
LINE
  5
230
100
AcDbEntity
  8
Shape2DView006
  6
ByLayer
 62
  256
370
   -1
100
AcDbLine
 10
73.59999999999999
 20
246.628495686
 11
73.59999999999999
 21
245.878495686
  0
LINE
  5
231
100
AcDbEntity
  8
Shape2DView006
  6
ByLayer
 62
  256
370
   -1
100
AcDbLine
 10
75.340449377
 20
245.97582717
 11
73.59999999999999
 21
246.628495686
  0
ARC
  5
232
100
AcDbEntity
  8
Shape2DView006
  6
ByLayer
 62
  256
370
   -1
100
AcDbCircle
 10
75.2
 20
245.601295499
 40
0.4
100
AcDbArc
 50
0
 51
69.44395478
  0
LINE
  5
233
100
AcDbEntity
  8
Shape2DView006
  6
ByLayer
 62
  256
370
   -1
100
AcDbLine
 10
75.59999999999999
 20
245.601295499
 11
75.59999999999999
 21
243.478495686
  0
ARC
  5
234
100
AcDbEntity
  8
Shape2DView006
  6
ByLayer
 62
  256
370
   -1
100
AcDbCircle
 10
75.2
 20
243.478495686
 40
0.4
100
AcDbArc
 50
-90
 51
0
  0
LINE
  5
235
100
AcDbEntity
  8
Shape2DView006
  6
ByLayer
 62
  256
370
   -1
100
AcDbLine
 10
75.2
 20
243.078495686
 11
61.6
 21
243.078495686
  0
ARC
  5
236
100
AcDbEntity
  8
Shape2DView006
  6
ByLayer
 62
  256
370
   -1
100
AcDbCircle
 10
61.6
 20
242.678495686
 40
0.4
100
AcDbArc
 50
90
 51
-90
  0
LINE
  5
237
100
AcDbEntity
  8
Shape2DView006
  6
ByLayer
 62
  256
370
   -1
100
AcDbLine
 10
61.6
 20
242.278495686
 11
75.2
 21
242.278495686
  0
ARC
  5
238
100
AcDbEntity
  8
Shape2DView006
  6
ByLayer
 62
  256
370
   -1
100
AcDbCircle
 10
75.2
 20
241.878495686
 40
0.4
100
AcDbArc
 50
0
 51
90
  0
LINE
  5
239
100
AcDbEntity
  8
Shape2DView006
  6
ByLayer
 62
  256
370
   -1
100
AcDbLine
 10
75.59999999999999
 20
241.878495686
 11
75.59999999999999
 21
222.860145686
  0
LINE
  5
23A
100
AcDbEntity
  8
Shape2DView006
  6
ByLayer
 62
  256
370
   -1
100
AcDbLine
 10
73.02533931799999
 20
222.860145686
 11
75.59999999999999
 21
222.860145686
  0
ARC
  5
23B
100
AcDbEntity
  8
Shape2DView006
  6
ByLayer
 62
  256
370
   -1
100
AcDbCircle
 10
72.85290500000001
 20
222.760590686
 40
0.19911
100
AcDbArc
 50
30
 51
-120
  0
LINE
  5
23C
100
AcDbEntity
  8
Shape2DView006
  6
ByLayer
 62
  256
370
   -1
100
AcDbLine
 10
72.75335
 20
222.588156368
 11
72.75335
 21
211.318835004
  0
ARC
  5
23D
100
AcDbEntity
  8
Shape2DView006
  6
ByLayer
 62
  256
370
   -1
100
AcDbCircle
 10
72.85290500000001
 20
211.146400686
 40
0.19911
100
AcDbArc
 50
120
 51
-30
  0
LINE
  5
23E
100
AcDbEntity
  8
Shape2DView006
  6
ByLayer
 62
  256
370
   -1
100
AcDbLine
 10
73.02533931799999
 20
211.046845686
 11
75.59999999999999
 21
211.046845686
  0
LINE
  5
23F
100
AcDbEntity
  8
Shape2DView006
  6
ByLayer
 62
  256
370
   -1
100
AcDbLine
 10
75.59999999999999
 20
211.046845686
 11
75.59999999999999
 21
180.110145686
  0
LINE
  5
240
100
AcDbEntity
  8
Shape2DView006
  6
ByLayer
 62
  256
370
   -1
100
AcDbLine
 10
73.02533931799999
 20
180.110145686
 11
75.59999999999999
 21
180.110145686
  0
ARC
  5
241
100
AcDbEntity
  8
Shape2DView006
  6
ByLayer
 62
  256
370
   -1
100
AcDbCircle
 10
72.85290500000001
 20
180.010590686
 40
0.19911
100
AcDbArc
 50
30
 51
-120
  0
LINE
  5
242
100
AcDbEntity
  8
Shape2DView006
  6
ByLayer
 62
  256
370
   -1
100
AcDbLine
 10
72.75335
 20
179.838156368
 11
72.75335
 21
168.568835004
  0
ARC
  5
243
100
AcDbEntity
  8
Shape2DView006
  6
ByLayer
 62
  256
370
   -1
100
AcDbCircle
 10
72.85290500000001
 20
168.396400686
 40
0.19911
100
AcDbArc
 50
120
 51
-30
  0
LINE
  5
244
100
AcDbEntity
  8
Shape2DView006
  6
ByLayer
 62
  256
370
   -1
100
AcDbLine
 10
73.02533931799999
 20
168.296845686
 11
75.59999999999999
 21
168.296845686
  0
LINE
  5
245
100
AcDbEntity
  8
Shape2DView006
  6
ByLayer
 62
  256
370
   -1
100
AcDbLine
 10
75.59999999999999
 20
168.296845686
 11
75.59999999999999
 21
149.278495686
  0
ARC
  5
246
100
AcDbEntity
  8
Shape2DView006
  6
ByLayer
 62
  256
370
   -1
100
AcDbCircle
 10
75.2
 20
149.278495686
 40
0.4
100
AcDbArc
 50
-90
 51
0
  0
LINE
  5
247
100
AcDbEntity
  8
Shape2DView006
  6
ByLayer
 62
  256
370
   -1
100
AcDbLine
 10
61.6
 20
148.878495686
 11
75.2
 21
148.878495686
  0
ARC
  5
248
100
AcDbEntity
  8
Shape2DView006
  6
ByLayer
 62
  256
370
   -1
100
AcDbCircle
 10
61.6
 20
148.478495686
 40
0.4
100
AcDbArc
 50
90
 51
-90
  0
LINE
  5
249
100
AcDbEntity
  8
Shape2DView006
  6
ByLayer
 62
  256
370
   -1
100
AcDbLine
 10
75.2
 20
148.078495686
 11
61.6
 21
148.078495686
  0
ARC
  5
24A
100
AcDbEntity
  8
Shape2DView006
  6
ByLayer
 62
  256
370
   -1
100
AcDbCircle
 10
75.2
 20
147.678495686
 40
0.4
100
AcDbArc
 50
0
 51
90
  0
LINE
  5
24B
100
AcDbEntity
  8
Shape2DView006
  6
ByLayer
 62
  256
370
   -1
100
AcDbLine
 10
75.59999999999999
 20
147.678495686
 11
75.59999999999999
 21
145.555695873
  0
ARC
  5
24C
100
AcDbEntity
  8
Shape2DView006
  6
ByLayer
 62
  256
370
   -1
100
AcDbCircle
 10
75.2
 20
145.555695873
 40
0.4
100
AcDbArc
 50
-69.44395478
 51
0
  0
LINE
  5
24D
100
AcDbEntity
  8
Shape2DView006
  6
ByLayer
 62
  256
370
   -1
100
AcDbLine
 10
75.340449377
 20
145.181164202
 11
73.59999999999999
 21
144.528495686
  0
LINE
  5
24E
100
AcDbEntity
  8
Shape2DView006
  6
ByLayer
 62
  256
370
   -1
100
AcDbLine
 10
73.59999999999999
 20
144.528495686
 11
73.59999999999999
 21
145.278495686
  0
LINE
  5
24F
100
AcDbEntity
  8
Shape2DView006
  6
ByLayer
 62
  256
370
   -1
100
AcDbLine
 10
73.59999999999999
 20
145.278495686
 11
70.8
 21
145.278495686
  0
LINE
  5
250
100
AcDbEntity
  8
Shape2DView006
  6
ByLayer
 62
  256
370
   -1
100
AcDbLine
 10
70.8
 20
143.799785835
 11
70.8
 21
145.278495686
  0
ARC
  5
251
100
AcDbEntity
  8
Shape2DView006
  6
ByLayer
 62
  256
370
   -1
100
AcDbCircle
 10
70.40000000000001
 20
143.799785835
 40
0.4
100
AcDbArc
 50
-105
 51
0
  0
LINE
  5
252
100
AcDbEntity
  8
Shape2DView006
  6
ByLayer
 62
  256
370
   -1
100
AcDbLine
 10
63.335898385
 20
145.278495686
 11
70.296472382
 21
143.413415504
  0
LINE
  5
253
100
AcDbEntity
  8
Shape2DView006
  6
ByLayer
 62
  256
370
   -1
100
AcDbLine
 10
12.264101615
 20
145.278495686
 11
63.335898385
 21
145.278495686
  0
LINE
  5
254
100
AcDbEntity
  8
Shape2DView006
  6
ByLayer
 62
  256
370
   -1
100
AcDbLine
 10
5.303527618
 20
143.413415504
 11
12.264101615
 21
145.278495686
  0
ARC
  5
255
100
AcDbEntity
  8
Shape2DView006
  6
ByLayer
 62
  256
370
   -1
100
AcDbCircle
 10
5.2
 20
143.799785835
 40
0.4
100
AcDbArc
 50
-180
 51
-75
  0
LINE
  5
256
100
AcDbEntity
  8
Shape2DView006
  6
ByLayer
 62
  256
370
   -1
100
AcDbLine
 10
4.8
 20
145.278495686
 11
4.8
 21
143.799785835
  0
LINE
  5
257
100
AcDbEntity
  8
Shape2DView006
  6
ByLayer
 62
  256
370
   -1
100
AcDbLine
 10
2
 20
145.278495686
 11
4.8
 21
145.278495686
  0
LINE
  5
258
100
AcDbEntity
  8
Shape2DView006
  6
ByLayer
 62
  256
370
   -1
100
AcDbLine
 10
2
 20
144.528495686
 11
2
 21
145.278495686
  0
ARC
  5
259
100
AcDbEntity
  8
Shape2DView006
  6
ByLayer
 62
  256
370
   -1
100
AcDbCircle
 10
22.55
 20
149.578495686
 40
0.5
100
AcDbArc
 50
169.296296556
 51
-10.703703444
  0
ARC
  5
25A
100
AcDbEntity
  8
Shape2DView006
  6
ByLayer
 62
  256
370
   -1
100
AcDbCircle
 10
-14.483331521
 20
156.578495549
 40
37.189091812
100
AcDbArc
 50
-10.703703444
 51
10.703703869
  0
ARC
  5
25B
100
AcDbEntity
  8
Shape2DView006
  6
ByLayer
 62
  256
370
   -1
100
AcDbCircle
 10
-14.483331521
 20
156.578495549
 40
38.189091812
100
AcDbArc
 50
-10.703703444
 51
10.703703869
  0
ARC
  5
25C
100
AcDbEntity
  8
Shape2DView006
  6
ByLayer
 62
  256
370
   -1
100
AcDbCircle
 10
22.549999948
 20
163.578495686
 40
0.5
100
AcDbArc
 50
10.703703869
 51
-169.296296131
  0
ARC
  5
25D
100
AcDbEntity
  8
Shape2DView006
  6
ByLayer
 62
  256
370
   -1
100
AcDbCircle
 10
49.55
 20
149.578495686
 40
1.5
100
AcDbArc
 50
-90
 51
0
  0
LINE
  5
25E
100
AcDbEntity
  8
Shape2DView006
  6
ByLayer
 62
  256
370
   -1
100
AcDbLine
 10
49.55
 20
148.078495686
 11
26.05
 21
148.078495686
  0
ARC
  5
25F
100
AcDbEntity
  8
Shape2DView006
  6
ByLayer
 62
  256
370
   -1
100
AcDbCircle
 10
49.55
 20
149.578495686
 40
1.5
100
AcDbArc
 50
0
 51
9.798185124
  0
ARC
  5
260
100
AcDbEntity
  8
Shape2DView006
  6
ByLayer
 62
  256
370
   -1
100
AcDbCircle
 10
26.05
 20
149.578495686
 40
1.5
100
AcDbArc
 50
180
 51
-90
  0
ARC
  5
261
100
AcDbEntity
  8
Shape2DView006
  6
ByLayer
 62
  256
370
   -1
100
AcDbCircle
 10
90.083331524
 20
156.578495531
 40
39.633331524
100
AcDbArc
 50
170.201814876
 51
-170.201814876
  0
ARC
  5
262
100
AcDbEntity
  8
Shape2DView006
  6
ByLayer
 62
  256
370
   -1
100
AcDbCircle
 10
26.05
 20
149.578495686
 40
1.5
100
AcDbArc
 50
170.201814851
 51
180
  0
ARC
  5
263
100
AcDbEntity
  8
Shape2DView006
  6
ByLayer
 62
  256
370
   -1
100
AcDbCircle
 10
49.55
 20
163.578495376
 40
1.5
100
AcDbArc
 50
-9.798185124
 51
1.185e-05
  0
ARC
  5
264
100
AcDbEntity
  8
Shape2DView006
  6
ByLayer
 62
  256
370
   -1
100
AcDbCircle
 10
-14.483331521
 20
156.578495549
 40
39.633331524
100
AcDbArc
 50
-9.798185149
 51
9.798185149
  0
ARC
  5
265
100
AcDbEntity
  8
Shape2DView006
  6
ByLayer
 62
  256
370
   -1
100
AcDbCircle
 10
49.55
 20
163.578495686
 40
1.5
100
AcDbArc
 50
0
 51
90
  0
ARC
  5
266
100
AcDbEntity
  8
Shape2DView006
  6
ByLayer
 62
  256
370
   -1
100
AcDbCircle
 10
26.05
 20
163.578495411
 40
1.5
100
AcDbArc
 50
179.999989508
 51
-170.201814851
  0
LINE
  5
267
100
AcDbEntity
  8
Shape2DView006
  6
ByLayer
 62
  256
370
   -1
100
AcDbLine
 10
26.05
 20
165.078495686
 11
49.55
 21
165.078495686
  0
ARC
  5
268
100
AcDbEntity
  8
Shape2DView006
  6
ByLayer
 62
  256
370
   -1
100
AcDbCircle
 10
26.05
 20
163.578495686
 40
1.5
100
AcDbArc
 50
90
 51
180
  0
ARC
  5
269
100
AcDbEntity
  8
Shape2DView006
  6
ByLayer
 62
  256
370
   -1
100
AcDbCircle
 10
53.050000059
 20
163.578495686
 40
0.5
100
AcDbArc
 50
-10.703703897
 51
169.296296103
  0
ARC
  5
26A
100
AcDbEntity
  8
Shape2DView006
  6
ByLayer
 62
  256
370
   -1
100
AcDbCircle
 10
90.083331524
 20
156.578495531
 40
37.189091811
100
AcDbArc
 50
169.296296103
 51
-169.296296583
  0
ARC
  5
26B
100
AcDbEntity
  8
Shape2DView006
  6
ByLayer
 62
  256
370
   -1
100
AcDbCircle
 10
90.083331524
 20
156.578495531
 40
38.189091811
100
AcDbArc
 50
169.296296103
 51
-169.296296583
  0
ARC
  5
26C
100
AcDbEntity
  8
Shape2DView006
  6
ByLayer
 62
  256
370
   -1
100
AcDbCircle
 10
53.05
 20
149.578495686
 40
0.5
100
AcDbArc
 50
-169.296296583
 51
10.703703417
  0
LINE
  5
26D
100
AcDbEntity
  8
Shape2DView008
  6
ByLayer
 62
  256
370
   -1
100
AcDbLine
 10
176
 20
167.878495686
 11
176
 21
169.357205537
  0
LINE
  5
26E
100
AcDbEntity
  8
Shape2DView008
  6
ByLayer
 62
  256
370
   -1
100
AcDbLine
 10
173.2
 20
167.878495686
 11
176
 21
167.878495686
  0
LINE
  5
26F
100
AcDbEntity
  8
Shape2DView008
  6
ByLayer
 62
  256
370
   -1
100
AcDbLine
 10
173.2
 20
167.878495686
 11
173.2
 21
168.628495686
  0
LINE
  5
270
100
AcDbEntity
  8
Shape2DView008
  6
ByLayer
 62
  256
370
   -1
100
AcDbLine
 10
173.2
 20
168.628495686
 11
171.459550623
 21
167.97582717
  0
ARC
  5
271
100
AcDbEntity
  8
Shape2DView008
  6
ByLayer
 62
  256
370
   -1
100
AcDbCircle
 10
171.6
 20
167.601295499
 40
0.4
100
AcDbArc
 50
110.55604522
 51
180
  0
LINE
  5
272
100
AcDbEntity
  8
Shape2DView008
  6
ByLayer
 62
  256
370
   -1
100
AcDbLine
 10
171.2
 20
165.478495686
 11
171.2
 21
167.601295499
  0
ARC
  5
273
100
AcDbEntity
  8
Shape2DView008
  6
ByLayer
 62
  256
370
   -1
100
AcDbCircle
 10
171.6
 20
165.478495686
 40
0.4
100
AcDbArc
 50
180
 51
-90
  0
LINE
  5
274
100
AcDbEntity
  8
Shape2DView008
  6
ByLayer
 62
  256
370
   -1
100
AcDbLine
 10
185.2
 20
165.078495686
 11
171.6
 21
165.078495686
  0
ARC
  5
275
100
AcDbEntity
  8
Shape2DView008
  6
ByLayer
 62
  256
370
   -1
100
AcDbCircle
 10
185.2
 20
164.678495686
 40
0.4
100
AcDbArc
 50
-90
 51
90
  0
LINE
  5
276
100
AcDbEntity
  8
Shape2DView008
  6
ByLayer
 62
  256
370
   -1
100
AcDbLine
 10
171.6
 20
164.278495686
 11
185.2
 21
164.278495686
  0
ARC
  5
277
100
AcDbEntity
  8
Shape2DView008
  6
ByLayer
 62
  256
370
   -1
100
AcDbCircle
 10
171.6
 20
163.878495686
 40
0.4
100
AcDbArc
 50
90
 51
180
  0
LINE
  5
278
100
AcDbEntity
  8
Shape2DView008
  6
ByLayer
 62
  256
370
   -1
100
AcDbLine
 10
171.2
 20
149.278495686
 11
171.2
 21
163.878495686
  0
ARC
  5
279
100
AcDbEntity
  8
Shape2DView008
  6
ByLayer
 62
  256
370
   -1
100
AcDbCircle
 10
171.6
 20
149.278495686
 40
0.4
100
AcDbArc
 50
180
 51
-90
  0
LINE
  5
27A
100
AcDbEntity
  8
Shape2DView008
  6
ByLayer
 62
  256
370
   -1
100
AcDbLine
 10
185.2
 20
148.878495686
 11
171.6
 21
148.878495686
  0
ARC
  5
27B
100
AcDbEntity
  8
Shape2DView008
  6
ByLayer
 62
  256
370
   -1
100
AcDbCircle
 10
185.2
 20
148.478495686
 40
0.4
100
AcDbArc
 50
-90
 51
90
  0
LINE
  5
27C
100
AcDbEntity
  8
Shape2DView008
  6
ByLayer
 62
  256
370
   -1
100
AcDbLine
 10
171.6
 20
148.078495686
 11
185.2
 21
148.078495686
  0
ARC
  5
27D
100
AcDbEntity
  8
Shape2DView008
  6
ByLayer
 62
  256
370
   -1
100
AcDbCircle
 10
171.6
 20
147.678495686
 40
0.4
100
AcDbArc
 50
90
 51
180
  0
LINE
  5
27E
100
AcDbEntity
  8
Shape2DView008
  6
ByLayer
 62
  256
370
   -1
100
AcDbLine
 10
171.2
 20
145.555695873
 11
171.2
 21
147.678495686
  0
ARC
  5
27F
100
AcDbEntity
  8
Shape2DView008
  6
ByLayer
 62
  256
370
   -1
100
AcDbCircle
 10
171.6
 20
145.555695873
 40
0.4
100
AcDbArc
 50
180
 51
-110.55604522
  0
LINE
  5
280
100
AcDbEntity
  8
Shape2DView008
  6
ByLayer
 62
  256
370
   -1
100
AcDbLine
 10
171.459550623
 20
145.181164202
 11
173.2
 21
144.528495686
  0
LINE
  5
281
100
AcDbEntity
  8
Shape2DView008
  6
ByLayer
 62
  256
370
   -1
100
AcDbLine
 10
173.2
 20
145.278495686
 11
173.2
 21
144.528495686
  0
LINE
  5
282
100
AcDbEntity
  8
Shape2DView008
  6
ByLayer
 62
  256
370
   -1
100
AcDbLine
 10
176
 20
145.278495686
 11
173.2
 21
145.278495686
  0
LINE
  5
283
100
AcDbEntity
  8
Shape2DView008
  6
ByLayer
 62
  256
370
   -1
100
AcDbLine
 10
176
 20
143.799785835
 11
176
 21
145.278495686
  0
ARC
  5
284
100
AcDbEntity
  8
Shape2DView008
  6
ByLayer
 62
  256
370
   -1
100
AcDbCircle
 10
176.4
 20
143.799785835
 40
0.4
100
AcDbArc
 50
180
 51
-75
  0
LINE
  5
285
100
AcDbEntity
  8
Shape2DView008
  6
ByLayer
 62
  256
370
   -1
100
AcDbLine
 10
183.464101615
 20
145.278495686
 11
176.503527618
 21
143.413415504
  0
LINE
  5
286
100
AcDbEntity
  8
Shape2DView008
  6
ByLayer
 62
  256
370
   -1
100
AcDbLine
 10
191.75335
 20
145.278495686
 11
183.464101615
 21
145.278495686
  0
LINE
  5
287
100
AcDbEntity
  8
Shape2DView008
  6
ByLayer
 62
  256
370
   -1
100
AcDbLine
 10
191.75335
 20
147.853156368
 11
191.75335
 21
145.278495686
  0
ARC
  5
288
100
AcDbEntity
  8
Shape2DView008
  6
ByLayer
 62
  256
370
   -1
100
AcDbCircle
 10
191.852905
 20
148.025590686
 40
0.19911
100
AcDbArc
 50
30
 51
-120
  0
LINE
  5
289
100
AcDbEntity
  8
Shape2DView008
  6
ByLayer
 62
  256
370
   -1
100
AcDbLine
 10
203.294660682
 20
148.125145686
 11
192.025339318
 21
148.125145686
  0
ARC
  5
28A
100
AcDbEntity
  8
Shape2DView008
  6
ByLayer
 62
  256
370
   -1
100
AcDbCircle
 10
203.467095
 20
148.025590686
 40
0.19911
100
AcDbArc
 50
-59.99999999999999
 51
150
  0
LINE
  5
28B
100
AcDbEntity
  8
Shape2DView008
  6
ByLayer
 62
  256
370
   -1
100
AcDbLine
 10
203.56665
 20
147.853156368
 11
203.56665
 21
145.278495686
  0
LINE
  5
28C
100
AcDbEntity
  8
Shape2DView008
  6
ByLayer
 62
  256
370
   -1
100
AcDbLine
 10
214.43335
 20
145.278495686
 11
203.56665
 21
145.278495686
  0
LINE
  5
28D
100
AcDbEntity
  8
Shape2DView008
  6
ByLayer
 62
  256
370
   -1
100
AcDbLine
 10
214.43335
 20
147.853156368
 11
214.43335
 21
145.278495686
  0
ARC
  5
28E
100
AcDbEntity
  8
Shape2DView008
  6
ByLayer
 62
  256
370
   -1
100
AcDbCircle
 10
214.532905
 20
148.025590686
 40
0.19911
100
AcDbArc
 50
30
 51
-120
  0
LINE
  5
28F
100
AcDbEntity
  8
Shape2DView008
  6
ByLayer
 62
  256
370
   -1
100
AcDbLine
 10
225.974660682
 20
148.125145686
 11
214.705339318
 21
148.125145686
  0
ARC
  5
290
100
AcDbEntity
  8
Shape2DView008
  6
ByLayer
 62
  256
370
   -1
100
AcDbCircle
 10
226.147095
 20
148.025590686
 40
0.19911
100
AcDbArc
 50
-59.99999999999999
 51
150
  0
LINE
  5
291
100
AcDbEntity
  8
Shape2DView008
  6
ByLayer
 62
  256
370
   -1
100
AcDbLine
 10
226.24665
 20
147.853156368
 11
226.24665
 21
145.278495686
  0
LINE
  5
292
100
AcDbEntity
  8
Shape2DView008
  6
ByLayer
 62
  256
370
   -1
100
AcDbLine
 10
234.535898385
 20
145.278495686
 11
226.24665
 21
145.278495686
  0
LINE
  5
293
100
AcDbEntity
  8
Shape2DView008
  6
ByLayer
 62
  256
370
   -1
100
AcDbLine
 10
241.496472382
 20
143.413415504
 11
234.535898385
 21
145.278495686
  0
ARC
  5
294
100
AcDbEntity
  8
Shape2DView008
  6
ByLayer
 62
  256
370
   -1
100
AcDbCircle
 10
241.6
 20
143.799785835
 40
0.4
100
AcDbArc
 50
-105
 51
0
  0
LINE
  5
295
100
AcDbEntity
  8
Shape2DView008
  6
ByLayer
 62
  256
370
   -1
100
AcDbLine
 10
242
 20
145.278495686
 11
242
 21
143.799785835
  0
LINE
  5
296
100
AcDbEntity
  8
Shape2DView008
  6
ByLayer
 62
  256
370
   -1
100
AcDbLine
 10
244.8
 20
145.278495686
 11
242
 21
145.278495686
  0
LINE
  5
297
100
AcDbEntity
  8
Shape2DView008
  6
ByLayer
 62
  256
370
   -1
100
AcDbLine
 10
244.8
 20
145.278495686
 11
244.8
 21
144.528495686
  0
LINE
  5
298
100
AcDbEntity
  8
Shape2DView008
  6
ByLayer
 62
  256
370
   -1
100
AcDbLine
 10
246.540449377
 20
145.181164202
 11
244.8
 21
144.528495686
  0
ARC
  5
299
100
AcDbEntity
  8
Shape2DView008
  6
ByLayer
 62
  256
370
   -1
100
AcDbCircle
 10
246.4
 20
145.555695873
 40
0.4
100
AcDbArc
 50
-69.44395478
 51
0
  0
LINE
  5
29A
100
AcDbEntity
  8
Shape2DView008
  6
ByLayer
 62
  256
370
   -1
100
AcDbLine
 10
246.8
 20
147.678495686
 11
246.8
 21
145.555695873
  0
ARC
  5
29B
100
AcDbEntity
  8
Shape2DView008
  6
ByLayer
 62
  256
370
   -1
100
AcDbCircle
 10
246.4
 20
147.678495686
 40
0.4
100
AcDbArc
 50
0
 51
90
  0
LINE
  5
29C
100
AcDbEntity
  8
Shape2DView008
  6
ByLayer
 62
  256
370
   -1
100
AcDbLine
 10
232.8
 20
148.078495686
 11
246.4
 21
148.078495686
  0
ARC
  5
29D
100
AcDbEntity
  8
Shape2DView008
  6
ByLayer
 62
  256
370
   -1
100
AcDbCircle
 10
232.8
 20
148.478495686
 40
0.4
100
AcDbArc
 50
90
 51
-90
  0
LINE
  5
29E
100
AcDbEntity
  8
Shape2DView008
  6
ByLayer
 62
  256
370
   -1
100
AcDbLine
 10
246.4
 20
148.878495686
 11
232.8
 21
148.878495686
  0
ARC
  5
29F
100
AcDbEntity
  8
Shape2DView008
  6
ByLayer
 62
  256
370
   -1
100
AcDbCircle
 10
246.4
 20
149.278495686
 40
0.4
100
AcDbArc
 50
-90
 51
0
  0
LINE
  5
2A0
100
AcDbEntity
  8
Shape2DView008
  6
ByLayer
 62
  256
370
   -1
100
AcDbLine
 10
246.8
 20
163.878495686
 11
246.8
 21
149.278495686
  0
ARC
  5
2A1
100
AcDbEntity
  8
Shape2DView008
  6
ByLayer
 62
  256
370
   -1
100
AcDbCircle
 10
246.4
 20
163.878495686
 40
0.4
100
AcDbArc
 50
0
 51
90
  0
LINE
  5
2A2
100
AcDbEntity
  8
Shape2DView008
  6
ByLayer
 62
  256
370
   -1
100
AcDbLine
 10
232.8
 20
164.278495686
 11
246.4
 21
164.278495686
  0
ARC
  5
2A3
100
AcDbEntity
  8
Shape2DView008
  6
ByLayer
 62
  256
370
   -1
100
AcDbCircle
 10
232.8
 20
164.678495686
 40
0.4
100
AcDbArc
 50
90
 51
-90
  0
LINE
  5
2A4
100
AcDbEntity
  8
Shape2DView008
  6
ByLayer
 62
  256
370
   -1
100
AcDbLine
 10
246.4
 20
165.078495686
 11
232.8
 21
165.078495686
  0
ARC
  5
2A5
100
AcDbEntity
  8
Shape2DView008
  6
ByLayer
 62
  256
370
   -1
100
AcDbCircle
 10
246.4
 20
165.478495686
 40
0.4
100
AcDbArc
 50
-90
 51
0
  0
LINE
  5
2A6
100
AcDbEntity
  8
Shape2DView008
  6
ByLayer
 62
  256
370
   -1
100
AcDbLine
 10
246.8
 20
167.601295499
 11
246.8
 21
165.478495686
  0
ARC
  5
2A7
100
AcDbEntity
  8
Shape2DView008
  6
ByLayer
 62
  256
370
   -1
100
AcDbCircle
 10
246.4
 20
167.601295499
 40
0.4
100
AcDbArc
 50
0
 51
69.44395478
  0
LINE
  5
2A8
100
AcDbEntity
  8
Shape2DView008
  6
ByLayer
 62
  256
370
   -1
100
AcDbLine
 10
244.8
 20
168.628495686
 11
246.540449377
 21
167.97582717
  0
LINE
  5
2A9
100
AcDbEntity
  8
Shape2DView008
  6
ByLayer
 62
  256
370
   -1
100
AcDbLine
 10
244.8
 20
167.878495686
 11
244.8
 21
168.628495686
  0
LINE
  5
2AA
100
AcDbEntity
  8
Shape2DView008
  6
ByLayer
 62
  256
370
   -1
100
AcDbLine
 10
242
 20
167.878495686
 11
244.8
 21
167.878495686
  0
LINE
  5
2AB
100
AcDbEntity
  8
Shape2DView008
  6
ByLayer
 62
  256
370
   -1
100
AcDbLine
 10
242
 20
169.357205537
 11
242
 21
167.878495686
  0
ARC
  5
2AC
100
AcDbEntity
  8
Shape2DView008
  6
ByLayer
 62
  256
370
   -1
100
AcDbCircle
 10
241.6
 20
169.357205537
 40
0.4
100
AcDbArc
 50
0
 51
105
  0
LINE
  5
2AD
100
AcDbEntity
  8
Shape2DView008
  6
ByLayer
 62
  256
370
   -1
100
AcDbLine
 10
234.535898385
 20
167.878495686
 11
241.496472382
 21
169.743575867
  0
LINE
  5
2AE
100
AcDbEntity
  8
Shape2DView008
  6
ByLayer
 62
  256
370
   -1
100
AcDbLine
 10
226.24665
 20
167.878495686
 11
234.535898385
 21
167.878495686
  0
LINE
  5
2AF
100
AcDbEntity
  8
Shape2DView008
  6
ByLayer
 62
  256
370
   -1
100
AcDbLine
 10
226.24665
 20
167.878495686
 11
226.24665
 21
165.303835004
  0
ARC
  5
2B0
100
AcDbEntity
  8
Shape2DView008
  6
ByLayer
 62
  256
370
   -1
100
AcDbCircle
 10
226.147095
 20
165.131400686
 40
0.19911
100
AcDbArc
 50
-90
 51
59.99999999999999
  0
ARC
  5
2B1
100
AcDbEntity
  8
Shape2DView008
  6
ByLayer
 62
  256
370
   -1
100
AcDbCircle
 10
226.147095
 20
165.131400686
 40
0.19911
100
AcDbArc
 50
-150
 51
-90
  0
LINE
  5
2B2
100
AcDbEntity
  8
Shape2DView008
  6
ByLayer
 62
  256
370
   -1
100
AcDbLine
 10
225.974660682
 20
165.031845686
 11
214.705339318
 21
165.031845686
  0
ARC
  5
2B3
100
AcDbEntity
  8
Shape2DView008
  6
ByLayer
 62
  256
370
   -1
100
AcDbCircle
 10
214.532905
 20
165.131400686
 40
0.19911
100
AcDbArc
 50
-90
 51
-30
  0
ARC
  5
2B4
100
AcDbEntity
  8
Shape2DView008
  6
ByLayer
 62
  256
370
   -1
100
AcDbCircle
 10
214.532905
 20
165.131400686
 40
0.19911
100
AcDbArc
 50
120
 51
-90
  0
LINE
  5
2B5
100
AcDbEntity
  8
Shape2DView008
  6
ByLayer
 62
  256
370
   -1
100
AcDbLine
 10
214.43335
 20
167.878495686
 11
214.43335
 21
165.303835004
  0
LINE
  5
2B6
100
AcDbEntity
  8
Shape2DView008
  6
ByLayer
 62
  256
370
   -1
100
AcDbLine
 10
203.56665
 20
167.878495686
 11
214.43335
 21
167.878495686
  0
LINE
  5
2B7
100
AcDbEntity
  8
Shape2DView008
  6
ByLayer
 62
  256
370
   -1
100
AcDbLine
 10
203.56665
 20
167.878495686
 11
203.56665
 21
165.303835004
  0
ARC
  5
2B8
100
AcDbEntity
  8
Shape2DView008
  6
ByLayer
 62
  256
370
   -1
100
AcDbCircle
 10
203.467095
 20
165.131400686
 40
0.19911
100
AcDbArc
 50
-90
 51
59.99999999999999
  0
ARC
  5
2B9
100
AcDbEntity
  8
Shape2DView008
  6
ByLayer
 62
  256
370
   -1
100
AcDbCircle
 10
203.467095
 20
165.131400686
 40
0.19911
100
AcDbArc
 50
-150
 51
-90
  0
LINE
  5
2BA
100
AcDbEntity
  8
Shape2DView008
  6
ByLayer
 62
  256
370
   -1
100
AcDbLine
 10
203.294660682
 20
165.031845686
 11
192.025339318
 21
165.031845686
  0
ARC
  5
2BB
100
AcDbEntity
  8
Shape2DView008
  6
ByLayer
 62
  256
370
   -1
100
AcDbCircle
 10
191.852905
 20
165.131400686
 40
0.19911
100
AcDbArc
 50
-90
 51
-30
  0
ARC
  5
2BC
100
AcDbEntity
  8
Shape2DView008
  6
ByLayer
 62
  256
370
   -1
100
AcDbCircle
 10
191.852905
 20
165.131400686
 40
0.19911
100
AcDbArc
 50
120
 51
-90
  0
LINE
  5
2BD
100
AcDbEntity
  8
Shape2DView008
  6
ByLayer
 62
  256
370
   -1
100
AcDbLine
 10
191.75335
 20
167.878495686
 11
191.75335
 21
165.303835004
  0
LINE
  5
2BE
100
AcDbEntity
  8
Shape2DView008
  6
ByLayer
 62
  256
370
   -1
100
AcDbLine
 10
183.464101615
 20
167.878495686
 11
191.75335
 21
167.878495686
  0
LINE
  5
2BF
100
AcDbEntity
  8
Shape2DView008
  6
ByLayer
 62
  256
370
   -1
100
AcDbLine
 10
176.503527618
 20
169.743575867
 11
183.464101615
 21
167.878495686
  0
ARC
  5
2C0
100
AcDbEntity
  8
Shape2DView008
  6
ByLayer
 62
  256
370
   -1
100
AcDbCircle
 10
176.4
 20
169.357205537
 40
0.4
100
AcDbArc
 50
75
 51
-180
  0
CIRCLE
  5
2C1
100
AcDbEntity
  8
Shape2DView008
  6
ByLayer
 62
  256
370
   -1
100
AcDbCircle
 10
184
 20
156.578495686
 40
2.5
  0
LINE
  5
2C2
100
AcDbEntity
  8
Shape2DView008
  6
ByLayer
 62
  256
370
   -1
100
AcDbLine
 10
207.25
 20
150.178495686
 11
210.75
 21
150.178495686
  0
ARC
  5
2C3
100
AcDbEntity
  8
Shape2DView008
  6
ByLayer
 62
  256
370
   -1
100
AcDbCircle
 10
207.25
 20
149.178495686
 40
1
100
AcDbArc
 50
90
 51
-90
  0
ARC
  5
2C4
100
AcDbEntity
  8
Shape2DView008
  6
ByLayer
 62
  256
370
   -1
100
AcDbCircle
 10
210.75
 20
149.178495686
 40
1
100
AcDbArc
 50
-90
 51
90
  0
LINE
  5
2C5
100
AcDbEntity
  8
Shape2DView008
  6
ByLayer
 62
  256
370
   -1
100
AcDbLine
 10
207.25
 20
148.178495686
 11
210.75
 21
148.178495686
  0
LINE
  5
2C6
100
AcDbEntity
  8
Shape2DView008
  6
ByLayer
 62
  256
370
   -1
100
AcDbLine
 10
207.25
 20
164.978495686
 11
210.75
 21
164.978495686
  0
ARC
  5
2C7
100
AcDbEntity
  8
Shape2DView008
  6
ByLayer
 62
  256
370
   -1
100
AcDbCircle
 10
207.25
 20
163.978495686
 40
1
100
AcDbArc
 50
90
 51
-90
  0
ARC
  5
2C8
100
AcDbEntity
  8
Shape2DView008
  6
ByLayer
 62
  256
370
   -1
100
AcDbCircle
 10
210.75
 20
163.978495686
 40
1
100
AcDbArc
 50
-90
 51
90
  0
LINE
  5
2C9
100
AcDbEntity
  8
Shape2DView008
  6
ByLayer
 62
  256
370
   -1
100
AcDbLine
 10
207.25
 20
162.978495686
 11
210.75
 21
162.978495686
  0
CIRCLE
  5
2CA
100
AcDbEntity
  8
Shape2DView008
  6
ByLayer
 62
  256
370
   -1
100
AcDbCircle
 10
234
 20
156.578495686
 40
2.5
  0
LINE
  5
2CB
100
AcDbEntity
  8
Shape2DView010
  6
ByLayer
 62
  256
370
   -1
100
AcDbLine
 10
78
 20
303.320388098
 11
98.55334999999999
 21
303.320388098
  0
LINE
  5
2CC
100
AcDbEntity
  8
Shape2DView010
  6
ByLayer
 62
  256
370
   -1
100
AcDbLine
 10
80.574660682
 20
287.546030408
 11
78
 21
287.546030408
  0
ELLIPSE
  5
2CD
100
AcDbEntity
  8
Shape2DView010
  6
ByLayer
 62
  256
370
   -1
100
AcDbEllipse
 10
80.747095
 20
287.446475408
 30
0
 11
0.19911
 21
0
 31
0
 40
1
 41
5.235987756
 42
2.617993878
  0
LINE
  5
2CE
100
AcDbEntity
  8
Shape2DView010
  6
ByLayer
 62
  256
370
   -1
100
AcDbLine
 10
80.84665
 20
276.004719726
 11
80.84665
 21
287.27404109
  0
ELLIPSE
  5
2CF
100
AcDbEntity
  8
Shape2DView010
  6
ByLayer
 62
  256
370
   -1
100
AcDbEllipse
 10
80.747095
 20
275.832285408
 30
0
 11
0.19911
 21
0
 31
0
 40
1
 41
3.665191429
 42
1.047197551
  0
LINE
  5
2D0
100
AcDbEntity
  8
Shape2DView010
  6
ByLayer
 62
  256
370
   -1
100
AcDbLine
 10
80.574660682
 20
275.732730408
 11
78
 21
275.732730408
  0
LINE
  5
2D1
100
AcDbEntity
  8
Shape2DView010
  6
ByLayer
 62
  256
370
   -1
100
AcDbLine
 10
78
 20
259.320139407
 11
78
 21
275.732730408
  0
LINE
  5
2D2
100
AcDbEntity
  8
Shape2DView010
  6
ByLayer
 62
  256
370
   -1
100
AcDbLine
 10
80.8
 20
259.320139407
 11
78
 21
259.320139407
  0
LINE
  5
2D3
100
AcDbEntity
  8
Shape2DView010
  6
ByLayer
 62
  256
370
   -1
100
AcDbLine
 10
80.8
 20
257.920139407
 11
80.8
 21
259.320139407
  0
LINE
  5
2D4
100
AcDbEntity
  8
Shape2DView010
  6
ByLayer
 62
  256
370
   -1
100
AcDbLine
 10
98.49804275699999
 20
257.920139407
 11
80.8
 21
257.920139407
  0
SPLINE
  5
2D5
100
AcDbEntity
  8
Shape2DView010
  6
ByLayer
 62
  256
370
   -1
100
AcDbSpline
210
0
220
0
230
0
 70
    8
 71
    2
 72
    6
 73
    3
 74
    0
 42
1e-07
 43
1e-07
 40
0
 40
0
 40
0
 40
1
 40
1
 40
1
 10
98.49804275699999
 20
257.920139407
 30
0
 10
98.52112392799999
 20
257.951276956
 30
0
 10
98.55334999999999
 20
257.971195916
 30
0
  0
LINE
  5
2D6
100
AcDbEntity
  8
Shape2DView010
  6
ByLayer
 62
  256
370
   -1
100
AcDbLine
 10
98.55334999999999
 20
257.971195916
 11
98.55334999999999
 21
260.489385135
  0
ELLIPSE
  5
2D7
100
AcDbEntity
  8
Shape2DView010
  6
ByLayer
 62
  256
370
   -1
100
AcDbEllipse
 10
98.64526108699999
 20
260.667014952
 30
0
 11
0.2
 21
0
 31
0
 40
1
 41
2.063784678
 42
4.234894396
  0
SPLINE
  5
2D8
100
AcDbEntity
  8
Shape2DView010
  6
ByLayer
 62
  256
370
   -1
100
AcDbSpline
210
0
220
0
230
0
 70
    8
 71
    2
 72
    6
 73
    3
 74
    0
 42
1e-07
 43
1e-07
 40
0
 40
0
 40
0
 40
1
 40
1
 40
1
 10
98.550608987
 20
260.843199457
 30
0
 10
98.59649111
 20
260.872071109
 30
0
 10
98.64979333300001
 20
260.872416152
 30
0
  0
SPLINE
  5
2D9
100
AcDbEntity
  8
Shape2DView010
  6
ByLayer
 62
  256
370
   -1
100
AcDbSpline
210
0
220
0
230
0
 70
    8
 71
    3
 72
    8
 73
    4
 74
    0
 42
1e-07
 43
1e-07
 40
0
 40
0
 40
0
 40
0
 40
1.0471976
 40
1.0471976
 40
1.0471976
 40
1.0471976
 10
98.64979333300001
 20
260.872416152
 30
0
 10
98.71743747799999
 20
260.872870128
 30
0
 10
98.783385459
 20
260.832351469
 30
0
 10
98.81683808699999
 20
260.7697833
 30
0
  0
LINE
  5
2DA
100
AcDbEntity
  8
Shape2DView010
  6
ByLayer
 62
  256
370
   -1
100
AcDbLine
 10
98.81683808699999
 20
260.7697833
 11
110.103161913
 21
260.7697833
  0
SPLINE
  5
2DB
100
AcDbEntity
  8
Shape2DView010
  6
ByLayer
 62
  256
370
   -1
100
AcDbSpline
210
0
220
0
230
0
 70
    8
 71
    3
 72
    8
 73
    4
 74
    0
 42
1e-07
 43
1e-07
 40
5.2359878
 40
5.2359878
 40
5.2359878
 40
5.2359878
 40
6.2831853
 40
6.2831853
 40
6.2831853
 40
6.2831853
 10
110.103161913
 20
260.7697833
 30
0
 10
110.136614541
 20
260.832351469
 30
0
 10
110.202562522
 20
260.872870128
 30
0
 10
110.270206667
 20
260.872416152
 30
0
  0
SPLINE
  5
2DC
100
AcDbEntity
  8
Shape2DView010
  6
ByLayer
 62
  256
370
   -1
100
AcDbSpline
210
0
220
0
230
0
 70
    8
 71
    2
 72
    6
 73
    3
 74
    0
 42
1e-07
 43
1e-07
 40
0
 40
0
 40
0
 40
1
 40
1
 40
1
 10
110.270206667
 20
260.872416152
 30
0
 10
110.32350889
 20
260.872071109
 30
0
 10
110.369391013
 20
260.843199457
 30
0
  0
ELLIPSE
  5
2DD
100
AcDbEntity
  8
Shape2DView010
  6
ByLayer
 62
  256
370
   -1
100
AcDbEllipse
 10
110.274738913
 20
260.667014952
 30
0
 11
0.2
 21
0
 31
0
 40
1
 41
5.189883564
 42
1.077807976
  0
LINE
  5
2DE
100
AcDbEntity
  8
Shape2DView010
  6
ByLayer
 62
  256
370
   -1
100
AcDbLine
 10
110.36665
 20
257.971195916
 11
110.36665
 21
260.489385135
  0
SPLINE
  5
2DF
100
AcDbEntity
  8
Shape2DView010
  6
ByLayer
 62
  256
370
   -1
100
AcDbSpline
210
0
220
0
230
0
 70
    8
 71
    2
 72
    6
 73
    3
 74
    0
 42
1e-07
 43
1e-07
 40
0
 40
0
 40
0
 40
1
 40
1
 40
1
 10
110.36665
 20
257.971195916
 30
0
 10
110.398876072
 20
257.951276956
 30
0
 10
110.421957243
 20
257.920139407
 30
0
  0
LINE
  5
2E0
100
AcDbEntity
  8
Shape2DView010
  6
ByLayer
 62
  256
370
   -1
100
AcDbLine
 10
121.178042757
 20
257.920139407
 11
110.421957243
 21
257.920139407
  0
SPLINE
  5
2E1
100
AcDbEntity
  8
Shape2DView010
  6
ByLayer
 62
  256
370
   -1
100
AcDbSpline
210
0
220
0
230
0
 70
    8
 71
    2
 72
    6
 73
    3
 74
    0
 42
1e-07
 43
1e-07
 40
0
 40
0
 40
0
 40
1
 40
1
 40
1
 10
121.178042757
 20
257.920139407
 30
0
 10
121.201123928
 20
257.951276956
 30
0
 10
121.23335
 20
257.971195916
 30
0
  0
LINE
  5
2E2
100
AcDbEntity
  8
Shape2DView010
  6
ByLayer
 62
  256
370
   -1
100
AcDbLine
 10
121.23335
 20
257.971195916
 11
121.23335
 21
260.489385135
  0
ELLIPSE
  5
2E3
100
AcDbEntity
  8
Shape2DView010
  6
ByLayer
 62
  256
370
   -1
100
AcDbEllipse
 10
121.325261087
 20
260.667014952
 30
0
 11
0.2
 21
0
 31
0
 40
1
 41
2.063784678
 42
4.234894396
  0
SPLINE
  5
2E4
100
AcDbEntity
  8
Shape2DView010
  6
ByLayer
 62
  256
370
   -1
100
AcDbSpline
210
0
220
0
230
0
 70
    8
 71
    2
 72
    6
 73
    3
 74
    0
 42
1e-07
 43
1e-07
 40
0
 40
0
 40
0
 40
1
 40
1
 40
1
 10
121.230608987
 20
260.843199457
 30
0
 10
121.27649111
 20
260.872071109
 30
0
 10
121.329793333
 20
260.872416152
 30
0
  0
SPLINE
  5
2E5
100
AcDbEntity
  8
Shape2DView010
  6
ByLayer
 62
  256
370
   -1
100
AcDbSpline
210
0
220
0
230
0
 70
    8
 71
    3
 72
    8
 73
    4
 74
    0
 42
1e-07
 43
1e-07
 40
0
 40
0
 40
0
 40
0
 40
1.0471976
 40
1.0471976
 40
1.0471976
 40
1.0471976
 10
121.329793333
 20
260.872416152
 30
0
 10
121.397437478
 20
260.872870128
 30
0
 10
121.463385459
 20
260.832351469
 30
0
 10
121.496838087
 20
260.7697833
 30
0
  0
LINE
  5
2E6
100
AcDbEntity
  8
Shape2DView010
  6
ByLayer
 62
  256
370
   -1
100
AcDbLine
 10
121.496838087
 20
260.7697833
 11
132.783161913
 21
260.7697833
  0
SPLINE
  5
2E7
100
AcDbEntity
  8
Shape2DView010
  6
ByLayer
 62
  256
370
   -1
100
AcDbSpline
210
0
220
0
230
0
 70
    8
 71
    3
 72
    8
 73
    4
 74
    0
 42
1e-07
 43
1e-07
 40
5.2359878
 40
5.2359878
 40
5.2359878
 40
5.2359878
 40
6.2831853
 40
6.2831853
 40
6.2831853
 40
6.2831853
 10
132.783161913
 20
260.7697833
 30
0
 10
132.816614541
 20
260.832351469
 30
0
 10
132.882562522
 20
260.872870128
 30
0
 10
132.950206667
 20
260.872416152
 30
0
  0
SPLINE
  5
2E8
100
AcDbEntity
  8
Shape2DView010
  6
ByLayer
 62
  256
370
   -1
100
AcDbSpline
210
0
220
0
230
0
 70
    8
 71
    2
 72
    6
 73
    3
 74
    0
 42
1e-07
 43
1e-07
 40
0
 40
0
 40
0
 40
1
 40
1
 40
1
 10
132.950206667
 20
260.872416152
 30
0
 10
133.00350889
 20
260.872071109
 30
0
 10
133.049391013
 20
260.843199457
 30
0
  0
ELLIPSE
  5
2E9
100
AcDbEntity
  8
Shape2DView010
  6
ByLayer
 62
  256
370
   -1
100
AcDbEllipse
 10
132.954738913
 20
260.667014952
 30
0
 11
0.2
 21
0
 31
0
 40
1
 41
5.189883564
 42
1.077807976
  0
LINE
  5
2EA
100
AcDbEntity
  8
Shape2DView010
  6
ByLayer
 62
  256
370
   -1
100
AcDbLine
 10
133.04665
 20
257.971195916
 11
133.04665
 21
260.489385135
  0
SPLINE
  5
2EB
100
AcDbEntity
  8
Shape2DView010
  6
ByLayer
 62
  256
370
   -1
100
AcDbSpline
210
0
220
0
230
0
 70
    8
 71
    2
 72
    6
 73
    3
 74
    0
 42
1e-07
 43
1e-07
 40
0
 40
0
 40
0
 40
1
 40
1
 40
1
 10
133.04665
 20
257.971195916
 30
0
 10
133.078876072
 20
257.951276956
 30
0
 10
133.101957243
 20
257.920139407
 30
0
  0
LINE
  5
2EC
100
AcDbEntity
  8
Shape2DView010
  6
ByLayer
 62
  256
370
   -1
100
AcDbLine
 10
150.8
 20
257.920139407
 11
133.101957243
 21
257.920139407
  0
LINE
  5
2ED
100
AcDbEntity
  8
Shape2DView010
  6
ByLayer
 62
  256
370
   -1
100
AcDbLine
 10
150.8
 20
259.320139407
 11
150.8
 21
257.920139407
  0
LINE
  5
2EE
100
AcDbEntity
  8
Shape2DView010
  6
ByLayer
 62
  256
370
   -1
100
AcDbLine
 10
153.6
 20
259.320139407
 11
150.8
 21
259.320139407
  0
LINE
  5
2EF
100
AcDbEntity
  8
Shape2DView010
  6
ByLayer
 62
  256
370
   -1
100
AcDbLine
 10
153.6
 20
275.732730408
 11
153.6
 21
259.320139407
  0
LINE
  5
2F0
100
AcDbEntity
  8
Shape2DView010
  6
ByLayer
 62
  256
370
   -1
100
AcDbLine
 10
151.025339318
 20
275.732730408
 11
153.6
 21
275.732730408
  0
ELLIPSE
  5
2F1
100
AcDbEntity
  8
Shape2DView010
  6
ByLayer
 62
  256
370
   -1
100
AcDbEllipse
 10
150.852905
 20
275.832285408
 30
0
 11
0.19911
 21
0
 31
0
 40
1
 41
2.094395102
 42
5.759586532
  0
LINE
  5
2F2
100
AcDbEntity
  8
Shape2DView010
  6
ByLayer
 62
  256
370
   -1
100
AcDbLine
 10
150.75335
 20
287.27404109
 11
150.75335
 21
276.004719726
  0
ELLIPSE
  5
2F3
100
AcDbEntity
  8
Shape2DView010
  6
ByLayer
 62
  256
370
   -1
100
AcDbEllipse
 10
150.852905
 20
287.446475408
 30
0
 11
0.19911
 21
0
 31
0
 40
1
 41
0.523598776
 42
4.188790205
  0
LINE
  5
2F4
100
AcDbEntity
  8
Shape2DView010
  6
ByLayer
 62
  256
370
   -1
100
AcDbLine
 10
151.025339318
 20
287.546030408
 11
153.6
 21
287.546030408
  0
LINE
  5
2F5
100
AcDbEntity
  8
Shape2DView010
  6
ByLayer
 62
  256
370
   -1
100
AcDbLine
 10
153.6
 20
303.320388098
 11
153.6
 21
287.546030408
  0
LINE
  5
2F6
100
AcDbEntity
  8
Shape2DView010
  6
ByLayer
 62
  256
370
   -1
100
AcDbLine
 10
133.04665
 20
303.320388098
 11
153.6
 21
303.320388098
  0
LINE
  5
2F7
100
AcDbEntity
  8
Shape2DView010
  6
ByLayer
 62
  256
370
   -1
100
AcDbLine
 10
133.04665
 20
300.760189191
 11
133.04665
 21
303.320388098
  0
ELLIPSE
  5
2F8
100
AcDbEntity
  8
Shape2DView010
  6
ByLayer
 62
  256
370
   -1
100
AcDbEllipse
 10
132.949834898
 20
300.585183945
 30
0
 11
0.2
 21
0
 31
0
 40
1
 41
5.953252735
 42
1.065489999
  0
ELLIPSE
  5
2F9
100
AcDbEntity
  8
Shape2DView010
  6
ByLayer
 62
  256
370
   -1
100
AcDbEllipse
 10
132.949834898
 20
300.585183945
 30
0
 11
0.2
 21
0
 31
0
 40
1
 41
3.471525226
 42
5.953252735
  0
LINE
  5
2FA
100
AcDbEntity
  8
Shape2DView010
  6
ByLayer
 62
  256
370
   -1
100
AcDbLine
 10
121.51937794
 20
300.520388098
 11
132.76062206
 21
300.520388098
  0
ELLIPSE
  5
2FB
100
AcDbEntity
  8
Shape2DView010
  6
ByLayer
 62
  256
370
   -1
100
AcDbEllipse
 10
121.330165102
 20
300.585183945
 30
0
 11
0.2
 21
0
 31
0
 40
1
 41
3.471525226
 42
5.953252735
  0
ELLIPSE
  5
2FC
100
AcDbEntity
  8
Shape2DView010
  6
ByLayer
 62
  256
370
   -1
100
AcDbEllipse
 10
121.330165102
 20
300.585183945
 30
0
 11
0.2
 21
0
 31
0
 40
1
 41
2.076102655
 42
3.471525226
  0
LINE
  5
2FD
100
AcDbEntity
  8
Shape2DView010
  6
ByLayer
 62
  256
370
   -1
100
AcDbLine
 10
121.23335
 20
300.760189191
 11
121.23335
 21
303.320388098
  0
LINE
  5
2FE
100
AcDbEntity
  8
Shape2DView010
  6
ByLayer
 62
  256
370
   -1
100
AcDbLine
 10
110.36665
 20
303.320388098
 11
121.23335
 21
303.320388098
  0
LINE
  5
2FF
100
AcDbEntity
  8
Shape2DView010
  6
ByLayer
 62
  256
370
   -1
100
AcDbLine
 10
110.36665
 20
300.760189191
 11
110.36665
 21
303.320388098
  0
ELLIPSE
  5
300
100
AcDbEntity
  8
Shape2DView010
  6
ByLayer
 62
  256
370
   -1
100
AcDbEllipse
 10
110.269834898
 20
300.585183945
 30
0
 11
0.2
 21
0
 31
0
 40
1
 41
5.953252735
 42
1.065489999
  0
ELLIPSE
  5
301
100
AcDbEntity
  8
Shape2DView010
  6
ByLayer
 62
  256
370
   -1
100
AcDbEllipse
 10
110.269834898
 20
300.585183945
 30
0
 11
0.2
 21
0
 31
0
 40
1
 41
3.471525226
 42
5.953252735
  0
LINE
  5
302
100
AcDbEntity
  8
Shape2DView010
  6
ByLayer
 62
  256
370
   -1
100
AcDbLine
 10
98.83937794000001
 20
300.520388098
 11
110.08062206
 21
300.520388098
  0
ELLIPSE
  5
303
100
AcDbEntity
  8
Shape2DView010
  6
ByLayer
 62
  256
370
   -1
100
AcDbEllipse
 10
98.650165102
 20
300.585183945
 30
0
 11
0.2
 21
0
 31
0
 40
1
 41
3.471525226
 42
5.953252735
  0
ELLIPSE
  5
304
100
AcDbEntity
  8
Shape2DView010
  6
ByLayer
 62
  256
370
   -1
100
AcDbEllipse
 10
98.650165102
 20
300.585183945
 30
0
 11
0.2
 21
0
 31
0
 40
1
 41
2.076102655
 42
3.471525226
  0
LINE
  5
305
100
AcDbEntity
  8
Shape2DView010
  6
ByLayer
 62
  256
370
   -1
100
AcDbLine
 10
98.55334999999999
 20
300.760189191
 11
98.55334999999999
 21
303.320388098
  0
LINE
  5
306
100
AcDbEntity
  8
Shape2DView010
  6
ByLayer
 62
  256
370
   -1
100
AcDbLine
 10
78
 20
287.546030408
 11
78
 21
303.320388098
  0
ELLIPSE
  5
307
100
AcDbEntity
  8
Shape2DView010
  6
ByLayer
 62
  256
370
   -1
100
AcDbEllipse
 10
99.80074
 20
297.639380408
 30
0
 11
0.5
 21
0
 31
0
 40
1
 41
1.570796327
 42
3.141592654
  0
LINE
  5
308
100
AcDbEntity
  8
Shape2DView010
  6
ByLayer
 62
  256
370
   -1
100
AcDbLine
 10
99.80074
 20
298.139380408
 11
131.80074
 21
298.139380408
  0
LINE
  5
309
100
AcDbEntity
  8
Shape2DView010
  6
ByLayer
 62
  256
370
   -1
100
AcDbLine
 10
99.30074
 20
265.639380408
 11
99.30074
 21
297.639380408
  0
ELLIPSE
  5
30A
100
AcDbEntity
  8
Shape2DView010
  6
ByLayer
 62
  256
370
   -1
100
AcDbEllipse
 10
131.80074
 20
297.639380408
 30
0
 11
0.5
 21
0
 31
0
 40
1
 41
-0
 42
1.570796327
  0
ELLIPSE
  5
30B
100
AcDbEntity
  8
Shape2DView010
  6
ByLayer
 62
  256
370
   -1
100
AcDbEllipse
 10
99.80074
 20
265.639380408
 30
0
 11
0.5
 21
0
 31
0
 40
1
 41
3.141592654
 42
4.71238898
  0
LINE
  5
30C
100
AcDbEntity
  8
Shape2DView010
  6
ByLayer
 62
  256
370
   -1
100
AcDbLine
 10
132.30074
 20
297.639380408
 11
132.30074
 21
265.639380408
  0
LINE
  5
30D
100
AcDbEntity
  8
Shape2DView010
  6
ByLayer
 62
  256
370
   -1
100
AcDbLine
 10
131.80074
 20
265.139380408
 11
99.80074
 21
265.139380408
  0
ELLIPSE
  5
30E
100
AcDbEntity
  8
Shape2DView010
  6
ByLayer
 62
  256
370
   -1
100
AcDbEllipse
 10
131.80074
 20
265.639380408
 30
0
 11
0.5
 21
0
 31
0
 40
1
 41
4.71238898
 42
6.283185307
  0
SPLINE
  5
30F
100
AcDbEntity
  8
Shape2DView010
  6
ByLayer
 62
  256
370
   -1
100
AcDbSpline
210
0
220
0
230
0
 70
    8
 71
    3
 72
    8
 73
    4
 74
    0
 42
1e-07
 43
1e-07
 40
6.8067841
 40
6.8067841
 40
6.8067841
 40
6.8067841
 40
7.8539816
 40
7.8539816
 40
7.8539816
 40
7.8539816
 10
98.55334999999999
 20
257.920139393
 30
0
 10
98.49455515299999
 20
257.920139395
 30
0
 10
98.456480068
 20
257.920139398
 30
0
 10
98.456906667
 20
257.920139401
 30
0
  0
SPLINE
  5
310
100
AcDbEntity
  8
Shape2DView010
  6
ByLayer
 62
  256
370
   -1
100
AcDbSpline
210
0
220
0
230
0
 70
    8
 71
    2
 72
    6
 73
    3
 74
    0
 42
1e-07
 43
1e-07
 40
0
 40
0
 40
0
 40
1
 40
1
 40
1
 10
98.456906667
 20
257.920139401
 30
0
 10
98.45744517
 20
257.920139404
 30
0
 10
98.492922757
 20
257.920139407
 30
0
  0
LINE
  5
311
100
AcDbEntity
  8
Shape2DView010
  6
ByLayer
 62
  256
370
   -1
100
AcDbLine
 10
98.55334999999999
 20
257.920139393
 11
98.55334999999999
 21
257.971195916
  0
SPLINE
  5
312
100
AcDbEntity
  8
Shape2DView010
  6
ByLayer
 62
  256
370
   -1
100
AcDbSpline
210
0
220
0
230
0
 70
    8
 71
    3
 72
    8
 73
    4
 74
    0
 42
1e-07
 43
1e-07
 40
5.2520459
 40
5.2520459
 40
5.2520459
 40
5.2520459
 40
6.7606799
 40
6.7606799
 40
6.7606799
 40
6.7606799
 10
98.81683808699999
 20
260.769783269
 30
0
 10
98.765886292
 20
260.858610813
 30
0
 10
98.643395023
 20
260.893412677
 30
0
 10
98.55334999999999
 20
260.844644739
 30
0
  0
SPLINE
  5
313
100
AcDbEntity
  8
Shape2DView010
  6
ByLayer
 62
  256
370
   -1
100
AcDbSpline
210
0
220
0
230
0
 70
    8
 71
    1
 72
    4
 73
    2
 74
    0
 42
1e-07
 43
1e-07
 40
0
 40
0
 40
0.008296
 40
0.008296
 10
98.55334999999999
 20
260.844644753
 30
0
 10
98.550608993
 20
260.843199445
 30
0
  0
SPLINE
  5
314
100
AcDbEntity
  8
Shape2DView010
  6
ByLayer
 62
  256
370
   -1
100
AcDbSpline
210
0
220
0
230
0
 70
    8
 71
    2
 72
    6
 73
    3
 74
    0
 42
1e-07
 43
1e-07
 40
0
 40
0
 40
0
 40
1
 40
1
 40
1
 10
98.550608521
 20
260.843199191
 30
0
 10
98.48838707
 20
260.804983584
 30
0
 10
98.468343655
 20
260.760289917
 30
0
  0
SPLINE
  5
315
100
AcDbEntity
  8
Shape2DView010
  6
ByLayer
 62
  256
370
   -1
100
AcDbSpline
210
0
220
0
230
0
 70
    8
 71
    3
 72
   11
 73
    7
 74
    0
 42
1e-07
 43
1e-07
 40
0.5805383
 40
0.5805383
 40
0.5805383
 40
0.5805383
 40
0.7839790999999999
 40
0.7839790999999999
 40
0.7839790999999999
 40
0.9958754
 40
0.9958754
 40
0.9958754
 40
0.9958754
 10
98.456906667
 20
260.734265321
 30
0
 10
98.45652398199999
 20
260.733607403
 30
0
 10
98.466289397
 20
260.761294901
 30
0
 10
98.48218338300001
 20
260.782797776
 30
0
 10
98.499530807
 20
260.807466659
 30
0
 10
98.52233934100001
 20
260.827600553
 30
0
 10
98.550608986
 20
260.843199459
 30
0
  0
LINE
  5
316
100
AcDbEntity
  8
Shape2DView010
  6
ByLayer
 62
  256
370
   -1
100
AcDbLine
 10
98.55334999999999
 20
260.844644753
 11
98.55334999999999
 21
260.844915762
  0
SPLINE
  5
317
100
AcDbEntity
  8
Shape2DView010
  6
ByLayer
 62
  256
370
   -1
100
AcDbSpline
210
0
220
0
230
0
 70
    8
 71
    3
 72
    8
 73
    4
 74
    0
 42
1e-07
 43
1e-07
 40
0.5347767
 40
0.5347767
 40
0.5347767
 40
0.5347767
 40
1
 40
1
 40
1
 40
1
 10
110.457870367
 20
260.747407001
 30
0
 10
110.44501619
 20
260.776805178
 30
0
 10
110.417924515
 20
260.818054615
 30
0
 10
110.36665
 20
260.844644753
 30
0
  0
LINE
  5
318
100
AcDbEntity
  8
Shape2DView010
  6
ByLayer
 62
  256
370
   -1
100
AcDbLine
 10
110.36665
 20
260.844644753
 11
110.36665
 21
260.844915762
  0
SPLINE
  5
319
100
AcDbEntity
  8
Shape2DView010
  6
ByLayer
 62
  256
370
   -1
100
AcDbSpline
210
0
220
0
230
0
 70
    8
 71
    3
 72
    8
 73
    4
 74
    0
 42
1e-07
 43
1e-07
 40
5.8056907
 40
5.8056907
 40
5.8056907
 40
5.8056907
 40
7.314324699999999
 40
7.314324699999999
 40
7.314324699999999
 40
7.314324699999999
 10
110.36665
 20
260.844644739
 30
0
 10
110.276604977
 20
260.893412677
 30
0
 10
110.154113708
 20
260.858610813
 30
0
 10
110.103161913
 20
260.769783269
 30
0
  0
LINE
  5
31A
100
AcDbEntity
  8
Shape2DView010
  6
ByLayer
 62
  256
370
   -1
100
AcDbLine
 10
110.36665
 20
257.920139393
 11
110.36665
 21
257.971195916
  0
SPLINE
  5
31B
100
AcDbEntity
  8
Shape2DView010
  6
ByLayer
 62
  256
370
   -1
100
AcDbSpline
210
0
220
0
230
0
 70
    8
 71
    2
 72
    6
 73
    3
 74
    0
 42
1e-07
 43
1e-07
 40
0
 40
0
 40
0
 40
1
 40
1
 40
1
 10
110.427077243
 20
257.920139407
 30
0
 10
110.46255483
 20
257.920139404
 30
0
 10
110.463093333
 20
257.920139401
 30
0
  0
SPLINE
  5
31C
100
AcDbEntity
  8
Shape2DView010
  6
ByLayer
 62
  256
370
   -1
100
AcDbSpline
210
0
220
0
230
0
 70
    8
 71
    3
 72
    8
 73
    4
 74
    0
 42
1e-07
 43
1e-07
 40
4.712389
 40
4.712389
 40
4.712389
 40
4.712389
 40
5.7595865
 40
5.7595865
 40
5.7595865
 40
5.7595865
 10
110.463093333
 20
257.920139401
 30
0
 10
110.463519932
 20
257.920139398
 30
0
 10
110.425444847
 20
257.920139395
 30
0
 10
110.36665
 20
257.920139393
 30
0
  0
SPLINE
  5
31D
100
AcDbEntity
  8
Shape2DView010
  6
ByLayer
 62
  256
370
   -1
100
AcDbSpline
210
0
220
0
230
0
 70
    8
 71
    3
 72
    8
 73
    4
 74
    0
 42
1e-07
 43
1e-07
 40
6.8067841
 40
6.8067841
 40
6.8067841
 40
6.8067841
 40
7.8539816
 40
7.8539816
 40
7.8539816
 40
7.8539816
 10
121.23335
 20
257.920139393
 30
0
 10
121.174555153
 20
257.920139395
 30
0
 10
121.136480068
 20
257.920139398
 30
0
 10
121.136906667
 20
257.920139401
 30
0
  0
SPLINE
  5
31E
100
AcDbEntity
  8
Shape2DView010
  6
ByLayer
 62
  256
370
   -1
100
AcDbSpline
210
0
220
0
230
0
 70
    8
 71
    2
 72
    6
 73
    3
 74
    0
 42
1e-07
 43
1e-07
 40
0
 40
0
 40
0
 40
1
 40
1
 40
1
 10
121.136906667
 20
257.920139401
 30
0
 10
121.13744517
 20
257.920139404
 30
0
 10
121.172922757
 20
257.920139407
 30
0
  0
LINE
  5
31F
100
AcDbEntity
  8
Shape2DView010
  6
ByLayer
 62
  256
370
   -1
100
AcDbLine
 10
121.23335
 20
257.920139393
 11
121.23335
 21
257.971195916
  0
SPLINE
  5
320
100
AcDbEntity
  8
Shape2DView010
  6
ByLayer
 62
  256
370
   -1
100
AcDbSpline
210
0
220
0
230
0
 70
    8
 71
    3
 72
    8
 73
    4
 74
    0
 42
1e-07
 43
1e-07
 40
5.2520459
 40
5.2520459
 40
5.2520459
 40
5.2520459
 40
6.7606799
 40
6.7606799
 40
6.7606799
 40
6.7606799
 10
121.496838087
 20
260.769783269
 30
0
 10
121.445886292
 20
260.858610813
 30
0
 10
121.323395023
 20
260.893412677
 30
0
 10
121.23335
 20
260.844644739
 30
0
  0
SPLINE
  5
321
100
AcDbEntity
  8
Shape2DView010
  6
ByLayer
 62
  256
370
   -1
100
AcDbSpline
210
0
220
0
230
0
 70
    8
 71
    1
 72
    4
 73
    2
 74
    0
 42
1e-07
 43
1e-07
 40
0
 40
0
 40
0.008296
 40
0.008296
 10
121.23335
 20
260.844644753
 30
0
 10
121.230608993
 20
260.843199445
 30
0
  0
SPLINE
  5
322
100
AcDbEntity
  8
Shape2DView010
  6
ByLayer
 62
  256
370
   -1
100
AcDbSpline
210
0
220
0
230
0
 70
    8
 71
    2
 72
    6
 73
    3
 74
    0
 42
1e-07
 43
1e-07
 40
0
 40
0
 40
0
 40
1
 40
1
 40
1
 10
121.230608521
 20
260.843199191
 30
0
 10
121.168387068
 20
260.804983582
 30
0
 10
121.148343653
 20
260.760289913
 30
0
  0
SPLINE
  5
323
100
AcDbEntity
  8
Shape2DView010
  6
ByLayer
 62
  256
370
   -1
100
AcDbSpline
210
0
220
0
230
0
 70
    8
 71
    3
 72
   11
 73
    7
 74
    0
 42
1e-07
 43
1e-07
 40
0.5805385
 40
0.5805385
 40
0.5805385
 40
0.5805385
 40
0.7839792999999999
 40
0.7839792999999999
 40
0.7839792999999999
 40
0.9958754
 40
0.9958754
 40
0.9958754
 40
0.9958754
 10
121.136906667
 20
260.734265321
 30
0
 10
121.13652398
 20
260.733607394
 30
0
 10
121.146289384
 20
260.761294878
 30
0
 10
121.162183383
 20
260.782797776
 30
0
 10
121.179530807
 20
260.807466659
 30
0
 10
121.202339341
 20
260.827600553
 30
0
 10
121.230608986
 20
260.843199459
 30
0
  0
LINE
  5
324
100
AcDbEntity
  8
Shape2DView010
  6
ByLayer
 62
  256
370
   -1
100
AcDbLine
 10
121.23335
 20
260.844644753
 11
121.23335
 21
260.844915762
  0
SPLINE
  5
325
100
AcDbEntity
  8
Shape2DView010
  6
ByLayer
 62
  256
370
   -1
100
AcDbSpline
210
0
220
0
230
0
 70
    8
 71
    3
 72
    8
 73
    4
 74
    0
 42
1e-07
 43
1e-07
 40
0.5347765
 40
0.5347765
 40
0.5347765
 40
0.5347765
 40
1
 40
1
 40
1
 40
1
 10
133.137870366
 20
260.747407005
 30
0
 10
133.125016187
 20
260.776805181
 30
0
 10
133.097924513
 20
260.818054616
 30
0
 10
133.04665
 20
260.844644753
 30
0
  0
LINE
  5
326
100
AcDbEntity
  8
Shape2DView010
  6
ByLayer
 62
  256
370
   -1
100
AcDbLine
 10
133.04665
 20
260.844644753
 11
133.04665
 21
260.844915762
  0
SPLINE
  5
327
100
AcDbEntity
  8
Shape2DView010
  6
ByLayer
 62
  256
370
   -1
100
AcDbSpline
210
0
220
0
230
0
 70
    8
 71
    3
 72
    8
 73
    4
 74
    0
 42
1e-07
 43
1e-07
 40
5.8056907
 40
5.8056907
 40
5.8056907
 40
5.8056907
 40
7.314324699999999
 40
7.314324699999999
 40
7.314324699999999
 40
7.314324699999999
 10
133.04665
 20
260.844644739
 30
0
 10
132.956604977
 20
260.893412677
 30
0
 10
132.834113708
 20
260.858610813
 30
0
 10
132.783161913
 20
260.769783269
 30
0
  0
LINE
  5
328
100
AcDbEntity
  8
Shape2DView010
  6
ByLayer
 62
  256
370
   -1
100
AcDbLine
 10
133.04665
 20
257.920139393
 11
133.04665
 21
257.971195916
  0
SPLINE
  5
329
100
AcDbEntity
  8
Shape2DView010
  6
ByLayer
 62
  256
370
   -1
100
AcDbSpline
210
0
220
0
230
0
 70
    8
 71
    2
 72
    6
 73
    3
 74
    0
 42
1e-07
 43
1e-07
 40
0
 40
0
 40
0
 40
1
 40
1
 40
1
 10
133.107077243
 20
257.920139407
 30
0
 10
133.14255483
 20
257.920139404
 30
0
 10
133.143093333
 20
257.920139401
 30
0
  0
SPLINE
  5
32A
100
AcDbEntity
  8
Shape2DView010
  6
ByLayer
 62
  256
370
   -1
100
AcDbSpline
210
0
220
0
230
0
 70
    8
 71
    3
 72
    8
 73
    4
 74
    0
 42
1e-07
 43
1e-07
 40
4.712389
 40
4.712389
 40
4.712389
 40
4.712389
 40
5.7595865
 40
5.7595865
 40
5.7595865
 40
5.7595865
 10
133.143093333
 20
257.920139401
 30
0
 10
133.143519932
 20
257.920139398
 30
0
 10
133.105444847
 20
257.920139395
 30
0
 10
133.04665
 20
257.920139393
 30
0
  0
SPLINE
  5
32B
100
AcDbEntity
  8
Shape2DView010
  6
ByLayer
 62
  256
370
   -1
100
AcDbSpline
210
0
220
0
230
0
 70
    8
 71
    1
 72
    4
 73
    2
 74
    0
 42
1e-07
 43
1e-07
 40
0
 40
0
 40
0.0405636
 40
0.0405636
 10
133.04665
 20
300.760189191
 30
0
 10
133.064032089
 20
300.749375911
 30
0
  0
SPLINE
  5
32C
100
AcDbEntity
  8
Shape2DView010
  6
ByLayer
 62
  256
370
   -1
100
AcDbSpline
210
0
220
0
230
0
 70
    8
 71
    3
 72
    8
 73
    4
 74
    0
 42
1e-07
 43
1e-07
 40
0.4019636
 40
0.4019636
 40
0.4019636
 40
0.4019636
 40
0.6015075999999999
 40
0.6015075999999999
 40
0.6015075999999999
 40
0.6015075999999999
 10
133.146205006
 20
300.623115238
 30
0
 10
133.14575508
 20
300.62627789
 30
0
 10
133.140982915
 20
300.647793848
 30
0
 10
133.133793139
 20
300.663665579
 30
0
  0
SPLINE
  5
32D
100
AcDbEntity
  8
Shape2DView010
  6
ByLayer
 62
  256
370
   -1
100
AcDbSpline
210
0
220
0
230
0
 70
    8
 71
    2
 72
    6
 73
    3
 74
    0
 42
1e-07
 43
1e-07
 40
0
 40
0
 40
0
 40
1
 40
1
 40
1
 10
133.133364556
 20
300.664662663
 30
0
 10
133.113156893
 20
300.718598382
 30
0
 10
133.04665
 20
300.760189175
 30
0
  0
SPLINE
  5
32E
100
AcDbEntity
  8
Shape2DView010
  6
ByLayer
 62
  256
370
   -1
100
AcDbSpline
210
0
220
0
230
0
 70
    8
 71
    1
 72
    4
 73
    2
 74
    0
 42
1e-07
 43
1e-07
 40
0.9731183
 40
0.9731183
 40
0.9986664999999999
 40
0.9986664999999999
 10
121.144612943
 20
300.510548863
 30
0
 10
121.140952264
 20
300.520388096
 30
0
  0
SPLINE
  5
32F
100
AcDbEntity
  8
Shape2DView010
  6
ByLayer
 62
  256
370
   -1
100
AcDbSpline
210
0
220
0
230
0
 70
    8
 71
    3
 72
    8
 73
    4
 74
    0
 42
1e-07
 43
1e-07
 40
0
 40
0
 40
0
 40
0
 40
0.4710978
 40
0.4710978
 40
0.4710978
 40
0.4710978
 10
121.23335
 20
300.760189175
 30
0
 10
121.177911044
 20
300.729083986
 30
0
 10
121.150910725
 20
300.682431217
 30
0
 10
121.138908643
 20
300.643673025
 30
0
  0
SPLINE
  5
330
100
AcDbEntity
  8
Shape2DView010
  6
ByLayer
 62
  256
370
   -1
100
AcDbSpline
210
0
220
0
230
0
 70
    8
 71
    3
 72
    8
 73
    4
 74
    0
 42
1e-07
 43
1e-07
 40
0.5912316
 40
0.5912316
 40
0.5912316
 40
0.5912316
 40
0.7748212
 40
0.7748212
 40
0.7748212
 40
0.7748212
 10
121.133795
 20
300.623115239
 30
0
 10
121.133723626
 20
300.625386676
 30
0
 10
121.142350897
 20
300.661889313
 30
0
 10
121.156339149
 20
300.684100826
 30
0
  0
SPLINE
  5
331
100
AcDbEntity
  8
Shape2DView010
  6
ByLayer
 62
  256
370
   -1
100
AcDbSpline
210
0
220
0
230
0
 70
    8
 71
    1
 72
    4
 73
    2
 74
    0
 42
1e-07
 43
1e-07
 40
0
 40
0
 40
0.0405636
 40
0.0405636
 10
110.36665
 20
300.760189191
 30
0
 10
110.384032089
 20
300.749375911
 30
0
  0
SPLINE
  5
332
100
AcDbEntity
  8
Shape2DView010
  6
ByLayer
 62
  256
370
   -1
100
AcDbSpline
210
0
220
0
230
0
 70
    8
 71
    3
 72
    8
 73
    4
 74
    0
 42
1e-07
 43
1e-07
 40
0.4019636
 40
0.4019636
 40
0.4019636
 40
0.4019636
 40
0.6015075999999999
 40
0.6015075999999999
 40
0.6015075999999999
 40
0.6015075999999999
 10
110.466205006
 20
300.623115238
 30
0
 10
110.465755079
 20
300.62627789
 30
0
 10
110.460982915
 20
300.647793848
 30
0
 10
110.453793139
 20
300.663665579
 30
0
  0
SPLINE
  5
333
100
AcDbEntity
  8
Shape2DView010
  6
ByLayer
 62
  256
370
   -1
100
AcDbSpline
210
0
220
0
230
0
 70
    8
 71
    2
 72
    6
 73
    3
 74
    0
 42
1e-07
 43
1e-07
 40
0
 40
0
 40
0
 40
1
 40
1
 40
1
 10
110.453364556
 20
300.664662663
 30
0
 10
110.433156893
 20
300.718598382
 30
0
 10
110.36665
 20
300.760189175
 30
0
  0
SPLINE
  5
334
100
AcDbEntity
  8
Shape2DView010
  6
ByLayer
 62
  256
370
   -1
100
AcDbSpline
210
0
220
0
230
0
 70
    8
 71
    1
 72
    4
 73
    2
 74
    0
 42
1e-07
 43
1e-07
 40
0.9731183
 40
0.9731183
 40
0.9986664999999999
 40
0.9986664999999999
 10
98.46461294300001
 20
300.510548863
 30
0
 10
98.460952264
 20
300.520388096
 30
0
  0
SPLINE
  5
335
100
AcDbEntity
  8
Shape2DView010
  6
ByLayer
 62
  256
370
   -1
100
AcDbSpline
210
0
220
0
230
0
 70
    8
 71
    3
 72
    8
 73
    4
 74
    0
 42
1e-07
 43
1e-07
 40
0
 40
0
 40
0
 40
0
 40
0.4710978
 40
0.4710978
 40
0.4710978
 40
0.4710978
 10
98.55334999999999
 20
300.760189175
 30
0
 10
98.49791104400001
 20
300.729083986
 30
0
 10
98.470910725
 20
300.682431217
 30
0
 10
98.458908643
 20
300.643673025
 30
0
  0
SPLINE
  5
336
100
AcDbEntity
  8
Shape2DView010
  6
ByLayer
 62
  256
370
   -1
100
AcDbSpline
210
0
220
0
230
0
 70
    8
 71
    3
 72
    8
 73
    4
 74
    0
 42
1e-07
 43
1e-07
 40
0.5912316
 40
0.5912316
 40
0.5912316
 40
0.5912316
 40
0.7748212
 40
0.7748212
 40
0.7748212
 40
0.7748212
 10
98.453795
 20
300.623115239
 30
0
 10
98.453723626
 20
300.625386676
 30
0
 10
98.46235089699999
 20
300.661889314
 30
0
 10
98.476339149
 20
300.684100826
 30
0
  0
LINE
  5
337
100
AcDbEntity
  8
Shape2DView010
  6
ByLayer
 62
  256
370
   -1
100
AcDbLine
 10
98.81683808699999
 20
260.769783269
 11
110.103161913
 21
260.769783269
  0
LINE
  5
338
100
AcDbEntity
  8
Shape2DView010
  6
ByLayer
 62
  256
370
   -1
100
AcDbLine
 10
121.496838087
 20
260.769783269
 11
132.783161913
 21
260.769783269
  0
LINE
  5
339
100
AcDbEntity
  8
Shape2DView010
  6
ByLayer
 62
  256
370
   -1
100
AcDbLine
 10
98.55334999999999
 20
260.844644739
 11
98.55334999999999
 21
260.844915762
  0
LINE
  5
33A
100
AcDbEntity
  8
Shape2DView011
  6
ByLayer
 62
  256
370
   -1
100
AcDbLine
 10
160.940449377
 20
185.97582717
 11
159.2
 21
186.628495686
  0
ARC
  5
33B
100
AcDbEntity
  8
Shape2DView011
  6
ByLayer
 62
  256
370
   -1
100
AcDbCircle
 10
160.8
 20
185.601295499
 40
0.4
100
AcDbArc
 50
0
 51
69.44395478
  0
LINE
  5
33C
100
AcDbEntity
  8
Shape2DView011
  6
ByLayer
 62
  256
370
   -1
100
AcDbLine
 10
159.2
 20
186.628495686
 11
159.2
 21
185.878495686
  0
LINE
  5
33D
100
AcDbEntity
  8
Shape2DView011
  6
ByLayer
 62
  256
370
   -1
100
AcDbLine
 10
161.2
 20
185.601295499
 11
161.2
 21
183.478495686
  0
LINE
  5
33E
100
AcDbEntity
  8
Shape2DView011
  6
ByLayer
 62
  256
370
   -1
100
AcDbLine
 10
156.4
 20
185.878495686
 11
159.2
 21
185.878495686
  0
ARC
  5
33F
100
AcDbEntity
  8
Shape2DView011
  6
ByLayer
 62
  256
370
   -1
100
AcDbCircle
 10
160.8
 20
183.478495686
 40
0.4
100
AcDbArc
 50
-90
 51
0
  0
LINE
  5
340
100
AcDbEntity
  8
Shape2DView011
  6
ByLayer
 62
  256
370
   -1
100
AcDbLine
 10
156.4
 20
187.357205537
 11
156.4
 21
185.878495686
  0
LINE
  5
341
100
AcDbEntity
  8
Shape2DView011
  6
ByLayer
 62
  256
370
   -1
100
AcDbLine
 10
160.8
 20
183.078495686
 11
147.2
 21
183.078495686
  0
ARC
  5
342
100
AcDbEntity
  8
Shape2DView011
  6
ByLayer
 62
  256
370
   -1
100
AcDbCircle
 10
156
 20
187.357205537
 40
0.4
100
AcDbArc
 50
0
 51
105
  0
ARC
  5
343
100
AcDbEntity
  8
Shape2DView011
  6
ByLayer
 62
  256
370
   -1
100
AcDbCircle
 10
147.2
 20
182.678495686
 40
0.4
100
AcDbArc
 50
90
 51
-90
  0
LINE
  5
344
100
AcDbEntity
  8
Shape2DView011
  6
ByLayer
 62
  256
370
   -1
100
AcDbLine
 10
148.935898385
 20
185.878495686
 11
155.896472382
 21
187.743575867
  0
LINE
  5
345
100
AcDbEntity
  8
Shape2DView011
  6
ByLayer
 62
  256
370
   -1
100
AcDbLine
 10
147.2
 20
182.278495686
 11
160.8
 21
182.278495686
  0
LINE
  5
346
100
AcDbEntity
  8
Shape2DView011
  6
ByLayer
 62
  256
370
   -1
100
AcDbLine
 10
140.64665
 20
185.878495686
 11
148.935898385
 21
185.878495686
  0
ARC
  5
347
100
AcDbEntity
  8
Shape2DView011
  6
ByLayer
 62
  256
370
   -1
100
AcDbCircle
 10
160.8
 20
181.878495686
 40
0.4
100
AcDbArc
 50
0
 51
90
  0
LINE
  5
348
100
AcDbEntity
  8
Shape2DView011
  6
ByLayer
 62
  256
370
   -1
100
AcDbLine
 10
140.64665
 20
185.878495686
 11
140.64665
 21
183.303835004
  0
LINE
  5
349
100
AcDbEntity
  8
Shape2DView011
  6
ByLayer
 62
  256
370
   -1
100
AcDbLine
 10
161.2
 20
181.878495686
 11
161.2
 21
171.485145686
  0
ARC
  5
34A
100
AcDbEntity
  8
Shape2DView011
  6
ByLayer
 62
  256
370
   -1
100
AcDbCircle
 10
140.547095
 20
183.131400686
 40
0.19911
100
AcDbArc
 50
-90
 51
59.99999999999999
  0
LINE
  5
34B
100
AcDbEntity
  8
Shape2DView011
  6
ByLayer
 62
  256
370
   -1
100
AcDbLine
 10
158.625339318
 20
171.485145686
 11
161.2
 21
171.485145686
  0
ARC
  5
34C
100
AcDbEntity
  8
Shape2DView011
  6
ByLayer
 62
  256
370
   -1
100
AcDbCircle
 10
140.547095
 20
183.131400686
 40
0.19911
100
AcDbArc
 50
-150
 51
-90
  0
ARC
  5
34D
100
AcDbEntity
  8
Shape2DView011
  6
ByLayer
 62
  256
370
   -1
100
AcDbCircle
 10
158.452905
 20
171.385590686
 40
0.19911
100
AcDbArc
 50
30
 51
-120
  0
LINE
  5
34E
100
AcDbEntity
  8
Shape2DView011
  6
ByLayer
 62
  256
370
   -1
100
AcDbLine
 10
140.374660682
 20
183.031845686
 11
129.105339318
 21
183.031845686
  0
LINE
  5
34F
100
AcDbEntity
  8
Shape2DView011
  6
ByLayer
 62
  256
370
   -1
100
AcDbLine
 10
158.35335
 20
171.213156368
 11
158.35335
 21
159.943835004
  0
ARC
  5
350
100
AcDbEntity
  8
Shape2DView011
  6
ByLayer
 62
  256
370
   -1
100
AcDbCircle
 10
128.932905
 20
183.131400686
 40
0.19911
100
AcDbArc
 50
-90
 51
-30
  0
ARC
  5
351
100
AcDbEntity
  8
Shape2DView011
  6
ByLayer
 62
  256
370
   -1
100
AcDbCircle
 10
158.452905
 20
159.771400686
 40
0.19911
100
AcDbArc
 50
120
 51
-30
  0
ARC
  5
352
100
AcDbEntity
  8
Shape2DView011
  6
ByLayer
 62
  256
370
   -1
100
AcDbCircle
 10
128.932905
 20
183.131400686
 40
0.19911
100
AcDbArc
 50
120
 51
-90
  0
LINE
  5
353
100
AcDbEntity
  8
Shape2DView011
  6
ByLayer
 62
  256
370
   -1
100
AcDbLine
 10
158.625339318
 20
159.671845686
 11
161.2
 21
159.671845686
  0
LINE
  5
354
100
AcDbEntity
  8
Shape2DView011
  6
ByLayer
 62
  256
370
   -1
100
AcDbLine
 10
128.83335
 20
185.878495686
 11
128.83335
 21
183.303835004
  0
LINE
  5
355
100
AcDbEntity
  8
Shape2DView011
  6
ByLayer
 62
  256
370
   -1
100
AcDbLine
 10
161.2
 20
159.671845686
 11
161.2
 21
149.278495686
  0
LINE
  5
356
100
AcDbEntity
  8
Shape2DView011
  6
ByLayer
 62
  256
370
   -1
100
AcDbLine
 10
117.96665
 20
185.878495686
 11
128.83335
 21
185.878495686
  0
ARC
  5
357
100
AcDbEntity
  8
Shape2DView011
  6
ByLayer
 62
  256
370
   -1
100
AcDbCircle
 10
160.8
 20
149.278495686
 40
0.4
100
AcDbArc
 50
-90
 51
0
  0
LINE
  5
358
100
AcDbEntity
  8
Shape2DView011
  6
ByLayer
 62
  256
370
   -1
100
AcDbLine
 10
117.96665
 20
185.878495686
 11
117.96665
 21
183.303835004
  0
LINE
  5
359
100
AcDbEntity
  8
Shape2DView011
  6
ByLayer
 62
  256
370
   -1
100
AcDbLine
 10
160.8
 20
148.878495686
 11
147.2
 21
148.878495686
  0
ARC
  5
35A
100
AcDbEntity
  8
Shape2DView011
  6
ByLayer
 62
  256
370
   -1
100
AcDbCircle
 10
117.867095
 20
183.131400686
 40
0.19911
100
AcDbArc
 50
-90
 51
59.99999999999999
  0
ARC
  5
35B
100
AcDbEntity
  8
Shape2DView011
  6
ByLayer
 62
  256
370
   -1
100
AcDbCircle
 10
147.2
 20
148.478495686
 40
0.4
100
AcDbArc
 50
90
 51
-90
  0
ARC
  5
35C
100
AcDbEntity
  8
Shape2DView011
  6
ByLayer
 62
  256
370
   -1
100
AcDbCircle
 10
117.867095
 20
183.131400686
 40
0.19911
100
AcDbArc
 50
-150
 51
-90
  0
LINE
  5
35D
100
AcDbEntity
  8
Shape2DView011
  6
ByLayer
 62
  256
370
   -1
100
AcDbLine
 10
147.2
 20
148.078495686
 11
160.8
 21
148.078495686
  0
LINE
  5
35E
100
AcDbEntity
  8
Shape2DView011
  6
ByLayer
 62
  256
370
   -1
100
AcDbLine
 10
117.694660682
 20
183.031845686
 11
106.425339318
 21
183.031845686
  0
ARC
  5
35F
100
AcDbEntity
  8
Shape2DView011
  6
ByLayer
 62
  256
370
   -1
100
AcDbCircle
 10
160.8
 20
147.678495686
 40
0.4
100
AcDbArc
 50
0
 51
90
  0
ARC
  5
360
100
AcDbEntity
  8
Shape2DView011
  6
ByLayer
 62
  256
370
   -1
100
AcDbCircle
 10
106.252905
 20
183.131400686
 40
0.19911
100
AcDbArc
 50
-90
 51
-30
  0
LINE
  5
361
100
AcDbEntity
  8
Shape2DView011
  6
ByLayer
 62
  256
370
   -1
100
AcDbLine
 10
161.2
 20
147.678495686
 11
161.2
 21
145.555695873
  0
ARC
  5
362
100
AcDbEntity
  8
Shape2DView011
  6
ByLayer
 62
  256
370
   -1
100
AcDbCircle
 10
106.252905
 20
183.131400686
 40
0.19911
100
AcDbArc
 50
120
 51
-90
  0
ARC
  5
363
100
AcDbEntity
  8
Shape2DView011
  6
ByLayer
 62
  256
370
   -1
100
AcDbCircle
 10
160.8
 20
145.555695873
 40
0.4
100
AcDbArc
 50
-69.44395478
 51
0
  0
LINE
  5
364
100
AcDbEntity
  8
Shape2DView011
  6
ByLayer
 62
  256
370
   -1
100
AcDbLine
 10
106.15335
 20
185.878495686
 11
106.15335
 21
183.303835004
  0
LINE
  5
365
100
AcDbEntity
  8
Shape2DView011
  6
ByLayer
 62
  256
370
   -1
100
AcDbLine
 10
160.940449377
 20
145.181164202
 11
159.2
 21
144.528495686
  0
LINE
  5
366
100
AcDbEntity
  8
Shape2DView011
  6
ByLayer
 62
  256
370
   -1
100
AcDbLine
 10
97.864101615
 20
185.878495686
 11
106.15335
 21
185.878495686
  0
LINE
  5
367
100
AcDbEntity
  8
Shape2DView011
  6
ByLayer
 62
  256
370
   -1
100
AcDbLine
 10
159.2
 20
144.528495686
 11
159.2
 21
145.278495686
  0
LINE
  5
368
100
AcDbEntity
  8
Shape2DView011
  6
ByLayer
 62
  256
370
   -1
100
AcDbLine
 10
90.903527618
 20
187.743575867
 11
97.864101615
 21
185.878495686
  0
LINE
  5
369
100
AcDbEntity
  8
Shape2DView011
  6
ByLayer
 62
  256
370
   -1
100
AcDbLine
 10
159.2
 20
145.278495686
 11
156.4
 21
145.278495686
  0
ARC
  5
36A
100
AcDbEntity
  8
Shape2DView011
  6
ByLayer
 62
  256
370
   -1
100
AcDbCircle
 10
90.8
 20
187.357205537
 40
0.4
100
AcDbArc
 50
75
 51
180
  0
LINE
  5
36B
100
AcDbEntity
  8
Shape2DView011
  6
ByLayer
 62
  256
370
   -1
100
AcDbLine
 10
156.4
 20
145.278495686
 11
156.4
 21
143.799785835
  0
LINE
  5
36C
100
AcDbEntity
  8
Shape2DView011
  6
ByLayer
 62
  256
370
   -1
100
AcDbLine
 10
90.40000000000001
 20
185.878495686
 11
90.40000000000001
 21
187.357205537
  0
ARC
  5
36D
100
AcDbEntity
  8
Shape2DView011
  6
ByLayer
 62
  256
370
   -1
100
AcDbCircle
 10
156
 20
143.799785835
 40
0.4
100
AcDbArc
 50
-105
 51
0
  0
LINE
  5
36E
100
AcDbEntity
  8
Shape2DView011
  6
ByLayer
 62
  256
370
   -1
100
AcDbLine
 10
87.59999999999999
 20
185.878495686
 11
90.40000000000001
 21
185.878495686
  0
LINE
  5
36F
100
AcDbEntity
  8
Shape2DView011
  6
ByLayer
 62
  256
370
   -1
100
AcDbLine
 10
155.896472382
 20
143.413415504
 11
148.935898385
 21
145.278495686
  0
LINE
  5
370
100
AcDbEntity
  8
Shape2DView011
  6
ByLayer
 62
  256
370
   -1
100
AcDbLine
 10
87.59999999999999
 20
186.628495686
 11
87.59999999999999
 21
185.878495686
  0
LINE
  5
371
100
AcDbEntity
  8
Shape2DView011
  6
ByLayer
 62
  256
370
   -1
100
AcDbLine
 10
148.935898385
 20
145.278495686
 11
140.64665
 21
145.278495686
  0
LINE
  5
372
100
AcDbEntity
  8
Shape2DView011
  6
ByLayer
 62
  256
370
   -1
100
AcDbLine
 10
85.859550623
 20
185.97582717
 11
87.59999999999999
 21
186.628495686
  0
LINE
  5
373
100
AcDbEntity
  8
Shape2DView011
  6
ByLayer
 62
  256
370
   -1
100
AcDbLine
 10
140.64665
 20
145.278495686
 11
140.64665
 21
147.853156368
  0
ARC
  5
374
100
AcDbEntity
  8
Shape2DView011
  6
ByLayer
 62
  256
370
   -1
100
AcDbCircle
 10
86
 20
185.601295499
 40
0.4
100
AcDbArc
 50
110.55604522
 51
180
  0
ARC
  5
375
100
AcDbEntity
  8
Shape2DView011
  6
ByLayer
 62
  256
370
   -1
100
AcDbCircle
 10
140.547095
 20
148.025590686
 40
0.19911
100
AcDbArc
 50
-59.99999999999999
 51
90
  0
LINE
  5
376
100
AcDbEntity
  8
Shape2DView011
  6
ByLayer
 62
  256
370
   -1
100
AcDbLine
 10
85.59999999999999
 20
183.478495686
 11
85.59999999999999
 21
185.601295499
  0
ARC
  5
377
100
AcDbEntity
  8
Shape2DView011
  6
ByLayer
 62
  256
370
   -1
100
AcDbCircle
 10
140.547095
 20
148.025590686
 40
0.19911
100
AcDbArc
 50
90
 51
150
  0
ARC
  5
378
100
AcDbEntity
  8
Shape2DView011
  6
ByLayer
 62
  256
370
   -1
100
AcDbCircle
 10
86
 20
183.478495686
 40
0.4
100
AcDbArc
 50
180
 51
-90
  0
LINE
  5
379
100
AcDbEntity
  8
Shape2DView011
  6
ByLayer
 62
  256
370
   -1
100
AcDbLine
 10
129.105339318
 20
148.125145686
 11
140.374660682
 21
148.125145686
  0
LINE
  5
37A
100
AcDbEntity
  8
Shape2DView011
  6
ByLayer
 62
  256
370
   -1
100
AcDbLine
 10
99.59999999999999
 20
183.078495686
 11
86
 21
183.078495686
  0
ARC
  5
37B
100
AcDbEntity
  8
Shape2DView011
  6
ByLayer
 62
  256
370
   -1
100
AcDbCircle
 10
128.932905
 20
148.025590686
 40
0.19911
100
AcDbArc
 50
30
 51
90
  0
ARC
  5
37C
100
AcDbEntity
  8
Shape2DView011
  6
ByLayer
 62
  256
370
   -1
100
AcDbCircle
 10
99.59999999999999
 20
182.678495686
 40
0.4
100
AcDbArc
 50
-90
 51
90
  0
ARC
  5
37D
100
AcDbEntity
  8
Shape2DView011
  6
ByLayer
 62
  256
370
   -1
100
AcDbCircle
 10
128.932905
 20
148.025590686
 40
0.19911
100
AcDbArc
 50
90
 51
-120
  0
LINE
  5
37E
100
AcDbEntity
  8
Shape2DView011
  6
ByLayer
 62
  256
370
   -1
100
AcDbLine
 10
86
 20
182.278495686
 11
99.59999999999999
 21
182.278495686
  0
LINE
  5
37F
100
AcDbEntity
  8
Shape2DView011
  6
ByLayer
 62
  256
370
   -1
100
AcDbLine
 10
128.83335
 20
145.278495686
 11
128.83335
 21
147.853156368
  0
ARC
  5
380
100
AcDbEntity
  8
Shape2DView011
  6
ByLayer
 62
  256
370
   -1
100
AcDbCircle
 10
86
 20
181.878495686
 40
0.4
100
AcDbArc
 50
90
 51
180
  0
LINE
  5
381
100
AcDbEntity
  8
Shape2DView011
  6
ByLayer
 62
  256
370
   -1
100
AcDbLine
 10
128.83335
 20
145.278495686
 11
117.96665
 21
145.278495686
  0
LINE
  5
382
100
AcDbEntity
  8
Shape2DView011
  6
ByLayer
 62
  256
370
   -1
100
AcDbLine
 10
85.59999999999999
 20
171.485145686
 11
85.59999999999999
 21
181.878495686
  0
LINE
  5
383
100
AcDbEntity
  8
Shape2DView011
  6
ByLayer
 62
  256
370
   -1
100
AcDbLine
 10
117.96665
 20
145.278495686
 11
117.96665
 21
147.853156368
  0
LINE
  5
384
100
AcDbEntity
  8
Shape2DView011
  6
ByLayer
 62
  256
370
   -1
100
AcDbLine
 10
88.174660682
 20
171.485145686
 11
85.59999999999999
 21
171.485145686
  0
ARC
  5
385
100
AcDbEntity
  8
Shape2DView011
  6
ByLayer
 62
  256
370
   -1
100
AcDbCircle
 10
117.867095
 20
148.025590686
 40
0.19911
100
AcDbArc
 50
-59.99999999999999
 51
90
  0
ARC
  5
386
100
AcDbEntity
  8
Shape2DView011
  6
ByLayer
 62
  256
370
   -1
100
AcDbCircle
 10
88.347095
 20
171.385590686
 40
0.19911
100
AcDbArc
 50
-59.99999999999999
 51
150
  0
ARC
  5
387
100
AcDbEntity
  8
Shape2DView011
  6
ByLayer
 62
  256
370
   -1
100
AcDbCircle
 10
117.867095
 20
148.025590686
 40
0.19911
100
AcDbArc
 50
90
 51
150
  0
LINE
  5
388
100
AcDbEntity
  8
Shape2DView011
  6
ByLayer
 62
  256
370
   -1
100
AcDbLine
 10
88.44665000000001
 20
159.943835004
 11
88.44665000000001
 21
171.213156368
  0
LINE
  5
389
100
AcDbEntity
  8
Shape2DView011
  6
ByLayer
 62
  256
370
   -1
100
AcDbLine
 10
106.425339318
 20
148.125145686
 11
117.694660682
 21
148.125145686
  0
ARC
  5
38A
100
AcDbEntity
  8
Shape2DView011
  6
ByLayer
 62
  256
370
   -1
100
AcDbCircle
 10
88.347095
 20
159.771400686
 40
0.19911
100
AcDbArc
 50
-150
 51
59.99999999999999
  0
ARC
  5
38B
100
AcDbEntity
  8
Shape2DView011
  6
ByLayer
 62
  256
370
   -1
100
AcDbCircle
 10
106.252905
 20
148.025590686
 40
0.19911
100
AcDbArc
 50
30
 51
90
  0
LINE
  5
38C
100
AcDbEntity
  8
Shape2DView011
  6
ByLayer
 62
  256
370
   -1
100
AcDbLine
 10
88.174660682
 20
159.671845686
 11
85.59999999999999
 21
159.671845686
  0
ARC
  5
38D
100
AcDbEntity
  8
Shape2DView011
  6
ByLayer
 62
  256
370
   -1
100
AcDbCircle
 10
106.252905
 20
148.025590686
 40
0.19911
100
AcDbArc
 50
90
 51
-120
  0
LINE
  5
38E
100
AcDbEntity
  8
Shape2DView011
  6
ByLayer
 62
  256
370
   -1
100
AcDbLine
 10
85.59999999999999
 20
149.278495686
 11
85.59999999999999
 21
159.671845686
  0
LINE
  5
38F
100
AcDbEntity
  8
Shape2DView011
  6
ByLayer
 62
  256
370
   -1
100
AcDbLine
 10
106.15335
 20
145.278495686
 11
106.15335
 21
147.853156368
  0
ARC
  5
390
100
AcDbEntity
  8
Shape2DView011
  6
ByLayer
 62
  256
370
   -1
100
AcDbCircle
 10
86
 20
149.278495686
 40
0.4
100
AcDbArc
 50
180
 51
-90
  0
LINE
  5
391
100
AcDbEntity
  8
Shape2DView011
  6
ByLayer
 62
  256
370
   -1
100
AcDbLine
 10
106.15335
 20
145.278495686
 11
97.864101615
 21
145.278495686
  0
LINE
  5
392
100
AcDbEntity
  8
Shape2DView011
  6
ByLayer
 62
  256
370
   -1
100
AcDbLine
 10
99.59999999999999
 20
148.878495686
 11
86
 21
148.878495686
  0
LINE
  5
393
100
AcDbEntity
  8
Shape2DView011
  6
ByLayer
 62
  256
370
   -1
100
AcDbLine
 10
97.864101615
 20
145.278495686
 11
90.903527618
 21
143.413415504
  0
ARC
  5
394
100
AcDbEntity
  8
Shape2DView011
  6
ByLayer
 62
  256
370
   -1
100
AcDbCircle
 10
99.59999999999999
 20
148.478495686
 40
0.4
100
AcDbArc
 50
-90
 51
90
  0
ARC
  5
395
100
AcDbEntity
  8
Shape2DView011
  6
ByLayer
 62
  256
370
   -1
100
AcDbCircle
 10
90.8
 20
143.799785835
 40
0.4
100
AcDbArc
 50
180
 51
-75
  0
LINE
  5
396
100
AcDbEntity
  8
Shape2DView011
  6
ByLayer
 62
  256
370
   -1
100
AcDbLine
 10
86
 20
148.078495686
 11
99.59999999999999
 21
148.078495686
  0
LINE
  5
397
100
AcDbEntity
  8
Shape2DView011
  6
ByLayer
 62
  256
370
   -1
100
AcDbLine
 10
90.40000000000001
 20
143.799785835
 11
90.40000000000001
 21
145.278495686
  0
ARC
  5
398
100
AcDbEntity
  8
Shape2DView011
  6
ByLayer
 62
  256
370
   -1
100
AcDbCircle
 10
86
 20
147.678495686
 40
0.4
100
AcDbArc
 50
90
 51
180
  0
LINE
  5
399
100
AcDbEntity
  8
Shape2DView011
  6
ByLayer
 62
  256
370
   -1
100
AcDbLine
 10
90.40000000000001
 20
145.278495686
 11
87.59999999999999
 21
145.278495686
  0
LINE
  5
39A
100
AcDbEntity
  8
Shape2DView011
  6
ByLayer
 62
  256
370
   -1
100
AcDbLine
 10
85.59999999999999
 20
145.555695873
 11
85.59999999999999
 21
147.678495686
  0
LINE
  5
39B
100
AcDbEntity
  8
Shape2DView011
  6
ByLayer
 62
  256
370
   -1
100
AcDbLine
 10
87.59999999999999
 20
144.528495686
 11
87.59999999999999
 21
145.278495686
  0
ARC
  5
39C
100
AcDbEntity
  8
Shape2DView011
  6
ByLayer
 62
  256
370
   -1
100
AcDbCircle
 10
86
 20
145.555695873
 40
0.4
100
AcDbArc
 50
180
 51
-110.55604522
  0
LINE
  5
39D
100
AcDbEntity
  8
Shape2DView011
  6
ByLayer
 62
  256
370
   -1
100
AcDbLine
 10
85.859550623
 20
145.181164202
 11
87.59999999999999
 21
144.528495686
  0
LINE
  5
39E
100
AcDbEntity
  8
Shape2DView011
  6
ByLayer
 62
  256
370
   -1
100
AcDbLine
 10
110.45
 20
178.078495686
 11
98.25
 21
178.078495686
  0
ARC
  5
39F
100
AcDbEntity
  8
Shape2DView011
  6
ByLayer
 62
  256
370
   -1
100
AcDbCircle
 10
110.7
 20
178.078495686
 40
0.25
100
AcDbArc
 50
0
 51
180
  0
ARC
  5
3A0
100
AcDbEntity
  8
Shape2DView011
  6
ByLayer
 62
  256
370
   -1
100
AcDbCircle
 10
98
 20
178.078495686
 40
0.25
100
AcDbArc
 50
0
 51
-90
  0
ARC
  5
3A1
100
AcDbEntity
  8
Shape2DView011
  6
ByLayer
 62
  256
370
   -1
100
AcDbCircle
 10
110.7
 20
178.078495686
 40
0.25
100
AcDbArc
 50
-90
 51
0
  0
LINE
  5
3A2
100
AcDbEntity
  8
Shape2DView011
  6
ByLayer
 62
  256
370
   -1
100
AcDbLine
 10
98
 20
177.828495686
 11
98
 21
176.728495686
  0
LINE
  5
3A3
100
AcDbEntity
  8
Shape2DView011
  6
ByLayer
 62
  256
370
   -1
100
AcDbLine
 10
110.7
 20
176.728495686
 11
110.7
 21
177.828495686
  0
ARC
  5
3A4
100
AcDbEntity
  8
Shape2DView011
  6
ByLayer
 62
  256
370
   -1
100
AcDbCircle
 10
98
 20
176.478495686
 40
0.25
100
AcDbArc
 50
90
 51
0
  0
ARC
  5
3A5
100
AcDbEntity
  8
Shape2DView011
  6
ByLayer
 62
  256
370
   -1
100
AcDbCircle
 10
110.7
 20
176.478495686
 40
0.25
100
AcDbArc
 50
0
 51
90
  0
LINE
  5
3A6
100
AcDbEntity
  8
Shape2DView011
  6
ByLayer
 62
  256
370
   -1
100
AcDbLine
 10
98.25
 20
176.478495686
 11
110.45
 21
176.478495686
  0
ARC
  5
3A7
100
AcDbEntity
  8
Shape2DView011
  6
ByLayer
 62
  256
370
   -1
100
AcDbCircle
 10
110.7
 20
176.478495686
 40
0.25
100
AcDbArc
 50
180
 51
0
  0
CIRCLE
  5
3A8
100
AcDbEntity
  8
Shape2DView011
  6
ByLayer
 62
  256
370
   -1
100
AcDbCircle
 10
123.4
 20
172.750820609
 40
4
  0
LINE
  5
3A9
100
AcDbEntity
  8
Shape2DView011
  6
ByLayer
 62
  256
370
   -1
100
AcDbLine
 10
148.55
 20
178.078495686
 11
136.35
 21
178.078495686
  0
ARC
  5
3AA
100
AcDbEntity
  8
Shape2DView011
  6
ByLayer
 62
  256
370
   -1
100
AcDbCircle
 10
148.8
 20
178.078495686
 40
0.25
100
AcDbArc
 50
0
 51
180
  0
ARC
  5
3AB
100
AcDbEntity
  8
Shape2DView011
  6
ByLayer
 62
  256
370
   -1
100
AcDbCircle
 10
136.1
 20
178.078495686
 40
0.25
100
AcDbArc
 50
0
 51
-90
  0
ARC
  5
3AC
100
AcDbEntity
  8
Shape2DView011
  6
ByLayer
 62
  256
370
   -1
100
AcDbCircle
 10
148.8
 20
178.078495686
 40
0.25
100
AcDbArc
 50
-90
 51
0
  0
LINE
  5
3AD
100
AcDbEntity
  8
Shape2DView011
  6
ByLayer
 62
  256
370
   -1
100
AcDbLine
 10
136.1
 20
177.828495686
 11
136.1
 21
176.728495686
  0
LINE
  5
3AE
100
AcDbEntity
  8
Shape2DView011
  6
ByLayer
 62
  256
370
   -1
100
AcDbLine
 10
148.8
 20
176.728495686
 11
148.8
 21
177.828495686
  0
ARC
  5
3AF
100
AcDbEntity
  8
Shape2DView011
  6
ByLayer
 62
  256
370
   -1
100
AcDbCircle
 10
136.1
 20
176.478495686
 40
0.25
100
AcDbArc
 50
90
 51
0
  0
ARC
  5
3B0
100
AcDbEntity
  8
Shape2DView011
  6
ByLayer
 62
  256
370
   -1
100
AcDbCircle
 10
148.8
 20
176.478495686
 40
0.25
100
AcDbArc
 50
0
 51
90
  0
LINE
  5
3B1
100
AcDbEntity
  8
Shape2DView011
  6
ByLayer
 62
  256
370
   -1
100
AcDbLine
 10
136.35
 20
176.478495686
 11
148.55
 21
176.478495686
  0
ARC
  5
3B2
100
AcDbEntity
  8
Shape2DView011
  6
ByLayer
 62
  256
370
   -1
100
AcDbCircle
 10
148.8
 20
176.478495686
 40
0.25
100
AcDbArc
 50
180
 51
0
  0
ENDSEC
  0
SECTION
  2
OBJECTS
  0
DICTIONARY
  5
C
330
0
100
AcDbDictionary
281
    1
  3
ACAD_GROUP
350
D
  0
DICTIONARY
  5
D
330
C
100
AcDbDictionary
281
    1
  0
PLOTSETTINGS
  5
3B3
100
AcDbPlotSettings
  6
1x1
 40
0
 41
0
 42
0
 43
0
  0
ENDSEC
  0
EOF
