999
FreeCAD v1.0 38806 (Git)
  0
SECTION
  2
HEADER
  9
$ACADVER
  1
AC1014
  9
$ACADMAINTVER
 70
     9
  9
$DWGCODEPAGE
  3
ANSI_1252
  9
$TEXTSTYLE
  7
STANDARD
  9
$DIMSTYLE
  2
STANDARD
  9
$DIMTXSTY
  7
STANDARD
  9
$CMLSTYLE
  2
STANDARD
  9
$LUNITS
 70
2
  9
$INSUNITS
 70
4
  9
$PEXTMAX
 10
50
 20
50
 30
50
  9
$PEXTMIN
 10
0
 20
0
 30
0
  9
$HANDSEED
  5
FFFF
  0
ENDSEC
  0
SECTION
  2
CLASSES
  0
CLASS
  1
ACDBDICTIONARYWDFLT
  2
AcDbDictionaryWithDefault
  3
ObjectDBX Classes
 90
        0
280
     0
281
     0
  0
CLASS
  1
XRECORD
  2
AcDbXrecord
  3
ObjectDBX Classes
 90
        0
280
     0
281
     0
  0
CLASS
  1
LWPOLYLINE
  2
AcDbPolyline
  3
ObjectDBX Classes
 90
        0
280
     0
281
     1
  0
ENDSEC
  0
SECTION
  2
TABLES
  0
TABLE
  2
VPORT
  5
20
330
0
100
AcDbSymbolTable
 70
     1
  0
VPORT
  5
21
330
20
100
AcDbSymbolTableRecord
100
AcDbViewportTableRecord
  2
*ACTIVE
 70
     0
  0
ENDTAB
  0
TABLE
  2
LTYPE
  5
22
330
0
100
AcDbSymbolTable
 70
     1
  0
LTYPE
  5
23
330
21
100
AcDbSymbolTableRecord
100
AcDbLinetypeTableRecord
  2
BYBLOCK
 70
     0
  3

 72
    65
 73
     0
 40
0.0
  0
LTYPE
  5
24
330
21
100
AcDbSymbolTableRecord
100
AcDbLinetypeTableRecord
  2
BYLAYER
 70
     0
  3

 72
    65
 73
     0
 40
0.0
  0
LTYPE
  5
25
330
21
100
AcDbSymbolTableRecord
100
AcDbLinetypeTableRecord
  2
CONTINUOUS
 70
     0
  3
Solid line
 72
    65
 73
     0
 40
0.0
  0
ENDTAB
  0
TABLE
  2
LAYER
  5
A34
330
0
100
AcDbSymbolTable
 70
3
  0
LAYER
  5
A35
330
A34
100
AcDbSymbolTableRecord
100
AcDbLayerTableRecord
  2
0
 70
   0
 62
   7
  6
CONTINUOUS
  0
LAYER
  5
A36
330
A34
100
AcDbSymbolTableRecord
100
AcDbLayerTableRecord
  2
none
 70
    0
 62
    7
  6
CONTINUOUS
  0
LAYER
  5
A37
330
A34
100
AcDbSymbolTableRecord
100
AcDbLayerTableRecord
  2
Shape2DView001
 70
    0
 62
    7
  6
CONTINUOUS
  0
ENDTAB
  0
TABLE
  2
STYLE
  5
70
330
0
100
AcDbSymbolTable
 70
     2
  0
STYLE
  5
71
330
70
100
AcDbSymbolTableRecord
100
AcDbTextStyleTableRecord
  2
STANDARD
 70
     0
 40
0.0
 41
1.0
 50
0.0
 71
     0
 42
2.5
  3
arial.ttf
  4

  0
STYLE
  5
72
330
70
100
AcDbSymbolTableRecord
100
AcDbTextStyleTableRecord
  2
ANNOTATIVE
 70
     0
 40
0.0
 41
1.0
 50
0.0
 71
     0
 42
2.5
  3
arial.ttf
  4

  0
ENDTAB
  0
TABLE
  2
VIEW
  5
73
330
0
100
AcDbSymbolTable
 70
     0
  0
ENDTAB
  0
TABLE
  2
UCS
  5
74
330
0
100
AcDbSymbolTable
 70
     0
  0
ENDTAB
  0
TABLE
  2
APPID
  5
75
330
0
100
AcDbSymbolTable
 70
     2
  0
APPID
  5
76
330
75
100
AcDbSymbolTableRecord
100
AcDbRegAppTableRecord
  2
ACAD
 70
     0
  0
APPID
  5
77
330
75
100
AcDbSymbolTableRecord
100
AcDbRegAppTableRecord
  2
ACADANNOTATIVE
 70
     0
  0
ENDTAB
  0
TABLE
  2
DIMSTYLE
  5
78
330
0
100
AcDbSymbolTable
 70
     2
  0
DIMSTYLE
105
79
330
78
100
AcDbSymbolTableRecord
100
AcDbDimStyleTableRecord
  2
STANDARD
 70
     0
  3

  4

  5

  6

  7

 40
0.0
 41
2.5
 42
0.625
 43
3.75
 44
1.25
 45
0.0
 46
0.0
 47
0.0
 48
0.0
140
2.5
141
2.5
142
0.0
143
0.03937007874016
144
1.0
145
0.0
146
1.0
147
0.625
 71
     0
 72
     0
 73
     0
 74
     0
 75
     0
 76
     0
 77
     1
 78
     8
170
     0
171
     3
172
     1
173
     0
174
     0
175
     0
176
     0
177
     0
178
     0
270
     2
271
     2
272
     2
273
     2
274
     3
340
71
275
     0
280
     0
281
     0
282
     0
283
     0
284
     8
285
     0
286
     0
287
     3
288
     0
  0
ENDTAB
  0
TABLE
  2
BLOCK_RECORD
  5
A01
330
0
100
AcDbSymbolTable
  70
5
  0
BLOCK_RECORD
  5
A02
330
A01
100
AcDbSymbolTableRecord
100
AcDbBlockTableRecord
  2
*MODEL_SPACE
  0
BLOCK_RECORD
  5
A03
330
A01
100
AcDbSymbolTableRecord
100
AcDbBlockTableRecord
  2
*PAPER_SPACE
  0
ENDTAB
  0
ENDSEC
  0
SECTION
  2
BLOCKS
  0
BLOCK
  5
A04
330
A02
100
AcDbEntity
  8
0
100
AcDbBlockBegin
  2
*MODEL_SPACE
 70
   0
 10
0
 20
0
 30
0
  3
*MODEL_SPACE
  1
 
  0
ENDBLK
  5
A05
330
A02
100
AcDbEntity
  8
0
100
AcDbBlockEnd
  0
BLOCK
  5
A06
330
A03
100
AcDbEntity
 67
1
  8
0
100
AcDbBlockBegin
  2
*PAPER_SPACE
 70
   0
 10
0
 20
0
 30
0
  3
*PAPER_SPACE
  1
 
  0
ENDBLK
  5
A07
330
A03
100
AcDbEntity
 67
    1
  8
0
100
AcDbBlockEnd
  0
ENDSEC
  0
SECTION
  2
ENTITIES
  0
LINE
  5
A08
330
A02
100
AcDbEntity
  8
Shape2DView001
100
AcDbLine
 10
68.127675077
 20
27.888718058
 30
0.000000000
 11
68.127675077
 21
-22.711281942
 31
0.000000000
  0
ARC
  5
A09
330
A02
100
AcDbEntity
  8
Shape2DView001
100
AcDbCircle
 10
65.627675077
 20
27.888718058
 30
0.000000000
 40
2.500000000
100
AcDbArc
 50
0.000000000
 51
90.000000000
  0
ARC
  5
A0A
330
A02
100
AcDbEntity
  8
Shape2DView001
100
AcDbCircle
 10
65.627675077
 20
-22.711281942
 30
0.000000000
 40
2.500000000
100
AcDbArc
 50
-90.000000000
 51
0.000000000
  0
LINE
  5
A0B
330
A02
100
AcDbEntity
  8
Shape2DView001
100
AcDbLine
 10
38.027675077
 20
30.388718058
 30
0.000000000
 11
65.627675077
 21
30.388718058
 31
0.000000000
  0
LINE
  5
A0C
330
A02
100
AcDbEntity
  8
Shape2DView001
100
AcDbLine
 10
65.627675077
 20
-25.211281942
 30
0.000000000
 11
-39.972324923
 21
-25.211281942
 31
0.000000000
  0
ARC
  5
A0D
330
A02
100
AcDbEntity
  8
Shape2DView001
100
AcDbCircle
 10
38.027675077
 20
27.888718058
 30
0.000000000
 40
2.500000000
100
AcDbArc
 50
90.000000000
 51
180.000000000
  0
ARC
  5
A0E
330
A02
100
AcDbEntity
  8
Shape2DView001
100
AcDbCircle
 10
-39.972324923
 20
-22.711281942
 30
0.000000000
 40
2.500000000
100
AcDbArc
 50
180.000000000
 51
-90.000000000
  0
LINE
  5
A0F
330
A02
100
AcDbEntity
  8
Shape2DView001
100
AcDbLine
 10
35.527675077
 20
22.298642527
 30
0.000000000
 11
35.527675077
 21
27.888718058
 31
0.000000000
  0
LINE
  5
A10
330
A02
100
AcDbEntity
  8
Shape2DView001
100
AcDbLine
 10
-42.472324923
 20
-22.711281942
 30
0.000000000
 11
-42.472324923
 21
62.888718058
 31
0.000000000
  0
ARC
  5
A11
330
A02
100
AcDbEntity
  8
Shape2DView001
100
AcDbCircle
 10
33.027675077
 20
22.298642527
 30
0.000000000
 40
2.500000000
100
AcDbArc
 50
-110.000000000
 51
0.000000000
  0
ARC
  5
A12
330
A02
100
AcDbEntity
  8
Shape2DView001
100
AcDbCircle
 10
-39.972324923
 20
62.888718058
 30
0.000000000
 40
2.500000000
100
AcDbArc
 50
90.000000000
 51
180.000000000
  0
LINE
  5
A13
330
A02
100
AcDbEntity
  8
Shape2DView001
100
AcDbLine
 10
9.772624719
 20
28.102344223
 30
0.000000000
 11
32.172624719
 21
19.949410975
 31
0.000000000
  0
LINE
  5
A14
330
A02
100
AcDbEntity
  8
Shape2DView001
100
AcDbLine
 10
-39.972324923
 20
65.388718058
 30
0.000000000
 11
5.627675077
 21
65.388718058
 31
0.000000000
  0
ARC
  5
A15
330
A02
100
AcDbEntity
  8
Shape2DView001
100
AcDbCircle
 10
10.627675077
 20
30.451575775
 30
0.000000000
 40
2.500000000
100
AcDbArc
 50
180.000000000
 51
-110.000000000
  0
ARC
  5
A16
330
A02
100
AcDbEntity
  8
Shape2DView001
100
AcDbCircle
 10
5.627675077
 20
62.888718058
 30
0.000000000
 40
2.500000000
100
AcDbArc
 50
0.000000000
 51
90.000000000
  0
LINE
  5
A17
330
A02
100
AcDbEntity
  8
Shape2DView001
100
AcDbLine
 10
8.127675077
 20
62.888718058
 30
0.000000000
 11
8.127675077
 21
30.451575775
 31
0.000000000
  0
ARC
  5
A18
330
A02
100
AcDbEntity
  8
Shape2DView001
100
AcDbCircle
 10
63.377675077
 20
24.955705356
 30
0.000000000
 40
0.250000000
100
AcDbArc
 50
120.000000000
 51
180.000000000
  0
ARC
  5
A19
330
A02
100
AcDbEntity
  8
Shape2DView001
100
AcDbCircle
 10
63.127675077
 20
25.388718058
 30
0.000000000
 40
0.250000000
100
AcDbArc
 50
-60.000000000
 51
150.000000000
  0
ARC
  5
A1A
330
A02
100
AcDbEntity
  8
Shape2DView001
100
AcDbCircle
 10
62.694662375
 20
25.638718058
 30
0.000000000
 40
0.250000000
100
AcDbArc
 50
-90.000000000
 51
-30.000000000
  0
LINE
  5
A1B
330
A02
100
AcDbEntity
  8
Shape2DView001
100
AcDbLine
 10
40.960687779
 20
25.388718058
 30
0.000000000
 11
62.694662375
 21
25.388718058
 31
0.000000000
  0
ARC
  5
A1C
330
A02
100
AcDbEntity
  8
Shape2DView001
100
AcDbCircle
 10
40.960687779
 20
25.638718058
 30
0.000000000
 40
0.250000000
100
AcDbArc
 50
-150.000000000
 51
-90.000000000
  0
ARC
  5
A1D
330
A02
100
AcDbEntity
  8
Shape2DView001
100
AcDbCircle
 10
40.527675077
 20
25.388718058
 30
0.000000000
 40
0.250000000
100
AcDbArc
 50
30.000000000
 51
-120.000000000
  0
ARC
  5
A1E
330
A02
100
AcDbEntity
  8
Shape2DView001
100
AcDbCircle
 10
40.277675077
 20
24.955705356
 30
0.000000000
 40
0.250000000
100
AcDbArc
 50
0.000000000
 51
60.000000000
  0
LINE
  5
A1F
330
A02
100
AcDbEntity
  8
Shape2DView001
100
AcDbLine
 10
40.527675077
 20
13.015680483
 30
0.000000000
 11
40.527675077
 21
24.955705356
 31
0.000000000
  0
ARC
  5
A20
330
A02
100
AcDbEntity
  8
Shape2DView001
100
AcDbCircle
 10
39.527675077
 20
13.015680483
 30
0.000000000
 40
1.000000000
100
AcDbArc
 50
-110.000000000
 51
-0.000000000
  0
LINE
  5
A21
330
A02
100
AcDbEntity
  8
Shape2DView001
100
AcDbLine
 10
3.785654934
 20
24.960534156
 30
0.000000000
 11
39.185654934
 21
12.075987863
 31
0.000000000
  0
ARC
  5
A22
330
A02
100
AcDbEntity
  8
Shape2DView001
100
AcDbCircle
 10
4.127675077
 20
25.900226776
 30
0.000000000
 40
1.000000000
100
AcDbArc
 50
180.000000000
 51
-110.000000000
  0
LINE
  5
A23
330
A02
100
AcDbEntity
  8
Shape2DView001
100
AcDbLine
 10
3.127675077
 20
59.955705356
 30
0.000000000
 11
3.127675077
 21
25.900226776
 31
0.000000000
  0
ARC
  5
A24
330
A02
100
AcDbEntity
  8
Shape2DView001
100
AcDbCircle
 10
3.377675077
 20
59.955705356
 30
0.000000000
 40
0.250000000
100
AcDbArc
 50
120.000000000
 51
180.000000000
  0
ARC
  5
A25
330
A02
100
AcDbEntity
  8
Shape2DView001
100
AcDbCircle
 10
3.127675077
 20
60.388718058
 30
0.000000000
 40
0.250000000
100
AcDbArc
 50
-60.000000000
 51
150.000000000
  0
ARC
  5
A26
330
A02
100
AcDbEntity
  8
Shape2DView001
100
AcDbCircle
 10
2.694662375
 20
60.638718058
 30
0.000000000
 40
0.250000000
100
AcDbArc
 50
-90.000000000
 51
-30.000000000
  0
LINE
  5
A27
330
A02
100
AcDbEntity
  8
Shape2DView001
100
AcDbLine
 10
-37.039312221
 20
60.388718058
 30
0.000000000
 11
2.694662375
 21
60.388718058
 31
0.000000000
  0
ARC
  5
A28
330
A02
100
AcDbEntity
  8
Shape2DView001
100
AcDbCircle
 10
-37.039312221
 20
60.638718058
 30
0.000000000
 40
0.250000000
100
AcDbArc
 50
-150.000000000
 51
-90.000000000
  0
ARC
  5
A29
330
A02
100
AcDbEntity
  8
Shape2DView001
100
AcDbCircle
 10
-37.472324923
 20
60.388718058
 30
0.000000000
 40
0.250000000
100
AcDbArc
 50
30.000000000
 51
-120.000000000
  0
ARC
  5
A2A
330
A02
100
AcDbEntity
  8
Shape2DView001
100
AcDbCircle
 10
-37.722324923
 20
59.955705356
 30
0.000000000
 40
0.250000000
100
AcDbArc
 50
0.000000000
 51
60.000000000
  0
LINE
  5
A2B
330
A02
100
AcDbEntity
  8
Shape2DView001
100
AcDbLine
 10
-37.472324923
 20
-19.778269240
 30
0.000000000
 11
-37.472324923
 21
59.955705356
 31
0.000000000
  0
ARC
  5
A2C
330
A02
100
AcDbEntity
  8
Shape2DView001
100
AcDbCircle
 10
-37.722324923
 20
-19.778269240
 30
0.000000000
 40
0.250000000
100
AcDbArc
 50
-60.000000000
 51
0.000000000
  0
ARC
  5
A2D
330
A02
100
AcDbEntity
  8
Shape2DView001
100
AcDbCircle
 10
-37.472324923
 20
-20.211281942
 30
0.000000000
 40
0.250000000
100
AcDbArc
 50
120.000000000
 51
-30.000000000
  0
ARC
  5
A2E
330
A02
100
AcDbEntity
  8
Shape2DView001
100
AcDbCircle
 10
-37.039312221
 20
-20.461281942
 30
0.000000000
 40
0.250000000
100
AcDbArc
 50
90.000000000
 51
150.000000000
  0
LINE
  5
A2F
330
A02
100
AcDbEntity
  8
Shape2DView001
100
AcDbLine
 10
62.694662375
 20
-20.211281942
 30
0.000000000
 11
-37.039312221
 21
-20.211281942
 31
0.000000000
  0
ARC
  5
A30
330
A02
100
AcDbEntity
  8
Shape2DView001
100
AcDbCircle
 10
62.694662375
 20
-20.461281942
 30
0.000000000
 40
0.250000000
100
AcDbArc
 50
30.000000000
 51
90.000000000
  0
ARC
  5
A31
330
A02
100
AcDbEntity
  8
Shape2DView001
100
AcDbCircle
 10
63.127675077
 20
-20.211281942
 30
0.000000000
 40
0.250000000
100
AcDbArc
 50
-150.000000000
 51
60.000000000
  0
ARC
  5
A32
330
A02
100
AcDbEntity
  8
Shape2DView001
100
AcDbCircle
 10
63.377675077
 20
-19.778269240
 30
0.000000000
 40
0.250000000
100
AcDbArc
 50
180.000000000
 51
-120.000000000
  0
LINE
  5
A33
330
A02
100
AcDbEntity
  8
Shape2DView001
100
AcDbLine
 10
63.127675077
 20
24.955705356
 30
0.000000000
 11
63.127675077
 21
-19.778269240
 31
0.000000000
  0
ENDSEC
  0
SECTION
  2
OBJECTS
  0
DICTIONARY
  5
F000
330
0
100
AcDbDictionary
  3
ACAD_GROUP
350
F001
  0
DICTIONARY
  5
F001
330
F000
100
AcDbDictionary
  0
ENDSEC
  0
EOF