999
FreeCAD v1.0 39109 (Git)
  0
SECTION
  2
HEADER
  9
$ACADVER
  1
AC1014
  9
$ACADMAINTVER
 70
     9
  9
$DWGCODEPAGE
  3
ANSI_1252
  9
$TEXTSTYLE
  7
STANDARD
  9
$DIMSTYLE
  2
STANDARD
  9
$DIMTXSTY
  7
STANDARD
  9
$CMLSTYLE
  2
STANDARD
  9
$LUNITS
 70
2
  9
$INSUNITS
 70
4
  9
$PEXTMAX
 10
50
 20
50
 30
50
  9
$PEXTMIN
 10
0
 20
0
 30
0
  9
$HANDSEED
  5
FFFF
  0
ENDSEC
  0
SECTION
  2
CLASSES
  0
CLASS
  1
ACDBDICTIONARYWDFLT
  2
AcDbDictionaryWithDefault
  3
ObjectDBX Classes
 90
        0
280
     0
281
     0
  0
CLASS
  1
XRECORD
  2
AcDbXrecord
  3
ObjectDBX Classes
 90
        0
280
     0
281
     0
  0
CLASS
  1
LWPOLYLINE
  2
AcDbPolyline
  3
ObjectDBX Classes
 90
        0
280
     0
281
     1
  0
ENDSEC
  0
SECTION
  2
TABLES
  0
TABLE
  2
VPORT
  5
20
330
0
100
AcDbSymbolTable
 70
     1
  0
VPORT
  5
21
330
20
100
AcDbSymbolTableRecord
100
AcDbViewportTableRecord
  2
*ACTIVE
 70
     0
  0
ENDTAB
  0
TABLE
  2
LTYPE
  5
22
330
0
100
AcDbSymbolTable
 70
     1
  0
LTYPE
  5
23
330
21
100
AcDbSymbolTableRecord
100
AcDbLinetypeTableRecord
  2
BYBLOCK
 70
     0
  3

 72
    65
 73
     0
 40
0.0
  0
LTYPE
  5
24
330
21
100
AcDbSymbolTableRecord
100
AcDbLinetypeTableRecord
  2
BYLAYER
 70
     0
  3

 72
    65
 73
     0
 40
0.0
  0
LTYPE
  5
25
330
21
100
AcDbSymbolTableRecord
100
AcDbLinetypeTableRecord
  2
CONTINUOUS
 70
     0
  3
Solid line
 72
    65
 73
     0
 40
0.0
  0
ENDTAB
  0
TABLE
  2
LAYER
  5
D63
330
0
100
AcDbSymbolTable
 70
12
  0
LAYER
  5
D64
330
D63
100
AcDbSymbolTableRecord
100
AcDbLayerTableRecord
  2
0
 70
   0
 62
   7
  6
CONTINUOUS
  0
LAYER
  5
D65
330
D63
100
AcDbSymbolTableRecord
100
AcDbLayerTableRecord
  2
none
 70
    0
 62
    7
  6
CONTINUOUS
  0
LAYER
  5
D66
330
D63
100
AcDbSymbolTableRecord
100
AcDbLayerTableRecord
  2
Shape2DView
 70
    0
 62
    7
  6
CONTINUOUS
  0
LAYER
  5
D67
330
D63
100
AcDbSymbolTableRecord
100
AcDbLayerTableRecord
  2
Shape2DView001
 70
    0
 62
    7
  6
CONTINUOUS
  0
LAYER
  5
D68
330
D63
100
AcDbSymbolTableRecord
100
AcDbLayerTableRecord
  2
Shape2DView002
 70
    0
 62
    7
  6
CONTINUOUS
  0
LAYER
  5
D69
330
D63
100
AcDbSymbolTableRecord
100
AcDbLayerTableRecord
  2
Shape2DView003
 70
    0
 62
    7
  6
CONTINUOUS
  0
LAYER
  5
D6A
330
D63
100
AcDbSymbolTableRecord
100
AcDbLayerTableRecord
  2
Shape2DView004
 70
    0
 62
    7
  6
CONTINUOUS
  0
LAYER
  5
D6B
330
D63
100
AcDbSymbolTableRecord
100
AcDbLayerTableRecord
  2
Shape2DView005
 70
    0
 62
    7
  6
CONTINUOUS
  0
LAYER
  5
D6C
330
D63
100
AcDbSymbolTableRecord
100
AcDbLayerTableRecord
  2
Shape2DView006
 70
    0
 62
    7
  6
CONTINUOUS
  0
LAYER
  5
D6D
330
D63
100
AcDbSymbolTableRecord
100
AcDbLayerTableRecord
  2
Shape2DView008
 70
    0
 62
    7
  6
CONTINUOUS
  0
LAYER
  5
D6E
330
D63
100
AcDbSymbolTableRecord
100
AcDbLayerTableRecord
  2
Shape2DView010
 70
    0
 62
    7
  6
CONTINUOUS
  0
LAYER
  5
D6F
330
D63
100
AcDbSymbolTableRecord
100
AcDbLayerTableRecord
  2
Shape2DView011
 70
    0
 62
    7
  6
CONTINUOUS
  0
ENDTAB
  0
TABLE
  2
STYLE
  5
70
330
0
100
AcDbSymbolTable
 70
     2
  0
STYLE
  5
71
330
70
100
AcDbSymbolTableRecord
100
AcDbTextStyleTableRecord
  2
STANDARD
 70
     0
 40
0.0
 41
1.0
 50
0.0
 71
     0
 42
2.5
  3
arial.ttf
  4

  0
STYLE
  5
72
330
70
100
AcDbSymbolTableRecord
100
AcDbTextStyleTableRecord
  2
ANNOTATIVE
 70
     0
 40
0.0
 41
1.0
 50
0.0
 71
     0
 42
2.5
  3
arial.ttf
  4

  0
ENDTAB
  0
TABLE
  2
VIEW
  5
73
330
0
100
AcDbSymbolTable
 70
     0
  0
ENDTAB
  0
TABLE
  2
UCS
  5
74
330
0
100
AcDbSymbolTable
 70
     0
  0
ENDTAB
  0
TABLE
  2
APPID
  5
75
330
0
100
AcDbSymbolTable
 70
     2
  0
APPID
  5
76
330
75
100
AcDbSymbolTableRecord
100
AcDbRegAppTableRecord
  2
ACAD
 70
     0
  0
APPID
  5
77
330
75
100
AcDbSymbolTableRecord
100
AcDbRegAppTableRecord
  2
ACADANNOTATIVE
 70
     0
  0
ENDTAB
  0
TABLE
  2
DIMSTYLE
  5
78
330
0
100
AcDbSymbolTable
 70
     2
  0
DIMSTYLE
105
79
330
78
100
AcDbSymbolTableRecord
100
AcDbDimStyleTableRecord
  2
STANDARD
 70
     0
  3

  4

  5

  6

  7

 40
0.0
 41
2.5
 42
0.625
 43
3.75
 44
1.25
 45
0.0
 46
0.0
 47
0.0
 48
0.0
140
2.5
141
2.5
142
0.0
143
0.03937007874016
144
1.0
145
0.0
146
1.0
147
0.625
 71
     0
 72
     0
 73
     0
 74
     0
 75
     0
 76
     0
 77
     1
 78
     8
170
     0
171
     3
172
     1
173
     0
174
     0
175
     0
176
     0
177
     0
178
     0
270
     2
271
     2
272
     2
273
     2
274
     3
340
71
275
     0
280
     0
281
     0
282
     0
283
     0
284
     8
285
     0
286
     0
287
     3
288
     0
  0
ENDTAB
  0
TABLE
  2
BLOCK_RECORD
  5
A01
330
0
100
AcDbSymbolTable
  70
5
  0
BLOCK_RECORD
  5
A02
330
A01
100
AcDbSymbolTableRecord
100
AcDbBlockTableRecord
  2
*MODEL_SPACE
  0
BLOCK_RECORD
  5
A03
330
A01
100
AcDbSymbolTableRecord
100
AcDbBlockTableRecord
  2
*PAPER_SPACE
  0
ENDTAB
  0
ENDSEC
  0
SECTION
  2
BLOCKS
  0
BLOCK
  5
A04
330
A02
100
AcDbEntity
  8
0
100
AcDbBlockBegin
  2
*MODEL_SPACE
 70
   0
 10
0
 20
0
 30
0
  3
*MODEL_SPACE
  1
 
  0
ENDBLK
  5
A05
330
A02
100
AcDbEntity
  8
0
100
AcDbBlockEnd
  0
BLOCK
  5
A06
330
A03
100
AcDbEntity
 67
1
  8
0
100
AcDbBlockBegin
  2
*PAPER_SPACE
 70
   0
 10
0
 20
0
 30
0
  3
*PAPER_SPACE
  1
 
  0
ENDBLK
  5
A07
330
A03
100
AcDbEntity
 67
    1
  8
0
100
AcDbBlockEnd
  0
ENDSEC
  0
SECTION
  2
ENTITIES
  0
LINE
  5
A08
330
A02
100
AcDbEntity
  8
Shape2DView
100
AcDbLine
 10
0.000000000
 20
77.800000000
 30
0.000000000
 11
20.366650000
 21
77.800000000
 31
0.000000000
  0
LINE
  5
A09
330
A02
100
AcDbEntity
  8
Shape2DView
100
AcDbLine
 10
20.366650000
 20
77.800000000
 30
0.000000000
 11
20.366650000
 21
80.600000000
 31
0.000000000
  0
LINE
  5
A0A
330
A02
100
AcDbEntity
  8
Shape2DView
100
AcDbLine
 10
0.000000000
 20
57.456650000
 30
0.000000000
 11
0.000000000
 21
77.800000000
 31
0.000000000
  0
LINE
  5
A0B
330
A02
100
AcDbEntity
  8
Shape2DView
100
AcDbLine
 10
2.574660682
 20
57.456650000
 30
0.000000000
 11
0.000000000
 21
57.456650000
 31
0.000000000
  0
ARC
  5
A0C
330
A02
100
AcDbEntity
  8
Shape2DView
100
AcDbCircle
 10
20.366650000
 20
2.800000000
 30
0.000000000
 40
0.186666667
100
AcDbArc
 50
-90.000000000
 51
0.000000000
  0
ARC
  5
A0D
330
A02
100
AcDbEntity
  8
Shape2DView
100
AcDbCircle
 10
20.366650000
 20
2.800000000
 30
0.000000000
 40
0.186666667
100
AcDbArc
 50
0.000000000
 51
180.000000000
  0
LINE
  5
A0E
330
A02
100
AcDbEntity
  8
Shape2DView
100
AcDbLine
 10
20.179983333
 20
2.800000000
 30
0.000000000
 11
0.000000000
 21
2.800000000
 31
0.000000000
  0
LINE
  5
A0F
330
A02
100
AcDbEntity
  8
Shape2DView
100
AcDbLine
 10
0.000000000
 20
2.800000000
 30
0.000000000
 11
0.000000000
 21
23.143350000
 31
0.000000000
  0
LINE
  5
A10
330
A02
100
AcDbEntity
  8
Shape2DView
100
AcDbLine
 10
2.574660682
 20
23.143350000
 30
0.000000000
 11
0.000000000
 21
23.143350000
 31
0.000000000
  0
ARC
  5
A11
330
A02
100
AcDbEntity
  8
Shape2DView
100
AcDbCircle
 10
2.747095000
 20
23.242905000
 30
0.000000000
 40
0.199110000
100
AcDbArc
 50
-150.000000000
 51
60.000000000
  0
LINE
  5
A12
330
A02
100
AcDbEntity
  8
Shape2DView
100
AcDbLine
 10
2.846650000
 20
34.684660682
 30
0.000000000
 11
2.846650000
 21
23.415339318
 31
0.000000000
  0
ARC
  5
A13
330
A02
100
AcDbEntity
  8
Shape2DView
100
AcDbCircle
 10
2.747095000
 20
34.857095000
 30
0.000000000
 40
0.199110000
100
AcDbArc
 50
-60.000000000
 51
150.000000000
  0
LINE
  5
A14
330
A02
100
AcDbEntity
  8
Shape2DView
100
AcDbLine
 10
2.574660682
 20
34.956650000
 30
0.000000000
 11
0.000000000
 21
34.956650000
 31
0.000000000
  0
LINE
  5
A15
330
A02
100
AcDbEntity
  8
Shape2DView
100
AcDbLine
 10
0.000000000
 20
34.956650000
 30
0.000000000
 11
0.000000000
 21
45.643350000
 31
0.000000000
  0
LINE
  5
A16
330
A02
100
AcDbEntity
  8
Shape2DView
100
AcDbLine
 10
2.574660682
 20
45.643350000
 30
0.000000000
 11
0.000000000
 21
45.643350000
 31
0.000000000
  0
ARC
  5
A17
330
A02
100
AcDbEntity
  8
Shape2DView
100
AcDbCircle
 10
2.747095000
 20
45.742905000
 30
0.000000000
 40
0.199110000
100
AcDbArc
 50
-150.000000000
 51
60.000000000
  0
LINE
  5
A18
330
A02
100
AcDbEntity
  8
Shape2DView
100
AcDbLine
 10
2.846650000
 20
57.184660682
 30
0.000000000
 11
2.846650000
 21
45.915339318
 31
0.000000000
  0
ARC
  5
A19
330
A02
100
AcDbEntity
  8
Shape2DView
100
AcDbCircle
 10
2.747095000
 20
57.357095000
 30
0.000000000
 40
0.199110000
100
AcDbArc
 50
-60.000000000
 51
150.000000000
  0
LINE
  5
A1A
330
A02
100
AcDbEntity
  8
Shape2DView
100
AcDbLine
 10
32.553350000
 20
80.600000000
 30
0.000000000
 11
20.366650000
 21
80.600000000
 31
0.000000000
  0
LINE
  5
A1B
330
A02
100
AcDbEntity
  8
Shape2DView
100
AcDbLine
 10
32.553350000
 20
77.800000000
 30
0.000000000
 11
32.553350000
 21
80.600000000
 31
0.000000000
  0
LINE
  5
A1C
330
A02
100
AcDbEntity
  8
Shape2DView
100
AcDbLine
 10
32.553350000
 20
77.800000000
 30
0.000000000
 11
43.046650000
 21
77.800000000
 31
0.000000000
  0
LINE
  5
A1D
330
A02
100
AcDbEntity
  8
Shape2DView
100
AcDbLine
 10
43.046650000
 20
77.800000000
 30
0.000000000
 11
43.046650000
 21
80.600000000
 31
0.000000000
  0
LINE
  5
A1E
330
A02
100
AcDbEntity
  8
Shape2DView
100
AcDbLine
 10
55.233350000
 20
80.600000000
 30
0.000000000
 11
43.046650000
 21
80.600000000
 31
0.000000000
  0
LINE
  5
A1F
330
A02
100
AcDbEntity
  8
Shape2DView
100
AcDbLine
 10
55.233350000
 20
77.800000000
 30
0.000000000
 11
55.233350000
 21
80.600000000
 31
0.000000000
  0
LINE
  5
A20
330
A02
100
AcDbEntity
  8
Shape2DView
100
AcDbLine
 10
55.233350000
 20
77.800000000
 30
0.000000000
 11
75.600000000
 21
77.800000000
 31
0.000000000
  0
LINE
  5
A21
330
A02
100
AcDbEntity
  8
Shape2DView
100
AcDbLine
 10
75.600000000
 20
77.800000000
 30
0.000000000
 11
75.600000000
 21
57.456650000
 31
0.000000000
  0
LINE
  5
A22
330
A02
100
AcDbEntity
  8
Shape2DView
100
AcDbLine
 10
73.025339318
 20
57.456650000
 30
0.000000000
 11
75.600000000
 21
57.456650000
 31
0.000000000
  0
ARC
  5
A23
330
A02
100
AcDbEntity
  8
Shape2DView
100
AcDbCircle
 10
72.852905000
 20
57.357095000
 30
0.000000000
 40
0.199110000
100
AcDbArc
 50
30.000000000
 51
-120.000000000
  0
LINE
  5
A24
330
A02
100
AcDbEntity
  8
Shape2DView
100
AcDbLine
 10
72.753350000
 20
45.915339318
 30
0.000000000
 11
72.753350000
 21
57.184660682
 31
0.000000000
  0
ARC
  5
A25
330
A02
100
AcDbEntity
  8
Shape2DView
100
AcDbCircle
 10
72.852905000
 20
45.742905000
 30
0.000000000
 40
0.199110000
100
AcDbArc
 50
120.000000000
 51
-30.000000000
  0
LINE
  5
A26
330
A02
100
AcDbEntity
  8
Shape2DView
100
AcDbLine
 10
73.025339318
 20
45.643350000
 30
0.000000000
 11
75.600000000
 21
45.643350000
 31
0.000000000
  0
LINE
  5
A27
330
A02
100
AcDbEntity
  8
Shape2DView
100
AcDbLine
 10
75.600000000
 20
45.643350000
 30
0.000000000
 11
75.600000000
 21
34.956650000
 31
0.000000000
  0
LINE
  5
A28
330
A02
100
AcDbEntity
  8
Shape2DView
100
AcDbLine
 10
73.025339318
 20
34.956650000
 30
0.000000000
 11
75.600000000
 21
34.956650000
 31
0.000000000
  0
ARC
  5
A29
330
A02
100
AcDbEntity
  8
Shape2DView
100
AcDbCircle
 10
72.852905000
 20
34.857095000
 30
0.000000000
 40
0.199110000
100
AcDbArc
 50
30.000000000
 51
-120.000000000
  0
LINE
  5
A2A
330
A02
100
AcDbEntity
  8
Shape2DView
100
AcDbLine
 10
72.753350000
 20
23.415339318
 30
0.000000000
 11
72.753350000
 21
34.684660682
 31
0.000000000
  0
ARC
  5
A2B
330
A02
100
AcDbEntity
  8
Shape2DView
100
AcDbCircle
 10
72.852905000
 20
23.242905000
 30
0.000000000
 40
0.199110000
100
AcDbArc
 50
120.000000000
 51
-30.000000000
  0
LINE
  5
A2C
330
A02
100
AcDbEntity
  8
Shape2DView
100
AcDbLine
 10
73.025339318
 20
23.143350000
 30
0.000000000
 11
75.600000000
 21
23.143350000
 31
0.000000000
  0
LINE
  5
A2D
330
A02
100
AcDbEntity
  8
Shape2DView
100
AcDbLine
 10
75.600000000
 20
23.143350000
 30
0.000000000
 11
75.600000000
 21
2.800000000
 31
0.000000000
  0
LINE
  5
A2E
330
A02
100
AcDbEntity
  8
Shape2DView
100
AcDbLine
 10
75.600000000
 20
2.800000000
 30
0.000000000
 11
55.420016667
 21
2.800000000
 31
0.000000000
  0
ARC
  5
A2F
330
A02
100
AcDbEntity
  8
Shape2DView
100
AcDbCircle
 10
55.233350000
 20
2.800000000
 30
0.000000000
 40
0.186666667
100
AcDbArc
 50
-0.000000000
 51
-180.000000000
  0
ARC
  5
A30
330
A02
100
AcDbEntity
  8
Shape2DView
100
AcDbCircle
 10
55.233350000
 20
2.800000000
 30
0.000000000
 40
0.186666667
100
AcDbArc
 50
-180.000000000
 51
-90.000000000
  0
LINE
  5
A31
330
A02
100
AcDbEntity
  8
Shape2DView
100
AcDbLine
 10
55.233350000
 20
2.613333333
 30
0.000000000
 11
55.233350000
 21
0.000000000
 31
0.000000000
  0
LINE
  5
A32
330
A02
100
AcDbEntity
  8
Shape2DView
100
AcDbLine
 10
43.046650000
 20
0.000000000
 30
0.000000000
 11
55.233350000
 21
0.000000000
 31
0.000000000
  0
LINE
  5
A33
330
A02
100
AcDbEntity
  8
Shape2DView
100
AcDbLine
 10
43.046650000
 20
2.613333333
 30
0.000000000
 11
43.046650000
 21
0.000000000
 31
0.000000000
  0
ARC
  5
A34
330
A02
100
AcDbEntity
  8
Shape2DView
100
AcDbCircle
 10
43.046650000
 20
2.800000000
 30
0.000000000
 40
0.186666667
100
AcDbArc
 50
-90.000000000
 51
0.000000000
  0
ARC
  5
A35
330
A02
100
AcDbEntity
  8
Shape2DView
100
AcDbCircle
 10
43.046650000
 20
2.800000000
 30
0.000000000
 40
0.186666667
100
AcDbArc
 50
0.000000000
 51
180.000000000
  0
LINE
  5
A36
330
A02
100
AcDbEntity
  8
Shape2DView
100
AcDbLine
 10
42.859983333
 20
2.800000000
 30
0.000000000
 11
32.740016667
 21
2.800000000
 31
0.000000000
  0
ARC
  5
A37
330
A02
100
AcDbEntity
  8
Shape2DView
100
AcDbCircle
 10
32.553350000
 20
2.800000000
 30
0.000000000
 40
0.186666667
100
AcDbArc
 50
0.000000000
 51
180.000000000
  0
ARC
  5
A38
330
A02
100
AcDbEntity
  8
Shape2DView
100
AcDbCircle
 10
32.553350000
 20
2.800000000
 30
0.000000000
 40
0.186666667
100
AcDbArc
 50
180.000000000
 51
-90.000000000
  0
LINE
  5
A39
330
A02
100
AcDbEntity
  8
Shape2DView
100
AcDbLine
 10
32.553350000
 20
2.613333333
 30
0.000000000
 11
32.553350000
 21
-0.000000000
 31
0.000000000
  0
LINE
  5
A3A
330
A02
100
AcDbEntity
  8
Shape2DView
100
AcDbLine
 10
20.366650000
 20
-0.000000000
 30
0.000000000
 11
32.553350000
 21
-0.000000000
 31
0.000000000
  0
LINE
  5
A3B
330
A02
100
AcDbEntity
  8
Shape2DView
100
AcDbLine
 10
20.366650000
 20
2.613333333
 30
0.000000000
 11
20.366650000
 21
-0.000000000
 31
0.000000000
  0
ARC
  5
A3C
330
A02
100
AcDbEntity
  8
Shape2DView001
100
AcDbCircle
 10
150.625876031
 20
47.058688404
 30
0.000000000
 40
0.186666667
100
AcDbArc
 50
20.000000000
 51
-160.000000000
  0
ARC
  5
A3D
330
A02
100
AcDbEntity
  8
Shape2DView001
100
AcDbCircle
 10
150.625876031
 20
47.058688404
 30
0.000000000
 40
0.186666667
100
AcDbArc
 50
-160.000000000
 51
-70.000000000
  0
LINE
  5
A3E
330
A02
100
AcDbEntity
  8
Shape2DView001
100
AcDbLine
 10
150.801285320
 20
47.122532164
 30
0.000000000
 11
166.400000000
 21
52.800000000
 31
0.000000000
  0
LINE
  5
A3F
330
A02
100
AcDbEntity
  8
Shape2DView001
100
AcDbLine
 10
166.400000000
 20
52.800000000
 30
0.000000000
 11
166.400000000
 21
37.800000000
 31
0.000000000
  0
LINE
  5
A40
330
A02
100
AcDbEntity
  8
Shape2DView001
100
AcDbLine
 10
183.400000000
 20
37.800000000
 30
0.000000000
 11
183.400000000
 21
51.519983333
 31
0.000000000
  0
ARC
  5
A41
330
A02
100
AcDbEntity
  8
Shape2DView001
100
AcDbCircle
 10
183.400000000
 20
51.706650000
 30
0.000000000
 40
0.186666667
100
AcDbArc
 50
0.000000000
 51
90.000000000
  0
ARC
  5
A42
330
A02
100
AcDbEntity
  8
Shape2DView001
100
AcDbCircle
 10
183.400000000
 20
51.706650000
 30
0.000000000
 40
0.186666667
100
AcDbArc
 50
90.000000000
 51
-90.000000000
  0
LINE
  5
A43
330
A02
100
AcDbEntity
  8
Shape2DView001
100
AcDbLine
 10
166.400000000
 20
37.800000000
 30
0.000000000
 11
183.400000000
 21
37.800000000
 31
0.000000000
  0
LINE
  5
A44
330
A02
100
AcDbEntity
  8
Shape2DView001
100
AcDbLine
 10
183.586666667
 20
51.706650000
 30
0.000000000
 11
186.200000000
 21
51.706650000
 31
0.000000000
  0
LINE
  5
A45
330
A02
100
AcDbEntity
  8
Shape2DView001
100
AcDbLine
 10
186.200000000
 20
51.706650000
 30
0.000000000
 11
186.200000000
 21
63.893350000
 31
0.000000000
  0
ARC
  5
A46
330
A02
100
AcDbEntity
  8
Shape2DView001
100
AcDbCircle
 10
183.400000000
 20
63.893350000
 30
0.000000000
 40
0.186666667
100
AcDbArc
 50
90.000000000
 51
-90.000000000
  0
ARC
  5
A47
330
A02
100
AcDbEntity
  8
Shape2DView001
100
AcDbCircle
 10
183.400000000
 20
63.893350000
 30
0.000000000
 40
0.186666667
100
AcDbArc
 50
-90.000000000
 51
0.000000000
  0
LINE
  5
A48
330
A02
100
AcDbEntity
  8
Shape2DView001
100
AcDbLine
 10
183.400000000
 20
64.080016667
 30
0.000000000
 11
183.400000000
 21
77.800000000
 31
0.000000000
  0
LINE
  5
A49
330
A02
100
AcDbEntity
  8
Shape2DView001
100
AcDbLine
 10
183.400000000
 20
77.800000000
 30
0.000000000
 11
163.555016667
 21
77.800000000
 31
0.000000000
  0
ARC
  5
A4A
330
A02
100
AcDbEntity
  8
Shape2DView001
100
AcDbCircle
 10
163.368350000
 20
77.800000000
 30
0.000000000
 40
0.186666667
100
AcDbArc
 50
90.000000000
 51
180.000000000
  0
ARC
  5
A4B
330
A02
100
AcDbEntity
  8
Shape2DView001
100
AcDbCircle
 10
163.368350000
 20
77.800000000
 30
0.000000000
 40
0.186666667
100
AcDbArc
 50
180.000000000
 51
0.000000000
  0
LINE
  5
A4C
330
A02
100
AcDbEntity
  8
Shape2DView001
100
AcDbLine
 10
183.586666667
 20
63.893350000
 30
0.000000000
 11
186.200000000
 21
63.893350000
 31
0.000000000
  0
LINE
  5
A4D
330
A02
100
AcDbEntity
  8
Shape2DView001
100
AcDbLine
 10
163.368350000
 20
77.986666667
 30
0.000000000
 11
163.368350000
 21
80.600000000
 31
0.000000000
  0
LINE
  5
A4E
330
A02
100
AcDbEntity
  8
Shape2DView001
100
AcDbLine
 10
151.181650000
 20
80.600000000
 30
0.000000000
 11
163.368350000
 21
80.600000000
 31
0.000000000
  0
LINE
  5
A4F
330
A02
100
AcDbEntity
  8
Shape2DView001
100
AcDbLine
 10
151.181650000
 20
77.986666667
 30
0.000000000
 11
151.181650000
 21
80.600000000
 31
0.000000000
  0
ARC
  5
A50
330
A02
100
AcDbEntity
  8
Shape2DView001
100
AcDbCircle
 10
151.181650000
 20
77.800000000
 30
0.000000000
 40
0.186666667
100
AcDbArc
 50
180.000000000
 51
0.000000000
  0
ARC
  5
A51
330
A02
100
AcDbEntity
  8
Shape2DView001
100
AcDbCircle
 10
151.181650000
 20
77.800000000
 30
0.000000000
 40
0.186666667
100
AcDbArc
 50
0.000000000
 51
90.000000000
  0
LINE
  5
A52
330
A02
100
AcDbEntity
  8
Shape2DView001
100
AcDbLine
 10
150.994983333
 20
77.800000000
 30
0.000000000
 11
120.805016667
 21
77.800000000
 31
0.000000000
  0
ARC
  5
A53
330
A02
100
AcDbEntity
  8
Shape2DView001
100
AcDbCircle
 10
120.618350000
 20
77.800000000
 30
0.000000000
 40
0.186666667
100
AcDbArc
 50
90.000000000
 51
180.000000000
  0
ARC
  5
A54
330
A02
100
AcDbEntity
  8
Shape2DView001
100
AcDbCircle
 10
120.618350000
 20
77.800000000
 30
0.000000000
 40
0.186666667
100
AcDbArc
 50
180.000000000
 51
0.000000000
  0
LINE
  5
A55
330
A02
100
AcDbEntity
  8
Shape2DView001
100
AcDbLine
 10
120.618350000
 20
77.986666667
 30
0.000000000
 11
120.618350000
 21
80.600000000
 31
0.000000000
  0
LINE
  5
A56
330
A02
100
AcDbEntity
  8
Shape2DView001
100
AcDbLine
 10
108.431650000
 20
80.600000000
 30
0.000000000
 11
120.618350000
 21
80.600000000
 31
0.000000000
  0
LINE
  5
A57
330
A02
100
AcDbEntity
  8
Shape2DView001
100
AcDbLine
 10
108.431650000
 20
77.986666667
 30
0.000000000
 11
108.431650000
 21
80.600000000
 31
0.000000000
  0
ARC
  5
A58
330
A02
100
AcDbEntity
  8
Shape2DView001
100
AcDbCircle
 10
108.431650000
 20
77.800000000
 30
0.000000000
 40
0.186666667
100
AcDbArc
 50
180.000000000
 51
0.000000000
  0
ARC
  5
A59
330
A02
100
AcDbEntity
  8
Shape2DView001
100
AcDbCircle
 10
108.431650000
 20
77.800000000
 30
0.000000000
 40
0.186666667
100
AcDbArc
 50
0.000000000
 51
90.000000000
  0
LINE
  5
A5A
330
A02
100
AcDbEntity
  8
Shape2DView001
100
AcDbLine
 10
108.244983333
 20
77.800000000
 30
0.000000000
 11
88.400000000
 21
77.800000000
 31
0.000000000
  0
LINE
  5
A5B
330
A02
100
AcDbEntity
  8
Shape2DView001
100
AcDbLine
 10
88.400000000
 20
77.800000000
 30
0.000000000
 11
88.400000000
 21
57.830016667
 31
0.000000000
  0
ARC
  5
A5C
330
A02
100
AcDbEntity
  8
Shape2DView001
100
AcDbCircle
 10
88.400000000
 20
57.643350000
 30
0.000000000
 40
0.186666667
100
AcDbArc
 50
180.000000000
 51
-90.000000000
  0
ARC
  5
A5D
330
A02
100
AcDbEntity
  8
Shape2DView001
100
AcDbCircle
 10
88.400000000
 20
57.643350000
 30
0.000000000
 40
0.186666667
100
AcDbArc
 50
-90.000000000
 51
90.000000000
  0
LINE
  5
A5E
330
A02
100
AcDbEntity
  8
Shape2DView001
100
AcDbLine
 10
88.213333333
 20
57.643350000
 30
0.000000000
 11
85.600000000
 21
57.643350000
 31
0.000000000
  0
LINE
  5
A5F
330
A02
100
AcDbEntity
  8
Shape2DView001
100
AcDbLine
 10
85.600000000
 20
45.456650000
 30
0.000000000
 11
85.600000000
 21
57.643350000
 31
0.000000000
  0
LINE
  5
A60
330
A02
100
AcDbEntity
  8
Shape2DView001
100
AcDbLine
 10
88.213333333
 20
45.456650000
 30
0.000000000
 11
85.600000000
 21
45.456650000
 31
0.000000000
  0
ARC
  5
A61
330
A02
100
AcDbEntity
  8
Shape2DView001
100
AcDbCircle
 10
88.400000000
 20
45.456650000
 30
0.000000000
 40
0.186666667
100
AcDbArc
 50
-90.000000000
 51
90.000000000
  0
ARC
  5
A62
330
A02
100
AcDbEntity
  8
Shape2DView001
100
AcDbCircle
 10
88.400000000
 20
45.456650000
 30
0.000000000
 40
0.186666667
100
AcDbArc
 50
90.000000000
 51
180.000000000
  0
LINE
  5
A63
330
A02
100
AcDbEntity
  8
Shape2DView001
100
AcDbLine
 10
88.400000000
 20
45.269983333
 30
0.000000000
 11
88.400000000
 21
35.330016667
 31
0.000000000
  0
ARC
  5
A64
330
A02
100
AcDbEntity
  8
Shape2DView001
100
AcDbCircle
 10
88.400000000
 20
35.143350000
 30
0.000000000
 40
0.186666667
100
AcDbArc
 50
180.000000000
 51
-90.000000000
  0
ARC
  5
A65
330
A02
100
AcDbEntity
  8
Shape2DView001
100
AcDbCircle
 10
88.400000000
 20
35.143350000
 30
0.000000000
 40
0.186666667
100
AcDbArc
 50
-90.000000000
 51
90.000000000
  0
LINE
  5
A66
330
A02
100
AcDbEntity
  8
Shape2DView001
100
AcDbLine
 10
88.213333333
 20
35.143350000
 30
0.000000000
 11
85.600000000
 21
35.143350000
 31
0.000000000
  0
LINE
  5
A67
330
A02
100
AcDbEntity
  8
Shape2DView001
100
AcDbLine
 10
85.600000000
 20
22.956650000
 30
0.000000000
 11
85.600000000
 21
35.143350000
 31
0.000000000
  0
LINE
  5
A68
330
A02
100
AcDbEntity
  8
Shape2DView001
100
AcDbLine
 10
88.213333333
 20
22.956650000
 30
0.000000000
 11
85.600000000
 21
22.956650000
 31
0.000000000
  0
ARC
  5
A69
330
A02
100
AcDbEntity
  8
Shape2DView001
100
AcDbCircle
 10
88.400000000
 20
22.956650000
 30
0.000000000
 40
0.186666667
100
AcDbArc
 50
-90.000000000
 51
90.000000000
  0
ARC
  5
A6A
330
A02
100
AcDbEntity
  8
Shape2DView001
100
AcDbCircle
 10
88.400000000
 20
22.956650000
 30
0.000000000
 40
0.186666667
100
AcDbArc
 50
90.000000000
 51
180.000000000
  0
LINE
  5
A6B
330
A02
100
AcDbEntity
  8
Shape2DView001
100
AcDbLine
 10
88.400000000
 20
22.769983333
 30
0.000000000
 11
88.400000000
 21
2.800000000
 31
0.000000000
  0
LINE
  5
A6C
330
A02
100
AcDbEntity
  8
Shape2DView001
100
AcDbLine
 10
88.400000000
 20
2.800000000
 30
0.000000000
 11
99.619983333
 21
2.800000000
 31
0.000000000
  0
ARC
  5
A6D
330
A02
100
AcDbEntity
  8
Shape2DView001
100
AcDbCircle
 10
99.806650000
 20
2.800000000
 30
0.000000000
 40
0.186666667
100
AcDbArc
 50
-90.000000000
 51
-0.000000000
  0
ARC
  5
A6E
330
A02
100
AcDbEntity
  8
Shape2DView001
100
AcDbCircle
 10
99.806650000
 20
2.800000000
 30
0.000000000
 40
0.186666667
100
AcDbArc
 50
-0.000000000
 51
-180.000000000
  0
LINE
  5
A6F
330
A02
100
AcDbEntity
  8
Shape2DView001
100
AcDbLine
 10
99.806650000
 20
2.613333333
 30
0.000000000
 11
99.806650000
 21
-0.000000000
 31
0.000000000
  0
LINE
  5
A70
330
A02
100
AcDbEntity
  8
Shape2DView001
100
AcDbLine
 10
111.993350000
 20
-0.000000000
 30
0.000000000
 11
99.806650000
 21
-0.000000000
 31
0.000000000
  0
LINE
  5
A71
330
A02
100
AcDbEntity
  8
Shape2DView001
100
AcDbLine
 10
111.993350000
 20
2.613333333
 30
0.000000000
 11
111.993350000
 21
-0.000000000
 31
0.000000000
  0
ARC
  5
A72
330
A02
100
AcDbEntity
  8
Shape2DView001
100
AcDbCircle
 10
111.993350000
 20
2.800000000
 30
0.000000000
 40
0.186666667
100
AcDbArc
 50
-0.000000000
 51
-180.000000000
  0
ARC
  5
A73
330
A02
100
AcDbEntity
  8
Shape2DView001
100
AcDbCircle
 10
111.993350000
 20
2.800000000
 30
0.000000000
 40
0.186666667
100
AcDbArc
 50
-180.000000000
 51
-90.000000000
  0
LINE
  5
A74
330
A02
100
AcDbEntity
  8
Shape2DView001
100
AcDbLine
 10
112.180016667
 20
2.800000000
 30
0.000000000
 11
123.400000000
 21
2.800000000
 31
0.000000000
  0
LINE
  5
A75
330
A02
100
AcDbEntity
  8
Shape2DView001
100
AcDbLine
 10
123.400000000
 20
2.800000000
 30
0.000000000
 11
123.400000000
 21
13.694623297
 31
0.000000000
  0
ARC
  5
A76
330
A02
100
AcDbEntity
  8
Shape2DView001
100
AcDbCircle
 10
123.400000000
 20
13.881289963
 30
0.000000000
 40
0.186666667
100
AcDbArc
 50
0.000000000
 51
90.000000000
  0
ARC
  5
A77
330
A02
100
AcDbEntity
  8
Shape2DView001
100
AcDbCircle
 10
123.400000000
 20
13.881289963
 30
0.000000000
 40
0.186666667
100
AcDbArc
 50
90.000000000
 51
-90.000000000
  0
LINE
  5
A78
330
A02
100
AcDbEntity
  8
Shape2DView001
100
AcDbLine
 10
123.586666667
 20
13.881289963
 30
0.000000000
 11
126.200000000
 21
13.881289963
 31
0.000000000
  0
LINE
  5
A79
330
A02
100
AcDbEntity
  8
Shape2DView001
100
AcDbLine
 10
126.200000000
 20
26.067989963
 30
0.000000000
 11
126.200000000
 21
13.881289963
 31
0.000000000
  0
LINE
  5
A7A
330
A02
100
AcDbEntity
  8
Shape2DView001
100
AcDbLine
 10
123.586666667
 20
26.067989963
 30
0.000000000
 11
126.200000000
 21
26.067989963
 31
0.000000000
  0
ARC
  5
A7B
330
A02
100
AcDbEntity
  8
Shape2DView001
100
AcDbCircle
 10
123.400000000
 20
26.067989963
 30
0.000000000
 40
0.186666667
100
AcDbArc
 50
90.000000000
 51
-90.000000000
  0
ARC
  5
A7C
330
A02
100
AcDbEntity
  8
Shape2DView001
100
AcDbCircle
 10
123.400000000
 20
26.067989963
 30
0.000000000
 40
0.186666667
100
AcDbArc
 50
-90.000000000
 51
0.000000000
  0
LINE
  5
A7D
330
A02
100
AcDbEntity
  8
Shape2DView001
100
AcDbLine
 10
123.400000000
 20
26.254656630
 30
0.000000000
 11
123.400000000
 21
37.149279927
 31
0.000000000
  0
LINE
  5
A7E
330
A02
100
AcDbEntity
  8
Shape2DView001
100
AcDbLine
 10
123.400000000
 20
37.149279927
 30
0.000000000
 11
138.998714680
 21
42.826747763
 31
0.000000000
  0
ARC
  5
A7F
330
A02
100
AcDbEntity
  8
Shape2DView001
100
AcDbCircle
 10
139.174123969
 20
42.890591523
 30
0.000000000
 40
0.186666667
100
AcDbArc
 50
-70.000000000
 51
20.000000000
  0
ARC
  5
A80
330
A02
100
AcDbEntity
  8
Shape2DView001
100
AcDbCircle
 10
139.174123969
 20
42.890591523
 30
0.000000000
 40
0.186666667
100
AcDbArc
 50
20.000000000
 51
-160.000000000
  0
LINE
  5
A81
330
A02
100
AcDbEntity
  8
Shape2DView001
100
AcDbLine
 10
139.237967729
 20
42.715182234
 30
0.000000000
 11
140.131780370
 21
40.259452185
 31
0.000000000
  0
LINE
  5
A82
330
A02
100
AcDbEntity
  8
Shape2DView001
100
AcDbLine
 10
151.583532432
 20
44.427549065
 30
0.000000000
 11
140.131780370
 21
40.259452185
 31
0.000000000
  0
LINE
  5
A83
330
A02
100
AcDbEntity
  8
Shape2DView001
100
AcDbLine
 10
150.689719791
 20
46.883279114
 30
0.000000000
 11
151.583532432
 21
44.427549065
 31
0.000000000
  0
ARC
  5
A84
330
A02
100
AcDbEntity
  8
Shape2DView001
100
AcDbCircle
 10
117.737952661
 20
61.887665592
 30
0.000000000
 40
0.250000000
100
AcDbArc
 50
-160.000000000
 51
-100.000000000
  0
ARC
  5
A85
330
A02
100
AcDbEntity
  8
Shape2DView001
100
AcDbCircle
 10
117.651128573
 20
61.395261715
 30
0.000000000
 40
0.250000000
100
AcDbArc
 50
-130.000000000
 51
80.000000000
  0
ARC
  5
A86
330
A02
100
AcDbEntity
  8
Shape2DView001
100
AcDbCircle
 10
117.329734768
 20
61.012239494
 30
0.000000000
 40
0.250000000
100
AcDbArc
 50
50.000000000
 51
110.000000000
  0
LINE
  5
A87
330
A02
100
AcDbEntity
  8
Shape2DView001
100
AcDbLine
 10
100.495172331
 20
55.151004303
 30
0.000000000
 11
117.244229732
 21
61.247162649
 31
0.000000000
  0
ARC
  5
A88
330
A02
100
AcDbEntity
  8
Shape2DView001
100
AcDbCircle
 10
100.580677367
 20
54.916081148
 30
0.000000000
 40
0.250000000
100
AcDbArc
 50
110.000000000
 51
170.000000000
  0
ARC
  5
A89
330
A02
100
AcDbEntity
  8
Shape2DView001
100
AcDbCircle
 10
100.088273490
 20
55.002905236
 30
0.000000000
 40
0.250000000
100
AcDbArc
 50
139.999999995
 51
-10.000000000
  0
ARC
  5
A8A
330
A02
100
AcDbEntity
  8
Shape2DView001
100
AcDbCircle
 10
99.705251269
 20
55.324299041
 30
0.000000000
 40
0.250000000
100
AcDbArc
 50
-40.000000004
 51
20.000000000
  0
LINE
  5
A8B
330
A02
100
AcDbEntity
  8
Shape2DView001
100
AcDbLine
 10
99.278716155
 20
57.227145734
 30
0.000000000
 11
99.940174424
 21
55.409804077
 31
0.000000000
  0
ARC
  5
A8C
330
A02
100
AcDbEntity
  8
Shape2DView001
100
AcDbCircle
 10
99.043793000
 20
57.141640698
 30
0.000000000
 40
0.250000000
100
AcDbArc
 50
20.000000000
 51
80.000000004
  0
ARC
  5
A8D
330
A02
100
AcDbEntity
  8
Shape2DView001
100
AcDbCircle
 10
99.130617089
 20
57.634044575
 30
0.000000000
 40
0.250000000
100
AcDbArc
 50
50.000000000
 51
-99.999999995
  0
ARC
  5
A8E
330
A02
100
AcDbEntity
  8
Shape2DView001
100
AcDbCircle
 10
99.452010894
 20
58.017066796
 30
0.000000000
 40
0.250000000
100
AcDbArc
 50
-130.000000000
 51
-70.000000000
  0
LINE
  5
A8F
330
A02
100
AcDbEntity
  8
Shape2DView001
100
AcDbLine
 10
116.286573331
 20
63.878301987
 30
0.000000000
 11
99.537515929
 21
57.782143641
 31
0.000000000
  0
ARC
  5
A90
330
A02
100
AcDbEntity
  8
Shape2DView001
100
AcDbCircle
 10
116.201068295
 20
64.113225142
 30
0.000000000
 40
0.250000000
100
AcDbArc
 50
-70.000000000
 51
-10.000000000
  0
ARC
  5
A91
330
A02
100
AcDbEntity
  8
Shape2DView001
100
AcDbCircle
 10
116.693472171
 20
64.026401053
 30
0.000000000
 40
0.250000000
100
AcDbArc
 50
-40.000000000
 51
170.000000000
  0
ARC
  5
A92
330
A02
100
AcDbEntity
  8
Shape2DView001
100
AcDbCircle
 10
117.076494393
 20
63.705007248
 30
0.000000000
 40
0.250000000
100
AcDbArc
 50
140.000000000
 51
-160.000000000
  0
LINE
  5
A93
330
A02
100
AcDbEntity
  8
Shape2DView001
100
AcDbLine
 10
117.503029506
 20
61.802160556
 30
0.000000000
 11
116.841571238
 21
63.619502213
 31
0.000000000
  0
ARC
  5
A94
330
A02
100
AcDbEntity
  8
Shape2DView001
100
AcDbCircle
 10
144.697733952
 20
71.700223504
 30
0.000000000
 40
0.250000000
100
AcDbArc
 50
-160.000000000
 51
-100.000000000
  0
ARC
  5
A95
330
A02
100
AcDbEntity
  8
Shape2DView001
100
AcDbCircle
 10
144.610909863
 20
71.207819627
 30
0.000000000
 40
0.250000000
100
AcDbArc
 50
-130.000000000
 51
80.000000000
  0
ARC
  5
A96
330
A02
100
AcDbEntity
  8
Shape2DView001
100
AcDbCircle
 10
144.289516058
 20
70.824797406
 30
0.000000000
 40
0.250000000
100
AcDbArc
 50
50.000000000
 51
110.000000000
  0
LINE
  5
A97
330
A02
100
AcDbEntity
  8
Shape2DView001
100
AcDbLine
 10
127.454953621
 20
64.963562215
 30
0.000000000
 11
144.204011022
 21
71.059720561
 31
0.000000000
  0
ARC
  5
A98
330
A02
100
AcDbEntity
  8
Shape2DView001
100
AcDbCircle
 10
127.540458657
 20
64.728639060
 30
0.000000000
 40
0.250000000
100
AcDbArc
 50
110.000000000
 51
170.000000000
  0
ARC
  5
A99
330
A02
100
AcDbEntity
  8
Shape2DView001
100
AcDbCircle
 10
127.048054780
 20
64.815463148
 30
0.000000000
 40
0.250000000
100
AcDbArc
 50
140.000000000
 51
-10.000000000
  0
ARC
  5
A9A
330
A02
100
AcDbEntity
  8
Shape2DView001
100
AcDbCircle
 10
126.665032559
 20
65.136856953
 30
0.000000000
 40
0.250000000
100
AcDbArc
 50
-40.000000000
 51
20.000000000
  0
LINE
  5
A9B
330
A02
100
AcDbEntity
  8
Shape2DView001
100
AcDbLine
 10
126.238497446
 20
67.039703646
 30
0.000000000
 11
126.899955714
 21
65.222361989
 31
0.000000000
  0
ARC
  5
A9C
330
A02
100
AcDbEntity
  8
Shape2DView001
100
AcDbCircle
 10
126.003574290
 20
66.954198610
 30
0.000000000
 40
0.250000000
100
AcDbArc
 50
20.000000000
 51
80.000000000
  0
ARC
  5
A9D
330
A02
100
AcDbEntity
  8
Shape2DView001
100
AcDbCircle
 10
126.090398379
 20
67.446602487
 30
0.000000000
 40
0.250000000
100
AcDbArc
 50
50.000000000
 51
-100.000000000
  0
ARC
  5
A9E
330
A02
100
AcDbEntity
  8
Shape2DView001
100
AcDbCircle
 10
126.411792184
 20
67.829624708
 30
0.000000000
 40
0.250000000
100
AcDbArc
 50
-130.000000000
 51
-70.000000000
  0
LINE
  5
A9F
330
A02
100
AcDbEntity
  8
Shape2DView001
100
AcDbLine
 10
143.246354621
 20
73.690859899
 30
0.000000000
 11
126.497297220
 21
67.594701553
 31
0.000000000
  0
ARC
  5
AA0
330
A02
100
AcDbEntity
  8
Shape2DView001
100
AcDbCircle
 10
143.160849585
 20
73.925783054
 30
0.000000000
 40
0.250000000
100
AcDbArc
 50
-70.000000000
 51
-10.000000000
  0
ARC
  5
AA1
330
A02
100
AcDbEntity
  8
Shape2DView001
100
AcDbCircle
 10
143.653253462
 20
73.838958965
 30
0.000000000
 40
0.250000000
100
AcDbArc
 50
-40.000000000
 51
170.000000000
  0
ARC
  5
AA2
330
A02
100
AcDbEntity
  8
Shape2DView001
100
AcDbCircle
 10
144.036275683
 20
73.517565161
 30
0.000000000
 40
0.250000000
100
AcDbArc
 50
140.000000000
 51
-160.000000000
  0
LINE
  5
AA3
330
A02
100
AcDbEntity
  8
Shape2DView001
100
AcDbLine
 10
144.462810797
 20
71.614718468
 30
0.000000000
 11
143.801352528
 21
73.432060125
 31
0.000000000
  0
ARC
  5
AA4
330
A02
100
AcDbEntity
  8
Shape2DView001
100
AcDbCircle
 10
121.663195599
 20
43.998304562
 30
0.000000000
 40
4.500000000
100
AcDbArc
 50
-70.000000000
 51
110.000000000
  0
LINE
  5
AA5
330
A02
100
AcDbEntity
  8
Shape2DView001
100
AcDbLine
 10
123.202286244
 20
39.769687769
 30
0.000000000
 11
114.745052657
 21
36.691506479
 31
0.000000000
  0
ARC
  5
AA6
330
A02
100
AcDbEntity
  8
Shape2DView001
100
AcDbCircle
 10
113.205962012
 20
40.920123272
 30
0.000000000
 40
4.500000000
100
AcDbArc
 50
110.000000000
 51
-70.000000000
  0
LINE
  5
AA7
330
A02
100
AcDbEntity
  8
Shape2DView001
100
AcDbLine
 10
111.666871367
 20
45.148740066
 30
0.000000000
 11
120.124104954
 21
48.226921356
 31
0.000000000
  0
ARC
  5
AA8
330
A02
100
AcDbEntity
  8
Shape2DView001
100
AcDbCircle
 10
118.222141669
 20
54.101607111
 30
0.000000000
 40
3.000000000
100
AcDbArc
 50
-70.000000000
 51
110.000000000
  0
LINE
  5
AA9
330
A02
100
AcDbEntity
  8
Shape2DView001
100
AcDbLine
 10
119.248202099
 20
51.282529249
 30
0.000000000
 11
110.790968512
 21
48.204347959
 31
0.000000000
  0
ARC
  5
AAA
330
A02
100
AcDbEntity
  8
Shape2DView001
100
AcDbCircle
 10
109.764908082
 20
51.023425821
 30
0.000000000
 40
3.000000000
100
AcDbArc
 50
110.000000000
 51
-70.000000000
  0
LINE
  5
AAB
330
A02
100
AcDbEntity
  8
Shape2DView001
100
AcDbLine
 10
108.738847652
 20
53.842503684
 30
0.000000000
 11
117.196081239
 21
56.920684974
 31
0.000000000
  0
LINE
  5
AAC
330
A02
100
AcDbEntity
  8
Shape2DView001
100
AcDbLine
 10
118.150000000
 20
12.134791082
 30
0.000000000
 11
117.050000000
 21
12.134791082
 31
0.000000000
  0
ARC
  5
AAD
330
A02
100
AcDbEntity
  8
Shape2DView001
100
AcDbCircle
 10
116.800000000
 20
12.134791082
 30
0.000000000
 40
0.250000000
100
AcDbArc
 50
90.000000000
 51
0.000000000
  0
LINE
  5
AAE
330
A02
100
AcDbEntity
  8
Shape2DView001
100
AcDbLine
 10
116.800000000
 20
12.384791082
 30
0.000000000
 11
116.800000000
 21
24.584791082
 31
0.000000000
  0
ARC
  5
AAF
330
A02
100
AcDbEntity
  8
Shape2DView001
100
AcDbCircle
 10
116.800000000
 20
24.834791082
 30
0.000000000
 40
0.250000000
100
AcDbArc
 50
90.000000000
 51
-90.000000000
  0
ARC
  5
AB0
330
A02
100
AcDbEntity
  8
Shape2DView001
100
AcDbCircle
 10
116.800000000
 20
24.834791082
 30
0.000000000
 40
0.250000000
100
AcDbArc
 50
0.000000000
 51
90.000000000
  0
LINE
  5
AB1
330
A02
100
AcDbEntity
  8
Shape2DView001
100
AcDbLine
 10
117.050000000
 20
24.834791082
 30
0.000000000
 11
118.150000000
 21
24.834791082
 31
0.000000000
  0
ARC
  5
AB2
330
A02
100
AcDbEntity
  8
Shape2DView001
100
AcDbCircle
 10
118.400000000
 20
24.834791082
 30
0.000000000
 40
0.250000000
100
AcDbArc
 50
90.000000000
 51
180.000000000
  0
ARC
  5
AB3
330
A02
100
AcDbEntity
  8
Shape2DView001
100
AcDbCircle
 10
118.400000000
 20
24.834791082
 30
0.000000000
 40
0.250000000
100
AcDbArc
 50
-90.000000000
 51
90.000000000
  0
LINE
  5
AB4
330
A02
100
AcDbEntity
  8
Shape2DView001
100
AcDbLine
 10
118.400000000
 20
24.584791082
 30
0.000000000
 11
118.400000000
 21
12.384791082
 31
0.000000000
  0
ARC
  5
AB5
330
A02
100
AcDbEntity
  8
Shape2DView001
100
AcDbCircle
 10
118.400000000
 20
12.134791082
 30
0.000000000
 40
0.250000000
100
AcDbArc
 50
180.000000000
 51
90.000000000
  0
ARC
  5
AB6
330
A02
100
AcDbEntity
  8
Shape2DView002
100
AcDbCircle
 10
231.774123969
 20
47.058688404
 30
0.000000000
 40
0.186666667
100
AcDbArc
 50
-110.000000000
 51
-20.000000000
  0
ARC
  5
AB7
330
A02
100
AcDbEntity
  8
Shape2DView002
100
AcDbCircle
 10
231.774123969
 20
47.058688404
 30
0.000000000
 40
0.186666667
100
AcDbArc
 50
-20.000000000
 51
160.000000000
  0
LINE
  5
AB8
330
A02
100
AcDbEntity
  8
Shape2DView002
100
AcDbLine
 10
231.598714680
 20
47.122532164
 30
0.000000000
 11
216.000000000
 21
52.800000000
 31
0.000000000
  0
LINE
  5
AB9
330
A02
100
AcDbEntity
  8
Shape2DView002
100
AcDbLine
 10
216.000000000
 20
52.800000000
 30
0.000000000
 11
216.000000000
 21
37.800000000
 31
0.000000000
  0
LINE
  5
ABA
330
A02
100
AcDbEntity
  8
Shape2DView002
100
AcDbLine
 10
199.000000000
 20
37.800000000
 30
0.000000000
 11
199.000000000
 21
51.519983333
 31
0.000000000
  0
ARC
  5
ABB
330
A02
100
AcDbEntity
  8
Shape2DView002
100
AcDbCircle
 10
199.000000000
 20
51.706650000
 30
0.000000000
 40
0.186666667
100
AcDbArc
 50
-90.000000000
 51
90.000000000
  0
ARC
  5
ABC
330
A02
100
AcDbEntity
  8
Shape2DView002
100
AcDbCircle
 10
199.000000000
 20
51.706650000
 30
0.000000000
 40
0.186666667
100
AcDbArc
 50
90.000000000
 51
180.000000000
  0
LINE
  5
ABD
330
A02
100
AcDbEntity
  8
Shape2DView002
100
AcDbLine
 10
216.000000000
 20
37.800000000
 30
0.000000000
 11
199.000000000
 21
37.800000000
 31
0.000000000
  0
LINE
  5
ABE
330
A02
100
AcDbEntity
  8
Shape2DView002
100
AcDbLine
 10
198.813333333
 20
51.706650000
 30
0.000000000
 11
196.200000000
 21
51.706650000
 31
0.000000000
  0
LINE
  5
ABF
330
A02
100
AcDbEntity
  8
Shape2DView002
100
AcDbLine
 10
196.200000000
 20
63.893350000
 30
0.000000000
 11
196.200000000
 21
51.706650000
 31
0.000000000
  0
LINE
  5
AC0
330
A02
100
AcDbEntity
  8
Shape2DView002
100
AcDbLine
 10
198.813333333
 20
63.893350000
 30
0.000000000
 11
196.200000000
 21
63.893350000
 31
0.000000000
  0
ARC
  5
AC1
330
A02
100
AcDbEntity
  8
Shape2DView002
100
AcDbCircle
 10
199.000000000
 20
63.893350000
 30
0.000000000
 40
0.186666667
100
AcDbArc
 50
180.000000000
 51
-90.000000000
  0
ARC
  5
AC2
330
A02
100
AcDbEntity
  8
Shape2DView002
100
AcDbCircle
 10
199.000000000
 20
63.893350000
 30
0.000000000
 40
0.186666667
100
AcDbArc
 50
-90.000000000
 51
90.000000000
  0
LINE
  5
AC3
330
A02
100
AcDbEntity
  8
Shape2DView002
100
AcDbLine
 10
199.000000000
 20
64.080016667
 30
0.000000000
 11
199.000000000
 21
77.800000000
 31
0.000000000
  0
LINE
  5
AC4
330
A02
100
AcDbEntity
  8
Shape2DView002
100
AcDbLine
 10
199.000000000
 20
77.800000000
 30
0.000000000
 11
218.844983333
 21
77.800000000
 31
0.000000000
  0
ARC
  5
AC5
330
A02
100
AcDbEntity
  8
Shape2DView002
100
AcDbCircle
 10
219.031650000
 20
77.800000000
 30
0.000000000
 40
0.186666667
100
AcDbArc
 50
180.000000000
 51
0.000000000
  0
ARC
  5
AC6
330
A02
100
AcDbEntity
  8
Shape2DView002
100
AcDbCircle
 10
219.031650000
 20
77.800000000
 30
0.000000000
 40
0.186666667
100
AcDbArc
 50
0.000000000
 51
90.000000000
  0
LINE
  5
AC7
330
A02
100
AcDbEntity
  8
Shape2DView002
100
AcDbLine
 10
219.031650000
 20
77.986666667
 30
0.000000000
 11
219.031650000
 21
80.600000000
 31
0.000000000
  0
LINE
  5
AC8
330
A02
100
AcDbEntity
  8
Shape2DView002
100
AcDbLine
 10
219.031650000
 20
80.600000000
 30
0.000000000
 11
231.218350000
 21
80.600000000
 31
0.000000000
  0
ARC
  5
AC9
330
A02
100
AcDbEntity
  8
Shape2DView002
100
AcDbCircle
 10
231.218350000
 20
77.800000000
 30
0.000000000
 40
0.186666667
100
AcDbArc
 50
90.000000000
 51
180.000000000
  0
ARC
  5
ACA
330
A02
100
AcDbEntity
  8
Shape2DView002
100
AcDbCircle
 10
231.218350000
 20
77.800000000
 30
0.000000000
 40
0.186666667
100
AcDbArc
 50
180.000000000
 51
0.000000000
  0
LINE
  5
ACB
330
A02
100
AcDbEntity
  8
Shape2DView002
100
AcDbLine
 10
231.405016667
 20
77.800000000
 30
0.000000000
 11
261.594983333
 21
77.800000000
 31
0.000000000
  0
ARC
  5
ACC
330
A02
100
AcDbEntity
  8
Shape2DView002
100
AcDbCircle
 10
261.781650000
 20
77.800000000
 30
0.000000000
 40
0.186666667
100
AcDbArc
 50
180.000000000
 51
0.000000000
  0
ARC
  5
ACD
330
A02
100
AcDbEntity
  8
Shape2DView002
100
AcDbCircle
 10
261.781650000
 20
77.800000000
 30
0.000000000
 40
0.186666667
100
AcDbArc
 50
0.000000000
 51
90.000000000
  0
LINE
  5
ACE
330
A02
100
AcDbEntity
  8
Shape2DView002
100
AcDbLine
 10
231.218350000
 20
77.986666667
 30
0.000000000
 11
231.218350000
 21
80.600000000
 31
0.000000000
  0
LINE
  5
ACF
330
A02
100
AcDbEntity
  8
Shape2DView002
100
AcDbLine
 10
261.781650000
 20
77.986666667
 30
0.000000000
 11
261.781650000
 21
80.600000000
 31
0.000000000
  0
LINE
  5
AD0
330
A02
100
AcDbEntity
  8
Shape2DView002
100
AcDbLine
 10
261.781650000
 20
80.600000000
 30
0.000000000
 11
273.968350000
 21
80.600000000
 31
0.000000000
  0
ARC
  5
AD1
330
A02
100
AcDbEntity
  8
Shape2DView002
100
AcDbCircle
 10
273.968350000
 20
77.800000000
 30
0.000000000
 40
0.186666667
100
AcDbArc
 50
90.000000000
 51
180.000000000
  0
ARC
  5
AD2
330
A02
100
AcDbEntity
  8
Shape2DView002
100
AcDbCircle
 10
273.968350000
 20
77.800000000
 30
0.000000000
 40
0.186666667
100
AcDbArc
 50
180.000000000
 51
0.000000000
  0
LINE
  5
AD3
330
A02
100
AcDbEntity
  8
Shape2DView002
100
AcDbLine
 10
274.155016667
 20
77.800000000
 30
0.000000000
 11
294.000000000
 21
77.800000000
 31
0.000000000
  0
LINE
  5
AD4
330
A02
100
AcDbEntity
  8
Shape2DView002
100
AcDbLine
 10
294.000000000
 20
77.800000000
 30
0.000000000
 11
294.000000000
 21
57.830016667
 31
0.000000000
  0
ARC
  5
AD5
330
A02
100
AcDbEntity
  8
Shape2DView002
100
AcDbCircle
 10
294.000000000
 20
57.643350000
 30
0.000000000
 40
0.186666667
100
AcDbArc
 50
90.000000000
 51
-90.000000000
  0
ARC
  5
AD6
330
A02
100
AcDbEntity
  8
Shape2DView002
100
AcDbCircle
 10
294.000000000
 20
57.643350000
 30
0.000000000
 40
0.186666667
100
AcDbArc
 50
-90.000000000
 51
0.000000000
  0
LINE
  5
AD7
330
A02
100
AcDbEntity
  8
Shape2DView002
100
AcDbLine
 10
273.968350000
 20
77.986666667
 30
0.000000000
 11
273.968350000
 21
80.600000000
 31
0.000000000
  0
LINE
  5
AD8
330
A02
100
AcDbEntity
  8
Shape2DView002
100
AcDbLine
 10
294.186666667
 20
57.643350000
 30
0.000000000
 11
296.800000000
 21
57.643350000
 31
0.000000000
  0
LINE
  5
AD9
330
A02
100
AcDbEntity
  8
Shape2DView002
100
AcDbLine
 10
296.800000000
 20
57.643350000
 30
0.000000000
 11
296.800000000
 21
45.456650000
 31
0.000000000
  0
ARC
  5
ADA
330
A02
100
AcDbEntity
  8
Shape2DView002
100
AcDbCircle
 10
294.000000000
 20
45.456650000
 30
0.000000000
 40
0.186666667
100
AcDbArc
 50
0.000000000
 51
90.000000000
  0
ARC
  5
ADB
330
A02
100
AcDbEntity
  8
Shape2DView002
100
AcDbCircle
 10
294.000000000
 20
45.456650000
 30
0.000000000
 40
0.186666667
100
AcDbArc
 50
90.000000000
 51
-90.000000000
  0
LINE
  5
ADC
330
A02
100
AcDbEntity
  8
Shape2DView002
100
AcDbLine
 10
294.000000000
 20
45.269983333
 30
0.000000000
 11
294.000000000
 21
35.330016667
 31
0.000000000
  0
ARC
  5
ADD
330
A02
100
AcDbEntity
  8
Shape2DView002
100
AcDbCircle
 10
294.000000000
 20
35.143350000
 30
0.000000000
 40
0.186666667
100
AcDbArc
 50
90.000000000
 51
-90.000000000
  0
ARC
  5
ADE
330
A02
100
AcDbEntity
  8
Shape2DView002
100
AcDbCircle
 10
294.000000000
 20
35.143350000
 30
0.000000000
 40
0.186666667
100
AcDbArc
 50
-90.000000000
 51
0.000000000
  0
LINE
  5
ADF
330
A02
100
AcDbEntity
  8
Shape2DView002
100
AcDbLine
 10
294.186666667
 20
45.456650000
 30
0.000000000
 11
296.800000000
 21
45.456650000
 31
0.000000000
  0
LINE
  5
AE0
330
A02
100
AcDbEntity
  8
Shape2DView002
100
AcDbLine
 10
294.186666667
 20
35.143350000
 30
0.000000000
 11
296.800000000
 21
35.143350000
 31
0.000000000
  0
LINE
  5
AE1
330
A02
100
AcDbEntity
  8
Shape2DView002
100
AcDbLine
 10
296.800000000
 20
35.143350000
 30
0.000000000
 11
296.800000000
 21
22.956650000
 31
0.000000000
  0
ARC
  5
AE2
330
A02
100
AcDbEntity
  8
Shape2DView002
100
AcDbCircle
 10
294.000000000
 20
22.956650000
 30
0.000000000
 40
0.186666667
100
AcDbArc
 50
0.000000000
 51
90.000000000
  0
ARC
  5
AE3
330
A02
100
AcDbEntity
  8
Shape2DView002
100
AcDbCircle
 10
294.000000000
 20
22.956650000
 30
0.000000000
 40
0.186666667
100
AcDbArc
 50
90.000000000
 51
-90.000000000
  0
LINE
  5
AE4
330
A02
100
AcDbEntity
  8
Shape2DView002
100
AcDbLine
 10
294.000000000
 20
22.769983333
 30
0.000000000
 11
294.000000000
 21
2.800000000
 31
0.000000000
  0
LINE
  5
AE5
330
A02
100
AcDbEntity
  8
Shape2DView002
100
AcDbLine
 10
294.000000000
 20
2.800000000
 30
0.000000000
 11
282.780016667
 21
2.800000000
 31
0.000000000
  0
ARC
  5
AE6
330
A02
100
AcDbEntity
  8
Shape2DView002
100
AcDbCircle
 10
282.593350000
 20
2.800000000
 30
0.000000000
 40
0.186666667
100
AcDbArc
 50
0.000000000
 51
180.000000000
  0
ARC
  5
AE7
330
A02
100
AcDbEntity
  8
Shape2DView002
100
AcDbCircle
 10
282.593350000
 20
2.800000000
 30
0.000000000
 40
0.186666667
100
AcDbArc
 50
180.000000000
 51
-90.000000000
  0
LINE
  5
AE8
330
A02
100
AcDbEntity
  8
Shape2DView002
100
AcDbLine
 10
294.186666667
 20
22.956650000
 30
0.000000000
 11
296.800000000
 21
22.956650000
 31
0.000000000
  0
LINE
  5
AE9
330
A02
100
AcDbEntity
  8
Shape2DView002
100
AcDbLine
 10
282.593350000
 20
2.613333333
 30
0.000000000
 11
282.593350000
 21
-0.000000000
 31
0.000000000
  0
LINE
  5
AEA
330
A02
100
AcDbEntity
  8
Shape2DView002
100
AcDbLine
 10
282.593350000
 20
-0.000000000
 30
0.000000000
 11
270.406650000
 21
-0.000000000
 31
0.000000000
  0
ARC
  5
AEB
330
A02
100
AcDbEntity
  8
Shape2DView002
100
AcDbCircle
 10
270.406650000
 20
2.800000000
 30
0.000000000
 40
0.186666667
100
AcDbArc
 50
-90.000000000
 51
0.000000000
  0
ARC
  5
AEC
330
A02
100
AcDbEntity
  8
Shape2DView002
100
AcDbCircle
 10
270.406650000
 20
2.800000000
 30
0.000000000
 40
0.186666667
100
AcDbArc
 50
0.000000000
 51
180.000000000
  0
LINE
  5
AED
330
A02
100
AcDbEntity
  8
Shape2DView002
100
AcDbLine
 10
270.219983333
 20
2.800000000
 30
0.000000000
 11
259.000000000
 21
2.800000000
 31
0.000000000
  0
LINE
  5
AEE
330
A02
100
AcDbEntity
  8
Shape2DView002
100
AcDbLine
 10
259.000000000
 20
2.800000000
 30
0.000000000
 11
259.000000000
 21
13.694623297
 31
0.000000000
  0
ARC
  5
AEF
330
A02
100
AcDbEntity
  8
Shape2DView002
100
AcDbCircle
 10
259.000000000
 20
13.881289963
 30
0.000000000
 40
0.186666667
100
AcDbArc
 50
-90.000000000
 51
90.000000000
  0
ARC
  5
AF0
330
A02
100
AcDbEntity
  8
Shape2DView002
100
AcDbCircle
 10
259.000000000
 20
13.881289963
 30
0.000000000
 40
0.186666667
100
AcDbArc
 50
90.000000000
 51
180.000000000
  0
LINE
  5
AF1
330
A02
100
AcDbEntity
  8
Shape2DView002
100
AcDbLine
 10
270.406650000
 20
2.613333333
 30
0.000000000
 11
270.406650000
 21
-0.000000000
 31
0.000000000
  0
LINE
  5
AF2
330
A02
100
AcDbEntity
  8
Shape2DView002
100
AcDbLine
 10
258.813333333
 20
13.881289963
 30
0.000000000
 11
256.200000000
 21
13.881289963
 31
0.000000000
  0
LINE
  5
AF3
330
A02
100
AcDbEntity
  8
Shape2DView002
100
AcDbLine
 10
256.200000000
 20
13.881289963
 30
0.000000000
 11
256.200000000
 21
26.067989963
 31
0.000000000
  0
ARC
  5
AF4
330
A02
100
AcDbEntity
  8
Shape2DView002
100
AcDbCircle
 10
259.000000000
 20
26.067989963
 30
0.000000000
 40
0.186666667
100
AcDbArc
 50
180.000000000
 51
-90.000000000
  0
ARC
  5
AF5
330
A02
100
AcDbEntity
  8
Shape2DView002
100
AcDbCircle
 10
259.000000000
 20
26.067989963
 30
0.000000000
 40
0.186666667
100
AcDbArc
 50
-90.000000000
 51
90.000000000
  0
LINE
  5
AF6
330
A02
100
AcDbEntity
  8
Shape2DView002
100
AcDbLine
 10
259.000000000
 20
26.254656630
 30
0.000000000
 11
259.000000000
 21
37.149279927
 31
0.000000000
  0
LINE
  5
AF7
330
A02
100
AcDbEntity
  8
Shape2DView002
100
AcDbLine
 10
259.000000000
 20
37.149279927
 30
0.000000000
 11
243.401285320
 21
42.826747763
 31
0.000000000
  0
ARC
  5
AF8
330
A02
100
AcDbEntity
  8
Shape2DView002
100
AcDbCircle
 10
243.225876031
 20
42.890591523
 30
0.000000000
 40
0.186666667
100
AcDbArc
 50
-20.000000000
 51
160.000000000
  0
ARC
  5
AF9
330
A02
100
AcDbEntity
  8
Shape2DView002
100
AcDbCircle
 10
243.225876031
 20
42.890591523
 30
0.000000000
 40
0.186666667
100
AcDbArc
 50
160.000000000
 51
-110.000000000
  0
LINE
  5
AFA
330
A02
100
AcDbEntity
  8
Shape2DView002
100
AcDbLine
 10
258.813333333
 20
26.067989963
 30
0.000000000
 11
256.200000000
 21
26.067989963
 31
0.000000000
  0
LINE
  5
AFB
330
A02
100
AcDbEntity
  8
Shape2DView002
100
AcDbLine
 10
243.162032271
 20
42.715182234
 30
0.000000000
 11
242.268219630
 21
40.259452185
 31
0.000000000
  0
LINE
  5
AFC
330
A02
100
AcDbEntity
  8
Shape2DView002
100
AcDbLine
 10
231.710280209
 20
46.883279114
 30
0.000000000
 11
230.816467568
 21
44.427549065
 31
0.000000000
  0
LINE
  5
AFD
330
A02
100
AcDbEntity
  8
Shape2DView002
100
AcDbLine
 10
242.268219630
 20
40.259452185
 30
0.000000000
 11
230.816467568
 21
44.427549065
 31
0.000000000
  0
LINE
  5
AFE
330
A02
100
AcDbEntity
  8
Shape2DView002
100
AcDbLine
 10
265.770440912
 20
63.471049707
 30
0.000000000
 11
265.154804654
 21
61.779602990
 31
0.000000000
  0
ARC
  5
AFF
330
A02
100
AcDbEntity
  8
Shape2DView002
100
AcDbCircle
 10
265.535517757
 20
63.556554743
 30
0.000000000
 40
0.250000000
100
AcDbArc
 50
-20.000000000
 51
70.000000000
  0
ARC
  5
B00
330
A02
100
AcDbEntity
  8
Shape2DView002
100
AcDbCircle
 10
265.706527829
 20
64.026401053
 30
0.000000000
 40
0.250000000
100
AcDbArc
 50
10.000000000
 51
-110.000000000
  0
ARC
  5
B01
330
A02
100
AcDbEntity
  8
Shape2DView002
100
AcDbCircle
 10
266.198931705
 20
64.113225142
 30
0.000000000
 40
0.250000000
100
AcDbArc
 50
-170.000000000
 51
-110.000000000
  0
LINE
  5
B02
330
A02
100
AcDbEntity
  8
Shape2DView002
100
AcDbLine
 10
282.862484071
 20
57.782143641
 30
0.000000000
 11
266.113426669
 21
63.878301987
 31
0.000000000
  0
ARC
  5
B03
330
A02
100
AcDbEntity
  8
Shape2DView002
100
AcDbCircle
 10
282.947989106
 20
58.017066796
 30
0.000000000
 40
0.250000000
100
AcDbArc
 50
-110.000000000
 51
-50.000000000
  0
ARC
  5
B04
330
A02
100
AcDbEntity
  8
Shape2DView002
100
AcDbCircle
 10
283.269382911
 20
57.634044575
 30
0.000000000
 40
0.250000000
100
AcDbArc
 50
-80.000000000
 51
130.000000000
  0
ARC
  5
B05
330
A02
100
AcDbEntity
  8
Shape2DView002
100
AcDbCircle
 10
283.356207000
 20
57.141640698
 30
0.000000000
 40
0.250000000
100
AcDbArc
 50
100.000000000
 51
160.000000000
  0
LINE
  5
B06
330
A02
100
AcDbEntity
  8
Shape2DView002
100
AcDbLine
 10
282.459825576
 20
55.409804077
 30
0.000000000
 11
283.121283845
 21
57.227145734
 31
0.000000000
  0
ARC
  5
B07
330
A02
100
AcDbEntity
  8
Shape2DView002
100
AcDbCircle
 10
282.694748731
 20
55.324299041
 30
0.000000000
 40
0.250000000
100
AcDbArc
 50
160.000000000
 51
-140.000000000
  0
ARC
  5
B08
330
A02
100
AcDbEntity
  8
Shape2DView002
100
AcDbCircle
 10
282.311726510
 20
55.002905236
 30
0.000000000
 40
0.250000000
100
AcDbArc
 50
-170.000000000
 51
40.000000000
  0
ARC
  5
B09
330
A02
100
AcDbEntity
  8
Shape2DView002
100
AcDbCircle
 10
281.819322633
 20
54.916081148
 30
0.000000000
 40
0.250000000
100
AcDbArc
 50
10.000000000
 51
70.000000000
  0
LINE
  5
B0A
330
A02
100
AcDbEntity
  8
Shape2DView002
100
AcDbLine
 10
265.155770268
 20
61.247162649
 30
0.000000000
 11
281.904827669
 21
55.151004303
 31
0.000000000
  0
ARC
  5
B0B
330
A02
100
AcDbEntity
  8
Shape2DView002
100
AcDbCircle
 10
265.070265232
 20
61.012239494
 30
0.000000000
 40
0.250000000
100
AcDbArc
 50
70.000000000
 51
130.000000000
  0
ARC
  5
B0C
330
A02
100
AcDbEntity
  8
Shape2DView002
100
AcDbCircle
 10
264.748871427
 20
61.395261715
 30
0.000000000
 40
0.250000000
100
AcDbArc
 50
70.000000000
 51
-50.000000000
  0
ARC
  5
B0D
330
A02
100
AcDbEntity
  8
Shape2DView002
100
AcDbCircle
 10
264.919881499
 20
61.865108026
 30
0.000000000
 40
0.250000000
100
AcDbArc
 50
-110.000000000
 51
-20.000000000
  0
ARC
  5
B0E
330
A02
100
AcDbEntity
  8
Shape2DView002
100
AcDbCircle
 10
256.309601621
 20
67.446602487
 30
0.000000000
 40
0.250000000
100
AcDbArc
 50
-20.000000000
 51
130.000000000
  0
LINE
  5
B0F
330
A02
100
AcDbEntity
  8
Shape2DView002
100
AcDbLine
 10
256.544524776
 20
67.361097451
 30
0.000000000
 11
256.544523274
 21
67.361093323
 31
0.000000000
  0
ARC
  5
B10
330
A02
100
AcDbEntity
  8
Shape2DView002
100
AcDbCircle
 10
256.779444927
 20
67.275584160
 30
0.000000000
 40
0.250000000
100
AcDbArc
 50
159.998993322
 51
160.000000000
  0
LINE
  5
B11
330
A02
100
AcDbEntity
  8
Shape2DView002
100
AcDbLine
 10
256.544521771
 20
67.361089196
 30
0.000000000
 11
255.586871379
 21
64.729966368
 31
0.000000000
  0
ARC
  5
B12
330
A02
100
AcDbEntity
  8
Shape2DView002
100
AcDbCircle
 10
255.821794535
 20
64.644461332
 30
0.000000000
 40
0.250000000
100
AcDbArc
 50
160.000000000
 51
160.001006667
  0
LINE
  5
B13
330
A02
100
AcDbEntity
  8
Shape2DView002
100
AcDbLine
 10
255.586869877
 20
64.729962240
 30
0.000000000
 11
255.586868375
 21
64.729958113
 31
0.000000000
  0
ARC
  5
B14
330
A02
100
AcDbEntity
  8
Shape2DView002
100
AcDbCircle
 10
255.351945220
 20
64.815463148
 30
0.000000000
 40
0.250000000
100
AcDbArc
 50
-170.000000000
 51
-20.000000000
  0
ARC
  5
B15
330
A02
100
AcDbEntity
  8
Shape2DView002
100
AcDbCircle
 10
254.859541343
 20
64.728639060
 30
0.000000000
 40
0.250000000
100
AcDbArc
 50
10.000000000
 51
70.000000000
  0
LINE
  5
B16
330
A02
100
AcDbEntity
  8
Shape2DView002
100
AcDbLine
 10
254.945046379
 20
64.963562215
 30
0.000000000
 11
238.195988978
 21
71.059720561
 31
0.000000000
  0
ARC
  5
B17
330
A02
100
AcDbEntity
  8
Shape2DView002
100
AcDbCircle
 10
238.110483942
 20
70.824797406
 30
0.000000000
 40
0.250000000
100
AcDbArc
 50
70.000000000
 51
130.000000000
  0
ARC
  5
B18
330
A02
100
AcDbEntity
  8
Shape2DView002
100
AcDbCircle
 10
237.789090137
 20
71.207819627
 30
0.000000000
 40
0.250000000
100
AcDbArc
 50
100.000000000
 51
-50.000000000
  0
ARC
  5
B19
330
A02
100
AcDbEntity
  8
Shape2DView002
100
AcDbCircle
 10
237.702266048
 20
71.700223504
 30
0.000000000
 40
0.250000000
100
AcDbArc
 50
-80.000000000
 51
-20.000000000
  0
LINE
  5
B1A
330
A02
100
AcDbEntity
  8
Shape2DView002
100
AcDbLine
 10
237.937189203
 20
71.614718468
 30
0.000000000
 11
238.598647472
 21
73.432060125
 31
0.000000000
  0
ARC
  5
B1B
330
A02
100
AcDbEntity
  8
Shape2DView002
100
AcDbCircle
 10
238.363724317
 20
73.517565161
 30
0.000000000
 40
0.250000000
100
AcDbArc
 50
-20.000000000
 51
40.000000000
  0
ARC
  5
B1C
330
A02
100
AcDbEntity
  8
Shape2DView002
100
AcDbCircle
 10
238.746746538
 20
73.838958965
 30
0.000000000
 40
0.250000000
100
AcDbArc
 50
10.000000000
 51
-140.000000000
  0
ARC
  5
B1D
330
A02
100
AcDbEntity
  8
Shape2DView002
100
AcDbCircle
 10
239.239150415
 20
73.925783054
 30
0.000000000
 40
0.250000000
100
AcDbArc
 50
-170.000000000
 51
-110.000000000
  0
LINE
  5
B1E
330
A02
100
AcDbEntity
  8
Shape2DView002
100
AcDbLine
 10
239.153645379
 20
73.690859899
 30
0.000000000
 11
255.902702780
 21
67.594701553
 31
0.000000000
  0
ARC
  5
B1F
330
A02
100
AcDbEntity
  8
Shape2DView002
100
AcDbCircle
 10
255.988207816
 20
67.829624708
 30
0.000000000
 40
0.250000000
100
AcDbArc
 50
-110.000000000
 51
-50.000000000
  0
LINE
  5
B20
330
A02
100
AcDbEntity
  8
Shape2DView002
100
AcDbLine
 10
265.350000000
 20
24.834791082
 30
0.000000000
 11
264.250000000
 21
24.834791082
 31
0.000000000
  0
ARC
  5
B21
330
A02
100
AcDbEntity
  8
Shape2DView002
100
AcDbCircle
 10
265.600000000
 20
24.834791082
 30
0.000000000
 40
0.250000000
100
AcDbArc
 50
-90.000000000
 51
180.000000000
  0
LINE
  5
B22
330
A02
100
AcDbEntity
  8
Shape2DView002
100
AcDbLine
 10
265.600000000
 20
12.384791082
 30
0.000000000
 11
265.600000000
 21
24.584791082
 31
0.000000000
  0
ARC
  5
B23
330
A02
100
AcDbEntity
  8
Shape2DView002
100
AcDbCircle
 10
265.600000000
 20
12.134791082
 30
0.000000000
 40
0.250000000
100
AcDbArc
 50
-90.000000000
 51
90.000000000
  0
ARC
  5
B24
330
A02
100
AcDbEntity
  8
Shape2DView002
100
AcDbCircle
 10
265.600000000
 20
12.134791082
 30
0.000000000
 40
0.250000000
100
AcDbArc
 50
180.000000000
 51
-90.000000000
  0
LINE
  5
B25
330
A02
100
AcDbEntity
  8
Shape2DView002
100
AcDbLine
 10
264.250000000
 20
12.134791082
 30
0.000000000
 11
265.350000000
 21
12.134791082
 31
0.000000000
  0
ARC
  5
B26
330
A02
100
AcDbEntity
  8
Shape2DView002
100
AcDbCircle
 10
264.000000000
 20
12.134791082
 30
0.000000000
 40
0.250000000
100
AcDbArc
 50
-90.000000000
 51
0.000000000
  0
ARC
  5
B27
330
A02
100
AcDbEntity
  8
Shape2DView002
100
AcDbCircle
 10
264.000000000
 20
12.134791082
 30
0.000000000
 40
0.250000000
100
AcDbArc
 50
90.000000000
 51
-90.000000000
  0
LINE
  5
B28
330
A02
100
AcDbEntity
  8
Shape2DView002
100
AcDbLine
 10
264.000000000
 20
24.584791082
 30
0.000000000
 11
264.000000000
 21
12.384791082
 31
0.000000000
  0
ARC
  5
B29
330
A02
100
AcDbEntity
  8
Shape2DView002
100
AcDbCircle
 10
264.000000000
 20
24.834791082
 30
0.000000000
 40
0.250000000
100
AcDbArc
 50
0.000000000
 51
-90.000000000
  0
LINE
  5
B2A
330
A02
100
AcDbEntity
  8
Shape2DView003
100
AcDbLine
 10
-0.000000000
 20
107.493350000
 30
0.000000000
 11
2.574660682
 21
107.493350000
 31
0.000000000
  0
LINE
  5
B2B
330
A02
100
AcDbEntity
  8
Shape2DView003
100
AcDbLine
 10
0.000000000
 20
93.400000000
 30
0.000000000
 11
0.000000000
 21
107.493350000
 31
0.000000000
  0
LINE
  5
B2C
330
A02
100
AcDbEntity
  8
Shape2DView003
100
AcDbLine
 10
20.179983333
 20
93.400000000
 30
0.000000000
 11
0.000000000
 21
93.400000000
 31
0.000000000
  0
ARC
  5
B2D
330
A02
100
AcDbEntity
  8
Shape2DView003
100
AcDbCircle
 10
20.366650000
 20
93.400000000
 30
0.000000000
 40
0.186666667
100
AcDbArc
 50
-90.000000000
 51
0.000000000
  0
ARC
  5
B2E
330
A02
100
AcDbEntity
  8
Shape2DView003
100
AcDbCircle
 10
20.366650000
 20
93.400000000
 30
0.000000000
 40
0.186666667
100
AcDbArc
 50
0.000000000
 51
180.000000000
  0
LINE
  5
B2F
330
A02
100
AcDbEntity
  8
Shape2DView003
100
AcDbLine
 10
20.366650000
 20
93.213333333
 30
0.000000000
 11
20.366650000
 21
90.600000000
 31
0.000000000
  0
LINE
  5
B30
330
A02
100
AcDbEntity
  8
Shape2DView003
100
AcDbLine
 10
20.366650000
 20
90.600000000
 30
0.000000000
 11
32.553350000
 21
90.600000000
 31
0.000000000
  0
ARC
  5
B31
330
A02
100
AcDbEntity
  8
Shape2DView003
100
AcDbCircle
 10
32.553350000
 20
93.400000000
 30
0.000000000
 40
0.186666667
100
AcDbArc
 50
0.000000000
 51
180.000000000
  0
ARC
  5
B32
330
A02
100
AcDbEntity
  8
Shape2DView003
100
AcDbCircle
 10
32.553350000
 20
93.400000000
 30
0.000000000
 40
0.186666667
100
AcDbArc
 50
180.000000000
 51
-90.000000000
  0
LINE
  5
B33
330
A02
100
AcDbEntity
  8
Shape2DView003
100
AcDbLine
 10
42.859983333
 20
93.400000000
 30
0.000000000
 11
32.740016667
 21
93.400000000
 31
0.000000000
  0
ARC
  5
B34
330
A02
100
AcDbEntity
  8
Shape2DView003
100
AcDbCircle
 10
43.046650000
 20
93.400000000
 30
0.000000000
 40
0.186666667
100
AcDbArc
 50
-90.000000000
 51
0.000000000
  0
ARC
  5
B35
330
A02
100
AcDbEntity
  8
Shape2DView003
100
AcDbCircle
 10
43.046650000
 20
93.400000000
 30
0.000000000
 40
0.186666667
100
AcDbArc
 50
0.000000000
 51
180.000000000
  0
LINE
  5
B36
330
A02
100
AcDbEntity
  8
Shape2DView003
100
AcDbLine
 10
32.553350000
 20
93.213333333
 30
0.000000000
 11
32.553350000
 21
90.600000000
 31
0.000000000
  0
LINE
  5
B37
330
A02
100
AcDbEntity
  8
Shape2DView003
100
AcDbLine
 10
43.046650000
 20
93.213333333
 30
0.000000000
 11
43.046650000
 21
90.600000000
 31
0.000000000
  0
LINE
  5
B38
330
A02
100
AcDbEntity
  8
Shape2DView003
100
AcDbLine
 10
43.046650000
 20
90.600000000
 30
0.000000000
 11
55.233350000
 21
90.600000000
 31
0.000000000
  0
LINE
  5
B39
330
A02
100
AcDbEntity
  8
Shape2DView003
100
AcDbLine
 10
75.600000000
 20
93.400000000
 30
0.000000000
 11
55.420016667
 21
93.400000000
 31
0.000000000
  0
ARC
  5
B3A
330
A02
100
AcDbEntity
  8
Shape2DView003
100
AcDbCircle
 10
55.233350000
 20
93.400000000
 30
0.000000000
 40
0.186666667
100
AcDbArc
 50
0.000000000
 51
180.000000000
  0
ARC
  5
B3B
330
A02
100
AcDbEntity
  8
Shape2DView003
100
AcDbCircle
 10
55.233350000
 20
93.400000000
 30
0.000000000
 40
0.186666667
100
AcDbArc
 50
180.000000000
 51
-90.000000000
  0
LINE
  5
B3C
330
A02
100
AcDbEntity
  8
Shape2DView003
100
AcDbLine
 10
75.600000000
 20
107.493350000
 30
0.000000000
 11
75.600000000
 21
93.400000000
 31
0.000000000
  0
LINE
  5
B3D
330
A02
100
AcDbEntity
  8
Shape2DView003
100
AcDbLine
 10
75.600000000
 20
107.493350000
 30
0.000000000
 11
73.025339318
 21
107.493350000
 31
0.000000000
  0
LINE
  5
B3E
330
A02
100
AcDbEntity
  8
Shape2DView003
100
AcDbLine
 10
55.233350000
 20
93.213333333
 30
0.000000000
 11
55.233350000
 21
90.600000000
 31
0.000000000
  0
ARC
  5
B3F
330
A02
100
AcDbEntity
  8
Shape2DView003
100
AcDbCircle
 10
72.852905000
 20
107.592905000
 30
0.000000000
 40
0.199110000
100
AcDbArc
 50
180.000000000
 51
-30.000000000
  0
ARC
  5
B40
330
A02
100
AcDbEntity
  8
Shape2DView003
100
AcDbCircle
 10
72.852905000
 20
107.592905000
 30
0.000000000
 40
0.199110000
100
AcDbArc
 50
120.000000000
 51
180.000000000
  0
LINE
  5
B41
330
A02
100
AcDbEntity
  8
Shape2DView003
100
AcDbLine
 10
72.753350000
 20
119.034660682
 30
0.000000000
 11
72.753350000
 21
107.765339318
 31
0.000000000
  0
ARC
  5
B42
330
A02
100
AcDbEntity
  8
Shape2DView003
100
AcDbCircle
 10
72.852905000
 20
119.207095000
 30
0.000000000
 40
0.199110000
100
AcDbArc
 50
180.000000000
 51
-120.000000000
  0
ARC
  5
B43
330
A02
100
AcDbEntity
  8
Shape2DView003
100
AcDbCircle
 10
72.852905000
 20
119.207095000
 30
0.000000000
 40
0.199110000
100
AcDbArc
 50
30.000000000
 51
180.000000000
  0
LINE
  5
B44
330
A02
100
AcDbEntity
  8
Shape2DView003
100
AcDbLine
 10
75.600000000
 20
119.306650000
 30
0.000000000
 11
73.025339318
 21
119.306650000
 31
0.000000000
  0
LINE
  5
B45
330
A02
100
AcDbEntity
  8
Shape2DView003
100
AcDbLine
 10
75.600000000
 20
133.400000000
 30
0.000000000
 11
75.600000000
 21
119.306650000
 31
0.000000000
  0
LINE
  5
B46
330
A02
100
AcDbEntity
  8
Shape2DView003
100
AcDbLine
 10
0.000000000
 20
133.400000000
 30
0.000000000
 11
75.600000000
 21
133.400000000
 31
0.000000000
  0
LINE
  5
B47
330
A02
100
AcDbEntity
  8
Shape2DView003
100
AcDbLine
 10
0.000000000
 20
119.306650000
 30
0.000000000
 11
0.000000000
 21
133.400000000
 31
0.000000000
  0
LINE
  5
B48
330
A02
100
AcDbEntity
  8
Shape2DView003
100
AcDbLine
 10
-0.000000000
 20
119.306650000
 30
0.000000000
 11
2.574660682
 21
119.306650000
 31
0.000000000
  0
ARC
  5
B49
330
A02
100
AcDbEntity
  8
Shape2DView003
100
AcDbCircle
 10
2.747095000
 20
119.207095000
 30
0.000000000
 40
0.199110000
100
AcDbArc
 50
0.000000000
 51
150.000000000
  0
ARC
  5
B4A
330
A02
100
AcDbEntity
  8
Shape2DView003
100
AcDbCircle
 10
2.747095000
 20
119.207095000
 30
0.000000000
 40
0.199110000
100
AcDbArc
 50
-60.000000000
 51
0.000000000
  0
LINE
  5
B4B
330
A02
100
AcDbEntity
  8
Shape2DView003
100
AcDbLine
 10
2.846650000
 20
107.765339318
 30
0.000000000
 11
2.846650000
 21
119.034660682
 31
0.000000000
  0
ARC
  5
B4C
330
A02
100
AcDbEntity
  8
Shape2DView003
100
AcDbCircle
 10
2.747095000
 20
107.592905000
 30
0.000000000
 40
0.199110000
100
AcDbArc
 50
0.000000000
 51
60.000000000
  0
ARC
  5
B4D
330
A02
100
AcDbEntity
  8
Shape2DView003
100
AcDbCircle
 10
2.747095000
 20
107.592905000
 30
0.000000000
 40
0.199110000
100
AcDbArc
 50
-150.000000000
 51
0.000000000
  0
LINE
  5
B4E
330
A02
100
AcDbEntity
  8
Shape2DView004
100
AcDbLine
 10
161.200000000
 20
93.400000000
 30
0.000000000
 11
141.020016667
 21
93.400000000
 31
0.000000000
  0
ARC
  5
B4F
330
A02
100
AcDbEntity
  8
Shape2DView004
100
AcDbCircle
 10
140.833350000
 20
93.400000000
 30
0.000000000
 40
0.186666667
100
AcDbArc
 50
0.000000000
 51
180.000000000
  0
ARC
  5
B50
330
A02
100
AcDbEntity
  8
Shape2DView004
100
AcDbCircle
 10
140.833350000
 20
93.400000000
 30
0.000000000
 40
0.186666667
100
AcDbArc
 50
180.000000000
 51
-90.000000000
  0
LINE
  5
B51
330
A02
100
AcDbEntity
  8
Shape2DView004
100
AcDbLine
 10
161.200000000
 20
104.667989963
 30
0.000000000
 11
161.200000000
 21
93.400000000
 31
0.000000000
  0
LINE
  5
B52
330
A02
100
AcDbEntity
  8
Shape2DView004
100
AcDbLine
 10
158.625339318
 20
104.667989963
 30
0.000000000
 11
161.200000000
 21
104.667989963
 31
0.000000000
  0
ARC
  5
B53
330
A02
100
AcDbEntity
  8
Shape2DView004
100
AcDbCircle
 10
158.452905000
 20
104.767544963
 30
0.000000000
 40
0.199110000
100
AcDbArc
 50
120.000000000
 51
-30.000000000
  0
LINE
  5
B54
330
A02
100
AcDbEntity
  8
Shape2DView004
100
AcDbLine
 10
158.353350000
 20
104.939979281
 30
0.000000000
 11
158.353350000
 21
116.209300645
 31
0.000000000
  0
ARC
  5
B55
330
A02
100
AcDbEntity
  8
Shape2DView004
100
AcDbCircle
 10
158.452905000
 20
116.381734963
 30
0.000000000
 40
0.199110000
100
AcDbArc
 50
30.000000000
 51
-120.000000000
  0
LINE
  5
B56
330
A02
100
AcDbEntity
  8
Shape2DView004
100
AcDbLine
 10
158.625339318
 20
116.481289963
 30
0.000000000
 11
161.200000000
 21
116.481289963
 31
0.000000000
  0
LINE
  5
B57
330
A02
100
AcDbEntity
  8
Shape2DView004
100
AcDbLine
 10
161.200000000
 20
124.769582164
 30
0.000000000
 11
161.200000000
 21
116.481289963
 31
0.000000000
  0
LINE
  5
B58
330
A02
100
AcDbEntity
  8
Shape2DView004
100
AcDbLine
 10
141.020016667
 20
124.769582164
 30
0.000000000
 11
161.200000000
 21
124.769582164
 31
0.000000000
  0
ARC
  5
B59
330
A02
100
AcDbEntity
  8
Shape2DView004
100
AcDbCircle
 10
140.833350000
 20
124.769582164
 30
0.000000000
 40
0.186666667
100
AcDbArc
 50
90.000000000
 51
180.000000000
  0
ARC
  5
B5A
330
A02
100
AcDbEntity
  8
Shape2DView004
100
AcDbCircle
 10
140.833350000
 20
124.769582164
 30
0.000000000
 40
0.186666667
100
AcDbArc
 50
180.000000000
 51
0.000000000
  0
LINE
  5
B5B
330
A02
100
AcDbEntity
  8
Shape2DView004
100
AcDbLine
 10
140.833350000
 20
93.213333333
 30
0.000000000
 11
140.833350000
 21
90.600000000
 31
0.000000000
  0
LINE
  5
B5C
330
A02
100
AcDbEntity
  8
Shape2DView004
100
AcDbLine
 10
140.833350000
 20
124.956248830
 30
0.000000000
 11
140.833350000
 21
127.569582164
 31
0.000000000
  0
LINE
  5
B5D
330
A02
100
AcDbEntity
  8
Shape2DView004
100
AcDbLine
 10
128.646650000
 20
127.569582164
 30
0.000000000
 11
140.833350000
 21
127.569582164
 31
0.000000000
  0
LINE
  5
B5E
330
A02
100
AcDbEntity
  8
Shape2DView004
100
AcDbLine
 10
128.646650000
 20
124.956248830
 30
0.000000000
 11
128.646650000
 21
127.569582164
 31
0.000000000
  0
ARC
  5
B5F
330
A02
100
AcDbEntity
  8
Shape2DView004
100
AcDbCircle
 10
128.646650000
 20
124.769582164
 30
0.000000000
 40
0.186666667
100
AcDbArc
 50
180.000000000
 51
0.000000000
  0
ARC
  5
B60
330
A02
100
AcDbEntity
  8
Shape2DView004
100
AcDbCircle
 10
128.646650000
 20
124.769582164
 30
0.000000000
 40
0.186666667
100
AcDbArc
 50
0.000000000
 51
90.000000000
  0
LINE
  5
B61
330
A02
100
AcDbEntity
  8
Shape2DView004
100
AcDbLine
 10
118.340016667
 20
124.769582164
 30
0.000000000
 11
128.459983333
 21
124.769582164
 31
0.000000000
  0
ARC
  5
B62
330
A02
100
AcDbEntity
  8
Shape2DView004
100
AcDbCircle
 10
118.153350000
 20
124.769582164
 30
0.000000000
 40
0.186666667
100
AcDbArc
 50
90.000000000
 51
180.000000000
  0
ARC
  5
B63
330
A02
100
AcDbEntity
  8
Shape2DView004
100
AcDbCircle
 10
118.153350000
 20
124.769582164
 30
0.000000000
 40
0.186666667
100
AcDbArc
 50
180.000000000
 51
0.000000000
  0
LINE
  5
B64
330
A02
100
AcDbEntity
  8
Shape2DView004
100
AcDbLine
 10
118.153350000
 20
124.956248830
 30
0.000000000
 11
118.153350000
 21
127.569582164
 31
0.000000000
  0
LINE
  5
B65
330
A02
100
AcDbEntity
  8
Shape2DView004
100
AcDbLine
 10
105.966650000
 20
127.569582164
 30
0.000000000
 11
118.153350000
 21
127.569582164
 31
0.000000000
  0
LINE
  5
B66
330
A02
100
AcDbEntity
  8
Shape2DView004
100
AcDbLine
 10
105.966650000
 20
124.956248830
 30
0.000000000
 11
105.966650000
 21
127.569582164
 31
0.000000000
  0
ARC
  5
B67
330
A02
100
AcDbEntity
  8
Shape2DView004
100
AcDbCircle
 10
105.966650000
 20
124.769582164
 30
0.000000000
 40
0.186666667
100
AcDbArc
 50
180.000000000
 51
0.000000000
  0
ARC
  5
B68
330
A02
100
AcDbEntity
  8
Shape2DView004
100
AcDbCircle
 10
105.966650000
 20
124.769582164
 30
0.000000000
 40
0.186666667
100
AcDbArc
 50
0.000000000
 51
90.000000000
  0
LINE
  5
B69
330
A02
100
AcDbEntity
  8
Shape2DView004
100
AcDbLine
 10
85.600000000
 20
124.769582164
 30
0.000000000
 11
105.779983333
 21
124.769582164
 31
0.000000000
  0
LINE
  5
B6A
330
A02
100
AcDbEntity
  8
Shape2DView004
100
AcDbLine
 10
85.600000000
 20
116.481289963
 30
0.000000000
 11
85.600000000
 21
124.769582164
 31
0.000000000
  0
LINE
  5
B6B
330
A02
100
AcDbEntity
  8
Shape2DView004
100
AcDbLine
 10
88.174660682
 20
116.481289963
 30
0.000000000
 11
85.600000000
 21
116.481289963
 31
0.000000000
  0
ARC
  5
B6C
330
A02
100
AcDbEntity
  8
Shape2DView004
100
AcDbCircle
 10
88.347095000
 20
116.381734963
 30
0.000000000
 40
0.199110000
100
AcDbArc
 50
-60.000000000
 51
150.000000000
  0
LINE
  5
B6D
330
A02
100
AcDbEntity
  8
Shape2DView004
100
AcDbLine
 10
88.446650000
 20
116.209300645
 30
0.000000000
 11
88.446650000
 21
104.939979281
 31
0.000000000
  0
ARC
  5
B6E
330
A02
100
AcDbEntity
  8
Shape2DView004
100
AcDbCircle
 10
88.347095000
 20
104.767544963
 30
0.000000000
 40
0.199110000
100
AcDbArc
 50
-150.000000000
 51
60.000000000
  0
LINE
  5
B6F
330
A02
100
AcDbEntity
  8
Shape2DView004
100
AcDbLine
 10
88.174660682
 20
104.667989963
 30
0.000000000
 11
85.600000000
 21
104.667989963
 31
0.000000000
  0
LINE
  5
B70
330
A02
100
AcDbEntity
  8
Shape2DView004
100
AcDbLine
 10
85.600000000
 20
93.400000000
 30
0.000000000
 11
85.600000000
 21
104.667989963
 31
0.000000000
  0
LINE
  5
B71
330
A02
100
AcDbEntity
  8
Shape2DView004
100
AcDbLine
 10
105.779983333
 20
93.400000000
 30
0.000000000
 11
85.600000000
 21
93.400000000
 31
0.000000000
  0
ARC
  5
B72
330
A02
100
AcDbEntity
  8
Shape2DView004
100
AcDbCircle
 10
105.966650000
 20
93.400000000
 30
0.000000000
 40
0.186666667
100
AcDbArc
 50
-90.000000000
 51
0.000000000
  0
ARC
  5
B73
330
A02
100
AcDbEntity
  8
Shape2DView004
100
AcDbCircle
 10
105.966650000
 20
93.400000000
 30
0.000000000
 40
0.186666667
100
AcDbArc
 50
0.000000000
 51
180.000000000
  0
LINE
  5
B74
330
A02
100
AcDbEntity
  8
Shape2DView004
100
AcDbLine
 10
105.966650000
 20
93.213333333
 30
0.000000000
 11
105.966650000
 21
90.600000000
 31
0.000000000
  0
LINE
  5
B75
330
A02
100
AcDbEntity
  8
Shape2DView004
100
AcDbLine
 10
105.966650000
 20
90.600000000
 30
0.000000000
 11
118.153350000
 21
90.600000000
 31
0.000000000
  0
ARC
  5
B76
330
A02
100
AcDbEntity
  8
Shape2DView004
100
AcDbCircle
 10
118.153350000
 20
93.400000000
 30
0.000000000
 40
0.186666667
100
AcDbArc
 50
0.000000000
 51
180.000000000
  0
ARC
  5
B77
330
A02
100
AcDbEntity
  8
Shape2DView004
100
AcDbCircle
 10
118.153350000
 20
93.400000000
 30
0.000000000
 40
0.186666667
100
AcDbArc
 50
180.000000000
 51
-90.000000000
  0
LINE
  5
B78
330
A02
100
AcDbEntity
  8
Shape2DView004
100
AcDbLine
 10
128.459983333
 20
93.400000000
 30
0.000000000
 11
118.340016667
 21
93.400000000
 31
0.000000000
  0
ARC
  5
B79
330
A02
100
AcDbEntity
  8
Shape2DView004
100
AcDbCircle
 10
128.646650000
 20
93.400000000
 30
0.000000000
 40
0.186666667
100
AcDbArc
 50
-90.000000000
 51
0.000000000
  0
ARC
  5
B7A
330
A02
100
AcDbEntity
  8
Shape2DView004
100
AcDbCircle
 10
128.646650000
 20
93.400000000
 30
0.000000000
 40
0.186666667
100
AcDbArc
 50
0.000000000
 51
180.000000000
  0
LINE
  5
B7B
330
A02
100
AcDbEntity
  8
Shape2DView004
100
AcDbLine
 10
118.153350000
 20
93.213333333
 30
0.000000000
 11
118.153350000
 21
90.600000000
 31
0.000000000
  0
LINE
  5
B7C
330
A02
100
AcDbEntity
  8
Shape2DView004
100
AcDbLine
 10
128.646650000
 20
93.213333333
 30
0.000000000
 11
128.646650000
 21
90.600000000
 31
0.000000000
  0
LINE
  5
B7D
330
A02
100
AcDbEntity
  8
Shape2DView004
100
AcDbLine
 10
128.646650000
 20
90.600000000
 30
0.000000000
 11
140.833350000
 21
90.600000000
 31
0.000000000
  0
CIRCLE
  5
B7E
330
A02
100
AcDbEntity
  8
Shape2DView004
100
AcDbCircle
 10
148.800000000
 20
109.084791082
 30
0.000000000
 40
2.500000000
  0
CIRCLE
  5
B7F
330
A02
100
AcDbEntity
  8
Shape2DView004
100
AcDbCircle
 10
123.400000000
 20
101.464791082
 30
0.000000000
 40
2.500000000
  0
CIRCLE
  5
B80
330
A02
100
AcDbEntity
  8
Shape2DView004
100
AcDbCircle
 10
98.000000000
 20
109.084791082
 30
0.000000000
 40
2.500000000
  0
CIRCLE
  5
B81
330
A02
100
AcDbEntity
  8
Shape2DView004
100
AcDbCircle
 10
123.400000000
 20
109.084791082
 30
0.000000000
 40
2.500000000
  0
CIRCLE
  5
B82
330
A02
100
AcDbEntity
  8
Shape2DView004
100
AcDbCircle
 10
123.400000000
 20
116.704791082
 30
0.000000000
 40
2.500000000
  0
CIRCLE
  5
B83
330
A02
100
AcDbEntity
  8
Shape2DView004
100
AcDbCircle
 10
131.020000000
 20
109.084791082
 30
0.000000000
 40
2.500000000
  0
CIRCLE
  5
B84
330
A02
100
AcDbEntity
  8
Shape2DView004
100
AcDbCircle
 10
115.780000000
 20
109.084791082
 30
0.000000000
 40
2.500000000
  0
LINE
  5
B85
330
A02
100
AcDbEntity
  8
Shape2DView005
100
AcDbLine
 10
246.800000000
 20
93.400000000
 30
0.000000000
 11
226.620016667
 21
93.400000000
 31
0.000000000
  0
ARC
  5
B86
330
A02
100
AcDbEntity
  8
Shape2DView005
100
AcDbCircle
 10
226.433350000
 20
93.400000000
 30
0.000000000
 40
0.186666667
100
AcDbArc
 50
0.000000000
 51
180.000000000
  0
ARC
  5
B87
330
A02
100
AcDbEntity
  8
Shape2DView005
100
AcDbCircle
 10
226.433350000
 20
93.400000000
 30
0.000000000
 40
0.186666667
100
AcDbArc
 50
180.000000000
 51
-90.000000000
  0
LINE
  5
B88
330
A02
100
AcDbEntity
  8
Shape2DView005
100
AcDbLine
 10
246.800000000
 20
104.401185581
 30
0.000000000
 11
246.800000000
 21
93.400000000
 31
0.000000000
  0
LINE
  5
B89
330
A02
100
AcDbEntity
  8
Shape2DView005
100
AcDbLine
 10
226.620016667
 20
104.401185581
 30
0.000000000
 11
246.800000000
 21
104.401185581
 31
0.000000000
  0
ARC
  5
B8A
330
A02
100
AcDbEntity
  8
Shape2DView005
100
AcDbCircle
 10
226.433350000
 20
104.401185581
 30
0.000000000
 40
0.186666667
100
AcDbArc
 50
90.000000000
 51
180.000000000
  0
ARC
  5
B8B
330
A02
100
AcDbEntity
  8
Shape2DView005
100
AcDbCircle
 10
226.433350000
 20
104.401185581
 30
0.000000000
 40
0.186666667
100
AcDbArc
 50
180.000000000
 51
0.000000000
  0
LINE
  5
B8C
330
A02
100
AcDbEntity
  8
Shape2DView005
100
AcDbLine
 10
226.433350000
 20
93.213333333
 30
0.000000000
 11
226.433350000
 21
90.600000000
 31
0.000000000
  0
LINE
  5
B8D
330
A02
100
AcDbEntity
  8
Shape2DView005
100
AcDbLine
 10
226.433350000
 20
104.587852248
 30
0.000000000
 11
226.433350000
 21
107.201185581
 31
0.000000000
  0
LINE
  5
B8E
330
A02
100
AcDbEntity
  8
Shape2DView005
100
AcDbLine
 10
214.246650000
 20
107.201185581
 30
0.000000000
 11
226.433350000
 21
107.201185581
 31
0.000000000
  0
LINE
  5
B8F
330
A02
100
AcDbEntity
  8
Shape2DView005
100
AcDbLine
 10
214.246650000
 20
104.587852248
 30
0.000000000
 11
214.246650000
 21
107.201185581
 31
0.000000000
  0
ARC
  5
B90
330
A02
100
AcDbEntity
  8
Shape2DView005
100
AcDbCircle
 10
214.246650000
 20
104.401185581
 30
0.000000000
 40
0.186666667
100
AcDbArc
 50
180.000000000
 51
0.000000000
  0
ARC
  5
B91
330
A02
100
AcDbEntity
  8
Shape2DView005
100
AcDbCircle
 10
214.246650000
 20
104.401185581
 30
0.000000000
 40
0.186666667
100
AcDbArc
 50
0.000000000
 51
90.000000000
  0
LINE
  5
B92
330
A02
100
AcDbEntity
  8
Shape2DView005
100
AcDbLine
 10
203.940016667
 20
104.401185581
 30
0.000000000
 11
214.059983333
 21
104.401185581
 31
0.000000000
  0
ARC
  5
B93
330
A02
100
AcDbEntity
  8
Shape2DView005
100
AcDbCircle
 10
203.753350000
 20
104.401185581
 30
0.000000000
 40
0.186666667
100
AcDbArc
 50
90.000000000
 51
180.000000000
  0
ARC
  5
B94
330
A02
100
AcDbEntity
  8
Shape2DView005
100
AcDbCircle
 10
203.753350000
 20
104.401185581
 30
0.000000000
 40
0.186666667
100
AcDbArc
 50
180.000000000
 51
0.000000000
  0
LINE
  5
B95
330
A02
100
AcDbEntity
  8
Shape2DView005
100
AcDbLine
 10
203.753350000
 20
104.587852248
 30
0.000000000
 11
203.753350000
 21
107.201185581
 31
0.000000000
  0
LINE
  5
B96
330
A02
100
AcDbEntity
  8
Shape2DView005
100
AcDbLine
 10
191.566650000
 20
107.201185581
 30
0.000000000
 11
203.753350000
 21
107.201185581
 31
0.000000000
  0
LINE
  5
B97
330
A02
100
AcDbEntity
  8
Shape2DView005
100
AcDbLine
 10
191.566650000
 20
104.587852248
 30
0.000000000
 11
191.566650000
 21
107.201185581
 31
0.000000000
  0
ARC
  5
B98
330
A02
100
AcDbEntity
  8
Shape2DView005
100
AcDbCircle
 10
191.566650000
 20
104.401185581
 30
0.000000000
 40
0.186666667
100
AcDbArc
 50
180.000000000
 51
0.000000000
  0
ARC
  5
B99
330
A02
100
AcDbEntity
  8
Shape2DView005
100
AcDbCircle
 10
191.566650000
 20
104.401185581
 30
0.000000000
 40
0.186666667
100
AcDbArc
 50
0.000000000
 51
90.000000000
  0
LINE
  5
B9A
330
A02
100
AcDbEntity
  8
Shape2DView005
100
AcDbLine
 10
171.200000000
 20
104.401185581
 30
0.000000000
 11
191.379983333
 21
104.401185581
 31
0.000000000
  0
LINE
  5
B9B
330
A02
100
AcDbEntity
  8
Shape2DView005
100
AcDbLine
 10
171.200000000
 20
93.400000000
 30
0.000000000
 11
171.200000000
 21
104.401185581
 31
0.000000000
  0
LINE
  5
B9C
330
A02
100
AcDbEntity
  8
Shape2DView005
100
AcDbLine
 10
191.379983333
 20
93.400000000
 30
0.000000000
 11
171.200000000
 21
93.400000000
 31
0.000000000
  0
ARC
  5
B9D
330
A02
100
AcDbEntity
  8
Shape2DView005
100
AcDbCircle
 10
191.566650000
 20
93.400000000
 30
0.000000000
 40
0.186666667
100
AcDbArc
 50
-90.000000000
 51
0.000000000
  0
ARC
  5
B9E
330
A02
100
AcDbEntity
  8
Shape2DView005
100
AcDbCircle
 10
191.566650000
 20
93.400000000
 30
0.000000000
 40
0.186666667
100
AcDbArc
 50
0.000000000
 51
180.000000000
  0
LINE
  5
B9F
330
A02
100
AcDbEntity
  8
Shape2DView005
100
AcDbLine
 10
191.566650000
 20
93.213333333
 30
0.000000000
 11
191.566650000
 21
90.600000000
 31
0.000000000
  0
LINE
  5
BA0
330
A02
100
AcDbEntity
  8
Shape2DView005
100
AcDbLine
 10
191.566650000
 20
90.600000000
 30
0.000000000
 11
203.753350000
 21
90.600000000
 31
0.000000000
  0
ARC
  5
BA1
330
A02
100
AcDbEntity
  8
Shape2DView005
100
AcDbCircle
 10
203.753350000
 20
93.400000000
 30
0.000000000
 40
0.186666667
100
AcDbArc
 50
0.000000000
 51
180.000000000
  0
ARC
  5
BA2
330
A02
100
AcDbEntity
  8
Shape2DView005
100
AcDbCircle
 10
203.753350000
 20
93.400000000
 30
0.000000000
 40
0.186666667
100
AcDbArc
 50
180.000000000
 51
-90.000000000
  0
LINE
  5
BA3
330
A02
100
AcDbEntity
  8
Shape2DView005
100
AcDbLine
 10
214.059983333
 20
93.400000000
 30
0.000000000
 11
203.940016667
 21
93.400000000
 31
0.000000000
  0
ARC
  5
BA4
330
A02
100
AcDbEntity
  8
Shape2DView005
100
AcDbCircle
 10
214.246650000
 20
93.400000000
 30
0.000000000
 40
0.186666667
100
AcDbArc
 50
-90.000000000
 51
0.000000000
  0
ARC
  5
BA5
330
A02
100
AcDbEntity
  8
Shape2DView005
100
AcDbCircle
 10
214.246650000
 20
93.400000000
 30
0.000000000
 40
0.186666667
100
AcDbArc
 50
0.000000000
 51
180.000000000
  0
LINE
  5
BA6
330
A02
100
AcDbEntity
  8
Shape2DView005
100
AcDbLine
 10
203.753350000
 20
93.213333333
 30
0.000000000
 11
203.753350000
 21
90.600000000
 31
0.000000000
  0
LINE
  5
BA7
330
A02
100
AcDbEntity
  8
Shape2DView005
100
AcDbLine
 10
214.246650000
 20
93.213333333
 30
0.000000000
 11
214.246650000
 21
90.600000000
 31
0.000000000
  0
LINE
  5
BA8
330
A02
100
AcDbEntity
  8
Shape2DView005
100
AcDbLine
 10
214.246650000
 20
90.600000000
 30
0.000000000
 11
226.433350000
 21
90.600000000
 31
0.000000000
  0
LINE
  5
BA9
330
A02
100
AcDbEntity
  8
Shape2DView006
100
AcDbLine
 10
0.259550623
 20
145.181164202
 30
0.000000000
 11
2.000000000
 21
144.528495686
 31
0.000000000
  0
ARC
  5
BAA
330
A02
100
AcDbEntity
  8
Shape2DView006
100
AcDbCircle
 10
0.400000000
 20
145.555695873
 30
0.000000000
 40
0.400000000
100
AcDbArc
 50
180.000000000
 51
-110.556045220
  0
LINE
  5
BAB
330
A02
100
AcDbEntity
  8
Shape2DView006
100
AcDbLine
 10
0.000000000
 20
145.555695873
 30
0.000000000
 11
0.000000000
 21
147.678495686
 31
0.000000000
  0
ARC
  5
BAC
330
A02
100
AcDbEntity
  8
Shape2DView006
100
AcDbCircle
 10
0.400000000
 20
147.678495686
 30
0.000000000
 40
0.400000000
100
AcDbArc
 50
90.000000000
 51
180.000000000
  0
LINE
  5
BAD
330
A02
100
AcDbEntity
  8
Shape2DView006
100
AcDbLine
 10
0.400000000
 20
148.078495686
 30
0.000000000
 11
14.000000000
 21
148.078495686
 31
0.000000000
  0
ARC
  5
BAE
330
A02
100
AcDbEntity
  8
Shape2DView006
100
AcDbCircle
 10
14.000000000
 20
148.478495686
 30
0.000000000
 40
0.400000000
100
AcDbArc
 50
-90.000000000
 51
90.000000000
  0
LINE
  5
BAF
330
A02
100
AcDbEntity
  8
Shape2DView006
100
AcDbLine
 10
14.000000000
 20
148.878495686
 30
0.000000000
 11
0.400000000
 21
148.878495686
 31
0.000000000
  0
ARC
  5
BB0
330
A02
100
AcDbEntity
  8
Shape2DView006
100
AcDbCircle
 10
0.400000000
 20
149.278495686
 30
0.000000000
 40
0.400000000
100
AcDbArc
 50
180.000000000
 51
-90.000000000
  0
LINE
  5
BB1
330
A02
100
AcDbEntity
  8
Shape2DView006
100
AcDbLine
 10
0.000000000
 20
149.278495686
 30
0.000000000
 11
0.000000000
 21
168.296845686
 31
0.000000000
  0
LINE
  5
BB2
330
A02
100
AcDbEntity
  8
Shape2DView006
100
AcDbLine
 10
2.574660682
 20
168.296845686
 30
0.000000000
 11
0.000000000
 21
168.296845686
 31
0.000000000
  0
ARC
  5
BB3
330
A02
100
AcDbEntity
  8
Shape2DView006
100
AcDbCircle
 10
2.747095000
 20
168.396400686
 30
0.000000000
 40
0.199110000
100
AcDbArc
 50
-150.000000000
 51
60.000000000
  0
LINE
  5
BB4
330
A02
100
AcDbEntity
  8
Shape2DView006
100
AcDbLine
 10
2.846650000
 20
168.568835004
 30
0.000000000
 11
2.846650000
 21
179.838156368
 31
0.000000000
  0
ARC
  5
BB5
330
A02
100
AcDbEntity
  8
Shape2DView006
100
AcDbCircle
 10
2.747095000
 20
180.010590686
 30
0.000000000
 40
0.199110000
100
AcDbArc
 50
-60.000000000
 51
150.000000000
  0
LINE
  5
BB6
330
A02
100
AcDbEntity
  8
Shape2DView006
100
AcDbLine
 10
2.574660682
 20
180.110145686
 30
0.000000000
 11
0.000000000
 21
180.110145686
 31
0.000000000
  0
LINE
  5
BB7
330
A02
100
AcDbEntity
  8
Shape2DView006
100
AcDbLine
 10
0.000000000
 20
180.110145686
 30
0.000000000
 11
0.000000000
 21
211.046845686
 31
0.000000000
  0
LINE
  5
BB8
330
A02
100
AcDbEntity
  8
Shape2DView006
100
AcDbLine
 10
2.574660682
 20
211.046845686
 30
0.000000000
 11
0.000000000
 21
211.046845686
 31
0.000000000
  0
ARC
  5
BB9
330
A02
100
AcDbEntity
  8
Shape2DView006
100
AcDbCircle
 10
2.747095000
 20
211.146400686
 30
0.000000000
 40
0.199110000
100
AcDbArc
 50
-150.000000000
 51
60.000000000
  0
LINE
  5
BBA
330
A02
100
AcDbEntity
  8
Shape2DView006
100
AcDbLine
 10
2.846650000
 20
211.318835004
 30
0.000000000
 11
2.846650000
 21
222.588156368
 31
0.000000000
  0
ARC
  5
BBB
330
A02
100
AcDbEntity
  8
Shape2DView006
100
AcDbCircle
 10
2.747095000
 20
222.760590686
 30
0.000000000
 40
0.199110000
100
AcDbArc
 50
-60.000000000
 51
150.000000000
  0
LINE
  5
BBC
330
A02
100
AcDbEntity
  8
Shape2DView006
100
AcDbLine
 10
2.574660682
 20
222.860145686
 30
0.000000000
 11
0.000000000
 21
222.860145686
 31
0.000000000
  0
LINE
  5
BBD
330
A02
100
AcDbEntity
  8
Shape2DView006
100
AcDbLine
 10
0.000000000
 20
222.860145686
 30
0.000000000
 11
0.000000000
 21
241.878495686
 31
0.000000000
  0
ARC
  5
BBE
330
A02
100
AcDbEntity
  8
Shape2DView006
100
AcDbCircle
 10
0.400000000
 20
241.878495686
 30
0.000000000
 40
0.400000000
100
AcDbArc
 50
90.000000000
 51
180.000000000
  0
LINE
  5
BBF
330
A02
100
AcDbEntity
  8
Shape2DView006
100
AcDbLine
 10
0.400000000
 20
242.278495686
 30
0.000000000
 11
14.000000000
 21
242.278495686
 31
0.000000000
  0
ARC
  5
BC0
330
A02
100
AcDbEntity
  8
Shape2DView006
100
AcDbCircle
 10
14.000000000
 20
242.678495686
 30
0.000000000
 40
0.400000000
100
AcDbArc
 50
-90.000000000
 51
90.000000000
  0
LINE
  5
BC1
330
A02
100
AcDbEntity
  8
Shape2DView006
100
AcDbLine
 10
14.000000000
 20
243.078495686
 30
0.000000000
 11
0.400000000
 21
243.078495686
 31
0.000000000
  0
ARC
  5
BC2
330
A02
100
AcDbEntity
  8
Shape2DView006
100
AcDbCircle
 10
0.400000000
 20
243.478495686
 30
0.000000000
 40
0.400000000
100
AcDbArc
 50
180.000000000
 51
-90.000000000
  0
LINE
  5
BC3
330
A02
100
AcDbEntity
  8
Shape2DView006
100
AcDbLine
 10
0.000000000
 20
243.478495686
 30
0.000000000
 11
0.000000000
 21
245.601295499
 31
0.000000000
  0
ARC
  5
BC4
330
A02
100
AcDbEntity
  8
Shape2DView006
100
AcDbCircle
 10
0.400000000
 20
245.601295499
 30
0.000000000
 40
0.400000000
100
AcDbArc
 50
110.556045220
 51
180.000000000
  0
LINE
  5
BC5
330
A02
100
AcDbEntity
  8
Shape2DView006
100
AcDbLine
 10
0.259550623
 20
245.975827170
 30
0.000000000
 11
2.000000000
 21
246.628495686
 31
0.000000000
  0
LINE
  5
BC6
330
A02
100
AcDbEntity
  8
Shape2DView006
100
AcDbLine
 10
2.000000000
 20
246.628495686
 30
0.000000000
 11
2.000000000
 21
245.878495686
 31
0.000000000
  0
LINE
  5
BC7
330
A02
100
AcDbEntity
  8
Shape2DView006
100
AcDbLine
 10
2.000000000
 20
245.878495686
 30
0.000000000
 11
4.800000000
 21
245.878495686
 31
0.000000000
  0
LINE
  5
BC8
330
A02
100
AcDbEntity
  8
Shape2DView006
100
AcDbLine
 10
4.800000000
 20
247.357205537
 30
0.000000000
 11
4.800000000
 21
245.878495686
 31
0.000000000
  0
ARC
  5
BC9
330
A02
100
AcDbEntity
  8
Shape2DView006
100
AcDbCircle
 10
5.200000000
 20
247.357205537
 30
0.000000000
 40
0.400000000
100
AcDbArc
 50
75.000000000
 51
180.000000000
  0
LINE
  5
BCA
330
A02
100
AcDbEntity
  8
Shape2DView006
100
AcDbLine
 10
12.264101615
 20
245.878495686
 30
0.000000000
 11
5.303527618
 21
247.743575867
 31
0.000000000
  0
LINE
  5
BCB
330
A02
100
AcDbEntity
  8
Shape2DView006
100
AcDbLine
 10
20.553350000
 20
245.878495686
 30
0.000000000
 11
12.264101615
 21
245.878495686
 31
0.000000000
  0
LINE
  5
BCC
330
A02
100
AcDbEntity
  8
Shape2DView006
100
AcDbLine
 10
20.553350000
 20
245.878495686
 30
0.000000000
 11
20.553350000
 21
243.303835004
 31
0.000000000
  0
ARC
  5
BCD
330
A02
100
AcDbEntity
  8
Shape2DView006
100
AcDbCircle
 10
20.652905000
 20
243.131400686
 30
0.000000000
 40
0.199110000
100
AcDbArc
 50
120.000000000
 51
-90.000000000
  0
ARC
  5
BCE
330
A02
100
AcDbEntity
  8
Shape2DView006
100
AcDbCircle
 10
20.652905000
 20
243.131400686
 30
0.000000000
 40
0.199110000
100
AcDbArc
 50
-90.000000000
 51
-30.000000000
  0
LINE
  5
BCF
330
A02
100
AcDbEntity
  8
Shape2DView006
100
AcDbLine
 10
32.094660682
 20
243.031845686
 30
0.000000000
 11
20.825339318
 21
243.031845686
 31
0.000000000
  0
ARC
  5
BD0
330
A02
100
AcDbEntity
  8
Shape2DView006
100
AcDbCircle
 10
32.267095000
 20
243.131400686
 30
0.000000000
 40
0.199110000
100
AcDbArc
 50
-150.000000000
 51
-90.000000000
  0
ARC
  5
BD1
330
A02
100
AcDbEntity
  8
Shape2DView006
100
AcDbCircle
 10
32.267095000
 20
243.131400686
 30
0.000000000
 40
0.199110000
100
AcDbArc
 50
-90.000000000
 51
60.000000000
  0
LINE
  5
BD2
330
A02
100
AcDbEntity
  8
Shape2DView006
100
AcDbLine
 10
32.366650000
 20
245.878495686
 30
0.000000000
 11
32.366650000
 21
243.303835004
 31
0.000000000
  0
LINE
  5
BD3
330
A02
100
AcDbEntity
  8
Shape2DView006
100
AcDbLine
 10
43.233350000
 20
245.878495686
 30
0.000000000
 11
32.366650000
 21
245.878495686
 31
0.000000000
  0
LINE
  5
BD4
330
A02
100
AcDbEntity
  8
Shape2DView006
100
AcDbLine
 10
43.233350000
 20
245.878495686
 30
0.000000000
 11
43.233350000
 21
243.303835004
 31
0.000000000
  0
ARC
  5
BD5
330
A02
100
AcDbEntity
  8
Shape2DView006
100
AcDbCircle
 10
43.332905000
 20
243.131400686
 30
0.000000000
 40
0.199110000
100
AcDbArc
 50
120.000000000
 51
-90.000000000
  0
ARC
  5
BD6
330
A02
100
AcDbEntity
  8
Shape2DView006
100
AcDbCircle
 10
43.332905000
 20
243.131400686
 30
0.000000000
 40
0.199110000
100
AcDbArc
 50
-90.000000000
 51
-30.000000000
  0
LINE
  5
BD7
330
A02
100
AcDbEntity
  8
Shape2DView006
100
AcDbLine
 10
54.774660682
 20
243.031845686
 30
0.000000000
 11
43.505339318
 21
243.031845686
 31
0.000000000
  0
ARC
  5
BD8
330
A02
100
AcDbEntity
  8
Shape2DView006
100
AcDbCircle
 10
54.947095000
 20
243.131400686
 30
0.000000000
 40
0.199110000
100
AcDbArc
 50
-150.000000000
 51
-90.000000000
  0
ARC
  5
BD9
330
A02
100
AcDbEntity
  8
Shape2DView006
100
AcDbCircle
 10
54.947095000
 20
243.131400686
 30
0.000000000
 40
0.199110000
100
AcDbArc
 50
-90.000000000
 51
60.000000000
  0
LINE
  5
BDA
330
A02
100
AcDbEntity
  8
Shape2DView006
100
AcDbLine
 10
55.046650000
 20
245.878495686
 30
0.000000000
 11
55.046650000
 21
243.303835004
 31
0.000000000
  0
LINE
  5
BDB
330
A02
100
AcDbEntity
  8
Shape2DView006
100
AcDbLine
 10
63.335898385
 20
245.878495686
 30
0.000000000
 11
55.046650000
 21
245.878495686
 31
0.000000000
  0
LINE
  5
BDC
330
A02
100
AcDbEntity
  8
Shape2DView006
100
AcDbLine
 10
70.296472382
 20
247.743575867
 30
0.000000000
 11
63.335898385
 21
245.878495686
 31
0.000000000
  0
ARC
  5
BDD
330
A02
100
AcDbEntity
  8
Shape2DView006
100
AcDbCircle
 10
70.400000000
 20
247.357205537
 30
0.000000000
 40
0.400000000
100
AcDbArc
 50
0.000000000
 51
105.000000000
  0
LINE
  5
BDE
330
A02
100
AcDbEntity
  8
Shape2DView006
100
AcDbLine
 10
70.800000000
 20
245.878495686
 30
0.000000000
 11
70.800000000
 21
247.357205537
 31
0.000000000
  0
LINE
  5
BDF
330
A02
100
AcDbEntity
  8
Shape2DView006
100
AcDbLine
 10
73.600000000
 20
245.878495686
 30
0.000000000
 11
70.800000000
 21
245.878495686
 31
0.000000000
  0
LINE
  5
BE0
330
A02
100
AcDbEntity
  8
Shape2DView006
100
AcDbLine
 10
73.600000000
 20
246.628495686
 30
0.000000000
 11
73.600000000
 21
245.878495686
 31
0.000000000
  0
LINE
  5
BE1
330
A02
100
AcDbEntity
  8
Shape2DView006
100
AcDbLine
 10
75.340449377
 20
245.975827170
 30
0.000000000
 11
73.600000000
 21
246.628495686
 31
0.000000000
  0
ARC
  5
BE2
330
A02
100
AcDbEntity
  8
Shape2DView006
100
AcDbCircle
 10
75.200000000
 20
245.601295499
 30
0.000000000
 40
0.400000000
100
AcDbArc
 50
0.000000000
 51
69.443954780
  0
LINE
  5
BE3
330
A02
100
AcDbEntity
  8
Shape2DView006
100
AcDbLine
 10
75.600000000
 20
245.601295499
 30
0.000000000
 11
75.600000000
 21
243.478495686
 31
0.000000000
  0
ARC
  5
BE4
330
A02
100
AcDbEntity
  8
Shape2DView006
100
AcDbCircle
 10
75.200000000
 20
243.478495686
 30
0.000000000
 40
0.400000000
100
AcDbArc
 50
-90.000000000
 51
0.000000000
  0
LINE
  5
BE5
330
A02
100
AcDbEntity
  8
Shape2DView006
100
AcDbLine
 10
75.200000000
 20
243.078495686
 30
0.000000000
 11
61.600000000
 21
243.078495686
 31
0.000000000
  0
ARC
  5
BE6
330
A02
100
AcDbEntity
  8
Shape2DView006
100
AcDbCircle
 10
61.600000000
 20
242.678495686
 30
0.000000000
 40
0.400000000
100
AcDbArc
 50
90.000000000
 51
-90.000000000
  0
LINE
  5
BE7
330
A02
100
AcDbEntity
  8
Shape2DView006
100
AcDbLine
 10
61.600000000
 20
242.278495686
 30
0.000000000
 11
75.200000000
 21
242.278495686
 31
0.000000000
  0
ARC
  5
BE8
330
A02
100
AcDbEntity
  8
Shape2DView006
100
AcDbCircle
 10
75.200000000
 20
241.878495686
 30
0.000000000
 40
0.400000000
100
AcDbArc
 50
0.000000000
 51
90.000000000
  0
LINE
  5
BE9
330
A02
100
AcDbEntity
  8
Shape2DView006
100
AcDbLine
 10
75.600000000
 20
241.878495686
 30
0.000000000
 11
75.600000000
 21
222.860145686
 31
0.000000000
  0
LINE
  5
BEA
330
A02
100
AcDbEntity
  8
Shape2DView006
100
AcDbLine
 10
73.025339318
 20
222.860145686
 30
0.000000000
 11
75.600000000
 21
222.860145686
 31
0.000000000
  0
ARC
  5
BEB
330
A02
100
AcDbEntity
  8
Shape2DView006
100
AcDbCircle
 10
72.852905000
 20
222.760590686
 30
0.000000000
 40
0.199110000
100
AcDbArc
 50
30.000000000
 51
-120.000000000
  0
LINE
  5
BEC
330
A02
100
AcDbEntity
  8
Shape2DView006
100
AcDbLine
 10
72.753350000
 20
222.588156368
 30
0.000000000
 11
72.753350000
 21
211.318835004
 31
0.000000000
  0
ARC
  5
BED
330
A02
100
AcDbEntity
  8
Shape2DView006
100
AcDbCircle
 10
72.852905000
 20
211.146400686
 30
0.000000000
 40
0.199110000
100
AcDbArc
 50
120.000000000
 51
-30.000000000
  0
LINE
  5
BEE
330
A02
100
AcDbEntity
  8
Shape2DView006
100
AcDbLine
 10
73.025339318
 20
211.046845686
 30
0.000000000
 11
75.600000000
 21
211.046845686
 31
0.000000000
  0
LINE
  5
BEF
330
A02
100
AcDbEntity
  8
Shape2DView006
100
AcDbLine
 10
75.600000000
 20
211.046845686
 30
0.000000000
 11
75.600000000
 21
180.110145686
 31
0.000000000
  0
LINE
  5
BF0
330
A02
100
AcDbEntity
  8
Shape2DView006
100
AcDbLine
 10
73.025339318
 20
180.110145686
 30
0.000000000
 11
75.600000000
 21
180.110145686
 31
0.000000000
  0
ARC
  5
BF1
330
A02
100
AcDbEntity
  8
Shape2DView006
100
AcDbCircle
 10
72.852905000
 20
180.010590686
 30
0.000000000
 40
0.199110000
100
AcDbArc
 50
30.000000000
 51
-120.000000000
  0
LINE
  5
BF2
330
A02
100
AcDbEntity
  8
Shape2DView006
100
AcDbLine
 10
72.753350000
 20
179.838156368
 30
0.000000000
 11
72.753350000
 21
168.568835004
 31
0.000000000
  0
ARC
  5
BF3
330
A02
100
AcDbEntity
  8
Shape2DView006
100
AcDbCircle
 10
72.852905000
 20
168.396400686
 30
0.000000000
 40
0.199110000
100
AcDbArc
 50
120.000000000
 51
-30.000000000
  0
LINE
  5
BF4
330
A02
100
AcDbEntity
  8
Shape2DView006
100
AcDbLine
 10
73.025339318
 20
168.296845686
 30
0.000000000
 11
75.600000000
 21
168.296845686
 31
0.000000000
  0
LINE
  5
BF5
330
A02
100
AcDbEntity
  8
Shape2DView006
100
AcDbLine
 10
75.600000000
 20
168.296845686
 30
0.000000000
 11
75.600000000
 21
149.278495686
 31
0.000000000
  0
ARC
  5
BF6
330
A02
100
AcDbEntity
  8
Shape2DView006
100
AcDbCircle
 10
75.200000000
 20
149.278495686
 30
0.000000000
 40
0.400000000
100
AcDbArc
 50
-90.000000000
 51
0.000000000
  0
LINE
  5
BF7
330
A02
100
AcDbEntity
  8
Shape2DView006
100
AcDbLine
 10
61.600000000
 20
148.878495686
 30
0.000000000
 11
75.200000000
 21
148.878495686
 31
0.000000000
  0
ARC
  5
BF8
330
A02
100
AcDbEntity
  8
Shape2DView006
100
AcDbCircle
 10
61.600000000
 20
148.478495686
 30
0.000000000
 40
0.400000000
100
AcDbArc
 50
90.000000000
 51
-90.000000000
  0
LINE
  5
BF9
330
A02
100
AcDbEntity
  8
Shape2DView006
100
AcDbLine
 10
75.200000000
 20
148.078495686
 30
0.000000000
 11
61.600000000
 21
148.078495686
 31
0.000000000
  0
ARC
  5
BFA
330
A02
100
AcDbEntity
  8
Shape2DView006
100
AcDbCircle
 10
75.200000000
 20
147.678495686
 30
0.000000000
 40
0.400000000
100
AcDbArc
 50
0.000000000
 51
90.000000000
  0
LINE
  5
BFB
330
A02
100
AcDbEntity
  8
Shape2DView006
100
AcDbLine
 10
75.600000000
 20
147.678495686
 30
0.000000000
 11
75.600000000
 21
145.555695873
 31
0.000000000
  0
ARC
  5
BFC
330
A02
100
AcDbEntity
  8
Shape2DView006
100
AcDbCircle
 10
75.200000000
 20
145.555695873
 30
0.000000000
 40
0.400000000
100
AcDbArc
 50
-69.443954780
 51
0.000000000
  0
LINE
  5
BFD
330
A02
100
AcDbEntity
  8
Shape2DView006
100
AcDbLine
 10
75.340449377
 20
145.181164202
 30
0.000000000
 11
73.600000000
 21
144.528495686
 31
0.000000000
  0
LINE
  5
BFE
330
A02
100
AcDbEntity
  8
Shape2DView006
100
AcDbLine
 10
73.600000000
 20
144.528495686
 30
0.000000000
 11
73.600000000
 21
145.278495686
 31
0.000000000
  0
LINE
  5
BFF
330
A02
100
AcDbEntity
  8
Shape2DView006
100
AcDbLine
 10
73.600000000
 20
145.278495686
 30
0.000000000
 11
70.800000000
 21
145.278495686
 31
0.000000000
  0
LINE
  5
C00
330
A02
100
AcDbEntity
  8
Shape2DView006
100
AcDbLine
 10
70.800000000
 20
143.799785835
 30
0.000000000
 11
70.800000000
 21
145.278495686
 31
0.000000000
  0
ARC
  5
C01
330
A02
100
AcDbEntity
  8
Shape2DView006
100
AcDbCircle
 10
70.400000000
 20
143.799785835
 30
0.000000000
 40
0.400000000
100
AcDbArc
 50
-105.000000000
 51
0.000000000
  0
LINE
  5
C02
330
A02
100
AcDbEntity
  8
Shape2DView006
100
AcDbLine
 10
63.335898385
 20
145.278495686
 30
0.000000000
 11
70.296472382
 21
143.413415504
 31
0.000000000
  0
LINE
  5
C03
330
A02
100
AcDbEntity
  8
Shape2DView006
100
AcDbLine
 10
12.264101615
 20
145.278495686
 30
0.000000000
 11
63.335898385
 21
145.278495686
 31
0.000000000
  0
LINE
  5
C04
330
A02
100
AcDbEntity
  8
Shape2DView006
100
AcDbLine
 10
5.303527618
 20
143.413415504
 30
0.000000000
 11
12.264101615
 21
145.278495686
 31
0.000000000
  0
ARC
  5
C05
330
A02
100
AcDbEntity
  8
Shape2DView006
100
AcDbCircle
 10
5.200000000
 20
143.799785835
 30
0.000000000
 40
0.400000000
100
AcDbArc
 50
-180.000000000
 51
-75.000000000
  0
LINE
  5
C06
330
A02
100
AcDbEntity
  8
Shape2DView006
100
AcDbLine
 10
4.800000000
 20
145.278495686
 30
0.000000000
 11
4.800000000
 21
143.799785835
 31
0.000000000
  0
LINE
  5
C07
330
A02
100
AcDbEntity
  8
Shape2DView006
100
AcDbLine
 10
2.000000000
 20
145.278495686
 30
0.000000000
 11
4.800000000
 21
145.278495686
 31
0.000000000
  0
LINE
  5
C08
330
A02
100
AcDbEntity
  8
Shape2DView006
100
AcDbLine
 10
2.000000000
 20
144.528495686
 30
0.000000000
 11
2.000000000
 21
145.278495686
 31
0.000000000
  0
ARC
  5
C09
330
A02
100
AcDbEntity
  8
Shape2DView006
100
AcDbCircle
 10
22.550000000
 20
149.578495686
 30
0.000000000
 40
0.500000000
100
AcDbArc
 50
169.296296556
 51
-10.703703444
  0
ARC
  5
C0A
330
A02
100
AcDbEntity
  8
Shape2DView006
100
AcDbCircle
 10
-14.483331521
 20
156.578495549
 30
0.000000000
 40
37.189091812
100
AcDbArc
 50
-10.703703444
 51
10.703703869
  0
ARC
  5
C0B
330
A02
100
AcDbEntity
  8
Shape2DView006
100
AcDbCircle
 10
-14.483331521
 20
156.578495549
 30
0.000000000
 40
38.189091812
100
AcDbArc
 50
-10.703703444
 51
10.703703869
  0
ARC
  5
C0C
330
A02
100
AcDbEntity
  8
Shape2DView006
100
AcDbCircle
 10
22.549999948
 20
163.578495686
 30
0.000000000
 40
0.500000000
100
AcDbArc
 50
10.703703869
 51
-169.296296131
  0
ARC
  5
C0D
330
A02
100
AcDbEntity
  8
Shape2DView006
100
AcDbCircle
 10
49.550000000
 20
149.578495686
 30
0.000000000
 40
1.500000000
100
AcDbArc
 50
-90.000000000
 51
0.000000000
  0
LINE
  5
C0E
330
A02
100
AcDbEntity
  8
Shape2DView006
100
AcDbLine
 10
49.550000000
 20
148.078495686
 30
0.000000000
 11
26.050000000
 21
148.078495686
 31
0.000000000
  0
ARC
  5
C0F
330
A02
100
AcDbEntity
  8
Shape2DView006
100
AcDbCircle
 10
49.550000000
 20
149.578495686
 30
0.000000000
 40
1.500000000
100
AcDbArc
 50
0.000000000
 51
9.798185124
  0
ARC
  5
C10
330
A02
100
AcDbEntity
  8
Shape2DView006
100
AcDbCircle
 10
26.050000000
 20
149.578495686
 30
0.000000000
 40
1.500000000
100
AcDbArc
 50
180.000000000
 51
-90.000000000
  0
ARC
  5
C11
330
A02
100
AcDbEntity
  8
Shape2DView006
100
AcDbCircle
 10
90.083331524
 20
156.578495531
 30
0.000000000
 40
39.633331524
100
AcDbArc
 50
170.201814876
 51
-170.201814876
  0
ARC
  5
C12
330
A02
100
AcDbEntity
  8
Shape2DView006
100
AcDbCircle
 10
26.050000000
 20
149.578495686
 30
0.000000000
 40
1.500000000
100
AcDbArc
 50
170.201814851
 51
180.000000000
  0
ARC
  5
C13
330
A02
100
AcDbEntity
  8
Shape2DView006
100
AcDbCircle
 10
49.550000000
 20
163.578495376
 30
0.000000000
 40
1.500000000
100
AcDbArc
 50
-9.798185124
 51
0.000011850
  0
ARC
  5
C14
330
A02
100
AcDbEntity
  8
Shape2DView006
100
AcDbCircle
 10
-14.483331521
 20
156.578495549
 30
0.000000000
 40
39.633331524
100
AcDbArc
 50
-9.798185149
 51
9.798185149
  0
ARC
  5
C15
330
A02
100
AcDbEntity
  8
Shape2DView006
100
AcDbCircle
 10
49.550000000
 20
163.578495686
 30
0.000000000
 40
1.500000000
100
AcDbArc
 50
0.000000000
 51
90.000000000
  0
ARC
  5
C16
330
A02
100
AcDbEntity
  8
Shape2DView006
100
AcDbCircle
 10
26.050000000
 20
163.578495411
 30
0.000000000
 40
1.500000000
100
AcDbArc
 50
179.999989508
 51
-170.201814851
  0
LINE
  5
C17
330
A02
100
AcDbEntity
  8
Shape2DView006
100
AcDbLine
 10
26.050000000
 20
165.078495686
 30
0.000000000
 11
49.550000000
 21
165.078495686
 31
0.000000000
  0
ARC
  5
C18
330
A02
100
AcDbEntity
  8
Shape2DView006
100
AcDbCircle
 10
26.050000000
 20
163.578495686
 30
0.000000000
 40
1.500000000
100
AcDbArc
 50
90.000000000
 51
180.000000000
  0
ARC
  5
C19
330
A02
100
AcDbEntity
  8
Shape2DView006
100
AcDbCircle
 10
53.050000059
 20
163.578495686
 30
0.000000000
 40
0.500000000
100
AcDbArc
 50
-10.703703897
 51
169.296296103
  0
ARC
  5
C1A
330
A02
100
AcDbEntity
  8
Shape2DView006
100
AcDbCircle
 10
90.083331524
 20
156.578495531
 30
0.000000000
 40
37.189091811
100
AcDbArc
 50
169.296296103
 51
-169.296296583
  0
ARC
  5
C1B
330
A02
100
AcDbEntity
  8
Shape2DView006
100
AcDbCircle
 10
90.083331524
 20
156.578495531
 30
0.000000000
 40
38.189091811
100
AcDbArc
 50
169.296296103
 51
-169.296296583
  0
ARC
  5
C1C
330
A02
100
AcDbEntity
  8
Shape2DView006
100
AcDbCircle
 10
53.050000000
 20
149.578495686
 30
0.000000000
 40
0.500000000
100
AcDbArc
 50
-169.296296583
 51
10.703703417
  0
LINE
  5
C1D
330
A02
100
AcDbEntity
  8
Shape2DView008
100
AcDbLine
 10
176.000000000
 20
167.878495686
 30
0.000000000
 11
176.000000000
 21
169.357205537
 31
0.000000000
  0
LINE
  5
C1E
330
A02
100
AcDbEntity
  8
Shape2DView008
100
AcDbLine
 10
173.200000000
 20
167.878495686
 30
0.000000000
 11
176.000000000
 21
167.878495686
 31
0.000000000
  0
LINE
  5
C1F
330
A02
100
AcDbEntity
  8
Shape2DView008
100
AcDbLine
 10
173.200000000
 20
167.878495686
 30
0.000000000
 11
173.200000000
 21
168.628495686
 31
0.000000000
  0
LINE
  5
C20
330
A02
100
AcDbEntity
  8
Shape2DView008
100
AcDbLine
 10
173.200000000
 20
168.628495686
 30
0.000000000
 11
171.459550623
 21
167.975827170
 31
0.000000000
  0
ARC
  5
C21
330
A02
100
AcDbEntity
  8
Shape2DView008
100
AcDbCircle
 10
171.600000000
 20
167.601295499
 30
0.000000000
 40
0.400000000
100
AcDbArc
 50
110.556045220
 51
180.000000000
  0
LINE
  5
C22
330
A02
100
AcDbEntity
  8
Shape2DView008
100
AcDbLine
 10
171.200000000
 20
165.478495686
 30
0.000000000
 11
171.200000000
 21
167.601295499
 31
0.000000000
  0
ARC
  5
C23
330
A02
100
AcDbEntity
  8
Shape2DView008
100
AcDbCircle
 10
171.600000000
 20
165.478495686
 30
0.000000000
 40
0.400000000
100
AcDbArc
 50
180.000000000
 51
-90.000000000
  0
LINE
  5
C24
330
A02
100
AcDbEntity
  8
Shape2DView008
100
AcDbLine
 10
185.200000000
 20
165.078495686
 30
0.000000000
 11
171.600000000
 21
165.078495686
 31
0.000000000
  0
ARC
  5
C25
330
A02
100
AcDbEntity
  8
Shape2DView008
100
AcDbCircle
 10
185.200000000
 20
164.678495686
 30
0.000000000
 40
0.400000000
100
AcDbArc
 50
-90.000000000
 51
90.000000000
  0
LINE
  5
C26
330
A02
100
AcDbEntity
  8
Shape2DView008
100
AcDbLine
 10
171.600000000
 20
164.278495686
 30
0.000000000
 11
185.200000000
 21
164.278495686
 31
0.000000000
  0
ARC
  5
C27
330
A02
100
AcDbEntity
  8
Shape2DView008
100
AcDbCircle
 10
171.600000000
 20
163.878495686
 30
0.000000000
 40
0.400000000
100
AcDbArc
 50
90.000000000
 51
180.000000000
  0
LINE
  5
C28
330
A02
100
AcDbEntity
  8
Shape2DView008
100
AcDbLine
 10
171.200000000
 20
149.278495686
 30
0.000000000
 11
171.200000000
 21
163.878495686
 31
0.000000000
  0
ARC
  5
C29
330
A02
100
AcDbEntity
  8
Shape2DView008
100
AcDbCircle
 10
171.600000000
 20
149.278495686
 30
0.000000000
 40
0.400000000
100
AcDbArc
 50
180.000000000
 51
-90.000000000
  0
LINE
  5
C2A
330
A02
100
AcDbEntity
  8
Shape2DView008
100
AcDbLine
 10
185.200000000
 20
148.878495686
 30
0.000000000
 11
171.600000000
 21
148.878495686
 31
0.000000000
  0
ARC
  5
C2B
330
A02
100
AcDbEntity
  8
Shape2DView008
100
AcDbCircle
 10
185.200000000
 20
148.478495686
 30
0.000000000
 40
0.400000000
100
AcDbArc
 50
-90.000000000
 51
90.000000000
  0
LINE
  5
C2C
330
A02
100
AcDbEntity
  8
Shape2DView008
100
AcDbLine
 10
171.600000000
 20
148.078495686
 30
0.000000000
 11
185.200000000
 21
148.078495686
 31
0.000000000
  0
ARC
  5
C2D
330
A02
100
AcDbEntity
  8
Shape2DView008
100
AcDbCircle
 10
171.600000000
 20
147.678495686
 30
0.000000000
 40
0.400000000
100
AcDbArc
 50
90.000000000
 51
180.000000000
  0
LINE
  5
C2E
330
A02
100
AcDbEntity
  8
Shape2DView008
100
AcDbLine
 10
171.200000000
 20
145.555695873
 30
0.000000000
 11
171.200000000
 21
147.678495686
 31
0.000000000
  0
ARC
  5
C2F
330
A02
100
AcDbEntity
  8
Shape2DView008
100
AcDbCircle
 10
171.600000000
 20
145.555695873
 30
0.000000000
 40
0.400000000
100
AcDbArc
 50
180.000000000
 51
-110.556045220
  0
LINE
  5
C30
330
A02
100
AcDbEntity
  8
Shape2DView008
100
AcDbLine
 10
171.459550623
 20
145.181164202
 30
0.000000000
 11
173.200000000
 21
144.528495686
 31
0.000000000
  0
LINE
  5
C31
330
A02
100
AcDbEntity
  8
Shape2DView008
100
AcDbLine
 10
173.200000000
 20
145.278495686
 30
0.000000000
 11
173.200000000
 21
144.528495686
 31
0.000000000
  0
LINE
  5
C32
330
A02
100
AcDbEntity
  8
Shape2DView008
100
AcDbLine
 10
176.000000000
 20
145.278495686
 30
0.000000000
 11
173.200000000
 21
145.278495686
 31
0.000000000
  0
LINE
  5
C33
330
A02
100
AcDbEntity
  8
Shape2DView008
100
AcDbLine
 10
176.000000000
 20
143.799785835
 30
0.000000000
 11
176.000000000
 21
145.278495686
 31
0.000000000
  0
ARC
  5
C34
330
A02
100
AcDbEntity
  8
Shape2DView008
100
AcDbCircle
 10
176.400000000
 20
143.799785835
 30
0.000000000
 40
0.400000000
100
AcDbArc
 50
180.000000000
 51
-75.000000000
  0
LINE
  5
C35
330
A02
100
AcDbEntity
  8
Shape2DView008
100
AcDbLine
 10
183.464101615
 20
145.278495686
 30
0.000000000
 11
176.503527618
 21
143.413415504
 31
0.000000000
  0
LINE
  5
C36
330
A02
100
AcDbEntity
  8
Shape2DView008
100
AcDbLine
 10
191.753350000
 20
145.278495686
 30
0.000000000
 11
183.464101615
 21
145.278495686
 31
0.000000000
  0
LINE
  5
C37
330
A02
100
AcDbEntity
  8
Shape2DView008
100
AcDbLine
 10
191.753350000
 20
147.853156368
 30
0.000000000
 11
191.753350000
 21
145.278495686
 31
0.000000000
  0
ARC
  5
C38
330
A02
100
AcDbEntity
  8
Shape2DView008
100
AcDbCircle
 10
191.852905000
 20
148.025590686
 30
0.000000000
 40
0.199110000
100
AcDbArc
 50
30.000000000
 51
-120.000000000
  0
LINE
  5
C39
330
A02
100
AcDbEntity
  8
Shape2DView008
100
AcDbLine
 10
203.294660682
 20
148.125145686
 30
0.000000000
 11
192.025339318
 21
148.125145686
 31
0.000000000
  0
ARC
  5
C3A
330
A02
100
AcDbEntity
  8
Shape2DView008
100
AcDbCircle
 10
203.467095000
 20
148.025590686
 30
0.000000000
 40
0.199110000
100
AcDbArc
 50
-60.000000000
 51
150.000000000
  0
LINE
  5
C3B
330
A02
100
AcDbEntity
  8
Shape2DView008
100
AcDbLine
 10
203.566650000
 20
147.853156368
 30
0.000000000
 11
203.566650000
 21
145.278495686
 31
0.000000000
  0
LINE
  5
C3C
330
A02
100
AcDbEntity
  8
Shape2DView008
100
AcDbLine
 10
214.433350000
 20
145.278495686
 30
0.000000000
 11
203.566650000
 21
145.278495686
 31
0.000000000
  0
LINE
  5
C3D
330
A02
100
AcDbEntity
  8
Shape2DView008
100
AcDbLine
 10
214.433350000
 20
147.853156368
 30
0.000000000
 11
214.433350000
 21
145.278495686
 31
0.000000000
  0
ARC
  5
C3E
330
A02
100
AcDbEntity
  8
Shape2DView008
100
AcDbCircle
 10
214.532905000
 20
148.025590686
 30
0.000000000
 40
0.199110000
100
AcDbArc
 50
30.000000000
 51
-120.000000000
  0
LINE
  5
C3F
330
A02
100
AcDbEntity
  8
Shape2DView008
100
AcDbLine
 10
225.974660682
 20
148.125145686
 30
0.000000000
 11
214.705339318
 21
148.125145686
 31
0.000000000
  0
ARC
  5
C40
330
A02
100
AcDbEntity
  8
Shape2DView008
100
AcDbCircle
 10
226.147095000
 20
148.025590686
 30
0.000000000
 40
0.199110000
100
AcDbArc
 50
-60.000000000
 51
150.000000000
  0
LINE
  5
C41
330
A02
100
AcDbEntity
  8
Shape2DView008
100
AcDbLine
 10
226.246650000
 20
147.853156368
 30
0.000000000
 11
226.246650000
 21
145.278495686
 31
0.000000000
  0
LINE
  5
C42
330
A02
100
AcDbEntity
  8
Shape2DView008
100
AcDbLine
 10
234.535898385
 20
145.278495686
 30
0.000000000
 11
226.246650000
 21
145.278495686
 31
0.000000000
  0
LINE
  5
C43
330
A02
100
AcDbEntity
  8
Shape2DView008
100
AcDbLine
 10
241.496472382
 20
143.413415504
 30
0.000000000
 11
234.535898385
 21
145.278495686
 31
0.000000000
  0
ARC
  5
C44
330
A02
100
AcDbEntity
  8
Shape2DView008
100
AcDbCircle
 10
241.600000000
 20
143.799785835
 30
0.000000000
 40
0.400000000
100
AcDbArc
 50
-105.000000000
 51
0.000000000
  0
LINE
  5
C45
330
A02
100
AcDbEntity
  8
Shape2DView008
100
AcDbLine
 10
242.000000000
 20
145.278495686
 30
0.000000000
 11
242.000000000
 21
143.799785835
 31
0.000000000
  0
LINE
  5
C46
330
A02
100
AcDbEntity
  8
Shape2DView008
100
AcDbLine
 10
244.800000000
 20
145.278495686
 30
0.000000000
 11
242.000000000
 21
145.278495686
 31
0.000000000
  0
LINE
  5
C47
330
A02
100
AcDbEntity
  8
Shape2DView008
100
AcDbLine
 10
244.800000000
 20
145.278495686
 30
0.000000000
 11
244.800000000
 21
144.528495686
 31
0.000000000
  0
LINE
  5
C48
330
A02
100
AcDbEntity
  8
Shape2DView008
100
AcDbLine
 10
246.540449377
 20
145.181164202
 30
0.000000000
 11
244.800000000
 21
144.528495686
 31
0.000000000
  0
ARC
  5
C49
330
A02
100
AcDbEntity
  8
Shape2DView008
100
AcDbCircle
 10
246.400000000
 20
145.555695873
 30
0.000000000
 40
0.400000000
100
AcDbArc
 50
-69.443954780
 51
0.000000000
  0
LINE
  5
C4A
330
A02
100
AcDbEntity
  8
Shape2DView008
100
AcDbLine
 10
246.800000000
 20
147.678495686
 30
0.000000000
 11
246.800000000
 21
145.555695873
 31
0.000000000
  0
ARC
  5
C4B
330
A02
100
AcDbEntity
  8
Shape2DView008
100
AcDbCircle
 10
246.400000000
 20
147.678495686
 30
0.000000000
 40
0.400000000
100
AcDbArc
 50
0.000000000
 51
90.000000000
  0
LINE
  5
C4C
330
A02
100
AcDbEntity
  8
Shape2DView008
100
AcDbLine
 10
232.800000000
 20
148.078495686
 30
0.000000000
 11
246.400000000
 21
148.078495686
 31
0.000000000
  0
ARC
  5
C4D
330
A02
100
AcDbEntity
  8
Shape2DView008
100
AcDbCircle
 10
232.800000000
 20
148.478495686
 30
0.000000000
 40
0.400000000
100
AcDbArc
 50
90.000000000
 51
-90.000000000
  0
LINE
  5
C4E
330
A02
100
AcDbEntity
  8
Shape2DView008
100
AcDbLine
 10
246.400000000
 20
148.878495686
 30
0.000000000
 11
232.800000000
 21
148.878495686
 31
0.000000000
  0
ARC
  5
C4F
330
A02
100
AcDbEntity
  8
Shape2DView008
100
AcDbCircle
 10
246.400000000
 20
149.278495686
 30
0.000000000
 40
0.400000000
100
AcDbArc
 50
-90.000000000
 51
0.000000000
  0
LINE
  5
C50
330
A02
100
AcDbEntity
  8
Shape2DView008
100
AcDbLine
 10
246.800000000
 20
163.878495686
 30
0.000000000
 11
246.800000000
 21
149.278495686
 31
0.000000000
  0
ARC
  5
C51
330
A02
100
AcDbEntity
  8
Shape2DView008
100
AcDbCircle
 10
246.400000000
 20
163.878495686
 30
0.000000000
 40
0.400000000
100
AcDbArc
 50
0.000000000
 51
90.000000000
  0
LINE
  5
C52
330
A02
100
AcDbEntity
  8
Shape2DView008
100
AcDbLine
 10
232.800000000
 20
164.278495686
 30
0.000000000
 11
246.400000000
 21
164.278495686
 31
0.000000000
  0
ARC
  5
C53
330
A02
100
AcDbEntity
  8
Shape2DView008
100
AcDbCircle
 10
232.800000000
 20
164.678495686
 30
0.000000000
 40
0.400000000
100
AcDbArc
 50
90.000000000
 51
-90.000000000
  0
LINE
  5
C54
330
A02
100
AcDbEntity
  8
Shape2DView008
100
AcDbLine
 10
246.400000000
 20
165.078495686
 30
0.000000000
 11
232.800000000
 21
165.078495686
 31
0.000000000
  0
ARC
  5
C55
330
A02
100
AcDbEntity
  8
Shape2DView008
100
AcDbCircle
 10
246.400000000
 20
165.478495686
 30
0.000000000
 40
0.400000000
100
AcDbArc
 50
-90.000000000
 51
0.000000000
  0
LINE
  5
C56
330
A02
100
AcDbEntity
  8
Shape2DView008
100
AcDbLine
 10
246.800000000
 20
167.601295499
 30
0.000000000
 11
246.800000000
 21
165.478495686
 31
0.000000000
  0
ARC
  5
C57
330
A02
100
AcDbEntity
  8
Shape2DView008
100
AcDbCircle
 10
246.400000000
 20
167.601295499
 30
0.000000000
 40
0.400000000
100
AcDbArc
 50
0.000000000
 51
69.443954780
  0
LINE
  5
C58
330
A02
100
AcDbEntity
  8
Shape2DView008
100
AcDbLine
 10
244.800000000
 20
168.628495686
 30
0.000000000
 11
246.540449377
 21
167.975827170
 31
0.000000000
  0
LINE
  5
C59
330
A02
100
AcDbEntity
  8
Shape2DView008
100
AcDbLine
 10
244.800000000
 20
167.878495686
 30
0.000000000
 11
244.800000000
 21
168.628495686
 31
0.000000000
  0
LINE
  5
C5A
330
A02
100
AcDbEntity
  8
Shape2DView008
100
AcDbLine
 10
242.000000000
 20
167.878495686
 30
0.000000000
 11
244.800000000
 21
167.878495686
 31
0.000000000
  0
LINE
  5
C5B
330
A02
100
AcDbEntity
  8
Shape2DView008
100
AcDbLine
 10
242.000000000
 20
169.357205537
 30
0.000000000
 11
242.000000000
 21
167.878495686
 31
0.000000000
  0
ARC
  5
C5C
330
A02
100
AcDbEntity
  8
Shape2DView008
100
AcDbCircle
 10
241.600000000
 20
169.357205537
 30
0.000000000
 40
0.400000000
100
AcDbArc
 50
0.000000000
 51
105.000000000
  0
LINE
  5
C5D
330
A02
100
AcDbEntity
  8
Shape2DView008
100
AcDbLine
 10
234.535898385
 20
167.878495686
 30
0.000000000
 11
241.496472382
 21
169.743575867
 31
0.000000000
  0
LINE
  5
C5E
330
A02
100
AcDbEntity
  8
Shape2DView008
100
AcDbLine
 10
226.246650000
 20
167.878495686
 30
0.000000000
 11
234.535898385
 21
167.878495686
 31
0.000000000
  0
LINE
  5
C5F
330
A02
100
AcDbEntity
  8
Shape2DView008
100
AcDbLine
 10
226.246650000
 20
167.878495686
 30
0.000000000
 11
226.246650000
 21
165.303835004
 31
0.000000000
  0
ARC
  5
C60
330
A02
100
AcDbEntity
  8
Shape2DView008
100
AcDbCircle
 10
226.147095000
 20
165.131400686
 30
0.000000000
 40
0.199110000
100
AcDbArc
 50
-90.000000000
 51
60.000000000
  0
ARC
  5
C61
330
A02
100
AcDbEntity
  8
Shape2DView008
100
AcDbCircle
 10
226.147095000
 20
165.131400686
 30
0.000000000
 40
0.199110000
100
AcDbArc
 50
-150.000000000
 51
-90.000000000
  0
LINE
  5
C62
330
A02
100
AcDbEntity
  8
Shape2DView008
100
AcDbLine
 10
225.974660682
 20
165.031845686
 30
0.000000000
 11
214.705339318
 21
165.031845686
 31
0.000000000
  0
ARC
  5
C63
330
A02
100
AcDbEntity
  8
Shape2DView008
100
AcDbCircle
 10
214.532905000
 20
165.131400686
 30
0.000000000
 40
0.199110000
100
AcDbArc
 50
-90.000000000
 51
-30.000000000
  0
ARC
  5
C64
330
A02
100
AcDbEntity
  8
Shape2DView008
100
AcDbCircle
 10
214.532905000
 20
165.131400686
 30
0.000000000
 40
0.199110000
100
AcDbArc
 50
120.000000000
 51
-90.000000000
  0
LINE
  5
C65
330
A02
100
AcDbEntity
  8
Shape2DView008
100
AcDbLine
 10
214.433350000
 20
167.878495686
 30
0.000000000
 11
214.433350000
 21
165.303835004
 31
0.000000000
  0
LINE
  5
C66
330
A02
100
AcDbEntity
  8
Shape2DView008
100
AcDbLine
 10
203.566650000
 20
167.878495686
 30
0.000000000
 11
214.433350000
 21
167.878495686
 31
0.000000000
  0
LINE
  5
C67
330
A02
100
AcDbEntity
  8
Shape2DView008
100
AcDbLine
 10
203.566650000
 20
167.878495686
 30
0.000000000
 11
203.566650000
 21
165.303835004
 31
0.000000000
  0
ARC
  5
C68
330
A02
100
AcDbEntity
  8
Shape2DView008
100
AcDbCircle
 10
203.467095000
 20
165.131400686
 30
0.000000000
 40
0.199110000
100
AcDbArc
 50
-90.000000000
 51
60.000000000
  0
ARC
  5
C69
330
A02
100
AcDbEntity
  8
Shape2DView008
100
AcDbCircle
 10
203.467095000
 20
165.131400686
 30
0.000000000
 40
0.199110000
100
AcDbArc
 50
-150.000000000
 51
-90.000000000
  0
LINE
  5
C6A
330
A02
100
AcDbEntity
  8
Shape2DView008
100
AcDbLine
 10
203.294660682
 20
165.031845686
 30
0.000000000
 11
192.025339318
 21
165.031845686
 31
0.000000000
  0
ARC
  5
C6B
330
A02
100
AcDbEntity
  8
Shape2DView008
100
AcDbCircle
 10
191.852905000
 20
165.131400686
 30
0.000000000
 40
0.199110000
100
AcDbArc
 50
-90.000000000
 51
-30.000000000
  0
ARC
  5
C6C
330
A02
100
AcDbEntity
  8
Shape2DView008
100
AcDbCircle
 10
191.852905000
 20
165.131400686
 30
0.000000000
 40
0.199110000
100
AcDbArc
 50
120.000000000
 51
-90.000000000
  0
LINE
  5
C6D
330
A02
100
AcDbEntity
  8
Shape2DView008
100
AcDbLine
 10
191.753350000
 20
167.878495686
 30
0.000000000
 11
191.753350000
 21
165.303835004
 31
0.000000000
  0
LINE
  5
C6E
330
A02
100
AcDbEntity
  8
Shape2DView008
100
AcDbLine
 10
183.464101615
 20
167.878495686
 30
0.000000000
 11
191.753350000
 21
167.878495686
 31
0.000000000
  0
LINE
  5
C6F
330
A02
100
AcDbEntity
  8
Shape2DView008
100
AcDbLine
 10
176.503527618
 20
169.743575867
 30
0.000000000
 11
183.464101615
 21
167.878495686
 31
0.000000000
  0
ARC
  5
C70
330
A02
100
AcDbEntity
  8
Shape2DView008
100
AcDbCircle
 10
176.400000000
 20
169.357205537
 30
0.000000000
 40
0.400000000
100
AcDbArc
 50
75.000000000
 51
-180.000000000
  0
CIRCLE
  5
C71
330
A02
100
AcDbEntity
  8
Shape2DView008
100
AcDbCircle
 10
184.000000000
 20
156.578495686
 30
0.000000000
 40
2.500000000
  0
LINE
  5
C72
330
A02
100
AcDbEntity
  8
Shape2DView008
100
AcDbLine
 10
207.250000000
 20
150.178495686
 30
0.000000000
 11
210.750000000
 21
150.178495686
 31
0.000000000
  0
ARC
  5
C73
330
A02
100
AcDbEntity
  8
Shape2DView008
100
AcDbCircle
 10
207.250000000
 20
149.178495686
 30
0.000000000
 40
1.000000000
100
AcDbArc
 50
90.000000000
 51
-90.000000000
  0
ARC
  5
C74
330
A02
100
AcDbEntity
  8
Shape2DView008
100
AcDbCircle
 10
210.750000000
 20
149.178495686
 30
0.000000000
 40
1.000000000
100
AcDbArc
 50
-90.000000000
 51
90.000000000
  0
LINE
  5
C75
330
A02
100
AcDbEntity
  8
Shape2DView008
100
AcDbLine
 10
207.250000000
 20
148.178495686
 30
0.000000000
 11
210.750000000
 21
148.178495686
 31
0.000000000
  0
LINE
  5
C76
330
A02
100
AcDbEntity
  8
Shape2DView008
100
AcDbLine
 10
207.250000000
 20
164.978495686
 30
0.000000000
 11
210.750000000
 21
164.978495686
 31
0.000000000
  0
ARC
  5
C77
330
A02
100
AcDbEntity
  8
Shape2DView008
100
AcDbCircle
 10
207.250000000
 20
163.978495686
 30
0.000000000
 40
1.000000000
100
AcDbArc
 50
90.000000000
 51
-90.000000000
  0
ARC
  5
C78
330
A02
100
AcDbEntity
  8
Shape2DView008
100
AcDbCircle
 10
210.750000000
 20
163.978495686
 30
0.000000000
 40
1.000000000
100
AcDbArc
 50
-90.000000000
 51
90.000000000
  0
LINE
  5
C79
330
A02
100
AcDbEntity
  8
Shape2DView008
100
AcDbLine
 10
207.250000000
 20
162.978495686
 30
0.000000000
 11
210.750000000
 21
162.978495686
 31
0.000000000
  0
CIRCLE
  5
C7A
330
A02
100
AcDbEntity
  8
Shape2DView008
100
AcDbCircle
 10
234.000000000
 20
156.578495686
 30
0.000000000
 40
2.500000000
  0
LINE
  5
C7B
330
A02
100
AcDbEntity
  8
Shape2DView010
100
AcDbLine
 10
78.000000000
 20
303.320388098
 30
0.000000000
 11
98.553350000
 21
303.320388098
 31
0.000000000
  0
LINE
  5
C7C
330
A02
100
AcDbEntity
  8
Shape2DView010
100
AcDbLine
 10
80.574660682
 20
287.546030408
 30
0.000000000
 11
78.000000000
 21
287.546030408
 31
0.000000000
  0
ELLIPSE
  5
C7D
330
A02
100
AcDbEntity
  8
Shape2DView010
100
AcDbEllipse
 10
80.747095000
 20
287.446475408
 30
0.000000000
 11
0.199110000
 21
0.000000000
 31
0.000000000
 40
1.000000000
 41
5.235987756
 42
2.617993878
  0
LINE
  5
C7E
330
A02
100
AcDbEntity
  8
Shape2DView010
100
AcDbLine
 10
80.846650000
 20
276.004719726
 30
0.000000000
 11
80.846650000
 21
287.274041090
 31
0.000000000
  0
ELLIPSE
  5
C7F
330
A02
100
AcDbEntity
  8
Shape2DView010
100
AcDbEllipse
 10
80.747095000
 20
275.832285408
 30
0.000000000
 11
0.199110000
 21
0.000000000
 31
0.000000000
 40
1.000000000
 41
3.665191429
 42
1.047197551
  0
LINE
  5
C80
330
A02
100
AcDbEntity
  8
Shape2DView010
100
AcDbLine
 10
80.574660682
 20
275.732730408
 30
0.000000000
 11
78.000000000
 21
275.732730408
 31
0.000000000
  0
LINE
  5
C81
330
A02
100
AcDbEntity
  8
Shape2DView010
100
AcDbLine
 10
78.000000000
 20
259.320139407
 30
0.000000000
 11
78.000000000
 21
275.732730408
 31
0.000000000
  0
LINE
  5
C82
330
A02
100
AcDbEntity
  8
Shape2DView010
100
AcDbLine
 10
80.800000000
 20
259.320139407
 30
0.000000000
 11
78.000000000
 21
259.320139407
 31
0.000000000
  0
LINE
  5
C83
330
A02
100
AcDbEntity
  8
Shape2DView010
100
AcDbLine
 10
80.800000000
 20
257.920139407
 30
0.000000000
 11
80.800000000
 21
259.320139407
 31
0.000000000
  0
LINE
  5
C84
330
A02
100
AcDbEntity
  8
Shape2DView010
100
AcDbLine
 10
98.498042757
 20
257.920139407
 30
0.000000000
 11
80.800000000
 21
257.920139407
 31
0.000000000
  0
SPLINE
  5
C85
330
A02
100
AcDbEntity
  8
Shape2DView010
100
AcDbSpline
210
0
220
0
230
1
 70
8
 71
2
 72
6
 73
3
 74
0
 40
5.377684492
 40
5.377684492
 40
5.377684492
 40
5.759586532
 40
5.759586532
 40
5.759586532
 10
98.498042757
 20
257.920139407
 30
0.000000000
 10
98.521123928
 20
257.951276956
 30
0.000000000
 10
98.553350000
 20
257.971195916
 30
0.000000000
  0
LINE
  5
C86
330
A02
100
AcDbEntity
  8
Shape2DView010
100
AcDbLine
 10
98.553350000
 20
257.971195916
 30
0.000000000
 11
98.553350000
 21
260.489385135
 31
0.000000000
  0
ELLIPSE
  5
C87
330
A02
100
AcDbEntity
  8
Shape2DView010
100
AcDbEllipse
 10
98.645261087
 20
260.667014952
 30
0.000000000
 11
0.200000000
 21
0.000000000
 31
0.000000000
 40
1.000000000
 41
2.063784678
 42
4.234894396
  0
SPLINE
  5
C88
330
A02
100
AcDbEntity
  8
Shape2DView010
100
AcDbSpline
210
0
220
0
230
1
 70
8
 71
2
 72
6
 73
3
 74
0
 40
5.743098453
 40
5.743098453
 40
5.743098453
 40
6.283185307
 40
6.283185307
 40
6.283185307
 10
98.550608987
 20
260.843199457
 30
0.000000000
 10
98.596491110
 20
260.872071109
 30
0.000000000
 10
98.649793333
 20
260.872416152
 30
0.000000000
  0
SPLINE
  5
C89
330
A02
100
AcDbEntity
  8
Shape2DView010
100
AcDbSpline
210
0
220
0
230
1
 70
8
 71
3
 72
8
 73
4
 74
0
 40
0.000000000
 40
0.000000000
 40
0.000000000
 40
0.000000000
 40
1.047197551
 40
1.047197551
 40
1.047197551
 40
1.047197551
 10
98.649793333
 20
260.872416152
 30
0.000000000
 10
98.717437478
 20
260.872870128
 30
0.000000000
 10
98.783385459
 20
260.832351469
 30
0.000000000
 10
98.816838087
 20
260.769783300
 30
0.000000000
  0
LINE
  5
C8A
330
A02
100
AcDbEntity
  8
Shape2DView010
100
AcDbLine
 10
98.816838087
 20
260.769783300
 30
0.000000000
 11
110.103161913
 21
260.769783300
 31
0.000000000
  0
SPLINE
  5
C8B
330
A02
100
AcDbEntity
  8
Shape2DView010
100
AcDbSpline
210
0
220
0
230
1
 70
8
 71
3
 72
8
 73
4
 74
0
 40
5.235987756
 40
5.235987756
 40
5.235987756
 40
5.235987756
 40
6.283185307
 40
6.283185307
 40
6.283185307
 40
6.283185307
 10
110.103161913
 20
260.769783300
 30
0.000000000
 10
110.136614541
 20
260.832351469
 30
0.000000000
 10
110.202562522
 20
260.872870128
 30
0.000000000
 10
110.270206667
 20
260.872416152
 30
0.000000000
  0
SPLINE
  5
C8C
330
A02
100
AcDbEntity
  8
Shape2DView010
100
AcDbSpline
210
0
220
0
230
1
 70
8
 71
2
 72
6
 73
3
 74
0
 40
0.000000000
 40
0.000000000
 40
0.000000000
 40
0.540086854
 40
0.540086854
 40
0.540086854
 10
110.270206667
 20
260.872416152
 30
0.000000000
 10
110.323508890
 20
260.872071109
 30
0.000000000
 10
110.369391013
 20
260.843199457
 30
0.000000000
  0
ELLIPSE
  5
C8D
330
A02
100
AcDbEntity
  8
Shape2DView010
100
AcDbEllipse
 10
110.274738913
 20
260.667014952
 30
0.000000000
 11
0.200000000
 21
0.000000000
 31
0.000000000
 40
1.000000000
 41
5.189883564
 42
1.077807976
  0
LINE
  5
C8E
330
A02
100
AcDbEntity
  8
Shape2DView010
100
AcDbLine
 10
110.366650000
 20
257.971195916
 30
0.000000000
 11
110.366650000
 21
260.489385135
 31
0.000000000
  0
SPLINE
  5
C8F
330
A02
100
AcDbEntity
  8
Shape2DView010
100
AcDbSpline
210
0
220
0
230
1
 70
8
 71
2
 72
6
 73
3
 74
0
 40
0.523598776
 40
0.523598776
 40
0.523598776
 40
0.905500815
 40
0.905500815
 40
0.905500815
 10
110.366650000
 20
257.971195916
 30
0.000000000
 10
110.398876072
 20
257.951276956
 30
0.000000000
 10
110.421957243
 20
257.920139407
 30
0.000000000
  0
LINE
  5
C90
330
A02
100
AcDbEntity
  8
Shape2DView010
100
AcDbLine
 10
121.178042757
 20
257.920139407
 30
0.000000000
 11
110.421957243
 21
257.920139407
 31
0.000000000
  0
SPLINE
  5
C91
330
A02
100
AcDbEntity
  8
Shape2DView010
100
AcDbSpline
210
0
220
0
230
1
 70
8
 71
2
 72
6
 73
3
 74
0
 40
5.377684492
 40
5.377684492
 40
5.377684492
 40
5.759586532
 40
5.759586532
 40
5.759586532
 10
121.178042757
 20
257.920139407
 30
0.000000000
 10
121.201123928
 20
257.951276956
 30
0.000000000
 10
121.233350000
 20
257.971195916
 30
0.000000000
  0
LINE
  5
C92
330
A02
100
AcDbEntity
  8
Shape2DView010
100
AcDbLine
 10
121.233350000
 20
257.971195916
 30
0.000000000
 11
121.233350000
 21
260.489385135
 31
0.000000000
  0
ELLIPSE
  5
C93
330
A02
100
AcDbEntity
  8
Shape2DView010
100
AcDbEllipse
 10
121.325261087
 20
260.667014952
 30
0.000000000
 11
0.200000000
 21
0.000000000
 31
0.000000000
 40
1.000000000
 41
2.063784678
 42
4.234894396
  0
SPLINE
  5
C94
330
A02
100
AcDbEntity
  8
Shape2DView010
100
AcDbSpline
210
0
220
0
230
1
 70
8
 71
2
 72
6
 73
3
 74
0
 40
5.743098453
 40
5.743098453
 40
5.743098453
 40
6.283185307
 40
6.283185307
 40
6.283185307
 10
121.230608987
 20
260.843199457
 30
0.000000000
 10
121.276491110
 20
260.872071109
 30
0.000000000
 10
121.329793333
 20
260.872416152
 30
0.000000000
  0
SPLINE
  5
C95
330
A02
100
AcDbEntity
  8
Shape2DView010
100
AcDbSpline
210
0
220
0
230
1
 70
8
 71
3
 72
8
 73
4
 74
0
 40
0.000000000
 40
0.000000000
 40
0.000000000
 40
0.000000000
 40
1.047197551
 40
1.047197551
 40
1.047197551
 40
1.047197551
 10
121.329793333
 20
260.872416152
 30
0.000000000
 10
121.397437478
 20
260.872870128
 30
0.000000000
 10
121.463385459
 20
260.832351469
 30
0.000000000
 10
121.496838087
 20
260.769783300
 30
0.000000000
  0
LINE
  5
C96
330
A02
100
AcDbEntity
  8
Shape2DView010
100
AcDbLine
 10
121.496838087
 20
260.769783300
 30
0.000000000
 11
132.783161913
 21
260.769783300
 31
0.000000000
  0
SPLINE
  5
C97
330
A02
100
AcDbEntity
  8
Shape2DView010
100
AcDbSpline
210
0
220
0
230
1
 70
8
 71
3
 72
8
 73
4
 74
0
 40
5.235987756
 40
5.235987756
 40
5.235987756
 40
5.235987756
 40
6.283185307
 40
6.283185307
 40
6.283185307
 40
6.283185307
 10
132.783161913
 20
260.769783300
 30
0.000000000
 10
132.816614541
 20
260.832351469
 30
0.000000000
 10
132.882562522
 20
260.872870128
 30
0.000000000
 10
132.950206667
 20
260.872416152
 30
0.000000000
  0
SPLINE
  5
C98
330
A02
100
AcDbEntity
  8
Shape2DView010
100
AcDbSpline
210
0
220
0
230
1
 70
8
 71
2
 72
6
 73
3
 74
0
 40
0.000000000
 40
0.000000000
 40
0.000000000
 40
0.540086854
 40
0.540086854
 40
0.540086854
 10
132.950206667
 20
260.872416152
 30
0.000000000
 10
133.003508890
 20
260.872071109
 30
0.000000000
 10
133.049391013
 20
260.843199457
 30
0.000000000
  0
ELLIPSE
  5
C99
330
A02
100
AcDbEntity
  8
Shape2DView010
100
AcDbEllipse
 10
132.954738913
 20
260.667014952
 30
0.000000000
 11
0.200000000
 21
0.000000000
 31
0.000000000
 40
1.000000000
 41
5.189883564
 42
1.077807976
  0
LINE
  5
C9A
330
A02
100
AcDbEntity
  8
Shape2DView010
100
AcDbLine
 10
133.046650000
 20
257.971195916
 30
0.000000000
 11
133.046650000
 21
260.489385135
 31
0.000000000
  0
SPLINE
  5
C9B
330
A02
100
AcDbEntity
  8
Shape2DView010
100
AcDbSpline
210
0
220
0
230
1
 70
8
 71
2
 72
6
 73
3
 74
0
 40
0.523598776
 40
0.523598776
 40
0.523598776
 40
0.905500815
 40
0.905500815
 40
0.905500815
 10
133.046650000
 20
257.971195916
 30
0.000000000
 10
133.078876072
 20
257.951276956
 30
0.000000000
 10
133.101957243
 20
257.920139407
 30
0.000000000
  0
LINE
  5
C9C
330
A02
100
AcDbEntity
  8
Shape2DView010
100
AcDbLine
 10
150.800000000
 20
257.920139407
 30
0.000000000
 11
133.101957243
 21
257.920139407
 31
0.000000000
  0
LINE
  5
C9D
330
A02
100
AcDbEntity
  8
Shape2DView010
100
AcDbLine
 10
150.800000000
 20
259.320139407
 30
0.000000000
 11
150.800000000
 21
257.920139407
 31
0.000000000
  0
LINE
  5
C9E
330
A02
100
AcDbEntity
  8
Shape2DView010
100
AcDbLine
 10
153.600000000
 20
259.320139407
 30
0.000000000
 11
150.800000000
 21
259.320139407
 31
0.000000000
  0
LINE
  5
C9F
330
A02
100
AcDbEntity
  8
Shape2DView010
100
AcDbLine
 10
153.600000000
 20
275.732730408
 30
0.000000000
 11
153.600000000
 21
259.320139407
 31
0.000000000
  0
LINE
  5
CA0
330
A02
100
AcDbEntity
  8
Shape2DView010
100
AcDbLine
 10
151.025339318
 20
275.732730408
 30
0.000000000
 11
153.600000000
 21
275.732730408
 31
0.000000000
  0
ELLIPSE
  5
CA1
330
A02
100
AcDbEntity
  8
Shape2DView010
100
AcDbEllipse
 10
150.852905000
 20
275.832285408
 30
0.000000000
 11
0.199110000
 21
0.000000000
 31
0.000000000
 40
1.000000000
 41
2.094395102
 42
5.759586532
  0
LINE
  5
CA2
330
A02
100
AcDbEntity
  8
Shape2DView010
100
AcDbLine
 10
150.753350000
 20
287.274041090
 30
0.000000000
 11
150.753350000
 21
276.004719726
 31
0.000000000
  0
ELLIPSE
  5
CA3
330
A02
100
AcDbEntity
  8
Shape2DView010
100
AcDbEllipse
 10
150.852905000
 20
287.446475408
 30
0.000000000
 11
0.199110000
 21
0.000000000
 31
0.000000000
 40
1.000000000
 41
0.523598776
 42
4.188790205
  0
LINE
  5
CA4
330
A02
100
AcDbEntity
  8
Shape2DView010
100
AcDbLine
 10
151.025339318
 20
287.546030408
 30
0.000000000
 11
153.600000000
 21
287.546030408
 31
0.000000000
  0
LINE
  5
CA5
330
A02
100
AcDbEntity
  8
Shape2DView010
100
AcDbLine
 10
153.600000000
 20
303.320388098
 30
0.000000000
 11
153.600000000
 21
287.546030408
 31
0.000000000
  0
LINE
  5
CA6
330
A02
100
AcDbEntity
  8
Shape2DView010
100
AcDbLine
 10
133.046650000
 20
303.320388098
 30
0.000000000
 11
153.600000000
 21
303.320388098
 31
0.000000000
  0
LINE
  5
CA7
330
A02
100
AcDbEntity
  8
Shape2DView010
100
AcDbLine
 10
133.046650000
 20
300.760189191
 30
0.000000000
 11
133.046650000
 21
303.320388098
 31
0.000000000
  0
ELLIPSE
  5
CA8
330
A02
100
AcDbEntity
  8
Shape2DView010
100
AcDbEllipse
 10
132.949834898
 20
300.585183945
 30
0.000000000
 11
0.200000000
 21
0.000000000
 31
0.000000000
 40
1.000000000
 41
5.953252735
 42
1.065489999
  0
ELLIPSE
  5
CA9
330
A02
100
AcDbEntity
  8
Shape2DView010
100
AcDbEllipse
 10
132.949834898
 20
300.585183945
 30
0.000000000
 11
0.200000000
 21
0.000000000
 31
0.000000000
 40
1.000000000
 41
3.471525226
 42
5.953252735
  0
LINE
  5
CAA
330
A02
100
AcDbEntity
  8
Shape2DView010
100
AcDbLine
 10
121.519377940
 20
300.520388098
 30
0.000000000
 11
132.760622060
 21
300.520388098
 31
0.000000000
  0
ELLIPSE
  5
CAB
330
A02
100
AcDbEntity
  8
Shape2DView010
100
AcDbEllipse
 10
121.330165102
 20
300.585183945
 30
0.000000000
 11
0.200000000
 21
0.000000000
 31
0.000000000
 40
1.000000000
 41
3.471525226
 42
5.953252735
  0
ELLIPSE
  5
CAC
330
A02
100
AcDbEntity
  8
Shape2DView010
100
AcDbEllipse
 10
121.330165102
 20
300.585183945
 30
0.000000000
 11
0.200000000
 21
0.000000000
 31
0.000000000
 40
1.000000000
 41
2.076102655
 42
3.471525226
  0
LINE
  5
CAD
330
A02
100
AcDbEntity
  8
Shape2DView010
100
AcDbLine
 10
121.233350000
 20
300.760189191
 30
0.000000000
 11
121.233350000
 21
303.320388098
 31
0.000000000
  0
LINE
  5
CAE
330
A02
100
AcDbEntity
  8
Shape2DView010
100
AcDbLine
 10
110.366650000
 20
303.320388098
 30
0.000000000
 11
121.233350000
 21
303.320388098
 31
0.000000000
  0
LINE
  5
CAF
330
A02
100
AcDbEntity
  8
Shape2DView010
100
AcDbLine
 10
110.366650000
 20
300.760189191
 30
0.000000000
 11
110.366650000
 21
303.320388098
 31
0.000000000
  0
ELLIPSE
  5
CB0
330
A02
100
AcDbEntity
  8
Shape2DView010
100
AcDbEllipse
 10
110.269834898
 20
300.585183945
 30
0.000000000
 11
0.200000000
 21
0.000000000
 31
0.000000000
 40
1.000000000
 41
5.953252735
 42
1.065489999
  0
ELLIPSE
  5
CB1
330
A02
100
AcDbEntity
  8
Shape2DView010
100
AcDbEllipse
 10
110.269834898
 20
300.585183945
 30
0.000000000
 11
0.200000000
 21
0.000000000
 31
0.000000000
 40
1.000000000
 41
3.471525226
 42
5.953252735
  0
LINE
  5
CB2
330
A02
100
AcDbEntity
  8
Shape2DView010
100
AcDbLine
 10
98.839377940
 20
300.520388098
 30
0.000000000
 11
110.080622060
 21
300.520388098
 31
0.000000000
  0
ELLIPSE
  5
CB3
330
A02
100
AcDbEntity
  8
Shape2DView010
100
AcDbEllipse
 10
98.650165102
 20
300.585183945
 30
0.000000000
 11
0.200000000
 21
0.000000000
 31
0.000000000
 40
1.000000000
 41
3.471525226
 42
5.953252735
  0
ELLIPSE
  5
CB4
330
A02
100
AcDbEntity
  8
Shape2DView010
100
AcDbEllipse
 10
98.650165102
 20
300.585183945
 30
0.000000000
 11
0.200000000
 21
0.000000000
 31
0.000000000
 40
1.000000000
 41
2.076102655
 42
3.471525226
  0
LINE
  5
CB5
330
A02
100
AcDbEntity
  8
Shape2DView010
100
AcDbLine
 10
98.553350000
 20
300.760189191
 30
0.000000000
 11
98.553350000
 21
303.320388098
 31
0.000000000
  0
LINE
  5
CB6
330
A02
100
AcDbEntity
  8
Shape2DView010
100
AcDbLine
 10
78.000000000
 20
287.546030408
 30
0.000000000
 11
78.000000000
 21
303.320388098
 31
0.000000000
  0
ELLIPSE
  5
CB7
330
A02
100
AcDbEntity
  8
Shape2DView010
100
AcDbEllipse
 10
99.800740000
 20
297.639380408
 30
0.000000000
 11
0.500000000
 21
0.000000000
 31
0.000000000
 40
1.000000000
 41
1.570796327
 42
3.141592654
  0
LINE
  5
CB8
330
A02
100
AcDbEntity
  8
Shape2DView010
100
AcDbLine
 10
99.800740000
 20
298.139380408
 30
0.000000000
 11
131.800740000
 21
298.139380408
 31
0.000000000
  0
LINE
  5
CB9
330
A02
100
AcDbEntity
  8
Shape2DView010
100
AcDbLine
 10
99.300740000
 20
265.639380408
 30
0.000000000
 11
99.300740000
 21
297.639380408
 31
0.000000000
  0
ELLIPSE
  5
CBA
330
A02
100
AcDbEntity
  8
Shape2DView010
100
AcDbEllipse
 10
131.800740000
 20
297.639380408
 30
0.000000000
 11
0.500000000
 21
0.000000000
 31
0.000000000
 40
1.000000000
 41
-0.000000000
 42
1.570796327
  0
ELLIPSE
  5
CBB
330
A02
100
AcDbEntity
  8
Shape2DView010
100
AcDbEllipse
 10
99.800740000
 20
265.639380408
 30
0.000000000
 11
0.500000000
 21
0.000000000
 31
0.000000000
 40
1.000000000
 41
3.141592654
 42
4.712388980
  0
LINE
  5
CBC
330
A02
100
AcDbEntity
  8
Shape2DView010
100
AcDbLine
 10
132.300740000
 20
297.639380408
 30
0.000000000
 11
132.300740000
 21
265.639380408
 31
0.000000000
  0
LINE
  5
CBD
330
A02
100
AcDbEntity
  8
Shape2DView010
100
AcDbLine
 10
131.800740000
 20
265.139380408
 30
0.000000000
 11
99.800740000
 21
265.139380408
 31
0.000000000
  0
ELLIPSE
  5
CBE
330
A02
100
AcDbEntity
  8
Shape2DView010
100
AcDbEllipse
 10
131.800740000
 20
265.639380408
 30
0.000000000
 11
0.500000000
 21
0.000000000
 31
0.000000000
 40
1.000000000
 41
4.712388980
 42
6.283185307
  0
SPLINE
  5
CBF
330
A02
100
AcDbEntity
  8
Shape2DView010
100
AcDbSpline
210
0
220
0
230
1
 70
8
 71
3
 72
8
 73
4
 74
0
 40
6.806784083
 40
6.806784083
 40
6.806784083
 40
6.806784083
 40
7.853981634
 40
7.853981634
 40
7.853981634
 40
7.853981634
 10
98.553350000
 20
257.920139393
 30
0.000000000
 10
98.494555153
 20
257.920139395
 30
0.000000000
 10
98.456480068
 20
257.920139398
 30
0.000000000
 10
98.456906667
 20
257.920139401
 30
0.000000000
  0
SPLINE
  5
CC0
330
A02
100
AcDbEntity
  8
Shape2DView010
100
AcDbSpline
210
0
220
0
230
1
 70
8
 71
2
 72
6
 73
3
 74
0
 40
7.853981634
 40
7.853981634
 40
7.853981634
 40
8.475013475
 40
8.475013475
 40
8.475013475
 10
98.456906667
 20
257.920139401
 30
0.000000000
 10
98.457445170
 20
257.920139404
 30
0.000000000
 10
98.492922757
 20
257.920139407
 30
0.000000000
  0
LINE
  5
CC1
330
A02
100
AcDbEntity
  8
Shape2DView010
100
AcDbLine
 10
98.553350000
 20
257.920139393
 30
0.000000000
 11
98.553350000
 21
257.971195916
 31
0.000000000
  0
SPLINE
  5
CC2
330
A02
100
AcDbEntity
  8
Shape2DView010
100
AcDbSpline
210
0
220
0
230
1
 70
8
 71
3
 72
8
 73
4
 74
0
 40
5.252045948
 40
5.252045948
 40
5.252045948
 40
5.252045948
 40
6.760679891
 40
6.760679891
 40
6.760679891
 40
6.760679891
 10
98.816838087
 20
260.769783269
 30
0.000000000
 10
98.765886292
 20
260.858610813
 30
0.000000000
 10
98.643395023
 20
260.893412677
 30
0.000000000
 10
98.553350000
 20
260.844644739
 30
0.000000000
  0
SPLINE
  5
CC3
330
A02
100
AcDbEntity
  8
Shape2DView010
100
AcDbSpline
210
0
220
0
230
1
 70
8
 71
1
 72
4
 73
2
 74
0
 40
0.000000000
 40
0.000000000
 40
0.008295970
 40
0.008295970
 10
98.553350000
 20
260.844644753
 30
0.000000000
 10
98.550608993
 20
260.843199445
 30
0.000000000
  0
SPLINE
  5
CC4
330
A02
100
AcDbEntity
  8
Shape2DView010
100
AcDbSpline
210
0
220
0
230
1
 70
8
 71
2
 72
6
 73
3
 74
0
 40
0.008297414
 40
0.008297414
 40
0.008297414
 40
0.398762692
 40
0.398762692
 40
0.398762692
 10
98.550608521
 20
260.843199191
 30
0.000000000
 10
98.488387070
 20
260.804983584
 30
0.000000000
 10
98.468343655
 20
260.760289917
 30
0.000000000
  0
SPLINE
  5
CC5
330
A02
100
AcDbEntity
  8
Shape2DView010
100
AcDbSpline
210
0
220
0
230
1
 70
8
 71
3
 72
11
 73
7
 74
0
 40
0.580538253
 40
0.580538253
 40
0.580538253
 40
0.580538253
 40
0.783979102
 40
0.783979102
 40
0.783979102
 40
0.995875396
 40
0.995875396
 40
0.995875396
 40
0.995875396
 10
98.456906667
 20
260.734265321
 30
0.000000000
 10
98.456523982
 20
260.733607403
 30
0.000000000
 10
98.466289397
 20
260.761294901
 30
0.000000000
 10
98.482183383
 20
260.782797776
 30
0.000000000
 10
98.499530807
 20
260.807466659
 30
0.000000000
 10
98.522339341
 20
260.827600553
 30
0.000000000
 10
98.550608986
 20
260.843199459
 30
0.000000000
  0
LINE
  5
CC6
330
A02
100
AcDbEntity
  8
Shape2DView010
100
AcDbLine
 10
98.553350000
 20
260.844644753
 30
0.000000000
 11
98.553350000
 21
260.844915762
 31
0.000000000
  0
SPLINE
  5
CC7
330
A02
100
AcDbEntity
  8
Shape2DView010
100
AcDbSpline
210
0
220
0
230
1
 70
8
 71
3
 72
8
 73
4
 74
0
 40
0.534776667
 40
0.534776667
 40
0.534776667
 40
0.534776667
 40
1.000000000
 40
1.000000000
 40
1.000000000
 40
1.000000000
 10
110.457870367
 20
260.747407001
 30
0.000000000
 10
110.445016190
 20
260.776805178
 30
0.000000000
 10
110.417924515
 20
260.818054615
 30
0.000000000
 10
110.366650000
 20
260.844644753
 30
0.000000000
  0
LINE
  5
CC8
330
A02
100
AcDbEntity
  8
Shape2DView010
100
AcDbLine
 10
110.366650000
 20
260.844644753
 30
0.000000000
 11
110.366650000
 21
260.844915762
 31
0.000000000
  0
SPLINE
  5
CC9
330
A02
100
AcDbEntity
  8
Shape2DView010
100
AcDbSpline
210
0
220
0
230
1
 70
8
 71
3
 72
8
 73
4
 74
0
 40
5.805690723
 40
5.805690723
 40
5.805690723
 40
5.805690723
 40
7.314324667
 40
7.314324667
 40
7.314324667
 40
7.314324667
 10
110.366650000
 20
260.844644739
 30
0.000000000
 10
110.276604977
 20
260.893412677
 30
0.000000000
 10
110.154113708
 20
260.858610813
 30
0.000000000
 10
110.103161913
 20
260.769783269
 30
0.000000000
  0
LINE
  5
CCA
330
A02
100
AcDbEntity
  8
Shape2DView010
100
AcDbLine
 10
110.366650000
 20
257.920139393
 30
0.000000000
 11
110.366650000
 21
257.971195916
 31
0.000000000
  0
SPLINE
  5
CCB
330
A02
100
AcDbEntity
  8
Shape2DView010
100
AcDbSpline
210
0
220
0
230
1
 70
8
 71
2
 72
6
 73
3
 74
0
 40
4.091357139
 40
4.091357139
 40
4.091357139
 40
4.712388980
 40
4.712388980
 40
4.712388980
 10
110.427077243
 20
257.920139407
 30
0.000000000
 10
110.462554830
 20
257.920139404
 30
0.000000000
 10
110.463093333
 20
257.920139401
 30
0.000000000
  0
SPLINE
  5
CCC
330
A02
100
AcDbEntity
  8
Shape2DView010
100
AcDbSpline
210
0
220
0
230
1
 70
8
 71
3
 72
8
 73
4
 74
0
 40
4.712388980
 40
4.712388980
 40
4.712388980
 40
4.712388980
 40
5.759586532
 40
5.759586532
 40
5.759586532
 40
5.759586532
 10
110.463093333
 20
257.920139401
 30
0.000000000
 10
110.463519932
 20
257.920139398
 30
0.000000000
 10
110.425444847
 20
257.920139395
 30
0.000000000
 10
110.366650000
 20
257.920139393
 30
0.000000000
  0
SPLINE
  5
CCD
330
A02
100
AcDbEntity
  8
Shape2DView010
100
AcDbSpline
210
0
220
0
230
1
 70
8
 71
3
 72
8
 73
4
 74
0
 40
6.806784083
 40
6.806784083
 40
6.806784083
 40
6.806784083
 40
7.853981634
 40
7.853981634
 40
7.853981634
 40
7.853981634
 10
121.233350000
 20
257.920139393
 30
0.000000000
 10
121.174555153
 20
257.920139395
 30
0.000000000
 10
121.136480068
 20
257.920139398
 30
0.000000000
 10
121.136906667
 20
257.920139401
 30
0.000000000
  0
SPLINE
  5
CCE
330
A02
100
AcDbEntity
  8
Shape2DView010
100
AcDbSpline
210
0
220
0
230
1
 70
8
 71
2
 72
6
 73
3
 74
0
 40
7.853981634
 40
7.853981634
 40
7.853981634
 40
8.475013475
 40
8.475013475
 40
8.475013475
 10
121.136906667
 20
257.920139401
 30
0.000000000
 10
121.137445170
 20
257.920139404
 30
0.000000000
 10
121.172922757
 20
257.920139407
 30
0.000000000
  0
LINE
  5
CCF
330
A02
100
AcDbEntity
  8
Shape2DView010
100
AcDbLine
 10
121.233350000
 20
257.920139393
 30
0.000000000
 11
121.233350000
 21
257.971195916
 31
0.000000000
  0
SPLINE
  5
CD0
330
A02
100
AcDbEntity
  8
Shape2DView010
100
AcDbSpline
210
0
220
0
230
1
 70
8
 71
3
 72
8
 73
4
 74
0
 40
5.252045948
 40
5.252045948
 40
5.252045948
 40
5.252045948
 40
6.760679891
 40
6.760679891
 40
6.760679891
 40
6.760679891
 10
121.496838087
 20
260.769783269
 30
0.000000000
 10
121.445886292
 20
260.858610813
 30
0.000000000
 10
121.323395023
 20
260.893412677
 30
0.000000000
 10
121.233350000
 20
260.844644739
 30
0.000000000
  0
SPLINE
  5
CD1
330
A02
100
AcDbEntity
  8
Shape2DView010
100
AcDbSpline
210
0
220
0
230
1
 70
8
 71
1
 72
4
 73
2
 74
0
 40
0.000000000
 40
0.000000000
 40
0.008295973
 40
0.008295973
 10
121.233350000
 20
260.844644753
 30
0.000000000
 10
121.230608993
 20
260.843199445
 30
0.000000000
  0
SPLINE
  5
CD2
330
A02
100
AcDbEntity
  8
Shape2DView010
100
AcDbSpline
210
0
220
0
230
1
 70
8
 71
2
 72
6
 73
3
 74
0
 40
0.008297417
 40
0.008297417
 40
0.008297417
 40
0.398762858
 40
0.398762858
 40
0.398762858
 10
121.230608521
 20
260.843199191
 30
0.000000000
 10
121.168387068
 20
260.804983582
 30
0.000000000
 10
121.148343653
 20
260.760289913
 30
0.000000000
  0
SPLINE
  5
CD3
330
A02
100
AcDbEntity
  8
Shape2DView010
100
AcDbSpline
210
0
220
0
230
1
 70
8
 71
3
 72
11
 73
7
 74
0
 40
0.580538472
 40
0.580538472
 40
0.580538472
 40
0.580538472
 40
0.783979273
 40
0.783979273
 40
0.783979273
 40
0.995875399
 40
0.995875399
 40
0.995875399
 40
0.995875399
 10
121.136906667
 20
260.734265321
 30
0.000000000
 10
121.136523980
 20
260.733607394
 30
0.000000000
 10
121.146289384
 20
260.761294878
 30
0.000000000
 10
121.162183383
 20
260.782797776
 30
0.000000000
 10
121.179530807
 20
260.807466659
 30
0.000000000
 10
121.202339341
 20
260.827600553
 30
0.000000000
 10
121.230608986
 20
260.843199459
 30
0.000000000
  0
LINE
  5
CD4
330
A02
100
AcDbEntity
  8
Shape2DView010
100
AcDbLine
 10
121.233350000
 20
260.844644753
 30
0.000000000
 11
121.233350000
 21
260.844915762
 31
0.000000000
  0
SPLINE
  5
CD5
330
A02
100
AcDbEntity
  8
Shape2DView010
100
AcDbSpline
210
0
220
0
230
1
 70
8
 71
3
 72
8
 73
4
 74
0
 40
0.534776455
 40
0.534776455
 40
0.534776455
 40
0.534776455
 40
1.000000000
 40
1.000000000
 40
1.000000000
 40
1.000000000
 10
133.137870366
 20
260.747407005
 30
0.000000000
 10
133.125016187
 20
260.776805181
 30
0.000000000
 10
133.097924513
 20
260.818054616
 30
0.000000000
 10
133.046650000
 20
260.844644753
 30
0.000000000
  0
LINE
  5
CD6
330
A02
100
AcDbEntity
  8
Shape2DView010
100
AcDbLine
 10
133.046650000
 20
260.844644753
 30
0.000000000
 11
133.046650000
 21
260.844915762
 31
0.000000000
  0
SPLINE
  5
CD7
330
A02
100
AcDbEntity
  8
Shape2DView010
100
AcDbSpline
210
0
220
0
230
1
 70
8
 71
3
 72
8
 73
4
 74
0
 40
5.805690723
 40
5.805690723
 40
5.805690723
 40
5.805690723
 40
7.314324667
 40
7.314324667
 40
7.314324667
 40
7.314324667
 10
133.046650000
 20
260.844644739
 30
0.000000000
 10
132.956604977
 20
260.893412677
 30
0.000000000
 10
132.834113708
 20
260.858610813
 30
0.000000000
 10
132.783161913
 20
260.769783269
 30
0.000000000
  0
LINE
  5
CD8
330
A02
100
AcDbEntity
  8
Shape2DView010
100
AcDbLine
 10
133.046650000
 20
257.920139393
 30
0.000000000
 11
133.046650000
 21
257.971195916
 31
0.000000000
  0
SPLINE
  5
CD9
330
A02
100
AcDbEntity
  8
Shape2DView010
100
AcDbSpline
210
0
220
0
230
1
 70
8
 71
2
 72
6
 73
3
 74
0
 40
4.091357139
 40
4.091357139
 40
4.091357139
 40
4.712388980
 40
4.712388980
 40
4.712388980
 10
133.107077243
 20
257.920139407
 30
0.000000000
 10
133.142554830
 20
257.920139404
 30
0.000000000
 10
133.143093333
 20
257.920139401
 30
0.000000000
  0
SPLINE
  5
CDA
330
A02
100
AcDbEntity
  8
Shape2DView010
100
AcDbSpline
210
0
220
0
230
1
 70
8
 71
3
 72
8
 73
4
 74
0
 40
4.712388980
 40
4.712388980
 40
4.712388980
 40
4.712388980
 40
5.759586532
 40
5.759586532
 40
5.759586532
 40
5.759586532
 10
133.143093333
 20
257.920139401
 30
0.000000000
 10
133.143519932
 20
257.920139398
 30
0.000000000
 10
133.105444847
 20
257.920139395
 30
0.000000000
 10
133.046650000
 20
257.920139393
 30
0.000000000
  0
SPLINE
  5
CDB
330
A02
100
AcDbEntity
  8
Shape2DView010
100
AcDbSpline
210
0
220
0
230
1
 70
8
 71
1
 72
4
 73
2
 74
0
 40
0.000000000
 40
0.000000000
 40
0.040563579
 40
0.040563579
 10
133.046650000
 20
300.760189191
 30
0.000000000
 10
133.064032089
 20
300.749375911
 30
0.000000000
  0
SPLINE
  5
CDC
330
A02
100
AcDbEntity
  8
Shape2DView010
100
AcDbSpline
210
0
220
0
230
1
 70
8
 71
3
 72
8
 73
4
 74
0
 40
0.401963555
 40
0.401963555
 40
0.401963555
 40
0.401963555
 40
0.601507636
 40
0.601507636
 40
0.601507636
 40
0.601507636
 10
133.146205006
 20
300.623115238
 30
0.000000000
 10
133.145755080
 20
300.626277890
 30
0.000000000
 10
133.140982915
 20
300.647793848
 30
0.000000000
 10
133.133793139
 20
300.663665579
 30
0.000000000
  0
SPLINE
  5
CDD
330
A02
100
AcDbEntity
  8
Shape2DView010
100
AcDbSpline
210
0
220
0
230
1
 70
8
 71
2
 72
6
 73
3
 74
0
 40
0.605369106
 40
0.605369106
 40
0.605369106
 40
1.000000000
 40
1.000000000
 40
1.000000000
 10
133.133364556
 20
300.664662663
 30
0.000000000
 10
133.113156893
 20
300.718598382
 30
0.000000000
 10
133.046650000
 20
300.760189175
 30
0.000000000
  0
SPLINE
  5
CDE
330
A02
100
AcDbEntity
  8
Shape2DView010
100
AcDbSpline
210
0
220
0
230
1
 70
8
 71
1
 72
4
 73
2
 74
0
 40
0.973118339
 40
0.973118339
 40
0.998666518
 40
0.998666518
 10
121.144612943
 20
300.510548863
 30
0.000000000
 10
121.140952264
 20
300.520388096
 30
0.000000000
  0
SPLINE
  5
CDF
330
A02
100
AcDbEntity
  8
Shape2DView010
100
AcDbSpline
210
0
220
0
230
1
 70
8
 71
3
 72
8
 73
4
 74
0
 40
0.000000000
 40
0.000000000
 40
0.000000000
 40
0.000000000
 40
0.471097761
 40
0.471097761
 40
0.471097761
 40
0.471097761
 10
121.233350000
 20
300.760189175
 30
0.000000000
 10
121.177911044
 20
300.729083986
 30
0.000000000
 10
121.150910725
 20
300.682431217
 30
0.000000000
 10
121.138908643
 20
300.643673025
 30
0.000000000
  0
SPLINE
  5
CE0
330
A02
100
AcDbEntity
  8
Shape2DView010
100
AcDbSpline
210
0
220
0
230
1
 70
8
 71
3
 72
8
 73
4
 74
0
 40
0.591231577
 40
0.591231577
 40
0.591231577
 40
0.591231577
 40
0.774821226
 40
0.774821226
 40
0.774821226
 40
0.774821226
 10
121.133795000
 20
300.623115239
 30
0.000000000
 10
121.133723626
 20
300.625386676
 30
0.000000000
 10
121.142350897
 20
300.661889313
 30
0.000000000
 10
121.156339149
 20
300.684100826
 30
0.000000000
  0
SPLINE
  5
CE1
330
A02
100
AcDbEntity
  8
Shape2DView010
100
AcDbSpline
210
0
220
0
230
1
 70
8
 71
1
 72
4
 73
2
 74
0
 40
0.000000000
 40
0.000000000
 40
0.040563579
 40
0.040563579
 10
110.366650000
 20
300.760189191
 30
0.000000000
 10
110.384032089
 20
300.749375911
 30
0.000000000
  0
SPLINE
  5
CE2
330
A02
100
AcDbEntity
  8
Shape2DView010
100
AcDbSpline
210
0
220
0
230
1
 70
8
 71
3
 72
8
 73
4
 74
0
 40
0.401963555
 40
0.401963555
 40
0.401963555
 40
0.401963555
 40
0.601507636
 40
0.601507636
 40
0.601507636
 40
0.601507636
 10
110.466205006
 20
300.623115238
 30
0.000000000
 10
110.465755079
 20
300.626277890
 30
0.000000000
 10
110.460982915
 20
300.647793848
 30
0.000000000
 10
110.453793139
 20
300.663665579
 30
0.000000000
  0
SPLINE
  5
CE3
330
A02
100
AcDbEntity
  8
Shape2DView010
100
AcDbSpline
210
0
220
0
230
1
 70
8
 71
2
 72
6
 73
3
 74
0
 40
0.605369106
 40
0.605369106
 40
0.605369106
 40
1.000000000
 40
1.000000000
 40
1.000000000
 10
110.453364556
 20
300.664662663
 30
0.000000000
 10
110.433156893
 20
300.718598382
 30
0.000000000
 10
110.366650000
 20
300.760189175
 30
0.000000000
  0
SPLINE
  5
CE4
330
A02
100
AcDbEntity
  8
Shape2DView010
100
AcDbSpline
210
0
220
0
230
1
 70
8
 71
1
 72
4
 73
2
 74
0
 40
0.973118339
 40
0.973118339
 40
0.998666518
 40
0.998666518
 10
98.464612943
 20
300.510548863
 30
0.000000000
 10
98.460952264
 20
300.520388096
 30
0.000000000
  0
SPLINE
  5
CE5
330
A02
100
AcDbEntity
  8
Shape2DView010
100
AcDbSpline
210
0
220
0
230
1
 70
8
 71
3
 72
8
 73
4
 74
0
 40
0.000000000
 40
0.000000000
 40
0.000000000
 40
0.000000000
 40
0.471097761
 40
0.471097761
 40
0.471097761
 40
0.471097761
 10
98.553350000
 20
300.760189175
 30
0.000000000
 10
98.497911044
 20
300.729083986
 30
0.000000000
 10
98.470910725
 20
300.682431217
 30
0.000000000
 10
98.458908643
 20
300.643673025
 30
0.000000000
  0
SPLINE
  5
CE6
330
A02
100
AcDbEntity
  8
Shape2DView010
100
AcDbSpline
210
0
220
0
230
1
 70
8
 71
3
 72
8
 73
4
 74
0
 40
0.591231578
 40
0.591231578
 40
0.591231578
 40
0.591231578
 40
0.774821227
 40
0.774821227
 40
0.774821227
 40
0.774821227
 10
98.453795000
 20
300.623115239
 30
0.000000000
 10
98.453723626
 20
300.625386676
 30
0.000000000
 10
98.462350897
 20
300.661889314
 30
0.000000000
 10
98.476339149
 20
300.684100826
 30
0.000000000
  0
LINE
  5
CE7
330
A02
100
AcDbEntity
  8
Shape2DView010
100
AcDbLine
 10
98.816838087
 20
260.769783269
 30
0.000000000
 11
110.103161913
 21
260.769783269
 31
0.000000000
  0
LINE
  5
CE8
330
A02
100
AcDbEntity
  8
Shape2DView010
100
AcDbLine
 10
121.496838087
 20
260.769783269
 30
0.000000000
 11
132.783161913
 21
260.769783269
 31
0.000000000
  0
LINE
  5
CE9
330
A02
100
AcDbEntity
  8
Shape2DView010
100
AcDbLine
 10
98.553350000
 20
260.844644739
 30
0.000000000
 11
98.553350000
 21
260.844915762
 31
0.000000000
  0
LINE
  5
CEA
330
A02
100
AcDbEntity
  8
Shape2DView011
100
AcDbLine
 10
160.940449377
 20
185.975827170
 30
0.000000000
 11
159.200000000
 21
186.628495686
 31
0.000000000
  0
ARC
  5
CEB
330
A02
100
AcDbEntity
  8
Shape2DView011
100
AcDbCircle
 10
160.800000000
 20
185.601295499
 30
0.000000000
 40
0.400000000
100
AcDbArc
 50
0.000000000
 51
69.443954780
  0
LINE
  5
CEC
330
A02
100
AcDbEntity
  8
Shape2DView011
100
AcDbLine
 10
159.200000000
 20
186.628495686
 30
0.000000000
 11
159.200000000
 21
185.878495686
 31
0.000000000
  0
LINE
  5
CED
330
A02
100
AcDbEntity
  8
Shape2DView011
100
AcDbLine
 10
161.200000000
 20
185.601295499
 30
0.000000000
 11
161.200000000
 21
183.478495686
 31
0.000000000
  0
LINE
  5
CEE
330
A02
100
AcDbEntity
  8
Shape2DView011
100
AcDbLine
 10
156.400000000
 20
185.878495686
 30
0.000000000
 11
159.200000000
 21
185.878495686
 31
0.000000000
  0
ARC
  5
CEF
330
A02
100
AcDbEntity
  8
Shape2DView011
100
AcDbCircle
 10
160.800000000
 20
183.478495686
 30
0.000000000
 40
0.400000000
100
AcDbArc
 50
-90.000000000
 51
0.000000000
  0
LINE
  5
CF0
330
A02
100
AcDbEntity
  8
Shape2DView011
100
AcDbLine
 10
156.400000000
 20
187.357205537
 30
0.000000000
 11
156.400000000
 21
185.878495686
 31
0.000000000
  0
LINE
  5
CF1
330
A02
100
AcDbEntity
  8
Shape2DView011
100
AcDbLine
 10
160.800000000
 20
183.078495686
 30
0.000000000
 11
147.200000000
 21
183.078495686
 31
0.000000000
  0
ARC
  5
CF2
330
A02
100
AcDbEntity
  8
Shape2DView011
100
AcDbCircle
 10
156.000000000
 20
187.357205537
 30
0.000000000
 40
0.400000000
100
AcDbArc
 50
0.000000000
 51
105.000000000
  0
ARC
  5
CF3
330
A02
100
AcDbEntity
  8
Shape2DView011
100
AcDbCircle
 10
147.200000000
 20
182.678495686
 30
0.000000000
 40
0.400000000
100
AcDbArc
 50
90.000000000
 51
-90.000000000
  0
LINE
  5
CF4
330
A02
100
AcDbEntity
  8
Shape2DView011
100
AcDbLine
 10
148.935898385
 20
185.878495686
 30
0.000000000
 11
155.896472382
 21
187.743575867
 31
0.000000000
  0
LINE
  5
CF5
330
A02
100
AcDbEntity
  8
Shape2DView011
100
AcDbLine
 10
147.200000000
 20
182.278495686
 30
0.000000000
 11
160.800000000
 21
182.278495686
 31
0.000000000
  0
LINE
  5
CF6
330
A02
100
AcDbEntity
  8
Shape2DView011
100
AcDbLine
 10
140.646650000
 20
185.878495686
 30
0.000000000
 11
148.935898385
 21
185.878495686
 31
0.000000000
  0
ARC
  5
CF7
330
A02
100
AcDbEntity
  8
Shape2DView011
100
AcDbCircle
 10
160.800000000
 20
181.878495686
 30
0.000000000
 40
0.400000000
100
AcDbArc
 50
0.000000000
 51
90.000000000
  0
LINE
  5
CF8
330
A02
100
AcDbEntity
  8
Shape2DView011
100
AcDbLine
 10
140.646650000
 20
185.878495686
 30
0.000000000
 11
140.646650000
 21
183.303835004
 31
0.000000000
  0
LINE
  5
CF9
330
A02
100
AcDbEntity
  8
Shape2DView011
100
AcDbLine
 10
161.200000000
 20
181.878495686
 30
0.000000000
 11
161.200000000
 21
171.485145686
 31
0.000000000
  0
ARC
  5
CFA
330
A02
100
AcDbEntity
  8
Shape2DView011
100
AcDbCircle
 10
140.547095000
 20
183.131400686
 30
0.000000000
 40
0.199110000
100
AcDbArc
 50
-90.000000000
 51
60.000000000
  0
LINE
  5
CFB
330
A02
100
AcDbEntity
  8
Shape2DView011
100
AcDbLine
 10
158.625339318
 20
171.485145686
 30
0.000000000
 11
161.200000000
 21
171.485145686
 31
0.000000000
  0
ARC
  5
CFC
330
A02
100
AcDbEntity
  8
Shape2DView011
100
AcDbCircle
 10
140.547095000
 20
183.131400686
 30
0.000000000
 40
0.199110000
100
AcDbArc
 50
-150.000000000
 51
-90.000000000
  0
ARC
  5
CFD
330
A02
100
AcDbEntity
  8
Shape2DView011
100
AcDbCircle
 10
158.452905000
 20
171.385590686
 30
0.000000000
 40
0.199110000
100
AcDbArc
 50
30.000000000
 51
-120.000000000
  0
LINE
  5
CFE
330
A02
100
AcDbEntity
  8
Shape2DView011
100
AcDbLine
 10
140.374660682
 20
183.031845686
 30
0.000000000
 11
129.105339318
 21
183.031845686
 31
0.000000000
  0
LINE
  5
CFF
330
A02
100
AcDbEntity
  8
Shape2DView011
100
AcDbLine
 10
158.353350000
 20
171.213156368
 30
0.000000000
 11
158.353350000
 21
159.943835004
 31
0.000000000
  0
ARC
  5
D00
330
A02
100
AcDbEntity
  8
Shape2DView011
100
AcDbCircle
 10
128.932905000
 20
183.131400686
 30
0.000000000
 40
0.199110000
100
AcDbArc
 50
-90.000000000
 51
-30.000000000
  0
ARC
  5
D01
330
A02
100
AcDbEntity
  8
Shape2DView011
100
AcDbCircle
 10
158.452905000
 20
159.771400686
 30
0.000000000
 40
0.199110000
100
AcDbArc
 50
120.000000000
 51
-30.000000000
  0
ARC
  5
D02
330
A02
100
AcDbEntity
  8
Shape2DView011
100
AcDbCircle
 10
128.932905000
 20
183.131400686
 30
0.000000000
 40
0.199110000
100
AcDbArc
 50
120.000000000
 51
-90.000000000
  0
LINE
  5
D03
330
A02
100
AcDbEntity
  8
Shape2DView011
100
AcDbLine
 10
158.625339318
 20
159.671845686
 30
0.000000000
 11
161.200000000
 21
159.671845686
 31
0.000000000
  0
LINE
  5
D04
330
A02
100
AcDbEntity
  8
Shape2DView011
100
AcDbLine
 10
128.833350000
 20
185.878495686
 30
0.000000000
 11
128.833350000
 21
183.303835004
 31
0.000000000
  0
LINE
  5
D05
330
A02
100
AcDbEntity
  8
Shape2DView011
100
AcDbLine
 10
161.200000000
 20
159.671845686
 30
0.000000000
 11
161.200000000
 21
149.278495686
 31
0.000000000
  0
LINE
  5
D06
330
A02
100
AcDbEntity
  8
Shape2DView011
100
AcDbLine
 10
117.966650000
 20
185.878495686
 30
0.000000000
 11
128.833350000
 21
185.878495686
 31
0.000000000
  0
ARC
  5
D07
330
A02
100
AcDbEntity
  8
Shape2DView011
100
AcDbCircle
 10
160.800000000
 20
149.278495686
 30
0.000000000
 40
0.400000000
100
AcDbArc
 50
-90.000000000
 51
0.000000000
  0
LINE
  5
D08
330
A02
100
AcDbEntity
  8
Shape2DView011
100
AcDbLine
 10
117.966650000
 20
185.878495686
 30
0.000000000
 11
117.966650000
 21
183.303835004
 31
0.000000000
  0
LINE
  5
D09
330
A02
100
AcDbEntity
  8
Shape2DView011
100
AcDbLine
 10
160.800000000
 20
148.878495686
 30
0.000000000
 11
147.200000000
 21
148.878495686
 31
0.000000000
  0
ARC
  5
D0A
330
A02
100
AcDbEntity
  8
Shape2DView011
100
AcDbCircle
 10
117.867095000
 20
183.131400686
 30
0.000000000
 40
0.199110000
100
AcDbArc
 50
-90.000000000
 51
60.000000000
  0
ARC
  5
D0B
330
A02
100
AcDbEntity
  8
Shape2DView011
100
AcDbCircle
 10
147.200000000
 20
148.478495686
 30
0.000000000
 40
0.400000000
100
AcDbArc
 50
90.000000000
 51
-90.000000000
  0
ARC
  5
D0C
330
A02
100
AcDbEntity
  8
Shape2DView011
100
AcDbCircle
 10
117.867095000
 20
183.131400686
 30
0.000000000
 40
0.199110000
100
AcDbArc
 50
-150.000000000
 51
-90.000000000
  0
LINE
  5
D0D
330
A02
100
AcDbEntity
  8
Shape2DView011
100
AcDbLine
 10
147.200000000
 20
148.078495686
 30
0.000000000
 11
160.800000000
 21
148.078495686
 31
0.000000000
  0
LINE
  5
D0E
330
A02
100
AcDbEntity
  8
Shape2DView011
100
AcDbLine
 10
117.694660682
 20
183.031845686
 30
0.000000000
 11
106.425339318
 21
183.031845686
 31
0.000000000
  0
ARC
  5
D0F
330
A02
100
AcDbEntity
  8
Shape2DView011
100
AcDbCircle
 10
160.800000000
 20
147.678495686
 30
0.000000000
 40
0.400000000
100
AcDbArc
 50
0.000000000
 51
90.000000000
  0
ARC
  5
D10
330
A02
100
AcDbEntity
  8
Shape2DView011
100
AcDbCircle
 10
106.252905000
 20
183.131400686
 30
0.000000000
 40
0.199110000
100
AcDbArc
 50
-90.000000000
 51
-30.000000000
  0
LINE
  5
D11
330
A02
100
AcDbEntity
  8
Shape2DView011
100
AcDbLine
 10
161.200000000
 20
147.678495686
 30
0.000000000
 11
161.200000000
 21
145.555695873
 31
0.000000000
  0
ARC
  5
D12
330
A02
100
AcDbEntity
  8
Shape2DView011
100
AcDbCircle
 10
106.252905000
 20
183.131400686
 30
0.000000000
 40
0.199110000
100
AcDbArc
 50
120.000000000
 51
-90.000000000
  0
ARC
  5
D13
330
A02
100
AcDbEntity
  8
Shape2DView011
100
AcDbCircle
 10
160.800000000
 20
145.555695873
 30
0.000000000
 40
0.400000000
100
AcDbArc
 50
-69.443954780
 51
0.000000000
  0
LINE
  5
D14
330
A02
100
AcDbEntity
  8
Shape2DView011
100
AcDbLine
 10
106.153350000
 20
185.878495686
 30
0.000000000
 11
106.153350000
 21
183.303835004
 31
0.000000000
  0
LINE
  5
D15
330
A02
100
AcDbEntity
  8
Shape2DView011
100
AcDbLine
 10
160.940449377
 20
145.181164202
 30
0.000000000
 11
159.200000000
 21
144.528495686
 31
0.000000000
  0
LINE
  5
D16
330
A02
100
AcDbEntity
  8
Shape2DView011
100
AcDbLine
 10
97.864101615
 20
185.878495686
 30
0.000000000
 11
106.153350000
 21
185.878495686
 31
0.000000000
  0
LINE
  5
D17
330
A02
100
AcDbEntity
  8
Shape2DView011
100
AcDbLine
 10
159.200000000
 20
144.528495686
 30
0.000000000
 11
159.200000000
 21
145.278495686
 31
0.000000000
  0
LINE
  5
D18
330
A02
100
AcDbEntity
  8
Shape2DView011
100
AcDbLine
 10
90.903527618
 20
187.743575867
 30
0.000000000
 11
97.864101615
 21
185.878495686
 31
0.000000000
  0
LINE
  5
D19
330
A02
100
AcDbEntity
  8
Shape2DView011
100
AcDbLine
 10
159.200000000
 20
145.278495686
 30
0.000000000
 11
156.400000000
 21
145.278495686
 31
0.000000000
  0
ARC
  5
D1A
330
A02
100
AcDbEntity
  8
Shape2DView011
100
AcDbCircle
 10
90.800000000
 20
187.357205537
 30
0.000000000
 40
0.400000000
100
AcDbArc
 50
75.000000000
 51
180.000000000
  0
LINE
  5
D1B
330
A02
100
AcDbEntity
  8
Shape2DView011
100
AcDbLine
 10
156.400000000
 20
145.278495686
 30
0.000000000
 11
156.400000000
 21
143.799785835
 31
0.000000000
  0
LINE
  5
D1C
330
A02
100
AcDbEntity
  8
Shape2DView011
100
AcDbLine
 10
90.400000000
 20
185.878495686
 30
0.000000000
 11
90.400000000
 21
187.357205537
 31
0.000000000
  0
ARC
  5
D1D
330
A02
100
AcDbEntity
  8
Shape2DView011
100
AcDbCircle
 10
156.000000000
 20
143.799785835
 30
0.000000000
 40
0.400000000
100
AcDbArc
 50
-105.000000000
 51
0.000000000
  0
LINE
  5
D1E
330
A02
100
AcDbEntity
  8
Shape2DView011
100
AcDbLine
 10
87.600000000
 20
185.878495686
 30
0.000000000
 11
90.400000000
 21
185.878495686
 31
0.000000000
  0
LINE
  5
D1F
330
A02
100
AcDbEntity
  8
Shape2DView011
100
AcDbLine
 10
155.896472382
 20
143.413415504
 30
0.000000000
 11
148.935898385
 21
145.278495686
 31
0.000000000
  0
LINE
  5
D20
330
A02
100
AcDbEntity
  8
Shape2DView011
100
AcDbLine
 10
87.600000000
 20
186.628495686
 30
0.000000000
 11
87.600000000
 21
185.878495686
 31
0.000000000
  0
LINE
  5
D21
330
A02
100
AcDbEntity
  8
Shape2DView011
100
AcDbLine
 10
148.935898385
 20
145.278495686
 30
0.000000000
 11
140.646650000
 21
145.278495686
 31
0.000000000
  0
LINE
  5
D22
330
A02
100
AcDbEntity
  8
Shape2DView011
100
AcDbLine
 10
85.859550623
 20
185.975827170
 30
0.000000000
 11
87.600000000
 21
186.628495686
 31
0.000000000
  0
LINE
  5
D23
330
A02
100
AcDbEntity
  8
Shape2DView011
100
AcDbLine
 10
140.646650000
 20
145.278495686
 30
0.000000000
 11
140.646650000
 21
147.853156368
 31
0.000000000
  0
ARC
  5
D24
330
A02
100
AcDbEntity
  8
Shape2DView011
100
AcDbCircle
 10
86.000000000
 20
185.601295499
 30
0.000000000
 40
0.400000000
100
AcDbArc
 50
110.556045220
 51
180.000000000
  0
ARC
  5
D25
330
A02
100
AcDbEntity
  8
Shape2DView011
100
AcDbCircle
 10
140.547095000
 20
148.025590686
 30
0.000000000
 40
0.199110000
100
AcDbArc
 50
-60.000000000
 51
90.000000000
  0
LINE
  5
D26
330
A02
100
AcDbEntity
  8
Shape2DView011
100
AcDbLine
 10
85.600000000
 20
183.478495686
 30
0.000000000
 11
85.600000000
 21
185.601295499
 31
0.000000000
  0
ARC
  5
D27
330
A02
100
AcDbEntity
  8
Shape2DView011
100
AcDbCircle
 10
140.547095000
 20
148.025590686
 30
0.000000000
 40
0.199110000
100
AcDbArc
 50
90.000000000
 51
150.000000000
  0
ARC
  5
D28
330
A02
100
AcDbEntity
  8
Shape2DView011
100
AcDbCircle
 10
86.000000000
 20
183.478495686
 30
0.000000000
 40
0.400000000
100
AcDbArc
 50
180.000000000
 51
-90.000000000
  0
LINE
  5
D29
330
A02
100
AcDbEntity
  8
Shape2DView011
100
AcDbLine
 10
129.105339318
 20
148.125145686
 30
0.000000000
 11
140.374660682
 21
148.125145686
 31
0.000000000
  0
LINE
  5
D2A
330
A02
100
AcDbEntity
  8
Shape2DView011
100
AcDbLine
 10
99.600000000
 20
183.078495686
 30
0.000000000
 11
86.000000000
 21
183.078495686
 31
0.000000000
  0
ARC
  5
D2B
330
A02
100
AcDbEntity
  8
Shape2DView011
100
AcDbCircle
 10
128.932905000
 20
148.025590686
 30
0.000000000
 40
0.199110000
100
AcDbArc
 50
30.000000000
 51
90.000000000
  0
ARC
  5
D2C
330
A02
100
AcDbEntity
  8
Shape2DView011
100
AcDbCircle
 10
99.600000000
 20
182.678495686
 30
0.000000000
 40
0.400000000
100
AcDbArc
 50
-90.000000000
 51
90.000000000
  0
ARC
  5
D2D
330
A02
100
AcDbEntity
  8
Shape2DView011
100
AcDbCircle
 10
128.932905000
 20
148.025590686
 30
0.000000000
 40
0.199110000
100
AcDbArc
 50
90.000000000
 51
-120.000000000
  0
LINE
  5
D2E
330
A02
100
AcDbEntity
  8
Shape2DView011
100
AcDbLine
 10
86.000000000
 20
182.278495686
 30
0.000000000
 11
99.600000000
 21
182.278495686
 31
0.000000000
  0
LINE
  5
D2F
330
A02
100
AcDbEntity
  8
Shape2DView011
100
AcDbLine
 10
128.833350000
 20
145.278495686
 30
0.000000000
 11
128.833350000
 21
147.853156368
 31
0.000000000
  0
ARC
  5
D30
330
A02
100
AcDbEntity
  8
Shape2DView011
100
AcDbCircle
 10
86.000000000
 20
181.878495686
 30
0.000000000
 40
0.400000000
100
AcDbArc
 50
90.000000000
 51
180.000000000
  0
LINE
  5
D31
330
A02
100
AcDbEntity
  8
Shape2DView011
100
AcDbLine
 10
128.833350000
 20
145.278495686
 30
0.000000000
 11
117.966650000
 21
145.278495686
 31
0.000000000
  0
LINE
  5
D32
330
A02
100
AcDbEntity
  8
Shape2DView011
100
AcDbLine
 10
85.600000000
 20
171.485145686
 30
0.000000000
 11
85.600000000
 21
181.878495686
 31
0.000000000
  0
LINE
  5
D33
330
A02
100
AcDbEntity
  8
Shape2DView011
100
AcDbLine
 10
117.966650000
 20
145.278495686
 30
0.000000000
 11
117.966650000
 21
147.853156368
 31
0.000000000
  0
LINE
  5
D34
330
A02
100
AcDbEntity
  8
Shape2DView011
100
AcDbLine
 10
88.174660682
 20
171.485145686
 30
0.000000000
 11
85.600000000
 21
171.485145686
 31
0.000000000
  0
ARC
  5
D35
330
A02
100
AcDbEntity
  8
Shape2DView011
100
AcDbCircle
 10
117.867095000
 20
148.025590686
 30
0.000000000
 40
0.199110000
100
AcDbArc
 50
-60.000000000
 51
90.000000000
  0
ARC
  5
D36
330
A02
100
AcDbEntity
  8
Shape2DView011
100
AcDbCircle
 10
88.347095000
 20
171.385590686
 30
0.000000000
 40
0.199110000
100
AcDbArc
 50
-60.000000000
 51
150.000000000
  0
ARC
  5
D37
330
A02
100
AcDbEntity
  8
Shape2DView011
100
AcDbCircle
 10
117.867095000
 20
148.025590686
 30
0.000000000
 40
0.199110000
100
AcDbArc
 50
90.000000000
 51
150.000000000
  0
LINE
  5
D38
330
A02
100
AcDbEntity
  8
Shape2DView011
100
AcDbLine
 10
88.446650000
 20
159.943835004
 30
0.000000000
 11
88.446650000
 21
171.213156368
 31
0.000000000
  0
LINE
  5
D39
330
A02
100
AcDbEntity
  8
Shape2DView011
100
AcDbLine
 10
106.425339318
 20
148.125145686
 30
0.000000000
 11
117.694660682
 21
148.125145686
 31
0.000000000
  0
ARC
  5
D3A
330
A02
100
AcDbEntity
  8
Shape2DView011
100
AcDbCircle
 10
88.347095000
 20
159.771400686
 30
0.000000000
 40
0.199110000
100
AcDbArc
 50
-150.000000000
 51
60.000000000
  0
ARC
  5
D3B
330
A02
100
AcDbEntity
  8
Shape2DView011
100
AcDbCircle
 10
106.252905000
 20
148.025590686
 30
0.000000000
 40
0.199110000
100
AcDbArc
 50
30.000000000
 51
90.000000000
  0
LINE
  5
D3C
330
A02
100
AcDbEntity
  8
Shape2DView011
100
AcDbLine
 10
88.174660682
 20
159.671845686
 30
0.000000000
 11
85.600000000
 21
159.671845686
 31
0.000000000
  0
ARC
  5
D3D
330
A02
100
AcDbEntity
  8
Shape2DView011
100
AcDbCircle
 10
106.252905000
 20
148.025590686
 30
0.000000000
 40
0.199110000
100
AcDbArc
 50
90.000000000
 51
-120.000000000
  0
LINE
  5
D3E
330
A02
100
AcDbEntity
  8
Shape2DView011
100
AcDbLine
 10
85.600000000
 20
149.278495686
 30
0.000000000
 11
85.600000000
 21
159.671845686
 31
0.000000000
  0
LINE
  5
D3F
330
A02
100
AcDbEntity
  8
Shape2DView011
100
AcDbLine
 10
106.153350000
 20
145.278495686
 30
0.000000000
 11
106.153350000
 21
147.853156368
 31
0.000000000
  0
ARC
  5
D40
330
A02
100
AcDbEntity
  8
Shape2DView011
100
AcDbCircle
 10
86.000000000
 20
149.278495686
 30
0.000000000
 40
0.400000000
100
AcDbArc
 50
180.000000000
 51
-90.000000000
  0
LINE
  5
D41
330
A02
100
AcDbEntity
  8
Shape2DView011
100
AcDbLine
 10
106.153350000
 20
145.278495686
 30
0.000000000
 11
97.864101615
 21
145.278495686
 31
0.000000000
  0
LINE
  5
D42
330
A02
100
AcDbEntity
  8
Shape2DView011
100
AcDbLine
 10
99.600000000
 20
148.878495686
 30
0.000000000
 11
86.000000000
 21
148.878495686
 31
0.000000000
  0
LINE
  5
D43
330
A02
100
AcDbEntity
  8
Shape2DView011
100
AcDbLine
 10
97.864101615
 20
145.278495686
 30
0.000000000
 11
90.903527618
 21
143.413415504
 31
0.000000000
  0
ARC
  5
D44
330
A02
100
AcDbEntity
  8
Shape2DView011
100
AcDbCircle
 10
99.600000000
 20
148.478495686
 30
0.000000000
 40
0.400000000
100
AcDbArc
 50
-90.000000000
 51
90.000000000
  0
ARC
  5
D45
330
A02
100
AcDbEntity
  8
Shape2DView011
100
AcDbCircle
 10
90.800000000
 20
143.799785835
 30
0.000000000
 40
0.400000000
100
AcDbArc
 50
180.000000000
 51
-75.000000000
  0
LINE
  5
D46
330
A02
100
AcDbEntity
  8
Shape2DView011
100
AcDbLine
 10
86.000000000
 20
148.078495686
 30
0.000000000
 11
99.600000000
 21
148.078495686
 31
0.000000000
  0
LINE
  5
D47
330
A02
100
AcDbEntity
  8
Shape2DView011
100
AcDbLine
 10
90.400000000
 20
143.799785835
 30
0.000000000
 11
90.400000000
 21
145.278495686
 31
0.000000000
  0
ARC
  5
D48
330
A02
100
AcDbEntity
  8
Shape2DView011
100
AcDbCircle
 10
86.000000000
 20
147.678495686
 30
0.000000000
 40
0.400000000
100
AcDbArc
 50
90.000000000
 51
180.000000000
  0
LINE
  5
D49
330
A02
100
AcDbEntity
  8
Shape2DView011
100
AcDbLine
 10
90.400000000
 20
145.278495686
 30
0.000000000
 11
87.600000000
 21
145.278495686
 31
0.000000000
  0
LINE
  5
D4A
330
A02
100
AcDbEntity
  8
Shape2DView011
100
AcDbLine
 10
85.600000000
 20
145.555695873
 30
0.000000000
 11
85.600000000
 21
147.678495686
 31
0.000000000
  0
LINE
  5
D4B
330
A02
100
AcDbEntity
  8
Shape2DView011
100
AcDbLine
 10
87.600000000
 20
144.528495686
 30
0.000000000
 11
87.600000000
 21
145.278495686
 31
0.000000000
  0
ARC
  5
D4C
330
A02
100
AcDbEntity
  8
Shape2DView011
100
AcDbCircle
 10
86.000000000
 20
145.555695873
 30
0.000000000
 40
0.400000000
100
AcDbArc
 50
180.000000000
 51
-110.556045220
  0
LINE
  5
D4D
330
A02
100
AcDbEntity
  8
Shape2DView011
100
AcDbLine
 10
85.859550623
 20
145.181164202
 30
0.000000000
 11
87.600000000
 21
144.528495686
 31
0.000000000
  0
LINE
  5
D4E
330
A02
100
AcDbEntity
  8
Shape2DView011
100
AcDbLine
 10
110.450000000
 20
178.078495686
 30
0.000000000
 11
98.250000000
 21
178.078495686
 31
0.000000000
  0
ARC
  5
D4F
330
A02
100
AcDbEntity
  8
Shape2DView011
100
AcDbCircle
 10
110.700000000
 20
178.078495686
 30
0.000000000
 40
0.250000000
100
AcDbArc
 50
0.000000000
 51
180.000000000
  0
ARC
  5
D50
330
A02
100
AcDbEntity
  8
Shape2DView011
100
AcDbCircle
 10
98.000000000
 20
178.078495686
 30
0.000000000
 40
0.250000000
100
AcDbArc
 50
0.000000000
 51
-90.000000000
  0
ARC
  5
D51
330
A02
100
AcDbEntity
  8
Shape2DView011
100
AcDbCircle
 10
110.700000000
 20
178.078495686
 30
0.000000000
 40
0.250000000
100
AcDbArc
 50
-90.000000000
 51
0.000000000
  0
LINE
  5
D52
330
A02
100
AcDbEntity
  8
Shape2DView011
100
AcDbLine
 10
98.000000000
 20
177.828495686
 30
0.000000000
 11
98.000000000
 21
176.728495686
 31
0.000000000
  0
LINE
  5
D53
330
A02
100
AcDbEntity
  8
Shape2DView011
100
AcDbLine
 10
110.700000000
 20
176.728495686
 30
0.000000000
 11
110.700000000
 21
177.828495686
 31
0.000000000
  0
ARC
  5
D54
330
A02
100
AcDbEntity
  8
Shape2DView011
100
AcDbCircle
 10
98.000000000
 20
176.478495686
 30
0.000000000
 40
0.250000000
100
AcDbArc
 50
90.000000000
 51
0.000000000
  0
ARC
  5
D55
330
A02
100
AcDbEntity
  8
Shape2DView011
100
AcDbCircle
 10
110.700000000
 20
176.478495686
 30
0.000000000
 40
0.250000000
100
AcDbArc
 50
0.000000000
 51
90.000000000
  0
LINE
  5
D56
330
A02
100
AcDbEntity
  8
Shape2DView011
100
AcDbLine
 10
98.250000000
 20
176.478495686
 30
0.000000000
 11
110.450000000
 21
176.478495686
 31
0.000000000
  0
ARC
  5
D57
330
A02
100
AcDbEntity
  8
Shape2DView011
100
AcDbCircle
 10
110.700000000
 20
176.478495686
 30
0.000000000
 40
0.250000000
100
AcDbArc
 50
180.000000000
 51
0.000000000
  0
CIRCLE
  5
D58
330
A02
100
AcDbEntity
  8
Shape2DView011
100
AcDbCircle
 10
123.400000000
 20
172.750820609
 30
0.000000000
 40
4.000000000
  0
LINE
  5
D59
330
A02
100
AcDbEntity
  8
Shape2DView011
100
AcDbLine
 10
148.550000000
 20
178.078495686
 30
0.000000000
 11
136.350000000
 21
178.078495686
 31
0.000000000
  0
ARC
  5
D5A
330
A02
100
AcDbEntity
  8
Shape2DView011
100
AcDbCircle
 10
148.800000000
 20
178.078495686
 30
0.000000000
 40
0.250000000
100
AcDbArc
 50
0.000000000
 51
180.000000000
  0
ARC
  5
D5B
330
A02
100
AcDbEntity
  8
Shape2DView011
100
AcDbCircle
 10
136.100000000
 20
178.078495686
 30
0.000000000
 40
0.250000000
100
AcDbArc
 50
0.000000000
 51
-90.000000000
  0
ARC
  5
D5C
330
A02
100
AcDbEntity
  8
Shape2DView011
100
AcDbCircle
 10
148.800000000
 20
178.078495686
 30
0.000000000
 40
0.250000000
100
AcDbArc
 50
-90.000000000
 51
0.000000000
  0
LINE
  5
D5D
330
A02
100
AcDbEntity
  8
Shape2DView011
100
AcDbLine
 10
136.100000000
 20
177.828495686
 30
0.000000000
 11
136.100000000
 21
176.728495686
 31
0.000000000
  0
LINE
  5
D5E
330
A02
100
AcDbEntity
  8
Shape2DView011
100
AcDbLine
 10
148.800000000
 20
176.728495686
 30
0.000000000
 11
148.800000000
 21
177.828495686
 31
0.000000000
  0
ARC
  5
D5F
330
A02
100
AcDbEntity
  8
Shape2DView011
100
AcDbCircle
 10
136.100000000
 20
176.478495686
 30
0.000000000
 40
0.250000000
100
AcDbArc
 50
90.000000000
 51
0.000000000
  0
ARC
  5
D60
330
A02
100
AcDbEntity
  8
Shape2DView011
100
AcDbCircle
 10
148.800000000
 20
176.478495686
 30
0.000000000
 40
0.250000000
100
AcDbArc
 50
0.000000000
 51
90.000000000
  0
LINE
  5
D61
330
A02
100
AcDbEntity
  8
Shape2DView011
100
AcDbLine
 10
136.350000000
 20
176.478495686
 30
0.000000000
 11
148.550000000
 21
176.478495686
 31
0.000000000
  0
ARC
  5
D62
330
A02
100
AcDbEntity
  8
Shape2DView011
100
AcDbCircle
 10
148.800000000
 20
176.478495686
 30
0.000000000
 40
0.250000000
100
AcDbArc
 50
180.000000000
 51
0.000000000
  0
ENDSEC
  0
SECTION
  2
OBJECTS
  0
DICTIONARY
  5
F000
330
0
100
AcDbDictionary
  3
ACAD_GROUP
350
F001
  0
DICTIONARY
  5
F001
330
F000
100
AcDbDictionary
  0
ENDSEC
  0
EOF