999
FreeCAD v0.21 33771 (Git)
  0
SECTION
  2
HEADER
  9
$ACADVER
  1
AC1014
  9
$ACADMAINTVER
 70
     9
  9
$DWGCODEPAGE
  3
ANSI_1252
  9
$TEXTSTYLE
  7
STANDARD
  9
$DIMSTYLE
  2
STANDARD
  9
$DIMTXSTY
  7
STANDARD
  9
$CMLSTYLE
  2
STANDARD
  9
$LUNITS
 70
2
  9
$INSUNITS
 70
4
  9
$PEXTMAX
 10
50
 20
50
 30
50
  9
$PEXTMIN
 10
0
 20
0
 30
0
  9
$HANDSEED
  5
FFFF
  0
ENDSEC
  0
SECTION
  2
CLASSES
  0
CLASS
  1
ACDBDICTIONARYWDFLT
  2
AcDbDictionaryWithDefault
  3
ObjectDBX Classes
 90
        0
280
     0
281
     0
  0
CLASS
  1
XRECORD
  2
AcDbXrecord
  3
ObjectDBX Classes
 90
        0
280
     0
281
     0
  0
CLASS
  1
LWPOLYLINE
  2
AcDbPolyline
  3
ObjectDBX Classes
 90
        0
280
     0
281
     1
  0
ENDSEC
  0
SECTION
  2
TABLES
  0
TABLE
  2
VPORT
  5
20
330
0
100
AcDbSymbolTable
 70
     1
  0
VPORT
  5
21
330
20
100
AcDbSymbolTableRecord
100
AcDbViewportTableRecord
  2
*ACTIVE
 70
     0
  0
ENDTAB
  0
TABLE
  2
LTYPE
  5
22
330
0
100
AcDbSymbolTable
 70
     1
  0
LTYPE
  5
23
330
21
100
AcDbSymbolTableRecord
100
AcDbLinetypeTableRecord
  2
BYBLOCK
 70
     0
  3

 72
    65
 73
     0
 40
0.0
  0
LTYPE
  5
24
330
21
100
AcDbSymbolTableRecord
100
AcDbLinetypeTableRecord
  2
BYLAYER
 70
     0
  3

 72
    65
 73
     0
 40
0.0
  0
LTYPE
  5
25
330
21
100
AcDbSymbolTableRecord
100
AcDbLinetypeTableRecord
  2
CONTINUOUS
 70
     0
  3
Solid line
 72
    65
 73
     0
 40
0.0
  0
ENDTAB
  0
TABLE
  2
LAYER
  5
DA6
330
0
100
AcDbSymbolTable
 70
15
  0
LAYER
  5
DA7
330
DA6
100
AcDbSymbolTableRecord
100
AcDbLayerTableRecord
  2
0
 70
   0
 62
   7
  6
CONTINUOUS
  0
LAYER
  5
DA8
330
DA6
100
AcDbSymbolTableRecord
100
AcDbLayerTableRecord
  2
none
 70
    0
 62
    7
  6
CONTINUOUS
  0
LAYER
  5
DA9
330
DA6
100
AcDbSymbolTableRecord
100
AcDbLayerTableRecord
  2
Shape2DView
 70
    0
 62
    7
  6
CONTINUOUS
  0
LAYER
  5
DAA
330
DA6
100
AcDbSymbolTableRecord
100
AcDbLayerTableRecord
  2
Shape2DView001
 70
    0
 62
    7
  6
CONTINUOUS
  0
LAYER
  5
DAB
330
DA6
100
AcDbSymbolTableRecord
100
AcDbLayerTableRecord
  2
Shape2DView003
 70
    0
 62
    7
  6
CONTINUOUS
  0
LAYER
  5
DAC
330
DA6
100
AcDbSymbolTableRecord
100
AcDbLayerTableRecord
  2
Shape2DView004
 70
    0
 62
    7
  6
CONTINUOUS
  0
LAYER
  5
DAD
330
DA6
100
AcDbSymbolTableRecord
100
AcDbLayerTableRecord
  2
Shape2DView005
 70
    0
 62
    7
  6
CONTINUOUS
  0
LAYER
  5
DAE
330
DA6
100
AcDbSymbolTableRecord
100
AcDbLayerTableRecord
  2
Shape2DView006
 70
    0
 62
    7
  6
CONTINUOUS
  0
LAYER
  5
DAF
330
DA6
100
AcDbSymbolTableRecord
100
AcDbLayerTableRecord
  2
Shape2DView007
 70
    0
 62
    7
  6
CONTINUOUS
  0
LAYER
  5
DB0
330
DA6
100
AcDbSymbolTableRecord
100
AcDbLayerTableRecord
  2
Shape2DView008
 70
    0
 62
    7
  6
CONTINUOUS
  0
LAYER
  5
DB1
330
DA6
100
AcDbSymbolTableRecord
100
AcDbLayerTableRecord
  2
Shape2DView009
 70
    0
 62
    7
  6
CONTINUOUS
  0
LAYER
  5
DB2
330
DA6
100
AcDbSymbolTableRecord
100
AcDbLayerTableRecord
  2
Shape2DView010
 70
    0
 62
    7
  6
CONTINUOUS
  0
LAYER
  5
DB3
330
DA6
100
AcDbSymbolTableRecord
100
AcDbLayerTableRecord
  2
Shape2DView011
 70
    0
 62
    7
  6
CONTINUOUS
  0
LAYER
  5
DB4
330
DA6
100
AcDbSymbolTableRecord
100
AcDbLayerTableRecord
  2
Shape2DView012
 70
    0
 62
    7
  6
CONTINUOUS
  0
LAYER
  5
DB5
330
DA6
100
AcDbSymbolTableRecord
100
AcDbLayerTableRecord
  2
Shape2DView013
 70
    0
 62
    7
  6
CONTINUOUS
  0
ENDTAB
  0
TABLE
  2
STYLE
  5
70
330
0
100
AcDbSymbolTable
 70
     2
  0
STYLE
  5
71
330
70
100
AcDbSymbolTableRecord
100
AcDbTextStyleTableRecord
  2
STANDARD
 70
     0
 40
0.0
 41
1.0
 50
0.0
 71
     0
 42
2.5
  3
arial.ttf
  4

  0
STYLE
  5
72
330
70
100
AcDbSymbolTableRecord
100
AcDbTextStyleTableRecord
  2
ANNOTATIVE
 70
     0
 40
0.0
 41
1.0
 50
0.0
 71
     0
 42
2.5
  3
arial.ttf
  4

  0
ENDTAB
  0
TABLE
  2
VIEW
  5
73
330
0
100
AcDbSymbolTable
 70
     0
  0
ENDTAB
  0
TABLE
  2
UCS
  5
74
330
0
100
AcDbSymbolTable
 70
     0
  0
ENDTAB
  0
TABLE
  2
APPID
  5
75
330
0
100
AcDbSymbolTable
 70
     2
  0
APPID
  5
76
330
75
100
AcDbSymbolTableRecord
100
AcDbRegAppTableRecord
  2
ACAD
 70
     0
  0
APPID
  5
77
330
75
100
AcDbSymbolTableRecord
100
AcDbRegAppTableRecord
  2
ACADANNOTATIVE
 70
     0
  0
ENDTAB
  0
TABLE
  2
DIMSTYLE
  5
78
330
0
100
AcDbSymbolTable
 70
     2
  0
DIMSTYLE
105
79
330
78
100
AcDbSymbolTableRecord
100
AcDbDimStyleTableRecord
  2
STANDARD
 70
     0
  3

  4

  5

  6

  7

 40
0.0
 41
2.5
 42
0.625
 43
3.75
 44
1.25
 45
0.0
 46
0.0
 47
0.0
 48
0.0
140
2.5
141
2.5
142
0.0
143
0.03937007874016
144
1.0
145
0.0
146
1.0
147
0.625
 71
     0
 72
     0
 73
     0
 74
     0
 75
     0
 76
     0
 77
     1
 78
     8
170
     0
171
     3
172
     1
173
     0
174
     0
175
     0
176
     0
177
     0
178
     0
270
     2
271
     2
272
     2
273
     2
274
     3
340
71
275
     0
280
     0
281
     0
282
     0
283
     0
284
     8
285
     0
286
     0
287
     3
288
     0
  0
ENDTAB
  0
TABLE
  2
BLOCK_RECORD
  5
A01
330
0
100
AcDbSymbolTable
  70
5
  0
BLOCK_RECORD
  5
A02
330
A01
100
AcDbSymbolTableRecord
100
AcDbBlockTableRecord
  2
*MODEL_SPACE
  0
BLOCK_RECORD
  5
A03
330
A01
100
AcDbSymbolTableRecord
100
AcDbBlockTableRecord
  2
*PAPER_SPACE
  0
ENDTAB
  0
ENDSEC
  0
SECTION
  2
BLOCKS
  0
BLOCK
  5
A04
330
A02
100
AcDbEntity
  8
0
100
AcDbBlockBegin
  2
*MODEL_SPACE
 70
   0
 10
0
 20
0
 30
0
  3
*MODEL_SPACE
  1
 
  0
ENDBLK
  5
A05
330
A02
100
AcDbEntity
  8
0
100
AcDbBlockEnd
  0
BLOCK
  5
A06
330
A03
100
AcDbEntity
 67
1
  8
0
100
AcDbBlockBegin
  2
*PAPER_SPACE
 70
   0
 10
0
 20
0
 30
0
  3
*PAPER_SPACE
  1
 
  0
ENDBLK
  5
A07
330
A03
100
AcDbEntity
 67
    1
  8
0
100
AcDbBlockEnd
  0
ENDSEC
  0
SECTION
  2
ENTITIES
  0
LINE
  5
A08
330
A02
100
AcDbEntity
  8
Shape2DView
100
AcDbLine
 10
85.3404
 20
42.5758
 30
0
 11
83.6
 21
43.2285
 31
0
  0
LINE
  5
A09
330
A02
100
AcDbEntity
  8
Shape2DView
100
AcDbLine
 10
83.6
 20
43.2285
 30
0
 11
83.6
 21
42.4785
 31
0
  0
LINE
  5
A0A
330
A02
100
AcDbEntity
  8
Shape2DView
100
AcDbLine
 10
80.8
 20
42.4785
 30
0
 11
83.6
 21
42.4785
 31
0
  0
LINE
  5
A0B
330
A02
100
AcDbEntity
  8
Shape2DView
100
AcDbLine
 10
80.8
 20
43.9572
 30
0
 11
80.8
 21
42.4785
 31
0
  0
ARC
  5
A0C
330
A02
100
AcDbEntity
  8
Shape2DView
100
AcDbCircle
 10
80.4
 20
43.9572
 30
0
 40
0.4
100
AcDbArc
 50
0
 51
105
  0
LINE
  5
A0D
330
A02
100
AcDbEntity
  8
Shape2DView
100
AcDbLine
 10
73.3359
 20
42.4785
 30
0
 11
80.2965
 21
44.3436
 31
0
  0
LINE
  5
A0E
330
A02
100
AcDbEntity
  8
Shape2DView
100
AcDbLine
 10
58.4067
 20
42.4785
 30
0
 11
73.3359
 21
42.4785
 31
0
  0
LINE
  5
A0F
330
A02
100
AcDbEntity
  8
Shape2DView
100
AcDbLine
 10
58.4067
 20
42.4785
 30
0
 11
58.4067
 21
39.9038
 31
0
  0
ARC
  5
A10
330
A02
100
AcDbEntity
  8
Shape2DView
100
AcDbCircle
 10
58.3071
 20
39.7314
 30
0
 40
0.19911
100
AcDbArc
 50
-90
 51
60
  0
ARC
  5
A11
330
A02
100
AcDbEntity
  8
Shape2DView
100
AcDbCircle
 10
58.3071
 20
39.7314
 30
0
 40
0.19911
100
AcDbArc
 50
-150
 51
-90
  0
LINE
  5
A12
330
A02
100
AcDbEntity
  8
Shape2DView
100
AcDbLine
 10
58.1347
 20
39.6318
 30
0
 11
48.8653
 21
39.6318
 31
0
  0
ARC
  5
A13
330
A02
100
AcDbEntity
  8
Shape2DView
100
AcDbCircle
 10
48.6929
 20
39.7314
 30
0
 40
0.19911
100
AcDbArc
 50
-90
 51
-30
  0
ARC
  5
A14
330
A02
100
AcDbEntity
  8
Shape2DView
100
AcDbCircle
 10
48.6929
 20
39.7314
 30
0
 40
0.19911
100
AcDbArc
 50
120
 51
-90
  0
LINE
  5
A15
330
A02
100
AcDbEntity
  8
Shape2DView
100
AcDbLine
 10
48.5934
 20
42.4785
 30
0
 11
48.5934
 21
39.9038
 31
0
  0
LINE
  5
A16
330
A02
100
AcDbEntity
  8
Shape2DView
100
AcDbLine
 10
37.0067
 20
42.4785
 30
0
 11
48.5934
 21
42.4785
 31
0
  0
LINE
  5
A17
330
A02
100
AcDbEntity
  8
Shape2DView
100
AcDbLine
 10
37.0067
 20
42.4785
 30
0
 11
37.0067
 21
39.9038
 31
0
  0
ARC
  5
A18
330
A02
100
AcDbEntity
  8
Shape2DView
100
AcDbCircle
 10
36.9071
 20
39.7314
 30
0
 40
0.19911
100
AcDbArc
 50
-90
 51
60
  0
ARC
  5
A19
330
A02
100
AcDbEntity
  8
Shape2DView
100
AcDbCircle
 10
36.9071
 20
39.7314
 30
0
 40
0.19911
100
AcDbArc
 50
-150
 51
-90
  0
LINE
  5
A1A
330
A02
100
AcDbEntity
  8
Shape2DView
100
AcDbLine
 10
36.7347
 20
39.6318
 30
0
 11
27.4653
 21
39.6318
 31
0
  0
ARC
  5
A1B
330
A02
100
AcDbEntity
  8
Shape2DView
100
AcDbCircle
 10
27.2929
 20
39.7314
 30
0
 40
0.19911
100
AcDbArc
 50
-90
 51
-30
  0
ARC
  5
A1C
330
A02
100
AcDbEntity
  8
Shape2DView
100
AcDbCircle
 10
27.2929
 20
39.7314
 30
0
 40
0.19911
100
AcDbArc
 50
120
 51
-90
  0
LINE
  5
A1D
330
A02
100
AcDbEntity
  8
Shape2DView
100
AcDbLine
 10
27.1934
 20
42.4785
 30
0
 11
27.1934
 21
39.9038
 31
0
  0
LINE
  5
A1E
330
A02
100
AcDbEntity
  8
Shape2DView
100
AcDbLine
 10
12.2641
 20
42.4785
 30
0
 11
27.1934
 21
42.4785
 31
0
  0
LINE
  5
A1F
330
A02
100
AcDbEntity
  8
Shape2DView
100
AcDbLine
 10
5.30353
 20
44.3436
 30
0
 11
12.2641
 21
42.4785
 31
0
  0
ARC
  5
A20
330
A02
100
AcDbEntity
  8
Shape2DView
100
AcDbCircle
 10
5.2
 20
43.9572
 30
0
 40
0.4
100
AcDbArc
 50
75
 51
180
  0
LINE
  5
A21
330
A02
100
AcDbEntity
  8
Shape2DView
100
AcDbLine
 10
4.8
 20
42.4785
 30
0
 11
4.8
 21
43.9572
 31
0
  0
LINE
  5
A22
330
A02
100
AcDbEntity
  8
Shape2DView
100
AcDbLine
 10
2
 20
42.4785
 30
0
 11
4.8
 21
42.4785
 31
0
  0
LINE
  5
A23
330
A02
100
AcDbEntity
  8
Shape2DView
100
AcDbLine
 10
2
 20
43.2285
 30
0
 11
2
 21
42.4785
 31
0
  0
LINE
  5
A24
330
A02
100
AcDbEntity
  8
Shape2DView
100
AcDbLine
 10
0.259551
 20
42.5758
 30
0
 11
2
 21
43.2285
 31
0
  0
ARC
  5
A25
330
A02
100
AcDbEntity
  8
Shape2DView
100
AcDbCircle
 10
0.4
 20
42.2013
 30
0
 40
0.4
100
AcDbArc
 50
110.556
 51
180
  0
LINE
  5
A26
330
A02
100
AcDbEntity
  8
Shape2DView
100
AcDbLine
 10
2.15083e-14
 20
40.0785
 30
0
 11
2.25272e-14
 21
42.2013
 31
0
  0
ARC
  5
A27
330
A02
100
AcDbEntity
  8
Shape2DView
100
AcDbCircle
 10
0.4
 20
40.0785
 30
0
 40
0.4
100
AcDbArc
 50
180
 51
-90
  0
LINE
  5
A28
330
A02
100
AcDbEntity
  8
Shape2DView
100
AcDbLine
 10
14
 20
39.6785
 30
0
 11
0.4
 21
39.6785
 31
0
  0
ARC
  5
A29
330
A02
100
AcDbEntity
  8
Shape2DView
100
AcDbCircle
 10
14
 20
39.2785
 30
0
 40
0.4
100
AcDbArc
 50
-90
 51
90
  0
LINE
  5
A2A
330
A02
100
AcDbEntity
  8
Shape2DView
100
AcDbLine
 10
0.4
 20
38.8785
 30
0
 11
14
 21
38.8785
 31
0
  0
ARC
  5
A2B
330
A02
100
AcDbEntity
  8
Shape2DView
100
AcDbCircle
 10
0.4
 20
38.4785
 30
0
 40
0.4
100
AcDbArc
 50
90
 51
180
  0
LINE
  5
A2C
330
A02
100
AcDbEntity
  8
Shape2DView
100
AcDbLine
 10
1.74766e-14
 20
27.0851
 30
0
 11
2.29454e-14
 21
38.4785
 31
0
  0
LINE
  5
A2D
330
A02
100
AcDbEntity
  8
Shape2DView
100
AcDbLine
 10
1.59872e-14
 20
27.0851
 30
0
 11
2.57466
 21
27.0851
 31
0
  0
ARC
  5
A2E
330
A02
100
AcDbEntity
  8
Shape2DView
100
AcDbCircle
 10
2.74709
 20
26.9856
 30
0
 40
0.19911
100
AcDbArc
 50
0
 51
150
  0
ARC
  5
A2F
330
A02
100
AcDbEntity
  8
Shape2DView
100
AcDbCircle
 10
2.74709
 20
26.9856
 30
0
 40
0.19911
100
AcDbArc
 50
-60
 51
0
  0
LINE
  5
A30
330
A02
100
AcDbEntity
  8
Shape2DView
100
AcDbLine
 10
2.84665
 20
26.8132
 30
0
 11
2.84665
 21
17.5438
 31
0
  0
ARC
  5
A31
330
A02
100
AcDbEntity
  8
Shape2DView
100
AcDbCircle
 10
2.74709
 20
17.3714
 30
0
 40
0.19911
100
AcDbArc
 50
0
 51
60
  0
ARC
  5
A32
330
A02
100
AcDbEntity
  8
Shape2DView
100
AcDbCircle
 10
2.74709
 20
17.3714
 30
0
 40
0.19911
100
AcDbArc
 50
-150
 51
0
  0
LINE
  5
A33
330
A02
100
AcDbEntity
  8
Shape2DView
100
AcDbLine
 10
1.08802e-14
 20
17.2718
 30
0
 11
2.57466
 21
17.2718
 31
0
  0
LINE
  5
A34
330
A02
100
AcDbEntity
  8
Shape2DView
100
AcDbLine
 10
7.29743e-15
 20
5.8785
 30
0
 11
1.27662e-14
 21
17.2718
 31
0
  0
ARC
  5
A35
330
A02
100
AcDbEntity
  8
Shape2DView
100
AcDbCircle
 10
0.4
 20
5.8785
 30
0
 40
0.4
100
AcDbArc
 50
180
 51
-90
  0
LINE
  5
A36
330
A02
100
AcDbEntity
  8
Shape2DView
100
AcDbLine
 10
14
 20
5.4785
 30
0
 11
0.4
 21
5.4785
 31
0
  0
ARC
  5
A37
330
A02
100
AcDbEntity
  8
Shape2DView
100
AcDbCircle
 10
14
 20
5.0785
 30
0
 40
0.4
100
AcDbArc
 50
-90
 51
90
  0
LINE
  5
A38
330
A02
100
AcDbEntity
  8
Shape2DView
100
AcDbLine
 10
0.4
 20
4.6785
 30
0
 11
14
 21
4.6785
 31
0
  0
ARC
  5
A39
330
A02
100
AcDbEntity
  8
Shape2DView
100
AcDbCircle
 10
0.4
 20
4.2785
 30
0
 40
0.4
100
AcDbArc
 50
90
 51
180
  0
LINE
  5
A3A
330
A02
100
AcDbEntity
  8
Shape2DView
100
AcDbLine
 10
1.33056e-16
 20
2.1557
 30
0
 11
1.152e-15
 21
4.2785
 31
0
  0
ARC
  5
A3B
330
A02
100
AcDbEntity
  8
Shape2DView
100
AcDbCircle
 10
0.4
 20
2.1557
 30
0
 40
0.4
100
AcDbArc
 50
180
 51
-110.556
  0
LINE
  5
A3C
330
A02
100
AcDbEntity
  8
Shape2DView
100
AcDbLine
 10
0.259551
 20
1.78116
 30
0
 11
2
 21
1.1285
 31
0
  0
LINE
  5
A3D
330
A02
100
AcDbEntity
  8
Shape2DView
100
AcDbLine
 10
2
 20
1.1285
 30
0
 11
2
 21
1.8785
 31
0
  0
LINE
  5
A3E
330
A02
100
AcDbEntity
  8
Shape2DView
100
AcDbLine
 10
4.8
 20
1.8785
 30
0
 11
2
 21
1.8785
 31
0
  0
LINE
  5
A3F
330
A02
100
AcDbEntity
  8
Shape2DView
100
AcDbLine
 10
4.8
 20
0.399786
 30
0
 11
4.8
 21
1.8785
 31
0
  0
ARC
  5
A40
330
A02
100
AcDbEntity
  8
Shape2DView
100
AcDbCircle
 10
5.2
 20
0.399786
 30
0
 40
0.4
100
AcDbArc
 50
180
 51
-75
  0
LINE
  5
A41
330
A02
100
AcDbEntity
  8
Shape2DView
100
AcDbLine
 10
12.2641
 20
1.8785
 30
0
 11
5.30353
 21
0.0134155
 31
0
  0
LINE
  5
A42
330
A02
100
AcDbEntity
  8
Shape2DView
100
AcDbLine
 10
27.1934
 20
1.8785
 30
0
 11
12.2641
 21
1.8785
 31
0
  0
LINE
  5
A43
330
A02
100
AcDbEntity
  8
Shape2DView
100
AcDbLine
 10
27.1934
 20
1.8785
 30
0
 11
27.1934
 21
4.45316
 31
0
  0
ARC
  5
A44
330
A02
100
AcDbEntity
  8
Shape2DView
100
AcDbCircle
 10
27.2929
 20
4.62559
 30
0
 40
0.19911
100
AcDbArc
 50
90
 51
-120
  0
ARC
  5
A45
330
A02
100
AcDbEntity
  8
Shape2DView
100
AcDbCircle
 10
27.2929
 20
4.62559
 30
0
 40
0.19911
100
AcDbArc
 50
30
 51
90
  0
LINE
  5
A46
330
A02
100
AcDbEntity
  8
Shape2DView
100
AcDbLine
 10
27.4653
 20
4.72515
 30
0
 11
36.7347
 21
4.72515
 31
0
  0
ARC
  5
A47
330
A02
100
AcDbEntity
  8
Shape2DView
100
AcDbCircle
 10
36.9071
 20
4.62559
 30
0
 40
0.19911
100
AcDbArc
 50
90
 51
150
  0
ARC
  5
A48
330
A02
100
AcDbEntity
  8
Shape2DView
100
AcDbCircle
 10
36.9071
 20
4.62559
 30
0
 40
0.19911
100
AcDbArc
 50
-60
 51
90
  0
LINE
  5
A49
330
A02
100
AcDbEntity
  8
Shape2DView
100
AcDbLine
 10
37.0067
 20
1.8785
 30
0
 11
37.0067
 21
4.45316
 31
0
  0
LINE
  5
A4A
330
A02
100
AcDbEntity
  8
Shape2DView
100
AcDbLine
 10
48.5934
 20
1.8785
 30
0
 11
37.0067
 21
1.8785
 31
0
  0
LINE
  5
A4B
330
A02
100
AcDbEntity
  8
Shape2DView
100
AcDbLine
 10
48.5934
 20
1.8785
 30
0
 11
48.5934
 21
4.45316
 31
0
  0
ARC
  5
A4C
330
A02
100
AcDbEntity
  8
Shape2DView
100
AcDbCircle
 10
48.6929
 20
4.62559
 30
0
 40
0.19911
100
AcDbArc
 50
90
 51
-120
  0
ARC
  5
A4D
330
A02
100
AcDbEntity
  8
Shape2DView
100
AcDbCircle
 10
48.6929
 20
4.62559
 30
0
 40
0.19911
100
AcDbArc
 50
30
 51
90
  0
LINE
  5
A4E
330
A02
100
AcDbEntity
  8
Shape2DView
100
AcDbLine
 10
48.8653
 20
4.72515
 30
0
 11
58.1347
 21
4.72515
 31
0
  0
ARC
  5
A4F
330
A02
100
AcDbEntity
  8
Shape2DView
100
AcDbCircle
 10
58.3071
 20
4.62559
 30
0
 40
0.19911
100
AcDbArc
 50
90
 51
150
  0
ARC
  5
A50
330
A02
100
AcDbEntity
  8
Shape2DView
100
AcDbCircle
 10
58.3071
 20
4.62559
 30
0
 40
0.19911
100
AcDbArc
 50
-60
 51
90
  0
LINE
  5
A51
330
A02
100
AcDbEntity
  8
Shape2DView
100
AcDbLine
 10
58.4067
 20
1.8785
 30
0
 11
58.4067
 21
4.45316
 31
0
  0
LINE
  5
A52
330
A02
100
AcDbEntity
  8
Shape2DView
100
AcDbLine
 10
73.3359
 20
1.8785
 30
0
 11
58.4067
 21
1.8785
 31
0
  0
LINE
  5
A53
330
A02
100
AcDbEntity
  8
Shape2DView
100
AcDbLine
 10
80.2965
 20
0.0134155
 30
0
 11
73.3359
 21
1.8785
 31
0
  0
ARC
  5
A54
330
A02
100
AcDbEntity
  8
Shape2DView
100
AcDbCircle
 10
80.4
 20
0.399786
 30
0
 40
0.4
100
AcDbArc
 50
-105
 51
-2.38542e-14
  0
LINE
  5
A55
330
A02
100
AcDbEntity
  8
Shape2DView
100
AcDbLine
 10
80.8
 20
1.8785
 30
0
 11
80.8
 21
0.399786
 31
0
  0
LINE
  5
A56
330
A02
100
AcDbEntity
  8
Shape2DView
100
AcDbLine
 10
83.6
 20
1.8785
 30
0
 11
80.8
 21
1.8785
 31
0
  0
LINE
  5
A57
330
A02
100
AcDbEntity
  8
Shape2DView
100
AcDbLine
 10
83.6
 20
1.1285
 30
0
 11
83.6
 21
1.8785
 31
0
  0
LINE
  5
A58
330
A02
100
AcDbEntity
  8
Shape2DView
100
AcDbLine
 10
85.3404
 20
1.78116
 30
0
 11
83.6
 21
1.1285
 31
0
  0
ARC
  5
A59
330
A02
100
AcDbEntity
  8
Shape2DView
100
AcDbCircle
 10
85.2
 20
2.1557
 30
0
 40
0.4
100
AcDbArc
 50
-69.444
 51
0
  0
LINE
  5
A5A
330
A02
100
AcDbEntity
  8
Shape2DView
100
AcDbLine
 10
85.6
 20
4.2785
 30
0
 11
85.6
 21
2.1557
 31
0
  0
ARC
  5
A5B
330
A02
100
AcDbEntity
  8
Shape2DView
100
AcDbCircle
 10
85.2
 20
4.2785
 30
0
 40
0.4
100
AcDbArc
 50
0
 51
90
  0
LINE
  5
A5C
330
A02
100
AcDbEntity
  8
Shape2DView
100
AcDbLine
 10
71.6
 20
4.6785
 30
0
 11
85.2
 21
4.6785
 31
0
  0
ARC
  5
A5D
330
A02
100
AcDbEntity
  8
Shape2DView
100
AcDbCircle
 10
71.6
 20
5.0785
 30
0
 40
0.4
100
AcDbArc
 50
90
 51
-90
  0
LINE
  5
A5E
330
A02
100
AcDbEntity
  8
Shape2DView
100
AcDbLine
 10
85.2
 20
5.4785
 30
0
 11
71.6
 21
5.4785
 31
0
  0
ARC
  5
A5F
330
A02
100
AcDbEntity
  8
Shape2DView
100
AcDbCircle
 10
85.2
 20
5.8785
 30
0
 40
0.4
100
AcDbArc
 50
-90
 51
0
  0
LINE
  5
A60
330
A02
100
AcDbEntity
  8
Shape2DView
100
AcDbLine
 10
85.6
 20
17.2718
 30
0
 11
85.6
 21
5.8785
 31
0
  0
LINE
  5
A61
330
A02
100
AcDbEntity
  8
Shape2DView
100
AcDbLine
 10
83.0253
 20
17.2718
 30
0
 11
85.6
 21
17.2718
 31
0
  0
ARC
  5
A62
330
A02
100
AcDbEntity
  8
Shape2DView
100
AcDbCircle
 10
82.8529
 20
17.3714
 30
0
 40
0.19911
100
AcDbArc
 50
120
 51
-30
  0
LINE
  5
A63
330
A02
100
AcDbEntity
  8
Shape2DView
100
AcDbLine
 10
82.7534
 20
26.8132
 30
0
 11
82.7534
 21
17.5438
 31
0
  0
ARC
  5
A64
330
A02
100
AcDbEntity
  8
Shape2DView
100
AcDbCircle
 10
82.8529
 20
26.9856
 30
0
 40
0.19911
100
AcDbArc
 50
30
 51
-120
  0
LINE
  5
A65
330
A02
100
AcDbEntity
  8
Shape2DView
100
AcDbLine
 10
83.0253
 20
27.0851
 30
0
 11
85.6
 21
27.0851
 31
0
  0
LINE
  5
A66
330
A02
100
AcDbEntity
  8
Shape2DView
100
AcDbLine
 10
85.6
 20
38.4785
 30
0
 11
85.6
 21
27.0851
 31
0
  0
ARC
  5
A67
330
A02
100
AcDbEntity
  8
Shape2DView
100
AcDbCircle
 10
85.2
 20
38.4785
 30
0
 40
0.4
100
AcDbArc
 50
0
 51
90
  0
LINE
  5
A68
330
A02
100
AcDbEntity
  8
Shape2DView
100
AcDbLine
 10
71.6
 20
38.8785
 30
0
 11
85.2
 21
38.8785
 31
0
  0
ARC
  5
A69
330
A02
100
AcDbEntity
  8
Shape2DView
100
AcDbCircle
 10
71.6
 20
39.2785
 30
0
 40
0.4
100
AcDbArc
 50
90
 51
-90
  0
LINE
  5
A6A
330
A02
100
AcDbEntity
  8
Shape2DView
100
AcDbLine
 10
85.2
 20
39.6785
 30
0
 11
71.6
 21
39.6785
 31
0
  0
ARC
  5
A6B
330
A02
100
AcDbEntity
  8
Shape2DView
100
AcDbCircle
 10
85.2
 20
40.0785
 30
0
 40
0.4
100
AcDbArc
 50
-90
 51
0
  0
LINE
  5
A6C
330
A02
100
AcDbEntity
  8
Shape2DView
100
AcDbLine
 10
85.6
 20
42.2013
 30
0
 11
85.6
 21
40.0785
 31
0
  0
ARC
  5
A6D
330
A02
100
AcDbEntity
  8
Shape2DView
100
AcDbCircle
 10
85.2
 20
42.2013
 30
0
 40
0.4
100
AcDbArc
 50
0
 51
69.444
  0
LINE
  5
A6E
330
A02
100
AcDbEntity
  8
Shape2DView001
100
AcDbLine
 10
85.5775
 20
45.7827
 30
0
 11
58.5708
 21
45.7826
 31
0
  0
LINE
  5
A6F
330
A02
100
AcDbEntity
  8
Shape2DView001
100
AcDbLine
 10
58.5708
 20
45.7826
 30
0
 11
58.5708
 21
42.9826
 31
0
  0
LINE
  5
A70
330
A02
100
AcDbEntity
  8
Shape2DView001
100
AcDbLine
 10
85.5774
 20
58.0507
 30
0
 11
85.5775
 21
45.7827
 31
0
  0
LINE
  5
A71
330
A02
100
AcDbEntity
  8
Shape2DView001
100
AcDbLine
 10
85.5774
 20
58.0507
 30
0
 11
83.0028
 21
58.0507
 31
0
  0
LINE
  5
A72
330
A02
100
AcDbEntity
  8
Shape2DView001
100
AcDbLine
 10
48.3841
 20
42.9826
 30
0
 11
58.5708
 21
42.9826
 31
0
  0
LINE
  5
A73
330
A02
100
AcDbEntity
  8
Shape2DView001
100
AcDbLine
 10
48.3841
 20
45.7826
 30
0
 11
48.3841
 21
42.9826
 31
0
  0
LINE
  5
A74
330
A02
100
AcDbEntity
  8
Shape2DView001
100
AcDbLine
 10
85.5774
 20
67.864
 30
0
 11
83.0027
 21
67.864
 31
0
  0
LINE
  5
A75
330
A02
100
AcDbEntity
  8
Shape2DView001
100
AcDbLine
 10
85.5773
 20
77.1523
 30
0
 11
85.5774
 21
67.864
 31
0
  0
LINE
  5
A76
330
A02
100
AcDbEntity
  8
Shape2DView001
100
AcDbLine
 10
58.5707
 20
77.1522
 30
0
 11
85.5773
 21
77.1523
 31
0
  0
LINE
  5
A77
330
A02
100
AcDbEntity
  8
Shape2DView001
100
AcDbLine
 10
58.5707
 20
77.1522
 30
0
 11
58.5707
 21
79.9522
 31
0
  0
LINE
  5
A78
330
A02
100
AcDbEntity
  8
Shape2DView001
100
AcDbLine
 10
58.5707
 20
79.9522
 30
0
 11
48.384
 21
79.9522
 31
0
  0
LINE
  5
A79
330
A02
100
AcDbEntity
  8
Shape2DView001
100
AcDbLine
 10
37.1707
 20
77.1521
 30
0
 11
48.384
 21
77.1522
 31
0
  0
LINE
  5
A7A
330
A02
100
AcDbEntity
  8
Shape2DView001
100
AcDbLine
 10
48.384
 20
77.1522
 30
0
 11
48.384
 21
79.9522
 31
0
  0
LINE
  5
A7B
330
A02
100
AcDbEntity
  8
Shape2DView001
100
AcDbLine
 10
37.1707
 20
77.1521
 30
0
 11
37.1707
 21
79.9521
 31
0
  0
LINE
  5
A7C
330
A02
100
AcDbEntity
  8
Shape2DView001
100
AcDbLine
 10
37.1707
 20
79.9521
 30
0
 11
26.984
 21
79.9521
 31
0
  0
LINE
  5
A7D
330
A02
100
AcDbEntity
  8
Shape2DView001
100
AcDbLine
 10
-0.0226586
 20
77.152
 30
0
 11
26.984
 21
77.1521
 31
0
  0
LINE
  5
A7E
330
A02
100
AcDbEntity
  8
Shape2DView001
100
AcDbLine
 10
-0.0226239
 20
67.8637
 30
0
 11
-0.0226586
 21
77.152
 31
0
  0
LINE
  5
A7F
330
A02
100
AcDbEntity
  8
Shape2DView001
100
AcDbLine
 10
2.55204
 20
67.8637
 30
0
 11
-0.0226239
 21
67.8637
 31
0
  0
ARC
  5
A80
330
A02
100
AcDbEntity
  8
Shape2DView001
100
AcDbCircle
 10
2.72447
 20
67.7642
 30
0
 40
0.19911
100
AcDbArc
 50
-59.9998
 51
150
  0
LINE
  5
A81
330
A02
100
AcDbEntity
  8
Shape2DView001
100
AcDbLine
 10
2.82403
 20
67.5917
 30
0
 11
2.82406
 21
58.3224
 31
0
  0
ARC
  5
A82
330
A02
100
AcDbEntity
  8
Shape2DView001
100
AcDbCircle
 10
2.72451
 20
58.15
 30
0
 40
0.19911
100
AcDbArc
 50
-150
 51
60.0002
  0
LINE
  5
A83
330
A02
100
AcDbEntity
  8
Shape2DView001
100
AcDbLine
 10
2.55207
 20
58.0504
 30
0
 11
-0.0225873
 21
58.0504
 31
0
  0
LINE
  5
A84
330
A02
100
AcDbEntity
  8
Shape2DView001
100
AcDbLine
 10
-0.0225415
 20
45.7824
 30
0
 11
-0.0225873
 21
58.0504
 31
0
  0
LINE
  5
A85
330
A02
100
AcDbEntity
  8
Shape2DView001
100
AcDbLine
 10
26.9841
 20
45.7825
 30
0
 11
-0.0225415
 21
45.7824
 31
0
  0
LINE
  5
A86
330
A02
100
AcDbEntity
  8
Shape2DView001
100
AcDbLine
 10
26.984
 20
77.1521
 30
0
 11
26.984
 21
79.9521
 31
0
  0
LINE
  5
A87
330
A02
100
AcDbEntity
  8
Shape2DView001
100
AcDbLine
 10
26.9841
 20
45.7825
 30
0
 11
26.9841
 21
42.9825
 31
0
  0
LINE
  5
A88
330
A02
100
AcDbEntity
  8
Shape2DView001
100
AcDbLine
 10
26.9841
 20
42.9825
 30
0
 11
37.1708
 21
42.9826
 31
0
  0
LINE
  5
A89
330
A02
100
AcDbEntity
  8
Shape2DView001
100
AcDbLine
 10
48.3841
 20
45.7826
 30
0
 11
37.1708
 21
45.7826
 31
0
  0
LINE
  5
A8A
330
A02
100
AcDbEntity
  8
Shape2DView001
100
AcDbLine
 10
37.1708
 20
45.7826
 30
0
 11
37.1708
 21
42.9826
 31
0
  0
ARC
  5
A8B
330
A02
100
AcDbEntity
  8
Shape2DView001
100
AcDbCircle
 10
82.8303
 20
58.1503
 30
0
 40
0.19911
100
AcDbArc
 50
-180
 51
-29.9998
  0
ARC
  5
A8C
330
A02
100
AcDbEntity
  8
Shape2DView001
100
AcDbCircle
 10
82.8303
 20
58.1503
 30
0
 40
0.19911
100
AcDbArc
 50
120
 51
-180
  0
LINE
  5
A8D
330
A02
100
AcDbEntity
  8
Shape2DView001
100
AcDbLine
 10
82.7307
 20
67.592
 30
0
 11
82.7308
 21
58.3227
 31
0
  0
ARC
  5
A8E
330
A02
100
AcDbEntity
  8
Shape2DView001
100
AcDbCircle
 10
82.8303
 20
67.7645
 30
0
 40
0.19911
100
AcDbArc
 50
-180
 51
-120
  0
ARC
  5
A8F
330
A02
100
AcDbEntity
  8
Shape2DView001
100
AcDbCircle
 10
82.8303
 20
67.7645
 30
0
 40
0.19911
100
AcDbArc
 50
30.0002
 51
-180
  0
CIRCLE
  5
A90
330
A02
100
AcDbEntity
  8
Shape2DView001
100
AcDbCircle
 10
42.7774
 20
53.8474
 40
2.5
  0
CIRCLE
  5
A91
330
A02
100
AcDbEntity
  8
Shape2DView001
100
AcDbCircle
 10
42.7774
 20
61.4674
 40
2.5
  0
CIRCLE
  5
A92
330
A02
100
AcDbEntity
  8
Shape2DView001
100
AcDbCircle
 10
42.7774
 20
69.0874
 40
2.5
  0
CIRCLE
  5
A93
330
A02
100
AcDbEntity
  8
Shape2DView001
100
AcDbCircle
 10
35.1574
 20
61.4673
 40
2.5
  0
CIRCLE
  5
A94
330
A02
100
AcDbEntity
  8
Shape2DView001
100
AcDbCircle
 10
50.3974
 20
61.4674
 40
2.5
  0
LINE
  5
A95
330
A02
100
AcDbEntity
  8
Shape2DView003
100
AcDbLine
 10
85.6285
 20
128.457
 30
0
 11
58.6218
 21
128.458
 31
0
  0
LINE
  5
A96
330
A02
100
AcDbEntity
  8
Shape2DView003
100
AcDbLine
 10
58.6218
 20
128.458
 30
0
 11
58.6218
 21
125.658
 31
0
  0
LINE
  5
A97
330
A02
100
AcDbEntity
  8
Shape2DView003
100
AcDbLine
 10
85.6286
 20
139.459
 30
0
 11
85.6285
 21
128.457
 31
0
  0
LINE
  5
A98
330
A02
100
AcDbEntity
  8
Shape2DView003
100
AcDbLine
 10
58.622
 20
139.459
 30
0
 11
85.6286
 21
139.459
 31
0
  0
LINE
  5
A99
330
A02
100
AcDbEntity
  8
Shape2DView003
100
AcDbLine
 10
48.4351
 20
125.658
 30
0
 11
58.6218
 21
125.658
 31
0
  0
LINE
  5
A9A
330
A02
100
AcDbEntity
  8
Shape2DView003
100
AcDbLine
 10
48.4351
 20
128.458
 30
0
 11
48.4351
 21
125.658
 31
0
  0
LINE
  5
A9B
330
A02
100
AcDbEntity
  8
Shape2DView003
100
AcDbLine
 10
48.4351
 20
128.458
 30
0
 11
37.2218
 21
128.458
 31
0
  0
LINE
  5
A9C
330
A02
100
AcDbEntity
  8
Shape2DView003
100
AcDbLine
 10
37.2218
 20
128.458
 30
0
 11
37.2218
 21
125.658
 31
0
  0
LINE
  5
A9D
330
A02
100
AcDbEntity
  8
Shape2DView003
100
AcDbLine
 10
27.0351
 20
125.658
 30
0
 11
37.2218
 21
125.658
 31
0
  0
LINE
  5
A9E
330
A02
100
AcDbEntity
  8
Shape2DView003
100
AcDbLine
 10
27.0351
 20
128.458
 30
0
 11
27.0351
 21
125.658
 31
0
  0
LINE
  5
A9F
330
A02
100
AcDbEntity
  8
Shape2DView003
100
AcDbLine
 10
27.0351
 20
128.458
 30
0
 11
0.0284615
 21
128.458
 31
0
  0
LINE
  5
AA0
330
A02
100
AcDbEntity
  8
Shape2DView003
100
AcDbLine
 10
0.0284615
 20
128.458
 30
0
 11
0.0286059
 21
139.46
 31
0
  0
LINE
  5
AA1
330
A02
100
AcDbEntity
  8
Shape2DView003
100
AcDbLine
 10
0.0286059
 20
139.46
 30
0
 11
27.0353
 21
139.459
 31
0
  0
LINE
  5
AA2
330
A02
100
AcDbEntity
  8
Shape2DView003
100
AcDbLine
 10
27.0353
 20
139.459
 30
0
 11
27.0353
 21
142.259
 31
0
  0
LINE
  5
AA3
330
A02
100
AcDbEntity
  8
Shape2DView003
100
AcDbLine
 10
37.222
 20
142.259
 30
0
 11
27.0353
 21
142.259
 31
0
  0
LINE
  5
AA4
330
A02
100
AcDbEntity
  8
Shape2DView003
100
AcDbLine
 10
37.222
 20
139.459
 30
0
 11
37.222
 21
142.259
 31
0
  0
LINE
  5
AA5
330
A02
100
AcDbEntity
  8
Shape2DView003
100
AcDbLine
 10
37.222
 20
139.459
 30
0
 11
48.4353
 21
139.459
 31
0
  0
LINE
  5
AA6
330
A02
100
AcDbEntity
  8
Shape2DView003
100
AcDbLine
 10
48.4353
 20
139.459
 30
0
 11
48.4353
 21
142.259
 31
0
  0
LINE
  5
AA7
330
A02
100
AcDbEntity
  8
Shape2DView003
100
AcDbLine
 10
58.622
 20
142.259
 30
0
 11
48.4353
 21
142.259
 31
0
  0
LINE
  5
AA8
330
A02
100
AcDbEntity
  8
Shape2DView003
100
AcDbLine
 10
58.622
 20
139.459
 30
0
 11
58.622
 21
142.259
 31
0
  0
LINE
  5
AA9
330
A02
100
AcDbEntity
  8
Shape2DView004
100
AcDbLine
 10
4.72725
 20
165.636
 30
0
 11
4.72725
 21
167.115
 31
0
  0
LINE
  5
AAA
330
A02
100
AcDbEntity
  8
Shape2DView004
100
AcDbLine
 10
1.92725
 20
165.636
 30
0
 11
4.72725
 21
165.636
 31
0
  0
LINE
  5
AAB
330
A02
100
AcDbEntity
  8
Shape2DView004
100
AcDbLine
 10
1.92725
 20
165.636
 30
0
 11
1.92725
 21
166.386
 31
0
  0
LINE
  5
AAC
330
A02
100
AcDbEntity
  8
Shape2DView004
100
AcDbLine
 10
1.92725
 20
166.386
 30
0
 11
0.1868
 21
165.734
 31
0
  0
ARC
  5
AAD
330
A02
100
AcDbEntity
  8
Shape2DView004
100
AcDbCircle
 10
0.327249
 20
165.359
 30
0
 40
0.4
100
AcDbArc
 50
110.556
 51
180
  0
LINE
  5
AAE
330
A02
100
AcDbEntity
  8
Shape2DView004
100
AcDbLine
 10
-0.0727507
 20
163.236
 30
0
 11
-0.0727507
 21
165.359
 31
0
  0
ARC
  5
AAF
330
A02
100
AcDbEntity
  8
Shape2DView004
100
AcDbCircle
 10
0.327249
 20
163.236
 30
0
 40
0.4
100
AcDbArc
 50
180
 51
-90
  0
LINE
  5
AB0
330
A02
100
AcDbEntity
  8
Shape2DView004
100
AcDbLine
 10
13.9272
 20
162.836
 30
0
 11
0.327249
 21
162.836
 31
0
  0
ARC
  5
AB1
330
A02
100
AcDbEntity
  8
Shape2DView004
100
AcDbCircle
 10
13.9272
 20
162.436
 30
0
 40
0.4
100
AcDbArc
 50
-90
 51
90
  0
LINE
  5
AB2
330
A02
100
AcDbEntity
  8
Shape2DView004
100
AcDbLine
 10
0.327249
 20
162.036
 30
0
 11
13.9272
 21
162.036
 31
0
  0
ARC
  5
AB3
330
A02
100
AcDbEntity
  8
Shape2DView004
100
AcDbCircle
 10
0.327249
 20
161.636
 30
0
 40
0.4
100
AcDbArc
 50
90
 51
180
  0
LINE
  5
AB4
330
A02
100
AcDbEntity
  8
Shape2DView004
100
AcDbLine
 10
-0.0727507
 20
156.743
 30
0
 11
-0.0727507
 21
161.636
 31
0
  0
LINE
  5
AB5
330
A02
100
AcDbEntity
  8
Shape2DView004
100
AcDbLine
 10
-0.0727507
 20
156.743
 30
0
 11
2.50191
 21
156.743
 31
0
  0
ARC
  5
AB6
330
A02
100
AcDbEntity
  8
Shape2DView004
100
AcDbCircle
 10
2.67434
 20
156.643
 30
0
 40
0.19911
100
AcDbArc
 50
0
 51
150
  0
ARC
  5
AB7
330
A02
100
AcDbEntity
  8
Shape2DView004
100
AcDbCircle
 10
2.67434
 20
156.643
 30
0
 40
0.19911
100
AcDbArc
 50
-60
 51
0
  0
LINE
  5
AB8
330
A02
100
AcDbEntity
  8
Shape2DView004
100
AcDbLine
 10
2.7739
 20
156.471
 30
0
 11
2.7739
 21
152.202
 31
0
  0
ARC
  5
AB9
330
A02
100
AcDbEntity
  8
Shape2DView004
100
AcDbCircle
 10
2.67434
 20
152.029
 30
0
 40
0.19911
100
AcDbArc
 50
0
 51
60
  0
ARC
  5
ABA
330
A02
100
AcDbEntity
  8
Shape2DView004
100
AcDbCircle
 10
2.67434
 20
152.029
 30
0
 40
0.19911
100
AcDbArc
 50
-150
 51
0
  0
LINE
  5
ABB
330
A02
100
AcDbEntity
  8
Shape2DView004
100
AcDbLine
 10
-0.0727507
 20
151.93
 30
0
 11
2.50191
 21
151.93
 31
0
  0
LINE
  5
ABC
330
A02
100
AcDbEntity
  8
Shape2DView004
100
AcDbLine
 10
-0.0727507
 20
147.036
 30
0
 11
-0.0727507
 21
151.93
 31
0
  0
ARC
  5
ABD
330
A02
100
AcDbEntity
  8
Shape2DView004
100
AcDbCircle
 10
0.327249
 20
147.036
 30
0
 40
0.4
100
AcDbArc
 50
180
 51
-90
  0
LINE
  5
ABE
330
A02
100
AcDbEntity
  8
Shape2DView004
100
AcDbLine
 10
13.9272
 20
146.636
 30
0
 11
0.327249
 21
146.636
 31
0
  0
ARC
  5
ABF
330
A02
100
AcDbEntity
  8
Shape2DView004
100
AcDbCircle
 10
13.9272
 20
146.236
 30
0
 40
0.4
100
AcDbArc
 50
-90
 51
90
  0
LINE
  5
AC0
330
A02
100
AcDbEntity
  8
Shape2DView004
100
AcDbLine
 10
0.327249
 20
145.836
 30
0
 11
13.9272
 21
145.836
 31
0
  0
ARC
  5
AC1
330
A02
100
AcDbEntity
  8
Shape2DView004
100
AcDbCircle
 10
0.327249
 20
145.436
 30
0
 40
0.4
100
AcDbArc
 50
90
 51
180
  0
LINE
  5
AC2
330
A02
100
AcDbEntity
  8
Shape2DView004
100
AcDbLine
 10
-0.0727507
 20
143.314
 30
0
 11
-0.0727507
 21
145.436
 31
0
  0
ARC
  5
AC3
330
A02
100
AcDbEntity
  8
Shape2DView004
100
AcDbCircle
 10
0.327249
 20
143.314
 30
0
 40
0.4
100
AcDbArc
 50
180
 51
-110.556
  0
LINE
  5
AC4
330
A02
100
AcDbEntity
  8
Shape2DView004
100
AcDbLine
 10
0.1868
 20
142.939
 30
0
 11
1.92725
 21
142.286
 31
0
  0
LINE
  5
AC5
330
A02
100
AcDbEntity
  8
Shape2DView004
100
AcDbLine
 10
1.92725
 20
143.036
 30
0
 11
1.92725
 21
142.286
 31
0
  0
LINE
  5
AC6
330
A02
100
AcDbEntity
  8
Shape2DView004
100
AcDbLine
 10
4.72725
 20
143.036
 30
0
 11
1.92725
 21
143.036
 31
0
  0
LINE
  5
AC7
330
A02
100
AcDbEntity
  8
Shape2DView004
100
AcDbLine
 10
4.72725
 20
141.558
 30
0
 11
4.72725
 21
143.036
 31
0
  0
ARC
  5
AC8
330
A02
100
AcDbEntity
  8
Shape2DView004
100
AcDbCircle
 10
5.12725
 20
141.558
 30
0
 40
0.4
100
AcDbArc
 50
180
 51
-75
  0
LINE
  5
AC9
330
A02
100
AcDbEntity
  8
Shape2DView004
100
AcDbLine
 10
12.1914
 20
143.036
 30
0
 11
5.23078
 21
141.171
 31
0
  0
LINE
  5
ACA
330
A02
100
AcDbEntity
  8
Shape2DView004
100
AcDbLine
 10
27.1206
 20
143.036
 30
0
 11
12.1914
 21
143.036
 31
0
  0
LINE
  5
ACB
330
A02
100
AcDbEntity
  8
Shape2DView004
100
AcDbLine
 10
27.1206
 20
145.611
 30
0
 11
27.1206
 21
143.036
 31
0
  0
ARC
  5
ACC
330
A02
100
AcDbEntity
  8
Shape2DView004
100
AcDbCircle
 10
27.2202
 20
145.783
 30
0
 40
0.19911
100
AcDbArc
 50
30
 51
-120
  0
LINE
  5
ACD
330
A02
100
AcDbEntity
  8
Shape2DView004
100
AcDbLine
 10
36.6619
 20
145.883
 30
0
 11
27.3926
 21
145.883
 31
0
  0
ARC
  5
ACE
330
A02
100
AcDbEntity
  8
Shape2DView004
100
AcDbCircle
 10
36.8343
 20
145.783
 30
0
 40
0.19911
100
AcDbArc
 50
-60
 51
150
  0
LINE
  5
ACF
330
A02
100
AcDbEntity
  8
Shape2DView004
100
AcDbLine
 10
36.9339
 20
145.611
 30
0
 11
36.9339
 21
143.036
 31
0
  0
LINE
  5
AD0
330
A02
100
AcDbEntity
  8
Shape2DView004
100
AcDbLine
 10
48.5206
 20
143.036
 30
0
 11
36.9339
 21
143.036
 31
0
  0
LINE
  5
AD1
330
A02
100
AcDbEntity
  8
Shape2DView004
100
AcDbLine
 10
48.5206
 20
145.611
 30
0
 11
48.5206
 21
143.036
 31
0
  0
ARC
  5
AD2
330
A02
100
AcDbEntity
  8
Shape2DView004
100
AcDbCircle
 10
48.6202
 20
145.783
 30
0
 40
0.19911
100
AcDbArc
 50
30
 51
-120
  0
LINE
  5
AD3
330
A02
100
AcDbEntity
  8
Shape2DView004
100
AcDbLine
 10
58.0619
 20
145.883
 30
0
 11
48.7926
 21
145.883
 31
0
  0
ARC
  5
AD4
330
A02
100
AcDbEntity
  8
Shape2DView004
100
AcDbCircle
 10
58.2343
 20
145.783
 30
0
 40
0.19911
100
AcDbArc
 50
-60
 51
150
  0
LINE
  5
AD5
330
A02
100
AcDbEntity
  8
Shape2DView004
100
AcDbLine
 10
58.3339
 20
145.611
 30
0
 11
58.3339
 21
143.036
 31
0
  0
LINE
  5
AD6
330
A02
100
AcDbEntity
  8
Shape2DView004
100
AcDbLine
 10
73.2631
 20
143.036
 30
0
 11
58.3339
 21
143.036
 31
0
  0
LINE
  5
AD7
330
A02
100
AcDbEntity
  8
Shape2DView004
100
AcDbLine
 10
80.2237
 20
141.171
 30
0
 11
73.2631
 21
143.036
 31
0
  0
ARC
  5
AD8
330
A02
100
AcDbEntity
  8
Shape2DView004
100
AcDbCircle
 10
80.3272
 20
141.558
 30
0
 40
0.4
100
AcDbArc
 50
-105
 51
0
  0
LINE
  5
AD9
330
A02
100
AcDbEntity
  8
Shape2DView004
100
AcDbLine
 10
80.7272
 20
143.036
 30
0
 11
80.7272
 21
141.558
 31
0
  0
LINE
  5
ADA
330
A02
100
AcDbEntity
  8
Shape2DView004
100
AcDbLine
 10
83.5272
 20
143.036
 30
0
 11
80.7272
 21
143.036
 31
0
  0
LINE
  5
ADB
330
A02
100
AcDbEntity
  8
Shape2DView004
100
AcDbLine
 10
83.5272
 20
143.036
 30
0
 11
83.5272
 21
142.286
 31
0
  0
LINE
  5
ADC
330
A02
100
AcDbEntity
  8
Shape2DView004
100
AcDbLine
 10
85.2677
 20
142.939
 30
0
 11
83.5272
 21
142.286
 31
0
  0
ARC
  5
ADD
330
A02
100
AcDbEntity
  8
Shape2DView004
100
AcDbCircle
 10
85.1272
 20
143.314
 30
0
 40
0.4
100
AcDbArc
 50
-69.444
 51
0
  0
LINE
  5
ADE
330
A02
100
AcDbEntity
  8
Shape2DView004
100
AcDbLine
 10
85.5272
 20
145.436
 30
0
 11
85.5272
 21
143.314
 31
0
  0
ARC
  5
ADF
330
A02
100
AcDbEntity
  8
Shape2DView004
100
AcDbCircle
 10
85.1272
 20
145.436
 30
0
 40
0.4
100
AcDbArc
 50
0
 51
90
  0
LINE
  5
AE0
330
A02
100
AcDbEntity
  8
Shape2DView004
100
AcDbLine
 10
71.5272
 20
145.836
 30
0
 11
85.1272
 21
145.836
 31
0
  0
ARC
  5
AE1
330
A02
100
AcDbEntity
  8
Shape2DView004
100
AcDbCircle
 10
71.5272
 20
146.236
 30
0
 40
0.4
100
AcDbArc
 50
90
 51
-90
  0
LINE
  5
AE2
330
A02
100
AcDbEntity
  8
Shape2DView004
100
AcDbLine
 10
85.1272
 20
146.636
 30
0
 11
71.5272
 21
146.636
 31
0
  0
ARC
  5
AE3
330
A02
100
AcDbEntity
  8
Shape2DView004
100
AcDbCircle
 10
85.1272
 20
147.036
 30
0
 40
0.4
100
AcDbArc
 50
-90
 51
0
  0
LINE
  5
AE4
330
A02
100
AcDbEntity
  8
Shape2DView004
100
AcDbLine
 10
85.5272
 20
151.93
 30
0
 11
85.5272
 21
147.036
 31
0
  0
LINE
  5
AE5
330
A02
100
AcDbEntity
  8
Shape2DView004
100
AcDbLine
 10
82.9526
 20
151.93
 30
0
 11
85.5272
 21
151.93
 31
0
  0
ARC
  5
AE6
330
A02
100
AcDbEntity
  8
Shape2DView004
100
AcDbCircle
 10
82.7802
 20
152.029
 30
0
 40
0.19911
100
AcDbArc
 50
120
 51
-30
  0
LINE
  5
AE7
330
A02
100
AcDbEntity
  8
Shape2DView004
100
AcDbLine
 10
82.6806
 20
156.471
 30
0
 11
82.6806
 21
152.202
 31
0
  0
ARC
  5
AE8
330
A02
100
AcDbEntity
  8
Shape2DView004
100
AcDbCircle
 10
82.7802
 20
156.643
 30
0
 40
0.19911
100
AcDbArc
 50
30
 51
-120
  0
LINE
  5
AE9
330
A02
100
AcDbEntity
  8
Shape2DView004
100
AcDbLine
 10
82.9526
 20
156.743
 30
0
 11
85.5272
 21
156.743
 31
0
  0
LINE
  5
AEA
330
A02
100
AcDbEntity
  8
Shape2DView004
100
AcDbLine
 10
85.5272
 20
161.636
 30
0
 11
85.5272
 21
156.743
 31
0
  0
ARC
  5
AEB
330
A02
100
AcDbEntity
  8
Shape2DView004
100
AcDbCircle
 10
85.1272
 20
161.636
 30
0
 40
0.4
100
AcDbArc
 50
0
 51
90
  0
LINE
  5
AEC
330
A02
100
AcDbEntity
  8
Shape2DView004
100
AcDbLine
 10
71.5272
 20
162.036
 30
0
 11
85.1272
 21
162.036
 31
0
  0
ARC
  5
AED
330
A02
100
AcDbEntity
  8
Shape2DView004
100
AcDbCircle
 10
71.5272
 20
162.436
 30
0
 40
0.4
100
AcDbArc
 50
90
 51
-90
  0
LINE
  5
AEE
330
A02
100
AcDbEntity
  8
Shape2DView004
100
AcDbLine
 10
85.1272
 20
162.836
 30
0
 11
71.5272
 21
162.836
 31
0
  0
ARC
  5
AEF
330
A02
100
AcDbEntity
  8
Shape2DView004
100
AcDbCircle
 10
85.1272
 20
163.236
 30
0
 40
0.4
100
AcDbArc
 50
-90
 51
0
  0
LINE
  5
AF0
330
A02
100
AcDbEntity
  8
Shape2DView004
100
AcDbLine
 10
85.5272
 20
165.359
 30
0
 11
85.5272
 21
163.236
 31
0
  0
ARC
  5
AF1
330
A02
100
AcDbEntity
  8
Shape2DView004
100
AcDbCircle
 10
85.1272
 20
165.359
 30
0
 40
0.4
100
AcDbArc
 50
0
 51
69.444
  0
LINE
  5
AF2
330
A02
100
AcDbEntity
  8
Shape2DView004
100
AcDbLine
 10
83.5272
 20
166.386
 30
0
 11
85.2677
 21
165.734
 31
0
  0
LINE
  5
AF3
330
A02
100
AcDbEntity
  8
Shape2DView004
100
AcDbLine
 10
83.5272
 20
165.636
 30
0
 11
83.5272
 21
166.386
 31
0
  0
LINE
  5
AF4
330
A02
100
AcDbEntity
  8
Shape2DView004
100
AcDbLine
 10
80.7272
 20
165.636
 30
0
 11
83.5272
 21
165.636
 31
0
  0
LINE
  5
AF5
330
A02
100
AcDbEntity
  8
Shape2DView004
100
AcDbLine
 10
80.7272
 20
167.115
 30
0
 11
80.7272
 21
165.636
 31
0
  0
ARC
  5
AF6
330
A02
100
AcDbEntity
  8
Shape2DView004
100
AcDbCircle
 10
80.3272
 20
167.115
 30
0
 40
0.4
100
AcDbArc
 50
0
 51
105
  0
LINE
  5
AF7
330
A02
100
AcDbEntity
  8
Shape2DView004
100
AcDbLine
 10
73.2631
 20
165.636
 30
0
 11
80.2237
 21
167.501
 31
0
  0
LINE
  5
AF8
330
A02
100
AcDbEntity
  8
Shape2DView004
100
AcDbLine
 10
58.3339
 20
165.636
 30
0
 11
73.2631
 21
165.636
 31
0
  0
LINE
  5
AF9
330
A02
100
AcDbEntity
  8
Shape2DView004
100
AcDbLine
 10
58.3339
 20
165.636
 30
0
 11
58.3339
 21
163.062
 31
0
  0
ARC
  5
AFA
330
A02
100
AcDbEntity
  8
Shape2DView004
100
AcDbCircle
 10
58.2343
 20
162.889
 30
0
 40
0.19911
100
AcDbArc
 50
-90
 51
60
  0
ARC
  5
AFB
330
A02
100
AcDbEntity
  8
Shape2DView004
100
AcDbCircle
 10
58.2343
 20
162.889
 30
0
 40
0.19911
100
AcDbArc
 50
-150
 51
-90
  0
LINE
  5
AFC
330
A02
100
AcDbEntity
  8
Shape2DView004
100
AcDbLine
 10
58.0619
 20
162.79
 30
0
 11
48.7926
 21
162.79
 31
0
  0
ARC
  5
AFD
330
A02
100
AcDbEntity
  8
Shape2DView004
100
AcDbCircle
 10
48.6202
 20
162.889
 30
0
 40
0.19911
100
AcDbArc
 50
-90
 51
-30
  0
ARC
  5
AFE
330
A02
100
AcDbEntity
  8
Shape2DView004
100
AcDbCircle
 10
48.6202
 20
162.889
 30
0
 40
0.19911
100
AcDbArc
 50
120
 51
-90
  0
LINE
  5
AFF
330
A02
100
AcDbEntity
  8
Shape2DView004
100
AcDbLine
 10
48.5206
 20
165.636
 30
0
 11
48.5206
 21
163.062
 31
0
  0
LINE
  5
B00
330
A02
100
AcDbEntity
  8
Shape2DView004
100
AcDbLine
 10
36.9339
 20
165.636
 30
0
 11
48.5206
 21
165.636
 31
0
  0
LINE
  5
B01
330
A02
100
AcDbEntity
  8
Shape2DView004
100
AcDbLine
 10
36.9339
 20
165.636
 30
0
 11
36.9339
 21
163.062
 31
0
  0
ARC
  5
B02
330
A02
100
AcDbEntity
  8
Shape2DView004
100
AcDbCircle
 10
36.8343
 20
162.889
 30
0
 40
0.19911
100
AcDbArc
 50
-90
 51
60
  0
ARC
  5
B03
330
A02
100
AcDbEntity
  8
Shape2DView004
100
AcDbCircle
 10
36.8343
 20
162.889
 30
0
 40
0.19911
100
AcDbArc
 50
-150
 51
-90
  0
LINE
  5
B04
330
A02
100
AcDbEntity
  8
Shape2DView004
100
AcDbLine
 10
36.6619
 20
162.79
 30
0
 11
27.3926
 21
162.79
 31
0
  0
ARC
  5
B05
330
A02
100
AcDbEntity
  8
Shape2DView004
100
AcDbCircle
 10
27.2202
 20
162.889
 30
0
 40
0.19911
100
AcDbArc
 50
-90
 51
-30
  0
ARC
  5
B06
330
A02
100
AcDbEntity
  8
Shape2DView004
100
AcDbCircle
 10
27.2202
 20
162.889
 30
0
 40
0.19911
100
AcDbArc
 50
120
 51
-90
  0
LINE
  5
B07
330
A02
100
AcDbEntity
  8
Shape2DView004
100
AcDbLine
 10
27.1206
 20
165.636
 30
0
 11
27.1206
 21
163.062
 31
0
  0
LINE
  5
B08
330
A02
100
AcDbEntity
  8
Shape2DView004
100
AcDbLine
 10
12.1914
 20
165.636
 30
0
 11
27.1206
 21
165.636
 31
0
  0
LINE
  5
B09
330
A02
100
AcDbEntity
  8
Shape2DView004
100
AcDbLine
 10
5.23078
 20
167.501
 30
0
 11
12.1914
 21
165.636
 31
0
  0
ARC
  5
B0A
330
A02
100
AcDbEntity
  8
Shape2DView004
100
AcDbCircle
 10
5.12725
 20
167.115
 30
0
 40
0.4
100
AcDbArc
 50
75
 51
180
  0
CIRCLE
  5
B0B
330
A02
100
AcDbEntity
  8
Shape2DView004
100
AcDbCircle
 10
17.7272
 20
154.336
 40
2.5
  0
CIRCLE
  5
B0C
330
A02
100
AcDbEntity
  8
Shape2DView004
100
AcDbCircle
 10
67.7272
 20
154.336
 40
2.5
  0
LINE
  5
B0D
330
A02
100
AcDbEntity
  8
Shape2DView005
100
AcDbLine
 10
85.5804
 20
169.213
 30
0
 11
58.5737
 21
169.213
 31
0
  0
LINE
  5
B0E
330
A02
100
AcDbEntity
  8
Shape2DView005
100
AcDbLine
 10
58.5737
 20
169.213
 30
0
 11
58.5738
 21
166.413
 31
0
  0
LINE
  5
B0F
330
A02
100
AcDbEntity
  8
Shape2DView005
100
AcDbLine
 10
85.5803
 20
184.306
 30
0
 11
85.5804
 21
169.213
 31
0
  0
LINE
  5
B10
330
A02
100
AcDbEntity
  8
Shape2DView005
100
AcDbLine
 10
85.5803
 20
184.306
 30
0
 11
83.0056
 21
184.306
 31
0
  0
LINE
  5
B11
330
A02
100
AcDbEntity
  8
Shape2DView005
100
AcDbLine
 10
48.3871
 20
166.413
 30
0
 11
58.5738
 21
166.413
 31
0
  0
LINE
  5
B12
330
A02
100
AcDbEntity
  8
Shape2DView005
100
AcDbLine
 10
48.387
 20
169.213
 30
0
 11
48.3871
 21
166.413
 31
0
  0
LINE
  5
B13
330
A02
100
AcDbEntity
  8
Shape2DView005
100
AcDbLine
 10
85.5802
 20
194.12
 30
0
 11
83.0056
 21
194.119
 31
0
  0
LINE
  5
B14
330
A02
100
AcDbEntity
  8
Shape2DView005
100
AcDbLine
 10
85.5802
 20
209.213
 30
0
 11
85.5802
 21
194.12
 31
0
  0
LINE
  5
B15
330
A02
100
AcDbEntity
  8
Shape2DView005
100
AcDbLine
 10
66.2735
 20
209.213
 30
0
 11
85.5802
 21
209.213
 31
0
  0
LINE
  5
B16
330
A02
100
AcDbEntity
  8
Shape2DView005
100
AcDbLine
 10
66.2735
 20
209.213
 30
0
 11
66.2735
 21
212.013
 31
0
  0
LINE
  5
B17
330
A02
100
AcDbEntity
  8
Shape2DView005
100
AcDbLine
 10
66.2735
 20
212.013
 30
0
 11
62.0868
 21
212.013
 31
0
  0
LINE
  5
B18
330
A02
100
AcDbEntity
  8
Shape2DView005
100
AcDbLine
 10
23.4735
 20
209.212
 30
0
 11
62.0868
 21
209.213
 31
0
  0
LINE
  5
B19
330
A02
100
AcDbEntity
  8
Shape2DView005
100
AcDbLine
 10
62.0868
 20
209.213
 30
0
 11
62.0868
 21
212.013
 31
0
  0
LINE
  5
B1A
330
A02
100
AcDbEntity
  8
Shape2DView005
100
AcDbLine
 10
23.4735
 20
209.212
 30
0
 11
23.4735
 21
212.012
 31
0
  0
LINE
  5
B1B
330
A02
100
AcDbEntity
  8
Shape2DView005
100
AcDbLine
 10
23.4735
 20
212.012
 30
0
 11
19.2868
 21
212.012
 31
0
  0
LINE
  5
B1C
330
A02
100
AcDbEntity
  8
Shape2DView005
100
AcDbLine
 10
-0.0198452
 20
209.212
 30
0
 11
19.2868
 21
209.212
 31
0
  0
LINE
  5
B1D
330
A02
100
AcDbEntity
  8
Shape2DView005
100
AcDbLine
 10
-0.0197585
 20
194.119
 30
0
 11
-0.0198452
 21
209.212
 31
0
  0
LINE
  5
B1E
330
A02
100
AcDbEntity
  8
Shape2DView005
100
AcDbLine
 10
2.5549
 20
194.119
 30
0
 11
-0.0197585
 21
194.119
 31
0
  0
ARC
  5
B1F
330
A02
100
AcDbEntity
  8
Shape2DView005
100
AcDbCircle
 10
2.72734
 20
194.019
 30
0
 40
0.19911
100
AcDbArc
 50
-59.9997
 51
150
  0
LINE
  5
B20
330
A02
100
AcDbEntity
  8
Shape2DView005
100
AcDbLine
 10
2.82689
 20
193.847
 30
0
 11
2.82695
 21
184.578
 31
0
  0
ARC
  5
B21
330
A02
100
AcDbEntity
  8
Shape2DView005
100
AcDbCircle
 10
2.72739
 20
184.405
 30
0
 40
0.19911
100
AcDbArc
 50
-150
 51
60.0003
  0
LINE
  5
B22
330
A02
100
AcDbEntity
  8
Shape2DView005
100
AcDbLine
 10
2.55496
 20
184.306
 30
0
 11
-0.0197022
 21
184.306
 31
0
  0
LINE
  5
B23
330
A02
100
AcDbEntity
  8
Shape2DView005
100
AcDbLine
 10
-0.0196155
 20
169.212
 30
0
 11
-0.0197022
 21
184.306
 31
0
  0
LINE
  5
B24
330
A02
100
AcDbEntity
  8
Shape2DView005
100
AcDbLine
 10
26.987
 20
169.213
 30
0
 11
-0.0196155
 21
169.212
 31
0
  0
LINE
  5
B25
330
A02
100
AcDbEntity
  8
Shape2DView005
100
AcDbLine
 10
19.2868
 20
209.212
 30
0
 11
19.2868
 21
212.012
 31
0
  0
LINE
  5
B26
330
A02
100
AcDbEntity
  8
Shape2DView005
100
AcDbLine
 10
26.987
 20
169.213
 30
0
 11
26.9871
 21
166.413
 31
0
  0
LINE
  5
B27
330
A02
100
AcDbEntity
  8
Shape2DView005
100
AcDbLine
 10
26.9871
 20
166.413
 30
0
 11
37.1738
 21
166.413
 31
0
  0
LINE
  5
B28
330
A02
100
AcDbEntity
  8
Shape2DView005
100
AcDbLine
 10
48.387
 20
169.213
 30
0
 11
37.1737
 21
169.213
 31
0
  0
LINE
  5
B29
330
A02
100
AcDbEntity
  8
Shape2DView005
100
AcDbLine
 10
37.1737
 20
169.213
 30
0
 11
37.1738
 21
166.413
 31
0
  0
ARC
  5
B2A
330
A02
100
AcDbEntity
  8
Shape2DView005
100
AcDbCircle
 10
82.8332
 20
184.406
 30
0
 40
0.19911
100
AcDbArc
 50
-180
 51
-29.9997
  0
ARC
  5
B2B
330
A02
100
AcDbEntity
  8
Shape2DView005
100
AcDbCircle
 10
82.8332
 20
184.406
 30
0
 40
0.19911
100
AcDbArc
 50
120
 51
-180
  0
LINE
  5
B2C
330
A02
100
AcDbEntity
  8
Shape2DView005
100
AcDbLine
 10
82.7336
 20
193.847
 30
0
 11
82.7336
 21
184.578
 31
0
  0
ARC
  5
B2D
330
A02
100
AcDbEntity
  8
Shape2DView005
100
AcDbCircle
 10
82.8331
 20
194.02
 30
0
 40
0.19911
100
AcDbArc
 50
-180
 51
-120
  0
ARC
  5
B2E
330
A02
100
AcDbEntity
  8
Shape2DView005
100
AcDbCircle
 10
82.8331
 20
194.02
 30
0
 40
0.19911
100
AcDbArc
 50
30.0003
 51
-180
  0
LINE
  5
B2F
330
A02
100
AcDbEntity
  8
Shape2DView006
100
AcDbLine
 10
0.259551
 20
212.415
 30
0
 11
2
 21
211.762
 31
0
  0
ARC
  5
B30
330
A02
100
AcDbEntity
  8
Shape2DView006
100
AcDbCircle
 10
0.4
 20
212.789
 30
0
 40
0.4
100
AcDbArc
 50
180
 51
-110.556
  0
LINE
  5
B31
330
A02
100
AcDbEntity
  8
Shape2DView006
100
AcDbLine
 10
4.27545e-14
 20
212.789
 30
0
 11
4.36886e-14
 21
214.912
 31
0
  0
ARC
  5
B32
330
A02
100
AcDbEntity
  8
Shape2DView006
100
AcDbCircle
 10
0.4
 20
214.912
 30
0
 40
0.4
100
AcDbArc
 50
90
 51
180
  0
LINE
  5
B33
330
A02
100
AcDbEntity
  8
Shape2DView006
100
AcDbLine
 10
0.4
 20
215.312
 30
0
 11
14
 21
215.312
 31
0
  0
ARC
  5
B34
330
A02
100
AcDbEntity
  8
Shape2DView006
100
AcDbCircle
 10
14
 20
215.712
 30
0
 40
0.4
100
AcDbArc
 50
-90
 51
90
  0
LINE
  5
B35
330
A02
100
AcDbEntity
  8
Shape2DView006
100
AcDbLine
 10
14
 20
216.112
 30
0
 11
0.4
 21
216.112
 31
0
  0
ARC
  5
B36
330
A02
100
AcDbEntity
  8
Shape2DView006
100
AcDbCircle
 10
0.4
 20
216.512
 30
0
 40
0.4
100
AcDbArc
 50
180
 51
-90
  0
LINE
  5
B37
330
A02
100
AcDbEntity
  8
Shape2DView006
100
AcDbLine
 10
4.28086e-14
 20
216.512
 30
0
 11
5.57966e-14
 21
246.03
 31
0
  0
LINE
  5
B38
330
A02
100
AcDbEntity
  8
Shape2DView006
100
AcDbLine
 10
5.01821e-14
 20
246.03
 30
0
 11
2.57466
 21
246.03
 31
0
  0
ARC
  5
B39
330
A02
100
AcDbEntity
  8
Shape2DView006
100
AcDbCircle
 10
2.74709
 20
246.13
 30
0
 40
0.19911
100
AcDbArc
 50
-150
 51
0
  0
ARC
  5
B3A
330
A02
100
AcDbEntity
  8
Shape2DView006
100
AcDbCircle
 10
2.74709
 20
246.13
 30
0
 40
0.19911
100
AcDbArc
 50
0
 51
60
  0
LINE
  5
B3B
330
A02
100
AcDbEntity
  8
Shape2DView006
100
AcDbLine
 10
2.84665
 20
255.572
 30
0
 11
2.84665
 21
246.302
 31
0
  0
ARC
  5
B3C
330
A02
100
AcDbEntity
  8
Shape2DView006
100
AcDbCircle
 10
2.74709
 20
255.744
 30
0
 40
0.19911
100
AcDbArc
 50
-60
 51
0
  0
ARC
  5
B3D
330
A02
100
AcDbEntity
  8
Shape2DView006
100
AcDbCircle
 10
2.74709
 20
255.744
 30
0
 40
0.19911
100
AcDbArc
 50
0
 51
150
  0
LINE
  5
B3E
330
A02
100
AcDbEntity
  8
Shape2DView006
100
AcDbLine
 10
5.72875e-14
 20
255.844
 30
0
 11
2.57466
 21
255.844
 31
0
  0
LINE
  5
B3F
330
A02
100
AcDbEntity
  8
Shape2DView006
100
AcDbLine
 10
6.01145e-14
 20
255.844
 30
0
 11
6.62466e-14
 21
269.78
 31
0
  0
LINE
  5
B40
330
A02
100
AcDbEntity
  8
Shape2DView006
100
AcDbLine
 10
6.43929e-14
 20
269.78
 30
0
 11
2.57466
 21
269.78
 31
0
  0
ARC
  5
B41
330
A02
100
AcDbEntity
  8
Shape2DView006
100
AcDbCircle
 10
2.74709
 20
269.88
 30
0
 40
0.19911
100
AcDbArc
 50
-150
 51
0
  0
ARC
  5
B42
330
A02
100
AcDbEntity
  8
Shape2DView006
100
AcDbCircle
 10
2.74709
 20
269.88
 30
0
 40
0.19911
100
AcDbArc
 50
0
 51
60
  0
LINE
  5
B43
330
A02
100
AcDbEntity
  8
Shape2DView006
100
AcDbLine
 10
2.84665
 20
279.322
 30
0
 11
2.84665
 21
270.052
 31
0
  0
ARC
  5
B44
330
A02
100
AcDbEntity
  8
Shape2DView006
100
AcDbCircle
 10
2.74709
 20
279.494
 30
0
 40
0.19911
100
AcDbArc
 50
-60
 51
0
  0
ARC
  5
B45
330
A02
100
AcDbEntity
  8
Shape2DView006
100
AcDbCircle
 10
2.74709
 20
279.494
 30
0
 40
0.19911
100
AcDbArc
 50
0
 51
150
  0
LINE
  5
B46
330
A02
100
AcDbEntity
  8
Shape2DView006
100
AcDbLine
 10
7.14984e-14
 20
279.594
 30
0
 11
2.57466
 21
279.594
 31
0
  0
LINE
  5
B47
330
A02
100
AcDbEntity
  8
Shape2DView006
100
AcDbLine
 10
7.05645e-14
 20
279.594
 30
0
 11
8.35526e-14
 21
309.112
 31
0
  0
ARC
  5
B48
330
A02
100
AcDbEntity
  8
Shape2DView006
100
AcDbCircle
 10
0.4
 20
309.112
 30
0
 40
0.4
100
AcDbArc
 50
90
 51
180
  0
LINE
  5
B49
330
A02
100
AcDbEntity
  8
Shape2DView006
100
AcDbLine
 10
0.4
 20
309.512
 30
0
 11
14
 21
309.512
 31
0
  0
ARC
  5
B4A
330
A02
100
AcDbEntity
  8
Shape2DView006
100
AcDbCircle
 10
14
 20
309.912
 30
0
 40
0.4
100
AcDbArc
 50
-90
 51
90
  0
LINE
  5
B4B
330
A02
100
AcDbEntity
  8
Shape2DView006
100
AcDbLine
 10
14
 20
310.312
 30
0
 11
0.4
 21
310.312
 31
0
  0
ARC
  5
B4C
330
A02
100
AcDbEntity
  8
Shape2DView006
100
AcDbCircle
 10
0.4
 20
310.712
 30
0
 40
0.4
100
AcDbArc
 50
180
 51
-90
  0
LINE
  5
B4D
330
A02
100
AcDbEntity
  8
Shape2DView006
100
AcDbLine
 10
1.76e-16
 20
310.712
 30
0
 11
1.11003e-15
 21
312.835
 31
0
  0
ARC
  5
B4E
330
A02
100
AcDbEntity
  8
Shape2DView006
100
AcDbCircle
 10
0.4
 20
312.835
 30
0
 40
0.4
100
AcDbArc
 50
110.556
 51
180
  0
LINE
  5
B4F
330
A02
100
AcDbEntity
  8
Shape2DView006
100
AcDbLine
 10
0.259551
 20
313.209
 30
0
 11
2
 21
313.862
 31
0
  0
LINE
  5
B50
330
A02
100
AcDbEntity
  8
Shape2DView006
100
AcDbLine
 10
2
 20
313.862
 30
0
 11
2
 21
313.112
 31
0
  0
LINE
  5
B51
330
A02
100
AcDbEntity
  8
Shape2DView006
100
AcDbLine
 10
2
 20
313.112
 30
0
 11
4.8
 21
313.112
 31
0
  0
LINE
  5
B52
330
A02
100
AcDbEntity
  8
Shape2DView006
100
AcDbLine
 10
4.8
 20
314.591
 30
0
 11
4.8
 21
313.112
 31
0
  0
ARC
  5
B53
330
A02
100
AcDbEntity
  8
Shape2DView006
100
AcDbCircle
 10
5.2
 20
314.591
 30
0
 40
0.4
100
AcDbArc
 50
75
 51
180
  0
LINE
  5
B54
330
A02
100
AcDbEntity
  8
Shape2DView006
100
AcDbLine
 10
12.2641
 20
313.112
 30
0
 11
5.30353
 21
314.977
 31
0
  0
LINE
  5
B55
330
A02
100
AcDbEntity
  8
Shape2DView006
100
AcDbLine
 10
27.1933
 20
313.112
 30
0
 11
12.2641
 21
313.112
 31
0
  0
LINE
  5
B56
330
A02
100
AcDbEntity
  8
Shape2DView006
100
AcDbLine
 10
27.1933
 20
313.112
 30
0
 11
27.1933
 21
310.537
 31
0
  0
ARC
  5
B57
330
A02
100
AcDbEntity
  8
Shape2DView006
100
AcDbCircle
 10
27.2929
 20
310.365
 30
0
 40
0.19911
100
AcDbArc
 50
120
 51
-90
  0
ARC
  5
B58
330
A02
100
AcDbEntity
  8
Shape2DView006
100
AcDbCircle
 10
27.2929
 20
310.365
 30
0
 40
0.19911
100
AcDbArc
 50
-90
 51
-30
  0
LINE
  5
B59
330
A02
100
AcDbEntity
  8
Shape2DView006
100
AcDbLine
 10
36.7347
 20
310.265
 30
0
 11
27.4653
 21
310.265
 31
0
  0
ARC
  5
B5A
330
A02
100
AcDbEntity
  8
Shape2DView006
100
AcDbCircle
 10
36.9071
 20
310.365
 30
0
 40
0.19911
100
AcDbArc
 50
-150
 51
-90
  0
ARC
  5
B5B
330
A02
100
AcDbEntity
  8
Shape2DView006
100
AcDbCircle
 10
36.9071
 20
310.365
 30
0
 40
0.19911
100
AcDbArc
 50
-90
 51
60
  0
LINE
  5
B5C
330
A02
100
AcDbEntity
  8
Shape2DView006
100
AcDbLine
 10
37.0066
 20
313.112
 30
0
 11
37.0066
 21
310.537
 31
0
  0
LINE
  5
B5D
330
A02
100
AcDbEntity
  8
Shape2DView006
100
AcDbLine
 10
48.5934
 20
313.112
 30
0
 11
37.0066
 21
313.112
 31
0
  0
LINE
  5
B5E
330
A02
100
AcDbEntity
  8
Shape2DView006
100
AcDbLine
 10
48.5934
 20
313.112
 30
0
 11
48.5934
 21
310.537
 31
0
  0
ARC
  5
B5F
330
A02
100
AcDbEntity
  8
Shape2DView006
100
AcDbCircle
 10
48.6929
 20
310.365
 30
0
 40
0.19911
100
AcDbArc
 50
120
 51
-90
  0
ARC
  5
B60
330
A02
100
AcDbEntity
  8
Shape2DView006
100
AcDbCircle
 10
48.6929
 20
310.365
 30
0
 40
0.19911
100
AcDbArc
 50
-90
 51
-30
  0
LINE
  5
B61
330
A02
100
AcDbEntity
  8
Shape2DView006
100
AcDbLine
 10
58.1347
 20
310.265
 30
0
 11
48.8653
 21
310.265
 31
0
  0
ARC
  5
B62
330
A02
100
AcDbEntity
  8
Shape2DView006
100
AcDbCircle
 10
58.3071
 20
310.365
 30
0
 40
0.19911
100
AcDbArc
 50
-150
 51
-90
  0
ARC
  5
B63
330
A02
100
AcDbEntity
  8
Shape2DView006
100
AcDbCircle
 10
58.3071
 20
310.365
 30
0
 40
0.19911
100
AcDbArc
 50
-90
 51
60
  0
LINE
  5
B64
330
A02
100
AcDbEntity
  8
Shape2DView006
100
AcDbLine
 10
58.4066
 20
313.112
 30
0
 11
58.4066
 21
310.537
 31
0
  0
LINE
  5
B65
330
A02
100
AcDbEntity
  8
Shape2DView006
100
AcDbLine
 10
73.3359
 20
313.112
 30
0
 11
58.4067
 21
313.112
 31
0
  0
LINE
  5
B66
330
A02
100
AcDbEntity
  8
Shape2DView006
100
AcDbLine
 10
80.2965
 20
314.977
 30
0
 11
73.3359
 21
313.112
 31
0
  0
ARC
  5
B67
330
A02
100
AcDbEntity
  8
Shape2DView006
100
AcDbCircle
 10
80.4
 20
314.591
 30
0
 40
0.4
100
AcDbArc
 50
0
 51
105
  0
LINE
  5
B68
330
A02
100
AcDbEntity
  8
Shape2DView006
100
AcDbLine
 10
80.8
 20
313.112
 30
0
 11
80.8
 21
314.591
 31
0
  0
LINE
  5
B69
330
A02
100
AcDbEntity
  8
Shape2DView006
100
AcDbLine
 10
83.6
 20
313.112
 30
0
 11
80.8
 21
313.112
 31
0
  0
LINE
  5
B6A
330
A02
100
AcDbEntity
  8
Shape2DView006
100
AcDbLine
 10
83.6
 20
313.862
 30
0
 11
83.6
 21
313.112
 31
0
  0
LINE
  5
B6B
330
A02
100
AcDbEntity
  8
Shape2DView006
100
AcDbLine
 10
85.3404
 20
313.209
 30
0
 11
83.6
 21
313.862
 31
0
  0
ARC
  5
B6C
330
A02
100
AcDbEntity
  8
Shape2DView006
100
AcDbCircle
 10
85.2
 20
312.835
 30
0
 40
0.4
100
AcDbArc
 50
0
 51
69.444
  0
LINE
  5
B6D
330
A02
100
AcDbEntity
  8
Shape2DView006
100
AcDbLine
 10
85.6
 20
312.835
 30
0
 11
85.6
 21
310.712
 31
0
  0
ARC
  5
B6E
330
A02
100
AcDbEntity
  8
Shape2DView006
100
AcDbCircle
 10
85.2
 20
310.712
 30
0
 40
0.4
100
AcDbArc
 50
-90
 51
0
  0
LINE
  5
B6F
330
A02
100
AcDbEntity
  8
Shape2DView006
100
AcDbLine
 10
85.2
 20
310.312
 30
0
 11
71.6
 21
310.312
 31
0
  0
ARC
  5
B70
330
A02
100
AcDbEntity
  8
Shape2DView006
100
AcDbCircle
 10
71.6
 20
309.912
 30
0
 40
0.4
100
AcDbArc
 50
90
 51
-90
  0
LINE
  5
B71
330
A02
100
AcDbEntity
  8
Shape2DView006
100
AcDbLine
 10
71.6
 20
309.512
 30
0
 11
85.2
 21
309.512
 31
0
  0
ARC
  5
B72
330
A02
100
AcDbEntity
  8
Shape2DView006
100
AcDbCircle
 10
85.2
 20
309.112
 30
0
 40
0.4
100
AcDbArc
 50
0
 51
90
  0
LINE
  5
B73
330
A02
100
AcDbEntity
  8
Shape2DView006
100
AcDbLine
 10
85.6
 20
309.112
 30
0
 11
85.6
 21
279.594
 31
0
  0
LINE
  5
B74
330
A02
100
AcDbEntity
  8
Shape2DView006
100
AcDbLine
 10
83.0253
 20
279.594
 30
0
 11
85.6
 21
279.594
 31
0
  0
ARC
  5
B75
330
A02
100
AcDbEntity
  8
Shape2DView006
100
AcDbCircle
 10
82.8529
 20
279.494
 30
0
 40
0.19911
100
AcDbArc
 50
30
 51
-120
  0
LINE
  5
B76
330
A02
100
AcDbEntity
  8
Shape2DView006
100
AcDbLine
 10
82.7533
 20
279.322
 30
0
 11
82.7533
 21
270.052
 31
0
  0
ARC
  5
B77
330
A02
100
AcDbEntity
  8
Shape2DView006
100
AcDbCircle
 10
82.8529
 20
269.88
 30
0
 40
0.19911
100
AcDbArc
 50
120
 51
-30
  0
LINE
  5
B78
330
A02
100
AcDbEntity
  8
Shape2DView006
100
AcDbLine
 10
83.0253
 20
269.78
 30
0
 11
85.6
 21
269.78
 31
0
  0
LINE
  5
B79
330
A02
100
AcDbEntity
  8
Shape2DView006
100
AcDbLine
 10
85.6
 20
269.78
 30
0
 11
85.6
 21
255.844
 31
0
  0
LINE
  5
B7A
330
A02
100
AcDbEntity
  8
Shape2DView006
100
AcDbLine
 10
83.0253
 20
255.844
 30
0
 11
85.6
 21
255.844
 31
0
  0
ARC
  5
B7B
330
A02
100
AcDbEntity
  8
Shape2DView006
100
AcDbCircle
 10
82.8529
 20
255.744
 30
0
 40
0.19911
100
AcDbArc
 50
30
 51
-120
  0
LINE
  5
B7C
330
A02
100
AcDbEntity
  8
Shape2DView006
100
AcDbLine
 10
82.7533
 20
255.572
 30
0
 11
82.7533
 21
246.302
 31
0
  0
ARC
  5
B7D
330
A02
100
AcDbEntity
  8
Shape2DView006
100
AcDbCircle
 10
82.8529
 20
246.13
 30
0
 40
0.19911
100
AcDbArc
 50
120
 51
-30
  0
LINE
  5
B7E
330
A02
100
AcDbEntity
  8
Shape2DView006
100
AcDbLine
 10
83.0253
 20
246.03
 30
0
 11
85.6
 21
246.03
 31
0
  0
LINE
  5
B7F
330
A02
100
AcDbEntity
  8
Shape2DView006
100
AcDbLine
 10
85.6
 20
246.03
 30
0
 11
85.6
 21
216.512
 31
0
  0
ARC
  5
B80
330
A02
100
AcDbEntity
  8
Shape2DView006
100
AcDbCircle
 10
85.2
 20
216.512
 30
0
 40
0.4
100
AcDbArc
 50
-90
 51
0
  0
LINE
  5
B81
330
A02
100
AcDbEntity
  8
Shape2DView006
100
AcDbLine
 10
71.6
 20
216.112
 30
0
 11
85.2
 21
216.112
 31
0
  0
ARC
  5
B82
330
A02
100
AcDbEntity
  8
Shape2DView006
100
AcDbCircle
 10
71.6
 20
215.712
 30
0
 40
0.4
100
AcDbArc
 50
90
 51
-90
  0
LINE
  5
B83
330
A02
100
AcDbEntity
  8
Shape2DView006
100
AcDbLine
 10
85.2
 20
215.312
 30
0
 11
71.6
 21
215.312
 31
0
  0
ARC
  5
B84
330
A02
100
AcDbEntity
  8
Shape2DView006
100
AcDbCircle
 10
85.2
 20
214.912
 30
0
 40
0.4
100
AcDbArc
 50
0
 51
90
  0
LINE
  5
B85
330
A02
100
AcDbEntity
  8
Shape2DView006
100
AcDbLine
 10
85.6
 20
214.912
 30
0
 11
85.6
 21
212.789
 31
0
  0
ARC
  5
B86
330
A02
100
AcDbEntity
  8
Shape2DView006
100
AcDbCircle
 10
85.2
 20
212.789
 30
0
 40
0.4
100
AcDbArc
 50
-69.444
 51
0
  0
LINE
  5
B87
330
A02
100
AcDbEntity
  8
Shape2DView006
100
AcDbLine
 10
85.3404
 20
212.415
 30
0
 11
83.6
 21
211.762
 31
0
  0
LINE
  5
B88
330
A02
100
AcDbEntity
  8
Shape2DView006
100
AcDbLine
 10
83.6
 20
211.762
 30
0
 11
83.6
 21
212.512
 31
0
  0
LINE
  5
B89
330
A02
100
AcDbEntity
  8
Shape2DView006
100
AcDbLine
 10
83.6
 20
212.512
 30
0
 11
80.8
 21
212.512
 31
0
  0
LINE
  5
B8A
330
A02
100
AcDbEntity
  8
Shape2DView006
100
AcDbLine
 10
80.8
 20
211.033
 30
0
 11
80.8
 21
212.512
 31
0
  0
ARC
  5
B8B
330
A02
100
AcDbEntity
  8
Shape2DView006
100
AcDbCircle
 10
80.4
 20
211.033
 30
0
 40
0.4
100
AcDbArc
 50
-105
 51
0
  0
LINE
  5
B8C
330
A02
100
AcDbEntity
  8
Shape2DView006
100
AcDbLine
 10
73.3359
 20
212.512
 30
0
 11
80.2965
 21
210.647
 31
0
  0
LINE
  5
B8D
330
A02
100
AcDbEntity
  8
Shape2DView006
100
AcDbLine
 10
66.1066
 20
212.512
 30
0
 11
73.3359
 21
212.512
 31
0
  0
LINE
  5
B8E
330
A02
100
AcDbEntity
  8
Shape2DView006
100
AcDbLine
 10
66.1066
 20
212.512
 30
0
 11
66.1066
 21
215.087
 31
0
  0
ARC
  5
B8F
330
A02
100
AcDbEntity
  8
Shape2DView006
100
AcDbCircle
 10
66.0071
 20
215.259
 30
0
 40
0.19911
100
AcDbArc
 50
-60
 51
90
  0
ARC
  5
B90
330
A02
100
AcDbEntity
  8
Shape2DView006
100
AcDbCircle
 10
66.0071
 20
215.259
 30
0
 40
0.19911
100
AcDbArc
 50
90
 51
150
  0
LINE
  5
B91
330
A02
100
AcDbEntity
  8
Shape2DView006
100
AcDbLine
 10
62.5653
 20
215.359
 30
0
 11
65.8347
 21
215.359
 31
0
  0
ARC
  5
B92
330
A02
100
AcDbEntity
  8
Shape2DView006
100
AcDbCircle
 10
62.3929
 20
215.259
 30
0
 40
0.19911
100
AcDbArc
 50
30
 51
90
  0
ARC
  5
B93
330
A02
100
AcDbEntity
  8
Shape2DView006
100
AcDbCircle
 10
62.3929
 20
215.259
 30
0
 40
0.19911
100
AcDbArc
 50
90
 51
-120
  0
LINE
  5
B94
330
A02
100
AcDbEntity
  8
Shape2DView006
100
AcDbLine
 10
62.2933
 20
212.512
 30
0
 11
62.2933
 21
215.087
 31
0
  0
LINE
  5
B95
330
A02
100
AcDbEntity
  8
Shape2DView006
100
AcDbLine
 10
23.3066
 20
212.512
 30
0
 11
62.2933
 21
212.512
 31
0
  0
LINE
  5
B96
330
A02
100
AcDbEntity
  8
Shape2DView006
100
AcDbLine
 10
23.3066
 20
212.512
 30
0
 11
23.3066
 21
215.087
 31
0
  0
ARC
  5
B97
330
A02
100
AcDbEntity
  8
Shape2DView006
100
AcDbCircle
 10
23.2071
 20
215.259
 30
0
 40
0.19911
100
AcDbArc
 50
-60
 51
90
  0
ARC
  5
B98
330
A02
100
AcDbEntity
  8
Shape2DView006
100
AcDbCircle
 10
23.2071
 20
215.259
 30
0
 40
0.19911
100
AcDbArc
 50
90
 51
150
  0
LINE
  5
B99
330
A02
100
AcDbEntity
  8
Shape2DView006
100
AcDbLine
 10
19.7653
 20
215.359
 30
0
 11
23.0347
 21
215.359
 31
0
  0
ARC
  5
B9A
330
A02
100
AcDbEntity
  8
Shape2DView006
100
AcDbCircle
 10
19.5929
 20
215.259
 30
0
 40
0.19911
100
AcDbArc
 50
30
 51
90
  0
ARC
  5
B9B
330
A02
100
AcDbEntity
  8
Shape2DView006
100
AcDbCircle
 10
19.5929
 20
215.259
 30
0
 40
0.19911
100
AcDbArc
 50
90
 51
-120
  0
LINE
  5
B9C
330
A02
100
AcDbEntity
  8
Shape2DView006
100
AcDbLine
 10
19.4933
 20
212.512
 30
0
 11
19.4933
 21
215.087
 31
0
  0
LINE
  5
B9D
330
A02
100
AcDbEntity
  8
Shape2DView006
100
AcDbLine
 10
12.2641
 20
212.512
 30
0
 11
19.4933
 21
212.512
 31
0
  0
LINE
  5
B9E
330
A02
100
AcDbEntity
  8
Shape2DView006
100
AcDbLine
 10
5.30353
 20
210.647
 30
0
 11
12.2641
 21
212.512
 31
0
  0
ARC
  5
B9F
330
A02
100
AcDbEntity
  8
Shape2DView006
100
AcDbCircle
 10
5.2
 20
211.033
 30
0
 40
0.4
100
AcDbArc
 50
180
 51
-75
  0
LINE
  5
BA0
330
A02
100
AcDbEntity
  8
Shape2DView006
100
AcDbLine
 10
4.8
 20
212.512
 30
0
 11
4.8
 21
211.033
 31
0
  0
LINE
  5
BA1
330
A02
100
AcDbEntity
  8
Shape2DView006
100
AcDbLine
 10
2
 20
212.512
 30
0
 11
4.8
 21
212.512
 31
0
  0
LINE
  5
BA2
330
A02
100
AcDbEntity
  8
Shape2DView006
100
AcDbLine
 10
2
 20
211.762
 30
0
 11
2
 21
212.512
 31
0
  0
ARC
  5
BA3
330
A02
100
AcDbEntity
  8
Shape2DView006
100
AcDbCircle
 10
31.05
 20
216.812
 30
0
 40
1.5
100
AcDbArc
 50
170.202
 51
180
  0
ARC
  5
BA4
330
A02
100
AcDbEntity
  8
Shape2DView006
100
AcDbCircle
 10
-9.48333
 20
223.812
 30
0
 40
39.6333
100
AcDbArc
 50
-9.79819
 51
9.79819
  0
ARC
  5
BA5
330
A02
100
AcDbEntity
  8
Shape2DView006
100
AcDbCircle
 10
31.05
 20
216.812
 30
0
 40
1.5
100
AcDbArc
 50
180
 51
-90
  0
ARC
  5
BA6
330
A02
100
AcDbEntity
  8
Shape2DView006
100
AcDbCircle
 10
31.05
 20
230.812
 30
0
 40
1.5
100
AcDbArc
 50
180
 51
-170.202
  0
LINE
  5
BA7
330
A02
100
AcDbEntity
  8
Shape2DView006
100
AcDbLine
 10
54.55
 20
215.312
 30
0
 11
31.05
 21
215.312
 31
0
  0
ARC
  5
BA8
330
A02
100
AcDbEntity
  8
Shape2DView006
100
AcDbCircle
 10
31.05
 20
230.812
 30
0
 40
1.5
100
AcDbArc
 50
90
 51
180
  0
ARC
  5
BA9
330
A02
100
AcDbEntity
  8
Shape2DView006
100
AcDbCircle
 10
54.55
 20
216.812
 30
0
 40
1.5
100
AcDbArc
 50
-90
 51
0
  0
LINE
  5
BAA
330
A02
100
AcDbEntity
  8
Shape2DView006
100
AcDbLine
 10
31.05
 20
232.312
 30
0
 11
54.55
 21
232.312
 31
0
  0
ARC
  5
BAB
330
A02
100
AcDbEntity
  8
Shape2DView006
100
AcDbCircle
 10
54.55
 20
216.812
 30
0
 40
1.5
100
AcDbArc
 50
0
 51
9.79819
  0
ARC
  5
BAC
330
A02
100
AcDbEntity
  8
Shape2DView006
100
AcDbCircle
 10
54.55
 20
230.812
 30
0
 40
1.5
100
AcDbArc
 50
0
 51
90
  0
ARC
  5
BAD
330
A02
100
AcDbEntity
  8
Shape2DView006
100
AcDbCircle
 10
95.0833
 20
223.812
 30
0
 40
39.6333
100
AcDbArc
 50
170.202
 51
-170.202
  0
ARC
  5
BAE
330
A02
100
AcDbEntity
  8
Shape2DView006
100
AcDbCircle
 10
54.55
 20
230.812
 30
0
 40
1.5
100
AcDbArc
 50
-9.79819
 51
1.18499e-05
  0
ARC
  5
BAF
330
A02
100
AcDbEntity
  8
Shape2DView006
100
AcDbCircle
 10
58.05
 20
230.812
 30
0
 40
0.5
100
AcDbArc
 50
-10.7037
 51
169.296
  0
ARC
  5
BB0
330
A02
100
AcDbEntity
  8
Shape2DView006
100
AcDbCircle
 10
95.0833
 20
223.812
 30
0
 40
37.1891
100
AcDbArc
 50
169.296
 51
-169.296
  0
ARC
  5
BB1
330
A02
100
AcDbEntity
  8
Shape2DView006
100
AcDbCircle
 10
95.0833
 20
223.812
 30
0
 40
38.1891
100
AcDbArc
 50
169.296
 51
-169.296
  0
ARC
  5
BB2
330
A02
100
AcDbEntity
  8
Shape2DView006
100
AcDbCircle
 10
58.05
 20
216.812
 30
0
 40
0.5
100
AcDbArc
 50
-169.296
 51
10.7037
  0
ARC
  5
BB3
330
A02
100
AcDbEntity
  8
Shape2DView006
100
AcDbCircle
 10
27.55
 20
216.812
 30
0
 40
0.5
100
AcDbArc
 50
169.296
 51
-10.7037
  0
ARC
  5
BB4
330
A02
100
AcDbEntity
  8
Shape2DView006
100
AcDbCircle
 10
-9.48333
 20
223.812
 30
0
 40
37.1891
100
AcDbArc
 50
-10.7037
 51
10.7037
  0
ARC
  5
BB5
330
A02
100
AcDbEntity
  8
Shape2DView006
100
AcDbCircle
 10
-9.48333
 20
223.812
 30
0
 40
38.1891
100
AcDbArc
 50
-10.7037
 51
10.7037
  0
ARC
  5
BB6
330
A02
100
AcDbEntity
  8
Shape2DView006
100
AcDbCircle
 10
27.55
 20
230.812
 30
0
 40
0.5
100
AcDbArc
 50
10.7037
 51
-169.296
  0
LINE
  5
BB7
330
A02
100
AcDbEntity
  8
Shape2DView007
100
AcDbLine
 10
95.6
 20
311.434
 30
0
 11
122.607
 21
311.434
 31
0
  0
LINE
  5
BB8
330
A02
100
AcDbEntity
  8
Shape2DView007
100
AcDbLine
 10
122.607
 20
311.434
 30
0
 11
122.607
 21
314.234
 31
0
  0
LINE
  5
BB9
330
A02
100
AcDbEntity
  8
Shape2DView007
100
AcDbLine
 10
95.6
 20
288.215
 30
0
 11
95.6
 21
311.434
 31
0
  0
LINE
  5
BBA
330
A02
100
AcDbEntity
  8
Shape2DView007
100
AcDbLine
 10
95.6
 20
288.215
 30
0
 11
98.1747
 21
288.215
 31
0
  0
LINE
  5
BBB
330
A02
100
AcDbEntity
  8
Shape2DView007
100
AcDbLine
 10
132.793
 20
314.234
 30
0
 11
122.607
 21
314.234
 31
0
  0
LINE
  5
BBC
330
A02
100
AcDbEntity
  8
Shape2DView007
100
AcDbLine
 10
132.793
 20
311.434
 30
0
 11
132.793
 21
314.234
 31
0
  0
LINE
  5
BBD
330
A02
100
AcDbEntity
  8
Shape2DView007
100
AcDbLine
 10
132.793
 20
311.434
 30
0
 11
144.007
 21
311.434
 31
0
  0
LINE
  5
BBE
330
A02
100
AcDbEntity
  8
Shape2DView007
100
AcDbLine
 10
144.007
 20
311.434
 30
0
 11
144.007
 21
314.234
 31
0
  0
LINE
  5
BBF
330
A02
100
AcDbEntity
  8
Shape2DView007
100
AcDbLine
 10
154.193
 20
314.234
 30
0
 11
144.007
 21
314.234
 31
0
  0
LINE
  5
BC0
330
A02
100
AcDbEntity
  8
Shape2DView007
100
AcDbLine
 10
154.193
 20
311.434
 30
0
 11
154.193
 21
314.234
 31
0
  0
LINE
  5
BC1
330
A02
100
AcDbEntity
  8
Shape2DView007
100
AcDbLine
 10
154.193
 20
311.434
 30
0
 11
181.2
 21
311.434
 31
0
  0
LINE
  5
BC2
330
A02
100
AcDbEntity
  8
Shape2DView007
100
AcDbLine
 10
181.2
 20
311.434
 30
0
 11
181.2
 21
288.215
 31
0
  0
LINE
  5
BC3
330
A02
100
AcDbEntity
  8
Shape2DView007
100
AcDbLine
 10
178.625
 20
288.215
 30
0
 11
181.2
 21
288.215
 31
0
  0
ARC
  5
BC4
330
A02
100
AcDbEntity
  8
Shape2DView007
100
AcDbCircle
 10
178.453
 20
288.116
 30
0
 40
0.19911
100
AcDbArc
 50
30
 51
-120
  0
LINE
  5
BC5
330
A02
100
AcDbEntity
  8
Shape2DView007
100
AcDbLine
 10
178.353
 20
278.674
 30
0
 11
178.353
 21
287.943
 31
0
  0
ARC
  5
BC6
330
A02
100
AcDbEntity
  8
Shape2DView007
100
AcDbCircle
 10
178.453
 20
278.501
 30
0
 40
0.19911
100
AcDbArc
 50
120
 51
-30
  0
LINE
  5
BC7
330
A02
100
AcDbEntity
  8
Shape2DView007
100
AcDbLine
 10
178.625
 20
278.402
 30
0
 11
181.2
 21
278.402
 31
0
  0
LINE
  5
BC8
330
A02
100
AcDbEntity
  8
Shape2DView007
100
AcDbLine
 10
181.2
 20
278.402
 30
0
 11
181.2
 21
269.465
 31
0
  0
LINE
  5
BC9
330
A02
100
AcDbEntity
  8
Shape2DView007
100
AcDbLine
 10
178.625
 20
269.465
 30
0
 11
181.2
 21
269.465
 31
0
  0
ARC
  5
BCA
330
A02
100
AcDbEntity
  8
Shape2DView007
100
AcDbCircle
 10
178.453
 20
269.366
 30
0
 40
0.19911
100
AcDbArc
 50
30
 51
-120
  0
LINE
  5
BCB
330
A02
100
AcDbEntity
  8
Shape2DView007
100
AcDbLine
 10
178.353
 20
259.924
 30
0
 11
178.353
 21
269.193
 31
0
  0
ARC
  5
BCC
330
A02
100
AcDbEntity
  8
Shape2DView007
100
AcDbCircle
 10
178.453
 20
259.751
 30
0
 40
0.19911
100
AcDbArc
 50
120
 51
-30
  0
LINE
  5
BCD
330
A02
100
AcDbEntity
  8
Shape2DView007
100
AcDbLine
 10
178.625
 20
259.652
 30
0
 11
181.2
 21
259.652
 31
0
  0
LINE
  5
BCE
330
A02
100
AcDbEntity
  8
Shape2DView007
100
AcDbLine
 10
181.2
 20
259.652
 30
0
 11
181.2
 21
236.434
 31
0
  0
LINE
  5
BCF
330
A02
100
AcDbEntity
  8
Shape2DView007
100
AcDbLine
 10
181.2
 20
236.434
 30
0
 11
154.193
 21
236.434
 31
0
  0
LINE
  5
BD0
330
A02
100
AcDbEntity
  8
Shape2DView007
100
AcDbLine
 10
154.193
 20
236.434
 30
0
 11
154.193
 21
233.634
 31
0
  0
LINE
  5
BD1
330
A02
100
AcDbEntity
  8
Shape2DView007
100
AcDbLine
 10
144.007
 20
233.634
 30
0
 11
154.193
 21
233.634
 31
0
  0
LINE
  5
BD2
330
A02
100
AcDbEntity
  8
Shape2DView007
100
AcDbLine
 10
144.007
 20
236.434
 30
0
 11
144.007
 21
233.634
 31
0
  0
LINE
  5
BD3
330
A02
100
AcDbEntity
  8
Shape2DView007
100
AcDbLine
 10
144.007
 20
236.434
 30
0
 11
132.793
 21
236.434
 31
0
  0
LINE
  5
BD4
330
A02
100
AcDbEntity
  8
Shape2DView007
100
AcDbLine
 10
132.793
 20
236.434
 30
0
 11
132.793
 21
233.634
 31
0
  0
LINE
  5
BD5
330
A02
100
AcDbEntity
  8
Shape2DView007
100
AcDbLine
 10
122.607
 20
233.634
 30
0
 11
132.793
 21
233.634
 31
0
  0
LINE
  5
BD6
330
A02
100
AcDbEntity
  8
Shape2DView007
100
AcDbLine
 10
122.607
 20
236.434
 30
0
 11
122.607
 21
233.634
 31
0
  0
LINE
  5
BD7
330
A02
100
AcDbEntity
  8
Shape2DView007
100
AcDbLine
 10
122.607
 20
236.434
 30
0
 11
95.6
 21
236.434
 31
0
  0
LINE
  5
BD8
330
A02
100
AcDbEntity
  8
Shape2DView007
100
AcDbLine
 10
95.6
 20
236.434
 30
0
 11
95.6
 21
259.652
 31
0
  0
LINE
  5
BD9
330
A02
100
AcDbEntity
  8
Shape2DView007
100
AcDbLine
 10
95.6
 20
259.652
 30
0
 11
98.1747
 21
259.652
 31
0
  0
ARC
  5
BDA
330
A02
100
AcDbEntity
  8
Shape2DView007
100
AcDbCircle
 10
98.3471
 20
288.116
 30
0
 40
0.19911
100
AcDbArc
 50
0
 51
150
  0
ARC
  5
BDB
330
A02
100
AcDbEntity
  8
Shape2DView007
100
AcDbCircle
 10
98.3471
 20
288.116
 30
0
 40
0.19911
100
AcDbArc
 50
-60
 51
0
  0
LINE
  5
BDC
330
A02
100
AcDbEntity
  8
Shape2DView007
100
AcDbLine
 10
98.4466
 20
278.674
 30
0
 11
98.4466
 21
287.943
 31
0
  0
ARC
  5
BDD
330
A02
100
AcDbEntity
  8
Shape2DView007
100
AcDbCircle
 10
98.3471
 20
278.501
 30
0
 40
0.19911
100
AcDbArc
 50
0
 51
60
  0
ARC
  5
BDE
330
A02
100
AcDbEntity
  8
Shape2DView007
100
AcDbCircle
 10
98.3471
 20
278.501
 30
0
 40
0.19911
100
AcDbArc
 50
-150
 51
0
  0
LINE
  5
BDF
330
A02
100
AcDbEntity
  8
Shape2DView007
100
AcDbLine
 10
95.6
 20
278.402
 30
0
 11
98.1747
 21
278.402
 31
0
  0
LINE
  5
BE0
330
A02
100
AcDbEntity
  8
Shape2DView007
100
AcDbLine
 10
95.6
 20
269.465
 30
0
 11
95.6
 21
278.402
 31
0
  0
LINE
  5
BE1
330
A02
100
AcDbEntity
  8
Shape2DView007
100
AcDbLine
 10
95.6
 20
269.465
 30
0
 11
98.1747
 21
269.465
 31
0
  0
ARC
  5
BE2
330
A02
100
AcDbEntity
  8
Shape2DView007
100
AcDbCircle
 10
98.3471
 20
269.366
 30
0
 40
0.19911
100
AcDbArc
 50
0
 51
150
  0
ARC
  5
BE3
330
A02
100
AcDbEntity
  8
Shape2DView007
100
AcDbCircle
 10
98.3471
 20
269.366
 30
0
 40
0.19911
100
AcDbArc
 50
-60
 51
0
  0
LINE
  5
BE4
330
A02
100
AcDbEntity
  8
Shape2DView007
100
AcDbLine
 10
98.4466
 20
259.924
 30
0
 11
98.4466
 21
269.193
 31
0
  0
ARC
  5
BE5
330
A02
100
AcDbEntity
  8
Shape2DView007
100
AcDbCircle
 10
98.3471
 20
259.751
 30
0
 40
0.19911
100
AcDbArc
 50
0
 51
60
  0
ARC
  5
BE6
330
A02
100
AcDbEntity
  8
Shape2DView007
100
AcDbCircle
 10
98.3471
 20
259.751
 30
0
 40
0.19911
100
AcDbArc
 50
-150
 51
0
  0
LINE
  5
BE7
330
A02
100
AcDbEntity
  8
Shape2DView008
100
AcDbLine
 10
133
 20
115.783
 30
0
 11
149.714
 21
121.866
 31
0
  0
LINE
  5
BE8
330
A02
100
AcDbEntity
  8
Shape2DView008
100
AcDbLine
 10
133
 20
103.702
 30
0
 11
133
 21
115.783
 31
0
  0
LINE
  5
BE9
330
A02
100
AcDbEntity
  8
Shape2DView008
100
AcDbLine
 10
149.714
 20
121.866
 30
0
 11
150.671
 21
119.235
 31
0
  0
LINE
  5
BEA
330
A02
100
AcDbEntity
  8
Shape2DView008
100
AcDbLine
 10
160.244
 20
122.719
 30
0
 11
150.671
 21
119.235
 31
0
  0
LINE
  5
BEB
330
A02
100
AcDbEntity
  8
Shape2DView008
100
AcDbLine
 10
159.286
 20
125.35
 30
0
 11
160.244
 21
122.719
 31
0
  0
LINE
  5
BEC
330
A02
100
AcDbEntity
  8
Shape2DView008
100
AcDbLine
 10
193
 20
116.434
 30
0
 11
193
 21
131.34
 31
0
  0
LINE
  5
BED
330
A02
100
AcDbEntity
  8
Shape2DView008
100
AcDbLine
 10
193
 20
131.34
 30
0
 11
195.8
 21
131.34
 31
0
  0
LINE
  5
BEE
330
A02
100
AcDbEntity
  8
Shape2DView008
100
AcDbLine
 10
187.093
 20
116.434
 30
0
 11
193
 21
116.434
 31
0
  0
LINE
  5
BEF
330
A02
100
AcDbEntity
  8
Shape2DView008
100
AcDbLine
 10
195.8
 20
141.527
 30
0
 11
195.8
 21
131.34
 31
0
  0
LINE
  5
BF0
330
A02
100
AcDbEntity
  8
Shape2DView008
100
AcDbLine
 10
187.093
 20
116.434
 30
0
 11
187.093
 21
113.634
 31
0
  0
LINE
  5
BF1
330
A02
100
AcDbEntity
  8
Shape2DView008
100
AcDbLine
 10
193
 20
141.527
 30
0
 11
195.8
 21
141.527
 31
0
  0
LINE
  5
BF2
330
A02
100
AcDbEntity
  8
Shape2DView008
100
AcDbLine
 10
193
 20
141.527
 30
0
 11
193
 21
156.434
 31
0
  0
LINE
  5
BF3
330
A02
100
AcDbEntity
  8
Shape2DView008
100
AcDbLine
 10
193
 20
156.434
 30
0
 11
162.468
 21
156.434
 31
0
  0
LINE
  5
BF4
330
A02
100
AcDbEntity
  8
Shape2DView008
100
AcDbLine
 10
187.093
 20
113.634
 30
0
 11
181.907
 21
113.634
 31
0
  0
LINE
  5
BF5
330
A02
100
AcDbEntity
  8
Shape2DView008
100
AcDbLine
 10
176
 20
116.434
 30
0
 11
181.907
 21
116.434
 31
0
  0
LINE
  5
BF6
330
A02
100
AcDbEntity
  8
Shape2DView008
100
AcDbLine
 10
176
 20
131.434
 30
0
 11
176
 21
116.434
 31
0
  0
LINE
  5
BF7
330
A02
100
AcDbEntity
  8
Shape2DView008
100
AcDbLine
 10
159.286
 20
125.35
 30
0
 11
176
 21
131.434
 31
0
  0
LINE
  5
BF8
330
A02
100
AcDbEntity
  8
Shape2DView008
100
AcDbLine
 10
181.907
 20
116.434
 30
0
 11
181.907
 21
113.634
 31
0
  0
LINE
  5
BF9
330
A02
100
AcDbEntity
  8
Shape2DView008
100
AcDbLine
 10
162.468
 20
156.434
 30
0
 11
162.468
 21
159.234
 31
0
  0
LINE
  5
BFA
330
A02
100
AcDbEntity
  8
Shape2DView008
100
AcDbLine
 10
152.282
 20
159.234
 30
0
 11
162.468
 21
159.234
 31
0
  0
LINE
  5
BFB
330
A02
100
AcDbEntity
  8
Shape2DView008
100
AcDbLine
 10
152.282
 20
156.434
 30
0
 11
152.282
 21
159.234
 31
0
  0
LINE
  5
BFC
330
A02
100
AcDbEntity
  8
Shape2DView008
100
AcDbLine
 10
152.282
 20
156.434
 30
0
 11
138.718
 21
156.434
 31
0
  0
LINE
  5
BFD
330
A02
100
AcDbEntity
  8
Shape2DView008
100
AcDbLine
 10
138.718
 20
156.434
 30
0
 11
138.718
 21
159.234
 31
0
  0
LINE
  5
BFE
330
A02
100
AcDbEntity
  8
Shape2DView008
100
AcDbLine
 10
128.532
 20
159.234
 30
0
 11
138.718
 21
159.234
 31
0
  0
LINE
  5
BFF
330
A02
100
AcDbEntity
  8
Shape2DView008
100
AcDbLine
 10
128.532
 20
156.434
 30
0
 11
128.532
 21
159.234
 31
0
  0
LINE
  5
C00
330
A02
100
AcDbEntity
  8
Shape2DView008
100
AcDbLine
 10
128.532
 20
156.434
 30
0
 11
98
 21
156.434
 31
0
  0
LINE
  5
C01
330
A02
100
AcDbEntity
  8
Shape2DView008
100
AcDbLine
 10
98
 20
156.434
 30
0
 11
98
 21
133.402
 31
0
  0
LINE
  5
C02
330
A02
100
AcDbEntity
  8
Shape2DView008
100
AcDbLine
 10
98
 20
133.402
 30
0
 11
95.2
 21
133.402
 31
0
  0
LINE
  5
C03
330
A02
100
AcDbEntity
  8
Shape2DView008
100
AcDbLine
 10
95.2
 20
123.215
 30
0
 11
95.2
 21
133.402
 31
0
  0
LINE
  5
C04
330
A02
100
AcDbEntity
  8
Shape2DView008
100
AcDbLine
 10
98
 20
123.215
 30
0
 11
95.2
 21
123.215
 31
0
  0
LINE
  5
C05
330
A02
100
AcDbEntity
  8
Shape2DView008
100
AcDbLine
 10
98
 20
123.215
 30
0
 11
98
 21
114.652
 31
0
  0
LINE
  5
C06
330
A02
100
AcDbEntity
  8
Shape2DView008
100
AcDbLine
 10
98
 20
114.652
 30
0
 11
95.2
 21
114.652
 31
0
  0
LINE
  5
C07
330
A02
100
AcDbEntity
  8
Shape2DView008
100
AcDbLine
 10
95.2
 20
104.465
 30
0
 11
95.2
 21
114.652
 31
0
  0
LINE
  5
C08
330
A02
100
AcDbEntity
  8
Shape2DView008
100
AcDbLine
 10
98
 20
104.465
 30
0
 11
95.2
 21
104.465
 31
0
  0
LINE
  5
C09
330
A02
100
AcDbEntity
  8
Shape2DView008
100
AcDbLine
 10
98
 20
104.465
 30
0
 11
98
 21
81.4336
 31
0
  0
LINE
  5
C0A
330
A02
100
AcDbEntity
  8
Shape2DView008
100
AcDbLine
 10
98
 20
81.4336
 30
0
 11
110.407
 21
81.4336
 31
0
  0
LINE
  5
C0B
330
A02
100
AcDbEntity
  8
Shape2DView008
100
AcDbLine
 10
110.407
 20
81.4336
 30
0
 11
110.407
 21
78.6336
 31
0
  0
LINE
  5
C0C
330
A02
100
AcDbEntity
  8
Shape2DView008
100
AcDbLine
 10
120.593
 20
78.6336
 30
0
 11
110.407
 21
78.6336
 31
0
  0
LINE
  5
C0D
330
A02
100
AcDbEntity
  8
Shape2DView008
100
AcDbLine
 10
120.593
 20
81.4336
 30
0
 11
120.593
 21
78.6336
 31
0
  0
LINE
  5
C0E
330
A02
100
AcDbEntity
  8
Shape2DView008
100
AcDbLine
 10
120.593
 20
81.4336
 30
0
 11
133
 21
81.4336
 31
0
  0
LINE
  5
C0F
330
A02
100
AcDbEntity
  8
Shape2DView008
100
AcDbLine
 10
133
 20
81.4336
 30
0
 11
133
 21
93.5149
 31
0
  0
LINE
  5
C10
330
A02
100
AcDbEntity
  8
Shape2DView008
100
AcDbLine
 10
133
 20
93.5149
 30
0
 11
135.8
 21
93.5149
 31
0
  0
LINE
  5
C11
330
A02
100
AcDbEntity
  8
Shape2DView008
100
AcDbLine
 10
135.8
 20
103.702
 30
0
 11
135.8
 21
93.5149
 31
0
  0
LINE
  5
C12
330
A02
100
AcDbEntity
  8
Shape2DView008
100
AcDbLine
 10
133
 20
103.702
 30
0
 11
135.8
 21
103.702
 31
0
  0
ARC
  5
C13
330
A02
100
AcDbEntity
  8
Shape2DView008
100
AcDbCircle
 10
127.103
 20
140.436
 30
0
 40
0.25
100
AcDbArc
 50
-160
 51
-100
  0
ARC
  5
C14
330
A02
100
AcDbEntity
  8
Shape2DView008
100
AcDbCircle
 10
127.016
 20
139.943
 30
0
 40
0.25
100
AcDbArc
 50
-130
 51
80
  0
ARC
  5
C15
330
A02
100
AcDbEntity
  8
Shape2DView008
100
AcDbCircle
 10
126.695
 20
139.56
 30
0
 40
0.25
100
AcDbArc
 50
50
 51
110
  0
LINE
  5
C16
330
A02
100
AcDbEntity
  8
Shape2DView008
100
AcDbLine
 10
107.746
 20
132.93
 30
0
 11
126.609
 21
139.795
 31
0
  0
ARC
  5
C17
330
A02
100
AcDbEntity
  8
Shape2DView008
100
AcDbCircle
 10
107.831
 20
132.695
 30
0
 40
0.25
100
AcDbArc
 50
110
 51
170
  0
ARC
  5
C18
330
A02
100
AcDbEntity
  8
Shape2DView008
100
AcDbCircle
 10
107.339
 20
132.781
 30
0
 40
0.25
100
AcDbArc
 50
140
 51
-10
  0
ARC
  5
C19
330
A02
100
AcDbEntity
  8
Shape2DView008
100
AcDbCircle
 10
106.956
 20
133.103
 30
0
 40
0.25
100
AcDbArc
 50
-40
 51
20
  0
LINE
  5
C1A
330
A02
100
AcDbEntity
  8
Shape2DView008
100
AcDbLine
 10
106.529
 20
135.006
 30
0
 11
107.191
 21
133.188
 31
0
  0
ARC
  5
C1B
330
A02
100
AcDbEntity
  8
Shape2DView008
100
AcDbCircle
 10
106.295
 20
134.92
 30
0
 40
0.25
100
AcDbArc
 50
20
 51
80
  0
ARC
  5
C1C
330
A02
100
AcDbEntity
  8
Shape2DView008
100
AcDbCircle
 10
106.381
 20
135.413
 30
0
 40
0.25
100
AcDbArc
 50
50
 51
-100
  0
ARC
  5
C1D
330
A02
100
AcDbEntity
  8
Shape2DView008
100
AcDbCircle
 10
106.703
 20
135.796
 30
0
 40
0.25
100
AcDbArc
 50
-130
 51
-70
  0
LINE
  5
C1E
330
A02
100
AcDbEntity
  8
Shape2DView008
100
AcDbLine
 10
125.652
 20
142.426
 30
0
 11
106.788
 21
135.561
 31
0
  0
ARC
  5
C1F
330
A02
100
AcDbEntity
  8
Shape2DView008
100
AcDbCircle
 10
125.566
 20
142.661
 30
0
 40
0.25
100
AcDbArc
 50
-70
 51
-10
  0
ARC
  5
C20
330
A02
100
AcDbEntity
  8
Shape2DView008
100
AcDbCircle
 10
126.059
 20
142.574
 30
0
 40
0.25
100
AcDbArc
 50
-40
 51
170
  0
ARC
  5
C21
330
A02
100
AcDbEntity
  8
Shape2DView008
100
AcDbCircle
 10
126.442
 20
142.253
 30
0
 40
0.25
100
AcDbArc
 50
140
 51
-160
  0
LINE
  5
C22
330
A02
100
AcDbEntity
  8
Shape2DView008
100
AcDbLine
 10
126.868
 20
140.35
 30
0
 11
126.207
 21
142.168
 31
0
  0
ARC
  5
C23
330
A02
100
AcDbEntity
  8
Shape2DView008
100
AcDbCircle
 10
156.177
 20
151.018
 30
0
 40
0.25
100
AcDbArc
 50
-160
 51
-100
  0
ARC
  5
C24
330
A02
100
AcDbEntity
  8
Shape2DView008
100
AcDbCircle
 10
156.09
 20
150.525
 30
0
 40
0.25
100
AcDbArc
 50
-130
 51
80
  0
ARC
  5
C25
330
A02
100
AcDbEntity
  8
Shape2DView008
100
AcDbCircle
 10
155.769
 20
150.142
 30
0
 40
0.25
100
AcDbArc
 50
50
 51
110
  0
LINE
  5
C26
330
A02
100
AcDbEntity
  8
Shape2DView008
100
AcDbLine
 10
136.82
 20
143.512
 30
0
 11
155.683
 21
150.377
 31
0
  0
ARC
  5
C27
330
A02
100
AcDbEntity
  8
Shape2DView008
100
AcDbCircle
 10
136.906
 20
143.277
 30
0
 40
0.25
100
AcDbArc
 50
110
 51
170
  0
ARC
  5
C28
330
A02
100
AcDbEntity
  8
Shape2DView008
100
AcDbCircle
 10
136.413
 20
143.364
 30
0
 40
0.25
100
AcDbArc
 50
140
 51
-10
  0
ARC
  5
C29
330
A02
100
AcDbEntity
  8
Shape2DView008
100
AcDbCircle
 10
136.03
 20
143.685
 30
0
 40
0.25
100
AcDbArc
 50
-40
 51
20
  0
LINE
  5
C2A
330
A02
100
AcDbEntity
  8
Shape2DView008
100
AcDbLine
 10
135.604
 20
145.588
 30
0
 11
136.265
 21
143.77
 31
0
  0
ARC
  5
C2B
330
A02
100
AcDbEntity
  8
Shape2DView008
100
AcDbCircle
 10
135.369
 20
145.502
 30
0
 40
0.25
100
AcDbArc
 50
20
 51
80
  0
ARC
  5
C2C
330
A02
100
AcDbEntity
  8
Shape2DView008
100
AcDbCircle
 10
135.455
 20
145.995
 30
0
 40
0.25
100
AcDbArc
 50
50
 51
-100
  0
ARC
  5
C2D
330
A02
100
AcDbEntity
  8
Shape2DView008
100
AcDbCircle
 10
135.777
 20
146.378
 30
0
 40
0.25
100
AcDbArc
 50
-130
 51
-70
  0
LINE
  5
C2E
330
A02
100
AcDbEntity
  8
Shape2DView008
100
AcDbLine
 10
154.726
 20
153.008
 30
0
 11
135.862
 21
146.143
 31
0
  0
ARC
  5
C2F
330
A02
100
AcDbEntity
  8
Shape2DView008
100
AcDbCircle
 10
154.64
 20
153.243
 30
0
 40
0.25
100
AcDbArc
 50
-70
 51
-10
  0
ARC
  5
C30
330
A02
100
AcDbEntity
  8
Shape2DView008
100
AcDbCircle
 10
155.133
 20
153.157
 30
0
 40
0.25
100
AcDbArc
 50
-40
 51
170
  0
ARC
  5
C31
330
A02
100
AcDbEntity
  8
Shape2DView008
100
AcDbCircle
 10
155.516
 20
152.835
 30
0
 40
0.25
100
AcDbArc
 50
140
 51
-160
  0
LINE
  5
C32
330
A02
100
AcDbEntity
  8
Shape2DView008
100
AcDbLine
 10
155.942
 20
150.932
 30
0
 11
155.281
 21
152.75
 31
0
  0
ARC
  5
C33
330
A02
100
AcDbEntity
  8
Shape2DView008
100
AcDbCircle
 10
131.263
 20
122.632
 30
0
 40
4.5
100
AcDbArc
 50
-70
 51
110
  0
LINE
  5
C34
330
A02
100
AcDbEntity
  8
Shape2DView008
100
AcDbLine
 10
132.802
 20
118.403
 30
0
 11
124.345
 21
115.325
 31
0
  0
ARC
  5
C35
330
A02
100
AcDbEntity
  8
Shape2DView008
100
AcDbCircle
 10
122.806
 20
119.554
 30
0
 40
4.5
100
AcDbArc
 50
110
 51
-70
  0
LINE
  5
C36
330
A02
100
AcDbEntity
  8
Shape2DView008
100
AcDbLine
 10
121.267
 20
123.782
 30
0
 11
129.724
 21
126.86
 31
0
  0
ARC
  5
C37
330
A02
100
AcDbEntity
  8
Shape2DView008
100
AcDbCircle
 10
127.822
 20
132.735
 30
0
 40
3
100
AcDbArc
 50
-70
 51
110
  0
LINE
  5
C38
330
A02
100
AcDbEntity
  8
Shape2DView008
100
AcDbLine
 10
128.848
 20
129.916
 30
0
 11
120.391
 21
126.838
 31
0
  0
ARC
  5
C39
330
A02
100
AcDbEntity
  8
Shape2DView008
100
AcDbCircle
 10
119.365
 20
129.657
 30
0
 40
3
100
AcDbArc
 50
110
 51
-70
  0
LINE
  5
C3A
330
A02
100
AcDbEntity
  8
Shape2DView008
100
AcDbLine
 10
118.339
 20
132.476
 30
0
 11
126.796
 21
135.554
 31
0
  0
LINE
  5
C3B
330
A02
100
AcDbEntity
  8
Shape2DView009
100
AcDbLine
 10
133
 20
40.8602
 30
0
 11
149.714
 21
34.7768
 31
0
  0
LINE
  5
C3C
330
A02
100
AcDbEntity
  8
Shape2DView009
100
AcDbLine
 10
133
 20
52.9414
 30
0
 11
133
 21
40.8602
 31
0
  0
LINE
  5
C3D
330
A02
100
AcDbEntity
  8
Shape2DView009
100
AcDbLine
 10
149.714
 20
34.7768
 30
0
 11
150.671
 21
37.408
 31
0
  0
LINE
  5
C3E
330
A02
100
AcDbEntity
  8
Shape2DView009
100
AcDbLine
 10
160.244
 20
33.9239
 30
0
 11
150.671
 21
37.408
 31
0
  0
LINE
  5
C3F
330
A02
100
AcDbEntity
  8
Shape2DView009
100
AcDbLine
 10
159.286
 20
31.2928
 30
0
 11
160.244
 21
33.9239
 31
0
  0
LINE
  5
C40
330
A02
100
AcDbEntity
  8
Shape2DView009
100
AcDbLine
 10
193
 20
40.2094
 30
0
 11
193
 21
25.3028
 31
0
  0
LINE
  5
C41
330
A02
100
AcDbEntity
  8
Shape2DView009
100
AcDbLine
 10
193
 20
25.3028
 30
0
 11
195.8
 21
25.3028
 31
0
  0
LINE
  5
C42
330
A02
100
AcDbEntity
  8
Shape2DView009
100
AcDbLine
 10
187.093
 20
40.2094
 30
0
 11
193
 21
40.2094
 31
0
  0
LINE
  5
C43
330
A02
100
AcDbEntity
  8
Shape2DView009
100
AcDbLine
 10
195.8
 20
15.1161
 30
0
 11
195.8
 21
25.3028
 31
0
  0
LINE
  5
C44
330
A02
100
AcDbEntity
  8
Shape2DView009
100
AcDbLine
 10
187.093
 20
40.2094
 30
0
 11
187.093
 21
43.0094
 31
0
  0
LINE
  5
C45
330
A02
100
AcDbEntity
  8
Shape2DView009
100
AcDbLine
 10
193
 20
15.1161
 30
0
 11
195.8
 21
15.1161
 31
0
  0
LINE
  5
C46
330
A02
100
AcDbEntity
  8
Shape2DView009
100
AcDbLine
 10
193
 20
15.1161
 30
0
 11
193
 21
0.209439
 31
0
  0
LINE
  5
C47
330
A02
100
AcDbEntity
  8
Shape2DView009
100
AcDbLine
 10
193
 20
0.209439
 30
0
 11
162.468
 21
0.209439
 31
0
  0
LINE
  5
C48
330
A02
100
AcDbEntity
  8
Shape2DView009
100
AcDbLine
 10
187.093
 20
43.0094
 30
0
 11
181.907
 21
43.0094
 31
0
  0
LINE
  5
C49
330
A02
100
AcDbEntity
  8
Shape2DView009
100
AcDbLine
 10
176
 20
40.2094
 30
0
 11
181.907
 21
40.2094
 31
0
  0
LINE
  5
C4A
330
A02
100
AcDbEntity
  8
Shape2DView009
100
AcDbLine
 10
176
 20
25.2094
 30
0
 11
176
 21
40.2094
 31
0
  0
LINE
  5
C4B
330
A02
100
AcDbEntity
  8
Shape2DView009
100
AcDbLine
 10
159.286
 20
31.2928
 30
0
 11
176
 21
25.2094
 31
0
  0
LINE
  5
C4C
330
A02
100
AcDbEntity
  8
Shape2DView009
100
AcDbLine
 10
181.907
 20
40.2094
 30
0
 11
181.907
 21
43.0094
 31
0
  0
LINE
  5
C4D
330
A02
100
AcDbEntity
  8
Shape2DView009
100
AcDbLine
 10
162.468
 20
0.209439
 30
0
 11
162.468
 21
-2.59056
 31
0
  0
LINE
  5
C4E
330
A02
100
AcDbEntity
  8
Shape2DView009
100
AcDbLine
 10
152.282
 20
-2.59056
 30
0
 11
162.468
 21
-2.59056
 31
0
  0
LINE
  5
C4F
330
A02
100
AcDbEntity
  8
Shape2DView009
100
AcDbLine
 10
152.282
 20
0.209439
 30
0
 11
152.282
 21
-2.59056
 31
0
  0
LINE
  5
C50
330
A02
100
AcDbEntity
  8
Shape2DView009
100
AcDbLine
 10
152.282
 20
0.209439
 30
0
 11
138.718
 21
0.209439
 31
0
  0
LINE
  5
C51
330
A02
100
AcDbEntity
  8
Shape2DView009
100
AcDbLine
 10
138.718
 20
0.209439
 30
0
 11
138.718
 21
-2.59056
 31
0
  0
LINE
  5
C52
330
A02
100
AcDbEntity
  8
Shape2DView009
100
AcDbLine
 10
128.532
 20
-2.59056
 30
0
 11
138.718
 21
-2.59056
 31
0
  0
LINE
  5
C53
330
A02
100
AcDbEntity
  8
Shape2DView009
100
AcDbLine
 10
128.532
 20
0.209439
 30
0
 11
128.532
 21
-2.59056
 31
0
  0
LINE
  5
C54
330
A02
100
AcDbEntity
  8
Shape2DView009
100
AcDbLine
 10
128.532
 20
0.209439
 30
0
 11
98
 21
0.209439
 31
0
  0
LINE
  5
C55
330
A02
100
AcDbEntity
  8
Shape2DView009
100
AcDbLine
 10
98
 20
0.209439
 30
0
 11
98
 21
23.2411
 31
0
  0
LINE
  5
C56
330
A02
100
AcDbEntity
  8
Shape2DView009
100
AcDbLine
 10
98
 20
23.2411
 30
0
 11
95.2
 21
23.2411
 31
0
  0
LINE
  5
C57
330
A02
100
AcDbEntity
  8
Shape2DView009
100
AcDbLine
 10
95.2
 20
33.4278
 30
0
 11
95.2
 21
23.2411
 31
0
  0
LINE
  5
C58
330
A02
100
AcDbEntity
  8
Shape2DView009
100
AcDbLine
 10
98
 20
33.4278
 30
0
 11
95.2
 21
33.4278
 31
0
  0
LINE
  5
C59
330
A02
100
AcDbEntity
  8
Shape2DView009
100
AcDbLine
 10
98
 20
33.4278
 30
0
 11
98
 21
41.9911
 31
0
  0
LINE
  5
C5A
330
A02
100
AcDbEntity
  8
Shape2DView009
100
AcDbLine
 10
98
 20
41.9911
 30
0
 11
95.2
 21
41.9911
 31
0
  0
LINE
  5
C5B
330
A02
100
AcDbEntity
  8
Shape2DView009
100
AcDbLine
 10
95.2
 20
52.1778
 30
0
 11
95.2
 21
41.9911
 31
0
  0
LINE
  5
C5C
330
A02
100
AcDbEntity
  8
Shape2DView009
100
AcDbLine
 10
98
 20
52.1778
 30
0
 11
95.2
 21
52.1778
 31
0
  0
LINE
  5
C5D
330
A02
100
AcDbEntity
  8
Shape2DView009
100
AcDbLine
 10
98
 20
52.1778
 30
0
 11
98
 21
75.2094
 31
0
  0
LINE
  5
C5E
330
A02
100
AcDbEntity
  8
Shape2DView009
100
AcDbLine
 10
98
 20
75.2094
 30
0
 11
110.407
 21
75.2094
 31
0
  0
LINE
  5
C5F
330
A02
100
AcDbEntity
  8
Shape2DView009
100
AcDbLine
 10
110.407
 20
75.2094
 30
0
 11
110.407
 21
78.0094
 31
0
  0
LINE
  5
C60
330
A02
100
AcDbEntity
  8
Shape2DView009
100
AcDbLine
 10
120.593
 20
78.0094
 30
0
 11
110.407
 21
78.0094
 31
0
  0
LINE
  5
C61
330
A02
100
AcDbEntity
  8
Shape2DView009
100
AcDbLine
 10
120.593
 20
75.2094
 30
0
 11
120.593
 21
78.0094
 31
0
  0
LINE
  5
C62
330
A02
100
AcDbEntity
  8
Shape2DView009
100
AcDbLine
 10
120.593
 20
75.2094
 30
0
 11
133
 21
75.2094
 31
0
  0
LINE
  5
C63
330
A02
100
AcDbEntity
  8
Shape2DView009
100
AcDbLine
 10
133
 20
75.2094
 30
0
 11
133
 21
63.1281
 31
0
  0
LINE
  5
C64
330
A02
100
AcDbEntity
  8
Shape2DView009
100
AcDbLine
 10
133
 20
63.1281
 30
0
 11
135.8
 21
63.1281
 31
0
  0
LINE
  5
C65
330
A02
100
AcDbEntity
  8
Shape2DView009
100
AcDbLine
 10
135.8
 20
52.9414
 30
0
 11
135.8
 21
63.1281
 31
0
  0
LINE
  5
C66
330
A02
100
AcDbEntity
  8
Shape2DView009
100
AcDbLine
 10
133
 20
52.9414
 30
0
 11
135.8
 21
52.9414
 31
0
  0
LINE
  5
C67
330
A02
100
AcDbEntity
  8
Shape2DView009
100
AcDbLine
 10
126.207
 20
14.4754
 30
0
 11
126.868
 21
16.2928
 31
0
  0
ARC
  5
C68
330
A02
100
AcDbEntity
  8
Shape2DView009
100
AcDbCircle
 10
126.442
 20
14.3899
 30
0
 40
0.25
100
AcDbArc
 50
160
 51
-140
  0
ARC
  5
C69
330
A02
100
AcDbEntity
  8
Shape2DView009
100
AcDbCircle
 10
126.059
 20
14.0685
 30
0
 40
0.25
100
AcDbArc
 50
-170
 51
40
  0
ARC
  5
C6A
330
A02
100
AcDbEntity
  8
Shape2DView009
100
AcDbCircle
 10
125.566
 20
13.9817
 30
0
 40
0.25
100
AcDbArc
 50
10
 51
70
  0
LINE
  5
C6B
330
A02
100
AcDbEntity
  8
Shape2DView009
100
AcDbLine
 10
106.788
 20
21.0823
 30
0
 11
125.652
 21
14.2166
 31
0
  0
ARC
  5
C6C
330
A02
100
AcDbEntity
  8
Shape2DView009
100
AcDbCircle
 10
106.703
 20
20.8474
 30
0
 40
0.25
100
AcDbArc
 50
70
 51
130
  0
ARC
  5
C6D
330
A02
100
AcDbEntity
  8
Shape2DView009
100
AcDbCircle
 10
106.381
 20
21.2304
 30
0
 40
0.25
100
AcDbArc
 50
100
 51
-50
  0
ARC
  5
C6E
330
A02
100
AcDbEntity
  8
Shape2DView009
100
AcDbCircle
 10
106.295
 20
21.7228
 30
0
 40
0.25
100
AcDbArc
 50
-80
 51
-20
  0
LINE
  5
C6F
330
A02
100
AcDbEntity
  8
Shape2DView009
100
AcDbLine
 10
107.191
 20
23.4547
 30
0
 11
106.529
 21
21.6373
 31
0
  0
ARC
  5
C70
330
A02
100
AcDbEntity
  8
Shape2DView009
100
AcDbCircle
 10
106.956
 20
23.5402
 30
0
 40
0.25
100
AcDbArc
 50
-20
 51
40
  0
ARC
  5
C71
330
A02
100
AcDbEntity
  8
Shape2DView009
100
AcDbCircle
 10
107.339
 20
23.8616
 30
0
 40
0.25
100
AcDbArc
 50
10
 51
-140
  0
ARC
  5
C72
330
A02
100
AcDbEntity
  8
Shape2DView009
100
AcDbCircle
 10
107.831
 20
23.9484
 30
0
 40
0.25
100
AcDbArc
 50
-170
 51
-110
  0
LINE
  5
C73
330
A02
100
AcDbEntity
  8
Shape2DView009
100
AcDbLine
 10
126.609
 20
16.8478
 30
0
 11
107.746
 21
23.7135
 31
0
  0
ARC
  5
C74
330
A02
100
AcDbEntity
  8
Shape2DView009
100
AcDbCircle
 10
126.695
 20
17.0827
 30
0
 40
0.25
100
AcDbArc
 50
-110
 51
-50
  0
ARC
  5
C75
330
A02
100
AcDbEntity
  8
Shape2DView009
100
AcDbCircle
 10
127.016
 20
16.6997
 30
0
 40
0.25
100
AcDbArc
 50
-80
 51
130
  0
ARC
  5
C76
330
A02
100
AcDbEntity
  8
Shape2DView009
100
AcDbCircle
 10
127.103
 20
16.2073
 30
0
 40
0.25
100
AcDbArc
 50
100
 51
160
  0
LINE
  5
C77
330
A02
100
AcDbEntity
  8
Shape2DView009
100
AcDbLine
 10
155.281
 20
3.89334
 30
0
 11
155.942
 21
5.71068
 31
0
  0
ARC
  5
C78
330
A02
100
AcDbEntity
  8
Shape2DView009
100
AcDbCircle
 10
155.516
 20
3.80783
 30
0
 40
0.25
100
AcDbArc
 50
160
 51
-140
  0
ARC
  5
C79
330
A02
100
AcDbEntity
  8
Shape2DView009
100
AcDbCircle
 10
155.133
 20
3.48644
 30
0
 40
0.25
100
AcDbArc
 50
-170
 51
40
  0
ARC
  5
C7A
330
A02
100
AcDbEntity
  8
Shape2DView009
100
AcDbCircle
 10
154.64
 20
3.39962
 30
0
 40
0.25
100
AcDbArc
 50
10
 51
70
  0
LINE
  5
C7B
330
A02
100
AcDbEntity
  8
Shape2DView009
100
AcDbLine
 10
135.862
 20
10.5002
 30
0
 11
154.726
 21
3.63454
 31
0
  0
ARC
  5
C7C
330
A02
100
AcDbEntity
  8
Shape2DView009
100
AcDbCircle
 10
135.777
 20
10.2653
 30
0
 40
0.25
100
AcDbArc
 50
70
 51
130
  0
ARC
  5
C7D
330
A02
100
AcDbEntity
  8
Shape2DView009
100
AcDbCircle
 10
135.455
 20
10.6483
 30
0
 40
0.25
100
AcDbArc
 50
100
 51
-50
  0
ARC
  5
C7E
330
A02
100
AcDbEntity
  8
Shape2DView009
100
AcDbCircle
 10
135.369
 20
11.1407
 30
0
 40
0.25
100
AcDbArc
 50
-80
 51
-20
  0
LINE
  5
C7F
330
A02
100
AcDbEntity
  8
Shape2DView009
100
AcDbLine
 10
136.265
 20
12.8726
 30
0
 11
135.604
 21
11.0552
 31
0
  0
ARC
  5
C80
330
A02
100
AcDbEntity
  8
Shape2DView009
100
AcDbCircle
 10
136.03
 20
12.9581
 30
0
 40
0.25
100
AcDbArc
 50
-20
 51
40
  0
ARC
  5
C81
330
A02
100
AcDbEntity
  8
Shape2DView009
100
AcDbCircle
 10
136.413
 20
13.2795
 30
0
 40
0.25
100
AcDbArc
 50
10
 51
-140
  0
ARC
  5
C82
330
A02
100
AcDbEntity
  8
Shape2DView009
100
AcDbCircle
 10
136.906
 20
13.3663
 30
0
 40
0.25
100
AcDbArc
 50
-170
 51
-110
  0
LINE
  5
C83
330
A02
100
AcDbEntity
  8
Shape2DView009
100
AcDbLine
 10
155.683
 20
6.26568
 30
0
 11
136.82
 21
13.1314
 31
0
  0
ARC
  5
C84
330
A02
100
AcDbEntity
  8
Shape2DView009
100
AcDbCircle
 10
155.769
 20
6.5006
 30
0
 40
0.25
100
AcDbArc
 50
-110
 51
-50
  0
ARC
  5
C85
330
A02
100
AcDbEntity
  8
Shape2DView009
100
AcDbCircle
 10
156.09
 20
6.11758
 30
0
 40
0.25
100
AcDbArc
 50
-80
 51
130
  0
ARC
  5
C86
330
A02
100
AcDbEntity
  8
Shape2DView009
100
AcDbCircle
 10
156.177
 20
5.62517
 30
0
 40
0.25
100
AcDbArc
 50
100
 51
160
  0
LINE
  5
C87
330
A02
100
AcDbEntity
  8
Shape2DView010
100
AcDbLine
 10
107.733
 20
223.671
 30
0
 11
98.8
 21
223.671
 31
0
  0
ARC
  5
C88
330
A02
100
AcDbEntity
  8
Shape2DView010
100
AcDbCircle
 10
98.8
 20
224.071
 30
0
 40
0.4
100
AcDbArc
 50
180
 51
-90
  0
ARC
  5
C89
330
A02
100
AcDbEntity
  8
Shape2DView010
100
AcDbCircle
 10
107.733
 20
223.271
 30
0
 40
0.4
100
AcDbArc
 50
-90
 51
90
  0
LINE
  5
C8A
330
A02
100
AcDbEntity
  8
Shape2DView010
100
AcDbLine
 10
98.4
 20
224.071
 30
0
 11
98.4
 21
232.471
 31
0
  0
LINE
  5
C8B
330
A02
100
AcDbEntity
  8
Shape2DView010
100
AcDbLine
 10
95.6
 20
222.871
 30
0
 11
107.733
 21
222.871
 31
0
  0
ARC
  5
C8C
330
A02
100
AcDbEntity
  8
Shape2DView010
100
AcDbCircle
 10
98.8
 20
232.471
 30
0
 40
0.4
100
AcDbArc
 50
90
 51
180
  0
LINE
  5
C8D
330
A02
100
AcDbEntity
  8
Shape2DView010
100
AcDbLine
 10
98.8
 20
232.871
 30
0
 11
178
 21
232.871
 31
0
  0
LINE
  5
C8E
330
A02
100
AcDbEntity
  8
Shape2DView010
100
AcDbLine
 10
95.6
 20
222.871
 30
0
 11
95.6
 21
223.621
 31
0
  0
ARC
  5
C8F
330
A02
100
AcDbEntity
  8
Shape2DView010
100
AcDbCircle
 10
178
 20
232.471
 30
0
 40
0.4
100
AcDbArc
 50
0
 51
90
  0
LINE
  5
C90
330
A02
100
AcDbEntity
  8
Shape2DView010
100
AcDbLine
 10
95.6
 20
223.621
 30
0
 11
93.8596
 21
222.968
 31
0
  0
LINE
  5
C91
330
A02
100
AcDbEntity
  8
Shape2DView010
100
AcDbLine
 10
178.4
 20
232.471
 30
0
 11
178.4
 21
224.071
 31
0
  0
ARC
  5
C92
330
A02
100
AcDbEntity
  8
Shape2DView010
100
AcDbCircle
 10
94
 20
222.593
 30
0
 40
0.4
100
AcDbArc
 50
110.556
 51
180
  0
ARC
  5
C93
330
A02
100
AcDbEntity
  8
Shape2DView010
100
AcDbCircle
 10
178
 20
224.071
 30
0
 40
0.4
100
AcDbArc
 50
-90
 51
0
  0
LINE
  5
C94
330
A02
100
AcDbEntity
  8
Shape2DView010
100
AcDbLine
 10
93.6
 20
222.593
 30
0
 11
93.6
 21
220.471
 31
0
  0
LINE
  5
C95
330
A02
100
AcDbEntity
  8
Shape2DView010
100
AcDbLine
 10
169.067
 20
223.671
 30
0
 11
178
 21
223.671
 31
0
  0
ARC
  5
C96
330
A02
100
AcDbEntity
  8
Shape2DView010
100
AcDbCircle
 10
94
 20
220.471
 30
0
 40
0.4
100
AcDbArc
 50
180
 51
-90
  0
ARC
  5
C97
330
A02
100
AcDbEntity
  8
Shape2DView010
100
AcDbCircle
 10
169.067
 20
223.271
 30
0
 40
0.4
100
AcDbArc
 50
90
 51
-90
  0
LINE
  5
C98
330
A02
100
AcDbEntity
  8
Shape2DView010
100
AcDbLine
 10
94
 20
220.071
 30
0
 11
109.6
 21
220.071
 31
0
  0
LINE
  5
C99
330
A02
100
AcDbEntity
  8
Shape2DView010
100
AcDbLine
 10
181.2
 20
222.871
 30
0
 11
169.067
 21
222.871
 31
0
  0
ARC
  5
C9A
330
A02
100
AcDbEntity
  8
Shape2DView010
100
AcDbCircle
 10
109.6
 20
219.671
 30
0
 40
0.4
100
AcDbArc
 50
-90
 51
90
  0
LINE
  5
C9B
330
A02
100
AcDbEntity
  8
Shape2DView010
100
AcDbLine
 10
181.2
 20
222.871
 30
0
 11
181.2
 21
223.621
 31
0
  0
LINE
  5
C9C
330
A02
100
AcDbEntity
  8
Shape2DView010
100
AcDbLine
 10
109.6
 20
219.271
 30
0
 11
96
 21
219.271
 31
0
  0
LINE
  5
C9D
330
A02
100
AcDbEntity
  8
Shape2DView010
100
AcDbLine
 10
181.2
 20
223.621
 30
0
 11
182.94
 21
222.968
 31
0
  0
ARC
  5
C9E
330
A02
100
AcDbEntity
  8
Shape2DView010
100
AcDbCircle
 10
96
 20
218.871
 30
0
 40
0.4
100
AcDbArc
 50
90
 51
180
  0
ARC
  5
C9F
330
A02
100
AcDbEntity
  8
Shape2DView010
100
AcDbCircle
 10
182.8
 20
222.593
 30
0
 40
0.4
100
AcDbArc
 50
0
 51
69.444
  0
LINE
  5
CA0
330
A02
100
AcDbEntity
  8
Shape2DView010
100
AcDbLine
 10
95.6
 20
218.871
 30
0
 11
95.6
 21
202.331
 31
0
  0
LINE
  5
CA1
330
A02
100
AcDbEntity
  8
Shape2DView010
100
AcDbLine
 10
183.2
 20
222.593
 30
0
 11
183.2
 21
220.471
 31
0
  0
ARC
  5
CA2
330
A02
100
AcDbEntity
  8
Shape2DView010
100
AcDbCircle
 10
96
 20
202.331
 30
0
 40
0.4
100
AcDbArc
 50
180
 51
-90
  0
ARC
  5
CA3
330
A02
100
AcDbEntity
  8
Shape2DView010
100
AcDbCircle
 10
182.8
 20
220.471
 30
0
 40
0.4
100
AcDbArc
 50
-90
 51
0
  0
LINE
  5
CA4
330
A02
100
AcDbEntity
  8
Shape2DView010
100
AcDbLine
 10
96
 20
201.931
 30
0
 11
98.4
 21
201.931
 31
0
  0
LINE
  5
CA5
330
A02
100
AcDbEntity
  8
Shape2DView010
100
AcDbLine
 10
98.4
 20
201.931
 30
0
 11
98.4
 21
191.931
 31
0
  0
LINE
  5
CA6
330
A02
100
AcDbEntity
  8
Shape2DView010
100
AcDbLine
 10
167.2
 20
220.071
 30
0
 11
182.8
 21
220.071
 31
0
  0
LINE
  5
CA7
330
A02
100
AcDbEntity
  8
Shape2DView010
100
AcDbLine
 10
98.4
 20
191.931
 30
0
 11
96
 21
191.931
 31
0
  0
ARC
  5
CA8
330
A02
100
AcDbEntity
  8
Shape2DView010
100
AcDbCircle
 10
167.2
 20
219.671
 30
0
 40
0.4
100
AcDbArc
 50
90
 51
-90
  0
ARC
  5
CA9
330
A02
100
AcDbEntity
  8
Shape2DView010
100
AcDbCircle
 10
96
 20
191.531
 30
0
 40
0.4
100
AcDbArc
 50
90
 51
180
  0
LINE
  5
CAA
330
A02
100
AcDbEntity
  8
Shape2DView010
100
AcDbLine
 10
180.8
 20
219.271
 30
0
 11
167.2
 21
219.271
 31
0
  0
LINE
  5
CAB
330
A02
100
AcDbEntity
  8
Shape2DView010
100
AcDbLine
 10
95.6
 20
174.991
 30
0
 11
95.6
 21
191.531
 31
0
  0
ARC
  5
CAC
330
A02
100
AcDbEntity
  8
Shape2DView010
100
AcDbCircle
 10
180.8
 20
218.871
 30
0
 40
0.4
100
AcDbArc
 50
0
 51
90
  0
ARC
  5
CAD
330
A02
100
AcDbEntity
  8
Shape2DView010
100
AcDbCircle
 10
96
 20
174.991
 30
0
 40
0.4
100
AcDbArc
 50
180
 51
-90
  0
LINE
  5
CAE
330
A02
100
AcDbEntity
  8
Shape2DView010
100
AcDbLine
 10
181.2
 20
202.331
 30
0
 11
181.2
 21
218.871
 31
0
  0
LINE
  5
CAF
330
A02
100
AcDbEntity
  8
Shape2DView010
100
AcDbLine
 10
109.6
 20
174.591
 30
0
 11
96
 21
174.591
 31
0
  0
ARC
  5
CB0
330
A02
100
AcDbEntity
  8
Shape2DView010
100
AcDbCircle
 10
180.8
 20
202.331
 30
0
 40
0.4
100
AcDbArc
 50
-90
 51
0
  0
ARC
  5
CB1
330
A02
100
AcDbEntity
  8
Shape2DView010
100
AcDbCircle
 10
109.6
 20
174.191
 30
0
 40
0.4
100
AcDbArc
 50
-90
 51
90
  0
LINE
  5
CB2
330
A02
100
AcDbEntity
  8
Shape2DView010
100
AcDbLine
 10
178.4
 20
201.931
 30
0
 11
180.8
 21
201.931
 31
0
  0
LINE
  5
CB3
330
A02
100
AcDbEntity
  8
Shape2DView010
100
AcDbLine
 10
94
 20
173.791
 30
0
 11
109.6
 21
173.791
 31
0
  0
LINE
  5
CB4
330
A02
100
AcDbEntity
  8
Shape2DView010
100
AcDbLine
 10
178.4
 20
201.931
 30
0
 11
178.4
 21
191.931
 31
0
  0
LINE
  5
CB5
330
A02
100
AcDbEntity
  8
Shape2DView010
100
AcDbLine
 10
180.8
 20
191.931
 30
0
 11
178.4
 21
191.931
 31
0
  0
ARC
  5
CB6
330
A02
100
AcDbEntity
  8
Shape2DView010
100
AcDbCircle
 10
94
 20
173.391
 30
0
 40
0.4
100
AcDbArc
 50
90
 51
180
  0
ARC
  5
CB7
330
A02
100
AcDbEntity
  8
Shape2DView010
100
AcDbCircle
 10
180.8
 20
191.531
 30
0
 40
0.4
100
AcDbArc
 50
0
 51
90
  0
LINE
  5
CB8
330
A02
100
AcDbEntity
  8
Shape2DView010
100
AcDbLine
 10
93.6
 20
171.268
 30
0
 11
93.6
 21
173.391
 31
0
  0
LINE
  5
CB9
330
A02
100
AcDbEntity
  8
Shape2DView010
100
AcDbLine
 10
181.2
 20
174.991
 30
0
 11
181.2
 21
191.531
 31
0
  0
ARC
  5
CBA
330
A02
100
AcDbEntity
  8
Shape2DView010
100
AcDbCircle
 10
94
 20
171.268
 30
0
 40
0.4
100
AcDbArc
 50
180
 51
-110.556
  0
ARC
  5
CBB
330
A02
100
AcDbEntity
  8
Shape2DView010
100
AcDbCircle
 10
180.8
 20
174.991
 30
0
 40
0.4
100
AcDbArc
 50
-90
 51
0
  0
LINE
  5
CBC
330
A02
100
AcDbEntity
  8
Shape2DView010
100
AcDbLine
 10
95.6
 20
170.241
 30
0
 11
93.8596
 21
170.893
 31
0
  0
LINE
  5
CBD
330
A02
100
AcDbEntity
  8
Shape2DView010
100
AcDbLine
 10
167.2
 20
174.591
 30
0
 11
180.8
 21
174.591
 31
0
  0
LINE
  5
CBE
330
A02
100
AcDbEntity
  8
Shape2DView010
100
AcDbLine
 10
95.6
 20
170.991
 30
0
 11
95.6
 21
170.241
 31
0
  0
ARC
  5
CBF
330
A02
100
AcDbEntity
  8
Shape2DView010
100
AcDbCircle
 10
167.2
 20
174.191
 30
0
 40
0.4
100
AcDbArc
 50
90
 51
-90
  0
LINE
  5
CC0
330
A02
100
AcDbEntity
  8
Shape2DView010
100
AcDbLine
 10
107.733
 20
170.991
 30
0
 11
95.6
 21
170.991
 31
0
  0
LINE
  5
CC1
330
A02
100
AcDbEntity
  8
Shape2DView010
100
AcDbLine
 10
182.8
 20
173.791
 30
0
 11
167.2
 21
173.791
 31
0
  0
ARC
  5
CC2
330
A02
100
AcDbEntity
  8
Shape2DView010
100
AcDbCircle
 10
107.733
 20
170.591
 30
0
 40
0.4
100
AcDbArc
 50
-90
 51
90
  0
ARC
  5
CC3
330
A02
100
AcDbEntity
  8
Shape2DView010
100
AcDbCircle
 10
182.8
 20
173.391
 30
0
 40
0.4
100
AcDbArc
 50
0
 51
90
  0
LINE
  5
CC4
330
A02
100
AcDbEntity
  8
Shape2DView010
100
AcDbLine
 10
107.733
 20
170.191
 30
0
 11
98.8
 21
170.191
 31
0
  0
LINE
  5
CC5
330
A02
100
AcDbEntity
  8
Shape2DView010
100
AcDbLine
 10
183.2
 20
171.268
 30
0
 11
183.2
 21
173.391
 31
0
  0
ARC
  5
CC6
330
A02
100
AcDbEntity
  8
Shape2DView010
100
AcDbCircle
 10
98.8
 20
169.791
 30
0
 40
0.4
100
AcDbArc
 50
90
 51
180
  0
ARC
  5
CC7
330
A02
100
AcDbEntity
  8
Shape2DView010
100
AcDbCircle
 10
182.8
 20
171.268
 30
0
 40
0.4
100
AcDbArc
 50
-69.444
 51
0
  0
LINE
  5
CC8
330
A02
100
AcDbEntity
  8
Shape2DView010
100
AcDbLine
 10
98.4
 20
161.391
 30
0
 11
98.4
 21
169.791
 31
0
  0
LINE
  5
CC9
330
A02
100
AcDbEntity
  8
Shape2DView010
100
AcDbLine
 10
181.2
 20
170.241
 30
0
 11
182.94
 21
170.893
 31
0
  0
ARC
  5
CCA
330
A02
100
AcDbEntity
  8
Shape2DView010
100
AcDbCircle
 10
98.8
 20
161.391
 30
0
 40
0.4
100
AcDbArc
 50
180
 51
-90
  0
LINE
  5
CCB
330
A02
100
AcDbEntity
  8
Shape2DView010
100
AcDbLine
 10
181.2
 20
170.991
 30
0
 11
181.2
 21
170.241
 31
0
  0
LINE
  5
CCC
330
A02
100
AcDbEntity
  8
Shape2DView010
100
AcDbLine
 10
178
 20
160.991
 30
0
 11
98.8
 21
160.991
 31
0
  0
ARC
  5
CCD
330
A02
100
AcDbEntity
  8
Shape2DView010
100
AcDbCircle
 10
178
 20
161.391
 30
0
 40
0.4
100
AcDbArc
 50
-90
 51
0
  0
LINE
  5
CCE
330
A02
100
AcDbEntity
  8
Shape2DView010
100
AcDbLine
 10
181.2
 20
170.991
 30
0
 11
169.067
 21
170.991
 31
0
  0
LINE
  5
CCF
330
A02
100
AcDbEntity
  8
Shape2DView010
100
AcDbLine
 10
178.4
 20
169.791
 30
0
 11
178.4
 21
161.391
 31
0
  0
ARC
  5
CD0
330
A02
100
AcDbEntity
  8
Shape2DView010
100
AcDbCircle
 10
169.067
 20
170.591
 30
0
 40
0.4
100
AcDbArc
 50
90
 51
-90
  0
ARC
  5
CD1
330
A02
100
AcDbEntity
  8
Shape2DView010
100
AcDbCircle
 10
178
 20
169.791
 30
0
 40
0.4
100
AcDbArc
 50
0
 51
90
  0
LINE
  5
CD2
330
A02
100
AcDbEntity
  8
Shape2DView010
100
AcDbLine
 10
169.067
 20
170.191
 30
0
 11
178
 21
170.191
 31
0
  0
LINE
  5
CD3
330
A02
100
AcDbEntity
  8
Shape2DView010
100
AcDbLine
 10
154.492
 20
201.161
 30
0
 11
154.662
 21
201.055
 31
0
  0
ARC
  5
CD4
330
A02
100
AcDbEntity
  8
Shape2DView010
100
AcDbCircle
 10
151.1
 20
203.281
 30
0
 40
4.2
100
AcDbArc
 50
-148
 51
-32
  0
LINE
  5
CD5
330
A02
100
AcDbEntity
  8
Shape2DView010
100
AcDbLine
 10
147.538
 20
201.055
 30
0
 11
147.708
 21
201.161
 31
0
  0
ARC
  5
CD6
330
A02
100
AcDbEntity
  8
Shape2DView010
100
AcDbCircle
 10
151.1
 20
203.281
 30
0
 40
4
100
AcDbArc
 50
-148
 51
-32
  0
LINE
  5
CD7
330
A02
100
AcDbEntity
  8
Shape2DView010
100
AcDbLine
 10
147.538
 20
192.806
 30
0
 11
147.708
 21
192.7
 31
0
  0
ARC
  5
CD8
330
A02
100
AcDbEntity
  8
Shape2DView010
100
AcDbCircle
 10
151.1
 20
190.581
 30
0
 40
4
100
AcDbArc
 50
32
 51
148
  0
LINE
  5
CD9
330
A02
100
AcDbEntity
  8
Shape2DView010
100
AcDbLine
 10
154.492
 20
192.7
 30
0
 11
154.662
 21
192.806
 31
0
  0
ARC
  5
CDA
330
A02
100
AcDbEntity
  8
Shape2DView010
100
AcDbCircle
 10
151.1
 20
190.581
 30
0
 40
4.2
100
AcDbArc
 50
32
 51
148
  0
LINE
  5
CDB
330
A02
100
AcDbEntity
  8
Shape2DView010
100
AcDbLine
 10
129.092
 20
201.161
 30
0
 11
129.262
 21
201.055
 31
0
  0
ARC
  5
CDC
330
A02
100
AcDbEntity
  8
Shape2DView010
100
AcDbCircle
 10
125.7
 20
203.281
 30
0
 40
4.2
100
AcDbArc
 50
-148
 51
-32
  0
LINE
  5
CDD
330
A02
100
AcDbEntity
  8
Shape2DView010
100
AcDbLine
 10
122.138
 20
201.055
 30
0
 11
122.308
 21
201.161
 31
0
  0
ARC
  5
CDE
330
A02
100
AcDbEntity
  8
Shape2DView010
100
AcDbCircle
 10
125.7
 20
203.281
 30
0
 40
4
100
AcDbArc
 50
-148
 51
-32
  0
LINE
  5
CDF
330
A02
100
AcDbEntity
  8
Shape2DView010
100
AcDbLine
 10
122.138
 20
192.806
 30
0
 11
122.308
 21
192.7
 31
0
  0
ARC
  5
CE0
330
A02
100
AcDbEntity
  8
Shape2DView010
100
AcDbCircle
 10
125.7
 20
190.581
 30
0
 40
4
100
AcDbArc
 50
32
 51
148
  0
LINE
  5
CE1
330
A02
100
AcDbEntity
  8
Shape2DView010
100
AcDbLine
 10
129.092
 20
192.7
 30
0
 11
129.262
 21
192.806
 31
0
  0
ARC
  5
CE2
330
A02
100
AcDbEntity
  8
Shape2DView010
100
AcDbCircle
 10
125.7
 20
190.581
 30
0
 40
4.2
100
AcDbArc
 50
32
 51
148
  0
LINE
  5
CE3
330
A02
100
AcDbEntity
  8
Shape2DView010
100
AcDbLine
 10
125.847
 20
186.383
 30
0
 11
125.84
 21
186.583
 31
0
  0
ARC
  5
CE4
330
A02
100
AcDbEntity
  8
Shape2DView010
100
AcDbCircle
 10
125.7
 20
190.581
 30
0
 40
4
100
AcDbArc
 50
-88
 51
28
  0
LINE
  5
CE5
330
A02
100
AcDbEntity
  8
Shape2DView010
100
AcDbLine
 10
129.232
 20
192.458
 30
0
 11
129.408
 21
192.552
 31
0
  0
ARC
  5
CE6
330
A02
100
AcDbEntity
  8
Shape2DView010
100
AcDbCircle
 10
125.7
 20
190.581
 30
0
 40
4.2
100
AcDbArc
 50
-88
 51
28
  0
LINE
  5
CE7
330
A02
100
AcDbEntity
  8
Shape2DView010
100
AcDbLine
 10
150.96
 20
186.583
 30
0
 11
150.953
 21
186.383
 31
0
  0
ARC
  5
CE8
330
A02
100
AcDbEntity
  8
Shape2DView010
100
AcDbCircle
 10
151.1
 20
190.581
 30
0
 40
4.2
100
AcDbArc
 50
152
 51
-92
  0
LINE
  5
CE9
330
A02
100
AcDbEntity
  8
Shape2DView010
100
AcDbLine
 10
147.392
 20
192.552
 30
0
 11
147.568
 21
192.458
 31
0
  0
ARC
  5
CEA
330
A02
100
AcDbEntity
  8
Shape2DView010
100
AcDbCircle
 10
151.1
 20
190.581
 30
0
 40
4
100
AcDbArc
 50
152
 51
-92
  0
LINE
  5
CEB
330
A02
100
AcDbEntity
  8
Shape2DView010
100
AcDbLine
 10
125.56
 20
186.583
 30
0
 11
125.553
 21
186.383
 31
0
  0
ARC
  5
CEC
330
A02
100
AcDbEntity
  8
Shape2DView010
100
AcDbCircle
 10
125.7
 20
190.581
 30
0
 40
4.2
100
AcDbArc
 50
152
 51
-92
  0
LINE
  5
CED
330
A02
100
AcDbEntity
  8
Shape2DView010
100
AcDbLine
 10
121.992
 20
192.552
 30
0
 11
122.168
 21
192.458
 31
0
  0
ARC
  5
CEE
330
A02
100
AcDbEntity
  8
Shape2DView010
100
AcDbCircle
 10
125.7
 20
190.581
 30
0
 40
4
100
AcDbArc
 50
152
 51
-92
  0
LINE
  5
CEF
330
A02
100
AcDbEntity
  8
Shape2DView010
100
AcDbLine
 10
150.96
 20
207.278
 30
0
 11
150.953
 21
207.478
 31
0
  0
ARC
  5
CF0
330
A02
100
AcDbEntity
  8
Shape2DView010
100
AcDbCircle
 10
151.1
 20
203.281
 30
0
 40
4.2
100
AcDbArc
 50
92
 51
-152
  0
LINE
  5
CF1
330
A02
100
AcDbEntity
  8
Shape2DView010
100
AcDbLine
 10
147.392
 20
201.309
 30
0
 11
147.568
 21
201.403
 31
0
  0
ARC
  5
CF2
330
A02
100
AcDbEntity
  8
Shape2DView010
100
AcDbCircle
 10
151.1
 20
203.281
 30
0
 40
4
100
AcDbArc
 50
92
 51
-152
  0
LINE
  5
CF3
330
A02
100
AcDbEntity
  8
Shape2DView010
100
AcDbLine
 10
151.24
 20
207.278
 30
0
 11
151.247
 21
207.478
 31
0
  0
ARC
  5
CF4
330
A02
100
AcDbEntity
  8
Shape2DView010
100
AcDbCircle
 10
151.1
 20
203.281
 30
0
 40
4.2
100
AcDbArc
 50
-28
 51
88
  0
LINE
  5
CF5
330
A02
100
AcDbEntity
  8
Shape2DView010
100
AcDbLine
 10
154.808
 20
201.309
 30
0
 11
154.632
 21
201.403
 31
0
  0
ARC
  5
CF6
330
A02
100
AcDbEntity
  8
Shape2DView010
100
AcDbCircle
 10
151.1
 20
203.281
 30
0
 40
4
100
AcDbArc
 50
-28
 51
88
  0
LINE
  5
CF7
330
A02
100
AcDbEntity
  8
Shape2DView010
100
AcDbLine
 10
125.553
 20
207.478
 30
0
 11
125.56
 21
207.278
 31
0
  0
ARC
  5
CF8
330
A02
100
AcDbEntity
  8
Shape2DView010
100
AcDbCircle
 10
125.7
 20
203.281
 30
0
 40
4
100
AcDbArc
 50
92
 51
-152
  0
LINE
  5
CF9
330
A02
100
AcDbEntity
  8
Shape2DView010
100
AcDbLine
 10
122.168
 20
201.403
 30
0
 11
121.992
 21
201.309
 31
0
  0
ARC
  5
CFA
330
A02
100
AcDbEntity
  8
Shape2DView010
100
AcDbCircle
 10
125.7
 20
203.281
 30
0
 40
4.2
100
AcDbArc
 50
92
 51
-152
  0
LINE
  5
CFB
330
A02
100
AcDbEntity
  8
Shape2DView010
100
AcDbLine
 10
125.84
 20
207.278
 30
0
 11
125.847
 21
207.478
 31
0
  0
ARC
  5
CFC
330
A02
100
AcDbEntity
  8
Shape2DView010
100
AcDbCircle
 10
125.7
 20
203.281
 30
0
 40
4.2
100
AcDbArc
 50
-28
 51
88
  0
LINE
  5
CFD
330
A02
100
AcDbEntity
  8
Shape2DView010
100
AcDbLine
 10
129.408
 20
201.309
 30
0
 11
129.232
 21
201.403
 31
0
  0
ARC
  5
CFE
330
A02
100
AcDbEntity
  8
Shape2DView010
100
AcDbCircle
 10
125.7
 20
203.281
 30
0
 40
4
100
AcDbArc
 50
-28
 51
88
  0
LINE
  5
CFF
330
A02
100
AcDbEntity
  8
Shape2DView010
100
AcDbLine
 10
151.24
 20
186.583
 30
0
 11
151.247
 21
186.383
 31
0
  0
ARC
  5
D00
330
A02
100
AcDbEntity
  8
Shape2DView010
100
AcDbCircle
 10
151.1
 20
190.581
 30
0
 40
4.2
100
AcDbArc
 50
-88
 51
28
  0
LINE
  5
D01
330
A02
100
AcDbEntity
  8
Shape2DView010
100
AcDbLine
 10
154.808
 20
192.552
 30
0
 11
154.632
 21
192.458
 31
0
  0
ARC
  5
D02
330
A02
100
AcDbEntity
  8
Shape2DView010
100
AcDbCircle
 10
151.1
 20
190.581
 30
0
 40
4
100
AcDbArc
 50
-88
 51
28
  0
CIRCLE
  5
D03
330
A02
100
AcDbEntity
  8
Shape2DView010
100
AcDbCircle
 10
125.7
 20
190.581
 40
1.525
  0
CIRCLE
  5
D04
330
A02
100
AcDbEntity
  8
Shape2DView010
100
AcDbCircle
 10
151.1
 20
190.581
 40
1.525
  0
CIRCLE
  5
D05
330
A02
100
AcDbEntity
  8
Shape2DView010
100
AcDbCircle
 10
163.8
 20
224.871
 40
1.525
  0
CIRCLE
  5
D06
330
A02
100
AcDbEntity
  8
Shape2DView010
100
AcDbCircle
 10
113
 20
224.871
 40
1.525
  0
CIRCLE
  5
D07
330
A02
100
AcDbEntity
  8
Shape2DView010
100
AcDbCircle
 10
125.7
 20
203.281
 40
1.525
  0
CIRCLE
  5
D08
330
A02
100
AcDbEntity
  8
Shape2DView010
100
AcDbCircle
 10
151.1
 20
203.281
 40
1.525
  0
CIRCLE
  5
D09
330
A02
100
AcDbEntity
  8
Shape2DView010
100
AcDbCircle
 10
113
 20
168.991
 40
1.525
  0
CIRCLE
  5
D0A
330
A02
100
AcDbEntity
  8
Shape2DView010
100
AcDbCircle
 10
163.8
 20
168.991
 40
1.525
  0
LINE
  5
D0B
330
A02
100
AcDbEntity
  8
Shape2DView011
100
AcDbLine
 10
142.6
 20
101.209
 30
0
 11
142.6
 21
50.6094
 31
0
  0
ARC
  5
D0C
330
A02
100
AcDbEntity
  8
Shape2DView011
100
AcDbCircle
 10
145.1
 20
101.209
 30
0
 40
2.5
100
AcDbArc
 50
90
 51
180
  0
ARC
  5
D0D
330
A02
100
AcDbEntity
  8
Shape2DView011
100
AcDbCircle
 10
145.1
 20
50.6094
 30
0
 40
2.5
100
AcDbArc
 50
180
 51
-90
  0
LINE
  5
D0E
330
A02
100
AcDbEntity
  8
Shape2DView011
100
AcDbLine
 10
172.7
 20
103.709
 30
0
 11
145.1
 21
103.709
 31
0
  0
LINE
  5
D0F
330
A02
100
AcDbEntity
  8
Shape2DView011
100
AcDbLine
 10
145.1
 20
48.1094
 30
0
 11
250.7
 21
48.1094
 31
0
  0
ARC
  5
D10
330
A02
100
AcDbEntity
  8
Shape2DView011
100
AcDbCircle
 10
172.7
 20
101.209
 30
0
 40
2.5
100
AcDbArc
 50
0
 51
90
  0
ARC
  5
D11
330
A02
100
AcDbEntity
  8
Shape2DView011
100
AcDbCircle
 10
250.7
 20
50.6094
 30
0
 40
2.5
100
AcDbArc
 50
-90
 51
0
  0
LINE
  5
D12
330
A02
100
AcDbEntity
  8
Shape2DView011
100
AcDbLine
 10
175.2
 20
95.6194
 30
0
 11
175.2
 21
101.209
 31
0
  0
LINE
  5
D13
330
A02
100
AcDbEntity
  8
Shape2DView011
100
AcDbLine
 10
253.2
 20
50.6094
 30
0
 11
253.2
 21
136.209
 31
0
  0
ARC
  5
D14
330
A02
100
AcDbEntity
  8
Shape2DView011
100
AcDbCircle
 10
177.7
 20
95.6194
 30
0
 40
2.5
100
AcDbArc
 50
180
 51
-70
  0
ARC
  5
D15
330
A02
100
AcDbEntity
  8
Shape2DView011
100
AcDbCircle
 10
250.7
 20
136.209
 30
0
 40
2.5
100
AcDbArc
 50
0
 51
90
  0
LINE
  5
D16
330
A02
100
AcDbEntity
  8
Shape2DView011
100
AcDbLine
 10
200.955
 20
101.423
 30
0
 11
178.555
 21
93.2701
 31
0
  0
LINE
  5
D17
330
A02
100
AcDbEntity
  8
Shape2DView011
100
AcDbLine
 10
250.7
 20
138.709
 30
0
 11
205.1
 21
138.709
 31
0
  0
ARC
  5
D18
330
A02
100
AcDbEntity
  8
Shape2DView011
100
AcDbCircle
 10
200.1
 20
103.772
 30
0
 40
2.5
100
AcDbArc
 50
-70
 51
0
  0
ARC
  5
D19
330
A02
100
AcDbEntity
  8
Shape2DView011
100
AcDbCircle
 10
205.1
 20
136.209
 30
0
 40
2.5
100
AcDbArc
 50
90
 51
180
  0
LINE
  5
D1A
330
A02
100
AcDbEntity
  8
Shape2DView011
100
AcDbLine
 10
202.6
 20
136.209
 30
0
 11
202.6
 21
103.772
 31
0
  0
ARC
  5
D1B
330
A02
100
AcDbEntity
  8
Shape2DView011
100
AcDbCircle
 10
147.35
 20
98.2764
 30
0
 40
0.25
100
AcDbArc
 50
0
 51
60
  0
ARC
  5
D1C
330
A02
100
AcDbEntity
  8
Shape2DView011
100
AcDbCircle
 10
147.6
 20
98.7094
 30
0
 40
0.25
100
AcDbArc
 50
30
 51
-120
  0
ARC
  5
D1D
330
A02
100
AcDbEntity
  8
Shape2DView011
100
AcDbCircle
 10
148.033
 20
98.9594
 30
0
 40
0.25
100
AcDbArc
 50
-150
 51
-90
  0
LINE
  5
D1E
330
A02
100
AcDbEntity
  8
Shape2DView011
100
AcDbLine
 10
169.767
 20
98.7094
 30
0
 11
148.033
 21
98.7094
 31
0
  0
ARC
  5
D1F
330
A02
100
AcDbEntity
  8
Shape2DView011
100
AcDbCircle
 10
169.767
 20
98.9594
 30
0
 40
0.25
100
AcDbArc
 50
-90
 51
-30
  0
ARC
  5
D20
330
A02
100
AcDbEntity
  8
Shape2DView011
100
AcDbCircle
 10
170.2
 20
98.7094
 30
0
 40
0.25
100
AcDbArc
 50
-60
 51
150
  0
ARC
  5
D21
330
A02
100
AcDbEntity
  8
Shape2DView011
100
AcDbCircle
 10
170.45
 20
98.2764
 30
0
 40
0.25
100
AcDbArc
 50
120
 51
180
  0
LINE
  5
D22
330
A02
100
AcDbEntity
  8
Shape2DView011
100
AcDbLine
 10
170.2
 20
86.3364
 30
0
 11
170.2
 21
98.2764
 31
0
  0
ARC
  5
D23
330
A02
100
AcDbEntity
  8
Shape2DView011
100
AcDbCircle
 10
171.2
 20
86.3364
 30
0
 40
1
100
AcDbArc
 50
180
 51
-70
  0
LINE
  5
D24
330
A02
100
AcDbEntity
  8
Shape2DView011
100
AcDbLine
 10
206.942
 20
98.2813
 30
0
 11
171.542
 21
85.3967
 31
0
  0
ARC
  5
D25
330
A02
100
AcDbEntity
  8
Shape2DView011
100
AcDbCircle
 10
206.6
 20
99.2209
 30
0
 40
1
100
AcDbArc
 50
-70
 51
0
  0
LINE
  5
D26
330
A02
100
AcDbEntity
  8
Shape2DView011
100
AcDbLine
 10
207.6
 20
133.276
 30
0
 11
207.6
 21
99.2209
 31
0
  0
ARC
  5
D27
330
A02
100
AcDbEntity
  8
Shape2DView011
100
AcDbCircle
 10
207.35
 20
133.276
 30
0
 40
0.25
100
AcDbArc
 50
0
 51
60
  0
ARC
  5
D28
330
A02
100
AcDbEntity
  8
Shape2DView011
100
AcDbCircle
 10
207.6
 20
133.709
 30
0
 40
0.25
100
AcDbArc
 50
30
 51
-120
  0
ARC
  5
D29
330
A02
100
AcDbEntity
  8
Shape2DView011
100
AcDbCircle
 10
208.033
 20
133.959
 30
0
 40
0.25
100
AcDbArc
 50
-150
 51
-90
  0
LINE
  5
D2A
330
A02
100
AcDbEntity
  8
Shape2DView011
100
AcDbLine
 10
247.767
 20
133.709
 30
0
 11
208.033
 21
133.709
 31
0
  0
ARC
  5
D2B
330
A02
100
AcDbEntity
  8
Shape2DView011
100
AcDbCircle
 10
247.767
 20
133.959
 30
0
 40
0.25
100
AcDbArc
 50
-90
 51
-30
  0
ARC
  5
D2C
330
A02
100
AcDbEntity
  8
Shape2DView011
100
AcDbCircle
 10
248.2
 20
133.709
 30
0
 40
0.25
100
AcDbArc
 50
-60
 51
150
  0
ARC
  5
D2D
330
A02
100
AcDbEntity
  8
Shape2DView011
100
AcDbCircle
 10
248.45
 20
133.276
 30
0
 40
0.25
100
AcDbArc
 50
120
 51
180
  0
LINE
  5
D2E
330
A02
100
AcDbEntity
  8
Shape2DView011
100
AcDbLine
 10
248.2
 20
53.5425
 30
0
 11
248.2
 21
133.276
 31
0
  0
ARC
  5
D2F
330
A02
100
AcDbEntity
  8
Shape2DView011
100
AcDbCircle
 10
248.45
 20
53.5425
 30
0
 40
0.25
100
AcDbArc
 50
180
 51
-120
  0
ARC
  5
D30
330
A02
100
AcDbEntity
  8
Shape2DView011
100
AcDbCircle
 10
248.2
 20
53.1094
 30
0
 40
0.25
100
AcDbArc
 50
-150
 51
60
  0
ARC
  5
D31
330
A02
100
AcDbEntity
  8
Shape2DView011
100
AcDbCircle
 10
247.767
 20
52.8594
 30
0
 40
0.25
100
AcDbArc
 50
30
 51
90
  0
LINE
  5
D32
330
A02
100
AcDbEntity
  8
Shape2DView011
100
AcDbLine
 10
148.033
 20
53.1094
 30
0
 11
247.767
 21
53.1094
 31
0
  0
ARC
  5
D33
330
A02
100
AcDbEntity
  8
Shape2DView011
100
AcDbCircle
 10
148.033
 20
52.8594
 30
0
 40
0.25
100
AcDbArc
 50
90
 51
150
  0
ARC
  5
D34
330
A02
100
AcDbEntity
  8
Shape2DView011
100
AcDbCircle
 10
147.6
 20
53.1094
 30
0
 40
0.25
100
AcDbArc
 50
120
 51
-30
  0
ARC
  5
D35
330
A02
100
AcDbEntity
  8
Shape2DView011
100
AcDbCircle
 10
147.35
 20
53.5425
 30
0
 40
0.25
100
AcDbArc
 50
-60
 51
0
  0
LINE
  5
D36
330
A02
100
AcDbEntity
  8
Shape2DView011
100
AcDbLine
 10
147.6
 20
98.2764
 30
0
 11
147.6
 21
53.5425
 31
0
  0
LINE
  5
D37
330
A02
100
AcDbEntity
  8
Shape2DView012
100
AcDbLine
 10
225.091
 20
144.7
 30
0
 11
275.691
 21
144.7
 31
0
  0
ARC
  5
D38
330
A02
100
AcDbEntity
  8
Shape2DView012
100
AcDbCircle
 10
225.091
 20
147.2
 30
0
 40
2.5
100
AcDbArc
 50
180
 51
-90
  0
ARC
  5
D39
330
A02
100
AcDbEntity
  8
Shape2DView012
100
AcDbCircle
 10
275.691
 20
147.2
 30
0
 40
2.5
100
AcDbArc
 50
-90
 51
0
  0
LINE
  5
D3A
330
A02
100
AcDbEntity
  8
Shape2DView012
100
AcDbLine
 10
222.591
 20
174.8
 30
0
 11
222.591
 21
147.2
 31
0
  0
LINE
  5
D3B
330
A02
100
AcDbEntity
  8
Shape2DView012
100
AcDbLine
 10
278.191
 20
147.2
 30
0
 11
278.191
 21
252.8
 31
0
  0
ARC
  5
D3C
330
A02
100
AcDbEntity
  8
Shape2DView012
100
AcDbCircle
 10
225.091
 20
174.8
 30
0
 40
2.5
100
AcDbArc
 50
90
 51
180
  0
ARC
  5
D3D
330
A02
100
AcDbEntity
  8
Shape2DView012
100
AcDbCircle
 10
275.691
 20
252.8
 30
0
 40
2.5
100
AcDbArc
 50
0
 51
90
  0
LINE
  5
D3E
330
A02
100
AcDbEntity
  8
Shape2DView012
100
AcDbLine
 10
230.681
 20
177.3
 30
0
 11
225.091
 21
177.3
 31
0
  0
LINE
  5
D3F
330
A02
100
AcDbEntity
  8
Shape2DView012
100
AcDbLine
 10
275.691
 20
255.3
 30
0
 11
190.091
 21
255.3
 31
0
  0
ARC
  5
D40
330
A02
100
AcDbEntity
  8
Shape2DView012
100
AcDbCircle
 10
230.681
 20
179.8
 30
0
 40
2.5
100
AcDbArc
 50
-90
 51
20
  0
ARC
  5
D41
330
A02
100
AcDbEntity
  8
Shape2DView012
100
AcDbCircle
 10
190.091
 20
252.8
 30
0
 40
2.5
100
AcDbArc
 50
90
 51
180
  0
LINE
  5
D42
330
A02
100
AcDbEntity
  8
Shape2DView012
100
AcDbLine
 10
224.877
 20
203.055
 30
0
 11
233.03
 21
180.655
 31
0
  0
LINE
  5
D43
330
A02
100
AcDbEntity
  8
Shape2DView012
100
AcDbLine
 10
187.591
 20
252.8
 30
0
 11
187.591
 21
207.2
 31
0
  0
ARC
  5
D44
330
A02
100
AcDbEntity
  8
Shape2DView012
100
AcDbCircle
 10
222.528
 20
202.2
 30
0
 40
2.5
100
AcDbArc
 50
20
 51
90
  0
ARC
  5
D45
330
A02
100
AcDbEntity
  8
Shape2DView012
100
AcDbCircle
 10
190.091
 20
207.2
 30
0
 40
2.5
100
AcDbArc
 50
180
 51
-90
  0
LINE
  5
D46
330
A02
100
AcDbEntity
  8
Shape2DView012
100
AcDbLine
 10
190.091
 20
204.7
 30
0
 11
222.528
 21
204.7
 31
0
  0
ARC
  5
D47
330
A02
100
AcDbEntity
  8
Shape2DView012
100
AcDbCircle
 10
228.024
 20
149.45
 30
0
 40
0.25
100
AcDbArc
 50
90
 51
150
  0
ARC
  5
D48
330
A02
100
AcDbEntity
  8
Shape2DView012
100
AcDbCircle
 10
227.591
 20
149.7
 30
0
 40
0.25
100
AcDbArc
 50
120
 51
-30
  0
ARC
  5
D49
330
A02
100
AcDbEntity
  8
Shape2DView012
100
AcDbCircle
 10
227.341
 20
150.133
 30
0
 40
0.25
100
AcDbArc
 50
-60
 51
0
  0
LINE
  5
D4A
330
A02
100
AcDbEntity
  8
Shape2DView012
100
AcDbLine
 10
227.591
 20
171.867
 30
0
 11
227.591
 21
150.133
 31
0
  0
ARC
  5
D4B
330
A02
100
AcDbEntity
  8
Shape2DView012
100
AcDbCircle
 10
227.341
 20
171.867
 30
0
 40
0.25
100
AcDbArc
 50
0
 51
60
  0
ARC
  5
D4C
330
A02
100
AcDbEntity
  8
Shape2DView012
100
AcDbCircle
 10
227.591
 20
172.3
 30
0
 40
0.25
100
AcDbArc
 50
30
 51
-120
  0
ARC
  5
D4D
330
A02
100
AcDbEntity
  8
Shape2DView012
100
AcDbCircle
 10
228.024
 20
172.55
 30
0
 40
0.25
100
AcDbArc
 50
-150
 51
-90
  0
LINE
  5
D4E
330
A02
100
AcDbEntity
  8
Shape2DView012
100
AcDbLine
 10
239.964
 20
172.3
 30
0
 11
228.024
 21
172.3
 31
0
  0
ARC
  5
D4F
330
A02
100
AcDbEntity
  8
Shape2DView012
100
AcDbCircle
 10
239.964
 20
173.3
 30
0
 40
1
100
AcDbArc
 50
-90
 51
20
  0
LINE
  5
D50
330
A02
100
AcDbEntity
  8
Shape2DView012
100
AcDbLine
 10
228.019
 20
209.042
 30
0
 11
240.903
 21
173.642
 31
0
  0
ARC
  5
D51
330
A02
100
AcDbEntity
  8
Shape2DView012
100
AcDbCircle
 10
227.079
 20
208.7
 30
0
 40
1
100
AcDbArc
 50
20
 51
90
  0
LINE
  5
D52
330
A02
100
AcDbEntity
  8
Shape2DView012
100
AcDbLine
 10
193.024
 20
209.7
 30
0
 11
227.079
 21
209.7
 31
0
  0
ARC
  5
D53
330
A02
100
AcDbEntity
  8
Shape2DView012
100
AcDbCircle
 10
193.024
 20
209.45
 30
0
 40
0.25
100
AcDbArc
 50
90
 51
150
  0
ARC
  5
D54
330
A02
100
AcDbEntity
  8
Shape2DView012
100
AcDbCircle
 10
192.591
 20
209.7
 30
0
 40
0.25
100
AcDbArc
 50
120
 51
-30
  0
ARC
  5
D55
330
A02
100
AcDbEntity
  8
Shape2DView012
100
AcDbCircle
 10
192.341
 20
210.133
 30
0
 40
0.25
100
AcDbArc
 50
-60
 51
0
  0
LINE
  5
D56
330
A02
100
AcDbEntity
  8
Shape2DView012
100
AcDbLine
 10
192.591
 20
249.867
 30
0
 11
192.591
 21
210.133
 31
0
  0
ARC
  5
D57
330
A02
100
AcDbEntity
  8
Shape2DView012
100
AcDbCircle
 10
192.341
 20
249.867
 30
0
 40
0.25
100
AcDbArc
 50
0
 51
60
  0
ARC
  5
D58
330
A02
100
AcDbEntity
  8
Shape2DView012
100
AcDbCircle
 10
192.591
 20
250.3
 30
0
 40
0.25
100
AcDbArc
 50
30
 51
-120
  0
ARC
  5
D59
330
A02
100
AcDbEntity
  8
Shape2DView012
100
AcDbCircle
 10
193.024
 20
250.55
 30
0
 40
0.25
100
AcDbArc
 50
-150
 51
-90
  0
LINE
  5
D5A
330
A02
100
AcDbEntity
  8
Shape2DView012
100
AcDbLine
 10
272.758
 20
250.3
 30
0
 11
193.024
 21
250.3
 31
0
  0
ARC
  5
D5B
330
A02
100
AcDbEntity
  8
Shape2DView012
100
AcDbCircle
 10
272.758
 20
250.55
 30
0
 40
0.25
100
AcDbArc
 50
-90
 51
-30
  0
ARC
  5
D5C
330
A02
100
AcDbEntity
  8
Shape2DView012
100
AcDbCircle
 10
273.191
 20
250.3
 30
0
 40
0.25
100
AcDbArc
 50
-60
 51
150
  0
ARC
  5
D5D
330
A02
100
AcDbEntity
  8
Shape2DView012
100
AcDbCircle
 10
273.441
 20
249.867
 30
0
 40
0.25
100
AcDbArc
 50
120
 51
180
  0
LINE
  5
D5E
330
A02
100
AcDbEntity
  8
Shape2DView012
100
AcDbLine
 10
273.191
 20
150.133
 30
0
 11
273.191
 21
249.867
 31
0
  0
ARC
  5
D5F
330
A02
100
AcDbEntity
  8
Shape2DView012
100
AcDbCircle
 10
273.441
 20
150.133
 30
0
 40
0.25
100
AcDbArc
 50
180
 51
-120
  0
ARC
  5
D60
330
A02
100
AcDbEntity
  8
Shape2DView012
100
AcDbCircle
 10
273.191
 20
149.7
 30
0
 40
0.25
100
AcDbArc
 50
-150
 51
60
  0
ARC
  5
D61
330
A02
100
AcDbEntity
  8
Shape2DView012
100
AcDbCircle
 10
272.758
 20
149.45
 30
0
 40
0.25
100
AcDbArc
 50
30
 51
90
  0
LINE
  5
D62
330
A02
100
AcDbEntity
  8
Shape2DView012
100
AcDbLine
 10
228.024
 20
149.7
 30
0
 11
272.758
 21
149.7
 31
0
  0
ARC
  5
D63
330
A02
100
AcDbEntity
  8
Shape2DView013
100
AcDbCircle
 10
48.7158
 20
122.657
 30
0
 40
0.199942
100
AcDbArc
 50
-163.653
 51
-16.3466
  0
LINE
  5
D64
330
A02
100
AcDbEntity
  8
Shape2DView013
100
AcDbLine
 10
48.9077
 20
122.6
 30
0
 11
58.1381
 21
122.6
 31
0
  0
ARC
  5
D65
330
A02
100
AcDbEntity
  8
Shape2DView013
100
AcDbCircle
 10
58.3301
 20
122.657
 30
0
 40
0.200039
100
AcDbArc
 50
-163.653
 51
-16.3466
  0
ELLIPSE
  5
D66
330
A02
100
AcDbEntity
  8
Shape2DView013
100
AcDbEllipse
 10
58.3301
 20
122.657
 30
0
 11
0
 21
0.211888
 31
0
 40
0.939693
 41
4.44345
 42
4.71239
  0
ELLIPSE
  5
D67
330
A02
100
AcDbEntity
  8
Shape2DView013
100
AcDbEllipse
 10
58.3301
 20
122.657
 30
0
 11
1.09236e-07
 21
0.211888
 31
0
 40
0.939693
 41
4.71239
 42
5.75959
  0
LINE
  5
D68
330
A02
100
AcDbEntity
  8
Shape2DView013
100
AcDbLine
 10
58.4296
 20
125.4
 30
0
 11
58.4296
 21
122.84
 31
0
  0
LINE
  5
D69
330
A02
100
AcDbEntity
  8
Shape2DView013
100
AcDbLine
 10
58.4296
 20
125.4
 30
0
 11
85.623
 21
125.4
 31
0
  0
LINE
  5
D6A
330
A02
100
AcDbEntity
  8
Shape2DView013
100
AcDbLine
 10
85.623
 20
125.4
 30
0
 11
85.623
 21
108.626
 31
0
  0
LINE
  5
D6B
330
A02
100
AcDbEntity
  8
Shape2DView013
100
AcDbLine
 10
83.0483
 20
108.626
 30
0
 11
85.623
 21
108.626
 31
0
  0
ARC
  5
D6C
330
A02
100
AcDbEntity
  8
Shape2DView013
100
AcDbCircle
 10
82.8759
 20
108.526
 30
0
 40
0.19911
100
AcDbArc
 50
30
 51
-120
  0
LINE
  5
D6D
330
A02
100
AcDbEntity
  8
Shape2DView013
100
AcDbLine
 10
82.7763
 20
108.354
 30
0
 11
82.7763
 21
99.0846
 31
0
  0
ARC
  5
D6E
330
A02
100
AcDbEntity
  8
Shape2DView013
100
AcDbCircle
 10
82.8759
 20
98.9121
 30
0
 40
0.19911
100
AcDbArc
 50
120
 51
-30
  0
LINE
  5
D6F
330
A02
100
AcDbEntity
  8
Shape2DView013
100
AcDbLine
 10
83.0483
 20
98.8126
 30
0
 11
85.623
 21
98.8126
 31
0
  0
LINE
  5
D70
330
A02
100
AcDbEntity
  8
Shape2DView013
100
AcDbLine
 10
85.623
 20
98.8126
 30
0
 11
85.623
 21
80
 31
0
  0
LINE
  5
D71
330
A02
100
AcDbEntity
  8
Shape2DView013
100
AcDbLine
 10
85.623
 20
80
 30
0
 11
58.4849
 21
80
 31
0
  0
ELLIPSE
  5
D72
330
A02
100
AcDbEntity
  8
Shape2DView013
100
AcDbEllipse
 10
58.3332
 20
79.8733
 30
0
 11
0
 21
0.205266
 31
0
 40
0.939693
 41
5.37768
 42
5.75959
  0
LINE
  5
D73
330
A02
100
AcDbEntity
  8
Shape2DView013
100
AcDbLine
 10
58.4296
 20
82.5692
 30
0
 11
58.4296
 21
80.0511
 31
0
  0
ELLIPSE
  5
D74
330
A02
100
AcDbEntity
  8
Shape2DView013
100
AcDbEllipse
 10
58.3332
 20
82.747
 30
0
 11
0
 21
0.205266
 31
0
 40
0.939693
 41
3.66519
 42
4.71239
  0
ELLIPSE
  5
D75
330
A02
100
AcDbEntity
  8
Shape2DView013
100
AcDbEllipse
 10
58.3332
 20
82.747
 30
0
 11
0
 21
0.205266
 31
0
 40
0.939693
 41
4.71239
 42
1.0472
  0
LINE
  5
D76
330
A02
100
AcDbEntity
  8
Shape2DView013
100
AcDbLine
 10
58.1662
 20
82.8496
 30
0
 11
48.8798
 21
82.8496
 31
0
  0
ELLIPSE
  5
D77
330
A02
100
AcDbEntity
  8
Shape2DView013
100
AcDbEllipse
 10
48.7128
 20
82.747
 30
0
 11
0
 21
0.205266
 31
0
 40
0.939693
 41
5.23599
 42
1.5708
  0
ELLIPSE
  5
D78
330
A02
100
AcDbEntity
  8
Shape2DView013
100
AcDbEllipse
 10
48.7128
 20
82.747
 30
0
 11
0
 21
0.205266
 31
0
 40
0.939693
 41
1.5708
 42
2.61799
  0
LINE
  5
D79
330
A02
100
AcDbEntity
  8
Shape2DView013
100
AcDbLine
 10
48.6163
 20
82.5692
 30
0
 11
48.6163
 21
80.0511
 31
0
  0
ELLIPSE
  5
D7A
330
A02
100
AcDbEntity
  8
Shape2DView013
100
AcDbEllipse
 10
48.7128
 20
79.8733
 30
0
 11
0
 21
0.205266
 31
0
 40
0.939693
 41
0.523599
 42
0.905501
  0
LINE
  5
D7B
330
A02
100
AcDbEntity
  8
Shape2DView013
100
AcDbLine
 10
48.561
 20
80
 30
0
 11
37.0849
 21
80
 31
0
  0
ELLIPSE
  5
D7C
330
A02
100
AcDbEntity
  8
Shape2DView013
100
AcDbEllipse
 10
36.9332
 20
79.8733
 30
0
 11
0
 21
0.205266
 31
0
 40
0.939693
 41
5.37768
 42
5.75959
  0
LINE
  5
D7D
330
A02
100
AcDbEntity
  8
Shape2DView013
100
AcDbLine
 10
37.0296
 20
82.5692
 30
0
 11
37.0296
 21
80.0511
 31
0
  0
ELLIPSE
  5
D7E
330
A02
100
AcDbEntity
  8
Shape2DView013
100
AcDbEllipse
 10
36.9332
 20
82.747
 30
0
 11
0
 21
0.205266
 31
0
 40
0.939693
 41
3.66519
 42
4.71239
  0
ELLIPSE
  5
D7F
330
A02
100
AcDbEntity
  8
Shape2DView013
100
AcDbEllipse
 10
36.9332
 20
82.747
 30
0
 11
0
 21
0.205266
 31
0
 40
0.939693
 41
4.71239
 42
1.0472
  0
LINE
  5
D80
330
A02
100
AcDbEntity
  8
Shape2DView013
100
AcDbLine
 10
36.7662
 20
82.8496
 30
0
 11
27.4798
 21
82.8496
 31
0
  0
ELLIPSE
  5
D81
330
A02
100
AcDbEntity
  8
Shape2DView013
100
AcDbEllipse
 10
27.3128
 20
82.747
 30
0
 11
0
 21
0.205266
 31
0
 40
0.939693
 41
5.23599
 42
1.5708
  0
ELLIPSE
  5
D82
330
A02
100
AcDbEntity
  8
Shape2DView013
100
AcDbEllipse
 10
27.3128
 20
82.747
 30
0
 11
0
 21
0.205266
 31
0
 40
0.939693
 41
1.5708
 42
2.61799
  0
LINE
  5
D83
330
A02
100
AcDbEntity
  8
Shape2DView013
100
AcDbLine
 10
27.2163
 20
82.5692
 30
0
 11
27.2163
 21
80.0511
 31
0
  0
ELLIPSE
  5
D84
330
A02
100
AcDbEntity
  8
Shape2DView013
100
AcDbEllipse
 10
27.3128
 20
79.8733
 30
0
 11
0
 21
0.205266
 31
0
 40
0.939693
 41
0.523599
 42
0.905501
  0
LINE
  5
D85
330
A02
100
AcDbEntity
  8
Shape2DView013
100
AcDbLine
 10
27.161
 20
80
 30
0
 11
0.0229889
 21
80
 31
0
  0
LINE
  5
D86
330
A02
100
AcDbEntity
  8
Shape2DView013
100
AcDbLine
 10
0.0229889
 20
80
 30
0
 11
0.0229889
 21
98.8126
 31
0
  0
LINE
  5
D87
330
A02
100
AcDbEntity
  8
Shape2DView013
100
AcDbLine
 10
0.0229889
 20
98.8126
 30
0
 11
2.59765
 21
98.8126
 31
0
  0
ARC
  5
D88
330
A02
100
AcDbEntity
  8
Shape2DView013
100
AcDbCircle
 10
2.77008
 20
98.9121
 30
0
 40
0.19911
100
AcDbArc
 50
-150
 51
0
  0
ARC
  5
D89
330
A02
100
AcDbEntity
  8
Shape2DView013
100
AcDbCircle
 10
2.77008
 20
98.9121
 30
0
 40
0.19911
100
AcDbArc
 50
0
 51
60
  0
LINE
  5
D8A
330
A02
100
AcDbEntity
  8
Shape2DView013
100
AcDbLine
 10
2.86964
 20
108.354
 30
0
 11
2.86964
 21
99.0846
 31
0
  0
ARC
  5
D8B
330
A02
100
AcDbEntity
  8
Shape2DView013
100
AcDbCircle
 10
2.77008
 20
108.526
 30
0
 40
0.19911
100
AcDbArc
 50
-60
 51
0
  0
ARC
  5
D8C
330
A02
100
AcDbEntity
  8
Shape2DView013
100
AcDbCircle
 10
2.77008
 20
108.526
 30
0
 40
0.19911
100
AcDbArc
 50
0
 51
150
  0
LINE
  5
D8D
330
A02
100
AcDbEntity
  8
Shape2DView013
100
AcDbLine
 10
0.0229889
 20
108.626
 30
0
 11
2.59765
 21
108.626
 31
0
  0
LINE
  5
D8E
330
A02
100
AcDbEntity
  8
Shape2DView013
100
AcDbLine
 10
0.0229889
 20
108.626
 30
0
 11
0.0229889
 21
125.4
 31
0
  0
LINE
  5
D8F
330
A02
100
AcDbEntity
  8
Shape2DView013
100
AcDbLine
 10
0.0229889
 20
125.4
 30
0
 11
27.2163
 21
125.4
 31
0
  0
LINE
  5
D90
330
A02
100
AcDbEntity
  8
Shape2DView013
100
AcDbLine
 10
27.2163
 20
125.4
 30
0
 11
27.2163
 21
122.84
 31
0
  0
ELLIPSE
  5
D91
330
A02
100
AcDbEntity
  8
Shape2DView013
100
AcDbEllipse
 10
27.3159
 20
122.657
 30
0
 11
0
 21
0.211888
 31
0
 40
0.939693
 41
0.523599
 42
1.5708
  0
ELLIPSE
  5
D92
330
A02
100
AcDbEntity
  8
Shape2DView013
100
AcDbEllipse
 10
27.3159
 20
122.657
 30
0
 11
1.66566e-08
 21
0.211889
 31
0
 40
0.939693
 41
1.5708
 42
1.83973
  0
ARC
  5
D93
330
A02
100
AcDbEntity
  8
Shape2DView013
100
AcDbCircle
 10
27.3159
 20
122.657
 30
0
 40
0.200039
100
AcDbArc
 50
-163.653
 51
-16.3466
  0
LINE
  5
D94
330
A02
100
AcDbEntity
  8
Shape2DView013
100
AcDbLine
 10
27.5078
 20
122.6
 30
0
 11
36.7379
 21
122.6
 31
0
  0
ARC
  5
D95
330
A02
100
AcDbEntity
  8
Shape2DView013
100
AcDbCircle
 10
36.9297
 20
122.657
 30
0
 40
0.200039
100
AcDbArc
 50
-163.54
 51
-16.3465
  0
ELLIPSE
  5
D96
330
A02
100
AcDbEntity
  8
Shape2DView013
100
AcDbEllipse
 10
36.9296
 20
122.657
 30
0
 11
-0.000420295
 21
0.211888
 31
0
 40
0.939692
 41
4.44345
 42
4.71239
  0
LINE
  5
D97
330
A02
100
AcDbEntity
  8
Shape2DView013
100
AcDbLine
 10
37.0296
 20
125.4
 30
0
 11
37.0296
 21
122.84
 31
0
  0
LINE
  5
D98
330
A02
100
AcDbEntity
  8
Shape2DView013
100
AcDbLine
 10
37.0296
 20
125.4
 30
0
 11
48.6163
 21
125.4
 31
0
  0
LINE
  5
D99
330
A02
100
AcDbEntity
  8
Shape2DView013
100
AcDbLine
 10
48.6163
 20
125.4
 30
0
 11
48.6163
 21
122.84
 31
0
  0
ELLIPSE
  5
D9A
330
A02
100
AcDbEntity
  8
Shape2DView013
100
AcDbEllipse
 10
48.7159
 20
122.657
 30
0
 11
0
 21
0.211888
 31
0
 40
0.939693
 41
0.523599
 42
1.5708
  0
ELLIPSE
  5
D9B
330
A02
100
AcDbEntity
  8
Shape2DView013
100
AcDbEllipse
 10
48.7158
 20
122.657
 30
0
 11
2.91318e-05
 21
0.21181
 31
0
 40
0.9396
 41
1.5708
 42
1.83973
  0
ELLIPSE
  5
D9C
330
A02
100
AcDbEntity
  8
Shape2DView013
100
AcDbEllipse
 10
36.9297
 20
122.657
 30
0
 11
0.000404743
 21
0.211758
 31
0
 40
0.940269
 41
4.71239
 42
5.75959
  0
ARC
  5
D9D
330
A02
100
AcDbEntity
  8
Shape2DView013
100
AcDbCircle
 10
26.8237
 20
119.719
 30
0
 40
0.5
100
AcDbArc
 50
90
 51
180
  0
LINE
  5
D9E
330
A02
100
AcDbEntity
  8
Shape2DView013
100
AcDbLine
 10
26.3237
 20
87.7192
 30
0
 11
26.3237
 21
119.719
 31
0
  0
ARC
  5
D9F
330
A02
100
AcDbEntity
  8
Shape2DView013
100
AcDbCircle
 10
26.8237
 20
87.7192
 30
0
 40
0.5
100
AcDbArc
 50
180
 51
-90
  0
LINE
  5
DA0
330
A02
100
AcDbEntity
  8
Shape2DView013
100
AcDbLine
 10
58.8237
 20
87.2192
 30
0
 11
26.8237
 21
87.2192
 31
0
  0
ARC
  5
DA1
330
A02
100
AcDbEntity
  8
Shape2DView013
100
AcDbCircle
 10
58.8237
 20
87.7192
 30
0
 40
0.5
100
AcDbArc
 50
-90
 51
0
  0
LINE
  5
DA2
330
A02
100
AcDbEntity
  8
Shape2DView013
100
AcDbLine
 10
59.3237
 20
119.719
 30
0
 11
59.3237
 21
87.7192
 31
0
  0
ARC
  5
DA3
330
A02
100
AcDbEntity
  8
Shape2DView013
100
AcDbCircle
 10
58.8237
 20
119.719
 30
0
 40
0.5
100
AcDbArc
 50
0
 51
90
  0
LINE
  5
DA4
330
A02
100
AcDbEntity
  8
Shape2DView013
100
AcDbLine
 10
26.8237
 20
120.219
 30
0
 11
58.8237
 21
120.219
 31
0
  0
LINE
  5
DA5
330
A02
100
AcDbEntity
  8
Shape2DView013
100
AcDbLine
 10
37.1216
 20
122.6
 30
0
 11
37.122
 21
122.6
 31
0
  0
ENDSEC
  0
SECTION
  2
OBJECTS
  0
DICTIONARY
  5
F000
330
0
100
AcDbDictionary
  3
ACAD_GROUP
350
F001
  0
DICTIONARY
  5
F001
330
F000
100
AcDbDictionary
  0
ENDSEC
  0
EOF