%TF.GenerationSoftware,KiCad,Pcbnew,8.0.2-8.0.2-0~ubuntu22.04.1*%
%TF.CreationDate,2024-05-13T05:44:21+05:30*%
%TF.ProjectId,BagTag,42616754-6167-42e6-9b69-6361645f7063,v4*%
%TF.SameCoordinates,Original*%
%TF.FileFunction,Soldermask,Top*%
%TF.FilePolarity,Negative*%
%FSLAX46Y46*%
G04 Gerber Fmt 4.6, Leading zero omitted, Abs format (unit mm)*
G04 Created by KiCad (PCBNEW 8.0.2-8.0.2-0~ubuntu22.04.1) date 2024-05-13 05:44:21*
%MOMM*%
%LPD*%
G01*
G04 APERTURE LIST*
G04 Aperture macros list*
%AMRoundRect*
0 Rectangle with rounded corners*
0 $1 Rounding radius*
0 $2 $3 $4 $5 $6 $7 $8 $9 X,Y pos of 4 corners*
0 Add a 4 corners polygon primitive as box body*
4,1,4,$2,$3,$4,$5,$6,$7,$8,$9,$2,$3,0*
0 Add four circle primitives for the rounded corners*
1,1,$1+$1,$2,$3*
1,1,$1+$1,$4,$5*
1,1,$1+$1,$6,$7*
1,1,$1+$1,$8,$9*
0 Add four rect primitives between the rounded corners*
20,1,$1+$1,$2,$3,$4,$5,0*
20,1,$1+$1,$4,$5,$6,$7,0*
20,1,$1+$1,$6,$7,$8,$9,0*
20,1,$1+$1,$8,$9,$2,$3,0*%
%AMOutline5P*
0 Free polygon, 5 corners , with rotation*
0 The origin of the aperture is its center*
0 number of corners: always 5*
0 $1 to $10 corner X, Y*
0 $11 Rotation angle, in degrees counterclockwise*
0 create outline with 5 corners*
4,1,5,$1,$2,$3,$4,$5,$6,$7,$8,$9,$10,$1,$2,$11*%
%AMOutline6P*
0 Free polygon, 6 corners , with rotation*
0 The origin of the aperture is its center*
0 number of corners: always 6*
0 $1 to $12 corner X, Y*
0 $13 Rotation angle, in degrees counterclockwise*
0 create outline with 6 corners*
4,1,6,$1,$2,$3,$4,$5,$6,$7,$8,$9,$10,$11,$12,$1,$2,$13*%
%AMOutline7P*
0 Free polygon, 7 corners , with rotation*
0 The origin of the aperture is its center*
0 number of corners: always 7*
0 $1 to $14 corner X, Y*
0 $15 Rotation angle, in degrees counterclockwise*
0 create outline with 7 corners*
4,1,7,$1,$2,$3,$4,$5,$6,$7,$8,$9,$10,$11,$12,$13,$14,$1,$2,$15*%
%AMOutline8P*
0 Free polygon, 8 corners , with rotation*
0 The origin of the aperture is its center*
0 number of corners: always 8*
0 $1 to $16 corner X, Y*
0 $17 Rotation angle, in degrees counterclockwise*
0 create outline with 8 corners*
4,1,8,$1,$2,$3,$4,$5,$6,$7,$8,$9,$10,$11,$12,$13,$14,$15,$16,$1,$2,$17*%
G04 Aperture macros list end*
%ADD10RoundRect,0.425000X-0.425000X-0.425000X0.425000X-0.425000X0.425000X0.425000X-0.425000X0.425000X0*%
%ADD11O,1.700000X1.700000*%
%ADD12RoundRect,0.425000X-0.425000X0.425000X-0.425000X-0.425000X0.425000X-0.425000X0.425000X0.425000X0*%
%ADD13R,1.700000X1.700000*%
%ADD14RoundRect,0.444500X0.444500X0.444500X-0.444500X0.444500X-0.444500X-0.444500X0.444500X-0.444500X0*%
%ADD15O,1.778000X1.778000*%
%ADD16Outline8P,-0.850000X0.340000X-0.340000X0.850000X0.340000X0.850000X0.850000X0.340000X0.850000X-0.340000X0.340000X-0.850000X-0.340000X-0.850000X-0.850000X-0.340000X180.000000*%
%ADD17C,3.048000*%
%ADD18O,2.032000X1.524000*%
%ADD19C,1.600000*%
%ADD20O,1.600000X1.600000*%
%ADD21C,2.032000*%
%ADD22Outline8P,-1.143000X0.254000X-0.762000X0.635000X0.762000X0.635000X1.143000X0.254000X1.143000X-0.254000X0.762000X-0.635000X-0.762000X-0.635000X-1.143000X-0.254000X270.000000*%
%ADD23O,1.270000X2.286000*%
%ADD24RoundRect,0.317500X-0.317500X0.825500X-0.317500X-0.825500X0.317500X-0.825500X0.317500X0.825500X0*%
%ADD25O,3.302000X2.032000*%
%ADD26O,2.540000X1.270000*%
%ADD27RoundRect,0.317500X0.952500X-0.317500X0.952500X0.317500X-0.952500X0.317500X-0.952500X-0.317500X0*%
G04 APERTURE END LIST*
D10*
%TO.C,BT1*%
X50033000Y-58166000D03*
D11*
X50033000Y-55626000D03*
%TD*%
D12*
%TO.C,J2*%
X110490000Y-71374000D03*
D11*
X107950000Y-71374000D03*
X105410000Y-71374000D03*
X102870000Y-71374000D03*
%TD*%
D12*
%TO.C,J1*%
X110490000Y-73914000D03*
D11*
X107950000Y-73914000D03*
X105410000Y-73914000D03*
X102870000Y-73914000D03*
%TD*%
D13*
%TO.C,J10*%
X90170000Y-52055000D03*
D11*
X90170000Y-49515000D03*
X90170000Y-46975000D03*
%TD*%
D13*
%TO.C,J7*%
X97790000Y-52055000D03*
D11*
X97790000Y-49515000D03*
X97790000Y-46975000D03*
%TD*%
D13*
%TO.C,J13*%
X105410000Y-59944000D03*
D11*
X107950000Y-59944000D03*
X110490000Y-59944000D03*
%TD*%
D13*
%TO.C,J6*%
X62230000Y-52055000D03*
D11*
X62230000Y-49515000D03*
X62230000Y-46975000D03*
%TD*%
D13*
%TO.C,J11*%
X105410000Y-54864000D03*
D11*
X107950000Y-54864000D03*
X110490000Y-54864000D03*
%TD*%
D13*
%TO.C,J5*%
X64770000Y-52055000D03*
D11*
X64770000Y-49515000D03*
X64770000Y-46975000D03*
%TD*%
D13*
%TO.C,J12*%
X105410000Y-57404000D03*
D11*
X107950000Y-57404000D03*
X110490000Y-57404000D03*
%TD*%
D13*
%TO.C,J3*%
X69850000Y-52055000D03*
D11*
X69850000Y-49515000D03*
X69850000Y-46975000D03*
%TD*%
D13*
%TO.C,J4*%
X67310000Y-52055000D03*
D11*
X67310000Y-49515000D03*
X67310000Y-46975000D03*
%TD*%
D13*
%TO.C,J9*%
X92710000Y-52055000D03*
D11*
X92710000Y-49515000D03*
X92710000Y-46975000D03*
%TD*%
D13*
%TO.C,J8*%
X95250000Y-52055000D03*
D11*
X95250000Y-49515000D03*
X95250000Y-46975000D03*
%TD*%
D13*
%TO.C,J14*%
X105410000Y-62484000D03*
D11*
X107950000Y-62484000D03*
X110490000Y-62484000D03*
%TD*%
D14*
%TO.C,D1*%
X60198000Y-78994000D03*
D15*
X50038000Y-78994000D03*
%TD*%
D16*
%TO.C,J43*%
X67818000Y-71120000D03*
%TD*%
%TO.C,J44*%
X65278000Y-71120000D03*
%TD*%
%TO.C,J40*%
X75438000Y-71120000D03*
%TD*%
%TO.C,J49*%
X88138000Y-60960000D03*
%TD*%
%TO.C,J42*%
X70358000Y-71120000D03*
%TD*%
%TO.C,J20*%
X85598000Y-60960000D03*
%TD*%
D17*
%TO.C,LED2*%
X83185000Y-83820000D03*
X83185000Y-101600000D03*
X108585000Y-83820000D03*
X108585000Y-101600000D03*
D18*
X81280000Y-97790000D03*
X110490000Y-97790000D03*
X81280000Y-95250000D03*
X110490000Y-95250000D03*
X81280000Y-92710000D03*
X110490000Y-92710000D03*
X81280000Y-90170000D03*
X110490000Y-90170000D03*
X81280000Y-87630000D03*
X110490000Y-87630000D03*
%TD*%
D17*
%TO.C,LED1*%
X67310000Y-83820000D03*
X67310000Y-101600000D03*
X92710000Y-83820000D03*
X92710000Y-101600000D03*
D18*
X65405000Y-97790000D03*
X94615000Y-97790000D03*
X65405000Y-95250000D03*
X94615000Y-95250000D03*
X65405000Y-92710000D03*
X94615000Y-92710000D03*
X65405000Y-90170000D03*
X94615000Y-90170000D03*
X65405000Y-87630000D03*
X94615000Y-87630000D03*
%TD*%
D16*
%TO.C,J22*%
X80518000Y-60960000D03*
%TD*%
%TO.C,J39*%
X77978000Y-71120000D03*
%TD*%
%TO.C,J37*%
X83058000Y-71120000D03*
%TD*%
%TO.C,J29*%
X62738000Y-60960000D03*
%TD*%
%TO.C,J47*%
X62738000Y-71120000D03*
%TD*%
%TO.C,J23*%
X77978000Y-60960000D03*
%TD*%
%TO.C,J28*%
X65278000Y-60960000D03*
%TD*%
%TO.C,J34*%
X93218000Y-60960000D03*
%TD*%
%TO.C,J33*%
X90678000Y-60960000D03*
%TD*%
%TO.C,J36*%
X85598000Y-71120000D03*
%TD*%
%TO.C,J48*%
X93218000Y-71120000D03*
%TD*%
%TO.C,J26*%
X70358000Y-60960000D03*
%TD*%
%TO.C,J46*%
X88138000Y-71120000D03*
%TD*%
%TO.C,J21*%
X83058000Y-60960000D03*
%TD*%
%TO.C,J41*%
X72898000Y-71120000D03*
%TD*%
D19*
%TO.C,R2*%
X110490000Y-68834000D03*
D20*
X102870000Y-68834000D03*
%TD*%
D16*
%TO.C,J31*%
X60198000Y-71120000D03*
%TD*%
%TO.C,J30*%
X60198000Y-60960000D03*
%TD*%
%TO.C,J24*%
X75438000Y-60960000D03*
%TD*%
%TO.C,J27*%
X67818000Y-60960000D03*
%TD*%
D21*
%TO.C,U1*%
X98298000Y-58420000D03*
X57658000Y-58420000D03*
X98298000Y-73660000D03*
X57658000Y-73660000D03*
D22*
X62738000Y-73660000D03*
X88138000Y-73660000D03*
D23*
X67818000Y-73660000D03*
X70358000Y-73660000D03*
X72898000Y-73660000D03*
X75438000Y-73660000D03*
X77978000Y-73660000D03*
X80518000Y-73660000D03*
X83058000Y-73660000D03*
X85598000Y-73660000D03*
X65278000Y-73660000D03*
X93218000Y-58420000D03*
X95758000Y-58420000D03*
X85598000Y-58420000D03*
X83058000Y-58420000D03*
X80518000Y-58420000D03*
X77978000Y-58420000D03*
X75438000Y-58420000D03*
X72898000Y-58420000D03*
X70358000Y-58420000D03*
X67818000Y-58420000D03*
X65278000Y-58420000D03*
X62738000Y-58420000D03*
X60198000Y-58420000D03*
X60198000Y-73660000D03*
D24*
X88138000Y-58420000D03*
X93218000Y-73660000D03*
D23*
X90678000Y-58420000D03*
X90678000Y-73660000D03*
D22*
X95758000Y-73660000D03*
%TD*%
D17*
%TO.C,LED3*%
X51435000Y-83820000D03*
X51435000Y-101600000D03*
X76835000Y-83820000D03*
X76835000Y-101600000D03*
D18*
X49530000Y-97790000D03*
X78740000Y-97790000D03*
X49530000Y-95250000D03*
X78740000Y-95250000D03*
X49530000Y-92710000D03*
X78740000Y-92710000D03*
X49530000Y-90170000D03*
X78740000Y-90170000D03*
X49530000Y-87630000D03*
X78740000Y-87630000D03*
%TD*%
D25*
%TO.C,SW1*%
X53816000Y-62162000D03*
X53816000Y-70362000D03*
D26*
X53816000Y-68262000D03*
X53816000Y-66262000D03*
D27*
X53816000Y-64262000D03*
%TD*%
D16*
%TO.C,J45*%
X95758000Y-71120000D03*
%TD*%
%TO.C,J38*%
X80518000Y-71120000D03*
%TD*%
%TO.C,J25*%
X72898000Y-60960000D03*
%TD*%
%TO.C,J35*%
X95758000Y-60960000D03*
%TD*%
D19*
%TO.C,R1*%
X110490000Y-76454000D03*
D20*
X102870000Y-76454000D03*
%TD*%
D16*
%TO.C,J32*%
X90678000Y-71120000D03*
%TD*%
M02*
