999
"DXF R12 Output" (www.mydxf.blogspot.com)
 0 
SECTION
 2 
HEADER
 9 
$ACADVER
 1 
AC1009
 9 
$EXTMIN
 10 
 0 
 20 
 0 
 9 
$EXTMAX
 10 
 8.5 
 20 
 11 
 0 
ENDSEC
 0 
SECTION
 2 
ENTITIES
0
LINE
8
Layer 1
10
100.250000
20
68.050000
11
96.250000
21
68.050000
0
LINE
8
Layer 1
10
96.250000
20
68.050000
11
96.250000
21
68.050000
0
LINE
8
Layer 1
10
96.250000
20
68.050000
11
96.250000
21
68.021000
0
LINE
8
Layer 1
10
96.250000
20
68.021000
11
96.250000
21
68.021000
0
LINE
8
Layer 1
10
96.250000
20
68.021000
11
96.391000
21
67.881000
0
LINE
8
Layer 1
10
96.391000
20
67.881000
11
96.409000
21
67.765000
0
LINE
8
Layer 1
10
96.409000
20
67.765000
11
96.239000
21
67.425000
0
LINE
8
Layer 1
10
96.239000
20
67.425000
11
96.250000
21
67.470000
0
LINE
8
Layer 1
10
96.250000
20
67.470000
11
96.221000
21
67.541000
0
LINE
8
Layer 1
10
96.221000
20
67.541000
11
96.391000
21
67.371000
0
LINE
8
Layer 1
10
96.391000
20
67.371000
11
96.409000
21
67.255000
0
LINE
8
Layer 1
10
96.409000
20
67.255000
11
96.239000
21
66.915000
0
LINE
8
Layer 1
10
96.239000
20
66.915000
11
96.250000
21
66.960000
0
LINE
8
Layer 1
10
96.250000
20
66.960000
11
96.221000
21
67.031000
0
LINE
8
Layer 1
10
96.221000
20
67.031000
11
96.391000
21
66.861000
0
LINE
8
Layer 1
10
96.391000
20
66.861000
11
96.409000
21
66.745000
0
LINE
8
Layer 1
10
96.409000
20
66.745000
11
96.239000
21
66.405000
0
LINE
8
Layer 1
10
96.239000
20
66.405000
11
96.250000
21
66.450000
0
LINE
8
Layer 1
10
96.250000
20
66.450000
11
96.150000
21
66.350000
0
LINE
8
Layer 1
10
96.150000
20
66.350000
11
92.750000
21
66.350000
0
LINE
8
Layer 1
10
92.750000
20
66.350000
11
92.650000
21
66.450000
0
LINE
8
Layer 1
10
92.650000
20
66.450000
11
92.661000
21
66.405000
0
LINE
8
Layer 1
10
92.661000
20
66.405000
11
92.491000
21
66.745000
0
LINE
8
Layer 1
10
92.491000
20
66.745000
11
92.509000
21
66.861000
0
LINE
8
Layer 1
10
92.509000
20
66.861000
11
92.679000
21
67.031000
0
LINE
8
Layer 1
10
92.679000
20
67.031000
11
92.650000
21
66.960000
0
LINE
8
Layer 1
10
92.650000
20
66.960000
11
92.661000
21
66.915000
0
LINE
8
Layer 1
10
92.661000
20
66.915000
11
92.491000
21
67.255000
0
LINE
8
Layer 1
10
92.491000
20
67.255000
11
92.509000
21
67.371000
0
LINE
8
Layer 1
10
92.509000
20
67.371000
11
92.679000
21
67.541000
0
LINE
8
Layer 1
10
92.679000
20
67.541000
11
92.650000
21
67.470000
0
LINE
8
Layer 1
10
92.650000
20
67.470000
11
92.661000
21
67.425000
0
LINE
8
Layer 1
10
92.661000
20
67.425000
11
92.491000
21
67.765000
0
LINE
8
Layer 1
10
92.491000
20
67.765000
11
92.509000
21
67.881000
0
LINE
8
Layer 1
10
92.509000
20
67.881000
11
92.650000
21
68.021000
0
LINE
8
Layer 1
10
92.650000
20
68.021000
11
92.650000
21
68.021000
0
LINE
8
Layer 1
10
92.650000
20
68.021000
11
92.650000
21
68.050000
0
LINE
8
Layer 1
10
92.650000
20
68.050000
11
92.650000
21
68.050000
0
LINE
8
Layer 1
10
92.650000
20
68.050000
11
89.450000
21
68.050000
0
LINE
8
Layer 1
10
89.450000
20
68.050000
11
89.450000
21
68.050000
0
LINE
8
Layer 1
10
89.450000
20
68.050000
11
89.450000
21
68.021000
0
LINE
8
Layer 1
10
89.450000
20
68.021000
11
89.450000
21
68.021000
0
LINE
8
Layer 1
10
89.450000
20
68.021000
11
89.591000
21
67.881000
0
LINE
8
Layer 1
10
89.591000
20
67.881000
11
89.609000
21
67.765000
0
LINE
8
Layer 1
10
89.609000
20
67.765000
11
89.439000
21
67.425000
0
LINE
8
Layer 1
10
89.439000
20
67.425000
11
89.450000
21
67.470000
0
LINE
8
Layer 1
10
89.450000
20
67.470000
11
89.421000
21
67.541000
0
LINE
8
Layer 1
10
89.421000
20
67.541000
11
89.591000
21
67.371000
0
LINE
8
Layer 1
10
89.591000
20
67.371000
11
89.609000
21
67.255000
0
LINE
8
Layer 1
10
89.609000
20
67.255000
11
89.439000
21
66.915000
0
LINE
8
Layer 1
10
89.439000
20
66.915000
11
89.450000
21
66.960000
0
LINE
8
Layer 1
10
89.450000
20
66.960000
11
89.421000
21
67.031000
0
LINE
8
Layer 1
10
89.421000
20
67.031000
11
89.591000
21
66.861000
0
LINE
8
Layer 1
10
89.591000
20
66.861000
11
89.609000
21
66.745000
0
LINE
8
Layer 1
10
89.609000
20
66.745000
11
89.439000
21
66.405000
0
LINE
8
Layer 1
10
89.439000
20
66.405000
11
89.450000
21
66.450000
0
LINE
8
Layer 1
10
89.450000
20
66.450000
11
89.350000
21
66.350000
0
LINE
8
Layer 1
10
89.350000
20
66.350000
11
85.950000
21
66.350000
0
LINE
8
Layer 1
10
85.950000
20
66.350000
11
85.850000
21
66.450000
0
LINE
8
Layer 1
10
85.850000
20
66.450000
11
85.861000
21
66.405000
0
LINE
8
Layer 1
10
85.861000
20
66.405000
11
85.691000
21
66.745000
0
LINE
8
Layer 1
10
85.691000
20
66.745000
11
85.709000
21
66.861000
0
LINE
8
Layer 1
10
85.709000
20
66.861000
11
85.879000
21
67.031000
0
LINE
8
Layer 1
10
85.879000
20
67.031000
11
85.850000
21
66.960000
0
LINE
8
Layer 1
10
85.850000
20
66.960000
11
85.861000
21
66.915000
0
LINE
8
Layer 1
10
85.861000
20
66.915000
11
85.691000
21
67.255000
0
LINE
8
Layer 1
10
85.691000
20
67.255000
11
85.709000
21
67.371000
0
LINE
8
Layer 1
10
85.709000
20
67.371000
11
85.879000
21
67.541000
0
LINE
8
Layer 1
10
85.879000
20
67.541000
11
85.850000
21
67.470000
0
LINE
8
Layer 1
10
85.850000
20
67.470000
11
85.861000
21
67.425000
0
LINE
8
Layer 1
10
85.861000
20
67.425000
11
85.691000
21
67.765000
0
LINE
8
Layer 1
10
85.691000
20
67.765000
11
85.709000
21
67.881000
0
LINE
8
Layer 1
10
85.709000
20
67.881000
11
85.850000
21
68.021000
0
LINE
8
Layer 1
10
85.850000
20
68.021000
11
85.850000
21
68.021000
0
LINE
8
Layer 1
10
85.850000
20
68.021000
11
85.850000
21
68.050000
0
LINE
8
Layer 1
10
85.850000
20
68.050000
11
85.850000
21
68.050000
0
LINE
8
Layer 1
10
85.850000
20
68.050000
11
82.650000
21
68.050000
0
LINE
8
Layer 1
10
82.650000
20
68.050000
11
82.650000
21
68.050000
0
LINE
8
Layer 1
10
82.650000
20
68.050000
11
82.650000
21
68.021000
0
LINE
8
Layer 1
10
82.650000
20
68.021000
11
82.650000
21
68.021000
0
LINE
8
Layer 1
10
82.650000
20
68.021000
11
82.791000
21
67.881000
0
LINE
8
Layer 1
10
82.791000
20
67.881000
11
82.809000
21
67.765000
0
LINE
8
Layer 1
10
82.809000
20
67.765000
11
82.639000
21
67.425000
0
LINE
8
Layer 1
10
82.639000
20
67.425000
11
82.650000
21
67.470000
0
LINE
8
Layer 1
10
82.650000
20
67.470000
11
82.621000
21
67.541000
0
LINE
8
Layer 1
10
82.621000
20
67.541000
11
82.791000
21
67.371000
0
LINE
8
Layer 1
10
82.791000
20
67.371000
11
82.809000
21
67.255000
0
LINE
8
Layer 1
10
82.809000
20
67.255000
11
82.639000
21
66.915000
0
LINE
8
Layer 1
10
82.639000
20
66.915000
11
82.650000
21
66.960000
0
LINE
8
Layer 1
10
82.650000
20
66.960000
11
82.621000
21
67.031000
0
LINE
8
Layer 1
10
82.621000
20
67.031000
11
82.791000
21
66.861000
0
LINE
8
Layer 1
10
82.791000
20
66.861000
11
82.809000
21
66.745000
0
LINE
8
Layer 1
10
82.809000
20
66.745000
11
82.639000
21
66.405000
0
LINE
8
Layer 1
10
82.639000
20
66.405000
11
82.650000
21
66.450000
0
LINE
8
Layer 1
10
82.650000
20
66.450000
11
82.550000
21
66.350000
0
LINE
8
Layer 1
10
82.550000
20
66.350000
11
79.150000
21
66.350000
0
LINE
8
Layer 1
10
79.150000
20
66.350000
11
79.050000
21
66.450000
0
LINE
8
Layer 1
10
79.050000
20
66.450000
11
79.061000
21
66.405000
0
LINE
8
Layer 1
10
79.061000
20
66.405000
11
78.891000
21
66.745000
0
LINE
8
Layer 1
10
78.891000
20
66.745000
11
78.909000
21
66.861000
0
LINE
8
Layer 1
10
78.909000
20
66.861000
11
79.079000
21
67.031000
0
LINE
8
Layer 1
10
79.079000
20
67.031000
11
79.050000
21
66.960000
0
LINE
8
Layer 1
10
79.050000
20
66.960000
11
79.061000
21
66.915000
0
LINE
8
Layer 1
10
79.061000
20
66.915000
11
78.891000
21
67.255000
0
LINE
8
Layer 1
10
78.891000
20
67.255000
11
78.909000
21
67.371000
0
LINE
8
Layer 1
10
78.909000
20
67.371000
11
79.079000
21
67.541000
0
LINE
8
Layer 1
10
79.079000
20
67.541000
11
79.050000
21
67.470000
0
LINE
8
Layer 1
10
79.050000
20
67.470000
11
79.061000
21
67.425000
0
LINE
8
Layer 1
10
79.061000
20
67.425000
11
78.891000
21
67.765000
0
LINE
8
Layer 1
10
78.891000
20
67.765000
11
78.909000
21
67.881000
0
LINE
8
Layer 1
10
78.909000
20
67.881000
11
79.050000
21
68.021000
0
LINE
8
Layer 1
10
79.050000
20
68.021000
11
79.050000
21
68.021000
0
LINE
8
Layer 1
10
79.050000
20
68.021000
11
79.050000
21
68.050000
0
LINE
8
Layer 1
10
79.050000
20
68.050000
11
79.050000
21
68.050000
0
LINE
8
Layer 1
10
79.050000
20
68.050000
11
75.850000
21
68.050000
0
LINE
8
Layer 1
10
75.850000
20
68.050000
11
75.850000
21
68.050000
0
LINE
8
Layer 1
10
75.850000
20
68.050000
11
75.850000
21
68.021000
0
LINE
8
Layer 1
10
75.850000
20
68.021000
11
75.850000
21
68.021000
0
LINE
8
Layer 1
10
75.850000
20
68.021000
11
75.991000
21
67.881000
0
LINE
8
Layer 1
10
75.991000
20
67.881000
11
76.009000
21
67.765000
0
LINE
8
Layer 1
10
76.009000
20
67.765000
11
75.839000
21
67.425000
0
LINE
8
Layer 1
10
75.839000
20
67.425000
11
75.850000
21
67.470000
0
LINE
8
Layer 1
10
75.850000
20
67.470000
11
75.821000
21
67.541000
0
LINE
8
Layer 1
10
75.821000
20
67.541000
11
75.991000
21
67.371000
0
LINE
8
Layer 1
10
75.991000
20
67.371000
11
76.009000
21
67.255000
0
LINE
8
Layer 1
10
76.009000
20
67.255000
11
75.839000
21
66.915000
0
LINE
8
Layer 1
10
75.839000
20
66.915000
11
75.850000
21
66.960000
0
LINE
8
Layer 1
10
75.850000
20
66.960000
11
75.821000
21
67.031000
0
LINE
8
Layer 1
10
75.821000
20
67.031000
11
75.991000
21
66.861000
0
LINE
8
Layer 1
10
75.991000
20
66.861000
11
76.009000
21
66.745000
0
LINE
8
Layer 1
10
76.009000
20
66.745000
11
75.839000
21
66.405000
0
LINE
8
Layer 1
10
75.839000
20
66.405000
11
75.850000
21
66.450000
0
LINE
8
Layer 1
10
75.850000
20
66.450000
11
75.750000
21
66.350000
0
LINE
8
Layer 1
10
75.750000
20
66.350000
11
72.350000
21
66.350000
0
LINE
8
Layer 1
10
72.350000
20
66.350000
11
72.250000
21
66.450000
0
LINE
8
Layer 1
10
72.250000
20
66.450000
11
72.261000
21
66.405000
0
LINE
8
Layer 1
10
72.261000
20
66.405000
11
72.091000
21
66.745000
0
LINE
8
Layer 1
10
72.091000
20
66.745000
11
72.109000
21
66.861000
0
LINE
8
Layer 1
10
72.109000
20
66.861000
11
72.279000
21
67.031000
0
LINE
8
Layer 1
10
72.279000
20
67.031000
11
72.250000
21
66.960000
0
LINE
8
Layer 1
10
72.250000
20
66.960000
11
72.261000
21
66.915000
0
LINE
8
Layer 1
10
72.261000
20
66.915000
11
72.091000
21
67.255000
0
LINE
8
Layer 1
10
72.091000
20
67.255000
11
72.109000
21
67.371000
0
LINE
8
Layer 1
10
72.109000
20
67.371000
11
72.279000
21
67.541000
0
LINE
8
Layer 1
10
72.279000
20
67.541000
11
72.250000
21
67.470000
0
LINE
8
Layer 1
10
72.250000
20
67.470000
11
72.261000
21
67.425000
0
LINE
8
Layer 1
10
72.261000
20
67.425000
11
72.091000
21
67.765000
0
LINE
8
Layer 1
10
72.091000
20
67.765000
11
72.109000
21
67.881000
0
LINE
8
Layer 1
10
72.109000
20
67.881000
11
72.250000
21
68.021000
0
LINE
8
Layer 1
10
72.250000
20
68.021000
11
72.250000
21
68.021000
0
LINE
8
Layer 1
10
72.250000
20
68.021000
11
72.250000
21
68.050000
0
LINE
8
Layer 1
10
72.250000
20
68.050000
11
72.250000
21
68.050000
0
LINE
8
Layer 1
10
72.250000
20
68.050000
11
68.250000
21
68.050000
0
LINE
8
Layer 1
10
68.250000
20
68.050000
11
66.928812
21
68.136812
0
LINE
8
Layer 1
10
66.928812
20
68.136812
11
65.635750
21
68.394250
0
LINE
8
Layer 1
10
65.635750
20
68.394250
11
64.387313
21
68.817813
0
LINE
8
Layer 1
10
64.387313
20
68.817813
11
63.200000
21
69.403000
0
LINE
8
Layer 1
10
63.200000
20
69.403000
11
62.099500
21
70.139000
0
LINE
8
Layer 1
10
62.099500
20
70.139000
11
61.108500
21
71.008500
0
LINE
8
Layer 1
10
61.108500
20
71.008500
11
60.239000
21
71.999500
0
LINE
8
Layer 1
10
60.239000
20
71.999500
11
59.503000
21
73.100000
0
LINE
8
Layer 1
10
59.503000
20
73.100000
11
58.917812
21
74.287313
0
LINE
8
Layer 1
10
58.917812
20
74.287313
11
58.494250
21
75.535750
0
LINE
8
Layer 1
10
58.494250
20
75.535750
11
58.236812
21
76.828812
0
LINE
8
Layer 1
10
58.236812
20
76.828812
11
58.150000
21
78.150000
0
LINE
8
Layer 1
10
58.150000
20
78.150000
11
58.150000
21
82.150000
0
LINE
8
Layer 1
10
58.150000
20
82.150000
11
58.187500
21
82.187500
0
LINE
8
Layer 1
10
58.187500
20
82.187500
11
58.150000
21
82.150000
0
LINE
8
Layer 1
10
58.150000
20
82.150000
11
58.121000
21
82.150000
0
LINE
8
Layer 1
10
58.121000
20
82.150000
11
58.121000
21
82.150000
0
LINE
8
Layer 1
10
58.121000
20
82.150000
11
57.981000
21
82.009000
0
LINE
8
Layer 1
10
57.981000
20
82.009000
11
57.865000
21
81.991000
0
LINE
8
Layer 1
10
57.865000
20
81.991000
11
57.525000
21
82.161000
0
LINE
8
Layer 1
10
57.525000
20
82.161000
11
57.570000
21
82.150000
0
LINE
8
Layer 1
10
57.570000
20
82.150000
11
57.641000
21
82.179000
0
LINE
8
Layer 1
10
57.641000
20
82.179000
11
57.471000
21
82.009000
0
LINE
8
Layer 1
10
57.471000
20
82.009000
11
57.355000
21
81.991000
0
LINE
8
Layer 1
10
57.355000
20
81.991000
11
57.015000
21
82.161000
0
LINE
8
Layer 1
10
57.015000
20
82.161000
11
57.060000
21
82.150000
0
LINE
8
Layer 1
10
57.060000
20
82.150000
11
57.131000
21
82.179000
0
LINE
8
Layer 1
10
57.131000
20
82.179000
11
56.961000
21
82.009000
0
LINE
8
Layer 1
10
56.961000
20
82.009000
11
56.845000
21
81.991000
0
LINE
8
Layer 1
10
56.845000
20
81.991000
11
56.505000
21
82.161000
0
LINE
8
Layer 1
10
56.505000
20
82.161000
11
56.550000
21
82.150000
0
LINE
8
Layer 1
10
56.550000
20
82.150000
11
56.450000
21
82.250000
0
LINE
8
Layer 1
10
56.450000
20
82.250000
11
56.450000
21
85.650000
0
LINE
8
Layer 1
10
56.450000
20
85.650000
11
56.550000
21
85.750000
0
LINE
8
Layer 1
10
56.550000
20
85.750000
11
56.505000
21
85.739000
0
LINE
8
Layer 1
10
56.505000
20
85.739000
11
56.845000
21
85.909000
0
LINE
8
Layer 1
10
56.845000
20
85.909000
11
56.961000
21
85.891000
0
LINE
8
Layer 1
10
56.961000
20
85.891000
11
57.131000
21
85.721000
0
LINE
8
Layer 1
10
57.131000
20
85.721000
11
57.060000
21
85.750000
0
LINE
8
Layer 1
10
57.060000
20
85.750000
11
57.015000
21
85.739000
0
LINE
8
Layer 1
10
57.015000
20
85.739000
11
57.355000
21
85.909000
0
LINE
8
Layer 1
10
57.355000
20
85.909000
11
57.471000
21
85.891000
0
LINE
8
Layer 1
10
57.471000
20
85.891000
11
57.641000
21
85.721000
0
LINE
8
Layer 1
10
57.641000
20
85.721000
11
57.570000
21
85.750000
0
LINE
8
Layer 1
10
57.570000
20
85.750000
11
57.525000
21
85.739000
0
LINE
8
Layer 1
10
57.525000
20
85.739000
11
57.865000
21
85.909000
0
LINE
8
Layer 1
10
57.865000
20
85.909000
11
57.981000
21
85.891000
0
LINE
8
Layer 1
10
57.981000
20
85.891000
11
58.121000
21
85.750000
0
LINE
8
Layer 1
10
58.121000
20
85.750000
11
58.121000
21
85.750000
0
LINE
8
Layer 1
10
58.121000
20
85.750000
11
58.150000
21
85.750000
0
LINE
8
Layer 1
10
58.150000
20
85.750000
11
58.187500
21
85.712500
0
LINE
8
Layer 1
10
58.187500
20
85.712500
11
58.150000
21
85.750000
0
LINE
8
Layer 1
10
58.150000
20
85.750000
11
58.150000
21
88.950000
0
LINE
8
Layer 1
10
58.150000
20
88.950000
11
58.187500
21
88.987500
0
LINE
8
Layer 1
10
58.187500
20
88.987500
11
58.150000
21
88.950000
0
LINE
8
Layer 1
10
58.150000
20
88.950000
11
58.121000
21
88.950000
0
LINE
8
Layer 1
10
58.121000
20
88.950000
11
58.121000
21
88.950000
0
LINE
8
Layer 1
10
58.121000
20
88.950000
11
57.981000
21
88.809000
0
LINE
8
Layer 1
10
57.981000
20
88.809000
11
57.865000
21
88.791000
0
LINE
8
Layer 1
10
57.865000
20
88.791000
11
57.525000
21
88.961000
0
LINE
8
Layer 1
10
57.525000
20
88.961000
11
57.570000
21
88.950000
0
LINE
8
Layer 1
10
57.570000
20
88.950000
11
57.641000
21
88.979000
0
LINE
8
Layer 1
10
57.641000
20
88.979000
11
57.471000
21
88.809000
0
LINE
8
Layer 1
10
57.471000
20
88.809000
11
57.355000
21
88.791000
0
LINE
8
Layer 1
10
57.355000
20
88.791000
11
57.015000
21
88.961000
0
LINE
8
Layer 1
10
57.015000
20
88.961000
11
57.060000
21
88.950000
0
LINE
8
Layer 1
10
57.060000
20
88.950000
11
57.131000
21
88.979000
0
LINE
8
Layer 1
10
57.131000
20
88.979000
11
56.961000
21
88.809000
0
LINE
8
Layer 1
10
56.961000
20
88.809000
11
56.845000
21
88.791000
0
LINE
8
Layer 1
10
56.845000
20
88.791000
11
56.505000
21
88.961000
0
LINE
8
Layer 1
10
56.505000
20
88.961000
11
56.550000
21
88.950000
0
LINE
8
Layer 1
10
56.550000
20
88.950000
11
56.450000
21
89.050000
0
LINE
8
Layer 1
10
56.450000
20
89.050000
11
56.450000
21
92.450000
0
LINE
8
Layer 1
10
56.450000
20
92.450000
11
56.550000
21
92.550000
0
LINE
8
Layer 1
10
56.550000
20
92.550000
11
56.505000
21
92.539000
0
LINE
8
Layer 1
10
56.505000
20
92.539000
11
56.845000
21
92.709000
0
LINE
8
Layer 1
10
56.845000
20
92.709000
11
56.961000
21
92.691000
0
LINE
8
Layer 1
10
56.961000
20
92.691000
11
57.131000
21
92.521000
0
LINE
8
Layer 1
10
57.131000
20
92.521000
11
57.060000
21
92.550000
0
LINE
8
Layer 1
10
57.060000
20
92.550000
11
57.015000
21
92.539000
0
LINE
8
Layer 1
10
57.015000
20
92.539000
11
57.355000
21
92.709000
0
LINE
8
Layer 1
10
57.355000
20
92.709000
11
57.471000
21
92.691000
0
LINE
8
Layer 1
10
57.471000
20
92.691000
11
57.641000
21
92.521000
0
LINE
8
Layer 1
10
57.641000
20
92.521000
11
57.570000
21
92.550000
0
LINE
8
Layer 1
10
57.570000
20
92.550000
11
57.525000
21
92.539000
0
LINE
8
Layer 1
10
57.525000
20
92.539000
11
57.865000
21
92.709000
0
LINE
8
Layer 1
10
57.865000
20
92.709000
11
57.981000
21
92.691000
0
LINE
8
Layer 1
10
57.981000
20
92.691000
11
58.121000
21
92.550000
0
LINE
8
Layer 1
10
58.121000
20
92.550000
11
58.121000
21
92.550000
0
LINE
8
Layer 1
10
58.121000
20
92.550000
11
58.150000
21
92.550000
0
LINE
8
Layer 1
10
58.150000
20
92.550000
11
58.187500
21
92.512500
0
LINE
8
Layer 1
10
58.187500
20
92.512500
11
58.150000
21
92.550000
0
LINE
8
Layer 1
10
58.150000
20
92.550000
11
58.150000
21
95.750000
0
LINE
8
Layer 1
10
58.150000
20
95.750000
11
58.187500
21
95.787500
0
LINE
8
Layer 1
10
58.187500
20
95.787500
11
58.150000
21
95.750000
0
LINE
8
Layer 1
10
58.150000
20
95.750000
11
58.121000
21
95.750000
0
LINE
8
Layer 1
10
58.121000
20
95.750000
11
58.121000
21
95.750000
0
LINE
8
Layer 1
10
58.121000
20
95.750000
11
57.981000
21
95.609000
0
LINE
8
Layer 1
10
57.981000
20
95.609000
11
57.865000
21
95.591000
0
LINE
8
Layer 1
10
57.865000
20
95.591000
11
57.525000
21
95.761000
0
LINE
8
Layer 1
10
57.525000
20
95.761000
11
57.570000
21
95.750000
0
LINE
8
Layer 1
10
57.570000
20
95.750000
11
57.641000
21
95.779000
0
LINE
8
Layer 1
10
57.641000
20
95.779000
11
57.471000
21
95.609000
0
LINE
8
Layer 1
10
57.471000
20
95.609000
11
57.355000
21
95.591000
0
LINE
8
Layer 1
10
57.355000
20
95.591000
11
57.015000
21
95.761000
0
LINE
8
Layer 1
10
57.015000
20
95.761000
11
57.060000
21
95.750000
0
LINE
8
Layer 1
10
57.060000
20
95.750000
11
57.131000
21
95.779000
0
LINE
8
Layer 1
10
57.131000
20
95.779000
11
56.961000
21
95.609000
0
LINE
8
Layer 1
10
56.961000
20
95.609000
11
56.845000
21
95.591000
0
LINE
8
Layer 1
10
56.845000
20
95.591000
11
56.505000
21
95.761000
0
LINE
8
Layer 1
10
56.505000
20
95.761000
11
56.550000
21
95.750000
0
LINE
8
Layer 1
10
56.550000
20
95.750000
11
56.450000
21
95.850000
0
LINE
8
Layer 1
10
56.450000
20
95.850000
11
56.450000
21
99.250000
0
LINE
8
Layer 1
10
56.450000
20
99.250000
11
56.550000
21
99.350000
0
LINE
8
Layer 1
10
56.550000
20
99.350000
11
56.505000
21
99.339000
0
LINE
8
Layer 1
10
56.505000
20
99.339000
11
56.845000
21
99.509000
0
LINE
8
Layer 1
10
56.845000
20
99.509000
11
56.961000
21
99.491000
0
LINE
8
Layer 1
10
56.961000
20
99.491000
11
57.131000
21
99.321000
0
LINE
8
Layer 1
10
57.131000
20
99.321000
11
57.060000
21
99.350000
0
LINE
8
Layer 1
10
57.060000
20
99.350000
11
57.015000
21
99.339000
0
LINE
8
Layer 1
10
57.015000
20
99.339000
11
57.355000
21
99.509000
0
LINE
8
Layer 1
10
57.355000
20
99.509000
11
57.471000
21
99.491000
0
LINE
8
Layer 1
10
57.471000
20
99.491000
11
57.641000
21
99.321000
0
LINE
8
Layer 1
10
57.641000
20
99.321000
11
57.570000
21
99.350000
0
LINE
8
Layer 1
10
57.570000
20
99.350000
11
57.525000
21
99.339000
0
LINE
8
Layer 1
10
57.525000
20
99.339000
11
57.865000
21
99.509000
0
LINE
8
Layer 1
10
57.865000
20
99.509000
11
57.981000
21
99.491000
0
LINE
8
Layer 1
10
57.981000
20
99.491000
11
58.121000
21
99.350000
0
LINE
8
Layer 1
10
58.121000
20
99.350000
11
58.121000
21
99.350000
0
LINE
8
Layer 1
10
58.121000
20
99.350000
11
58.150000
21
99.350000
0
LINE
8
Layer 1
10
58.150000
20
99.350000
11
58.187500
21
99.312500
0
LINE
8
Layer 1
10
58.187500
20
99.312500
11
58.150000
21
99.350000
0
LINE
8
Layer 1
10
58.150000
20
99.350000
11
58.150000
21
102.550000
0
LINE
8
Layer 1
10
58.150000
20
102.550000
11
58.187500
21
102.587500
0
LINE
8
Layer 1
10
58.187500
20
102.587500
11
58.150000
21
102.550000
0
LINE
8
Layer 1
10
58.150000
20
102.550000
11
58.121000
21
102.550000
0
LINE
8
Layer 1
10
58.121000
20
102.550000
11
58.121000
21
102.550000
0
LINE
8
Layer 1
10
58.121000
20
102.550000
11
57.981000
21
102.409000
0
LINE
8
Layer 1
10
57.981000
20
102.409000
11
57.865000
21
102.391000
0
LINE
8
Layer 1
10
57.865000
20
102.391000
11
57.525000
21
102.561000
0
LINE
8
Layer 1
10
57.525000
20
102.561000
11
57.570000
21
102.550000
0
LINE
8
Layer 1
10
57.570000
20
102.550000
11
57.641000
21
102.579000
0
LINE
8
Layer 1
10
57.641000
20
102.579000
11
57.471000
21
102.409000
0
LINE
8
Layer 1
10
57.471000
20
102.409000
11
57.355000
21
102.391000
0
LINE
8
Layer 1
10
57.355000
20
102.391000
11
57.015000
21
102.561000
0
LINE
8
Layer 1
10
57.015000
20
102.561000
11
57.060000
21
102.550000
0
LINE
8
Layer 1
10
57.060000
20
102.550000
11
57.131000
21
102.579000
0
LINE
8
Layer 1
10
57.131000
20
102.579000
11
56.961000
21
102.409000
0
LINE
8
Layer 1
10
56.961000
20
102.409000
11
56.845000
21
102.391000
0
LINE
8
Layer 1
10
56.845000
20
102.391000
11
56.505000
21
102.561000
0
LINE
8
Layer 1
10
56.505000
20
102.561000
11
56.550000
21
102.550000
0
LINE
8
Layer 1
10
56.550000
20
102.550000
11
56.450000
21
102.650000
0
LINE
8
Layer 1
10
56.450000
20
102.650000
11
56.450000
21
106.050000
0
LINE
8
Layer 1
10
56.450000
20
106.050000
11
56.550000
21
106.150000
0
LINE
8
Layer 1
10
56.550000
20
106.150000
11
56.505000
21
106.139000
0
LINE
8
Layer 1
10
56.505000
20
106.139000
11
56.845000
21
106.309000
0
LINE
8
Layer 1
10
56.845000
20
106.309000
11
56.961000
21
106.291000
0
LINE
8
Layer 1
10
56.961000
20
106.291000
11
57.131000
21
106.121000
0
LINE
8
Layer 1
10
57.131000
20
106.121000
11
57.060000
21
106.150000
0
LINE
8
Layer 1
10
57.060000
20
106.150000
11
57.015000
21
106.139000
0
LINE
8
Layer 1
10
57.015000
20
106.139000
11
57.355000
21
106.309000
0
LINE
8
Layer 1
10
57.355000
20
106.309000
11
57.471000
21
106.291000
0
LINE
8
Layer 1
10
57.471000
20
106.291000
11
57.641000
21
106.121000
0
LINE
8
Layer 1
10
57.641000
20
106.121000
11
57.570000
21
106.150000
0
LINE
8
Layer 1
10
57.570000
20
106.150000
11
57.525000
21
106.139000
0
LINE
8
Layer 1
10
57.525000
20
106.139000
11
57.865000
21
106.309000
0
LINE
8
Layer 1
10
57.865000
20
106.309000
11
57.981000
21
106.291000
0
LINE
8
Layer 1
10
57.981000
20
106.291000
11
58.121000
21
106.150000
0
LINE
8
Layer 1
10
58.121000
20
106.150000
11
58.121000
21
106.150000
0
LINE
8
Layer 1
10
58.121000
20
106.150000
11
58.150000
21
106.150000
0
LINE
8
Layer 1
10
58.150000
20
106.150000
11
58.187500
21
106.112500
0
LINE
8
Layer 1
10
58.187500
20
106.112500
11
58.150000
21
106.150000
0
LINE
8
Layer 1
10
58.150000
20
106.150000
11
58.150000
21
110.150000
0
LINE
8
Layer 1
10
58.150000
20
110.150000
11
58.236812
21
111.471188
0
LINE
8
Layer 1
10
58.236812
20
111.471188
11
58.494250
21
112.764250
0
LINE
8
Layer 1
10
58.494250
20
112.764250
11
58.917812
21
114.012687
0
LINE
8
Layer 1
10
58.917812
20
114.012687
11
59.503000
21
115.200000
0
LINE
8
Layer 1
10
59.503000
20
115.200000
11
60.239000
21
116.300500
0
LINE
8
Layer 1
10
60.239000
20
116.300500
11
61.108500
21
117.291500
0
LINE
8
Layer 1
10
61.108500
20
117.291500
11
62.099500
21
118.161000
0
LINE
8
Layer 1
10
62.099500
20
118.161000
11
63.200000
21
118.897000
0
LINE
8
Layer 1
10
63.200000
20
118.897000
11
64.387313
21
119.482188
0
LINE
8
Layer 1
10
64.387313
20
119.482188
11
65.635750
21
119.905750
0
LINE
8
Layer 1
10
65.635750
20
119.905750
11
66.928812
21
120.163187
0
LINE
8
Layer 1
10
66.928812
20
120.163187
11
68.250000
21
120.250000
0
LINE
8
Layer 1
10
68.250000
20
120.250000
11
100.250000
21
120.250000
0
LINE
8
Layer 1
10
100.250000
20
120.250000
11
101.571188
21
120.163187
0
LINE
8
Layer 1
10
101.571188
20
120.163187
11
102.864250
21
119.905750
0
LINE
8
Layer 1
10
102.864250
20
119.905750
11
104.112687
21
119.482188
0
LINE
8
Layer 1
10
104.112687
20
119.482188
11
105.300000
21
118.897000
0
LINE
8
Layer 1
10
105.300000
20
118.897000
11
106.400500
21
118.161000
0
LINE
8
Layer 1
10
106.400500
20
118.161000
11
107.391500
21
117.291500
0
LINE
8
Layer 1
10
107.391500
20
117.291500
11
108.261000
21
116.300500
0
LINE
8
Layer 1
10
108.261000
20
116.300500
11
108.997000
21
115.200000
0
LINE
8
Layer 1
10
108.997000
20
115.200000
11
109.582188
21
114.012687
0
LINE
8
Layer 1
10
109.582188
20
114.012687
11
110.005750
21
112.764250
0
LINE
8
Layer 1
10
110.005750
20
112.764250
11
110.263187
21
111.471188
0
LINE
8
Layer 1
10
110.263187
20
111.471188
11
110.350000
21
110.150000
0
LINE
8
Layer 1
10
110.350000
20
110.150000
11
110.250000
21
110.250000
0
LINE
8
Layer 1
10
110.250000
20
110.250000
11
111.950000
21
110.250000
0
LINE
8
Layer 1
10
111.950000
20
110.250000
11
112.050000
21
110.150000
0
LINE
8
Layer 1
10
112.050000
20
110.150000
11
112.050000
21
103.350000
0
LINE
8
Layer 1
10
112.050000
20
103.350000
11
111.950000
21
103.250000
0
LINE
8
Layer 1
10
111.950000
20
103.250000
11
110.350000
21
103.250000
0
LINE
8
Layer 1
10
110.350000
20
103.250000
11
110.350000
21
103.250000
0
LINE
8
Layer 1
10
110.350000
20
103.250000
11
110.350000
21
96.550000
0
LINE
8
Layer 1
10
110.350000
20
96.550000
11
110.350000
21
92.550000
0
LINE
8
Layer 1
10
110.350000
20
92.550000
11
110.350000
21
92.550000
0
LINE
8
Layer 1
10
110.350000
20
92.550000
11
110.379000
21
92.550000
0
LINE
8
Layer 1
10
110.379000
20
92.550000
11
110.379000
21
92.550000
0
LINE
8
Layer 1
10
110.379000
20
92.550000
11
110.519000
21
92.691000
0
LINE
8
Layer 1
10
110.519000
20
92.691000
11
110.635000
21
92.709000
0
LINE
8
Layer 1
10
110.635000
20
92.709000
11
110.975000
21
92.539000
0
LINE
8
Layer 1
10
110.975000
20
92.539000
11
110.930000
21
92.550000
0
LINE
8
Layer 1
10
110.930000
20
92.550000
11
110.859000
21
92.521000
0
LINE
8
Layer 1
10
110.859000
20
92.521000
11
111.029000
21
92.691000
0
LINE
8
Layer 1
10
111.029000
20
92.691000
11
111.145000
21
92.709000
0
LINE
8
Layer 1
10
111.145000
20
92.709000
11
111.485000
21
92.539000
0
LINE
8
Layer 1
10
111.485000
20
92.539000
11
111.440000
21
92.550000
0
LINE
8
Layer 1
10
111.440000
20
92.550000
11
111.369000
21
92.521000
0
LINE
8
Layer 1
10
111.369000
20
92.521000
11
111.539000
21
92.691000
0
LINE
8
Layer 1
10
111.539000
20
92.691000
11
111.655000
21
92.709000
0
LINE
8
Layer 1
10
111.655000
20
92.709000
11
111.995000
21
92.539000
0
LINE
8
Layer 1
10
111.995000
20
92.539000
11
111.950000
21
92.550000
0
LINE
8
Layer 1
10
111.950000
20
92.550000
11
112.050000
21
92.450000
0
LINE
8
Layer 1
10
112.050000
20
92.450000
11
112.050000
21
89.050000
0
LINE
8
Layer 1
10
112.050000
20
89.050000
11
111.950000
21
88.950000
0
LINE
8
Layer 1
10
111.950000
20
88.950000
11
111.995000
21
88.961000
0
LINE
8
Layer 1
10
111.995000
20
88.961000
11
111.655000
21
88.791000
0
LINE
8
Layer 1
10
111.655000
20
88.791000
11
111.539000
21
88.809000
0
LINE
8
Layer 1
10
111.539000
20
88.809000
11
111.369000
21
88.979000
0
LINE
8
Layer 1
10
111.369000
20
88.979000
11
111.440000
21
88.950000
0
LINE
8
Layer 1
10
111.440000
20
88.950000
11
111.485000
21
88.961000
0
LINE
8
Layer 1
10
111.485000
20
88.961000
11
111.145000
21
88.791000
0
LINE
8
Layer 1
10
111.145000
20
88.791000
11
111.029000
21
88.809000
0
LINE
8
Layer 1
10
111.029000
20
88.809000
11
110.859000
21
88.979000
0
LINE
8
Layer 1
10
110.859000
20
88.979000
11
110.930000
21
88.950000
0
LINE
8
Layer 1
10
110.930000
20
88.950000
11
110.975000
21
88.961000
0
LINE
8
Layer 1
10
110.975000
20
88.961000
11
110.635000
21
88.791000
0
LINE
8
Layer 1
10
110.635000
20
88.791000
11
110.519000
21
88.809000
0
LINE
8
Layer 1
10
110.519000
20
88.809000
11
110.379000
21
88.950000
0
LINE
8
Layer 1
10
110.379000
20
88.950000
11
110.379000
21
88.950000
0
LINE
8
Layer 1
10
110.379000
20
88.950000
11
110.350000
21
88.950000
0
LINE
8
Layer 1
10
110.350000
20
88.950000
11
110.350000
21
88.950000
0
LINE
8
Layer 1
10
110.350000
20
88.950000
11
110.350000
21
85.750000
0
LINE
8
Layer 1
10
110.350000
20
85.750000
11
110.350000
21
85.750000
0
LINE
8
Layer 1
10
110.350000
20
85.750000
11
110.379000
21
85.750000
0
LINE
8
Layer 1
10
110.379000
20
85.750000
11
110.379000
21
85.750000
0
LINE
8
Layer 1
10
110.379000
20
85.750000
11
110.519000
21
85.891000
0
LINE
8
Layer 1
10
110.519000
20
85.891000
11
110.635000
21
85.909000
0
LINE
8
Layer 1
10
110.635000
20
85.909000
11
110.975000
21
85.739000
0
LINE
8
Layer 1
10
110.975000
20
85.739000
11
110.930000
21
85.750000
0
LINE
8
Layer 1
10
110.930000
20
85.750000
11
110.859000
21
85.721000
0
LINE
8
Layer 1
10
110.859000
20
85.721000
11
111.029000
21
85.891000
0
LINE
8
Layer 1
10
111.029000
20
85.891000
11
111.145000
21
85.909000
0
LINE
8
Layer 1
10
111.145000
20
85.909000
11
111.485000
21
85.739000
0
LINE
8
Layer 1
10
111.485000
20
85.739000
11
111.440000
21
85.750000
0
LINE
8
Layer 1
10
111.440000
20
85.750000
11
111.369000
21
85.721000
0
LINE
8
Layer 1
10
111.369000
20
85.721000
11
111.539000
21
85.891000
0
LINE
8
Layer 1
10
111.539000
20
85.891000
11
111.655000
21
85.909000
0
LINE
8
Layer 1
10
111.655000
20
85.909000
11
111.995000
21
85.739000
0
LINE
8
Layer 1
10
111.995000
20
85.739000
11
111.950000
21
85.750000
0
LINE
8
Layer 1
10
111.950000
20
85.750000
11
112.050000
21
85.650000
0
LINE
8
Layer 1
10
112.050000
20
85.650000
11
112.050000
21
82.250000
0
LINE
8
Layer 1
10
112.050000
20
82.250000
11
111.950000
21
82.150000
0
LINE
8
Layer 1
10
111.950000
20
82.150000
11
111.995000
21
82.161000
0
LINE
8
Layer 1
10
111.995000
20
82.161000
11
111.655000
21
81.991000
0
LINE
8
Layer 1
10
111.655000
20
81.991000
11
111.539000
21
82.009000
0
LINE
8
Layer 1
10
111.539000
20
82.009000
11
111.369000
21
82.179000
0
LINE
8
Layer 1
10
111.369000
20
82.179000
11
111.440000
21
82.150000
0
LINE
8
Layer 1
10
111.440000
20
82.150000
11
111.485000
21
82.161000
0
LINE
8
Layer 1
10
111.485000
20
82.161000
11
111.145000
21
81.991000
0
LINE
8
Layer 1
10
111.145000
20
81.991000
11
111.029000
21
82.009000
0
LINE
8
Layer 1
10
111.029000
20
82.009000
11
110.859000
21
82.179000
0
LINE
8
Layer 1
10
110.859000
20
82.179000
11
110.930000
21
82.150000
0
LINE
8
Layer 1
10
110.930000
20
82.150000
11
110.975000
21
82.161000
0
LINE
8
Layer 1
10
110.975000
20
82.161000
11
110.635000
21
81.991000
0
LINE
8
Layer 1
10
110.635000
20
81.991000
11
110.519000
21
82.009000
0
LINE
8
Layer 1
10
110.519000
20
82.009000
11
110.379000
21
82.150000
0
LINE
8
Layer 1
10
110.379000
20
82.150000
11
110.379000
21
82.150000
0
LINE
8
Layer 1
10
110.379000
20
82.150000
11
110.350000
21
82.150000
0
LINE
8
Layer 1
10
110.350000
20
82.150000
11
110.350000
21
82.150000
0
LINE
8
Layer 1
10
110.350000
20
82.150000
11
110.350000
21
78.150000
0
LINE
8
Layer 1
10
110.350000
20
78.150000
11
110.263187
21
76.828812
0
LINE
8
Layer 1
10
110.263187
20
76.828812
11
110.005750
21
75.535750
0
LINE
8
Layer 1
10
110.005750
20
75.535750
11
109.582188
21
74.287313
0
LINE
8
Layer 1
10
109.582188
20
74.287313
11
108.997000
21
73.100000
0
LINE
8
Layer 1
10
108.997000
20
73.100000
11
108.261000
21
71.999500
0
LINE
8
Layer 1
10
108.261000
20
71.999500
11
107.391500
21
71.008500
0
LINE
8
Layer 1
10
107.391500
20
71.008500
11
106.400500
21
70.139000
0
LINE
8
Layer 1
10
106.400500
20
70.139000
11
105.300000
21
69.403000
0
LINE
8
Layer 1
10
105.300000
20
69.403000
11
104.112687
21
68.817813
0
LINE
8
Layer 1
10
104.112687
20
68.817813
11
102.864250
21
68.394250
0
LINE
8
Layer 1
10
102.864250
20
68.394250
11
101.571188
21
68.136813
0
LINE
8
Layer 1
10
101.571188
20
68.136813
11
100.250000
21
68.050000
0
LINE
8
Layer 1
10
100.250000
20
68.050000
11
100.250000
21
68.050000
0
LINE
8
Layer 1
10
11.800000
20
68.050000
11
15.800000
21
68.050000
0
LINE
8
Layer 1
10
15.800000
20
68.050000
11
15.800000
21
68.050000
0
LINE
8
Layer 1
10
15.800000
20
68.050000
11
15.800000
21
68.021000
0
LINE
8
Layer 1
10
15.800000
20
68.021000
11
15.800000
21
68.021000
0
LINE
8
Layer 1
10
15.800000
20
68.021000
11
15.659000
21
67.881000
0
LINE
8
Layer 1
10
15.659000
20
67.881000
11
15.641000
21
67.765000
0
LINE
8
Layer 1
10
15.641000
20
67.765000
11
15.811000
21
67.425000
0
LINE
8
Layer 1
10
15.811000
20
67.425000
11
15.800000
21
67.470000
0
LINE
8
Layer 1
10
15.800000
20
67.470000
11
15.829000
21
67.541000
0
LINE
8
Layer 1
10
15.829000
20
67.541000
11
15.659000
21
67.371000
0
LINE
8
Layer 1
10
15.659000
20
67.371000
11
15.641000
21
67.255000
0
LINE
8
Layer 1
10
15.641000
20
67.255000
11
15.811000
21
66.915000
0
LINE
8
Layer 1
10
15.811000
20
66.915000
11
15.800000
21
66.960000
0
LINE
8
Layer 1
10
15.800000
20
66.960000
11
15.829000
21
67.031000
0
LINE
8
Layer 1
10
15.829000
20
67.031000
11
15.659000
21
66.861000
0
LINE
8
Layer 1
10
15.659000
20
66.861000
11
15.641000
21
66.745000
0
LINE
8
Layer 1
10
15.641000
20
66.745000
11
15.811000
21
66.405000
0
LINE
8
Layer 1
10
15.811000
20
66.405000
11
15.800000
21
66.450000
0
LINE
8
Layer 1
10
15.800000
20
66.450000
11
15.900000
21
66.350000
0
LINE
8
Layer 1
10
15.900000
20
66.350000
11
19.300000
21
66.350000
0
LINE
8
Layer 1
10
19.300000
20
66.350000
11
19.400000
21
66.450000
0
LINE
8
Layer 1
10
19.400000
20
66.450000
11
19.389000
21
66.405000
0
LINE
8
Layer 1
10
19.389000
20
66.405000
11
19.559000
21
66.745000
0
LINE
8
Layer 1
10
19.559000
20
66.745000
11
19.541000
21
66.861000
0
LINE
8
Layer 1
10
19.541000
20
66.861000
11
19.371000
21
67.031000
0
LINE
8
Layer 1
10
19.371000
20
67.031000
11
19.400000
21
66.960000
0
LINE
8
Layer 1
10
19.400000
20
66.960000
11
19.389000
21
66.915000
0
LINE
8
Layer 1
10
19.389000
20
66.915000
11
19.559000
21
67.255000
0
LINE
8
Layer 1
10
19.559000
20
67.255000
11
19.541000
21
67.371000
0
LINE
8
Layer 1
10
19.541000
20
67.371000
11
19.371000
21
67.541000
0
LINE
8
Layer 1
10
19.371000
20
67.541000
11
19.400000
21
67.470000
0
LINE
8
Layer 1
10
19.400000
20
67.470000
11
19.389000
21
67.425000
0
LINE
8
Layer 1
10
19.389000
20
67.425000
11
19.559000
21
67.765000
0
LINE
8
Layer 1
10
19.559000
20
67.765000
11
19.541000
21
67.881000
0
LINE
8
Layer 1
10
19.541000
20
67.881000
11
19.400000
21
68.021000
0
LINE
8
Layer 1
10
19.400000
20
68.021000
11
19.400000
21
68.021000
0
LINE
8
Layer 1
10
19.400000
20
68.021000
11
19.400000
21
68.050000
0
LINE
8
Layer 1
10
19.400000
20
68.050000
11
19.362500
21
68.087500
0
LINE
8
Layer 1
10
19.362500
20
68.087500
11
19.400000
21
68.050000
0
LINE
8
Layer 1
10
19.400000
20
68.050000
11
22.600000
21
68.050000
0
LINE
8
Layer 1
10
22.600000
20
68.050000
11
22.637500
21
68.087500
0
LINE
8
Layer 1
10
22.637500
20
68.087500
11
22.600000
21
68.050000
0
LINE
8
Layer 1
10
22.600000
20
68.050000
11
22.600000
21
68.021000
0
LINE
8
Layer 1
10
22.600000
20
68.021000
11
22.600000
21
68.021000
0
LINE
8
Layer 1
10
22.600000
20
68.021000
11
22.459000
21
67.881000
0
LINE
8
Layer 1
10
22.459000
20
67.881000
11
22.441000
21
67.765000
0
LINE
8
Layer 1
10
22.441000
20
67.765000
11
22.611000
21
67.425000
0
LINE
8
Layer 1
10
22.611000
20
67.425000
11
22.600000
21
67.470000
0
LINE
8
Layer 1
10
22.600000
20
67.470000
11
22.629000
21
67.541000
0
LINE
8
Layer 1
10
22.629000
20
67.541000
11
22.459000
21
67.371000
0
LINE
8
Layer 1
10
22.459000
20
67.371000
11
22.441000
21
67.255000
0
LINE
8
Layer 1
10
22.441000
20
67.255000
11
22.611000
21
66.915000
0
LINE
8
Layer 1
10
22.611000
20
66.915000
11
22.600000
21
66.960000
0
LINE
8
Layer 1
10
22.600000
20
66.960000
11
22.629000
21
67.031000
0
LINE
8
Layer 1
10
22.629000
20
67.031000
11
22.459000
21
66.861000
0
LINE
8
Layer 1
10
22.459000
20
66.861000
11
22.441000
21
66.745000
0
LINE
8
Layer 1
10
22.441000
20
66.745000
11
22.611000
21
66.405000
0
LINE
8
Layer 1
10
22.611000
20
66.405000
11
22.600000
21
66.450000
0
LINE
8
Layer 1
10
22.600000
20
66.450000
11
22.700000
21
66.350000
0
LINE
8
Layer 1
10
22.700000
20
66.350000
11
26.100000
21
66.350000
0
LINE
8
Layer 1
10
26.100000
20
66.350000
11
26.200000
21
66.450000
0
LINE
8
Layer 1
10
26.200000
20
66.450000
11
26.189000
21
66.405000
0
LINE
8
Layer 1
10
26.189000
20
66.405000
11
26.359000
21
66.745000
0
LINE
8
Layer 1
10
26.359000
20
66.745000
11
26.341000
21
66.861000
0
LINE
8
Layer 1
10
26.341000
20
66.861000
11
26.171000
21
67.031000
0
LINE
8
Layer 1
10
26.171000
20
67.031000
11
26.200000
21
66.960000
0
LINE
8
Layer 1
10
26.200000
20
66.960000
11
26.189000
21
66.915000
0
LINE
8
Layer 1
10
26.189000
20
66.915000
11
26.359000
21
67.255000
0
LINE
8
Layer 1
10
26.359000
20
67.255000
11
26.341000
21
67.371000
0
LINE
8
Layer 1
10
26.341000
20
67.371000
11
26.171000
21
67.541000
0
LINE
8
Layer 1
10
26.171000
20
67.541000
11
26.200000
21
67.470000
0
LINE
8
Layer 1
10
26.200000
20
67.470000
11
26.189000
21
67.425000
0
LINE
8
Layer 1
10
26.189000
20
67.425000
11
26.359000
21
67.765000
0
LINE
8
Layer 1
10
26.359000
20
67.765000
11
26.341000
21
67.881000
0
LINE
8
Layer 1
10
26.341000
20
67.881000
11
26.200000
21
68.021000
0
LINE
8
Layer 1
10
26.200000
20
68.021000
11
26.200000
21
68.021000
0
LINE
8
Layer 1
10
26.200000
20
68.021000
11
26.200000
21
68.050000
0
LINE
8
Layer 1
10
26.200000
20
68.050000
11
26.162500
21
68.087500
0
LINE
8
Layer 1
10
26.162500
20
68.087500
11
26.200000
21
68.050000
0
LINE
8
Layer 1
10
26.200000
20
68.050000
11
29.400000
21
68.050000
0
LINE
8
Layer 1
10
29.400000
20
68.050000
11
29.437500
21
68.087500
0
LINE
8
Layer 1
10
29.437500
20
68.087500
11
29.400000
21
68.050000
0
LINE
8
Layer 1
10
29.400000
20
68.050000
11
29.400000
21
68.021000
0
LINE
8
Layer 1
10
29.400000
20
68.021000
11
29.400000
21
68.021000
0
LINE
8
Layer 1
10
29.400000
20
68.021000
11
29.259000
21
67.881000
0
LINE
8
Layer 1
10
29.259000
20
67.881000
11
29.241000
21
67.765000
0
LINE
8
Layer 1
10
29.241000
20
67.765000
11
29.411000
21
67.425000
0
LINE
8
Layer 1
10
29.411000
20
67.425000
11
29.400000
21
67.470000
0
LINE
8
Layer 1
10
29.400000
20
67.470000
11
29.429000
21
67.541000
0
LINE
8
Layer 1
10
29.429000
20
67.541000
11
29.259000
21
67.371000
0
LINE
8
Layer 1
10
29.259000
20
67.371000
11
29.241000
21
67.255000
0
LINE
8
Layer 1
10
29.241000
20
67.255000
11
29.411000
21
66.915000
0
LINE
8
Layer 1
10
29.411000
20
66.915000
11
29.400000
21
66.960000
0
LINE
8
Layer 1
10
29.400000
20
66.960000
11
29.429000
21
67.031000
0
LINE
8
Layer 1
10
29.429000
20
67.031000
11
29.259000
21
66.861000
0
LINE
8
Layer 1
10
29.259000
20
66.861000
11
29.241000
21
66.745000
0
LINE
8
Layer 1
10
29.241000
20
66.745000
11
29.411000
21
66.405000
0
LINE
8
Layer 1
10
29.411000
20
66.405000
11
29.400000
21
66.450000
0
LINE
8
Layer 1
10
29.400000
20
66.450000
11
29.500000
21
66.350000
0
LINE
8
Layer 1
10
29.500000
20
66.350000
11
32.900000
21
66.350000
0
LINE
8
Layer 1
10
32.900000
20
66.350000
11
33.000000
21
66.450000
0
LINE
8
Layer 1
10
33.000000
20
66.450000
11
32.989000
21
66.405000
0
LINE
8
Layer 1
10
32.989000
20
66.405000
11
33.159000
21
66.745000
0
LINE
8
Layer 1
10
33.159000
20
66.745000
11
33.141000
21
66.861000
0
LINE
8
Layer 1
10
33.141000
20
66.861000
11
32.971000
21
67.031000
0
LINE
8
Layer 1
10
32.971000
20
67.031000
11
33.000000
21
66.960000
0
LINE
8
Layer 1
10
33.000000
20
66.960000
11
32.989000
21
66.915000
0
LINE
8
Layer 1
10
32.989000
20
66.915000
11
33.159000
21
67.255000
0
LINE
8
Layer 1
10
33.159000
20
67.255000
11
33.141000
21
67.371000
0
LINE
8
Layer 1
10
33.141000
20
67.371000
11
32.971000
21
67.541000
0
LINE
8
Layer 1
10
32.971000
20
67.541000
11
33.000000
21
67.470000
0
LINE
8
Layer 1
10
33.000000
20
67.470000
11
32.989000
21
67.425000
0
LINE
8
Layer 1
10
32.989000
20
67.425000
11
33.159000
21
67.765000
0
LINE
8
Layer 1
10
33.159000
20
67.765000
11
33.141000
21
67.881000
0
LINE
8
Layer 1
10
33.141000
20
67.881000
11
33.000000
21
68.021000
0
LINE
8
Layer 1
10
33.000000
20
68.021000
11
33.000000
21
68.021000
0
LINE
8
Layer 1
10
33.000000
20
68.021000
11
33.000000
21
68.050000
0
LINE
8
Layer 1
10
33.000000
20
68.050000
11
32.962500
21
68.087500
0
LINE
8
Layer 1
10
32.962500
20
68.087500
11
33.000000
21
68.050000
0
LINE
8
Layer 1
10
33.000000
20
68.050000
11
36.200000
21
68.050000
0
LINE
8
Layer 1
10
36.200000
20
68.050000
11
36.237500
21
68.087500
0
LINE
8
Layer 1
10
36.237500
20
68.087500
11
36.200000
21
68.050000
0
LINE
8
Layer 1
10
36.200000
20
68.050000
11
36.200000
21
68.021000
0
LINE
8
Layer 1
10
36.200000
20
68.021000
11
36.200000
21
68.021000
0
LINE
8
Layer 1
10
36.200000
20
68.021000
11
36.059000
21
67.881000
0
LINE
8
Layer 1
10
36.059000
20
67.881000
11
36.041000
21
67.765000
0
LINE
8
Layer 1
10
36.041000
20
67.765000
11
36.211000
21
67.425000
0
LINE
8
Layer 1
10
36.211000
20
67.425000
11
36.200000
21
67.470000
0
LINE
8
Layer 1
10
36.200000
20
67.470000
11
36.229000
21
67.541000
0
LINE
8
Layer 1
10
36.229000
20
67.541000
11
36.059000
21
67.371000
0
LINE
8
Layer 1
10
36.059000
20
67.371000
11
36.041000
21
67.255000
0
LINE
8
Layer 1
10
36.041000
20
67.255000
11
36.211000
21
66.915000
0
LINE
8
Layer 1
10
36.211000
20
66.915000
11
36.200000
21
66.960000
0
LINE
8
Layer 1
10
36.200000
20
66.960000
11
36.229000
21
67.031000
0
LINE
8
Layer 1
10
36.229000
20
67.031000
11
36.059000
21
66.861000
0
LINE
8
Layer 1
10
36.059000
20
66.861000
11
36.041000
21
66.745000
0
LINE
8
Layer 1
10
36.041000
20
66.745000
11
36.211000
21
66.405000
0
LINE
8
Layer 1
10
36.211000
20
66.405000
11
36.200000
21
66.450000
0
LINE
8
Layer 1
10
36.200000
20
66.450000
11
36.300000
21
66.350000
0
LINE
8
Layer 1
10
36.300000
20
66.350000
11
39.700000
21
66.350000
0
LINE
8
Layer 1
10
39.700000
20
66.350000
11
39.800000
21
66.450000
0
LINE
8
Layer 1
10
39.800000
20
66.450000
11
39.789000
21
66.405000
0
LINE
8
Layer 1
10
39.789000
20
66.405000
11
39.959000
21
66.745000
0
LINE
8
Layer 1
10
39.959000
20
66.745000
11
39.941000
21
66.861000
0
LINE
8
Layer 1
10
39.941000
20
66.861000
11
39.771000
21
67.031000
0
LINE
8
Layer 1
10
39.771000
20
67.031000
11
39.800000
21
66.960000
0
LINE
8
Layer 1
10
39.800000
20
66.960000
11
39.789000
21
66.915000
0
LINE
8
Layer 1
10
39.789000
20
66.915000
11
39.959000
21
67.255000
0
LINE
8
Layer 1
10
39.959000
20
67.255000
11
39.941000
21
67.371000
0
LINE
8
Layer 1
10
39.941000
20
67.371000
11
39.771000
21
67.541000
0
LINE
8
Layer 1
10
39.771000
20
67.541000
11
39.800000
21
67.470000
0
LINE
8
Layer 1
10
39.800000
20
67.470000
11
39.789000
21
67.425000
0
LINE
8
Layer 1
10
39.789000
20
67.425000
11
39.959000
21
67.765000
0
LINE
8
Layer 1
10
39.959000
20
67.765000
11
39.941000
21
67.881000
0
LINE
8
Layer 1
10
39.941000
20
67.881000
11
39.800000
21
68.021000
0
LINE
8
Layer 1
10
39.800000
20
68.021000
11
39.800000
21
68.021000
0
LINE
8
Layer 1
10
39.800000
20
68.021000
11
39.800000
21
68.050000
0
LINE
8
Layer 1
10
39.800000
20
68.050000
11
39.762500
21
68.087500
0
LINE
8
Layer 1
10
39.762500
20
68.087500
11
39.800000
21
68.050000
0
LINE
8
Layer 1
10
39.800000
20
68.050000
11
43.800000
21
68.050000
0
LINE
8
Layer 1
10
43.800000
20
68.050000
11
45.121187
21
68.136812
0
LINE
8
Layer 1
10
45.121187
20
68.136812
11
46.414250
21
68.394250
0
LINE
8
Layer 1
10
46.414250
20
68.394250
11
47.662687
21
68.817813
0
LINE
8
Layer 1
10
47.662687
20
68.817813
11
48.850000
21
69.403000
0
LINE
8
Layer 1
10
48.850000
20
69.403000
11
49.950500
21
70.139000
0
LINE
8
Layer 1
10
49.950500
20
70.139000
11
50.941500
21
71.008500
0
LINE
8
Layer 1
10
50.941500
20
71.008500
11
51.811000
21
71.999500
0
LINE
8
Layer 1
10
51.811000
20
71.999500
11
52.547000
21
73.100000
0
LINE
8
Layer 1
10
52.547000
20
73.100000
11
53.132188
21
74.287312
0
LINE
8
Layer 1
10
53.132188
20
74.287312
11
53.555750
21
75.535750
0
LINE
8
Layer 1
10
53.555750
20
75.535750
11
53.813187
21
76.828812
0
LINE
8
Layer 1
10
53.813187
20
76.828812
11
53.900000
21
78.150000
0
LINE
8
Layer 1
10
53.900000
20
78.150000
11
53.900000
21
82.150000
0
LINE
8
Layer 1
10
53.900000
20
82.150000
11
53.862500
21
82.187500
0
LINE
8
Layer 1
10
53.862500
20
82.187500
11
53.900000
21
82.150000
0
LINE
8
Layer 1
10
53.900000
20
82.150000
11
53.929000
21
82.150000
0
LINE
8
Layer 1
10
53.929000
20
82.150000
11
53.929000
21
82.150000
0
LINE
8
Layer 1
10
53.929000
20
82.150000
11
54.069000
21
82.009000
0
LINE
8
Layer 1
10
54.069000
20
82.009000
11
54.185000
21
81.991000
0
LINE
8
Layer 1
10
54.185000
20
81.991000
11
54.525000
21
82.161000
0
LINE
8
Layer 1
10
54.525000
20
82.161000
11
54.480000
21
82.150000
0
LINE
8
Layer 1
10
54.480000
20
82.150000
11
54.409000
21
82.179000
0
LINE
8
Layer 1
10
54.409000
20
82.179000
11
54.579000
21
82.009000
0
LINE
8
Layer 1
10
54.579000
20
82.009000
11
54.695000
21
81.991000
0
LINE
8
Layer 1
10
54.695000
20
81.991000
11
55.035000
21
82.161000
0
LINE
8
Layer 1
10
55.035000
20
82.161000
11
54.990000
21
82.150000
0
LINE
8
Layer 1
10
54.990000
20
82.150000
11
54.919000
21
82.179000
0
LINE
8
Layer 1
10
54.919000
20
82.179000
11
55.089000
21
82.009000
0
LINE
8
Layer 1
10
55.089000
20
82.009000
11
55.205000
21
81.991000
0
LINE
8
Layer 1
10
55.205000
20
81.991000
11
55.545000
21
82.161000
0
LINE
8
Layer 1
10
55.545000
20
82.161000
11
55.500000
21
82.150000
0
LINE
8
Layer 1
10
55.500000
20
82.150000
11
55.600000
21
82.250000
0
LINE
8
Layer 1
10
55.600000
20
82.250000
11
55.600000
21
85.650000
0
LINE
8
Layer 1
10
55.600000
20
85.650000
11
55.500000
21
85.750000
0
LINE
8
Layer 1
10
55.500000
20
85.750000
11
55.545000
21
85.739000
0
LINE
8
Layer 1
10
55.545000
20
85.739000
11
55.205000
21
85.909000
0
LINE
8
Layer 1
10
55.205000
20
85.909000
11
55.089000
21
85.891000
0
LINE
8
Layer 1
10
55.089000
20
85.891000
11
54.919000
21
85.721000
0
LINE
8
Layer 1
10
54.919000
20
85.721000
11
54.990000
21
85.750000
0
LINE
8
Layer 1
10
54.990000
20
85.750000
11
55.035000
21
85.739000
0
LINE
8
Layer 1
10
55.035000
20
85.739000
11
54.695000
21
85.909000
0
LINE
8
Layer 1
10
54.695000
20
85.909000
11
54.579000
21
85.891000
0
LINE
8
Layer 1
10
54.579000
20
85.891000
11
54.409000
21
85.721000
0
LINE
8
Layer 1
10
54.409000
20
85.721000
11
54.480000
21
85.750000
0
LINE
8
Layer 1
10
54.480000
20
85.750000
11
54.525000
21
85.739000
0
LINE
8
Layer 1
10
54.525000
20
85.739000
11
54.185000
21
85.909000
0
LINE
8
Layer 1
10
54.185000
20
85.909000
11
54.069000
21
85.891000
0
LINE
8
Layer 1
10
54.069000
20
85.891000
11
53.929000
21
85.750000
0
LINE
8
Layer 1
10
53.929000
20
85.750000
11
53.929000
21
85.750000
0
LINE
8
Layer 1
10
53.929000
20
85.750000
11
53.900000
21
85.750000
0
LINE
8
Layer 1
10
53.900000
20
85.750000
11
53.862500
21
85.712500
0
LINE
8
Layer 1
10
53.862500
20
85.712500
11
53.900000
21
85.750000
0
LINE
8
Layer 1
10
53.900000
20
85.750000
11
53.900000
21
88.950000
0
LINE
8
Layer 1
10
53.900000
20
88.950000
11
53.862500
21
88.987500
0
LINE
8
Layer 1
10
53.862500
20
88.987500
11
53.900000
21
88.950000
0
LINE
8
Layer 1
10
53.900000
20
88.950000
11
53.929000
21
88.950000
0
LINE
8
Layer 1
10
53.929000
20
88.950000
11
53.929000
21
88.950000
0
LINE
8
Layer 1
10
53.929000
20
88.950000
11
54.069000
21
88.809000
0
LINE
8
Layer 1
10
54.069000
20
88.809000
11
54.185000
21
88.791000
0
LINE
8
Layer 1
10
54.185000
20
88.791000
11
54.525000
21
88.961000
0
LINE
8
Layer 1
10
54.525000
20
88.961000
11
54.480000
21
88.950000
0
LINE
8
Layer 1
10
54.480000
20
88.950000
11
54.409000
21
88.979000
0
LINE
8
Layer 1
10
54.409000
20
88.979000
11
54.579000
21
88.809000
0
LINE
8
Layer 1
10
54.579000
20
88.809000
11
54.695000
21
88.791000
0
LINE
8
Layer 1
10
54.695000
20
88.791000
11
55.035000
21
88.961000
0
LINE
8
Layer 1
10
55.035000
20
88.961000
11
54.990000
21
88.950000
0
LINE
8
Layer 1
10
54.990000
20
88.950000
11
54.919000
21
88.979000
0
LINE
8
Layer 1
10
54.919000
20
88.979000
11
55.089000
21
88.809000
0
LINE
8
Layer 1
10
55.089000
20
88.809000
11
55.205000
21
88.791000
0
LINE
8
Layer 1
10
55.205000
20
88.791000
11
55.545000
21
88.961000
0
LINE
8
Layer 1
10
55.545000
20
88.961000
11
55.500000
21
88.950000
0
LINE
8
Layer 1
10
55.500000
20
88.950000
11
55.600000
21
89.050000
0
LINE
8
Layer 1
10
55.600000
20
89.050000
11
55.600000
21
92.450000
0
LINE
8
Layer 1
10
55.600000
20
92.450000
11
55.500000
21
92.550000
0
LINE
8
Layer 1
10
55.500000
20
92.550000
11
55.545000
21
92.539000
0
LINE
8
Layer 1
10
55.545000
20
92.539000
11
55.205000
21
92.709000
0
LINE
8
Layer 1
10
55.205000
20
92.709000
11
55.089000
21
92.691000
0
LINE
8
Layer 1
10
55.089000
20
92.691000
11
54.919000
21
92.521000
0
LINE
8
Layer 1
10
54.919000
20
92.521000
11
54.990000
21
92.550000
0
LINE
8
Layer 1
10
54.990000
20
92.550000
11
55.035000
21
92.539000
0
LINE
8
Layer 1
10
55.035000
20
92.539000
11
54.695000
21
92.709000
0
LINE
8
Layer 1
10
54.695000
20
92.709000
11
54.579000
21
92.691000
0
LINE
8
Layer 1
10
54.579000
20
92.691000
11
54.409000
21
92.521000
0
LINE
8
Layer 1
10
54.409000
20
92.521000
11
54.480000
21
92.550000
0
LINE
8
Layer 1
10
54.480000
20
92.550000
11
54.525000
21
92.539000
0
LINE
8
Layer 1
10
54.525000
20
92.539000
11
54.185000
21
92.709000
0
LINE
8
Layer 1
10
54.185000
20
92.709000
11
54.069000
21
92.691000
0
LINE
8
Layer 1
10
54.069000
20
92.691000
11
53.929000
21
92.550000
0
LINE
8
Layer 1
10
53.929000
20
92.550000
11
53.929000
21
92.550000
0
LINE
8
Layer 1
10
53.929000
20
92.550000
11
53.900000
21
92.550000
0
LINE
8
Layer 1
10
53.900000
20
92.550000
11
53.862500
21
92.512500
0
LINE
8
Layer 1
10
53.862500
20
92.512500
11
53.900000
21
92.550000
0
LINE
8
Layer 1
10
53.900000
20
92.550000
11
53.900000
21
95.750000
0
LINE
8
Layer 1
10
53.900000
20
95.750000
11
53.862500
21
95.787500
0
LINE
8
Layer 1
10
53.862500
20
95.787500
11
53.900000
21
95.750000
0
LINE
8
Layer 1
10
53.900000
20
95.750000
11
53.929000
21
95.750000
0
LINE
8
Layer 1
10
53.929000
20
95.750000
11
53.929000
21
95.750000
0
LINE
8
Layer 1
10
53.929000
20
95.750000
11
54.069000
21
95.609000
0
LINE
8
Layer 1
10
54.069000
20
95.609000
11
54.185000
21
95.591000
0
LINE
8
Layer 1
10
54.185000
20
95.591000
11
54.525000
21
95.761000
0
LINE
8
Layer 1
10
54.525000
20
95.761000
11
54.480000
21
95.750000
0
LINE
8
Layer 1
10
54.480000
20
95.750000
11
54.409000
21
95.779000
0
LINE
8
Layer 1
10
54.409000
20
95.779000
11
54.579000
21
95.609000
0
LINE
8
Layer 1
10
54.579000
20
95.609000
11
54.695000
21
95.591000
0
LINE
8
Layer 1
10
54.695000
20
95.591000
11
55.035000
21
95.761000
0
LINE
8
Layer 1
10
55.035000
20
95.761000
11
54.990000
21
95.750000
0
LINE
8
Layer 1
10
54.990000
20
95.750000
11
54.919000
21
95.779000
0
LINE
8
Layer 1
10
54.919000
20
95.779000
11
55.089000
21
95.609000
0
LINE
8
Layer 1
10
55.089000
20
95.609000
11
55.205000
21
95.591000
0
LINE
8
Layer 1
10
55.205000
20
95.591000
11
55.545000
21
95.761000
0
LINE
8
Layer 1
10
55.545000
20
95.761000
11
55.500000
21
95.750000
0
LINE
8
Layer 1
10
55.500000
20
95.750000
11
55.600000
21
95.850000
0
LINE
8
Layer 1
10
55.600000
20
95.850000
11
55.600000
21
99.250000
0
LINE
8
Layer 1
10
55.600000
20
99.250000
11
55.500000
21
99.350000
0
LINE
8
Layer 1
10
55.500000
20
99.350000
11
55.545000
21
99.339000
0
LINE
8
Layer 1
10
55.545000
20
99.339000
11
55.205000
21
99.509000
0
LINE
8
Layer 1
10
55.205000
20
99.509000
11
55.089000
21
99.491000
0
LINE
8
Layer 1
10
55.089000
20
99.491000
11
54.919000
21
99.321000
0
LINE
8
Layer 1
10
54.919000
20
99.321000
11
54.990000
21
99.350000
0
LINE
8
Layer 1
10
54.990000
20
99.350000
11
55.035000
21
99.339000
0
LINE
8
Layer 1
10
55.035000
20
99.339000
11
54.695000
21
99.509000
0
LINE
8
Layer 1
10
54.695000
20
99.509000
11
54.579000
21
99.491000
0
LINE
8
Layer 1
10
54.579000
20
99.491000
11
54.409000
21
99.321000
0
LINE
8
Layer 1
10
54.409000
20
99.321000
11
54.480000
21
99.350000
0
LINE
8
Layer 1
10
54.480000
20
99.350000
11
54.525000
21
99.339000
0
LINE
8
Layer 1
10
54.525000
20
99.339000
11
54.185000
21
99.509000
0
LINE
8
Layer 1
10
54.185000
20
99.509000
11
54.069000
21
99.491000
0
LINE
8
Layer 1
10
54.069000
20
99.491000
11
53.929000
21
99.350000
0
LINE
8
Layer 1
10
53.929000
20
99.350000
11
53.929000
21
99.350000
0
LINE
8
Layer 1
10
53.929000
20
99.350000
11
53.900000
21
99.350000
0
LINE
8
Layer 1
10
53.900000
20
99.350000
11
53.862500
21
99.312500
0
LINE
8
Layer 1
10
53.862500
20
99.312500
11
53.900000
21
99.350000
0
LINE
8
Layer 1
10
53.900000
20
99.350000
11
53.900000
21
102.550000
0
LINE
8
Layer 1
10
53.900000
20
102.550000
11
53.862500
21
102.587500
0
LINE
8
Layer 1
10
53.862500
20
102.587500
11
53.900000
21
102.550000
0
LINE
8
Layer 1
10
53.900000
20
102.550000
11
53.929000
21
102.550000
0
LINE
8
Layer 1
10
53.929000
20
102.550000
11
53.929000
21
102.550000
0
LINE
8
Layer 1
10
53.929000
20
102.550000
11
54.069000
21
102.409000
0
LINE
8
Layer 1
10
54.069000
20
102.409000
11
54.185000
21
102.391000
0
LINE
8
Layer 1
10
54.185000
20
102.391000
11
54.525000
21
102.561000
0
LINE
8
Layer 1
10
54.525000
20
102.561000
11
54.480000
21
102.550000
0
LINE
8
Layer 1
10
54.480000
20
102.550000
11
54.409000
21
102.579000
0
LINE
8
Layer 1
10
54.409000
20
102.579000
11
54.579000
21
102.409000
0
LINE
8
Layer 1
10
54.579000
20
102.409000
11
54.695000
21
102.391000
0
LINE
8
Layer 1
10
54.695000
20
102.391000
11
55.035000
21
102.561000
0
LINE
8
Layer 1
10
55.035000
20
102.561000
11
54.990000
21
102.550000
0
LINE
8
Layer 1
10
54.990000
20
102.550000
11
54.919000
21
102.579000
0
LINE
8
Layer 1
10
54.919000
20
102.579000
11
55.089000
21
102.409000
0
LINE
8
Layer 1
10
55.089000
20
102.409000
11
55.205000
21
102.391000
0
LINE
8
Layer 1
10
55.205000
20
102.391000
11
55.545000
21
102.561000
0
LINE
8
Layer 1
10
55.545000
20
102.561000
11
55.500000
21
102.550000
0
LINE
8
Layer 1
10
55.500000
20
102.550000
11
55.600000
21
102.650000
0
LINE
8
Layer 1
10
55.600000
20
102.650000
11
55.600000
21
106.050000
0
LINE
8
Layer 1
10
55.600000
20
106.050000
11
55.500000
21
106.150000
0
LINE
8
Layer 1
10
55.500000
20
106.150000
11
55.545000
21
106.139000
0
LINE
8
Layer 1
10
55.545000
20
106.139000
11
55.205000
21
106.309000
0
LINE
8
Layer 1
10
55.205000
20
106.309000
11
55.089000
21
106.291000
0
LINE
8
Layer 1
10
55.089000
20
106.291000
11
54.919000
21
106.121000
0
LINE
8
Layer 1
10
54.919000
20
106.121000
11
54.990000
21
106.150000
0
LINE
8
Layer 1
10
54.990000
20
106.150000
11
55.035000
21
106.139000
0
LINE
8
Layer 1
10
55.035000
20
106.139000
11
54.695000
21
106.309000
0
LINE
8
Layer 1
10
54.695000
20
106.309000
11
54.579000
21
106.291000
0
LINE
8
Layer 1
10
54.579000
20
106.291000
11
54.409000
21
106.121000
0
LINE
8
Layer 1
10
54.409000
20
106.121000
11
54.480000
21
106.150000
0
LINE
8
Layer 1
10
54.480000
20
106.150000
11
54.525000
21
106.139000
0
LINE
8
Layer 1
10
54.525000
20
106.139000
11
54.185000
21
106.309000
0
LINE
8
Layer 1
10
54.185000
20
106.309000
11
54.069000
21
106.291000
0
LINE
8
Layer 1
10
54.069000
20
106.291000
11
53.929000
21
106.150000
0
LINE
8
Layer 1
10
53.929000
20
106.150000
11
53.929000
21
106.150000
0
LINE
8
Layer 1
10
53.929000
20
106.150000
11
53.900000
21
106.150000
0
LINE
8
Layer 1
10
53.900000
20
106.150000
11
53.862500
21
106.112500
0
LINE
8
Layer 1
10
53.862500
20
106.112500
11
53.900000
21
106.150000
0
LINE
8
Layer 1
10
53.900000
20
106.150000
11
53.900000
21
110.150000
0
LINE
8
Layer 1
10
53.900000
20
110.150000
11
53.813187
21
111.471188
0
LINE
8
Layer 1
10
53.813187
20
111.471188
11
53.555750
21
112.764250
0
LINE
8
Layer 1
10
53.555750
20
112.764250
11
53.132188
21
114.012687
0
LINE
8
Layer 1
10
53.132188
20
114.012687
11
52.547000
21
115.200000
0
LINE
8
Layer 1
10
52.547000
20
115.200000
11
51.811000
21
116.300500
0
LINE
8
Layer 1
10
51.811000
20
116.300500
11
50.941500
21
117.291500
0
LINE
8
Layer 1
10
50.941500
20
117.291500
11
49.950500
21
118.161000
0
LINE
8
Layer 1
10
49.950500
20
118.161000
11
48.850000
21
118.897000
0
LINE
8
Layer 1
10
48.850000
20
118.897000
11
47.662688
21
119.482188
0
LINE
8
Layer 1
10
47.662688
20
119.482188
11
46.414250
21
119.905750
0
LINE
8
Layer 1
10
46.414250
20
119.905750
11
45.121187
21
120.163187
0
LINE
8
Layer 1
10
45.121187
20
120.163187
11
43.800000
21
120.250000
0
LINE
8
Layer 1
10
43.800000
20
120.250000
11
11.800000
21
120.250000
0
LINE
8
Layer 1
10
11.800000
20
120.250000
11
10.478813
21
120.163187
0
LINE
8
Layer 1
10
10.478813
20
120.163187
11
9.185750
21
119.905750
0
LINE
8
Layer 1
10
9.185750
20
119.905750
11
7.937313
21
119.482188
0
LINE
8
Layer 1
10
7.937313
20
119.482188
11
6.750000
21
118.897000
0
LINE
8
Layer 1
10
6.750000
20
118.897000
11
5.649500
21
118.161000
0
LINE
8
Layer 1
10
5.649500
20
118.161000
11
4.658500
21
117.291500
0
LINE
8
Layer 1
10
4.658500
20
117.291500
11
3.789000
21
116.300500
0
LINE
8
Layer 1
10
3.789000
20
116.300500
11
3.053000
21
115.200000
0
LINE
8
Layer 1
10
3.053000
20
115.200000
11
2.467812
21
114.012687
0
LINE
8
Layer 1
10
2.467812
20
114.012687
11
2.044250
21
112.764250
0
LINE
8
Layer 1
10
2.044250
20
112.764250
11
1.786812
21
111.471188
0
LINE
8
Layer 1
10
1.786812
20
111.471188
11
1.700000
21
110.150000
0
LINE
8
Layer 1
10
1.700000
20
110.150000
11
1.800000
21
110.250000
0
LINE
8
Layer 1
10
1.800000
20
110.250000
11
0.100000
21
110.250000
0
LINE
8
Layer 1
10
0.100000
20
110.250000
11
0.000000
21
110.150000
0
LINE
8
Layer 1
10
0.000000
20
110.150000
11
0.000000
21
103.350000
0
LINE
8
Layer 1
10
0.000000
20
103.350000
11
0.100000
21
103.250000
0
LINE
8
Layer 1
10
0.100000
20
103.250000
11
1.700000
21
103.250000
0
LINE
8
Layer 1
10
1.700000
20
103.250000
11
1.737500
21
103.287500
0
LINE
8
Layer 1
10
1.737500
20
103.287500
11
1.700000
21
103.250000
0
LINE
8
Layer 1
10
1.700000
20
103.250000
11
1.700000
21
96.550000
0
LINE
8
Layer 1
10
1.700000
20
96.550000
11
1.700000
21
92.550000
0
LINE
8
Layer 1
10
1.700000
20
92.550000
11
1.737500
21
92.512500
0
LINE
8
Layer 1
10
1.737500
20
92.512500
11
1.700000
21
92.550000
0
LINE
8
Layer 1
10
1.700000
20
92.550000
11
1.671000
21
92.550000
0
LINE
8
Layer 1
10
1.671000
20
92.550000
11
1.671000
21
92.550000
0
LINE
8
Layer 1
10
1.671000
20
92.550000
11
1.531000
21
92.691000
0
LINE
8
Layer 1
10
1.531000
20
92.691000
11
1.415000
21
92.709000
0
LINE
8
Layer 1
10
1.415000
20
92.709000
11
1.075000
21
92.539000
0
LINE
8
Layer 1
10
1.075000
20
92.539000
11
1.120000
21
92.550000
0
LINE
8
Layer 1
10
1.120000
20
92.550000
11
1.191000
21
92.521000
0
LINE
8
Layer 1
10
1.191000
20
92.521000
11
1.021000
21
92.691000
0
LINE
8
Layer 1
10
1.021000
20
92.691000
11
0.905000
21
92.709000
0
LINE
8
Layer 1
10
0.905000
20
92.709000
11
0.565000
21
92.539000
0
LINE
8
Layer 1
10
0.565000
20
92.539000
11
0.610000
21
92.550000
0
LINE
8
Layer 1
10
0.610000
20
92.550000
11
0.681000
21
92.521000
0
LINE
8
Layer 1
10
0.681000
20
92.521000
11
0.511000
21
92.691000
0
LINE
8
Layer 1
10
0.511000
20
92.691000
11
0.395000
21
92.709000
0
LINE
8
Layer 1
10
0.395000
20
92.709000
11
0.055000
21
92.539000
0
LINE
8
Layer 1
10
0.055000
20
92.539000
11
0.100000
21
92.550000
0
LINE
8
Layer 1
10
0.100000
20
92.550000
11
0.000000
21
92.450000
0
LINE
8
Layer 1
10
0.000000
20
92.450000
11
0.000000
21
89.050000
0
LINE
8
Layer 1
10
0.000000
20
89.050000
11
0.100000
21
88.950000
0
LINE
8
Layer 1
10
0.100000
20
88.950000
11
0.055000
21
88.961000
0
LINE
8
Layer 1
10
0.055000
20
88.961000
11
0.395000
21
88.791000
0
LINE
8
Layer 1
10
0.395000
20
88.791000
11
0.511000
21
88.809000
0
LINE
8
Layer 1
10
0.511000
20
88.809000
11
0.681000
21
88.979000
0
LINE
8
Layer 1
10
0.681000
20
88.979000
11
0.610000
21
88.950000
0
LINE
8
Layer 1
10
0.610000
20
88.950000
11
0.565000
21
88.961000
0
LINE
8
Layer 1
10
0.565000
20
88.961000
11
0.905000
21
88.791000
0
LINE
8
Layer 1
10
0.905000
20
88.791000
11
1.021000
21
88.809000
0
LINE
8
Layer 1
10
1.021000
20
88.809000
11
1.191000
21
88.979000
0
LINE
8
Layer 1
10
1.191000
20
88.979000
11
1.120000
21
88.950000
0
LINE
8
Layer 1
10
1.120000
20
88.950000
11
1.075000
21
88.961000
0
LINE
8
Layer 1
10
1.075000
20
88.961000
11
1.415000
21
88.791000
0
LINE
8
Layer 1
10
1.415000
20
88.791000
11
1.531000
21
88.809000
0
LINE
8
Layer 1
10
1.531000
20
88.809000
11
1.671000
21
88.950000
0
LINE
8
Layer 1
10
1.671000
20
88.950000
11
1.671000
21
88.950000
0
LINE
8
Layer 1
10
1.671000
20
88.950000
11
1.700000
21
88.950000
0
LINE
8
Layer 1
10
1.700000
20
88.950000
11
1.737500
21
88.987500
0
LINE
8
Layer 1
10
1.737500
20
88.987500
11
1.700000
21
88.950000
0
LINE
8
Layer 1
10
1.700000
20
88.950000
11
1.700000
21
85.750000
0
LINE
8
Layer 1
10
1.700000
20
85.750000
11
1.737500
21
85.712500
0
LINE
8
Layer 1
10
1.737500
20
85.712500
11
1.700000
21
85.750000
0
LINE
8
Layer 1
10
1.700000
20
85.750000
11
1.671000
21
85.750000
0
LINE
8
Layer 1
10
1.671000
20
85.750000
11
1.671000
21
85.750000
0
LINE
8
Layer 1
10
1.671000
20
85.750000
11
1.531000
21
85.891000
0
LINE
8
Layer 1
10
1.531000
20
85.891000
11
1.415000
21
85.909000
0
LINE
8
Layer 1
10
1.415000
20
85.909000
11
1.075000
21
85.739000
0
LINE
8
Layer 1
10
1.075000
20
85.739000
11
1.120000
21
85.750000
0
LINE
8
Layer 1
10
1.120000
20
85.750000
11
1.191000
21
85.721000
0
LINE
8
Layer 1
10
1.191000
20
85.721000
11
1.021000
21
85.891000
0
LINE
8
Layer 1
10
1.021000
20
85.891000
11
0.905000
21
85.909000
0
LINE
8
Layer 1
10
0.905000
20
85.909000
11
0.565000
21
85.739000
0
LINE
8
Layer 1
10
0.565000
20
85.739000
11
0.610000
21
85.750000
0
LINE
8
Layer 1
10
0.610000
20
85.750000
11
0.681000
21
85.721000
0
LINE
8
Layer 1
10
0.681000
20
85.721000
11
0.511000
21
85.891000
0
LINE
8
Layer 1
10
0.511000
20
85.891000
11
0.395000
21
85.909000
0
LINE
8
Layer 1
10
0.395000
20
85.909000
11
0.055000
21
85.739000
0
LINE
8
Layer 1
10
0.055000
20
85.739000
11
0.100000
21
85.750000
0
LINE
8
Layer 1
10
0.100000
20
85.750000
11
0.000000
21
85.650000
0
LINE
8
Layer 1
10
0.000000
20
85.650000
11
0.000000
21
82.250000
0
LINE
8
Layer 1
10
0.000000
20
82.250000
11
0.100000
21
82.150000
0
LINE
8
Layer 1
10
0.100000
20
82.150000
11
0.055000
21
82.161000
0
LINE
8
Layer 1
10
0.055000
20
82.161000
11
0.395000
21
81.991000
0
LINE
8
Layer 1
10
0.395000
20
81.991000
11
0.511000
21
82.009000
0
LINE
8
Layer 1
10
0.511000
20
82.009000
11
0.681000
21
82.179000
0
LINE
8
Layer 1
10
0.681000
20
82.179000
11
0.610000
21
82.150000
0
LINE
8
Layer 1
10
0.610000
20
82.150000
11
0.565000
21
82.161000
0
LINE
8
Layer 1
10
0.565000
20
82.161000
11
0.905000
21
81.991000
0
LINE
8
Layer 1
10
0.905000
20
81.991000
11
1.021000
21
82.009000
0
LINE
8
Layer 1
10
1.021000
20
82.009000
11
1.191000
21
82.179000
0
LINE
8
Layer 1
10
1.191000
20
82.179000
11
1.120000
21
82.150000
0
LINE
8
Layer 1
10
1.120000
20
82.150000
11
1.075000
21
82.161000
0
LINE
8
Layer 1
10
1.075000
20
82.161000
11
1.415000
21
81.991000
0
LINE
8
Layer 1
10
1.415000
20
81.991000
11
1.531000
21
82.009000
0
LINE
8
Layer 1
10
1.531000
20
82.009000
11
1.671000
21
82.150000
0
LINE
8
Layer 1
10
1.671000
20
82.150000
11
1.671000
21
82.150000
0
LINE
8
Layer 1
10
1.671000
20
82.150000
11
1.700000
21
82.150000
0
LINE
8
Layer 1
10
1.700000
20
82.150000
11
1.737500
21
82.187500
0
LINE
8
Layer 1
10
1.737500
20
82.187500
11
1.700000
21
82.150000
0
LINE
8
Layer 1
10
1.700000
20
82.150000
11
1.700000
21
78.150000
0
LINE
8
Layer 1
10
1.700000
20
78.150000
11
1.786812
21
76.828812
0
LINE
8
Layer 1
10
1.786812
20
76.828812
11
2.044250
21
75.535750
0
LINE
8
Layer 1
10
2.044250
20
75.535750
11
2.467812
21
74.287313
0
LINE
8
Layer 1
10
2.467812
20
74.287313
11
3.053000
21
73.100000
0
LINE
8
Layer 1
10
3.053000
20
73.100000
11
3.789000
21
71.999500
0
LINE
8
Layer 1
10
3.789000
20
71.999500
11
4.658500
21
71.008500
0
LINE
8
Layer 1
10
4.658500
20
71.008500
11
5.649500
21
70.139000
0
LINE
8
Layer 1
10
5.649500
20
70.139000
11
6.750000
21
69.403000
0
LINE
8
Layer 1
10
6.750000
20
69.403000
11
7.937312
21
68.817813
0
LINE
8
Layer 1
10
7.937312
20
68.817813
11
9.185750
21
68.394250
0
LINE
8
Layer 1
10
9.185750
20
68.394250
11
10.478813
21
68.136813
0
LINE
8
Layer 1
10
10.478813
20
68.136813
11
11.800000
21
68.050000
0
LINE
8
Layer 1
10
11.800000
20
68.050000
11
11.800000
21
68.050000
0
LINE
8
Layer 1
10
0.100000
20
31.475000
11
4.200000
21
31.475000
0
LINE
8
Layer 1
10
4.200000
20
31.475000
11
4.300000
21
31.575000
0
LINE
8
Layer 1
10
4.300000
20
31.575000
11
4.300000
21
33.175000
0
LINE
8
Layer 1
10
4.300000
20
33.175000
11
4.262500
21
33.212500
0
LINE
8
Layer 1
10
4.262500
20
33.212500
11
4.300000
21
33.175000
0
LINE
8
Layer 1
10
4.300000
20
33.175000
11
7.500000
21
33.175000
0
LINE
8
Layer 1
10
7.500000
20
33.175000
11
7.537500
21
33.212500
0
LINE
8
Layer 1
10
7.537500
20
33.212500
11
7.500000
21
33.175000
0
LINE
8
Layer 1
10
7.500000
20
33.175000
11
7.500000
21
31.575000
0
LINE
8
Layer 1
10
7.500000
20
31.575000
11
7.600000
21
31.475000
0
LINE
8
Layer 1
10
7.600000
20
31.475000
11
11.000000
21
31.475000
0
LINE
8
Layer 1
10
11.000000
20
31.475000
11
11.100000
21
31.575000
0
LINE
8
Layer 1
10
11.100000
20
31.575000
11
11.100000
21
33.175000
0
LINE
8
Layer 1
10
11.100000
20
33.175000
11
11.062500
21
33.212500
0
LINE
8
Layer 1
10
11.062500
20
33.212500
11
11.100000
21
33.175000
0
LINE
8
Layer 1
10
11.100000
20
33.175000
11
14.300000
21
33.175000
0
LINE
8
Layer 1
10
14.300000
20
33.175000
11
14.337500
21
33.212500
0
LINE
8
Layer 1
10
14.337500
20
33.212500
11
14.300000
21
33.175000
0
LINE
8
Layer 1
10
14.300000
20
33.175000
11
14.300000
21
31.575000
0
LINE
8
Layer 1
10
14.300000
20
31.575000
11
14.400000
21
31.475000
0
LINE
8
Layer 1
10
14.400000
20
31.475000
11
18.500000
21
31.475000
0
LINE
8
Layer 1
10
18.500000
20
31.475000
11
34.208000
21
31.475000
0
LINE
8
Layer 1
10
34.208000
20
31.475000
11
38.308000
21
31.475000
0
LINE
8
Layer 1
10
38.308000
20
31.475000
11
38.408000
21
31.575000
0
LINE
8
Layer 1
10
38.408000
20
31.575000
11
38.408000
21
33.175000
0
LINE
8
Layer 1
10
38.408000
20
33.175000
11
38.370500
21
33.212500
0
LINE
8
Layer 1
10
38.370500
20
33.212500
11
38.408000
21
33.175000
0
LINE
8
Layer 1
10
38.408000
20
33.175000
11
41.608000
21
33.175000
0
LINE
8
Layer 1
10
41.608000
20
33.175000
11
41.645500
21
33.212500
0
LINE
8
Layer 1
10
41.645500
20
33.212500
11
41.608000
21
33.175000
0
LINE
8
Layer 1
10
41.608000
20
33.175000
11
41.608000
21
31.575000
0
LINE
8
Layer 1
10
41.608000
20
31.575000
11
41.708000
21
31.475000
0
LINE
8
Layer 1
10
41.708000
20
31.475000
11
45.108000
21
31.475000
0
LINE
8
Layer 1
10
45.108000
20
31.475000
11
45.208000
21
31.575000
0
LINE
8
Layer 1
10
45.208000
20
31.575000
11
45.208000
21
33.175000
0
LINE
8
Layer 1
10
45.208000
20
33.175000
11
45.170500
21
33.212500
0
LINE
8
Layer 1
10
45.170500
20
33.212500
11
45.208000
21
33.175000
0
LINE
8
Layer 1
10
45.208000
20
33.175000
11
48.408000
21
33.175000
0
LINE
8
Layer 1
10
48.408000
20
33.175000
11
48.445500
21
33.212500
0
LINE
8
Layer 1
10
48.445500
20
33.212500
11
48.408000
21
33.175000
0
LINE
8
Layer 1
10
48.408000
20
33.175000
11
48.408000
21
31.575000
0
LINE
8
Layer 1
10
48.408000
20
31.575000
11
48.508000
21
31.475000
0
LINE
8
Layer 1
10
48.508000
20
31.475000
11
51.908000
21
31.475000
0
LINE
8
Layer 1
10
51.908000
20
31.475000
11
52.008000
21
31.575000
0
LINE
8
Layer 1
10
52.008000
20
31.575000
11
52.008000
21
33.175000
0
LINE
8
Layer 1
10
52.008000
20
33.175000
11
51.970500
21
33.212500
0
LINE
8
Layer 1
10
51.970500
20
33.212500
11
52.008000
21
33.175000
0
LINE
8
Layer 1
10
52.008000
20
33.175000
11
55.208000
21
33.175000
0
LINE
8
Layer 1
10
55.208000
20
33.175000
11
55.245500
21
33.212500
0
LINE
8
Layer 1
10
55.245500
20
33.212500
11
55.208000
21
33.175000
0
LINE
8
Layer 1
10
55.208000
20
33.175000
11
55.208000
21
31.575000
0
LINE
8
Layer 1
10
55.208000
20
31.575000
11
55.308000
21
31.475000
0
LINE
8
Layer 1
10
55.308000
20
31.475000
11
58.708000
21
31.475000
0
LINE
8
Layer 1
10
58.708000
20
31.475000
11
58.808000
21
31.575000
0
LINE
8
Layer 1
10
58.808000
20
31.575000
11
58.808000
21
33.175000
0
LINE
8
Layer 1
10
58.808000
20
33.175000
11
58.770500
21
33.212500
0
LINE
8
Layer 1
10
58.770500
20
33.212500
11
58.808000
21
33.175000
0
LINE
8
Layer 1
10
58.808000
20
33.175000
11
62.008000
21
33.175000
0
LINE
8
Layer 1
10
62.008000
20
33.175000
11
62.045500
21
33.212500
0
LINE
8
Layer 1
10
62.045500
20
33.212500
11
62.008000
21
33.175000
0
LINE
8
Layer 1
10
62.008000
20
33.175000
11
62.008000
21
31.575000
0
LINE
8
Layer 1
10
62.008000
20
31.575000
11
62.108000
21
31.475000
0
LINE
8
Layer 1
10
62.108000
20
31.475000
11
66.208000
21
31.475000
0
LINE
8
Layer 1
10
66.208000
20
31.475000
11
81.916000
21
31.475000
0
LINE
8
Layer 1
10
81.916000
20
31.475000
11
86.016000
21
31.475000
0
LINE
8
Layer 1
10
86.016000
20
31.475000
11
86.116000
21
31.575000
0
LINE
8
Layer 1
10
86.116000
20
31.575000
11
86.116000
21
33.175000
0
LINE
8
Layer 1
10
86.116000
20
33.175000
11
86.078500
21
33.212500
0
LINE
8
Layer 1
10
86.078500
20
33.212500
11
86.116000
21
33.175000
0
LINE
8
Layer 1
10
86.116000
20
33.175000
11
89.316000
21
33.175000
0
LINE
8
Layer 1
10
89.316000
20
33.175000
11
89.353500
21
33.212500
0
LINE
8
Layer 1
10
89.353500
20
33.212500
11
89.316000
21
33.175000
0
LINE
8
Layer 1
10
89.316000
20
33.175000
11
89.316000
21
31.575000
0
LINE
8
Layer 1
10
89.316000
20
31.575000
11
89.416000
21
31.475000
0
LINE
8
Layer 1
10
89.416000
20
31.475000
11
92.816000
21
31.475000
0
LINE
8
Layer 1
10
92.816000
20
31.475000
11
92.916000
21
31.575000
0
LINE
8
Layer 1
10
92.916000
20
31.575000
11
92.916000
21
33.175000
0
LINE
8
Layer 1
10
92.916000
20
33.175000
11
92.878500
21
33.212500
0
LINE
8
Layer 1
10
92.878500
20
33.212500
11
92.916000
21
33.175000
0
LINE
8
Layer 1
10
92.916000
20
33.175000
11
96.116000
21
33.175000
0
LINE
8
Layer 1
10
96.116000
20
33.175000
11
96.153500
21
33.212500
0
LINE
8
Layer 1
10
96.153500
20
33.212500
11
96.116000
21
33.175000
0
LINE
8
Layer 1
10
96.116000
20
33.175000
11
96.116000
21
31.575000
0
LINE
8
Layer 1
10
96.116000
20
31.575000
11
96.216000
21
31.475000
0
LINE
8
Layer 1
10
96.216000
20
31.475000
11
99.616000
21
31.475000
0
LINE
8
Layer 1
10
99.616000
20
31.475000
11
99.716000
21
31.575000
0
LINE
8
Layer 1
10
99.716000
20
31.575000
11
99.716000
21
33.175000
0
LINE
8
Layer 1
10
99.716000
20
33.175000
11
99.678500
21
33.212500
0
LINE
8
Layer 1
10
99.678500
20
33.212500
11
99.716000
21
33.175000
0
LINE
8
Layer 1
10
99.716000
20
33.175000
11
102.916000
21
33.175000
0
LINE
8
Layer 1
10
102.916000
20
33.175000
11
102.953500
21
33.212500
0
LINE
8
Layer 1
10
102.953500
20
33.212500
11
102.916000
21
33.175000
0
LINE
8
Layer 1
10
102.916000
20
33.175000
11
102.916000
21
31.575000
0
LINE
8
Layer 1
10
102.916000
20
31.575000
11
103.016000
21
31.475000
0
LINE
8
Layer 1
10
103.016000
20
31.475000
11
106.416000
21
31.475000
0
LINE
8
Layer 1
10
106.416000
20
31.475000
11
106.516000
21
31.575000
0
LINE
8
Layer 1
10
106.516000
20
31.575000
11
106.516000
21
33.175000
0
LINE
8
Layer 1
10
106.516000
20
33.175000
11
106.478500
21
33.212500
0
LINE
8
Layer 1
10
106.478500
20
33.212500
11
106.516000
21
33.175000
0
LINE
8
Layer 1
10
106.516000
20
33.175000
11
109.716000
21
33.175000
0
LINE
8
Layer 1
10
109.716000
20
33.175000
11
109.753500
21
33.212500
0
LINE
8
Layer 1
10
109.753500
20
33.212500
11
109.716000
21
33.175000
0
LINE
8
Layer 1
10
109.716000
20
33.175000
11
109.716000
21
31.575000
0
LINE
8
Layer 1
10
109.716000
20
31.575000
11
109.816000
21
31.475000
0
LINE
8
Layer 1
10
109.816000
20
31.475000
11
113.916000
21
31.475000
0
LINE
8
Layer 1
10
113.916000
20
31.475000
11
129.624000
21
31.475000
0
LINE
8
Layer 1
10
129.624000
20
31.475000
11
161.624000
21
31.475000
0
LINE
8
Layer 1
10
161.624000
20
31.475000
11
177.332000
21
31.475000
0
LINE
8
Layer 1
10
177.332000
20
31.475000
11
177.432000
21
31.575000
0
LINE
8
Layer 1
10
177.432000
20
31.575000
11
177.432000
21
33.345000
0
LINE
8
Layer 1
10
177.432000
20
33.345000
11
177.394500
21
33.382500
0
LINE
8
Layer 1
10
177.394500
20
33.382500
11
177.432000
21
33.345000
0
LINE
8
Layer 1
10
177.432000
20
33.345000
11
184.372000
21
33.345000
0
LINE
8
Layer 1
10
184.372000
20
33.345000
11
184.409500
21
33.382500
0
LINE
8
Layer 1
10
184.409500
20
33.382500
11
184.372000
21
33.345000
0
LINE
8
Layer 1
10
184.372000
20
33.345000
11
184.372000
21
31.575000
0
LINE
8
Layer 1
10
184.372000
20
31.575000
11
184.442000
21
31.312000
0
LINE
8
Layer 1
10
184.442000
20
31.312000
11
184.634000
21
31.120000
0
LINE
8
Layer 1
10
184.634000
20
31.120000
11
184.897000
21
31.050000
0
LINE
8
Layer 1
10
184.897000
20
31.050000
11
185.122000
21
31.110000
0
LINE
8
Layer 1
10
185.122000
20
31.110000
11
185.287000
21
31.275000
0
LINE
8
Layer 1
10
185.287000
20
31.275000
11
185.347000
21
31.501000
0
LINE
8
Layer 1
10
185.347000
20
31.501000
11
185.381000
21
31.626000
0
LINE
8
Layer 1
10
185.381000
20
31.626000
11
185.473000
21
31.718000
0
LINE
8
Layer 1
10
185.473000
20
31.718000
11
185.598000
21
31.751000
0
LINE
8
Layer 1
10
185.598000
20
31.751000
11
185.723000
21
31.718000
0
LINE
8
Layer 1
10
185.723000
20
31.718000
11
185.815000
21
31.626000
0
LINE
8
Layer 1
10
185.815000
20
31.626000
11
185.849000
21
31.501000
0
LINE
8
Layer 1
10
185.849000
20
31.501000
11
185.909000
21
31.275000
0
LINE
8
Layer 1
10
185.909000
20
31.275000
11
186.074000
21
31.110000
0
LINE
8
Layer 1
10
186.074000
20
31.110000
11
186.299000
21
31.050000
0
LINE
8
Layer 1
10
186.299000
20
31.050000
11
186.525000
21
31.110000
0
LINE
8
Layer 1
10
186.525000
20
31.110000
11
186.690000
21
31.275000
0
LINE
8
Layer 1
10
186.690000
20
31.275000
11
186.750000
21
31.501000
0
LINE
8
Layer 1
10
186.750000
20
31.501000
11
186.784000
21
31.626000
0
LINE
8
Layer 1
10
186.784000
20
31.626000
11
186.875000
21
31.718000
0
LINE
8
Layer 1
10
186.875000
20
31.718000
11
187.001000
21
31.751000
0
LINE
8
Layer 1
10
187.001000
20
31.751000
11
187.126000
21
31.718000
0
LINE
8
Layer 1
10
187.126000
20
31.718000
11
187.218000
21
31.626000
0
LINE
8
Layer 1
10
187.218000
20
31.626000
11
187.251000
21
31.501000
0
LINE
8
Layer 1
10
187.251000
20
31.501000
11
187.312000
21
31.275000
0
LINE
8
Layer 1
10
187.312000
20
31.275000
11
187.477000
21
31.110000
0
LINE
8
Layer 1
10
187.477000
20
31.110000
11
187.702000
21
31.050000
0
LINE
8
Layer 1
10
187.702000
20
31.050000
11
187.927000
21
31.110000
0
LINE
8
Layer 1
10
187.927000
20
31.110000
11
188.092000
21
31.275000
0
LINE
8
Layer 1
10
188.092000
20
31.275000
11
188.152000
21
31.501000
0
LINE
8
Layer 1
10
188.152000
20
31.501000
11
188.186000
21
31.626000
0
LINE
8
Layer 1
10
188.186000
20
31.626000
11
188.278000
21
31.718000
0
LINE
8
Layer 1
10
188.278000
20
31.718000
11
188.403000
21
31.751000
0
LINE
8
Layer 1
10
188.403000
20
31.751000
11
188.528000
21
31.718000
0
LINE
8
Layer 1
10
188.528000
20
31.718000
11
188.620000
21
31.626000
0
LINE
8
Layer 1
10
188.620000
20
31.626000
11
188.654000
21
31.501000
0
LINE
8
Layer 1
10
188.654000
20
31.501000
11
188.714000
21
31.275000
0
LINE
8
Layer 1
10
188.714000
20
31.275000
11
188.879000
21
31.110000
0
LINE
8
Layer 1
10
188.879000
20
31.110000
11
189.104000
21
31.050000
0
LINE
8
Layer 1
10
189.104000
20
31.050000
11
189.330000
21
31.110000
0
LINE
8
Layer 1
10
189.330000
20
31.110000
11
189.495000
21
31.275000
0
LINE
8
Layer 1
10
189.495000
20
31.275000
11
189.555000
21
31.501000
0
LINE
8
Layer 1
10
189.555000
20
31.501000
11
189.589000
21
31.626000
0
LINE
8
Layer 1
10
189.589000
20
31.626000
11
189.680000
21
31.718000
0
LINE
8
Layer 1
10
189.680000
20
31.718000
11
189.806000
21
31.751000
0
LINE
8
Layer 1
10
189.806000
20
31.751000
11
189.931000
21
31.718000
0
LINE
8
Layer 1
10
189.931000
20
31.718000
11
190.023000
21
31.626000
0
LINE
8
Layer 1
10
190.023000
20
31.626000
11
190.056000
21
31.501000
0
LINE
8
Layer 1
10
190.056000
20
31.501000
11
190.117000
21
31.275000
0
LINE
8
Layer 1
10
190.117000
20
31.275000
11
190.282000
21
31.110000
0
LINE
8
Layer 1
10
190.282000
20
31.110000
11
190.507000
21
31.050000
0
LINE
8
Layer 1
10
190.507000
20
31.050000
11
190.769000
21
31.120000
0
LINE
8
Layer 1
10
190.769000
20
31.120000
11
190.962000
21
31.312000
0
LINE
8
Layer 1
10
190.962000
20
31.312000
11
191.032000
21
31.575000
0
LINE
8
Layer 1
10
191.032000
20
31.575000
11
191.032000
21
64.975000
0
LINE
8
Layer 1
10
191.032000
20
64.975000
11
190.962000
21
65.237000
0
LINE
8
Layer 1
10
190.962000
20
65.237000
11
190.769000
21
65.430000
0
LINE
8
Layer 1
10
190.769000
20
65.430000
11
190.507000
21
65.500000
0
LINE
8
Layer 1
10
190.507000
20
65.500000
11
190.282000
21
65.440000
0
LINE
8
Layer 1
10
190.282000
20
65.440000
11
190.117000
21
65.275000
0
LINE
8
Layer 1
10
190.117000
20
65.275000
11
190.056000
21
65.049000
0
LINE
8
Layer 1
10
190.056000
20
65.049000
11
190.023000
21
64.924000
0
LINE
8
Layer 1
10
190.023000
20
64.924000
11
189.931000
21
64.832000
0
LINE
8
Layer 1
10
189.931000
20
64.832000
11
189.806000
21
64.799000
0
LINE
8
Layer 1
10
189.806000
20
64.799000
11
189.680000
21
64.832000
0
LINE
8
Layer 1
10
189.680000
20
64.832000
11
189.589000
21
64.924000
0
LINE
8
Layer 1
10
189.589000
20
64.924000
11
189.555000
21
65.049000
0
LINE
8
Layer 1
10
189.555000
20
65.049000
11
189.495000
21
65.275000
0
LINE
8
Layer 1
10
189.495000
20
65.275000
11
189.330000
21
65.440000
0
LINE
8
Layer 1
10
189.330000
20
65.440000
11
189.104000
21
65.500000
0
LINE
8
Layer 1
10
189.104000
20
65.500000
11
188.879000
21
65.440000
0
LINE
8
Layer 1
10
188.879000
20
65.440000
11
188.714000
21
65.275000
0
LINE
8
Layer 1
10
188.714000
20
65.275000
11
188.654000
21
65.049000
0
LINE
8
Layer 1
10
188.654000
20
65.049000
11
188.620000
21
64.924000
0
LINE
8
Layer 1
10
188.620000
20
64.924000
11
188.528000
21
64.832000
0
LINE
8
Layer 1
10
188.528000
20
64.832000
11
188.403000
21
64.799000
0
LINE
8
Layer 1
10
188.403000
20
64.799000
11
188.278000
21
64.832000
0
LINE
8
Layer 1
10
188.278000
20
64.832000
11
188.186000
21
64.924000
0
LINE
8
Layer 1
10
188.186000
20
64.924000
11
188.152000
21
65.049000
0
LINE
8
Layer 1
10
188.152000
20
65.049000
11
188.092000
21
65.275000
0
LINE
8
Layer 1
10
188.092000
20
65.275000
11
187.927000
21
65.440000
0
LINE
8
Layer 1
10
187.927000
20
65.440000
11
187.702000
21
65.500000
0
LINE
8
Layer 1
10
187.702000
20
65.500000
11
187.477000
21
65.440000
0
LINE
8
Layer 1
10
187.477000
20
65.440000
11
187.312000
21
65.275000
0
LINE
8
Layer 1
10
187.312000
20
65.275000
11
187.251000
21
65.049000
0
LINE
8
Layer 1
10
187.251000
20
65.049000
11
187.218000
21
64.924000
0
LINE
8
Layer 1
10
187.218000
20
64.924000
11
187.126000
21
64.832000
0
LINE
8
Layer 1
10
187.126000
20
64.832000
11
187.001000
21
64.799000
0
LINE
8
Layer 1
10
187.001000
20
64.799000
11
186.875000
21
64.832000
0
LINE
8
Layer 1
10
186.875000
20
64.832000
11
186.784000
21
64.924000
0
LINE
8
Layer 1
10
186.784000
20
64.924000
11
186.750000
21
65.049000
0
LINE
8
Layer 1
10
186.750000
20
65.049000
11
186.690000
21
65.275000
0
LINE
8
Layer 1
10
186.690000
20
65.275000
11
186.525000
21
65.440000
0
LINE
8
Layer 1
10
186.525000
20
65.440000
11
186.299000
21
65.500000
0
LINE
8
Layer 1
10
186.299000
20
65.500000
11
186.074000
21
65.440000
0
LINE
8
Layer 1
10
186.074000
20
65.440000
11
185.909000
21
65.275000
0
LINE
8
Layer 1
10
185.909000
20
65.275000
11
185.849000
21
65.049000
0
LINE
8
Layer 1
10
185.849000
20
65.049000
11
185.815000
21
64.924000
0
LINE
8
Layer 1
10
185.815000
20
64.924000
11
185.723000
21
64.832000
0
LINE
8
Layer 1
10
185.723000
20
64.832000
11
185.598000
21
64.799000
0
LINE
8
Layer 1
10
185.598000
20
64.799000
11
185.473000
21
64.832000
0
LINE
8
Layer 1
10
185.473000
20
64.832000
11
185.381000
21
64.924000
0
LINE
8
Layer 1
10
185.381000
20
64.924000
11
185.347000
21
65.049000
0
LINE
8
Layer 1
10
185.347000
20
65.049000
11
185.287000
21
65.275000
0
LINE
8
Layer 1
10
185.287000
20
65.275000
11
185.122000
21
65.440000
0
LINE
8
Layer 1
10
185.122000
20
65.440000
11
184.897000
21
65.500000
0
LINE
8
Layer 1
10
184.897000
20
65.500000
11
184.634000
21
65.430000
0
LINE
8
Layer 1
10
184.634000
20
65.430000
11
184.442000
21
65.237000
0
LINE
8
Layer 1
10
184.442000
20
65.237000
11
184.372000
21
64.975000
0
LINE
8
Layer 1
10
184.372000
20
64.975000
11
184.372000
21
63.205000
0
LINE
8
Layer 1
10
184.372000
20
63.205000
11
184.409500
21
63.167500
0
LINE
8
Layer 1
10
184.409500
20
63.167500
11
184.372000
21
63.205000
0
LINE
8
Layer 1
10
184.372000
20
63.205000
11
177.432000
21
63.205000
0
LINE
8
Layer 1
10
177.432000
20
63.205000
11
177.394500
21
63.167500
0
LINE
8
Layer 1
10
177.394500
20
63.167500
11
177.432000
21
63.205000
0
LINE
8
Layer 1
10
177.432000
20
63.205000
11
177.432000
21
64.975000
0
LINE
8
Layer 1
10
177.432000
20
64.975000
11
177.332000
21
65.075000
0
LINE
8
Layer 1
10
177.332000
20
65.075000
11
161.624000
21
65.075000
0
LINE
8
Layer 1
10
161.624000
20
65.075000
11
129.624000
21
65.075000
0
LINE
8
Layer 1
10
129.624000
20
65.075000
11
113.916000
21
65.075000
0
LINE
8
Layer 1
10
113.916000
20
65.075000
11
109.816000
21
65.075000
0
LINE
8
Layer 1
10
109.816000
20
65.075000
11
109.716000
21
64.975000
0
LINE
8
Layer 1
10
109.716000
20
64.975000
11
109.716000
21
63.375000
0
LINE
8
Layer 1
10
109.716000
20
63.375000
11
109.753500
21
63.337500
0
LINE
8
Layer 1
10
109.753500
20
63.337500
11
109.716000
21
63.375000
0
LINE
8
Layer 1
10
109.716000
20
63.375000
11
106.516000
21
63.375000
0
LINE
8
Layer 1
10
106.516000
20
63.375000
11
106.478500
21
63.337500
0
LINE
8
Layer 1
10
106.478500
20
63.337500
11
106.516000
21
63.375000
0
LINE
8
Layer 1
10
106.516000
20
63.375000
11
106.516000
21
64.975000
0
LINE
8
Layer 1
10
106.516000
20
64.975000
11
106.416000
21
65.075000
0
LINE
8
Layer 1
10
106.416000
20
65.075000
11
103.016000
21
65.075000
0
LINE
8
Layer 1
10
103.016000
20
65.075000
11
102.916000
21
64.975000
0
LINE
8
Layer 1
10
102.916000
20
64.975000
11
102.916000
21
63.375000
0
LINE
8
Layer 1
10
102.916000
20
63.375000
11
102.953500
21
63.337500
0
LINE
8
Layer 1
10
102.953500
20
63.337500
11
102.916000
21
63.375000
0
LINE
8
Layer 1
10
102.916000
20
63.375000
11
99.716000
21
63.375000
0
LINE
8
Layer 1
10
99.716000
20
63.375000
11
99.678500
21
63.337500
0
LINE
8
Layer 1
10
99.678500
20
63.337500
11
99.716000
21
63.375000
0
LINE
8
Layer 1
10
99.716000
20
63.375000
11
99.716000
21
64.975000
0
LINE
8
Layer 1
10
99.716000
20
64.975000
11
99.616000
21
65.075000
0
LINE
8
Layer 1
10
99.616000
20
65.075000
11
96.216000
21
65.075000
0
LINE
8
Layer 1
10
96.216000
20
65.075000
11
96.116000
21
64.975000
0
LINE
8
Layer 1
10
96.116000
20
64.975000
11
96.116000
21
63.375000
0
LINE
8
Layer 1
10
96.116000
20
63.375000
11
96.153500
21
63.337500
0
LINE
8
Layer 1
10
96.153500
20
63.337500
11
96.116000
21
63.375000
0
LINE
8
Layer 1
10
96.116000
20
63.375000
11
92.916000
21
63.375000
0
LINE
8
Layer 1
10
92.916000
20
63.375000
11
92.878500
21
63.337500
0
LINE
8
Layer 1
10
92.878500
20
63.337500
11
92.916000
21
63.375000
0
LINE
8
Layer 1
10
92.916000
20
63.375000
11
92.916000
21
64.975000
0
LINE
8
Layer 1
10
92.916000
20
64.975000
11
92.816000
21
65.075000
0
LINE
8
Layer 1
10
92.816000
20
65.075000
11
89.416000
21
65.075000
0
LINE
8
Layer 1
10
89.416000
20
65.075000
11
89.316000
21
64.975000
0
LINE
8
Layer 1
10
89.316000
20
64.975000
11
89.316000
21
63.375000
0
LINE
8
Layer 1
10
89.316000
20
63.375000
11
89.353500
21
63.337500
0
LINE
8
Layer 1
10
89.353500
20
63.337500
11
89.316000
21
63.375000
0
LINE
8
Layer 1
10
89.316000
20
63.375000
11
86.116000
21
63.375000
0
LINE
8
Layer 1
10
86.116000
20
63.375000
11
86.078500
21
63.337500
0
LINE
8
Layer 1
10
86.078500
20
63.337500
11
86.116000
21
63.375000
0
LINE
8
Layer 1
10
86.116000
20
63.375000
11
86.116000
21
64.975000
0
LINE
8
Layer 1
10
86.116000
20
64.975000
11
86.016000
21
65.075000
0
LINE
8
Layer 1
10
86.016000
20
65.075000
11
81.916000
21
65.075000
0
LINE
8
Layer 1
10
81.916000
20
65.075000
11
66.208000
21
65.075000
0
LINE
8
Layer 1
10
66.208000
20
65.075000
11
62.108000
21
65.075000
0
LINE
8
Layer 1
10
62.108000
20
65.075000
11
62.008000
21
64.975000
0
LINE
8
Layer 1
10
62.008000
20
64.975000
11
62.008000
21
63.375000
0
LINE
8
Layer 1
10
62.008000
20
63.375000
11
62.045500
21
63.337500
0
LINE
8
Layer 1
10
62.045500
20
63.337500
11
62.008000
21
63.375000
0
LINE
8
Layer 1
10
62.008000
20
63.375000
11
58.808000
21
63.375000
0
LINE
8
Layer 1
10
58.808000
20
63.375000
11
58.770500
21
63.337500
0
LINE
8
Layer 1
10
58.770500
20
63.337500
11
58.808000
21
63.375000
0
LINE
8
Layer 1
10
58.808000
20
63.375000
11
58.808000
21
64.975000
0
LINE
8
Layer 1
10
58.808000
20
64.975000
11
58.708000
21
65.075000
0
LINE
8
Layer 1
10
58.708000
20
65.075000
11
55.308000
21
65.075000
0
LINE
8
Layer 1
10
55.308000
20
65.075000
11
55.208000
21
64.975000
0
LINE
8
Layer 1
10
55.208000
20
64.975000
11
55.208000
21
63.375000
0
LINE
8
Layer 1
10
55.208000
20
63.375000
11
55.245500
21
63.337500
0
LINE
8
Layer 1
10
55.245500
20
63.337500
11
55.208000
21
63.375000
0
LINE
8
Layer 1
10
55.208000
20
63.375000
11
52.008000
21
63.375000
0
LINE
8
Layer 1
10
52.008000
20
63.375000
11
51.970500
21
63.337500
0
LINE
8
Layer 1
10
51.970500
20
63.337500
11
52.008000
21
63.375000
0
LINE
8
Layer 1
10
52.008000
20
63.375000
11
52.008000
21
64.975000
0
LINE
8
Layer 1
10
52.008000
20
64.975000
11
51.908000
21
65.075000
0
LINE
8
Layer 1
10
51.908000
20
65.075000
11
48.508000
21
65.075000
0
LINE
8
Layer 1
10
48.508000
20
65.075000
11
48.408000
21
64.975000
0
LINE
8
Layer 1
10
48.408000
20
64.975000
11
48.408000
21
63.375000
0
LINE
8
Layer 1
10
48.408000
20
63.375000
11
48.445500
21
63.337500
0
LINE
8
Layer 1
10
48.445500
20
63.337500
11
48.408000
21
63.375000
0
LINE
8
Layer 1
10
48.408000
20
63.375000
11
45.208000
21
63.375000
0
LINE
8
Layer 1
10
45.208000
20
63.375000
11
45.170500
21
63.337500
0
LINE
8
Layer 1
10
45.170500
20
63.337500
11
45.208000
21
63.375000
0
LINE
8
Layer 1
10
45.208000
20
63.375000
11
45.208000
21
64.975000
0
LINE
8
Layer 1
10
45.208000
20
64.975000
11
45.108000
21
65.075000
0
LINE
8
Layer 1
10
45.108000
20
65.075000
11
41.708000
21
65.075000
0
LINE
8
Layer 1
10
41.708000
20
65.075000
11
41.608000
21
64.975000
0
LINE
8
Layer 1
10
41.608000
20
64.975000
11
41.608000
21
63.375000
0
LINE
8
Layer 1
10
41.608000
20
63.375000
11
41.645500
21
63.337500
0
LINE
8
Layer 1
10
41.645500
20
63.337500
11
41.608000
21
63.375000
0
LINE
8
Layer 1
10
41.608000
20
63.375000
11
38.408000
21
63.375000
0
LINE
8
Layer 1
10
38.408000
20
63.375000
11
38.370500
21
63.337500
0
LINE
8
Layer 1
10
38.370500
20
63.337500
11
38.408000
21
63.375000
0
LINE
8
Layer 1
10
38.408000
20
63.375000
11
38.408000
21
64.975000
0
LINE
8
Layer 1
10
38.408000
20
64.975000
11
38.308000
21
65.075000
0
LINE
8
Layer 1
10
38.308000
20
65.075000
11
34.208000
21
65.075000
0
LINE
8
Layer 1
10
34.208000
20
65.075000
11
18.500000
21
65.075000
0
LINE
8
Layer 1
10
18.500000
20
65.075000
11
14.400000
21
65.075000
0
LINE
8
Layer 1
10
14.400000
20
65.075000
11
14.300000
21
64.975000
0
LINE
8
Layer 1
10
14.300000
20
64.975000
11
14.300000
21
63.375000
0
LINE
8
Layer 1
10
14.300000
20
63.375000
11
14.337500
21
63.337500
0
LINE
8
Layer 1
10
14.337500
20
63.337500
11
14.300000
21
63.375000
0
LINE
8
Layer 1
10
14.300000
20
63.375000
11
11.100000
21
63.375000
0
LINE
8
Layer 1
10
11.100000
20
63.375000
11
11.062500
21
63.337500
0
LINE
8
Layer 1
10
11.062500
20
63.337500
11
11.100000
21
63.375000
0
LINE
8
Layer 1
10
11.100000
20
63.375000
11
11.100000
21
64.975000
0
LINE
8
Layer 1
10
11.100000
20
64.975000
11
11.000000
21
65.075000
0
LINE
8
Layer 1
10
11.000000
20
65.075000
11
7.600000
21
65.075000
0
LINE
8
Layer 1
10
7.600000
20
65.075000
11
7.500000
21
64.975000
0
LINE
8
Layer 1
10
7.500000
20
64.975000
11
7.500000
21
63.375000
0
LINE
8
Layer 1
10
7.500000
20
63.375000
11
7.537500
21
63.337500
0
LINE
8
Layer 1
10
7.537500
20
63.337500
11
7.500000
21
63.375000
0
LINE
8
Layer 1
10
7.500000
20
63.375000
11
4.300000
21
63.375000
0
LINE
8
Layer 1
10
4.300000
20
63.375000
11
4.262500
21
63.337500
0
LINE
8
Layer 1
10
4.262500
20
63.337500
11
4.300000
21
63.375000
0
LINE
8
Layer 1
10
4.300000
20
63.375000
11
4.300000
21
64.975000
0
LINE
8
Layer 1
10
4.300000
20
64.975000
11
4.200000
21
65.075000
0
LINE
8
Layer 1
10
4.200000
20
65.075000
11
0.100000
21
65.075000
0
LINE
8
Layer 1
10
0.100000
20
65.075000
11
0.000000
21
64.975000
0
LINE
8
Layer 1
10
0.000000
20
64.975000
11
0.000000
21
31.575000
0
LINE
8
Layer 1
10
0.000000
20
31.575000
11
0.100000
21
31.475000
0
LINE
8
Layer 1
10
0.100000
20
31.475000
11
0.100000
21
31.475000
0
LINE
8
Layer 1
10
14.980200
20
75.750000
11
14.980200
21
75.748000
0
LINE
8
Layer 1
10
14.980200
20
75.748000
11
14.925180
21
75.748000
0
LINE
8
Layer 1
10
14.925180
20
75.748000
11
14.331619
21
75.517304
0
LINE
8
Layer 1
10
14.331619
20
75.517304
11
13.854943
21
74.954476
0
LINE
8
Layer 1
10
13.854943
20
74.954476
11
13.542741
21
74.142453
0
LINE
8
Layer 1
10
13.542741
20
74.142453
11
13.442600
21
73.164170
0
LINE
8
Layer 1
10
13.442600
20
73.164170
11
13.578499
21
72.219338
0
LINE
8
Layer 1
10
13.578499
20
72.219338
11
13.911441
21
71.453031
0
LINE
8
Layer 1
10
13.911441
20
71.453031
11
14.394363
21
70.939101
0
LINE
8
Layer 1
10
14.394363
20
70.939101
11
14.980200
21
70.751400
0
LINE
8
Layer 1
10
14.980200
20
70.751400
11
14.980200
21
70.749400
0
LINE
8
Layer 1
10
14.980200
20
70.749400
11
19.903000
21
70.749400
0
LINE
8
Layer 1
10
19.903000
20
70.749400
11
19.903000
21
70.751400
0
LINE
8
Layer 1
10
19.903000
20
70.751400
11
19.953250
21
70.750890
0
LINE
8
Layer 1
10
19.953250
20
70.750890
11
20.547260
21
70.978491
0
LINE
8
Layer 1
10
20.547260
20
70.978491
11
21.025042
21
71.538826
0
LINE
8
Layer 1
10
21.025042
20
71.538826
11
21.338845
21
72.349211
0
LINE
8
Layer 1
10
21.338845
20
72.349211
11
21.440920
21
73.326960
0
LINE
8
Layer 1
10
21.440920
20
73.326960
11
21.440603
21
73.342960
0
LINE
8
Layer 1
10
21.440603
20
73.342960
11
21.303400
21
74.285321
0
LINE
8
Layer 1
10
21.303400
20
74.285321
11
20.970158
21
75.049145
0
LINE
8
Layer 1
10
20.970158
20
75.049145
11
20.487738
21
75.561135
0
LINE
8
Layer 1
10
20.487738
20
75.561135
11
19.903003
21
75.747990
0
LINE
8
Layer 1
10
19.903003
20
75.747990
11
19.903000
21
75.750000
0
LINE
8
Layer 1
10
19.903000
20
75.750000
11
14.980200
21
75.750000
0
LINE
8
Layer 1
10
36.242400
20
78.395800
11
36.242400
21
78.393800
0
LINE
8
Layer 1
10
36.242400
20
78.393800
11
36.146110
21
78.393800
0
LINE
8
Layer 1
10
36.146110
20
78.393800
11
35.107380
21
78.163132
0
LINE
8
Layer 1
10
35.107380
20
78.163132
11
34.273199
21
77.600372
0
LINE
8
Layer 1
10
34.273199
20
77.600372
11
33.726847
21
76.788446
0
LINE
8
Layer 1
10
33.726847
20
76.788446
11
33.551600
21
75.810280
0
LINE
8
Layer 1
10
33.551600
20
75.810280
11
33.789422
21
74.865562
0
LINE
8
Layer 1
10
33.789422
20
74.865562
11
34.372069
21
74.099347
0
LINE
8
Layer 1
10
34.372069
20
74.099347
11
35.217178
21
73.585479
0
LINE
8
Layer 1
10
35.217178
20
73.585479
11
36.242390
21
73.397800
0
LINE
8
Layer 1
10
36.242390
20
73.397800
11
36.242400
21
73.395800
0
LINE
8
Layer 1
10
36.242400
20
73.395800
11
44.857400
21
73.395800
0
LINE
8
Layer 1
10
44.857400
20
73.395800
11
44.857400
21
73.397800
0
LINE
8
Layer 1
10
44.857400
20
73.397800
11
44.945340
21
73.397290
0
LINE
8
Layer 1
10
44.945340
20
73.397290
11
45.984856
21
73.624862
0
LINE
8
Layer 1
10
45.984856
20
73.624862
11
46.820973
21
74.185130
0
LINE
8
Layer 1
10
46.820973
20
74.185130
11
47.370129
21
74.995417
0
LINE
8
Layer 1
10
47.370129
20
74.995417
11
47.548760
21
75.973050
0
LINE
8
Layer 1
10
47.548760
20
75.973050
11
47.548206
21
75.989050
0
LINE
8
Layer 1
10
47.548206
20
75.989050
11
47.308101
21
76.931297
0
LINE
8
Layer 1
10
47.308101
20
76.931297
11
46.724929
21
77.695029
0
LINE
8
Layer 1
10
46.724929
20
77.695029
11
45.880698
21
78.206956
0
LINE
8
Layer 1
10
45.880698
20
78.206956
11
44.857416
21
78.393790
0
LINE
8
Layer 1
10
44.857416
20
78.393790
11
44.857400
21
78.395800
0
LINE
8
Layer 1
10
44.857400
20
78.395800
11
36.242400
21
78.395800
0
LINE
8
Layer 1
10
7.358310
20
101.751000
11
7.360310
21
101.751000
0
LINE
8
Layer 1
10
7.360310
20
101.751000
11
7.360310
21
101.654710
0
LINE
8
Layer 1
10
7.360310
20
101.654710
11
7.590978
21
100.615980
0
LINE
8
Layer 1
10
7.590978
20
100.615980
11
8.153738
21
99.781799
0
LINE
8
Layer 1
10
8.153738
20
99.781799
11
8.965664
21
99.235447
0
LINE
8
Layer 1
10
8.965664
20
99.235447
11
9.943830
21
99.060200
0
LINE
8
Layer 1
10
9.943830
20
99.060200
11
10.888548
21
99.298022
0
LINE
8
Layer 1
10
10.888548
20
99.298022
11
11.654763
21
99.880669
0
LINE
8
Layer 1
10
11.654763
20
99.880669
11
12.168631
21
100.725778
0
LINE
8
Layer 1
10
12.168631
20
100.725778
11
12.356310
21
101.750990
0
LINE
8
Layer 1
10
12.356310
20
101.750990
11
12.358300
21
101.751000
0
LINE
8
Layer 1
10
12.358300
20
101.751000
11
12.358300
21
110.366000
0
LINE
8
Layer 1
10
12.358300
20
110.366000
11
12.356300
21
110.366000
0
LINE
8
Layer 1
10
12.356300
20
110.366000
11
12.356810
21
110.453940
0
LINE
8
Layer 1
10
12.356810
20
110.453940
11
12.129235
21
111.493452
0
LINE
8
Layer 1
10
12.129235
20
111.493452
11
11.568967
21
112.329566
0
LINE
8
Layer 1
10
11.568967
20
112.329566
11
10.758680
21
112.878720
0
LINE
8
Layer 1
10
10.758680
20
112.878720
11
9.781050
21
113.057350
0
LINE
8
Layer 1
10
9.781050
20
113.057350
11
9.765050
21
113.056796
0
LINE
8
Layer 1
10
9.765050
20
113.056796
11
8.822805
21
112.816687
0
LINE
8
Layer 1
10
8.822805
20
112.816687
11
8.059076
21
112.233513
0
LINE
8
Layer 1
10
8.059076
20
112.233513
11
7.547151
21
111.389282
0
LINE
8
Layer 1
10
7.547151
20
111.389282
11
7.360320
21
110.366000
0
LINE
8
Layer 1
10
7.360320
20
110.366000
11
7.358320
21
110.366000
0
LINE
8
Layer 1
10
7.358320
20
110.366000
11
7.358310
21
101.751000
0
LINE
8
Layer 1
10
89.458400
20
58.069200
11
88.464411
21
57.933531
0
LINE
8
Layer 1
10
88.464411
20
57.933531
11
87.544349
21
57.613960
0
LINE
8
Layer 1
10
87.544349
20
57.613960
11
86.717207
21
57.130619
0
LINE
8
Layer 1
10
86.717207
20
57.130619
11
86.001979
21
56.503641
0
LINE
8
Layer 1
10
86.001979
20
56.503641
11
85.417659
21
55.753160
0
LINE
8
Layer 1
10
85.417659
20
55.753160
11
84.983241
21
54.899307
0
LINE
8
Layer 1
10
84.983241
20
54.899307
11
84.717720
21
53.962216
0
LINE
8
Layer 1
10
84.717720
20
53.962216
11
84.640090
21
52.962020
0
LINE
8
Layer 1
10
84.640090
20
52.962020
11
84.637500
21
52.962000
0
LINE
8
Layer 1
10
84.637500
20
52.962000
11
84.637500
21
50.962100
0
LINE
8
Layer 1
10
84.637500
20
50.962100
11
84.640600
21
50.962100
0
LINE
8
Layer 1
10
84.640600
20
50.962100
11
84.640083
21
50.791568
0
LINE
8
Layer 1
10
84.640083
20
50.791568
11
84.775682
21
49.788935
0
LINE
8
Layer 1
10
84.775682
20
49.788935
11
85.098231
21
48.861633
0
LINE
8
Layer 1
10
85.098231
20
48.861633
11
85.587025
21
48.029030
0
LINE
8
Layer 1
10
85.587025
20
48.029030
11
86.221358
21
47.310498
0
LINE
8
Layer 1
10
86.221358
20
47.310498
11
86.980525
21
46.725405
0
LINE
8
Layer 1
10
86.980525
20
46.725405
11
87.843819
21
46.293123
0
LINE
8
Layer 1
10
87.843819
20
46.293123
11
88.790537
21
46.033020
0
LINE
8
Layer 1
10
88.790537
20
46.033020
11
89.799973
21
45.964468
0
LINE
8
Layer 1
10
89.799973
20
45.964468
11
90.782119
21
46.093728
0
LINE
8
Layer 1
10
90.782119
20
46.093728
11
91.693562
21
46.402919
0
LINE
8
Layer 1
10
91.693562
20
46.402919
11
92.515729
21
46.872852
0
LINE
8
Layer 1
10
92.515729
20
46.872852
11
93.230049
21
47.484341
0
LINE
8
Layer 1
10
93.230049
20
47.484341
11
93.817949
21
48.218197
0
LINE
8
Layer 1
10
93.817949
20
48.218197
11
94.260857
21
49.055234
0
LINE
8
Layer 1
10
94.260857
20
49.055234
11
94.540199
21
49.976264
0
LINE
8
Layer 1
10
94.540199
20
49.976264
11
94.637403
21
50.962098
0
LINE
8
Layer 1
10
94.637403
20
50.962098
11
94.637403
21
50.987938
0
LINE
8
Layer 1
10
94.637403
20
50.987938
11
94.637400
21
52.962000
0
LINE
8
Layer 1
10
94.637400
20
52.962000
11
94.635900
21
52.962000
0
LINE
8
Layer 1
10
94.635900
20
52.962000
11
94.634900
21
53.226583
0
LINE
8
Layer 1
10
94.634900
20
53.226583
11
94.633900
21
53.259143
0
LINE
8
Layer 1
10
94.633900
20
53.259143
11
94.495002
21
54.261266
0
LINE
8
Layer 1
10
94.495002
20
54.261266
11
94.169424
21
55.187454
0
LINE
8
Layer 1
10
94.169424
20
55.187454
11
93.677930
21
56.018407
0
LINE
8
Layer 1
10
93.677930
20
56.018407
11
93.041286
21
56.734826
0
LINE
8
Layer 1
10
93.041286
20
56.734826
11
92.280257
21
57.317413
0
LINE
8
Layer 1
10
92.280257
20
57.317413
11
91.415608
21
57.746867
0
LINE
8
Layer 1
10
91.415608
20
57.746867
11
90.468104
21
58.003890
0
LINE
8
Layer 1
10
90.468104
20
58.003890
11
89.458510
21
58.069183
0
LINE
8
Layer 1
10
89.458510
20
58.069183
11
89.458400
21
58.069200
0
LINE
8
Layer 1
10
163.228000
20
31.474900
11
163.228000
21
47.088400
0
LINE
8
Layer 1
10
163.228000
20
49.461280
11
163.228000
21
65.074900
0
LINE
8
Layer 1
10
164.478000
20
62.702020
11
164.478000
21
33.847800
0
LINE
8
Layer 1
10
165.728000
20
31.474920
11
165.728000
21
47.088400
0
LINE
8
Layer 1
10
165.728000
20
49.461280
11
165.728000
21
65.074900
0
LINE
8
Layer 1
10
166.978000
20
62.702020
11
166.978000
21
33.847800
0
LINE
8
Layer 1
10
168.228000
20
31.474920
11
168.228000
21
47.088400
0
LINE
8
Layer 1
10
168.228000
20
49.461280
11
168.228000
21
65.074900
0
LINE
8
Layer 1
10
169.478000
20
62.702020
11
169.478000
21
33.847800
0
LINE
8
Layer 1
10
170.728000
20
31.474920
11
170.728000
21
47.088400
0
LINE
8
Layer 1
10
170.728000
20
49.461280
11
170.728000
21
65.074900
0
LINE
8
Layer 1
10
171.978000
20
62.702020
11
171.978000
21
33.847800
0
LINE
8
Layer 1
10
173.228000
20
31.474920
11
173.228000
21
47.088400
0
LINE
8
Layer 1
10
173.228000
20
49.461280
11
173.228000
21
65.074900
0
LINE
8
Layer 1
10
174.478000
20
62.702020
11
174.478000
21
33.847800
0
LINE
8
Layer 1
10
175.728000
20
31.474920
11
175.728000
21
47.088400
0
LINE
8
Layer 1
10
175.728000
20
49.461280
11
175.728000
21
65.074900
0
LINE
8
Layer 1
10
20.104000
20
31.474900
11
20.104000
21
47.088400
0
LINE
8
Layer 1
10
20.104000
20
49.461280
11
20.104000
21
65.074900
0
LINE
8
Layer 1
10
21.354000
20
62.702020
11
21.354000
21
33.847800
0
LINE
8
Layer 1
10
22.604000
20
31.474920
11
22.604000
21
47.088400
0
LINE
8
Layer 1
10
22.604000
20
49.461280
11
22.604000
21
65.074900
0
LINE
8
Layer 1
10
23.854000
20
62.702020
11
23.854000
21
33.847800
0
LINE
8
Layer 1
10
25.104000
20
31.474920
11
25.104000
21
47.088400
0
LINE
8
Layer 1
10
25.104000
20
49.461280
11
25.104000
21
65.074900
0
LINE
8
Layer 1
10
26.354000
20
62.702020
11
26.354000
21
33.847800
0
LINE
8
Layer 1
10
27.604000
20
31.474920
11
27.604000
21
47.088400
0
LINE
8
Layer 1
10
27.604000
20
49.461280
11
27.604000
21
65.074900
0
LINE
8
Layer 1
10
28.854000
20
62.702020
11
28.854000
21
33.847800
0
LINE
8
Layer 1
10
30.104000
20
31.474920
11
30.104000
21
47.088400
0
LINE
8
Layer 1
10
30.104000
20
49.461280
11
30.104000
21
65.074900
0
LINE
8
Layer 1
10
31.354000
20
62.702020
11
31.354000
21
33.847800
0
LINE
8
Layer 1
10
32.604000
20
31.474920
11
32.604000
21
47.088400
0
LINE
8
Layer 1
10
32.604000
20
49.461280
11
32.604000
21
65.074900
0
LINE
8
Layer 1
10
67.812000
20
31.474900
11
67.812000
21
47.088400
0
LINE
8
Layer 1
10
67.812000
20
49.461280
11
67.812000
21
65.074900
0
LINE
8
Layer 1
10
69.062000
20
62.702020
11
69.062000
21
33.847800
0
LINE
8
Layer 1
10
70.312000
20
31.474920
11
70.312000
21
47.088400
0
LINE
8
Layer 1
10
70.312000
20
49.461280
11
70.312000
21
65.074900
0
LINE
8
Layer 1
10
71.562000
20
62.702020
11
71.562000
21
33.847800
0
LINE
8
Layer 1
10
72.812000
20
31.474920
11
72.812000
21
47.088400
0
LINE
8
Layer 1
10
72.812000
20
49.461280
11
72.812000
21
65.074900
0
LINE
8
Layer 1
10
74.062000
20
62.702020
11
74.062000
21
33.847800
0
LINE
8
Layer 1
10
75.312000
20
31.474920
11
75.312000
21
47.088400
0
LINE
8
Layer 1
10
75.312000
20
49.461280
11
75.312000
21
65.074900
0
LINE
8
Layer 1
10
76.562000
20
62.702020
11
76.562000
21
33.847800
0
LINE
8
Layer 1
10
77.812000
20
31.474920
11
77.812000
21
47.088400
0
LINE
8
Layer 1
10
77.812000
20
49.461280
11
77.812000
21
65.074900
0
LINE
8
Layer 1
10
79.062000
20
62.702020
11
79.062000
21
33.847800
0
LINE
8
Layer 1
10
80.312000
20
31.474920
11
80.312000
21
47.088400
0
LINE
8
Layer 1
10
80.312000
20
49.461280
11
80.312000
21
65.074900
0
LINE
8
Layer 1
10
115.520000
20
31.474900
11
115.520000
21
47.088400
0
LINE
8
Layer 1
10
115.520000
20
49.461270
11
115.520000
21
65.074900
0
LINE
8
Layer 1
10
116.770000
20
62.702020
11
116.770000
21
33.847800
0
LINE
8
Layer 1
10
118.020000
20
31.474910
11
118.020000
21
47.088400
0
LINE
8
Layer 1
10
118.020000
20
49.461270
11
118.020000
21
65.074900
0
LINE
8
Layer 1
10
119.270000
20
62.702020
11
119.270000
21
33.847800
0
LINE
8
Layer 1
10
120.520000
20
31.474910
11
120.520000
21
47.088400
0
LINE
8
Layer 1
10
120.520000
20
49.461270
11
120.520000
21
65.074900
0
LINE
8
Layer 1
10
121.770000
20
62.702020
11
121.770000
21
33.847800
0
LINE
8
Layer 1
10
123.020000
20
31.474910
11
123.020000
21
47.088400
0
LINE
8
Layer 1
10
123.020000
20
49.461270
11
123.020000
21
65.074900
0
LINE
8
Layer 1
10
124.270000
20
62.702020
11
124.270000
21
33.847800
0
LINE
8
Layer 1
10
125.520000
20
31.474910
11
125.520000
21
47.088400
0
LINE
8
Layer 1
10
125.520000
20
49.461270
11
125.520000
21
65.074900
0
LINE
8
Layer 1
10
126.770000
20
62.702020
11
126.770000
21
33.847800
0
LINE
8
Layer 1
10
128.020000
20
31.474910
11
128.020000
21
47.088400
0
LINE
8
Layer 1
10
128.020000
20
49.461270
11
128.020000
21
65.074900
 0 
ENDSEC
 0 
EOF