<?xml version="1.0" encoding="UTF-8" standalone="no"?>
<svg
   width="211.33mm"
   height="120.25mm"
   viewBox="0.0 0.0 211.33 120.25"
   version="1.1"
   id="svg28"
   sodipodi:docname="FlexBox_52x52x30_17thk_v2.svg"
   inkscape:version="1.2.2 (1:1.2.2+202212051552+b0a8486541)"
   xmlns:inkscape="http://www.inkscape.org/namespaces/inkscape"
   xmlns:sodipodi="http://sodipodi.sourceforge.net/DTD/sodipodi-0.dtd"
   xmlns="http://www.w3.org/2000/svg"
   xmlns:svg="http://www.w3.org/2000/svg"
   xmlns:rdf="http://www.w3.org/1999/02/22-rdf-syntax-ns#"
   xmlns:cc="http://creativecommons.org/ns#"
   xmlns:dc="http://purl.org/dc/elements/1.1/">
  <defs
     id="defs32" />
  <sodipodi:namedview
     id="namedview30"
     pagecolor="#ffffff"
     bordercolor="#666666"
     borderopacity="1.0"
     inkscape:showpageshadow="2"
     inkscape:pageopacity="0.0"
     inkscape:pagecheckerboard="0"
     inkscape:deskcolor="#d1d1d1"
     inkscape:document-units="mm"
     showgrid="false"
     showguides="true"
     inkscape:zoom="0.99887849"
     inkscape:cx="495.05521"
     inkscape:cy="338.88006"
     inkscape:current-layer="layer1">
    <sodipodi:guide
       position="89.800001,120.25"
       orientation="-1,0"
       id="guide817"
       inkscape:locked="false"
       inkscape:label=""
       inkscape:color="rgb(0,134,229)" />
    <sodipodi:guide
       position="92.916002,51.975"
       orientation="0,1"
       id="guide832"
       inkscape:locked="false"
       inkscape:label=""
       inkscape:color="rgb(0,134,229)" />
  </sodipodi:namedview>
  <!--
FlexBox - Box with living hinge and round corners

Created with Boxes.py (https://festi.info/boxes.py)
Creation date: 2023-05-13 05:41:24
Command line (remove spaces between dashes): boxes FlexBox - -FingerJoint_style=barbs - -Flex_connection=1.5 - -Flex_distance=1 - -Flex_width=3 - -x=52 - -y=52 - -h=30 - -outside=0 - -radius=10 - -thickness=1.7 - -labels=0
Url: http://www.festi.info/boxes.py/FlexBox?FingerJoint_angle=90.0&FingerJoint_style=barbs&FingerJoint_surroundingspaces=2.0&FingerJoint_bottom_lip=0.0&FingerJoint_edge_width=1.0&FingerJoint_extra_length=0.0&FingerJoint_finger=2.0&FingerJoint_play=0.0&FingerJoint_space=2.0&FingerJoint_width=1.0&Flex_stretch=1.05&Flex_connection=1.5&Flex_distance=1&Flex_width=3&x=52&y=52&h=30&outside=0&radius=10&latchsize=8&thickness=1.7&format=svg&tabs=0.0&qr_code=0&debug=0&labels=0&reference=100&inner_corners=loop&burn=0.1&language=en&render=2
Url short: http://www.festi.info/boxes.py/FlexBox?FingerJoint_style=barbs&Flex_connection=1.5&Flex_distance=1&Flex_width=3&x=52&y=52&h=30&outside=0&radius=10&thickness=1.7&labels=0
SettingsUrl: http://www.festi.info/boxes.py/FlexBox?FingerJoint_angle=90.0&FingerJoint_style=barbs&FingerJoint_surroundingspaces=2.0&FingerJoint_bottom_lip=0.0&FingerJoint_edge_width=1.0&FingerJoint_extra_length=0.0&FingerJoint_finger=2.0&FingerJoint_play=0.0&FingerJoint_space=2.0&FingerJoint_width=1.0&Flex_stretch=1.05&Flex_connection=1.5&Flex_distance=1&Flex_width=3&x=52&y=52&h=30&outside=0&radius=10&latchsize=8&thickness=1.7&format=svg&tabs=0.0&qr_code=0&debug=0&labels=0&reference=100&inner_corners=loop&burn=0.1&language=en&render=2
SettingsUrl short: http://www.festi.info/boxes.py/FlexBox?FingerJoint_style=barbs&Flex_connection=1.5&Flex_distance=1&Flex_width=3&x=52&y=52&h=30&outside=0&radius=10&thickness=1.7&labels=0
-->
  <title
     id="title2">FlexBox</title>
  <metadata
     id="metadata4">
    <rdf:RDF>
      <cc:Work>
        <dc:title>FlexBox</dc:title>
        <dc:date>2023-05-13 05:41:24</dc:date>
        <dc:source>http://www.festi.info/boxes.py/FlexBox?FingerJoint_angle=90.0&amp;FingerJoint_style=barbs&amp;FingerJoint_surroundingspaces=2.0&amp;FingerJoint_bottom_lip=0.0&amp;FingerJoint_edge_width=1.0&amp;FingerJoint_extra_length=0.0&amp;FingerJoint_finger=2.0&amp;FingerJoint_play=0.0&amp;FingerJoint_space=2.0&amp;FingerJoint_width=1.0&amp;Flex_stretch=1.05&amp;Flex_connection=1.5&amp;Flex_distance=1&amp;Flex_width=3&amp;x=52&amp;y=52&amp;h=30&amp;outside=0&amp;radius=10&amp;latchsize=8&amp;thickness=1.7&amp;format=svg&amp;tabs=0.0&amp;qr_code=0&amp;debug=0&amp;labels=0&amp;reference=100&amp;inner_corners=loop&amp;burn=0.1&amp;language=en&amp;render=2</dc:source>
        <dc:source>http://www.festi.info/boxes.py/FlexBox?FingerJoint_style=barbs&amp;Flex_connection=1.5&amp;Flex_distance=1&amp;Flex_width=3&amp;x=52&amp;y=52&amp;h=30&amp;outside=0&amp;radius=10&amp;thickness=1.7&amp;labels=0</dc:source>
        <dc:description>Box with living hinge and round corners

Created with Boxes.py (https://festi.info/boxes.py)
Command line: boxes FlexBox --FingerJoint_angle=90.0 --FingerJoint_style=barbs --FingerJoint_surroundingspaces=2.0 --FingerJoint_bottom_lip=0.0 --FingerJoint_edge_width=1.0 --FingerJoint_extra_length=0.0 --FingerJoint_finger=2.0 --FingerJoint_play=0.0 --FingerJoint_space=2.0 --FingerJoint_width=1.0 --Flex_stretch=1.05 --Flex_connection=1.5 --Flex_distance=1 --Flex_width=3 --x=52 --y=52 --h=30 --outside=0 --radius=10 --latchsize=8 --thickness=1.7 --format=svg --tabs=0.0 --qr_code=0 --debug=0 --labels=0 --reference=100 --inner_corners=loop --burn=0.1
Command line short: boxes FlexBox --FingerJoint_style=barbs --Flex_connection=1.5 --Flex_distance=1 --Flex_width=3 --x=52 --y=52 --h=30 --outside=0 --radius=10 --thickness=1.7 --labels=0
Url: http://www.festi.info/boxes.py/FlexBox?FingerJoint_angle=90.0&amp;FingerJoint_style=barbs&amp;FingerJoint_surroundingspaces=2.0&amp;FingerJoint_bottom_lip=0.0&amp;FingerJoint_edge_width=1.0&amp;FingerJoint_extra_length=0.0&amp;FingerJoint_finger=2.0&amp;FingerJoint_play=0.0&amp;FingerJoint_space=2.0&amp;FingerJoint_width=1.0&amp;Flex_stretch=1.05&amp;Flex_connection=1.5&amp;Flex_distance=1&amp;Flex_width=3&amp;x=52&amp;y=52&amp;h=30&amp;outside=0&amp;radius=10&amp;latchsize=8&amp;thickness=1.7&amp;format=svg&amp;tabs=0.0&amp;qr_code=0&amp;debug=0&amp;labels=0&amp;reference=100&amp;inner_corners=loop&amp;burn=0.1&amp;language=en&amp;render=2
Url short: http://www.festi.info/boxes.py/FlexBox?FingerJoint_style=barbs&amp;Flex_connection=1.5&amp;Flex_distance=1&amp;Flex_width=3&amp;x=52&amp;y=52&amp;h=30&amp;outside=0&amp;radius=10&amp;thickness=1.7&amp;labels=0
SettingsUrl: http://www.festi.info/boxes.py/FlexBox?FingerJoint_angle=90.0&amp;FingerJoint_style=barbs&amp;FingerJoint_surroundingspaces=2.0&amp;FingerJoint_bottom_lip=0.0&amp;FingerJoint_edge_width=1.0&amp;FingerJoint_extra_length=0.0&amp;FingerJoint_finger=2.0&amp;FingerJoint_play=0.0&amp;FingerJoint_space=2.0&amp;FingerJoint_width=1.0&amp;Flex_stretch=1.05&amp;Flex_connection=1.5&amp;Flex_distance=1&amp;Flex_width=3&amp;x=52&amp;y=52&amp;h=30&amp;outside=0&amp;radius=10&amp;latchsize=8&amp;thickness=1.7&amp;format=svg&amp;tabs=0.0&amp;qr_code=0&amp;debug=0&amp;labels=0&amp;reference=100&amp;inner_corners=loop&amp;burn=0.1&amp;language=en&amp;render=2
SettingsUrl short: http://www.festi.info/boxes.py/FlexBox?FingerJoint_style=barbs&amp;Flex_connection=1.5&amp;Flex_distance=1&amp;Flex_width=3&amp;x=52&amp;y=52&amp;h=30&amp;outside=0&amp;radius=10&amp;thickness=1.7&amp;labels=0
</dc:description>
      </cc:Work>
    </rdf:RDF>
  </metadata>
  <g
     inkscape:groupmode="layer"
     id="layer1"
     inkscape:label="Layer 1"
     style="display:inline">
    <g
       id="p-3"
       style="fill:none;stroke-linecap:round;stroke-linejoin:round"
       transform="translate(-10.3,-10)">
      <path
         d="m 110.55,62.2 h -4 c -0.1,0 0,-0.1 0,0 v 0.029 c 0,0.041 -0.029,-0.03 0,0 l 0.141,0.14 c 0.03,0.031 0.038,0.077 0.018,0.116 l -0.17,0.34 c 0.007,-0.014 0.011,-0.029 0.011,-0.045 0,-0.027 -0.011,-0.052 -0.029,-0.071 l 0.17,0.17 c 0.03,0.031 0.038,0.077 0.018,0.116 l -0.17,0.34 c 0.007,-0.014 0.011,-0.029 0.011,-0.045 0,-0.027 -0.011,-0.052 -0.029,-0.071 l 0.17,0.17 c 0.03,0.031 0.038,0.077 0.018,0.116 l -0.17,0.34 c 0.007,-0.014 0.011,-0.029 0.011,-0.045 0,0.055 -0.045,0.1 -0.1,0.1 h -3.4 c -0.055,0 -0.1,-0.045 -0.1,-0.1 0,0.016 0.004,0.031 0.011,0.045 l -0.17,-0.34 c -0.02,-0.039 -0.012,-0.085 0.018,-0.116 l 0.17,-0.17 c -0.018,0.019 -0.029,0.044 -0.029,0.071 0,0.016 0.004,0.031 0.011,0.045 l -0.17,-0.34 c -0.02,-0.039 -0.012,-0.085 0.018,-0.116 l 0.17,-0.17 c -0.018,0.019 -0.029,0.044 -0.029,0.071 0,0.016 0.004,0.031 0.011,0.045 l -0.17,-0.34 c -0.02,-0.039 -0.012,-0.085 0.018,-0.116 l 0.141,-0.14 c 0.029,-0.03 0,0.041 0,0 V 62.2 c 0,-0.1 0.1,0 0,0 h -3.2 c -0.1,0 0,-0.1 0,0 v 0.029 c 0,0.041 -0.029,-0.03 0,0 l 0.141,0.14 c 0.03,0.031 0.038,0.077 0.018,0.116 l -0.17,0.34 c 0.007,-0.014 0.011,-0.029 0.011,-0.045 0,-0.027 -0.011,-0.052 -0.029,-0.071 l 0.17,0.17 c 0.03,0.031 0.038,0.077 0.018,0.116 l -0.17,0.34 c 0.007,-0.014 0.011,-0.029 0.011,-0.045 0,-0.027 -0.011,-0.052 -0.029,-0.071 l 0.17,0.17 c 0.03,0.031 0.038,0.077 0.018,0.116 l -0.17,0.34 c 0.007,-0.014 0.011,-0.029 0.011,-0.045 0,0.055 -0.045,0.1 -0.1,0.1 h -3.4 c -0.055,0 -0.1,-0.045 -0.1,-0.1 0,0.016 0.004,0.031 0.011,0.045 l -0.17,-0.34 c -0.02,-0.039 -0.012,-0.085 0.018,-0.116 l 0.17,-0.17 c -0.018,0.019 -0.029,0.044 -0.029,0.071 0,0.016 0.004,0.031 0.011,0.045 l -0.17,-0.34 c -0.02,-0.039 -0.012,-0.085 0.018,-0.116 l 0.17,-0.17 c -0.018,0.019 -0.029,0.044 -0.029,0.071 0,0.016 0.004,0.031 0.011,0.045 l -0.17,-0.34 c -0.02,-0.039 -0.012,-0.085 0.018,-0.116 l 0.141,-0.14 c 0.029,-0.03 0,0.041 0,0 V 62.2 c 0,-0.1 0.1,0 0,0 h -3.2 c -0.1,0 0,-0.1 0,0 v 0.029 c 0,0.041 -0.029,-0.03 0,0 l 0.141,0.14 c 0.03,0.031 0.038,0.077 0.018,0.116 l -0.17,0.34 c 0.007,-0.014 0.011,-0.029 0.011,-0.045 0,-0.027 -0.011,-0.052 -0.029,-0.071 l 0.17,0.17 c 0.03,0.031 0.038,0.077 0.018,0.116 l -0.17,0.34 c 0.007,-0.014 0.011,-0.029 0.011,-0.045 0,-0.027 -0.011,-0.052 -0.029,-0.071 l 0.17,0.17 c 0.03,0.031 0.038,0.077 0.018,0.116 l -0.17,0.34 c 0.007,-0.014 0.011,-0.029 0.011,-0.045 0,0.055 -0.045,0.1 -0.1,0.1 h -3.4 c -0.055,0 -0.1,-0.045 -0.1,-0.1 0,0.016 0.004,0.031 0.011,0.045 l -0.17,-0.34 c -0.02,-0.039 -0.012,-0.085 0.018,-0.116 l 0.17,-0.17 c -0.018,0.019 -0.029,0.044 -0.029,0.071 0,0.016 0.004,0.031 0.011,0.045 l -0.17,-0.34 c -0.02,-0.039 -0.012,-0.085 0.018,-0.116 l 0.17,-0.17 c -0.018,0.019 -0.029,0.044 -0.029,0.071 0,0.016 0.004,0.031 0.011,0.045 l -0.17,-0.34 c -0.02,-0.039 -0.012,-0.085 0.018,-0.116 l 0.141,-0.14 c 0.029,-0.03 0,0.041 0,0 V 62.2 c 0,-0.1 0.1,0 0,0 h -3.2 c -0.1,0 0,-0.1 0,0 v 0.029 c 0,0.041 -0.029,-0.03 0,0 l 0.141,0.14 c 0.03,0.031 0.038,0.077 0.018,0.116 l -0.17,0.34 c 0.007,-0.014 0.011,-0.029 0.011,-0.045 0,-0.027 -0.011,-0.052 -0.029,-0.071 l 0.17,0.17 c 0.03,0.031 0.038,0.077 0.018,0.116 l -0.17,0.34 c 0.007,-0.014 0.011,-0.029 0.011,-0.045 0,-0.027 -0.011,-0.052 -0.029,-0.071 l 0.17,0.17 c 0.03,0.031 0.038,0.077 0.018,0.116 l -0.17,0.34 c 0.007,-0.014 0.011,-0.029 0.011,-0.045 0,0.055 -0.045,0.1 -0.1,0.1 h -3.4 c -0.055,0 -0.1,-0.045 -0.1,-0.1 0,0.016 0.004,0.031 0.011,0.045 l -0.17,-0.34 c -0.02,-0.039 -0.012,-0.085 0.018,-0.116 l 0.17,-0.17 c -0.018,0.019 -0.029,0.044 -0.029,0.071 0,0.016 0.004,0.031 0.011,0.045 l -0.17,-0.34 c -0.02,-0.039 -0.012,-0.085 0.018,-0.116 l 0.17,-0.17 c -0.018,0.019 -0.029,0.044 -0.029,0.071 0,0.016 0.004,0.031 0.011,0.045 l -0.17,-0.34 c -0.02,-0.039 -0.012,-0.085 0.018,-0.116 l 0.141,-0.14 c 0.029,-0.03 0,0.041 0,0 V 62.2 c 0,-0.1 0.1,0 0,0 h -4 C 76.777,62.2 75.035,61.733 73.5,60.847 71.965,59.96 70.69,58.685 69.803,57.15 68.917,55.615 68.45,53.873 68.45,52.1 v -4 c 0,-0.1 0.1,0 0,0 h -0.029 c -0.041,0 0.03,-0.029 0,0 l -0.14,0.141 c -0.031,0.03 -0.077,0.038 -0.116,0.018 l -0.34,-0.17 c 0.014,0.007 0.029,0.011 0.045,0.011 0.027,0 0.052,-0.011 0.071,-0.029 l -0.17,0.17 c -0.031,0.03 -0.077,0.038 -0.116,0.018 l -0.34,-0.17 c 0.014,0.007 0.029,0.011 0.045,0.011 0.027,0 0.052,-0.011 0.071,-0.029 l -0.17,0.17 c -0.031,0.03 -0.077,0.038 -0.116,0.018 l -0.34,-0.17 c 0.014,0.007 0.029,0.011 0.045,0.011 -0.055,0 -0.1,-0.045 -0.1,-0.1 v -3.4 c 0,-0.055 0.045,-0.1 0.1,-0.1 -0.016,0 -0.031,0.004 -0.045,0.011 l 0.34,-0.17 c 0.039,-0.02 0.085,-0.012 0.116,0.018 l 0.17,0.17 C 67.412,44.511 67.387,44.5 67.36,44.5 c -0.016,0 -0.031,0.004 -0.045,0.011 l 0.34,-0.17 c 0.039,-0.02 0.085,-0.012 0.116,0.018 l 0.17,0.17 C 67.922,44.511 67.897,44.5 67.87,44.5 c -0.016,0 -0.031,0.004 -0.045,0.011 l 0.34,-0.17 c 0.039,-0.02 0.085,-0.012 0.116,0.018 l 0.14,0.141 c 0.03,0.029 -0.041,0 0,0 h 0.029 c 0.1,0 0,0.1 0,0 v -3.2 c 0,-0.1 0.1,0 0,0 h -0.029 c -0.041,0 0.03,-0.029 0,0 l -0.14,0.141 c -0.031,0.03 -0.077,0.038 -0.116,0.018 l -0.34,-0.17 c 0.014,0.007 0.029,0.011 0.045,0.011 0.027,0 0.052,-0.011 0.071,-0.029 l -0.17,0.17 c -0.031,0.03 -0.077,0.038 -0.116,0.018 l -0.34,-0.17 c 0.014,0.007 0.029,0.011 0.045,0.011 0.027,0 0.052,-0.011 0.071,-0.029 l -0.17,0.17 c -0.031,0.03 -0.077,0.038 -0.116,0.018 l -0.34,-0.17 c 0.014,0.007 0.029,0.011 0.045,0.011 -0.055,0 -0.1,-0.045 -0.1,-0.1 v -3.4 c 0,-0.055 0.045,-0.1 0.1,-0.1 -0.016,0 -0.031,0.004 -0.045,0.011 l 0.34,-0.17 c 0.039,-0.02 0.085,-0.012 0.116,0.018 l 0.17,0.17 C 67.412,37.711 67.387,37.7 67.36,37.7 c -0.016,0 -0.031,0.004 -0.045,0.011 l 0.34,-0.17 c 0.039,-0.02 0.085,-0.012 0.116,0.018 l 0.17,0.17 C 67.922,37.711 67.897,37.7 67.87,37.7 c -0.016,0 -0.031,0.004 -0.045,0.011 l 0.34,-0.17 c 0.039,-0.02 0.085,-0.012 0.116,0.018 l 0.14,0.141 c 0.03,0.029 -0.041,0 0,0 h 0.029 c 0.1,0 0,0.1 0,0 v -3.2 c 0,-0.1 0.1,0 0,0 h -0.029 c -0.041,0 0.03,-0.029 0,0 l -0.14,0.141 c -0.031,0.03 -0.077,0.038 -0.116,0.018 l -0.34,-0.17 c 0.014,0.007 0.029,0.011 0.045,0.011 0.027,0 0.052,-0.011 0.071,-0.029 l -0.17,0.17 c -0.031,0.03 -0.077,0.038 -0.116,0.018 l -0.34,-0.17 c 0.014,0.007 0.029,0.011 0.045,0.011 0.027,0 0.052,-0.011 0.071,-0.029 l -0.17,0.17 c -0.031,0.03 -0.077,0.038 -0.116,0.018 l -0.34,-0.17 c 0.014,0.007 0.029,0.011 0.045,0.011 -0.055,0 -0.1,-0.045 -0.1,-0.1 V 31 c 0,-0.055 0.045,-0.1 0.1,-0.1 -0.016,0 -0.031,0.004 -0.045,0.011 l 0.34,-0.17 c 0.039,-0.02 0.085,-0.012 0.116,0.018 l 0.17,0.17 C 67.412,30.911 67.387,30.9 67.36,30.9 c -0.016,0 -0.031,0.004 -0.045,0.011 l 0.34,-0.17 c 0.039,-0.02 0.085,-0.012 0.116,0.018 l 0.17,0.17 C 67.922,30.911 67.897,30.9 67.87,30.9 c -0.016,0 -0.031,0.004 -0.045,0.011 l 0.34,-0.17 c 0.039,-0.02 0.085,-0.012 0.116,0.018 l 0.14,0.141 c 0.03,0.029 -0.041,0 0,0 h 0.029 c 0.1,0 0,0.1 0,0 v -3.2 c 0,-0.1 0.1,0 0,0 h -0.029 c -0.041,0 0.03,-0.029 0,0 l -0.14,0.141 c -0.031,0.03 -0.077,0.038 -0.116,0.018 l -0.34,-0.17 c 0.014,0.007 0.029,0.011 0.045,0.011 0.027,0 0.052,-0.011 0.071,-0.029 l -0.17,0.17 c -0.031,0.03 -0.077,0.038 -0.116,0.018 l -0.34,-0.17 c 0.014,0.007 0.029,0.011 0.045,0.011 0.027,0 0.052,-0.011 0.071,-0.029 l -0.17,0.17 c -0.031,0.03 -0.077,0.038 -0.116,0.018 l -0.34,-0.17 c 0.014,0.007 0.029,0.011 0.045,0.011 -0.055,0 -0.1,-0.045 -0.1,-0.1 v -3.4 c 0,-0.055 0.045,-0.1 0.1,-0.1 -0.016,0 -0.031,0.004 -0.045,0.011 l 0.34,-0.17 c 0.039,-0.02 0.085,-0.012 0.116,0.018 l 0.17,0.17 C 67.412,24.111 67.387,24.1 67.36,24.1 c -0.016,0 -0.031,0.004 -0.045,0.011 l 0.34,-0.17 c 0.039,-0.02 0.085,-0.012 0.116,0.018 l 0.17,0.17 C 67.922,24.111 67.897,24.1 67.87,24.1 c -0.016,0 -0.031,0.004 -0.045,0.011 l 0.34,-0.17 c 0.039,-0.02 0.085,-0.012 0.116,0.018 l 0.14,0.141 c 0.03,0.029 -0.041,0 0,0 h 0.029 c 0.1,0 0,0.1 0,0 v -4 c 0,-1.773 0.467,-3.515 1.353,-5.05 C 70.69,13.515 71.965,12.24 73.5,11.353 75.035,10.467 76.777,10 78.55,10 h 32 c 1.773,0 3.515,0.467 5.05,1.353 1.535,0.887 2.81,2.162 3.697,3.697 0.886,1.535 1.353,3.277 1.353,5.05 0,-0.055 -0.045,-0.1 -0.1,-0.1 h 1.7 c 0.055,0 0.1,0.045 0.1,0.1 v 6.8 c 0,0.055 -0.045,0.1 -0.1,0.1 h -1.6 c -0.1,0 0,-0.1 0,0 v 6.7 4 c 0,0.1 -0.1,0 0,0 h 0.029 c 0.041,0 -0.03,0.029 0,0 l 0.14,-0.141 c 0.031,-0.03 0.077,-0.038 0.116,-0.018 l 0.34,0.17 c -0.014,-0.007 -0.029,-0.011 -0.045,-0.011 -0.027,0 -0.052,0.011 -0.071,0.029 l 0.17,-0.17 c 0.031,-0.03 0.077,-0.038 0.116,-0.018 l 0.34,0.17 c -0.014,-0.007 -0.029,-0.011 -0.045,-0.011 -0.027,0 -0.052,0.011 -0.071,0.029 l 0.17,-0.17 c 0.031,-0.03 0.077,-0.038 0.116,-0.018 l 0.34,0.17 c -0.014,-0.007 -0.029,-0.011 -0.045,-0.011 0.055,0 0.1,0.045 0.1,0.1 v 3.4 c 0,0.055 -0.045,0.1 -0.1,0.1 0.016,0 0.031,-0.004 0.045,-0.011 l -0.34,0.17 c -0.039,0.02 -0.085,0.012 -0.116,-0.018 l -0.17,-0.17 c 0.019,0.018 0.044,0.029 0.071,0.029 0.016,0 0.031,-0.004 0.045,-0.011 l -0.34,0.17 c -0.039,0.02 -0.085,0.012 -0.116,-0.018 l -0.17,-0.17 c 0.019,0.018 0.044,0.029 0.071,0.029 0.016,0 0.031,-0.004 0.045,-0.011 l -0.34,0.17 c -0.039,0.02 -0.085,0.012 -0.116,-0.018 l -0.14,-0.141 c -0.03,-0.029 0.041,0 0,0 h -0.029 c -0.1,0 0,-0.1 0,0 v 3.2 c 0,0.1 -0.1,0 0,0 h 0.029 c 0.041,0 -0.03,0.029 0,0 l 0.14,-0.141 c 0.031,-0.03 0.077,-0.038 0.116,-0.018 l 0.34,0.17 c -0.014,-0.007 -0.029,-0.011 -0.045,-0.011 -0.027,0 -0.052,0.011 -0.071,0.029 l 0.17,-0.17 c 0.031,-0.03 0.077,-0.038 0.116,-0.018 l 0.34,0.17 c -0.014,-0.007 -0.029,-0.011 -0.045,-0.011 -0.027,0 -0.052,0.011 -0.071,0.029 l 0.17,-0.17 c 0.031,-0.03 0.077,-0.038 0.116,-0.018 l 0.34,0.17 c -0.014,-0.007 -0.029,-0.011 -0.045,-0.011 0.055,0 0.1,0.045 0.1,0.1 V 48 c 0,0.055 -0.045,0.1 -0.1,0.1 0.016,0 0.031,-0.004 0.045,-0.011 l -0.34,0.17 c -0.039,0.02 -0.085,0.012 -0.116,-0.018 l -0.17,-0.17 c 0.019,0.018 0.044,0.029 0.071,0.029 0.016,0 0.031,-0.004 0.045,-0.011 l -0.34,0.17 c -0.039,0.02 -0.085,0.012 -0.116,-0.018 l -0.17,-0.17 c 0.019,0.018 0.044,0.029 0.071,0.029 0.016,0 0.031,-0.004 0.045,-0.011 l -0.34,0.17 c -0.039,0.02 -0.085,0.012 -0.116,-0.018 l -0.14,-0.141 c -0.03,-0.029 0.041,0 0,0 h -0.029 c -0.1,0 0,-0.1 0,0 v 4 c 0,1.773 -0.467,3.515 -1.353,5.05 -0.887,1.535 -2.162,2.81 -3.697,3.697 -1.535,0.886 -3.277,1.353 -5.05,1.353 z"
         stroke="#000000"
         stroke-width="0.2"
         id="path25" />
    </g>
    <g
       id="p-2"
       style="fill:none;stroke-linecap:round;stroke-linejoin:round"
       transform="translate(-10.3,-10)">
      <path
         d="m 22.1,62.2 h 4 c 0.1,0 0,-0.1 0,0 v 0.029 c 0,0.041 0.029,-0.03 0,0 l -0.141,0.14 c -0.03,0.031 -0.038,0.077 -0.018,0.116 l 0.17,0.34 C 26.104,62.811 26.1,62.796 26.1,62.78 c 0,-0.027 0.011,-0.052 0.029,-0.071 l -0.17,0.17 c -0.03,0.031 -0.038,0.077 -0.018,0.116 l 0.17,0.34 C 26.104,63.321 26.1,63.306 26.1,63.29 c 0,-0.027 0.011,-0.052 0.029,-0.071 l -0.17,0.17 c -0.03,0.031 -0.038,0.077 -0.018,0.116 l 0.17,0.34 C 26.104,63.831 26.1,63.816 26.1,63.8 c 0,0.055 0.045,0.1 0.1,0.1 h 3.4 c 0.055,0 0.1,-0.045 0.1,-0.1 0,0.016 -0.004,0.031 -0.011,0.045 l 0.17,-0.34 c 0.02,-0.039 0.012,-0.085 -0.018,-0.116 l -0.17,-0.17 c 0.018,0.019 0.029,0.044 0.029,0.071 0,0.016 -0.004,0.031 -0.011,0.045 l 0.17,-0.34 c 0.02,-0.039 0.012,-0.085 -0.018,-0.116 l -0.17,-0.17 c 0.018,0.019 0.029,0.044 0.029,0.071 0,0.016 -0.004,0.031 -0.011,0.045 l 0.17,-0.34 c 0.02,-0.039 0.012,-0.085 -0.018,-0.116 L 29.7,62.229 c -0.029,-0.03 0,0.041 0,0 V 62.2 c 0,-0.1 -0.1,0 0,0 h 3.2 c 0.1,0 0,-0.1 0,0 v 0.029 c 0,0.041 0.029,-0.03 0,0 l -0.141,0.14 c -0.03,0.031 -0.038,0.077 -0.018,0.116 l 0.17,0.34 C 32.904,62.811 32.9,62.796 32.9,62.78 c 0,-0.027 0.011,-0.052 0.029,-0.071 l -0.17,0.17 c -0.03,0.031 -0.038,0.077 -0.018,0.116 l 0.17,0.34 C 32.904,63.321 32.9,63.306 32.9,63.29 c 0,-0.027 0.011,-0.052 0.029,-0.071 l -0.17,0.17 c -0.03,0.031 -0.038,0.077 -0.018,0.116 l 0.17,0.34 C 32.904,63.831 32.9,63.816 32.9,63.8 c 0,0.055 0.045,0.1 0.1,0.1 h 3.4 c 0.055,0 0.1,-0.045 0.1,-0.1 0,0.016 -0.004,0.031 -0.011,0.045 l 0.17,-0.34 c 0.02,-0.039 0.012,-0.085 -0.018,-0.116 l -0.17,-0.17 c 0.018,0.019 0.029,0.044 0.029,0.071 0,0.016 -0.004,0.031 -0.011,0.045 l 0.17,-0.34 c 0.02,-0.039 0.012,-0.085 -0.018,-0.116 l -0.17,-0.17 c 0.018,0.019 0.029,0.044 0.029,0.071 0,0.016 -0.004,0.031 -0.011,0.045 l 0.17,-0.34 c 0.02,-0.039 0.012,-0.085 -0.018,-0.116 L 36.5,62.229 c -0.029,-0.03 0,0.041 0,0 V 62.2 c 0,-0.1 -0.1,0 0,0 h 3.2 c 0.1,0 0,-0.1 0,0 v 0.029 c 0,0.041 0.029,-0.03 0,0 l -0.141,0.14 c -0.03,0.031 -0.038,0.077 -0.018,0.116 l 0.17,0.34 C 39.704,62.811 39.7,62.796 39.7,62.78 c 0,-0.027 0.011,-0.052 0.029,-0.071 l -0.17,0.17 c -0.03,0.031 -0.038,0.077 -0.018,0.116 l 0.17,0.34 C 39.704,63.321 39.7,63.306 39.7,63.29 c 0,-0.027 0.011,-0.052 0.029,-0.071 l -0.17,0.17 c -0.03,0.031 -0.038,0.077 -0.018,0.116 l 0.17,0.34 C 39.704,63.831 39.7,63.816 39.7,63.8 c 0,0.055 0.045,0.1 0.1,0.1 h 3.4 c 0.055,0 0.1,-0.045 0.1,-0.1 0,0.016 -0.004,0.031 -0.011,0.045 l 0.17,-0.34 c 0.02,-0.039 0.012,-0.085 -0.018,-0.116 l -0.17,-0.17 c 0.018,0.019 0.029,0.044 0.029,0.071 0,0.016 -0.004,0.031 -0.011,0.045 l 0.17,-0.34 c 0.02,-0.039 0.012,-0.085 -0.018,-0.116 l -0.17,-0.17 c 0.018,0.019 0.029,0.044 0.029,0.071 0,0.016 -0.004,0.031 -0.011,0.045 l 0.17,-0.34 c 0.02,-0.039 0.012,-0.085 -0.018,-0.116 L 43.3,62.229 c -0.029,-0.03 0,0.041 0,0 V 62.2 c 0,-0.1 -0.1,0 0,0 h 3.2 c 0.1,0 0,-0.1 0,0 v 0.029 c 0,0.041 0.029,-0.03 0,0 l -0.141,0.14 c -0.03,0.031 -0.038,0.077 -0.018,0.116 l 0.17,0.34 C 46.504,62.811 46.5,62.796 46.5,62.78 c 0,-0.027 0.011,-0.052 0.029,-0.071 l -0.17,0.17 c -0.03,0.031 -0.038,0.077 -0.018,0.116 l 0.17,0.34 C 46.504,63.321 46.5,63.306 46.5,63.29 c 0,-0.027 0.011,-0.052 0.029,-0.071 l -0.17,0.17 c -0.03,0.031 -0.038,0.077 -0.018,0.116 l 0.17,0.34 C 46.504,63.831 46.5,63.816 46.5,63.8 c 0,0.055 0.045,0.1 0.1,0.1 H 50 c 0.055,0 0.1,-0.045 0.1,-0.1 0,0.016 -0.004,0.031 -0.011,0.045 l 0.17,-0.34 c 0.02,-0.039 0.012,-0.085 -0.018,-0.116 l -0.17,-0.17 c 0.018,0.019 0.029,0.044 0.029,0.071 0,0.016 -0.004,0.031 -0.011,0.045 l 0.17,-0.34 c 0.02,-0.039 0.012,-0.085 -0.018,-0.116 l -0.17,-0.17 c 0.018,0.019 0.029,0.044 0.029,0.071 0,0.016 -0.004,0.031 -0.011,0.045 l 0.17,-0.34 c 0.02,-0.039 0.012,-0.085 -0.018,-0.116 L 50.1,62.229 c -0.029,-0.03 0,0.041 0,0 V 62.2 c 0,-0.1 -0.1,0 0,0 h 4 c 1.773,0 3.515,-0.467 5.05,-1.353 1.535,-0.887 2.81,-2.162 3.697,-3.697 0.886,-1.535 1.353,-3.277 1.353,-5.05 v -4 c 0,-0.1 -0.1,0 0,0 h 0.029 c 0.041,0 -0.03,-0.029 0,0 l 0.14,0.141 c 0.031,0.03 0.077,0.038 0.116,0.018 l 0.34,-0.17 c -0.014,0.007 -0.029,0.011 -0.045,0.011 -0.027,0 -0.052,-0.011 -0.071,-0.029 l 0.17,0.17 c 0.031,0.03 0.077,0.038 0.116,0.018 l 0.34,-0.17 c -0.014,0.007 -0.029,0.011 -0.045,0.011 -0.027,0 -0.052,-0.011 -0.071,-0.029 l 0.17,0.17 c 0.031,0.03 0.077,0.038 0.116,0.018 l 0.34,-0.17 C 65.831,48.096 65.816,48.1 65.8,48.1 c 0.055,0 0.1,-0.045 0.1,-0.1 v -3.4 c 0,-0.055 -0.045,-0.1 -0.1,-0.1 0.016,0 0.031,0.004 0.045,0.011 l -0.34,-0.17 c -0.039,-0.02 -0.085,-0.012 -0.116,0.018 l -0.17,0.17 c 0.019,-0.018 0.044,-0.029 0.071,-0.029 0.016,0 0.031,0.004 0.045,0.011 l -0.34,-0.17 c -0.039,-0.02 -0.085,-0.012 -0.116,0.018 l -0.17,0.17 c 0.019,-0.018 0.044,-0.029 0.071,-0.029 0.016,0 0.031,0.004 0.045,0.011 l -0.34,-0.17 c -0.039,-0.02 -0.085,-0.012 -0.116,0.018 l -0.14,0.141 c -0.03,0.029 0.041,0 0,0 H 64.2 c -0.1,0 0,0.1 0,0 v -3.2 c 0,-0.1 -0.1,0 0,0 h 0.029 c 0.041,0 -0.03,-0.029 0,0 l 0.14,0.141 c 0.031,0.03 0.077,0.038 0.116,0.018 l 0.34,-0.17 c -0.014,0.007 -0.029,0.011 -0.045,0.011 -0.027,0 -0.052,-0.011 -0.071,-0.029 l 0.17,0.17 c 0.031,0.03 0.077,0.038 0.116,0.018 l 0.34,-0.17 c -0.014,0.007 -0.029,0.011 -0.045,0.011 -0.027,0 -0.052,-0.011 -0.071,-0.029 l 0.17,0.17 c 0.031,0.03 0.077,0.038 0.116,0.018 l 0.34,-0.17 C 65.831,41.296 65.816,41.3 65.8,41.3 c 0.055,0 0.1,-0.045 0.1,-0.1 v -3.4 c 0,-0.055 -0.045,-0.1 -0.1,-0.1 0.016,0 0.031,0.004 0.045,0.011 l -0.34,-0.17 c -0.039,-0.02 -0.085,-0.012 -0.116,0.018 l -0.17,0.17 c 0.019,-0.018 0.044,-0.029 0.071,-0.029 0.016,0 0.031,0.004 0.045,0.011 l -0.34,-0.17 c -0.039,-0.02 -0.085,-0.012 -0.116,0.018 l -0.17,0.17 c 0.019,-0.018 0.044,-0.029 0.071,-0.029 0.016,0 0.031,0.004 0.045,0.011 l -0.34,-0.17 c -0.039,-0.02 -0.085,-0.012 -0.116,0.018 l -0.14,0.141 c -0.03,0.029 0.041,0 0,0 H 64.2 c -0.1,0 0,0.1 0,0 v -3.2 c 0,-0.1 -0.1,0 0,0 h 0.029 c 0.041,0 -0.03,-0.029 0,0 l 0.14,0.141 c 0.031,0.03 0.077,0.038 0.116,0.018 l 0.34,-0.17 c -0.014,0.007 -0.029,0.011 -0.045,0.011 -0.027,0 -0.052,-0.011 -0.071,-0.029 l 0.17,0.17 c 0.031,0.03 0.077,0.038 0.116,0.018 l 0.34,-0.17 c -0.014,0.007 -0.029,0.011 -0.045,0.011 -0.027,0 -0.052,-0.011 -0.071,-0.029 l 0.17,0.17 c 0.031,0.03 0.077,0.038 0.116,0.018 l 0.34,-0.17 C 65.831,34.496 65.816,34.5 65.8,34.5 c 0.055,0 0.1,-0.045 0.1,-0.1 V 31 c 0,-0.055 -0.045,-0.1 -0.1,-0.1 0.016,0 0.031,0.004 0.045,0.011 l -0.34,-0.17 c -0.039,-0.02 -0.085,-0.012 -0.116,0.018 l -0.17,0.17 c 0.019,-0.018 0.044,-0.029 0.071,-0.029 0.016,0 0.031,0.004 0.045,0.011 l -0.34,-0.17 c -0.039,-0.02 -0.085,-0.012 -0.116,0.018 l -0.17,0.17 c 0.019,-0.018 0.044,-0.029 0.071,-0.029 0.016,0 0.031,0.004 0.045,0.011 l -0.34,-0.17 c -0.039,-0.02 -0.085,-0.012 -0.116,0.018 l -0.14,0.141 c -0.03,0.029 0.041,0 0,0 H 64.2 c -0.1,0 0,0.1 0,0 v -3.2 c 0,-0.1 -0.1,0 0,0 h 0.029 c 0.041,0 -0.03,-0.029 0,0 l 0.14,0.141 c 0.031,0.03 0.077,0.038 0.116,0.018 l 0.34,-0.17 c -0.014,0.007 -0.029,0.011 -0.045,0.011 -0.027,0 -0.052,-0.011 -0.071,-0.029 l 0.17,0.17 c 0.031,0.03 0.077,0.038 0.116,0.018 l 0.34,-0.17 c -0.014,0.007 -0.029,0.011 -0.045,0.011 -0.027,0 -0.052,-0.011 -0.071,-0.029 l 0.17,0.17 c 0.031,0.03 0.077,0.038 0.116,0.018 l 0.34,-0.17 C 65.831,27.696 65.816,27.7 65.8,27.7 c 0.055,0 0.1,-0.045 0.1,-0.1 v -3.4 c 0,-0.055 -0.045,-0.1 -0.1,-0.1 0.016,0 0.031,0.004 0.045,0.011 l -0.34,-0.17 c -0.039,-0.02 -0.085,-0.012 -0.116,0.018 l -0.17,0.17 c 0.019,-0.018 0.044,-0.029 0.071,-0.029 0.016,0 0.031,0.004 0.045,0.011 l -0.34,-0.17 c -0.039,-0.02 -0.085,-0.012 -0.116,0.018 l -0.17,0.17 c 0.019,-0.018 0.044,-0.029 0.071,-0.029 0.016,0 0.031,0.004 0.045,0.011 l -0.34,-0.17 c -0.039,-0.02 -0.085,-0.012 -0.116,0.018 l -0.14,0.141 c -0.03,0.029 0.041,0 0,0 H 64.2 c -0.1,0 0,0.1 0,0 v -4 c 0,-1.773 -0.467,-3.515 -1.353,-5.05 C 61.96,13.515 60.685,12.24 59.15,11.353 57.615,10.467 55.873,10 54.1,10 h -32 c -1.773,0 -3.515,0.467 -5.05,1.353 -1.535,0.887 -2.81,2.162 -3.697,3.697 C 12.467,16.585 12,18.327 12,20.1 12,20.045 12.045,20 12.1,20 h -1.7 c -0.055,0 -0.1,0.045 -0.1,0.1 v 6.8 c 0,0.055 0.045,0.1 0.1,0.1 H 12 c 0.1,0 0,-0.1 0,0 v 6.7 4 c 0,0.1 0.1,0 0,0 h -0.029 c -0.041,0 0.03,0.029 0,0 l -0.14,-0.141 C 11.8,37.529 11.754,37.521 11.715,37.541 l -0.34,0.17 c 0.014,-0.007 0.029,-0.011 0.045,-0.011 0.027,0 0.052,0.011 0.071,0.029 l -0.17,-0.17 c -0.031,-0.03 -0.077,-0.038 -0.116,-0.018 l -0.34,0.17 c 0.014,-0.007 0.029,-0.011 0.045,-0.011 0.027,0 0.052,0.011 0.071,0.029 l -0.17,-0.17 c -0.031,-0.03 -0.077,-0.038 -0.116,-0.018 l -0.34,0.17 C 10.369,37.704 10.384,37.7 10.4,37.7 c -0.055,0 -0.1,0.045 -0.1,0.1 v 3.4 c 0,0.055 0.045,0.1 0.1,0.1 -0.016,0 -0.031,-0.004 -0.045,-0.011 l 0.34,0.17 c 0.039,0.02 0.085,0.012 0.116,-0.018 l 0.17,-0.17 c -0.019,0.018 -0.044,0.029 -0.071,0.029 -0.016,0 -0.031,-0.004 -0.045,-0.011 l 0.34,0.17 c 0.039,0.02 0.085,0.012 0.116,-0.018 l 0.17,-0.17 c -0.019,0.018 -0.044,0.029 -0.071,0.029 -0.016,0 -0.031,-0.004 -0.045,-0.011 l 0.34,0.17 c 0.039,0.02 0.085,0.012 0.116,-0.018 l 0.14,-0.141 c 0.03,-0.029 -0.041,0 0,0 H 12 c 0.1,0 0,-0.1 0,0 v 3.2 c 0,0.1 0.1,0 0,0 h -0.029 c -0.041,0 0.03,0.029 0,0 l -0.14,-0.141 C 11.8,44.329 11.754,44.321 11.715,44.341 l -0.34,0.17 c 0.014,-0.007 0.029,-0.011 0.045,-0.011 0.027,0 0.052,0.011 0.071,0.029 l -0.17,-0.17 c -0.031,-0.03 -0.077,-0.038 -0.116,-0.018 l -0.34,0.17 c 0.014,-0.007 0.029,-0.011 0.045,-0.011 0.027,0 0.052,0.011 0.071,0.029 l -0.17,-0.17 c -0.031,-0.03 -0.077,-0.038 -0.116,-0.018 l -0.34,0.17 C 10.369,44.504 10.384,44.5 10.4,44.5 c -0.055,0 -0.1,0.045 -0.1,0.1 V 48 c 0,0.055 0.045,0.1 0.1,0.1 -0.016,0 -0.031,-0.004 -0.045,-0.011 l 0.34,0.17 c 0.039,0.02 0.085,0.012 0.116,-0.018 l 0.17,-0.17 c -0.019,0.018 -0.044,0.029 -0.071,0.029 -0.016,0 -0.031,-0.004 -0.045,-0.011 l 0.34,0.17 c 0.039,0.02 0.085,0.012 0.116,-0.018 l 0.17,-0.17 c -0.019,0.018 -0.044,0.029 -0.071,0.029 -0.016,0 -0.031,-0.004 -0.045,-0.011 l 0.34,0.17 c 0.039,0.02 0.085,0.012 0.116,-0.018 l 0.14,-0.141 c 0.03,-0.029 -0.041,0 0,0 H 12 c 0.1,0 0,-0.1 0,0 v 4 c 0,1.773 0.467,3.515 1.353,5.05 0.887,1.535 2.162,2.81 3.697,3.697 1.535,0.886 3.277,1.353 5.05,1.353 z"
         stroke="#000000"
         stroke-width="0.2"
         id="path22" />
    </g>
    <path
       d="m 0.1,88.775 h 4.1 c 0.055,0 0.1,-0.045 0.1,-0.1 v -1.6 c 0,-0.1 -0.1,0 0,0 h 3.2 c 0.1,0 0,-0.1 0,0 v 1.6 c 0,0.055 0.045,0.1 0.1,0.1 H 11 c 0.055,0 0.1,-0.045 0.1,-0.1 v -1.6 c 0,-0.1 -0.1,0 0,0 h 3.2 c 0.1,0 0,-0.1 0,0 v 1.6 c 0,0.055 0.045,0.1 0.1,0.1 h 4.1 15.708 4.1 c 0.055,0 0.1,-0.045 0.1,-0.1 v -1.6 c 0,-0.1 -0.1,0 0,0 h 3.2 c 0.1,0 0,-0.1 0,0 v 1.6 c 0,0.055 0.045,0.1 0.1,0.1 h 3.4 c 0.055,0 0.1,-0.045 0.1,-0.1 v -1.6 c 0,-0.1 -0.1,0 0,0 h 3.2 c 0.1,0 0,-0.1 0,0 v 1.6 c 0,0.055 0.045,0.1 0.1,0.1 h 3.4 c 0.055,0 0.1,-0.045 0.1,-0.1 v -1.6 c 0,-0.1 -0.1,0 0,0 h 3.2 c 0.1,0 0,-0.1 0,0 v 1.6 c 0,0.055 0.045,0.1 0.1,0.1 h 3.4 c 0.055,0 0.1,-0.045 0.1,-0.1 v -1.6 c 0,-0.1 -0.1,0 0,0 h 3.2 c 0.1,0 0,-0.1 0,0 v 1.6 c 0,0.055 0.045,0.1 0.1,0.1 h 4.1 15.708 4.1 c 0.055,0 0.1,-0.045 0.1,-0.1 v -1.6 c 0,-0.1 -0.1,0 0,0 h 3.2 c 0.1,0 0,-0.1 0,0 v 1.6 c 0,0.055 0.045,0.1 0.1,0.1 h 3.4 c 0.055,0 0.1,-0.045 0.1,-0.1 v -1.6 c 0,-0.1 -0.1,0 0,0 h 3.2 c 0.1,0 0,-0.1 0,0 v 1.6 c 0,0.055 0.045,0.1 0.1,0.1 h 3.4 c 0.055,0 0.1,-0.045 0.1,-0.1 v -1.6 c 0,-0.1 -0.1,0 0,0 h 3.2 c 0.1,0 0,-0.1 0,0 v 1.6 c 0,0.055 0.045,0.1 0.1,0.1 h 3.4 c 0.055,0 0.1,-0.045 0.1,-0.1 v -1.6 c 0,-0.1 -0.1,0 0,0 h 3.2 c 0.1,0 0,-0.1 0,0 v 1.6 c 0,0.055 0.045,0.1 0.1,0.1 h 4.1 15.708 32 15.708 c 0.055,0 0.1,-0.045 0.1,-0.1 v -1.77 c 0,-0.1 -0.1,0 0,0 h 6.94 c 0.1,0 0,-0.1 0,0 v 1.77 c 0,0.092 0.024,0.183 0.07,0.263 0.046,0.079 0.113,0.146 0.192,0.192 0.08,0.046 0.171,0.07 0.263,0.07 0.079,0 0.157,-0.021 0.225,-0.06 0.069,-0.04 0.126,-0.097 0.165,-0.165 0.04,-0.069 0.06,-0.147 0.06,-0.226 0,-0.044 0.012,-0.087 0.034,-0.125 0.022,-0.038 0.054,-0.07 0.092,-0.092 0.038,-0.022 0.081,-0.033 0.125,-0.033 0.044,0 0.087,0.011 0.125,0.033 0.039,0.022 0.07,0.054 0.092,0.092 0.022,0.038 0.034,0.081 0.034,0.125 0,0.079 0.021,0.157 0.06,0.226 0.04,0.068 0.097,0.125 0.165,0.165 0.069,0.039 0.146,0.06 0.225,0.06 0.079,0 0.157,-0.021 0.226,-0.06 0.068,-0.04 0.125,-0.097 0.165,-0.165 0.039,-0.069 0.06,-0.147 0.06,-0.226 0,-0.044 0.012,-0.087 0.034,-0.125 0.022,-0.038 0.053,-0.07 0.091,-0.092 0.038,-0.022 0.082,-0.033 0.126,-0.033 0.044,0 0.087,0.011 0.125,0.033 0.038,0.022 0.07,0.054 0.092,0.092 0.022,0.038 0.033,0.081 0.033,0.125 0,0.079 0.021,0.157 0.061,0.226 0.039,0.068 0.096,0.125 0.165,0.165 0.068,0.039 0.146,0.06 0.225,0.06 0.079,0 0.157,-0.021 0.225,-0.06 0.069,-0.04 0.126,-0.097 0.165,-0.165 0.04,-0.069 0.06,-0.147 0.06,-0.226 0,-0.044 0.012,-0.087 0.034,-0.125 0.022,-0.038 0.054,-0.07 0.092,-0.092 0.038,-0.022 0.081,-0.033 0.125,-0.033 0.044,0 0.087,0.011 0.125,0.033 0.039,0.022 0.07,0.054 0.092,0.092 0.022,0.038 0.034,0.081 0.034,0.125 0,0.079 0.021,0.157 0.06,0.226 0.04,0.068 0.097,0.125 0.165,0.165 0.069,0.039 0.146,0.06 0.225,0.06 0.079,0 0.157,-0.021 0.226,-0.06 0.068,-0.04 0.125,-0.097 0.165,-0.165 0.039,-0.069 0.06,-0.147 0.06,-0.226 0,-0.044 0.012,-0.087 0.034,-0.125 0.022,-0.038 0.053,-0.07 0.091,-0.092 0.038,-0.022 0.082,-0.033 0.126,-0.033 0.044,0 0.087,0.011 0.125,0.033 0.038,0.022 0.07,0.054 0.092,0.092 0.022,0.038 0.033,0.081 0.033,0.125 0,0.079 0.021,0.157 0.061,0.226 0.039,0.068 0.096,0.125 0.165,0.165 0.068,0.039 0.146,0.06 0.225,0.06 0.092,0 0.183,-0.024 0.262,-0.07 0.08,-0.046 0.146,-0.113 0.193,-0.192 0.046,-0.08 0.07,-0.171 0.07,-0.263 v -33.4 c 0,-0.092 -0.024,-0.183 -0.07,-0.262 -0.047,-0.08 -0.113,-0.147 -0.193,-0.193 -0.079,-0.046 -0.17,-0.07 -0.262,-0.07 -0.079,0 -0.157,0.021 -0.225,0.06 -0.069,0.04 -0.126,0.097 -0.165,0.165 -0.04,0.069 -0.061,0.147 -0.061,0.226 0,0.044 -0.011,0.087 -0.033,0.125 -0.022,0.038 -0.054,0.07 -0.092,0.092 -0.038,0.022 -0.081,0.033 -0.125,0.033 -0.044,0 -0.088,-0.011 -0.126,-0.033 -0.038,-0.022 -0.069,-0.054 -0.091,-0.092 -0.022,-0.038 -0.034,-0.081 -0.034,-0.125 0,-0.079 -0.021,-0.157 -0.06,-0.226 -0.04,-0.068 -0.097,-0.125 -0.165,-0.165 -0.069,-0.039 -0.147,-0.06 -0.226,-0.06 -0.079,0 -0.156,0.021 -0.225,0.06 -0.068,0.04 -0.125,0.097 -0.165,0.165 -0.039,0.069 -0.06,0.147 -0.06,0.226 0,0.044 -0.012,0.087 -0.034,0.125 -0.022,0.038 -0.053,0.07 -0.092,0.092 -0.038,0.022 -0.081,0.033 -0.125,0.033 -0.044,0 -0.087,-0.011 -0.125,-0.033 -0.038,-0.022 -0.07,-0.054 -0.092,-0.092 -0.022,-0.038 -0.034,-0.081 -0.034,-0.125 0,-0.079 -0.02,-0.157 -0.06,-0.226 -0.039,-0.068 -0.096,-0.125 -0.165,-0.165 -0.068,-0.039 -0.146,-0.06 -0.225,-0.06 -0.079,0 -0.157,0.021 -0.225,0.06 -0.069,0.04 -0.126,0.097 -0.165,0.165 -0.04,0.069 -0.061,0.147 -0.061,0.226 0,0.044 -0.011,0.087 -0.033,0.125 -0.022,0.038 -0.054,0.07 -0.092,0.092 -0.038,0.022 -0.081,0.033 -0.125,0.033 -0.044,0 -0.088,-0.011 -0.126,-0.033 -0.038,-0.022 -0.069,-0.054 -0.091,-0.092 -0.022,-0.038 -0.034,-0.081 -0.034,-0.125 0,-0.079 -0.021,-0.157 -0.06,-0.226 -0.04,-0.068 -0.097,-0.125 -0.165,-0.165 -0.069,-0.039 -0.147,-0.06 -0.226,-0.06 -0.079,0 -0.156,0.021 -0.225,0.06 -0.068,0.04 -0.125,0.097 -0.165,0.165 -0.039,0.069 -0.06,0.147 -0.06,0.226 0,0.044 -0.012,0.087 -0.034,0.125 -0.022,0.038 -0.053,0.07 -0.092,0.092 -0.038,0.022 -0.081,0.033 -0.125,0.033 -0.044,0 -0.087,-0.011 -0.125,-0.033 -0.038,-0.022 -0.07,-0.054 -0.092,-0.092 -0.022,-0.038 -0.034,-0.081 -0.034,-0.125 0,-0.079 -0.02,-0.157 -0.06,-0.226 -0.039,-0.068 -0.096,-0.125 -0.165,-0.165 -0.068,-0.039 -0.146,-0.06 -0.225,-0.06 -0.092,0 -0.183,0.024 -0.263,0.07 -0.079,0.046 -0.146,0.113 -0.192,0.193 -0.046,0.079 -0.07,0.17 -0.07,0.262 v 1.77 c 0,0.1 0.1,0 0,0 h -6.94 c -0.1,0 0,0.1 0,0 v -1.77 c 0,-0.055 -0.045,-0.1 -0.1,-0.1 h -15.708 -32 -15.708 -4.1 c -0.055,0 -0.1,0.045 -0.1,0.1 v 1.6 c 0,0.1 0.1,0 0,0 h -3.2 c -0.1,0 0,0.1 0,0 v -1.6 c 0,-0.055 -0.045,-0.1 -0.1,-0.1 h -3.4 c -0.055,0 -0.1,0.045 -0.1,0.1 v 1.6 c 0,0.1 0.1,0 0,0 h -3.2 c -0.1,0 0,0.1 0,0 v -1.6 c 0,-0.055 -0.045,-0.1 -0.1,-0.1 h -3.4 c -0.055,0 -0.1,0.045 -0.1,0.1 v 1.6 c 0,0.1 0.1,0 0,0 h -3.2 c -0.1,0 0,0.1 0,0 v -1.6 c 0,-0.055 -0.045,-0.1 -0.1,-0.1 h -3.4 c -0.055,0 -0.1,0.045 -0.1,0.1 v 1.6 c 0,0.1 0.1,0 0,0 h -3.2 c -0.1,0 0,0.1 0,0 v -1.6 c 0,-0.055 -0.045,-0.1 -0.1,-0.1 h -4.1 -15.708 -4.1 c -0.055,0 -0.1,0.045 -0.1,0.1 v 1.6 c 0,0.1 0.1,0 0,0 h -3.2 c -0.1,0 0,0.1 0,0 v -1.6 c 0,-0.055 -0.045,-0.1 -0.1,-0.1 h -3.4 c -0.055,0 -0.1,0.045 -0.1,0.1 v 1.6 c 0,0.1 0.1,0 0,0 h -3.2 c -0.1,0 0,0.1 0,0 v -1.6 c 0,-0.055 -0.045,-0.1 -0.1,-0.1 h -3.4 c -0.055,0 -0.1,0.045 -0.1,0.1 v 1.6 c 0,0.1 0.1,0 0,0 h -3.2 c -0.1,0 0,0.1 0,0 v -1.6 c 0,-0.055 -0.045,-0.1 -0.1,-0.1 h -3.4 c -0.055,0 -0.1,0.045 -0.1,0.1 v 1.6 c 0,0.1 0.1,0 0,0 h -3.2 c -0.1,0 0,0.1 0,0 v -1.6 c 0,-0.055 -0.045,-0.1 -0.1,-0.1 H 34.208 18.5 14.4 c -0.055,0 -0.1,0.045 -0.1,0.1 v 1.6 c 0,0.1 0.1,0 0,0 h -3.2 c -0.1,0 0,0.1 0,0 v -1.6 c 0,-0.055 -0.045,-0.1 -0.1,-0.1 H 7.6 c -0.055,0 -0.1,0.045 -0.1,0.1 v 1.6 c 0,0.1 0.1,0 0,0 H 4.3 c -0.1,0 0,0.1 0,0 v -1.6 c 0,-0.055 -0.045,-0.1 -0.1,-0.1 H 0.1 c -0.055,0 -0.1,0.045 -0.1,0.1 v 33.4 c 0,0.055 0.045,0.1 0.1,0.1 z"
       stroke="#000000"
       stroke-width="0.2"
       id="path11"
       style="fill:none;stroke-linecap:round;stroke-linejoin:round" />
    <path
       id="rect455-36"
       style="display:inline;fill:none;stroke:#000000;stroke-width:0.156894;stroke-dasharray:none;paint-order:markers fill stroke;stop-color:#000000"
       d="m 14.98016,44.5 v 0.002 a 1.5384856,2.4999998 0 0 0 -0.05502,0 1.5384856,2.4999998 0 0 0 -1.482581,2.58383 1.5384856,2.4999998 0 0 0 1.537597,2.41277 v 0.002 h 4.922854 v -0.002 a 1.5384856,2.4999998 0 0 0 0.05025,5.1e-4 1.5384856,2.4999998 0 0 0 1.487668,-2.57607 l -3.17e-4,-0.016 a 1.5384856,2.4999998 0 0 0 -1.537597,-2.40503 v -0.002 z" />
    <path
       id="rect455-3-7"
       style="display:inline;fill:none;stroke:#000000;stroke-width:0.207539;stroke-dasharray:none;paint-order:markers fill stroke;stop-color:#000000"
       d="m 36.242377,41.854165 v 0.002 a 2.6923471,2.4996998 0 0 0 -0.09629,0 2.6923471,2.4996998 0 0 0 -2.594514,2.58352 2.6923471,2.4996998 0 0 0 2.690792,2.41248 v 0.002 h 8.614986 v -0.002 a 2.6923471,2.4996998 0 0 0 0.08794,5.1e-4 2.6923471,2.4996998 0 0 0 2.603416,-2.575761 l -5.54e-4,-0.016 a 2.6923471,2.4996998 0 0 0 -2.690792,-2.404739 v -0.002 z" />
    <path
       id="rect455-3-6-5"
       style="display:inline;fill:none;stroke:#000000;stroke-width:0.207539;stroke-dasharray:none;paint-order:markers fill stroke;stop-color:#000000"
       d="m 7.3583149,18.499268 h 0.002 a 2.4996998,2.6923471 0 0 0 0,0.09629 2.4996998,2.6923471 0 0 0 2.5835184,2.594514 2.4996998,2.6923471 0 0 0 2.4124797,-2.690792 h 0.002 V 9.884294 h -0.002 a 2.4996998,2.6923471 0 0 0 5.1e-4,-0.08794 2.4996998,2.6923471 0 0 0 -2.5757607,-2.6034145 l -0.016,5.54e-4 A 2.4996998,2.6923471 0 0 0 7.3603249,9.884284 h -0.002 z" />
    <path
       id="rect378-3"
       style="display:inline;fill:none;stroke:#000000;stroke-width:0.2;paint-order:markers fill stroke;stop-color:#000000"
       d="m 89.458435,62.180801 a 5.0000033,5.0000033 0 0 0 -4.81831,5.107182 h -0.0026 v 1.999878 h 0.0031 a 5.0000033,5.0000033 0 0 0 -5.17e-4,0.170532 5.0000033,5.0000033 0 0 0 5.159892,4.827096 5.0000033,5.0000033 0 0 0 4.83743,-4.997628 5.0000033,5.0000033 0 0 0 0,-0.02584 v -1.97404 h -0.0015 a 5.0000033,5.0000033 0 0 0 -0.001,-0.264583 l -10e-4,-0.03256 a 5.0000033,5.0000033 0 0 0 -5.175395,-4.810043 z" />
  </g>
  <g
     id="g2086"
     transform="translate(0,-41.939118)">
    <path
       d="m 163.228,130.71412 v -15.61356 m 0,-2.37288 V 97.114116 m 1.25,2.372881 v 28.854243 m 1.25,2.37288 v -15.61356 m 0,-2.37288 V 97.114116 m 1.25,2.372881 v 28.854243 m 1.25,2.37288 v -15.61356 m 0,-2.37288 V 97.114116 m 1.25,2.372881 v 28.854243 m 1.25,2.37288 v -15.61356 m 0,-2.37288 V 97.114116 m 1.25,2.372881 v 28.854243 m 1.25,2.37288 v -15.61356 m 0,-2.37288 V 97.114116 m 1.25,2.372881 v 28.854243 m 1.25,2.37288 v -15.61356 m 0,-2.37288 V 97.114116"
       stroke="#000000"
       stroke-width="0.389698"
       id="path337-5"
       style="display:inline;fill:none;stroke-width:0.2;stroke-linecap:round;stroke-linejoin:round;stroke-dasharray:none" />
    <path
       d="m 20.104,130.71412 v -15.61356 m 0,-2.37288 V 97.114117 m 1.25,2.372881 v 28.854242 m 1.25,2.37288 v -15.61356 m 0,-2.37288 V 97.114117 m 1.25,2.372881 v 28.854242 m 1.25,2.37288 v -15.61356 m 0,-2.37288 V 97.114117 m 1.25,2.372881 v 28.854242 m 1.25,2.37288 v -15.61356 m 0,-2.37288 V 97.114117 m 1.25,2.372881 v 28.854242 m 1.25,2.37288 v -15.61356 m 0,-2.37288 V 97.114117 m 1.25,2.372881 v 28.854242 m 1.25,2.37288 v -15.61356 m 0,-2.37288 V 97.114117"
       stroke="#000000"
       stroke-width="0.389698"
       id="path337-3"
       style="display:inline;fill:none;stroke-width:0.2;stroke-linecap:round;stroke-linejoin:round;stroke-dasharray:none" />
    <path
       d="m 67.812,130.71412 v -15.61356 m 0,-2.37288 V 97.114118 m 1.25,2.372881 v 28.854241 m 1.25,2.37288 v -15.61356 m 0,-2.37288 V 97.114118 m 1.25,2.372881 v 28.854241 m 1.25,2.37288 v -15.61356 m 0,-2.37288 V 97.114118 m 1.25,2.372881 v 28.854241 m 1.25,2.37288 v -15.61356 m 0,-2.37288 V 97.114118 m 1.25,2.372881 v 28.854241 m 1.25,2.37288 v -15.61356 m 0,-2.37288 V 97.114118 m 1.25,2.372881 v 28.854241 m 1.25,2.37288 v -15.61356 m 0,-2.37288 V 97.114118"
       stroke="#000000"
       stroke-width="0.389698"
       id="path337"
       style="fill:none;stroke-width:0.2;stroke-linecap:round;stroke-linejoin:round;stroke-dasharray:none" />
    <path
       d="m 115.52,130.71412 v -15.61357 m 0,-2.37287 V 97.114117 m 1.25,2.372881 v 28.854232 m 1.25,2.37289 v -15.61357 m 0,-2.37287 V 97.114117 m 1.25,2.372881 v 28.854232 m 1.25,2.37289 v -15.61357 m 0,-2.37287 V 97.114117 m 1.25,2.372881 v 28.854232 m 1.25,2.37289 v -15.61357 m 0,-2.37287 V 97.114117 m 1.25,2.372881 v 28.854232 m 1.25,2.37289 v -15.61357 m 0,-2.37287 V 97.114117 m 1.25,2.372881 v 28.854232 m 1.25,2.37289 v -15.61357 m 0,-2.37287 V 97.114117"
       stroke="#000000"
       stroke-width="0.389698"
       id="path337-7"
       style="fill:none;stroke-width:0.2;stroke-linecap:round;stroke-linejoin:round;stroke-dasharray:none" />
  </g>
</svg>
