%TF.GenerationSoftware,KiCad,Pcbnew,7.0.5-7.0.5~ubuntu22.04.1*%
%TF.CreationDate,2023-06-07T00:17:10+05:30*%
%TF.ProjectId,BagTag,42616754-6167-42e6-9b69-6361645f7063,v2*%
%TF.SameCoordinates,Original*%
%TF.FileFunction,Soldermask,Bot*%
%TF.FilePolarity,Negative*%
%FSLAX46Y46*%
G04 Gerber Fmt 4.6, Leading zero omitted, Abs format (unit mm)*
G04 Created by KiCad (PCBNEW 7.0.5-7.0.5~ubuntu22.04.1) date 2023-06-07 00:17:10*
%MOMM*%
%LPD*%
G01*
G04 APERTURE LIST*
G04 Aperture macros list*
%AMRoundRect*
0 Rectangle with rounded corners*
0 $1 Rounding radius*
0 $2 $3 $4 $5 $6 $7 $8 $9 X,Y pos of 4 corners*
0 Add a 4 corners polygon primitive as box body*
4,1,4,$2,$3,$4,$5,$6,$7,$8,$9,$2,$3,0*
0 Add four circle primitives for the rounded corners*
1,1,$1+$1,$2,$3*
1,1,$1+$1,$4,$5*
1,1,$1+$1,$6,$7*
1,1,$1+$1,$8,$9*
0 Add four rect primitives between the rounded corners*
20,1,$1+$1,$2,$3,$4,$5,0*
20,1,$1+$1,$4,$5,$6,$7,0*
20,1,$1+$1,$6,$7,$8,$9,0*
20,1,$1+$1,$8,$9,$2,$3,0*%
%AMOutline5P*
0 Free polygon, 5 corners , with rotation*
0 The origin of the aperture is its center*
0 number of corners: always 5*
0 $1 to $10 corner X, Y*
0 $11 Rotation angle, in degrees counterclockwise*
0 create outline with 5 corners*
4,1,5,$1,$2,$3,$4,$5,$6,$7,$8,$9,$10,$1,$2,$11*%
%AMOutline6P*
0 Free polygon, 6 corners , with rotation*
0 The origin of the aperture is its center*
0 number of corners: always 6*
0 $1 to $12 corner X, Y*
0 $13 Rotation angle, in degrees counterclockwise*
0 create outline with 6 corners*
4,1,6,$1,$2,$3,$4,$5,$6,$7,$8,$9,$10,$11,$12,$1,$2,$13*%
%AMOutline7P*
0 Free polygon, 7 corners , with rotation*
0 The origin of the aperture is its center*
0 number of corners: always 7*
0 $1 to $14 corner X, Y*
0 $15 Rotation angle, in degrees counterclockwise*
0 create outline with 7 corners*
4,1,7,$1,$2,$3,$4,$5,$6,$7,$8,$9,$10,$11,$12,$13,$14,$1,$2,$15*%
%AMOutline8P*
0 Free polygon, 8 corners , with rotation*
0 The origin of the aperture is its center*
0 number of corners: always 8*
0 $1 to $16 corner X, Y*
0 $17 Rotation angle, in degrees counterclockwise*
0 create outline with 8 corners*
4,1,8,$1,$2,$3,$4,$5,$6,$7,$8,$9,$10,$11,$12,$13,$14,$15,$16,$1,$2,$17*%
G04 Aperture macros list end*
%ADD10Outline8P,-0.850000X0.340000X-0.340000X0.850000X0.340000X0.850000X0.850000X0.340000X0.850000X-0.340000X0.340000X-0.850000X-0.340000X-0.850000X-0.850000X-0.340000X180.000000*%
%ADD11Outline8P,-0.850000X0.340000X-0.340000X0.850000X0.340000X0.850000X0.850000X0.340000X0.850000X-0.340000X0.340000X-0.850000X-0.340000X-0.850000X-0.850000X-0.340000X270.000000*%
%ADD12C,3.048000*%
%ADD13O,2.032000X1.524000*%
%ADD14RoundRect,0.425000X-0.425000X0.425000X-0.425000X-0.425000X0.425000X-0.425000X0.425000X0.425000X0*%
%ADD15O,1.700000X1.700000*%
%ADD16RoundRect,0.425000X-0.425000X-0.425000X0.425000X-0.425000X0.425000X0.425000X-0.425000X0.425000X0*%
%ADD17C,1.600000*%
%ADD18O,1.600000X1.600000*%
%ADD19Outline8P,-0.850000X0.340000X-0.340000X0.850000X0.340000X0.850000X0.850000X0.340000X0.850000X-0.340000X0.340000X-0.850000X-0.340000X-0.850000X-0.850000X-0.340000X0.000000*%
%ADD20C,2.032000*%
%ADD21Outline8P,-1.143000X0.254000X-0.762000X0.635000X0.762000X0.635000X1.143000X0.254000X1.143000X-0.254000X0.762000X-0.635000X-0.762000X-0.635000X-1.143000X-0.254000X270.000000*%
%ADD22O,1.270000X2.286000*%
%ADD23RoundRect,0.317500X-0.317500X0.825500X-0.317500X-0.825500X0.317500X-0.825500X0.317500X0.825500X0*%
%ADD24O,2.032000X3.302000*%
%ADD25RoundRect,0.317500X-0.317500X-0.952500X0.317500X-0.952500X0.317500X0.952500X-0.317500X0.952500X0*%
%ADD26O,1.270000X2.540000*%
%ADD27RoundRect,0.444500X-0.444500X-0.444500X0.444500X-0.444500X0.444500X0.444500X-0.444500X0.444500X0*%
%ADD28O,1.778000X1.778000*%
G04 APERTURE END LIST*
D10*
%TO.C,J242*%
X105410000Y-71120000D03*
%TD*%
%TO.C,J234*%
X107950000Y-63500000D03*
%TD*%
D11*
%TO.C,J155*%
X72390000Y-107950000D03*
%TD*%
D10*
%TO.C,J189*%
X57150000Y-91440000D03*
%TD*%
D11*
%TO.C,J175*%
X97790000Y-107950000D03*
%TD*%
D10*
%TO.C,J225*%
X57150000Y-66040000D03*
%TD*%
%TO.C,J142*%
X107950000Y-81280000D03*
%TD*%
%TO.C,J186*%
X57150000Y-83820000D03*
%TD*%
%TO.C,J144*%
X107950000Y-86360000D03*
%TD*%
D11*
%TO.C,J154*%
X69850000Y-107950000D03*
%TD*%
D10*
%TO.C,J226*%
X52070000Y-68580000D03*
%TD*%
%TO.C,J137*%
X105410000Y-93980000D03*
%TD*%
%TO.C,J149*%
X107950000Y-99060000D03*
%TD*%
%TO.C,J237*%
X107950000Y-66040000D03*
%TD*%
%TO.C,J140*%
X107950000Y-76200000D03*
%TD*%
%TO.C,J132*%
X105410000Y-81280000D03*
%TD*%
D11*
%TO.C,J158*%
X80010000Y-107950000D03*
%TD*%
D10*
%TO.C,J111*%
X54610000Y-78740000D03*
%TD*%
%TO.C,J124*%
X102870000Y-86360000D03*
%TD*%
D11*
%TO.C,J174*%
X95250000Y-107950000D03*
%TD*%
D10*
%TO.C,J143*%
X107950000Y-83820000D03*
%TD*%
%TO.C,J145*%
X107950000Y-88900000D03*
%TD*%
%TO.C,J236*%
X105410000Y-66040000D03*
%TD*%
%TO.C,J232*%
X102870000Y-63500000D03*
%TD*%
%TO.C,J133*%
X105410000Y-83820000D03*
%TD*%
%TO.C,J148*%
X107950000Y-96520000D03*
%TD*%
D11*
%TO.C,J196*%
X59690000Y-101600000D03*
%TD*%
%TO.C,J160*%
X59690000Y-105410000D03*
%TD*%
D12*
%TO.C,LED2*%
X99060000Y-83820000D03*
X99060000Y-101600000D03*
D13*
X97155000Y-97790000D03*
X97155000Y-95250000D03*
X97155000Y-92710000D03*
X97155000Y-90170000D03*
X97155000Y-87630000D03*
%TD*%
D10*
%TO.C,J233*%
X105410000Y-63500000D03*
%TD*%
%TO.C,J128*%
X102870000Y-96520000D03*
%TD*%
D11*
%TO.C,J164*%
X69850000Y-105410000D03*
%TD*%
D10*
%TO.C,J102*%
X52070000Y-81280000D03*
%TD*%
%TO.C,J230*%
X54610000Y-71120000D03*
%TD*%
D11*
%TO.C,J173*%
X92710000Y-107950000D03*
%TD*%
D10*
%TO.C,J109*%
X52070000Y-99060000D03*
%TD*%
%TO.C,J108*%
X52070000Y-96520000D03*
%TD*%
%TO.C,J235*%
X102870000Y-66040000D03*
%TD*%
%TO.C,J227*%
X54610000Y-68580000D03*
%TD*%
D11*
%TO.C,J165*%
X72390000Y-105410000D03*
%TD*%
D10*
%TO.C,J134*%
X105410000Y-86360000D03*
%TD*%
D11*
%TO.C,J194*%
X54610000Y-101600000D03*
%TD*%
%TO.C,J169*%
X82550000Y-105410000D03*
%TD*%
D14*
%TO.C,BT1*%
X96256000Y-52578000D03*
D15*
X98796000Y-52578000D03*
%TD*%
D11*
%TO.C,J162*%
X64769999Y-105410000D03*
%TD*%
D10*
%TO.C,J198*%
X105410000Y-101600000D03*
%TD*%
%TO.C,J231*%
X57150000Y-71120000D03*
%TD*%
%TO.C,J191*%
X57150000Y-96520000D03*
%TD*%
D11*
%TO.C,J172*%
X90169999Y-107950000D03*
%TD*%
D10*
%TO.C,J138*%
X105410000Y-96520000D03*
%TD*%
%TO.C,J113*%
X54610000Y-83820000D03*
%TD*%
%TO.C,J135*%
X105410000Y-88900000D03*
%TD*%
D16*
%TO.C,J2*%
X59690000Y-81280000D03*
D15*
X59690000Y-83820000D03*
X59690000Y-86360000D03*
X59690000Y-88900000D03*
%TD*%
D10*
%TO.C,J223*%
X52070000Y-66040000D03*
%TD*%
D12*
%TO.C,LED1*%
X67310000Y-83820000D03*
X67310000Y-101600000D03*
X92710000Y-83820000D03*
X92710000Y-101600000D03*
D13*
X65405000Y-97790000D03*
X94615000Y-97790000D03*
X65405000Y-95250000D03*
X94615000Y-95250000D03*
X65405000Y-92710000D03*
X94615000Y-92710000D03*
X65405000Y-90170000D03*
X94615000Y-90170000D03*
X65405000Y-87630000D03*
X94615000Y-87630000D03*
%TD*%
D11*
%TO.C,J171*%
X87630000Y-107950000D03*
%TD*%
D10*
%TO.C,J106*%
X52070000Y-91440000D03*
%TD*%
D11*
%TO.C,J153*%
X67310000Y-107950000D03*
%TD*%
D10*
%TO.C,J121*%
X102870000Y-78740000D03*
%TD*%
%TO.C,J107*%
X52070000Y-93980000D03*
%TD*%
D16*
%TO.C,J1*%
X62230000Y-81280000D03*
D15*
X62230000Y-83820000D03*
X62230000Y-86360000D03*
X62230000Y-88900000D03*
%TD*%
D10*
%TO.C,J221*%
X54610000Y-63500000D03*
%TD*%
%TO.C,J127*%
X102870000Y-93980000D03*
%TD*%
D11*
%TO.C,J176*%
X85090000Y-105410000D03*
%TD*%
D10*
%TO.C,J229*%
X52070000Y-71120000D03*
%TD*%
%TO.C,J222*%
X57150000Y-63500000D03*
%TD*%
%TO.C,J192*%
X57150000Y-99060000D03*
%TD*%
D11*
%TO.C,J178*%
X90169999Y-105410000D03*
%TD*%
D10*
%TO.C,J125*%
X102870000Y-88900000D03*
%TD*%
%TO.C,J117*%
X54610000Y-93980000D03*
%TD*%
%TO.C,J100*%
X52070000Y-76200000D03*
%TD*%
%TO.C,J184*%
X57150000Y-78740000D03*
%TD*%
D11*
%TO.C,J170*%
X85090000Y-107950000D03*
%TD*%
D10*
%TO.C,J110*%
X54610000Y-76200000D03*
%TD*%
D11*
%TO.C,J151*%
X62230000Y-107950000D03*
%TD*%
%TO.C,J167*%
X77470001Y-105410000D03*
%TD*%
%TO.C,J193*%
X52070000Y-101600000D03*
%TD*%
%TO.C,J157*%
X77470001Y-107950000D03*
%TD*%
D10*
%TO.C,J123*%
X102870000Y-83820000D03*
%TD*%
%TO.C,J187*%
X57150000Y-86360000D03*
%TD*%
%TO.C,J182*%
X100330000Y-105410000D03*
%TD*%
%TO.C,J220*%
X52070000Y-63500000D03*
%TD*%
D11*
%TO.C,J177*%
X87630000Y-105410000D03*
%TD*%
D17*
%TO.C,R2*%
X62230000Y-99060000D03*
D18*
X62230000Y-91440000D03*
%TD*%
D10*
%TO.C,J243*%
X107950000Y-71120000D03*
%TD*%
%TO.C,J115*%
X54610000Y-88900000D03*
%TD*%
%TO.C,J199*%
X107950000Y-101600000D03*
%TD*%
%TO.C,J188*%
X57150000Y-88900000D03*
%TD*%
%TO.C,J147*%
X107950000Y-93980000D03*
%TD*%
D19*
%TO.C,J179*%
X92710000Y-105410000D03*
%TD*%
D10*
%TO.C,J141*%
X107950000Y-78740000D03*
%TD*%
D19*
%TO.C,J163*%
X67310000Y-105410000D03*
%TD*%
D10*
%TO.C,J139*%
X105410000Y-99060000D03*
%TD*%
%TO.C,J118*%
X54610000Y-96520000D03*
%TD*%
%TO.C,J112*%
X54610000Y-81280000D03*
%TD*%
%TO.C,J116*%
X54610000Y-91440000D03*
%TD*%
%TO.C,J185*%
X57150000Y-81280000D03*
%TD*%
%TO.C,J120*%
X102870000Y-76200000D03*
%TD*%
D11*
%TO.C,J195*%
X57149999Y-101600000D03*
%TD*%
%TO.C,J197*%
X102870000Y-101600000D03*
%TD*%
D19*
%TO.C,J181*%
X97790000Y-105410000D03*
%TD*%
D11*
%TO.C,J180*%
X95250000Y-105410000D03*
%TD*%
D20*
%TO.C,U1*%
X100330000Y-59690000D03*
X59690000Y-59690000D03*
X100330000Y-74930000D03*
X59690000Y-74930000D03*
D21*
X64770000Y-74930000D03*
X90170000Y-74930000D03*
D22*
X69850000Y-74930000D03*
X72390000Y-74930000D03*
X74930000Y-74930000D03*
X77470000Y-74930000D03*
X80010000Y-74930000D03*
X82550000Y-74930000D03*
X85090000Y-74930000D03*
X87630000Y-74930000D03*
X67310000Y-74930000D03*
X95250000Y-59690000D03*
X97790000Y-59690000D03*
X87630000Y-59690000D03*
X85090000Y-59690000D03*
X82550000Y-59690000D03*
X80010000Y-59690000D03*
X77470000Y-59690000D03*
X74930000Y-59690000D03*
X72390000Y-59690000D03*
X69850000Y-59690000D03*
X67310000Y-59690000D03*
X64770000Y-59690000D03*
X62230000Y-59690000D03*
X62230000Y-74930000D03*
D23*
X90170000Y-59690000D03*
X95250000Y-74930000D03*
D22*
X92710000Y-59690000D03*
X92710000Y-74930000D03*
D21*
X97790000Y-74930000D03*
%TD*%
D11*
%TO.C,J150*%
X59690000Y-107950000D03*
%TD*%
D10*
%TO.C,J238*%
X102870000Y-68580000D03*
%TD*%
%TO.C,J122*%
X102870000Y-81280000D03*
%TD*%
%TO.C,J183*%
X100330000Y-107950000D03*
%TD*%
%TO.C,J126*%
X102870000Y-91440000D03*
%TD*%
%TO.C,J103*%
X52070000Y-83820000D03*
%TD*%
%TO.C,J131*%
X105410000Y-78740000D03*
%TD*%
%TO.C,J136*%
X105410000Y-91440000D03*
%TD*%
D24*
%TO.C,SW1*%
X68648000Y-55372000D03*
X60448000Y-55372000D03*
D25*
X66548000Y-55372000D03*
D26*
X64548000Y-55372000D03*
X62548000Y-55372000D03*
%TD*%
D10*
%TO.C,J114*%
X54610000Y-86360000D03*
%TD*%
%TO.C,J104*%
X52070000Y-86360000D03*
%TD*%
%TO.C,J228*%
X57150000Y-68580000D03*
%TD*%
D11*
%TO.C,J156*%
X74930000Y-107950000D03*
%TD*%
D10*
%TO.C,J130*%
X105410000Y-76200000D03*
%TD*%
%TO.C,J119*%
X54610000Y-99060000D03*
%TD*%
D11*
%TO.C,J152*%
X64769999Y-107950000D03*
%TD*%
%TO.C,J168*%
X80010000Y-105410000D03*
%TD*%
%TO.C,J166*%
X74930000Y-105410000D03*
%TD*%
D10*
%TO.C,J241*%
X102870000Y-71120000D03*
%TD*%
%TO.C,J239*%
X105410000Y-68580000D03*
%TD*%
%TO.C,J105*%
X52070000Y-88900000D03*
%TD*%
%TO.C,J101*%
X52070000Y-78740000D03*
%TD*%
%TO.C,J129*%
X102870000Y-99060000D03*
%TD*%
D11*
%TO.C,J161*%
X62230000Y-105410000D03*
%TD*%
D27*
%TO.C,D1*%
X89408000Y-56134000D03*
D28*
X99568000Y-56134000D03*
%TD*%
D10*
%TO.C,J224*%
X54610000Y-66040000D03*
%TD*%
D17*
%TO.C,R1*%
X59690000Y-99060000D03*
D18*
X59690000Y-91440000D03*
%TD*%
D11*
%TO.C,J159*%
X82550000Y-107950000D03*
%TD*%
D10*
%TO.C,J190*%
X57150000Y-93980000D03*
%TD*%
%TO.C,J240*%
X107950000Y-68580000D03*
%TD*%
%TO.C,J146*%
X107950000Y-91440000D03*
%TD*%
D11*
%TO.C,J10*%
X87630000Y-62230000D03*
%TD*%
%TO.C,J25*%
X97790000Y-62230000D03*
%TD*%
%TO.C,J18*%
X67310000Y-62230000D03*
%TD*%
%TO.C,J35*%
X97790000Y-72390000D03*
%TD*%
%TO.C,J32*%
X72390000Y-72390000D03*
%TD*%
%TO.C,J24*%
X95250000Y-62230000D03*
%TD*%
%TO.C,J13*%
X80010000Y-62230000D03*
%TD*%
%TO.C,J20*%
X62230000Y-62230000D03*
%TD*%
%TO.C,J11*%
X85090000Y-62230000D03*
%TD*%
%TO.C,J22*%
X92709999Y-62230000D03*
%TD*%
%TO.C,J39*%
X90170000Y-62230000D03*
%TD*%
%TO.C,J36*%
X90170000Y-72390000D03*
%TD*%
%TO.C,J21*%
X62230000Y-72390000D03*
%TD*%
%TO.C,J26*%
X87630000Y-72390000D03*
%TD*%
%TO.C,J34*%
X67310000Y-72390000D03*
%TD*%
%TO.C,J29*%
X80010000Y-72390000D03*
%TD*%
%TO.C,J17*%
X69849999Y-62230000D03*
%TD*%
%TO.C,J12*%
X82550001Y-62230000D03*
%TD*%
%TO.C,J23*%
X92710000Y-72389999D03*
%TD*%
%TO.C,J16*%
X72390000Y-62230000D03*
%TD*%
%TO.C,J38*%
X95250000Y-72390000D03*
%TD*%
%TO.C,J33*%
X69850000Y-72389999D03*
%TD*%
%TO.C,J27*%
X85090000Y-72390000D03*
%TD*%
%TO.C,J37*%
X64770000Y-72390000D03*
%TD*%
%TO.C,J30*%
X77470000Y-72390000D03*
%TD*%
%TO.C,J15*%
X74930000Y-62230000D03*
%TD*%
%TO.C,J28*%
X82550000Y-72389999D03*
%TD*%
%TO.C,J31*%
X74930000Y-72390000D03*
%TD*%
%TO.C,J14*%
X77470000Y-62230000D03*
%TD*%
%TO.C,J19*%
X64770000Y-62230000D03*
%TD*%
M02*
