M48
; DRILL file {KiCad 7.0.5-7.0.5~ubuntu22.04.1} date Monday 19 June 2023 02:09:41 PM
; FORMAT={-:-/ absolute / inch / decimal}
; #@! TF.CreationDate,2023-06-19T14:09:41+05:30
; #@! TF.GenerationSoftware,Kicad,Pcbnew,7.0.5-7.0.5~ubuntu22.04.1
; #@! TF.FileFunction,MixedPlating,1,2
FMAT,2
INCH
; #@! TA.AperFunction,Plated,PTH,ComponentDrill
T1C0.0315
; #@! TA.AperFunction,Plated,PTH,ComponentDrill
T2C0.0354
; #@! TA.AperFunction,Plated,PTH,ComponentDrill
T3C0.0394
; #@! TA.AperFunction,Plated,PTH,ComponentDrill
T4C0.0400
; #@! TA.AperFunction,Plated,PTH,ComponentDrill
T5C0.0433
; #@! TA.AperFunction,Plated,PTH,ComponentDrill
T6C0.0591
; #@! TA.AperFunction,NonPlated,NPTH,ComponentDrill
T7C0.0800
%
G90
G05
T1
X2.35Y-3.6
X2.35Y-3.9
X2.45Y-3.6
X2.45Y-3.9
T2
X2.4625Y-2.18
X2.5413Y-2.18
X2.62Y-2.18
T3
X2.05Y-2.5
X2.05Y-2.6
X2.05Y-2.7
X2.05Y-2.8
X2.05Y-3.0
X2.05Y-3.1
X2.05Y-3.2
X2.05Y-3.3
X2.05Y-3.4
X2.05Y-3.5
X2.05Y-3.6
X2.05Y-3.7
X2.05Y-3.8
X2.05Y-3.9
X2.05Y-4.0
X2.15Y-2.5
X2.15Y-2.6
X2.15Y-2.7
X2.15Y-2.8
X2.15Y-3.0
X2.15Y-3.1
X2.15Y-3.2
X2.15Y-3.3
X2.15Y-3.4
X2.15Y-3.5
X2.15Y-3.6
X2.15Y-3.7
X2.15Y-3.8
X2.15Y-3.9
X2.15Y-4.0
X2.25Y-4.0
X2.25Y-2.5
X2.25Y-2.6
X2.25Y-2.7
X2.25Y-2.8
X2.25Y-3.1
X2.25Y-3.2
X2.25Y-3.3
X2.25Y-3.4
X2.25Y-3.5
X2.25Y-3.6
X2.25Y-3.7
X2.25Y-3.8
X2.25Y-3.9
X2.35Y-3.2
X2.35Y-3.3
X2.35Y-3.4
X2.35Y-3.5
X2.35Y-4.0
X2.35Y-4.15
X2.35Y-4.25
X2.45Y-2.45
X2.45Y-2.85
X2.45Y-3.2
X2.45Y-3.3
X2.45Y-3.4
X2.45Y-3.5
X2.45Y-4.15
X2.45Y-4.25
X2.55Y-4.15
X2.55Y-4.25
X2.55Y-2.45
X2.55Y-2.85
X2.65Y-2.45
X2.65Y-2.85
X2.65Y-4.15
X2.65Y-4.25
X2.75Y-2.45
X2.75Y-2.85
X2.75Y-4.15
X2.75Y-4.25
X2.85Y-2.45
X2.85Y-2.85
X2.85Y-4.15
X2.85Y-4.25
X2.95Y-2.45
X2.95Y-2.85
X2.95Y-4.15
X2.95Y-4.25
X3.05Y-2.45
X3.05Y-2.85
X3.05Y-4.15
X3.05Y-4.25
X3.15Y-2.45
X3.15Y-2.85
X3.15Y-4.15
X3.15Y-4.25
X3.25Y-2.85
X3.25Y-4.15
X3.25Y-4.25
X3.25Y-2.45
X3.35Y-2.45
X3.35Y-2.85
X3.35Y-4.15
X3.35Y-4.25
X3.45Y-2.45
X3.45Y-2.85
X3.45Y-4.15
X3.45Y-4.25
X3.55Y-4.15
X3.55Y-4.25
X3.55Y-2.45
X3.55Y-2.85
X3.65Y-2.45
X3.65Y-2.85
X3.65Y-4.15
X3.65Y-4.25
X3.75Y-2.45
X3.75Y-2.85
X3.75Y-4.15
X3.75Y-4.25
X3.7896Y-2.07
X3.85Y-2.45
X3.85Y-2.85
X3.85Y-4.15
X3.85Y-4.25
X3.8896Y-2.07
X3.95Y-4.15
X3.95Y-4.25
X4.05Y-2.5
X4.05Y-2.6
X4.05Y-2.7
X4.05Y-2.8
X4.05Y-3.0
X4.05Y-3.1
X4.05Y-3.2
X4.05Y-3.3
X4.05Y-3.4
X4.05Y-3.5
X4.05Y-3.6
X4.05Y-3.7
X4.05Y-3.8
X4.05Y-3.9
X4.05Y-4.0
X4.15Y-2.5
X4.15Y-2.6
X4.15Y-2.7
X4.15Y-2.8
X4.15Y-3.0
X4.15Y-3.1
X4.15Y-3.2
X4.15Y-3.3
X4.15Y-3.4
X4.15Y-3.5
X4.15Y-3.6
X4.15Y-3.7
X4.15Y-3.8
X4.15Y-3.9
X4.15Y-4.0
X4.25Y-2.5
X4.25Y-2.6
X4.25Y-2.7
X4.25Y-2.8
X4.25Y-3.0
X4.25Y-3.1
X4.25Y-3.2
X4.25Y-3.3
X4.25Y-3.4
X4.25Y-3.5
X4.25Y-3.6
X4.25Y-3.7
X4.25Y-3.8
X4.25Y-3.9
X4.25Y-4.0
T4
X2.45Y-2.35
X2.45Y-2.95
X2.55Y-2.35
X2.55Y-2.95
X2.575Y-3.45
X2.575Y-3.55
X2.575Y-3.65
X2.575Y-3.75
X2.575Y-3.85
X2.65Y-2.35
X2.65Y-2.95
X2.75Y-2.35
X2.75Y-2.95
X2.85Y-2.35
X2.85Y-2.95
X2.95Y-2.35
X2.95Y-2.95
X3.05Y-2.35
X3.05Y-2.95
X3.15Y-2.35
X3.15Y-2.95
X3.25Y-2.35
X3.25Y-2.95
X3.35Y-2.35
X3.35Y-2.95
X3.45Y-2.35
X3.45Y-2.95
X3.55Y-2.35
X3.55Y-2.95
X3.65Y-2.35
X3.65Y-2.95
X3.725Y-3.45
X3.725Y-3.55
X3.725Y-3.65
X3.725Y-3.75
X3.725Y-3.85
X3.75Y-2.35
X3.75Y-2.95
X3.825Y-3.45
X3.825Y-3.55
X3.825Y-3.65
X3.825Y-3.75
X3.825Y-3.85
X3.85Y-2.35
X3.85Y-2.95
T5
X3.52Y-2.21
X3.92Y-2.21
T6
X2.3798Y-2.18
X2.7027Y-2.18
T7
X2.35Y-2.35
X2.35Y-2.95
X2.65Y-3.3
X2.65Y-4.0
X3.65Y-3.3
X3.65Y-4.0
X3.9Y-3.3
X3.9Y-4.0
X3.95Y-2.35
X3.95Y-2.95
T0
M30
