%TF.GenerationSoftware,KiCad,Pcbnew,7.0.5-7.0.5~ubuntu22.04.1*%
%TF.CreationDate,2023-06-19T14:09:01+05:30*%
%TF.ProjectId,BagTag,42616754-6167-42e6-9b69-6361645f7063,v3*%
%TF.SameCoordinates,Original*%
%TF.FileFunction,Legend,Top*%
%TF.FilePolarity,Positive*%
%FSLAX46Y46*%
G04 Gerber Fmt 4.6, Leading zero omitted, Abs format (unit mm)*
G04 Created by KiCad (PCBNEW 7.0.5-7.0.5~ubuntu22.04.1) date 2023-06-19 14:09:01*
%MOMM*%
%LPD*%
G01*
G04 APERTURE LIST*
G04 Aperture macros list*
%AMRoundRect*
0 Rectangle with rounded corners*
0 $1 Rounding radius*
0 $2 $3 $4 $5 $6 $7 $8 $9 X,Y pos of 4 corners*
0 Add a 4 corners polygon primitive as box body*
4,1,4,$2,$3,$4,$5,$6,$7,$8,$9,$2,$3,0*
0 Add four circle primitives for the rounded corners*
1,1,$1+$1,$2,$3*
1,1,$1+$1,$4,$5*
1,1,$1+$1,$6,$7*
1,1,$1+$1,$8,$9*
0 Add four rect primitives between the rounded corners*
20,1,$1+$1,$2,$3,$4,$5,0*
20,1,$1+$1,$4,$5,$6,$7,0*
20,1,$1+$1,$6,$7,$8,$9,0*
20,1,$1+$1,$8,$9,$2,$3,0*%
%AMOutline5P*
0 Free polygon, 5 corners , with rotation*
0 The origin of the aperture is its center*
0 number of corners: always 5*
0 $1 to $10 corner X, Y*
0 $11 Rotation angle, in degrees counterclockwise*
0 create outline with 5 corners*
4,1,5,$1,$2,$3,$4,$5,$6,$7,$8,$9,$10,$1,$2,$11*%
%AMOutline6P*
0 Free polygon, 6 corners , with rotation*
0 The origin of the aperture is its center*
0 number of corners: always 6*
0 $1 to $12 corner X, Y*
0 $13 Rotation angle, in degrees counterclockwise*
0 create outline with 6 corners*
4,1,6,$1,$2,$3,$4,$5,$6,$7,$8,$9,$10,$11,$12,$1,$2,$13*%
%AMOutline7P*
0 Free polygon, 7 corners , with rotation*
0 The origin of the aperture is its center*
0 number of corners: always 7*
0 $1 to $14 corner X, Y*
0 $15 Rotation angle, in degrees counterclockwise*
0 create outline with 7 corners*
4,1,7,$1,$2,$3,$4,$5,$6,$7,$8,$9,$10,$11,$12,$13,$14,$1,$2,$15*%
%AMOutline8P*
0 Free polygon, 8 corners , with rotation*
0 The origin of the aperture is its center*
0 number of corners: always 8*
0 $1 to $16 corner X, Y*
0 $17 Rotation angle, in degrees counterclockwise*
0 create outline with 8 corners*
4,1,8,$1,$2,$3,$4,$5,$6,$7,$8,$9,$10,$11,$12,$13,$14,$15,$16,$1,$2,$17*%
G04 Aperture macros list end*
%ADD10C,1.016000*%
%ADD11C,0.150000*%
%ADD12C,0.100000*%
%ADD13C,0.120000*%
%ADD14C,0.160000*%
%ADD15Outline8P,-0.850000X0.340000X-0.340000X0.850000X0.340000X0.850000X0.850000X0.340000X0.850000X-0.340000X0.340000X-0.850000X-0.340000X-0.850000X-0.850000X-0.340000X180.000000*%
%ADD16Outline8P,-0.850000X0.340000X-0.340000X0.850000X0.340000X0.850000X0.850000X0.340000X0.850000X-0.340000X0.340000X-0.850000X-0.340000X-0.850000X-0.850000X-0.340000X270.000000*%
%ADD17C,3.048000*%
%ADD18O,2.032000X1.524000*%
%ADD19RoundRect,0.425000X-0.425000X0.425000X-0.425000X-0.425000X0.425000X-0.425000X0.425000X0.425000X0*%
%ADD20O,1.700000X1.700000*%
%ADD21RoundRect,0.425000X-0.425000X-0.425000X0.425000X-0.425000X0.425000X0.425000X-0.425000X0.425000X0*%
%ADD22C,1.600000*%
%ADD23O,1.600000X1.600000*%
%ADD24Outline8P,-0.850000X0.340000X-0.340000X0.850000X0.340000X0.850000X0.850000X0.340000X0.850000X-0.340000X0.340000X-0.850000X-0.340000X-0.850000X-0.850000X-0.340000X0.000000*%
%ADD25C,2.032000*%
%ADD26Outline8P,-1.143000X0.254000X-0.762000X0.635000X0.762000X0.635000X1.143000X0.254000X1.143000X-0.254000X0.762000X-0.635000X-0.762000X-0.635000X-1.143000X-0.254000X270.000000*%
%ADD27O,1.270000X2.286000*%
%ADD28RoundRect,0.317500X-0.317500X0.825500X-0.317500X-0.825500X0.317500X-0.825500X0.317500X0.825500X0*%
%ADD29O,2.032000X3.302000*%
%ADD30RoundRect,0.317500X-0.317500X-0.952500X0.317500X-0.952500X0.317500X0.952500X-0.317500X0.952500X0*%
%ADD31O,1.270000X2.540000*%
%ADD32RoundRect,0.444500X-0.444500X-0.444500X0.444500X-0.444500X0.444500X0.444500X-0.444500X0.444500X0*%
%ADD33O,1.778000X1.778000*%
G04 APERTURE END LIST*
D10*
X56896000Y-105410000D02*
G75*
G03*
X56896000Y-105410000I-2286000J0D01*
G01*
X107696000Y-54610000D02*
G75*
G03*
X107696000Y-54610000I-2286000J0D01*
G01*
D11*
X65055962Y-79746868D02*
X63277962Y-79238868D01*
X65055962Y-78730868D01*
X65055962Y-79746868D01*
G36*
X65055962Y-79746868D02*
G01*
X63277962Y-79238868D01*
X65055962Y-78730868D01*
X65055962Y-79746868D01*
G37*
X58674000Y-104394000D02*
X101346000Y-104394000D01*
X101346000Y-108966000D01*
X58674000Y-108966000D01*
X58674000Y-104394000D01*
X101854000Y-62484000D02*
X108966000Y-62484000D01*
X108966000Y-72136000D01*
X101854000Y-72136000D01*
X101854000Y-62484000D01*
X101854000Y-75184000D02*
X108966000Y-75184000D01*
X108966000Y-102616000D01*
X101854000Y-102616000D01*
X101854000Y-75184000D01*
X51054000Y-62484000D02*
X58166000Y-62484000D01*
X58166000Y-72136000D01*
X51054000Y-72136000D01*
X51054000Y-62484000D01*
X71161000Y-79248000D02*
X64983000Y-79248000D01*
D10*
X107696000Y-105410000D02*
G75*
G03*
X107696000Y-105410000I-2286000J0D01*
G01*
D11*
X55880000Y-77470000D02*
X58166000Y-77470000D01*
X58166000Y-100330000D01*
X60960000Y-100330000D01*
X60960000Y-102616000D01*
X51054000Y-102616000D01*
X51054000Y-75184000D01*
X55880000Y-75184000D01*
X55880000Y-77470000D01*
D10*
X56896000Y-54610000D02*
G75*
G03*
X56896000Y-54610000I-2286000J0D01*
G01*
D11*
G36*
X71729893Y-93230701D02*
G01*
X71729893Y-91517096D01*
X72212794Y-91517096D01*
X72595380Y-92855497D01*
X72977967Y-91517096D01*
X73463474Y-91517096D01*
X73463474Y-93230701D01*
X73183373Y-93230701D01*
X73183373Y-91824989D01*
X73145592Y-91824989D01*
X72740424Y-93160784D01*
X72450336Y-93160784D01*
X72045168Y-91824989D01*
X72007387Y-91824989D01*
X72007387Y-93230701D01*
X71729893Y-93230701D01*
G37*
G36*
X74335356Y-91953049D02*
G01*
X74362467Y-91954209D01*
X74388581Y-91956143D01*
X74413697Y-91958850D01*
X74437816Y-91962331D01*
X74460937Y-91966586D01*
X74483060Y-91971614D01*
X74504187Y-91977415D01*
X74524315Y-91983990D01*
X74543447Y-91991339D01*
X74561581Y-91999461D01*
X74578717Y-92008357D01*
X74594856Y-92018026D01*
X74609998Y-92028468D01*
X74624142Y-92039685D01*
X74637289Y-92051674D01*
X74649541Y-92064451D01*
X74661003Y-92078137D01*
X74671675Y-92092733D01*
X74681556Y-92108237D01*
X74690647Y-92124651D01*
X74698947Y-92141974D01*
X74706457Y-92160206D01*
X74713176Y-92179348D01*
X74719105Y-92199399D01*
X74724243Y-92220359D01*
X74728591Y-92242228D01*
X74732148Y-92265006D01*
X74734915Y-92288694D01*
X74736891Y-92313291D01*
X74738077Y-92338797D01*
X74738472Y-92365213D01*
X74738472Y-92935401D01*
X74740274Y-92955075D01*
X74743724Y-92972734D01*
X74749833Y-92990789D01*
X74758187Y-93006101D01*
X74767133Y-93017043D01*
X74782170Y-93028904D01*
X74798266Y-93037367D01*
X74817104Y-93044043D01*
X74835435Y-93048344D01*
X74848775Y-93050481D01*
X74841393Y-93258059D01*
X74814850Y-93257698D01*
X74789071Y-93256614D01*
X74764055Y-93254807D01*
X74739802Y-93252278D01*
X74716313Y-93249026D01*
X74693587Y-93245052D01*
X74671624Y-93240354D01*
X74650425Y-93234935D01*
X74629989Y-93228792D01*
X74610317Y-93221927D01*
X74591408Y-93214339D01*
X74573262Y-93206029D01*
X74555879Y-93196996D01*
X74539260Y-93187240D01*
X74523405Y-93176762D01*
X74508312Y-93165561D01*
X74483330Y-93176762D01*
X74458324Y-93187240D01*
X74433295Y-93196996D01*
X74408242Y-93206029D01*
X74383165Y-93214339D01*
X74358064Y-93221927D01*
X74332939Y-93228792D01*
X74307791Y-93234935D01*
X74282619Y-93240354D01*
X74257423Y-93245052D01*
X74232204Y-93249026D01*
X74206960Y-93252278D01*
X74181693Y-93254807D01*
X74156402Y-93256614D01*
X74131088Y-93257698D01*
X74105750Y-93258059D01*
X74082826Y-93257671D01*
X74060630Y-93256507D01*
X74039162Y-93254567D01*
X74018422Y-93251851D01*
X73998409Y-93248358D01*
X73979124Y-93244090D01*
X73960567Y-93239045D01*
X73942738Y-93233225D01*
X73925636Y-93226628D01*
X73909262Y-93219255D01*
X73893616Y-93211106D01*
X73878698Y-93202182D01*
X73851044Y-93182004D01*
X73826301Y-93158721D01*
X73804469Y-93132335D01*
X73794645Y-93117977D01*
X73785548Y-93102844D01*
X73777179Y-93086934D01*
X73769538Y-93070249D01*
X73762624Y-93052787D01*
X73756439Y-93034549D01*
X73750981Y-93015535D01*
X73746251Y-92995745D01*
X73742248Y-92975179D01*
X73738973Y-92953837D01*
X73736426Y-92931719D01*
X73734607Y-92908825D01*
X73733515Y-92885154D01*
X73733190Y-92863313D01*
X74005869Y-92863313D01*
X74006464Y-92884190D01*
X74008251Y-92903720D01*
X74011228Y-92921903D01*
X74017926Y-92946653D01*
X74027304Y-92968371D01*
X74039361Y-92987059D01*
X74054098Y-93002717D01*
X74071514Y-93015344D01*
X74091609Y-93024941D01*
X74114384Y-93031507D01*
X74139838Y-93035043D01*
X74158296Y-93035716D01*
X74181879Y-93035365D01*
X74205730Y-93034311D01*
X74229849Y-93032556D01*
X74254234Y-93030098D01*
X74278886Y-93026937D01*
X74303806Y-93023075D01*
X74328993Y-93018510D01*
X74354447Y-93013243D01*
X74371565Y-93009341D01*
X74388801Y-93005128D01*
X74406157Y-93000602D01*
X74423631Y-92995764D01*
X74468360Y-92980565D01*
X74468360Y-92647919D01*
X74178272Y-92675277D01*
X74157395Y-92677793D01*
X74137865Y-92681540D01*
X74119682Y-92686519D01*
X74102846Y-92692729D01*
X74080117Y-92704354D01*
X74060418Y-92718749D01*
X74043750Y-92735916D01*
X74030113Y-92755853D01*
X74019506Y-92778562D01*
X74014119Y-92795240D01*
X74010078Y-92813150D01*
X74007384Y-92832292D01*
X74006037Y-92852665D01*
X74005869Y-92863313D01*
X73733190Y-92863313D01*
X73733151Y-92860708D01*
X73733547Y-92837342D01*
X73734732Y-92814798D01*
X73736709Y-92793075D01*
X73739475Y-92772172D01*
X73743033Y-92752091D01*
X73747380Y-92732831D01*
X73752518Y-92714391D01*
X73758447Y-92696773D01*
X73765166Y-92679976D01*
X73772676Y-92664000D01*
X73785423Y-92641575D01*
X73799948Y-92620998D01*
X73816252Y-92602267D01*
X73834335Y-92585385D01*
X73854265Y-92570021D01*
X73876111Y-92555848D01*
X73891739Y-92547061D01*
X73908219Y-92538803D01*
X73925551Y-92531074D01*
X73943734Y-92523875D01*
X73962768Y-92517205D01*
X73982655Y-92511064D01*
X74003392Y-92505453D01*
X74024982Y-92500371D01*
X74047423Y-92495818D01*
X74070715Y-92491794D01*
X74094859Y-92488299D01*
X74119855Y-92485334D01*
X74145702Y-92482898D01*
X74468360Y-92455105D01*
X74468360Y-92365213D01*
X74467974Y-92347012D01*
X74466261Y-92324383D01*
X74463177Y-92303626D01*
X74458723Y-92284743D01*
X74452897Y-92267732D01*
X74443688Y-92249102D01*
X74432338Y-92233398D01*
X74424499Y-92225380D01*
X74409911Y-92213745D01*
X74393287Y-92204082D01*
X74374627Y-92196391D01*
X74353931Y-92190673D01*
X74335909Y-92187517D01*
X74316585Y-92185624D01*
X74295957Y-92184993D01*
X74275615Y-92185071D01*
X74254648Y-92185305D01*
X74233057Y-92185696D01*
X74210842Y-92186242D01*
X74188002Y-92186944D01*
X74164538Y-92187802D01*
X74140450Y-92188817D01*
X74115738Y-92189987D01*
X74090401Y-92191314D01*
X74064440Y-92192796D01*
X74037855Y-92194435D01*
X74010646Y-92196230D01*
X73982812Y-92198181D01*
X73954354Y-92200288D01*
X73925272Y-92202550D01*
X73895566Y-92204969D01*
X73815661Y-92210181D01*
X73805673Y-92017367D01*
X73822675Y-92013387D01*
X73856422Y-92005804D01*
X73889827Y-91998727D01*
X73922889Y-91992155D01*
X73955608Y-91986089D01*
X73987984Y-91980528D01*
X74020018Y-91975473D01*
X74051709Y-91970924D01*
X74083057Y-91966880D01*
X74114063Y-91963341D01*
X74144726Y-91960308D01*
X74175047Y-91957780D01*
X74205024Y-91955758D01*
X74234659Y-91954242D01*
X74263952Y-91953231D01*
X74292902Y-91952725D01*
X74307248Y-91952662D01*
X74335356Y-91953049D01*
G37*
G36*
X75346876Y-93230701D02*
G01*
X75074158Y-93230701D01*
X75074158Y-91459773D01*
X75346876Y-91459773D01*
X75346876Y-92482898D01*
X75501908Y-92467699D01*
X75797207Y-91980021D01*
X76102495Y-91980021D01*
X75742056Y-92565408D01*
X76122471Y-93230701D01*
X75814578Y-93230701D01*
X75509290Y-92703070D01*
X75346876Y-92720441D01*
X75346876Y-93230701D01*
G37*
G36*
X76803562Y-91953222D02*
G01*
X76834838Y-91954900D01*
X76865088Y-91957697D01*
X76894313Y-91961612D01*
X76922513Y-91966646D01*
X76949687Y-91972799D01*
X76975836Y-91980071D01*
X77000959Y-91988462D01*
X77025057Y-91997971D01*
X77048129Y-92008599D01*
X77070176Y-92020346D01*
X77091198Y-92033211D01*
X77111194Y-92047196D01*
X77130165Y-92062299D01*
X77148110Y-92078520D01*
X77165029Y-92095861D01*
X77180924Y-92114320D01*
X77195793Y-92133898D01*
X77209636Y-92154594D01*
X77222454Y-92176410D01*
X77234247Y-92199344D01*
X77245014Y-92223397D01*
X77254755Y-92248568D01*
X77263472Y-92274859D01*
X77271162Y-92302268D01*
X77277828Y-92330796D01*
X77283468Y-92360442D01*
X77288082Y-92391208D01*
X77291671Y-92423092D01*
X77294235Y-92456094D01*
X77295773Y-92490216D01*
X77296286Y-92525456D01*
X77278915Y-92720441D01*
X76503754Y-92720441D01*
X76504272Y-92739497D01*
X76505281Y-92757909D01*
X76506782Y-92775677D01*
X76509957Y-92801119D01*
X76514238Y-92825112D01*
X76519626Y-92847654D01*
X76526121Y-92868745D01*
X76533722Y-92888386D01*
X76542431Y-92906577D01*
X76552246Y-92923317D01*
X76563169Y-92938607D01*
X76571065Y-92947995D01*
X76584267Y-92960955D01*
X76599447Y-92972641D01*
X76616603Y-92983052D01*
X76635737Y-92992188D01*
X76656847Y-93000049D01*
X76679935Y-93006636D01*
X76704999Y-93011947D01*
X76722808Y-93014780D01*
X76741495Y-93017047D01*
X76761060Y-93018746D01*
X76781505Y-93019879D01*
X76802828Y-93020446D01*
X76813819Y-93020517D01*
X76836059Y-93020459D01*
X76858378Y-93020286D01*
X76880775Y-93019998D01*
X76903250Y-93019594D01*
X76925803Y-93019075D01*
X76948434Y-93018441D01*
X76971143Y-93017691D01*
X76993930Y-93016826D01*
X77016795Y-93015845D01*
X77039738Y-93014749D01*
X77062759Y-93013538D01*
X77085858Y-93012212D01*
X77109035Y-93010770D01*
X77132290Y-93009212D01*
X77155623Y-93007540D01*
X77179034Y-93005752D01*
X77248951Y-92997935D01*
X77254162Y-93200736D01*
X77236394Y-93204263D01*
X77218753Y-93207678D01*
X77201239Y-93210981D01*
X77183852Y-93214171D01*
X77166593Y-93217250D01*
X77149460Y-93220217D01*
X77115578Y-93225815D01*
X77082204Y-93230965D01*
X77049339Y-93235667D01*
X77016983Y-93239922D01*
X76985136Y-93243728D01*
X76953797Y-93247087D01*
X76922968Y-93249998D01*
X76892648Y-93252461D01*
X76862836Y-93254476D01*
X76833534Y-93256044D01*
X76804740Y-93257163D01*
X76776455Y-93257835D01*
X76748679Y-93258059D01*
X76714601Y-93257464D01*
X76681741Y-93255677D01*
X76650099Y-93252700D01*
X76619676Y-93248532D01*
X76590470Y-93243174D01*
X76562482Y-93236624D01*
X76535712Y-93228884D01*
X76510160Y-93219952D01*
X76485826Y-93209830D01*
X76462710Y-93198517D01*
X76440811Y-93186014D01*
X76420131Y-93172319D01*
X76400669Y-93157434D01*
X76382425Y-93141358D01*
X76365399Y-93124090D01*
X76349591Y-93105633D01*
X76334919Y-93085865D01*
X76321194Y-93064669D01*
X76308415Y-93042045D01*
X76296583Y-93017993D01*
X76285698Y-92992512D01*
X76275759Y-92965603D01*
X76266767Y-92937265D01*
X76258721Y-92907500D01*
X76251622Y-92876306D01*
X76245469Y-92843683D01*
X76240263Y-92809633D01*
X76238015Y-92792072D01*
X76236004Y-92774154D01*
X76234229Y-92755878D01*
X76232691Y-92737246D01*
X76231389Y-92718257D01*
X76230324Y-92698911D01*
X76229496Y-92679207D01*
X76228904Y-92659147D01*
X76228549Y-92638729D01*
X76228431Y-92617954D01*
X76228961Y-92577023D01*
X76230551Y-92537392D01*
X76232428Y-92510257D01*
X76501149Y-92510257D01*
X77028779Y-92510257D01*
X77028548Y-92487567D01*
X77027856Y-92465745D01*
X77026703Y-92444792D01*
X77025088Y-92424707D01*
X77023012Y-92405491D01*
X77020474Y-92387143D01*
X77017475Y-92369664D01*
X77012111Y-92345074D01*
X77005709Y-92322438D01*
X76998269Y-92301756D01*
X76989790Y-92283028D01*
X76980274Y-92266255D01*
X76969719Y-92251436D01*
X76958009Y-92238242D01*
X76944865Y-92226347D01*
X76930284Y-92215749D01*
X76914269Y-92206449D01*
X76896819Y-92198446D01*
X76877934Y-92191741D01*
X76857613Y-92186334D01*
X76835858Y-92182225D01*
X76812667Y-92179413D01*
X76788041Y-92177899D01*
X76770827Y-92177611D01*
X76745276Y-92178294D01*
X76721061Y-92180344D01*
X76698182Y-92183760D01*
X76676639Y-92188542D01*
X76656432Y-92194691D01*
X76637560Y-92202206D01*
X76620025Y-92211088D01*
X76603825Y-92221336D01*
X76588961Y-92232950D01*
X76575433Y-92245931D01*
X76567157Y-92255344D01*
X76555803Y-92270719D01*
X76545518Y-92287858D01*
X76536302Y-92306760D01*
X76528154Y-92327425D01*
X76521076Y-92349854D01*
X76515065Y-92374046D01*
X76511652Y-92391153D01*
X76508714Y-92409045D01*
X76506251Y-92427720D01*
X76504263Y-92447178D01*
X76502750Y-92467421D01*
X76501712Y-92488447D01*
X76501149Y-92510257D01*
X76232428Y-92510257D01*
X76233202Y-92499059D01*
X76236913Y-92462026D01*
X76241684Y-92426293D01*
X76247515Y-92391859D01*
X76254406Y-92358724D01*
X76262358Y-92326889D01*
X76271370Y-92296353D01*
X76281442Y-92267117D01*
X76292574Y-92239180D01*
X76304766Y-92212542D01*
X76318019Y-92187204D01*
X76332332Y-92163165D01*
X76347705Y-92140425D01*
X76364138Y-92118985D01*
X76381632Y-92098845D01*
X76400186Y-92080003D01*
X76419800Y-92062461D01*
X76440474Y-92046219D01*
X76462208Y-92031276D01*
X76485003Y-92017632D01*
X76508858Y-92005288D01*
X76533773Y-91994243D01*
X76559748Y-91984497D01*
X76586783Y-91976051D01*
X76614879Y-91968905D01*
X76644035Y-91963057D01*
X76674251Y-91958509D01*
X76705527Y-91955261D01*
X76737864Y-91953312D01*
X76771261Y-91952662D01*
X76803562Y-91953222D01*
G37*
G36*
X77552936Y-93230701D02*
G01*
X77552936Y-91980021D01*
X77823048Y-91980021D01*
X77823048Y-92130276D01*
X77849645Y-92113450D01*
X77876238Y-92097387D01*
X77902828Y-92082088D01*
X77929415Y-92067552D01*
X77955999Y-92053779D01*
X77982579Y-92040770D01*
X78009155Y-92028524D01*
X78035728Y-92017042D01*
X78062298Y-92006323D01*
X78088865Y-91996367D01*
X78115428Y-91987174D01*
X78141987Y-91978745D01*
X78168544Y-91971079D01*
X78195096Y-91964177D01*
X78221646Y-91958038D01*
X78248192Y-91952662D01*
X78248192Y-92224946D01*
X78221566Y-92230364D01*
X78195429Y-92235979D01*
X78169780Y-92241790D01*
X78144620Y-92247799D01*
X78119948Y-92254004D01*
X78095765Y-92260406D01*
X78072071Y-92267005D01*
X78048865Y-92273800D01*
X78026147Y-92280793D01*
X78003919Y-92287982D01*
X77982178Y-92295368D01*
X77960926Y-92302950D01*
X77940163Y-92310730D01*
X77919888Y-92318706D01*
X77900102Y-92326879D01*
X77880805Y-92335249D01*
X77825653Y-92357830D01*
X77825653Y-93230701D01*
X77552936Y-93230701D01*
G37*
G36*
X78446216Y-92097706D02*
G01*
X78438399Y-91517096D01*
X78703735Y-91517096D01*
X78686364Y-92097706D01*
X78446216Y-92097706D01*
G37*
G36*
X79878418Y-92237539D02*
G01*
X79860121Y-92235081D01*
X79842142Y-92232701D01*
X79824481Y-92230399D01*
X79807138Y-92228175D01*
X79773406Y-92223962D01*
X79740947Y-92220060D01*
X79709759Y-92216471D01*
X79679844Y-92213193D01*
X79651201Y-92210228D01*
X79623831Y-92207575D01*
X79597733Y-92205234D01*
X79572907Y-92203205D01*
X79549353Y-92201489D01*
X79527072Y-92200084D01*
X79506062Y-92198992D01*
X79486325Y-92198211D01*
X79467861Y-92197743D01*
X79450668Y-92197587D01*
X79426544Y-92197862D01*
X79403839Y-92198686D01*
X79382554Y-92200060D01*
X79362689Y-92201984D01*
X79344244Y-92204457D01*
X79321859Y-92208610D01*
X79301998Y-92213740D01*
X79284662Y-92219846D01*
X79266540Y-92228854D01*
X79251778Y-92239515D01*
X79239518Y-92251958D01*
X79228108Y-92269240D01*
X79221352Y-92285602D01*
X79217099Y-92303744D01*
X79215347Y-92323668D01*
X79215297Y-92327866D01*
X79216676Y-92347936D01*
X79220810Y-92366076D01*
X79227702Y-92382287D01*
X79239610Y-92399193D01*
X79252566Y-92411158D01*
X79268278Y-92421194D01*
X79271752Y-92422970D01*
X79288247Y-92429952D01*
X79309505Y-92437219D01*
X79328575Y-92442857D01*
X79350325Y-92448654D01*
X79374753Y-92454612D01*
X79392527Y-92458673D01*
X79411493Y-92462806D01*
X79431648Y-92467009D01*
X79452995Y-92471284D01*
X79475533Y-92475630D01*
X79499261Y-92480047D01*
X79524181Y-92484536D01*
X79537087Y-92486807D01*
X79562722Y-92491475D01*
X79587407Y-92496469D01*
X79611142Y-92501789D01*
X79633928Y-92507434D01*
X79655763Y-92513405D01*
X79676648Y-92519702D01*
X79696584Y-92526325D01*
X79715569Y-92533273D01*
X79733605Y-92540547D01*
X79750690Y-92548146D01*
X79766826Y-92556072D01*
X79789248Y-92568570D01*
X79809533Y-92581802D01*
X79827681Y-92595766D01*
X79833255Y-92600584D01*
X79848931Y-92616135D01*
X79863066Y-92633800D01*
X79875659Y-92653580D01*
X79886710Y-92675474D01*
X79896219Y-92699483D01*
X79901701Y-92716663D01*
X79906499Y-92734784D01*
X79910610Y-92753844D01*
X79914037Y-92773844D01*
X79916778Y-92794783D01*
X79918834Y-92816663D01*
X79920205Y-92839482D01*
X79920890Y-92863241D01*
X79920976Y-92875473D01*
X79920482Y-92899761D01*
X79919001Y-92923228D01*
X79916533Y-92945874D01*
X79913078Y-92967699D01*
X79908635Y-92988704D01*
X79903205Y-93008887D01*
X79896788Y-93028249D01*
X79889383Y-93046790D01*
X79880991Y-93064510D01*
X79871612Y-93081409D01*
X79861246Y-93097487D01*
X79849892Y-93112744D01*
X79837552Y-93127179D01*
X79824223Y-93140794D01*
X79809908Y-93153588D01*
X79794605Y-93165561D01*
X79778354Y-93176762D01*
X79761194Y-93187240D01*
X79743125Y-93196996D01*
X79724146Y-93206029D01*
X79704258Y-93214339D01*
X79683461Y-93221927D01*
X79661754Y-93228792D01*
X79639139Y-93234935D01*
X79615614Y-93240354D01*
X79591180Y-93245052D01*
X79565836Y-93249026D01*
X79539584Y-93252278D01*
X79512422Y-93254807D01*
X79484351Y-93256614D01*
X79455371Y-93257698D01*
X79425481Y-93258059D01*
X79406114Y-93257893D01*
X79386119Y-93257394D01*
X79365497Y-93256563D01*
X79344247Y-93255399D01*
X79322369Y-93253903D01*
X79299863Y-93252074D01*
X79276730Y-93249913D01*
X79252970Y-93247420D01*
X79228581Y-93244594D01*
X79203565Y-93241435D01*
X79177922Y-93237944D01*
X79151651Y-93234120D01*
X79124752Y-93229964D01*
X79097225Y-93225476D01*
X79069071Y-93220655D01*
X79040289Y-93215501D01*
X78962990Y-93203342D01*
X78972978Y-92975353D01*
X78991569Y-92977838D01*
X79009833Y-92980244D01*
X79027769Y-92982571D01*
X79045378Y-92984819D01*
X79062660Y-92986988D01*
X79096240Y-92991090D01*
X79128512Y-92994876D01*
X79159473Y-92998347D01*
X79189125Y-93001502D01*
X79217468Y-93004342D01*
X79244501Y-93006866D01*
X79270224Y-93009075D01*
X79294638Y-93010968D01*
X79317742Y-93012545D01*
X79339537Y-93013807D01*
X79360022Y-93014754D01*
X79379197Y-93015385D01*
X79397063Y-93015700D01*
X79405505Y-93015740D01*
X79429745Y-93015454D01*
X79452634Y-93014595D01*
X79474172Y-93013164D01*
X79494359Y-93011160D01*
X79513195Y-93008583D01*
X79530680Y-93005435D01*
X79551891Y-93000346D01*
X79570700Y-92994239D01*
X79587107Y-92987114D01*
X79594410Y-92983170D01*
X79610673Y-92971953D01*
X79624180Y-92958658D01*
X79634931Y-92943285D01*
X79642925Y-92925834D01*
X79648162Y-92906305D01*
X79650643Y-92884697D01*
X79650864Y-92875473D01*
X79650023Y-92857417D01*
X79646604Y-92836889D01*
X79640557Y-92818630D01*
X79631880Y-92802640D01*
X79620574Y-92788919D01*
X79606639Y-92777466D01*
X79597015Y-92771684D01*
X79581205Y-92764437D01*
X79560700Y-92757027D01*
X79542239Y-92751363D01*
X79521138Y-92745607D01*
X79497395Y-92739760D01*
X79480099Y-92735811D01*
X79461629Y-92731821D01*
X79441986Y-92727791D01*
X79421168Y-92723720D01*
X79399177Y-92719608D01*
X79376011Y-92715455D01*
X79351672Y-92711262D01*
X79339063Y-92709150D01*
X79314028Y-92704765D01*
X79289841Y-92700078D01*
X79266503Y-92695089D01*
X79244013Y-92689798D01*
X79222371Y-92684205D01*
X79201577Y-92678310D01*
X79181632Y-92672113D01*
X79162534Y-92665615D01*
X79144285Y-92658814D01*
X79126884Y-92651712D01*
X79110331Y-92644307D01*
X79094626Y-92636601D01*
X79072659Y-92624475D01*
X79052601Y-92611669D01*
X79040289Y-92602755D01*
X79023293Y-92588104D01*
X79007969Y-92571346D01*
X78994316Y-92552481D01*
X78982335Y-92531509D01*
X78972026Y-92508430D01*
X78966082Y-92491874D01*
X78960881Y-92474381D01*
X78956423Y-92455952D01*
X78952708Y-92436586D01*
X78949736Y-92416285D01*
X78947507Y-92395046D01*
X78946021Y-92372872D01*
X78945278Y-92349761D01*
X78945185Y-92337854D01*
X78945698Y-92314134D01*
X78947234Y-92291178D01*
X78949796Y-92268984D01*
X78953382Y-92247554D01*
X78957993Y-92226888D01*
X78963628Y-92206985D01*
X78970288Y-92187845D01*
X78977972Y-92169468D01*
X78986681Y-92151855D01*
X78996415Y-92135005D01*
X79007173Y-92118919D01*
X79018956Y-92103596D01*
X79031763Y-92089036D01*
X79045595Y-92075240D01*
X79060452Y-92062207D01*
X79076333Y-92049937D01*
X79093069Y-92038421D01*
X79110382Y-92027647D01*
X79128272Y-92017617D01*
X79146738Y-92008329D01*
X79165781Y-91999785D01*
X79185401Y-91991983D01*
X79205598Y-91984925D01*
X79226371Y-91978609D01*
X79247721Y-91973037D01*
X79269648Y-91968207D01*
X79292152Y-91964121D01*
X79315232Y-91960777D01*
X79338889Y-91958177D01*
X79363123Y-91956320D01*
X79387934Y-91955205D01*
X79413322Y-91954834D01*
X79433583Y-91954991D01*
X79454414Y-91955465D01*
X79475815Y-91956253D01*
X79497786Y-91957358D01*
X79520327Y-91958778D01*
X79543438Y-91960513D01*
X79567119Y-91962564D01*
X79591370Y-91964930D01*
X79616191Y-91967612D01*
X79641582Y-91970609D01*
X79667542Y-91973922D01*
X79694073Y-91977551D01*
X79721174Y-91981495D01*
X79748845Y-91985754D01*
X79777085Y-91990329D01*
X79805896Y-91995220D01*
X79883195Y-92009985D01*
X79878418Y-92237539D01*
G37*
G36*
X82010653Y-93230701D02*
G01*
X81730553Y-93230701D01*
X81638055Y-92862879D01*
X80980145Y-92862879D01*
X80887647Y-93230701D01*
X80609718Y-93230701D01*
X80760964Y-92617954D01*
X81034863Y-92617954D01*
X81582903Y-92617954D01*
X81372720Y-91749861D01*
X81247652Y-91749861D01*
X81034863Y-92617954D01*
X80760964Y-92617954D01*
X81032691Y-91517096D01*
X81585509Y-91517096D01*
X82010653Y-93230701D01*
G37*
G36*
X83083285Y-92237539D02*
G01*
X83064988Y-92235081D01*
X83047009Y-92232701D01*
X83029348Y-92230399D01*
X83012005Y-92228175D01*
X82978273Y-92223962D01*
X82945813Y-92220060D01*
X82914626Y-92216471D01*
X82884711Y-92213193D01*
X82856068Y-92210228D01*
X82828698Y-92207575D01*
X82802599Y-92205234D01*
X82777773Y-92203205D01*
X82754220Y-92201489D01*
X82731938Y-92200084D01*
X82710929Y-92198992D01*
X82691192Y-92198211D01*
X82672727Y-92197743D01*
X82655535Y-92197587D01*
X82631410Y-92197862D01*
X82608706Y-92198686D01*
X82587421Y-92200060D01*
X82567556Y-92201984D01*
X82549111Y-92204457D01*
X82526726Y-92208610D01*
X82506865Y-92213740D01*
X82489528Y-92219846D01*
X82471407Y-92228854D01*
X82456645Y-92239515D01*
X82444384Y-92251958D01*
X82432975Y-92269240D01*
X82426219Y-92285602D01*
X82421966Y-92303744D01*
X82420214Y-92323668D01*
X82420164Y-92327866D01*
X82421542Y-92347936D01*
X82425677Y-92366076D01*
X82432569Y-92382287D01*
X82444477Y-92399193D01*
X82457433Y-92411158D01*
X82473145Y-92421194D01*
X82476618Y-92422970D01*
X82493114Y-92429952D01*
X82514372Y-92437219D01*
X82533442Y-92442857D01*
X82555191Y-92448654D01*
X82579620Y-92454612D01*
X82597394Y-92458673D01*
X82616359Y-92462806D01*
X82636515Y-92467009D01*
X82657862Y-92471284D01*
X82680400Y-92475630D01*
X82704128Y-92480047D01*
X82729047Y-92484536D01*
X82741954Y-92486807D01*
X82767589Y-92491475D01*
X82792274Y-92496469D01*
X82816009Y-92501789D01*
X82838794Y-92507434D01*
X82860630Y-92513405D01*
X82881515Y-92519702D01*
X82901450Y-92526325D01*
X82920436Y-92533273D01*
X82938471Y-92540547D01*
X82955557Y-92548146D01*
X82971693Y-92556072D01*
X82994115Y-92568570D01*
X83014400Y-92581802D01*
X83032547Y-92595766D01*
X83038121Y-92600584D01*
X83053798Y-92616135D01*
X83067933Y-92633800D01*
X83080526Y-92653580D01*
X83091577Y-92675474D01*
X83101085Y-92699483D01*
X83106568Y-92716663D01*
X83111365Y-92734784D01*
X83115477Y-92753844D01*
X83118904Y-92773844D01*
X83121645Y-92794783D01*
X83123701Y-92816663D01*
X83125072Y-92839482D01*
X83125757Y-92863241D01*
X83125843Y-92875473D01*
X83125349Y-92899761D01*
X83123868Y-92923228D01*
X83121400Y-92945874D01*
X83117945Y-92967699D01*
X83113502Y-92988704D01*
X83108072Y-93008887D01*
X83101655Y-93028249D01*
X83094250Y-93046790D01*
X83085858Y-93064510D01*
X83076479Y-93081409D01*
X83066113Y-93097487D01*
X83054759Y-93112744D01*
X83042418Y-93127179D01*
X83029090Y-93140794D01*
X83014775Y-93153588D01*
X82999472Y-93165561D01*
X82983221Y-93176762D01*
X82966061Y-93187240D01*
X82947991Y-93196996D01*
X82929013Y-93206029D01*
X82909125Y-93214339D01*
X82888328Y-93221927D01*
X82866621Y-93228792D01*
X82844006Y-93234935D01*
X82820481Y-93240354D01*
X82796046Y-93245052D01*
X82770703Y-93249026D01*
X82744451Y-93252278D01*
X82717289Y-93254807D01*
X82689218Y-93256614D01*
X82660237Y-93257698D01*
X82630348Y-93258059D01*
X82610981Y-93257893D01*
X82590986Y-93257394D01*
X82570363Y-93256563D01*
X82549113Y-93255399D01*
X82527236Y-93253903D01*
X82504730Y-93252074D01*
X82481597Y-93249913D01*
X82457836Y-93247420D01*
X82433448Y-93244594D01*
X82408432Y-93241435D01*
X82382789Y-93237944D01*
X82356517Y-93234120D01*
X82329618Y-93229964D01*
X82302092Y-93225476D01*
X82273938Y-93220655D01*
X82245156Y-93215501D01*
X82167857Y-93203342D01*
X82177845Y-92975353D01*
X82196436Y-92977838D01*
X82214700Y-92980244D01*
X82232636Y-92982571D01*
X82250245Y-92984819D01*
X82267526Y-92986988D01*
X82301107Y-92991090D01*
X82333378Y-92994876D01*
X82364340Y-92998347D01*
X82393992Y-93001502D01*
X82422335Y-93004342D01*
X82449367Y-93006866D01*
X82475091Y-93009075D01*
X82499505Y-93010968D01*
X82522609Y-93012545D01*
X82544403Y-93013807D01*
X82564888Y-93014754D01*
X82584064Y-93015385D01*
X82601930Y-93015700D01*
X82610372Y-93015740D01*
X82634612Y-93015454D01*
X82657501Y-93014595D01*
X82679039Y-93013164D01*
X82699226Y-93011160D01*
X82718062Y-93008583D01*
X82735546Y-93005435D01*
X82756757Y-93000346D01*
X82775567Y-92994239D01*
X82791974Y-92987114D01*
X82799276Y-92983170D01*
X82815540Y-92971953D01*
X82829047Y-92958658D01*
X82839798Y-92943285D01*
X82847792Y-92925834D01*
X82853029Y-92906305D01*
X82855510Y-92884697D01*
X82855731Y-92875473D01*
X82854889Y-92857417D01*
X82851471Y-92836889D01*
X82845424Y-92818630D01*
X82836747Y-92802640D01*
X82825441Y-92788919D01*
X82811505Y-92777466D01*
X82801882Y-92771684D01*
X82786072Y-92764437D01*
X82765567Y-92757027D01*
X82747106Y-92751363D01*
X82726004Y-92745607D01*
X82702262Y-92739760D01*
X82684966Y-92735811D01*
X82666496Y-92731821D01*
X82646852Y-92727791D01*
X82626035Y-92723720D01*
X82604043Y-92719608D01*
X82580878Y-92715455D01*
X82556539Y-92711262D01*
X82543929Y-92709150D01*
X82518895Y-92704765D01*
X82494708Y-92700078D01*
X82471370Y-92695089D01*
X82448880Y-92689798D01*
X82427238Y-92684205D01*
X82406444Y-92678310D01*
X82386498Y-92672113D01*
X82367401Y-92665615D01*
X82349152Y-92658814D01*
X82331751Y-92651712D01*
X82315198Y-92644307D01*
X82299493Y-92636601D01*
X82277526Y-92624475D01*
X82257468Y-92611669D01*
X82245156Y-92602755D01*
X82228160Y-92588104D01*
X82212835Y-92571346D01*
X82199183Y-92552481D01*
X82187202Y-92531509D01*
X82176893Y-92508430D01*
X82170949Y-92491874D01*
X82165748Y-92474381D01*
X82161290Y-92455952D01*
X82157575Y-92436586D01*
X82154603Y-92416285D01*
X82152374Y-92395046D01*
X82150888Y-92372872D01*
X82150145Y-92349761D01*
X82150052Y-92337854D01*
X82150564Y-92314134D01*
X82152101Y-92291178D01*
X82154663Y-92268984D01*
X82158249Y-92247554D01*
X82162859Y-92226888D01*
X82168495Y-92206985D01*
X82175154Y-92187845D01*
X82182839Y-92169468D01*
X82191548Y-92151855D01*
X82201282Y-92135005D01*
X82212040Y-92118919D01*
X82223823Y-92103596D01*
X82236630Y-92089036D01*
X82250462Y-92075240D01*
X82265318Y-92062207D01*
X82281200Y-92049937D01*
X82297936Y-92038421D01*
X82315249Y-92027647D01*
X82333138Y-92017617D01*
X82351605Y-92008329D01*
X82370648Y-91999785D01*
X82390268Y-91991983D01*
X82410464Y-91984925D01*
X82431238Y-91978609D01*
X82452588Y-91973037D01*
X82474515Y-91968207D01*
X82497019Y-91964121D01*
X82520099Y-91960777D01*
X82543756Y-91958177D01*
X82567990Y-91956320D01*
X82592801Y-91955205D01*
X82618188Y-91954834D01*
X82638449Y-91954991D01*
X82659281Y-91955465D01*
X82680682Y-91956253D01*
X82702653Y-91957358D01*
X82725194Y-91958778D01*
X82748305Y-91960513D01*
X82771986Y-91962564D01*
X82796236Y-91964930D01*
X82821057Y-91967612D01*
X82846448Y-91970609D01*
X82872409Y-91973922D01*
X82898940Y-91977551D01*
X82926041Y-91981495D01*
X82953711Y-91985754D01*
X82981952Y-91990329D01*
X83010763Y-91995220D01*
X83088062Y-92009985D01*
X83083285Y-92237539D01*
G37*
G36*
X83248305Y-91980021D02*
G01*
X83516246Y-91980021D01*
X83781147Y-92997935D01*
X83848892Y-92997935D01*
X84113793Y-91980021D01*
X84383905Y-91980021D01*
X83908820Y-93768319D01*
X83641314Y-93768319D01*
X83791135Y-93230701D01*
X83576174Y-93230701D01*
X83248305Y-91980021D01*
G37*
G36*
X84603208Y-93230701D02*
G01*
X84603208Y-91459773D01*
X84875926Y-91459773D01*
X84875926Y-93230701D01*
X84603208Y-93230701D01*
G37*
G36*
X85974613Y-91980021D02*
G01*
X86245159Y-91980021D01*
X86245159Y-93230701D01*
X85974613Y-93230701D01*
X85974613Y-93152967D01*
X85951921Y-93165693D01*
X85929443Y-93177598D01*
X85907178Y-93188682D01*
X85885128Y-93198945D01*
X85863291Y-93208387D01*
X85841667Y-93217008D01*
X85820258Y-93224807D01*
X85799062Y-93231786D01*
X85778080Y-93237944D01*
X85757312Y-93243281D01*
X85736757Y-93247796D01*
X85716416Y-93251491D01*
X85696289Y-93254364D01*
X85676376Y-93256417D01*
X85656676Y-93257649D01*
X85637190Y-93258059D01*
X85605664Y-93257518D01*
X85575464Y-93255895D01*
X85546590Y-93253189D01*
X85519043Y-93249401D01*
X85492823Y-93244531D01*
X85467929Y-93238578D01*
X85444362Y-93231544D01*
X85422121Y-93223427D01*
X85401207Y-93214227D01*
X85381619Y-93203946D01*
X85363358Y-93192582D01*
X85346423Y-93180136D01*
X85330815Y-93166608D01*
X85316534Y-93151997D01*
X85303579Y-93136304D01*
X85291950Y-93119529D01*
X85281328Y-93101342D01*
X85271391Y-93081524D01*
X85262139Y-93060074D01*
X85253572Y-93036992D01*
X85245691Y-93012278D01*
X85238495Y-92985932D01*
X85231985Y-92957954D01*
X85226159Y-92928344D01*
X85221020Y-92897103D01*
X85216565Y-92864229D01*
X85212796Y-92829724D01*
X85211168Y-92811859D01*
X85209712Y-92793587D01*
X85208427Y-92774906D01*
X85207313Y-92755818D01*
X85206371Y-92736321D01*
X85205600Y-92716417D01*
X85205000Y-92696104D01*
X85204572Y-92675384D01*
X85204315Y-92654256D01*
X85204229Y-92632719D01*
X85204229Y-91980021D01*
X85476947Y-91980021D01*
X85476947Y-92635325D01*
X85477093Y-92662921D01*
X85477530Y-92689364D01*
X85478260Y-92714653D01*
X85479281Y-92738788D01*
X85480594Y-92761770D01*
X85482199Y-92783599D01*
X85484095Y-92804274D01*
X85486283Y-92823795D01*
X85488764Y-92842163D01*
X85491535Y-92859378D01*
X85496240Y-92883037D01*
X85501601Y-92904100D01*
X85507619Y-92922568D01*
X85514293Y-92938441D01*
X85525299Y-92956558D01*
X85539427Y-92972259D01*
X85556675Y-92985545D01*
X85577045Y-92996415D01*
X85594370Y-93002983D01*
X85613452Y-93008191D01*
X85634289Y-93012041D01*
X85656881Y-93014532D01*
X85681230Y-93015664D01*
X85689736Y-93015740D01*
X85714861Y-93015297D01*
X85739588Y-93013969D01*
X85763919Y-93011755D01*
X85787853Y-93008656D01*
X85811389Y-93004671D01*
X85834529Y-92999801D01*
X85857272Y-92994045D01*
X85879618Y-92987404D01*
X85901567Y-92979878D01*
X85923119Y-92971465D01*
X85937266Y-92965365D01*
X85974613Y-92950600D01*
X85974613Y-91980021D01*
G37*
G36*
X86840969Y-93230701D02*
G01*
X86568252Y-93230701D01*
X86568252Y-91980021D01*
X86838364Y-91980021D01*
X86838364Y-92057754D01*
X86860448Y-92045028D01*
X86882299Y-92033123D01*
X86903916Y-92022039D01*
X86925298Y-92011776D01*
X86946446Y-92002335D01*
X86967360Y-91993714D01*
X86988041Y-91985914D01*
X87008487Y-91978935D01*
X87028699Y-91972777D01*
X87048676Y-91967441D01*
X87068420Y-91962925D01*
X87087930Y-91959230D01*
X87107205Y-91956357D01*
X87126247Y-91954304D01*
X87145054Y-91953073D01*
X87163627Y-91952662D01*
X87190365Y-91953141D01*
X87216187Y-91954576D01*
X87241093Y-91956968D01*
X87265082Y-91960316D01*
X87288156Y-91964621D01*
X87310314Y-91969883D01*
X87331555Y-91976102D01*
X87351881Y-91983278D01*
X87371290Y-91991410D01*
X87389784Y-92000499D01*
X87407361Y-92010545D01*
X87424023Y-92021547D01*
X87439768Y-92033506D01*
X87454598Y-92046422D01*
X87468511Y-92060295D01*
X87481508Y-92075125D01*
X87509943Y-92060295D01*
X87538356Y-92046422D01*
X87566750Y-92033506D01*
X87595123Y-92021547D01*
X87623475Y-92010545D01*
X87651808Y-92000499D01*
X87680120Y-91991410D01*
X87708411Y-91983278D01*
X87736683Y-91976102D01*
X87764933Y-91969883D01*
X87793164Y-91964621D01*
X87821374Y-91960316D01*
X87849564Y-91956968D01*
X87877733Y-91954576D01*
X87905883Y-91953141D01*
X87934011Y-91952662D01*
X87961665Y-91953205D01*
X87988281Y-91954834D01*
X88013858Y-91957548D01*
X88038397Y-91961347D01*
X88061899Y-91966233D01*
X88084362Y-91972204D01*
X88105786Y-91979261D01*
X88126173Y-91987403D01*
X88145522Y-91996631D01*
X88163832Y-92006945D01*
X88181104Y-92018345D01*
X88197338Y-92030830D01*
X88212534Y-92044400D01*
X88226692Y-92059057D01*
X88239811Y-92074799D01*
X88251892Y-92091627D01*
X88263093Y-92109691D01*
X88273572Y-92129251D01*
X88283327Y-92150308D01*
X88292360Y-92172861D01*
X88300671Y-92196910D01*
X88308258Y-92222455D01*
X88315124Y-92249497D01*
X88321266Y-92278034D01*
X88326686Y-92308068D01*
X88331383Y-92339598D01*
X88335358Y-92372624D01*
X88338609Y-92407146D01*
X88339964Y-92424969D01*
X88341139Y-92443165D01*
X88342132Y-92461735D01*
X88342945Y-92480679D01*
X88343578Y-92499998D01*
X88344029Y-92519690D01*
X88344300Y-92539757D01*
X88344391Y-92560197D01*
X88344391Y-93230701D01*
X88074278Y-93230701D01*
X88074278Y-92568014D01*
X88074117Y-92543124D01*
X88073634Y-92519153D01*
X88072828Y-92496101D01*
X88071700Y-92473969D01*
X88070250Y-92452756D01*
X88068477Y-92432463D01*
X88066382Y-92413089D01*
X88063965Y-92394634D01*
X88061225Y-92377099D01*
X88056511Y-92352520D01*
X88051073Y-92330010D01*
X88044908Y-92309569D01*
X88038019Y-92291196D01*
X88033023Y-92280097D01*
X88024506Y-92264886D01*
X88010714Y-92246932D01*
X87994141Y-92231638D01*
X87974786Y-92219003D01*
X87958444Y-92211273D01*
X87940537Y-92205039D01*
X87921065Y-92200301D01*
X87900028Y-92197059D01*
X87877426Y-92195314D01*
X87861489Y-92194981D01*
X87840244Y-92195424D01*
X87818685Y-92196752D01*
X87796814Y-92198966D01*
X87774630Y-92202065D01*
X87752132Y-92206050D01*
X87729322Y-92210920D01*
X87706199Y-92216676D01*
X87682763Y-92223317D01*
X87659013Y-92230844D01*
X87634951Y-92239256D01*
X87618736Y-92245356D01*
X87576178Y-92262727D01*
X87582058Y-92283708D01*
X87585107Y-92301457D01*
X87587798Y-92323077D01*
X87590130Y-92348567D01*
X87591486Y-92367710D01*
X87592682Y-92388573D01*
X87593718Y-92411157D01*
X87594595Y-92435460D01*
X87595313Y-92461484D01*
X87595871Y-92489227D01*
X87596269Y-92518691D01*
X87596509Y-92549875D01*
X87596588Y-92582779D01*
X87596588Y-93230701D01*
X87326042Y-93230701D01*
X87326042Y-92587990D01*
X87325886Y-92560681D01*
X87325418Y-92534447D01*
X87324637Y-92509288D01*
X87323545Y-92485205D01*
X87322140Y-92462198D01*
X87320424Y-92440266D01*
X87318395Y-92419409D01*
X87316054Y-92399628D01*
X87313401Y-92380923D01*
X87310436Y-92363293D01*
X87305403Y-92338864D01*
X87299667Y-92316855D01*
X87293230Y-92297266D01*
X87286090Y-92280097D01*
X87274616Y-92260148D01*
X87260170Y-92242859D01*
X87242752Y-92228230D01*
X87227738Y-92219003D01*
X87211052Y-92211273D01*
X87192695Y-92205039D01*
X87172665Y-92200301D01*
X87150965Y-92197059D01*
X87127592Y-92195314D01*
X87111081Y-92194981D01*
X87087784Y-92195424D01*
X87064792Y-92196752D01*
X87042105Y-92198966D01*
X87019723Y-92202065D01*
X86997647Y-92206050D01*
X86975876Y-92210920D01*
X86954411Y-92216676D01*
X86933250Y-92223317D01*
X86912396Y-92230844D01*
X86891846Y-92239256D01*
X86878316Y-92245356D01*
X86840969Y-92260121D01*
X86840969Y-93230701D01*
G37*
G36*
X75499436Y-94504551D02*
G01*
X75530671Y-94505798D01*
X75560871Y-94507876D01*
X75590036Y-94510785D01*
X75618167Y-94514526D01*
X75645262Y-94519097D01*
X75671323Y-94524500D01*
X75696349Y-94530734D01*
X75720341Y-94537800D01*
X75743297Y-94545696D01*
X75765219Y-94554424D01*
X75786106Y-94563983D01*
X75805959Y-94574373D01*
X75824776Y-94585594D01*
X75842559Y-94597647D01*
X75859307Y-94610530D01*
X75875083Y-94624323D01*
X75889841Y-94639103D01*
X75903581Y-94654871D01*
X75916304Y-94671626D01*
X75928009Y-94689368D01*
X75938696Y-94708097D01*
X75948365Y-94727814D01*
X75957016Y-94748518D01*
X75964650Y-94770209D01*
X75971265Y-94792887D01*
X75976863Y-94816553D01*
X75981444Y-94841206D01*
X75985006Y-94866846D01*
X75987550Y-94893473D01*
X75989077Y-94921088D01*
X75989586Y-94949690D01*
X75989396Y-94968491D01*
X75988826Y-94986786D01*
X75987876Y-95004575D01*
X75985739Y-95030312D01*
X75982746Y-95054911D01*
X75978899Y-95078373D01*
X75974197Y-95100697D01*
X75968640Y-95121884D01*
X75962227Y-95141933D01*
X75954960Y-95160846D01*
X75946838Y-95178620D01*
X75940948Y-95189838D01*
X75931333Y-95205945D01*
X75920725Y-95221533D01*
X75909124Y-95236601D01*
X75896531Y-95251151D01*
X75882946Y-95265181D01*
X75868369Y-95278693D01*
X75852799Y-95291685D01*
X75836237Y-95304158D01*
X75818682Y-95316112D01*
X75800135Y-95327547D01*
X75787219Y-95334882D01*
X75816878Y-95347581D01*
X75844623Y-95361902D01*
X75870455Y-95377844D01*
X75894374Y-95395408D01*
X75916379Y-95414593D01*
X75936470Y-95435401D01*
X75954648Y-95457830D01*
X75970913Y-95481881D01*
X75985264Y-95507553D01*
X75997701Y-95534847D01*
X76008225Y-95563763D01*
X76016836Y-95594301D01*
X76023533Y-95626460D01*
X76028317Y-95660241D01*
X76029991Y-95677739D01*
X76031187Y-95695643D01*
X76031905Y-95713953D01*
X76032144Y-95732668D01*
X76031612Y-95762511D01*
X76030015Y-95791407D01*
X76027354Y-95819356D01*
X76023628Y-95846357D01*
X76018838Y-95872410D01*
X76012984Y-95897517D01*
X76006065Y-95921676D01*
X75998081Y-95944887D01*
X75989033Y-95967151D01*
X75978921Y-95988468D01*
X75967744Y-96008837D01*
X75955503Y-96028259D01*
X75942197Y-96046733D01*
X75927827Y-96064260D01*
X75912393Y-96080840D01*
X75895894Y-96096472D01*
X75878330Y-96111157D01*
X75859702Y-96124895D01*
X75840010Y-96137685D01*
X75819253Y-96149527D01*
X75797431Y-96160422D01*
X75774546Y-96170370D01*
X75750595Y-96179370D01*
X75725581Y-96187423D01*
X75699502Y-96194529D01*
X75672358Y-96200687D01*
X75644150Y-96205898D01*
X75614877Y-96210161D01*
X75584540Y-96213477D01*
X75553139Y-96215846D01*
X75520673Y-96217267D01*
X75487143Y-96217741D01*
X74816640Y-96217741D01*
X74816640Y-95469938D01*
X75094134Y-95469938D01*
X75094134Y-95977593D01*
X75471944Y-95977593D01*
X75497148Y-95977089D01*
X75521139Y-95975577D01*
X75543916Y-95973058D01*
X75565480Y-95969532D01*
X75585830Y-95964997D01*
X75604966Y-95959455D01*
X75622888Y-95952906D01*
X75639597Y-95945349D01*
X75655091Y-95936784D01*
X75673863Y-95923797D01*
X75678219Y-95920270D01*
X75694402Y-95904548D01*
X75708427Y-95886262D01*
X75717530Y-95870863D01*
X75725420Y-95854023D01*
X75732095Y-95835739D01*
X75737557Y-95816013D01*
X75741805Y-95794843D01*
X75744839Y-95772232D01*
X75746660Y-95748177D01*
X75747267Y-95722680D01*
X75746561Y-95697120D01*
X75744442Y-95673041D01*
X75740912Y-95650444D01*
X75735969Y-95629327D01*
X75729614Y-95609691D01*
X75721847Y-95591536D01*
X75712668Y-95574861D01*
X75702076Y-95559668D01*
X75690072Y-95545956D01*
X75676657Y-95533724D01*
X75666928Y-95526393D01*
X75651595Y-95516304D01*
X75635559Y-95507207D01*
X75618821Y-95499103D01*
X75601381Y-95491991D01*
X75583239Y-95485871D01*
X75564394Y-95480744D01*
X75544847Y-95476609D01*
X75524598Y-95473467D01*
X75503647Y-95471317D01*
X75481993Y-95470159D01*
X75467167Y-95469938D01*
X75094134Y-95469938D01*
X74816640Y-95469938D01*
X74816640Y-94744283D01*
X75094134Y-94744283D01*
X75094134Y-95234567D01*
X75461956Y-95234567D01*
X75491667Y-95233582D01*
X75519462Y-95230625D01*
X75545339Y-95225697D01*
X75569300Y-95218798D01*
X75591344Y-95209928D01*
X75611471Y-95199087D01*
X75629681Y-95186274D01*
X75645975Y-95171490D01*
X75660351Y-95154736D01*
X75672811Y-95136010D01*
X75683354Y-95115313D01*
X75691980Y-95092644D01*
X75698689Y-95068005D01*
X75703481Y-95041395D01*
X75706356Y-95012813D01*
X75707315Y-94982260D01*
X75706317Y-94953443D01*
X75703325Y-94926484D01*
X75698337Y-94901385D01*
X75691355Y-94878145D01*
X75682378Y-94856765D01*
X75671406Y-94837243D01*
X75658440Y-94819581D01*
X75643478Y-94803778D01*
X75626521Y-94789834D01*
X75607570Y-94777749D01*
X75586623Y-94767523D01*
X75563682Y-94759157D01*
X75538746Y-94752650D01*
X75511814Y-94748002D01*
X75482888Y-94745213D01*
X75451967Y-94744283D01*
X75094134Y-94744283D01*
X74816640Y-94744283D01*
X74816640Y-94504136D01*
X75467167Y-94504136D01*
X75499436Y-94504551D01*
G37*
G36*
X76829768Y-94940089D02*
G01*
X76856879Y-94941249D01*
X76882992Y-94943183D01*
X76908108Y-94945890D01*
X76932227Y-94949371D01*
X76955348Y-94953626D01*
X76977472Y-94958654D01*
X76998598Y-94964455D01*
X77018727Y-94971030D01*
X77037858Y-94978379D01*
X77055992Y-94986501D01*
X77073128Y-94995397D01*
X77089267Y-95005066D01*
X77104409Y-95015508D01*
X77118553Y-95026725D01*
X77131700Y-95038714D01*
X77143952Y-95051491D01*
X77155415Y-95065177D01*
X77166086Y-95079773D01*
X77175968Y-95095277D01*
X77185058Y-95111691D01*
X77193358Y-95129014D01*
X77200868Y-95147246D01*
X77207587Y-95166388D01*
X77213516Y-95186439D01*
X77218654Y-95207399D01*
X77223002Y-95229268D01*
X77226559Y-95252046D01*
X77229326Y-95275734D01*
X77231302Y-95300331D01*
X77232488Y-95325837D01*
X77232883Y-95352253D01*
X77232883Y-95922441D01*
X77234685Y-95942115D01*
X77238135Y-95959774D01*
X77244244Y-95977829D01*
X77252598Y-95993141D01*
X77261545Y-96004083D01*
X77276581Y-96015944D01*
X77292677Y-96024407D01*
X77311515Y-96031083D01*
X77329846Y-96035384D01*
X77343186Y-96037521D01*
X77335804Y-96245099D01*
X77309261Y-96244738D01*
X77283482Y-96243654D01*
X77258466Y-96241847D01*
X77234213Y-96239318D01*
X77210724Y-96236066D01*
X77187998Y-96232092D01*
X77166035Y-96227394D01*
X77144836Y-96221975D01*
X77124400Y-96215832D01*
X77104728Y-96208967D01*
X77085819Y-96201379D01*
X77067673Y-96193069D01*
X77050291Y-96184036D01*
X77033671Y-96174280D01*
X77017816Y-96163802D01*
X77002723Y-96152601D01*
X76977741Y-96163802D01*
X76952736Y-96174280D01*
X76927706Y-96184036D01*
X76902653Y-96193069D01*
X76877576Y-96201379D01*
X76852475Y-96208967D01*
X76827350Y-96215832D01*
X76802202Y-96221975D01*
X76777030Y-96227394D01*
X76751834Y-96232092D01*
X76726615Y-96236066D01*
X76701371Y-96239318D01*
X76676104Y-96241847D01*
X76650814Y-96243654D01*
X76625499Y-96244738D01*
X76600161Y-96245099D01*
X76577237Y-96244711D01*
X76555042Y-96243547D01*
X76533573Y-96241607D01*
X76512833Y-96238891D01*
X76492821Y-96235398D01*
X76473536Y-96231130D01*
X76454979Y-96226085D01*
X76437149Y-96220265D01*
X76420047Y-96213668D01*
X76403673Y-96206295D01*
X76388027Y-96198146D01*
X76373109Y-96189222D01*
X76345455Y-96169044D01*
X76320712Y-96145761D01*
X76298880Y-96119375D01*
X76289056Y-96105017D01*
X76279959Y-96089884D01*
X76271590Y-96073974D01*
X76263949Y-96057289D01*
X76257036Y-96039827D01*
X76250850Y-96021589D01*
X76245392Y-96002575D01*
X76240662Y-95982785D01*
X76236659Y-95962219D01*
X76233384Y-95940877D01*
X76230837Y-95918759D01*
X76229018Y-95895865D01*
X76227926Y-95872194D01*
X76227602Y-95850353D01*
X76500280Y-95850353D01*
X76500876Y-95871230D01*
X76502662Y-95890760D01*
X76505639Y-95908943D01*
X76512337Y-95933693D01*
X76521715Y-95955411D01*
X76533772Y-95974099D01*
X76548509Y-95989757D01*
X76565925Y-96002384D01*
X76586020Y-96011981D01*
X76608795Y-96018547D01*
X76634249Y-96022083D01*
X76652707Y-96022756D01*
X76676291Y-96022405D01*
X76700142Y-96021351D01*
X76724260Y-96019596D01*
X76748645Y-96017138D01*
X76773298Y-96013977D01*
X76798217Y-96010115D01*
X76823404Y-96005550D01*
X76848858Y-96000283D01*
X76865976Y-95996381D01*
X76883213Y-95992168D01*
X76900568Y-95987642D01*
X76918042Y-95982804D01*
X76962771Y-95967605D01*
X76962771Y-95634959D01*
X76672683Y-95662317D01*
X76651806Y-95664833D01*
X76632276Y-95668580D01*
X76614093Y-95673559D01*
X76597257Y-95679769D01*
X76574528Y-95691394D01*
X76554830Y-95705789D01*
X76538162Y-95722956D01*
X76524524Y-95742893D01*
X76513918Y-95765602D01*
X76508530Y-95782280D01*
X76504489Y-95800190D01*
X76501795Y-95819332D01*
X76500449Y-95839705D01*
X76500280Y-95850353D01*
X76227602Y-95850353D01*
X76227563Y-95847748D01*
X76227958Y-95824382D01*
X76229144Y-95801838D01*
X76231120Y-95780115D01*
X76233887Y-95759212D01*
X76237444Y-95739131D01*
X76241791Y-95719871D01*
X76246930Y-95701431D01*
X76252858Y-95683813D01*
X76259578Y-95667016D01*
X76267087Y-95651040D01*
X76279834Y-95628615D01*
X76294359Y-95608038D01*
X76310663Y-95589307D01*
X76328746Y-95572425D01*
X76348676Y-95557061D01*
X76370522Y-95542888D01*
X76386150Y-95534101D01*
X76402630Y-95525843D01*
X76419962Y-95518114D01*
X76438145Y-95510915D01*
X76457180Y-95504245D01*
X76477066Y-95498104D01*
X76497804Y-95492493D01*
X76519393Y-95487411D01*
X76541834Y-95482858D01*
X76565126Y-95478834D01*
X76589270Y-95475339D01*
X76614266Y-95472374D01*
X76640113Y-95469938D01*
X76962771Y-95442145D01*
X76962771Y-95352253D01*
X76962386Y-95334052D01*
X76960672Y-95311423D01*
X76957588Y-95290666D01*
X76953134Y-95271783D01*
X76947309Y-95254772D01*
X76938100Y-95236142D01*
X76926749Y-95220438D01*
X76918910Y-95212420D01*
X76904322Y-95200785D01*
X76887698Y-95191122D01*
X76869038Y-95183431D01*
X76848343Y-95177713D01*
X76830321Y-95174557D01*
X76810996Y-95172664D01*
X76790368Y-95172033D01*
X76770026Y-95172111D01*
X76749059Y-95172345D01*
X76727468Y-95172736D01*
X76705253Y-95173282D01*
X76682413Y-95173984D01*
X76658949Y-95174842D01*
X76634861Y-95175857D01*
X76610149Y-95177027D01*
X76584812Y-95178354D01*
X76558852Y-95179836D01*
X76532266Y-95181475D01*
X76505057Y-95183270D01*
X76477224Y-95185221D01*
X76448766Y-95187328D01*
X76419684Y-95189590D01*
X76389977Y-95192009D01*
X76310073Y-95197221D01*
X76300085Y-95004407D01*
X76317087Y-95000427D01*
X76350834Y-94992844D01*
X76384238Y-94985767D01*
X76417300Y-94979195D01*
X76450019Y-94973129D01*
X76482395Y-94967568D01*
X76514429Y-94962513D01*
X76546120Y-94957964D01*
X76577468Y-94953920D01*
X76608474Y-94950381D01*
X76639137Y-94947348D01*
X76669458Y-94944820D01*
X76699436Y-94942798D01*
X76729071Y-94941282D01*
X76758363Y-94940271D01*
X76787313Y-94939765D01*
X76801659Y-94939702D01*
X76829768Y-94940089D01*
G37*
G36*
X78046938Y-94942095D02*
G01*
X78067540Y-94942759D01*
X78088088Y-94943866D01*
X78108583Y-94945415D01*
X78129024Y-94947408D01*
X78149412Y-94949843D01*
X78169747Y-94952721D01*
X78190028Y-94956041D01*
X78210255Y-94959805D01*
X78230430Y-94964011D01*
X78243849Y-94967061D01*
X78281630Y-94974443D01*
X78669428Y-94964455D01*
X78669428Y-95184627D01*
X78461415Y-95172033D01*
X78473522Y-95188744D01*
X78484438Y-95205982D01*
X78494163Y-95223747D01*
X78502698Y-95242038D01*
X78510041Y-95260856D01*
X78516194Y-95280201D01*
X78521156Y-95300072D01*
X78524927Y-95320470D01*
X78527507Y-95341395D01*
X78528896Y-95362846D01*
X78529161Y-95377440D01*
X78528677Y-95407465D01*
X78527227Y-95436310D01*
X78524809Y-95463974D01*
X78521425Y-95490457D01*
X78517074Y-95515760D01*
X78511756Y-95539882D01*
X78505471Y-95562823D01*
X78498219Y-95584584D01*
X78490001Y-95605164D01*
X78480815Y-95624563D01*
X78470662Y-95642782D01*
X78459543Y-95659820D01*
X78447456Y-95675678D01*
X78434403Y-95690354D01*
X78420383Y-95703850D01*
X78405395Y-95716166D01*
X78389382Y-95727525D01*
X78372283Y-95738150D01*
X78354098Y-95748044D01*
X78334828Y-95757204D01*
X78314471Y-95765631D01*
X78293030Y-95773326D01*
X78270502Y-95780288D01*
X78246889Y-95786517D01*
X78222190Y-95792013D01*
X78196406Y-95796776D01*
X78169536Y-95800807D01*
X78141580Y-95804104D01*
X78112539Y-95806669D01*
X78082412Y-95808501D01*
X78051199Y-95809600D01*
X78018901Y-95809967D01*
X77999043Y-95809723D01*
X77980182Y-95808991D01*
X77962317Y-95807772D01*
X77942195Y-95805665D01*
X77923508Y-95802856D01*
X77909032Y-95799979D01*
X77900788Y-95820654D01*
X77893643Y-95840121D01*
X77887597Y-95858380D01*
X77882650Y-95875432D01*
X77878013Y-95895048D01*
X77875093Y-95912777D01*
X77873857Y-95931561D01*
X77876059Y-95950349D01*
X77882667Y-95966436D01*
X77895614Y-95981513D01*
X77911662Y-95991811D01*
X77919889Y-95995397D01*
X77937611Y-96000455D01*
X77956400Y-96003966D01*
X77979287Y-96007003D01*
X77999142Y-96008968D01*
X78021302Y-96010667D01*
X78045767Y-96012098D01*
X78063358Y-96012904D01*
X78081974Y-96013591D01*
X78101614Y-96014159D01*
X78122279Y-96014609D01*
X78143969Y-96014939D01*
X78162377Y-96015176D01*
X78180420Y-96015558D01*
X78198096Y-96016088D01*
X78232348Y-96017588D01*
X78265135Y-96019674D01*
X78296456Y-96022348D01*
X78326312Y-96025608D01*
X78354702Y-96029455D01*
X78381626Y-96033890D01*
X78407085Y-96038911D01*
X78431078Y-96044519D01*
X78453605Y-96050714D01*
X78474667Y-96057496D01*
X78494263Y-96064865D01*
X78512394Y-96072821D01*
X78529059Y-96081363D01*
X78544258Y-96090493D01*
X78551308Y-96095278D01*
X78571020Y-96110985D01*
X78588794Y-96129120D01*
X78604628Y-96149682D01*
X78614108Y-96164739D01*
X78622725Y-96180875D01*
X78630481Y-96198089D01*
X78637375Y-96216383D01*
X78643407Y-96235755D01*
X78648577Y-96256206D01*
X78652886Y-96277736D01*
X78656333Y-96300345D01*
X78658918Y-96324032D01*
X78660642Y-96348799D01*
X78661503Y-96374645D01*
X78661611Y-96387972D01*
X78661032Y-96413193D01*
X78659296Y-96437614D01*
X78656401Y-96461234D01*
X78652349Y-96484053D01*
X78647139Y-96506071D01*
X78640771Y-96527289D01*
X78633246Y-96547706D01*
X78624563Y-96567323D01*
X78614722Y-96586139D01*
X78603723Y-96604154D01*
X78591567Y-96621368D01*
X78578253Y-96637782D01*
X78563781Y-96653395D01*
X78548151Y-96668208D01*
X78531364Y-96682220D01*
X78513419Y-96695431D01*
X78494316Y-96707841D01*
X78474055Y-96719451D01*
X78452636Y-96730260D01*
X78430060Y-96740268D01*
X78406326Y-96749476D01*
X78381435Y-96757883D01*
X78355385Y-96765490D01*
X78328178Y-96772295D01*
X78299813Y-96778300D01*
X78270290Y-96783505D01*
X78239610Y-96787908D01*
X78207771Y-96791512D01*
X78174775Y-96794314D01*
X78140622Y-96796316D01*
X78105310Y-96797517D01*
X78068841Y-96797917D01*
X78051180Y-96797841D01*
X78033806Y-96797613D01*
X77999922Y-96796702D01*
X77967188Y-96795184D01*
X77935603Y-96793059D01*
X77905169Y-96790326D01*
X77875885Y-96786986D01*
X77847752Y-96783038D01*
X77820768Y-96778484D01*
X77794934Y-96773322D01*
X77770251Y-96767552D01*
X77746717Y-96761176D01*
X77724334Y-96754192D01*
X77703101Y-96746601D01*
X77683018Y-96738402D01*
X77664085Y-96729597D01*
X77646302Y-96720184D01*
X77629632Y-96710023D01*
X77614038Y-96698864D01*
X77599519Y-96686708D01*
X77586075Y-96673555D01*
X77573707Y-96659404D01*
X77562415Y-96644255D01*
X77552198Y-96628110D01*
X77543056Y-96610966D01*
X77534990Y-96592826D01*
X77527999Y-96573688D01*
X77522084Y-96553552D01*
X77517245Y-96532419D01*
X77513480Y-96510288D01*
X77510792Y-96487160D01*
X77509178Y-96463035D01*
X77508641Y-96437912D01*
X77509340Y-96415195D01*
X77509576Y-96412725D01*
X77776147Y-96412725D01*
X77777240Y-96433868D01*
X77780517Y-96453437D01*
X77785979Y-96471432D01*
X77793626Y-96487853D01*
X77803458Y-96502699D01*
X77815475Y-96515971D01*
X77829677Y-96527669D01*
X77846064Y-96537793D01*
X77865205Y-96546648D01*
X77881601Y-96552514D01*
X77899744Y-96557716D01*
X77919636Y-96562255D01*
X77941276Y-96566129D01*
X77964664Y-96569339D01*
X77989800Y-96571884D01*
X78007528Y-96573213D01*
X78026034Y-96574246D01*
X78045316Y-96574984D01*
X78065375Y-96575426D01*
X78086212Y-96575574D01*
X78104834Y-96575405D01*
X78122864Y-96574899D01*
X78140304Y-96574055D01*
X78173410Y-96571354D01*
X78204151Y-96567303D01*
X78232527Y-96561902D01*
X78258539Y-96555151D01*
X78282186Y-96547049D01*
X78303469Y-96537597D01*
X78322386Y-96526795D01*
X78338939Y-96514642D01*
X78353127Y-96501139D01*
X78364951Y-96486286D01*
X78374410Y-96470083D01*
X78381504Y-96452529D01*
X78386233Y-96433625D01*
X78388598Y-96413370D01*
X78388893Y-96402737D01*
X78388420Y-96385120D01*
X78386317Y-96363566D01*
X78382530Y-96344224D01*
X78377061Y-96327095D01*
X78367859Y-96308793D01*
X78356027Y-96293948D01*
X78341565Y-96282559D01*
X78335045Y-96278972D01*
X78315745Y-96271402D01*
X78296549Y-96266170D01*
X78274015Y-96261672D01*
X78254923Y-96258778D01*
X78233954Y-96256298D01*
X78211106Y-96254229D01*
X78186381Y-96252572D01*
X78168855Y-96251697D01*
X78150494Y-96251005D01*
X78131298Y-96250496D01*
X78121387Y-96250310D01*
X77876462Y-96235111D01*
X77860022Y-96249066D01*
X77845173Y-96262702D01*
X77831914Y-96276020D01*
X77820245Y-96289021D01*
X77808342Y-96304201D01*
X77798729Y-96318924D01*
X77789930Y-96336771D01*
X77784108Y-96353260D01*
X77779874Y-96370847D01*
X77777228Y-96389534D01*
X77776169Y-96409320D01*
X77776147Y-96412725D01*
X77509576Y-96412725D01*
X77511436Y-96393292D01*
X77514931Y-96372203D01*
X77519823Y-96351928D01*
X77526113Y-96332468D01*
X77533801Y-96313821D01*
X77542886Y-96295989D01*
X77553370Y-96278972D01*
X77565522Y-96262191D01*
X77579399Y-96245072D01*
X77590937Y-96232010D01*
X77603444Y-96218757D01*
X77616921Y-96205313D01*
X77631368Y-96191678D01*
X77646784Y-96177852D01*
X77663169Y-96163836D01*
X77680524Y-96149629D01*
X77698848Y-96135230D01*
X77684103Y-96124252D01*
X77670808Y-96111999D01*
X77658963Y-96098471D01*
X77648569Y-96083668D01*
X77639625Y-96067591D01*
X77632131Y-96050239D01*
X77626088Y-96031611D01*
X77621495Y-96011709D01*
X77618353Y-95990533D01*
X77616660Y-95968081D01*
X77616338Y-95952405D01*
X77618705Y-95931479D01*
X77624292Y-95910682D01*
X77631128Y-95891846D01*
X77640068Y-95871056D01*
X77648153Y-95854180D01*
X77657421Y-95836206D01*
X77667873Y-95817132D01*
X77679508Y-95796959D01*
X77683649Y-95789991D01*
X77706231Y-95752644D01*
X77684407Y-95738558D01*
X77663992Y-95723223D01*
X77644984Y-95706639D01*
X77627385Y-95688807D01*
X77611193Y-95669727D01*
X77596409Y-95649398D01*
X77583034Y-95627820D01*
X77571066Y-95604994D01*
X77560506Y-95580920D01*
X77551355Y-95555597D01*
X77543611Y-95529025D01*
X77537275Y-95501205D01*
X77532347Y-95472137D01*
X77528827Y-95441820D01*
X77526715Y-95410254D01*
X77526011Y-95377440D01*
X77796123Y-95377440D01*
X77796608Y-95398479D01*
X77798062Y-95418442D01*
X77800486Y-95437329D01*
X77803879Y-95455139D01*
X77809911Y-95477212D01*
X77817667Y-95497372D01*
X77827146Y-95515617D01*
X77838349Y-95531950D01*
X77851275Y-95546369D01*
X77866114Y-95558888D01*
X77883058Y-95569738D01*
X77902104Y-95578918D01*
X77923254Y-95586430D01*
X77940497Y-95590968D01*
X77958923Y-95594567D01*
X77978532Y-95597227D01*
X77999325Y-95598949D01*
X78021301Y-95599731D01*
X78028889Y-95599783D01*
X78051247Y-95599314D01*
X78072400Y-95597905D01*
X78092346Y-95595558D01*
X78111087Y-95592272D01*
X78128621Y-95588047D01*
X78150124Y-95580952D01*
X78169482Y-95572189D01*
X78186697Y-95561757D01*
X78201767Y-95549655D01*
X78205200Y-95546369D01*
X78217821Y-95531950D01*
X78228759Y-95515617D01*
X78238014Y-95497372D01*
X78245586Y-95477212D01*
X78251476Y-95455139D01*
X78254789Y-95437329D01*
X78257155Y-95418442D01*
X78258575Y-95398479D01*
X78259049Y-95377440D01*
X78258564Y-95356401D01*
X78257110Y-95336438D01*
X78254686Y-95317551D01*
X78251293Y-95299741D01*
X78245261Y-95277668D01*
X78237505Y-95257509D01*
X78228026Y-95239263D01*
X78216823Y-95222930D01*
X78203897Y-95208511D01*
X78189057Y-95195891D01*
X78172114Y-95184953D01*
X78153068Y-95175697D01*
X78131918Y-95168125D01*
X78114675Y-95163550D01*
X78096249Y-95159921D01*
X78076639Y-95157240D01*
X78055847Y-95155504D01*
X78033871Y-95154715D01*
X78026283Y-95154663D01*
X77998412Y-95155533D01*
X77972339Y-95158144D01*
X77948065Y-95162495D01*
X77925588Y-95168586D01*
X77904910Y-95176418D01*
X77886030Y-95185991D01*
X77868947Y-95197304D01*
X77853663Y-95210357D01*
X77840177Y-95225151D01*
X77828490Y-95241685D01*
X77818600Y-95259960D01*
X77810508Y-95279975D01*
X77804215Y-95301731D01*
X77799720Y-95325227D01*
X77797022Y-95350463D01*
X77796123Y-95377440D01*
X77526011Y-95377440D01*
X77526539Y-95349737D01*
X77528122Y-95322974D01*
X77530759Y-95297150D01*
X77534452Y-95272267D01*
X77539200Y-95248323D01*
X77545004Y-95225319D01*
X77551862Y-95203255D01*
X77559775Y-95182130D01*
X77568744Y-95161945D01*
X77578768Y-95142700D01*
X77589846Y-95124395D01*
X77601980Y-95107029D01*
X77615169Y-95090604D01*
X77629414Y-95075118D01*
X77644713Y-95060572D01*
X77661067Y-95046965D01*
X77678321Y-95034239D01*
X77696317Y-95022334D01*
X77715057Y-95011251D01*
X77734539Y-95000988D01*
X77754765Y-94991546D01*
X77775733Y-94982925D01*
X77797445Y-94975125D01*
X77819899Y-94968146D01*
X77843097Y-94961989D01*
X77867037Y-94956652D01*
X77891721Y-94952136D01*
X77917147Y-94948442D01*
X77943317Y-94945568D01*
X77970229Y-94943516D01*
X77997885Y-94942284D01*
X78026283Y-94941874D01*
X78046938Y-94942095D01*
G37*
G36*
X78592997Y-94752100D02*
G01*
X78592997Y-94504136D01*
X79843677Y-94504136D01*
X79843677Y-94752100D01*
X79360776Y-94752100D01*
X79360776Y-96217741D01*
X79080676Y-96217741D01*
X79080676Y-94752100D01*
X78592997Y-94752100D01*
G37*
G36*
X80359464Y-94940089D02*
G01*
X80386575Y-94941249D01*
X80412688Y-94943183D01*
X80437804Y-94945890D01*
X80461923Y-94949371D01*
X80485044Y-94953626D01*
X80507168Y-94958654D01*
X80528294Y-94964455D01*
X80548423Y-94971030D01*
X80567554Y-94978379D01*
X80585688Y-94986501D01*
X80602824Y-94995397D01*
X80618963Y-95005066D01*
X80634105Y-95015508D01*
X80648249Y-95026725D01*
X80661396Y-95038714D01*
X80673648Y-95051491D01*
X80685111Y-95065177D01*
X80695782Y-95079773D01*
X80705664Y-95095277D01*
X80714754Y-95111691D01*
X80723054Y-95129014D01*
X80730564Y-95147246D01*
X80737283Y-95166388D01*
X80743212Y-95186439D01*
X80748350Y-95207399D01*
X80752698Y-95229268D01*
X80756255Y-95252046D01*
X80759022Y-95275734D01*
X80760998Y-95300331D01*
X80762184Y-95325837D01*
X80762579Y-95352253D01*
X80762579Y-95922441D01*
X80764381Y-95942115D01*
X80767831Y-95959774D01*
X80773940Y-95977829D01*
X80782294Y-95993141D01*
X80791241Y-96004083D01*
X80806277Y-96015944D01*
X80822373Y-96024407D01*
X80841212Y-96031083D01*
X80859542Y-96035384D01*
X80872882Y-96037521D01*
X80865500Y-96245099D01*
X80838957Y-96244738D01*
X80813178Y-96243654D01*
X80788162Y-96241847D01*
X80763909Y-96239318D01*
X80740420Y-96236066D01*
X80717694Y-96232092D01*
X80695731Y-96227394D01*
X80674532Y-96221975D01*
X80654096Y-96215832D01*
X80634424Y-96208967D01*
X80615515Y-96201379D01*
X80597369Y-96193069D01*
X80579987Y-96184036D01*
X80563368Y-96174280D01*
X80547512Y-96163802D01*
X80532419Y-96152601D01*
X80507437Y-96163802D01*
X80482432Y-96174280D01*
X80457402Y-96184036D01*
X80432349Y-96193069D01*
X80407272Y-96201379D01*
X80382171Y-96208967D01*
X80357046Y-96215832D01*
X80331898Y-96221975D01*
X80306726Y-96227394D01*
X80281530Y-96232092D01*
X80256311Y-96236066D01*
X80231067Y-96239318D01*
X80205800Y-96241847D01*
X80180510Y-96243654D01*
X80155195Y-96244738D01*
X80129857Y-96245099D01*
X80106933Y-96244711D01*
X80084738Y-96243547D01*
X80063270Y-96241607D01*
X80042529Y-96238891D01*
X80022517Y-96235398D01*
X80003232Y-96231130D01*
X79984675Y-96226085D01*
X79966845Y-96220265D01*
X79949743Y-96213668D01*
X79933369Y-96206295D01*
X79917723Y-96198146D01*
X79902805Y-96189222D01*
X79875151Y-96169044D01*
X79850408Y-96145761D01*
X79828576Y-96119375D01*
X79818752Y-96105017D01*
X79809655Y-96089884D01*
X79801286Y-96073974D01*
X79793645Y-96057289D01*
X79786732Y-96039827D01*
X79780546Y-96021589D01*
X79775088Y-96002575D01*
X79770358Y-95982785D01*
X79766355Y-95962219D01*
X79763080Y-95940877D01*
X79760533Y-95918759D01*
X79758714Y-95895865D01*
X79757622Y-95872194D01*
X79757298Y-95850353D01*
X80029976Y-95850353D01*
X80030572Y-95871230D01*
X80032358Y-95890760D01*
X80035335Y-95908943D01*
X80042033Y-95933693D01*
X80051411Y-95955411D01*
X80063468Y-95974099D01*
X80078205Y-95989757D01*
X80095621Y-96002384D01*
X80115716Y-96011981D01*
X80138491Y-96018547D01*
X80163945Y-96022083D01*
X80182403Y-96022756D01*
X80205987Y-96022405D01*
X80229838Y-96021351D01*
X80253956Y-96019596D01*
X80278341Y-96017138D01*
X80302994Y-96013977D01*
X80327913Y-96010115D01*
X80353100Y-96005550D01*
X80378554Y-96000283D01*
X80395672Y-95996381D01*
X80412909Y-95992168D01*
X80430264Y-95987642D01*
X80447738Y-95982804D01*
X80492467Y-95967605D01*
X80492467Y-95634959D01*
X80202379Y-95662317D01*
X80181502Y-95664833D01*
X80161972Y-95668580D01*
X80143789Y-95673559D01*
X80126953Y-95679769D01*
X80104224Y-95691394D01*
X80084526Y-95705789D01*
X80067858Y-95722956D01*
X80054220Y-95742893D01*
X80043614Y-95765602D01*
X80038226Y-95782280D01*
X80034185Y-95800190D01*
X80031491Y-95819332D01*
X80030145Y-95839705D01*
X80029976Y-95850353D01*
X79757298Y-95850353D01*
X79757259Y-95847748D01*
X79757654Y-95824382D01*
X79758840Y-95801838D01*
X79760816Y-95780115D01*
X79763583Y-95759212D01*
X79767140Y-95739131D01*
X79771487Y-95719871D01*
X79776626Y-95701431D01*
X79782554Y-95683813D01*
X79789274Y-95667016D01*
X79796783Y-95651040D01*
X79809530Y-95628615D01*
X79824055Y-95608038D01*
X79840359Y-95589307D01*
X79858442Y-95572425D01*
X79878372Y-95557061D01*
X79900218Y-95542888D01*
X79915846Y-95534101D01*
X79932326Y-95525843D01*
X79949658Y-95518114D01*
X79967841Y-95510915D01*
X79986876Y-95504245D01*
X80006762Y-95498104D01*
X80027500Y-95492493D01*
X80049089Y-95487411D01*
X80071530Y-95482858D01*
X80094822Y-95478834D01*
X80118966Y-95475339D01*
X80143962Y-95472374D01*
X80169809Y-95469938D01*
X80492467Y-95442145D01*
X80492467Y-95352253D01*
X80492082Y-95334052D01*
X80490368Y-95311423D01*
X80487284Y-95290666D01*
X80482830Y-95271783D01*
X80477005Y-95254772D01*
X80467796Y-95236142D01*
X80456445Y-95220438D01*
X80448607Y-95212420D01*
X80434018Y-95200785D01*
X80417394Y-95191122D01*
X80398734Y-95183431D01*
X80378039Y-95177713D01*
X80360017Y-95174557D01*
X80340692Y-95172664D01*
X80320064Y-95172033D01*
X80299722Y-95172111D01*
X80278755Y-95172345D01*
X80257164Y-95172736D01*
X80234949Y-95173282D01*
X80212109Y-95173984D01*
X80188645Y-95174842D01*
X80164557Y-95175857D01*
X80139845Y-95177027D01*
X80114508Y-95178354D01*
X80088548Y-95179836D01*
X80061962Y-95181475D01*
X80034753Y-95183270D01*
X80006920Y-95185221D01*
X79978462Y-95187328D01*
X79949380Y-95189590D01*
X79919673Y-95192009D01*
X79839769Y-95197221D01*
X79829781Y-95004407D01*
X79846783Y-95000427D01*
X79880530Y-94992844D01*
X79913934Y-94985767D01*
X79946996Y-94979195D01*
X79979715Y-94973129D01*
X80012091Y-94967568D01*
X80044125Y-94962513D01*
X80075816Y-94957964D01*
X80107164Y-94953920D01*
X80138170Y-94950381D01*
X80168833Y-94947348D01*
X80199154Y-94944820D01*
X80229132Y-94942798D01*
X80258767Y-94941282D01*
X80288059Y-94940271D01*
X80317009Y-94939765D01*
X80331355Y-94939702D01*
X80359464Y-94940089D01*
G37*
G36*
X81576634Y-94942095D02*
G01*
X81597236Y-94942759D01*
X81617784Y-94943866D01*
X81638279Y-94945415D01*
X81658720Y-94947408D01*
X81679108Y-94949843D01*
X81699443Y-94952721D01*
X81719724Y-94956041D01*
X81739951Y-94959805D01*
X81760126Y-94964011D01*
X81773545Y-94967061D01*
X81811326Y-94974443D01*
X82199124Y-94964455D01*
X82199124Y-95184627D01*
X81991111Y-95172033D01*
X82003218Y-95188744D01*
X82014134Y-95205982D01*
X82023859Y-95223747D01*
X82032394Y-95242038D01*
X82039737Y-95260856D01*
X82045890Y-95280201D01*
X82050852Y-95300072D01*
X82054623Y-95320470D01*
X82057203Y-95341395D01*
X82058592Y-95362846D01*
X82058857Y-95377440D01*
X82058373Y-95407465D01*
X82056923Y-95436310D01*
X82054505Y-95463974D01*
X82051121Y-95490457D01*
X82046770Y-95515760D01*
X82041452Y-95539882D01*
X82035167Y-95562823D01*
X82027915Y-95584584D01*
X82019697Y-95605164D01*
X82010511Y-95624563D01*
X82000358Y-95642782D01*
X81989239Y-95659820D01*
X81977152Y-95675678D01*
X81964099Y-95690354D01*
X81950079Y-95703850D01*
X81935091Y-95716166D01*
X81919078Y-95727525D01*
X81901979Y-95738150D01*
X81883794Y-95748044D01*
X81864524Y-95757204D01*
X81844167Y-95765631D01*
X81822726Y-95773326D01*
X81800198Y-95780288D01*
X81776585Y-95786517D01*
X81751886Y-95792013D01*
X81726102Y-95796776D01*
X81699232Y-95800807D01*
X81671276Y-95804104D01*
X81642235Y-95806669D01*
X81612108Y-95808501D01*
X81580895Y-95809600D01*
X81548597Y-95809967D01*
X81528739Y-95809723D01*
X81509878Y-95808991D01*
X81492013Y-95807772D01*
X81471891Y-95805665D01*
X81453204Y-95802856D01*
X81438728Y-95799979D01*
X81430484Y-95820654D01*
X81423339Y-95840121D01*
X81417293Y-95858380D01*
X81412346Y-95875432D01*
X81407709Y-95895048D01*
X81404789Y-95912777D01*
X81403553Y-95931561D01*
X81405755Y-95950349D01*
X81412363Y-95966436D01*
X81425310Y-95981513D01*
X81441358Y-95991811D01*
X81449585Y-95995397D01*
X81467307Y-96000455D01*
X81486096Y-96003966D01*
X81508983Y-96007003D01*
X81528838Y-96008968D01*
X81550998Y-96010667D01*
X81575463Y-96012098D01*
X81593054Y-96012904D01*
X81611670Y-96013591D01*
X81631310Y-96014159D01*
X81651975Y-96014609D01*
X81673665Y-96014939D01*
X81692073Y-96015176D01*
X81710116Y-96015558D01*
X81727792Y-96016088D01*
X81762044Y-96017588D01*
X81794831Y-96019674D01*
X81826152Y-96022348D01*
X81856008Y-96025608D01*
X81884398Y-96029455D01*
X81911322Y-96033890D01*
X81936781Y-96038911D01*
X81960774Y-96044519D01*
X81983302Y-96050714D01*
X82004363Y-96057496D01*
X82023959Y-96064865D01*
X82042090Y-96072821D01*
X82058755Y-96081363D01*
X82073954Y-96090493D01*
X82081004Y-96095278D01*
X82100716Y-96110985D01*
X82118490Y-96129120D01*
X82134324Y-96149682D01*
X82143804Y-96164739D01*
X82152421Y-96180875D01*
X82160177Y-96198089D01*
X82167071Y-96216383D01*
X82173103Y-96235755D01*
X82178273Y-96256206D01*
X82182582Y-96277736D01*
X82186029Y-96300345D01*
X82188614Y-96324032D01*
X82190338Y-96348799D01*
X82191199Y-96374645D01*
X82191307Y-96387972D01*
X82190728Y-96413193D01*
X82188992Y-96437614D01*
X82186097Y-96461234D01*
X82182045Y-96484053D01*
X82176835Y-96506071D01*
X82170467Y-96527289D01*
X82162942Y-96547706D01*
X82154259Y-96567323D01*
X82144418Y-96586139D01*
X82133419Y-96604154D01*
X82121263Y-96621368D01*
X82107949Y-96637782D01*
X82093477Y-96653395D01*
X82077847Y-96668208D01*
X82061060Y-96682220D01*
X82043115Y-96695431D01*
X82024012Y-96707841D01*
X82003751Y-96719451D01*
X81982332Y-96730260D01*
X81959756Y-96740268D01*
X81936022Y-96749476D01*
X81911131Y-96757883D01*
X81885081Y-96765490D01*
X81857874Y-96772295D01*
X81829509Y-96778300D01*
X81799986Y-96783505D01*
X81769306Y-96787908D01*
X81737467Y-96791512D01*
X81704472Y-96794314D01*
X81670318Y-96796316D01*
X81635006Y-96797517D01*
X81598537Y-96797917D01*
X81580876Y-96797841D01*
X81563502Y-96797613D01*
X81529618Y-96796702D01*
X81496884Y-96795184D01*
X81465299Y-96793059D01*
X81434865Y-96790326D01*
X81405581Y-96786986D01*
X81377448Y-96783038D01*
X81350464Y-96778484D01*
X81324630Y-96773322D01*
X81299947Y-96767552D01*
X81276413Y-96761176D01*
X81254030Y-96754192D01*
X81232797Y-96746601D01*
X81212714Y-96738402D01*
X81193781Y-96729597D01*
X81175998Y-96720184D01*
X81159328Y-96710023D01*
X81143734Y-96698864D01*
X81129215Y-96686708D01*
X81115771Y-96673555D01*
X81103403Y-96659404D01*
X81092111Y-96644255D01*
X81081894Y-96628110D01*
X81072752Y-96610966D01*
X81064686Y-96592826D01*
X81057695Y-96573688D01*
X81051780Y-96553552D01*
X81046941Y-96532419D01*
X81043176Y-96510288D01*
X81040488Y-96487160D01*
X81038874Y-96463035D01*
X81038337Y-96437912D01*
X81039036Y-96415195D01*
X81039272Y-96412725D01*
X81305843Y-96412725D01*
X81306936Y-96433868D01*
X81310213Y-96453437D01*
X81315675Y-96471432D01*
X81323322Y-96487853D01*
X81333154Y-96502699D01*
X81345171Y-96515971D01*
X81359373Y-96527669D01*
X81375760Y-96537793D01*
X81394901Y-96546648D01*
X81411297Y-96552514D01*
X81429440Y-96557716D01*
X81449332Y-96562255D01*
X81470972Y-96566129D01*
X81494360Y-96569339D01*
X81519496Y-96571884D01*
X81537224Y-96573213D01*
X81555730Y-96574246D01*
X81575012Y-96574984D01*
X81595071Y-96575426D01*
X81615908Y-96575574D01*
X81634530Y-96575405D01*
X81652560Y-96574899D01*
X81670000Y-96574055D01*
X81703106Y-96571354D01*
X81733847Y-96567303D01*
X81762223Y-96561902D01*
X81788235Y-96555151D01*
X81811882Y-96547049D01*
X81833165Y-96537597D01*
X81852082Y-96526795D01*
X81868635Y-96514642D01*
X81882823Y-96501139D01*
X81894647Y-96486286D01*
X81904106Y-96470083D01*
X81911200Y-96452529D01*
X81915929Y-96433625D01*
X81918294Y-96413370D01*
X81918589Y-96402737D01*
X81918116Y-96385120D01*
X81916013Y-96363566D01*
X81912226Y-96344224D01*
X81906757Y-96327095D01*
X81897555Y-96308793D01*
X81885723Y-96293948D01*
X81871261Y-96282559D01*
X81864741Y-96278972D01*
X81845441Y-96271402D01*
X81826245Y-96266170D01*
X81803711Y-96261672D01*
X81784619Y-96258778D01*
X81763650Y-96256298D01*
X81740803Y-96254229D01*
X81716077Y-96252572D01*
X81698551Y-96251697D01*
X81680190Y-96251005D01*
X81660994Y-96250496D01*
X81651083Y-96250310D01*
X81406158Y-96235111D01*
X81389718Y-96249066D01*
X81374869Y-96262702D01*
X81361610Y-96276020D01*
X81349941Y-96289021D01*
X81338038Y-96304201D01*
X81328425Y-96318924D01*
X81319626Y-96336771D01*
X81313804Y-96353260D01*
X81309570Y-96370847D01*
X81306924Y-96389534D01*
X81305865Y-96409320D01*
X81305843Y-96412725D01*
X81039272Y-96412725D01*
X81041132Y-96393292D01*
X81044627Y-96372203D01*
X81049519Y-96351928D01*
X81055809Y-96332468D01*
X81063497Y-96313821D01*
X81072583Y-96295989D01*
X81083066Y-96278972D01*
X81095218Y-96262191D01*
X81109095Y-96245072D01*
X81120633Y-96232010D01*
X81133140Y-96218757D01*
X81146617Y-96205313D01*
X81161064Y-96191678D01*
X81176480Y-96177852D01*
X81192865Y-96163836D01*
X81210220Y-96149629D01*
X81228544Y-96135230D01*
X81213799Y-96124252D01*
X81200504Y-96111999D01*
X81188659Y-96098471D01*
X81178265Y-96083668D01*
X81169321Y-96067591D01*
X81161827Y-96050239D01*
X81155784Y-96031611D01*
X81151191Y-96011709D01*
X81148049Y-95990533D01*
X81146356Y-95968081D01*
X81146034Y-95952405D01*
X81148401Y-95931479D01*
X81153988Y-95910682D01*
X81160824Y-95891846D01*
X81169764Y-95871056D01*
X81177849Y-95854180D01*
X81187117Y-95836206D01*
X81197569Y-95817132D01*
X81209204Y-95796959D01*
X81213345Y-95789991D01*
X81235927Y-95752644D01*
X81214103Y-95738558D01*
X81193688Y-95723223D01*
X81174680Y-95706639D01*
X81157081Y-95688807D01*
X81140889Y-95669727D01*
X81126106Y-95649398D01*
X81112730Y-95627820D01*
X81100762Y-95604994D01*
X81090202Y-95580920D01*
X81081051Y-95555597D01*
X81073307Y-95529025D01*
X81066971Y-95501205D01*
X81062043Y-95472137D01*
X81058523Y-95441820D01*
X81056411Y-95410254D01*
X81055707Y-95377440D01*
X81325819Y-95377440D01*
X81326304Y-95398479D01*
X81327758Y-95418442D01*
X81330182Y-95437329D01*
X81333575Y-95455139D01*
X81339607Y-95477212D01*
X81347363Y-95497372D01*
X81356842Y-95515617D01*
X81368045Y-95531950D01*
X81380971Y-95546369D01*
X81395810Y-95558888D01*
X81412754Y-95569738D01*
X81431800Y-95578918D01*
X81452950Y-95586430D01*
X81470193Y-95590968D01*
X81488619Y-95594567D01*
X81508228Y-95597227D01*
X81529021Y-95598949D01*
X81550997Y-95599731D01*
X81558585Y-95599783D01*
X81580943Y-95599314D01*
X81602096Y-95597905D01*
X81622042Y-95595558D01*
X81640783Y-95592272D01*
X81658317Y-95588047D01*
X81679820Y-95580952D01*
X81699178Y-95572189D01*
X81716393Y-95561757D01*
X81731463Y-95549655D01*
X81734896Y-95546369D01*
X81747517Y-95531950D01*
X81758455Y-95515617D01*
X81767710Y-95497372D01*
X81775282Y-95477212D01*
X81781172Y-95455139D01*
X81784485Y-95437329D01*
X81786851Y-95418442D01*
X81788271Y-95398479D01*
X81788745Y-95377440D01*
X81788260Y-95356401D01*
X81786806Y-95336438D01*
X81784382Y-95317551D01*
X81780989Y-95299741D01*
X81774957Y-95277668D01*
X81767201Y-95257509D01*
X81757722Y-95239263D01*
X81746519Y-95222930D01*
X81733593Y-95208511D01*
X81718753Y-95195891D01*
X81701810Y-95184953D01*
X81682764Y-95175697D01*
X81661614Y-95168125D01*
X81644371Y-95163550D01*
X81625945Y-95159921D01*
X81606336Y-95157240D01*
X81585543Y-95155504D01*
X81563567Y-95154715D01*
X81555979Y-95154663D01*
X81528108Y-95155533D01*
X81502035Y-95158144D01*
X81477761Y-95162495D01*
X81455284Y-95168586D01*
X81434606Y-95176418D01*
X81415726Y-95185991D01*
X81398643Y-95197304D01*
X81383359Y-95210357D01*
X81369873Y-95225151D01*
X81358186Y-95241685D01*
X81348296Y-95259960D01*
X81340204Y-95279975D01*
X81333911Y-95301731D01*
X81329416Y-95325227D01*
X81326718Y-95350463D01*
X81325819Y-95377440D01*
X81055707Y-95377440D01*
X81056235Y-95349737D01*
X81057818Y-95322974D01*
X81060455Y-95297150D01*
X81064148Y-95272267D01*
X81068896Y-95248323D01*
X81074700Y-95225319D01*
X81081558Y-95203255D01*
X81089471Y-95182130D01*
X81098440Y-95161945D01*
X81108464Y-95142700D01*
X81119542Y-95124395D01*
X81131676Y-95107029D01*
X81144865Y-95090604D01*
X81159110Y-95075118D01*
X81174409Y-95060572D01*
X81190763Y-95046965D01*
X81208017Y-95034239D01*
X81226013Y-95022334D01*
X81244753Y-95011251D01*
X81264235Y-95000988D01*
X81284461Y-94991546D01*
X81305429Y-94982925D01*
X81327141Y-94975125D01*
X81349595Y-94968146D01*
X81372793Y-94961989D01*
X81396733Y-94956652D01*
X81421417Y-94952136D01*
X81446843Y-94948442D01*
X81473013Y-94945568D01*
X81499925Y-94943516D01*
X81527581Y-94942284D01*
X81555979Y-94941874D01*
X81576634Y-94942095D01*
G37*
G36*
X82834017Y-94967061D02*
G01*
X83119329Y-94967061D01*
X83359477Y-95984975D01*
X83439381Y-95984975D01*
X83689517Y-94967061D01*
X83967446Y-94967061D01*
X83642182Y-96217741D01*
X83156675Y-96217741D01*
X82834017Y-94967061D01*
G37*
G36*
X84172853Y-94619216D02*
G01*
X84202123Y-94609540D01*
X84231743Y-94600488D01*
X84261712Y-94592060D01*
X84292031Y-94584257D01*
X84322699Y-94577078D01*
X84353717Y-94570524D01*
X84385084Y-94564593D01*
X84416800Y-94559287D01*
X84448866Y-94554605D01*
X84481282Y-94550548D01*
X84514047Y-94547114D01*
X84547161Y-94544305D01*
X84580625Y-94542120D01*
X84614438Y-94540559D01*
X84648601Y-94539623D01*
X84683113Y-94539311D01*
X84717260Y-94539727D01*
X84750220Y-94540973D01*
X84781992Y-94543051D01*
X84812578Y-94545961D01*
X84841975Y-94549701D01*
X84870185Y-94554273D01*
X84897208Y-94559676D01*
X84923043Y-94565910D01*
X84947691Y-94572975D01*
X84971152Y-94580871D01*
X84993425Y-94589599D01*
X85014510Y-94599158D01*
X85034408Y-94609548D01*
X85053119Y-94620769D01*
X85070642Y-94632822D01*
X85086978Y-94645706D01*
X85102281Y-94659488D01*
X85116596Y-94674238D01*
X85129924Y-94689955D01*
X85142265Y-94706638D01*
X85153619Y-94724289D01*
X85163985Y-94742906D01*
X85173364Y-94762490D01*
X85181756Y-94783042D01*
X85189161Y-94804560D01*
X85195578Y-94827045D01*
X85201008Y-94850497D01*
X85205451Y-94874915D01*
X85208906Y-94900301D01*
X85211374Y-94926654D01*
X85212855Y-94953974D01*
X85213349Y-94982260D01*
X85213009Y-95000816D01*
X85211990Y-95019028D01*
X85210291Y-95036897D01*
X85207914Y-95054422D01*
X85204856Y-95071604D01*
X85199723Y-95093979D01*
X85193382Y-95115743D01*
X85185834Y-95136897D01*
X85177077Y-95157439D01*
X85174699Y-95162480D01*
X85165010Y-95181777D01*
X85155266Y-95199718D01*
X85145468Y-95216301D01*
X85135616Y-95231527D01*
X85123224Y-95248652D01*
X85110747Y-95263656D01*
X85098186Y-95276540D01*
X85095663Y-95278862D01*
X85079979Y-95292516D01*
X85065836Y-95304104D01*
X85050717Y-95315883D01*
X85034623Y-95327853D01*
X85017553Y-95340014D01*
X85003196Y-95349880D01*
X84995783Y-95354858D01*
X85012051Y-95362719D01*
X85027742Y-95370668D01*
X85050197Y-95382757D01*
X85071355Y-95395045D01*
X85091215Y-95407531D01*
X85109777Y-95420215D01*
X85127041Y-95433098D01*
X85143008Y-95446179D01*
X85157677Y-95459459D01*
X85171049Y-95472937D01*
X85183122Y-95486614D01*
X85186859Y-95491217D01*
X85197413Y-95505861D01*
X85206930Y-95522108D01*
X85215408Y-95539957D01*
X85222848Y-95559410D01*
X85229250Y-95580466D01*
X85234614Y-95603125D01*
X85238940Y-95627387D01*
X85242227Y-95653252D01*
X85243842Y-95671386D01*
X85244996Y-95690232D01*
X85245688Y-95709791D01*
X85245919Y-95730062D01*
X85245405Y-95762371D01*
X85243863Y-95793614D01*
X85241293Y-95823792D01*
X85237695Y-95852905D01*
X85233069Y-95880952D01*
X85227415Y-95907934D01*
X85220733Y-95933851D01*
X85213023Y-95958702D01*
X85204285Y-95982488D01*
X85194519Y-96005209D01*
X85183725Y-96026865D01*
X85171904Y-96047455D01*
X85159054Y-96066980D01*
X85145176Y-96085439D01*
X85130270Y-96102834D01*
X85114337Y-96119163D01*
X85097332Y-96134413D01*
X85079107Y-96148679D01*
X85059660Y-96161961D01*
X85038992Y-96174260D01*
X85017102Y-96185574D01*
X84993991Y-96195905D01*
X84969659Y-96205252D01*
X84944105Y-96213615D01*
X84917330Y-96220994D01*
X84889334Y-96227389D01*
X84860116Y-96232801D01*
X84829677Y-96237228D01*
X84798016Y-96240672D01*
X84765134Y-96243131D01*
X84731031Y-96244607D01*
X84713521Y-96244976D01*
X84695706Y-96245099D01*
X84674419Y-96244935D01*
X84652735Y-96244443D01*
X84630653Y-96243622D01*
X84608175Y-96242473D01*
X84585300Y-96240996D01*
X84562028Y-96239191D01*
X84538359Y-96237057D01*
X84514293Y-96234595D01*
X84489830Y-96231805D01*
X84464970Y-96228687D01*
X84448176Y-96226426D01*
X84423334Y-96222913D01*
X84399454Y-96219377D01*
X84376535Y-96215819D01*
X84354579Y-96212238D01*
X84333584Y-96208633D01*
X84313551Y-96205006D01*
X84294480Y-96201356D01*
X84276370Y-96197683D01*
X84259223Y-96193987D01*
X84237856Y-96189024D01*
X84232781Y-96187776D01*
X84155482Y-96167800D01*
X84172853Y-95952405D01*
X84189997Y-95955505D01*
X84223903Y-95961408D01*
X84257301Y-95966918D01*
X84290190Y-95972034D01*
X84322569Y-95976756D01*
X84354440Y-95981085D01*
X84385802Y-95985021D01*
X84416655Y-95988563D01*
X84447000Y-95991711D01*
X84476835Y-95994466D01*
X84506161Y-95996827D01*
X84534979Y-95998795D01*
X84563287Y-96000369D01*
X84591087Y-96001550D01*
X84618378Y-96002337D01*
X84645160Y-96002731D01*
X84658360Y-96002780D01*
X84676821Y-96002363D01*
X84694697Y-96001438D01*
X84728690Y-95998064D01*
X84760339Y-95992658D01*
X84789643Y-95985219D01*
X84816603Y-95975749D01*
X84841219Y-95964246D01*
X84863490Y-95950711D01*
X84883417Y-95935143D01*
X84900999Y-95917544D01*
X84916238Y-95897912D01*
X84929132Y-95876248D01*
X84939681Y-95852552D01*
X84947886Y-95826823D01*
X84953747Y-95799063D01*
X84957264Y-95769270D01*
X84958436Y-95737445D01*
X84957753Y-95715475D01*
X84955703Y-95694514D01*
X84952287Y-95674560D01*
X84947505Y-95655613D01*
X84941356Y-95637674D01*
X84933841Y-95620743D01*
X84924959Y-95604820D01*
X84914711Y-95589904D01*
X84903097Y-95575995D01*
X84890116Y-95563095D01*
X84880703Y-95555054D01*
X84865766Y-95543856D01*
X84849945Y-95533711D01*
X84833237Y-95524619D01*
X84815645Y-95516581D01*
X84797166Y-95509596D01*
X84777803Y-95503665D01*
X84757553Y-95498787D01*
X84736419Y-95494963D01*
X84714398Y-95492192D01*
X84691493Y-95490474D01*
X84675730Y-95489914D01*
X84343084Y-95489914D01*
X84343084Y-95257149D01*
X84675730Y-95257149D01*
X84698638Y-95255962D01*
X84721111Y-95252399D01*
X84743150Y-95246462D01*
X84764754Y-95238150D01*
X84780673Y-95230357D01*
X84796347Y-95221229D01*
X84811777Y-95210765D01*
X84826963Y-95198964D01*
X84841904Y-95185828D01*
X84846830Y-95181153D01*
X84860955Y-95166540D01*
X84873690Y-95151362D01*
X84885036Y-95135619D01*
X84894993Y-95119311D01*
X84903560Y-95102438D01*
X84910738Y-95085001D01*
X84916527Y-95066998D01*
X84920926Y-95048431D01*
X84923937Y-95029299D01*
X84925557Y-95009602D01*
X84925866Y-94996156D01*
X84925259Y-94976215D01*
X84923439Y-94957266D01*
X84920404Y-94939309D01*
X84916156Y-94922345D01*
X84908604Y-94901270D01*
X84898894Y-94881959D01*
X84887027Y-94864412D01*
X84873001Y-94848629D01*
X84856818Y-94834610D01*
X84838864Y-94822295D01*
X84819309Y-94811622D01*
X84798152Y-94802590D01*
X84781233Y-94796894D01*
X84763414Y-94792122D01*
X84744694Y-94788273D01*
X84725073Y-94785349D01*
X84704552Y-94783347D01*
X84683130Y-94782270D01*
X84668348Y-94782064D01*
X84643600Y-94782200D01*
X84618753Y-94782607D01*
X84593809Y-94783286D01*
X84568766Y-94784236D01*
X84543624Y-94785457D01*
X84518384Y-94786950D01*
X84493046Y-94788714D01*
X84467609Y-94790750D01*
X84442074Y-94793057D01*
X84416441Y-94795635D01*
X84390709Y-94798485D01*
X84364879Y-94801606D01*
X84338950Y-94804999D01*
X84312923Y-94808663D01*
X84286798Y-94812599D01*
X84260574Y-94816806D01*
X84195434Y-94829399D01*
X84172853Y-94619216D01*
G37*
D12*
%TO.C,LED2*%
X96670952Y-86563419D02*
X96194762Y-86563419D01*
X96194762Y-86563419D02*
X96194762Y-85563419D01*
X97004286Y-86039609D02*
X97337619Y-86039609D01*
X97480476Y-86563419D02*
X97004286Y-86563419D01*
X97004286Y-86563419D02*
X97004286Y-85563419D01*
X97004286Y-85563419D02*
X97480476Y-85563419D01*
X97909048Y-86563419D02*
X97909048Y-85563419D01*
X97909048Y-85563419D02*
X98147143Y-85563419D01*
X98147143Y-85563419D02*
X98290000Y-85611038D01*
X98290000Y-85611038D02*
X98385238Y-85706276D01*
X98385238Y-85706276D02*
X98432857Y-85801514D01*
X98432857Y-85801514D02*
X98480476Y-85991990D01*
X98480476Y-85991990D02*
X98480476Y-86134847D01*
X98480476Y-86134847D02*
X98432857Y-86325323D01*
X98432857Y-86325323D02*
X98385238Y-86420561D01*
X98385238Y-86420561D02*
X98290000Y-86515800D01*
X98290000Y-86515800D02*
X98147143Y-86563419D01*
X98147143Y-86563419D02*
X97909048Y-86563419D01*
X98861429Y-85658657D02*
X98909048Y-85611038D01*
X98909048Y-85611038D02*
X99004286Y-85563419D01*
X99004286Y-85563419D02*
X99242381Y-85563419D01*
X99242381Y-85563419D02*
X99337619Y-85611038D01*
X99337619Y-85611038D02*
X99385238Y-85658657D01*
X99385238Y-85658657D02*
X99432857Y-85753895D01*
X99432857Y-85753895D02*
X99432857Y-85849133D01*
X99432857Y-85849133D02*
X99385238Y-85991990D01*
X99385238Y-85991990D02*
X98813810Y-86563419D01*
X98813810Y-86563419D02*
X99432857Y-86563419D01*
X99147333Y-95612180D02*
X99099714Y-95659800D01*
X99099714Y-95659800D02*
X98956857Y-95707419D01*
X98956857Y-95707419D02*
X98861619Y-95707419D01*
X98861619Y-95707419D02*
X98718762Y-95659800D01*
X98718762Y-95659800D02*
X98623524Y-95564561D01*
X98623524Y-95564561D02*
X98575905Y-95469323D01*
X98575905Y-95469323D02*
X98528286Y-95278847D01*
X98528286Y-95278847D02*
X98528286Y-95135990D01*
X98528286Y-95135990D02*
X98575905Y-94945514D01*
X98575905Y-94945514D02*
X98623524Y-94850276D01*
X98623524Y-94850276D02*
X98718762Y-94755038D01*
X98718762Y-94755038D02*
X98861619Y-94707419D01*
X98861619Y-94707419D02*
X98956857Y-94707419D01*
X98956857Y-94707419D02*
X99099714Y-94755038D01*
X99099714Y-94755038D02*
X99147333Y-94802657D01*
X99528286Y-95659800D02*
X99671143Y-95707419D01*
X99671143Y-95707419D02*
X99909238Y-95707419D01*
X99909238Y-95707419D02*
X100004476Y-95659800D01*
X100004476Y-95659800D02*
X100052095Y-95612180D01*
X100052095Y-95612180D02*
X100099714Y-95516942D01*
X100099714Y-95516942D02*
X100099714Y-95421704D01*
X100099714Y-95421704D02*
X100052095Y-95326466D01*
X100052095Y-95326466D02*
X100004476Y-95278847D01*
X100004476Y-95278847D02*
X99909238Y-95231228D01*
X99909238Y-95231228D02*
X99718762Y-95183609D01*
X99718762Y-95183609D02*
X99623524Y-95135990D01*
X99623524Y-95135990D02*
X99575905Y-95088371D01*
X99575905Y-95088371D02*
X99528286Y-94993133D01*
X99528286Y-94993133D02*
X99528286Y-94897895D01*
X99528286Y-94897895D02*
X99575905Y-94802657D01*
X99575905Y-94802657D02*
X99623524Y-94755038D01*
X99623524Y-94755038D02*
X99718762Y-94707419D01*
X99718762Y-94707419D02*
X99956857Y-94707419D01*
X99956857Y-94707419D02*
X100099714Y-94755038D01*
X99060095Y-89675038D02*
X98964857Y-89627419D01*
X98964857Y-89627419D02*
X98822000Y-89627419D01*
X98822000Y-89627419D02*
X98679143Y-89675038D01*
X98679143Y-89675038D02*
X98583905Y-89770276D01*
X98583905Y-89770276D02*
X98536286Y-89865514D01*
X98536286Y-89865514D02*
X98488667Y-90055990D01*
X98488667Y-90055990D02*
X98488667Y-90198847D01*
X98488667Y-90198847D02*
X98536286Y-90389323D01*
X98536286Y-90389323D02*
X98583905Y-90484561D01*
X98583905Y-90484561D02*
X98679143Y-90579800D01*
X98679143Y-90579800D02*
X98822000Y-90627419D01*
X98822000Y-90627419D02*
X98917238Y-90627419D01*
X98917238Y-90627419D02*
X99060095Y-90579800D01*
X99060095Y-90579800D02*
X99107714Y-90532180D01*
X99107714Y-90532180D02*
X99107714Y-90198847D01*
X99107714Y-90198847D02*
X98917238Y-90198847D01*
X99536286Y-90627419D02*
X99536286Y-89627419D01*
X99536286Y-89627419D02*
X100107714Y-90627419D01*
X100107714Y-90627419D02*
X100107714Y-89627419D01*
X100583905Y-90627419D02*
X100583905Y-89627419D01*
X100583905Y-89627419D02*
X100822000Y-89627419D01*
X100822000Y-89627419D02*
X100964857Y-89675038D01*
X100964857Y-89675038D02*
X101060095Y-89770276D01*
X101060095Y-89770276D02*
X101107714Y-89865514D01*
X101107714Y-89865514D02*
X101155333Y-90055990D01*
X101155333Y-90055990D02*
X101155333Y-90198847D01*
X101155333Y-90198847D02*
X101107714Y-90389323D01*
X101107714Y-90389323D02*
X101060095Y-90484561D01*
X101060095Y-90484561D02*
X100964857Y-90579800D01*
X100964857Y-90579800D02*
X100822000Y-90627419D01*
X100822000Y-90627419D02*
X100583905Y-90627419D01*
X98544191Y-93167419D02*
X98544191Y-92167419D01*
X98544191Y-92167419D02*
X98782286Y-92167419D01*
X98782286Y-92167419D02*
X98925143Y-92215038D01*
X98925143Y-92215038D02*
X99020381Y-92310276D01*
X99020381Y-92310276D02*
X99068000Y-92405514D01*
X99068000Y-92405514D02*
X99115619Y-92595990D01*
X99115619Y-92595990D02*
X99115619Y-92738847D01*
X99115619Y-92738847D02*
X99068000Y-92929323D01*
X99068000Y-92929323D02*
X99020381Y-93024561D01*
X99020381Y-93024561D02*
X98925143Y-93119800D01*
X98925143Y-93119800D02*
X98782286Y-93167419D01*
X98782286Y-93167419D02*
X98544191Y-93167419D01*
X99544191Y-93167419D02*
X99544191Y-92167419D01*
X100020381Y-93167419D02*
X100020381Y-92167419D01*
X100020381Y-92167419D02*
X100591809Y-93167419D01*
X100591809Y-93167419D02*
X100591809Y-92167419D01*
X99226761Y-98152180D02*
X99179142Y-98199800D01*
X99179142Y-98199800D02*
X99036285Y-98247419D01*
X99036285Y-98247419D02*
X98941047Y-98247419D01*
X98941047Y-98247419D02*
X98798190Y-98199800D01*
X98798190Y-98199800D02*
X98702952Y-98104561D01*
X98702952Y-98104561D02*
X98655333Y-98009323D01*
X98655333Y-98009323D02*
X98607714Y-97818847D01*
X98607714Y-97818847D02*
X98607714Y-97675990D01*
X98607714Y-97675990D02*
X98655333Y-97485514D01*
X98655333Y-97485514D02*
X98702952Y-97390276D01*
X98702952Y-97390276D02*
X98798190Y-97295038D01*
X98798190Y-97295038D02*
X98941047Y-97247419D01*
X98941047Y-97247419D02*
X99036285Y-97247419D01*
X99036285Y-97247419D02*
X99179142Y-97295038D01*
X99179142Y-97295038D02*
X99226761Y-97342657D01*
X100131523Y-98247419D02*
X99655333Y-98247419D01*
X99655333Y-98247419D02*
X99655333Y-97247419D01*
X100464857Y-98247419D02*
X100464857Y-97247419D01*
X101036285Y-98247419D02*
X100607714Y-97675990D01*
X101036285Y-97247419D02*
X100464857Y-97818847D01*
X98488667Y-87087419D02*
X98822000Y-88087419D01*
X98822000Y-88087419D02*
X99155333Y-87087419D01*
X100060095Y-87992180D02*
X100012476Y-88039800D01*
X100012476Y-88039800D02*
X99869619Y-88087419D01*
X99869619Y-88087419D02*
X99774381Y-88087419D01*
X99774381Y-88087419D02*
X99631524Y-88039800D01*
X99631524Y-88039800D02*
X99536286Y-87944561D01*
X99536286Y-87944561D02*
X99488667Y-87849323D01*
X99488667Y-87849323D02*
X99441048Y-87658847D01*
X99441048Y-87658847D02*
X99441048Y-87515990D01*
X99441048Y-87515990D02*
X99488667Y-87325514D01*
X99488667Y-87325514D02*
X99536286Y-87230276D01*
X99536286Y-87230276D02*
X99631524Y-87135038D01*
X99631524Y-87135038D02*
X99774381Y-87087419D01*
X99774381Y-87087419D02*
X99869619Y-87087419D01*
X99869619Y-87087419D02*
X100012476Y-87135038D01*
X100012476Y-87135038D02*
X100060095Y-87182657D01*
X101060095Y-87992180D02*
X101012476Y-88039800D01*
X101012476Y-88039800D02*
X100869619Y-88087419D01*
X100869619Y-88087419D02*
X100774381Y-88087419D01*
X100774381Y-88087419D02*
X100631524Y-88039800D01*
X100631524Y-88039800D02*
X100536286Y-87944561D01*
X100536286Y-87944561D02*
X100488667Y-87849323D01*
X100488667Y-87849323D02*
X100441048Y-87658847D01*
X100441048Y-87658847D02*
X100441048Y-87515990D01*
X100441048Y-87515990D02*
X100488667Y-87325514D01*
X100488667Y-87325514D02*
X100536286Y-87230276D01*
X100536286Y-87230276D02*
X100631524Y-87135038D01*
X100631524Y-87135038D02*
X100774381Y-87087419D01*
X100774381Y-87087419D02*
X100869619Y-87087419D01*
X100869619Y-87087419D02*
X101012476Y-87135038D01*
X101012476Y-87135038D02*
X101060095Y-87182657D01*
D11*
%TO.C,BT1*%
X90400285Y-52509009D02*
X90543142Y-52556628D01*
X90543142Y-52556628D02*
X90590761Y-52604247D01*
X90590761Y-52604247D02*
X90638380Y-52699485D01*
X90638380Y-52699485D02*
X90638380Y-52842342D01*
X90638380Y-52842342D02*
X90590761Y-52937580D01*
X90590761Y-52937580D02*
X90543142Y-52985200D01*
X90543142Y-52985200D02*
X90447904Y-53032819D01*
X90447904Y-53032819D02*
X90066952Y-53032819D01*
X90066952Y-53032819D02*
X90066952Y-52032819D01*
X90066952Y-52032819D02*
X90400285Y-52032819D01*
X90400285Y-52032819D02*
X90495523Y-52080438D01*
X90495523Y-52080438D02*
X90543142Y-52128057D01*
X90543142Y-52128057D02*
X90590761Y-52223295D01*
X90590761Y-52223295D02*
X90590761Y-52318533D01*
X90590761Y-52318533D02*
X90543142Y-52413771D01*
X90543142Y-52413771D02*
X90495523Y-52461390D01*
X90495523Y-52461390D02*
X90400285Y-52509009D01*
X90400285Y-52509009D02*
X90066952Y-52509009D01*
X90924095Y-52032819D02*
X91495523Y-52032819D01*
X91209809Y-53032819D02*
X91209809Y-52032819D01*
X92352666Y-53032819D02*
X91781238Y-53032819D01*
X92066952Y-53032819D02*
X92066952Y-52032819D01*
X92066952Y-52032819D02*
X91971714Y-52175676D01*
X91971714Y-52175676D02*
X91876476Y-52270914D01*
X91876476Y-52270914D02*
X91781238Y-52318533D01*
%TO.C,J2*%
X59356666Y-78702819D02*
X59356666Y-79417104D01*
X59356666Y-79417104D02*
X59309047Y-79559961D01*
X59309047Y-79559961D02*
X59213809Y-79655200D01*
X59213809Y-79655200D02*
X59070952Y-79702819D01*
X59070952Y-79702819D02*
X58975714Y-79702819D01*
X59785238Y-78798057D02*
X59832857Y-78750438D01*
X59832857Y-78750438D02*
X59928095Y-78702819D01*
X59928095Y-78702819D02*
X60166190Y-78702819D01*
X60166190Y-78702819D02*
X60261428Y-78750438D01*
X60261428Y-78750438D02*
X60309047Y-78798057D01*
X60309047Y-78798057D02*
X60356666Y-78893295D01*
X60356666Y-78893295D02*
X60356666Y-78988533D01*
X60356666Y-78988533D02*
X60309047Y-79131390D01*
X60309047Y-79131390D02*
X59737619Y-79702819D01*
X59737619Y-79702819D02*
X60356666Y-79702819D01*
D12*
%TO.C,LED1*%
X64920952Y-86563419D02*
X64444762Y-86563419D01*
X64444762Y-86563419D02*
X64444762Y-85563419D01*
X65254286Y-86039609D02*
X65587619Y-86039609D01*
X65730476Y-86563419D02*
X65254286Y-86563419D01*
X65254286Y-86563419D02*
X65254286Y-85563419D01*
X65254286Y-85563419D02*
X65730476Y-85563419D01*
X66159048Y-86563419D02*
X66159048Y-85563419D01*
X66159048Y-85563419D02*
X66397143Y-85563419D01*
X66397143Y-85563419D02*
X66540000Y-85611038D01*
X66540000Y-85611038D02*
X66635238Y-85706276D01*
X66635238Y-85706276D02*
X66682857Y-85801514D01*
X66682857Y-85801514D02*
X66730476Y-85991990D01*
X66730476Y-85991990D02*
X66730476Y-86134847D01*
X66730476Y-86134847D02*
X66682857Y-86325323D01*
X66682857Y-86325323D02*
X66635238Y-86420561D01*
X66635238Y-86420561D02*
X66540000Y-86515800D01*
X66540000Y-86515800D02*
X66397143Y-86563419D01*
X66397143Y-86563419D02*
X66159048Y-86563419D01*
X67682857Y-86563419D02*
X67111429Y-86563419D01*
X67397143Y-86563419D02*
X67397143Y-85563419D01*
X67397143Y-85563419D02*
X67301905Y-85706276D01*
X67301905Y-85706276D02*
X67206667Y-85801514D01*
X67206667Y-85801514D02*
X67111429Y-85849133D01*
X67984761Y-98152180D02*
X67937142Y-98199800D01*
X67937142Y-98199800D02*
X67794285Y-98247419D01*
X67794285Y-98247419D02*
X67699047Y-98247419D01*
X67699047Y-98247419D02*
X67556190Y-98199800D01*
X67556190Y-98199800D02*
X67460952Y-98104561D01*
X67460952Y-98104561D02*
X67413333Y-98009323D01*
X67413333Y-98009323D02*
X67365714Y-97818847D01*
X67365714Y-97818847D02*
X67365714Y-97675990D01*
X67365714Y-97675990D02*
X67413333Y-97485514D01*
X67413333Y-97485514D02*
X67460952Y-97390276D01*
X67460952Y-97390276D02*
X67556190Y-97295038D01*
X67556190Y-97295038D02*
X67699047Y-97247419D01*
X67699047Y-97247419D02*
X67794285Y-97247419D01*
X67794285Y-97247419D02*
X67937142Y-97295038D01*
X67937142Y-97295038D02*
X67984761Y-97342657D01*
X68889523Y-98247419D02*
X68413333Y-98247419D01*
X68413333Y-98247419D02*
X68413333Y-97247419D01*
X69222857Y-98247419D02*
X69222857Y-97247419D01*
X69794285Y-98247419D02*
X69365714Y-97675990D01*
X69794285Y-97247419D02*
X69222857Y-97818847D01*
X91273333Y-95612180D02*
X91225714Y-95659800D01*
X91225714Y-95659800D02*
X91082857Y-95707419D01*
X91082857Y-95707419D02*
X90987619Y-95707419D01*
X90987619Y-95707419D02*
X90844762Y-95659800D01*
X90844762Y-95659800D02*
X90749524Y-95564561D01*
X90749524Y-95564561D02*
X90701905Y-95469323D01*
X90701905Y-95469323D02*
X90654286Y-95278847D01*
X90654286Y-95278847D02*
X90654286Y-95135990D01*
X90654286Y-95135990D02*
X90701905Y-94945514D01*
X90701905Y-94945514D02*
X90749524Y-94850276D01*
X90749524Y-94850276D02*
X90844762Y-94755038D01*
X90844762Y-94755038D02*
X90987619Y-94707419D01*
X90987619Y-94707419D02*
X91082857Y-94707419D01*
X91082857Y-94707419D02*
X91225714Y-94755038D01*
X91225714Y-94755038D02*
X91273333Y-94802657D01*
X91654286Y-95659800D02*
X91797143Y-95707419D01*
X91797143Y-95707419D02*
X92035238Y-95707419D01*
X92035238Y-95707419D02*
X92130476Y-95659800D01*
X92130476Y-95659800D02*
X92178095Y-95612180D01*
X92178095Y-95612180D02*
X92225714Y-95516942D01*
X92225714Y-95516942D02*
X92225714Y-95421704D01*
X92225714Y-95421704D02*
X92178095Y-95326466D01*
X92178095Y-95326466D02*
X92130476Y-95278847D01*
X92130476Y-95278847D02*
X92035238Y-95231228D01*
X92035238Y-95231228D02*
X91844762Y-95183609D01*
X91844762Y-95183609D02*
X91749524Y-95135990D01*
X91749524Y-95135990D02*
X91701905Y-95088371D01*
X91701905Y-95088371D02*
X91654286Y-94993133D01*
X91654286Y-94993133D02*
X91654286Y-94897895D01*
X91654286Y-94897895D02*
X91701905Y-94802657D01*
X91701905Y-94802657D02*
X91749524Y-94755038D01*
X91749524Y-94755038D02*
X91844762Y-94707419D01*
X91844762Y-94707419D02*
X92082857Y-94707419D01*
X92082857Y-94707419D02*
X92225714Y-94755038D01*
X67246667Y-87087419D02*
X67580000Y-88087419D01*
X67580000Y-88087419D02*
X67913333Y-87087419D01*
X68818095Y-87992180D02*
X68770476Y-88039800D01*
X68770476Y-88039800D02*
X68627619Y-88087419D01*
X68627619Y-88087419D02*
X68532381Y-88087419D01*
X68532381Y-88087419D02*
X68389524Y-88039800D01*
X68389524Y-88039800D02*
X68294286Y-87944561D01*
X68294286Y-87944561D02*
X68246667Y-87849323D01*
X68246667Y-87849323D02*
X68199048Y-87658847D01*
X68199048Y-87658847D02*
X68199048Y-87515990D01*
X68199048Y-87515990D02*
X68246667Y-87325514D01*
X68246667Y-87325514D02*
X68294286Y-87230276D01*
X68294286Y-87230276D02*
X68389524Y-87135038D01*
X68389524Y-87135038D02*
X68532381Y-87087419D01*
X68532381Y-87087419D02*
X68627619Y-87087419D01*
X68627619Y-87087419D02*
X68770476Y-87135038D01*
X68770476Y-87135038D02*
X68818095Y-87182657D01*
X69818095Y-87992180D02*
X69770476Y-88039800D01*
X69770476Y-88039800D02*
X69627619Y-88087419D01*
X69627619Y-88087419D02*
X69532381Y-88087419D01*
X69532381Y-88087419D02*
X69389524Y-88039800D01*
X69389524Y-88039800D02*
X69294286Y-87944561D01*
X69294286Y-87944561D02*
X69246667Y-87849323D01*
X69246667Y-87849323D02*
X69199048Y-87658847D01*
X69199048Y-87658847D02*
X69199048Y-87515990D01*
X69199048Y-87515990D02*
X69246667Y-87325514D01*
X69246667Y-87325514D02*
X69294286Y-87230276D01*
X69294286Y-87230276D02*
X69389524Y-87135038D01*
X69389524Y-87135038D02*
X69532381Y-87087419D01*
X69532381Y-87087419D02*
X69627619Y-87087419D01*
X69627619Y-87087419D02*
X69770476Y-87135038D01*
X69770476Y-87135038D02*
X69818095Y-87182657D01*
X68413333Y-95612180D02*
X68365714Y-95659800D01*
X68365714Y-95659800D02*
X68222857Y-95707419D01*
X68222857Y-95707419D02*
X68127619Y-95707419D01*
X68127619Y-95707419D02*
X67984762Y-95659800D01*
X67984762Y-95659800D02*
X67889524Y-95564561D01*
X67889524Y-95564561D02*
X67841905Y-95469323D01*
X67841905Y-95469323D02*
X67794286Y-95278847D01*
X67794286Y-95278847D02*
X67794286Y-95135990D01*
X67794286Y-95135990D02*
X67841905Y-94945514D01*
X67841905Y-94945514D02*
X67889524Y-94850276D01*
X67889524Y-94850276D02*
X67984762Y-94755038D01*
X67984762Y-94755038D02*
X68127619Y-94707419D01*
X68127619Y-94707419D02*
X68222857Y-94707419D01*
X68222857Y-94707419D02*
X68365714Y-94755038D01*
X68365714Y-94755038D02*
X68413333Y-94802657D01*
X68794286Y-95659800D02*
X68937143Y-95707419D01*
X68937143Y-95707419D02*
X69175238Y-95707419D01*
X69175238Y-95707419D02*
X69270476Y-95659800D01*
X69270476Y-95659800D02*
X69318095Y-95612180D01*
X69318095Y-95612180D02*
X69365714Y-95516942D01*
X69365714Y-95516942D02*
X69365714Y-95421704D01*
X69365714Y-95421704D02*
X69318095Y-95326466D01*
X69318095Y-95326466D02*
X69270476Y-95278847D01*
X69270476Y-95278847D02*
X69175238Y-95231228D01*
X69175238Y-95231228D02*
X68984762Y-95183609D01*
X68984762Y-95183609D02*
X68889524Y-95135990D01*
X68889524Y-95135990D02*
X68841905Y-95088371D01*
X68841905Y-95088371D02*
X68794286Y-94993133D01*
X68794286Y-94993133D02*
X68794286Y-94897895D01*
X68794286Y-94897895D02*
X68841905Y-94802657D01*
X68841905Y-94802657D02*
X68889524Y-94755038D01*
X68889524Y-94755038D02*
X68984762Y-94707419D01*
X68984762Y-94707419D02*
X69222857Y-94707419D01*
X69222857Y-94707419D02*
X69365714Y-94755038D01*
X90844761Y-98152180D02*
X90797142Y-98199800D01*
X90797142Y-98199800D02*
X90654285Y-98247419D01*
X90654285Y-98247419D02*
X90559047Y-98247419D01*
X90559047Y-98247419D02*
X90416190Y-98199800D01*
X90416190Y-98199800D02*
X90320952Y-98104561D01*
X90320952Y-98104561D02*
X90273333Y-98009323D01*
X90273333Y-98009323D02*
X90225714Y-97818847D01*
X90225714Y-97818847D02*
X90225714Y-97675990D01*
X90225714Y-97675990D02*
X90273333Y-97485514D01*
X90273333Y-97485514D02*
X90320952Y-97390276D01*
X90320952Y-97390276D02*
X90416190Y-97295038D01*
X90416190Y-97295038D02*
X90559047Y-97247419D01*
X90559047Y-97247419D02*
X90654285Y-97247419D01*
X90654285Y-97247419D02*
X90797142Y-97295038D01*
X90797142Y-97295038D02*
X90844761Y-97342657D01*
X91749523Y-98247419D02*
X91273333Y-98247419D01*
X91273333Y-98247419D02*
X91273333Y-97247419D01*
X92082857Y-98247419D02*
X92082857Y-97247419D01*
X92654285Y-98247419D02*
X92225714Y-97675990D01*
X92654285Y-97247419D02*
X92082857Y-97818847D01*
X90678095Y-89675038D02*
X90582857Y-89627419D01*
X90582857Y-89627419D02*
X90440000Y-89627419D01*
X90440000Y-89627419D02*
X90297143Y-89675038D01*
X90297143Y-89675038D02*
X90201905Y-89770276D01*
X90201905Y-89770276D02*
X90154286Y-89865514D01*
X90154286Y-89865514D02*
X90106667Y-90055990D01*
X90106667Y-90055990D02*
X90106667Y-90198847D01*
X90106667Y-90198847D02*
X90154286Y-90389323D01*
X90154286Y-90389323D02*
X90201905Y-90484561D01*
X90201905Y-90484561D02*
X90297143Y-90579800D01*
X90297143Y-90579800D02*
X90440000Y-90627419D01*
X90440000Y-90627419D02*
X90535238Y-90627419D01*
X90535238Y-90627419D02*
X90678095Y-90579800D01*
X90678095Y-90579800D02*
X90725714Y-90532180D01*
X90725714Y-90532180D02*
X90725714Y-90198847D01*
X90725714Y-90198847D02*
X90535238Y-90198847D01*
X91154286Y-90627419D02*
X91154286Y-89627419D01*
X91154286Y-89627419D02*
X91725714Y-90627419D01*
X91725714Y-90627419D02*
X91725714Y-89627419D01*
X92201905Y-90627419D02*
X92201905Y-89627419D01*
X92201905Y-89627419D02*
X92440000Y-89627419D01*
X92440000Y-89627419D02*
X92582857Y-89675038D01*
X92582857Y-89675038D02*
X92678095Y-89770276D01*
X92678095Y-89770276D02*
X92725714Y-89865514D01*
X92725714Y-89865514D02*
X92773333Y-90055990D01*
X92773333Y-90055990D02*
X92773333Y-90198847D01*
X92773333Y-90198847D02*
X92725714Y-90389323D01*
X92725714Y-90389323D02*
X92678095Y-90484561D01*
X92678095Y-90484561D02*
X92582857Y-90579800D01*
X92582857Y-90579800D02*
X92440000Y-90627419D01*
X92440000Y-90627419D02*
X92201905Y-90627419D01*
X90106667Y-87087419D02*
X90440000Y-88087419D01*
X90440000Y-88087419D02*
X90773333Y-87087419D01*
X91678095Y-87992180D02*
X91630476Y-88039800D01*
X91630476Y-88039800D02*
X91487619Y-88087419D01*
X91487619Y-88087419D02*
X91392381Y-88087419D01*
X91392381Y-88087419D02*
X91249524Y-88039800D01*
X91249524Y-88039800D02*
X91154286Y-87944561D01*
X91154286Y-87944561D02*
X91106667Y-87849323D01*
X91106667Y-87849323D02*
X91059048Y-87658847D01*
X91059048Y-87658847D02*
X91059048Y-87515990D01*
X91059048Y-87515990D02*
X91106667Y-87325514D01*
X91106667Y-87325514D02*
X91154286Y-87230276D01*
X91154286Y-87230276D02*
X91249524Y-87135038D01*
X91249524Y-87135038D02*
X91392381Y-87087419D01*
X91392381Y-87087419D02*
X91487619Y-87087419D01*
X91487619Y-87087419D02*
X91630476Y-87135038D01*
X91630476Y-87135038D02*
X91678095Y-87182657D01*
X92678095Y-87992180D02*
X92630476Y-88039800D01*
X92630476Y-88039800D02*
X92487619Y-88087419D01*
X92487619Y-88087419D02*
X92392381Y-88087419D01*
X92392381Y-88087419D02*
X92249524Y-88039800D01*
X92249524Y-88039800D02*
X92154286Y-87944561D01*
X92154286Y-87944561D02*
X92106667Y-87849323D01*
X92106667Y-87849323D02*
X92059048Y-87658847D01*
X92059048Y-87658847D02*
X92059048Y-87515990D01*
X92059048Y-87515990D02*
X92106667Y-87325514D01*
X92106667Y-87325514D02*
X92154286Y-87230276D01*
X92154286Y-87230276D02*
X92249524Y-87135038D01*
X92249524Y-87135038D02*
X92392381Y-87087419D01*
X92392381Y-87087419D02*
X92487619Y-87087419D01*
X92487619Y-87087419D02*
X92630476Y-87135038D01*
X92630476Y-87135038D02*
X92678095Y-87182657D01*
X89749524Y-93167419D02*
X89749524Y-92167419D01*
X89749524Y-92167419D02*
X89987619Y-92167419D01*
X89987619Y-92167419D02*
X90130476Y-92215038D01*
X90130476Y-92215038D02*
X90225714Y-92310276D01*
X90225714Y-92310276D02*
X90273333Y-92405514D01*
X90273333Y-92405514D02*
X90320952Y-92595990D01*
X90320952Y-92595990D02*
X90320952Y-92738847D01*
X90320952Y-92738847D02*
X90273333Y-92929323D01*
X90273333Y-92929323D02*
X90225714Y-93024561D01*
X90225714Y-93024561D02*
X90130476Y-93119800D01*
X90130476Y-93119800D02*
X89987619Y-93167419D01*
X89987619Y-93167419D02*
X89749524Y-93167419D01*
X90940000Y-92167419D02*
X91130476Y-92167419D01*
X91130476Y-92167419D02*
X91225714Y-92215038D01*
X91225714Y-92215038D02*
X91320952Y-92310276D01*
X91320952Y-92310276D02*
X91368571Y-92500752D01*
X91368571Y-92500752D02*
X91368571Y-92834085D01*
X91368571Y-92834085D02*
X91320952Y-93024561D01*
X91320952Y-93024561D02*
X91225714Y-93119800D01*
X91225714Y-93119800D02*
X91130476Y-93167419D01*
X91130476Y-93167419D02*
X90940000Y-93167419D01*
X90940000Y-93167419D02*
X90844762Y-93119800D01*
X90844762Y-93119800D02*
X90749524Y-93024561D01*
X90749524Y-93024561D02*
X90701905Y-92834085D01*
X90701905Y-92834085D02*
X90701905Y-92500752D01*
X90701905Y-92500752D02*
X90749524Y-92310276D01*
X90749524Y-92310276D02*
X90844762Y-92215038D01*
X90844762Y-92215038D02*
X90940000Y-92167419D01*
X91797143Y-92167419D02*
X91797143Y-92976942D01*
X91797143Y-92976942D02*
X91844762Y-93072180D01*
X91844762Y-93072180D02*
X91892381Y-93119800D01*
X91892381Y-93119800D02*
X91987619Y-93167419D01*
X91987619Y-93167419D02*
X92178095Y-93167419D01*
X92178095Y-93167419D02*
X92273333Y-93119800D01*
X92273333Y-93119800D02*
X92320952Y-93072180D01*
X92320952Y-93072180D02*
X92368571Y-92976942D01*
X92368571Y-92976942D02*
X92368571Y-92167419D01*
X92701905Y-92167419D02*
X93273333Y-92167419D01*
X92987619Y-93167419D02*
X92987619Y-92167419D01*
X67556191Y-93167419D02*
X67556191Y-92167419D01*
X67556191Y-92167419D02*
X67794286Y-92167419D01*
X67794286Y-92167419D02*
X67937143Y-92215038D01*
X67937143Y-92215038D02*
X68032381Y-92310276D01*
X68032381Y-92310276D02*
X68080000Y-92405514D01*
X68080000Y-92405514D02*
X68127619Y-92595990D01*
X68127619Y-92595990D02*
X68127619Y-92738847D01*
X68127619Y-92738847D02*
X68080000Y-92929323D01*
X68080000Y-92929323D02*
X68032381Y-93024561D01*
X68032381Y-93024561D02*
X67937143Y-93119800D01*
X67937143Y-93119800D02*
X67794286Y-93167419D01*
X67794286Y-93167419D02*
X67556191Y-93167419D01*
X68556191Y-93167419D02*
X68556191Y-92167419D01*
X69032381Y-93167419D02*
X69032381Y-92167419D01*
X69032381Y-92167419D02*
X69603809Y-93167419D01*
X69603809Y-93167419D02*
X69603809Y-92167419D01*
X67818095Y-89675038D02*
X67722857Y-89627419D01*
X67722857Y-89627419D02*
X67580000Y-89627419D01*
X67580000Y-89627419D02*
X67437143Y-89675038D01*
X67437143Y-89675038D02*
X67341905Y-89770276D01*
X67341905Y-89770276D02*
X67294286Y-89865514D01*
X67294286Y-89865514D02*
X67246667Y-90055990D01*
X67246667Y-90055990D02*
X67246667Y-90198847D01*
X67246667Y-90198847D02*
X67294286Y-90389323D01*
X67294286Y-90389323D02*
X67341905Y-90484561D01*
X67341905Y-90484561D02*
X67437143Y-90579800D01*
X67437143Y-90579800D02*
X67580000Y-90627419D01*
X67580000Y-90627419D02*
X67675238Y-90627419D01*
X67675238Y-90627419D02*
X67818095Y-90579800D01*
X67818095Y-90579800D02*
X67865714Y-90532180D01*
X67865714Y-90532180D02*
X67865714Y-90198847D01*
X67865714Y-90198847D02*
X67675238Y-90198847D01*
X68294286Y-90627419D02*
X68294286Y-89627419D01*
X68294286Y-89627419D02*
X68865714Y-90627419D01*
X68865714Y-90627419D02*
X68865714Y-89627419D01*
X69341905Y-90627419D02*
X69341905Y-89627419D01*
X69341905Y-89627419D02*
X69580000Y-89627419D01*
X69580000Y-89627419D02*
X69722857Y-89675038D01*
X69722857Y-89675038D02*
X69818095Y-89770276D01*
X69818095Y-89770276D02*
X69865714Y-89865514D01*
X69865714Y-89865514D02*
X69913333Y-90055990D01*
X69913333Y-90055990D02*
X69913333Y-90198847D01*
X69913333Y-90198847D02*
X69865714Y-90389323D01*
X69865714Y-90389323D02*
X69818095Y-90484561D01*
X69818095Y-90484561D02*
X69722857Y-90579800D01*
X69722857Y-90579800D02*
X69580000Y-90627419D01*
X69580000Y-90627419D02*
X69341905Y-90627419D01*
D11*
%TO.C,J1*%
X61896666Y-78702819D02*
X61896666Y-79417104D01*
X61896666Y-79417104D02*
X61849047Y-79559961D01*
X61849047Y-79559961D02*
X61753809Y-79655200D01*
X61753809Y-79655200D02*
X61610952Y-79702819D01*
X61610952Y-79702819D02*
X61515714Y-79702819D01*
X62896666Y-79702819D02*
X62325238Y-79702819D01*
X62610952Y-79702819D02*
X62610952Y-78702819D01*
X62610952Y-78702819D02*
X62515714Y-78845676D01*
X62515714Y-78845676D02*
X62420476Y-78940914D01*
X62420476Y-78940914D02*
X62325238Y-78988533D01*
%TO.C,R2*%
X62684819Y-97321666D02*
X62208628Y-97654999D01*
X62684819Y-97893094D02*
X61684819Y-97893094D01*
X61684819Y-97893094D02*
X61684819Y-97512142D01*
X61684819Y-97512142D02*
X61732438Y-97416904D01*
X61732438Y-97416904D02*
X61780057Y-97369285D01*
X61780057Y-97369285D02*
X61875295Y-97321666D01*
X61875295Y-97321666D02*
X62018152Y-97321666D01*
X62018152Y-97321666D02*
X62113390Y-97369285D01*
X62113390Y-97369285D02*
X62161009Y-97416904D01*
X62161009Y-97416904D02*
X62208628Y-97512142D01*
X62208628Y-97512142D02*
X62208628Y-97893094D01*
X61780057Y-96940713D02*
X61732438Y-96893094D01*
X61732438Y-96893094D02*
X61684819Y-96797856D01*
X61684819Y-96797856D02*
X61684819Y-96559761D01*
X61684819Y-96559761D02*
X61732438Y-96464523D01*
X61732438Y-96464523D02*
X61780057Y-96416904D01*
X61780057Y-96416904D02*
X61875295Y-96369285D01*
X61875295Y-96369285D02*
X61970533Y-96369285D01*
X61970533Y-96369285D02*
X62113390Y-96416904D01*
X62113390Y-96416904D02*
X62684819Y-96988332D01*
X62684819Y-96988332D02*
X62684819Y-96369285D01*
%TO.C,U1*%
X59364819Y-68071904D02*
X60174342Y-68071904D01*
X60174342Y-68071904D02*
X60269580Y-68024285D01*
X60269580Y-68024285D02*
X60317200Y-67976666D01*
X60317200Y-67976666D02*
X60364819Y-67881428D01*
X60364819Y-67881428D02*
X60364819Y-67690952D01*
X60364819Y-67690952D02*
X60317200Y-67595714D01*
X60317200Y-67595714D02*
X60269580Y-67548095D01*
X60269580Y-67548095D02*
X60174342Y-67500476D01*
X60174342Y-67500476D02*
X59364819Y-67500476D01*
X60364819Y-66500476D02*
X60364819Y-67071904D01*
X60364819Y-66786190D02*
X59364819Y-66786190D01*
X59364819Y-66786190D02*
X59507676Y-66881428D01*
X59507676Y-66881428D02*
X59602914Y-66976666D01*
X59602914Y-66976666D02*
X59650533Y-67071904D01*
X85312857Y-67479104D02*
X85789047Y-67479104D01*
X85217619Y-67764819D02*
X85550952Y-66764819D01*
X85550952Y-66764819D02*
X85884285Y-67764819D01*
X86217619Y-67764819D02*
X86217619Y-67098152D01*
X86217619Y-67288628D02*
X86265238Y-67193390D01*
X86265238Y-67193390D02*
X86312857Y-67145771D01*
X86312857Y-67145771D02*
X86408095Y-67098152D01*
X86408095Y-67098152D02*
X86503333Y-67098152D01*
X87265238Y-67764819D02*
X87265238Y-66764819D01*
X87265238Y-67717200D02*
X87170000Y-67764819D01*
X87170000Y-67764819D02*
X86979524Y-67764819D01*
X86979524Y-67764819D02*
X86884286Y-67717200D01*
X86884286Y-67717200D02*
X86836667Y-67669580D01*
X86836667Y-67669580D02*
X86789048Y-67574342D01*
X86789048Y-67574342D02*
X86789048Y-67288628D01*
X86789048Y-67288628D02*
X86836667Y-67193390D01*
X86836667Y-67193390D02*
X86884286Y-67145771D01*
X86884286Y-67145771D02*
X86979524Y-67098152D01*
X86979524Y-67098152D02*
X87170000Y-67098152D01*
X87170000Y-67098152D02*
X87265238Y-67145771D01*
X88170000Y-67098152D02*
X88170000Y-67764819D01*
X87741429Y-67098152D02*
X87741429Y-67621961D01*
X87741429Y-67621961D02*
X87789048Y-67717200D01*
X87789048Y-67717200D02*
X87884286Y-67764819D01*
X87884286Y-67764819D02*
X88027143Y-67764819D01*
X88027143Y-67764819D02*
X88122381Y-67717200D01*
X88122381Y-67717200D02*
X88170000Y-67669580D01*
X88646191Y-67764819D02*
X88646191Y-67098152D01*
X88646191Y-66764819D02*
X88598572Y-66812438D01*
X88598572Y-66812438D02*
X88646191Y-66860057D01*
X88646191Y-66860057D02*
X88693810Y-66812438D01*
X88693810Y-66812438D02*
X88646191Y-66764819D01*
X88646191Y-66764819D02*
X88646191Y-66860057D01*
X89122381Y-67098152D02*
X89122381Y-67764819D01*
X89122381Y-67193390D02*
X89170000Y-67145771D01*
X89170000Y-67145771D02*
X89265238Y-67098152D01*
X89265238Y-67098152D02*
X89408095Y-67098152D01*
X89408095Y-67098152D02*
X89503333Y-67145771D01*
X89503333Y-67145771D02*
X89550952Y-67241009D01*
X89550952Y-67241009D02*
X89550952Y-67764819D01*
X90170000Y-67764819D02*
X90074762Y-67717200D01*
X90074762Y-67717200D02*
X90027143Y-67669580D01*
X90027143Y-67669580D02*
X89979524Y-67574342D01*
X89979524Y-67574342D02*
X89979524Y-67288628D01*
X89979524Y-67288628D02*
X90027143Y-67193390D01*
X90027143Y-67193390D02*
X90074762Y-67145771D01*
X90074762Y-67145771D02*
X90170000Y-67098152D01*
X90170000Y-67098152D02*
X90312857Y-67098152D01*
X90312857Y-67098152D02*
X90408095Y-67145771D01*
X90408095Y-67145771D02*
X90455714Y-67193390D01*
X90455714Y-67193390D02*
X90503333Y-67288628D01*
X90503333Y-67288628D02*
X90503333Y-67574342D01*
X90503333Y-67574342D02*
X90455714Y-67669580D01*
X90455714Y-67669580D02*
X90408095Y-67717200D01*
X90408095Y-67717200D02*
X90312857Y-67764819D01*
X90312857Y-67764819D02*
X90170000Y-67764819D01*
X90693810Y-67860057D02*
X91455714Y-67860057D01*
X91693810Y-67764819D02*
X91693810Y-66764819D01*
X91693810Y-66764819D02*
X92265238Y-67764819D01*
X92265238Y-67764819D02*
X92265238Y-66764819D01*
X93170000Y-67764819D02*
X93170000Y-67241009D01*
X93170000Y-67241009D02*
X93122381Y-67145771D01*
X93122381Y-67145771D02*
X93027143Y-67098152D01*
X93027143Y-67098152D02*
X92836667Y-67098152D01*
X92836667Y-67098152D02*
X92741429Y-67145771D01*
X93170000Y-67717200D02*
X93074762Y-67764819D01*
X93074762Y-67764819D02*
X92836667Y-67764819D01*
X92836667Y-67764819D02*
X92741429Y-67717200D01*
X92741429Y-67717200D02*
X92693810Y-67621961D01*
X92693810Y-67621961D02*
X92693810Y-67526723D01*
X92693810Y-67526723D02*
X92741429Y-67431485D01*
X92741429Y-67431485D02*
X92836667Y-67383866D01*
X92836667Y-67383866D02*
X93074762Y-67383866D01*
X93074762Y-67383866D02*
X93170000Y-67336247D01*
X93646191Y-67098152D02*
X93646191Y-67764819D01*
X93646191Y-67193390D02*
X93693810Y-67145771D01*
X93693810Y-67145771D02*
X93789048Y-67098152D01*
X93789048Y-67098152D02*
X93931905Y-67098152D01*
X93931905Y-67098152D02*
X94027143Y-67145771D01*
X94027143Y-67145771D02*
X94074762Y-67241009D01*
X94074762Y-67241009D02*
X94074762Y-67764819D01*
X94693810Y-67764819D02*
X94598572Y-67717200D01*
X94598572Y-67717200D02*
X94550953Y-67669580D01*
X94550953Y-67669580D02*
X94503334Y-67574342D01*
X94503334Y-67574342D02*
X94503334Y-67288628D01*
X94503334Y-67288628D02*
X94550953Y-67193390D01*
X94550953Y-67193390D02*
X94598572Y-67145771D01*
X94598572Y-67145771D02*
X94693810Y-67098152D01*
X94693810Y-67098152D02*
X94836667Y-67098152D01*
X94836667Y-67098152D02*
X94931905Y-67145771D01*
X94931905Y-67145771D02*
X94979524Y-67193390D01*
X94979524Y-67193390D02*
X95027143Y-67288628D01*
X95027143Y-67288628D02*
X95027143Y-67574342D01*
X95027143Y-67574342D02*
X94979524Y-67669580D01*
X94979524Y-67669580D02*
X94931905Y-67717200D01*
X94931905Y-67717200D02*
X94836667Y-67764819D01*
X94836667Y-67764819D02*
X94693810Y-67764819D01*
%TO.C,SW1*%
X70040667Y-52223200D02*
X70183524Y-52270819D01*
X70183524Y-52270819D02*
X70421619Y-52270819D01*
X70421619Y-52270819D02*
X70516857Y-52223200D01*
X70516857Y-52223200D02*
X70564476Y-52175580D01*
X70564476Y-52175580D02*
X70612095Y-52080342D01*
X70612095Y-52080342D02*
X70612095Y-51985104D01*
X70612095Y-51985104D02*
X70564476Y-51889866D01*
X70564476Y-51889866D02*
X70516857Y-51842247D01*
X70516857Y-51842247D02*
X70421619Y-51794628D01*
X70421619Y-51794628D02*
X70231143Y-51747009D01*
X70231143Y-51747009D02*
X70135905Y-51699390D01*
X70135905Y-51699390D02*
X70088286Y-51651771D01*
X70088286Y-51651771D02*
X70040667Y-51556533D01*
X70040667Y-51556533D02*
X70040667Y-51461295D01*
X70040667Y-51461295D02*
X70088286Y-51366057D01*
X70088286Y-51366057D02*
X70135905Y-51318438D01*
X70135905Y-51318438D02*
X70231143Y-51270819D01*
X70231143Y-51270819D02*
X70469238Y-51270819D01*
X70469238Y-51270819D02*
X70612095Y-51318438D01*
X70945429Y-51270819D02*
X71183524Y-52270819D01*
X71183524Y-52270819D02*
X71374000Y-51556533D01*
X71374000Y-51556533D02*
X71564476Y-52270819D01*
X71564476Y-52270819D02*
X71802572Y-51270819D01*
X72707333Y-52270819D02*
X72135905Y-52270819D01*
X72421619Y-52270819D02*
X72421619Y-51270819D01*
X72421619Y-51270819D02*
X72326381Y-51413676D01*
X72326381Y-51413676D02*
X72231143Y-51508914D01*
X72231143Y-51508914D02*
X72135905Y-51556533D01*
%TO.C,D1*%
X95273905Y-56588819D02*
X95273905Y-55588819D01*
X95273905Y-55588819D02*
X95512000Y-55588819D01*
X95512000Y-55588819D02*
X95654857Y-55636438D01*
X95654857Y-55636438D02*
X95750095Y-55731676D01*
X95750095Y-55731676D02*
X95797714Y-55826914D01*
X95797714Y-55826914D02*
X95845333Y-56017390D01*
X95845333Y-56017390D02*
X95845333Y-56160247D01*
X95845333Y-56160247D02*
X95797714Y-56350723D01*
X95797714Y-56350723D02*
X95750095Y-56445961D01*
X95750095Y-56445961D02*
X95654857Y-56541200D01*
X95654857Y-56541200D02*
X95512000Y-56588819D01*
X95512000Y-56588819D02*
X95273905Y-56588819D01*
X96797714Y-56588819D02*
X96226286Y-56588819D01*
X96512000Y-56588819D02*
X96512000Y-55588819D01*
X96512000Y-55588819D02*
X96416762Y-55731676D01*
X96416762Y-55731676D02*
X96321524Y-55826914D01*
X96321524Y-55826914D02*
X96226286Y-55874533D01*
X92956095Y-56588819D02*
X92956095Y-55588819D01*
X93527523Y-56588819D02*
X93098952Y-56017390D01*
X93527523Y-55588819D02*
X92956095Y-56160247D01*
%TO.C,R1*%
X60144819Y-97321666D02*
X59668628Y-97654999D01*
X60144819Y-97893094D02*
X59144819Y-97893094D01*
X59144819Y-97893094D02*
X59144819Y-97512142D01*
X59144819Y-97512142D02*
X59192438Y-97416904D01*
X59192438Y-97416904D02*
X59240057Y-97369285D01*
X59240057Y-97369285D02*
X59335295Y-97321666D01*
X59335295Y-97321666D02*
X59478152Y-97321666D01*
X59478152Y-97321666D02*
X59573390Y-97369285D01*
X59573390Y-97369285D02*
X59621009Y-97416904D01*
X59621009Y-97416904D02*
X59668628Y-97512142D01*
X59668628Y-97512142D02*
X59668628Y-97893094D01*
X60144819Y-96369285D02*
X60144819Y-96940713D01*
X60144819Y-96654999D02*
X59144819Y-96654999D01*
X59144819Y-96654999D02*
X59287676Y-96750237D01*
X59287676Y-96750237D02*
X59382914Y-96845475D01*
X59382914Y-96845475D02*
X59430533Y-96940713D01*
%TO.C,kibuzzard-6461C7CD*%
G36*
X106672062Y-72695991D02*
G01*
X106769694Y-72806719D01*
X106819700Y-72966262D01*
X106833988Y-73152000D01*
X106829523Y-73257073D01*
X106816128Y-73353216D01*
X106756597Y-73511569D01*
X106647059Y-73616344D01*
X106479181Y-73654444D01*
X106452987Y-73654444D01*
X106426794Y-73652062D01*
X106426794Y-72661462D01*
X106469656Y-72655509D01*
X106512519Y-72654319D01*
X106672062Y-72695991D01*
G37*
G36*
X109016800Y-74218800D02*
G01*
X107131644Y-74218800D01*
X106448225Y-74218800D01*
X105660031Y-74218800D01*
X104290812Y-74218800D01*
X103688356Y-74218800D01*
X101803200Y-74218800D01*
X101803200Y-73152000D01*
X103688356Y-73152000D01*
X103699072Y-73330891D01*
X103731219Y-73486566D01*
X103783011Y-73618725D01*
X103852662Y-73727072D01*
X103939280Y-73811606D01*
X104041972Y-73872328D01*
X104159546Y-73908940D01*
X104290812Y-73921144D01*
X104436366Y-73915191D01*
X104558703Y-73897331D01*
X104721819Y-73854469D01*
X104721819Y-73118662D01*
X104428925Y-73118662D01*
X104428925Y-73656825D01*
X104371775Y-73663969D01*
X104314625Y-73666350D01*
X104172345Y-73635096D01*
X104069356Y-73541334D01*
X104023054Y-73442512D01*
X103995273Y-73312734D01*
X103986012Y-73152000D01*
X103991073Y-73042760D01*
X104006253Y-72943641D01*
X104072928Y-72781716D01*
X104190800Y-72675750D01*
X104367012Y-72637650D01*
X104524175Y-72663844D01*
X104652762Y-72723375D01*
X104728962Y-72490012D01*
X104680147Y-72461437D01*
X104597994Y-72425719D01*
X104560275Y-72416194D01*
X104924225Y-72416194D01*
X104924225Y-73890187D01*
X105188544Y-73890187D01*
X105188544Y-72911494D01*
X105277047Y-73074874D01*
X105361581Y-73237990D01*
X105442147Y-73400841D01*
X105518744Y-73563692D01*
X105591372Y-73726807D01*
X105660031Y-73890187D01*
X105895775Y-73890187D01*
X105895775Y-73873519D01*
X106133900Y-73873519D01*
X106294634Y-73900903D01*
X106448225Y-73909237D01*
X106591993Y-73898820D01*
X106723259Y-73867566D01*
X106839643Y-73813690D01*
X106938762Y-73735406D01*
X107019427Y-73631524D01*
X107080447Y-73500853D01*
X107118845Y-73341607D01*
X107131644Y-73152000D01*
X107120035Y-72966560D01*
X107085209Y-72810291D01*
X107029548Y-72681108D01*
X106955431Y-72576928D01*
X106862860Y-72497454D01*
X106751834Y-72442387D01*
X106625330Y-72410241D01*
X106486325Y-72399525D01*
X106322019Y-72406669D01*
X106133900Y-72435244D01*
X106133900Y-73873519D01*
X105895775Y-73873519D01*
X105895775Y-72416194D01*
X105631456Y-72416194D01*
X105631456Y-73323450D01*
X105589487Y-73230581D01*
X105539778Y-73123425D01*
X105483819Y-73007339D01*
X105423097Y-72887681D01*
X105359101Y-72765940D01*
X105293319Y-72643603D01*
X105226644Y-72525434D01*
X105159969Y-72416194D01*
X104924225Y-72416194D01*
X104560275Y-72416194D01*
X104480122Y-72395953D01*
X104326531Y-72382856D01*
X104197348Y-72395060D01*
X104076500Y-72431672D01*
X103967558Y-72492691D01*
X103874094Y-72578119D01*
X103797298Y-72687359D01*
X103738362Y-72819816D01*
X103700858Y-72974895D01*
X103688356Y-73152000D01*
X101803200Y-73152000D01*
X101803200Y-72085200D01*
X103688356Y-72085200D01*
X107131644Y-72085200D01*
X109016800Y-72085200D01*
X109016800Y-74218800D01*
G37*
D13*
%TO.C,BT1*%
X94926000Y-53908000D02*
X94926000Y-52578000D01*
X96256000Y-53908000D02*
X94926000Y-53908000D01*
X97526000Y-53908000D02*
X100126000Y-53908000D01*
X97526000Y-53908000D02*
X97526000Y-51248000D01*
X100126000Y-53908000D02*
X100126000Y-51248000D01*
X97526000Y-51248000D02*
X100126000Y-51248000D01*
%TO.C,J2*%
X58420000Y-80010000D02*
X59750000Y-80010000D01*
X58420000Y-81280000D02*
X58420000Y-80010000D01*
X58420000Y-82550000D02*
X58420000Y-90170000D01*
X58420000Y-82550000D02*
X60960000Y-82550000D01*
X58420000Y-90170000D02*
X60960000Y-90170000D01*
X60960000Y-82550000D02*
X60960000Y-90170000D01*
%TO.C,kibuzzard-6461CA3D*%
G36*
X78944391Y-79298800D02*
G01*
X78646734Y-79298800D01*
X78234778Y-79298800D01*
X77439441Y-79298800D01*
X75277266Y-79298800D01*
X74979609Y-79298800D01*
X74979609Y-77496194D01*
X75277266Y-77496194D01*
X75277266Y-77739081D01*
X75598734Y-77739081D01*
X75598734Y-78727300D01*
X75277266Y-78727300D01*
X75277266Y-78970187D01*
X76213097Y-78970187D01*
X76213097Y-78727300D01*
X75894009Y-78727300D01*
X75894009Y-77739081D01*
X76213097Y-77739081D01*
X76213097Y-77658119D01*
X76441697Y-77658119D01*
X76586953Y-77862906D01*
X76736972Y-77750987D01*
X76882228Y-77717650D01*
X77020341Y-77766466D01*
X77075109Y-77905769D01*
X77031056Y-78031975D01*
X76919138Y-78160562D01*
X76848891Y-78228726D01*
X76773881Y-78299866D01*
X76698872Y-78375470D01*
X76628625Y-78457028D01*
X76566713Y-78545432D01*
X76516706Y-78641575D01*
X76483666Y-78746350D01*
X76472653Y-78860650D01*
X76471463Y-78910656D01*
X76477416Y-78970187D01*
X77439441Y-78970187D01*
X77439441Y-78727300D01*
X76806028Y-78727300D01*
X76831031Y-78648719D01*
X76891753Y-78564184D01*
X76967953Y-78483222D01*
X77039391Y-78415356D01*
X77160834Y-78296294D01*
X77214413Y-78232000D01*
X77594222Y-78232000D01*
X77604491Y-78405980D01*
X77635298Y-78558827D01*
X77686644Y-78690539D01*
X77758528Y-78801119D01*
X77884470Y-78912244D01*
X78043220Y-78978919D01*
X78234778Y-79001144D01*
X78364854Y-78993107D01*
X78478856Y-78968997D01*
X78646734Y-78898750D01*
X78572916Y-78667769D01*
X78452662Y-78720156D01*
X78263353Y-78746350D01*
X78093391Y-78712715D01*
X77978794Y-78611809D01*
X77930507Y-78509019D01*
X77901535Y-78380034D01*
X77891878Y-78224856D01*
X77899915Y-78091506D01*
X77924025Y-77981969D01*
X78007369Y-77825997D01*
X78124050Y-77742653D01*
X78258591Y-77717650D01*
X78435994Y-77742653D01*
X78568153Y-77803375D01*
X78644353Y-77570012D01*
X78595538Y-77541437D01*
X78515766Y-77505719D01*
X78405038Y-77475953D01*
X78263353Y-77462856D01*
X78123752Y-77475655D01*
X77995463Y-77514053D01*
X77881162Y-77577156D01*
X77783531Y-77664072D01*
X77704057Y-77773907D01*
X77644228Y-77905769D01*
X77606723Y-78058764D01*
X77594222Y-78232000D01*
X77214413Y-78232000D01*
X77267991Y-78167706D01*
X77344191Y-78030784D01*
X77372766Y-77884337D01*
X77334666Y-77699791D01*
X77232272Y-77567631D01*
X77084634Y-77489050D01*
X76910803Y-77462856D01*
X76786680Y-77474762D01*
X76661963Y-77510481D01*
X76544388Y-77571203D01*
X76441697Y-77658119D01*
X76213097Y-77658119D01*
X76213097Y-77496194D01*
X75277266Y-77496194D01*
X74979609Y-77496194D01*
X74979609Y-77165200D01*
X75277266Y-77165200D01*
X78646734Y-77165200D01*
X78944391Y-77165200D01*
X78944391Y-79298800D01*
G37*
D12*
%TO.C,LED1*%
X95758000Y-108458000D02*
X64262000Y-108458000D01*
X64262000Y-108458000D02*
X64262000Y-76962000D01*
X64262000Y-76962000D02*
X95758000Y-76962000D01*
X95758000Y-76962000D02*
X95758000Y-108458000D01*
X95758000Y-77978000D02*
X94742000Y-76962000D01*
X95758000Y-76962000D01*
X95758000Y-77978000D01*
G36*
X95758000Y-77978000D02*
G01*
X94742000Y-76962000D01*
X95758000Y-76962000D01*
X95758000Y-77978000D01*
G37*
D13*
%TO.C,J1*%
X60960000Y-80010000D02*
X62290000Y-80010000D01*
X60960000Y-81280000D02*
X60960000Y-80010000D01*
X60960000Y-82550000D02*
X60960000Y-90170000D01*
X60960000Y-82550000D02*
X63500000Y-82550000D01*
X60960000Y-90170000D02*
X63500000Y-90170000D01*
X63500000Y-82550000D02*
X63500000Y-90170000D01*
%TO.C,kibuzzard-6461CA60*%
G36*
X73209249Y-101600000D02*
G01*
X72519480Y-102634653D01*
X72221824Y-102634653D01*
X71925557Y-102634653D01*
X70018176Y-102634653D01*
X69720520Y-102634653D01*
X69030751Y-102634653D01*
X69720520Y-101600000D01*
X69229188Y-100863003D01*
X70018176Y-100863003D01*
X70018176Y-101105891D01*
X70339645Y-101105891D01*
X70339645Y-102094109D01*
X70018176Y-102094109D01*
X70018176Y-102336997D01*
X70954007Y-102336997D01*
X70954007Y-102094109D01*
X70634920Y-102094109D01*
X70634920Y-101105891D01*
X70954007Y-101105891D01*
X70954007Y-100863003D01*
X71189751Y-100863003D01*
X71189751Y-102336997D01*
X71454070Y-102336997D01*
X71454070Y-101358303D01*
X71542573Y-101521683D01*
X71627107Y-101684799D01*
X71707673Y-101847650D01*
X71784270Y-102010501D01*
X71856898Y-102173617D01*
X71925557Y-102336997D01*
X72161301Y-102336997D01*
X72161301Y-100863003D01*
X71896982Y-100863003D01*
X71896982Y-101770259D01*
X71855013Y-101677391D01*
X71805304Y-101570234D01*
X71749345Y-101454148D01*
X71688623Y-101334491D01*
X71624627Y-101212749D01*
X71558845Y-101090412D01*
X71492170Y-100972243D01*
X71425495Y-100863003D01*
X71189751Y-100863003D01*
X70954007Y-100863003D01*
X70018176Y-100863003D01*
X69229188Y-100863003D01*
X69030751Y-100565347D01*
X69720520Y-100565347D01*
X70018176Y-100565347D01*
X72221824Y-100565347D01*
X72519480Y-100565347D01*
X73209249Y-101600000D01*
G37*
%TO.C,kibuzzard-64612FED*%
G36*
X101841722Y-53416597D02*
G01*
X101544065Y-53416597D01*
X101418231Y-53416597D01*
X100639935Y-53416597D01*
X100342278Y-53416597D01*
X100342278Y-52433934D01*
X100765769Y-52433934D01*
X100765769Y-52722066D01*
X101418231Y-52722066D01*
X101418231Y-52433934D01*
X100765769Y-52433934D01*
X100342278Y-52433934D01*
X100342278Y-51739403D01*
X100639935Y-51739403D01*
X101544065Y-51739403D01*
X101841722Y-51739403D01*
X101841722Y-53416597D01*
G37*
%TO.C,kibuzzard-6461CA59*%
G36*
X87066438Y-101126131D02*
G01*
X87136684Y-101235669D01*
X87170022Y-101398784D01*
X87176273Y-101496118D01*
X87178356Y-101600000D01*
X87176273Y-101703584D01*
X87170022Y-101800025D01*
X87136684Y-101963141D01*
X87065247Y-102073869D01*
X86944994Y-102114350D01*
X86823550Y-102073869D01*
X86753303Y-101964331D01*
X86719966Y-101801216D01*
X86713715Y-101703882D01*
X86711631Y-101600000D01*
X86713715Y-101496416D01*
X86719966Y-101399975D01*
X86753303Y-101236859D01*
X86823550Y-101126131D01*
X86944994Y-101085650D01*
X87066438Y-101126131D01*
G37*
G36*
X90870881Y-101600000D02*
G01*
X90159681Y-102666800D01*
X89862025Y-102666800D01*
X89473881Y-102666800D01*
X88130856Y-102666800D01*
X86947375Y-102666800D01*
X86413975Y-102666800D01*
X86116319Y-102666800D01*
X85405119Y-102666800D01*
X86116319Y-101600000D01*
X86413975Y-101600000D01*
X86422533Y-101778817D01*
X86448205Y-101934268D01*
X86490994Y-102066353D01*
X86550897Y-102175072D01*
X86655804Y-102282890D01*
X86787964Y-102347580D01*
X86947375Y-102369144D01*
X87102950Y-102347580D01*
X87233125Y-102282890D01*
X87337900Y-102175072D01*
X87398324Y-102066353D01*
X87441484Y-101934268D01*
X87467380Y-101778817D01*
X87476013Y-101600000D01*
X87467529Y-101421183D01*
X87442080Y-101265732D01*
X87399664Y-101133647D01*
X87340281Y-101024928D01*
X87236035Y-100917110D01*
X87128255Y-100864194D01*
X87633175Y-100864194D01*
X87633175Y-101804787D01*
X87639128Y-101927422D01*
X87656988Y-102038150D01*
X87689134Y-102135186D01*
X87737950Y-102216744D01*
X87891541Y-102329853D01*
X87999590Y-102359321D01*
X88130856Y-102369144D01*
X88264206Y-102359321D01*
X88373744Y-102329853D01*
X88461850Y-102281930D01*
X88530906Y-102216744D01*
X88581508Y-102135186D01*
X88614250Y-102038150D01*
X88632109Y-101927422D01*
X88638063Y-101804787D01*
X88638063Y-100864194D01*
X88790463Y-100864194D01*
X88790463Y-101107081D01*
X89178606Y-101107081D01*
X89178606Y-102338187D01*
X89473881Y-102338187D01*
X89473881Y-101107081D01*
X89862025Y-101107081D01*
X89862025Y-100864194D01*
X88790463Y-100864194D01*
X88638063Y-100864194D01*
X88345169Y-100864194D01*
X88345169Y-101783356D01*
X88335644Y-101939328D01*
X88302306Y-102041722D01*
X88238013Y-102097681D01*
X88135619Y-102114350D01*
X88033225Y-102097681D01*
X87970122Y-102042912D01*
X87937975Y-101941709D01*
X87928450Y-101785737D01*
X87928450Y-100864194D01*
X87633175Y-100864194D01*
X87128255Y-100864194D01*
X87104273Y-100852420D01*
X86944994Y-100830856D01*
X86790477Y-100852420D01*
X86660302Y-100917110D01*
X86554469Y-101024928D01*
X86493003Y-101133647D01*
X86449098Y-101265732D01*
X86422756Y-101421183D01*
X86413975Y-101600000D01*
X86116319Y-101600000D01*
X85405119Y-100533200D01*
X86116319Y-100533200D01*
X86413975Y-100533200D01*
X89862025Y-100533200D01*
X90159681Y-100533200D01*
X90870881Y-101600000D01*
G37*
%TO.C,R2*%
X61049000Y-98520000D02*
X61049000Y-91980000D01*
X61379000Y-98520000D02*
X61049000Y-98520000D01*
X63081000Y-98520000D02*
X63411000Y-98520000D01*
X63411000Y-98520000D02*
X63411000Y-91980000D01*
X61049000Y-91980000D02*
X61379000Y-91980000D01*
X63411000Y-91980000D02*
X63081000Y-91980000D01*
%TO.C,kibuzzard-6461C6D4*%
G36*
X58219181Y-74202131D02*
G01*
X56334025Y-74202131D01*
X55614887Y-74202131D01*
X54462362Y-74202131D01*
X53512244Y-74202131D01*
X52885975Y-74202131D01*
X51000819Y-74202131D01*
X51000819Y-73828275D01*
X54064694Y-73828275D01*
X54132559Y-73854469D01*
X54231381Y-73879472D01*
X54345681Y-73897331D01*
X54462362Y-73904475D01*
X54598689Y-73895545D01*
X54717156Y-73868756D01*
X54817764Y-73825894D01*
X54900512Y-73768744D01*
X55010050Y-73617534D01*
X55045769Y-73428225D01*
X55029629Y-73290113D01*
X54981210Y-73174225D01*
X54900512Y-73080563D01*
X54787006Y-73009654D01*
X54640162Y-72962029D01*
X54459981Y-72937688D01*
X54471887Y-72801956D01*
X54483794Y-72642413D01*
X54991000Y-72642413D01*
X54991000Y-72399525D01*
X55202931Y-72399525D01*
X55230316Y-72532875D01*
X55269606Y-72699563D01*
X55301092Y-72824314D01*
X55335223Y-72954092D01*
X55372000Y-73088897D01*
X55410894Y-73226348D01*
X55451375Y-73364064D01*
X55493444Y-73502044D01*
X55555952Y-73698497D01*
X55614887Y-73873519D01*
X55917306Y-73873519D01*
X55962815Y-73746651D01*
X56007265Y-73616873D01*
X56050656Y-73484184D01*
X56092328Y-73350834D01*
X56131619Y-73219072D01*
X56168528Y-73088897D01*
X56219130Y-72899290D01*
X56263778Y-72718613D01*
X56302176Y-72550734D01*
X56334025Y-72399525D01*
X56026844Y-72399525D01*
X56005412Y-72523350D01*
X55979219Y-72666225D01*
X55949453Y-72820709D01*
X55917306Y-72979359D01*
X55882778Y-73138903D01*
X55845869Y-73296066D01*
X55807769Y-73443405D01*
X55769669Y-73573481D01*
X55731271Y-73441620D01*
X55692278Y-73293684D01*
X55654178Y-73136522D01*
X55618459Y-72976978D01*
X55585420Y-72818625D01*
X55555356Y-72665034D01*
X55530353Y-72523052D01*
X55512494Y-72399525D01*
X55202931Y-72399525D01*
X54991000Y-72399525D01*
X54238525Y-72399525D01*
X54229595Y-72581393D01*
X54217094Y-72769809D01*
X54200425Y-72963584D01*
X54178994Y-73161525D01*
X54342705Y-73166585D01*
X54471887Y-73181766D01*
X54644528Y-73238916D01*
X54725491Y-73327022D01*
X54745731Y-73440131D01*
X54733825Y-73518713D01*
X54689772Y-73586578D01*
X54601666Y-73635394D01*
X54459981Y-73654444D01*
X54348658Y-73649086D01*
X54257575Y-73633013D01*
X54124225Y-73585388D01*
X54064694Y-73828275D01*
X51000819Y-73828275D01*
X51000819Y-73368694D01*
X52885975Y-73368694D01*
X53259831Y-73368694D01*
X53259831Y-73783031D01*
X53512244Y-73783031D01*
X53512244Y-73368694D01*
X53886100Y-73368694D01*
X53886100Y-73128188D01*
X53512244Y-73128188D01*
X53512244Y-72713850D01*
X53259831Y-72713850D01*
X53259831Y-73128188D01*
X52885975Y-73128188D01*
X52885975Y-73368694D01*
X51000819Y-73368694D01*
X51000819Y-72101869D01*
X52885975Y-72101869D01*
X56334025Y-72101869D01*
X58219181Y-72101869D01*
X58219181Y-74202131D01*
G37*
D14*
%TO.C,U1*%
X101600000Y-58420000D02*
X58420000Y-58420000D01*
X58420000Y-58420000D02*
X58420000Y-63500000D01*
X100856051Y-63500000D02*
X99803949Y-63500000D01*
X99803949Y-63500000D02*
X99060000Y-64243949D01*
X98316051Y-63500000D02*
X97263949Y-63500000D01*
X97263949Y-63500000D02*
X96520000Y-64243949D01*
X65278000Y-63500000D02*
X58420000Y-63500000D01*
X65278000Y-64008000D02*
X65278000Y-63500000D01*
X65278000Y-64008000D02*
X58420000Y-64008000D01*
X65278000Y-64008000D02*
X65278000Y-65278000D01*
X58420000Y-64008000D02*
X58420000Y-63500000D01*
X101600000Y-64243949D02*
X100856051Y-63500000D01*
X99060000Y-64243949D02*
X98316051Y-63500000D01*
X99060000Y-64243949D02*
X99060000Y-65296051D01*
X96520000Y-64243949D02*
X96520000Y-65296051D01*
X65786000Y-65278000D02*
X65278000Y-65278000D01*
X65786000Y-65278000D02*
X65786000Y-69342000D01*
X101600000Y-65296051D02*
X101600000Y-64243949D01*
X99060000Y-65296051D02*
X99060000Y-64243949D01*
X99060000Y-65296051D02*
X99803949Y-66040000D01*
X96520000Y-65296051D02*
X97263949Y-66040000D01*
X100856051Y-66040000D02*
X101600000Y-65296051D01*
X100856051Y-66040000D02*
X99803949Y-66040000D01*
X99803949Y-66040000D02*
X100856051Y-66040000D01*
X99803949Y-66040000D02*
X99060000Y-66783949D01*
X98316051Y-66040000D02*
X99060000Y-65296051D01*
X98316051Y-66040000D02*
X97263949Y-66040000D01*
X97263949Y-66040000D02*
X98316051Y-66040000D01*
X97263949Y-66040000D02*
X96520000Y-66783949D01*
X84074000Y-66294000D02*
X81026000Y-66294000D01*
X81026000Y-66294000D02*
X81026000Y-69342000D01*
X101600000Y-66783949D02*
X100856051Y-66040000D01*
X99060000Y-66783949D02*
X98316051Y-66040000D01*
X99060000Y-66783949D02*
X99060000Y-67836051D01*
X96520000Y-66783949D02*
X96520000Y-67836051D01*
X101600000Y-67836051D02*
X101600000Y-66783949D01*
X99060000Y-67836051D02*
X99060000Y-66783949D01*
X99060000Y-67836051D02*
X99803949Y-68580000D01*
X96520000Y-67836051D02*
X97263949Y-68580000D01*
X100856051Y-68580000D02*
X101600000Y-67836051D01*
X100856051Y-68580000D02*
X99803949Y-68580000D01*
X99803949Y-68580000D02*
X100856051Y-68580000D01*
X99803949Y-68580000D02*
X99060000Y-69323949D01*
X98316051Y-68580000D02*
X99060000Y-67836051D01*
X98316051Y-68580000D02*
X97263949Y-68580000D01*
X97263949Y-68580000D02*
X98316051Y-68580000D01*
X97263949Y-68580000D02*
X96520000Y-69323949D01*
X101600000Y-69323949D02*
X100856051Y-68580000D01*
X99060000Y-69323949D02*
X98316051Y-68580000D01*
X99060000Y-69323949D02*
X99060000Y-70376051D01*
X96520000Y-69323949D02*
X96520000Y-70376051D01*
X84074000Y-69342000D02*
X84074000Y-66294000D01*
X81026000Y-69342000D02*
X84074000Y-69342000D01*
X65786000Y-69342000D02*
X65278000Y-69342000D01*
X101600000Y-70376051D02*
X101600000Y-69323949D01*
X99060000Y-70376051D02*
X99060000Y-69323949D01*
X99060000Y-70376051D02*
X99803949Y-71120000D01*
X96520000Y-70376051D02*
X97263949Y-71120000D01*
X65278000Y-70612000D02*
X65278000Y-69342000D01*
X65278000Y-70612000D02*
X58420000Y-70612000D01*
X65278000Y-70612000D02*
X65278000Y-71120000D01*
X58420000Y-70612000D02*
X58420000Y-64008000D01*
X100856051Y-71120000D02*
X101600000Y-70376051D01*
X99803949Y-71120000D02*
X100856051Y-71120000D01*
X98316051Y-71120000D02*
X99060000Y-70376051D01*
X97263949Y-71120000D02*
X98316051Y-71120000D01*
X65278000Y-71120000D02*
X58420000Y-71120000D01*
X58420000Y-71120000D02*
X58420000Y-70612000D01*
X58420000Y-71120000D02*
X58420000Y-76200000D01*
X101600000Y-76200000D02*
X101600000Y-58420000D01*
X58420000Y-76200000D02*
X101600000Y-76200000D01*
X101473000Y-59690000D02*
G75*
G03*
X101473000Y-59690000I-1143000J0D01*
G01*
X60833000Y-59690000D02*
G75*
G03*
X60833000Y-59690000I-1143000J0D01*
G01*
X83439000Y-67818000D02*
G75*
G03*
X83439000Y-67818000I-889000J0D01*
G01*
X101473000Y-74930000D02*
G75*
G03*
X101473000Y-74930000I-1143000J0D01*
G01*
X60833000Y-74930000D02*
G75*
G03*
X60833000Y-74930000I-1143000J0D01*
G01*
%TO.C,kibuzzard-646132D7*%
G36*
X73961869Y-83439868D02*
G01*
X73996394Y-83573649D01*
X74025523Y-83706352D01*
X74051417Y-83844449D01*
X73790327Y-83844449D01*
X73817299Y-83706352D01*
X73847508Y-83573649D01*
X73882032Y-83439868D01*
X73921951Y-83296376D01*
X73961869Y-83439868D01*
G37*
G36*
X72909958Y-83290982D02*
G01*
X72998426Y-83391318D01*
X73043739Y-83535888D01*
X73056686Y-83704194D01*
X73040503Y-83886526D01*
X72986559Y-84030017D01*
X72887301Y-84124959D01*
X72735179Y-84159483D01*
X72711443Y-84159483D01*
X72687708Y-84157325D01*
X72687708Y-83259694D01*
X72726548Y-83254300D01*
X72765388Y-83253221D01*
X72909958Y-83290982D01*
G37*
G36*
X74029658Y-80496865D02*
G01*
X74119434Y-80598684D01*
X74165417Y-80745391D01*
X74178555Y-80916184D01*
X74174449Y-81012803D01*
X74162132Y-81101210D01*
X74107391Y-81246822D01*
X74006667Y-81343167D01*
X73852296Y-81378201D01*
X73828210Y-81378201D01*
X73804124Y-81376012D01*
X73804124Y-80465115D01*
X73843538Y-80459641D01*
X73882951Y-80458546D01*
X74029658Y-80496865D01*
G37*
G36*
X74811792Y-87456688D02*
G01*
X74533980Y-87456688D01*
X74332019Y-87456688D01*
X72919828Y-87456688D01*
X71720316Y-87456688D01*
X71286020Y-87456688D01*
X71008208Y-87456688D01*
X71008208Y-87078916D01*
X71311971Y-87078916D01*
X71458720Y-87143783D01*
X71573035Y-87170102D01*
X71720316Y-87178875D01*
X71869546Y-87167651D01*
X71991128Y-87133976D01*
X72085061Y-87077853D01*
X72175184Y-86955828D01*
X72205225Y-86791799D01*
X72196186Y-86692637D01*
X72169070Y-86612085D01*
X72076554Y-86492984D01*
X72074841Y-86491921D01*
X72347720Y-86491921D01*
X72356892Y-86647310D01*
X72384407Y-86783823D01*
X72430266Y-86901462D01*
X72494469Y-87000225D01*
X72606953Y-87099475D01*
X72748739Y-87159025D01*
X72919828Y-87178875D01*
X73036004Y-87171697D01*
X73137824Y-87150164D01*
X73287763Y-87087423D01*
X73221833Y-86881124D01*
X73114430Y-86927914D01*
X72945349Y-86951308D01*
X72793549Y-86921267D01*
X72691198Y-86831145D01*
X72632977Y-86684662D01*
X72613570Y-86485540D01*
X72620747Y-86366440D01*
X72642281Y-86268607D01*
X72716719Y-86129302D01*
X72820932Y-86054865D01*
X72941096Y-86032533D01*
X73099542Y-86054865D01*
X73217579Y-86109098D01*
X73285636Y-85900672D01*
X73242037Y-85875151D01*
X73170790Y-85843249D01*
X73139140Y-85834741D01*
X73504696Y-85834741D01*
X73504696Y-87151227D01*
X74332019Y-87151227D01*
X74332019Y-86934294D01*
X74159305Y-86934294D01*
X73768419Y-86934294D01*
X73768419Y-85834741D01*
X73504696Y-85834741D01*
X73139140Y-85834741D01*
X73071894Y-85816664D01*
X72945349Y-85804966D01*
X72820666Y-85816398D01*
X72707128Y-85850380D01*
X72706085Y-85850692D01*
X72603999Y-85907052D01*
X72516800Y-85984680D01*
X72445819Y-86082779D01*
X72392383Y-86200550D01*
X72358886Y-86337197D01*
X72347720Y-86491921D01*
X72074841Y-86491921D01*
X71953200Y-86416420D01*
X71824529Y-86364313D01*
X71742647Y-86332411D01*
X71668209Y-86293066D01*
X71613976Y-86242023D01*
X71592708Y-86175029D01*
X71644815Y-86061777D01*
X71801134Y-86024026D01*
X71951073Y-86045294D01*
X72069110Y-86096337D01*
X72145675Y-85894292D01*
X71993609Y-85832615D01*
X71895511Y-85811878D01*
X71781993Y-85804966D01*
X71727502Y-85812520D01*
X71594038Y-85831020D01*
X71451276Y-85909179D01*
X71361154Y-86033597D01*
X71331113Y-86198423D01*
X71365141Y-86354743D01*
X71451276Y-86460019D01*
X71567187Y-86530203D01*
X71690541Y-86579119D01*
X71779866Y-86616338D01*
X71860684Y-86661001D01*
X71920235Y-86717361D01*
X71943629Y-86789672D01*
X71934059Y-86852412D01*
X71898967Y-86907709D01*
X71829846Y-86945991D01*
X71720316Y-86959816D01*
X71614242Y-86952372D01*
X71525714Y-86930040D01*
X71388536Y-86866237D01*
X71311971Y-87078916D01*
X71008208Y-87078916D01*
X71008208Y-84299738D01*
X71313210Y-84299738D01*
X71462096Y-84365550D01*
X71578076Y-84392252D01*
X71727502Y-84401153D01*
X71878905Y-84389765D01*
X71993599Y-84357998D01*
X72422303Y-84357998D01*
X72567952Y-84382812D01*
X72707128Y-84390364D01*
X72837403Y-84380924D01*
X72870255Y-84373102D01*
X73404087Y-84373102D01*
X73680281Y-84373102D01*
X73740698Y-84064541D01*
X74096730Y-84064541D01*
X74159305Y-84373102D01*
X74444130Y-84373102D01*
X74399559Y-84184500D01*
X74354313Y-84002775D01*
X74308393Y-83827929D01*
X74261799Y-83659960D01*
X74214800Y-83497656D01*
X74167666Y-83339801D01*
X74120398Y-83186398D01*
X74072994Y-83037444D01*
X73823831Y-83037444D01*
X73783854Y-83037444D01*
X73738136Y-83185184D01*
X73691609Y-83337104D01*
X73644273Y-83493205D01*
X73596128Y-83653487D01*
X73557374Y-83786189D01*
X73518793Y-83924502D01*
X73480385Y-84068425D01*
X73442150Y-84217959D01*
X73404087Y-84373102D01*
X72870255Y-84373102D01*
X72956350Y-84352603D01*
X73061811Y-84303784D01*
X73151628Y-84232847D01*
X73224722Y-84138715D01*
X73280015Y-84020307D01*
X73314809Y-83876007D01*
X73326407Y-83704194D01*
X73315888Y-83536158D01*
X73284330Y-83394555D01*
X73233893Y-83277496D01*
X73166732Y-83183094D01*
X73099055Y-83124991D01*
X73082849Y-83111078D01*
X72982243Y-83061180D01*
X72867612Y-83032050D01*
X72741652Y-83022340D01*
X72592766Y-83028813D01*
X72422303Y-83054706D01*
X72422303Y-84357998D01*
X71993599Y-84357998D01*
X72002257Y-84355600D01*
X72097559Y-84298659D01*
X72188994Y-84174857D01*
X72219472Y-84008439D01*
X72210302Y-83907834D01*
X72182790Y-83826108D01*
X72088928Y-83705273D01*
X71963777Y-83627594D01*
X71833232Y-83574728D01*
X71750158Y-83542362D01*
X71674636Y-83502443D01*
X71619613Y-83450657D01*
X71598036Y-83382687D01*
X71650901Y-83267786D01*
X71809497Y-83229486D01*
X71961619Y-83251063D01*
X72081375Y-83302850D01*
X72159055Y-83097862D01*
X72004775Y-83035287D01*
X71905248Y-83014248D01*
X71840003Y-83010276D01*
X71790077Y-83007236D01*
X71657854Y-83018983D01*
X71546009Y-83054227D01*
X71454544Y-83112966D01*
X71363109Y-83239196D01*
X71332630Y-83406422D01*
X71367155Y-83565018D01*
X71454544Y-83671828D01*
X71572142Y-83743034D01*
X71697293Y-83792663D01*
X71787919Y-83830424D01*
X71869914Y-83875737D01*
X71930332Y-83932918D01*
X71954067Y-84006282D01*
X71944357Y-84069936D01*
X71908754Y-84126038D01*
X71838627Y-84164878D01*
X71727502Y-84178903D01*
X71619883Y-84171351D01*
X71530066Y-84148694D01*
X71390890Y-84083961D01*
X71313210Y-84299738D01*
X71008208Y-84299738D01*
X71008208Y-80916184D01*
X71286020Y-80916184D01*
X71295874Y-81080682D01*
X71325434Y-81223831D01*
X71373059Y-81345356D01*
X71437107Y-81444986D01*
X71516755Y-81522718D01*
X71611184Y-81578555D01*
X71719298Y-81612221D01*
X71840003Y-81623443D01*
X71973846Y-81617968D01*
X72086339Y-81601546D01*
X72236331Y-81562132D01*
X72236331Y-80885529D01*
X71967003Y-80885529D01*
X71967003Y-81380391D01*
X71914451Y-81386960D01*
X71861900Y-81389150D01*
X71731068Y-81360410D01*
X71636365Y-81274193D01*
X71593789Y-81183322D01*
X71568243Y-81063986D01*
X71559727Y-80916184D01*
X71564380Y-80815734D01*
X71578339Y-80724589D01*
X71639650Y-80575693D01*
X71748038Y-80478253D01*
X71910072Y-80443218D01*
X72054589Y-80467305D01*
X72172831Y-80522046D01*
X72242900Y-80307460D01*
X72198012Y-80281184D01*
X72122469Y-80248339D01*
X72087788Y-80239581D01*
X72422451Y-80239581D01*
X72422451Y-81594977D01*
X72665503Y-81594977D01*
X72665503Y-80695029D01*
X72746885Y-80845263D01*
X72824618Y-80995255D01*
X72898701Y-81145003D01*
X72969135Y-81294751D01*
X73035920Y-81444742D01*
X73099055Y-81594977D01*
X73315831Y-81594977D01*
X73315831Y-81579650D01*
X73534796Y-81579650D01*
X73682598Y-81604831D01*
X73823831Y-81612494D01*
X73956031Y-81602915D01*
X74076736Y-81574175D01*
X74183755Y-81524634D01*
X74274900Y-81452650D01*
X74349074Y-81357126D01*
X74405184Y-81236968D01*
X74440492Y-81090535D01*
X74452262Y-80916184D01*
X74441587Y-80745665D01*
X74409563Y-80601968D01*
X74358380Y-80483180D01*
X74290227Y-80387382D01*
X74205104Y-80314303D01*
X74103012Y-80263667D01*
X73986686Y-80234106D01*
X73862785Y-80224555D01*
X73858865Y-80224253D01*
X73707779Y-80230822D01*
X73534796Y-80257098D01*
X73534796Y-81579650D01*
X73315831Y-81579650D01*
X73315831Y-80239581D01*
X73072779Y-80239581D01*
X73072779Y-81073839D01*
X73034186Y-80988443D01*
X72988477Y-80889908D01*
X72937020Y-80783162D01*
X72881184Y-80673132D01*
X72822337Y-80561186D01*
X72787095Y-80495645D01*
X72761848Y-80448693D01*
X72700538Y-80340031D01*
X72639227Y-80239581D01*
X72422451Y-80239581D01*
X72087788Y-80239581D01*
X72014081Y-80220968D01*
X71900317Y-80211268D01*
X71872848Y-80208925D01*
X71754059Y-80220147D01*
X71642934Y-80253813D01*
X71542757Y-80309923D01*
X71456813Y-80388477D01*
X71386197Y-80488928D01*
X71332003Y-80610727D01*
X71297516Y-80753328D01*
X71286020Y-80916184D01*
X71008208Y-80916184D01*
X71008208Y-78774625D01*
X72415937Y-78774625D01*
X72479278Y-78799072D01*
X72571512Y-78822408D01*
X72678192Y-78839077D01*
X72787095Y-78845745D01*
X72914333Y-78837410D01*
X73024902Y-78812407D01*
X73118803Y-78772402D01*
X73196035Y-78719062D01*
X73298270Y-78577933D01*
X73331607Y-78401245D01*
X73316544Y-78272340D01*
X73271353Y-78164178D01*
X73196035Y-78076760D01*
X73090095Y-78010578D01*
X72953041Y-77966128D01*
X72784872Y-77943410D01*
X72795985Y-77816727D01*
X72807097Y-77667820D01*
X73280490Y-77667820D01*
X73280490Y-77441125D01*
X73478292Y-77441125D01*
X73503851Y-77565585D01*
X73540522Y-77721160D01*
X73569909Y-77837594D01*
X73601764Y-77958720D01*
X73636090Y-78084538D01*
X73672390Y-78212826D01*
X73710173Y-78341361D01*
X73749437Y-78470142D01*
X73807778Y-78653498D01*
X73862785Y-78816852D01*
X74145042Y-78816852D01*
X74187517Y-78698442D01*
X74229003Y-78577316D01*
X74269502Y-78453473D01*
X74308396Y-78329013D01*
X74345067Y-78206035D01*
X74379516Y-78084538D01*
X74426744Y-77907572D01*
X74468416Y-77738940D01*
X74504254Y-77582253D01*
X74533980Y-77441125D01*
X74247277Y-77441125D01*
X74227275Y-77556695D01*
X74202827Y-77690045D01*
X74175046Y-77834229D01*
X74145042Y-77982303D01*
X74112816Y-78131211D01*
X74078367Y-78277896D01*
X74042807Y-78415413D01*
X74007247Y-78536817D01*
X73971409Y-78413746D01*
X73935016Y-78275673D01*
X73899456Y-78128988D01*
X73866118Y-77980081D01*
X73835281Y-77832285D01*
X73807222Y-77688933D01*
X73783886Y-77556417D01*
X73767217Y-77441125D01*
X73478292Y-77441125D01*
X73280490Y-77441125D01*
X72578180Y-77441125D01*
X72569845Y-77610868D01*
X72558177Y-77786723D01*
X72542620Y-77967579D01*
X72522617Y-78152325D01*
X72675414Y-78157047D01*
X72795985Y-78171216D01*
X72957116Y-78224556D01*
X73032681Y-78306788D01*
X73051572Y-78412357D01*
X73040460Y-78485700D01*
X72999343Y-78549041D01*
X72917111Y-78594602D01*
X72784872Y-78612382D01*
X72680970Y-78607381D01*
X72595960Y-78592380D01*
X72471500Y-78547930D01*
X72415937Y-78774625D01*
X71008208Y-78774625D01*
X71008208Y-78345682D01*
X71315800Y-78345682D01*
X71664732Y-78345682D01*
X71664732Y-78732397D01*
X71900317Y-78732397D01*
X71900317Y-78345682D01*
X72249250Y-78345682D01*
X72249250Y-78121210D01*
X71900317Y-78121210D01*
X71900317Y-77734495D01*
X71664732Y-77734495D01*
X71664732Y-78121210D01*
X71315800Y-78121210D01*
X71315800Y-78345682D01*
X71008208Y-78345682D01*
X71008208Y-77163312D01*
X71286020Y-77163312D01*
X74533980Y-77163312D01*
X74811792Y-77163312D01*
X74811792Y-87456688D01*
G37*
D11*
%TO.C,SW1*%
X68848000Y-57672000D02*
X60248000Y-57672000D01*
X68848000Y-53072000D02*
X66548000Y-53072000D01*
X66548000Y-53072000D02*
X66548000Y-52324000D01*
X66548000Y-52324000D02*
X64516000Y-52324000D01*
X64516000Y-53072000D02*
X64516000Y-52324000D01*
X64516000Y-53072000D02*
X60248000Y-53072000D01*
%TO.C,kibuzzard-64612FA6*%
G36*
X94523719Y-53410247D02*
G01*
X94226063Y-53410247D01*
X93852206Y-53410247D01*
X93225937Y-53410247D01*
X92928281Y-53410247D01*
X92928281Y-52698253D01*
X93225937Y-52698253D01*
X93599794Y-52698253D01*
X93599794Y-53112591D01*
X93852206Y-53112591D01*
X93852206Y-52698253D01*
X94226062Y-52698253D01*
X94226062Y-52457747D01*
X93852206Y-52457747D01*
X93852206Y-52043409D01*
X93599794Y-52043409D01*
X93599794Y-52457747D01*
X93225937Y-52457747D01*
X93225937Y-52698253D01*
X92928281Y-52698253D01*
X92928281Y-51745753D01*
X93225937Y-51745753D01*
X93225938Y-51745753D01*
X94226063Y-51745753D01*
X94523719Y-51745753D01*
X94523719Y-53410247D01*
G37*
D13*
%TO.C,D1*%
X90748000Y-56134000D02*
X91768000Y-56134000D01*
X91768000Y-54664000D02*
X91768000Y-57604000D01*
X91768000Y-57604000D02*
X97208000Y-57604000D01*
X97208000Y-54664000D02*
X91768000Y-54664000D01*
X97208000Y-57604000D02*
X97208000Y-54664000D01*
X98228000Y-56134000D02*
X97208000Y-56134000D01*
D12*
X91768000Y-54664000D02*
X92786200Y-54664000D01*
X92786200Y-54664000D02*
X92786200Y-57607200D01*
X92786200Y-57607200D02*
X91768000Y-57607200D01*
X91768000Y-57607200D02*
X91768000Y-54664000D01*
G36*
X91768000Y-54664000D02*
G01*
X92786200Y-54664000D01*
X92786200Y-57607200D01*
X91768000Y-57607200D01*
X91768000Y-54664000D01*
G37*
D13*
%TO.C,R1*%
X58509000Y-98520000D02*
X58509000Y-91980000D01*
X58839000Y-98520000D02*
X58509000Y-98520000D01*
X60541000Y-98520000D02*
X60871000Y-98520000D01*
X60871000Y-98520000D02*
X60871000Y-91980000D01*
X58509000Y-91980000D02*
X58839000Y-91980000D01*
X60871000Y-91980000D02*
X60541000Y-91980000D01*
%TD*%
%LPC*%
D15*
%TO.C,J242*%
X105410000Y-71120000D03*
%TD*%
%TO.C,J234*%
X107950000Y-63500000D03*
%TD*%
D16*
%TO.C,J155*%
X72390000Y-107950000D03*
%TD*%
D15*
%TO.C,J189*%
X57150000Y-91440000D03*
%TD*%
D16*
%TO.C,J175*%
X97790000Y-107950000D03*
%TD*%
D15*
%TO.C,J225*%
X57150000Y-66040000D03*
%TD*%
%TO.C,J142*%
X107950000Y-81280000D03*
%TD*%
%TO.C,J186*%
X57150000Y-83820000D03*
%TD*%
%TO.C,J144*%
X107950000Y-86360000D03*
%TD*%
D16*
%TO.C,J154*%
X69850000Y-107950000D03*
%TD*%
D15*
%TO.C,J226*%
X52070000Y-68580000D03*
%TD*%
%TO.C,J137*%
X105410000Y-93980000D03*
%TD*%
%TO.C,J149*%
X107950000Y-99060000D03*
%TD*%
%TO.C,J237*%
X107950000Y-66040000D03*
%TD*%
%TO.C,J140*%
X107950000Y-76200000D03*
%TD*%
%TO.C,J132*%
X105410000Y-81280000D03*
%TD*%
D16*
%TO.C,J158*%
X80010000Y-107950000D03*
%TD*%
D15*
%TO.C,J111*%
X54610000Y-78740000D03*
%TD*%
%TO.C,J124*%
X102870000Y-86360000D03*
%TD*%
D16*
%TO.C,J174*%
X95250000Y-107950000D03*
%TD*%
D15*
%TO.C,J143*%
X107950000Y-83820000D03*
%TD*%
%TO.C,J145*%
X107950000Y-88900000D03*
%TD*%
%TO.C,J236*%
X105410000Y-66040000D03*
%TD*%
%TO.C,J232*%
X102870000Y-63500000D03*
%TD*%
%TO.C,J133*%
X105410000Y-83820000D03*
%TD*%
%TO.C,J148*%
X107950000Y-96520000D03*
%TD*%
D16*
%TO.C,J196*%
X59690000Y-101600000D03*
%TD*%
%TO.C,J160*%
X59690000Y-105410000D03*
%TD*%
D17*
%TO.C,LED2*%
X99060000Y-83820000D03*
X99060000Y-101600000D03*
D18*
X97155000Y-97790000D03*
X97155000Y-95250000D03*
X97155000Y-92710000D03*
X97155000Y-90170000D03*
X97155000Y-87630000D03*
%TD*%
D15*
%TO.C,J233*%
X105410000Y-63500000D03*
%TD*%
%TO.C,J128*%
X102870000Y-96520000D03*
%TD*%
D16*
%TO.C,J164*%
X69850000Y-105410000D03*
%TD*%
D15*
%TO.C,J102*%
X52070000Y-81280000D03*
%TD*%
%TO.C,J230*%
X54610000Y-71120000D03*
%TD*%
D16*
%TO.C,J173*%
X92710000Y-107950000D03*
%TD*%
D15*
%TO.C,J109*%
X52070000Y-99060000D03*
%TD*%
%TO.C,J108*%
X52070000Y-96520000D03*
%TD*%
%TO.C,J235*%
X102870000Y-66040000D03*
%TD*%
%TO.C,J227*%
X54610000Y-68580000D03*
%TD*%
D16*
%TO.C,J165*%
X72390000Y-105410000D03*
%TD*%
D15*
%TO.C,J134*%
X105410000Y-86360000D03*
%TD*%
D16*
%TO.C,J194*%
X54610000Y-101600000D03*
%TD*%
%TO.C,J169*%
X82550000Y-105410000D03*
%TD*%
D19*
%TO.C,BT1*%
X96256000Y-52578000D03*
D20*
X98796000Y-52578000D03*
%TD*%
D16*
%TO.C,J162*%
X64769999Y-105410000D03*
%TD*%
D15*
%TO.C,J198*%
X105410000Y-101600000D03*
%TD*%
%TO.C,J231*%
X57150000Y-71120000D03*
%TD*%
%TO.C,J191*%
X57150000Y-96520000D03*
%TD*%
D16*
%TO.C,J172*%
X90169999Y-107950000D03*
%TD*%
D15*
%TO.C,J138*%
X105410000Y-96520000D03*
%TD*%
%TO.C,J113*%
X54610000Y-83820000D03*
%TD*%
%TO.C,J135*%
X105410000Y-88900000D03*
%TD*%
D21*
%TO.C,J2*%
X59690000Y-81280000D03*
D20*
X59690000Y-83820000D03*
X59690000Y-86360000D03*
X59690000Y-88900000D03*
%TD*%
D15*
%TO.C,J223*%
X52070000Y-66040000D03*
%TD*%
D17*
%TO.C,LED1*%
X67310000Y-83820000D03*
X67310000Y-101600000D03*
X92710000Y-83820000D03*
X92710000Y-101600000D03*
D18*
X65405000Y-97790000D03*
X94615000Y-97790000D03*
X65405000Y-95250000D03*
X94615000Y-95250000D03*
X65405000Y-92710000D03*
X94615000Y-92710000D03*
X65405000Y-90170000D03*
X94615000Y-90170000D03*
X65405000Y-87630000D03*
X94615000Y-87630000D03*
%TD*%
D16*
%TO.C,J171*%
X87630000Y-107950000D03*
%TD*%
D15*
%TO.C,J106*%
X52070000Y-91440000D03*
%TD*%
D16*
%TO.C,J153*%
X67310000Y-107950000D03*
%TD*%
D15*
%TO.C,J121*%
X102870000Y-78740000D03*
%TD*%
%TO.C,J107*%
X52070000Y-93980000D03*
%TD*%
D21*
%TO.C,J1*%
X62230000Y-81280000D03*
D20*
X62230000Y-83820000D03*
X62230000Y-86360000D03*
X62230000Y-88900000D03*
%TD*%
D15*
%TO.C,J221*%
X54610000Y-63500000D03*
%TD*%
%TO.C,J127*%
X102870000Y-93980000D03*
%TD*%
D16*
%TO.C,J176*%
X85090000Y-105410000D03*
%TD*%
D15*
%TO.C,J229*%
X52070000Y-71120000D03*
%TD*%
%TO.C,J222*%
X57150000Y-63500000D03*
%TD*%
%TO.C,J192*%
X57150000Y-99060000D03*
%TD*%
D16*
%TO.C,J178*%
X90169999Y-105410000D03*
%TD*%
D15*
%TO.C,J125*%
X102870000Y-88900000D03*
%TD*%
%TO.C,J117*%
X54610000Y-93980000D03*
%TD*%
%TO.C,J100*%
X52070000Y-76200000D03*
%TD*%
%TO.C,J184*%
X57150000Y-78740000D03*
%TD*%
D16*
%TO.C,J170*%
X85090000Y-107950000D03*
%TD*%
D15*
%TO.C,J110*%
X54610000Y-76200000D03*
%TD*%
D16*
%TO.C,J151*%
X62230000Y-107950000D03*
%TD*%
%TO.C,J167*%
X77470001Y-105410000D03*
%TD*%
%TO.C,J193*%
X52070000Y-101600000D03*
%TD*%
%TO.C,J157*%
X77470001Y-107950000D03*
%TD*%
D15*
%TO.C,J123*%
X102870000Y-83820000D03*
%TD*%
%TO.C,J187*%
X57150000Y-86360000D03*
%TD*%
%TO.C,J182*%
X100330000Y-105410000D03*
%TD*%
%TO.C,J220*%
X52070000Y-63500000D03*
%TD*%
D16*
%TO.C,J177*%
X87630000Y-105410000D03*
%TD*%
D22*
%TO.C,R2*%
X62230000Y-99060000D03*
D23*
X62230000Y-91440000D03*
%TD*%
D15*
%TO.C,J243*%
X107950000Y-71120000D03*
%TD*%
%TO.C,J115*%
X54610000Y-88900000D03*
%TD*%
%TO.C,J199*%
X107950000Y-101600000D03*
%TD*%
%TO.C,J188*%
X57150000Y-88900000D03*
%TD*%
%TO.C,J147*%
X107950000Y-93980000D03*
%TD*%
D24*
%TO.C,J179*%
X92710000Y-105410000D03*
%TD*%
D15*
%TO.C,J141*%
X107950000Y-78740000D03*
%TD*%
D24*
%TO.C,J163*%
X67310000Y-105410000D03*
%TD*%
D15*
%TO.C,J139*%
X105410000Y-99060000D03*
%TD*%
%TO.C,J118*%
X54610000Y-96520000D03*
%TD*%
%TO.C,J112*%
X54610000Y-81280000D03*
%TD*%
%TO.C,J116*%
X54610000Y-91440000D03*
%TD*%
%TO.C,J185*%
X57150000Y-81280000D03*
%TD*%
%TO.C,J120*%
X102870000Y-76200000D03*
%TD*%
D16*
%TO.C,J195*%
X57149999Y-101600000D03*
%TD*%
%TO.C,J197*%
X102870000Y-101600000D03*
%TD*%
D24*
%TO.C,J181*%
X97790000Y-105410000D03*
%TD*%
D16*
%TO.C,J180*%
X95250000Y-105410000D03*
%TD*%
D25*
%TO.C,U1*%
X100330000Y-59690000D03*
X59690000Y-59690000D03*
X100330000Y-74930000D03*
X59690000Y-74930000D03*
D26*
X64770000Y-74930000D03*
X90170000Y-74930000D03*
D27*
X69850000Y-74930000D03*
X72390000Y-74930000D03*
X74930000Y-74930000D03*
X77470000Y-74930000D03*
X80010000Y-74930000D03*
X82550000Y-74930000D03*
X85090000Y-74930000D03*
X87630000Y-74930000D03*
X67310000Y-74930000D03*
X95250000Y-59690000D03*
X97790000Y-59690000D03*
X87630000Y-59690000D03*
X85090000Y-59690000D03*
X82550000Y-59690000D03*
X80010000Y-59690000D03*
X77470000Y-59690000D03*
X74930000Y-59690000D03*
X72390000Y-59690000D03*
X69850000Y-59690000D03*
X67310000Y-59690000D03*
X64770000Y-59690000D03*
X62230000Y-59690000D03*
X62230000Y-74930000D03*
D28*
X90170000Y-59690000D03*
X95250000Y-74930000D03*
D27*
X92710000Y-59690000D03*
X92710000Y-74930000D03*
D26*
X97790000Y-74930000D03*
%TD*%
D16*
%TO.C,J150*%
X59690000Y-107950000D03*
%TD*%
D15*
%TO.C,J238*%
X102870000Y-68580000D03*
%TD*%
%TO.C,J122*%
X102870000Y-81280000D03*
%TD*%
%TO.C,J183*%
X100330000Y-107950000D03*
%TD*%
%TO.C,J126*%
X102870000Y-91440000D03*
%TD*%
%TO.C,J103*%
X52070000Y-83820000D03*
%TD*%
%TO.C,J131*%
X105410000Y-78740000D03*
%TD*%
%TO.C,J136*%
X105410000Y-91440000D03*
%TD*%
D29*
%TO.C,SW1*%
X68648000Y-55372000D03*
X60448000Y-55372000D03*
D30*
X66548000Y-55372000D03*
D31*
X64548000Y-55372000D03*
X62548000Y-55372000D03*
%TD*%
D15*
%TO.C,J114*%
X54610000Y-86360000D03*
%TD*%
%TO.C,J104*%
X52070000Y-86360000D03*
%TD*%
%TO.C,J228*%
X57150000Y-68580000D03*
%TD*%
D16*
%TO.C,J156*%
X74930000Y-107950000D03*
%TD*%
D15*
%TO.C,J130*%
X105410000Y-76200000D03*
%TD*%
%TO.C,J119*%
X54610000Y-99060000D03*
%TD*%
D16*
%TO.C,J152*%
X64769999Y-107950000D03*
%TD*%
%TO.C,J168*%
X80010000Y-105410000D03*
%TD*%
%TO.C,J166*%
X74930000Y-105410000D03*
%TD*%
D15*
%TO.C,J241*%
X102870000Y-71120000D03*
%TD*%
%TO.C,J239*%
X105410000Y-68580000D03*
%TD*%
%TO.C,J105*%
X52070000Y-88900000D03*
%TD*%
%TO.C,J101*%
X52070000Y-78740000D03*
%TD*%
%TO.C,J129*%
X102870000Y-99060000D03*
%TD*%
D16*
%TO.C,J161*%
X62230000Y-105410000D03*
%TD*%
D32*
%TO.C,D1*%
X89408000Y-56134000D03*
D33*
X99568000Y-56134000D03*
%TD*%
D15*
%TO.C,J224*%
X54610000Y-66040000D03*
%TD*%
D22*
%TO.C,R1*%
X59690000Y-99060000D03*
D23*
X59690000Y-91440000D03*
%TD*%
D16*
%TO.C,J159*%
X82550000Y-107950000D03*
%TD*%
D15*
%TO.C,J190*%
X57150000Y-93980000D03*
%TD*%
%TO.C,J240*%
X107950000Y-68580000D03*
%TD*%
%TO.C,J146*%
X107950000Y-91440000D03*
%TD*%
D16*
%TO.C,J10*%
X87630000Y-62230000D03*
%TD*%
%TO.C,J25*%
X97790000Y-62230000D03*
%TD*%
%TO.C,J18*%
X67310000Y-62230000D03*
%TD*%
%TO.C,J35*%
X97790000Y-72390000D03*
%TD*%
%TO.C,J32*%
X72390000Y-72390000D03*
%TD*%
%TO.C,J24*%
X95250000Y-62230000D03*
%TD*%
%TO.C,J13*%
X80010000Y-62230000D03*
%TD*%
%TO.C,J20*%
X62230000Y-62230000D03*
%TD*%
%TO.C,J11*%
X85090000Y-62230000D03*
%TD*%
%TO.C,J22*%
X92709999Y-62230000D03*
%TD*%
%TO.C,J39*%
X90170000Y-62230000D03*
%TD*%
%TO.C,J36*%
X90170000Y-72390000D03*
%TD*%
%TO.C,J21*%
X62230000Y-72390000D03*
%TD*%
%TO.C,J26*%
X87630000Y-72390000D03*
%TD*%
%TO.C,J34*%
X67310000Y-72390000D03*
%TD*%
%TO.C,J29*%
X80010000Y-72390000D03*
%TD*%
%TO.C,J17*%
X69849999Y-62230000D03*
%TD*%
%TO.C,J12*%
X82550001Y-62230000D03*
%TD*%
%TO.C,J23*%
X92710000Y-72389999D03*
%TD*%
%TO.C,J16*%
X72390000Y-62230000D03*
%TD*%
%TO.C,J38*%
X95250000Y-72390000D03*
%TD*%
%TO.C,J33*%
X69850000Y-72389999D03*
%TD*%
%TO.C,J27*%
X85090000Y-72390000D03*
%TD*%
%TO.C,J37*%
X64770000Y-72390000D03*
%TD*%
%TO.C,J30*%
X77470000Y-72390000D03*
%TD*%
%TO.C,J15*%
X74930000Y-62230000D03*
%TD*%
%TO.C,J28*%
X82550000Y-72389999D03*
%TD*%
%TO.C,J31*%
X74930000Y-72390000D03*
%TD*%
%TO.C,J14*%
X77470000Y-62230000D03*
%TD*%
%TO.C,J19*%
X64770000Y-62230000D03*
%TD*%
%LPD*%
M02*
