%TF.GenerationSoftware,KiCad,Pcbnew,8.0.2-8.0.2-0~ubuntu22.04.1*%
%TF.CreationDate,2024-05-13T05:44:20+05:30*%
%TF.ProjectId,BagTag,42616754-6167-42e6-9b69-6361645f7063,v4*%
%TF.SameCoordinates,Original*%
%TF.FileFunction,Legend,Top*%
%TF.FilePolarity,Positive*%
%FSLAX46Y46*%
G04 Gerber Fmt 4.6, Leading zero omitted, Abs format (unit mm)*
G04 Created by KiCad (PCBNEW 8.0.2-8.0.2-0~ubuntu22.04.1) date 2024-05-13 05:44:20*
%MOMM*%
%LPD*%
G01*
G04 APERTURE LIST*
G04 Aperture macros list*
%AMRoundRect*
0 Rectangle with rounded corners*
0 $1 Rounding radius*
0 $2 $3 $4 $5 $6 $7 $8 $9 X,Y pos of 4 corners*
0 Add a 4 corners polygon primitive as box body*
4,1,4,$2,$3,$4,$5,$6,$7,$8,$9,$2,$3,0*
0 Add four circle primitives for the rounded corners*
1,1,$1+$1,$2,$3*
1,1,$1+$1,$4,$5*
1,1,$1+$1,$6,$7*
1,1,$1+$1,$8,$9*
0 Add four rect primitives between the rounded corners*
20,1,$1+$1,$2,$3,$4,$5,0*
20,1,$1+$1,$4,$5,$6,$7,0*
20,1,$1+$1,$6,$7,$8,$9,0*
20,1,$1+$1,$8,$9,$2,$3,0*%
%AMOutline5P*
0 Free polygon, 5 corners , with rotation*
0 The origin of the aperture is its center*
0 number of corners: always 5*
0 $1 to $10 corner X, Y*
0 $11 Rotation angle, in degrees counterclockwise*
0 create outline with 5 corners*
4,1,5,$1,$2,$3,$4,$5,$6,$7,$8,$9,$10,$1,$2,$11*%
%AMOutline6P*
0 Free polygon, 6 corners , with rotation*
0 The origin of the aperture is its center*
0 number of corners: always 6*
0 $1 to $12 corner X, Y*
0 $13 Rotation angle, in degrees counterclockwise*
0 create outline with 6 corners*
4,1,6,$1,$2,$3,$4,$5,$6,$7,$8,$9,$10,$11,$12,$1,$2,$13*%
%AMOutline7P*
0 Free polygon, 7 corners , with rotation*
0 The origin of the aperture is its center*
0 number of corners: always 7*
0 $1 to $14 corner X, Y*
0 $15 Rotation angle, in degrees counterclockwise*
0 create outline with 7 corners*
4,1,7,$1,$2,$3,$4,$5,$6,$7,$8,$9,$10,$11,$12,$13,$14,$1,$2,$15*%
%AMOutline8P*
0 Free polygon, 8 corners , with rotation*
0 The origin of the aperture is its center*
0 number of corners: always 8*
0 $1 to $16 corner X, Y*
0 $17 Rotation angle, in degrees counterclockwise*
0 create outline with 8 corners*
4,1,8,$1,$2,$3,$4,$5,$6,$7,$8,$9,$10,$11,$12,$13,$14,$15,$16,$1,$2,$17*%
G04 Aperture macros list end*
%ADD10C,1.016000*%
%ADD11C,0.150000*%
%ADD12C,0.100000*%
%ADD13C,0.120000*%
%ADD14C,0.000000*%
%ADD15C,0.160000*%
%ADD16RoundRect,0.425000X-0.425000X-0.425000X0.425000X-0.425000X0.425000X0.425000X-0.425000X0.425000X0*%
%ADD17O,1.700000X1.700000*%
%ADD18RoundRect,0.425000X-0.425000X0.425000X-0.425000X-0.425000X0.425000X-0.425000X0.425000X0.425000X0*%
%ADD19R,1.700000X1.700000*%
%ADD20RoundRect,0.444500X0.444500X0.444500X-0.444500X0.444500X-0.444500X-0.444500X0.444500X-0.444500X0*%
%ADD21O,1.778000X1.778000*%
%ADD22Outline8P,-0.850000X0.340000X-0.340000X0.850000X0.340000X0.850000X0.850000X0.340000X0.850000X-0.340000X0.340000X-0.850000X-0.340000X-0.850000X-0.850000X-0.340000X180.000000*%
%ADD23C,3.048000*%
%ADD24O,2.032000X1.524000*%
%ADD25C,1.600000*%
%ADD26O,1.600000X1.600000*%
%ADD27C,2.032000*%
%ADD28Outline8P,-1.143000X0.254000X-0.762000X0.635000X0.762000X0.635000X1.143000X0.254000X1.143000X-0.254000X0.762000X-0.635000X-0.762000X-0.635000X-1.143000X-0.254000X270.000000*%
%ADD29O,1.270000X2.286000*%
%ADD30RoundRect,0.317500X-0.317500X0.825500X-0.317500X-0.825500X0.317500X-0.825500X0.317500X0.825500X0*%
%ADD31O,3.302000X2.032000*%
%ADD32O,2.540000X1.270000*%
%ADD33RoundRect,0.317500X0.952500X-0.317500X0.952500X0.317500X-0.952500X0.317500X-0.952500X-0.317500X0*%
G04 APERTURE END LIST*
D10*
X56896000Y-105410000D02*
G75*
G02*
X52324000Y-105410000I-2286000J0D01*
G01*
X52324000Y-105410000D02*
G75*
G02*
X56896000Y-105410000I2286000J0D01*
G01*
X107696000Y-49530000D02*
G75*
G02*
X103124000Y-49530000I-2286000J0D01*
G01*
X103124000Y-49530000D02*
G75*
G02*
X107696000Y-49530000I2286000J0D01*
G01*
X107696000Y-105410000D02*
G75*
G02*
X103124000Y-105410000I-2286000J0D01*
G01*
X103124000Y-105410000D02*
G75*
G02*
X107696000Y-105410000I2286000J0D01*
G01*
X56896000Y-49530000D02*
G75*
G02*
X52324000Y-49530000I-2286000J0D01*
G01*
X52324000Y-49530000D02*
G75*
G02*
X56896000Y-49530000I2286000J0D01*
G01*
D11*
G36*
X65478232Y-107393741D02*
G01*
X65478232Y-105680136D01*
X65961133Y-105680136D01*
X66343719Y-107018537D01*
X66726306Y-105680136D01*
X67211813Y-105680136D01*
X67211813Y-107393741D01*
X66931712Y-107393741D01*
X66931712Y-105988029D01*
X66893931Y-105988029D01*
X66488763Y-107323824D01*
X66198675Y-107323824D01*
X65793507Y-105988029D01*
X65755726Y-105988029D01*
X65755726Y-107393741D01*
X65478232Y-107393741D01*
G37*
G36*
X68149603Y-106120440D02*
G01*
X68242087Y-106137458D01*
X68327056Y-106171397D01*
X68385628Y-106214714D01*
X68438986Y-106287691D01*
X68470112Y-106372805D01*
X68484341Y-106463919D01*
X68486811Y-106528253D01*
X68486811Y-107098441D01*
X68515472Y-107180083D01*
X68597114Y-107213521D01*
X68589732Y-107421099D01*
X68500172Y-107416673D01*
X68409268Y-107400775D01*
X68321601Y-107369069D01*
X68256651Y-107328601D01*
X68169110Y-107364643D01*
X68081278Y-107391832D01*
X67993155Y-107410169D01*
X67904741Y-107419654D01*
X67854089Y-107421099D01*
X67766761Y-107414891D01*
X67673975Y-107389668D01*
X67599383Y-107345044D01*
X67533887Y-107265884D01*
X67499320Y-107178575D01*
X67482946Y-107071865D01*
X67481569Y-107026353D01*
X67754208Y-107026353D01*
X67769093Y-107117269D01*
X67832952Y-107185119D01*
X67906635Y-107198756D01*
X67994415Y-107194035D01*
X68085787Y-107179872D01*
X68171970Y-107158804D01*
X68216699Y-107143605D01*
X68216699Y-106810959D01*
X67926611Y-106838317D01*
X67835695Y-106863211D01*
X67774580Y-106926155D01*
X67754376Y-107015705D01*
X67754208Y-107026353D01*
X67481569Y-107026353D01*
X67481490Y-107023748D01*
X67487814Y-106935212D01*
X67513505Y-106843016D01*
X67564591Y-106765307D01*
X67582674Y-106748425D01*
X67656558Y-106701843D01*
X67741256Y-106671232D01*
X67831020Y-106653020D01*
X67894041Y-106645938D01*
X68216699Y-106618145D01*
X68216699Y-106528253D01*
X68204320Y-106439043D01*
X68172838Y-106388420D01*
X68093422Y-106351977D01*
X68044296Y-106348033D01*
X67947839Y-106349613D01*
X67851486Y-106353671D01*
X67758985Y-106359270D01*
X67658836Y-106366780D01*
X67643905Y-106368009D01*
X67564000Y-106373221D01*
X67554012Y-106180407D01*
X67654740Y-106158418D01*
X67752383Y-106140978D01*
X67846942Y-106128087D01*
X67938417Y-106119746D01*
X68026809Y-106115955D01*
X68055587Y-106115702D01*
X68149603Y-106120440D01*
G37*
G36*
X69095215Y-107393741D02*
G01*
X68822497Y-107393741D01*
X68822497Y-105622813D01*
X69095215Y-105622813D01*
X69095215Y-106645938D01*
X69250247Y-106630739D01*
X69545546Y-106143061D01*
X69850834Y-106143061D01*
X69490395Y-106728448D01*
X69870810Y-107393741D01*
X69562917Y-107393741D01*
X69257629Y-106866110D01*
X69095215Y-106883481D01*
X69095215Y-107393741D01*
G37*
G36*
X70613427Y-106120737D02*
G01*
X70724175Y-106143111D01*
X70818515Y-106183386D01*
X70896449Y-106241560D01*
X70957975Y-106317634D01*
X71003094Y-106411608D01*
X71031807Y-106523482D01*
X71042574Y-106619134D01*
X71044625Y-106688496D01*
X71027254Y-106883481D01*
X70252093Y-106883481D01*
X70259600Y-106972318D01*
X70284841Y-107057651D01*
X70319404Y-107111035D01*
X70397930Y-107160610D01*
X70489834Y-107180087D01*
X70562158Y-107183557D01*
X70651589Y-107182634D01*
X70742269Y-107179866D01*
X70834197Y-107175252D01*
X70927373Y-107168792D01*
X70997290Y-107160975D01*
X71002501Y-107363776D01*
X70914932Y-107380290D01*
X70814047Y-107396412D01*
X70717742Y-107408504D01*
X70626017Y-107416565D01*
X70538873Y-107420595D01*
X70497018Y-107421099D01*
X70398438Y-107415740D01*
X70310821Y-107399664D01*
X70222454Y-107367363D01*
X70149008Y-107320474D01*
X70097930Y-107268673D01*
X70050720Y-107193237D01*
X70015106Y-107100305D01*
X69993808Y-107006723D01*
X69982568Y-106918918D01*
X69977243Y-106822187D01*
X69976770Y-106780994D01*
X69981092Y-106673297D01*
X70249488Y-106673297D01*
X70777118Y-106673297D01*
X70772446Y-106578030D01*
X70754048Y-106485478D01*
X70718058Y-106414476D01*
X70645158Y-106361486D01*
X70552957Y-106341804D01*
X70519166Y-106340651D01*
X70432010Y-106349836D01*
X70352164Y-106384376D01*
X70315496Y-106418384D01*
X70274015Y-106497745D01*
X70254590Y-106590760D01*
X70249488Y-106673297D01*
X69981092Y-106673297D01*
X69981541Y-106662099D01*
X69995854Y-106554899D01*
X70019709Y-106459393D01*
X70053105Y-106375582D01*
X70112477Y-106282025D01*
X70188813Y-106209259D01*
X70282112Y-106157283D01*
X70392374Y-106126097D01*
X70486203Y-106116352D01*
X70519600Y-106115702D01*
X70613427Y-106120737D01*
G37*
G36*
X71301275Y-107393741D02*
G01*
X71301275Y-106143061D01*
X71571387Y-106143061D01*
X71571387Y-106293316D01*
X71651167Y-106245128D01*
X71730918Y-106203810D01*
X71823921Y-106164289D01*
X71916883Y-106134119D01*
X71996531Y-106115702D01*
X71996531Y-106387986D01*
X71905478Y-106407810D01*
X71820410Y-106430045D01*
X71730517Y-106458408D01*
X71648441Y-106489919D01*
X71629144Y-106498289D01*
X71573992Y-106520870D01*
X71573992Y-107393741D01*
X71301275Y-107393741D01*
G37*
G36*
X72194555Y-106260746D02*
G01*
X72186738Y-105680136D01*
X72452074Y-105680136D01*
X72434703Y-106260746D01*
X72194555Y-106260746D01*
G37*
G36*
X73626757Y-106400579D02*
G01*
X73538452Y-106389070D01*
X73442982Y-106377833D01*
X73346072Y-106368274D01*
X73254401Y-106362032D01*
X73199007Y-106360627D01*
X73111028Y-106365024D01*
X73025279Y-106386306D01*
X73014879Y-106391894D01*
X72965438Y-106466784D01*
X72963636Y-106490906D01*
X72998093Y-106571959D01*
X73020091Y-106586010D01*
X73106509Y-106613662D01*
X73201334Y-106634324D01*
X73285426Y-106649847D01*
X73370993Y-106667611D01*
X73454534Y-106692798D01*
X73537587Y-106731610D01*
X73581594Y-106763624D01*
X73635049Y-106838514D01*
X73660748Y-106926766D01*
X73668972Y-107014284D01*
X73669315Y-107038513D01*
X73661417Y-107130739D01*
X73633650Y-107218792D01*
X73579350Y-107297130D01*
X73542944Y-107328601D01*
X73462655Y-107373314D01*
X73375829Y-107400775D01*
X73287923Y-107415318D01*
X73188878Y-107421009D01*
X73173820Y-107421099D01*
X73081725Y-107417733D01*
X72989193Y-107409088D01*
X72899990Y-107397160D01*
X72803097Y-107381160D01*
X72788628Y-107378541D01*
X72711329Y-107366382D01*
X72721317Y-107138393D01*
X72810999Y-107150028D01*
X72907812Y-107161387D01*
X73005865Y-107171050D01*
X73098282Y-107177360D01*
X73153844Y-107178780D01*
X73242698Y-107174200D01*
X73327543Y-107153844D01*
X73342749Y-107146210D01*
X73395675Y-107073417D01*
X73399203Y-107038513D01*
X73371385Y-106954521D01*
X73345354Y-106934724D01*
X73261856Y-106906709D01*
X73169507Y-106886760D01*
X73087402Y-106872190D01*
X72992352Y-106852838D01*
X72901643Y-106825292D01*
X72820998Y-106787515D01*
X72788628Y-106765795D01*
X72730674Y-106694549D01*
X72702812Y-106609426D01*
X72693617Y-106512801D01*
X72693524Y-106500894D01*
X72701721Y-106410594D01*
X72730538Y-106323606D01*
X72780102Y-106252076D01*
X72824672Y-106212977D01*
X72904526Y-106167004D01*
X72996060Y-106136077D01*
X73087228Y-106121217D01*
X73161661Y-106117874D01*
X73257324Y-106121068D01*
X73352048Y-106129272D01*
X73442412Y-106140591D01*
X73539758Y-106155775D01*
X73554235Y-106158260D01*
X73631534Y-106173025D01*
X73626757Y-106400579D01*
G37*
G36*
X75758992Y-107393741D02*
G01*
X75478892Y-107393741D01*
X75386394Y-107025919D01*
X74728484Y-107025919D01*
X74635986Y-107393741D01*
X74358057Y-107393741D01*
X74509303Y-106780994D01*
X74783202Y-106780994D01*
X75331242Y-106780994D01*
X75121059Y-105912901D01*
X74995991Y-105912901D01*
X74783202Y-106780994D01*
X74509303Y-106780994D01*
X74781030Y-105680136D01*
X75333848Y-105680136D01*
X75758992Y-107393741D01*
G37*
G36*
X76831624Y-106400579D02*
G01*
X76743319Y-106389070D01*
X76647848Y-106377833D01*
X76550938Y-106368274D01*
X76459268Y-106362032D01*
X76403874Y-106360627D01*
X76315895Y-106365024D01*
X76230146Y-106386306D01*
X76219746Y-106391894D01*
X76170305Y-106466784D01*
X76168503Y-106490906D01*
X76202960Y-106571959D01*
X76224957Y-106586010D01*
X76311375Y-106613662D01*
X76406201Y-106634324D01*
X76490293Y-106649847D01*
X76575859Y-106667611D01*
X76659401Y-106692798D01*
X76742454Y-106731610D01*
X76786460Y-106763624D01*
X76839916Y-106838514D01*
X76865615Y-106926766D01*
X76873839Y-107014284D01*
X76874182Y-107038513D01*
X76866284Y-107130739D01*
X76838517Y-107218792D01*
X76784217Y-107297130D01*
X76747811Y-107328601D01*
X76667521Y-107373314D01*
X76580696Y-107400775D01*
X76492790Y-107415318D01*
X76393745Y-107421009D01*
X76378687Y-107421099D01*
X76286592Y-107417733D01*
X76194060Y-107409088D01*
X76104856Y-107397160D01*
X76007964Y-107381160D01*
X75993495Y-107378541D01*
X75916196Y-107366382D01*
X75926184Y-107138393D01*
X76015865Y-107150028D01*
X76112679Y-107161387D01*
X76210732Y-107171050D01*
X76303149Y-107177360D01*
X76358711Y-107178780D01*
X76447565Y-107174200D01*
X76532409Y-107153844D01*
X76547615Y-107146210D01*
X76600541Y-107073417D01*
X76604070Y-107038513D01*
X76576251Y-106954521D01*
X76550221Y-106934724D01*
X76466723Y-106906709D01*
X76374374Y-106886760D01*
X76292268Y-106872190D01*
X76197219Y-106852838D01*
X76106509Y-106825292D01*
X76025865Y-106787515D01*
X75993495Y-106765795D01*
X75935541Y-106694549D01*
X75907678Y-106609426D01*
X75898484Y-106512801D01*
X75898391Y-106500894D01*
X75906588Y-106410594D01*
X75935404Y-106323606D01*
X75984969Y-106252076D01*
X76029539Y-106212977D01*
X76109393Y-106167004D01*
X76200927Y-106136077D01*
X76292095Y-106121217D01*
X76366527Y-106117874D01*
X76462191Y-106121068D01*
X76556915Y-106129272D01*
X76647279Y-106140591D01*
X76744625Y-106155775D01*
X76759102Y-106158260D01*
X76836401Y-106173025D01*
X76831624Y-106400579D01*
G37*
G36*
X76996644Y-106143061D02*
G01*
X77264585Y-106143061D01*
X77529486Y-107160975D01*
X77597231Y-107160975D01*
X77862132Y-106143061D01*
X78132244Y-106143061D01*
X77657159Y-107931359D01*
X77389653Y-107931359D01*
X77539474Y-107393741D01*
X77324513Y-107393741D01*
X76996644Y-106143061D01*
G37*
G36*
X78351547Y-107393741D02*
G01*
X78351547Y-105622813D01*
X78624265Y-105622813D01*
X78624265Y-107393741D01*
X78351547Y-107393741D01*
G37*
G36*
X79722952Y-106143061D02*
G01*
X79993498Y-106143061D01*
X79993498Y-107393741D01*
X79722952Y-107393741D01*
X79722952Y-107316007D01*
X79644465Y-107356956D01*
X79557972Y-107391439D01*
X79464755Y-107414531D01*
X79385529Y-107421099D01*
X79294929Y-107416229D01*
X79204319Y-107398236D01*
X79120662Y-107361439D01*
X79051918Y-107299344D01*
X79040289Y-107282569D01*
X79001911Y-107200032D01*
X78977325Y-107106393D01*
X78962934Y-107010221D01*
X78955652Y-106918858D01*
X78952654Y-106817296D01*
X78952568Y-106795759D01*
X78952568Y-106143061D01*
X79225286Y-106143061D01*
X79225286Y-106798365D01*
X79227073Y-106889905D01*
X79233492Y-106977219D01*
X79249940Y-107067140D01*
X79262632Y-107101481D01*
X79330964Y-107161795D01*
X79421258Y-107178478D01*
X79438075Y-107178780D01*
X79528258Y-107172827D01*
X79620552Y-107152756D01*
X79685605Y-107128405D01*
X79722952Y-107113640D01*
X79722952Y-106143061D01*
G37*
G36*
X80589308Y-107393741D02*
G01*
X80316591Y-107393741D01*
X80316591Y-106143061D01*
X80586703Y-106143061D01*
X80586703Y-106220794D01*
X80673637Y-106174816D01*
X80756826Y-106141975D01*
X80845936Y-106120731D01*
X80911966Y-106115702D01*
X81001541Y-106121562D01*
X81090171Y-106142610D01*
X81172362Y-106184587D01*
X81229847Y-106238165D01*
X81315089Y-106196546D01*
X81400147Y-106163539D01*
X81485022Y-106139142D01*
X81583811Y-106121562D01*
X81682350Y-106115702D01*
X81774597Y-106122352D01*
X81864448Y-106146236D01*
X81945677Y-106193870D01*
X82000231Y-106254667D01*
X82040699Y-106335901D01*
X82066624Y-106426619D01*
X82081800Y-106518964D01*
X82089478Y-106606205D01*
X82092639Y-106702797D01*
X82092730Y-106723237D01*
X82092730Y-107393741D01*
X81822617Y-107393741D01*
X81822617Y-106731054D01*
X81820039Y-106637009D01*
X81810974Y-106548792D01*
X81788735Y-106460131D01*
X81781362Y-106443137D01*
X81717851Y-106379300D01*
X81625765Y-106358354D01*
X81609828Y-106358021D01*
X81522969Y-106365105D01*
X81431102Y-106386357D01*
X81367075Y-106408396D01*
X81324517Y-106425767D01*
X81338469Y-106511607D01*
X81342934Y-106598500D01*
X81344748Y-106697108D01*
X81344927Y-106745819D01*
X81344927Y-107393741D01*
X81074381Y-107393741D01*
X81074381Y-106751030D01*
X81072469Y-106660152D01*
X81065602Y-106572424D01*
X81049996Y-106486963D01*
X81034429Y-106443137D01*
X80970701Y-106379300D01*
X80883908Y-106358769D01*
X80859420Y-106358021D01*
X80768062Y-106365105D01*
X80681589Y-106386357D01*
X80626655Y-106408396D01*
X80589308Y-106423161D01*
X80589308Y-107393741D01*
G37*
G36*
X82963428Y-107931359D02*
G01*
X82963428Y-105622813D01*
X83233541Y-105622813D01*
X83233541Y-107931359D01*
X82963428Y-107931359D01*
G37*
G36*
X84899280Y-105683876D02*
G01*
X84996831Y-105697695D01*
X85081706Y-105721696D01*
X85163185Y-105761594D01*
X85197716Y-105786530D01*
X85260692Y-105856373D01*
X85299369Y-105935240D01*
X85321761Y-106029902D01*
X85327995Y-106125690D01*
X85323245Y-106214638D01*
X85305006Y-106304693D01*
X85279357Y-106365838D01*
X85225994Y-106436562D01*
X85157091Y-106492112D01*
X85125628Y-106510882D01*
X85208864Y-106553844D01*
X85274879Y-106611401D01*
X85323672Y-106683553D01*
X85355245Y-106770301D01*
X85369596Y-106871643D01*
X85370553Y-106908668D01*
X85362037Y-107022357D01*
X85336490Y-107120887D01*
X85293912Y-107204259D01*
X85234302Y-107272472D01*
X85157662Y-107325527D01*
X85063990Y-107363423D01*
X84953286Y-107386161D01*
X84859082Y-107393267D01*
X84825552Y-107393741D01*
X84155048Y-107393741D01*
X84155048Y-107153593D01*
X84432543Y-107153593D01*
X84810352Y-107153593D01*
X84903889Y-107145532D01*
X84988470Y-107115751D01*
X85016628Y-107096270D01*
X85066188Y-107024088D01*
X85084597Y-106932356D01*
X85085676Y-106898680D01*
X85076182Y-106812201D01*
X85036641Y-106730933D01*
X85005337Y-106702393D01*
X84921648Y-106661871D01*
X84834915Y-106646820D01*
X84805575Y-106645938D01*
X84432543Y-106645938D01*
X84432543Y-107153593D01*
X84155048Y-107153593D01*
X84155048Y-106410567D01*
X84432543Y-106410567D01*
X84800364Y-106410567D01*
X84895968Y-106398494D01*
X84976476Y-106355129D01*
X85026315Y-106280225D01*
X85044765Y-106188813D01*
X85045723Y-106158260D01*
X85033505Y-106065533D01*
X84989617Y-105987447D01*
X84913811Y-105939108D01*
X84821297Y-105921213D01*
X84790376Y-105920283D01*
X84432543Y-105920283D01*
X84432543Y-106410567D01*
X84155048Y-106410567D01*
X84155048Y-105680136D01*
X84805575Y-105680136D01*
X84899280Y-105683876D01*
G37*
G36*
X86234084Y-106120440D02*
G01*
X86326568Y-106137458D01*
X86411537Y-106171397D01*
X86470108Y-106214714D01*
X86523467Y-106287691D01*
X86554593Y-106372805D01*
X86568822Y-106463919D01*
X86571292Y-106528253D01*
X86571292Y-107098441D01*
X86599953Y-107180083D01*
X86681595Y-107213521D01*
X86674212Y-107421099D01*
X86584653Y-107416673D01*
X86493749Y-107400775D01*
X86406082Y-107369069D01*
X86341132Y-107328601D01*
X86253591Y-107364643D01*
X86165759Y-107391832D01*
X86077636Y-107410169D01*
X85989222Y-107419654D01*
X85938570Y-107421099D01*
X85851242Y-107414891D01*
X85758456Y-107389668D01*
X85683864Y-107345044D01*
X85618368Y-107265884D01*
X85583801Y-107178575D01*
X85567427Y-107071865D01*
X85566050Y-107026353D01*
X85838689Y-107026353D01*
X85853574Y-107117269D01*
X85917433Y-107185119D01*
X85991116Y-107198756D01*
X86078896Y-107194035D01*
X86170268Y-107179872D01*
X86256451Y-107158804D01*
X86301180Y-107143605D01*
X86301180Y-106810959D01*
X86011092Y-106838317D01*
X85920176Y-106863211D01*
X85859061Y-106926155D01*
X85838857Y-107015705D01*
X85838689Y-107026353D01*
X85566050Y-107026353D01*
X85565971Y-107023748D01*
X85572295Y-106935212D01*
X85597986Y-106843016D01*
X85649072Y-106765307D01*
X85667155Y-106748425D01*
X85741039Y-106701843D01*
X85825737Y-106671232D01*
X85915501Y-106653020D01*
X85978522Y-106645938D01*
X86301180Y-106618145D01*
X86301180Y-106528253D01*
X86288801Y-106439043D01*
X86257319Y-106388420D01*
X86177903Y-106351977D01*
X86128777Y-106348033D01*
X86032320Y-106349613D01*
X85935967Y-106353671D01*
X85843466Y-106359270D01*
X85743317Y-106366780D01*
X85728386Y-106368009D01*
X85648481Y-106373221D01*
X85638493Y-106180407D01*
X85739220Y-106158418D01*
X85836864Y-106140978D01*
X85931423Y-106128087D01*
X86022898Y-106119746D01*
X86111290Y-106115955D01*
X86140068Y-106115702D01*
X86234084Y-106120440D01*
G37*
G36*
X87453811Y-106122030D02*
G01*
X87541927Y-106134501D01*
X87582258Y-106143061D01*
X87620039Y-106150443D01*
X88007837Y-106140455D01*
X88007837Y-106360627D01*
X87799824Y-106348033D01*
X87843687Y-106424252D01*
X87865188Y-106510361D01*
X87867569Y-106553440D01*
X87861647Y-106653363D01*
X87843880Y-106738823D01*
X87809071Y-106818782D01*
X87751419Y-106886156D01*
X87743804Y-106892166D01*
X87663194Y-106937509D01*
X87573084Y-106965356D01*
X87479989Y-106980104D01*
X87389608Y-106985600D01*
X87357309Y-106985967D01*
X87267986Y-106979871D01*
X87247441Y-106975979D01*
X87218998Y-107059505D01*
X87212265Y-107107561D01*
X87258297Y-107171397D01*
X87344681Y-107185564D01*
X87440023Y-107190159D01*
X87482377Y-107190939D01*
X87570757Y-107193588D01*
X87664721Y-107201608D01*
X87757673Y-107217641D01*
X87841921Y-107244769D01*
X87889717Y-107271278D01*
X87952516Y-107340739D01*
X87984508Y-107421846D01*
X87998296Y-107512281D01*
X88000020Y-107563972D01*
X87990758Y-107660053D01*
X87962972Y-107743323D01*
X87902190Y-107829395D01*
X87832724Y-107883841D01*
X87744735Y-107925476D01*
X87638222Y-107954300D01*
X87546180Y-107967512D01*
X87443719Y-107973517D01*
X87407250Y-107973917D01*
X87305596Y-107971184D01*
X87214294Y-107962986D01*
X87120857Y-107946513D01*
X87031324Y-107918578D01*
X86984711Y-107896184D01*
X86912116Y-107835404D01*
X86869769Y-107759381D01*
X86849200Y-107663160D01*
X86847049Y-107613912D01*
X86850546Y-107588725D01*
X87114556Y-107588725D01*
X87139204Y-107675135D01*
X87184472Y-107713793D01*
X87272277Y-107740911D01*
X87364443Y-107750246D01*
X87424620Y-107751574D01*
X87511819Y-107747354D01*
X87609067Y-107727269D01*
X87684738Y-107684059D01*
X87726120Y-107599666D01*
X87727302Y-107578737D01*
X87710264Y-107491699D01*
X87673453Y-107454972D01*
X87586551Y-107433906D01*
X87498187Y-107427328D01*
X87459796Y-107426310D01*
X87214871Y-107411111D01*
X87152416Y-107472668D01*
X87137138Y-107494924D01*
X87114644Y-107581946D01*
X87114556Y-107588725D01*
X86850546Y-107588725D01*
X86859673Y-107522987D01*
X86891779Y-107454972D01*
X86950730Y-107385815D01*
X87018933Y-107325629D01*
X87037257Y-107311230D01*
X86978033Y-107243591D01*
X86956036Y-107159191D01*
X86954747Y-107128405D01*
X86981040Y-107041553D01*
X87022058Y-106965991D01*
X87044639Y-106928644D01*
X86974417Y-106873879D01*
X86921443Y-106803820D01*
X86885715Y-106718467D01*
X86868820Y-106633134D01*
X86864420Y-106553440D01*
X87134532Y-106553440D01*
X87145088Y-106642415D01*
X87186290Y-106718943D01*
X87189684Y-106722369D01*
X87267279Y-106764047D01*
X87359709Y-106775731D01*
X87367297Y-106775783D01*
X87455474Y-106766968D01*
X87536609Y-106728837D01*
X87543609Y-106722369D01*
X87587150Y-106642415D01*
X87597457Y-106553440D01*
X87586901Y-106464465D01*
X87545699Y-106387937D01*
X87542306Y-106384511D01*
X87464710Y-106342495D01*
X87372280Y-106330715D01*
X87364692Y-106330663D01*
X87275010Y-106341323D01*
X87192072Y-106386357D01*
X87145546Y-106466635D01*
X87134532Y-106553440D01*
X86864420Y-106553440D01*
X86870883Y-106460591D01*
X86894095Y-106368575D01*
X86940389Y-106283029D01*
X86999476Y-106222965D01*
X87082968Y-106172164D01*
X87169814Y-106140965D01*
X87255556Y-106124442D01*
X87350400Y-106117976D01*
X87364692Y-106117874D01*
X87453811Y-106122030D01*
G37*
G36*
X87931406Y-105928100D02*
G01*
X87931406Y-105680136D01*
X89182086Y-105680136D01*
X89182086Y-105928100D01*
X88699184Y-105928100D01*
X88699184Y-107393741D01*
X88419084Y-107393741D01*
X88419084Y-105928100D01*
X87931406Y-105928100D01*
G37*
G36*
X89763780Y-106120440D02*
G01*
X89856264Y-106137458D01*
X89941233Y-106171397D01*
X89999805Y-106214714D01*
X90053163Y-106287691D01*
X90084289Y-106372805D01*
X90098518Y-106463919D01*
X90100988Y-106528253D01*
X90100988Y-107098441D01*
X90129649Y-107180083D01*
X90211291Y-107213521D01*
X90203908Y-107421099D01*
X90114349Y-107416673D01*
X90023445Y-107400775D01*
X89935778Y-107369069D01*
X89870828Y-107328601D01*
X89783287Y-107364643D01*
X89695455Y-107391832D01*
X89607332Y-107410169D01*
X89518918Y-107419654D01*
X89468266Y-107421099D01*
X89380938Y-107414891D01*
X89288152Y-107389668D01*
X89213560Y-107345044D01*
X89148064Y-107265884D01*
X89113497Y-107178575D01*
X89097123Y-107071865D01*
X89095746Y-107026353D01*
X89368385Y-107026353D01*
X89383270Y-107117269D01*
X89447129Y-107185119D01*
X89520812Y-107198756D01*
X89608592Y-107194035D01*
X89699964Y-107179872D01*
X89786147Y-107158804D01*
X89830876Y-107143605D01*
X89830876Y-106810959D01*
X89540788Y-106838317D01*
X89449872Y-106863211D01*
X89388757Y-106926155D01*
X89368553Y-107015705D01*
X89368385Y-107026353D01*
X89095746Y-107026353D01*
X89095667Y-107023748D01*
X89101991Y-106935212D01*
X89127682Y-106843016D01*
X89178768Y-106765307D01*
X89196851Y-106748425D01*
X89270735Y-106701843D01*
X89355433Y-106671232D01*
X89445197Y-106653020D01*
X89508218Y-106645938D01*
X89830876Y-106618145D01*
X89830876Y-106528253D01*
X89818497Y-106439043D01*
X89787015Y-106388420D01*
X89707599Y-106351977D01*
X89658473Y-106348033D01*
X89562016Y-106349613D01*
X89465663Y-106353671D01*
X89373162Y-106359270D01*
X89273013Y-106366780D01*
X89258082Y-106368009D01*
X89178177Y-106373221D01*
X89168189Y-106180407D01*
X89268917Y-106158418D01*
X89366560Y-106140978D01*
X89461119Y-106128087D01*
X89552594Y-106119746D01*
X89640986Y-106115955D01*
X89669764Y-106115702D01*
X89763780Y-106120440D01*
G37*
G36*
X90983507Y-106122030D02*
G01*
X91071624Y-106134501D01*
X91111954Y-106143061D01*
X91149735Y-106150443D01*
X91537533Y-106140455D01*
X91537533Y-106360627D01*
X91329520Y-106348033D01*
X91373383Y-106424252D01*
X91394884Y-106510361D01*
X91397265Y-106553440D01*
X91391343Y-106653363D01*
X91373576Y-106738823D01*
X91338767Y-106818782D01*
X91281115Y-106886156D01*
X91273500Y-106892166D01*
X91192890Y-106937509D01*
X91102780Y-106965356D01*
X91009685Y-106980104D01*
X90919304Y-106985600D01*
X90887005Y-106985967D01*
X90797682Y-106979871D01*
X90777137Y-106975979D01*
X90748694Y-107059505D01*
X90741961Y-107107561D01*
X90787993Y-107171397D01*
X90874377Y-107185564D01*
X90969719Y-107190159D01*
X91012073Y-107190939D01*
X91100453Y-107193588D01*
X91194417Y-107201608D01*
X91287369Y-107217641D01*
X91371617Y-107244769D01*
X91419413Y-107271278D01*
X91482212Y-107340739D01*
X91514204Y-107421846D01*
X91527992Y-107512281D01*
X91529716Y-107563972D01*
X91520454Y-107660053D01*
X91492668Y-107743323D01*
X91431886Y-107829395D01*
X91362420Y-107883841D01*
X91274431Y-107925476D01*
X91167918Y-107954300D01*
X91075876Y-107967512D01*
X90973415Y-107973517D01*
X90936946Y-107973917D01*
X90835292Y-107971184D01*
X90743990Y-107962986D01*
X90650553Y-107946513D01*
X90561020Y-107918578D01*
X90514407Y-107896184D01*
X90441812Y-107835404D01*
X90399465Y-107759381D01*
X90378896Y-107663160D01*
X90376745Y-107613912D01*
X90380242Y-107588725D01*
X90644252Y-107588725D01*
X90668900Y-107675135D01*
X90714168Y-107713793D01*
X90801973Y-107740911D01*
X90894139Y-107750246D01*
X90954316Y-107751574D01*
X91041515Y-107747354D01*
X91138763Y-107727269D01*
X91214434Y-107684059D01*
X91255816Y-107599666D01*
X91256998Y-107578737D01*
X91239960Y-107491699D01*
X91203149Y-107454972D01*
X91116247Y-107433906D01*
X91027883Y-107427328D01*
X90989492Y-107426310D01*
X90744567Y-107411111D01*
X90682112Y-107472668D01*
X90666834Y-107494924D01*
X90644340Y-107581946D01*
X90644252Y-107588725D01*
X90380242Y-107588725D01*
X90389369Y-107522987D01*
X90421475Y-107454972D01*
X90480426Y-107385815D01*
X90548629Y-107325629D01*
X90566953Y-107311230D01*
X90507729Y-107243591D01*
X90485732Y-107159191D01*
X90484443Y-107128405D01*
X90510736Y-107041553D01*
X90551754Y-106965991D01*
X90574335Y-106928644D01*
X90504113Y-106873879D01*
X90451139Y-106803820D01*
X90415411Y-106718467D01*
X90398516Y-106633134D01*
X90394116Y-106553440D01*
X90664228Y-106553440D01*
X90674784Y-106642415D01*
X90715986Y-106718943D01*
X90719380Y-106722369D01*
X90796975Y-106764047D01*
X90889405Y-106775731D01*
X90896993Y-106775783D01*
X90985170Y-106766968D01*
X91066305Y-106728837D01*
X91073305Y-106722369D01*
X91116846Y-106642415D01*
X91127153Y-106553440D01*
X91116597Y-106464465D01*
X91075395Y-106387937D01*
X91072002Y-106384511D01*
X90994406Y-106342495D01*
X90901976Y-106330715D01*
X90894388Y-106330663D01*
X90804706Y-106341323D01*
X90721768Y-106386357D01*
X90675242Y-106466635D01*
X90664228Y-106553440D01*
X90394116Y-106553440D01*
X90400579Y-106460591D01*
X90423791Y-106368575D01*
X90470085Y-106283029D01*
X90529172Y-106222965D01*
X90612664Y-106172164D01*
X90699510Y-106140965D01*
X90785252Y-106124442D01*
X90880096Y-106117976D01*
X90894388Y-106117874D01*
X90983507Y-106122030D01*
G37*
G36*
X92172426Y-106143061D02*
G01*
X92457738Y-106143061D01*
X92697885Y-107160975D01*
X92777790Y-107160975D01*
X93027926Y-106143061D01*
X93305855Y-106143061D01*
X92980591Y-107393741D01*
X92495084Y-107393741D01*
X92172426Y-106143061D01*
G37*
G36*
X94189147Y-107393741D02*
G01*
X94189147Y-107098441D01*
X93446122Y-107098441D01*
X93446122Y-106886086D01*
X93881688Y-105742670D01*
X94189147Y-105742670D01*
X93728828Y-106856122D01*
X94189147Y-106856122D01*
X94189147Y-106370615D01*
X94469247Y-106370615D01*
X94469247Y-106856122D01*
X94649467Y-106856122D01*
X94649467Y-107098441D01*
X94469247Y-107098441D01*
X94469247Y-107393741D01*
X94189147Y-107393741D01*
G37*
X51970085Y-58960609D02*
X52112942Y-59008228D01*
X52112942Y-59008228D02*
X52160561Y-59055847D01*
X52160561Y-59055847D02*
X52208180Y-59151085D01*
X52208180Y-59151085D02*
X52208180Y-59293942D01*
X52208180Y-59293942D02*
X52160561Y-59389180D01*
X52160561Y-59389180D02*
X52112942Y-59436800D01*
X52112942Y-59436800D02*
X52017704Y-59484419D01*
X52017704Y-59484419D02*
X51636752Y-59484419D01*
X51636752Y-59484419D02*
X51636752Y-58484419D01*
X51636752Y-58484419D02*
X51970085Y-58484419D01*
X51970085Y-58484419D02*
X52065323Y-58532038D01*
X52065323Y-58532038D02*
X52112942Y-58579657D01*
X52112942Y-58579657D02*
X52160561Y-58674895D01*
X52160561Y-58674895D02*
X52160561Y-58770133D01*
X52160561Y-58770133D02*
X52112942Y-58865371D01*
X52112942Y-58865371D02*
X52065323Y-58912990D01*
X52065323Y-58912990D02*
X51970085Y-58960609D01*
X51970085Y-58960609D02*
X51636752Y-58960609D01*
X52493895Y-58484419D02*
X53065323Y-58484419D01*
X52779609Y-59484419D02*
X52779609Y-58484419D01*
X53922466Y-59484419D02*
X53351038Y-59484419D01*
X53636752Y-59484419D02*
X53636752Y-58484419D01*
X53636752Y-58484419D02*
X53541514Y-58627276D01*
X53541514Y-58627276D02*
X53446276Y-58722514D01*
X53446276Y-58722514D02*
X53351038Y-58770133D01*
X56157905Y-81734819D02*
X56157905Y-80734819D01*
X56157905Y-80734819D02*
X56396000Y-80734819D01*
X56396000Y-80734819D02*
X56538857Y-80782438D01*
X56538857Y-80782438D02*
X56634095Y-80877676D01*
X56634095Y-80877676D02*
X56681714Y-80972914D01*
X56681714Y-80972914D02*
X56729333Y-81163390D01*
X56729333Y-81163390D02*
X56729333Y-81306247D01*
X56729333Y-81306247D02*
X56681714Y-81496723D01*
X56681714Y-81496723D02*
X56634095Y-81591961D01*
X56634095Y-81591961D02*
X56538857Y-81687200D01*
X56538857Y-81687200D02*
X56396000Y-81734819D01*
X56396000Y-81734819D02*
X56157905Y-81734819D01*
X57681714Y-81734819D02*
X57110286Y-81734819D01*
X57396000Y-81734819D02*
X57396000Y-80734819D01*
X57396000Y-80734819D02*
X57300762Y-80877676D01*
X57300762Y-80877676D02*
X57205524Y-80972914D01*
X57205524Y-80972914D02*
X57110286Y-81020533D01*
X55999095Y-79448819D02*
X55999095Y-78448819D01*
X56570523Y-79448819D02*
X56141952Y-78877390D01*
X56570523Y-78448819D02*
X55999095Y-79020247D01*
D12*
X83431191Y-93167419D02*
X83431191Y-92167419D01*
X83431191Y-92167419D02*
X83669286Y-92167419D01*
X83669286Y-92167419D02*
X83812143Y-92215038D01*
X83812143Y-92215038D02*
X83907381Y-92310276D01*
X83907381Y-92310276D02*
X83955000Y-92405514D01*
X83955000Y-92405514D02*
X84002619Y-92595990D01*
X84002619Y-92595990D02*
X84002619Y-92738847D01*
X84002619Y-92738847D02*
X83955000Y-92929323D01*
X83955000Y-92929323D02*
X83907381Y-93024561D01*
X83907381Y-93024561D02*
X83812143Y-93119800D01*
X83812143Y-93119800D02*
X83669286Y-93167419D01*
X83669286Y-93167419D02*
X83431191Y-93167419D01*
X84431191Y-93167419D02*
X84431191Y-92167419D01*
X84907381Y-93167419D02*
X84907381Y-92167419D01*
X84907381Y-92167419D02*
X85478809Y-93167419D01*
X85478809Y-93167419D02*
X85478809Y-92167419D01*
X105624524Y-93167419D02*
X105624524Y-92167419D01*
X105624524Y-92167419D02*
X105862619Y-92167419D01*
X105862619Y-92167419D02*
X106005476Y-92215038D01*
X106005476Y-92215038D02*
X106100714Y-92310276D01*
X106100714Y-92310276D02*
X106148333Y-92405514D01*
X106148333Y-92405514D02*
X106195952Y-92595990D01*
X106195952Y-92595990D02*
X106195952Y-92738847D01*
X106195952Y-92738847D02*
X106148333Y-92929323D01*
X106148333Y-92929323D02*
X106100714Y-93024561D01*
X106100714Y-93024561D02*
X106005476Y-93119800D01*
X106005476Y-93119800D02*
X105862619Y-93167419D01*
X105862619Y-93167419D02*
X105624524Y-93167419D01*
X106815000Y-92167419D02*
X107005476Y-92167419D01*
X107005476Y-92167419D02*
X107100714Y-92215038D01*
X107100714Y-92215038D02*
X107195952Y-92310276D01*
X107195952Y-92310276D02*
X107243571Y-92500752D01*
X107243571Y-92500752D02*
X107243571Y-92834085D01*
X107243571Y-92834085D02*
X107195952Y-93024561D01*
X107195952Y-93024561D02*
X107100714Y-93119800D01*
X107100714Y-93119800D02*
X107005476Y-93167419D01*
X107005476Y-93167419D02*
X106815000Y-93167419D01*
X106815000Y-93167419D02*
X106719762Y-93119800D01*
X106719762Y-93119800D02*
X106624524Y-93024561D01*
X106624524Y-93024561D02*
X106576905Y-92834085D01*
X106576905Y-92834085D02*
X106576905Y-92500752D01*
X106576905Y-92500752D02*
X106624524Y-92310276D01*
X106624524Y-92310276D02*
X106719762Y-92215038D01*
X106719762Y-92215038D02*
X106815000Y-92167419D01*
X107672143Y-92167419D02*
X107672143Y-92976942D01*
X107672143Y-92976942D02*
X107719762Y-93072180D01*
X107719762Y-93072180D02*
X107767381Y-93119800D01*
X107767381Y-93119800D02*
X107862619Y-93167419D01*
X107862619Y-93167419D02*
X108053095Y-93167419D01*
X108053095Y-93167419D02*
X108148333Y-93119800D01*
X108148333Y-93119800D02*
X108195952Y-93072180D01*
X108195952Y-93072180D02*
X108243571Y-92976942D01*
X108243571Y-92976942D02*
X108243571Y-92167419D01*
X108576905Y-92167419D02*
X109148333Y-92167419D01*
X108862619Y-93167419D02*
X108862619Y-92167419D01*
X67556191Y-93167419D02*
X67556191Y-92167419D01*
X67556191Y-92167419D02*
X67794286Y-92167419D01*
X67794286Y-92167419D02*
X67937143Y-92215038D01*
X67937143Y-92215038D02*
X68032381Y-92310276D01*
X68032381Y-92310276D02*
X68080000Y-92405514D01*
X68080000Y-92405514D02*
X68127619Y-92595990D01*
X68127619Y-92595990D02*
X68127619Y-92738847D01*
X68127619Y-92738847D02*
X68080000Y-92929323D01*
X68080000Y-92929323D02*
X68032381Y-93024561D01*
X68032381Y-93024561D02*
X67937143Y-93119800D01*
X67937143Y-93119800D02*
X67794286Y-93167419D01*
X67794286Y-93167419D02*
X67556191Y-93167419D01*
X68556191Y-93167419D02*
X68556191Y-92167419D01*
X69032381Y-93167419D02*
X69032381Y-92167419D01*
X69032381Y-92167419D02*
X69603809Y-93167419D01*
X69603809Y-93167419D02*
X69603809Y-92167419D01*
X90106667Y-87087419D02*
X90440000Y-88087419D01*
X90440000Y-88087419D02*
X90773333Y-87087419D01*
X91678095Y-87992180D02*
X91630476Y-88039800D01*
X91630476Y-88039800D02*
X91487619Y-88087419D01*
X91487619Y-88087419D02*
X91392381Y-88087419D01*
X91392381Y-88087419D02*
X91249524Y-88039800D01*
X91249524Y-88039800D02*
X91154286Y-87944561D01*
X91154286Y-87944561D02*
X91106667Y-87849323D01*
X91106667Y-87849323D02*
X91059048Y-87658847D01*
X91059048Y-87658847D02*
X91059048Y-87515990D01*
X91059048Y-87515990D02*
X91106667Y-87325514D01*
X91106667Y-87325514D02*
X91154286Y-87230276D01*
X91154286Y-87230276D02*
X91249524Y-87135038D01*
X91249524Y-87135038D02*
X91392381Y-87087419D01*
X91392381Y-87087419D02*
X91487619Y-87087419D01*
X91487619Y-87087419D02*
X91630476Y-87135038D01*
X91630476Y-87135038D02*
X91678095Y-87182657D01*
X92678095Y-87992180D02*
X92630476Y-88039800D01*
X92630476Y-88039800D02*
X92487619Y-88087419D01*
X92487619Y-88087419D02*
X92392381Y-88087419D01*
X92392381Y-88087419D02*
X92249524Y-88039800D01*
X92249524Y-88039800D02*
X92154286Y-87944561D01*
X92154286Y-87944561D02*
X92106667Y-87849323D01*
X92106667Y-87849323D02*
X92059048Y-87658847D01*
X92059048Y-87658847D02*
X92059048Y-87515990D01*
X92059048Y-87515990D02*
X92106667Y-87325514D01*
X92106667Y-87325514D02*
X92154286Y-87230276D01*
X92154286Y-87230276D02*
X92249524Y-87135038D01*
X92249524Y-87135038D02*
X92392381Y-87087419D01*
X92392381Y-87087419D02*
X92487619Y-87087419D01*
X92487619Y-87087419D02*
X92630476Y-87135038D01*
X92630476Y-87135038D02*
X92678095Y-87182657D01*
X91273333Y-95612180D02*
X91225714Y-95659800D01*
X91225714Y-95659800D02*
X91082857Y-95707419D01*
X91082857Y-95707419D02*
X90987619Y-95707419D01*
X90987619Y-95707419D02*
X90844762Y-95659800D01*
X90844762Y-95659800D02*
X90749524Y-95564561D01*
X90749524Y-95564561D02*
X90701905Y-95469323D01*
X90701905Y-95469323D02*
X90654286Y-95278847D01*
X90654286Y-95278847D02*
X90654286Y-95135990D01*
X90654286Y-95135990D02*
X90701905Y-94945514D01*
X90701905Y-94945514D02*
X90749524Y-94850276D01*
X90749524Y-94850276D02*
X90844762Y-94755038D01*
X90844762Y-94755038D02*
X90987619Y-94707419D01*
X90987619Y-94707419D02*
X91082857Y-94707419D01*
X91082857Y-94707419D02*
X91225714Y-94755038D01*
X91225714Y-94755038D02*
X91273333Y-94802657D01*
X91654286Y-95659800D02*
X91797143Y-95707419D01*
X91797143Y-95707419D02*
X92035238Y-95707419D01*
X92035238Y-95707419D02*
X92130476Y-95659800D01*
X92130476Y-95659800D02*
X92178095Y-95612180D01*
X92178095Y-95612180D02*
X92225714Y-95516942D01*
X92225714Y-95516942D02*
X92225714Y-95421704D01*
X92225714Y-95421704D02*
X92178095Y-95326466D01*
X92178095Y-95326466D02*
X92130476Y-95278847D01*
X92130476Y-95278847D02*
X92035238Y-95231228D01*
X92035238Y-95231228D02*
X91844762Y-95183609D01*
X91844762Y-95183609D02*
X91749524Y-95135990D01*
X91749524Y-95135990D02*
X91701905Y-95088371D01*
X91701905Y-95088371D02*
X91654286Y-94993133D01*
X91654286Y-94993133D02*
X91654286Y-94897895D01*
X91654286Y-94897895D02*
X91701905Y-94802657D01*
X91701905Y-94802657D02*
X91749524Y-94755038D01*
X91749524Y-94755038D02*
X91844762Y-94707419D01*
X91844762Y-94707419D02*
X92082857Y-94707419D01*
X92082857Y-94707419D02*
X92225714Y-94755038D01*
X68413333Y-95612180D02*
X68365714Y-95659800D01*
X68365714Y-95659800D02*
X68222857Y-95707419D01*
X68222857Y-95707419D02*
X68127619Y-95707419D01*
X68127619Y-95707419D02*
X67984762Y-95659800D01*
X67984762Y-95659800D02*
X67889524Y-95564561D01*
X67889524Y-95564561D02*
X67841905Y-95469323D01*
X67841905Y-95469323D02*
X67794286Y-95278847D01*
X67794286Y-95278847D02*
X67794286Y-95135990D01*
X67794286Y-95135990D02*
X67841905Y-94945514D01*
X67841905Y-94945514D02*
X67889524Y-94850276D01*
X67889524Y-94850276D02*
X67984762Y-94755038D01*
X67984762Y-94755038D02*
X68127619Y-94707419D01*
X68127619Y-94707419D02*
X68222857Y-94707419D01*
X68222857Y-94707419D02*
X68365714Y-94755038D01*
X68365714Y-94755038D02*
X68413333Y-94802657D01*
X68794286Y-95659800D02*
X68937143Y-95707419D01*
X68937143Y-95707419D02*
X69175238Y-95707419D01*
X69175238Y-95707419D02*
X69270476Y-95659800D01*
X69270476Y-95659800D02*
X69318095Y-95612180D01*
X69318095Y-95612180D02*
X69365714Y-95516942D01*
X69365714Y-95516942D02*
X69365714Y-95421704D01*
X69365714Y-95421704D02*
X69318095Y-95326466D01*
X69318095Y-95326466D02*
X69270476Y-95278847D01*
X69270476Y-95278847D02*
X69175238Y-95231228D01*
X69175238Y-95231228D02*
X68984762Y-95183609D01*
X68984762Y-95183609D02*
X68889524Y-95135990D01*
X68889524Y-95135990D02*
X68841905Y-95088371D01*
X68841905Y-95088371D02*
X68794286Y-94993133D01*
X68794286Y-94993133D02*
X68794286Y-94897895D01*
X68794286Y-94897895D02*
X68841905Y-94802657D01*
X68841905Y-94802657D02*
X68889524Y-94755038D01*
X68889524Y-94755038D02*
X68984762Y-94707419D01*
X68984762Y-94707419D02*
X69222857Y-94707419D01*
X69222857Y-94707419D02*
X69365714Y-94755038D01*
X90678095Y-89675038D02*
X90582857Y-89627419D01*
X90582857Y-89627419D02*
X90440000Y-89627419D01*
X90440000Y-89627419D02*
X90297143Y-89675038D01*
X90297143Y-89675038D02*
X90201905Y-89770276D01*
X90201905Y-89770276D02*
X90154286Y-89865514D01*
X90154286Y-89865514D02*
X90106667Y-90055990D01*
X90106667Y-90055990D02*
X90106667Y-90198847D01*
X90106667Y-90198847D02*
X90154286Y-90389323D01*
X90154286Y-90389323D02*
X90201905Y-90484561D01*
X90201905Y-90484561D02*
X90297143Y-90579800D01*
X90297143Y-90579800D02*
X90440000Y-90627419D01*
X90440000Y-90627419D02*
X90535238Y-90627419D01*
X90535238Y-90627419D02*
X90678095Y-90579800D01*
X90678095Y-90579800D02*
X90725714Y-90532180D01*
X90725714Y-90532180D02*
X90725714Y-90198847D01*
X90725714Y-90198847D02*
X90535238Y-90198847D01*
X91154286Y-90627419D02*
X91154286Y-89627419D01*
X91154286Y-89627419D02*
X91725714Y-90627419D01*
X91725714Y-90627419D02*
X91725714Y-89627419D01*
X92201905Y-90627419D02*
X92201905Y-89627419D01*
X92201905Y-89627419D02*
X92440000Y-89627419D01*
X92440000Y-89627419D02*
X92582857Y-89675038D01*
X92582857Y-89675038D02*
X92678095Y-89770276D01*
X92678095Y-89770276D02*
X92725714Y-89865514D01*
X92725714Y-89865514D02*
X92773333Y-90055990D01*
X92773333Y-90055990D02*
X92773333Y-90198847D01*
X92773333Y-90198847D02*
X92725714Y-90389323D01*
X92725714Y-90389323D02*
X92678095Y-90484561D01*
X92678095Y-90484561D02*
X92582857Y-90579800D01*
X92582857Y-90579800D02*
X92440000Y-90627419D01*
X92440000Y-90627419D02*
X92201905Y-90627419D01*
X89749524Y-93167419D02*
X89749524Y-92167419D01*
X89749524Y-92167419D02*
X89987619Y-92167419D01*
X89987619Y-92167419D02*
X90130476Y-92215038D01*
X90130476Y-92215038D02*
X90225714Y-92310276D01*
X90225714Y-92310276D02*
X90273333Y-92405514D01*
X90273333Y-92405514D02*
X90320952Y-92595990D01*
X90320952Y-92595990D02*
X90320952Y-92738847D01*
X90320952Y-92738847D02*
X90273333Y-92929323D01*
X90273333Y-92929323D02*
X90225714Y-93024561D01*
X90225714Y-93024561D02*
X90130476Y-93119800D01*
X90130476Y-93119800D02*
X89987619Y-93167419D01*
X89987619Y-93167419D02*
X89749524Y-93167419D01*
X90940000Y-92167419D02*
X91130476Y-92167419D01*
X91130476Y-92167419D02*
X91225714Y-92215038D01*
X91225714Y-92215038D02*
X91320952Y-92310276D01*
X91320952Y-92310276D02*
X91368571Y-92500752D01*
X91368571Y-92500752D02*
X91368571Y-92834085D01*
X91368571Y-92834085D02*
X91320952Y-93024561D01*
X91320952Y-93024561D02*
X91225714Y-93119800D01*
X91225714Y-93119800D02*
X91130476Y-93167419D01*
X91130476Y-93167419D02*
X90940000Y-93167419D01*
X90940000Y-93167419D02*
X90844762Y-93119800D01*
X90844762Y-93119800D02*
X90749524Y-93024561D01*
X90749524Y-93024561D02*
X90701905Y-92834085D01*
X90701905Y-92834085D02*
X90701905Y-92500752D01*
X90701905Y-92500752D02*
X90749524Y-92310276D01*
X90749524Y-92310276D02*
X90844762Y-92215038D01*
X90844762Y-92215038D02*
X90940000Y-92167419D01*
X91797143Y-92167419D02*
X91797143Y-92976942D01*
X91797143Y-92976942D02*
X91844762Y-93072180D01*
X91844762Y-93072180D02*
X91892381Y-93119800D01*
X91892381Y-93119800D02*
X91987619Y-93167419D01*
X91987619Y-93167419D02*
X92178095Y-93167419D01*
X92178095Y-93167419D02*
X92273333Y-93119800D01*
X92273333Y-93119800D02*
X92320952Y-93072180D01*
X92320952Y-93072180D02*
X92368571Y-92976942D01*
X92368571Y-92976942D02*
X92368571Y-92167419D01*
X92701905Y-92167419D02*
X93273333Y-92167419D01*
X92987619Y-93167419D02*
X92987619Y-92167419D01*
X67818095Y-89675038D02*
X67722857Y-89627419D01*
X67722857Y-89627419D02*
X67580000Y-89627419D01*
X67580000Y-89627419D02*
X67437143Y-89675038D01*
X67437143Y-89675038D02*
X67341905Y-89770276D01*
X67341905Y-89770276D02*
X67294286Y-89865514D01*
X67294286Y-89865514D02*
X67246667Y-90055990D01*
X67246667Y-90055990D02*
X67246667Y-90198847D01*
X67246667Y-90198847D02*
X67294286Y-90389323D01*
X67294286Y-90389323D02*
X67341905Y-90484561D01*
X67341905Y-90484561D02*
X67437143Y-90579800D01*
X67437143Y-90579800D02*
X67580000Y-90627419D01*
X67580000Y-90627419D02*
X67675238Y-90627419D01*
X67675238Y-90627419D02*
X67818095Y-90579800D01*
X67818095Y-90579800D02*
X67865714Y-90532180D01*
X67865714Y-90532180D02*
X67865714Y-90198847D01*
X67865714Y-90198847D02*
X67675238Y-90198847D01*
X68294286Y-90627419D02*
X68294286Y-89627419D01*
X68294286Y-89627419D02*
X68865714Y-90627419D01*
X68865714Y-90627419D02*
X68865714Y-89627419D01*
X69341905Y-90627419D02*
X69341905Y-89627419D01*
X69341905Y-89627419D02*
X69580000Y-89627419D01*
X69580000Y-89627419D02*
X69722857Y-89675038D01*
X69722857Y-89675038D02*
X69818095Y-89770276D01*
X69818095Y-89770276D02*
X69865714Y-89865514D01*
X69865714Y-89865514D02*
X69913333Y-90055990D01*
X69913333Y-90055990D02*
X69913333Y-90198847D01*
X69913333Y-90198847D02*
X69865714Y-90389323D01*
X69865714Y-90389323D02*
X69818095Y-90484561D01*
X69818095Y-90484561D02*
X69722857Y-90579800D01*
X69722857Y-90579800D02*
X69580000Y-90627419D01*
X69580000Y-90627419D02*
X69341905Y-90627419D01*
X67246667Y-87087419D02*
X67580000Y-88087419D01*
X67580000Y-88087419D02*
X67913333Y-87087419D01*
X68818095Y-87992180D02*
X68770476Y-88039800D01*
X68770476Y-88039800D02*
X68627619Y-88087419D01*
X68627619Y-88087419D02*
X68532381Y-88087419D01*
X68532381Y-88087419D02*
X68389524Y-88039800D01*
X68389524Y-88039800D02*
X68294286Y-87944561D01*
X68294286Y-87944561D02*
X68246667Y-87849323D01*
X68246667Y-87849323D02*
X68199048Y-87658847D01*
X68199048Y-87658847D02*
X68199048Y-87515990D01*
X68199048Y-87515990D02*
X68246667Y-87325514D01*
X68246667Y-87325514D02*
X68294286Y-87230276D01*
X68294286Y-87230276D02*
X68389524Y-87135038D01*
X68389524Y-87135038D02*
X68532381Y-87087419D01*
X68532381Y-87087419D02*
X68627619Y-87087419D01*
X68627619Y-87087419D02*
X68770476Y-87135038D01*
X68770476Y-87135038D02*
X68818095Y-87182657D01*
X69818095Y-87992180D02*
X69770476Y-88039800D01*
X69770476Y-88039800D02*
X69627619Y-88087419D01*
X69627619Y-88087419D02*
X69532381Y-88087419D01*
X69532381Y-88087419D02*
X69389524Y-88039800D01*
X69389524Y-88039800D02*
X69294286Y-87944561D01*
X69294286Y-87944561D02*
X69246667Y-87849323D01*
X69246667Y-87849323D02*
X69199048Y-87658847D01*
X69199048Y-87658847D02*
X69199048Y-87515990D01*
X69199048Y-87515990D02*
X69246667Y-87325514D01*
X69246667Y-87325514D02*
X69294286Y-87230276D01*
X69294286Y-87230276D02*
X69389524Y-87135038D01*
X69389524Y-87135038D02*
X69532381Y-87087419D01*
X69532381Y-87087419D02*
X69627619Y-87087419D01*
X69627619Y-87087419D02*
X69770476Y-87135038D01*
X69770476Y-87135038D02*
X69818095Y-87182657D01*
X67984761Y-98152180D02*
X67937142Y-98199800D01*
X67937142Y-98199800D02*
X67794285Y-98247419D01*
X67794285Y-98247419D02*
X67699047Y-98247419D01*
X67699047Y-98247419D02*
X67556190Y-98199800D01*
X67556190Y-98199800D02*
X67460952Y-98104561D01*
X67460952Y-98104561D02*
X67413333Y-98009323D01*
X67413333Y-98009323D02*
X67365714Y-97818847D01*
X67365714Y-97818847D02*
X67365714Y-97675990D01*
X67365714Y-97675990D02*
X67413333Y-97485514D01*
X67413333Y-97485514D02*
X67460952Y-97390276D01*
X67460952Y-97390276D02*
X67556190Y-97295038D01*
X67556190Y-97295038D02*
X67699047Y-97247419D01*
X67699047Y-97247419D02*
X67794285Y-97247419D01*
X67794285Y-97247419D02*
X67937142Y-97295038D01*
X67937142Y-97295038D02*
X67984761Y-97342657D01*
X68889523Y-98247419D02*
X68413333Y-98247419D01*
X68413333Y-98247419D02*
X68413333Y-97247419D01*
X69222857Y-98247419D02*
X69222857Y-97247419D01*
X69794285Y-98247419D02*
X69365714Y-97675990D01*
X69794285Y-97247419D02*
X69222857Y-97818847D01*
X90844761Y-98152180D02*
X90797142Y-98199800D01*
X90797142Y-98199800D02*
X90654285Y-98247419D01*
X90654285Y-98247419D02*
X90559047Y-98247419D01*
X90559047Y-98247419D02*
X90416190Y-98199800D01*
X90416190Y-98199800D02*
X90320952Y-98104561D01*
X90320952Y-98104561D02*
X90273333Y-98009323D01*
X90273333Y-98009323D02*
X90225714Y-97818847D01*
X90225714Y-97818847D02*
X90225714Y-97675990D01*
X90225714Y-97675990D02*
X90273333Y-97485514D01*
X90273333Y-97485514D02*
X90320952Y-97390276D01*
X90320952Y-97390276D02*
X90416190Y-97295038D01*
X90416190Y-97295038D02*
X90559047Y-97247419D01*
X90559047Y-97247419D02*
X90654285Y-97247419D01*
X90654285Y-97247419D02*
X90797142Y-97295038D01*
X90797142Y-97295038D02*
X90844761Y-97342657D01*
X91749523Y-98247419D02*
X91273333Y-98247419D01*
X91273333Y-98247419D02*
X91273333Y-97247419D01*
X92082857Y-98247419D02*
X92082857Y-97247419D01*
X92654285Y-98247419D02*
X92225714Y-97675990D01*
X92654285Y-97247419D02*
X92082857Y-97818847D01*
D11*
X100925333Y-69288819D02*
X100592000Y-68812628D01*
X100353905Y-69288819D02*
X100353905Y-68288819D01*
X100353905Y-68288819D02*
X100734857Y-68288819D01*
X100734857Y-68288819D02*
X100830095Y-68336438D01*
X100830095Y-68336438D02*
X100877714Y-68384057D01*
X100877714Y-68384057D02*
X100925333Y-68479295D01*
X100925333Y-68479295D02*
X100925333Y-68622152D01*
X100925333Y-68622152D02*
X100877714Y-68717390D01*
X100877714Y-68717390D02*
X100830095Y-68765009D01*
X100830095Y-68765009D02*
X100734857Y-68812628D01*
X100734857Y-68812628D02*
X100353905Y-68812628D01*
X101306286Y-68384057D02*
X101353905Y-68336438D01*
X101353905Y-68336438D02*
X101449143Y-68288819D01*
X101449143Y-68288819D02*
X101687238Y-68288819D01*
X101687238Y-68288819D02*
X101782476Y-68336438D01*
X101782476Y-68336438D02*
X101830095Y-68384057D01*
X101830095Y-68384057D02*
X101877714Y-68479295D01*
X101877714Y-68479295D02*
X101877714Y-68574533D01*
X101877714Y-68574533D02*
X101830095Y-68717390D01*
X101830095Y-68717390D02*
X101258667Y-69288819D01*
X101258667Y-69288819D02*
X101877714Y-69288819D01*
X64516095Y-65494819D02*
X64516095Y-66304342D01*
X64516095Y-66304342D02*
X64563714Y-66399580D01*
X64563714Y-66399580D02*
X64611333Y-66447200D01*
X64611333Y-66447200D02*
X64706571Y-66494819D01*
X64706571Y-66494819D02*
X64897047Y-66494819D01*
X64897047Y-66494819D02*
X64992285Y-66447200D01*
X64992285Y-66447200D02*
X65039904Y-66399580D01*
X65039904Y-66399580D02*
X65087523Y-66304342D01*
X65087523Y-66304342D02*
X65087523Y-65494819D01*
X66087523Y-66494819D02*
X65516095Y-66494819D01*
X65801809Y-66494819D02*
X65801809Y-65494819D01*
X65801809Y-65494819D02*
X65706571Y-65637676D01*
X65706571Y-65637676D02*
X65611333Y-65732914D01*
X65611333Y-65732914D02*
X65516095Y-65780533D01*
X68040857Y-66209104D02*
X68517047Y-66209104D01*
X67945619Y-66494819D02*
X68278952Y-65494819D01*
X68278952Y-65494819D02*
X68612285Y-66494819D01*
X68945619Y-66494819D02*
X68945619Y-65828152D01*
X68945619Y-66018628D02*
X68993238Y-65923390D01*
X68993238Y-65923390D02*
X69040857Y-65875771D01*
X69040857Y-65875771D02*
X69136095Y-65828152D01*
X69136095Y-65828152D02*
X69231333Y-65828152D01*
X69993238Y-66494819D02*
X69993238Y-65494819D01*
X69993238Y-66447200D02*
X69898000Y-66494819D01*
X69898000Y-66494819D02*
X69707524Y-66494819D01*
X69707524Y-66494819D02*
X69612286Y-66447200D01*
X69612286Y-66447200D02*
X69564667Y-66399580D01*
X69564667Y-66399580D02*
X69517048Y-66304342D01*
X69517048Y-66304342D02*
X69517048Y-66018628D01*
X69517048Y-66018628D02*
X69564667Y-65923390D01*
X69564667Y-65923390D02*
X69612286Y-65875771D01*
X69612286Y-65875771D02*
X69707524Y-65828152D01*
X69707524Y-65828152D02*
X69898000Y-65828152D01*
X69898000Y-65828152D02*
X69993238Y-65875771D01*
X70898000Y-65828152D02*
X70898000Y-66494819D01*
X70469429Y-65828152D02*
X70469429Y-66351961D01*
X70469429Y-66351961D02*
X70517048Y-66447200D01*
X70517048Y-66447200D02*
X70612286Y-66494819D01*
X70612286Y-66494819D02*
X70755143Y-66494819D01*
X70755143Y-66494819D02*
X70850381Y-66447200D01*
X70850381Y-66447200D02*
X70898000Y-66399580D01*
X71374191Y-66494819D02*
X71374191Y-65828152D01*
X71374191Y-65494819D02*
X71326572Y-65542438D01*
X71326572Y-65542438D02*
X71374191Y-65590057D01*
X71374191Y-65590057D02*
X71421810Y-65542438D01*
X71421810Y-65542438D02*
X71374191Y-65494819D01*
X71374191Y-65494819D02*
X71374191Y-65590057D01*
X71850381Y-65828152D02*
X71850381Y-66494819D01*
X71850381Y-65923390D02*
X71898000Y-65875771D01*
X71898000Y-65875771D02*
X71993238Y-65828152D01*
X71993238Y-65828152D02*
X72136095Y-65828152D01*
X72136095Y-65828152D02*
X72231333Y-65875771D01*
X72231333Y-65875771D02*
X72278952Y-65971009D01*
X72278952Y-65971009D02*
X72278952Y-66494819D01*
X72898000Y-66494819D02*
X72802762Y-66447200D01*
X72802762Y-66447200D02*
X72755143Y-66399580D01*
X72755143Y-66399580D02*
X72707524Y-66304342D01*
X72707524Y-66304342D02*
X72707524Y-66018628D01*
X72707524Y-66018628D02*
X72755143Y-65923390D01*
X72755143Y-65923390D02*
X72802762Y-65875771D01*
X72802762Y-65875771D02*
X72898000Y-65828152D01*
X72898000Y-65828152D02*
X73040857Y-65828152D01*
X73040857Y-65828152D02*
X73136095Y-65875771D01*
X73136095Y-65875771D02*
X73183714Y-65923390D01*
X73183714Y-65923390D02*
X73231333Y-66018628D01*
X73231333Y-66018628D02*
X73231333Y-66304342D01*
X73231333Y-66304342D02*
X73183714Y-66399580D01*
X73183714Y-66399580D02*
X73136095Y-66447200D01*
X73136095Y-66447200D02*
X73040857Y-66494819D01*
X73040857Y-66494819D02*
X72898000Y-66494819D01*
X73421810Y-66590057D02*
X74183714Y-66590057D01*
X74421810Y-66494819D02*
X74421810Y-65494819D01*
X74421810Y-65494819D02*
X74993238Y-66494819D01*
X74993238Y-66494819D02*
X74993238Y-65494819D01*
X75898000Y-66494819D02*
X75898000Y-65971009D01*
X75898000Y-65971009D02*
X75850381Y-65875771D01*
X75850381Y-65875771D02*
X75755143Y-65828152D01*
X75755143Y-65828152D02*
X75564667Y-65828152D01*
X75564667Y-65828152D02*
X75469429Y-65875771D01*
X75898000Y-66447200D02*
X75802762Y-66494819D01*
X75802762Y-66494819D02*
X75564667Y-66494819D01*
X75564667Y-66494819D02*
X75469429Y-66447200D01*
X75469429Y-66447200D02*
X75421810Y-66351961D01*
X75421810Y-66351961D02*
X75421810Y-66256723D01*
X75421810Y-66256723D02*
X75469429Y-66161485D01*
X75469429Y-66161485D02*
X75564667Y-66113866D01*
X75564667Y-66113866D02*
X75802762Y-66113866D01*
X75802762Y-66113866D02*
X75898000Y-66066247D01*
X76374191Y-65828152D02*
X76374191Y-66494819D01*
X76374191Y-65923390D02*
X76421810Y-65875771D01*
X76421810Y-65875771D02*
X76517048Y-65828152D01*
X76517048Y-65828152D02*
X76659905Y-65828152D01*
X76659905Y-65828152D02*
X76755143Y-65875771D01*
X76755143Y-65875771D02*
X76802762Y-65971009D01*
X76802762Y-65971009D02*
X76802762Y-66494819D01*
X77421810Y-66494819D02*
X77326572Y-66447200D01*
X77326572Y-66447200D02*
X77278953Y-66399580D01*
X77278953Y-66399580D02*
X77231334Y-66304342D01*
X77231334Y-66304342D02*
X77231334Y-66018628D01*
X77231334Y-66018628D02*
X77278953Y-65923390D01*
X77278953Y-65923390D02*
X77326572Y-65875771D01*
X77326572Y-65875771D02*
X77421810Y-65828152D01*
X77421810Y-65828152D02*
X77564667Y-65828152D01*
X77564667Y-65828152D02*
X77659905Y-65875771D01*
X77659905Y-65875771D02*
X77707524Y-65923390D01*
X77707524Y-65923390D02*
X77755143Y-66018628D01*
X77755143Y-66018628D02*
X77755143Y-66304342D01*
X77755143Y-66304342D02*
X77707524Y-66399580D01*
X77707524Y-66399580D02*
X77659905Y-66447200D01*
X77659905Y-66447200D02*
X77564667Y-66494819D01*
X77564667Y-66494819D02*
X77421810Y-66494819D01*
D12*
X51681191Y-93167419D02*
X51681191Y-92167419D01*
X51681191Y-92167419D02*
X51919286Y-92167419D01*
X51919286Y-92167419D02*
X52062143Y-92215038D01*
X52062143Y-92215038D02*
X52157381Y-92310276D01*
X52157381Y-92310276D02*
X52205000Y-92405514D01*
X52205000Y-92405514D02*
X52252619Y-92595990D01*
X52252619Y-92595990D02*
X52252619Y-92738847D01*
X52252619Y-92738847D02*
X52205000Y-92929323D01*
X52205000Y-92929323D02*
X52157381Y-93024561D01*
X52157381Y-93024561D02*
X52062143Y-93119800D01*
X52062143Y-93119800D02*
X51919286Y-93167419D01*
X51919286Y-93167419D02*
X51681191Y-93167419D01*
X52681191Y-93167419D02*
X52681191Y-92167419D01*
X53157381Y-93167419D02*
X53157381Y-92167419D01*
X53157381Y-92167419D02*
X53728809Y-93167419D01*
X53728809Y-93167419D02*
X53728809Y-92167419D01*
X73874524Y-93167419D02*
X73874524Y-92167419D01*
X73874524Y-92167419D02*
X74112619Y-92167419D01*
X74112619Y-92167419D02*
X74255476Y-92215038D01*
X74255476Y-92215038D02*
X74350714Y-92310276D01*
X74350714Y-92310276D02*
X74398333Y-92405514D01*
X74398333Y-92405514D02*
X74445952Y-92595990D01*
X74445952Y-92595990D02*
X74445952Y-92738847D01*
X74445952Y-92738847D02*
X74398333Y-92929323D01*
X74398333Y-92929323D02*
X74350714Y-93024561D01*
X74350714Y-93024561D02*
X74255476Y-93119800D01*
X74255476Y-93119800D02*
X74112619Y-93167419D01*
X74112619Y-93167419D02*
X73874524Y-93167419D01*
X75065000Y-92167419D02*
X75255476Y-92167419D01*
X75255476Y-92167419D02*
X75350714Y-92215038D01*
X75350714Y-92215038D02*
X75445952Y-92310276D01*
X75445952Y-92310276D02*
X75493571Y-92500752D01*
X75493571Y-92500752D02*
X75493571Y-92834085D01*
X75493571Y-92834085D02*
X75445952Y-93024561D01*
X75445952Y-93024561D02*
X75350714Y-93119800D01*
X75350714Y-93119800D02*
X75255476Y-93167419D01*
X75255476Y-93167419D02*
X75065000Y-93167419D01*
X75065000Y-93167419D02*
X74969762Y-93119800D01*
X74969762Y-93119800D02*
X74874524Y-93024561D01*
X74874524Y-93024561D02*
X74826905Y-92834085D01*
X74826905Y-92834085D02*
X74826905Y-92500752D01*
X74826905Y-92500752D02*
X74874524Y-92310276D01*
X74874524Y-92310276D02*
X74969762Y-92215038D01*
X74969762Y-92215038D02*
X75065000Y-92167419D01*
X75922143Y-92167419D02*
X75922143Y-92976942D01*
X75922143Y-92976942D02*
X75969762Y-93072180D01*
X75969762Y-93072180D02*
X76017381Y-93119800D01*
X76017381Y-93119800D02*
X76112619Y-93167419D01*
X76112619Y-93167419D02*
X76303095Y-93167419D01*
X76303095Y-93167419D02*
X76398333Y-93119800D01*
X76398333Y-93119800D02*
X76445952Y-93072180D01*
X76445952Y-93072180D02*
X76493571Y-92976942D01*
X76493571Y-92976942D02*
X76493571Y-92167419D01*
X76826905Y-92167419D02*
X77398333Y-92167419D01*
X77112619Y-93167419D02*
X77112619Y-92167419D01*
D11*
X50191200Y-68389332D02*
X50238819Y-68246475D01*
X50238819Y-68246475D02*
X50238819Y-68008380D01*
X50238819Y-68008380D02*
X50191200Y-67913142D01*
X50191200Y-67913142D02*
X50143580Y-67865523D01*
X50143580Y-67865523D02*
X50048342Y-67817904D01*
X50048342Y-67817904D02*
X49953104Y-67817904D01*
X49953104Y-67817904D02*
X49857866Y-67865523D01*
X49857866Y-67865523D02*
X49810247Y-67913142D01*
X49810247Y-67913142D02*
X49762628Y-68008380D01*
X49762628Y-68008380D02*
X49715009Y-68198856D01*
X49715009Y-68198856D02*
X49667390Y-68294094D01*
X49667390Y-68294094D02*
X49619771Y-68341713D01*
X49619771Y-68341713D02*
X49524533Y-68389332D01*
X49524533Y-68389332D02*
X49429295Y-68389332D01*
X49429295Y-68389332D02*
X49334057Y-68341713D01*
X49334057Y-68341713D02*
X49286438Y-68294094D01*
X49286438Y-68294094D02*
X49238819Y-68198856D01*
X49238819Y-68198856D02*
X49238819Y-67960761D01*
X49238819Y-67960761D02*
X49286438Y-67817904D01*
X49238819Y-67484570D02*
X50238819Y-67246475D01*
X50238819Y-67246475D02*
X49524533Y-67055999D01*
X49524533Y-67055999D02*
X50238819Y-66865523D01*
X50238819Y-66865523D02*
X49238819Y-66627428D01*
X50238819Y-65722666D02*
X50238819Y-66294094D01*
X50238819Y-66008380D02*
X49238819Y-66008380D01*
X49238819Y-66008380D02*
X49381676Y-66103618D01*
X49381676Y-66103618D02*
X49476914Y-66198856D01*
X49476914Y-66198856D02*
X49524533Y-66294094D01*
X100925333Y-76908819D02*
X100592000Y-76432628D01*
X100353905Y-76908819D02*
X100353905Y-75908819D01*
X100353905Y-75908819D02*
X100734857Y-75908819D01*
X100734857Y-75908819D02*
X100830095Y-75956438D01*
X100830095Y-75956438D02*
X100877714Y-76004057D01*
X100877714Y-76004057D02*
X100925333Y-76099295D01*
X100925333Y-76099295D02*
X100925333Y-76242152D01*
X100925333Y-76242152D02*
X100877714Y-76337390D01*
X100877714Y-76337390D02*
X100830095Y-76385009D01*
X100830095Y-76385009D02*
X100734857Y-76432628D01*
X100734857Y-76432628D02*
X100353905Y-76432628D01*
X101877714Y-76908819D02*
X101306286Y-76908819D01*
X101592000Y-76908819D02*
X101592000Y-75908819D01*
X101592000Y-75908819D02*
X101496762Y-76051676D01*
X101496762Y-76051676D02*
X101401524Y-76146914D01*
X101401524Y-76146914D02*
X101306286Y-76194533D01*
D13*
%TO.C,BT1*%
X51363000Y-59496000D02*
X50033000Y-59496000D01*
X51363000Y-58166000D02*
X51363000Y-59496000D01*
X51363000Y-56896000D02*
X51363000Y-54296000D01*
X51363000Y-56896000D02*
X48703000Y-56896000D01*
X51363000Y-54296000D02*
X48703000Y-54296000D01*
X48703000Y-56896000D02*
X48703000Y-54296000D01*
%TO.C,J2*%
X111658400Y-70205600D02*
X111658400Y-71535600D01*
X110388400Y-70205600D02*
X111658400Y-70205600D01*
X109220000Y-70205600D02*
X101701600Y-70205600D01*
X109220000Y-70205600D02*
X109220000Y-72542400D01*
X101701600Y-70205600D02*
X101701600Y-72542400D01*
X109220000Y-72542400D02*
X101701600Y-72542400D01*
%TO.C,J1*%
X111658400Y-72745600D02*
X111658400Y-74075600D01*
X110388400Y-72745600D02*
X111658400Y-72745600D01*
X109220000Y-72745600D02*
X101701600Y-72745600D01*
X109220000Y-72745600D02*
X109220000Y-75082400D01*
X101701600Y-72745600D02*
X101701600Y-75082400D01*
X109220000Y-75082400D02*
X101701600Y-75082400D01*
%TO.C,J10*%
X91389200Y-53274200D02*
X90059200Y-53274200D01*
X91389200Y-51944200D02*
X91389200Y-53274200D01*
X91363800Y-50785000D02*
X91363800Y-45781200D01*
X91363800Y-50785000D02*
X88976200Y-50785000D01*
X91363800Y-45781200D02*
X88976200Y-45781200D01*
X88976200Y-50785000D02*
X88976200Y-45781200D01*
%TO.C,J7*%
X99009200Y-53274200D02*
X97679200Y-53274200D01*
X99009200Y-51944200D02*
X99009200Y-53274200D01*
X98983800Y-50785000D02*
X98983800Y-45781200D01*
X98983800Y-50785000D02*
X96596200Y-50785000D01*
X98983800Y-45781200D02*
X96596200Y-45781200D01*
X96596200Y-50785000D02*
X96596200Y-45781200D01*
%TO.C,J13*%
X104190800Y-61163200D02*
X104190800Y-59833200D01*
X105520800Y-61163200D02*
X104190800Y-61163200D01*
X106680000Y-61137800D02*
X111683800Y-61137800D01*
X106680000Y-61137800D02*
X106680000Y-58750200D01*
X111683800Y-61137800D02*
X111683800Y-58750200D01*
X106680000Y-58750200D02*
X111683800Y-58750200D01*
%TO.C,J6*%
X63449200Y-53274200D02*
X62119200Y-53274200D01*
X63449200Y-51944200D02*
X63449200Y-53274200D01*
X63423800Y-50785000D02*
X63423800Y-45781200D01*
X63423800Y-50785000D02*
X61036200Y-50785000D01*
X63423800Y-45781200D02*
X61036200Y-45781200D01*
X61036200Y-50785000D02*
X61036200Y-45781200D01*
%TO.C,J11*%
X104190800Y-56083200D02*
X104190800Y-54753200D01*
X105520800Y-56083200D02*
X104190800Y-56083200D01*
X106680000Y-56057800D02*
X111683800Y-56057800D01*
X106680000Y-56057800D02*
X106680000Y-53670200D01*
X111683800Y-56057800D02*
X111683800Y-53670200D01*
X106680000Y-53670200D02*
X111683800Y-53670200D01*
%TO.C,J5*%
X65989200Y-53274200D02*
X64659200Y-53274200D01*
X65989200Y-51944200D02*
X65989200Y-53274200D01*
X65963800Y-50785000D02*
X65963800Y-45781200D01*
X65963800Y-50785000D02*
X63576200Y-50785000D01*
X65963800Y-45781200D02*
X63576200Y-45781200D01*
X63576200Y-50785000D02*
X63576200Y-45781200D01*
%TO.C,J12*%
X104190800Y-58623200D02*
X104190800Y-57293200D01*
X105520800Y-58623200D02*
X104190800Y-58623200D01*
X106680000Y-58597800D02*
X111683800Y-58597800D01*
X106680000Y-58597800D02*
X106680000Y-56210200D01*
X111683800Y-58597800D02*
X111683800Y-56210200D01*
X106680000Y-56210200D02*
X111683800Y-56210200D01*
%TO.C,J3*%
X71069200Y-53274200D02*
X69739200Y-53274200D01*
X71069200Y-51944200D02*
X71069200Y-53274200D01*
X71043800Y-50785000D02*
X71043800Y-45781200D01*
X71043800Y-50785000D02*
X68656200Y-50785000D01*
X71043800Y-45781200D02*
X68656200Y-45781200D01*
X68656200Y-50785000D02*
X68656200Y-45781200D01*
%TO.C,J4*%
X68529200Y-53274200D02*
X67199200Y-53274200D01*
X68529200Y-51944200D02*
X68529200Y-53274200D01*
X68503800Y-50785000D02*
X68503800Y-45781200D01*
X68503800Y-50785000D02*
X66116200Y-50785000D01*
X68503800Y-45781200D02*
X66116200Y-45781200D01*
X66116200Y-50785000D02*
X66116200Y-45781200D01*
%TO.C,J9*%
X93929200Y-53274200D02*
X92599200Y-53274200D01*
X93929200Y-51944200D02*
X93929200Y-53274200D01*
X93903800Y-50785000D02*
X93903800Y-45781200D01*
X93903800Y-50785000D02*
X91516200Y-50785000D01*
X93903800Y-45781200D02*
X91516200Y-45781200D01*
X91516200Y-50785000D02*
X91516200Y-45781200D01*
%TO.C,J8*%
X96469200Y-53274200D02*
X95139200Y-53274200D01*
X96469200Y-51944200D02*
X96469200Y-53274200D01*
X96443800Y-50785000D02*
X96443800Y-45781200D01*
X96443800Y-50785000D02*
X94056200Y-50785000D01*
X96443800Y-45781200D02*
X94056200Y-45781200D01*
X94056200Y-50785000D02*
X94056200Y-45781200D01*
%TO.C,J14*%
X104190800Y-63703200D02*
X104190800Y-62373200D01*
X105520800Y-63703200D02*
X104190800Y-63703200D01*
X106680000Y-63677800D02*
X111683800Y-63677800D01*
X106680000Y-63677800D02*
X106680000Y-61290200D01*
X111683800Y-63677800D02*
X111683800Y-61290200D01*
X106680000Y-61290200D02*
X111683800Y-61290200D01*
%TO.C,D1*%
X58858000Y-78994000D02*
X57838000Y-78994000D01*
X57838000Y-80464000D02*
X57838000Y-77524000D01*
X57838000Y-77524000D02*
X52398000Y-77524000D01*
X52398000Y-80464000D02*
X57838000Y-80464000D01*
X52398000Y-77524000D02*
X52398000Y-80464000D01*
X51378000Y-78994000D02*
X52398000Y-78994000D01*
D12*
X57838000Y-80464000D02*
X56819800Y-80464000D01*
X56819800Y-77520800D01*
X57838000Y-77520800D01*
X57838000Y-80464000D01*
G36*
X57838000Y-80464000D02*
G01*
X56819800Y-80464000D01*
X56819800Y-77520800D01*
X57838000Y-77520800D01*
X57838000Y-80464000D01*
G37*
D14*
%TO.C,kibuzzard-6640BF00*%
G36*
X101421219Y-59110674D02*
G01*
X101322148Y-59091324D01*
X101226947Y-59069653D01*
X101130972Y-59044885D01*
X101028030Y-59016247D01*
X101130972Y-58987609D01*
X101226947Y-58962841D01*
X101322148Y-58941944D01*
X101421219Y-58923368D01*
X101421219Y-59110674D01*
G37*
G36*
X101421219Y-60658662D02*
G01*
X101322148Y-60639312D01*
X101226947Y-60617640D01*
X101130972Y-60592872D01*
X101028030Y-60564235D01*
X101130972Y-60535597D01*
X101226947Y-60510829D01*
X101322148Y-60489931D01*
X101421219Y-60471355D01*
X101421219Y-60658662D01*
G37*
G36*
X101387937Y-57316363D02*
G01*
X101450631Y-57320427D01*
X101556668Y-57342098D01*
X101628650Y-57388538D01*
X101654965Y-57466711D01*
X101628650Y-57545659D01*
X101557442Y-57591324D01*
X101451405Y-57612996D01*
X101388131Y-57617060D01*
X101320600Y-57618414D01*
X101253263Y-57617060D01*
X101190569Y-57612996D01*
X101084532Y-57591324D01*
X101012550Y-57545659D01*
X100986235Y-57466711D01*
X101012550Y-57387764D01*
X101083758Y-57342098D01*
X101189795Y-57320427D01*
X101253069Y-57316363D01*
X101320600Y-57315009D01*
X101387937Y-57316363D01*
G37*
G36*
X102207597Y-57465163D02*
G01*
X102207597Y-57915628D01*
X102207597Y-58845968D01*
X102207597Y-59626154D01*
X102207597Y-60393956D01*
X102207597Y-63374606D01*
X102207597Y-63761603D01*
X100433603Y-63761603D01*
X100433603Y-63374606D01*
X100433603Y-60455876D01*
X100842272Y-60455876D01*
X100842272Y-60663306D01*
X100948261Y-60696104D01*
X101057249Y-60729482D01*
X101169236Y-60763441D01*
X101284222Y-60797981D01*
X101379424Y-60825783D01*
X101478650Y-60853461D01*
X101581900Y-60881015D01*
X101689176Y-60908445D01*
X101800476Y-60935752D01*
X101800476Y-60737609D01*
X101579114Y-60694266D01*
X101579114Y-60438848D01*
X101800476Y-60393956D01*
X101800476Y-60189622D01*
X101691838Y-60215163D01*
X101586359Y-60241015D01*
X101484037Y-60267176D01*
X101384872Y-60293646D01*
X101288866Y-60320427D01*
X101172429Y-60354144D01*
X101059184Y-60387958D01*
X100949131Y-60421868D01*
X100842272Y-60455876D01*
X100433603Y-60455876D01*
X100433603Y-59472903D01*
X100842272Y-59472903D01*
X100842272Y-59644730D01*
X101432055Y-59644730D01*
X101371684Y-59672013D01*
X101302024Y-59704328D01*
X101226560Y-59740705D01*
X101148773Y-59780179D01*
X101069633Y-59821781D01*
X100990105Y-59864544D01*
X100913286Y-59907888D01*
X100842272Y-59951232D01*
X100842272Y-60104482D01*
X101800476Y-60104482D01*
X101800476Y-59932656D01*
X101164253Y-59932656D01*
X101270462Y-59875122D01*
X101376500Y-59820169D01*
X101482365Y-59767795D01*
X101588230Y-59718001D01*
X101694267Y-59670788D01*
X101800476Y-59626154D01*
X101800476Y-59472903D01*
X100842272Y-59472903D01*
X100433603Y-59472903D01*
X100433603Y-58907888D01*
X100842272Y-58907888D01*
X100842272Y-59115318D01*
X100948261Y-59148116D01*
X101057249Y-59181495D01*
X101169236Y-59215454D01*
X101284222Y-59249993D01*
X101379424Y-59277795D01*
X101478650Y-59305473D01*
X101581900Y-59333027D01*
X101689176Y-59360458D01*
X101800476Y-59387764D01*
X101800476Y-59189622D01*
X101579114Y-59146278D01*
X101579114Y-58890860D01*
X101800476Y-58845968D01*
X101800476Y-58641634D01*
X101691838Y-58667176D01*
X101586359Y-58693027D01*
X101484037Y-58719188D01*
X101384872Y-58745659D01*
X101288866Y-58772439D01*
X101172429Y-58806156D01*
X101059184Y-58839970D01*
X100949131Y-58873881D01*
X100842272Y-58907888D01*
X100433603Y-58907888D01*
X100433603Y-58325845D01*
X100842272Y-58325845D01*
X100842272Y-58517795D01*
X101800476Y-58517795D01*
X101800476Y-57915628D01*
X101642581Y-57915628D01*
X101642581Y-58325845D01*
X100842272Y-58325845D01*
X100433603Y-58325845D01*
X100433603Y-57466711D01*
X100820600Y-57466711D01*
X100834618Y-57567159D01*
X100876672Y-57651782D01*
X100946761Y-57720581D01*
X101017436Y-57760539D01*
X101103301Y-57789080D01*
X101204356Y-57806204D01*
X101320600Y-57811913D01*
X101436844Y-57806350D01*
X101537899Y-57789660D01*
X101623764Y-57761845D01*
X101694439Y-57722903D01*
X101764528Y-57654706D01*
X101806582Y-57568793D01*
X101820600Y-57465163D01*
X101806582Y-57364028D01*
X101764528Y-57279405D01*
X101694439Y-57211293D01*
X101623764Y-57172013D01*
X101537899Y-57143956D01*
X101436844Y-57127122D01*
X101320600Y-57121510D01*
X101204356Y-57127025D01*
X101103301Y-57143569D01*
X101017436Y-57171143D01*
X100946761Y-57209746D01*
X100876672Y-57277513D01*
X100834618Y-57363168D01*
X100820600Y-57466711D01*
X100433603Y-57466711D01*
X100433603Y-56623058D01*
X100820600Y-56623058D01*
X100828533Y-56707037D01*
X100852334Y-56785597D01*
X100892001Y-56856417D01*
X100947535Y-56917176D01*
X101018549Y-56967098D01*
X101104656Y-57005411D01*
X101205468Y-57029792D01*
X101320600Y-57037919D01*
X101436893Y-57030953D01*
X101538092Y-57010055D01*
X101624006Y-56976386D01*
X101694439Y-56931108D01*
X101749393Y-56874800D01*
X101788866Y-56808043D01*
X101812667Y-56731611D01*
X101820600Y-56646278D01*
X101816730Y-56551657D01*
X101805120Y-56472129D01*
X101777256Y-56366092D01*
X101298928Y-56366092D01*
X101298928Y-56556495D01*
X101648773Y-56556495D01*
X101653417Y-56593646D01*
X101654965Y-56630798D01*
X101634648Y-56723290D01*
X101573696Y-56790241D01*
X101509454Y-56820341D01*
X101425089Y-56838400D01*
X101320600Y-56844420D01*
X101249586Y-56841131D01*
X101185151Y-56831263D01*
X101079888Y-56787919D01*
X101011002Y-56711293D01*
X100986235Y-56596742D01*
X101003263Y-56494575D01*
X101041962Y-56410984D01*
X100890259Y-56361448D01*
X100871684Y-56393182D01*
X100848464Y-56446588D01*
X100829114Y-56523213D01*
X100820600Y-56623058D01*
X100433603Y-56623058D01*
X100433603Y-53922594D01*
X100433603Y-53535597D01*
X102207597Y-53535597D01*
X102207597Y-53922594D01*
X102207597Y-56646278D01*
X102207597Y-57465163D01*
G37*
%TO.C,kibuzzard-6640BFA2*%
G36*
X67627326Y-54428745D02*
G01*
X67410943Y-54428745D01*
X67457311Y-54340646D01*
X67512179Y-54251775D01*
X67570139Y-54167540D01*
X67627326Y-54091806D01*
X67627326Y-54428745D01*
G37*
G36*
X63023771Y-54015299D02*
G01*
X63060093Y-54096442D01*
X63040000Y-54179132D01*
X62971994Y-54257184D01*
X62895873Y-54220863D01*
X62846801Y-54186087D01*
X62811252Y-54097988D01*
X62849119Y-54016071D01*
X62936445Y-53988251D01*
X63023771Y-54015299D01*
G37*
G36*
X62971994Y-54424881D02*
G01*
X63037682Y-54463521D01*
X63074776Y-54506025D01*
X63086368Y-54560121D01*
X63045410Y-54639719D01*
X62934900Y-54672949D01*
X62830572Y-54641265D01*
X62786522Y-54547756D01*
X62809706Y-54463521D01*
X62876167Y-54383923D01*
X62971994Y-54424881D01*
G37*
G36*
X62210015Y-54035391D02*
G01*
X62273385Y-54107262D01*
X62305842Y-54210816D01*
X62315116Y-54331373D01*
X62312218Y-54399572D01*
X62303524Y-54461976D01*
X62264884Y-54564758D01*
X62193787Y-54632764D01*
X62084822Y-54657493D01*
X62067821Y-54657493D01*
X62050819Y-54655948D01*
X62050819Y-54012980D01*
X62078640Y-54009116D01*
X62106461Y-54008343D01*
X62210015Y-54035391D01*
G37*
G36*
X64528408Y-54035391D02*
G01*
X64591777Y-54107262D01*
X64624235Y-54210816D01*
X64633509Y-54331373D01*
X64630611Y-54399572D01*
X64621917Y-54461976D01*
X64583277Y-54564758D01*
X64512179Y-54632764D01*
X64403215Y-54657493D01*
X64386213Y-54657493D01*
X64369212Y-54655948D01*
X64369212Y-54012980D01*
X64397032Y-54009116D01*
X64424853Y-54008343D01*
X64528408Y-54035391D01*
G37*
G36*
X66846801Y-54035391D02*
G01*
X66910170Y-54107262D01*
X66942628Y-54210816D01*
X66951901Y-54331373D01*
X66949003Y-54399572D01*
X66940309Y-54461976D01*
X66901669Y-54564758D01*
X66830572Y-54632764D01*
X66721607Y-54657493D01*
X66704606Y-54657493D01*
X66687604Y-54655948D01*
X66687604Y-54012980D01*
X66715425Y-54009116D01*
X66743246Y-54008343D01*
X66846801Y-54035391D01*
G37*
G36*
X69165193Y-54035391D02*
G01*
X69228563Y-54107262D01*
X69261020Y-54210816D01*
X69270294Y-54331373D01*
X69267396Y-54399572D01*
X69258702Y-54461976D01*
X69220062Y-54564758D01*
X69148964Y-54632764D01*
X69040000Y-54657493D01*
X69022998Y-54657493D01*
X69005997Y-54655948D01*
X69005997Y-54012980D01*
X69033818Y-54009116D01*
X69061638Y-54008343D01*
X69165193Y-54035391D01*
G37*
G36*
X71153601Y-55216999D02*
G01*
X70767202Y-55216999D01*
X70219289Y-55216999D01*
X69019907Y-55216999D01*
X67817434Y-55216999D01*
X66701515Y-55216999D01*
X65072457Y-55216999D01*
X64383122Y-55216999D01*
X62931808Y-55216999D01*
X62064730Y-55216999D01*
X61312798Y-55216999D01*
X60926399Y-55216999D01*
X60926399Y-53866149D01*
X61860711Y-53866149D01*
X61860711Y-54799688D01*
X61965039Y-54817462D01*
X62064730Y-54822872D01*
X62158045Y-54816110D01*
X62243246Y-54795824D01*
X62318787Y-54760855D01*
X62383122Y-54710044D01*
X62435479Y-54642617D01*
X62468950Y-54570940D01*
X62608779Y-54570940D01*
X62631963Y-54679904D01*
X62697651Y-54761821D01*
X62799660Y-54812826D01*
X62862450Y-54826156D01*
X62931808Y-54830600D01*
X63017202Y-54824418D01*
X63087913Y-54805870D01*
X63190696Y-54743274D01*
X63247883Y-54657493D01*
X63265657Y-54563212D01*
X63256577Y-54493660D01*
X63229335Y-54430291D01*
X63180070Y-54372331D01*
X63104915Y-54319008D01*
X63165193Y-54270515D01*
X63206924Y-54211589D01*
X63231267Y-54146867D01*
X63239382Y-54080986D01*
X63219096Y-53978204D01*
X63158238Y-53898606D01*
X63097626Y-53866149D01*
X64179104Y-53866149D01*
X64179104Y-54799688D01*
X64283431Y-54817462D01*
X64383122Y-54822872D01*
X64476437Y-54816110D01*
X64561638Y-54795824D01*
X64637179Y-54760855D01*
X64701515Y-54710044D01*
X64753872Y-54642617D01*
X64793478Y-54557802D01*
X64818400Y-54454441D01*
X64826708Y-54331373D01*
X64819173Y-54211010D01*
X64796569Y-54109580D01*
X64760440Y-54025731D01*
X64750269Y-54011435D01*
X64944173Y-54011435D01*
X65346028Y-54011435D01*
X65303138Y-54087748D01*
X65257929Y-54177586D01*
X65213300Y-54277084D01*
X65172148Y-54382377D01*
X65135634Y-54491149D01*
X65104915Y-54601079D01*
X65082890Y-54708691D01*
X65072457Y-54810507D01*
X65265657Y-54810507D01*
X65279760Y-54686666D01*
X65306615Y-54562439D01*
X65342550Y-54441690D01*
X65383895Y-54328282D01*
X65429297Y-54224340D01*
X65477403Y-54131991D01*
X65524930Y-54055098D01*
X65568594Y-53997524D01*
X65568594Y-53866149D01*
X66497496Y-53866149D01*
X66497496Y-54799688D01*
X66601824Y-54817462D01*
X66701515Y-54822872D01*
X66794830Y-54816110D01*
X66880031Y-54795824D01*
X66955572Y-54760855D01*
X67019907Y-54710044D01*
X67072264Y-54642617D01*
X67111870Y-54557802D01*
X67136793Y-54454441D01*
X67137380Y-54445747D01*
X67228563Y-54445747D01*
X67228563Y-54584850D01*
X67627326Y-54584850D01*
X67627326Y-54810507D01*
X67817434Y-54810507D01*
X67817434Y-54584850D01*
X67920989Y-54584850D01*
X67920989Y-54428745D01*
X67817434Y-54428745D01*
X67817434Y-53866149D01*
X68815889Y-53866149D01*
X68815889Y-54799688D01*
X68920216Y-54817462D01*
X69019907Y-54822872D01*
X69113223Y-54816110D01*
X69198423Y-54795824D01*
X69273964Y-54760855D01*
X69338300Y-54710044D01*
X69390657Y-54642617D01*
X69430263Y-54557802D01*
X69455185Y-54454441D01*
X69463493Y-54331373D01*
X69455958Y-54211010D01*
X69433354Y-54109580D01*
X69397226Y-54025731D01*
X69349668Y-53958884D01*
X69571685Y-53958884D01*
X69665966Y-54091806D01*
X69763338Y-54019163D01*
X69857620Y-53997524D01*
X69947264Y-54029209D01*
X69982813Y-54119626D01*
X69954219Y-54201543D01*
X69881577Y-54285005D01*
X69835981Y-54329248D01*
X69787295Y-54375422D01*
X69738609Y-54424495D01*
X69693014Y-54477432D01*
X69652828Y-54534812D01*
X69620371Y-54597215D01*
X69598926Y-54665221D01*
X69591777Y-54739410D01*
X69591005Y-54771867D01*
X69594869Y-54810507D01*
X70219289Y-54810507D01*
X70219289Y-54652857D01*
X69808161Y-54652857D01*
X69824389Y-54601852D01*
X69863802Y-54546983D01*
X69913261Y-54494433D01*
X69959629Y-54450384D01*
X70038454Y-54373104D01*
X70108006Y-54289642D01*
X70157465Y-54200770D01*
X70176012Y-54105716D01*
X70151283Y-53985932D01*
X70084822Y-53900152D01*
X69988995Y-53849147D01*
X69876167Y-53832146D01*
X69795603Y-53839874D01*
X69714652Y-53863057D01*
X69638338Y-53902470D01*
X69571685Y-53958884D01*
X69349668Y-53958884D01*
X69349119Y-53958112D01*
X69289034Y-53906527D01*
X69216971Y-53870785D01*
X69134861Y-53849920D01*
X69044637Y-53842965D01*
X68937991Y-53847602D01*
X68815889Y-53866149D01*
X67817434Y-53866149D01*
X67817434Y-53853784D01*
X67647419Y-53853784D01*
X67585595Y-53919665D01*
X67523771Y-53993660D01*
X67463493Y-54072292D01*
X67406306Y-54152084D01*
X67352983Y-54231489D01*
X67304297Y-54308962D01*
X67262179Y-54381411D01*
X67228563Y-54445747D01*
X67137380Y-54445747D01*
X67145100Y-54331373D01*
X67137566Y-54211010D01*
X67114961Y-54109580D01*
X67078833Y-54025731D01*
X67030726Y-53958112D01*
X66970641Y-53906527D01*
X66898578Y-53870785D01*
X66816468Y-53849920D01*
X66726244Y-53842965D01*
X66619598Y-53847602D01*
X66497496Y-53866149D01*
X65568594Y-53866149D01*
X65568594Y-53853784D01*
X64944173Y-53853784D01*
X64944173Y-54011435D01*
X64750269Y-54011435D01*
X64712334Y-53958112D01*
X64652249Y-53906527D01*
X64580185Y-53870785D01*
X64498076Y-53849920D01*
X64407852Y-53842965D01*
X64301206Y-53847602D01*
X64179104Y-53866149D01*
X63097626Y-53866149D01*
X63062991Y-53847602D01*
X62939536Y-53830600D01*
X62859938Y-53837169D01*
X62794250Y-53856875D01*
X62699969Y-53923336D01*
X62648192Y-54013753D01*
X62631963Y-54110353D01*
X62656692Y-54221636D01*
X62692241Y-54272640D01*
X62749428Y-54320554D01*
X62686445Y-54373683D01*
X62642782Y-54434155D01*
X62617280Y-54500422D01*
X62608779Y-54570940D01*
X62468950Y-54570940D01*
X62475085Y-54557802D01*
X62500008Y-54454441D01*
X62508315Y-54331373D01*
X62500781Y-54211010D01*
X62478176Y-54109580D01*
X62442048Y-54025731D01*
X62393941Y-53958112D01*
X62333856Y-53906527D01*
X62261793Y-53870785D01*
X62179683Y-53849920D01*
X62089459Y-53842965D01*
X61982813Y-53847602D01*
X61860711Y-53866149D01*
X60926399Y-53866149D01*
X60926399Y-53444201D01*
X61312798Y-53444201D01*
X70767202Y-53444201D01*
X71153601Y-53444201D01*
X71153601Y-55216999D01*
G37*
%TO.C,kibuzzard-6640C421*%
G36*
X59758021Y-51697784D02*
G01*
X59821703Y-51706656D01*
X59926593Y-51746088D01*
X59995994Y-51818644D01*
X60021230Y-51929842D01*
X60021230Y-51947192D01*
X60019653Y-51964543D01*
X59363502Y-51964543D01*
X59359558Y-51936151D01*
X59358770Y-51907760D01*
X59386372Y-51802082D01*
X59459716Y-51737413D01*
X59565394Y-51704290D01*
X59688423Y-51694826D01*
X59758021Y-51697784D01*
G37*
G36*
X60584322Y-49399874D02*
G01*
X60584322Y-51950347D01*
X60584322Y-52741356D01*
X60584322Y-53135678D01*
X58795678Y-53135678D01*
X58795678Y-52741356D01*
X58795678Y-51925110D01*
X59190000Y-51925110D01*
X59194732Y-52033943D01*
X59213659Y-52158549D01*
X60166341Y-52158549D01*
X60184479Y-52052082D01*
X60190000Y-51950347D01*
X60183099Y-51855118D01*
X60162397Y-51768170D01*
X60126711Y-51691080D01*
X60074858Y-51625426D01*
X60006049Y-51571995D01*
X59919495Y-51531577D01*
X59814014Y-51506144D01*
X59688423Y-51497666D01*
X59565591Y-51505355D01*
X59462082Y-51528423D01*
X59376514Y-51565292D01*
X59307508Y-51614385D01*
X59254866Y-51675702D01*
X59218391Y-51749243D01*
X59197098Y-51833036D01*
X59190000Y-51925110D01*
X58795678Y-51925110D01*
X58795678Y-49399874D01*
X59409243Y-49399874D01*
X59409243Y-49567066D01*
X59683691Y-49567066D01*
X59683691Y-49814700D01*
X59842997Y-49814700D01*
X59842997Y-49567066D01*
X60117445Y-49567066D01*
X60117445Y-49399874D01*
X59842997Y-49399874D01*
X59842997Y-49152240D01*
X59683691Y-49152240D01*
X59683691Y-49399874D01*
X59409243Y-49399874D01*
X58795678Y-49399874D01*
X58795678Y-46901451D01*
X59677382Y-46901451D01*
X59677382Y-47333628D01*
X59868233Y-47333628D01*
X59868233Y-46901451D01*
X59677382Y-46901451D01*
X58795678Y-46901451D01*
X58795678Y-46318644D01*
X58795678Y-45924322D01*
X60584322Y-45924322D01*
X60584322Y-46318644D01*
X60584322Y-46901451D01*
X60584322Y-49399874D01*
G37*
%TO.C,kibuzzard-6640BED0*%
G36*
X67604241Y-55944372D02*
G01*
X67629009Y-56040347D01*
X67649907Y-56135548D01*
X67668483Y-56234619D01*
X67481176Y-56234619D01*
X67500526Y-56135548D01*
X67522198Y-56040347D01*
X67546966Y-55944372D01*
X67575604Y-55841430D01*
X67604241Y-55944372D01*
G37*
G36*
X63753622Y-55837560D02*
G01*
X63817090Y-55909542D01*
X63849598Y-56013257D01*
X63858885Y-56134000D01*
X63855983Y-56202305D01*
X63847276Y-56264805D01*
X63808576Y-56367746D01*
X63737368Y-56435858D01*
X63628235Y-56460625D01*
X63611207Y-56460625D01*
X63594180Y-56459077D01*
X63594180Y-55815115D01*
X63622043Y-55811245D01*
X63649907Y-55810471D01*
X63753622Y-55837560D01*
G37*
G36*
X71153003Y-57020997D02*
G01*
X70766006Y-57020997D01*
X68676223Y-57020997D01*
X67745882Y-57020997D01*
X66899133Y-57020997D01*
X65725759Y-57020997D01*
X65301610Y-57020997D01*
X64177771Y-57020997D01*
X63608111Y-57020997D01*
X61313994Y-57020997D01*
X60926997Y-57020997D01*
X60926997Y-55668056D01*
X63403777Y-55668056D01*
X63403777Y-56603040D01*
X63508266Y-56620842D01*
X63608111Y-56626260D01*
X63701571Y-56619488D01*
X63786904Y-56599170D01*
X63862562Y-56564147D01*
X63926997Y-56513257D01*
X63979435Y-56445726D01*
X64019102Y-56360780D01*
X64044063Y-56257259D01*
X64052384Y-56134000D01*
X64044837Y-56013450D01*
X64022198Y-55911864D01*
X63986014Y-55827885D01*
X63975828Y-55813567D01*
X64177771Y-55813567D01*
X64386749Y-55813567D01*
X64386749Y-56455981D01*
X64177771Y-56455981D01*
X64177771Y-56613876D01*
X64786130Y-56613876D01*
X64786130Y-56455981D01*
X64578700Y-56455981D01*
X64578700Y-56134000D01*
X64909969Y-56134000D01*
X64916935Y-56250293D01*
X64937833Y-56351492D01*
X64971502Y-56437406D01*
X65016780Y-56507839D01*
X65073088Y-56562793D01*
X65139845Y-56602266D01*
X65216277Y-56626067D01*
X65301610Y-56634000D01*
X65396231Y-56630130D01*
X65475759Y-56618520D01*
X65581796Y-56590656D01*
X65581796Y-56112328D01*
X65391393Y-56112328D01*
X65391393Y-56462173D01*
X65354241Y-56466817D01*
X65317090Y-56468365D01*
X65224598Y-56448048D01*
X65157647Y-56387096D01*
X65127547Y-56322854D01*
X65109487Y-56238489D01*
X65103467Y-56134000D01*
X65106757Y-56062986D01*
X65116625Y-55998551D01*
X65159969Y-55893288D01*
X65236594Y-55824402D01*
X65351146Y-55799635D01*
X65453313Y-55816663D01*
X65536904Y-55855362D01*
X65550551Y-55813567D01*
X65725759Y-55813567D01*
X65934737Y-55813567D01*
X65934737Y-56455981D01*
X65725759Y-56455981D01*
X65725759Y-56613876D01*
X66334118Y-56613876D01*
X66334118Y-56455981D01*
X66126687Y-56455981D01*
X66126687Y-55813567D01*
X66334118Y-55813567D01*
X66454861Y-55813567D01*
X66707183Y-55813567D01*
X66707183Y-56613876D01*
X66899133Y-56613876D01*
X67204087Y-56613876D01*
X67402229Y-56613876D01*
X67445573Y-56392514D01*
X67700991Y-56392514D01*
X67745882Y-56613876D01*
X67950217Y-56613876D01*
X68074056Y-56613876D01*
X68676223Y-56613876D01*
X68676223Y-56455981D01*
X68266006Y-56455981D01*
X68266006Y-55655672D01*
X68074056Y-55655672D01*
X68074056Y-56613876D01*
X67950217Y-56613876D01*
X67924675Y-56505238D01*
X67898824Y-56399759D01*
X67872663Y-56297437D01*
X67846192Y-56198272D01*
X67819412Y-56102266D01*
X67785695Y-55985829D01*
X67751881Y-55872584D01*
X67717970Y-55762531D01*
X67683963Y-55655672D01*
X67476533Y-55655672D01*
X67443735Y-55761661D01*
X67410356Y-55870649D01*
X67376397Y-55982636D01*
X67341858Y-56097622D01*
X67314056Y-56192824D01*
X67286378Y-56292050D01*
X67258824Y-56395300D01*
X67231393Y-56502576D01*
X67204087Y-56613876D01*
X66899133Y-56613876D01*
X66899133Y-55813567D01*
X67151455Y-55813567D01*
X67151455Y-55655672D01*
X66454861Y-55655672D01*
X66454861Y-55813567D01*
X66334118Y-55813567D01*
X66334118Y-55655672D01*
X65725759Y-55655672D01*
X65725759Y-55813567D01*
X65550551Y-55813567D01*
X65586440Y-55703659D01*
X65554706Y-55685084D01*
X65501300Y-55661864D01*
X65424675Y-55642514D01*
X65324830Y-55634000D01*
X65240851Y-55641933D01*
X65162291Y-55665734D01*
X65091471Y-55705401D01*
X65030712Y-55760935D01*
X64980789Y-55831949D01*
X64942477Y-55918056D01*
X64918096Y-56018868D01*
X64909969Y-56134000D01*
X64578700Y-56134000D01*
X64578700Y-55813567D01*
X64786130Y-55813567D01*
X64786130Y-55655672D01*
X64177771Y-55655672D01*
X64177771Y-55813567D01*
X63975828Y-55813567D01*
X63937833Y-55760161D01*
X63877655Y-55708497D01*
X63805480Y-55672700D01*
X63723243Y-55651802D01*
X63632879Y-55644836D01*
X63526068Y-55649480D01*
X63403777Y-55668056D01*
X60926997Y-55668056D01*
X60926997Y-55247003D01*
X61313994Y-55247003D01*
X70766006Y-55247003D01*
X71153003Y-55247003D01*
X71153003Y-57020997D01*
G37*
%TO.C,kibuzzard-6640BEF1*%
G36*
X92401126Y-55813912D02*
G01*
X92456038Y-55840869D01*
X92491382Y-55889391D01*
X92503163Y-55963073D01*
X92491182Y-56040749D01*
X92455240Y-56091668D01*
X92395735Y-56119823D01*
X92313067Y-56129208D01*
X92233195Y-56129208D01*
X92233195Y-55809719D01*
X92281917Y-55805725D01*
X92330639Y-55804927D01*
X92401126Y-55813912D01*
G37*
G36*
X99080639Y-57033361D02*
G01*
X98681278Y-57033361D01*
X95696454Y-57033361D01*
X94309872Y-57033361D01*
X93455240Y-57033361D01*
X92233195Y-57033361D01*
X89278722Y-57033361D01*
X88879361Y-57033361D01*
X88879361Y-55657962D01*
X92036709Y-55657962D01*
X92036709Y-56634000D01*
X92233195Y-56634000D01*
X92233195Y-56300134D01*
X92303482Y-56300134D01*
X92421605Y-56291348D01*
X92520380Y-56264990D01*
X92599808Y-56221061D01*
X92657938Y-56157429D01*
X92692815Y-56071966D01*
X92704441Y-55964671D01*
X92692904Y-55858441D01*
X92658293Y-55774043D01*
X92600607Y-55711476D01*
X92521977Y-55668434D01*
X92434245Y-55645182D01*
X92785911Y-55645182D01*
X92789505Y-55767187D01*
X92793898Y-55893585D01*
X92799289Y-56021780D01*
X92805879Y-56149176D01*
X92813666Y-56275374D01*
X92822652Y-56399974D01*
X92833035Y-56520382D01*
X92845016Y-56634000D01*
X93007955Y-56634000D01*
X93041502Y-56528968D01*
X93078243Y-56415150D01*
X93115783Y-56301332D01*
X93151725Y-56196300D01*
X93186869Y-56304327D01*
X93222013Y-56417546D01*
X93257157Y-56529567D01*
X93292300Y-56634000D01*
X93455240Y-56634000D01*
X93584633Y-56634000D01*
X93765144Y-56634000D01*
X93757157Y-55865629D01*
X93873770Y-56284160D01*
X94017540Y-56284160D01*
X94138946Y-55865629D01*
X94129361Y-56634000D01*
X94309872Y-56634000D01*
X94306278Y-56507602D01*
X94301885Y-56384000D01*
X94298880Y-56316109D01*
X95178882Y-56316109D01*
X95324249Y-56356045D01*
X95343419Y-56300134D01*
X95364185Y-56268984D01*
X95387348Y-56255406D01*
X95412109Y-56252211D01*
X95475208Y-56268984D01*
X95543099Y-56306524D01*
X95615783Y-56344064D01*
X95696454Y-56360837D01*
X95791502Y-56336077D01*
X95857796Y-56273776D01*
X95900128Y-56192307D01*
X95923291Y-56108441D01*
X95777923Y-56068505D01*
X95757955Y-56124415D01*
X95736390Y-56156364D01*
X95713227Y-56170741D01*
X95688466Y-56173936D01*
X95624569Y-56157163D01*
X95557476Y-56119623D01*
X95484792Y-56082083D01*
X95405719Y-56065310D01*
X95309872Y-56090070D01*
X95243578Y-56151572D01*
X95201246Y-56232243D01*
X95178882Y-56316109D01*
X94298880Y-56316109D01*
X94296494Y-56262195D01*
X94289904Y-56141188D01*
X94281917Y-56019982D01*
X94272332Y-55897578D01*
X94261749Y-55772978D01*
X94250767Y-55645182D01*
X94087827Y-55645182D01*
X94059073Y-55729847D01*
X94023930Y-55839272D01*
X93983994Y-55960677D01*
X93944058Y-56082882D01*
X93907316Y-55967866D01*
X93868978Y-55844863D01*
X93833035Y-55731444D01*
X93805080Y-55645182D01*
X93642141Y-55645182D01*
X93631558Y-55753409D01*
X93622173Y-55870422D01*
X93613986Y-55993824D01*
X93606997Y-56121220D01*
X93600807Y-56251013D01*
X93595016Y-56381604D01*
X93589625Y-56510198D01*
X93584633Y-56634000D01*
X93455240Y-56634000D01*
X93465823Y-56520581D01*
X93475208Y-56400773D01*
X93483395Y-56276772D01*
X93490383Y-56150773D01*
X93496374Y-56023377D01*
X93501565Y-55895182D01*
X93506358Y-55768385D01*
X93511150Y-55645182D01*
X93329042Y-55645182D01*
X93329441Y-55741228D01*
X93330639Y-55840869D01*
X93332236Y-55941708D01*
X93333834Y-56041348D01*
X93335431Y-56139391D01*
X93337029Y-56235438D01*
X93338227Y-56327490D01*
X93338626Y-56413553D01*
X93302684Y-56285757D01*
X93269137Y-56169144D01*
X93241182Y-56070102D01*
X93222013Y-55995022D01*
X93078243Y-55995022D01*
X93055879Y-56073297D01*
X93024728Y-56181923D01*
X92989585Y-56301732D01*
X92956837Y-56413553D01*
X92957236Y-56327490D01*
X92958435Y-56235438D01*
X92960032Y-56139192D01*
X92961629Y-56040550D01*
X92963227Y-55940510D01*
X92964824Y-55840070D01*
X92966422Y-55741029D01*
X92968019Y-55645182D01*
X92785911Y-55645182D01*
X92434245Y-55645182D01*
X92424533Y-55642608D01*
X92308275Y-55634000D01*
X92245974Y-55635597D01*
X92174089Y-55639591D01*
X92101406Y-55646780D01*
X92036709Y-55657962D01*
X88879361Y-55657962D01*
X88879361Y-55234639D01*
X89278722Y-55234639D01*
X98681278Y-55234639D01*
X99080639Y-55234639D01*
X99080639Y-57033361D01*
G37*
%TO.C,LED1*%
D12*
X95758000Y-108458000D02*
X64262000Y-108458000D01*
X64262000Y-76962000D01*
X95758000Y-76962000D01*
X95758000Y-108458000D01*
X95758000Y-77978000D02*
X94742000Y-76962000D01*
X95758000Y-76962000D01*
X95758000Y-77978000D01*
G36*
X95758000Y-77978000D02*
G01*
X94742000Y-76962000D01*
X95758000Y-76962000D01*
X95758000Y-77978000D01*
G37*
D14*
%TO.C,kibuzzard-6640BF4C*%
G36*
X105819165Y-78593428D02*
G01*
X105721558Y-78574364D01*
X105627764Y-78553012D01*
X105533207Y-78528610D01*
X105431787Y-78500396D01*
X105533207Y-78472181D01*
X105627764Y-78447779D01*
X105721558Y-78427190D01*
X105819165Y-78408889D01*
X105819165Y-78593428D01*
G37*
G36*
X107788898Y-78390621D02*
G01*
X107888841Y-78428194D01*
X107954968Y-78497327D01*
X107979015Y-78603282D01*
X107979015Y-78619813D01*
X107977512Y-78636345D01*
X107352305Y-78636345D01*
X107348548Y-78609293D01*
X107347796Y-78582241D01*
X107374097Y-78481547D01*
X107443982Y-78419928D01*
X107544676Y-78388367D01*
X107661903Y-78379349D01*
X107788898Y-78390621D01*
G37*
G36*
X105787328Y-79114825D02*
G01*
X105848905Y-79123404D01*
X105950325Y-79161531D01*
X106017429Y-79231686D01*
X106041831Y-79339207D01*
X106041831Y-79355983D01*
X106040306Y-79372759D01*
X105405860Y-79372759D01*
X105402047Y-79345307D01*
X105401285Y-79317855D01*
X105427974Y-79215673D01*
X105498892Y-79153143D01*
X105601074Y-79121116D01*
X105720033Y-79111965D01*
X105787328Y-79114825D01*
G37*
G36*
X110469040Y-79365367D02*
G01*
X110469040Y-79956417D01*
X110469040Y-80364681D01*
X110469040Y-80751678D01*
X102890960Y-80751678D01*
X102890960Y-80364681D01*
X102890960Y-80001235D01*
X103277957Y-80001235D01*
X103286384Y-80096092D01*
X103311668Y-80176329D01*
X103353808Y-80241947D01*
X103444365Y-80307543D01*
X103564334Y-80329408D01*
X103678111Y-80304640D01*
X103754737Y-80241947D01*
X103805820Y-80157581D01*
X103841424Y-80067798D01*
X103868514Y-80002783D01*
X103901022Y-79943959D01*
X103942043Y-79900615D01*
X103994675Y-79883588D01*
X104040340Y-79890553D01*
X104080588Y-79916095D01*
X104108452Y-79966405D01*
X104118514Y-80046126D01*
X104113096Y-80123332D01*
X104096842Y-80187767D01*
X104050402Y-80287612D01*
X104205201Y-80343340D01*
X104252415Y-80236529D01*
X104271571Y-80153324D01*
X104277957Y-80046126D01*
X104275029Y-80007205D01*
X105227422Y-80007205D01*
X105230880Y-80046126D01*
X105235725Y-80100661D01*
X105260635Y-80179712D01*
X105302152Y-80244360D01*
X105391371Y-80308987D01*
X105509567Y-80330529D01*
X105621663Y-80306127D01*
X105697156Y-80244360D01*
X105747485Y-80161242D01*
X105782562Y-80072785D01*
X105809252Y-80008731D01*
X105841279Y-79950776D01*
X105881695Y-79908073D01*
X105933548Y-79891297D01*
X105978539Y-79898160D01*
X106018192Y-79923324D01*
X106045644Y-79972890D01*
X106055557Y-80051434D01*
X106050219Y-80127499D01*
X106034206Y-80190981D01*
X105988452Y-80289351D01*
X106140963Y-80344255D01*
X106187479Y-80239022D01*
X106206353Y-80157048D01*
X106212644Y-80051434D01*
X106205909Y-79961904D01*
X107176466Y-79961904D01*
X107184168Y-80043436D01*
X107186591Y-80051434D01*
X107207275Y-80119708D01*
X107245787Y-80188466D01*
X107299703Y-80247455D01*
X107368649Y-80295923D01*
X107452248Y-80333120D01*
X107550124Y-80356791D01*
X107661903Y-80364681D01*
X107774808Y-80357918D01*
X107873060Y-80337629D01*
X107956471Y-80304941D01*
X108024853Y-80260981D01*
X108078206Y-80206313D01*
X108116530Y-80141500D01*
X108125268Y-80113438D01*
X109341380Y-80113438D01*
X109599131Y-80113438D01*
X109599131Y-80346006D01*
X109748745Y-80346006D01*
X109748745Y-80113438D01*
X110006496Y-80113438D01*
X110006496Y-79956417D01*
X109748745Y-79956417D01*
X109748745Y-79723849D01*
X109599131Y-79723849D01*
X109599131Y-79956417D01*
X109341380Y-79956417D01*
X109341380Y-79984447D01*
X109341380Y-80113438D01*
X108125268Y-80113438D01*
X108139637Y-80067295D01*
X108147339Y-79984447D01*
X108143582Y-79892582D01*
X108132310Y-79815371D01*
X108105258Y-79712422D01*
X107640862Y-79712422D01*
X107640862Y-79897279D01*
X107980517Y-79897279D01*
X107985026Y-79933349D01*
X107986529Y-79969418D01*
X107966803Y-80059217D01*
X107907627Y-80124217D01*
X107845256Y-80153440D01*
X107763348Y-80170974D01*
X107661903Y-80176818D01*
X107592957Y-80173625D01*
X107530399Y-80164044D01*
X107428201Y-80121963D01*
X107361322Y-80047569D01*
X107337276Y-79936354D01*
X107353808Y-79837163D01*
X107391380Y-79756006D01*
X107244096Y-79707913D01*
X107226061Y-79738723D01*
X107203518Y-79790573D01*
X107184732Y-79864967D01*
X107176466Y-79961904D01*
X106205909Y-79961904D01*
X106204594Y-79944422D01*
X106180447Y-79857236D01*
X106140201Y-79789877D01*
X106052698Y-79725251D01*
X105935073Y-79703708D01*
X105863965Y-79710190D01*
X105806202Y-79729635D01*
X105720795Y-79795978D01*
X105665891Y-79884434D01*
X105628526Y-79976703D01*
X105605649Y-80035420D01*
X105577435Y-80088799D01*
X105540832Y-80127689D01*
X105492791Y-80142940D01*
X105411579Y-80105575D01*
X105384508Y-79993479D01*
X105399759Y-79885959D01*
X105436362Y-79801315D01*
X105291477Y-79746411D01*
X105247248Y-79855457D01*
X105232379Y-79925803D01*
X105227422Y-80007205D01*
X104275029Y-80007205D01*
X104269787Y-79937509D01*
X104245277Y-79849016D01*
X104204427Y-79780646D01*
X104115611Y-79715050D01*
X103996223Y-79693185D01*
X103924048Y-79699764D01*
X103865418Y-79719501D01*
X103778731Y-79786838D01*
X103723003Y-79876622D01*
X103685077Y-79970275D01*
X103661857Y-80029872D01*
X103633220Y-80084052D01*
X103596068Y-80123526D01*
X103547306Y-80139006D01*
X103486247Y-80122150D01*
X103449611Y-80071582D01*
X103437399Y-79987303D01*
X103452879Y-79878170D01*
X103490031Y-79792256D01*
X103342972Y-79736529D01*
X103298080Y-79847210D01*
X103282987Y-79918611D01*
X103277957Y-80001235D01*
X102890960Y-80001235D01*
X102890960Y-79154485D01*
X103277957Y-79154485D01*
X103286277Y-79245236D01*
X103311238Y-79328634D01*
X103352260Y-79402937D01*
X103408761Y-79466405D01*
X103480162Y-79518069D01*
X103565882Y-79556962D01*
X103665340Y-79581343D01*
X103777957Y-79589470D01*
X103891056Y-79582794D01*
X103990418Y-79562767D01*
X104076041Y-79529389D01*
X104147926Y-79482659D01*
X104220165Y-79400787D01*
X104247951Y-79334631D01*
X105238098Y-79334631D01*
X105242673Y-79439864D01*
X105260974Y-79560348D01*
X106182141Y-79560348D01*
X106199680Y-79457403D01*
X106200848Y-79435888D01*
X107197506Y-79435888D01*
X107197506Y-79584676D01*
X108127802Y-79584676D01*
X108127802Y-79504612D01*
X109145844Y-79504612D01*
X109258981Y-79510167D01*
X109376191Y-79517944D01*
X109496734Y-79528313D01*
X109619869Y-79541645D01*
X109623017Y-79439804D01*
X109632460Y-79359442D01*
X109668012Y-79252046D01*
X109722821Y-79201680D01*
X109793185Y-79189089D01*
X109842068Y-79196496D01*
X109884286Y-79223900D01*
X109914653Y-79278710D01*
X109926504Y-79366849D01*
X109913172Y-79492761D01*
X109883546Y-79575716D01*
X110034641Y-79612749D01*
X110050936Y-79570531D01*
X110066490Y-79509056D01*
X110077600Y-79437952D01*
X110082043Y-79365367D01*
X110076489Y-79280561D01*
X110059824Y-79206865D01*
X110033160Y-79144279D01*
X109997608Y-79092803D01*
X109903543Y-79024662D01*
X109785778Y-79002442D01*
X109662087Y-79025032D01*
X109569504Y-79092803D01*
X109525393Y-79163413D01*
X109495767Y-79254761D01*
X109480624Y-79366849D01*
X109396189Y-79359442D01*
X109296940Y-79352035D01*
X109296940Y-79036512D01*
X109145844Y-79036512D01*
X109145844Y-79120279D01*
X109145844Y-79504612D01*
X108127802Y-79504612D01*
X108127802Y-79417854D01*
X107510110Y-79417854D01*
X107613225Y-79361996D01*
X107716174Y-79308643D01*
X107818956Y-79257795D01*
X107921737Y-79209451D01*
X108024686Y-79163613D01*
X108127802Y-79120279D01*
X108127802Y-78971492D01*
X107197506Y-78971492D01*
X107197506Y-79138314D01*
X107770111Y-79138314D01*
X107711498Y-79164803D01*
X107643868Y-79196176D01*
X107570601Y-79231494D01*
X107495081Y-79269818D01*
X107418245Y-79310208D01*
X107341033Y-79351726D01*
X107328083Y-79359033D01*
X107266452Y-79393807D01*
X107197506Y-79435888D01*
X106200848Y-79435888D01*
X106205018Y-79359033D01*
X106198346Y-79266955D01*
X106178329Y-79182883D01*
X106143823Y-79108343D01*
X106093685Y-79044860D01*
X106027152Y-78993197D01*
X105943462Y-78954116D01*
X105841470Y-78929524D01*
X105720033Y-78921326D01*
X105601265Y-78928761D01*
X105501179Y-78951066D01*
X105418442Y-78986716D01*
X105351718Y-79034185D01*
X105300818Y-79093473D01*
X105265550Y-79164582D01*
X105263395Y-79173061D01*
X105244961Y-79245603D01*
X105238098Y-79334631D01*
X104247951Y-79334631D01*
X104263509Y-79297588D01*
X104277957Y-79173061D01*
X104272732Y-79088502D01*
X104257059Y-79014392D01*
X104211393Y-78905259D01*
X104061238Y-78953247D01*
X104095294Y-79031420D01*
X104112322Y-79154485D01*
X104090457Y-79264973D01*
X104024861Y-79339470D01*
X103958039Y-79370860D01*
X103874190Y-79389693D01*
X103773313Y-79395971D01*
X103686625Y-79390747D01*
X103615418Y-79375074D01*
X103514025Y-79320894D01*
X103459845Y-79245043D01*
X103443591Y-79157581D01*
X103459845Y-79042256D01*
X103499319Y-78956343D01*
X103347616Y-78906807D01*
X103329040Y-78938541D01*
X103305820Y-78990399D01*
X103286470Y-79062380D01*
X103277957Y-79154485D01*
X102890960Y-79154485D01*
X102890960Y-78555414D01*
X103299628Y-78555414D01*
X103299628Y-78747365D01*
X104257833Y-78747365D01*
X104257833Y-78393638D01*
X105248774Y-78393638D01*
X105248774Y-78598003D01*
X105353196Y-78630316D01*
X105460573Y-78663201D01*
X105570906Y-78696659D01*
X105684193Y-78730688D01*
X105777987Y-78758079D01*
X105875747Y-78785348D01*
X105977472Y-78812494D01*
X106083162Y-78839519D01*
X106192817Y-78866422D01*
X106192817Y-78671208D01*
X105974726Y-78628505D01*
X105974726Y-78598773D01*
X107186986Y-78598773D01*
X107191495Y-78702473D01*
X107209529Y-78821202D01*
X108117281Y-78821202D01*
X108134565Y-78719756D01*
X108134980Y-78712102D01*
X109145844Y-78712102D01*
X109145844Y-78904674D01*
X109228799Y-78887639D01*
X109332492Y-78863197D01*
X109450072Y-78833200D01*
X109574689Y-78799500D01*
X109660194Y-78775305D01*
X109745864Y-78750122D01*
X109831699Y-78723952D01*
X109953909Y-78685067D01*
X110062786Y-78648405D01*
X110062786Y-78460276D01*
X109943725Y-78418058D01*
X109820589Y-78377322D01*
X109696528Y-78338992D01*
X109574689Y-78303996D01*
X109456738Y-78272518D01*
X109344342Y-78244743D01*
X109239909Y-78220856D01*
X109145844Y-78201044D01*
X109145844Y-78392135D01*
X109222873Y-78405467D01*
X109311753Y-78421761D01*
X109407854Y-78440278D01*
X109506548Y-78460276D01*
X109605797Y-78481755D01*
X109703564Y-78504716D01*
X109795221Y-78528417D01*
X109876139Y-78552118D01*
X109794110Y-78576005D01*
X109702083Y-78600261D01*
X109609032Y-78622819D01*
X109604315Y-78623963D01*
X109505066Y-78646183D01*
X109406558Y-78666736D01*
X109311012Y-78685438D01*
X109222688Y-78700992D01*
X109145844Y-78712102D01*
X108134980Y-78712102D01*
X108139825Y-78622819D01*
X108133250Y-78532082D01*
X108113524Y-78449234D01*
X108079521Y-78375780D01*
X108030113Y-78313222D01*
X107964549Y-78262311D01*
X107882077Y-78223799D01*
X107781571Y-78199565D01*
X107661903Y-78191487D01*
X107544864Y-78198813D01*
X107446236Y-78220793D01*
X107364704Y-78255924D01*
X107298952Y-78302701D01*
X107273255Y-78332634D01*
X107248793Y-78361127D01*
X107214038Y-78431199D01*
X107193749Y-78511041D01*
X107186986Y-78598773D01*
X105974726Y-78598773D01*
X105974726Y-78376862D01*
X106192817Y-78332634D01*
X106192817Y-78131319D01*
X106133787Y-78145197D01*
X106085785Y-78156483D01*
X105981864Y-78181953D01*
X105881054Y-78207727D01*
X105783355Y-78233806D01*
X105688768Y-78260191D01*
X105574051Y-78293410D01*
X105462480Y-78326724D01*
X105354054Y-78360133D01*
X105248774Y-78393638D01*
X104257833Y-78393638D01*
X104257833Y-78145197D01*
X104099938Y-78145197D01*
X104099938Y-78555414D01*
X103299628Y-78555414D01*
X102890960Y-78555414D01*
X102890960Y-78131319D01*
X102890960Y-77744322D01*
X110469040Y-77744322D01*
X110469040Y-78131319D01*
X110469040Y-78648405D01*
X110469040Y-79365367D01*
G37*
%TO.C,kibuzzard-6640C44A*%
G36*
X105639015Y-64825292D02*
G01*
X105664863Y-64925454D01*
X105686672Y-65024808D01*
X105706058Y-65128200D01*
X105510582Y-65128200D01*
X105530775Y-65024808D01*
X105553393Y-64925454D01*
X105579241Y-64825292D01*
X105609128Y-64717861D01*
X105639015Y-64825292D01*
G37*
G36*
X111546123Y-65927877D02*
G01*
X111142246Y-65927877D01*
X110678595Y-65927877D01*
X108119628Y-65927877D01*
X105786834Y-65927877D01*
X104757754Y-65927877D01*
X104353877Y-65927877D01*
X104353877Y-65524000D01*
X105221405Y-65524000D01*
X105428191Y-65524000D01*
X105473425Y-65292982D01*
X105739984Y-65292982D01*
X105786834Y-65524000D01*
X106000081Y-65524000D01*
X105973425Y-65410624D01*
X105946446Y-65300543D01*
X105919144Y-65193758D01*
X105891519Y-65090268D01*
X105871456Y-65018346D01*
X107694750Y-65018346D01*
X107694750Y-65181512D01*
X107948384Y-65181512D01*
X107948384Y-65462611D01*
X108119628Y-65462611D01*
X108119628Y-65207360D01*
X110235945Y-65207360D01*
X110678595Y-65207360D01*
X110678595Y-65011884D01*
X110235945Y-65011884D01*
X110235945Y-65207360D01*
X108119628Y-65207360D01*
X108119628Y-65181512D01*
X108373263Y-65181512D01*
X108373263Y-65018346D01*
X108119628Y-65018346D01*
X108119628Y-64737247D01*
X107948384Y-64737247D01*
X107948384Y-65018346D01*
X107694750Y-65018346D01*
X105871456Y-65018346D01*
X105863570Y-64990074D01*
X105828382Y-64868558D01*
X105793094Y-64750373D01*
X105757704Y-64635521D01*
X105722213Y-64524000D01*
X105505735Y-64524000D01*
X105471506Y-64634612D01*
X105436672Y-64748354D01*
X105401232Y-64865226D01*
X105365186Y-64985228D01*
X105336171Y-65084582D01*
X105307286Y-65188136D01*
X105278530Y-65295890D01*
X105249903Y-65407845D01*
X105221405Y-65524000D01*
X104353877Y-65524000D01*
X104353877Y-64120123D01*
X104757754Y-64120123D01*
X111142246Y-64120123D01*
X111546123Y-64120123D01*
X111546123Y-65927877D01*
G37*
%TO.C,kibuzzard-6640C421*%
G36*
X87698021Y-51734850D02*
G01*
X87761703Y-51743722D01*
X87866593Y-51783154D01*
X87935994Y-51855710D01*
X87961230Y-51966908D01*
X87961230Y-51984258D01*
X87959653Y-52001609D01*
X87303502Y-52001609D01*
X87299558Y-51973217D01*
X87298770Y-51944826D01*
X87326372Y-51839148D01*
X87399716Y-51774479D01*
X87505394Y-51741356D01*
X87628423Y-51731892D01*
X87698021Y-51734850D01*
G37*
G36*
X88524322Y-49436940D02*
G01*
X88524322Y-51987413D01*
X88524322Y-52778422D01*
X88524322Y-53172744D01*
X86735678Y-53172744D01*
X86735678Y-52778422D01*
X86735678Y-51962176D01*
X87130000Y-51962176D01*
X87134732Y-52071009D01*
X87153659Y-52195615D01*
X88106341Y-52195615D01*
X88124479Y-52089148D01*
X88130000Y-51987413D01*
X88123099Y-51892184D01*
X88102397Y-51805236D01*
X88066711Y-51728146D01*
X88014858Y-51662492D01*
X87946049Y-51609061D01*
X87859495Y-51568643D01*
X87754014Y-51543210D01*
X87628423Y-51534732D01*
X87505591Y-51542421D01*
X87402082Y-51565489D01*
X87316514Y-51602358D01*
X87247508Y-51651451D01*
X87194866Y-51712768D01*
X87158391Y-51786309D01*
X87137098Y-51870102D01*
X87130000Y-51962176D01*
X86735678Y-51962176D01*
X86735678Y-49436940D01*
X87349243Y-49436940D01*
X87349243Y-49604132D01*
X87623691Y-49604132D01*
X87623691Y-49851766D01*
X87782997Y-49851766D01*
X87782997Y-49604132D01*
X88057445Y-49604132D01*
X88057445Y-49436940D01*
X87782997Y-49436940D01*
X87782997Y-49189306D01*
X87623691Y-49189306D01*
X87623691Y-49436940D01*
X87349243Y-49436940D01*
X86735678Y-49436940D01*
X86735678Y-46938517D01*
X87617382Y-46938517D01*
X87617382Y-47370694D01*
X87808233Y-47370694D01*
X87808233Y-46938517D01*
X87617382Y-46938517D01*
X86735678Y-46938517D01*
X86735678Y-46355710D01*
X86735678Y-45961388D01*
X88524322Y-45961388D01*
X88524322Y-46355710D01*
X88524322Y-46938517D01*
X88524322Y-49436940D01*
G37*
%TO.C,kibuzzard-6640BFF1*%
G36*
X103250019Y-55628476D02*
G01*
X103150948Y-55609126D01*
X103055747Y-55587454D01*
X102959772Y-55562687D01*
X102856830Y-55534049D01*
X102959772Y-55505411D01*
X103055747Y-55480643D01*
X103150948Y-55459746D01*
X103250019Y-55441170D01*
X103250019Y-55628476D01*
G37*
G36*
X103250019Y-57950458D02*
G01*
X103150948Y-57931108D01*
X103055747Y-57909436D01*
X102959772Y-57884668D01*
X102856830Y-57856030D01*
X102959772Y-57827393D01*
X103055747Y-57802625D01*
X103150948Y-57781727D01*
X103250019Y-57763151D01*
X103250019Y-57950458D01*
G37*
G36*
X103250019Y-60272439D02*
G01*
X103150948Y-60253089D01*
X103055747Y-60231417D01*
X102959772Y-60206650D01*
X102856830Y-60178012D01*
X102959772Y-60149374D01*
X103055747Y-60124606D01*
X103150948Y-60103708D01*
X103250019Y-60085133D01*
X103250019Y-60272439D01*
G37*
G36*
X103250019Y-62594420D02*
G01*
X103150948Y-62575071D01*
X103055747Y-62553399D01*
X102959772Y-62528631D01*
X102856830Y-62499993D01*
X102959772Y-62471355D01*
X103055747Y-62446588D01*
X103150948Y-62425690D01*
X103250019Y-62407114D01*
X103250019Y-62594420D01*
G37*
G36*
X103485313Y-54758507D02*
G01*
X103463835Y-54827006D01*
X103399400Y-54877702D01*
X103333267Y-54900922D01*
X103249417Y-54914854D01*
X103147852Y-54919498D01*
X103047147Y-54914854D01*
X102963813Y-54900922D01*
X102897852Y-54877702D01*
X102833417Y-54827006D01*
X102811939Y-54758507D01*
X102812418Y-54756959D01*
X103028657Y-54756959D01*
X103059617Y-54820427D01*
X103132372Y-54843646D01*
X103204354Y-54820427D01*
X103234539Y-54756959D01*
X103204354Y-54695814D01*
X103132372Y-54671820D01*
X103059617Y-54695814D01*
X103028657Y-54756959D01*
X102812418Y-54756959D01*
X102833417Y-54689041D01*
X102897852Y-54638538D01*
X102963813Y-54615748D01*
X103047147Y-54602074D01*
X103147852Y-54597516D01*
X103249417Y-54602074D01*
X103333267Y-54615748D01*
X103399400Y-54638538D01*
X103463835Y-54689041D01*
X103484835Y-54756959D01*
X103485313Y-54758507D01*
G37*
G36*
X104036397Y-55363770D02*
G01*
X104036397Y-56756959D01*
X104036397Y-57685752D01*
X104036397Y-59074297D01*
X104036397Y-60007733D01*
X104036397Y-61781727D01*
X104036397Y-62329715D01*
X104036397Y-63374606D01*
X104036397Y-63761603D01*
X102262403Y-63761603D01*
X102262403Y-63374606D01*
X102262403Y-62391634D01*
X102671072Y-62391634D01*
X102671072Y-62599064D01*
X102777061Y-62631862D01*
X102886049Y-62665241D01*
X102998036Y-62699200D01*
X103113022Y-62733739D01*
X103208224Y-62761541D01*
X103307450Y-62789219D01*
X103410700Y-62816773D01*
X103517976Y-62844204D01*
X103629276Y-62871510D01*
X103629276Y-62673368D01*
X103407914Y-62630024D01*
X103407914Y-62374606D01*
X103629276Y-62329715D01*
X103629276Y-62125380D01*
X103520638Y-62150922D01*
X103415159Y-62176773D01*
X103312837Y-62202934D01*
X103213672Y-62229405D01*
X103117666Y-62256185D01*
X103001229Y-62289902D01*
X102887984Y-62323716D01*
X102777931Y-62357627D01*
X102671072Y-62391634D01*
X102262403Y-62391634D01*
X102262403Y-61764699D01*
X102649400Y-61764699D01*
X102656559Y-61846936D01*
X102678038Y-61920272D01*
X102734539Y-62030953D01*
X102873858Y-61962841D01*
X102829741Y-61870736D01*
X102811939Y-61763151D01*
X102842124Y-61675690D01*
X102924942Y-61643956D01*
X102983765Y-61658662D01*
X103020917Y-61696588D01*
X103041041Y-61749219D01*
X103047233Y-61808043D01*
X103047233Y-61879250D01*
X103205128Y-61879250D01*
X103205128Y-61820427D01*
X103212674Y-61735674D01*
X103235313Y-61667176D01*
X103276915Y-61621897D01*
X103341350Y-61606804D01*
X103445066Y-61646278D01*
X103476412Y-61700264D01*
X103486861Y-61783275D01*
X103482604Y-61856611D01*
X103469833Y-61918724D01*
X103437326Y-62010829D01*
X103596768Y-62047981D01*
X103613796Y-61999993D01*
X103630824Y-61932656D01*
X103643982Y-61856804D01*
X103649400Y-61781727D01*
X103643789Y-61692331D01*
X103626954Y-61616092D01*
X103599864Y-61552625D01*
X103563487Y-61501541D01*
X103466737Y-61434978D01*
X103344446Y-61413306D01*
X103266660Y-61423561D01*
X103200484Y-61454328D01*
X103147465Y-61503670D01*
X103109152Y-61569653D01*
X103028657Y-61482965D01*
X102918750Y-61450458D01*
X102811939Y-61469033D01*
X102726025Y-61526309D01*
X102669524Y-61624606D01*
X102654431Y-61689428D01*
X102649400Y-61764699D01*
X102262403Y-61764699D01*
X102262403Y-60069653D01*
X102671072Y-60069653D01*
X102671072Y-60277083D01*
X102777061Y-60309881D01*
X102886049Y-60343259D01*
X102998036Y-60377218D01*
X103113022Y-60411758D01*
X103208224Y-60439560D01*
X103307450Y-60467238D01*
X103410700Y-60494792D01*
X103517976Y-60522222D01*
X103629276Y-60549529D01*
X103629276Y-60351386D01*
X103407914Y-60308043D01*
X103407914Y-60052625D01*
X103629276Y-60007733D01*
X103629276Y-59803399D01*
X103520638Y-59828941D01*
X103415159Y-59854792D01*
X103312837Y-59880953D01*
X103213672Y-59907424D01*
X103117666Y-59934204D01*
X103001229Y-59967921D01*
X102887984Y-60001735D01*
X102777931Y-60035645D01*
X102671072Y-60069653D01*
X102262403Y-60069653D01*
X102262403Y-59417950D01*
X102649400Y-59417950D01*
X102657140Y-59498639D01*
X102680360Y-59579715D01*
X102719833Y-59656146D01*
X102776335Y-59722903D01*
X102909462Y-59628476D01*
X102836707Y-59530953D01*
X102815035Y-59436526D01*
X102846768Y-59346742D01*
X102937326Y-59311139D01*
X103019369Y-59339776D01*
X103102960Y-59412532D01*
X103147272Y-59458198D01*
X103193518Y-59506959D01*
X103242666Y-59555721D01*
X103295685Y-59601386D01*
X103353154Y-59641634D01*
X103415654Y-59674142D01*
X103483765Y-59695620D01*
X103558069Y-59702780D01*
X103590576Y-59703554D01*
X103629276Y-59699684D01*
X103629276Y-59074297D01*
X103471381Y-59074297D01*
X103471381Y-59486061D01*
X103420298Y-59469807D01*
X103365344Y-59430334D01*
X103312713Y-59380798D01*
X103268595Y-59334359D01*
X103191196Y-59255411D01*
X103107604Y-59185752D01*
X103018595Y-59136216D01*
X102923394Y-59117640D01*
X102803425Y-59142408D01*
X102717511Y-59208972D01*
X102666428Y-59304947D01*
X102649400Y-59417950D01*
X102262403Y-59417950D01*
X102262403Y-57747671D01*
X102671072Y-57747671D01*
X102671072Y-57955102D01*
X102777061Y-57987900D01*
X102886049Y-58021278D01*
X102998036Y-58055237D01*
X103113022Y-58089776D01*
X103208224Y-58117578D01*
X103307450Y-58145256D01*
X103410700Y-58172811D01*
X103517976Y-58200241D01*
X103629276Y-58227547D01*
X103629276Y-58029405D01*
X103407914Y-57986061D01*
X103407914Y-57730643D01*
X103629276Y-57685752D01*
X103629276Y-57481417D01*
X103520638Y-57506959D01*
X103415159Y-57532811D01*
X103312837Y-57558972D01*
X103213672Y-57585442D01*
X103117666Y-57612222D01*
X103001229Y-57645939D01*
X102887984Y-57679753D01*
X102777931Y-57713664D01*
X102671072Y-57747671D01*
X102262403Y-57747671D01*
X102262403Y-56947362D01*
X102671072Y-56947362D01*
X102671072Y-57077393D01*
X102731443Y-57143956D01*
X102787171Y-57225999D01*
X102835159Y-57312687D01*
X102870762Y-57393182D01*
X103028657Y-57331263D01*
X102990731Y-57236835D01*
X102935778Y-57137764D01*
X103471381Y-57137764D01*
X103471381Y-57339002D01*
X103629276Y-57339002D01*
X103629276Y-56756959D01*
X103471381Y-56756959D01*
X103471381Y-56947362D01*
X102671072Y-56947362D01*
X102262403Y-56947362D01*
X102262403Y-55425690D01*
X102671072Y-55425690D01*
X102671072Y-55633120D01*
X102777061Y-55665918D01*
X102886049Y-55699297D01*
X102998036Y-55733256D01*
X103113022Y-55767795D01*
X103208224Y-55795597D01*
X103307450Y-55823275D01*
X103410700Y-55850829D01*
X103517976Y-55878259D01*
X103629276Y-55905566D01*
X103629276Y-55707424D01*
X103407914Y-55664080D01*
X103407914Y-55408662D01*
X103629276Y-55363770D01*
X103629276Y-55159436D01*
X103520638Y-55184978D01*
X103415159Y-55210829D01*
X103312837Y-55236990D01*
X103213672Y-55263461D01*
X103117666Y-55290241D01*
X103001229Y-55323958D01*
X102887984Y-55357772D01*
X102777931Y-55391682D01*
X102671072Y-55425690D01*
X102262403Y-55425690D01*
X102262403Y-54758507D01*
X102649400Y-54758507D01*
X102663160Y-54856718D01*
X102704440Y-54938762D01*
X102773239Y-55004637D01*
X102843092Y-55042563D01*
X102928812Y-55069653D01*
X103030398Y-55085907D01*
X103147852Y-55091324D01*
X103266660Y-55086003D01*
X103369214Y-55070040D01*
X103455515Y-55043434D01*
X103525561Y-55006185D01*
X103594360Y-54940826D01*
X103635640Y-54858266D01*
X103649400Y-54758507D01*
X103635640Y-54658748D01*
X103594360Y-54576189D01*
X103525561Y-54510829D01*
X103455515Y-54473581D01*
X103369214Y-54446975D01*
X103266660Y-54431011D01*
X103147852Y-54425690D01*
X103029770Y-54431011D01*
X102927844Y-54446975D01*
X102842076Y-54473581D01*
X102772465Y-54510829D01*
X102704096Y-54576189D01*
X102663074Y-54658748D01*
X102649400Y-54758507D01*
X102262403Y-54758507D01*
X102262403Y-53922594D01*
X102262403Y-53535597D01*
X104036397Y-53535597D01*
X104036397Y-53922594D01*
X104036397Y-54758507D01*
X104036397Y-55363770D01*
G37*
%TO.C,kibuzzard-6461CA60*%
G36*
X73209249Y-101600000D02*
G01*
X72519480Y-102634653D01*
X72221824Y-102634653D01*
X71925557Y-102634653D01*
X70018176Y-102634653D01*
X69720520Y-102634653D01*
X69030751Y-102634653D01*
X69720520Y-101600000D01*
X69391114Y-101105891D01*
X70018176Y-101105891D01*
X70339645Y-101105891D01*
X70339645Y-102094109D01*
X70018176Y-102094109D01*
X70018176Y-102336997D01*
X70954007Y-102336997D01*
X71189751Y-102336997D01*
X71454070Y-102336997D01*
X71454070Y-101358303D01*
X71542573Y-101521683D01*
X71627107Y-101684799D01*
X71707673Y-101847650D01*
X71784270Y-102010501D01*
X71856898Y-102173617D01*
X71925557Y-102336997D01*
X72161301Y-102336997D01*
X72161301Y-100863003D01*
X71896982Y-100863003D01*
X71896982Y-101770259D01*
X71855013Y-101677391D01*
X71805304Y-101570234D01*
X71749345Y-101454148D01*
X71688623Y-101334491D01*
X71624627Y-101212749D01*
X71558845Y-101090412D01*
X71492170Y-100972243D01*
X71425495Y-100863003D01*
X71189751Y-100863003D01*
X71189751Y-102336997D01*
X70954007Y-102336997D01*
X70954007Y-102094109D01*
X70634920Y-102094109D01*
X70634920Y-101105891D01*
X70954007Y-101105891D01*
X70954007Y-100863003D01*
X70018176Y-100863003D01*
X70018176Y-101105891D01*
X69391114Y-101105891D01*
X69030751Y-100565347D01*
X69720520Y-100565347D01*
X70018176Y-100565347D01*
X72221824Y-100565347D01*
X72519480Y-100565347D01*
X73209249Y-101600000D01*
G37*
%TO.C,kibuzzard-64612FED*%
G36*
X50114597Y-53792065D02*
G01*
X50114597Y-54089722D01*
X48437403Y-54089722D01*
X48437403Y-53792065D01*
X48437403Y-53013769D01*
X49131934Y-53013769D01*
X49131934Y-53666231D01*
X49420066Y-53666231D01*
X49420066Y-53013769D01*
X49131934Y-53013769D01*
X48437403Y-53013769D01*
X48437403Y-52887935D01*
X48437403Y-52590278D01*
X50114597Y-52590278D01*
X50114597Y-52887935D01*
X50114597Y-53013769D01*
X50114597Y-53792065D01*
G37*
%TO.C,kibuzzard-6461CA59*%
G36*
X87066438Y-101126131D02*
G01*
X87136684Y-101235669D01*
X87170022Y-101398784D01*
X87176273Y-101496118D01*
X87178356Y-101600000D01*
X87176273Y-101703584D01*
X87170022Y-101800025D01*
X87136684Y-101963141D01*
X87065247Y-102073869D01*
X86944994Y-102114350D01*
X86823550Y-102073869D01*
X86753303Y-101964331D01*
X86719966Y-101801216D01*
X86713715Y-101703882D01*
X86711631Y-101600000D01*
X86713715Y-101496416D01*
X86719966Y-101399975D01*
X86753303Y-101236859D01*
X86823550Y-101126131D01*
X86944994Y-101085650D01*
X87066438Y-101126131D01*
G37*
G36*
X90870881Y-101600000D02*
G01*
X90159681Y-102666800D01*
X89862025Y-102666800D01*
X89473881Y-102666800D01*
X88130856Y-102666800D01*
X86947375Y-102666800D01*
X86413975Y-102666800D01*
X86116319Y-102666800D01*
X85405119Y-102666800D01*
X86116319Y-101600000D01*
X86413975Y-101600000D01*
X86422533Y-101778817D01*
X86448205Y-101934268D01*
X86490994Y-102066353D01*
X86550897Y-102175072D01*
X86655804Y-102282890D01*
X86787964Y-102347580D01*
X86947375Y-102369144D01*
X87102950Y-102347580D01*
X87233125Y-102282890D01*
X87337900Y-102175072D01*
X87398324Y-102066353D01*
X87441484Y-101934268D01*
X87463054Y-101804787D01*
X87633175Y-101804787D01*
X87639128Y-101927422D01*
X87656988Y-102038150D01*
X87689134Y-102135186D01*
X87737950Y-102216744D01*
X87891541Y-102329853D01*
X87999590Y-102359321D01*
X88130856Y-102369144D01*
X88264206Y-102359321D01*
X88373744Y-102329853D01*
X88461850Y-102281930D01*
X88530906Y-102216744D01*
X88581508Y-102135186D01*
X88614250Y-102038150D01*
X88632109Y-101927422D01*
X88638063Y-101804787D01*
X88638063Y-101107081D01*
X88790463Y-101107081D01*
X89178606Y-101107081D01*
X89178606Y-102338187D01*
X89473881Y-102338187D01*
X89473881Y-101107081D01*
X89862025Y-101107081D01*
X89862025Y-100864194D01*
X88790463Y-100864194D01*
X88790463Y-101107081D01*
X88638063Y-101107081D01*
X88638063Y-100864194D01*
X88345169Y-100864194D01*
X88345169Y-101783356D01*
X88335644Y-101939328D01*
X88302306Y-102041722D01*
X88238013Y-102097681D01*
X88135619Y-102114350D01*
X88033225Y-102097681D01*
X87970122Y-102042912D01*
X87937975Y-101941709D01*
X87928450Y-101785737D01*
X87928450Y-100864194D01*
X87633175Y-100864194D01*
X87633175Y-101804787D01*
X87463054Y-101804787D01*
X87467380Y-101778817D01*
X87476013Y-101600000D01*
X87467529Y-101421183D01*
X87442080Y-101265732D01*
X87399664Y-101133647D01*
X87340281Y-101024928D01*
X87236035Y-100917110D01*
X87104273Y-100852420D01*
X86944994Y-100830856D01*
X86790477Y-100852420D01*
X86660302Y-100917110D01*
X86554469Y-101024928D01*
X86493003Y-101133647D01*
X86449098Y-101265732D01*
X86422756Y-101421183D01*
X86413975Y-101600000D01*
X86116319Y-101600000D01*
X85405119Y-100533200D01*
X86116319Y-100533200D01*
X86413975Y-100533200D01*
X89862025Y-100533200D01*
X90159681Y-100533200D01*
X90870881Y-101600000D01*
G37*
D13*
%TO.C,R2*%
X103410000Y-67653000D02*
X103410000Y-67983000D01*
X103410000Y-70015000D02*
X103410000Y-69685000D01*
X109950000Y-67653000D02*
X103410000Y-67653000D01*
X109950000Y-67983000D02*
X109950000Y-67653000D01*
X109950000Y-69685000D02*
X109950000Y-70015000D01*
X109950000Y-70015000D02*
X103410000Y-70015000D01*
D14*
%TO.C,kibuzzard-6640C3B8*%
G36*
X101470997Y-72333628D02*
G01*
X101470997Y-73739201D01*
X101470997Y-74870006D01*
X101470997Y-75257003D01*
X99697003Y-75257003D01*
X99697003Y-74870006D01*
X99697003Y-73130842D01*
X100105672Y-73130842D01*
X100105672Y-73739201D01*
X100263567Y-73739201D01*
X100263567Y-73530223D01*
X100905981Y-73530223D01*
X100905981Y-73739201D01*
X101063876Y-73739201D01*
X101063876Y-73130842D01*
X100905981Y-73130842D01*
X100905981Y-73338272D01*
X100263567Y-73338272D01*
X100263567Y-73130842D01*
X100105672Y-73130842D01*
X99697003Y-73130842D01*
X99697003Y-72677282D01*
X100084000Y-72677282D01*
X100091740Y-72757971D01*
X100114960Y-72839046D01*
X100154433Y-72915478D01*
X100210935Y-72982235D01*
X100344062Y-72887808D01*
X100271307Y-72790285D01*
X100249635Y-72695858D01*
X100281368Y-72606074D01*
X100371926Y-72570471D01*
X100453969Y-72599108D01*
X100537560Y-72671864D01*
X100581872Y-72717529D01*
X100628118Y-72766291D01*
X100677266Y-72815053D01*
X100730285Y-72860718D01*
X100787754Y-72900966D01*
X100850254Y-72933474D01*
X100918365Y-72954952D01*
X100992669Y-72962111D01*
X101025176Y-72962885D01*
X101063876Y-72959015D01*
X101063876Y-72333628D01*
X100905981Y-72333628D01*
X100905981Y-72745393D01*
X100854898Y-72729139D01*
X100799944Y-72689666D01*
X100747313Y-72640130D01*
X100703195Y-72593690D01*
X100625796Y-72514743D01*
X100542204Y-72445084D01*
X100453195Y-72395548D01*
X100357994Y-72376972D01*
X100238025Y-72401740D01*
X100152111Y-72468303D01*
X100101028Y-72564279D01*
X100084000Y-72677282D01*
X99697003Y-72677282D01*
X99697003Y-71798025D01*
X100084000Y-71798025D01*
X100092320Y-71888776D01*
X100117282Y-71972173D01*
X100158303Y-72046477D01*
X100214805Y-72109944D01*
X100286206Y-72161608D01*
X100371926Y-72200502D01*
X100471384Y-72224882D01*
X100584000Y-72233009D01*
X100697100Y-72226334D01*
X100796461Y-72206307D01*
X100882084Y-72172928D01*
X100953969Y-72126198D01*
X101026208Y-72044327D01*
X101069552Y-71941128D01*
X101084000Y-71816601D01*
X101078776Y-71732042D01*
X101063102Y-71657932D01*
X101017437Y-71548799D01*
X100867282Y-71596786D01*
X100901337Y-71674960D01*
X100918365Y-71798025D01*
X100896500Y-71908512D01*
X100830904Y-71983009D01*
X100764083Y-72014399D01*
X100680233Y-72033233D01*
X100579356Y-72039511D01*
X100492669Y-72034286D01*
X100421461Y-72018613D01*
X100320068Y-71964433D01*
X100265889Y-71888582D01*
X100249635Y-71801121D01*
X100265889Y-71685796D01*
X100305362Y-71599882D01*
X100153659Y-71550347D01*
X100135084Y-71582080D01*
X100111864Y-71633938D01*
X100092514Y-71705920D01*
X100084000Y-71798025D01*
X99697003Y-71798025D01*
X99697003Y-70417994D01*
X99697003Y-70030997D01*
X101470997Y-70030997D01*
X101470997Y-70417994D01*
X101470997Y-71816601D01*
X101470997Y-72333628D01*
G37*
D15*
%TO.C,U1*%
X56388000Y-57150000D02*
X56388000Y-62230000D01*
X56388000Y-62738000D02*
X56388000Y-62230000D01*
X56388000Y-69342000D02*
X56388000Y-62738000D01*
X56388000Y-69850000D02*
X56388000Y-69342000D01*
X56388000Y-69850000D02*
X56388000Y-74930000D01*
X56388000Y-74930000D02*
X99568000Y-74930000D01*
X63246000Y-62230000D02*
X56388000Y-62230000D01*
X63246000Y-62738000D02*
X56388000Y-62738000D01*
X63246000Y-62738000D02*
X63246000Y-62230000D01*
X63246000Y-62738000D02*
X63246000Y-64008000D01*
X63246000Y-69342000D02*
X56388000Y-69342000D01*
X63246000Y-69342000D02*
X63246000Y-68072000D01*
X63246000Y-69342000D02*
X63246000Y-69850000D01*
X63246000Y-69850000D02*
X56388000Y-69850000D01*
X63754000Y-64008000D02*
X63246000Y-64008000D01*
X63754000Y-64008000D02*
X63754000Y-68072000D01*
X63754000Y-68072000D02*
X63246000Y-68072000D01*
X78994000Y-65024000D02*
X78994000Y-68072000D01*
X78994000Y-68072000D02*
X82042000Y-68072000D01*
X82042000Y-65024000D02*
X78994000Y-65024000D01*
X82042000Y-68072000D02*
X82042000Y-65024000D01*
X94488000Y-62973949D02*
X94488000Y-64026051D01*
X94488000Y-64026051D02*
X95231949Y-64770000D01*
X94488000Y-65513949D02*
X94488000Y-66566051D01*
X94488000Y-66566051D02*
X95231949Y-67310000D01*
X94488000Y-68053949D02*
X94488000Y-69106051D01*
X94488000Y-69106051D02*
X95231949Y-69850000D01*
X95231949Y-62230000D02*
X94488000Y-62973949D01*
X95231949Y-64770000D02*
X94488000Y-65513949D01*
X95231949Y-64770000D02*
X96284051Y-64770000D01*
X95231949Y-67310000D02*
X94488000Y-68053949D01*
X95231949Y-67310000D02*
X96284051Y-67310000D01*
X95231949Y-69850000D02*
X96284051Y-69850000D01*
X96284051Y-62230000D02*
X95231949Y-62230000D01*
X96284051Y-64770000D02*
X95231949Y-64770000D01*
X96284051Y-64770000D02*
X97028000Y-64026051D01*
X96284051Y-67310000D02*
X95231949Y-67310000D01*
X96284051Y-67310000D02*
X97028000Y-66566051D01*
X96284051Y-69850000D02*
X97028000Y-69106051D01*
X97028000Y-62973949D02*
X96284051Y-62230000D01*
X97028000Y-62973949D02*
X97028000Y-64026051D01*
X97028000Y-64026051D02*
X97028000Y-62973949D01*
X97028000Y-64026051D02*
X97771949Y-64770000D01*
X97028000Y-65513949D02*
X96284051Y-64770000D01*
X97028000Y-65513949D02*
X97028000Y-66566051D01*
X97028000Y-66566051D02*
X97028000Y-65513949D01*
X97028000Y-66566051D02*
X97771949Y-67310000D01*
X97028000Y-68053949D02*
X96284051Y-67310000D01*
X97028000Y-68053949D02*
X97028000Y-69106051D01*
X97028000Y-69106051D02*
X97028000Y-68053949D01*
X97028000Y-69106051D02*
X97771949Y-69850000D01*
X97771949Y-62230000D02*
X97028000Y-62973949D01*
X97771949Y-64770000D02*
X97028000Y-65513949D01*
X97771949Y-64770000D02*
X98824051Y-64770000D01*
X97771949Y-67310000D02*
X97028000Y-68053949D01*
X97771949Y-67310000D02*
X98824051Y-67310000D01*
X97771949Y-69850000D02*
X98824051Y-69850000D01*
X98824051Y-62230000D02*
X97771949Y-62230000D01*
X98824051Y-64770000D02*
X97771949Y-64770000D01*
X98824051Y-64770000D02*
X99568000Y-64026051D01*
X98824051Y-67310000D02*
X97771949Y-67310000D01*
X98824051Y-67310000D02*
X99568000Y-66566051D01*
X98824051Y-69850000D02*
X99568000Y-69106051D01*
X99568000Y-57150000D02*
X56388000Y-57150000D01*
X99568000Y-62973949D02*
X98824051Y-62230000D01*
X99568000Y-64026051D02*
X99568000Y-62973949D01*
X99568000Y-65513949D02*
X98824051Y-64770000D01*
X99568000Y-66566051D02*
X99568000Y-65513949D01*
X99568000Y-68053949D02*
X98824051Y-67310000D01*
X99568000Y-69106051D02*
X99568000Y-68053949D01*
X99568000Y-74930000D02*
X99568000Y-57150000D01*
X58801000Y-58420000D02*
G75*
G02*
X56515000Y-58420000I-1143000J0D01*
G01*
X56515000Y-58420000D02*
G75*
G02*
X58801000Y-58420000I1143000J0D01*
G01*
X58801000Y-73660000D02*
G75*
G02*
X56515000Y-73660000I-1143000J0D01*
G01*
X56515000Y-73660000D02*
G75*
G02*
X58801000Y-73660000I1143000J0D01*
G01*
X81407000Y-66548000D02*
G75*
G02*
X79629000Y-66548000I-889000J0D01*
G01*
X79629000Y-66548000D02*
G75*
G02*
X81407000Y-66548000I889000J0D01*
G01*
X99441000Y-58420000D02*
G75*
G02*
X97155000Y-58420000I-1143000J0D01*
G01*
X97155000Y-58420000D02*
G75*
G02*
X99441000Y-58420000I1143000J0D01*
G01*
X99441000Y-73660000D02*
G75*
G02*
X97155000Y-73660000I-1143000J0D01*
G01*
X97155000Y-73660000D02*
G75*
G02*
X99441000Y-73660000I1143000J0D01*
G01*
D11*
%TO.C,SW1*%
X50768000Y-64262000D02*
X50768000Y-66294000D01*
X51516000Y-61962000D02*
X51516000Y-64262000D01*
X51516000Y-64262000D02*
X50768000Y-64262000D01*
X51516000Y-66294000D02*
X50768000Y-66294000D01*
X51516000Y-66294000D02*
X51516000Y-70562000D01*
X56116000Y-61962000D02*
X56116000Y-70562000D01*
D14*
%TO.C,kibuzzard-64612FA6*%
G36*
X50108247Y-60952063D02*
G01*
X50108247Y-61249719D01*
X48443753Y-61249719D01*
X48443753Y-60952063D01*
X48443753Y-60952062D01*
X48443753Y-60325794D01*
X48741409Y-60325794D01*
X48741409Y-60578206D01*
X49155747Y-60578206D01*
X49155747Y-60952063D01*
X49396253Y-60952063D01*
X49396253Y-60578206D01*
X49810591Y-60578206D01*
X49810591Y-60325794D01*
X49396253Y-60325794D01*
X49396253Y-59951938D01*
X49155747Y-59951938D01*
X49155747Y-60325794D01*
X48741409Y-60325794D01*
X48443753Y-60325794D01*
X48443753Y-59951937D01*
X48443753Y-59654281D01*
X50108247Y-59654281D01*
X50108247Y-59951937D01*
X50108247Y-60325794D01*
X50108247Y-60952063D01*
G37*
%TO.C,kibuzzard-6640BFC5*%
G36*
X90164414Y-54036619D02*
G01*
X90227685Y-54108378D01*
X90260093Y-54211773D01*
X90269352Y-54332143D01*
X90266458Y-54400237D01*
X90257778Y-54462544D01*
X90219198Y-54565168D01*
X90148210Y-54633069D01*
X90039414Y-54657760D01*
X90022438Y-54657760D01*
X90005463Y-54656217D01*
X90005463Y-54014242D01*
X90033241Y-54010384D01*
X90061019Y-54009612D01*
X90164414Y-54036619D01*
G37*
G36*
X92479228Y-54036619D02*
G01*
X92542500Y-54108378D01*
X92574907Y-54211773D01*
X92584167Y-54332143D01*
X92581273Y-54400237D01*
X92572593Y-54462544D01*
X92534012Y-54565168D01*
X92463025Y-54633069D01*
X92354228Y-54657760D01*
X92337253Y-54657760D01*
X92320278Y-54656217D01*
X92320278Y-54014242D01*
X92348056Y-54010384D01*
X92375833Y-54009612D01*
X92479228Y-54036619D01*
G37*
G36*
X94794043Y-54036619D02*
G01*
X94857315Y-54108378D01*
X94889722Y-54211773D01*
X94898981Y-54332143D01*
X94896088Y-54400237D01*
X94887407Y-54462544D01*
X94848827Y-54565168D01*
X94777840Y-54633069D01*
X94669043Y-54657760D01*
X94652068Y-54657760D01*
X94635093Y-54656217D01*
X94635093Y-54014242D01*
X94662870Y-54010384D01*
X94690648Y-54009612D01*
X94794043Y-54036619D01*
G37*
G36*
X97108858Y-54036619D02*
G01*
X97172130Y-54108378D01*
X97204537Y-54211773D01*
X97213796Y-54332143D01*
X97210903Y-54400237D01*
X97202222Y-54462544D01*
X97163642Y-54565168D01*
X97092654Y-54633069D01*
X96983858Y-54657760D01*
X96966883Y-54657760D01*
X96949907Y-54656217D01*
X96949907Y-54014242D01*
X96977685Y-54010384D01*
X97005463Y-54009612D01*
X97108858Y-54036619D01*
G37*
G36*
X90950679Y-54012699D02*
G01*
X90993889Y-54065168D01*
X91017037Y-54136927D01*
X91023981Y-54214859D01*
X91023210Y-54249581D01*
X91020895Y-54279674D01*
X90968426Y-54296649D01*
X90906698Y-54302822D01*
X90838025Y-54293177D01*
X90792500Y-54264242D01*
X90758549Y-54153131D01*
X90765494Y-54091402D01*
X90787099Y-54040477D01*
X90825679Y-54005754D01*
X90883549Y-53992637D01*
X90950679Y-54012699D01*
G37*
G36*
X93258935Y-54366673D02*
G01*
X93303302Y-54396186D01*
X93335710Y-54508069D01*
X93328765Y-54562081D01*
X93307160Y-54613007D01*
X93269352Y-54651588D01*
X93213796Y-54667020D01*
X93146667Y-54647730D01*
X93104228Y-54596032D01*
X93082623Y-54522730D01*
X93076451Y-54437081D01*
X93077222Y-54407760D01*
X93079537Y-54379983D01*
X93130463Y-54363007D01*
X93190648Y-54356835D01*
X93258935Y-54366673D01*
G37*
G36*
X99094198Y-55216402D02*
G01*
X98708395Y-55216402D01*
X97777068Y-55216402D01*
X96963796Y-55216402D01*
X95445278Y-55216402D01*
X94648981Y-55216402D01*
X93218426Y-55216402D01*
X92334167Y-55216402D01*
X90638179Y-55216402D01*
X90019352Y-55216402D01*
X89251605Y-55216402D01*
X88865802Y-55216402D01*
X88865802Y-53867637D01*
X89815648Y-53867637D01*
X89815648Y-54799736D01*
X89919815Y-54817483D01*
X90019352Y-54822884D01*
X90112523Y-54816132D01*
X90197593Y-54795878D01*
X90273017Y-54760963D01*
X90337253Y-54710230D01*
X90389529Y-54642907D01*
X90429074Y-54558223D01*
X90453958Y-54455021D01*
X90462253Y-54332143D01*
X90454730Y-54211966D01*
X90442306Y-54156217D01*
X90573364Y-54156217D01*
X90590340Y-54274273D01*
X90644352Y-54370723D01*
X90740031Y-54436310D01*
X90804846Y-54454250D01*
X90882006Y-54460230D01*
X90990031Y-54433995D01*
X90935633Y-54530253D01*
X90852685Y-54596804D01*
X90748904Y-54635963D01*
X90632006Y-54650044D01*
X90638179Y-54813625D01*
X90761829Y-54804173D01*
X90873519Y-54775816D01*
X90971512Y-54729327D01*
X91054074Y-54665477D01*
X91120239Y-54584265D01*
X91169043Y-54485693D01*
X91199136Y-54370531D01*
X91209167Y-54239551D01*
X91199736Y-54120381D01*
X91171444Y-54020072D01*
X91124290Y-53938625D01*
X91059304Y-53878611D01*
X91034377Y-53867637D01*
X92130463Y-53867637D01*
X92130463Y-54799736D01*
X92234630Y-54817483D01*
X92334167Y-54822884D01*
X92427338Y-54816132D01*
X92512407Y-54795878D01*
X92587832Y-54760963D01*
X92652068Y-54710230D01*
X92704344Y-54642907D01*
X92743889Y-54558223D01*
X92768773Y-54455021D01*
X92771130Y-54420106D01*
X92889722Y-54420106D01*
X92899067Y-54548621D01*
X92927102Y-54652274D01*
X92973827Y-54731063D01*
X93038385Y-54786361D01*
X93119918Y-54819540D01*
X93218426Y-54830600D01*
X93291728Y-54823077D01*
X93354228Y-54800507D01*
X93448364Y-54722575D01*
X93503148Y-54617637D01*
X93520895Y-54504983D01*
X93504691Y-54387699D01*
X93451451Y-54290477D01*
X93356543Y-54224119D01*
X93292307Y-54205600D01*
X93215340Y-54199427D01*
X93165957Y-54206372D01*
X93108858Y-54225662D01*
X93162099Y-54125353D01*
X93247747Y-54059767D01*
X93355772Y-54023501D01*
X93476142Y-54011156D01*
X93466574Y-53867637D01*
X94445278Y-53867637D01*
X94445278Y-54799736D01*
X94549444Y-54817483D01*
X94648981Y-54822884D01*
X94742153Y-54816132D01*
X94827222Y-54795878D01*
X94858893Y-54781217D01*
X95187562Y-54781217D01*
X95231543Y-54798193D01*
X95295586Y-54814396D01*
X95369660Y-54825970D01*
X95445278Y-54830600D01*
X95533627Y-54824813D01*
X95610401Y-54807452D01*
X95675602Y-54779674D01*
X95729228Y-54742637D01*
X95800216Y-54644643D01*
X95823364Y-54521958D01*
X95812905Y-54432452D01*
X95781526Y-54357349D01*
X95729228Y-54296649D01*
X95655669Y-54250696D01*
X95560504Y-54219832D01*
X95443735Y-54204057D01*
X95451451Y-54116094D01*
X95459167Y-54012699D01*
X95787870Y-54012699D01*
X95787870Y-53867637D01*
X96760093Y-53867637D01*
X96760093Y-54799736D01*
X96864259Y-54817483D01*
X96963796Y-54822884D01*
X97056968Y-54816132D01*
X97142037Y-54795878D01*
X97180374Y-54778131D01*
X97511636Y-54778131D01*
X97559475Y-54795106D01*
X97626605Y-54812081D01*
X97702222Y-54825199D01*
X97777068Y-54830600D01*
X97866188Y-54825006D01*
X97942191Y-54808223D01*
X98005463Y-54781217D01*
X98056389Y-54744952D01*
X98122747Y-54648501D01*
X98144352Y-54526588D01*
X98134128Y-54449041D01*
X98103457Y-54383069D01*
X98054267Y-54330214D01*
X97988488Y-54292020D01*
X98074907Y-54211773D01*
X98107315Y-54102205D01*
X98088796Y-53995723D01*
X98031698Y-53910075D01*
X97933704Y-53853748D01*
X97869082Y-53838702D01*
X97794043Y-53833686D01*
X97712060Y-53840824D01*
X97638951Y-53862236D01*
X97528611Y-53918563D01*
X97596512Y-54057452D01*
X97688333Y-54013470D01*
X97795586Y-53995723D01*
X97882778Y-54025816D01*
X97914414Y-54108378D01*
X97899753Y-54167020D01*
X97861944Y-54204057D01*
X97809475Y-54224119D01*
X97750833Y-54230291D01*
X97679846Y-54230291D01*
X97679846Y-54387699D01*
X97738488Y-54387699D01*
X97822978Y-54395222D01*
X97891265Y-54417791D01*
X97936404Y-54459265D01*
X97951451Y-54523501D01*
X97912099Y-54626896D01*
X97858279Y-54658146D01*
X97775525Y-54668563D01*
X97702415Y-54664319D01*
X97640494Y-54651588D01*
X97548673Y-54619180D01*
X97511636Y-54778131D01*
X97180374Y-54778131D01*
X97217461Y-54760963D01*
X97281698Y-54710230D01*
X97333974Y-54642907D01*
X97373519Y-54558223D01*
X97398403Y-54455021D01*
X97406698Y-54332143D01*
X97399174Y-54211966D01*
X97376605Y-54110693D01*
X97340532Y-54026973D01*
X97292500Y-53959458D01*
X97232508Y-53907953D01*
X97160556Y-53872267D01*
X97078573Y-53851433D01*
X96988488Y-53844489D01*
X96882006Y-53849119D01*
X96760093Y-53867637D01*
X95787870Y-53867637D01*
X95787870Y-53855291D01*
X95300216Y-53855291D01*
X95294429Y-53973154D01*
X95286327Y-54095260D01*
X95275525Y-54220839D01*
X95261636Y-54349119D01*
X95367731Y-54352398D01*
X95451451Y-54362236D01*
X95563333Y-54399273D01*
X95615802Y-54456372D01*
X95628920Y-54529674D01*
X95621204Y-54580600D01*
X95592654Y-54624581D01*
X95535556Y-54656217D01*
X95443735Y-54668563D01*
X95371590Y-54665091D01*
X95312562Y-54654674D01*
X95226142Y-54623810D01*
X95187562Y-54781217D01*
X94858893Y-54781217D01*
X94902647Y-54760963D01*
X94966883Y-54710230D01*
X95019159Y-54642907D01*
X95058704Y-54558223D01*
X95083588Y-54455021D01*
X95091883Y-54332143D01*
X95084360Y-54211966D01*
X95061790Y-54110693D01*
X95025718Y-54026973D01*
X94977685Y-53959458D01*
X94917693Y-53907953D01*
X94845741Y-53872267D01*
X94763758Y-53851433D01*
X94673673Y-53844489D01*
X94567191Y-53849119D01*
X94445278Y-53867637D01*
X93466574Y-53867637D01*
X93465340Y-53849119D01*
X93341497Y-53858378D01*
X93229228Y-53886156D01*
X93130463Y-53932066D01*
X93047130Y-53995723D01*
X92980193Y-54076742D01*
X92930617Y-54174736D01*
X92899946Y-54289319D01*
X92889722Y-54420106D01*
X92771130Y-54420106D01*
X92777068Y-54332143D01*
X92769545Y-54211966D01*
X92746975Y-54110693D01*
X92710903Y-54026973D01*
X92662870Y-53959458D01*
X92602878Y-53907953D01*
X92530926Y-53872267D01*
X92448943Y-53851433D01*
X92358858Y-53844489D01*
X92252377Y-53849119D01*
X92130463Y-53867637D01*
X91034377Y-53867637D01*
X90977514Y-53842603D01*
X90878920Y-53830600D01*
X90806775Y-53838123D01*
X90744660Y-53860693D01*
X90649753Y-53937853D01*
X90592654Y-54042791D01*
X90573364Y-54156217D01*
X90442306Y-54156217D01*
X90432160Y-54110693D01*
X90396088Y-54026973D01*
X90348056Y-53959458D01*
X90288063Y-53907953D01*
X90216111Y-53872267D01*
X90134128Y-53851433D01*
X90044043Y-53844489D01*
X89937562Y-53849119D01*
X89815648Y-53867637D01*
X88865802Y-53867637D01*
X88865802Y-53444798D01*
X89251605Y-53444798D01*
X98708395Y-53444798D01*
X99094198Y-53444798D01*
X99094198Y-55216402D01*
G37*
D13*
%TO.C,R1*%
X103410000Y-75273000D02*
X103410000Y-75603000D01*
X103410000Y-77635000D02*
X103410000Y-77305000D01*
X109950000Y-75273000D02*
X103410000Y-75273000D01*
X109950000Y-75603000D02*
X109950000Y-75273000D01*
X109950000Y-77305000D02*
X109950000Y-77635000D01*
X109950000Y-77635000D02*
X103410000Y-77635000D01*
%TD*%
%LPC*%
D16*
%TO.C,BT1*%
X50033000Y-58166000D03*
D17*
X50033000Y-55626000D03*
%TD*%
D18*
%TO.C,J2*%
X110490000Y-71374000D03*
D17*
X107950000Y-71374000D03*
X105410000Y-71374000D03*
X102870000Y-71374000D03*
%TD*%
D18*
%TO.C,J1*%
X110490000Y-73914000D03*
D17*
X107950000Y-73914000D03*
X105410000Y-73914000D03*
X102870000Y-73914000D03*
%TD*%
D19*
%TO.C,J10*%
X90170000Y-52055000D03*
D17*
X90170000Y-49515000D03*
X90170000Y-46975000D03*
%TD*%
D19*
%TO.C,J7*%
X97790000Y-52055000D03*
D17*
X97790000Y-49515000D03*
X97790000Y-46975000D03*
%TD*%
D19*
%TO.C,J13*%
X105410000Y-59944000D03*
D17*
X107950000Y-59944000D03*
X110490000Y-59944000D03*
%TD*%
D19*
%TO.C,J6*%
X62230000Y-52055000D03*
D17*
X62230000Y-49515000D03*
X62230000Y-46975000D03*
%TD*%
D19*
%TO.C,J11*%
X105410000Y-54864000D03*
D17*
X107950000Y-54864000D03*
X110490000Y-54864000D03*
%TD*%
D19*
%TO.C,J5*%
X64770000Y-52055000D03*
D17*
X64770000Y-49515000D03*
X64770000Y-46975000D03*
%TD*%
D19*
%TO.C,J12*%
X105410000Y-57404000D03*
D17*
X107950000Y-57404000D03*
X110490000Y-57404000D03*
%TD*%
D19*
%TO.C,J3*%
X69850000Y-52055000D03*
D17*
X69850000Y-49515000D03*
X69850000Y-46975000D03*
%TD*%
D19*
%TO.C,J4*%
X67310000Y-52055000D03*
D17*
X67310000Y-49515000D03*
X67310000Y-46975000D03*
%TD*%
D19*
%TO.C,J9*%
X92710000Y-52055000D03*
D17*
X92710000Y-49515000D03*
X92710000Y-46975000D03*
%TD*%
D19*
%TO.C,J8*%
X95250000Y-52055000D03*
D17*
X95250000Y-49515000D03*
X95250000Y-46975000D03*
%TD*%
D19*
%TO.C,J14*%
X105410000Y-62484000D03*
D17*
X107950000Y-62484000D03*
X110490000Y-62484000D03*
%TD*%
D20*
%TO.C,D1*%
X60198000Y-78994000D03*
D21*
X50038000Y-78994000D03*
%TD*%
D22*
%TO.C,J43*%
X67818000Y-71120000D03*
%TD*%
%TO.C,J44*%
X65278000Y-71120000D03*
%TD*%
%TO.C,J40*%
X75438000Y-71120000D03*
%TD*%
%TO.C,J49*%
X88138000Y-60960000D03*
%TD*%
%TO.C,J42*%
X70358000Y-71120000D03*
%TD*%
%TO.C,J20*%
X85598000Y-60960000D03*
%TD*%
D23*
%TO.C,LED2*%
X83185000Y-83820000D03*
X83185000Y-101600000D03*
X108585000Y-83820000D03*
X108585000Y-101600000D03*
D24*
X81280000Y-97790000D03*
X110490000Y-97790000D03*
X81280000Y-95250000D03*
X110490000Y-95250000D03*
X81280000Y-92710000D03*
X110490000Y-92710000D03*
X81280000Y-90170000D03*
X110490000Y-90170000D03*
X81280000Y-87630000D03*
X110490000Y-87630000D03*
%TD*%
D23*
%TO.C,LED1*%
X67310000Y-83820000D03*
X67310000Y-101600000D03*
X92710000Y-83820000D03*
X92710000Y-101600000D03*
D24*
X65405000Y-97790000D03*
X94615000Y-97790000D03*
X65405000Y-95250000D03*
X94615000Y-95250000D03*
X65405000Y-92710000D03*
X94615000Y-92710000D03*
X65405000Y-90170000D03*
X94615000Y-90170000D03*
X65405000Y-87630000D03*
X94615000Y-87630000D03*
%TD*%
D22*
%TO.C,J22*%
X80518000Y-60960000D03*
%TD*%
%TO.C,J39*%
X77978000Y-71120000D03*
%TD*%
%TO.C,J37*%
X83058000Y-71120000D03*
%TD*%
%TO.C,J29*%
X62738000Y-60960000D03*
%TD*%
%TO.C,J47*%
X62738000Y-71120000D03*
%TD*%
%TO.C,J23*%
X77978000Y-60960000D03*
%TD*%
%TO.C,J28*%
X65278000Y-60960000D03*
%TD*%
%TO.C,J34*%
X93218000Y-60960000D03*
%TD*%
%TO.C,J33*%
X90678000Y-60960000D03*
%TD*%
%TO.C,J36*%
X85598000Y-71120000D03*
%TD*%
%TO.C,J48*%
X93218000Y-71120000D03*
%TD*%
%TO.C,J26*%
X70358000Y-60960000D03*
%TD*%
%TO.C,J46*%
X88138000Y-71120000D03*
%TD*%
%TO.C,J21*%
X83058000Y-60960000D03*
%TD*%
%TO.C,J41*%
X72898000Y-71120000D03*
%TD*%
D25*
%TO.C,R2*%
X110490000Y-68834000D03*
D26*
X102870000Y-68834000D03*
%TD*%
D22*
%TO.C,J31*%
X60198000Y-71120000D03*
%TD*%
%TO.C,J30*%
X60198000Y-60960000D03*
%TD*%
%TO.C,J24*%
X75438000Y-60960000D03*
%TD*%
%TO.C,J27*%
X67818000Y-60960000D03*
%TD*%
D27*
%TO.C,U1*%
X98298000Y-58420000D03*
X57658000Y-58420000D03*
X98298000Y-73660000D03*
X57658000Y-73660000D03*
D28*
X62738000Y-73660000D03*
X88138000Y-73660000D03*
D29*
X67818000Y-73660000D03*
X70358000Y-73660000D03*
X72898000Y-73660000D03*
X75438000Y-73660000D03*
X77978000Y-73660000D03*
X80518000Y-73660000D03*
X83058000Y-73660000D03*
X85598000Y-73660000D03*
X65278000Y-73660000D03*
X93218000Y-58420000D03*
X95758000Y-58420000D03*
X85598000Y-58420000D03*
X83058000Y-58420000D03*
X80518000Y-58420000D03*
X77978000Y-58420000D03*
X75438000Y-58420000D03*
X72898000Y-58420000D03*
X70358000Y-58420000D03*
X67818000Y-58420000D03*
X65278000Y-58420000D03*
X62738000Y-58420000D03*
X60198000Y-58420000D03*
X60198000Y-73660000D03*
D30*
X88138000Y-58420000D03*
X93218000Y-73660000D03*
D29*
X90678000Y-58420000D03*
X90678000Y-73660000D03*
D28*
X95758000Y-73660000D03*
%TD*%
D23*
%TO.C,LED3*%
X51435000Y-83820000D03*
X51435000Y-101600000D03*
X76835000Y-83820000D03*
X76835000Y-101600000D03*
D24*
X49530000Y-97790000D03*
X78740000Y-97790000D03*
X49530000Y-95250000D03*
X78740000Y-95250000D03*
X49530000Y-92710000D03*
X78740000Y-92710000D03*
X49530000Y-90170000D03*
X78740000Y-90170000D03*
X49530000Y-87630000D03*
X78740000Y-87630000D03*
%TD*%
D31*
%TO.C,SW1*%
X53816000Y-62162000D03*
X53816000Y-70362000D03*
D32*
X53816000Y-68262000D03*
X53816000Y-66262000D03*
D33*
X53816000Y-64262000D03*
%TD*%
D22*
%TO.C,J45*%
X95758000Y-71120000D03*
%TD*%
%TO.C,J38*%
X80518000Y-71120000D03*
%TD*%
%TO.C,J25*%
X72898000Y-60960000D03*
%TD*%
%TO.C,J35*%
X95758000Y-60960000D03*
%TD*%
D25*
%TO.C,R1*%
X110490000Y-76454000D03*
D26*
X102870000Y-76454000D03*
%TD*%
D22*
%TO.C,J32*%
X90678000Y-71120000D03*
%TD*%
%LPD*%
M02*
