%TF.GenerationSoftware,KiCad,Pcbnew,8.0.2-8.0.2-0~ubuntu22.04.1*%
%TF.CreationDate,2024-05-13T05:44:21+05:30*%
%TF.ProjectId,BagTag,42616754-6167-42e6-9b69-6361645f7063,v4*%
%TF.SameCoordinates,Original*%
%TF.FileFunction,Profile,NP*%
%FSLAX46Y46*%
G04 Gerber Fmt 4.6, Leading zero omitted, Abs format (unit mm)*
G04 Created by KiCad (PCBNEW 8.0.2-8.0.2-0~ubuntu22.04.1) date 2024-05-13 05:44:21*
%MOMM*%
%LPD*%
G01*
G04 APERTURE LIST*
%TA.AperFunction,Profile*%
%ADD10C,0.100000*%
%TD*%
G04 APERTURE END LIST*
D10*
X84455000Y-52070000D02*
X75565000Y-52070000D01*
X48260000Y-61722000D02*
X48260000Y-105791000D01*
X106934000Y-49530000D02*
G75*
G02*
X103886000Y-49530000I-1524000J0D01*
G01*
X103886000Y-49530000D02*
G75*
G02*
X106934000Y-49530000I1524000J0D01*
G01*
X59944000Y-54864000D02*
G75*
G02*
X56896000Y-54864000I-1524000J0D01*
G01*
X56896000Y-54864000D02*
G75*
G02*
X59944000Y-54864000I1524000J0D01*
G01*
X48260000Y-49149000D02*
X51689000Y-45720000D01*
X51689000Y-45720000D02*
X108331000Y-45720000D01*
X48260000Y-57658000D02*
X48260000Y-61722000D01*
X111760000Y-49149000D02*
X108331000Y-45720000D01*
X108331000Y-109220000D02*
X111760000Y-105791000D01*
X75565000Y-52070000D02*
G75*
G02*
X75565000Y-48260000I0J1905000D01*
G01*
X56134000Y-105410000D02*
G75*
G02*
X53086000Y-105410000I-1524000J0D01*
G01*
X53086000Y-105410000D02*
G75*
G02*
X56134000Y-105410000I1524000J0D01*
G01*
X108331000Y-109220000D02*
X51689000Y-109220000D01*
X55372000Y-54864000D02*
G75*
G02*
X52324000Y-54864000I-1524000J0D01*
G01*
X52324000Y-54864000D02*
G75*
G02*
X55372000Y-54864000I1524000J0D01*
G01*
X48260000Y-105791000D02*
X51689000Y-109220000D01*
X111760000Y-49149000D02*
X111760000Y-57658000D01*
X111760000Y-61722000D02*
X111760000Y-105791000D01*
X106934000Y-105410000D02*
G75*
G02*
X103886000Y-105410000I-1524000J0D01*
G01*
X103886000Y-105410000D02*
G75*
G02*
X106934000Y-105410000I1524000J0D01*
G01*
X56134000Y-49530000D02*
G75*
G02*
X53086000Y-49530000I-1524000J0D01*
G01*
X53086000Y-49530000D02*
G75*
G02*
X56134000Y-49530000I1524000J0D01*
G01*
X111760000Y-61722000D02*
X111760000Y-57658000D01*
X84455000Y-48260000D02*
G75*
G02*
X84455000Y-52070000I0J-1905000D01*
G01*
X75565000Y-48260000D02*
X84455000Y-48260000D01*
X48260000Y-49149000D02*
X48260000Y-57658000D01*
M02*
