ISO-10303-21;
HEADER;
FILE_DESCRIPTION(('FreeCAD Model'),'2;1');
FILE_NAME('Open CASCADE Shape Model','2025-10-25T12:31:51',(''),(''),
  'Open CASCADE STEP processor 7.8','FreeCAD','Unknown');
FILE_SCHEMA(('AUTOMOTIVE_DESIGN { 1 0 10303 214 1 1 1 1 }'));
ENDSEC;
DATA;
#1 = APPLICATION_PROTOCOL_DEFINITION('international standard',
  'automotive_design',2000,#2);
#2 = APPLICATION_CONTEXT(
  'core data for automotive mechanical design processes');
#3 = SHAPE_DEFINITION_REPRESENTATION(#4,#10);
#4 = PRODUCT_DEFINITION_SHAPE('','',#5);
#5 = PRODUCT_DEFINITION('design','',#6,#9);
#6 = PRODUCT_DEFINITION_FORMATION('','',#7);
#7 = PRODUCT('Stopper_bat','Stopper_bat','',(#8));
#8 = PRODUCT_CONTEXT('',#2,'mechanical');
#9 = PRODUCT_DEFINITION_CONTEXT('part definition',#2,'design');
#10 = ADVANCED_BREP_SHAPE_REPRESENTATION('',(#11,#15),#977);
#11 = AXIS2_PLACEMENT_3D('',#12,#13,#14);
#12 = CARTESIAN_POINT('',(0.,0.,0.));
#13 = DIRECTION('',(0.,0.,1.));
#14 = DIRECTION('',(1.,0.,-0.));
#15 = MANIFOLD_SOLID_BREP('',#16);
#16 = CLOSED_SHELL('',(#17,#259,#290,#315,#339,#363,#387,#412,#436,#460,
    #484,#509,#534,#558,#582,#607,#632,#656,#680,#705,#729,#753,#777,
    #802,#826,#850,#874,#899,#924,#941));
#17 = ADVANCED_FACE('',(#18),#254,.F.);
#18 = FACE_BOUND('',#19,.F.);
#19 = EDGE_LOOP('',(#20,#30,#38,#46,#54,#62,#71,#79,#88,#96,#104,#112,
    #120,#128,#137,#145,#154,#162,#171,#179,#188,#196,#205,#213,#222,
    #230,#239,#247));
#20 = ORIENTED_EDGE('',*,*,#21,.T.);
#21 = EDGE_CURVE('',#22,#24,#26,.T.);
#22 = VERTEX_POINT('',#23);
#23 = CARTESIAN_POINT('',(-1.4,-17.90148057706,-39.1));
#24 = VERTEX_POINT('',#25);
#25 = CARTESIAN_POINT('',(-1.4,-17.90148057706,-37.4));
#26 = LINE('',#27,#28);
#27 = CARTESIAN_POINT('',(-1.4,-17.90148057706,-40.1));
#28 = VECTOR('',#29,1.);
#29 = DIRECTION('',(-3.3E-16,-1.1E-16,1.));
#30 = ORIENTED_EDGE('',*,*,#31,.T.);
#31 = EDGE_CURVE('',#24,#32,#34,.T.);
#32 = VERTEX_POINT('',#33);
#33 = CARTESIAN_POINT('',(-1.4,-20.90148057706,-37.4));
#34 = LINE('',#35,#36);
#35 = CARTESIAN_POINT('',(-1.4,-17.90148057706,-37.4));
#36 = VECTOR('',#37,1.);
#37 = DIRECTION('',(2.2E-16,-1.,3.3E-16));
#38 = ORIENTED_EDGE('',*,*,#39,.T.);
#39 = EDGE_CURVE('',#32,#40,#42,.T.);
#40 = VERTEX_POINT('',#41);
#41 = CARTESIAN_POINT('',(-1.4,-20.90148057706,-34.6));
#42 = LINE('',#43,#44);
#43 = CARTESIAN_POINT('',(-1.4,-20.90148057706,-37.4));
#44 = VECTOR('',#45,1.);
#45 = DIRECTION('',(-3.3E-16,-1.1E-16,1.));
#46 = ORIENTED_EDGE('',*,*,#47,.T.);
#47 = EDGE_CURVE('',#40,#48,#50,.T.);
#48 = VERTEX_POINT('',#49);
#49 = CARTESIAN_POINT('',(-1.4,-19.90148057706,-34.6));
#50 = LINE('',#51,#52);
#51 = CARTESIAN_POINT('',(-1.4,-20.90148057706,-34.6));
#52 = VECTOR('',#53,1.);
#53 = DIRECTION('',(-2.2E-16,1.,-3.3E-16));
#54 = ORIENTED_EDGE('',*,*,#55,.T.);
#55 = EDGE_CURVE('',#48,#56,#58,.T.);
#56 = VERTEX_POINT('',#57);
#57 = CARTESIAN_POINT('',(-1.4,-21.10987540079,-27.75242933218));
#58 = LINE('',#59,#60);
#59 = CARTESIAN_POINT('',(-1.4,-19.90148057706,-34.6));
#60 = VECTOR('',#61,1.);
#61 = DIRECTION('',(-2.9E-16,-0.173785333909,0.984783558818));
#62 = ORIENTED_EDGE('',*,*,#63,.T.);
#63 = EDGE_CURVE('',#56,#64,#66,.T.);
#64 = VERTEX_POINT('',#65);
#65 = CARTESIAN_POINT('',(-1.4,-23.07944251843,-26.1));
#66 = CIRCLE('',#67,2.);
#67 = AXIS2_PLACEMENT_3D('',#68,#69,#70);
#68 = CARTESIAN_POINT('',(-1.4,-23.07944251843,-28.1));
#69 = DIRECTION('',(1.,-2.2E-16,1.1E-16));
#70 = DIRECTION('',(-2.2E-16,-1.,1.1E-16));
#71 = ORIENTED_EDGE('',*,*,#72,.T.);
#72 = EDGE_CURVE('',#64,#73,#75,.T.);
#73 = VERTEX_POINT('',#74);
#74 = CARTESIAN_POINT('',(-1.4,-28.32351863569,-26.1));
#75 = LINE('',#76,#77);
#76 = CARTESIAN_POINT('',(-1.4,-25.70148057706,-26.1));
#77 = VECTOR('',#78,1.);
#78 = DIRECTION('',(0.,-1.,3.3E-16));
#79 = ORIENTED_EDGE('',*,*,#80,.F.);
#80 = EDGE_CURVE('',#81,#73,#83,.T.);
#81 = VERTEX_POINT('',#82);
#82 = CARTESIAN_POINT('',(-1.4,-30.29308575333,-27.75242933218));
#83 = CIRCLE('',#84,2.);
#84 = AXIS2_PLACEMENT_3D('',#85,#86,#87);
#85 = CARTESIAN_POINT('',(-1.4,-28.32351863569,-28.1));
#86 = DIRECTION('',(-1.,2.2E-16,-1.1E-16));
#87 = DIRECTION('',(-2.2E-16,-1.,1.1E-16));
#88 = ORIENTED_EDGE('',*,*,#89,.F.);
#89 = EDGE_CURVE('',#90,#81,#92,.T.);
#90 = VERTEX_POINT('',#91);
#91 = CARTESIAN_POINT('',(-1.4,-31.50148057706,-34.6));
#92 = LINE('',#93,#94);
#93 = CARTESIAN_POINT('',(-1.4,-31.50148057706,-34.6));
#94 = VECTOR('',#95,1.);
#95 = DIRECTION('',(-3.7E-16,0.173785333909,0.984783558818));
#96 = ORIENTED_EDGE('',*,*,#97,.F.);
#97 = EDGE_CURVE('',#98,#90,#100,.T.);
#98 = VERTEX_POINT('',#99);
#99 = CARTESIAN_POINT('',(-1.4,-30.50148057706,-34.6));
#100 = LINE('',#101,#102);
#101 = CARTESIAN_POINT('',(-1.4,-30.50148057706,-34.6));
#102 = VECTOR('',#103,1.);
#103 = DIRECTION('',(2.2E-16,-1.,3.3E-16));
#104 = ORIENTED_EDGE('',*,*,#105,.F.);
#105 = EDGE_CURVE('',#106,#98,#108,.T.);
#106 = VERTEX_POINT('',#107);
#107 = CARTESIAN_POINT('',(-1.4,-30.50148057706,-37.4));
#108 = LINE('',#109,#110);
#109 = CARTESIAN_POINT('',(-1.4,-30.50148057706,-37.4));
#110 = VECTOR('',#111,1.);
#111 = DIRECTION('',(-3.3E-16,-1.1E-16,1.));
#112 = ORIENTED_EDGE('',*,*,#113,.F.);
#113 = EDGE_CURVE('',#114,#106,#116,.T.);
#114 = VERTEX_POINT('',#115);
#115 = CARTESIAN_POINT('',(-1.4,-33.50148057706,-37.4));
#116 = LINE('',#117,#118);
#117 = CARTESIAN_POINT('',(-1.4,-33.50148057706,-37.4));
#118 = VECTOR('',#119,1.);
#119 = DIRECTION('',(-2.2E-16,1.,-3.3E-16));
#120 = ORIENTED_EDGE('',*,*,#121,.F.);
#121 = EDGE_CURVE('',#122,#114,#124,.T.);
#122 = VERTEX_POINT('',#123);
#123 = CARTESIAN_POINT('',(-1.4,-33.50148057706,-39.1));
#124 = LINE('',#125,#126);
#125 = CARTESIAN_POINT('',(-1.4,-33.50148057706,-40.1));
#126 = VECTOR('',#127,1.);
#127 = DIRECTION('',(-3.3E-16,-1.1E-16,1.));
#128 = ORIENTED_EDGE('',*,*,#129,.T.);
#129 = EDGE_CURVE('',#122,#130,#132,.T.);
#130 = VERTEX_POINT('',#131);
#131 = CARTESIAN_POINT('',(-1.4,-32.50148057706,-40.1));
#132 = CIRCLE('',#133,1.);
#133 = AXIS2_PLACEMENT_3D('',#134,#135,#136);
#134 = CARTESIAN_POINT('',(-1.4,-32.50148057706,-39.1));
#135 = DIRECTION('',(1.,-2.2E-16,1.1E-16));
#136 = DIRECTION('',(-2.2E-16,-1.,1.1E-16));
#137 = ORIENTED_EDGE('',*,*,#138,.F.);
#138 = EDGE_CURVE('',#139,#130,#141,.T.);
#139 = VERTEX_POINT('',#140);
#140 = CARTESIAN_POINT('',(-1.4,-29.35148057706,-40.1));
#141 = LINE('',#142,#143);
#142 = CARTESIAN_POINT('',(-1.4,-28.35148057706,-40.1));
#143 = VECTOR('',#144,1.);
#144 = DIRECTION('',(2.2E-16,-1.,3.3E-16));
#145 = ORIENTED_EDGE('',*,*,#146,.T.);
#146 = EDGE_CURVE('',#139,#147,#149,.T.);
#147 = VERTEX_POINT('',#148);
#148 = CARTESIAN_POINT('',(-1.4,-28.35148057706,-39.1));
#149 = CIRCLE('',#150,1.);
#150 = AXIS2_PLACEMENT_3D('',#151,#152,#153);
#151 = CARTESIAN_POINT('',(-1.4,-29.35148057706,-39.1));
#152 = DIRECTION('',(1.,-2.2E-16,1.1E-16));
#153 = DIRECTION('',(-2.2E-16,-1.,1.1E-16));
#154 = ORIENTED_EDGE('',*,*,#155,.F.);
#155 = EDGE_CURVE('',#156,#147,#158,.T.);
#156 = VERTEX_POINT('',#157);
#157 = CARTESIAN_POINT('',(-1.4,-28.35148057706,-29.1));
#158 = LINE('',#159,#160);
#159 = CARTESIAN_POINT('',(-1.4,-28.35148057706,-29.1));
#160 = VECTOR('',#161,1.);
#161 = DIRECTION('',(3.3E-16,1.1E-16,-1.));
#162 = ORIENTED_EDGE('',*,*,#163,.F.);
#163 = EDGE_CURVE('',#164,#156,#166,.T.);
#164 = VERTEX_POINT('',#165);
#165 = CARTESIAN_POINT('',(-1.4,-27.35148057706,-29.1));
#166 = CIRCLE('',#167,0.5);
#167 = AXIS2_PLACEMENT_3D('',#168,#169,#170);
#168 = CARTESIAN_POINT('',(-1.4,-27.85148057706,-29.1));
#169 = DIRECTION('',(1.,2.2E-16,3.3E-16));
#170 = DIRECTION('',(-2.2E-16,1.,-3.3E-16));
#171 = ORIENTED_EDGE('',*,*,#172,.F.);
#172 = EDGE_CURVE('',#173,#164,#175,.T.);
#173 = VERTEX_POINT('',#174);
#174 = CARTESIAN_POINT('',(-1.4,-27.35148057706,-39.1));
#175 = LINE('',#176,#177);
#176 = CARTESIAN_POINT('',(-1.4,-27.35148057706,-40.1));
#177 = VECTOR('',#178,1.);
#178 = DIRECTION('',(-3.3E-16,-1.1E-16,1.));
#179 = ORIENTED_EDGE('',*,*,#180,.F.);
#180 = EDGE_CURVE('',#181,#173,#183,.T.);
#181 = VERTEX_POINT('',#182);
#182 = CARTESIAN_POINT('',(-1.4,-26.35148057706,-40.1));
#183 = CIRCLE('',#184,1.);
#184 = AXIS2_PLACEMENT_3D('',#185,#186,#187);
#185 = CARTESIAN_POINT('',(-1.4,-26.35148057706,-39.1));
#186 = DIRECTION('',(-1.,2.2E-16,-1.1E-16));
#187 = DIRECTION('',(-2.2E-16,-1.,1.1E-16));
#188 = ORIENTED_EDGE('',*,*,#189,.T.);
#189 = EDGE_CURVE('',#181,#190,#192,.T.);
#190 = VERTEX_POINT('',#191);
#191 = CARTESIAN_POINT('',(-1.4,-25.05148057706,-40.1));
#192 = LINE('',#193,#194);
#193 = CARTESIAN_POINT('',(-1.4,-25.70148057706,-40.1));
#194 = VECTOR('',#195,1.);
#195 = DIRECTION('',(0.,1.,-3.3E-16));
#196 = ORIENTED_EDGE('',*,*,#197,.F.);
#197 = EDGE_CURVE('',#198,#190,#200,.T.);
#198 = VERTEX_POINT('',#199);
#199 = CARTESIAN_POINT('',(-1.4,-24.05148057706,-39.1));
#200 = CIRCLE('',#201,1.);
#201 = AXIS2_PLACEMENT_3D('',#202,#203,#204);
#202 = CARTESIAN_POINT('',(-1.4,-25.05148057706,-39.1));
#203 = DIRECTION('',(-1.,2.2E-16,-1.1E-16));
#204 = DIRECTION('',(-2.2E-16,-1.,1.1E-16));
#205 = ORIENTED_EDGE('',*,*,#206,.F.);
#206 = EDGE_CURVE('',#207,#198,#209,.T.);
#207 = VERTEX_POINT('',#208);
#208 = CARTESIAN_POINT('',(-1.4,-24.05148057706,-29.1));
#209 = LINE('',#210,#211);
#210 = CARTESIAN_POINT('',(-1.4,-24.05148057706,-29.1));
#211 = VECTOR('',#212,1.);
#212 = DIRECTION('',(3.3E-16,1.1E-16,-1.));
#213 = ORIENTED_EDGE('',*,*,#214,.F.);
#214 = EDGE_CURVE('',#215,#207,#217,.T.);
#215 = VERTEX_POINT('',#216);
#216 = CARTESIAN_POINT('',(-1.4,-23.05148057706,-29.1));
#217 = CIRCLE('',#218,0.5);
#218 = AXIS2_PLACEMENT_3D('',#219,#220,#221);
#219 = CARTESIAN_POINT('',(-1.4,-23.55148057706,-29.1));
#220 = DIRECTION('',(1.,2.2E-16,3.3E-16));
#221 = DIRECTION('',(-2.2E-16,1.,-3.3E-16));
#222 = ORIENTED_EDGE('',*,*,#223,.F.);
#223 = EDGE_CURVE('',#224,#215,#226,.T.);
#224 = VERTEX_POINT('',#225);
#225 = CARTESIAN_POINT('',(-1.4,-23.05148057706,-39.1));
#226 = LINE('',#227,#228);
#227 = CARTESIAN_POINT('',(-1.4,-23.05148057706,-40.1));
#228 = VECTOR('',#229,1.);
#229 = DIRECTION('',(-3.3E-16,-1.1E-16,1.));
#230 = ORIENTED_EDGE('',*,*,#231,.F.);
#231 = EDGE_CURVE('',#232,#224,#234,.T.);
#232 = VERTEX_POINT('',#233);
#233 = CARTESIAN_POINT('',(-1.4,-22.05148057706,-40.1));
#234 = CIRCLE('',#235,1.);
#235 = AXIS2_PLACEMENT_3D('',#236,#237,#238);
#236 = CARTESIAN_POINT('',(-1.4,-22.05148057706,-39.1));
#237 = DIRECTION('',(-1.,2.2E-16,-1.1E-16));
#238 = DIRECTION('',(-2.2E-16,-1.,1.1E-16));
#239 = ORIENTED_EDGE('',*,*,#240,.T.);
#240 = EDGE_CURVE('',#232,#241,#243,.T.);
#241 = VERTEX_POINT('',#242);
#242 = CARTESIAN_POINT('',(-1.4,-18.90148057706,-40.1));
#243 = LINE('',#244,#245);
#244 = CARTESIAN_POINT('',(-1.4,-23.05148057706,-40.1));
#245 = VECTOR('',#246,1.);
#246 = DIRECTION('',(-2.2E-16,1.,-3.3E-16));
#247 = ORIENTED_EDGE('',*,*,#248,.F.);
#248 = EDGE_CURVE('',#22,#241,#249,.T.);
#249 = CIRCLE('',#250,1.);
#250 = AXIS2_PLACEMENT_3D('',#251,#252,#253);
#251 = CARTESIAN_POINT('',(-1.4,-18.90148057706,-39.1));
#252 = DIRECTION('',(-1.,2.2E-16,-1.1E-16));
#253 = DIRECTION('',(-2.2E-16,-1.,1.1E-16));
#254 = PLANE('',#255);
#255 = AXIS2_PLACEMENT_3D('',#256,#257,#258);
#256 = CARTESIAN_POINT('',(-1.4,-25.70148057706,-34.20192172313));
#257 = DIRECTION('',(1.,-2.2E-16,-1.1E-16));
#258 = DIRECTION('',(1.1E-16,-1.1E-16,1.));
#259 = ADVANCED_FACE('',(#260),#285,.F.);
#260 = FACE_BOUND('',#261,.F.);
#261 = EDGE_LOOP('',(#262,#263,#271,#279));
#262 = ORIENTED_EDGE('',*,*,#21,.F.);
#263 = ORIENTED_EDGE('',*,*,#264,.T.);
#264 = EDGE_CURVE('',#22,#265,#267,.T.);
#265 = VERTEX_POINT('',#266);
#266 = CARTESIAN_POINT('',(1.4,-17.90148057706,-39.1));
#267 = LINE('',#268,#269);
#268 = CARTESIAN_POINT('',(-1.4,-17.90148057706,-39.1));
#269 = VECTOR('',#270,1.);
#270 = DIRECTION('',(1.,-2.2E-16,1.1E-16));
#271 = ORIENTED_EDGE('',*,*,#272,.T.);
#272 = EDGE_CURVE('',#265,#273,#275,.T.);
#273 = VERTEX_POINT('',#274);
#274 = CARTESIAN_POINT('',(1.4,-17.90148057706,-37.4));
#275 = LINE('',#276,#277);
#276 = CARTESIAN_POINT('',(1.4,-17.90148057706,-40.1));
#277 = VECTOR('',#278,1.);
#278 = DIRECTION('',(-3.3E-16,-1.1E-16,1.));
#279 = ORIENTED_EDGE('',*,*,#280,.F.);
#280 = EDGE_CURVE('',#24,#273,#281,.T.);
#281 = LINE('',#282,#283);
#282 = CARTESIAN_POINT('',(-1.4,-17.90148057706,-37.4));
#283 = VECTOR('',#284,1.);
#284 = DIRECTION('',(1.,-2.2E-16,1.1E-16));
#285 = PLANE('',#286);
#286 = AXIS2_PLACEMENT_3D('',#287,#288,#289);
#287 = CARTESIAN_POINT('',(-1.4,-17.90148057706,-40.1));
#288 = DIRECTION('',(-2.2E-16,-1.,1.1E-16));
#289 = DIRECTION('',(-3.3E-16,1.1E-16,1.));
#290 = ADVANCED_FACE('',(#291),#310,.T.);
#291 = FACE_BOUND('',#292,.F.);
#292 = EDGE_LOOP('',(#293,#294,#302,#309));
#293 = ORIENTED_EDGE('',*,*,#248,.T.);
#294 = ORIENTED_EDGE('',*,*,#295,.T.);
#295 = EDGE_CURVE('',#241,#296,#298,.T.);
#296 = VERTEX_POINT('',#297);
#297 = CARTESIAN_POINT('',(1.4,-18.90148057706,-40.1));
#298 = LINE('',#299,#300);
#299 = CARTESIAN_POINT('',(-1.4,-18.90148057706,-40.1));
#300 = VECTOR('',#301,1.);
#301 = DIRECTION('',(1.,-2.2E-16,1.1E-16));
#302 = ORIENTED_EDGE('',*,*,#303,.F.);
#303 = EDGE_CURVE('',#265,#296,#304,.T.);
#304 = CIRCLE('',#305,1.);
#305 = AXIS2_PLACEMENT_3D('',#306,#307,#308);
#306 = CARTESIAN_POINT('',(1.4,-18.90148057706,-39.1));
#307 = DIRECTION('',(-1.,2.2E-16,-1.1E-16));
#308 = DIRECTION('',(-2.2E-16,-1.,1.1E-16));
#309 = ORIENTED_EDGE('',*,*,#264,.F.);
#310 = CYLINDRICAL_SURFACE('',#311,1.);
#311 = AXIS2_PLACEMENT_3D('',#312,#313,#314);
#312 = CARTESIAN_POINT('',(-1.4,-18.90148057706,-39.1));
#313 = DIRECTION('',(1.,-2.2E-16,1.1E-16));
#314 = DIRECTION('',(2.2E-16,1.,-1.1E-16));
#315 = ADVANCED_FACE('',(#316),#334,.F.);
#316 = FACE_BOUND('',#317,.F.);
#317 = EDGE_LOOP('',(#318,#319,#327,#333));
#318 = ORIENTED_EDGE('',*,*,#280,.T.);
#319 = ORIENTED_EDGE('',*,*,#320,.T.);
#320 = EDGE_CURVE('',#273,#321,#323,.T.);
#321 = VERTEX_POINT('',#322);
#322 = CARTESIAN_POINT('',(1.4,-20.90148057706,-37.4));
#323 = LINE('',#324,#325);
#324 = CARTESIAN_POINT('',(1.4,-17.90148057706,-37.4));
#325 = VECTOR('',#326,1.);
#326 = DIRECTION('',(2.2E-16,-1.,3.3E-16));
#327 = ORIENTED_EDGE('',*,*,#328,.F.);
#328 = EDGE_CURVE('',#32,#321,#329,.T.);
#329 = LINE('',#330,#331);
#330 = CARTESIAN_POINT('',(-1.4,-20.90148057706,-37.4));
#331 = VECTOR('',#332,1.);
#332 = DIRECTION('',(1.,-2.2E-16,1.1E-16));
#333 = ORIENTED_EDGE('',*,*,#31,.F.);
#334 = PLANE('',#335);
#335 = AXIS2_PLACEMENT_3D('',#336,#337,#338);
#336 = CARTESIAN_POINT('',(-1.4,-17.90148057706,-37.4));
#337 = DIRECTION('',(1.1E-16,-3.3E-16,-1.));
#338 = DIRECTION('',(0.,-1.,3.3E-16));
#339 = ADVANCED_FACE('',(#340),#358,.F.);
#340 = FACE_BOUND('',#341,.F.);
#341 = EDGE_LOOP('',(#342,#343,#351,#357));
#342 = ORIENTED_EDGE('',*,*,#240,.F.);
#343 = ORIENTED_EDGE('',*,*,#344,.T.);
#344 = EDGE_CURVE('',#232,#345,#347,.T.);
#345 = VERTEX_POINT('',#346);
#346 = CARTESIAN_POINT('',(1.4,-22.05148057706,-40.1));
#347 = LINE('',#348,#349);
#348 = CARTESIAN_POINT('',(-1.4,-22.05148057706,-40.1));
#349 = VECTOR('',#350,1.);
#350 = DIRECTION('',(1.,-2.2E-16,1.1E-16));
#351 = ORIENTED_EDGE('',*,*,#352,.T.);
#352 = EDGE_CURVE('',#345,#296,#353,.T.);
#353 = LINE('',#354,#355);
#354 = CARTESIAN_POINT('',(1.4,-23.05148057706,-40.1));
#355 = VECTOR('',#356,1.);
#356 = DIRECTION('',(-2.2E-16,1.,-3.3E-16));
#357 = ORIENTED_EDGE('',*,*,#295,.F.);
#358 = PLANE('',#359);
#359 = AXIS2_PLACEMENT_3D('',#360,#361,#362);
#360 = CARTESIAN_POINT('',(-1.4,-23.05148057706,-40.1));
#361 = DIRECTION('',(-1.1E-16,3.3E-16,1.));
#362 = DIRECTION('',(0.,1.,-3.3E-16));
#363 = ADVANCED_FACE('',(#364),#382,.F.);
#364 = FACE_BOUND('',#365,.F.);
#365 = EDGE_LOOP('',(#366,#367,#375,#381));
#366 = ORIENTED_EDGE('',*,*,#328,.T.);
#367 = ORIENTED_EDGE('',*,*,#368,.T.);
#368 = EDGE_CURVE('',#321,#369,#371,.T.);
#369 = VERTEX_POINT('',#370);
#370 = CARTESIAN_POINT('',(1.4,-20.90148057706,-34.6));
#371 = LINE('',#372,#373);
#372 = CARTESIAN_POINT('',(1.4,-20.90148057706,-37.4));
#373 = VECTOR('',#374,1.);
#374 = DIRECTION('',(-3.3E-16,-1.1E-16,1.));
#375 = ORIENTED_EDGE('',*,*,#376,.F.);
#376 = EDGE_CURVE('',#40,#369,#377,.T.);
#377 = LINE('',#378,#379);
#378 = CARTESIAN_POINT('',(-1.4,-20.90148057706,-34.6));
#379 = VECTOR('',#380,1.);
#380 = DIRECTION('',(1.,-2.2E-16,1.1E-16));
#381 = ORIENTED_EDGE('',*,*,#39,.F.);
#382 = PLANE('',#383);
#383 = AXIS2_PLACEMENT_3D('',#384,#385,#386);
#384 = CARTESIAN_POINT('',(-1.4,-20.90148057706,-37.4));
#385 = DIRECTION('',(-2.2E-16,-1.,1.1E-16));
#386 = DIRECTION('',(-3.3E-16,1.1E-16,1.));
#387 = ADVANCED_FACE('',(#388),#407,.T.);
#388 = FACE_BOUND('',#389,.F.);
#389 = EDGE_LOOP('',(#390,#391,#399,#406));
#390 = ORIENTED_EDGE('',*,*,#231,.T.);
#391 = ORIENTED_EDGE('',*,*,#392,.T.);
#392 = EDGE_CURVE('',#224,#393,#395,.T.);
#393 = VERTEX_POINT('',#394);
#394 = CARTESIAN_POINT('',(1.4,-23.05148057706,-39.1));
#395 = LINE('',#396,#397);
#396 = CARTESIAN_POINT('',(-1.4,-23.05148057706,-39.1));
#397 = VECTOR('',#398,1.);
#398 = DIRECTION('',(1.,-2.2E-16,1.1E-16));
#399 = ORIENTED_EDGE('',*,*,#400,.F.);
#400 = EDGE_CURVE('',#345,#393,#401,.T.);
#401 = CIRCLE('',#402,1.);
#402 = AXIS2_PLACEMENT_3D('',#403,#404,#405);
#403 = CARTESIAN_POINT('',(1.4,-22.05148057706,-39.1));
#404 = DIRECTION('',(-1.,2.2E-16,-1.1E-16));
#405 = DIRECTION('',(-2.2E-16,-1.,1.1E-16));
#406 = ORIENTED_EDGE('',*,*,#344,.F.);
#407 = CYLINDRICAL_SURFACE('',#408,1.);
#408 = AXIS2_PLACEMENT_3D('',#409,#410,#411);
#409 = CARTESIAN_POINT('',(-1.4,-22.05148057706,-39.1));
#410 = DIRECTION('',(1.,-2.2E-16,1.1E-16));
#411 = DIRECTION('',(1.1E-16,-3.3E-16,-1.));
#412 = ADVANCED_FACE('',(#413),#431,.F.);
#413 = FACE_BOUND('',#414,.F.);
#414 = EDGE_LOOP('',(#415,#416,#424,#430));
#415 = ORIENTED_EDGE('',*,*,#376,.T.);
#416 = ORIENTED_EDGE('',*,*,#417,.T.);
#417 = EDGE_CURVE('',#369,#418,#420,.T.);
#418 = VERTEX_POINT('',#419);
#419 = CARTESIAN_POINT('',(1.4,-19.90148057706,-34.6));
#420 = LINE('',#421,#422);
#421 = CARTESIAN_POINT('',(1.4,-20.90148057706,-34.6));
#422 = VECTOR('',#423,1.);
#423 = DIRECTION('',(-2.2E-16,1.,-3.3E-16));
#424 = ORIENTED_EDGE('',*,*,#425,.F.);
#425 = EDGE_CURVE('',#48,#418,#426,.T.);
#426 = LINE('',#427,#428);
#427 = CARTESIAN_POINT('',(-1.4,-19.90148057706,-34.6));
#428 = VECTOR('',#429,1.);
#429 = DIRECTION('',(1.,-2.2E-16,1.1E-16));
#430 = ORIENTED_EDGE('',*,*,#47,.F.);
#431 = PLANE('',#432);
#432 = AXIS2_PLACEMENT_3D('',#433,#434,#435);
#433 = CARTESIAN_POINT('',(-1.4,-20.90148057706,-34.6));
#434 = DIRECTION('',(-1.1E-16,3.3E-16,1.));
#435 = DIRECTION('',(0.,1.,-3.3E-16));
#436 = ADVANCED_FACE('',(#437),#455,.T.);
#437 = FACE_BOUND('',#438,.T.);
#438 = EDGE_LOOP('',(#439,#440,#441,#449));
#439 = ORIENTED_EDGE('',*,*,#223,.F.);
#440 = ORIENTED_EDGE('',*,*,#392,.T.);
#441 = ORIENTED_EDGE('',*,*,#442,.T.);
#442 = EDGE_CURVE('',#393,#443,#445,.T.);
#443 = VERTEX_POINT('',#444);
#444 = CARTESIAN_POINT('',(1.4,-23.05148057706,-29.1));
#445 = LINE('',#446,#447);
#446 = CARTESIAN_POINT('',(1.4,-23.05148057706,-40.1));
#447 = VECTOR('',#448,1.);
#448 = DIRECTION('',(-3.3E-16,-1.1E-16,1.));
#449 = ORIENTED_EDGE('',*,*,#450,.F.);
#450 = EDGE_CURVE('',#215,#443,#451,.T.);
#451 = LINE('',#452,#453);
#452 = CARTESIAN_POINT('',(-1.4,-23.05148057706,-29.1));
#453 = VECTOR('',#454,1.);
#454 = DIRECTION('',(1.,-2.2E-16,1.1E-16));
#455 = PLANE('',#456);
#456 = AXIS2_PLACEMENT_3D('',#457,#458,#459);
#457 = CARTESIAN_POINT('',(-1.4,-23.05148057706,-40.1));
#458 = DIRECTION('',(-2.2E-16,-1.,1.1E-16));
#459 = DIRECTION('',(-3.3E-16,1.1E-16,1.));
#460 = ADVANCED_FACE('',(#461),#479,.F.);
#461 = FACE_BOUND('',#462,.F.);
#462 = EDGE_LOOP('',(#463,#464,#465,#473));
#463 = ORIENTED_EDGE('',*,*,#55,.F.);
#464 = ORIENTED_EDGE('',*,*,#425,.T.);
#465 = ORIENTED_EDGE('',*,*,#466,.T.);
#466 = EDGE_CURVE('',#418,#467,#469,.T.);
#467 = VERTEX_POINT('',#468);
#468 = CARTESIAN_POINT('',(1.4,-21.10987540079,-27.75242933218));
#469 = LINE('',#470,#471);
#470 = CARTESIAN_POINT('',(1.4,-19.90148057706,-34.6));
#471 = VECTOR('',#472,1.);
#472 = DIRECTION('',(-2.9E-16,-0.173785333909,0.984783558818));
#473 = ORIENTED_EDGE('',*,*,#474,.F.);
#474 = EDGE_CURVE('',#56,#467,#475,.T.);
#475 = LINE('',#476,#477);
#476 = CARTESIAN_POINT('',(-1.4,-21.10987540079,-27.75242933218));
#477 = VECTOR('',#478,1.);
#478 = DIRECTION('',(1.,-2.2E-16,1.1E-16));
#479 = PLANE('',#480);
#480 = AXIS2_PLACEMENT_3D('',#481,#482,#483);
#481 = CARTESIAN_POINT('',(-1.4,-19.90148057706,-34.6));
#482 = DIRECTION('',(-2.E-16,-0.984783558818,-0.173785333909));
#483 = DIRECTION('',(-3.3E-16,-0.173785333909,0.984783558818));
#484 = ADVANCED_FACE('',(#485),#504,.F.);
#485 = FACE_BOUND('',#486,.T.);
#486 = EDGE_LOOP('',(#487,#488,#497,#503));
#487 = ORIENTED_EDGE('',*,*,#450,.T.);
#488 = ORIENTED_EDGE('',*,*,#489,.T.);
#489 = EDGE_CURVE('',#443,#490,#492,.T.);
#490 = VERTEX_POINT('',#491);
#491 = CARTESIAN_POINT('',(1.4,-24.05148057706,-29.1));
#492 = CIRCLE('',#493,0.5);
#493 = AXIS2_PLACEMENT_3D('',#494,#495,#496);
#494 = CARTESIAN_POINT('',(1.4,-23.55148057706,-29.1));
#495 = DIRECTION('',(1.,2.2E-16,3.3E-16));
#496 = DIRECTION('',(-2.2E-16,1.,-3.3E-16));
#497 = ORIENTED_EDGE('',*,*,#498,.F.);
#498 = EDGE_CURVE('',#207,#490,#499,.T.);
#499 = LINE('',#500,#501);
#500 = CARTESIAN_POINT('',(-1.4,-24.05148057706,-29.1));
#501 = VECTOR('',#502,1.);
#502 = DIRECTION('',(1.,-2.2E-16,1.1E-16));
#503 = ORIENTED_EDGE('',*,*,#214,.F.);
#504 = CYLINDRICAL_SURFACE('',#505,0.5);
#505 = AXIS2_PLACEMENT_3D('',#506,#507,#508);
#506 = CARTESIAN_POINT('',(-1.4,-23.55148057706,-29.1));
#507 = DIRECTION('',(-1.,-0.,-3.3E-16));
#508 = DIRECTION('',(1.089E-31,1.,-3.3E-16));
#509 = ADVANCED_FACE('',(#510),#529,.T.);
#510 = FACE_BOUND('',#511,.T.);
#511 = EDGE_LOOP('',(#512,#513,#521,#528));
#512 = ORIENTED_EDGE('',*,*,#63,.T.);
#513 = ORIENTED_EDGE('',*,*,#514,.T.);
#514 = EDGE_CURVE('',#64,#515,#517,.T.);
#515 = VERTEX_POINT('',#516);
#516 = CARTESIAN_POINT('',(1.4,-23.07944251843,-26.1));
#517 = LINE('',#518,#519);
#518 = CARTESIAN_POINT('',(-1.4,-23.07944251843,-26.1));
#519 = VECTOR('',#520,1.);
#520 = DIRECTION('',(1.,-2.2E-16,1.1E-16));
#521 = ORIENTED_EDGE('',*,*,#522,.F.);
#522 = EDGE_CURVE('',#467,#515,#523,.T.);
#523 = CIRCLE('',#524,2.);
#524 = AXIS2_PLACEMENT_3D('',#525,#526,#527);
#525 = CARTESIAN_POINT('',(1.4,-23.07944251843,-28.1));
#526 = DIRECTION('',(1.,-2.2E-16,1.1E-16));
#527 = DIRECTION('',(-2.2E-16,-1.,1.1E-16));
#528 = ORIENTED_EDGE('',*,*,#474,.F.);
#529 = CYLINDRICAL_SURFACE('',#530,2.);
#530 = AXIS2_PLACEMENT_3D('',#531,#532,#533);
#531 = CARTESIAN_POINT('',(-1.4,-23.07944251843,-28.1));
#532 = DIRECTION('',(1.,-2.2E-16,1.1E-16));
#533 = DIRECTION('',(1.9753599621E-16,0.984783558818,0.173785333909));
#534 = ADVANCED_FACE('',(#535),#553,.T.);
#535 = FACE_BOUND('',#536,.T.);
#536 = EDGE_LOOP('',(#537,#538,#539,#547));
#537 = ORIENTED_EDGE('',*,*,#206,.F.);
#538 = ORIENTED_EDGE('',*,*,#498,.T.);
#539 = ORIENTED_EDGE('',*,*,#540,.T.);
#540 = EDGE_CURVE('',#490,#541,#543,.T.);
#541 = VERTEX_POINT('',#542);
#542 = CARTESIAN_POINT('',(1.4,-24.05148057706,-39.1));
#543 = LINE('',#544,#545);
#544 = CARTESIAN_POINT('',(1.4,-24.05148057706,-29.1));
#545 = VECTOR('',#546,1.);
#546 = DIRECTION('',(3.3E-16,1.1E-16,-1.));
#547 = ORIENTED_EDGE('',*,*,#548,.F.);
#548 = EDGE_CURVE('',#198,#541,#549,.T.);
#549 = LINE('',#550,#551);
#550 = CARTESIAN_POINT('',(-1.4,-24.05148057706,-39.1));
#551 = VECTOR('',#552,1.);
#552 = DIRECTION('',(1.,-2.2E-16,1.1E-16));
#553 = PLANE('',#554);
#554 = AXIS2_PLACEMENT_3D('',#555,#556,#557);
#555 = CARTESIAN_POINT('',(-1.4,-24.05148057706,-29.1));
#556 = DIRECTION('',(2.2E-16,1.,-1.1E-16));
#557 = DIRECTION('',(3.3E-16,-1.1E-16,-1.));
#558 = ADVANCED_FACE('',(#559),#577,.T.);
#559 = FACE_BOUND('',#560,.T.);
#560 = EDGE_LOOP('',(#561,#562,#570,#576));
#561 = ORIENTED_EDGE('',*,*,#72,.T.);
#562 = ORIENTED_EDGE('',*,*,#563,.T.);
#563 = EDGE_CURVE('',#73,#564,#566,.T.);
#564 = VERTEX_POINT('',#565);
#565 = CARTESIAN_POINT('',(1.4,-28.32351863569,-26.1));
#566 = LINE('',#567,#568);
#567 = CARTESIAN_POINT('',(-1.4,-28.32351863569,-26.1));
#568 = VECTOR('',#569,1.);
#569 = DIRECTION('',(1.,-2.2E-16,1.1E-16));
#570 = ORIENTED_EDGE('',*,*,#571,.F.);
#571 = EDGE_CURVE('',#515,#564,#572,.T.);
#572 = LINE('',#573,#574);
#573 = CARTESIAN_POINT('',(1.4,-21.40148057706,-26.1));
#574 = VECTOR('',#575,1.);
#575 = DIRECTION('',(0.,-1.,3.3E-16));
#576 = ORIENTED_EDGE('',*,*,#514,.F.);
#577 = PLANE('',#578);
#578 = AXIS2_PLACEMENT_3D('',#579,#580,#581);
#579 = CARTESIAN_POINT('',(8.62E-15,-25.70148057706,-26.1));
#580 = DIRECTION('',(-1.1E-16,5.2E-16,1.));
#581 = DIRECTION('',(0.,1.,-5.2E-16));
#582 = ADVANCED_FACE('',(#583),#602,.T.);
#583 = FACE_BOUND('',#584,.F.);
#584 = EDGE_LOOP('',(#585,#586,#594,#601));
#585 = ORIENTED_EDGE('',*,*,#197,.T.);
#586 = ORIENTED_EDGE('',*,*,#587,.T.);
#587 = EDGE_CURVE('',#190,#588,#590,.T.);
#588 = VERTEX_POINT('',#589);
#589 = CARTESIAN_POINT('',(1.4,-25.05148057706,-40.1));
#590 = LINE('',#591,#592);
#591 = CARTESIAN_POINT('',(-1.4,-25.05148057706,-40.1));
#592 = VECTOR('',#593,1.);
#593 = DIRECTION('',(1.,-2.2E-16,1.1E-16));
#594 = ORIENTED_EDGE('',*,*,#595,.F.);
#595 = EDGE_CURVE('',#541,#588,#596,.T.);
#596 = CIRCLE('',#597,1.);
#597 = AXIS2_PLACEMENT_3D('',#598,#599,#600);
#598 = CARTESIAN_POINT('',(1.4,-25.05148057706,-39.1));
#599 = DIRECTION('',(-1.,2.2E-16,-1.1E-16));
#600 = DIRECTION('',(-2.2E-16,-1.,1.1E-16));
#601 = ORIENTED_EDGE('',*,*,#548,.F.);
#602 = CYLINDRICAL_SURFACE('',#603,1.);
#603 = AXIS2_PLACEMENT_3D('',#604,#605,#606);
#604 = CARTESIAN_POINT('',(-1.4,-25.05148057706,-39.1));
#605 = DIRECTION('',(1.,-2.2E-16,1.1E-16));
#606 = DIRECTION('',(2.2E-16,1.,-1.1E-16));
#607 = ADVANCED_FACE('',(#608),#627,.T.);
#608 = FACE_BOUND('',#609,.F.);
#609 = EDGE_LOOP('',(#610,#611,#612,#621));
#610 = ORIENTED_EDGE('',*,*,#80,.T.);
#611 = ORIENTED_EDGE('',*,*,#563,.T.);
#612 = ORIENTED_EDGE('',*,*,#613,.F.);
#613 = EDGE_CURVE('',#614,#564,#616,.T.);
#614 = VERTEX_POINT('',#615);
#615 = CARTESIAN_POINT('',(1.4,-30.29308575333,-27.75242933218));
#616 = CIRCLE('',#617,2.);
#617 = AXIS2_PLACEMENT_3D('',#618,#619,#620);
#618 = CARTESIAN_POINT('',(1.4,-28.32351863569,-28.1));
#619 = DIRECTION('',(-1.,2.2E-16,-1.1E-16));
#620 = DIRECTION('',(-2.2E-16,-1.,1.1E-16));
#621 = ORIENTED_EDGE('',*,*,#622,.F.);
#622 = EDGE_CURVE('',#81,#614,#623,.T.);
#623 = LINE('',#624,#625);
#624 = CARTESIAN_POINT('',(-1.4,-30.29308575333,-27.75242933218));
#625 = VECTOR('',#626,1.);
#626 = DIRECTION('',(1.,-2.2E-16,1.1E-16));
#627 = CYLINDRICAL_SURFACE('',#628,2.);
#628 = AXIS2_PLACEMENT_3D('',#629,#630,#631);
#629 = CARTESIAN_POINT('',(-1.4,-28.32351863569,-28.1));
#630 = DIRECTION('',(1.,-2.2E-16,1.1E-16));
#631 = DIRECTION('',(-2.357687696699E-16,-0.984783558818,0.173785333909)
  );
#632 = ADVANCED_FACE('',(#633),#651,.T.);
#633 = FACE_BOUND('',#634,.T.);
#634 = EDGE_LOOP('',(#635,#643,#649,#650));
#635 = ORIENTED_EDGE('',*,*,#636,.T.);
#636 = EDGE_CURVE('',#588,#637,#639,.T.);
#637 = VERTEX_POINT('',#638);
#638 = CARTESIAN_POINT('',(1.4,-26.35148057706,-40.1));
#639 = LINE('',#640,#641);
#640 = CARTESIAN_POINT('',(1.4,-25.70148057706,-40.1));
#641 = VECTOR('',#642,1.);
#642 = DIRECTION('',(0.,-1.,3.3E-16));
#643 = ORIENTED_EDGE('',*,*,#644,.F.);
#644 = EDGE_CURVE('',#181,#637,#645,.T.);
#645 = LINE('',#646,#647);
#646 = CARTESIAN_POINT('',(-1.4,-26.35148057706,-40.1));
#647 = VECTOR('',#648,1.);
#648 = DIRECTION('',(1.,-2.2E-16,1.1E-16));
#649 = ORIENTED_EDGE('',*,*,#189,.T.);
#650 = ORIENTED_EDGE('',*,*,#587,.T.);
#651 = PLANE('',#652);
#652 = AXIS2_PLACEMENT_3D('',#653,#654,#655);
#653 = CARTESIAN_POINT('',(1.337E-14,-25.70148057706,-40.1));
#654 = DIRECTION('',(1.1E-16,-1.1E-16,-1.));
#655 = DIRECTION('',(-1.,0.,-1.1E-16));
#656 = ADVANCED_FACE('',(#657),#675,.T.);
#657 = FACE_BOUND('',#658,.T.);
#658 = EDGE_LOOP('',(#659,#660,#668,#674));
#659 = ORIENTED_EDGE('',*,*,#89,.F.);
#660 = ORIENTED_EDGE('',*,*,#661,.T.);
#661 = EDGE_CURVE('',#90,#662,#664,.T.);
#662 = VERTEX_POINT('',#663);
#663 = CARTESIAN_POINT('',(1.4,-31.50148057706,-34.6));
#664 = LINE('',#665,#666);
#665 = CARTESIAN_POINT('',(-1.4,-31.50148057706,-34.6));
#666 = VECTOR('',#667,1.);
#667 = DIRECTION('',(1.,-2.2E-16,1.1E-16));
#668 = ORIENTED_EDGE('',*,*,#669,.T.);
#669 = EDGE_CURVE('',#662,#614,#670,.T.);
#670 = LINE('',#671,#672);
#671 = CARTESIAN_POINT('',(1.4,-31.50148057706,-34.6));
#672 = VECTOR('',#673,1.);
#673 = DIRECTION('',(-3.7E-16,0.173785333909,0.984783558818));
#674 = ORIENTED_EDGE('',*,*,#622,.F.);
#675 = PLANE('',#676);
#676 = AXIS2_PLACEMENT_3D('',#677,#678,#679);
#677 = CARTESIAN_POINT('',(-1.4,-31.50148057706,-34.6));
#678 = DIRECTION('',(-2.4E-16,-0.984783558818,0.173785333909));
#679 = DIRECTION('',(-3.3E-16,0.173785333909,0.984783558818));
#680 = ADVANCED_FACE('',(#681),#700,.T.);
#681 = FACE_BOUND('',#682,.F.);
#682 = EDGE_LOOP('',(#683,#684,#692,#699));
#683 = ORIENTED_EDGE('',*,*,#180,.T.);
#684 = ORIENTED_EDGE('',*,*,#685,.T.);
#685 = EDGE_CURVE('',#173,#686,#688,.T.);
#686 = VERTEX_POINT('',#687);
#687 = CARTESIAN_POINT('',(1.4,-27.35148057706,-39.1));
#688 = LINE('',#689,#690);
#689 = CARTESIAN_POINT('',(-1.4,-27.35148057706,-39.1));
#690 = VECTOR('',#691,1.);
#691 = DIRECTION('',(1.,-2.2E-16,1.1E-16));
#692 = ORIENTED_EDGE('',*,*,#693,.F.);
#693 = EDGE_CURVE('',#637,#686,#694,.T.);
#694 = CIRCLE('',#695,1.);
#695 = AXIS2_PLACEMENT_3D('',#696,#697,#698);
#696 = CARTESIAN_POINT('',(1.4,-26.35148057706,-39.1));
#697 = DIRECTION('',(-1.,2.2E-16,-1.1E-16));
#698 = DIRECTION('',(-2.2E-16,-1.,1.1E-16));
#699 = ORIENTED_EDGE('',*,*,#644,.F.);
#700 = CYLINDRICAL_SURFACE('',#701,1.);
#701 = AXIS2_PLACEMENT_3D('',#702,#703,#704);
#702 = CARTESIAN_POINT('',(-1.4,-26.35148057706,-39.1));
#703 = DIRECTION('',(1.,-2.2E-16,1.1E-16));
#704 = DIRECTION('',(1.1E-16,-1.1E-16,-1.));
#705 = ADVANCED_FACE('',(#706),#724,.T.);
#706 = FACE_BOUND('',#707,.T.);
#707 = EDGE_LOOP('',(#708,#716,#722,#723));
#708 = ORIENTED_EDGE('',*,*,#709,.T.);
#709 = EDGE_CURVE('',#98,#710,#712,.T.);
#710 = VERTEX_POINT('',#711);
#711 = CARTESIAN_POINT('',(1.4,-30.50148057706,-34.6));
#712 = LINE('',#713,#714);
#713 = CARTESIAN_POINT('',(-1.4,-30.50148057706,-34.6));
#714 = VECTOR('',#715,1.);
#715 = DIRECTION('',(1.,-2.2E-16,1.1E-16));
#716 = ORIENTED_EDGE('',*,*,#717,.T.);
#717 = EDGE_CURVE('',#710,#662,#718,.T.);
#718 = LINE('',#719,#720);
#719 = CARTESIAN_POINT('',(1.4,-30.50148057706,-34.6));
#720 = VECTOR('',#721,1.);
#721 = DIRECTION('',(2.2E-16,-1.,3.3E-16));
#722 = ORIENTED_EDGE('',*,*,#661,.F.);
#723 = ORIENTED_EDGE('',*,*,#97,.F.);
#724 = PLANE('',#725);
#725 = AXIS2_PLACEMENT_3D('',#726,#727,#728);
#726 = CARTESIAN_POINT('',(-1.4,-30.50148057706,-34.6));
#727 = DIRECTION('',(1.1E-16,-3.3E-16,-1.));
#728 = DIRECTION('',(0.,-1.,3.3E-16));
#729 = ADVANCED_FACE('',(#730),#748,.T.);
#730 = FACE_BOUND('',#731,.T.);
#731 = EDGE_LOOP('',(#732,#733,#734,#742));
#732 = ORIENTED_EDGE('',*,*,#172,.F.);
#733 = ORIENTED_EDGE('',*,*,#685,.T.);
#734 = ORIENTED_EDGE('',*,*,#735,.T.);
#735 = EDGE_CURVE('',#686,#736,#738,.T.);
#736 = VERTEX_POINT('',#737);
#737 = CARTESIAN_POINT('',(1.4,-27.35148057706,-29.1));
#738 = LINE('',#739,#740);
#739 = CARTESIAN_POINT('',(1.4,-27.35148057706,-40.1));
#740 = VECTOR('',#741,1.);
#741 = DIRECTION('',(-3.3E-16,-1.1E-16,1.));
#742 = ORIENTED_EDGE('',*,*,#743,.F.);
#743 = EDGE_CURVE('',#164,#736,#744,.T.);
#744 = LINE('',#745,#746);
#745 = CARTESIAN_POINT('',(-1.4,-27.35148057706,-29.1));
#746 = VECTOR('',#747,1.);
#747 = DIRECTION('',(1.,-2.2E-16,1.1E-16));
#748 = PLANE('',#749);
#749 = AXIS2_PLACEMENT_3D('',#750,#751,#752);
#750 = CARTESIAN_POINT('',(-1.4,-27.35148057706,-40.1));
#751 = DIRECTION('',(-2.2E-16,-1.,1.1E-16));
#752 = DIRECTION('',(-3.3E-16,1.1E-16,1.));
#753 = ADVANCED_FACE('',(#754),#772,.T.);
#754 = FACE_BOUND('',#755,.T.);
#755 = EDGE_LOOP('',(#756,#764,#770,#771));
#756 = ORIENTED_EDGE('',*,*,#757,.T.);
#757 = EDGE_CURVE('',#106,#758,#760,.T.);
#758 = VERTEX_POINT('',#759);
#759 = CARTESIAN_POINT('',(1.4,-30.50148057706,-37.4));
#760 = LINE('',#761,#762);
#761 = CARTESIAN_POINT('',(-1.4,-30.50148057706,-37.4));
#762 = VECTOR('',#763,1.);
#763 = DIRECTION('',(1.,-2.2E-16,1.1E-16));
#764 = ORIENTED_EDGE('',*,*,#765,.T.);
#765 = EDGE_CURVE('',#758,#710,#766,.T.);
#766 = LINE('',#767,#768);
#767 = CARTESIAN_POINT('',(1.4,-30.50148057706,-37.4));
#768 = VECTOR('',#769,1.);
#769 = DIRECTION('',(-3.3E-16,-1.1E-16,1.));
#770 = ORIENTED_EDGE('',*,*,#709,.F.);
#771 = ORIENTED_EDGE('',*,*,#105,.F.);
#772 = PLANE('',#773);
#773 = AXIS2_PLACEMENT_3D('',#774,#775,#776);
#774 = CARTESIAN_POINT('',(-1.4,-30.50148057706,-37.4));
#775 = DIRECTION('',(-2.2E-16,-1.,1.1E-16));
#776 = DIRECTION('',(-3.3E-16,1.1E-16,1.));
#777 = ADVANCED_FACE('',(#778),#797,.F.);
#778 = FACE_BOUND('',#779,.T.);
#779 = EDGE_LOOP('',(#780,#781,#790,#796));
#780 = ORIENTED_EDGE('',*,*,#743,.T.);
#781 = ORIENTED_EDGE('',*,*,#782,.T.);
#782 = EDGE_CURVE('',#736,#783,#785,.T.);
#783 = VERTEX_POINT('',#784);
#784 = CARTESIAN_POINT('',(1.4,-28.35148057706,-29.1));
#785 = CIRCLE('',#786,0.5);
#786 = AXIS2_PLACEMENT_3D('',#787,#788,#789);
#787 = CARTESIAN_POINT('',(1.4,-27.85148057706,-29.1));
#788 = DIRECTION('',(1.,2.2E-16,3.3E-16));
#789 = DIRECTION('',(-2.2E-16,1.,-3.3E-16));
#790 = ORIENTED_EDGE('',*,*,#791,.F.);
#791 = EDGE_CURVE('',#156,#783,#792,.T.);
#792 = LINE('',#793,#794);
#793 = CARTESIAN_POINT('',(-1.4,-28.35148057706,-29.1));
#794 = VECTOR('',#795,1.);
#795 = DIRECTION('',(1.,-2.2E-16,1.1E-16));
#796 = ORIENTED_EDGE('',*,*,#163,.F.);
#797 = CYLINDRICAL_SURFACE('',#798,0.5);
#798 = AXIS2_PLACEMENT_3D('',#799,#800,#801);
#799 = CARTESIAN_POINT('',(-1.4,-27.85148057706,-29.1));
#800 = DIRECTION('',(-1.,-0.,-3.3E-16));
#801 = DIRECTION('',(1.089E-31,1.,-3.3E-16));
#802 = ADVANCED_FACE('',(#803),#821,.T.);
#803 = FACE_BOUND('',#804,.T.);
#804 = EDGE_LOOP('',(#805,#813,#819,#820));
#805 = ORIENTED_EDGE('',*,*,#806,.T.);
#806 = EDGE_CURVE('',#114,#807,#809,.T.);
#807 = VERTEX_POINT('',#808);
#808 = CARTESIAN_POINT('',(1.4,-33.50148057706,-37.4));
#809 = LINE('',#810,#811);
#810 = CARTESIAN_POINT('',(-1.4,-33.50148057706,-37.4));
#811 = VECTOR('',#812,1.);
#812 = DIRECTION('',(1.,-2.2E-16,1.1E-16));
#813 = ORIENTED_EDGE('',*,*,#814,.T.);
#814 = EDGE_CURVE('',#807,#758,#815,.T.);
#815 = LINE('',#816,#817);
#816 = CARTESIAN_POINT('',(1.4,-33.50148057706,-37.4));
#817 = VECTOR('',#818,1.);
#818 = DIRECTION('',(-2.2E-16,1.,-3.3E-16));
#819 = ORIENTED_EDGE('',*,*,#757,.F.);
#820 = ORIENTED_EDGE('',*,*,#113,.F.);
#821 = PLANE('',#822);
#822 = AXIS2_PLACEMENT_3D('',#823,#824,#825);
#823 = CARTESIAN_POINT('',(-1.4,-33.50148057706,-37.4));
#824 = DIRECTION('',(-1.1E-16,3.3E-16,1.));
#825 = DIRECTION('',(0.,1.,-3.3E-16));
#826 = ADVANCED_FACE('',(#827),#845,.T.);
#827 = FACE_BOUND('',#828,.T.);
#828 = EDGE_LOOP('',(#829,#830,#831,#839));
#829 = ORIENTED_EDGE('',*,*,#155,.F.);
#830 = ORIENTED_EDGE('',*,*,#791,.T.);
#831 = ORIENTED_EDGE('',*,*,#832,.T.);
#832 = EDGE_CURVE('',#783,#833,#835,.T.);
#833 = VERTEX_POINT('',#834);
#834 = CARTESIAN_POINT('',(1.4,-28.35148057706,-39.1));
#835 = LINE('',#836,#837);
#836 = CARTESIAN_POINT('',(1.4,-28.35148057706,-29.1));
#837 = VECTOR('',#838,1.);
#838 = DIRECTION('',(3.3E-16,1.1E-16,-1.));
#839 = ORIENTED_EDGE('',*,*,#840,.F.);
#840 = EDGE_CURVE('',#147,#833,#841,.T.);
#841 = LINE('',#842,#843);
#842 = CARTESIAN_POINT('',(-1.4,-28.35148057706,-39.1));
#843 = VECTOR('',#844,1.);
#844 = DIRECTION('',(1.,-2.2E-16,1.1E-16));
#845 = PLANE('',#846);
#846 = AXIS2_PLACEMENT_3D('',#847,#848,#849);
#847 = CARTESIAN_POINT('',(-1.4,-28.35148057706,-29.1));
#848 = DIRECTION('',(2.2E-16,1.,-1.1E-16));
#849 = DIRECTION('',(3.3E-16,-1.1E-16,-1.));
#850 = ADVANCED_FACE('',(#851),#869,.T.);
#851 = FACE_BOUND('',#852,.T.);
#852 = EDGE_LOOP('',(#853,#854,#862,#868));
#853 = ORIENTED_EDGE('',*,*,#121,.F.);
#854 = ORIENTED_EDGE('',*,*,#855,.T.);
#855 = EDGE_CURVE('',#122,#856,#858,.T.);
#856 = VERTEX_POINT('',#857);
#857 = CARTESIAN_POINT('',(1.4,-33.50148057706,-39.1));
#858 = LINE('',#859,#860);
#859 = CARTESIAN_POINT('',(-1.4,-33.50148057706,-39.1));
#860 = VECTOR('',#861,1.);
#861 = DIRECTION('',(1.,-2.2E-16,1.1E-16));
#862 = ORIENTED_EDGE('',*,*,#863,.T.);
#863 = EDGE_CURVE('',#856,#807,#864,.T.);
#864 = LINE('',#865,#866);
#865 = CARTESIAN_POINT('',(1.4,-33.50148057706,-40.1));
#866 = VECTOR('',#867,1.);
#867 = DIRECTION('',(-3.3E-16,-1.1E-16,1.));
#868 = ORIENTED_EDGE('',*,*,#806,.F.);
#869 = PLANE('',#870);
#870 = AXIS2_PLACEMENT_3D('',#871,#872,#873);
#871 = CARTESIAN_POINT('',(-1.4,-33.50148057706,-40.1));
#872 = DIRECTION('',(-2.2E-16,-1.,1.1E-16));
#873 = DIRECTION('',(-3.3E-16,1.1E-16,1.));
#874 = ADVANCED_FACE('',(#875),#894,.T.);
#875 = FACE_BOUND('',#876,.T.);
#876 = EDGE_LOOP('',(#877,#878,#879,#888));
#877 = ORIENTED_EDGE('',*,*,#146,.T.);
#878 = ORIENTED_EDGE('',*,*,#840,.T.);
#879 = ORIENTED_EDGE('',*,*,#880,.F.);
#880 = EDGE_CURVE('',#881,#833,#883,.T.);
#881 = VERTEX_POINT('',#882);
#882 = CARTESIAN_POINT('',(1.4,-29.35148057706,-40.1));
#883 = CIRCLE('',#884,1.);
#884 = AXIS2_PLACEMENT_3D('',#885,#886,#887);
#885 = CARTESIAN_POINT('',(1.4,-29.35148057706,-39.1));
#886 = DIRECTION('',(1.,-2.2E-16,1.1E-16));
#887 = DIRECTION('',(-2.2E-16,-1.,1.1E-16));
#888 = ORIENTED_EDGE('',*,*,#889,.F.);
#889 = EDGE_CURVE('',#139,#881,#890,.T.);
#890 = LINE('',#891,#892);
#891 = CARTESIAN_POINT('',(-1.4,-29.35148057706,-40.1));
#892 = VECTOR('',#893,1.);
#893 = DIRECTION('',(1.,-2.2E-16,1.1E-16));
#894 = CYLINDRICAL_SURFACE('',#895,1.);
#895 = AXIS2_PLACEMENT_3D('',#896,#897,#898);
#896 = CARTESIAN_POINT('',(-1.4,-29.35148057706,-39.1));
#897 = DIRECTION('',(1.,-2.2E-16,1.1E-16));
#898 = DIRECTION('',(1.1E-16,-3.3E-16,-1.));
#899 = ADVANCED_FACE('',(#900),#919,.T.);
#900 = FACE_BOUND('',#901,.T.);
#901 = EDGE_LOOP('',(#902,#903,#911,#918));
#902 = ORIENTED_EDGE('',*,*,#129,.T.);
#903 = ORIENTED_EDGE('',*,*,#904,.T.);
#904 = EDGE_CURVE('',#130,#905,#907,.T.);
#905 = VERTEX_POINT('',#906);
#906 = CARTESIAN_POINT('',(1.4,-32.50148057706,-40.1));
#907 = LINE('',#908,#909);
#908 = CARTESIAN_POINT('',(-1.4,-32.50148057706,-40.1));
#909 = VECTOR('',#910,1.);
#910 = DIRECTION('',(1.,-2.2E-16,1.1E-16));
#911 = ORIENTED_EDGE('',*,*,#912,.F.);
#912 = EDGE_CURVE('',#856,#905,#913,.T.);
#913 = CIRCLE('',#914,1.);
#914 = AXIS2_PLACEMENT_3D('',#915,#916,#917);
#915 = CARTESIAN_POINT('',(1.4,-32.50148057706,-39.1));
#916 = DIRECTION('',(1.,-2.2E-16,1.1E-16));
#917 = DIRECTION('',(-2.2E-16,-1.,1.1E-16));
#918 = ORIENTED_EDGE('',*,*,#855,.F.);
#919 = CYLINDRICAL_SURFACE('',#920,1.);
#920 = AXIS2_PLACEMENT_3D('',#921,#922,#923);
#921 = CARTESIAN_POINT('',(-1.4,-32.50148057706,-39.1));
#922 = DIRECTION('',(1.,-2.2E-16,1.1E-16));
#923 = DIRECTION('',(-2.2E-16,-1.,1.1E-16));
#924 = ADVANCED_FACE('',(#925),#936,.T.);
#925 = FACE_BOUND('',#926,.T.);
#926 = EDGE_LOOP('',(#927,#928,#929,#935));
#927 = ORIENTED_EDGE('',*,*,#138,.F.);
#928 = ORIENTED_EDGE('',*,*,#889,.T.);
#929 = ORIENTED_EDGE('',*,*,#930,.T.);
#930 = EDGE_CURVE('',#881,#905,#931,.T.);
#931 = LINE('',#932,#933);
#932 = CARTESIAN_POINT('',(1.4,-28.35148057706,-40.1));
#933 = VECTOR('',#934,1.);
#934 = DIRECTION('',(2.2E-16,-1.,3.3E-16));
#935 = ORIENTED_EDGE('',*,*,#904,.F.);
#936 = PLANE('',#937);
#937 = AXIS2_PLACEMENT_3D('',#938,#939,#940);
#938 = CARTESIAN_POINT('',(-1.4,-28.35148057706,-40.1));
#939 = DIRECTION('',(1.1E-16,-3.3E-16,-1.));
#940 = DIRECTION('',(0.,-1.,3.3E-16));
#941 = ADVANCED_FACE('',(#942),#972,.T.);
#942 = FACE_BOUND('',#943,.T.);
#943 = EDGE_LOOP('',(#944,#945,#946,#947,#948,#949,#950,#951,#952,#953,
    #954,#955,#956,#957,#958,#959,#960,#961,#962,#963,#964,#965,#966,
    #967,#968,#969,#970,#971));
#944 = ORIENTED_EDGE('',*,*,#272,.T.);
#945 = ORIENTED_EDGE('',*,*,#320,.T.);
#946 = ORIENTED_EDGE('',*,*,#368,.T.);
#947 = ORIENTED_EDGE('',*,*,#417,.T.);
#948 = ORIENTED_EDGE('',*,*,#466,.T.);
#949 = ORIENTED_EDGE('',*,*,#522,.T.);
#950 = ORIENTED_EDGE('',*,*,#571,.T.);
#951 = ORIENTED_EDGE('',*,*,#613,.F.);
#952 = ORIENTED_EDGE('',*,*,#669,.F.);
#953 = ORIENTED_EDGE('',*,*,#717,.F.);
#954 = ORIENTED_EDGE('',*,*,#765,.F.);
#955 = ORIENTED_EDGE('',*,*,#814,.F.);
#956 = ORIENTED_EDGE('',*,*,#863,.F.);
#957 = ORIENTED_EDGE('',*,*,#912,.T.);
#958 = ORIENTED_EDGE('',*,*,#930,.F.);
#959 = ORIENTED_EDGE('',*,*,#880,.T.);
#960 = ORIENTED_EDGE('',*,*,#832,.F.);
#961 = ORIENTED_EDGE('',*,*,#782,.F.);
#962 = ORIENTED_EDGE('',*,*,#735,.F.);
#963 = ORIENTED_EDGE('',*,*,#693,.F.);
#964 = ORIENTED_EDGE('',*,*,#636,.F.);
#965 = ORIENTED_EDGE('',*,*,#595,.F.);
#966 = ORIENTED_EDGE('',*,*,#540,.F.);
#967 = ORIENTED_EDGE('',*,*,#489,.F.);
#968 = ORIENTED_EDGE('',*,*,#442,.F.);
#969 = ORIENTED_EDGE('',*,*,#400,.F.);
#970 = ORIENTED_EDGE('',*,*,#352,.T.);
#971 = ORIENTED_EDGE('',*,*,#303,.F.);
#972 = PLANE('',#973);
#973 = AXIS2_PLACEMENT_3D('',#974,#975,#976);
#974 = CARTESIAN_POINT('',(1.4,-25.70148057706,-34.20192172313));
#975 = DIRECTION('',(1.,-2.2E-16,-1.1E-16));
#976 = DIRECTION('',(1.1E-16,-1.1E-16,1.));
#977 = ( GEOMETRIC_REPRESENTATION_CONTEXT(3) 
GLOBAL_UNCERTAINTY_ASSIGNED_CONTEXT((#981)) GLOBAL_UNIT_ASSIGNED_CONTEXT
((#978,#979,#980)) REPRESENTATION_CONTEXT('Context #1',
  '3D Context with UNIT and UNCERTAINTY') );
#978 = ( LENGTH_UNIT() NAMED_UNIT(*) SI_UNIT(.MILLI.,.METRE.) );
#979 = ( NAMED_UNIT(*) PLANE_ANGLE_UNIT() SI_UNIT($,.RADIAN.) );
#980 = ( NAMED_UNIT(*) SI_UNIT($,.STERADIAN.) SOLID_ANGLE_UNIT() );
#981 = UNCERTAINTY_MEASURE_WITH_UNIT(LENGTH_MEASURE(1.E-07),#978,
  'distance_accuracy_value','confusion accuracy');
#982 = PRODUCT_RELATED_PRODUCT_CATEGORY('part',$,(#7));
#983 = MECHANICAL_DESIGN_GEOMETRIC_PRESENTATION_REPRESENTATION('',(#984)
  ,#977);
#984 = STYLED_ITEM('color',(#985),#15);
#985 = PRESENTATION_STYLE_ASSIGNMENT((#986,#992));
#986 = SURFACE_STYLE_USAGE(.BOTH.,#987);
#987 = SURFACE_SIDE_STYLE('',(#988));
#988 = SURFACE_STYLE_FILL_AREA(#989);
#989 = FILL_AREA_STYLE('',(#990));
#990 = FILL_AREA_STYLE_COLOUR('',#991);
#991 = DRAUGHTING_PRE_DEFINED_COLOUR('yellow');
#992 = CURVE_STYLE('',#993,POSITIVE_LENGTH_MEASURE(0.1),#994);
#993 = DRAUGHTING_PRE_DEFINED_CURVE_FONT('continuous');
#994 = COLOUR_RGB('',9.803921802644E-02,9.803921802644E-02,
  9.803921802644E-02);
ENDSEC;
END-ISO-10303-21;
