ISO-10303-21;
HEADER;
FILE_DESCRIPTION(('FreeCAD Model'),'2;1');
FILE_NAME('Open CASCADE Shape Model','2025-10-25T12:31:42',(''),(''),
  'Open CASCADE STEP processor 7.8','FreeCAD','Unknown');
FILE_SCHEMA(('AUTOMOTIVE_DESIGN { 1 0 10303 214 1 1 1 1 }'));
ENDSEC;
DATA;
#1 = APPLICATION_PROTOCOL_DEFINITION('international standard',
  'automotive_design',2000,#2);
#2 = APPLICATION_CONTEXT(
  'core data for automotive mechanical design processes');
#3 = SHAPE_DEFINITION_REPRESENTATION(#4,#10);
#4 = PRODUCT_DEFINITION_SHAPE('','',#5);
#5 = PRODUCT_DEFINITION('design','',#6,#9);
#6 = PRODUCT_DEFINITION_FORMATION('','',#7);
#7 = PRODUCT('switch_slide','switch_slide','',(#8));
#8 = PRODUCT_CONTEXT('',#2,'mechanical');
#9 = PRODUCT_DEFINITION_CONTEXT('part definition',#2,'design');
#10 = ADVANCED_BREP_SHAPE_REPRESENTATION('',(#11,#15),#1286);
#11 = AXIS2_PLACEMENT_3D('',#12,#13,#14);
#12 = CARTESIAN_POINT('',(0.,0.,0.));
#13 = DIRECTION('',(0.,0.,1.));
#14 = DIRECTION('',(1.,0.,-0.));
#15 = MANIFOLD_SOLID_BREP('',#16);
#16 = CLOSED_SHELL('',(#17,#143,#174,#199,#224,#248,#272,#297,#322,#339,
    #370,#437,#469,#493,#525,#585,#616,#641,#666,#690,#714,#739,#764,
    #781,#812,#836,#876,#898,#915,#932,#944,#968,#992,#1009,#1033,#1064,
    #1089,#1114,#1138,#1162,#1187,#1212,#1229,#1246,#1258,#1270));
#17 = ADVANCED_FACE('',(#18,#88),#138,.F.);
#18 = FACE_BOUND('',#19,.F.);
#19 = EDGE_LOOP('',(#20,#30,#39,#47,#56,#64,#73,#81));
#20 = ORIENTED_EDGE('',*,*,#21,.F.);
#21 = EDGE_CURVE('',#22,#24,#26,.T.);
#22 = VERTEX_POINT('',#23);
#23 = CARTESIAN_POINT('',(37.8,-6.8984608378,2.604451446035));
#24 = VERTEX_POINT('',#25);
#25 = CARTESIAN_POINT('',(37.8,-3.136239261218,12.94107027468));
#26 = LINE('',#27,#28);
#27 = CARTESIAN_POINT('',(37.8,-6.8984608378,2.604451446035));
#28 = VECTOR('',#29,1.);
#29 = DIRECTION('',(-6.1E-16,0.342020143326,0.939692620786));
#30 = ORIENTED_EDGE('',*,*,#31,.F.);
#31 = EDGE_CURVE('',#32,#22,#34,.T.);
#32 = VERTEX_POINT('',#33);
#33 = CARTESIAN_POINT('',(37.8,-6.838693590054,2.476280169624));
#34 = CIRCLE('',#35,1.E-01);
#35 = AXIS2_PLACEMENT_3D('',#36,#37,#38);
#36 = CARTESIAN_POINT('',(37.8,-6.804491575721,2.570249431703));
#37 = DIRECTION('',(-1.,-1.94E-15,0.));
#38 = DIRECTION('',(6.635190780518E-16,-0.342020143326,-0.939692620786)
  );
#39 = ORIENTED_EDGE('',*,*,#40,.F.);
#40 = EDGE_CURVE('',#41,#32,#43,.T.);
#41 = VERTEX_POINT('',#42);
#42 = CARTESIAN_POINT('',(37.8,-1.388476389496,0.492563338335));
#43 = LINE('',#44,#45);
#44 = CARTESIAN_POINT('',(37.8,-1.388476389496,0.492563338335));
#45 = VECTOR('',#46,1.);
#46 = DIRECTION('',(1.67E-15,-0.939692620786,0.342020143326));
#47 = ORIENTED_EDGE('',*,*,#48,.F.);
#48 = EDGE_CURVE('',#49,#41,#51,.T.);
#49 = VERTEX_POINT('',#50);
#50 = CARTESIAN_POINT('',(37.8,-1.260305113085,0.552330586081));
#51 = CIRCLE('',#52,1.E-01);
#52 = AXIS2_PLACEMENT_3D('',#53,#54,#55);
#53 = CARTESIAN_POINT('',(37.8,-1.354274375163,0.586532600414));
#54 = DIRECTION('',(-1.,-1.94E-15,0.));
#55 = DIRECTION('',(-1.823003684325E-15,0.939692620786,-0.342020143326)
  );
#56 = ORIENTED_EDGE('',*,*,#57,.F.);
#57 = EDGE_CURVE('',#58,#49,#60,.T.);
#58 = VERTEX_POINT('',#59);
#59 = CARTESIAN_POINT('',(37.8,2.501916463498,10.888949414726));
#60 = LINE('',#61,#62);
#61 = CARTESIAN_POINT('',(37.8,2.501916463498,10.888949414726));
#62 = VECTOR('',#63,1.);
#63 = DIRECTION('',(6.1E-16,-0.342020143326,-0.939692620786));
#64 = ORIENTED_EDGE('',*,*,#65,.F.);
#65 = EDGE_CURVE('',#66,#58,#68,.T.);
#66 = VERTEX_POINT('',#67);
#67 = CARTESIAN_POINT('',(37.8,2.442149215752,11.017120691138));
#68 = CIRCLE('',#69,1.E-01);
#69 = AXIS2_PLACEMENT_3D('',#70,#71,#72);
#70 = CARTESIAN_POINT('',(37.8,2.407947201419,10.923151429059));
#71 = DIRECTION('',(-1.,-1.94E-15,9.860761315263E-32));
#72 = DIRECTION('',(-6.635190780518E-16,0.342020143326,0.939692620786));
#73 = ORIENTED_EDGE('',*,*,#74,.F.);
#74 = EDGE_CURVE('',#75,#66,#77,.T.);
#75 = VERTEX_POINT('',#76);
#76 = CARTESIAN_POINT('',(37.8,-3.008067984806,13.000837522426));
#77 = LINE('',#78,#79);
#78 = CARTESIAN_POINT('',(37.8,-3.008067984806,13.000837522426));
#79 = VECTOR('',#80,1.);
#80 = DIRECTION('',(-1.67E-15,0.939692620786,-0.342020143326));
#81 = ORIENTED_EDGE('',*,*,#82,.F.);
#82 = EDGE_CURVE('',#24,#75,#83,.T.);
#83 = CIRCLE('',#84,1.E-01);
#84 = AXIS2_PLACEMENT_3D('',#85,#86,#87);
#85 = CARTESIAN_POINT('',(37.8,-3.042269999139,12.906868260348));
#86 = DIRECTION('',(-1.,-1.94E-15,0.));
#87 = DIRECTION('',(1.823003684325E-15,-0.939692620786,0.342020143326));
#88 = FACE_BOUND('',#89,.F.);
#89 = EDGE_LOOP('',(#90,#100,#108,#116,#124,#132));
#90 = ORIENTED_EDGE('',*,*,#91,.F.);
#91 = EDGE_CURVE('',#92,#94,#96,.T.);
#92 = VERTEX_POINT('',#93);
#93 = CARTESIAN_POINT('',(37.8,-4.453534477037,7.567548774363));
#94 = VERTEX_POINT('',#95);
#95 = CARTESIAN_POINT('',(37.8,-5.154675770855,5.641178901751));
#96 = LINE('',#97,#98);
#97 = CARTESIAN_POINT('',(37.8,-4.453534477037,7.567548774363));
#98 = VECTOR('',#99,1.);
#99 = DIRECTION('',(3.420201433257E-16,-0.342020143326,-0.939692620786)
  );
#100 = ORIENTED_EDGE('',*,*,#101,.F.);
#101 = EDGE_CURVE('',#102,#92,#104,.T.);
#102 = VERTEX_POINT('',#103);
#103 = CARTESIAN_POINT('',(37.8,-1.37742384317,9.001962720267));
#104 = LINE('',#105,#106);
#105 = CARTESIAN_POINT('',(37.8,-1.37742384317,9.001962720267));
#106 = VECTOR('',#107,1.);
#107 = DIRECTION('',(9.063077870367E-16,-0.906307787037,-0.422618261741)
  );
#108 = ORIENTED_EDGE('',*,*,#109,.F.);
#109 = EDGE_CURVE('',#110,#102,#112,.T.);
#110 = VERTEX_POINT('',#111);
#111 = CARTESIAN_POINT('',(37.8,5.699010273501E-02,5.925852086399));
#112 = LINE('',#113,#114);
#113 = CARTESIAN_POINT('',(37.8,5.699010273501E-02,5.925852086399));
#114 = VECTOR('',#115,1.);
#115 = DIRECTION('',(4.226182617407E-16,-0.422618261741,0.906307787037)
  );
#116 = ORIENTED_EDGE('',*,*,#117,.F.);
#117 = EDGE_CURVE('',#118,#110,#120,.T.);
#118 = VERTEX_POINT('',#119);
#119 = CARTESIAN_POINT('',(37.8,-0.644151191083,3.999482213788));
#120 = LINE('',#121,#122);
#121 = CARTESIAN_POINT('',(37.8,-0.644151191083,3.999482213788));
#122 = VECTOR('',#123,1.);
#123 = DIRECTION('',(-3.420201433257E-16,0.342020143326,0.939692620786)
  );
#124 = ORIENTED_EDGE('',*,*,#125,.F.);
#125 = EDGE_CURVE('',#126,#118,#128,.T.);
#126 = VERTEX_POINT('',#127);
#127 = CARTESIAN_POINT('',(37.8,-3.72026182495,2.565068267884));
#128 = LINE('',#129,#130);
#129 = CARTESIAN_POINT('',(37.8,-3.72026182495,2.565068267884));
#130 = VECTOR('',#131,1.);
#131 = DIRECTION('',(-9.063077870367E-16,0.906307787037,0.422618261741)
  );
#132 = ORIENTED_EDGE('',*,*,#133,.F.);
#133 = EDGE_CURVE('',#94,#126,#134,.T.);
#134 = LINE('',#135,#136);
#135 = CARTESIAN_POINT('',(37.8,-5.154675770855,5.641178901751));
#136 = VECTOR('',#137,1.);
#137 = DIRECTION('',(-4.226182617407E-16,0.422618261741,-0.906307787037)
  );
#138 = PLANE('',#139);
#139 = AXIS2_PLACEMENT_3D('',#140,#141,#142);
#140 = CARTESIAN_POINT('',(37.8,-2.198272187151,6.746700430381));
#141 = DIRECTION('',(1.,1.94E-15,0.));
#142 = DIRECTION('',(-1.94E-15,1.,0.));
#143 = ADVANCED_FACE('',(#144),#169,.F.);
#144 = FACE_BOUND('',#145,.F.);
#145 = EDGE_LOOP('',(#146,#154,#155,#163));
#146 = ORIENTED_EDGE('',*,*,#147,.F.);
#147 = EDGE_CURVE('',#22,#148,#150,.T.);
#148 = VERTEX_POINT('',#149);
#149 = CARTESIAN_POINT('',(38.2,-7.274337886114,2.741259503366));
#150 = LINE('',#151,#152);
#151 = CARTESIAN_POINT('',(38.,-7.086399361957,2.672855474701));
#152 = VECTOR('',#153,1.);
#153 = DIRECTION('',(0.707106781187,-0.664463024389,0.241844762648));
#154 = ORIENTED_EDGE('',*,*,#21,.T.);
#155 = ORIENTED_EDGE('',*,*,#156,.T.);
#156 = EDGE_CURVE('',#24,#157,#159,.T.);
#157 = VERTEX_POINT('',#158);
#158 = CARTESIAN_POINT('',(38.2,-3.512116309532,13.077878332011));
#159 = LINE('',#160,#161);
#160 = CARTESIAN_POINT('',(38.,-3.324177785375,13.009474303346));
#161 = VECTOR('',#162,1.);
#162 = DIRECTION('',(0.707106781187,-0.664463024389,0.241844762648));
#163 = ORIENTED_EDGE('',*,*,#164,.F.);
#164 = EDGE_CURVE('',#148,#157,#165,.T.);
#165 = LINE('',#166,#167);
#166 = CARTESIAN_POINT('',(38.2,-7.274337886114,2.741259503366));
#167 = VECTOR('',#168,1.);
#168 = DIRECTION('',(-6.1E-16,0.342020143326,0.939692620786));
#169 = PLANE('',#170);
#170 = AXIS2_PLACEMENT_3D('',#171,#172,#173);
#171 = CARTESIAN_POINT('',(38.,-7.086399361957,2.672855474701));
#172 = DIRECTION('',(0.707106781187,0.664463024389,-0.241844762648));
#173 = DIRECTION('',(-3.053113317719E-16,0.342020143326,0.939692620786)
  );
#174 = ADVANCED_FACE('',(#175),#194,.T.);
#175 = FACE_BOUND('',#176,.F.);
#176 = EDGE_LOOP('',(#177,#185,#186,#187));
#177 = ORIENTED_EDGE('',*,*,#178,.F.);
#178 = EDGE_CURVE('',#32,#179,#181,.T.);
#179 = VERTEX_POINT('',#180);
#180 = CARTESIAN_POINT('',(38.2,-6.975501647384,2.10040312131));
#181 = LINE('',#182,#183);
#182 = CARTESIAN_POINT('',(38.,-6.907097618719,2.288341645467));
#183 = VECTOR('',#184,1.);
#184 = DIRECTION('',(0.707106781187,-0.241844762648,-0.664463024389));
#185 = ORIENTED_EDGE('',*,*,#31,.T.);
#186 = ORIENTED_EDGE('',*,*,#147,.T.);
#187 = ORIENTED_EDGE('',*,*,#188,.F.);
#188 = EDGE_CURVE('',#179,#148,#189,.T.);
#189 = CIRCLE('',#190,0.5);
#190 = AXIS2_PLACEMENT_3D('',#191,#192,#193);
#191 = CARTESIAN_POINT('',(38.2,-6.804491575721,2.570249431703));
#192 = DIRECTION('',(-1.,-1.94E-15,0.));
#193 = DIRECTION('',(6.635190780518E-16,-0.342020143326,-0.939692620786)
  );
#194 = CONICAL_SURFACE('',#195,0.5,0.785398163397);
#195 = AXIS2_PLACEMENT_3D('',#196,#197,#198);
#196 = CARTESIAN_POINT('',(38.2,-6.804491575721,2.570249431703));
#197 = DIRECTION('',(1.,1.94E-15,0.));
#198 = DIRECTION('',(6.635190780518E-16,-0.342020143326,-0.939692620786)
  );
#199 = ADVANCED_FACE('',(#200),#219,.T.);
#200 = FACE_BOUND('',#201,.F.);
#201 = EDGE_LOOP('',(#202,#203,#204,#212));
#202 = ORIENTED_EDGE('',*,*,#156,.F.);
#203 = ORIENTED_EDGE('',*,*,#82,.T.);
#204 = ORIENTED_EDGE('',*,*,#205,.T.);
#205 = EDGE_CURVE('',#75,#206,#208,.T.);
#206 = VERTEX_POINT('',#207);
#207 = CARTESIAN_POINT('',(38.2,-2.871259927476,13.376714570741));
#208 = LINE('',#209,#210);
#209 = CARTESIAN_POINT('',(38.2,-2.871259927476,13.376714570741));
#210 = VECTOR('',#211,1.);
#211 = DIRECTION('',(0.707106781187,0.241844762648,0.664463024389));
#212 = ORIENTED_EDGE('',*,*,#213,.F.);
#213 = EDGE_CURVE('',#157,#206,#214,.T.);
#214 = CIRCLE('',#215,0.5);
#215 = AXIS2_PLACEMENT_3D('',#216,#217,#218);
#216 = CARTESIAN_POINT('',(38.2,-3.042269999139,12.906868260348));
#217 = DIRECTION('',(-1.,-1.94E-15,0.));
#218 = DIRECTION('',(1.823003684325E-15,-0.939692620786,0.342020143326)
  );
#219 = CONICAL_SURFACE('',#220,0.5,0.785398163397);
#220 = AXIS2_PLACEMENT_3D('',#221,#222,#223);
#221 = CARTESIAN_POINT('',(38.2,-3.042269999139,12.906868260348));
#222 = DIRECTION('',(1.,1.94E-15,0.));
#223 = DIRECTION('',(1.823003684325E-15,-0.939692620786,0.342020143326)
  );
#224 = ADVANCED_FACE('',(#225),#243,.F.);
#225 = FACE_BOUND('',#226,.F.);
#226 = EDGE_LOOP('',(#227,#235,#236,#237));
#227 = ORIENTED_EDGE('',*,*,#228,.F.);
#228 = EDGE_CURVE('',#41,#229,#231,.T.);
#229 = VERTEX_POINT('',#230);
#230 = CARTESIAN_POINT('',(38.2,-1.525284446826,0.116686290021));
#231 = LINE('',#232,#233);
#232 = CARTESIAN_POINT('',(38.2,-1.525284446826,0.116686290021));
#233 = VECTOR('',#234,1.);
#234 = DIRECTION('',(0.707106781187,-0.241844762648,-0.664463024389));
#235 = ORIENTED_EDGE('',*,*,#40,.T.);
#236 = ORIENTED_EDGE('',*,*,#178,.T.);
#237 = ORIENTED_EDGE('',*,*,#238,.F.);
#238 = EDGE_CURVE('',#229,#179,#239,.T.);
#239 = LINE('',#240,#241);
#240 = CARTESIAN_POINT('',(38.2,-1.525284446826,0.116686290021));
#241 = VECTOR('',#242,1.);
#242 = DIRECTION('',(1.67E-15,-0.939692620786,0.342020143326));
#243 = PLANE('',#244);
#244 = AXIS2_PLACEMENT_3D('',#245,#246,#247);
#245 = CARTESIAN_POINT('',(38.,-1.456880418161,0.304624814178));
#246 = DIRECTION('',(0.707106781187,0.241844762648,0.664463024389));
#247 = DIRECTION('',(1.859623566247E-15,-0.939692620786,0.342020143326)
  );
#248 = ADVANCED_FACE('',(#249),#267,.F.);
#249 = FACE_BOUND('',#250,.F.);
#250 = EDGE_LOOP('',(#251,#252,#253,#261));
#251 = ORIENTED_EDGE('',*,*,#205,.F.);
#252 = ORIENTED_EDGE('',*,*,#74,.T.);
#253 = ORIENTED_EDGE('',*,*,#254,.T.);
#254 = EDGE_CURVE('',#66,#255,#257,.T.);
#255 = VERTEX_POINT('',#256);
#256 = CARTESIAN_POINT('',(38.2,2.578957273082,11.392997739452));
#257 = LINE('',#258,#259);
#258 = CARTESIAN_POINT('',(38.,2.510553244417,11.205059215295));
#259 = VECTOR('',#260,1.);
#260 = DIRECTION('',(0.707106781187,0.241844762648,0.664463024389));
#261 = ORIENTED_EDGE('',*,*,#262,.F.);
#262 = EDGE_CURVE('',#206,#255,#263,.T.);
#263 = LINE('',#264,#265);
#264 = CARTESIAN_POINT('',(38.2,-2.871259927476,13.376714570741));
#265 = VECTOR('',#266,1.);
#266 = DIRECTION('',(-1.67E-15,0.939692620786,-0.342020143326));
#267 = PLANE('',#268);
#268 = AXIS2_PLACEMENT_3D('',#269,#270,#271);
#269 = CARTESIAN_POINT('',(38.,-2.939663956141,13.188776046584));
#270 = DIRECTION('',(0.707106781187,-0.241844762648,-0.664463024389));
#271 = DIRECTION('',(-1.915134717478E-15,0.939692620786,-0.342020143326)
  );
#272 = ADVANCED_FACE('',(#273),#292,.T.);
#273 = FACE_BOUND('',#274,.F.);
#274 = EDGE_LOOP('',(#275,#283,#284,#285));
#275 = ORIENTED_EDGE('',*,*,#276,.F.);
#276 = EDGE_CURVE('',#49,#277,#279,.T.);
#277 = VERTEX_POINT('',#278);
#278 = CARTESIAN_POINT('',(38.2,-0.88442806477,0.415522528751));
#279 = LINE('',#280,#281);
#280 = CARTESIAN_POINT('',(38.,-1.072366588927,0.483926557416));
#281 = VECTOR('',#282,1.);
#282 = DIRECTION('',(0.707106781187,0.664463024389,-0.241844762648));
#283 = ORIENTED_EDGE('',*,*,#48,.T.);
#284 = ORIENTED_EDGE('',*,*,#228,.T.);
#285 = ORIENTED_EDGE('',*,*,#286,.F.);
#286 = EDGE_CURVE('',#277,#229,#287,.T.);
#287 = CIRCLE('',#288,0.5);
#288 = AXIS2_PLACEMENT_3D('',#289,#290,#291);
#289 = CARTESIAN_POINT('',(38.2,-1.354274375163,0.586532600414));
#290 = DIRECTION('',(-1.,-1.94E-15,0.));
#291 = DIRECTION('',(-1.823003684325E-15,0.939692620786,-0.342020143326)
  );
#292 = CONICAL_SURFACE('',#293,0.5,0.785398163397);
#293 = AXIS2_PLACEMENT_3D('',#294,#295,#296);
#294 = CARTESIAN_POINT('',(38.2,-1.354274375163,0.586532600414));
#295 = DIRECTION('',(1.,1.94E-15,0.));
#296 = DIRECTION('',(-1.823003684325E-15,0.939692620786,-0.342020143326)
  );
#297 = ADVANCED_FACE('',(#298),#317,.T.);
#298 = FACE_BOUND('',#299,.F.);
#299 = EDGE_LOOP('',(#300,#301,#302,#310));
#300 = ORIENTED_EDGE('',*,*,#254,.F.);
#301 = ORIENTED_EDGE('',*,*,#65,.T.);
#302 = ORIENTED_EDGE('',*,*,#303,.T.);
#303 = EDGE_CURVE('',#58,#304,#306,.T.);
#304 = VERTEX_POINT('',#305);
#305 = CARTESIAN_POINT('',(38.2,2.877793511812,10.752141357396));
#306 = LINE('',#307,#308);
#307 = CARTESIAN_POINT('',(38.2,2.877793511812,10.752141357396));
#308 = VECTOR('',#309,1.);
#309 = DIRECTION('',(0.707106781187,0.664463024389,-0.241844762648));
#310 = ORIENTED_EDGE('',*,*,#311,.F.);
#311 = EDGE_CURVE('',#255,#304,#312,.T.);
#312 = CIRCLE('',#313,0.5);
#313 = AXIS2_PLACEMENT_3D('',#314,#315,#316);
#314 = CARTESIAN_POINT('',(38.2,2.407947201419,10.923151429059));
#315 = DIRECTION('',(-1.,-1.94E-15,9.860761315263E-32));
#316 = DIRECTION('',(-6.635190780518E-16,0.342020143326,0.939692620786)
  );
#317 = CONICAL_SURFACE('',#318,0.5,0.785398163397);
#318 = AXIS2_PLACEMENT_3D('',#319,#320,#321);
#319 = CARTESIAN_POINT('',(38.2,2.407947201419,10.923151429059));
#320 = DIRECTION('',(1.,1.94E-15,0.));
#321 = DIRECTION('',(-6.635190780518E-16,0.342020143326,0.939692620786)
  );
#322 = ADVANCED_FACE('',(#323),#334,.F.);
#323 = FACE_BOUND('',#324,.F.);
#324 = EDGE_LOOP('',(#325,#326,#327,#328));
#325 = ORIENTED_EDGE('',*,*,#303,.F.);
#326 = ORIENTED_EDGE('',*,*,#57,.T.);
#327 = ORIENTED_EDGE('',*,*,#276,.T.);
#328 = ORIENTED_EDGE('',*,*,#329,.F.);
#329 = EDGE_CURVE('',#304,#277,#330,.T.);
#330 = LINE('',#331,#332);
#331 = CARTESIAN_POINT('',(38.2,2.877793511812,10.752141357396));
#332 = VECTOR('',#333,1.);
#333 = DIRECTION('',(6.1E-16,-0.342020143326,-0.939692620786));
#334 = PLANE('',#335);
#335 = AXIS2_PLACEMENT_3D('',#336,#337,#338);
#336 = CARTESIAN_POINT('',(38.,2.689854987655,10.820545386061));
#337 = DIRECTION('',(0.707106781187,-0.664463024389,0.241844762648));
#338 = DIRECTION('',(3.330669073875E-16,-0.342020143326,-0.939692620786)
  );
#339 = ADVANCED_FACE('',(#340),#365,.T.);
#340 = FACE_BOUND('',#341,.T.);
#341 = EDGE_LOOP('',(#342,#343,#351,#359));
#342 = ORIENTED_EDGE('',*,*,#91,.F.);
#343 = ORIENTED_EDGE('',*,*,#344,.T.);
#344 = EDGE_CURVE('',#92,#345,#347,.T.);
#345 = VERTEX_POINT('',#346);
#346 = CARTESIAN_POINT('',(35.,-4.453534477037,7.567548774363));
#347 = LINE('',#348,#349);
#348 = CARTESIAN_POINT('',(37.8,-4.453534477037,7.567548774363));
#349 = VECTOR('',#350,1.);
#350 = DIRECTION('',(-1.,-1.E-15,-1.1E-16));
#351 = ORIENTED_EDGE('',*,*,#352,.T.);
#352 = EDGE_CURVE('',#345,#353,#355,.T.);
#353 = VERTEX_POINT('',#354);
#354 = CARTESIAN_POINT('',(35.,-5.154675770855,5.641178901752));
#355 = LINE('',#356,#357);
#356 = CARTESIAN_POINT('',(35.,-4.453534477037,7.567548774363));
#357 = VECTOR('',#358,1.);
#358 = DIRECTION('',(-3.E-17,-0.342020143326,-0.939692620786));
#359 = ORIENTED_EDGE('',*,*,#360,.F.);
#360 = EDGE_CURVE('',#94,#353,#361,.T.);
#361 = LINE('',#362,#363);
#362 = CARTESIAN_POINT('',(34.9,-5.154675770855,5.641178901751));
#363 = VECTOR('',#364,1.);
#364 = DIRECTION('',(-1.,-1.78E-15,0.));
#365 = PLANE('',#366);
#366 = AXIS2_PLACEMENT_3D('',#367,#368,#369);
#367 = CARTESIAN_POINT('',(33.9,-4.804105123946,6.604363838057));
#368 = DIRECTION('',(1.46E-15,-0.939692620786,0.342020143326));
#369 = DIRECTION('',(0.,-0.342020143326,-0.939692620786));
#370 = ADVANCED_FACE('',(#371,#397),#432,.T.);
#371 = FACE_BOUND('',#372,.T.);
#372 = EDGE_LOOP('',(#373,#374,#382,#390,#396));
#373 = ORIENTED_EDGE('',*,*,#360,.T.);
#374 = ORIENTED_EDGE('',*,*,#375,.T.);
#375 = EDGE_CURVE('',#353,#376,#378,.T.);
#376 = VERTEX_POINT('',#377);
#377 = CARTESIAN_POINT('',(30.,-5.154675770855,5.641178901752));
#378 = LINE('',#379,#380);
#379 = CARTESIAN_POINT('',(34.9,-5.154675770855,5.641178901751));
#380 = VECTOR('',#381,1.);
#381 = DIRECTION('',(-1.,-1.78E-15,0.));
#382 = ORIENTED_EDGE('',*,*,#383,.F.);
#383 = EDGE_CURVE('',#384,#376,#386,.T.);
#384 = VERTEX_POINT('',#385);
#385 = CARTESIAN_POINT('',(30.,-3.72026182495,2.565068267884));
#386 = LINE('',#387,#388);
#387 = CARTESIAN_POINT('',(30.,-3.72026182495,2.565068267884));
#388 = VECTOR('',#389,1.);
#389 = DIRECTION('',(8.452365234814E-16,-0.422618261741,0.906307787037)
  );
#390 = ORIENTED_EDGE('',*,*,#391,.F.);
#391 = EDGE_CURVE('',#126,#384,#392,.T.);
#392 = LINE('',#393,#394);
#393 = CARTESIAN_POINT('',(34.9,-3.72026182495,2.565068267884));
#394 = VECTOR('',#395,1.);
#395 = DIRECTION('',(-1.,-1.78E-15,0.));
#396 = ORIENTED_EDGE('',*,*,#133,.F.);
#397 = FACE_BOUND('',#398,.T.);
#398 = EDGE_LOOP('',(#399,#409,#417,#425));
#399 = ORIENTED_EDGE('',*,*,#400,.F.);
#400 = EDGE_CURVE('',#401,#403,#405,.T.);
#401 = VERTEX_POINT('',#402);
#402 = CARTESIAN_POINT('',(34.9,-4.915606779871,5.128493796107));
#403 = VERTEX_POINT('',#404);
#404 = CARTESIAN_POINT('',(31.748696978501,-4.230088103448,
    3.658394250379));
#405 = LINE('',#406,#407);
#406 = CARTESIAN_POINT('',(33.763808947011,-4.668445468662,
    4.598454653738));
#407 = VECTOR('',#408,1.);
#408 = DIRECTION('',(-0.889126490716,0.193416123721,-0.414782215858));
#409 = ORIENTED_EDGE('',*,*,#410,.F.);
#410 = EDGE_CURVE('',#411,#401,#413,.T.);
#411 = VERTEX_POINT('',#412);
#412 = CARTESIAN_POINT('',(35.777141320049,-4.915606779871,
    5.128493796107));
#413 = LINE('',#414,#415);
#414 = CARTESIAN_POINT('',(34.619285330012,-4.915606779871,
    5.128493796107));
#415 = VECTOR('',#416,1.);
#416 = DIRECTION('',(-1.,-4.1E-16,-2.52E-15));
#417 = ORIENTED_EDGE('',*,*,#418,.F.);
#418 = EDGE_CURVE('',#419,#411,#421,.T.);
#419 = VERTEX_POINT('',#420);
#420 = CARTESIAN_POINT('',(31.851303021499,-4.061599578433,
    3.297069442458));
#421 = LINE('',#422,#423);
#422 = CARTESIAN_POINT('',(32.536891589114,-4.210739081755,
    3.616900139453));
#423 = VECTOR('',#424,1.);
#424 = DIRECTION('',(0.889126490716,-0.193416123721,0.414782215858));
#425 = ORIENTED_EDGE('',*,*,#426,.F.);
#426 = EDGE_CURVE('',#403,#419,#427,.T.);
#427 = ELLIPSE('',#428,0.212132034356,0.15);
#428 = AXIS2_PLACEMENT_3D('',#429,#430,#431);
#429 = CARTESIAN_POINT('',(31.8,-4.14584384094,3.477731846418));
#430 = DIRECTION('',(1.43E-15,-0.906307787037,-0.422618261741));
#431 = DIRECTION('',(-1.43E-15,0.422618261741,-0.906307787037));
#432 = PLANE('',#433);
#433 = AXIS2_PLACEMENT_3D('',#434,#435,#436);
#434 = CARTESIAN_POINT('',(33.9,-4.437468797903,4.103123584818));
#435 = DIRECTION('',(1.43E-15,-0.906307787037,-0.422618261741));
#436 = DIRECTION('',(0.,0.422618261741,-0.906307787037));
#437 = ADVANCED_FACE('',(#438),#464,.T.);
#438 = FACE_BOUND('',#439,.T.);
#439 = EDGE_LOOP('',(#440,#441,#449,#457,#463));
#440 = ORIENTED_EDGE('',*,*,#391,.T.);
#441 = ORIENTED_EDGE('',*,*,#442,.F.);
#442 = EDGE_CURVE('',#443,#384,#445,.T.);
#443 = VERTEX_POINT('',#444);
#444 = CARTESIAN_POINT('',(30.,-0.644151191083,3.999482213788));
#445 = LINE('',#446,#447);
#446 = CARTESIAN_POINT('',(30.,-0.644151191083,3.999482213788));
#447 = VECTOR('',#448,1.);
#448 = DIRECTION('',(1.812615574073E-15,-0.906307787037,-0.422618261741)
  );
#449 = ORIENTED_EDGE('',*,*,#450,.F.);
#450 = EDGE_CURVE('',#451,#443,#453,.T.);
#451 = VERTEX_POINT('',#452);
#452 = CARTESIAN_POINT('',(34.9,-0.644151191083,3.999482213788));
#453 = LINE('',#454,#455);
#454 = CARTESIAN_POINT('',(34.9,-0.644151191083,3.999482213788));
#455 = VECTOR('',#456,1.);
#456 = DIRECTION('',(-1.,-1.78E-15,0.));
#457 = ORIENTED_EDGE('',*,*,#458,.F.);
#458 = EDGE_CURVE('',#118,#451,#459,.T.);
#459 = LINE('',#460,#461);
#460 = CARTESIAN_POINT('',(37.8,-0.644151191083,3.999482213788));
#461 = VECTOR('',#462,1.);
#462 = DIRECTION('',(-1.,-1.E-15,-1.1E-16));
#463 = ORIENTED_EDGE('',*,*,#125,.F.);
#464 = PLANE('',#465);
#465 = AXIS2_PLACEMENT_3D('',#466,#467,#468);
#466 = CARTESIAN_POINT('',(33.9,-2.182206508016,3.282275240836));
#467 = DIRECTION('',(-6.2E-16,0.422618261741,-0.906307787037));
#468 = DIRECTION('',(-4.930380657631E-32,-0.906307787037,-0.422618261741
    ));
#469 = ADVANCED_FACE('',(#470),#488,.T.);
#470 = FACE_BOUND('',#471,.T.);
#471 = EDGE_LOOP('',(#472,#473,#481,#487));
#472 = ORIENTED_EDGE('',*,*,#458,.T.);
#473 = ORIENTED_EDGE('',*,*,#474,.T.);
#474 = EDGE_CURVE('',#451,#475,#477,.T.);
#475 = VERTEX_POINT('',#476);
#476 = CARTESIAN_POINT('',(34.9,5.6990102735E-02,5.925852086399));
#477 = LINE('',#478,#479);
#478 = CARTESIAN_POINT('',(34.9,-0.644151191083,3.999482213788));
#479 = VECTOR('',#480,1.);
#480 = DIRECTION('',(-3.420201433257E-16,0.342020143326,0.939692620786)
  );
#481 = ORIENTED_EDGE('',*,*,#482,.F.);
#482 = EDGE_CURVE('',#110,#475,#483,.T.);
#483 = LINE('',#484,#485);
#484 = CARTESIAN_POINT('',(37.8,5.699010273501E-02,5.925852086399));
#485 = VECTOR('',#486,1.);
#486 = DIRECTION('',(-1.,-1.E-15,-1.1E-16));
#487 = ORIENTED_EDGE('',*,*,#117,.F.);
#488 = PLANE('',#489);
#489 = AXIS2_PLACEMENT_3D('',#490,#491,#492);
#490 = CARTESIAN_POINT('',(37.8,-0.644151191083,3.999482213788));
#491 = DIRECTION('',(-9.E-16,0.939692620786,-0.342020143326));
#492 = DIRECTION('',(-4.8E-16,0.342020143326,0.939692620786));
#493 = ADVANCED_FACE('',(#494),#520,.T.);
#494 = FACE_BOUND('',#495,.T.);
#495 = EDGE_LOOP('',(#496,#497,#505,#513,#519));
#496 = ORIENTED_EDGE('',*,*,#482,.T.);
#497 = ORIENTED_EDGE('',*,*,#498,.T.);
#498 = EDGE_CURVE('',#475,#499,#501,.T.);
#499 = VERTEX_POINT('',#500);
#500 = CARTESIAN_POINT('',(30.,5.6990102735E-02,5.925852086399));
#501 = LINE('',#502,#503);
#502 = CARTESIAN_POINT('',(34.9,5.6990102735E-02,5.925852086399));
#503 = VECTOR('',#504,1.);
#504 = DIRECTION('',(-1.,-1.78E-15,0.));
#505 = ORIENTED_EDGE('',*,*,#506,.F.);
#506 = EDGE_CURVE('',#507,#499,#509,.T.);
#507 = VERTEX_POINT('',#508);
#508 = CARTESIAN_POINT('',(30.,-1.37742384317,9.001962720267));
#509 = LINE('',#510,#511);
#510 = CARTESIAN_POINT('',(30.,-1.37742384317,9.001962720267));
#511 = VECTOR('',#512,1.);
#512 = DIRECTION('',(-8.452365234814E-16,0.422618261741,-0.906307787037)
  );
#513 = ORIENTED_EDGE('',*,*,#514,.F.);
#514 = EDGE_CURVE('',#102,#507,#515,.T.);
#515 = LINE('',#516,#517);
#516 = CARTESIAN_POINT('',(37.8,-1.37742384317,9.001962720267));
#517 = VECTOR('',#518,1.);
#518 = DIRECTION('',(-1.,-1.E-15,-1.1E-16));
#519 = ORIENTED_EDGE('',*,*,#109,.F.);
#520 = PLANE('',#521);
#521 = AXIS2_PLACEMENT_3D('',#522,#523,#524);
#522 = CARTESIAN_POINT('',(33.9,-0.660216870217,7.463907403333));
#523 = DIRECTION('',(-1.42E-15,0.906307787037,0.422618261741));
#524 = DIRECTION('',(9.860761315263E-32,-0.422618261741,0.906307787037)
  );
#525 = ADVANCED_FACE('',(#526,#545),#580,.T.);
#526 = FACE_BOUND('',#527,.T.);
#527 = EDGE_LOOP('',(#528,#529,#537,#543,#544));
#528 = ORIENTED_EDGE('',*,*,#514,.T.);
#529 = ORIENTED_EDGE('',*,*,#530,.F.);
#530 = EDGE_CURVE('',#531,#507,#533,.T.);
#531 = VERTEX_POINT('',#532);
#532 = CARTESIAN_POINT('',(30.,-4.453534477037,7.567548774363));
#533 = LINE('',#534,#535);
#534 = CARTESIAN_POINT('',(30.,-4.453534477037,7.567548774363));
#535 = VECTOR('',#536,1.);
#536 = DIRECTION('',(-1.812615574073E-15,0.906307787037,0.422618261741)
  );
#537 = ORIENTED_EDGE('',*,*,#538,.F.);
#538 = EDGE_CURVE('',#345,#531,#539,.T.);
#539 = LINE('',#540,#541);
#540 = CARTESIAN_POINT('',(37.8,-4.453534477037,7.567548774363));
#541 = VECTOR('',#542,1.);
#542 = DIRECTION('',(-1.,-1.E-15,-1.1E-16));
#543 = ORIENTED_EDGE('',*,*,#344,.F.);
#544 = ORIENTED_EDGE('',*,*,#101,.F.);
#545 = FACE_BOUND('',#546,.T.);
#546 = EDGE_LOOP('',(#547,#557,#566,#574));
#547 = ORIENTED_EDGE('',*,*,#548,.F.);
#548 = EDGE_CURVE('',#549,#551,#553,.T.);
#549 = VERTEX_POINT('',#550);
#550 = CARTESIAN_POINT('',(31.748696978501,-2.470749825665,8.49213644177
    ));
#551 = VERTEX_POINT('',#552);
#552 = CARTESIAN_POINT('',(34.9,-3.940849371393,7.806617765347));
#553 = LINE('',#554,#555);
#554 = CARTESIAN_POINT('',(35.195291479571,-4.078604410186,
    7.742381535808));
#555 = VECTOR('',#556,1.);
#556 = DIRECTION('',(0.889126490716,-0.414782215858,-0.193416123721));
#557 = ORIENTED_EDGE('',*,*,#558,.F.);
#558 = EDGE_CURVE('',#559,#549,#561,.T.);
#559 = VERTEX_POINT('',#560);
#560 = CARTESIAN_POINT('',(31.851303021499,-2.109425017744,
    8.660624966785));
#561 = ELLIPSE('',#562,0.212132034356,0.15);
#562 = AXIS2_PLACEMENT_3D('',#563,#564,#565);
#563 = CARTESIAN_POINT('',(31.8,-2.290087421704,8.576380704277));
#564 = DIRECTION('',(5.4E-16,-0.422618261741,0.906307787037));
#565 = DIRECTION('',(5.4E-16,-0.906307787037,-0.422618261741));
#566 = ORIENTED_EDGE('',*,*,#567,.F.);
#567 = EDGE_CURVE('',#568,#559,#570,.T.);
#568 = VERTEX_POINT('',#569);
#569 = CARTESIAN_POINT('',(35.777141320049,-3.940849371393,
    7.806617765347));
#570 = LINE('',#571,#572);
#571 = CARTESIAN_POINT('',(33.968374121674,-3.0970498959,8.200087922716)
  );
#572 = VECTOR('',#573,1.);
#573 = DIRECTION('',(-0.889126490716,0.414782215858,0.193416123721));
#574 = ORIENTED_EDGE('',*,*,#575,.F.);
#575 = EDGE_CURVE('',#551,#568,#576,.T.);
#576 = LINE('',#577,#578);
#577 = CARTESIAN_POINT('',(34.619285330012,-3.940849371393,
    7.806617765347));
#578 = VECTOR('',#579,1.);
#579 = DIRECTION('',(1.,-8.8E-16,-1.01E-15));
#580 = PLANE('',#581);
#581 = AXIS2_PLACEMENT_3D('',#582,#583,#584);
#582 = CARTESIAN_POINT('',(33.9,-2.915479160103,8.284755747315));
#583 = DIRECTION('',(5.4E-16,-0.422618261741,0.906307787037));
#584 = DIRECTION('',(0.,0.906307787037,0.422618261741));
#585 = ADVANCED_FACE('',(#586),#611,.T.);
#586 = FACE_BOUND('',#587,.T.);
#587 = EDGE_LOOP('',(#588,#596,#604,#610));
#588 = ORIENTED_EDGE('',*,*,#589,.T.);
#589 = EDGE_CURVE('',#148,#590,#592,.T.);
#590 = VERTEX_POINT('',#591);
#591 = CARTESIAN_POINT('',(40.4,-7.274337886114,2.741259503366));
#592 = LINE('',#593,#594);
#593 = CARTESIAN_POINT('',(37.8,-7.274337886114,2.741259503366));
#594 = VECTOR('',#595,1.);
#595 = DIRECTION('',(1.,1.78E-15,0.));
#596 = ORIENTED_EDGE('',*,*,#597,.T.);
#597 = EDGE_CURVE('',#590,#598,#600,.T.);
#598 = VERTEX_POINT('',#599);
#599 = CARTESIAN_POINT('',(40.4,-3.512116309532,13.077878332011));
#600 = LINE('',#601,#602);
#601 = CARTESIAN_POINT('',(40.4,-7.274337886114,2.741259503366));
#602 = VECTOR('',#603,1.);
#603 = DIRECTION('',(-6.1E-16,0.342020143326,0.939692620786));
#604 = ORIENTED_EDGE('',*,*,#605,.F.);
#605 = EDGE_CURVE('',#157,#598,#606,.T.);
#606 = LINE('',#607,#608);
#607 = CARTESIAN_POINT('',(37.8,-3.512116309532,13.077878332011));
#608 = VECTOR('',#609,1.);
#609 = DIRECTION('',(1.,1.78E-15,0.));
#610 = ORIENTED_EDGE('',*,*,#164,.F.);
#611 = PLANE('',#612);
#612 = AXIS2_PLACEMENT_3D('',#613,#614,#615);
#613 = CARTESIAN_POINT('',(39.3,-5.393227097823,7.909568917688));
#614 = DIRECTION('',(1.67E-15,-0.939692620786,0.342020143326));
#615 = DIRECTION('',(9.860761315263E-32,-0.342020143326,-0.939692620786)
  );
#616 = ADVANCED_FACE('',(#617),#636,.T.);
#617 = FACE_BOUND('',#618,.F.);
#618 = EDGE_LOOP('',(#619,#620,#629,#635));
#619 = ORIENTED_EDGE('',*,*,#589,.T.);
#620 = ORIENTED_EDGE('',*,*,#621,.F.);
#621 = EDGE_CURVE('',#622,#590,#624,.T.);
#622 = VERTEX_POINT('',#623);
#623 = CARTESIAN_POINT('',(40.4,-6.975501647384,2.10040312131));
#624 = CIRCLE('',#625,0.5);
#625 = AXIS2_PLACEMENT_3D('',#626,#627,#628);
#626 = CARTESIAN_POINT('',(40.4,-6.804491575721,2.570249431703));
#627 = DIRECTION('',(-1.,-1.94E-15,0.));
#628 = DIRECTION('',(6.635190780518E-16,-0.342020143326,-0.939692620786)
  );
#629 = ORIENTED_EDGE('',*,*,#630,.F.);
#630 = EDGE_CURVE('',#179,#622,#631,.T.);
#631 = LINE('',#632,#633);
#632 = CARTESIAN_POINT('',(37.8,-6.975501647384,2.10040312131));
#633 = VECTOR('',#634,1.);
#634 = DIRECTION('',(1.,1.78E-15,0.));
#635 = ORIENTED_EDGE('',*,*,#188,.T.);
#636 = CYLINDRICAL_SURFACE('',#637,0.5);
#637 = AXIS2_PLACEMENT_3D('',#638,#639,#640);
#638 = CARTESIAN_POINT('',(37.8,-6.804491575721,2.570249431703));
#639 = DIRECTION('',(-1.,-1.78E-15,0.));
#640 = DIRECTION('',(-1.78E-15,1.,0.));
#641 = ADVANCED_FACE('',(#642),#661,.T.);
#642 = FACE_BOUND('',#643,.F.);
#643 = EDGE_LOOP('',(#644,#652,#659,#660));
#644 = ORIENTED_EDGE('',*,*,#645,.T.);
#645 = EDGE_CURVE('',#206,#646,#648,.T.);
#646 = VERTEX_POINT('',#647);
#647 = CARTESIAN_POINT('',(40.4,-2.871259927476,13.376714570741));
#648 = LINE('',#649,#650);
#649 = CARTESIAN_POINT('',(37.8,-2.871259927476,13.376714570741));
#650 = VECTOR('',#651,1.);
#651 = DIRECTION('',(1.,1.78E-15,0.));
#652 = ORIENTED_EDGE('',*,*,#653,.F.);
#653 = EDGE_CURVE('',#598,#646,#654,.T.);
#654 = CIRCLE('',#655,0.5);
#655 = AXIS2_PLACEMENT_3D('',#656,#657,#658);
#656 = CARTESIAN_POINT('',(40.4,-3.042269999139,12.906868260348));
#657 = DIRECTION('',(-1.,-1.94E-15,0.));
#658 = DIRECTION('',(1.823003684325E-15,-0.939692620786,0.342020143326)
  );
#659 = ORIENTED_EDGE('',*,*,#605,.F.);
#660 = ORIENTED_EDGE('',*,*,#213,.T.);
#661 = CYLINDRICAL_SURFACE('',#662,0.5);
#662 = AXIS2_PLACEMENT_3D('',#663,#664,#665);
#663 = CARTESIAN_POINT('',(37.8,-3.042269999139,12.906868260348));
#664 = DIRECTION('',(-1.,-1.78E-15,0.));
#665 = DIRECTION('',(-1.78E-15,1.,0.));
#666 = ADVANCED_FACE('',(#667),#685,.T.);
#667 = FACE_BOUND('',#668,.T.);
#668 = EDGE_LOOP('',(#669,#677,#683,#684));
#669 = ORIENTED_EDGE('',*,*,#670,.T.);
#670 = EDGE_CURVE('',#229,#671,#673,.T.);
#671 = VERTEX_POINT('',#672);
#672 = CARTESIAN_POINT('',(40.4,-1.525284446826,0.116686290021));
#673 = LINE('',#674,#675);
#674 = CARTESIAN_POINT('',(37.8,-1.525284446826,0.116686290021));
#675 = VECTOR('',#676,1.);
#676 = DIRECTION('',(1.,1.78E-15,0.));
#677 = ORIENTED_EDGE('',*,*,#678,.T.);
#678 = EDGE_CURVE('',#671,#622,#679,.T.);
#679 = LINE('',#680,#681);
#680 = CARTESIAN_POINT('',(40.4,-1.525284446826,0.116686290021));
#681 = VECTOR('',#682,1.);
#682 = DIRECTION('',(1.67E-15,-0.939692620786,0.342020143326));
#683 = ORIENTED_EDGE('',*,*,#630,.F.);
#684 = ORIENTED_EDGE('',*,*,#238,.F.);
#685 = PLANE('',#686);
#686 = AXIS2_PLACEMENT_3D('',#687,#688,#689);
#687 = CARTESIAN_POINT('',(37.8,-1.525284446826,0.116686290021));
#688 = DIRECTION('',(6.1E-16,-0.342020143326,-0.939692620786));
#689 = DIRECTION('',(1.67E-15,-0.939692620786,0.342020143326));
#690 = ADVANCED_FACE('',(#691),#709,.T.);
#691 = FACE_BOUND('',#692,.T.);
#692 = EDGE_LOOP('',(#693,#694,#702,#708));
#693 = ORIENTED_EDGE('',*,*,#645,.T.);
#694 = ORIENTED_EDGE('',*,*,#695,.T.);
#695 = EDGE_CURVE('',#646,#696,#698,.T.);
#696 = VERTEX_POINT('',#697);
#697 = CARTESIAN_POINT('',(40.4,2.578957273082,11.392997739452));
#698 = LINE('',#699,#700);
#699 = CARTESIAN_POINT('',(40.4,-2.871259927476,13.376714570741));
#700 = VECTOR('',#701,1.);
#701 = DIRECTION('',(-1.67E-15,0.939692620786,-0.342020143326));
#702 = ORIENTED_EDGE('',*,*,#703,.F.);
#703 = EDGE_CURVE('',#255,#696,#704,.T.);
#704 = LINE('',#705,#706);
#705 = CARTESIAN_POINT('',(37.8,2.578957273082,11.392997739452));
#706 = VECTOR('',#707,1.);
#707 = DIRECTION('',(1.,1.78E-15,0.));
#708 = ORIENTED_EDGE('',*,*,#262,.F.);
#709 = PLANE('',#710);
#710 = AXIS2_PLACEMENT_3D('',#711,#712,#713);
#711 = CARTESIAN_POINT('',(37.8,-2.871259927476,13.376714570741));
#712 = DIRECTION('',(-6.1E-16,0.342020143326,0.939692620786));
#713 = DIRECTION('',(-1.67E-15,0.939692620786,-0.342020143326));
#714 = ADVANCED_FACE('',(#715),#734,.T.);
#715 = FACE_BOUND('',#716,.F.);
#716 = EDGE_LOOP('',(#717,#718,#727,#733));
#717 = ORIENTED_EDGE('',*,*,#670,.T.);
#718 = ORIENTED_EDGE('',*,*,#719,.F.);
#719 = EDGE_CURVE('',#720,#671,#722,.T.);
#720 = VERTEX_POINT('',#721);
#721 = CARTESIAN_POINT('',(40.4,-0.88442806477,0.415522528751));
#722 = CIRCLE('',#723,0.5);
#723 = AXIS2_PLACEMENT_3D('',#724,#725,#726);
#724 = CARTESIAN_POINT('',(40.4,-1.354274375163,0.586532600414));
#725 = DIRECTION('',(-1.,-1.94E-15,0.));
#726 = DIRECTION('',(-1.823003684325E-15,0.939692620786,-0.342020143326)
  );
#727 = ORIENTED_EDGE('',*,*,#728,.F.);
#728 = EDGE_CURVE('',#277,#720,#729,.T.);
#729 = LINE('',#730,#731);
#730 = CARTESIAN_POINT('',(37.8,-0.88442806477,0.415522528751));
#731 = VECTOR('',#732,1.);
#732 = DIRECTION('',(1.,1.78E-15,0.));
#733 = ORIENTED_EDGE('',*,*,#286,.T.);
#734 = CYLINDRICAL_SURFACE('',#735,0.5);
#735 = AXIS2_PLACEMENT_3D('',#736,#737,#738);
#736 = CARTESIAN_POINT('',(37.8,-1.354274375163,0.586532600414));
#737 = DIRECTION('',(-1.,-1.78E-15,0.));
#738 = DIRECTION('',(-1.78E-15,1.,0.));
#739 = ADVANCED_FACE('',(#740),#759,.T.);
#740 = FACE_BOUND('',#741,.F.);
#741 = EDGE_LOOP('',(#742,#750,#757,#758));
#742 = ORIENTED_EDGE('',*,*,#743,.T.);
#743 = EDGE_CURVE('',#304,#744,#746,.T.);
#744 = VERTEX_POINT('',#745);
#745 = CARTESIAN_POINT('',(40.4,2.877793511812,10.752141357396));
#746 = LINE('',#747,#748);
#747 = CARTESIAN_POINT('',(37.8,2.877793511812,10.752141357396));
#748 = VECTOR('',#749,1.);
#749 = DIRECTION('',(1.,1.78E-15,0.));
#750 = ORIENTED_EDGE('',*,*,#751,.F.);
#751 = EDGE_CURVE('',#696,#744,#752,.T.);
#752 = CIRCLE('',#753,0.5);
#753 = AXIS2_PLACEMENT_3D('',#754,#755,#756);
#754 = CARTESIAN_POINT('',(40.4,2.407947201419,10.923151429059));
#755 = DIRECTION('',(-1.,-1.94E-15,0.));
#756 = DIRECTION('',(-6.635190780518E-16,0.342020143326,0.939692620786)
  );
#757 = ORIENTED_EDGE('',*,*,#703,.F.);
#758 = ORIENTED_EDGE('',*,*,#311,.T.);
#759 = CYLINDRICAL_SURFACE('',#760,0.5);
#760 = AXIS2_PLACEMENT_3D('',#761,#762,#763);
#761 = CARTESIAN_POINT('',(37.8,2.407947201419,10.923151429059));
#762 = DIRECTION('',(-1.,-1.78E-15,0.));
#763 = DIRECTION('',(-1.78E-15,1.,0.));
#764 = ADVANCED_FACE('',(#765),#776,.T.);
#765 = FACE_BOUND('',#766,.T.);
#766 = EDGE_LOOP('',(#767,#768,#774,#775));
#767 = ORIENTED_EDGE('',*,*,#743,.T.);
#768 = ORIENTED_EDGE('',*,*,#769,.T.);
#769 = EDGE_CURVE('',#744,#720,#770,.T.);
#770 = LINE('',#771,#772);
#771 = CARTESIAN_POINT('',(40.4,2.877793511812,10.752141357396));
#772 = VECTOR('',#773,1.);
#773 = DIRECTION('',(6.1E-16,-0.342020143326,-0.939692620786));
#774 = ORIENTED_EDGE('',*,*,#728,.F.);
#775 = ORIENTED_EDGE('',*,*,#329,.F.);
#776 = PLANE('',#777);
#777 = AXIS2_PLACEMENT_3D('',#778,#779,#780);
#778 = CARTESIAN_POINT('',(39.3,0.996682723521,5.583831943074));
#779 = DIRECTION('',(-1.69E-15,0.939692620786,-0.342020143326));
#780 = DIRECTION('',(-9.860761315263E-32,0.342020143326,0.939692620786)
  );
#781 = ADVANCED_FACE('',(#782),#807,.F.);
#782 = FACE_BOUND('',#783,.F.);
#783 = EDGE_LOOP('',(#784,#792,#793,#801));
#784 = ORIENTED_EDGE('',*,*,#785,.F.);
#785 = EDGE_CURVE('',#345,#786,#788,.T.);
#786 = VERTEX_POINT('',#787);
#787 = CARTESIAN_POINT('',(35.,-5.017350049509,7.772760860359));
#788 = LINE('',#789,#790);
#789 = CARTESIAN_POINT('',(35.,-4.453534477037,7.567548774363));
#790 = VECTOR('',#791,1.);
#791 = DIRECTION('',(0.,-0.939692620786,0.342020143326));
#792 = ORIENTED_EDGE('',*,*,#352,.T.);
#793 = ORIENTED_EDGE('',*,*,#794,.T.);
#794 = EDGE_CURVE('',#353,#795,#797,.T.);
#795 = VERTEX_POINT('',#796);
#796 = CARTESIAN_POINT('',(35.,-5.718491343326,5.846390987748));
#797 = LINE('',#798,#799);
#798 = CARTESIAN_POINT('',(35.,-5.154675770855,5.641178901752));
#799 = VECTOR('',#800,1.);
#800 = DIRECTION('',(0.,-0.939692620786,0.342020143326));
#801 = ORIENTED_EDGE('',*,*,#802,.F.);
#802 = EDGE_CURVE('',#786,#795,#803,.T.);
#803 = LINE('',#804,#805);
#804 = CARTESIAN_POINT('',(35.,-5.017350049509,7.772760860359));
#805 = VECTOR('',#806,1.);
#806 = DIRECTION('',(-3.E-17,-0.342020143326,-0.939692620786));
#807 = PLANE('',#808);
#808 = AXIS2_PLACEMENT_3D('',#809,#810,#811);
#809 = CARTESIAN_POINT('',(35.,-4.453534477037,7.567548774363));
#810 = DIRECTION('',(-1.,2.2E-16,-5.E-17));
#811 = DIRECTION('',(-2.238333837392E-16,-0.939692620786,0.342020143326)
  );
#812 = ADVANCED_FACE('',(#813),#831,.F.);
#813 = FACE_BOUND('',#814,.F.);
#814 = EDGE_LOOP('',(#815,#816,#817,#825));
#815 = ORIENTED_EDGE('',*,*,#794,.F.);
#816 = ORIENTED_EDGE('',*,*,#375,.T.);
#817 = ORIENTED_EDGE('',*,*,#818,.F.);
#818 = EDGE_CURVE('',#819,#376,#821,.T.);
#819 = VERTEX_POINT('',#820);
#820 = CARTESIAN_POINT('',(34.802511873617,-5.876737365875,
    5.903987829646));
#821 = LINE('',#822,#823);
#822 = CARTESIAN_POINT('',(35.,-5.906429867483,5.914795016413));
#823 = VECTOR('',#824,1.);
#824 = DIRECTION('',(-0.987440631917,0.148462508044,-5.40359338326E-02)
  );
#825 = ORIENTED_EDGE('',*,*,#826,.F.);
#826 = EDGE_CURVE('',#795,#819,#827,.T.);
#827 = LINE('',#828,#829);
#828 = CARTESIAN_POINT('',(34.375,-6.2193000041,6.028670433332));
#829 = VECTOR('',#830,1.);
#830 = DIRECTION('',(-0.760917374327,-0.609718417914,0.221919355405));
#831 = PLANE('',#832);
#832 = AXIS2_PLACEMENT_3D('',#833,#834,#835);
#833 = CARTESIAN_POINT('',(32.684101109883,-5.357554364734,
    5.715020671094));
#834 = DIRECTION('',(0.,0.342020143326,0.939692620786));
#835 = DIRECTION('',(0.,0.939692620786,-0.342020143326));
#836 = ADVANCED_FACE('',(#837),#871,.F.);
#837 = FACE_BOUND('',#838,.T.);
#838 = EDGE_LOOP('',(#839,#847,#855,#861,#862,#863,#869,#870));
#839 = ORIENTED_EDGE('',*,*,#840,.T.);
#840 = EDGE_CURVE('',#499,#841,#843,.T.);
#841 = VERTEX_POINT('',#842);
#842 = CARTESIAN_POINT('',(30.,-2.29224144923,6.780902444714));
#843 = LINE('',#844,#845);
#844 = CARTESIAN_POINT('',(30.,5.699010273499E-02,5.925852086399));
#845 = VECTOR('',#846,1.);
#846 = DIRECTION('',(1.879385241572E-15,-0.939692620786,0.342020143326)
  );
#847 = ORIENTED_EDGE('',*,*,#848,.T.);
#848 = EDGE_CURVE('',#841,#849,#851,.T.);
#849 = VERTEX_POINT('',#850);
#850 = CARTESIAN_POINT('',(30.,-2.993382743048,4.854532572102));
#851 = LINE('',#852,#853);
#852 = CARTESIAN_POINT('',(30.,-2.29224144923,6.780902444714));
#853 = VECTOR('',#854,1.);
#854 = DIRECTION('',(6.840402866513E-16,-0.342020143326,-0.939692620786)
  );
#855 = ORIENTED_EDGE('',*,*,#856,.T.);
#856 = EDGE_CURVE('',#849,#443,#857,.T.);
#857 = LINE('',#858,#859);
#858 = CARTESIAN_POINT('',(30.,-2.993382743048,4.854532572102));
#859 = VECTOR('',#860,1.);
#860 = DIRECTION('',(-1.879385241572E-15,0.939692620786,-0.342020143326)
  );
#861 = ORIENTED_EDGE('',*,*,#442,.T.);
#862 = ORIENTED_EDGE('',*,*,#383,.T.);
#863 = ORIENTED_EDGE('',*,*,#864,.T.);
#864 = EDGE_CURVE('',#376,#531,#865,.T.);
#865 = LINE('',#866,#867);
#866 = CARTESIAN_POINT('',(30.,-5.154675770855,5.641178901751));
#867 = VECTOR('',#868,1.);
#868 = DIRECTION('',(-6.840402866513E-16,0.342020143326,0.939692620786)
  );
#869 = ORIENTED_EDGE('',*,*,#530,.T.);
#870 = ORIENTED_EDGE('',*,*,#506,.T.);
#871 = PLANE('',#872);
#872 = AXIS2_PLACEMENT_3D('',#873,#874,#875);
#873 = CARTESIAN_POINT('',(30.,-2.522943370835,5.774088860378));
#874 = DIRECTION('',(1.,1.71E-15,2.9E-16));
#875 = DIRECTION('',(-1.71E-15,1.,0.));
#876 = ADVANCED_FACE('',(#877),#893,.F.);
#877 = FACE_BOUND('',#878,.F.);
#878 = EDGE_LOOP('',(#879,#880,#886,#887));
#879 = ORIENTED_EDGE('',*,*,#400,.F.);
#880 = ORIENTED_EDGE('',*,*,#881,.T.);
#881 = EDGE_CURVE('',#401,#551,#882,.T.);
#882 = LINE('',#883,#884);
#883 = CARTESIAN_POINT('',(34.9,-6.129778288677,1.792584992317));
#884 = VECTOR('',#885,1.);
#885 = DIRECTION('',(0.,0.342020143326,0.939692620786));
#886 = ORIENTED_EDGE('',*,*,#548,.F.);
#887 = ORIENTED_EDGE('',*,*,#888,.F.);
#888 = EDGE_CURVE('',#403,#549,#889,.T.);
#889 = LINE('',#890,#891);
#890 = CARTESIAN_POINT('',(31.748696978501,-5.051969177601,
    1.400294557664));
#891 = VECTOR('',#892,1.);
#892 = DIRECTION('',(0.,0.342020143326,0.939692620786));
#893 = PLANE('',#894);
#894 = AXIS2_PLACEMENT_3D('',#895,#896,#897);
#895 = CARTESIAN_POINT('',(34.9,-6.129778288677,1.792584992317));
#896 = DIRECTION('',(-0.342020143326,-0.883022221559,0.321393804843));
#897 = DIRECTION('',(-0.939692620786,0.321393804843,-0.116977778441));
#898 = ADVANCED_FACE('',(#899),#910,.F.);
#899 = FACE_BOUND('',#900,.F.);
#900 = EDGE_LOOP('',(#901,#902,#903,#904));
#901 = ORIENTED_EDGE('',*,*,#426,.F.);
#902 = ORIENTED_EDGE('',*,*,#888,.T.);
#903 = ORIENTED_EDGE('',*,*,#558,.F.);
#904 = ORIENTED_EDGE('',*,*,#905,.F.);
#905 = EDGE_CURVE('',#419,#559,#906,.T.);
#906 = LINE('',#907,#908);
#907 = CARTESIAN_POINT('',(31.851303021499,-4.787062511134,
    1.303876416211));
#908 = VECTOR('',#909,1.);
#909 = DIRECTION('',(0.,0.342020143326,0.939692620786));
#910 = CYLINDRICAL_SURFACE('',#911,0.15);
#911 = AXIS2_PLACEMENT_3D('',#912,#913,#914);
#912 = CARTESIAN_POINT('',(31.8,-4.919515844367,1.352085486938));
#913 = DIRECTION('',(0.,-0.342020143326,-0.939692620786));
#914 = DIRECTION('',(1.,0.,0.));
#915 = ADVANCED_FACE('',(#916),#927,.F.);
#916 = FACE_BOUND('',#917,.F.);
#917 = EDGE_LOOP('',(#918,#919,#920,#921));
#918 = ORIENTED_EDGE('',*,*,#418,.F.);
#919 = ORIENTED_EDGE('',*,*,#905,.T.);
#920 = ORIENTED_EDGE('',*,*,#567,.F.);
#921 = ORIENTED_EDGE('',*,*,#922,.F.);
#922 = EDGE_CURVE('',#411,#568,#923,.T.);
#923 = LINE('',#924,#925);
#924 = CARTESIAN_POINT('',(35.777141320049,-6.129778288677,
    1.792584992317));
#925 = VECTOR('',#926,1.);
#926 = DIRECTION('',(0.,0.342020143326,0.939692620786));
#927 = PLANE('',#928);
#928 = AXIS2_PLACEMENT_3D('',#929,#930,#931);
#929 = CARTESIAN_POINT('',(31.851303021499,-4.787062511134,
    1.303876416211));
#930 = DIRECTION('',(0.342020143326,0.883022221559,-0.321393804843));
#931 = DIRECTION('',(0.939692620786,-0.321393804843,0.116977778441));
#932 = ADVANCED_FACE('',(#933),#939,.F.);
#933 = FACE_BOUND('',#934,.F.);
#934 = EDGE_LOOP('',(#935,#936,#937,#938));
#935 = ORIENTED_EDGE('',*,*,#881,.F.);
#936 = ORIENTED_EDGE('',*,*,#410,.F.);
#937 = ORIENTED_EDGE('',*,*,#922,.T.);
#938 = ORIENTED_EDGE('',*,*,#575,.F.);
#939 = PLANE('',#940);
#940 = AXIS2_PLACEMENT_3D('',#941,#942,#943);
#941 = CARTESIAN_POINT('',(35.338570660025,0.762872625928,
    20.729987740377));
#942 = DIRECTION('',(-4.8E-16,-0.939692620786,0.342020143326));
#943 = DIRECTION('',(0.,-0.342020143326,-0.939692620786));
#944 = ADVANCED_FACE('',(#945),#963,.F.);
#945 = FACE_BOUND('',#946,.F.);
#946 = EDGE_LOOP('',(#947,#955,#956,#957));
#947 = ORIENTED_EDGE('',*,*,#948,.T.);
#948 = EDGE_CURVE('',#949,#849,#951,.T.);
#949 = VERTEX_POINT('',#950);
#950 = CARTESIAN_POINT('',(34.9,-2.993382743048,4.854532572102));
#951 = LINE('',#952,#953);
#952 = CARTESIAN_POINT('',(34.9,-2.993382743048,4.854532572102));
#953 = VECTOR('',#954,1.);
#954 = DIRECTION('',(-1.,-1.78E-15,0.));
#955 = ORIENTED_EDGE('',*,*,#856,.T.);
#956 = ORIENTED_EDGE('',*,*,#450,.F.);
#957 = ORIENTED_EDGE('',*,*,#958,.F.);
#958 = EDGE_CURVE('',#949,#451,#959,.T.);
#959 = LINE('',#960,#961);
#960 = CARTESIAN_POINT('',(34.9,-2.993382743048,4.854532572102));
#961 = VECTOR('',#962,1.);
#962 = DIRECTION('',(-1.879385241572E-15,0.939692620786,-0.342020143326)
  );
#963 = PLANE('',#964);
#964 = AXIS2_PLACEMENT_3D('',#965,#966,#967);
#965 = CARTESIAN_POINT('',(34.9,-2.993382743048,4.854532572102));
#966 = DIRECTION('',(6.1E-16,-0.342020143326,-0.939692620786));
#967 = DIRECTION('',(-1.67E-15,0.939692620786,-0.342020143326));
#968 = ADVANCED_FACE('',(#969),#987,.F.);
#969 = FACE_BOUND('',#970,.F.);
#970 = EDGE_LOOP('',(#971,#972,#980,#986));
#971 = ORIENTED_EDGE('',*,*,#474,.T.);
#972 = ORIENTED_EDGE('',*,*,#973,.T.);
#973 = EDGE_CURVE('',#475,#974,#976,.T.);
#974 = VERTEX_POINT('',#975);
#975 = CARTESIAN_POINT('',(34.9,-2.29224144923,6.780902444714));
#976 = LINE('',#977,#978);
#977 = CARTESIAN_POINT('',(34.9,5.6990102735E-02,5.925852086399));
#978 = VECTOR('',#979,1.);
#979 = DIRECTION('',(1.879385241572E-15,-0.939692620786,0.342020143326)
  );
#980 = ORIENTED_EDGE('',*,*,#981,.T.);
#981 = EDGE_CURVE('',#974,#949,#982,.T.);
#982 = LINE('',#983,#984);
#983 = CARTESIAN_POINT('',(34.9,-2.29224144923,6.780902444714));
#984 = VECTOR('',#985,1.);
#985 = DIRECTION('',(6.840402866513E-16,-0.342020143326,-0.939692620786)
  );
#986 = ORIENTED_EDGE('',*,*,#958,.T.);
#987 = PLANE('',#988);
#988 = AXIS2_PLACEMENT_3D('',#989,#990,#991);
#989 = CARTESIAN_POINT('',(34.9,-2.54884283406,5.783515494075));
#990 = DIRECTION('',(1.,1.7E-15,3.5E-16));
#991 = DIRECTION('',(-1.7E-15,1.,0.));
#992 = ADVANCED_FACE('',(#993),#1004,.F.);
#993 = FACE_BOUND('',#994,.F.);
#994 = EDGE_LOOP('',(#995,#996,#997,#1003));
#995 = ORIENTED_EDGE('',*,*,#498,.T.);
#996 = ORIENTED_EDGE('',*,*,#840,.T.);
#997 = ORIENTED_EDGE('',*,*,#998,.F.);
#998 = EDGE_CURVE('',#974,#841,#999,.T.);
#999 = LINE('',#1000,#1001);
#1000 = CARTESIAN_POINT('',(34.9,-2.29224144923,6.780902444714));
#1001 = VECTOR('',#1002,1.);
#1002 = DIRECTION('',(-1.,-1.78E-15,0.));
#1003 = ORIENTED_EDGE('',*,*,#973,.F.);
#1004 = PLANE('',#1005);
#1005 = AXIS2_PLACEMENT_3D('',#1006,#1007,#1008);
#1006 = CARTESIAN_POINT('',(34.9,5.6990102735E-02,5.925852086399));
#1007 = DIRECTION('',(-6.1E-16,0.342020143326,0.939692620786));
#1008 = DIRECTION('',(1.67E-15,-0.939692620786,0.342020143326));
#1009 = ADVANCED_FACE('',(#1010),#1028,.T.);
#1010 = FACE_BOUND('',#1011,.T.);
#1011 = EDGE_LOOP('',(#1012,#1013,#1014,#1022));
#1012 = ORIENTED_EDGE('',*,*,#785,.F.);
#1013 = ORIENTED_EDGE('',*,*,#538,.T.);
#1014 = ORIENTED_EDGE('',*,*,#1015,.F.);
#1015 = EDGE_CURVE('',#1016,#531,#1018,.T.);
#1016 = VERTEX_POINT('',#1017);
#1017 = CARTESIAN_POINT('',(34.802511873617,-5.175596072057,
    7.830357702257));
#1018 = LINE('',#1019,#1020);
#1019 = CARTESIAN_POINT('',(35.,-5.205288573666,7.841164889024));
#1020 = VECTOR('',#1021,1.);
#1021 = DIRECTION('',(-0.987440631917,0.148462508044,-5.40359338326E-02)
  );
#1022 = ORIENTED_EDGE('',*,*,#1023,.F.);
#1023 = EDGE_CURVE('',#786,#1016,#1024,.T.);
#1024 = LINE('',#1025,#1026);
#1025 = CARTESIAN_POINT('',(34.375,-5.518158710282,7.955040305943));
#1026 = VECTOR('',#1027,1.);
#1027 = DIRECTION('',(-0.760917374327,-0.609718417914,0.221919355405));
#1028 = PLANE('',#1029);
#1029 = AXIS2_PLACEMENT_3D('',#1030,#1031,#1032);
#1030 = CARTESIAN_POINT('',(32.684101109883,-4.656413070916,
    7.641390543705));
#1031 = DIRECTION('',(0.,0.342020143326,0.939692620786));
#1032 = DIRECTION('',(0.,0.939692620786,-0.342020143326));
#1033 = ADVANCED_FACE('',(#1034),#1059,.T.);
#1034 = FACE_BOUND('',#1035,.F.);
#1035 = EDGE_LOOP('',(#1036,#1044,#1045,#1053));
#1036 = ORIENTED_EDGE('',*,*,#1037,.F.);
#1037 = EDGE_CURVE('',#590,#1038,#1040,.T.);
#1038 = VERTEX_POINT('',#1039);
#1039 = CARTESIAN_POINT('',(40.8,-6.8984608378,2.604451446035));
#1040 = LINE('',#1041,#1042);
#1041 = CARTESIAN_POINT('',(40.6,-7.086399361957,2.672855474701));
#1042 = VECTOR('',#1043,1.);
#1043 = DIRECTION('',(0.707106781187,0.664463024389,-0.241844762648));
#1044 = ORIENTED_EDGE('',*,*,#597,.T.);
#1045 = ORIENTED_EDGE('',*,*,#1046,.T.);
#1046 = EDGE_CURVE('',#598,#1047,#1049,.T.);
#1047 = VERTEX_POINT('',#1048);
#1048 = CARTESIAN_POINT('',(40.8,-3.136239261218,12.94107027468));
#1049 = LINE('',#1050,#1051);
#1050 = CARTESIAN_POINT('',(40.6,-3.324177785375,13.009474303346));
#1051 = VECTOR('',#1052,1.);
#1052 = DIRECTION('',(0.707106781187,0.664463024389,-0.241844762648));
#1053 = ORIENTED_EDGE('',*,*,#1054,.F.);
#1054 = EDGE_CURVE('',#1038,#1047,#1055,.T.);
#1055 = LINE('',#1056,#1057);
#1056 = CARTESIAN_POINT('',(40.8,-6.8984608378,2.604451446035));
#1057 = VECTOR('',#1058,1.);
#1058 = DIRECTION('',(-6.1E-16,0.342020143326,0.939692620786));
#1059 = PLANE('',#1060);
#1060 = AXIS2_PLACEMENT_3D('',#1061,#1062,#1063);
#1061 = CARTESIAN_POINT('',(40.6,-7.086399361957,2.672855474701));
#1062 = DIRECTION('',(0.707106781187,-0.664463024389,0.241844762648));
#1063 = DIRECTION('',(7.216449660064E-16,-0.342020143326,-0.939692620786
    ));
#1064 = ADVANCED_FACE('',(#1065),#1084,.T.);
#1065 = FACE_BOUND('',#1066,.F.);
#1066 = EDGE_LOOP('',(#1067,#1075,#1076,#1077));
#1067 = ORIENTED_EDGE('',*,*,#1068,.F.);
#1068 = EDGE_CURVE('',#622,#1069,#1071,.T.);
#1069 = VERTEX_POINT('',#1070);
#1070 = CARTESIAN_POINT('',(40.8,-6.838693590054,2.476280169624));
#1071 = LINE('',#1072,#1073);
#1072 = CARTESIAN_POINT('',(40.6,-6.907097618719,2.288341645467));
#1073 = VECTOR('',#1074,1.);
#1074 = DIRECTION('',(0.707106781187,0.241844762648,0.664463024389));
#1075 = ORIENTED_EDGE('',*,*,#621,.T.);
#1076 = ORIENTED_EDGE('',*,*,#1037,.T.);
#1077 = ORIENTED_EDGE('',*,*,#1078,.F.);
#1078 = EDGE_CURVE('',#1069,#1038,#1079,.T.);
#1079 = CIRCLE('',#1080,1.E-01);
#1080 = AXIS2_PLACEMENT_3D('',#1081,#1082,#1083);
#1081 = CARTESIAN_POINT('',(40.8,-6.804491575721,2.570249431703));
#1082 = DIRECTION('',(-1.,-1.94E-15,0.));
#1083 = DIRECTION('',(6.635190780518E-16,-0.342020143326,-0.939692620786
    ));
#1084 = CONICAL_SURFACE('',#1085,0.5,0.785398163397);
#1085 = AXIS2_PLACEMENT_3D('',#1086,#1087,#1088);
#1086 = CARTESIAN_POINT('',(40.4,-6.804491575721,2.570249431703));
#1087 = DIRECTION('',(-1.,-1.94E-15,-0.));
#1088 = DIRECTION('',(6.635190780518E-16,-0.342020143326,-0.939692620786
    ));
#1089 = ADVANCED_FACE('',(#1090),#1109,.T.);
#1090 = FACE_BOUND('',#1091,.F.);
#1091 = EDGE_LOOP('',(#1092,#1093,#1094,#1102));
#1092 = ORIENTED_EDGE('',*,*,#1046,.F.);
#1093 = ORIENTED_EDGE('',*,*,#653,.T.);
#1094 = ORIENTED_EDGE('',*,*,#1095,.T.);
#1095 = EDGE_CURVE('',#646,#1096,#1098,.T.);
#1096 = VERTEX_POINT('',#1097);
#1097 = CARTESIAN_POINT('',(40.8,-3.008067984806,13.000837522426));
#1098 = LINE('',#1099,#1100);
#1099 = CARTESIAN_POINT('',(40.4,-2.871259927476,13.376714570741));
#1100 = VECTOR('',#1101,1.);
#1101 = DIRECTION('',(0.707106781187,-0.241844762648,-0.664463024389));
#1102 = ORIENTED_EDGE('',*,*,#1103,.F.);
#1103 = EDGE_CURVE('',#1047,#1096,#1104,.T.);
#1104 = CIRCLE('',#1105,1.E-01);
#1105 = AXIS2_PLACEMENT_3D('',#1106,#1107,#1108);
#1106 = CARTESIAN_POINT('',(40.8,-3.042269999139,12.906868260348));
#1107 = DIRECTION('',(-1.,-1.94E-15,0.));
#1108 = DIRECTION('',(1.823003684325E-15,-0.939692620786,0.342020143326)
  );
#1109 = CONICAL_SURFACE('',#1110,0.5,0.785398163397);
#1110 = AXIS2_PLACEMENT_3D('',#1111,#1112,#1113);
#1111 = CARTESIAN_POINT('',(40.4,-3.042269999139,12.906868260348));
#1112 = DIRECTION('',(-1.,-1.94E-15,-0.));
#1113 = DIRECTION('',(1.823003684325E-15,-0.939692620786,0.342020143326)
  );
#1114 = ADVANCED_FACE('',(#1115),#1133,.T.);
#1115 = FACE_BOUND('',#1116,.F.);
#1116 = EDGE_LOOP('',(#1117,#1125,#1126,#1127));
#1117 = ORIENTED_EDGE('',*,*,#1118,.F.);
#1118 = EDGE_CURVE('',#671,#1119,#1121,.T.);
#1119 = VERTEX_POINT('',#1120);
#1120 = CARTESIAN_POINT('',(40.8,-1.388476389496,0.492563338335));
#1121 = LINE('',#1122,#1123);
#1122 = CARTESIAN_POINT('',(40.4,-1.525284446826,0.116686290021));
#1123 = VECTOR('',#1124,1.);
#1124 = DIRECTION('',(0.707106781187,0.241844762648,0.664463024389));
#1125 = ORIENTED_EDGE('',*,*,#678,.T.);
#1126 = ORIENTED_EDGE('',*,*,#1068,.T.);
#1127 = ORIENTED_EDGE('',*,*,#1128,.F.);
#1128 = EDGE_CURVE('',#1119,#1069,#1129,.T.);
#1129 = LINE('',#1130,#1131);
#1130 = CARTESIAN_POINT('',(40.8,-1.388476389496,0.492563338335));
#1131 = VECTOR('',#1132,1.);
#1132 = DIRECTION('',(1.67E-15,-0.939692620786,0.342020143326));
#1133 = PLANE('',#1134);
#1134 = AXIS2_PLACEMENT_3D('',#1135,#1136,#1137);
#1135 = CARTESIAN_POINT('',(40.6,-1.456880418161,0.304624814178));
#1136 = DIRECTION('',(0.707106781187,-0.241844762648,-0.664463024389));
#1137 = DIRECTION('',(-1.582067810091E-15,0.939692620786,-0.342020143326
    ));
#1138 = ADVANCED_FACE('',(#1139),#1157,.T.);
#1139 = FACE_BOUND('',#1140,.F.);
#1140 = EDGE_LOOP('',(#1141,#1142,#1143,#1151));
#1141 = ORIENTED_EDGE('',*,*,#1095,.F.);
#1142 = ORIENTED_EDGE('',*,*,#695,.T.);
#1143 = ORIENTED_EDGE('',*,*,#1144,.T.);
#1144 = EDGE_CURVE('',#696,#1145,#1147,.T.);
#1145 = VERTEX_POINT('',#1146);
#1146 = CARTESIAN_POINT('',(40.8,2.442149215752,11.017120691138));
#1147 = LINE('',#1148,#1149);
#1148 = CARTESIAN_POINT('',(40.6,2.510553244417,11.205059215295));
#1149 = VECTOR('',#1150,1.);
#1150 = DIRECTION('',(0.707106781187,-0.241844762648,-0.664463024389));
#1151 = ORIENTED_EDGE('',*,*,#1152,.F.);
#1152 = EDGE_CURVE('',#1096,#1145,#1153,.T.);
#1153 = LINE('',#1154,#1155);
#1154 = CARTESIAN_POINT('',(40.8,-3.008067984806,13.000837522426));
#1155 = VECTOR('',#1156,1.);
#1156 = DIRECTION('',(-1.67E-15,0.939692620786,-0.342020143326));
#1157 = PLANE('',#1158);
#1158 = AXIS2_PLACEMENT_3D('',#1159,#1160,#1161);
#1159 = CARTESIAN_POINT('',(40.6,-2.939663956141,13.188776046584));
#1160 = DIRECTION('',(0.707106781187,0.241844762648,0.664463024389));
#1161 = DIRECTION('',(1.554312234475E-15,-0.939692620786,0.342020143326)
  );
#1162 = ADVANCED_FACE('',(#1163),#1182,.T.);
#1163 = FACE_BOUND('',#1164,.F.);
#1164 = EDGE_LOOP('',(#1165,#1173,#1174,#1175));
#1165 = ORIENTED_EDGE('',*,*,#1166,.F.);
#1166 = EDGE_CURVE('',#720,#1167,#1169,.T.);
#1167 = VERTEX_POINT('',#1168);
#1168 = CARTESIAN_POINT('',(40.8,-1.260305113085,0.552330586081));
#1169 = LINE('',#1170,#1171);
#1170 = CARTESIAN_POINT('',(40.6,-1.072366588927,0.483926557416));
#1171 = VECTOR('',#1172,1.);
#1172 = DIRECTION('',(0.707106781187,-0.664463024389,0.241844762648));
#1173 = ORIENTED_EDGE('',*,*,#719,.T.);
#1174 = ORIENTED_EDGE('',*,*,#1118,.T.);
#1175 = ORIENTED_EDGE('',*,*,#1176,.F.);
#1176 = EDGE_CURVE('',#1167,#1119,#1177,.T.);
#1177 = CIRCLE('',#1178,1.E-01);
#1178 = AXIS2_PLACEMENT_3D('',#1179,#1180,#1181);
#1179 = CARTESIAN_POINT('',(40.8,-1.354274375163,0.586532600414));
#1180 = DIRECTION('',(-1.,-1.94E-15,0.));
#1181 = DIRECTION('',(-1.823003684325E-15,0.939692620786,-0.342020143326
    ));
#1182 = CONICAL_SURFACE('',#1183,0.5,0.785398163397);
#1183 = AXIS2_PLACEMENT_3D('',#1184,#1185,#1186);
#1184 = CARTESIAN_POINT('',(40.4,-1.354274375163,0.586532600414));
#1185 = DIRECTION('',(-1.,-1.94E-15,-0.));
#1186 = DIRECTION('',(-1.823003684325E-15,0.939692620786,-0.342020143326
    ));
#1187 = ADVANCED_FACE('',(#1188),#1207,.T.);
#1188 = FACE_BOUND('',#1189,.F.);
#1189 = EDGE_LOOP('',(#1190,#1191,#1192,#1200));
#1190 = ORIENTED_EDGE('',*,*,#1144,.F.);
#1191 = ORIENTED_EDGE('',*,*,#751,.T.);
#1192 = ORIENTED_EDGE('',*,*,#1193,.T.);
#1193 = EDGE_CURVE('',#744,#1194,#1196,.T.);
#1194 = VERTEX_POINT('',#1195);
#1195 = CARTESIAN_POINT('',(40.8,2.501916463498,10.888949414726));
#1196 = LINE('',#1197,#1198);
#1197 = CARTESIAN_POINT('',(40.4,2.877793511812,10.752141357396));
#1198 = VECTOR('',#1199,1.);
#1199 = DIRECTION('',(0.707106781187,-0.664463024389,0.241844762648));
#1200 = ORIENTED_EDGE('',*,*,#1201,.F.);
#1201 = EDGE_CURVE('',#1145,#1194,#1202,.T.);
#1202 = CIRCLE('',#1203,1.E-01);
#1203 = AXIS2_PLACEMENT_3D('',#1204,#1205,#1206);
#1204 = CARTESIAN_POINT('',(40.8,2.407947201419,10.923151429059));
#1205 = DIRECTION('',(-1.,-1.94E-15,0.));
#1206 = DIRECTION('',(-6.635190780518E-16,0.342020143326,0.939692620786)
  );
#1207 = CONICAL_SURFACE('',#1208,0.5,0.785398163397);
#1208 = AXIS2_PLACEMENT_3D('',#1209,#1210,#1211);
#1209 = CARTESIAN_POINT('',(40.4,2.407947201419,10.923151429059));
#1210 = DIRECTION('',(-1.,-1.94E-15,-0.));
#1211 = DIRECTION('',(-6.635190780518E-16,0.342020143326,0.939692620786)
  );
#1212 = ADVANCED_FACE('',(#1213),#1224,.T.);
#1213 = FACE_BOUND('',#1214,.F.);
#1214 = EDGE_LOOP('',(#1215,#1216,#1217,#1218));
#1215 = ORIENTED_EDGE('',*,*,#1193,.F.);
#1216 = ORIENTED_EDGE('',*,*,#769,.T.);
#1217 = ORIENTED_EDGE('',*,*,#1166,.T.);
#1218 = ORIENTED_EDGE('',*,*,#1219,.F.);
#1219 = EDGE_CURVE('',#1194,#1167,#1220,.T.);
#1220 = LINE('',#1221,#1222);
#1221 = CARTESIAN_POINT('',(40.8,2.501916463498,10.888949414726));
#1222 = VECTOR('',#1223,1.);
#1223 = DIRECTION('',(6.1E-16,-0.342020143326,-0.939692620786));
#1224 = PLANE('',#1225);
#1225 = AXIS2_PLACEMENT_3D('',#1226,#1227,#1228);
#1226 = CARTESIAN_POINT('',(40.6,2.689854987655,10.820545386061));
#1227 = DIRECTION('',(0.707106781187,0.664463024389,-0.241844762648));
#1228 = DIRECTION('',(-6.383782391595E-16,0.342020143326,0.939692620786)
  );
#1229 = ADVANCED_FACE('',(#1230),#1241,.T.);
#1230 = FACE_BOUND('',#1231,.F.);
#1231 = EDGE_LOOP('',(#1232,#1233,#1234,#1235));
#1232 = ORIENTED_EDGE('',*,*,#1023,.F.);
#1233 = ORIENTED_EDGE('',*,*,#802,.T.);
#1234 = ORIENTED_EDGE('',*,*,#826,.T.);
#1235 = ORIENTED_EDGE('',*,*,#1236,.F.);
#1236 = EDGE_CURVE('',#1016,#819,#1237,.T.);
#1237 = LINE('',#1238,#1239);
#1238 = CARTESIAN_POINT('',(34.802511873617,-5.175596072057,
    7.830357702257));
#1239 = VECTOR('',#1240,1.);
#1240 = DIRECTION('',(-3.E-17,-0.342020143326,-0.939692620786));
#1241 = PLANE('',#1242);
#1242 = AXIS2_PLACEMENT_3D('',#1243,#1244,#1245);
#1243 = CARTESIAN_POINT('',(34.901255936808,-5.096473060783,
    7.801559281308));
#1244 = DIRECTION('',(0.648848787813,-0.715028441683,0.260249069426));
#1245 = DIRECTION('',(2.775557561563E-17,0.342020143326,0.939692620786)
  );
#1246 = ADVANCED_FACE('',(#1247),#1253,.F.);
#1247 = FACE_BOUND('',#1248,.F.);
#1248 = EDGE_LOOP('',(#1249,#1250,#1251,#1252));
#1249 = ORIENTED_EDGE('',*,*,#1015,.F.);
#1250 = ORIENTED_EDGE('',*,*,#1236,.T.);
#1251 = ORIENTED_EDGE('',*,*,#818,.T.);
#1252 = ORIENTED_EDGE('',*,*,#864,.T.);
#1253 = PLANE('',#1254);
#1254 = AXIS2_PLACEMENT_3D('',#1255,#1256,#1257);
#1255 = CARTESIAN_POINT('',(35.,-5.205288573666,7.841164889024));
#1256 = DIRECTION('',(0.157990501107,0.927890675276,-0.337724586454));
#1257 = DIRECTION('',(-0.987440631917,0.148462508044,-5.40359338326E-02)
  );
#1258 = ADVANCED_FACE('',(#1259),#1265,.F.);
#1259 = FACE_BOUND('',#1260,.F.);
#1260 = EDGE_LOOP('',(#1261,#1262,#1263,#1264));
#1261 = ORIENTED_EDGE('',*,*,#998,.T.);
#1262 = ORIENTED_EDGE('',*,*,#848,.T.);
#1263 = ORIENTED_EDGE('',*,*,#948,.F.);
#1264 = ORIENTED_EDGE('',*,*,#981,.F.);
#1265 = PLANE('',#1266);
#1266 = AXIS2_PLACEMENT_3D('',#1267,#1268,#1269);
#1267 = CARTESIAN_POINT('',(34.9,-2.29224144923,6.780902444714));
#1268 = DIRECTION('',(1.67E-15,-0.939692620786,0.342020143326));
#1269 = DIRECTION('',(6.1E-16,-0.342020143326,-0.939692620786));
#1270 = ADVANCED_FACE('',(#1271),#1281,.T.);
#1271 = FACE_BOUND('',#1272,.T.);
#1272 = EDGE_LOOP('',(#1273,#1274,#1275,#1276,#1277,#1278,#1279,#1280));
#1273 = ORIENTED_EDGE('',*,*,#1054,.F.);
#1274 = ORIENTED_EDGE('',*,*,#1078,.F.);
#1275 = ORIENTED_EDGE('',*,*,#1128,.F.);
#1276 = ORIENTED_EDGE('',*,*,#1176,.F.);
#1277 = ORIENTED_EDGE('',*,*,#1219,.F.);
#1278 = ORIENTED_EDGE('',*,*,#1201,.F.);
#1279 = ORIENTED_EDGE('',*,*,#1152,.F.);
#1280 = ORIENTED_EDGE('',*,*,#1103,.F.);
#1281 = PLANE('',#1282);
#1282 = AXIS2_PLACEMENT_3D('',#1283,#1284,#1285);
#1283 = CARTESIAN_POINT('',(40.8,-2.198272187151,6.746700430381));
#1284 = DIRECTION('',(1.,1.94E-15,0.));
#1285 = DIRECTION('',(-1.94E-15,1.,0.));
#1286 = ( GEOMETRIC_REPRESENTATION_CONTEXT(3) 
GLOBAL_UNCERTAINTY_ASSIGNED_CONTEXT((#1290)) 
GLOBAL_UNIT_ASSIGNED_CONTEXT((#1287,#1288,#1289)) REPRESENTATION_CONTEXT
('Context #1','3D Context with UNIT and UNCERTAINTY') );
#1287 = ( LENGTH_UNIT() NAMED_UNIT(*) SI_UNIT(.MILLI.,.METRE.) );
#1288 = ( NAMED_UNIT(*) PLANE_ANGLE_UNIT() SI_UNIT($,.RADIAN.) );
#1289 = ( NAMED_UNIT(*) SI_UNIT($,.STERADIAN.) SOLID_ANGLE_UNIT() );
#1290 = UNCERTAINTY_MEASURE_WITH_UNIT(LENGTH_MEASURE(2.E-06),#1287,
  'distance_accuracy_value','confusion accuracy');
#1291 = PRODUCT_RELATED_PRODUCT_CATEGORY('part',$,(#7));
#1292 = MECHANICAL_DESIGN_GEOMETRIC_PRESENTATION_REPRESENTATION('',(
    #1293),#1286);
#1293 = STYLED_ITEM('color',(#1294),#15);
#1294 = PRESENTATION_STYLE_ASSIGNMENT((#1295,#1301));
#1295 = SURFACE_STYLE_USAGE(.BOTH.,#1296);
#1296 = SURFACE_SIDE_STYLE('',(#1297));
#1297 = SURFACE_STYLE_FILL_AREA(#1298);
#1298 = FILL_AREA_STYLE('',(#1299));
#1299 = FILL_AREA_STYLE_COLOUR('',#1300);
#1300 = DRAUGHTING_PRE_DEFINED_COLOUR('yellow');
#1301 = CURVE_STYLE('',#1302,POSITIVE_LENGTH_MEASURE(0.1),#1303);
#1302 = DRAUGHTING_PRE_DEFINED_CURVE_FONT('continuous');
#1303 = COLOUR_RGB('',9.803921802644E-02,9.803921802644E-02,
  9.803921802644E-02);
ENDSEC;
END-ISO-10303-21;
